<svg width="900" height="900" viewBox="0 0 900 900" fill="none" xmlns="http://www.w3.org/2000/svg">
<rect width="900" height="900" rx="51" fill="white"/>
<path d="M215.672 180.302H532.27C553.67 180.302 571.02 197.651 571.02 219.052V376.863H176.922V219.052C176.922 197.651 194.271 180.302 215.672 180.302Z" stroke="#888888" stroke-width="2.5"/>
<path d="M532.271 574.598L215.674 574.598C194.273 574.597 176.924 557.249 176.924 535.848L176.924 378.036L571.022 378.036L571.021 535.848C571.021 557.249 553.673 574.598 532.271 574.598Z" stroke="#888888" stroke-width="2.5"/>
<path d="M519.146 256.529V376.864H229.16V256.529H519.146Z" stroke="#888888" stroke-width="2.5"/>
<path d="M228.795 498.373L228.795 378.038L518.781 378.038L518.781 498.373L228.795 498.373Z" stroke="#888888" stroke-width="2.5"/>
<path d="M218.742 241.935H274.308C276.379 241.935 278.058 243.614 278.058 245.685V304.058H218.742C216.671 304.058 214.992 302.379 214.992 300.308V245.685C214.992 243.614 216.671 241.935 218.742 241.935Z" stroke="#888888" stroke-width="2.5"/>
<path d="M529.203 512.969L473.638 512.969C471.567 512.969 469.888 511.29 469.888 509.219L469.888 450.846L529.203 450.846C531.274 450.846 532.953 452.525 532.953 454.596L532.953 509.219C532.953 511.29 531.274 512.969 529.203 512.969Z" stroke="#888888" stroke-width="2.5"/>
<path d="M472.135 241.935H527.7C530.323 241.935 532.45 244.061 532.45 246.685V300.308C532.45 302.379 530.771 304.057 528.7 304.058H469.385V244.685C469.385 243.166 470.616 241.935 472.135 241.935Z" stroke="#888888" stroke-width="2.5"/>
<path d="M717.215 180.302H783.937C786.56 180.302 788.687 182.428 788.687 185.052V570.848C788.687 572.919 787.007 574.598 784.937 574.598H714.465V183.052C714.465 181.533 715.696 180.302 717.215 180.302Z" stroke="#888888" stroke-width="2.5"/>
<path d="M275.811 512.969L220.245 512.969C217.622 512.969 215.495 510.842 215.495 508.219L215.495 454.596C215.495 452.525 217.174 450.846 219.245 450.846L278.561 450.846L278.561 510.219C278.561 511.738 277.329 512.969 275.811 512.969Z" stroke="#888888" stroke-width="2.5"/>
<rect x="278.453" y="194.659" width="195.598" height="16.5051" rx="8.25255" stroke="#888888" stroke-width="2.5"/>
<rect x="469.488" y="560.244" width="195.598" height="16.5051" rx="8.25255" transform="rotate(-180 469.488 560.244)" stroke="#888888" stroke-width="2.5"/>
<rect x="384.832" y="257.459" width="133.332" height="45.9019" fill="white"/>
<rect x="363.111" y="497.442" width="133.332" height="45.9019" transform="rotate(-180 363.111 497.442)" fill="white"/>
<rect x="222.859" y="251.139" width="54.3469" height="52.0326" fill="white"/>
<rect x="525.084" y="503.763" width="54.3469" height="52.0326" transform="rotate(-180 525.084 503.763)" fill="white"/>
<rect x="470.242" y="251.413" width="52.3277" height="51.7734" fill="white"/>
<rect x="277.701" y="503.486" width="52.3277" height="51.7734" transform="rotate(-180 277.701 503.486)" fill="white"/>
<rect x="230.02" y="257.462" width="66.0157" height="52.7362" fill="white"/>
<rect x="517.926" y="497.438" width="66.0157" height="52.7362" transform="rotate(-180 517.926 497.438)" fill="white"/>
<rect x="466.498" y="288.838" width="51.6621" height="47.8481" fill="white"/>
<rect x="281.447" y="466.064" width="51.6621" height="47.8481" transform="rotate(-180 281.447 466.064)" fill="white"/>
<rect x="230.02" y="257.462" width="288.14" height="108.217" fill="white"/>
<rect x="517.926" y="497.438" width="288.14" height="108.217" transform="rotate(-180 517.926 497.438)" fill="white"/>
<mask id="path-25-inside-1_34_561" fill="white">
<path d="M336.88 378.115C336.88 374.624 336.193 371.166 334.856 367.94C333.52 364.715 331.562 361.784 329.093 359.315C326.624 356.846 323.693 354.887 320.467 353.551C317.242 352.215 313.784 351.527 310.293 351.527C306.801 351.527 303.344 352.215 300.118 353.551C296.892 354.887 293.961 356.846 291.492 359.315C289.024 361.784 287.065 364.715 285.729 367.94C284.393 371.166 283.705 374.624 283.705 378.115L310.293 378.115H336.88Z"/>
</mask>
<path d="M336.88 378.115C336.88 374.624 336.193 371.166 334.856 367.94C333.52 364.715 331.562 361.784 329.093 359.315C326.624 356.846 323.693 354.887 320.467 353.551C317.242 352.215 313.784 351.527 310.293 351.527C306.801 351.527 303.344 352.215 300.118 353.551C296.892 354.887 293.961 356.846 291.492 359.315C289.024 361.784 287.065 364.715 285.729 367.94C284.393 371.166 283.705 374.624 283.705 378.115L310.293 378.115H336.88Z" stroke="#888888" stroke-width="5" mask="url(#path-25-inside-1_34_561)"/>
<mask id="path-26-inside-2_34_561" fill="white">
<path d="M411.063 376.784C411.063 380.276 411.751 383.733 413.087 386.959C414.423 390.185 416.381 393.116 418.85 395.585C421.319 398.054 424.25 400.012 427.476 401.348C430.702 402.684 434.159 403.372 437.651 403.372C441.142 403.372 444.6 402.684 447.825 401.348C451.051 400.012 453.982 398.054 456.451 395.585C458.92 393.116 460.878 390.185 462.214 386.959C463.551 383.733 464.238 380.276 464.238 376.784L437.651 376.784L411.063 376.784Z"/>
</mask>
<path d="M411.063 376.784C411.063 380.276 411.751 383.733 413.087 386.959C414.423 390.185 416.381 393.116 418.85 395.585C421.319 398.054 424.25 400.012 427.476 401.348C430.702 402.684 434.159 403.372 437.651 403.372C441.142 403.372 444.6 402.684 447.825 401.348C451.051 400.012 453.982 398.054 456.451 395.585C458.92 393.116 460.878 390.185 462.214 386.959C463.551 383.733 464.238 380.276 464.238 376.784L437.651 376.784L411.063 376.784Z" stroke="#888888" stroke-width="5" mask="url(#path-26-inside-2_34_561)"/>
<mask id="path-27-inside-3_34_561" fill="white">
<path d="M464.085 378.115C464.085 374.624 463.398 371.166 462.062 367.94C460.725 364.715 458.767 361.784 456.298 359.315C453.829 356.846 450.898 354.887 447.672 353.551C444.447 352.215 440.989 351.527 437.498 351.527C434.006 351.527 430.549 352.215 427.323 353.551C424.097 354.887 421.166 356.846 418.697 359.315C416.229 361.784 414.27 364.715 412.934 367.94C411.598 371.166 410.91 374.624 410.91 378.115L437.498 378.115H464.085Z"/>
</mask>
<path d="M464.085 378.115C464.085 374.624 463.398 371.166 462.062 367.94C460.725 364.715 458.767 361.784 456.298 359.315C453.829 356.846 450.898 354.887 447.672 353.551C444.447 352.215 440.989 351.527 437.498 351.527C434.006 351.527 430.549 352.215 427.323 353.551C424.097 354.887 421.166 356.846 418.697 359.315C416.229 361.784 414.27 364.715 412.934 367.94C411.598 371.166 410.91 374.624 410.91 378.115L437.498 378.115H464.085Z" stroke="#888888" stroke-width="5" mask="url(#path-27-inside-3_34_561)"/>
<mask id="path-28-inside-4_34_561" fill="white">
<path d="M283.858 376.784C283.858 380.276 284.546 383.733 285.882 386.959C287.218 390.185 289.176 393.116 291.645 395.585C294.114 398.054 297.045 400.012 300.271 401.348C303.497 402.684 306.954 403.372 310.446 403.372C313.937 403.372 317.394 402.684 320.62 401.348C323.846 400.012 326.777 398.054 329.246 395.585C331.715 393.116 333.673 390.185 335.009 386.959C336.345 383.733 337.033 380.276 337.033 376.784L310.446 376.784L283.858 376.784Z"/>
</mask>
<path d="M283.858 376.784C283.858 380.276 284.546 383.733 285.882 386.959C287.218 390.185 289.176 393.116 291.645 395.585C294.114 398.054 297.045 400.012 300.271 401.348C303.497 402.684 306.954 403.372 310.446 403.372C313.937 403.372 317.394 402.684 320.62 401.348C323.846 400.012 326.777 398.054 329.246 395.585C331.715 393.116 333.673 390.185 335.009 386.959C336.345 383.733 337.033 380.276 337.033 376.784L310.446 376.784L283.858 376.784Z" stroke="#888888" stroke-width="5" mask="url(#path-28-inside-4_34_561)"/>
<path d="M537.508 190.332C546.76 190.332 554.26 197.832 554.26 207.084C554.26 216.336 546.76 223.837 537.508 223.837C528.256 223.837 520.756 216.336 520.756 207.084C520.756 197.832 528.256 190.332 537.508 190.332Z" stroke="#888888" stroke-width="2"/>
<path d="M210.438 564.571C201.186 564.571 193.686 557.071 193.686 547.819C193.686 538.567 201.186 531.066 210.438 531.066C219.689 531.067 227.189 538.567 227.189 547.819C227.189 557.071 219.689 564.571 210.438 564.571Z" stroke="#888888" stroke-width="2"/>
<path d="M210.156 190.582C219.27 190.582 226.658 197.97 226.658 207.084C226.658 216.198 219.27 223.587 210.156 223.587C201.042 223.587 193.654 216.198 193.654 207.084C193.654 197.97 201.043 190.582 210.156 190.582Z" stroke="#888888" stroke-width="2.5"/>
<path d="M537.789 564.321C528.675 564.321 521.287 556.933 521.287 547.819C521.287 538.705 528.675 531.316 537.789 531.316C546.903 531.317 554.291 538.705 554.291 547.819C554.291 556.933 546.903 564.321 537.789 564.321Z" stroke="#888888" stroke-width="2.5"/>
<path d="M537.51 197.836C542.617 197.836 546.757 201.977 546.757 207.084C546.757 212.191 542.617 216.331 537.51 216.331C532.402 216.331 528.262 212.191 528.262 207.084C528.262 201.977 532.402 197.836 537.51 197.836Z" stroke="#888888" stroke-width="2"/>
<path d="M210.436 557.066C205.328 557.066 201.188 552.926 201.188 547.818C201.189 542.711 205.328 538.571 210.436 538.571C215.543 538.571 219.683 542.711 219.684 547.818C219.684 552.926 215.543 557.066 210.436 557.066Z" stroke="#888888" stroke-width="2"/>
<path d="M210.154 198.086C215.123 198.086 219.151 202.115 219.151 207.084C219.151 212.053 215.123 216.081 210.154 216.081C205.185 216.081 201.156 212.053 201.156 207.084C201.156 202.115 205.185 198.086 210.154 198.086Z" stroke="#888888" stroke-width="2.5"/>
<path d="M537.789 556.816C532.82 556.816 528.792 552.788 528.792 547.818C528.792 542.849 532.82 538.821 537.789 538.821C542.758 538.821 546.787 542.849 546.787 547.818C546.787 552.788 542.758 556.816 537.789 556.816Z" stroke="#888888" stroke-width="2.5"/>
<mask id="path-37-inside-5_34_561" fill="white">
<path d="M348.094 378.113C348.094 373.167 347.12 368.269 345.227 363.7C343.335 359.13 340.561 354.979 337.063 351.481C333.566 347.984 329.414 345.21 324.845 343.317C320.275 341.424 315.378 340.45 310.432 340.45C305.486 340.45 300.589 341.424 296.019 343.317C291.45 345.21 287.298 347.984 283.801 351.481C280.303 354.979 277.529 359.13 275.636 363.7C273.744 368.269 272.77 373.167 272.77 378.113L310.432 378.113H348.094Z"/>
</mask>
<path d="M348.094 378.113C348.094 373.167 347.12 368.269 345.227 363.7C343.335 359.13 340.561 354.979 337.063 351.481C333.566 347.984 329.414 345.21 324.845 343.317C320.275 341.424 315.378 340.45 310.432 340.45C305.486 340.45 300.589 341.424 296.019 343.317C291.45 345.21 287.298 347.984 283.801 351.481C280.303 354.979 277.529 359.13 275.636 363.7C273.744 368.269 272.77 373.167 272.77 378.113L310.432 378.113H348.094Z" stroke="#888888" stroke-width="5" mask="url(#path-37-inside-5_34_561)"/>
<mask id="path-38-inside-6_34_561" fill="white">
<path d="M399.851 376.787C399.851 381.733 400.825 386.63 402.718 391.2C404.611 395.769 407.385 399.921 410.882 403.418C414.379 406.915 418.531 409.69 423.101 411.582C427.67 413.475 432.567 414.449 437.513 414.449C442.459 414.449 447.357 413.475 451.926 411.582C456.496 409.69 460.647 406.915 464.145 403.418C467.642 399.921 470.416 395.769 472.309 391.2C474.202 386.63 475.176 381.733 475.176 376.787L437.513 376.787L399.851 376.787Z"/>
</mask>
<path d="M399.851 376.787C399.851 381.733 400.825 386.63 402.718 391.2C404.611 395.769 407.385 399.921 410.882 403.418C414.379 406.915 418.531 409.69 423.101 411.582C427.67 413.475 432.567 414.449 437.513 414.449C442.459 414.449 447.357 413.475 451.926 411.582C456.496 409.69 460.647 406.915 464.145 403.418C467.642 399.921 470.416 395.769 472.309 391.2C474.202 386.63 475.176 381.733 475.176 376.787L437.513 376.787L399.851 376.787Z" stroke="#888888" stroke-width="5" mask="url(#path-38-inside-6_34_561)"/>
<mask id="path-39-inside-7_34_561" fill="white">
<path d="M475.299 378.113C475.299 373.167 474.325 368.269 472.433 363.7C470.54 359.13 467.766 354.979 464.268 351.481C460.771 347.984 456.619 345.21 452.05 343.317C447.48 341.424 442.583 340.45 437.637 340.45C432.691 340.45 427.794 341.424 423.224 343.317C418.655 345.21 414.503 347.984 411.006 351.481C407.508 354.979 404.734 359.13 402.841 363.7C400.949 368.269 399.975 373.167 399.975 378.113L437.637 378.113H475.299Z"/>
</mask>
<path d="M475.299 378.113C475.299 373.167 474.325 368.269 472.433 363.7C470.54 359.13 467.766 354.979 464.268 351.481C460.771 347.984 456.619 345.21 452.05 343.317C447.48 341.424 442.583 340.45 437.637 340.45C432.691 340.45 427.794 341.424 423.224 343.317C418.655 345.21 414.503 347.984 411.006 351.481C407.508 354.979 404.734 359.13 402.841 363.7C400.949 368.269 399.975 373.167 399.975 378.113L437.637 378.113H475.299Z" stroke="#888888" stroke-width="5" mask="url(#path-39-inside-7_34_561)"/>
<mask id="path-40-inside-8_34_561" fill="white">
<path d="M272.644 376.787C272.644 381.733 273.618 386.63 275.511 391.2C277.404 395.769 280.178 399.921 283.675 403.418C287.172 406.915 291.324 409.69 295.894 411.582C300.463 413.475 305.36 414.449 310.306 414.449C315.252 414.449 320.15 413.475 324.719 411.582C329.289 409.69 333.44 406.915 336.938 403.418C340.435 399.921 343.209 395.769 345.102 391.2C346.995 386.63 347.969 381.733 347.969 376.787L310.306 376.787L272.644 376.787Z"/>
</mask>
<path d="M272.644 376.787C272.644 381.733 273.618 386.63 275.511 391.2C277.404 395.769 280.178 399.921 283.675 403.418C287.172 406.915 291.324 409.69 295.894 411.582C300.463 413.475 305.36 414.449 310.306 414.449C315.252 414.449 320.15 413.475 324.719 411.582C329.289 409.69 333.44 406.915 336.938 403.418C340.435 399.921 343.209 395.769 345.102 391.2C346.995 386.63 347.969 381.733 347.969 376.787L310.306 376.787L272.644 376.787Z" stroke="#888888" stroke-width="5" mask="url(#path-40-inside-8_34_561)"/>
<g clip-path="url(#clip0_34_561)">
<path d="M329.84 230.855L322.855 244.488H317.201L324.479 230.851L329.84 230.855Z" fill="#3C3B3B"/>
<path d="M320.057 230.855L313.072 244.488H307.418L314.696 230.851L320.057 230.855Z" fill="#3C3B3B"/>
<path d="M310.276 230.855L303.291 244.488H297.637L304.915 230.851L310.276 230.855Z" fill="#3C3B3B"/>
<path d="M338.352 244.889V230.85H340.921L346.635 240.757H345.274L350.892 230.85H353.442L353.48 244.889H350.566L350.547 235.523H351.083L346.597 243.404H345.197L340.614 235.523H341.266V244.889H338.352ZM354.901 244.889L360.883 230.85H363.951L369.953 244.889H366.693L361.784 232.495H363.012L358.084 244.889H354.901ZM357.892 241.88L358.716 239.414H365.619L366.463 241.88H357.892ZM377.581 245.129C376.546 245.129 375.581 244.955 374.686 244.608C373.804 244.247 373.037 243.739 372.385 243.084C371.733 242.428 371.222 241.66 370.851 240.777C370.493 239.895 370.314 238.925 370.314 237.869C370.314 236.813 370.493 235.844 370.851 234.961C371.222 234.079 371.733 233.31 372.385 232.655C373.05 232 373.823 231.498 374.705 231.151C375.587 230.79 376.552 230.609 377.601 230.609C378.764 230.609 379.812 230.823 380.745 231.251C381.691 231.666 382.484 232.281 383.123 233.096L381.129 235.021C380.669 234.473 380.157 234.066 379.595 233.798C379.032 233.517 378.419 233.377 377.754 233.377C377.127 233.377 376.552 233.484 376.028 233.698C375.504 233.912 375.05 234.219 374.667 234.62C374.283 235.021 373.983 235.496 373.766 236.044C373.561 236.592 373.459 237.201 373.459 237.869C373.459 238.538 373.561 239.146 373.766 239.694C373.983 240.242 374.283 240.717 374.667 241.118C375.05 241.519 375.504 241.827 376.028 242.041C376.552 242.255 377.127 242.362 377.754 242.362C378.419 242.362 379.032 242.228 379.595 241.96C380.157 241.68 380.669 241.259 381.129 240.697L383.123 242.622C382.484 243.438 381.691 244.06 380.745 244.487C379.812 244.915 378.757 245.129 377.581 245.129ZM385.22 244.889V230.85H387.79L395.709 240.958H394.462V230.85H397.53V244.889H394.98L387.042 234.781H388.288V244.889H385.22ZM398.942 244.889L404.924 230.85H407.992L413.994 244.889H410.734L405.826 232.495H407.053L402.125 244.889H398.942ZM401.933 241.88L402.758 239.414H409.66L410.504 241.88H401.933ZM415.387 244.889V230.85H417.956L423.67 240.757H422.309L427.927 230.85H430.477L430.515 244.889H427.601L427.582 235.523H428.119L423.632 243.404H422.232L417.649 235.523H418.301V244.889H415.387ZM433.699 244.889V230.85H436.269L444.188 240.958H442.942V230.85H446.01V244.889H443.459L435.521 234.781H436.767V244.889H433.699Z" fill="#3C3B3B"/>
</g>
<path d="M68.4371 422.173C68.4466 420.781 68.6928 419.427 69.1758 418.111C69.6493 416.785 70.4258 415.592 71.5053 414.531C72.5754 413.471 74.0101 412.628 75.8093 412.003C77.6085 411.378 79.8339 411.065 82.4854 411.065C84.9854 411.056 87.2203 411.321 89.19 411.861C91.1502 412.391 92.8074 413.153 94.1616 414.148C95.5157 415.142 96.5479 416.34 97.2582 417.741C97.9684 419.143 98.3235 420.72 98.3235 422.472C98.3235 424.309 97.9637 425.937 97.244 427.358C96.5243 428.769 95.5394 429.91 94.2894 430.781C93.0394 431.652 91.6095 432.187 89.9996 432.386L89.9996 427.202C91.1549 426.937 92.0735 426.397 92.7553 425.582C93.4277 424.758 93.7638 423.722 93.7638 422.472C93.7638 420.454 92.8879 418.901 91.136 417.812C89.3841 416.723 86.9504 416.179 83.8349 416.179L83.8349 416.378C84.6682 416.842 85.3879 417.443 85.994 418.182C86.5906 418.92 87.0498 419.758 87.3718 420.696C87.6938 421.624 87.8548 422.609 87.8548 423.651C87.8548 425.355 87.4476 426.889 86.6332 428.253C85.8188 429.607 84.7013 430.682 83.2809 431.477C81.8604 432.263 80.2364 432.661 78.4087 432.67C76.5148 432.67 74.815 432.235 73.3093 431.364C71.7942 430.483 70.601 429.257 69.7298 427.685C68.8491 426.113 68.4182 424.276 68.4371 422.173ZM72.6985 422.159C72.6985 423.182 72.9495 424.105 73.4513 424.929C73.9438 425.743 74.6161 426.387 75.4684 426.861C76.3112 427.325 77.2534 427.557 78.2951 427.557C79.3273 427.547 80.2648 427.315 81.1076 426.861C81.9504 426.397 82.618 425.767 83.1104 424.972C83.6029 424.167 83.8491 423.248 83.8491 422.216C83.8491 421.449 83.7023 420.734 83.4087 420.071C83.1152 419.408 82.708 418.83 82.1871 418.338C81.6568 417.836 81.0555 417.448 80.3832 417.173C79.7108 416.889 79.0006 416.752 78.2525 416.761C77.2582 416.761 76.3396 416.998 75.4968 417.472C74.654 417.936 73.9769 418.575 73.4656 419.389C72.9542 420.194 72.6985 421.117 72.6985 422.159ZM98.3235 395.682C98.314 397.074 98.0726 398.433 97.5991 399.758C97.1161 401.084 96.3349 402.277 95.2553 403.338C94.1663 404.399 92.7222 405.241 90.9229 405.866C89.1142 406.491 86.8746 406.799 84.2042 406.79C81.7137 406.79 79.493 406.525 77.5423 405.994C75.5915 405.464 73.9438 404.702 72.5991 403.707C71.2449 402.713 70.2127 401.515 69.5025 400.114C68.7923 398.703 68.4371 397.126 68.4371 395.383C68.4371 393.556 68.797 391.937 69.5167 390.526C70.2364 389.105 71.2212 387.959 72.4712 387.088C73.7118 386.217 75.1133 385.677 76.6758 385.469L76.6758 390.653C75.5584 390.919 74.6682 391.463 74.0053 392.287C73.333 393.101 72.9968 394.133 72.9968 395.383C72.9968 397.401 73.8727 398.954 75.6246 400.043C77.3765 401.122 79.7818 401.667 82.8406 401.676L82.8406 401.477C82.0072 401.013 81.2923 400.412 80.6957 399.673C80.0991 398.935 79.6398 398.101 79.3178 397.173C78.9864 396.236 78.8207 395.246 78.8207 394.204C78.8207 392.5 79.2279 390.971 80.0423 389.616C80.8566 388.253 81.9788 387.173 83.4087 386.378C84.8292 385.582 86.458 385.189 88.2951 385.199C90.208 385.189 91.9267 385.625 93.4513 386.506C94.9665 387.386 96.1597 388.613 97.0309 390.185C97.9021 391.757 98.333 393.589 98.3235 395.682ZM94.0621 395.71C94.0621 394.678 93.8112 393.755 93.3093 392.94C92.8074 392.126 92.1303 391.482 91.2781 391.008C90.4258 390.535 89.4693 390.303 88.4087 390.312C87.3671 390.303 86.4248 390.53 85.582 390.994C84.7392 391.449 84.0716 392.079 83.5792 392.883C83.0868 393.688 82.8406 394.607 82.8406 395.639C82.8406 396.406 82.9873 397.121 83.2809 397.784C83.5745 398.447 83.9816 399.025 84.5025 399.517C85.0138 400.009 85.6104 400.398 86.2923 400.682C86.9646 400.956 87.6843 401.098 88.4513 401.108C89.4646 401.098 90.3974 400.862 91.2496 400.398C92.1019 399.934 92.7837 399.294 93.2951 398.48C93.8065 397.666 94.0621 396.742 94.0621 395.71ZM97.9258 370.419L76.1076 370.419L76.1076 365.504L79.815 365.504L79.815 365.249C78.565 364.794 77.5896 364.041 76.8888 362.99C76.1786 361.939 75.8235 360.684 75.8235 359.226C75.8235 357.749 76.1834 356.503 76.903 355.49C77.6133 354.467 78.5839 353.748 79.815 353.331L79.815 353.104C78.6029 352.621 77.637 351.806 76.9173 350.66C76.1881 349.505 75.8235 348.137 75.8235 346.555C75.8235 344.548 76.458 342.91 77.7269 341.641C78.9959 340.372 80.8472 339.737 83.2809 339.737L97.9258 339.737L97.9258 344.893L84.0763 344.893C82.7222 344.893 81.7326 345.253 81.1076 345.973C80.4731 346.693 80.1559 347.573 80.1559 348.615C80.1559 349.856 80.5441 350.826 81.3207 351.527C82.0877 352.218 83.0868 352.564 84.3178 352.564L97.9258 352.564L97.9258 357.606L83.8633 357.606C82.7364 357.606 81.8368 357.947 81.1644 358.629C80.4921 359.302 80.1559 360.182 80.1559 361.271C80.1559 362.01 80.3453 362.682 80.7241 363.288C81.0934 363.894 81.619 364.377 82.3008 364.737C82.9731 365.097 83.7591 365.277 84.6587 365.277L97.9258 365.277L97.9258 370.419ZM97.9258 334.521L76.1076 334.521L76.1076 329.606L79.815 329.606L79.815 329.35C78.565 328.896 77.5896 328.143 76.8888 327.092C76.1786 326.04 75.8235 324.786 75.8235 323.327C75.8235 321.85 76.1834 320.605 76.903 319.592C77.6133 318.569 78.5839 317.849 79.815 317.432L79.815 317.205C78.6029 316.722 77.6369 315.908 76.9173 314.762C76.1881 313.607 75.8235 312.238 75.8235 310.657C75.8235 308.649 76.458 307.011 77.7269 305.742C78.9959 304.473 80.8472 303.839 83.2809 303.839L97.9258 303.839L97.9258 308.995L84.0763 308.995C82.7222 308.995 81.7326 309.355 81.1076 310.075C80.4731 310.794 80.1559 311.675 80.1559 312.717C80.1559 313.957 80.5441 314.928 81.3207 315.629C82.0877 316.32 83.0868 316.665 84.3178 316.665L97.9258 316.665L97.9258 321.708L83.8633 321.708C82.7364 321.708 81.8368 322.049 81.1644 322.731C80.4921 323.403 80.1559 324.284 80.1559 325.373C80.1559 326.111 80.3453 326.784 80.7241 327.39C81.0934 327.996 81.619 328.479 82.3008 328.839C82.9731 329.199 83.7591 329.379 84.6587 329.379L97.9258 329.379L97.9258 334.521Z" fill="#3C3B3B"/>
<path d="M319.86 677.03C321.252 677.039 322.607 677.286 323.923 677.769C325.249 678.242 326.442 679.019 327.502 680.098C328.563 681.168 329.406 682.603 330.031 684.402C330.656 686.201 330.968 688.427 330.968 691.078C330.978 693.578 330.713 695.813 330.173 697.783C329.643 699.743 328.88 701.4 327.886 702.754C326.892 704.109 325.694 705.141 324.292 705.851C322.891 706.561 321.314 706.916 319.562 706.916C317.725 706.916 316.096 706.556 314.676 705.837C313.265 705.117 312.124 704.132 311.252 702.882C310.381 701.632 309.846 700.202 309.647 698.592L314.832 698.592C315.097 699.748 315.637 700.666 316.451 701.348C317.275 702.02 318.312 702.357 319.562 702.357C321.579 702.357 323.132 701.481 324.221 699.729C325.31 697.977 325.855 695.543 325.855 692.428L325.656 692.428C325.192 693.261 324.591 693.981 323.852 694.587C323.113 695.183 322.275 695.643 321.338 695.965C320.41 696.287 319.425 696.448 318.383 696.448C316.679 696.448 315.145 696.04 313.781 695.226C312.427 694.412 311.352 693.294 310.556 691.874C309.77 690.453 309.373 688.829 309.363 687.002C309.363 685.108 309.799 683.408 310.67 681.902C311.551 680.387 312.777 679.194 314.349 678.323C315.921 677.442 317.758 677.011 319.86 677.03ZM319.875 681.291C318.852 681.291 317.929 681.542 317.105 682.044C316.29 682.537 315.646 683.209 315.173 684.061C314.709 684.904 314.477 685.846 314.477 686.888C314.486 687.92 314.718 688.858 315.173 689.7C315.637 690.543 316.267 691.211 317.062 691.703C317.867 692.196 318.786 692.442 319.818 692.442C320.585 692.442 321.3 692.295 321.963 692.002C322.626 691.708 323.203 691.301 323.696 690.78C324.198 690.25 324.586 689.648 324.86 688.976C325.145 688.304 325.282 687.593 325.272 686.845C325.272 685.851 325.036 684.932 324.562 684.09C324.098 683.247 323.459 682.57 322.645 682.058C321.84 681.547 320.916 681.291 319.875 681.291ZM346.352 706.916C344.96 706.907 343.601 706.665 342.275 706.192C340.949 705.709 339.756 704.928 338.696 703.848C337.635 702.759 336.792 701.315 336.167 699.516C335.542 697.707 335.234 695.467 335.244 692.797C335.244 690.306 335.509 688.086 336.039 686.135C336.57 684.184 337.332 682.537 338.326 681.192C339.321 679.838 340.519 678.805 341.92 678.095C343.331 677.385 344.908 677.03 346.65 677.03C348.478 677.03 350.097 677.39 351.508 678.109C352.929 678.829 354.074 679.814 354.946 681.064C355.817 682.305 356.357 683.706 356.565 685.269L351.38 685.269C351.115 684.151 350.571 683.261 349.747 682.598C348.932 681.926 347.9 681.59 346.65 681.59C344.633 681.59 343.08 682.466 341.991 684.217C340.912 685.969 340.367 688.375 340.358 691.433L340.556 691.433C341.02 690.6 341.622 689.885 342.36 689.288C343.099 688.692 343.932 688.233 344.86 687.911C345.798 687.579 346.788 687.413 347.829 687.413C349.534 687.413 351.063 687.821 352.417 688.635C353.781 689.449 354.86 690.572 355.656 692.002C356.451 693.422 356.844 695.051 356.835 696.888C356.844 698.801 356.409 700.52 355.528 702.044C354.647 703.559 353.421 704.752 351.849 705.624C350.277 706.495 348.445 706.926 346.352 706.916ZM346.324 702.655C347.356 702.655 348.279 702.404 349.093 701.902C349.908 701.4 350.552 700.723 351.025 699.871C351.499 699.019 351.731 698.062 351.721 697.002C351.731 695.96 351.503 695.018 351.039 694.175C350.585 693.332 349.955 692.664 349.15 692.172C348.345 691.68 347.427 691.433 346.395 691.433C345.627 691.433 344.913 691.58 344.25 691.874C343.587 692.167 343.009 692.574 342.517 693.095C342.024 693.607 341.636 694.203 341.352 694.885C341.077 695.557 340.935 696.277 340.926 697.044C340.935 698.057 341.172 698.99 341.636 699.842C342.1 700.695 342.739 701.377 343.554 701.888C344.368 702.399 345.291 702.655 346.324 702.655ZM371.615 706.519L371.615 684.7L376.529 684.7L376.529 688.408L376.785 688.408C377.24 687.158 377.993 686.182 379.044 685.482C380.095 684.771 381.35 684.416 382.808 684.416C384.285 684.416 385.53 684.776 386.544 685.496C387.566 686.206 388.286 687.177 388.703 688.408L388.93 688.408C389.413 687.196 390.227 686.23 391.373 685.51C392.529 684.781 393.897 684.416 395.478 684.416C397.486 684.416 399.124 685.051 400.393 686.32C401.662 687.589 402.297 689.44 402.297 691.874L402.297 706.519L397.14 706.519L397.14 692.669C397.14 691.315 396.78 690.325 396.061 689.7C395.341 689.066 394.46 688.749 393.419 688.749C392.178 688.749 391.208 689.137 390.507 689.913C389.815 690.681 389.47 691.68 389.47 692.911L389.47 706.519L384.427 706.519L384.427 692.456C384.427 691.329 384.086 690.43 383.404 689.757C382.732 689.085 381.851 688.749 380.762 688.749C380.024 688.749 379.351 688.938 378.745 689.317C378.139 689.686 377.656 690.212 377.297 690.894C376.937 691.566 376.757 692.352 376.757 693.252L376.757 706.519L371.615 706.519ZM407.513 706.519L407.513 684.7L412.428 684.7L412.428 688.408L412.684 688.408C413.138 687.158 413.891 686.182 414.942 685.482C415.993 684.771 417.248 684.416 418.706 684.416C420.184 684.416 421.429 684.776 422.442 685.496C423.465 686.206 424.185 687.177 424.601 688.408L424.828 688.408C425.311 687.196 426.126 686.23 427.272 685.51C428.427 684.781 429.795 684.416 431.377 684.416C433.384 684.416 435.023 685.051 436.292 686.32C437.56 687.589 438.195 689.44 438.195 691.874L438.195 706.519L433.039 706.519L433.039 692.669C433.039 691.315 432.679 690.325 431.959 689.7C431.239 689.066 430.359 688.749 429.317 688.749C428.077 688.749 427.106 689.137 426.405 689.913C425.714 690.681 425.368 691.68 425.368 692.911L425.368 706.519L420.326 706.519L420.326 692.456C420.326 691.329 419.985 690.43 419.303 689.757C418.631 689.085 417.75 688.749 416.661 688.749C415.922 688.749 415.25 688.938 414.644 689.317C414.038 689.686 413.555 690.212 413.195 690.894C412.835 691.566 412.655 692.352 412.655 693.252L412.655 706.519L407.513 706.519Z" fill="#3C3B3B"/>
<path d="M687.97 777.731L687.97 773.925L698.069 764.024C699.035 763.049 699.84 762.182 700.484 761.425C701.128 760.667 701.611 759.933 701.933 759.223C702.255 758.513 702.416 757.755 702.416 756.95C702.416 756.032 702.208 755.246 701.791 754.592C701.374 753.929 700.801 753.418 700.072 753.058C699.343 752.698 698.514 752.518 697.586 752.518C696.63 752.518 695.792 752.717 695.072 753.115C694.353 753.503 693.794 754.057 693.396 754.777C693.008 755.497 692.814 756.354 692.814 757.348L687.8 757.348C687.8 755.501 688.221 753.896 689.064 752.533C689.907 751.169 691.067 750.113 692.544 749.365C694.031 748.617 695.735 748.243 697.657 748.243C699.608 748.243 701.322 748.607 702.8 749.337C704.277 750.066 705.423 751.065 706.237 752.334C707.061 753.603 707.473 755.052 707.473 756.68C707.473 757.769 707.264 758.839 706.848 759.891C706.431 760.942 705.697 762.106 704.646 763.385C703.604 764.663 702.141 766.212 700.257 768.03L695.243 773.129L695.243 773.328L707.913 773.328L707.913 777.731L687.97 777.731ZM723.155 778.129C721.043 778.129 719.168 777.774 717.53 777.064C715.901 776.354 714.622 775.383 713.694 774.152C712.776 772.911 712.321 771.505 712.331 769.933C712.321 768.712 712.586 767.589 713.126 766.567C713.666 765.544 714.395 764.692 715.314 764.01C716.242 763.319 717.274 762.878 718.41 762.689L718.41 762.49C716.914 762.159 715.702 761.396 714.774 760.203C713.855 759 713.401 757.613 713.41 756.041C713.401 754.545 713.818 753.21 714.66 752.035C715.503 750.861 716.658 749.938 718.126 749.266C719.594 748.584 721.27 748.243 723.155 748.243C725.02 748.243 726.682 748.584 728.14 749.266C729.608 749.938 730.764 750.861 731.606 752.035C732.459 753.21 732.885 754.545 732.885 756.041C732.885 757.613 732.416 759 731.479 760.203C730.55 761.396 729.353 762.159 727.885 762.49L727.885 762.689C729.021 762.878 730.044 763.319 730.953 764.01C731.872 764.692 732.601 765.544 733.14 766.567C733.69 767.589 733.964 768.712 733.964 769.933C733.964 771.505 733.5 772.911 732.572 774.152C731.644 775.383 730.366 776.354 728.737 777.064C727.118 777.774 725.257 778.129 723.155 778.129ZM723.155 774.067C724.244 774.067 725.191 773.882 725.996 773.513C726.8 773.134 727.425 772.604 727.871 771.922C728.316 771.24 728.543 770.454 728.552 769.564C728.543 768.636 728.301 767.817 727.828 767.106C727.364 766.387 726.725 765.823 725.91 765.416C725.105 765.009 724.187 764.805 723.155 764.805C722.113 764.805 721.185 765.009 720.371 765.416C719.556 765.823 718.912 766.387 718.439 767.106C717.975 767.817 717.747 768.636 717.757 769.564C717.747 770.454 717.965 771.24 718.41 771.922C718.855 772.594 719.48 773.12 720.285 773.498C721.1 773.877 722.056 774.067 723.155 774.067ZM723.155 760.814C724.045 760.814 724.831 760.634 725.513 760.274C726.204 759.914 726.748 759.412 727.146 758.768C727.544 758.124 727.747 757.381 727.757 756.538C727.747 755.705 727.549 754.976 727.16 754.351C726.772 753.716 726.232 753.229 725.541 752.888C724.85 752.537 724.054 752.362 723.155 752.362C722.236 752.362 721.426 752.537 720.726 752.888C720.034 753.229 719.495 753.716 719.106 754.351C718.728 754.976 718.543 755.705 718.552 756.538C718.543 757.381 718.732 758.124 719.121 758.768C719.518 759.403 720.063 759.905 720.754 760.274C721.455 760.634 722.255 760.814 723.155 760.814ZM748.613 777.731L748.613 755.913L753.528 755.913L753.528 759.621L753.783 759.621C754.238 758.371 754.991 757.395 756.042 756.695C757.093 755.984 758.348 755.629 759.806 755.629C761.283 755.629 762.528 755.989 763.542 756.709C764.564 757.419 765.284 758.39 765.701 759.621L765.928 759.621C766.411 758.409 767.225 757.443 768.371 756.723C769.527 755.994 770.895 755.629 772.476 755.629C774.484 755.629 776.122 756.264 777.391 757.533C778.66 758.802 779.295 760.653 779.295 763.087L779.295 777.731L774.138 777.731L774.138 763.882C774.138 762.528 773.778 761.538 773.059 760.913C772.339 760.279 771.458 759.962 770.417 759.962C769.176 759.962 768.206 760.35 767.505 761.126C766.814 761.893 766.468 762.892 766.468 764.124L766.468 777.731L761.425 777.731L761.425 763.669C761.425 762.542 761.084 761.642 760.403 760.97C759.73 760.298 758.849 759.962 757.76 759.962C757.022 759.962 756.349 760.151 755.743 760.53C755.137 760.899 754.654 761.425 754.295 762.106C753.935 762.779 753.755 763.565 753.755 764.464L753.755 777.731L748.613 777.731ZM784.511 777.731L784.511 755.913L789.426 755.913L789.426 759.621L789.682 759.621C790.136 758.371 790.889 757.395 791.94 756.695C792.991 755.984 794.246 755.629 795.704 755.629C797.182 755.629 798.427 755.989 799.44 756.709C800.463 757.419 801.183 758.39 801.599 759.621L801.827 759.621C802.309 758.409 803.124 757.443 804.27 756.723C805.425 755.994 806.793 755.629 808.375 755.629C810.382 755.629 812.021 756.264 813.29 757.533C814.559 758.802 815.193 760.653 815.193 763.087L815.193 777.731L810.037 777.731L810.037 763.882C810.037 762.528 809.677 761.538 808.957 760.913C808.238 760.279 807.357 759.962 806.315 759.962C805.075 759.962 804.104 760.35 803.403 761.126C802.712 761.893 802.366 762.892 802.366 764.124L802.366 777.731L797.324 777.731L797.324 763.669C797.324 762.542 796.983 761.642 796.301 760.97C795.629 760.298 794.748 759.962 793.659 759.962C792.92 759.962 792.248 760.151 791.642 760.53C791.036 760.899 790.553 761.425 790.193 762.106C789.833 762.779 789.653 763.565 789.653 764.464L789.653 777.731L784.511 777.731Z" fill="#3C3B3B"/>
<line x1="182.336" y1="576.148" x2="55.0183" y2="576.148" stroke="#3C3B3B" stroke-width="0.6"/>
<line x1="570.39" y1="593.631" x2="570.39" y2="720.948" stroke="#3C3B3B" stroke-width="0.6"/>
<line x1="790.236" y1="593.631" x2="790.236" y2="720.948" stroke="#3C3B3B" stroke-width="0.6"/>
<line x1="713.515" y1="593.631" x2="713.515" y2="720.948" stroke="#3C3B3B" stroke-width="0.6"/>
<line x1="182.336" y1="179.352" x2="55.0183" y2="179.352" stroke="#3C3B3B" stroke-width="0.6"/>
<line x1="173.591" y1="593.631" x2="173.591" y2="720.948" stroke="#3C3B3B" stroke-width="0.6"/>
<line x1="84.073" y1="575.848" x2="84.0731" y2="471.07" stroke="#3C3B3B" stroke-width="0.6"/>
<line x1="570.09" y1="691.894" x2="468.639" y2="691.894" stroke="#3C3B3B" stroke-width="0.6"/>
<line x1="789.936" y1="691.894" x2="713.215" y2="691.894" stroke="#3C3B3B" stroke-width="0.6"/>
<line x1="84.073" y1="266.842" x2="84.0731" y2="179.051" stroke="#3C3B3B" stroke-width="0.6"/>
<line x1="279.811" y1="691.894" x2="173.294" y2="691.894" stroke="#3C3B3B" stroke-width="0.6"/>
<path d="M791.168 340.374H793.275C795.899 340.374 798.025 342.501 798.025 345.124V410.775C798.025 412.846 796.346 414.525 794.275 414.525H788.418V343.124C788.418 341.605 789.649 340.374 791.168 340.374Z" stroke="#888888" stroke-width="2.5"/>
<defs>
<clipPath id="clip0_34_561">
<rect width="157.231" height="28.077" fill="white" transform="translate(297.637 224.834)"/>
</clipPath>
</defs>
</svg>
