<svg xmlns="http://www.w3.org/2000/svg" width="414" height="407" fill="none" xmlns:v="https://vecta.io/nano"><style><![CDATA[.B{stroke-width:.8}]]></style><g stroke-linecap="round" stroke-width=".5"><path transform="matrix(0 -1 -1 0 146.76 58.945)" stroke="url(#A)" d="M 0.25001 -0.24999 L 37.0291 -0.25"/><path stroke="url(#B)" d="M 413.52200999999997 51.76091 L 413.522 0.480865"/><path transform="matrix(0 -1 -1 0 338.229 52.0109)" stroke="url(#C)" d="M 0.25001 -0.24999 L 51.53 -0.25"/><use href="#O" transform="matrix(0 -1 -1 0 66.439 406.631)" stroke="url(#D)"/><use href="#O" transform="matrix(0 -1 -1 0 234.333 406.631)" stroke="url(#E)"/><path stroke="url(#F)" d="M 23.25001 21.91001 L 147.009 21.91"/><path stroke="url(#G)" d="M 406.96301 22.980909999999998 L 413.522 22.9809"/><path stroke="url(#H)" d="M 191.07901 387.60101 L 234.518 387.601"/><path stroke="url(#I)" d="M 338.47900999999996 22.980909999999998 L 347.917 22.9809"/><path stroke="url(#J)" d="M 66.68901 387.60101 L 123.608 387.601"/><path stroke="url(#K)" d="M 23.25001 22.41001 L 23.25 157.228"/><path stroke="url(#L)" d="M 23.25001 199.15801 L 23.25 346.917"/><path stroke="url(#M)" d="M 23.25001 346.91700999999995 L 146.698 346.917"/><path transform="matrix(0 -1 -1 0 146.759 347.167)" stroke="url(#N)" d="M 0.25001 -0.24999 L 36.535 -0.25"/></g><path d="M5.767 168.271v11.637H3.659v-9.585h-.068l-2.722 1.738v-1.932l2.892-1.858h2.006zm2.744 9.478v-1.676l4.938-7.802h1.398v2.387h-.852l-3.324 5.267v.091h6.892v1.733H8.511zm5.551 2.159v-2.671l.023-.75v-8.216h1.989v11.637h-2.011zm5.315 0v-1.523l4.04-3.96.966-1.04a3.82 3.82 0 0 0 .58-.881 2.17 2.17 0 0 0 .193-.909c0-.367-.083-.682-.25-.943s-.396-.47-.687-.614a2.23 2.23 0 0 0-.994-.215c-.383 0-.718.079-1.006.238a1.67 1.67 0 0 0-.671.665c-.16.288-.233.631-.233 1.028H19.31c0-.738.169-1.38.506-1.926s.801-.968 1.392-1.267 1.276-.449 2.045-.449c.78 0 1.466.146 2.057.438s1.049.691 1.375 1.199a3.15 3.15 0 0 1 .494 1.738c0 .436-.083.864-.25 1.284s-.46.887-.881 1.398-1.002 1.131-1.756 1.858l-2.006 2.04v.079h5.068v1.762h-7.977zm13.929 0v-8.727h1.966v1.482h.102c.182-.5.483-.89.903-1.17s.922-.426 1.506-.426c.591 0 1.089.144 1.494.432a2.3 2.3 0 0 1 .864 1.164h.091a2.39 2.39 0 0 1 .977-1.159c.462-.291 1.01-.437 1.642-.437.803 0 1.458.254 1.966.761s.761 1.248.761 2.222v5.858h-2.062v-5.54c0-.542-.144-.937-.432-1.187a1.54 1.54 0 0 0-1.057-.381c-.496 0-.884.155-1.165.466s-.415.706-.415 1.199v5.443H38.43v-5.625c0-.451-.136-.811-.409-1.08s-.621-.403-1.057-.403a1.5 1.5 0 0 0-.807.227c-.243.151-.436.358-.58.631s-.216.583-.216.943v5.307h-2.057zm14.359 0v-8.727h1.966v1.482h.102c.182-.5.483-.89.903-1.17s.922-.426 1.506-.426c.591 0 1.089.144 1.494.432a2.3 2.3 0 0 1 .864 1.164h.091a2.39 2.39 0 0 1 .977-1.159c.462-.291 1.009-.437 1.642-.437.803 0 1.458.254 1.966.761s.761 1.248.761 2.222v5.858h-2.062v-5.54c0-.542-.144-.937-.432-1.187a1.54 1.54 0 0 0-1.057-.381c-.496 0-.884.155-1.165.466s-.415.706-.415 1.199v5.443h-2.017v-5.625c0-.451-.136-.811-.409-1.08s-.621-.403-1.057-.403a1.5 1.5 0 0 0-.807.227c-.243.151-.436.358-.58.631s-.216.583-.216.943v5.307h-2.057zM356.428 26.28c-.818 0-1.545-.14-2.182-.421s-1.132-.67-1.5-1.17-.562-1.078-.585-1.733h2.136a1.41 1.41 0 0 0 .313.824c.189.231.441.411.756.54a2.76 2.76 0 0 0 1.056.193c.417 0 .786-.072 1.108-.216a1.79 1.79 0 0 0 .756-.614 1.51 1.51 0 0 0 .267-.903c.004-.352-.087-.663-.273-.932s-.454-.479-.807-.631-.768-.227-1.261-.227h-1.028v-1.625h1.028c.405 0 .76-.07 1.063-.21a1.72 1.72 0 0 0 .721-.591c.174-.258.26-.555.256-.892.004-.329-.07-.616-.222-.858a1.5 1.5 0 0 0-.63-.574c-.272-.137-.586-.205-.949-.205a2.5 2.5 0 0 0-.989.193 1.8 1.8 0 0 0-.733.551c-.185.235-.284.515-.295.841h-2.029a2.95 2.95 0 0 1 .563-1.716c.363-.496.848-.883 1.454-1.159s1.286-.421 2.04-.421c.777 0 1.451.146 2.023.438s1.021.676 1.335 1.165.472 1.028.472 1.619c.003.655-.19 1.205-.58 1.648s-.894.733-1.523.869v.091c.819.114 1.445.417 1.881.909s.657 1.097.653 1.824a2.92 2.92 0 0 1-.556 1.75c-.368.511-.875.913-1.523 1.205s-1.383.438-2.216.438zm6.246-.159v-1.523l4.04-3.96.965-1.04c.258-.303.451-.597.58-.881a2.17 2.17 0 0 0 .193-.909c0-.367-.083-.682-.25-.943s-.396-.47-.687-.614-.623-.216-.995-.216c-.382 0-.717.08-1.005.239a1.64 1.64 0 0 0-.671.665c-.155.288-.233.631-.233 1.028h-2.005c0-.739.168-1.381.505-1.926a3.41 3.41 0 0 1 1.392-1.267c.595-.299 1.277-.449 2.046-.449.78 0 1.466.146 2.057.438a3.36 3.36 0 0 1 1.375 1.199c.329.508.494 1.087.494 1.739a3.45 3.45 0 0 1-.25 1.284c-.167.421-.46.886-.881 1.398s-1.002 1.131-1.755 1.858l-2.006 2.04v.079h5.068v1.761h-7.977zm13.929 0v-8.727h1.966v1.483h.102c.182-.5.483-.89.903-1.171s.923-.426 1.506-.426c.591 0 1.089.144 1.494.432a2.26 2.26 0 0 1 .864 1.165h.091c.193-.485.519-.871.977-1.159s1.01-.437 1.642-.437c.803 0 1.459.254 1.966.761s.761 1.248.761 2.222v5.858h-2.062v-5.54c0-.542-.144-.937-.432-1.187a1.56 1.56 0 0 0-1.057-.381c-.496 0-.884.155-1.164.466s-.415.707-.415 1.199v5.443h-2.017v-5.625c0-.451-.137-.811-.409-1.08s-.622-.403-1.057-.403a1.49 1.49 0 0 0-.807.227 1.59 1.59 0 0 0-.58.631 1.98 1.98 0 0 0-.215.943v5.307h-2.057zm14.359 0v-8.727h1.966v1.483h.102c.182-.5.483-.89.904-1.171s.922-.426 1.505-.426c.591 0 1.089.144 1.495.432s.697.672.863 1.165h.091a2.38 2.38 0 0 1 .978-1.159c.462-.292 1.009-.437 1.642-.437.803 0 1.458.254 1.965.761s.762 1.248.762 2.222v5.858h-2.063v-5.54c0-.542-.144-.937-.431-1.187a1.56 1.56 0 0 0-1.057-.381c-.497 0-.885.155-1.165.466s-.415.707-.415 1.199v5.443h-2.017v-5.625c0-.451-.136-.811-.409-1.08s-.621-.403-1.057-.403a1.5 1.5 0 0 0-.807.227 1.6 1.6 0 0 0-.579.631c-.144.273-.216.583-.216.943v5.307h-2.057zM135.556 392.01c-.845 0-1.595-.142-2.25-.426s-1.163-.672-1.534-1.165-.549-1.058-.545-1.687a2.79 2.79 0 0 1 .318-1.347 3 3 0 0 1 .875-1.023 2.83 2.83 0 0 1 1.238-.528v-.08c-.598-.132-1.083-.437-1.454-.914a2.64 2.64 0 0 1-.546-1.665 2.65 2.65 0 0 1 .5-1.602c.338-.47.8-.839 1.387-1.108s1.257-.409 2.011-.409c.746 0 1.411.136 1.995.409s1.049.638 1.386 1.108.511 1.003.511 1.602a2.63 2.63 0 0 1-.562 1.665c-.371.477-.851.782-1.438.914v.08a2.75 2.75 0 0 1 1.228.528 3.01 3.01 0 0 1 .875 1.023c.219.409.329.858.329 1.347 0 .629-.186 1.191-.557 1.687s-.882.881-1.534 1.165-1.392.426-2.233.426zm0-1.625c.436 0 .815-.074 1.137-.221a1.74 1.74 0 0 0 .75-.637c.178-.273.269-.587.272-.943a1.76 1.76 0 0 0-.289-.983c-.186-.288-.442-.513-.768-.676s-.689-.244-1.102-.244-.788.081-1.113.244a1.94 1.94 0 0 0-.773.676c-.186.284-.277.612-.273.983-.004.356.083.67.261.943a1.79 1.79 0 0 0 .75.631c.326.151.709.227 1.148.227zm0-5.301c.356 0 .671-.072.943-.216s.495-.345.654-.602.24-.555.244-.892c-.004-.334-.083-.625-.239-.875s-.371-.449-.647-.585-.595-.211-.955-.211c-.367 0-.691.07-.971.211a1.53 1.53 0 0 0-.648.585 1.61 1.61 0 0 0-.222.875 1.65 1.65 0 0 0 .228.892c.159.254.376.454.653.602a2.07 2.07 0 0 0 .96.216zm10.493 6.989c-.936 0-1.739-.237-2.409-.711s-1.18-1.164-1.54-2.062-.534-1.987-.534-3.256.184-2.348.54-3.238.873-1.576 1.54-2.046 1.471-.704 2.403-.704 1.733.234 2.404.704 1.183 1.152 1.539 2.046.54 1.973.54 3.238c0 1.273-.18 2.36-.54 3.262s-.869 1.583-1.539 2.056-1.468.711-2.404.711zm0-1.779c.727 0 1.301-.358 1.722-1.074s.636-1.778.636-3.176c0-.924-.097-1.701-.29-2.329s-.466-1.103-.818-1.421a1.79 1.79 0 0 0-1.25-.483c-.723 0-1.295.36-1.716 1.08s-.632 1.767-.636 3.153c-.004.928.089 1.709.278 2.341s.466 1.11.818 1.432a1.81 1.81 0 0 0 1.256.477zm10.362 1.557v-8.727h1.966v1.483h.102c.182-.5.483-.89.904-1.171s.922-.426 1.506-.426c.59 0 1.089.144 1.494.432s.697.672.864 1.165h.09c.194-.485.519-.871.978-1.159s1.009-.438 1.642-.438c.803 0 1.458.254 1.966.762s.761 1.248.761 2.221v5.858h-2.062v-5.54c0-.541-.144-.937-.432-1.187a1.54 1.54 0 0 0-1.057-.381c-.496 0-.885.155-1.165.466s-.415.706-.415 1.199v5.443h-2.017v-5.625c0-.451-.136-.811-.409-1.079s-.621-.404-1.057-.404c-.295 0-.564.076-.806.227a1.61 1.61 0 0 0-.58.631c-.144.273-.216.583-.216.943v5.307h-2.057zm14.36 0v-8.727h1.966v1.483h.102c.182-.5.483-.89.903-1.171s.923-.426 1.506-.426c.591 0 1.089.144 1.494.432s.697.672.864 1.165h.091c.193-.485.519-.871.977-1.159s1.01-.438 1.642-.438c.803 0 1.458.254 1.966.762s.761 1.248.761 2.221v5.858h-2.062v-5.54c0-.541-.144-.937-.432-1.187a1.54 1.54 0 0 0-1.057-.381c-.496 0-.884.155-1.164.466s-.415.706-.415 1.199v5.443h-2.017v-5.625c0-.451-.137-.811-.409-1.079s-.622-.404-1.057-.404c-.296 0-.565.076-.807.227a1.59 1.59 0 0 0-.58.631c-.144.269-.215.583-.215.943v5.307h-2.057z" fill="#727272"/><g stroke="#858585"><path d="M72.288 84.144l-.762.763m16.671-22.911l-.762.764m127.953 243.059l.762-.764"/><path d="M231.279 283.673l.766-.764" class="B"/><path d="M205.989 70.4h-.062m.062 3.126V70.4m0 3.126h-.062M119.5 65.14v.063m81.228-.063h-81.226m81.226 0v.063m28.175 28.107h-.062"/><path d="M228.903 275.545V93.31m0 182.234h-.062m.001 0h-.8" class="B"/><path d="M189.334 294.287h-.062m.062 3.128v-3.128m0 3.129h-.062"/><g class="B"><path d="M83.058 279.775v-.063m-3.129.055h3.128"/><path d="M79.93 279.775v-.063"/></g><path d="M97.577 297.416h.062m-.06-3.126v3.126"/><path d="M97.577 294.29h.062"/><path d="M74.664 274.507h.062m-.059-182.235v182.235" class="B"/><path d="M74.664 92.272h.062m-.005 0h.8M184.07 302.684v-.062m-81.225.054h81.225m-81.228.008v-.062"/><g class="B"><path d="M224.676 278.913v.8m0 .061v-.063m-20.827.056h20.827"/><path d="M203.855 279.774v-.063"/></g><path d="M78.892 88.905v-.8m0-.056v.063m20.838-.063H78.903m20.827 0v.063m87.978 213.021l.04-.036m-3.675 1.58l.371-.014.366-.041.367-.067.362-.094.354-.118.35-.143.338-.167.329-.191.312-.213.296-.235.275-.257.258-.277.233-.296.217-.312.187-.327.171-.339.142-.349.116-.357.096-.362.067-.366.041-.369.013-.367m-5.263 5.205l.329-.011.324-.031.317-.05.312-.069.309-.088.295-.105.288-.122.279-.137.267-.153.254-.166.241-.179.229-.192.217-.202"/><g class="B"><path d="M190.392 288.709l.208-.486.229-.478m-.001.001l.245-.462.259-.452.27-.441.292-.431.3-.42.321-.407.329-.396.345-.382.354-.37m.005.001l.409-.392.42-.376.442-.362.454-.344.466-.327.484-.31.491-.291.508-.272.517-.252.533-.232m-.007-.003l.512-.201.525-.184.533-.165.55-.145.558-.125.567-.105.575-.082.583-.059.591-.036.596-.012m-14.525 14.578l.017-.63.041-.63.067-.63.096-.626.125-.622.15-.616.179-.61.204-.602.229-.591.254-.581.279-.568.304-.555.329-.542.355-.526.374-.51.396-.494.417-.475.433-.457.458-.438.475-.417.491-.395.513-.375.525-.352.541-.328.554-.306.567-.281.583-.255.591-.23.6-.204.612-.178.617-.151.625-.124.629-.097.629-.07.633-.042.633-.014m-14.581 14.521l.012-.541.029-.536.05-.53.067-.525.083-.517.104-.51.121-.502.138-.493.154-.485.17-.474.184-.465m38.456-13.166l-.017.356-.05.356-.079.352-.108.347-.138.338-.166.326-.196.31-.108.152-.117.145-.117.136-.133.138m-2.93 1.266l.321-.013.325-.04.325-.065.316-.09.313-.115.304-.138.291-.161.279-.183.263-.205.246-.226.225-.245.204-.264.183-.279.162-.292.138-.303.117-.312.091-.319.063-.323.041-.324.013-.325"/><path d="M224.684 279.711l.325-.013.325-.038.321-.064.316-.089.304-.113.296-.136.283-.159.271-.179.254-.201.242-.22"/></g><path d="M227.347 89.666l-.04-.037m-3.667-1.58v.063m5.263 5.198l-.013-.367-.041-.368-.067-.366-.096-.362-.116-.357-.142-.349-.171-.338-.187-.327-.213-.312-.237-.296-.254-.277-.279-.257-.296-.235-.312-.213-.325-.191-.342-.168-.35-.144-.354-.119-.362-.093-.367-.068-.371-.041-.366-.014m5.2 5.261l-.009-.328-.033-.324-.05-.319-.071-.313-.087-.305-.104-.297-.121-.287-.138-.277-.154-.267-.166-.255-.179-.243-.192-.23-.2-.217m-12.394-2.652l-.487-.212-.479-.23m-.009-.001l-.463-.242-.45-.258-.441-.274-.433-.289-.421-.303-.404-.317-.396-.331-.383-.344-.371-.357m.011.001l-.392-.407-.379-.423-.358-.439-.346-.453-.325-.468-.312-.482-.292-.495-.27-.507-.255-.519-.229-.529m-.002.001l-.204-.513-.183-.525-.163-.537-.145-.547-.125-.557-.105-.567-.083-.575-.058-.583-.038-.59-.012-.596m14.572 14.521l-.633-.014-.629-.042-.629-.069-.625-.097-.625-.123-.616-.15-.608-.177-.6-.203-.592-.23-.583-.255-.566-.28-.558-.305-.542-.329-.525-.352-.508-.374-.496-.396-.474-.416-.459-.437-.437-.456-.417-.475-.395-.492-.375-.51-.35-.525-.329-.541-.304-.555-.283-.568-.255-.581-.229-.592-.204-.602-.179-.611-.15-.618-.125-.624-.096-.628-.07-.631-.042-.632-.017-.631m14.525 14.522v.063"/><path d="M220.514 88.104l-.541-.01-.538-.03-.529-.049-.525-.067-.516-.086-.512-.104-.5-.121-.496-.137-.483-.153-.475-.168-.462-.183m-10.502-20.241l-.039-.036m1.593 3.682l-.012-.367-.042-.367-.067-.366-.091-.362-.121-.357-.142-.349-.166-.339-.192-.326-.212-.312-.238-.296-.254-.277-.279-.257-.296-.235-.312-.214-.325-.191-.342-.167-.345-.143-.358-.119-.363-.093-.366-.067-.367-.041-.371-.014m5.217 5.259l-.008-.328-.033-.324-.05-.319-.067-.313-.087-.305-.109-.297-.121-.287-.137-.277-.15-.267-.167-.255-.179-.242-.191-.23-.204-.217m-88.604-.04l-.013.015-.013.015m-1.575 3.67h.062m5.201-5.26l-.367.014-.367.041-.366.067-.363.093-.358.118-.35.143-.337.167-.325.19-.312.213-.296.235-.279.257-.254.277-.238.296-.212.312-.192.327-.166.339-.146.349-.117.357-.096.362-.066.367-.042.368-.012.367m1.599-3.701l.146-.138.154-.132.158-.13.167-.123.346-.223.358-.196.371-.168.383-.139.391-.11.392-.079.4-.048.396-.016m-6.318 13.909l-.212.487-.229.478m0 .001l-.242.462-.258.452-.275.442-.287.431-.304.419-.317.408-.333.395-.342.383-.358.37m.001-.002l-.408.392-.421.376-.437.361-.454.344-.471.327-.479.309-.495.291-.509.272-.516.252-.529.232m.006.002l-.512.202-.525.184-.538.165-.545.145-.558.125-.567.104-.575.082-.583.06-.591.036-.596.012m14.528-14.577l-.012.63-.042.63-.07.629-.096.627-.125.622-.15.617-.175.61-.204.602-.229.592-.254.581-.284.568-.304.555-.329.541-.35.526-.375.51-.395.494-.417.476-.437.457-.458.437-.475.417-.492.396-.508.374-.525.352-.541.329-.554.305-.571.281-.579.256-.592.23-.604.204-.612.178-.616.151-.625.125-.629.097-.629.07-.633.042-.629.014m14.506-14.525h.062"/><path d="M114.299 73.527l-.008.541-.03.536-.05.531-.066.524-.088.517-.104.51-.121.502-.137.493-.154.484-.167.475-.183.465m-38.46 13.167l.017-.356.05-.356.079-.353.108-.347.142-.338.166-.325.196-.31.108-.151.117-.146.117-.136.133-.138m2.928-1.267l-.325.013-.325.04-.321.065-.321.09-.308.115-.304.138-.291.161-.279.183-.267.205-.246.226-.225.245-.204.264-.183.279-.162.292-.137.304-.112.312-.092.319-.067.323-.037.325-.017.324m4.223-4.167l-.329.013-.325.039-.321.064-.312.089-.308.113-.296.136-.283.159-.271.18-.254.2-.237.22"/><g class="B"><path d="M76.228 278.167l.025.03"/><path d="M74.669 274.507l.017.367.037.367.071.366.092.362.117.357.146.349.167.338.192.327.212.312.233.296.258.277.275.257.296.235.312.214.329.19.337.168.35.143.358.119.362.094.367.068.367.04.367.014"/><path d="M74.73 274.507l.013.327.029.324.05.319.071.313.087.305.104.297.121.287.142.278.15.266.167.255.179.243.192.23.204.216"/></g><path d="M97.581 297.416l.012.367.042.368.067.366.096.362.117.357.146.348.167.339.187.327.217.312.233.295.258.278.275.256.296.236.313.213.329.191.337.168.35.143.354.119.367.093.366.068.367.041.366.014"/><path d="M97.634 297.416l.012.329.029.325.05.32.071.313.087.307.108.297.121.289.138.278.154.267.167.255.183.244.192.229.204.217"/><path d="M88.639 280.822l.487.212.475.229m.007 0l.462.242.454.259.442.273.429.289.421.303.408.318.396.33.383.345.367.356m-.005 0l.391.407.379.424.362.438.342.453.329.468.308.482.291.494.271.507.254.519.233.529m.003 0l.2.512.183.525.167.537.146.547.125.557.104.567.079.575.063.583.033.591.013.596m-14.583-14.522l.629.014.629.041.629.07.629.096.621.124.617.15.608.177.604.204.591.229.579.255.571.281.554.305.542.328.525.352.512.374.491.396.475.417.458.437.437.456.417.475.396.492.375.51.354.525.329.541.304.555.279.568.258.581.229.592.204.602.175.611.154.619.125.623.096.628.071.631.042.631.012.632m-14.516-14.577l.541.01.533.029.533.05.525.067.516.087.508.103.504.121.492.137.483.154.475.168.467.183" class="B"/><path d="M223.64 88.049h-3.124M114.251 70.4v3.127"/><path d="M235.096 275.542V69.358M224.678 285.96l.588-.017.587-.05.583-.083.579-.116.571-.148.562-.18.55-.212.537-.243.521-.272.508-.302.488-.33.466-.357.45-.383.425-.407.404-.431.375-.453.35-.473.325-.493.295-.511.267-.525.233-.54.204-.553.175-.563.142-.573.108-.579.075-.584.042-.588.008-.453m-10.42 10.42h-2.078m.005 0l-.188.005-.183.012-.188.021-.183.029-.183.037-.179.046-.179.053-.175.062-.175.069-.171.076-.163.085-.162.091-.158.099-.154.106-.15.113-.142.119-.137.125-.134.132-.125.137-.12.143-.113.148-.108.153-.1.157-.092.162-.083.166-.079.169-.071.173-.063.175-.054.179-.046.18-.037.182-.029.185-.021.184-.017.187-.004.205m.002-.002v8.327" class="B"/><path d="M208.021 308.87l.588-.017.587-.05.583-.083.579-.116.571-.148.562-.181.55-.212.537-.242.521-.273.508-.301.487-.33.467-.357.45-.383.425-.407.404-.431.375-.453.35-.474.324-.493.296-.51.267-.525.233-.541.204-.552.175-.564.142-.572.108-.579.075-.584.042-.588.008-.453M78.897 308.87h129.124M68.478 298.459l.017.588.05.588.083.583.117.577.15.57.179.561.212.55.242.537.271.522.304.506.329.488.358.469.379.447.408.426.433.402.45.376.475.35.492.324.512.294.525.266.542.235.55.204.567.173.571.141.579.108.583.075.587.042.45.01"/><path d="M68.474 92.273v206.185" class="B"/><path d="M78.892 81.855l-.587.017-.587.05-.583.083-.579.116-.571.149-.558.18-.55.212-.537.243-.525.272-.504.302-.487.33-.471.357-.45.383-.425.407-.4.431-.379.453-.35.474-.325.493-.291.51-.267.526-.237.54-.204.552-.171.564-.142.572-.108.579-.075.584-.042.588-.013.453m10.43-10.42h2.079m-.002 0l.187-.004.187-.013.183-.021.183-.029.183-.037.183-.045.175-.054.179-.061.171-.069.171-.077.167-.084.162-.092.158-.099.154-.106.146-.112.146-.119.137-.125.129-.132.129-.137.117-.143.117-.148.104-.153.1-.157.092-.162.087-.166.075-.169.071-.172.063-.176.054-.178.046-.181.037-.182.033-.184.021-.185.013-.186.004-.206m.001 0v-8.327m10.419-10.419l-.587.017-.587.05-.583.083-.579.116-.571.149-.558.18-.55.212-.537.243-.525.272-.504.302-.487.33-.471.357-.45.383-.425.407-.4.431-.379.453-.35.474-.325.493-.292.51-.267.526-.237.54-.204.552-.171.564-.142.572-.108.579-.075.584-.042.588-.012.453m139.544-10.42H95.563m139.533 10.412l-.016-.589-.05-.587-.084-.583-.116-.578-.146-.57-.179-.561-.213-.55-.245-.536-.271-.522-.3-.506-.333-.488-.354-.469-.384-.448-.408-.425-.429-.402-.454-.377-.475-.35-.491-.323-.508-.295-.53-.265-.537-.235-.554-.204-.562-.173-.571-.14-.583-.108-.583-.075-.587-.042-.446-.01"/><use href="#P"/><use href="#P" x="-124.338"/><use href="#P" x="-142.46" y="225.765"/><use href="#P" x="-18.122" y="225.765"/><use href="#Q"/><use href="#Q" x="124.337"/><path d="M219.38 71.025c0 2.006 1.626 3.633 3.632 3.633s3.633-1.626 3.633-3.633-1.626-3.633-3.633-3.633a3.63 3.63 0 0 0-3.632 3.633zm-124.337 0c0 2.006 1.626 3.633 3.633 3.633s3.633-1.626 3.633-3.633-1.627-3.633-3.633-3.633-3.633 1.626-3.633 3.633zM79.655 59.71l-.587.017-.587.05-.583.083-.579.116-.571.148-.558.18-.55.212-.537.242-.525.272-.504.302-.487.33-.471.357-.446.382-.425.408-.404.431-.375.453-.35.474-.325.492-.296.51-.262.526-.237.54-.204.552-.171.563-.142.572-.108.579-.075.584-.042.587-.013.448m3.629.905c0 2.105 1.707 3.812 3.812 3.812s3.812-1.707 3.812-3.812-1.707-3.812-3.812-3.812-3.812 1.707-3.812 3.812z"/><path d="M79.654 59.71h11.992m-22.41 28.649V70.12M223.92 308.108l.591-.017.588-.05.583-.083.575-.116.57-.148.563-.181.55-.211.537-.243.521-.272.504-.302.491-.329.467-.357.449-.383.425-.408.4-.43.379-.453.35-.474.321-.492.296-.51.266-.526.234-.54.204-.553.175-.563.141-.572.109-.579.074-.585.042-.587.008-.448m-11.252-.905c0 2.105 1.706 3.812 3.811 3.812s3.812-1.707 3.812-3.812-1.706-3.812-3.812-3.812a3.81 3.81 0 0 0-3.811 3.812z"/><path d="M223.915 308.107h-11.988"/><g class="B"><path d="M234.333 279.455v18.239M410.772 59.345a2.6 2.6 0 0 1 2.6 2.6v240.11a2.6 2.6 0 0 1-2.6 2.601h-53.069V59.345h53.069z"/><path d="M341.229 59.345a2.6 2.6 0 0 0-2.6 2.6v240.11a2.6 2.6 0 0 0 2.6 2.601h16.475V59.345h-16.475z"/></g></g><defs><linearGradient id="A" x1="0" y1=".5" x2="37.279" y2=".5" href="#R"><stop stop-color="#d84896"/><stop offset="1" stop-color="#a733c3"/></linearGradient><linearGradient id="B" x1="414.272" y1="52.011" x2="414.272" y2=".231" href="#R"><stop stop-color="#d84896"/><stop offset="1" stop-color="#a733c3"/></linearGradient><linearGradient id="C" x1="0" y1=".5" x2="51.78" y2=".5" href="#R"><stop stop-color="#d84896"/><stop offset="1" stop-color="#a733c3"/></linearGradient><linearGradient id="D" x1="0" y1=".5" x2="36.78" y2=".5" href="#R"><stop stop-color="#d84896"/><stop offset="1" stop-color="#a733c3"/></linearGradient><linearGradient id="E" x1="0" y1="0.5" x2="36.78" y2="0.5" href="#R"><stop stop-color="#d84896"/><stop offset="1" stop-color="#a733c3"/></linearGradient><linearGradient id="F" x1="23" y1="22.66" x2="147.259" y2="22.66" href="#R"><stop stop-color="#d84896"/><stop offset="1" stop-color="#a733c3"/></linearGradient><linearGradient id="G" x1="406.713" y1="23.731" x2="413.772" y2="23.731" href="#R"><stop stop-color="#d84896"/><stop offset="1" stop-color="#a733c3"/></linearGradient><linearGradient id="H" x1="190.829" y1="388.351" x2="234.768" y2="388.351" href="#R"><stop stop-color="#d84896"/><stop offset="1" stop-color="#a733c3"/></linearGradient><linearGradient id="I" x1="338.229" y1="23.731" x2="348.167" y2="23.731" href="#R"><stop stop-color="#d84896"/><stop offset="1" stop-color="#a733c3"/></linearGradient><linearGradient id="J" x1="66.439" y1="388.351" x2="123.858" y2="388.351" href="#R"><stop stop-color="#d84896"/><stop offset="1" stop-color="#a733c3"/></linearGradient><linearGradient id="K" x1="22.5" y1="22.16" x2="22.5" y2="157.478" href="#R"><stop stop-color="#d84896"/><stop offset="1" stop-color="#a733c3"/></linearGradient><linearGradient id="L" x1="22.5" y1="198.908" x2="22.5" y2="347.167" href="#R"><stop stop-color="#d84896"/><stop offset="1" stop-color="#a733c3"/></linearGradient><linearGradient id="M" x1="23" y1="347.667" x2="146.948" y2="347.667" href="#R"><stop stop-color="#d84896"/><stop offset="1" stop-color="#a733c3"/></linearGradient><linearGradient id="N" x1="0" y1=".5" x2="36.785" y2=".5" href="#R"><stop stop-color="#d84896"/><stop offset="1" stop-color="#a733c3"/></linearGradient><path id="O" d="M 0.25001 -0.24999 L 36.53 -0.25"/><path id="P" d="M219.269 71.025a3.75 3.75 0 0 0 3.749 3.749 3.75 3.75 0 0 0 3.749-3.749 3.75 3.75 0 0 0-3.749-3.749 3.75 3.75 0 0 0-3.749 3.749z"/><path id="Q" d="M76.921 296.79c0 2.006 1.626 3.632 3.632 3.632s3.633-1.626 3.633-3.632-1.626-3.633-3.633-3.633-3.632 1.627-3.632 3.633z"/><linearGradient id="R" gradientUnits="userSpaceOnUse"/></defs></svg>