<svg xmlns="http://www.w3.org/2000/svg" width="463" height="404" fill="none" xmlns:v="https://vecta.io/nano"><style><![CDATA[.B{stroke-width:.8}]]></style><path d="M345.151 317.151v-.187h2.125v.156c0 .604.195 1.057.586 1.359s.937.454 1.64.454 1.24-.146 1.61-.438a1.39 1.39 0 0 0 .562-1.156c0-.474-.179-.844-.539-1.11-.354-.265-1.096-.552-2.226-.859-1.204-.328-2.097-.75-2.68-1.266s-.878-1.231-.883-2.148c0-.963.367-1.742 1.102-2.336s1.729-.891 2.984-.891 2.258.31 3.008.93 1.125 1.425 1.125 2.43v.172h-2.086v-.149c0-.526-.172-.948-.516-1.265-.343-.323-.851-.485-1.523-.485s-1.175.133-1.492.399c-.318.26-.477.614-.477 1.062 0 .427.169.755.508.985s1.073.5 2.203.812c1.188.328 2.086.761 2.695 1.297s.914 1.302.914 2.297c0 1.031-.39 1.846-1.171 2.445s-1.813.899-3.11.899c-1.292 0-2.341-.295-3.148-.883-.808-.594-1.211-1.435-1.211-2.524zm9.781-.789v-.25c0-1.276.365-2.294 1.094-3.054.729-.766 1.708-1.149 2.937-1.149 1.162 0 2.045.297 2.649.891.609.588.929 1.278.961 2.07l.007.109h-1.984v-.078c0-.406-.135-.747-.406-1.023s-.677-.422-1.235-.422c-.651 0-1.138.237-1.46.711s-.485 1.094-.485 1.859v.422c0 .761.159 1.38.477 1.86s.807.718 1.468.718c.589 0 1.008-.145 1.258-.437a1.53 1.53 0 0 0 .383-1.024v-.07h1.977v.078c0 .792-.313 1.49-.938 2.094s-1.508.898-2.664.898c-1.229 0-2.211-.382-2.945-1.148s-1.094-1.784-1.094-3.055zm9.109 3.969v-8.187h1.922l.047.953h.047a2.66 2.66 0 0 1 .727-.828 1.72 1.72 0 0 1 1.062-.352 1.52 1.52 0 0 1 .336.039 1.55 1.55 0 0 1 .25.07v1.782c-.094-.026-.195-.045-.305-.055-.104-.01-.221-.016-.351-.016-.391 0-.737.112-1.039.336a1.95 1.95 0 0 0-.657.836v5.422h-2.039zm5.079-3.969v-.25c0-1.255.367-2.268 1.101-3.039s1.685-1.164 2.852-1.164 2.078.362 2.734 1.086.984 1.716.984 2.977v.75h-6.336v-1.344h4.321v-.172c0-.5-.146-.922-.438-1.266s-.708-.515-1.25-.515c-.64 0-1.125.239-1.453.719s-.484 1.104-.484 1.875v.421c0 .766.174 1.388.523 1.868s.873.718 1.571.718c.463 0 .861-.109 1.195-.328a2.99 2.99 0 0 0 .82-.765l1.414.945c-.26.463-.687.862-1.281 1.195s-1.297.492-2.125.492c-1.307 0-2.326-.385-3.055-1.156s-1.093-1.791-1.093-3.047zm8.335-4.218h2.024l1.305 4.843.125.547.109.531h.047l.094-.531.132-.547 1.493-4.843h1.898l1.547 4.851.148.539.11.539h.047l.093-.539.118-.539 1.289-4.851h1.796l-2.476 8.187h-1.859l-1.555-4.82-.164-.602-.133-.601h-.039l-.141.609-.164.594-1.5 4.82h-1.867l-2.477-8.187zm17.641 8.187v-11.375h4.149c1.291 0 2.283.318 2.976.953s1.039 1.518 1.039 2.649-.346 2.018-1.039 2.664-1.685.968-2.976.968h-2.047v4.141h-2.102zm2.102-5.734h1.89c.776 0 1.315-.185 1.617-.555.308-.375.461-.867.461-1.477 0-.604-.153-1.088-.461-1.453-.302-.364-.841-.547-1.617-.547h-1.89v4.032zm7.484 5.734v-8.187h1.922l.047.953h.047c.177-.318.419-.594.726-.828.313-.235.667-.352 1.063-.352a1.52 1.52 0 0 1 .336.039 1.58 1.58 0 0 1 .25.07v1.782a1.74 1.74 0 0 0-.305-.055 3.68 3.68 0 0 0-.352-.016 1.7 1.7 0 0 0-1.039.336c-.297.219-.515.498-.656.836v5.422h-2.039zm5.078-3.969v-.25c0-1.271.375-2.289 1.125-3.054s1.748-1.149 2.977-1.149 2.218.383 2.968 1.149c.756.765 1.133 1.783 1.133 3.054v.25c0 1.266-.377 2.284-1.133 3.055-.75.766-1.739 1.148-2.968 1.148s-2.222-.382-2.977-1.148-1.125-1.789-1.125-3.055zm2.078-.336v.422c0 .787.172 1.409.516 1.867s.851.68 1.508.68 1.156-.226 1.5-.68.523-1.083.523-1.875v-.414c0-.786-.174-1.406-.523-1.859s-.849-.688-1.5-.688-1.151.23-1.5.688-.524 1.073-.524 1.859zm6.516-3.882h2.039l1.773 5.023a4.09 4.09 0 0 1 .164.547l.094.453h.047l.094-.453.156-.547 1.774-5.023h1.859l-3.109 8.187h-1.774l-3.117-8.187zm9.008 8.187v-8.187h2.039v8.187h-2.039zm-.188-10.547c0-.318.104-.583.313-.797s.508-.32.898-.32.69.107.899.32a1.09 1.09 0 0 1 .312.797 1.11 1.11 0 0 1-.32.805c-.209.213-.505.32-.891.32s-.69-.107-.898-.32a1.12 1.12 0 0 1-.313-.805zm3.86 8.016l2 .008v.101c0 .412.143.716.429.914.292.198.68.297 1.164.297.49 0 .865-.094 1.125-.281.266-.188.399-.438.399-.75a.76.76 0 0 0-.375-.695c-.25-.156-.818-.331-1.703-.524-.938-.198-1.641-.495-2.11-.891-.463-.401-.695-.934-.695-1.601 0-.745.302-1.341.906-1.789s1.417-.68 2.438-.68 1.838.232 2.453.695a2.23 2.23 0 0 1 .93 1.883v.078h-1.993v-.109c0-.344-.114-.612-.343-.805s-.581-.289-1.055-.289-.813.084-1.031.25-.321.381-.321.641c0 .266.131.476.391.633.266.151.846.323 1.742.515.932.198 1.628.495 2.086.891s.688.948.688 1.656c0 .802-.297 1.44-.891 1.914s-1.471.703-2.633.703c-1.151 0-2.039-.237-2.664-.711s-.937-1.132-.937-1.976v-.078zm8.796 2.531v-8.187h2.04v8.187h-2.04zm-.187-10.547c0-.318.104-.583.312-.797s.508-.32.899-.32.69.107.898.32.313.479.313.797a1.11 1.11 0 0 1-.32.805c-.209.213-.506.32-.891.32-.391 0-.69-.107-.899-.32-.208-.219-.312-.487-.312-.805zm3.914 6.578v-.25c0-1.271.375-2.289 1.125-3.054s1.747-1.149 2.977-1.149 2.218.383 2.968 1.149c.756.765 1.133 1.783 1.133 3.054v.25c0 1.266-.377 2.284-1.133 3.055-.75.766-1.739 1.148-2.968 1.148s-2.222-.382-2.977-1.148-1.125-1.789-1.125-3.055zm2.078-.336v.422c0 .787.172 1.409.516 1.867s.851.68 1.508.68 1.156-.226 1.5-.68.523-1.083.523-1.875v-.414c0-.786-.174-1.406-.523-1.859s-.849-.688-1.5-.688-1.151.23-1.5.688-.524 1.073-.524 1.859zm7.766 4.305v-8.187h1.914l.055.968h.039c.239-.333.57-.604.992-.812.422-.214.888-.321 1.398-.321.839 0 1.516.237 2.031.711s.774 1.292.774 2.454v5.187h-2.031v-5.219c0-.557-.123-.95-.368-1.179-.244-.235-.591-.352-1.039-.352-.375 0-.716.104-1.023.313a2.05 2.05 0 0 0-.711.851v5.586h-2.031zM1.429 11.82v-.187h2.125v.156c0 .604.195 1.057.586 1.359s.938.453 1.641.453 1.24-.146 1.609-.437a1.39 1.39 0 0 0 .563-1.156 1.3 1.3 0 0 0-.539-1.109c-.354-.266-1.096-.552-2.227-.859-1.203-.328-2.096-.75-2.68-1.266s-.878-1.232-.883-2.148c0-.964.367-1.742 1.102-2.336s1.729-.891 2.984-.891 2.258.31 3.008.93 1.125 1.424 1.125 2.43v.172H7.757v-.148c0-.526-.172-.948-.516-1.266s-.852-.484-1.523-.484c-.677 0-1.174.133-1.492.398s-.477.615-.477 1.063c0 .427.169.755.508.984s1.073.5 2.203.812c1.188.328 2.086.76 2.695 1.297s.914 1.302.914 2.297c0 1.031-.391 1.846-1.172 2.445-.776.599-1.812.899-3.109.899s-2.341-.294-3.148-.883c-.807-.594-1.211-1.435-1.211-2.524zm9.781-.789v-.25c0-1.276.365-2.294 1.094-3.055.729-.766 1.708-1.148 2.938-1.148 1.161 0 2.044.297 2.648.891.609.589.93 1.279.961 2.07l.008.109h-1.984V9.57c0-.406-.135-.747-.406-1.023-.266-.281-.677-.422-1.234-.422-.651 0-1.138.237-1.461.711s-.484 1.094-.484 1.859v.422c0 .76.159 1.38.476 1.859s.807.719 1.469.719c.588 0 1.008-.146 1.258-.437s.383-.633.383-1.023v-.07h1.977v.078c0 .792-.312 1.49-.937 2.094s-1.508.899-2.664.899c-1.229 0-2.211-.383-2.945-1.149-.729-.766-1.094-1.784-1.094-3.055zM20.319 15V6.813h1.922l.047.953h.047a2.66 2.66 0 0 1 .727-.828 1.73 1.73 0 0 1 1.063-.352 1.51 1.51 0 0 1 .336.039 1.45 1.45 0 0 1 .25.07v1.781a1.76 1.76 0 0 0-.305-.055 3.56 3.56 0 0 0-.352-.016 1.7 1.7 0 0 0-1.039.336 1.95 1.95 0 0 0-.656.836V15H20.32zm5.078-3.969v-.25c0-1.255.367-2.268 1.102-3.039s1.685-1.164 2.852-1.164 2.078.362 2.734 1.086.984 1.716.984 2.977v.75h-6.336v-1.344h4.32v-.172c0-.5-.146-.922-.437-1.266s-.708-.516-1.25-.516c-.641 0-1.125.24-1.453.719s-.484 1.104-.484 1.875v.422c0 .766.175 1.388.523 1.867s.872.719 1.57.719c.464 0 .862-.109 1.195-.328a2.98 2.98 0 0 0 .82-.766l1.414.945c-.26.463-.687.862-1.281 1.195-.589.328-1.297.492-2.125.492-1.307 0-2.325-.385-3.055-1.156s-1.094-1.792-1.094-3.047zm8.336-4.219h2.023l1.305 4.844.125.547.109.531h.047l.094-.531.133-.547 1.492-4.844h1.898l1.547 4.852.148.539.109.539h.047l.094-.539.117-.539 1.289-4.852h1.797L43.632 15h-1.859l-1.555-4.82-.164-.602-.133-.602h-.039l-.141.609-.164.594-1.5 4.82H36.21l-2.477-8.187zM51.374 15V3.625h4.148c1.292 0 2.284.318 2.977.953s1.039 1.518 1.039 2.648-.346 2.018-1.039 2.664-1.685.969-2.977.969h-2.047V15h-2.102zm2.102-5.734h1.891c.776 0 1.315-.185 1.617-.555.307-.375.461-.867.461-1.477 0-.604-.154-1.089-.461-1.453s-.841-.547-1.617-.547h-1.891v4.031zM60.96 15V6.813h1.922l.047.953h.047a2.66 2.66 0 0 1 .727-.828 1.73 1.73 0 0 1 1.063-.352 1.52 1.52 0 0 1 .336.039 1.45 1.45 0 0 1 .25.07v1.781a1.82 1.82 0 0 0-.305-.055 3.56 3.56 0 0 0-.352-.016c-.391 0-.737.112-1.039.336a1.95 1.95 0 0 0-.656.836V15h-2.04zm5.078-3.969v-.25c0-1.271.375-2.289 1.125-3.055s1.747-1.148 2.977-1.148 2.219.383 2.969 1.148 1.133 1.784 1.133 3.055v.25c0 1.266-.378 2.284-1.133 3.055s-1.74 1.149-2.969 1.149-2.221-.383-2.977-1.149c-.75-.771-1.125-1.789-1.125-3.055zm2.078-.336v.422c0 .786.172 1.409.516 1.867.349.453.852.68 1.508.68s1.156-.227 1.5-.68c.349-.458.523-1.083.523-1.875v-.414c0-.786-.174-1.406-.523-1.859-.349-.458-.849-.687-1.5-.687s-1.151.229-1.5.688c-.349.453-.523 1.073-.523 1.859zm6.516-3.883h2.039l1.773 5.023a4.09 4.09 0 0 1 .164.547l.094.453h.047a5.04 5.04 0 0 1 .094-.453l.156-.547 1.773-5.023h1.859L79.522 15h-1.773l-3.117-8.187zM83.64 15V6.813h2.039V15H83.64zm-.187-10.547c0-.318.104-.583.313-.797s.508-.32.898-.32.69.107.898.32.313.479.313.797a1.11 1.11 0 0 1-.32.805c-.208.214-.505.32-.891.32s-.69-.107-.898-.32c-.208-.219-.312-.487-.312-.805zm3.859 8.016l2 .008v.101c0 .412.143.716.43.914s.68.297 1.164.297c.49 0 .865-.094 1.125-.281a.87.87 0 0 0 .398-.75c0-.307-.125-.539-.375-.695s-.818-.331-1.703-.523c-.937-.198-1.641-.495-2.109-.891s-.695-.935-.695-1.602c0-.745.302-1.341.906-1.789.604-.453 1.417-.68 2.438-.68s1.839.232 2.453.695c.62.458.93 1.086.93 1.883v.078H92.28v-.109c0-.344-.115-.612-.344-.805s-.581-.289-1.055-.289c-.469 0-.812.083-1.031.25-.214.167-.32.38-.32.641 0 .266.13.477.391.633.266.151.846.323 1.742.516.932.198 1.628.495 2.086.891s.688.948.688 1.656c0 .802-.297 1.44-.891 1.914-.594.469-1.471.703-2.633.703-1.151 0-2.039-.237-2.664-.711s-.937-1.133-.937-1.976v-.078zM96.108 15V6.813h2.039V15h-2.039zm-.187-10.547c0-.318.104-.583.313-.797s.508-.32.898-.32.69.107.898.32.313.479.313.797a1.11 1.11 0 0 1-.32.805c-.208.214-.505.32-.891.32s-.69-.107-.898-.32c-.208-.219-.312-.487-.312-.805zm3.914 6.578v-.25c0-1.271.375-2.289 1.125-3.055s1.747-1.148 2.976-1.148 2.219.383 2.969 1.148 1.133 1.784 1.133 3.055v.25c0 1.266-.378 2.284-1.133 3.055-.75.766-1.739 1.149-2.969 1.149s-2.221-.383-2.976-1.149-1.125-1.789-1.125-3.055zm2.078-.336v.422c0 .786.172 1.409.516 1.867s.851.68 1.507.68 1.157-.227 1.5-.68c.349-.458.524-1.083.524-1.875v-.414c0-.786-.175-1.406-.524-1.859-.349-.458-.849-.687-1.5-.687s-1.151.229-1.5.688c-.349.453-.523 1.073-.523 1.859zM109.679 15V6.813h1.914l.054.969h.039c.24-.333.571-.604.993-.812.421-.214.888-.32 1.398-.32.839 0 1.516.237 2.031.711s.774 1.292.774 2.453V15h-2.032V9.781c0-.557-.122-.951-.367-1.18-.245-.234-.591-.352-1.039-.352a1.78 1.78 0 0 0-1.023.313c-.308.208-.544.492-.711.852V15h-2.031z" fill="#3c3b3b"/><g stroke="#000"><path d="M121.894 104.821l-1.012 1.014m22.136-30.421l-1.012 1.014m169.889 322.721l1.012-1.014"/><path d="M332.994 369.744l1.017-1.014" class="B"/><path d="M299.417 86.572h-.082m.082 4.151v-4.151m0 4.152h-.082M184.581 79.589v.082m107.85-.082H184.584m107.847 0v.082m37.409 37.32h-.082"/><path d="M329.84 358.953V116.991m0 241.961h-.082m0 0h-1.062" class="B"/><path d="M277.303 383.838h-.082m.082 4.152v-4.152m0 4.153h-.082"/><g class="B"><path d="M136.194 364.568v-.083m-4.153.073h4.153"/><path d="M132.043 364.568v-.083"/></g><path d="M155.475 387.991h.082m-.083-4.149v4.151"/><path d="M155.475 383.842h.082"/><path d="M125.052 357.574h.081m-.078-241.961v241.962" class="B"/><path d="M125.052 115.613h.081m-.007 0h1.062m144.127 279.373v-.083m-107.847.073h107.847m-107.851.01v-.083"/><g class="B"><path d="M324.228 363.424v1.062m0 .08v-.083m-27.653.075h27.653"/><path d="M296.583 364.566v-.083"/></g><path d="M130.664 111.143v-1.062m0-.075v.082m27.668-.082h-27.653m27.653 0v.082m116.811 282.84l.053-.049m-4.878 2.097l.492-.018.487-.055.486-.089.481-.124.47-.157.465-.19.448-.222.437-.254.415-.282.392-.313.365-.34.343-.368.31-.393.288-.415.249-.434.226-.449.188-.464.155-.474.127-.482.089-.486.055-.489.017-.487m-6.988 6.911l.437-.014.431-.041.421-.067.414-.092.41-.116.392-.14.382-.161.371-.183.353-.202.338-.221.321-.238.304-.254.287-.269"/><g class="B"><path d="M278.707 376.432l.277-.646.304-.635m-.002.002l.326-.614.343-.6.36-.586.387-.572.398-.557.426-.541.437-.525.459-.508.47-.491m.007.001l.542-.521.558-.5.587-.479.603-.458.619-.434.642-.411.652-.386.675-.362.686-.335.708-.308m-.01-.003l.68-.268.697-.244.708-.219.73-.193.741-.166.752-.138.764-.109.774-.078.785-.049.791-.016m-19.285 19.356l.022-.836.055-.837.089-.836.127-.831.166-.826.199-.819.238-.809.271-.799.304-.785.338-.771.37-.755.404-.737.437-.719.47-.698.498-.678.525-.655.553-.632.575-.607.609-.58.63-.554.653-.525.68-.498.697-.467.719-.436.735-.406.753-.372.774-.339.785-.306.797-.271.813-.236.818-.201.83-.164.835-.129.835-.093.841-.056.84-.018m-19.36 19.28l.016-.719.039-.712.067-.704.088-.696.111-.687.138-.677.16-.666.183-.655.204-.643.227-.631.244-.616m51.058-17.48l-.022.472-.066.473-.105.468-.144.461-.183.448-.221.433-.26.412-.144.201-.155.193-.154.18-.177.183m-3.889 1.682l.426-.018.431-.052.431-.087.421-.12.414-.152.404-.183.387-.214.371-.244.348-.271.327-.3.298-.326.271-.35.244-.37.215-.389.183-.402.155-.414.121-.424.083-.428.056-.431.016-.431"/><path d="M324.239 364.484l.431-.017.432-.051.425-.085.421-.118.404-.15.392-.18.376-.211.36-.239.337-.266.321-.292"/></g><path d="M327.774 112.154l-.054-.05m-4.868-2.098v.082m6.988 6.902l-.016-.487-.056-.488-.088-.486-.127-.481-.155-.473-.188-.464-.227-.449-.249-.433-.282-.415-.315-.393-.338-.368-.37-.341-.393-.312-.415-.284-.431-.253-.454-.222-.464-.191-.47-.158-.481-.124-.487-.09-.492-.054-.487-.018m6.903 6.983l-.011-.435-.044-.43-.067-.423-.094-.416-.116-.405-.138-.394-.16-.382-.183-.368-.204-.354-.222-.338-.237-.322-.255-.306-.265-.287m-16.455-3.523l-.647-.282-.636-.304m-.014-.001l-.613-.321-.598-.343-.586-.363-.575-.384-.559-.402-.536-.422-.526-.439-.508-.457-.493-.473m.014-.001l-.52-.54-.503-.562-.476-.583-.459-.601-.431-.622-.415-.639-.387-.657-.36-.673-.337-.689-.304-.703m-.002.001l-.271-.681-.243-.697-.216-.712-.193-.726-.166-.74-.138-.753-.111-.764-.078-.774-.049-.784-.017-.792m19.347 19.283l-.841-.019-.835-.056-.835-.091-.829-.129-.83-.163-.818-.2-.808-.235-.796-.27-.786-.305-.774-.339-.752-.372-.741-.405-.719-.437-.697-.467-.675-.496-.658-.526-.63-.553-.609-.58-.581-.605-.553-.631-.525-.654-.498-.677-.464-.697-.437-.718-.404-.737-.376-.754-.337-.771-.305-.786-.271-.8-.237-.811-.199-.821-.166-.828-.128-.834-.094-.837-.055-.839-.022-.838m19.285 19.281v.082"/><path d="M318.701 110.079l-.719-.013-.713-.04-.703-.065-.697-.09-.685-.114-.681-.138-.663-.16-.658-.182-.642-.204-.63-.223-.614-.244m-13.942-26.871l-.054-.05m2.117 4.889l-.017-.487-.055-.488-.089-.486-.121-.481-.161-.473-.188-.463-.221-.45-.254-.434-.282-.414-.316-.393-.337-.368-.371-.341-.392-.312-.415-.284-.431-.253-.454-.222-.459-.19-.476-.158-.481-.124-.486-.09-.487-.055-.492-.018m6.927 6.984l-.011-.435-.044-.43-.067-.423-.088-.415-.116-.405-.144-.394-.161-.382-.182-.368-.199-.354-.221-.338-.238-.322-.255-.305-.271-.288m-117.643-.055l-.017.019-.017.02m-2.092 4.873h.081"/><path d="M184.581 79.589l-.487.018-.487.054-.486.09-.482.124-.475.157-.465.19-.448.222-.431.253-.415.283-.393.313-.37.341-.338.368-.315.393-.282.415-.254.434-.222.45-.193.464-.155.474-.127.481-.089.487-.055.488-.016.488m2.123-4.919l.194-.184.204-.175.211-.173.221-.164.459-.296.476-.26.492-.223.509-.185.519-.145.52-.106.531-.064.526-.022m-8.388 18.47l-.282.646-.304.635m0 .001l-.321.613-.342.601-.365.586-.382.572-.404.557-.42.541-.443.525-.453.508-.476.491m.002 0l-.542.521-.558.5-.581.479-.603.458-.625.434-.636.411-.658.386-.675.361-.686.335-.702.309m.008-.001l-.68.267-.697.244-.714.219-.724.193-.741.166-.753.138-.763.109-.774.079-.785.048-.791.016m19.29-19.353l-.017.837-.055.837-.094.835-.128.832-.166.826-.199.819-.232.81-.271.799-.304.785-.337.771-.376.754-.404.737-.437.719-.465.699-.497.677-.526.655-.553.632-.581.607-.608.581-.631.553-.652.526-.675.497-.697.467-.719.436-.735.405-.758.373-.769.34-.785.305-.802.271-.813.236-.819.2-.829.166-.835.128-.835.093-.841.056-.835.019m19.26-19.283h.081m0 0l-.011.718-.038.712-.067.705-.088.696-.116.687-.139.677-.16.666-.183.655-.204.643-.221.63-.244.617m-51.064 17.482l.022-.472.067-.472.105-.469.144-.461.188-.448.221-.432.26-.412.143-.201.155-.194.155-.18.177-.183m3.888-1.683l-.431.018-.431.052-.426.087-.426.119-.409.152-.404.184-.387.214-.371.243-.354.272-.326.3-.299.326-.271.35-.243.37-.216.388-.182.403-.15.414-.121.423-.089.429-.05.431-.022.431m5.608-5.531l-.437.017-.431.052-.426.084-.415.118-.409.15-.393.181-.376.21-.359.239-.338.266-.315.292"/><g class="B"><path d="M127.127 362.434l.034.039"/><path d="M125.058 357.574l.022.487.05.488.094.486.122.482.155.473.193.463.221.45.255.433.282.414.31.393.342.368.365.341.393.313.415.283.437.254.448.222.464.19.476.158.481.124.487.09.487.055.486.018"/><path d="M125.139 357.574l.017.435.038.431.067.423.094.415.116.405.138.394.161.382.188.368.199.354.221.339.238.322.254.305.271.288"/></g><path d="M155.479 387.991l.016.487.056.488.088.486.127.482.155.473.194.463.221.45.249.433.288.414.309.393.343.368.365.341.393.313.415.283.437.254.448.222.464.19.47.158.487.124.487.09.486.055.487.018"/><path d="M155.549 387.991l.016.437.039.432.066.424.094.416.117.407.143.395.161.383.182.369.205.355.221.339.243.323.255.305.271.288"/><path d="M143.605 365.959l.647.282.63.304m.009 0l.614.322.603.343.586.363.57.383.558.403.542.421.526.44.509.456.486.474m-.004 0l.52.541.504.562.481.581.453.603.437.621.409.639.387.657.36.673.337.689.31.703m.001-.002l.265.681.244.697.221.712.193.726.166.74.139.753.105.764.083.774.044.784.017.792m-19.362-19.282l.835.018.835.055.835.093.835.127.824.165.819.199.807.235.802.27.786.305.768.339.758.372.736.405.719.436.696.468.681.496.652.526.631.553.608.58.581.606.553.63.525.654.498.677.47.698.437.718.404.736.37.755.343.771.304.786.271.8.233.811.204.821.166.828.128.833.094.838.055.839.016.839m-19.272-19.355l.719.014.708.039.708.065.697.09.686.115.675.137.669.16.653.183.641.203.631.224.619.243" class="B"/><path d="M322.852 110.006h-4.148M177.613 86.572v4.152"/><path d="M338.064 358.948V85.188m-13.832 287.593l.779-.022.78-.066.774-.11.769-.154.758-.197.747-.24.73-.281.713-.322.691-.362.675-.4.647-.438.62-.474.597-.509.564-.54.536-.573.498-.601.465-.629.431-.654.393-.678.354-.698.31-.717.271-.734.232-.748.188-.76.144-.768.099-.776.056-.781.011-.601m-13.836 13.834h-2.759m.006 0l-.248.006-.244.016-.249.028-.243.039-.243.049-.238.06-.238.071-.232.082-.233.092-.226.101-.216.113-.216.121-.21.131-.204.141-.2.15-.188.158-.182.166-.177.175-.166.182-.16.189-.15.197-.144.203-.132.209-.122.215-.111.22-.105.225-.094.229-.083.233-.071.237-.061.24-.05.242-.039.244-.028.246-.022.247-.005.273m.001-.001v11.055" class="B"/><path d="M302.114 403.198l.779-.022.78-.066.774-.11.769-.154.758-.197.747-.24.73-.281.713-.322.691-.362.675-.4.647-.438.62-.474.597-.509.564-.54.537-.573.497-.601.465-.629.431-.654.393-.678.354-.698.31-.717.271-.734.232-.748.188-.76.144-.768.099-.776.056-.781.011-.601M130.67 403.2h171.443m-185.275-13.824l.022.781.066.78.111.775.155.767.199.756.238.745.282.73.32.713.36.693.404.672.437.648.475.622.503.594.543.565.575.534.597.5.63.465.653.429.68.391.697.353.719.312.73.271.752.229.758.187.769.144.774.1.78.056.597.012"/><path d="M116.832 115.614v273.762" class="B"/><path d="M130.664 101.782l-.78.022-.779.067-.775.11-.768.154-.758.197-.741.239-.73.281-.714.323-.697.362-.669.4-.647.438-.625.474-.597.508-.564.541-.531.573-.503.601-.465.629-.431.654-.388.677-.354.698-.315.718-.271.733-.226.748-.189.76-.143.769-.1.775-.055.781-.017.601m13.848-13.833h2.76m-.002 0l.249-.006.249-.016.243-.028.243-.038.244-.05.243-.06.232-.071.238-.082.227-.091.227-.103.221-.111.215-.122.211-.132.204-.14.194-.15.193-.158.183-.166.171-.175.172-.182.155-.19.155-.196.138-.203.133-.209.121-.215.116-.22.1-.225.094-.229.083-.233.072-.237.061-.24.049-.242.045-.244.027-.245.017-.247.005-.273m0-.001V85.196m13.833-13.833l-.78.022-.78.066-.774.11-.769.154-.757.197-.741.24-.73.281-.714.322-.697.362-.669.4-.647.438-.625.474-.597.508-.564.541-.531.572-.504.601-.464.629-.432.654-.387.677-.354.699-.315.717-.271.733-.227.748-.188.759-.144.769-.099.775-.055.78-.017.601m185.28-13.829H152.8m185.264 13.825l-.023-.782-.066-.779-.11-.774-.155-.767-.194-.757-.238-.744-.282-.73-.326-.712-.36-.694-.398-.672-.442-.648-.47-.622-.509-.594-.542-.565-.57-.533-.603-.5-.63-.465-.653-.429-.674-.392-.703-.352-.713-.312-.736-.271-.747-.23-.757-.186-.775-.144-.774-.1-.78-.056-.591-.013m-7.194 16.038a4.98 4.98 0 0 0 4.977 4.978 4.98 4.98 0 0 0 4.978-4.978 4.98 4.98 0 0 0-4.978-4.978 4.98 4.98 0 0 0-4.977 4.978z"/><path d="M151.961 87.403a4.98 4.98 0 0 0 4.978 4.978 4.98 4.98 0 0 0 4.977-4.978 4.98 4.98 0 0 0-4.977-4.978 4.98 4.98 0 0 0-4.978 4.978zM127.898 387.16a4.98 4.98 0 0 0 4.978 4.978 4.98 4.98 0 0 0 4.977-4.978 4.98 4.98 0 0 0-4.977-4.977 4.98 4.98 0 0 0-4.978 4.977zm165.09 0a4.98 4.98 0 0 0 4.977 4.978 4.98 4.98 0 0 0 4.978-4.978 4.98 4.98 0 0 0-4.978-4.977 4.98 4.98 0 0 0-4.977 4.977z"/><use href="#G"/><use href="#G" x="165.088"/><use href="#G" x="189.149" y="-299.759"/><path d="M152.108 87.402c0 2.664 2.16 4.823 4.823 4.823s4.823-2.159 4.823-4.823-2.159-4.823-4.823-4.823-4.823 2.159-4.823 4.823zm-20.431-15.023l-.78.022-.78.066-.774.11-.769.154-.757.197-.741.239-.731.282-.713.322-.697.362-.669.4-.647.438-.625.474-.592.508-.564.541-.536.572-.498.601-.465.629-.431.654-.393.678-.348.698-.315.717-.271.733-.227.748-.188.759-.144.769-.1.776-.055.78-.017.595"/><use href="#H"/><path d="M131.675 72.379h15.922m-29.753 38.038V86.201m205.379 315.988l.785-.023.78-.066.774-.11.764-.154.757-.197.747-.24.73-.281.713-.321.692-.363.669-.4.653-.438.619-.474.597-.508.565-.541.53-.572.504-.601.464-.629.426-.653.393-.678.354-.698.31-.717.27-.733.233-.748.188-.76.144-.769.099-.776.056-.78.011-.595"/><use href="#H" x="199.44" y="299.759"/><path d="M323.218 402.186h-15.917"/><path d="M337.05 364.144v24.216" class="B"/></g><g stroke-width="1.5"><circle cx="128.047" cy="86.518" r="11.75" stroke="url(#A)"/><circle cx="327.72" cy="386.698" r="11.75" stroke="url(#B)"/></g><path d="M346.141 387.161a1.6 1.6 0 0 0-3.2 0 1.6 1.6 0 0 0 3.2 0zm57.4-.3h-59v.6h59v-.6z" fill="url(#C)"/><path d="M110.552 86.202a1.6 1.6 0 0 0 3.2 0 1.6 1.6 0 0 0-3.2 0zm-51.05.3h52.65v-.6h-52.65v.6z" fill="url(#D)"/><g stroke-width=".6"><path d="M403.541 387.161L403.541 333.258" stroke="url(#E)"/><path d="M59.5018 86.2021L59.5018 32.2988" stroke="url(#F)"/></g><defs><linearGradient id="A" x1="128.047" y1="74.018" x2="128.047" y2="99.018" href="#I"><stop stop-color="#ff5f9b"/><stop offset="1" stop-color="#2f67ff"/></linearGradient><linearGradient id="B" x1="327.72" y1="374.198" x2="327.72" y2="399.198" href="#I"><stop stop-color="#ff5f9b"/><stop offset="1" stop-color="#2f67ff"/></linearGradient><linearGradient id="C" x1="344.541" y1="386.361" x2="403.541" y2="386.361" href="#I"><stop stop-color="#2f67ff"/><stop offset="1" stop-color="#c262b8"/></linearGradient><linearGradient id="D" x1="112.152" y1="87.002" x2="59.502" y2="87.002" href="#I"><stop stop-color="#2f67ff"/><stop offset="1" stop-color="#c262b8"/></linearGradient><linearGradient id="E" x1="404.341" y1="333.258" x2="404.341" y2="387.161" href="#I"><stop stop-color="#2f67ff"/><stop offset="1" stop-color="#c262b8"/></linearGradient><linearGradient id="F" x1="60.302" y1="32.299" x2="60.302" y2="86.202" href="#I"><stop stop-color="#2f67ff"/><stop offset="1" stop-color="#c262b8"/></linearGradient><path id="G" d="M128.047 387.161c0 2.664 2.159 4.823 4.823 4.823s4.823-2.159 4.823-4.823-2.159-4.823-4.823-4.823-4.823 2.159-4.823 4.823z"/><path id="H" d="M122.669 87.403a5.06 5.06 0 1 0 10.122 0 5.06 5.06 0 1 0-10.122 0z"/><linearGradient id="I" gradientUnits="userSpaceOnUse"/></defs></svg>