<svg width="900" height="900" viewBox="0 0 900 900" fill="none" xmlns="http://www.w3.org/2000/svg">
<rect width="900" height="900" rx="51" fill="white"/>
<line x1="0.25" y1="-0.25" x2="63.3804" y2="-0.25" transform="matrix(-4.37114e-08 -1 -1 4.37114e-08 330.389 188.996)" stroke="#3C3B3B" stroke-width="0.5" stroke-linecap="round"/>
<line x1="785.893" y1="176.91" x2="785.893" y2="89.0289" stroke="#BEBEBE" stroke-width="0.5" stroke-linecap="round"/>
<line x1="0.25" y1="-0.25" x2="88.1315" y2="-0.25" transform="matrix(-4.37114e-08 -1 -1 4.37114e-08 657.201 177.16)" stroke="#BEBEBE" stroke-width="0.5" stroke-linecap="round"/>
<line x1="0.25" y1="-0.25" x2="62.5285" y2="-0.25" transform="matrix(-4.37114e-08 -1 -1 4.37114e-08 193.293 782.449)" stroke="#3C3B3B" stroke-width="0.5" stroke-linecap="round"/>
<line x1="0.25" y1="-0.25" x2="62.5285" y2="-0.25" transform="matrix(-4.37114e-08 -1 -1 4.37114e-08 479.867 782.449)" stroke="#3C3B3B" stroke-width="0.5" stroke-linecap="round"/>
<line x1="119.397" y1="125.959" x2="330.991" y2="125.959" stroke="#3C3B3B" stroke-width="0.5" stroke-linecap="round"/>
<line x1="774.344" y1="127.787" x2="785.892" y2="127.787" stroke="#BEBEBE" stroke-width="0.5" stroke-linecap="round"/>
<line x1="405.861" y1="750.144" x2="480.358" y2="750.144" stroke="#3C3B3B" stroke-width="0.5" stroke-linecap="round"/>
<line x1="657.451" y1="127.787" x2="673.914" y2="127.787" stroke="#BEBEBE" stroke-width="0.5" stroke-linecap="round"/>
<line x1="193.543" y1="750.144" x2="291.049" y2="750.144" stroke="#3C3B3B" stroke-width="0.5" stroke-linecap="round"/>
<line x1="119.397" y1="126.459" x2="119.397" y2="356.928" stroke="#3C3B3B" stroke-width="0.5" stroke-linecap="round"/>
<line x1="119.397" y1="428.144" x2="119.397" y2="680.702" stroke="#3C3B3B" stroke-width="0.5" stroke-linecap="round"/>
<line x1="119.397" y1="680.702" x2="330.461" y2="680.702" stroke="#3C3B3B" stroke-width="0.5" stroke-linecap="round"/>
<line x1="0.25" y1="-0.25" x2="62.537" y2="-0.25" transform="matrix(-4.37114e-08 -1 -1 4.37114e-08 330.389 680.952)" stroke="#3C3B3B" stroke-width="0.5" stroke-linecap="round"/>
<path d="M89.622 376.224V395.86H86.0649V379.685H85.9498L81.3571 382.619V379.359L86.2374 376.224H89.622ZM94.2531 392.217V389.388L102.585 376.224H104.944V380.251H103.506L97.8965 389.139V389.293H109.527V392.217H94.2531ZM103.621 395.86V391.354L103.659 390.088V376.224H107.015V395.86H103.621ZM112.59 395.86V393.291L119.407 386.608C120.059 385.949 120.603 385.365 121.037 384.853C121.472 384.342 121.798 383.847 122.015 383.367C122.233 382.888 122.341 382.376 122.341 381.833C122.341 381.213 122.201 380.682 121.919 380.241C121.638 379.794 121.251 379.449 120.759 379.206C120.267 378.963 119.708 378.842 119.081 378.842C118.436 378.842 117.87 378.976 117.384 379.244C116.898 379.506 116.521 379.88 116.253 380.366C115.991 380.852 115.86 381.43 115.86 382.101H112.475C112.475 380.855 112.76 379.772 113.329 378.851C113.897 377.931 114.68 377.218 115.678 376.713C116.681 376.208 117.832 375.956 119.129 375.956C120.446 375.956 121.603 376.202 122.6 376.694C123.597 377.186 124.371 377.86 124.92 378.717C125.477 379.573 125.755 380.551 125.755 381.651C125.755 382.386 125.614 383.108 125.333 383.818C125.052 384.527 124.556 385.313 123.847 386.176C123.144 387.039 122.156 388.084 120.884 389.312L117.499 392.754V392.888H126.052V395.86H112.59ZM136.095 395.86V381.133H139.413V383.636H139.585C139.892 382.792 140.4 382.133 141.11 381.66C141.819 381.181 142.666 380.941 143.651 380.941C144.648 380.941 145.489 381.184 146.172 381.67C146.863 382.149 147.349 382.805 147.63 383.636H147.783C148.109 382.817 148.659 382.165 149.432 381.68C150.212 381.187 151.136 380.941 152.203 380.941C153.558 380.941 154.664 381.37 155.521 382.226C156.377 383.083 156.806 384.332 156.806 385.975V395.86H153.325V386.512C153.325 385.598 153.082 384.93 152.596 384.508C152.111 384.08 151.516 383.866 150.813 383.866C149.976 383.866 149.321 384.128 148.848 384.652C148.381 385.17 148.148 385.844 148.148 386.675V395.86H144.744V386.368C144.744 385.608 144.514 385 144.053 384.546C143.6 384.093 143.005 383.866 142.27 383.866C141.772 383.866 141.318 383.994 140.909 384.249C140.5 384.498 140.174 384.853 139.931 385.313C139.688 385.767 139.566 386.298 139.566 386.905V395.86H136.095ZM160.327 395.86V381.133H163.644V383.636H163.817C164.124 382.792 164.632 382.133 165.341 381.66C166.051 381.181 166.898 380.941 167.882 380.941C168.879 380.941 169.72 381.184 170.404 381.67C171.094 382.149 171.58 382.805 171.861 383.636H172.015C172.341 382.817 172.89 382.165 173.664 381.68C174.444 381.187 175.367 380.941 176.435 380.941C177.79 380.941 178.896 381.37 179.752 382.226C180.609 383.083 181.037 384.332 181.037 385.975V395.86H177.557V386.512C177.557 385.598 177.314 384.93 176.828 384.508C176.342 384.08 175.748 383.866 175.045 383.866C174.207 383.866 173.552 384.128 173.079 384.652C172.612 385.17 172.379 385.844 172.379 386.675V395.86H168.975V386.368C168.975 385.608 168.745 385 168.285 384.546C167.831 384.093 167.237 383.866 166.502 383.866C166.003 383.866 165.549 383.994 165.14 384.249C164.731 384.498 164.405 384.853 164.162 385.313C163.919 385.767 163.798 386.298 163.798 386.905V395.86H160.327Z" fill="#727272"/>
<path d="M688.162 133.635C686.782 133.635 685.554 133.399 684.481 132.926C683.413 132.453 682.569 131.795 681.949 130.951C681.329 130.107 681 129.132 680.962 128.026H684.567C684.599 128.557 684.775 129.02 685.094 129.417C685.414 129.807 685.839 130.11 686.369 130.328C686.9 130.545 687.494 130.654 688.153 130.654C688.856 130.654 689.479 130.532 690.022 130.289C690.566 130.04 690.991 129.695 691.298 129.254C691.604 128.813 691.755 128.304 691.748 127.729C691.755 127.135 691.601 126.611 691.288 126.157C690.975 125.703 690.521 125.348 689.927 125.092C689.339 124.837 688.629 124.709 687.798 124.709H686.063V121.967H687.798C688.482 121.967 689.08 121.848 689.591 121.612C690.109 121.375 690.515 121.043 690.809 120.615C691.103 120.18 691.247 119.678 691.24 119.109C691.247 118.553 691.122 118.071 690.866 117.662C690.617 117.246 690.262 116.923 689.802 116.693C689.348 116.463 688.814 116.348 688.201 116.348C687.6 116.348 687.044 116.457 686.532 116.674C686.021 116.891 685.609 117.201 685.296 117.604C684.982 118 684.816 118.473 684.797 119.023H681.374C681.4 117.924 681.716 116.959 682.323 116.128C682.937 115.29 683.755 114.638 684.778 114.172C685.801 113.699 686.948 113.462 688.22 113.462C689.53 113.462 690.668 113.708 691.633 114.2C692.605 114.686 693.356 115.341 693.886 116.166C694.417 116.991 694.682 117.901 694.682 118.899C694.689 120.004 694.363 120.931 693.704 121.679C693.052 122.427 692.196 122.916 691.135 123.146V123.299C692.515 123.491 693.573 124.003 694.308 124.834C695.05 125.658 695.417 126.684 695.411 127.911C695.411 129.011 695.098 129.995 694.471 130.864C693.851 131.727 692.995 132.405 691.902 132.897C690.815 133.389 689.569 133.635 688.162 133.635ZM698.702 133.367V130.797L705.519 124.114C706.171 123.456 706.714 122.871 707.149 122.36C707.584 121.848 707.91 121.353 708.127 120.874C708.344 120.394 708.453 119.883 708.453 119.34C708.453 118.72 708.312 118.189 708.031 117.748C707.75 117.301 707.363 116.955 706.871 116.712C706.379 116.47 705.82 116.348 705.193 116.348C704.548 116.348 703.982 116.482 703.496 116.751C703.01 117.013 702.633 117.387 702.365 117.873C702.103 118.358 701.972 118.937 701.972 119.608H698.587C698.587 118.362 698.871 117.278 699.44 116.358C700.009 115.437 700.792 114.725 701.789 114.22C702.793 113.715 703.944 113.462 705.241 113.462C706.558 113.462 707.715 113.708 708.712 114.2C709.709 114.693 710.483 115.367 711.032 116.223C711.588 117.08 711.866 118.058 711.866 119.157C711.866 119.893 711.726 120.615 711.445 121.324C711.163 122.034 710.668 122.82 709.958 123.683C709.255 124.546 708.268 125.591 706.996 126.818L703.611 130.26V130.395H712.164V133.367H698.702ZM722.207 133.367V118.64H725.525V121.142H725.697C726.004 120.298 726.512 119.64 727.222 119.167C727.931 118.688 728.778 118.448 729.763 118.448C730.76 118.448 731.6 118.691 732.284 119.177C732.975 119.656 733.46 120.311 733.742 121.142H733.895C734.221 120.324 734.771 119.672 735.544 119.186C736.324 118.694 737.248 118.448 738.315 118.448C739.67 118.448 740.776 118.876 741.633 119.733C742.489 120.589 742.917 121.839 742.917 123.482V133.367H739.437V124.019C739.437 123.105 739.194 122.437 738.708 122.015C738.222 121.586 737.628 121.372 736.925 121.372C736.088 121.372 735.432 121.634 734.959 122.158C734.493 122.676 734.259 123.351 734.259 124.182V133.367H730.856V123.875C730.856 123.114 730.626 122.507 730.165 122.053C729.711 121.599 729.117 121.372 728.382 121.372C727.883 121.372 727.43 121.5 727.02 121.756C726.611 122.005 726.285 122.36 726.042 122.82C725.8 123.274 725.678 123.804 725.678 124.412V133.367H722.207ZM746.439 133.367V118.64H749.756V121.142H749.929C750.236 120.298 750.744 119.64 751.453 119.167C752.163 118.688 753.01 118.448 753.994 118.448C754.991 118.448 755.832 118.691 756.516 119.177C757.206 119.656 757.692 120.311 757.973 121.142H758.127C758.453 120.324 759.002 119.672 759.776 119.186C760.555 118.694 761.479 118.448 762.547 118.448C763.902 118.448 765.008 118.876 765.864 119.733C766.721 120.589 767.149 121.839 767.149 123.482V133.367H763.668V124.019C763.668 123.105 763.426 122.437 762.94 122.015C762.454 121.586 761.859 121.372 761.156 121.372C760.319 121.372 759.664 121.634 759.191 122.158C758.724 122.676 758.491 123.351 758.491 124.182V133.367H755.087V123.875C755.087 123.114 754.857 122.507 754.397 122.053C753.943 121.599 753.348 121.372 752.613 121.372C752.115 121.372 751.661 121.5 751.252 121.756C750.843 122.005 750.517 122.36 750.274 122.82C750.031 123.274 749.91 123.804 749.91 124.412V133.367H746.439Z" fill="#3C3B3B"/>
<path d="M311.164 757.887C309.739 757.887 308.473 757.648 307.367 757.168C306.268 756.689 305.405 756.034 304.778 755.203C304.158 754.365 303.852 753.416 303.858 752.355C303.852 751.53 304.031 750.773 304.395 750.083C304.759 749.392 305.251 748.817 305.871 748.357C306.498 747.89 307.195 747.593 307.962 747.465V747.331C306.952 747.107 306.134 746.592 305.507 745.787C304.887 744.975 304.58 744.039 304.587 742.978C304.58 741.968 304.862 741.067 305.43 740.274C305.999 739.481 306.779 738.858 307.77 738.404C308.761 737.944 309.892 737.714 311.164 737.714C312.423 737.714 313.545 737.944 314.53 738.404C315.52 738.858 316.3 739.481 316.869 740.274C317.444 741.067 317.732 741.968 317.732 742.978C317.732 744.039 317.416 744.975 316.783 745.787C316.156 746.592 315.348 747.107 314.357 747.331V747.465C315.124 747.593 315.814 747.89 316.428 748.357C317.048 748.817 317.54 749.392 317.905 750.083C318.275 750.773 318.461 751.53 318.461 752.355C318.461 753.416 318.147 754.365 317.521 755.203C316.895 756.034 316.032 756.689 314.932 757.168C313.839 757.648 312.583 757.887 311.164 757.887ZM311.164 755.145C311.899 755.145 312.538 755.02 313.082 754.771C313.625 754.515 314.047 754.157 314.347 753.697C314.648 753.237 314.801 752.706 314.808 752.106C314.801 751.479 314.638 750.926 314.319 750.447C314.005 749.961 313.574 749.581 313.024 749.306C312.481 749.031 311.861 748.894 311.164 748.894C310.461 748.894 309.835 749.031 309.285 749.306C308.735 749.581 308.3 749.961 307.981 750.447C307.668 750.926 307.514 751.479 307.521 752.106C307.514 752.706 307.661 753.237 307.962 753.697C308.262 754.151 308.684 754.506 309.227 754.762C309.777 755.017 310.423 755.145 311.164 755.145ZM311.164 746.199C311.765 746.199 312.295 746.078 312.756 745.835C313.222 745.592 313.59 745.253 313.858 744.819C314.127 744.384 314.264 743.882 314.271 743.313C314.264 742.751 314.13 742.259 313.868 741.837C313.606 741.409 313.242 741.079 312.775 740.849C312.308 740.613 311.771 740.494 311.164 740.494C310.544 740.494 309.998 740.613 309.525 740.849C309.058 741.079 308.694 741.409 308.432 741.837C308.176 742.259 308.051 742.751 308.058 743.313C308.051 743.882 308.179 744.384 308.441 744.819C308.71 745.247 309.077 745.586 309.544 745.835C310.017 746.078 310.557 746.199 311.164 746.199ZM328.871 757.993C327.292 757.993 325.937 757.593 324.806 756.794C323.681 755.989 322.814 754.829 322.207 753.314C321.606 751.792 321.306 749.961 321.306 747.82C321.312 745.678 321.616 743.857 322.217 742.355C322.824 740.846 323.69 739.695 324.815 738.903C325.947 738.11 327.298 737.714 328.871 737.714C330.443 737.714 331.795 738.11 332.927 738.903C334.058 739.695 334.924 740.846 335.525 742.355C336.132 743.863 336.436 745.685 336.436 747.82C336.436 749.967 336.132 751.802 335.525 753.323C334.924 754.838 334.058 755.995 332.927 756.794C331.802 757.593 330.45 757.993 328.871 757.993ZM328.871 754.992C330.098 754.992 331.067 754.388 331.776 753.179C332.492 751.965 332.85 750.178 332.85 747.82C332.85 746.26 332.687 744.95 332.361 743.889C332.035 742.828 331.575 742.029 330.98 741.492C330.386 740.948 329.683 740.677 328.871 740.677C327.65 740.677 326.685 741.284 325.975 742.498C325.266 743.706 324.908 745.48 324.901 747.82C324.895 749.386 325.052 750.703 325.371 751.77C325.697 752.838 326.157 753.643 326.752 754.186C327.346 754.723 328.053 754.992 328.871 754.992ZM346.357 757.619V742.892H349.675V745.394H349.847C350.154 744.55 350.662 743.892 351.372 743.419C352.081 742.939 352.928 742.7 353.913 742.7C354.91 742.7 355.75 742.943 356.434 743.428C357.125 743.908 357.61 744.563 357.892 745.394H358.045C358.371 744.576 358.921 743.924 359.694 743.438C360.474 742.946 361.398 742.7 362.465 742.7C363.82 742.7 364.926 743.128 365.783 743.985C366.639 744.841 367.067 746.091 367.067 747.733V757.619H363.587V748.27C363.587 747.356 363.344 746.688 362.858 746.267C362.372 745.838 361.778 745.624 361.075 745.624C360.237 745.624 359.582 745.886 359.109 746.41C358.643 746.928 358.409 747.602 358.409 748.433V757.619H355.006V748.127C355.006 747.366 354.775 746.759 354.315 746.305C353.861 745.851 353.267 745.624 352.532 745.624C352.033 745.624 351.579 745.752 351.17 746.008C350.761 746.257 350.435 746.612 350.192 747.072C349.949 747.526 349.828 748.056 349.828 748.664V757.619H346.357ZM370.589 757.619V742.892H373.906V745.394H374.079C374.385 744.55 374.894 743.892 375.603 743.419C376.313 742.939 377.16 742.7 378.144 742.7C379.141 742.7 379.982 742.943 380.666 743.428C381.356 743.908 381.842 744.563 382.123 745.394H382.276C382.602 744.576 383.152 743.924 383.926 743.438C384.705 742.946 385.629 742.7 386.697 742.7C388.052 742.7 389.157 743.128 390.014 743.985C390.871 744.841 391.299 746.091 391.299 747.733V757.619H387.818V748.27C387.818 747.356 387.575 746.688 387.09 746.267C386.604 745.838 386.009 745.624 385.306 745.624C384.469 745.624 383.814 745.886 383.341 746.41C382.874 746.928 382.641 747.602 382.641 748.433V757.619H379.237V748.127C379.237 747.366 379.007 746.759 378.547 746.305C378.093 745.851 377.498 745.624 376.763 745.624C376.265 745.624 375.811 745.752 375.402 746.008C374.993 746.257 374.667 746.612 374.424 747.072C374.181 747.526 374.059 748.056 374.059 748.664V757.619H370.589Z" fill="#727272"/>
<path d="M203.277 232.007L201.976 233.31" stroke="#3C3B3B"/>
<path d="M230.433 194.204L229.132 195.507" stroke="#3C3B3B"/>
<path d="M447.53 610.376L448.831 609.073" stroke="#3C3B3B"/>
<path d="M474.653 572.575L475.961 571.273" stroke="#3C3B3B" stroke-width="0.8"/>
<path d="M431.488 208.548L431.382 208.548" stroke="#3C3B3B"/>
<path d="M431.488 213.884L431.488 208.548" stroke="#3C3B3B"/>
<path d="M431.488 213.884L431.382 213.884" stroke="#3C3B3B"/>
<path d="M283.861 199.57L283.861 199.677" stroke="#3C3B3B"/>
<path d="M422.507 199.57L283.866 199.57" stroke="#3C3B3B"/>
<path d="M422.507 199.57L422.507 199.677" stroke="#3C3B3B"/>
<path d="M470.598 247.651L470.492 247.651" stroke="#3C3B3B"/>
<path d="M470.598 558.702L470.598 247.651" stroke="#3C3B3B" stroke-width="0.8"/>
<path d="M470.598 558.702L470.492 558.702" stroke="#3C3B3B" stroke-width="0.8"/>
<path d="M470.494 558.702L469.129 558.702" stroke="#3C3B3B" stroke-width="0.8"/>
<path d="M403.06 590.693L402.953 590.693" stroke="#3C3B3B"/>
<path d="M403.06 596.032L403.06 590.693" stroke="#3C3B3B"/>
<path d="M403.06 596.034L402.953 596.034" stroke="#3C3B3B"/>
<path d="M221.66 565.922L221.66 565.815" stroke="#3C3B3B" stroke-width="0.8"/>
<path d="M216.32 565.909L221.66 565.909" stroke="#3C3B3B" stroke-width="0.8"/>
<path d="M216.322 565.922L216.322 565.815" stroke="#3C3B3B" stroke-width="0.8"/>
<path d="M246.443 596.034L246.549 596.034" stroke="#3C3B3B"/>
<path d="M246.445 590.698L246.445 596.034" stroke="#3C3B3B"/>
<path d="M246.443 590.698L246.549 590.698" stroke="#3C3B3B"/>
<path d="M207.333 556.93L207.439 556.93" stroke="#3C3B3B" stroke-width="0.8"/>
<path d="M207.338 245.88L207.338 556.931" stroke="#3C3B3B" stroke-width="0.8"/>
<path d="M207.333 245.88L207.439 245.88" stroke="#3C3B3B"/>
<path d="M207.431 245.88L208.796 245.88" stroke="#3C3B3B"/>
<path d="M394.075 605.026L394.075 604.919" stroke="#3C3B3B"/>
<path d="M255.434 605.012L394.075 605.012" stroke="#3C3B3B"/>
<path d="M255.43 605.026L255.43 604.919" stroke="#3C3B3B"/>
<path d="M463.384 564.452L463.384 565.817" stroke="#3C3B3B" stroke-width="0.8"/>
<path d="M463.384 565.921L463.384 565.813" stroke="#3C3B3B" stroke-width="0.8"/>
<path d="M427.835 565.909L463.384 565.909" stroke="#3C3B3B" stroke-width="0.8"/>
<path d="M427.844 565.921L427.844 565.813" stroke="#3C3B3B" stroke-width="0.8"/>
<path d="M214.549 240.133L214.549 238.768" stroke="#3C3B3B"/>
<path d="M214.549 238.673L214.549 238.78" stroke="#3C3B3B"/>
<path d="M250.118 238.673L214.569 238.673" stroke="#3C3B3B"/>
<path d="M250.118 238.673L250.118 238.78" stroke="#3C3B3B"/>
<path d="M400.285 602.378L400.352 602.317" stroke="#3C3B3B"/>
<path d="M394.08 605.013L394.713 604.99L395.338 604.92L395.964 604.805L396.582 604.646L397.187 604.444L397.784 604.199L398.36 603.914L398.922 603.588L399.455 603.225L399.96 602.823L400.429 602.385L400.87 601.913L401.268 601.407L401.638 600.875L401.958 600.317L402.249 599.738L402.491 599.143L402.69 598.533L402.853 597.914L402.967 597.289L403.038 596.661L403.06 596.034" stroke="#3C3B3B"/>
<path d="M394.075 604.917L394.637 604.899L395.191 604.847L395.732 604.761L396.265 604.643L396.791 604.493L397.296 604.314L397.787 604.106L398.263 603.871L398.718 603.611L399.152 603.327L399.564 603.021L399.955 602.695L400.325 602.349" stroke="#3C3B3B"/>
<path d="M404.865 581.173L405.22 580.343L405.611 579.526" stroke="#3C3B3B" stroke-width="0.8"/>
<path d="M405.608 579.529L406.028 578.74L406.469 577.969L406.931 577.215L407.429 576.48L407.941 575.764L408.488 575.068L409.05 574.393L409.64 573.74L410.244 573.109" stroke="#3C3B3B" stroke-width="0.8"/>
<path d="M410.253 573.111L410.95 572.442L411.668 571.799L412.421 571.183L413.196 570.595L413.993 570.036L414.817 569.508L415.656 569.011L416.524 568.546L417.405 568.116L418.315 567.719" stroke="#3C3B3B" stroke-width="0.8"/>
<path d="M418.303 567.715L419.177 567.371L420.073 567.058L420.983 566.776L421.922 566.528L422.874 566.315L423.841 566.137L424.823 565.997L425.818 565.896L426.827 565.834L427.844 565.813" stroke="#3C3B3B" stroke-width="0.8"/>
<path d="M403.052 590.696L403.081 589.621L403.152 588.546L403.266 587.471L403.429 586.403L403.642 585.34L403.898 584.288L404.204 583.247L404.552 582.221L404.943 581.211L405.377 580.22L405.854 579.25L406.373 578.302L406.934 577.378L407.539 576.48L408.178 575.609L408.854 574.767L409.565 573.955L410.304 573.175L411.086 572.428L411.897 571.717L412.736 571.041L413.61 570.402L414.506 569.801L415.43 569.24L416.376 568.719L417.343 568.24L418.338 567.804L419.348 567.411L420.372 567.063L421.417 566.76L422.469 566.502L423.536 566.29L424.609 566.124L425.683 566.005L426.763 565.933L427.844 565.909" stroke="#3C3B3B" stroke-width="0.8"/>
<path d="M402.956 590.695L402.977 589.771L403.027 588.856L403.113 587.951L403.226 587.056L403.369 586.173L403.546 585.303L403.752 584.446L403.987 583.604L404.25 582.777L404.542 581.967L404.854 581.174" stroke="#3C3B3B" stroke-width="0.8"/>
<path d="M470.494 558.702L470.465 559.309L470.38 559.916L470.245 560.518L470.06 561.11L469.825 561.687L469.541 562.243L469.207 562.773L469.022 563.031L468.823 563.28L468.624 563.511L468.396 563.746" stroke="#3C3B3B" stroke-width="0.8"/>
<path d="M463.396 565.908L463.943 565.885L464.498 565.818L465.053 565.706L465.593 565.552L466.126 565.356L466.645 565.121L467.143 564.846L467.619 564.533L468.067 564.184L468.487 563.799L468.87 563.379L469.219 562.93L469.532 562.453L469.809 561.954L470.044 561.437L470.243 560.904L470.399 560.36L470.506 559.809L470.577 559.255L470.598 558.702" stroke="#3C3B3B" stroke-width="0.8"/>
<path d="M463.397 565.814L463.952 565.792L464.506 565.726L465.054 565.617L465.594 565.466L466.113 565.273L466.618 565.041L467.101 564.77L467.564 564.463L467.997 564.121L468.41 563.745" stroke="#3C3B3B" stroke-width="0.8"/>
<path d="M467.942 241.432L467.875 241.369" stroke="#3C3B3B"/>
<path d="M461.614 238.673L461.614 238.78" stroke="#3C3B3B"/>
<path d="M470.598 247.652L470.577 247.026L470.506 246.398L470.392 245.774L470.228 245.155L470.029 244.547L469.788 243.951L469.496 243.373L469.176 242.816L468.814 242.283L468.408 241.778L467.975 241.305L467.498 240.866L466.993 240.465L466.46 240.101L465.906 239.775L465.323 239.489L464.725 239.244L464.121 239.041L463.503 238.882L462.877 238.766L462.244 238.697L461.618 238.673" stroke="#3C3B3B"/>
<path d="M470.494 247.649L470.479 247.09L470.422 246.537L470.337 245.993L470.216 245.459L470.067 244.938L469.889 244.432L469.683 243.941L469.448 243.467L469.185 243.012L468.901 242.577L468.595 242.164L468.268 241.771L467.927 241.401" stroke="#3C3B3B"/>
<path d="M446.773 236.873L445.941 236.511L445.124 236.119" stroke="#3C3B3B"/>
<path d="M445.107 236.118L444.318 235.705L443.55 235.264L442.797 234.797L442.057 234.304L441.339 233.787L440.65 233.245L439.974 232.68L439.32 232.093L438.687 231.484" stroke="#3C3B3B"/>
<path d="M438.705 231.484L438.037 230.79L437.39 230.067L436.778 229.319L436.188 228.545L435.634 227.747L435.1 226.925L434.603 226.08L434.141 225.215L433.707 224.33L433.316 223.426" stroke="#3C3B3B"/>
<path d="M433.312 223.426L432.964 222.551L432.651 221.655L432.374 220.739L432.125 219.806L431.911 218.854L431.734 217.887L431.592 216.905L431.492 215.909L431.428 214.902L431.407 213.884" stroke="#3C3B3B"/>
<path d="M456.279 238.671L455.199 238.647L454.125 238.576L453.051 238.458L451.985 238.293L450.919 238.083L449.866 237.826L448.828 237.524L447.804 237.177L446.795 236.785L445.799 236.349L444.832 235.871L443.88 235.35L442.955 234.789L442.06 234.189L441.192 233.55L440.346 232.875L439.536 232.164L438.754 231.418L438.007 230.639L437.296 229.828L436.621 228.988L435.981 228.118L435.384 227.221L434.822 226.298L434.303 225.351L433.819 224.381L433.386 223.39L432.995 222.379L432.646 221.351L432.341 220.308L432.085 219.253L431.871 218.189L431.708 217.117L431.587 216.04L431.516 214.962L431.487 213.884" stroke="#3C3B3B"/>
<path d="M456.279 238.673L456.279 238.78" stroke="#3C3B3B"/>
<path d="M456.279 238.766L455.355 238.749L454.438 238.697L453.535 238.614L452.639 238.498L451.757 238.351L450.883 238.174L450.03 237.968L449.184 237.734L448.359 237.472L447.548 237.185L446.759 236.872" stroke="#3C3B3B"/>
<path d="M428.835 202.327L428.768 202.265" stroke="#3C3B3B"/>
<path d="M431.488 208.549L431.466 207.923L431.395 207.296L431.282 206.671L431.125 206.052L430.919 205.444L430.677 204.849L430.393 204.271L430.066 203.713L429.703 203.181L429.298 202.676L428.864 202.202L428.388 201.764L427.883 201.363L427.35 200.998L426.795 200.672L426.212 200.387L425.622 200.142L425.011 199.939L424.392 199.779L423.767 199.664L423.141 199.594L422.508 199.57" stroke="#3C3B3B"/>
<path d="M431.412 208.549L431.398 207.99L431.341 207.436L431.256 206.893L431.142 206.359L430.993 205.838L430.808 205.331L430.602 204.841L430.367 204.367L430.111 203.912L429.827 203.477L429.521 203.063L429.194 202.671L428.845 202.301" stroke="#3C3B3B"/>
<path d="M277.611 202.233L277.59 202.257L277.569 202.282" stroke="#3C3B3B"/>
<path d="M274.878 208.548L274.984 208.548" stroke="#3C3B3B"/>
<path d="M283.861 199.57L283.236 199.594L282.61 199.663L281.984 199.779L281.366 199.938L280.754 200.14L280.157 200.384L279.581 200.67L279.027 200.994L278.493 201.358L277.989 201.76L277.512 202.198L277.078 202.671L276.673 203.176L276.311 203.709L275.984 204.266L275.699 204.845L275.45 205.441L275.251 206.05L275.088 206.669L274.974 207.294L274.903 207.922L274.882 208.549" stroke="#3C3B3B"/>
<path d="M277.612 202.229L277.861 201.993L278.124 201.767L278.394 201.545L278.678 201.334L279.268 200.954L279.88 200.619L280.513 200.333L281.167 200.094L281.835 199.907L282.503 199.772L283.186 199.689L283.861 199.661" stroke="#3C3B3B"/>
<path d="M273.078 223.406L272.716 224.237L272.324 225.053" stroke="#3C3B3B"/>
<path d="M272.325 225.054L271.913 225.842L271.472 226.614L271.003 227.368L270.512 228.103L269.993 228.819L269.453 229.515L268.884 230.19L268.301 230.843L267.69 231.474" stroke="#3C3B3B"/>
<path d="M267.692 231.473L266.995 232.142L266.277 232.785L265.531 233.401L264.756 233.989L263.952 234.547L263.134 235.075L262.288 235.572L261.421 236.037L260.539 236.468L259.637 236.864" stroke="#3C3B3B"/>
<path d="M259.646 236.863L258.772 237.207L257.876 237.52L256.959 237.802L256.028 238.05L255.075 238.263L254.108 238.44L253.127 238.581L252.131 238.682L251.122 238.744L250.105 238.765" stroke="#3C3B3B"/>
<path d="M274.903 213.885L274.882 214.961L274.811 216.037L274.69 217.11L274.526 218.18L274.313 219.242L274.057 220.294L273.759 221.335L273.41 222.362L273.019 223.371L272.585 224.363L272.102 225.332L271.583 226.28L271.021 227.204L270.424 228.102L269.784 228.973L269.109 229.816L268.398 230.628L267.651 231.408L266.869 232.154L266.059 232.866L265.22 233.541L264.352 234.18L263.457 234.781L262.532 235.342L261.587 235.863L260.613 236.342L259.624 236.778L258.615 237.171L257.584 237.519L256.539 237.823L255.486 238.08L254.42 238.293L253.346 238.458L252.273 238.577L251.192 238.649L250.118 238.673" stroke="#3C3B3B"/>
<path d="M274.878 213.885L274.984 213.885" stroke="#3C3B3B"/>
<path d="M274.984 213.885L274.97 214.809L274.92 215.724L274.835 216.63L274.721 217.525L274.572 218.408L274.394 219.278L274.188 220.135L273.953 220.977L273.69 221.804L273.406 222.614L273.093 223.407" stroke="#3C3B3B"/>
<path d="M207.448 245.881L207.477 245.274L207.562 244.667L207.697 244.064L207.882 243.472L208.124 242.895L208.408 242.34L208.742 241.81L208.927 241.552L209.126 241.303L209.325 241.072L209.553 240.837" stroke="#3C3B3B"/>
<path d="M214.549 238.673L213.994 238.696L213.44 238.763L212.892 238.875L212.345 239.029L211.819 239.224L211.3 239.46L210.802 239.735L210.326 240.048L209.871 240.397L209.451 240.783L209.067 241.201L208.719 241.651L208.406 242.127L208.129 242.626L207.894 243.144L207.702 243.677L207.546 244.221L207.432 244.772L207.368 245.326L207.34 245.88" stroke="#3C3B3B"/>
<path d="M214.549 238.768L213.987 238.79L213.433 238.856L212.885 238.965L212.352 239.117L211.826 239.31L211.321 239.542L210.838 239.813L210.375 240.12L209.942 240.462L209.536 240.837" stroke="#3C3B3B"/>
<path d="M210.003 563.179L210.046 563.228" stroke="#3C3B3B" stroke-width="0.8"/>
<path d="M207.342 556.93L207.371 557.557L207.435 558.184L207.555 558.809L207.712 559.427L207.911 560.036L208.16 560.631L208.444 561.209L208.771 561.767L209.134 562.299L209.532 562.804L209.973 563.277L210.442 563.715L210.947 564.118L211.48 564.482L212.042 564.807L212.618 565.093L213.215 565.338L213.826 565.541L214.445 565.7L215.07 565.816L215.696 565.886L216.322 565.909" stroke="#3C3B3B" stroke-width="0.8"/>
<path d="M207.446 556.93L207.468 557.49L207.517 558.043L207.603 558.587L207.724 559.121L207.873 559.641L208.051 560.148L208.257 560.639L208.498 561.112L208.754 561.567L209.039 562.003L209.345 562.416L209.672 562.809L210.02 563.179" stroke="#3C3B3B" stroke-width="0.8"/>
<path d="M246.45 596.034L246.471 596.661L246.542 597.288L246.656 597.913L246.82 598.531L247.019 599.14L247.268 599.735L247.552 600.313L247.872 600.87L248.242 601.403L248.64 601.908L249.081 602.381L249.55 602.819L250.055 603.221L250.588 603.586L251.15 603.911L251.726 604.197L252.323 604.442L252.927 604.644L253.553 604.804L254.178 604.919L254.804 604.99L255.43 605.013" stroke="#3C3B3B"/>
<path d="M246.539 596.034L246.561 596.595L246.611 597.151L246.696 597.697L246.817 598.231L246.966 598.754L247.151 599.262L247.357 599.754L247.592 600.229L247.855 600.685L248.139 601.121L248.452 601.536L248.779 601.928L249.127 602.299" stroke="#3C3B3B"/>
<path d="M231.186 567.71L232.018 568.072L232.829 568.463" stroke="#3C3B3B" stroke-width="0.8"/>
<path d="M232.84 568.463L233.629 568.877L234.404 569.317L235.158 569.785L235.89 570.277L236.608 570.795L237.305 571.337L237.98 571.901L238.635 572.488L239.26 573.097" stroke="#3C3B3B" stroke-width="0.8"/>
<path d="M239.254 573.098L239.922 573.792L240.569 574.515L241.187 575.263L241.77 576.037L242.332 576.835L242.858 577.657L243.356 578.501L243.818 579.366L244.252 580.252L244.65 581.156" stroke="#3C3B3B" stroke-width="0.8"/>
<path d="M244.651 581.154L244.992 582.03L245.305 582.925L245.589 583.841L245.838 584.775L246.052 585.726L246.229 586.694L246.364 587.676L246.471 588.671L246.528 589.678L246.549 590.697" stroke="#3C3B3B" stroke-width="0.8"/>
<path d="M221.66 565.909L222.734 565.933L223.808 566.004L224.881 566.123L225.955 566.287L227.014 566.498L228.066 566.755L229.105 567.057L230.135 567.404L231.145 567.796L232.133 568.231L233.107 568.71L234.053 569.23L234.977 569.791L235.873 570.392L236.748 571.03L237.586 571.706L238.397 572.417L239.179 573.163L239.926 573.941L240.637 574.752L241.312 575.593L241.952 576.462L242.556 577.36L243.118 578.282L243.637 579.23L244.113 580.199L244.554 581.19L244.945 582.201L245.294 583.229L245.592 584.272L245.855 585.328L246.068 586.392L246.232 587.463L246.353 588.54L246.424 589.618L246.445 590.697" stroke="#3C3B3B" stroke-width="0.8"/>
<path d="M221.669 565.815L222.593 565.832L223.503 565.883L224.413 565.967L225.309 566.082L226.191 566.23L227.058 566.406L227.918 566.612L228.757 566.847L229.582 567.108L230.393 567.396L231.189 567.709" stroke="#3C3B3B" stroke-width="0.8"/>
<path d="M461.614 238.673L456.282 238.673" stroke="#3C3B3B"/>
<path d="M274.903 208.548L274.903 213.885" stroke="#3C3B3B"/>
<path d="M481.169 558.699L481.169 206.769" stroke="#3C3B3B" stroke-width="0.8"/>
<path d="M463.387 576.48L464.39 576.451L465.392 576.366L466.388 576.225L467.376 576.026L468.35 575.773L469.31 575.465L470.248 575.103L471.165 574.69L472.054 574.225L472.922 573.71L473.753 573.147L474.55 572.537L475.318 571.884L476.043 571.189L476.732 570.453L477.372 569.68L477.97 568.872L478.524 568.031L479.029 567.16L479.484 566.262L479.882 565.34L480.23 564.397L480.529 563.435L480.771 562.459L480.956 561.47L481.084 560.473L481.155 559.47L481.169 558.697" stroke="#3C3B3B" stroke-width="0.8"/>
<path d="M463.384 576.482L459.836 576.482" stroke="#3C3B3B" stroke-width="0.8"/>
<path d="M459.844 576.482L459.524 576.49L459.211 576.511L458.891 576.546L458.578 576.596L458.265 576.659L457.96 576.737L457.654 576.828L457.355 576.933L457.057 577.051L456.765 577.182L456.488 577.326L456.211 577.483L455.94 577.651L455.677 577.832L455.421 578.025L455.18 578.228L454.945 578.442L454.718 578.666L454.504 578.9L454.298 579.144L454.106 579.397L453.921 579.658L453.751 579.926L453.594 580.202L453.452 580.485L453.317 580.775L453.196 581.069L453.089 581.369L452.997 581.673L452.919 581.981L452.855 582.293L452.805 582.607L452.769 582.922L452.741 583.24L452.734 583.591" stroke="#3C3B3B" stroke-width="0.8"/>
<path d="M452.737 583.588L452.737 597.8" stroke="#3C3B3B" stroke-width="0.8"/>
<path d="M434.956 615.584L435.958 615.555L436.961 615.47L437.956 615.328L438.944 615.13L439.918 614.877L440.878 614.569L441.817 614.207L442.734 613.793L443.623 613.328L444.49 612.814L445.322 612.251L446.118 611.641L446.886 610.988L447.611 610.293L448.301 609.557L448.941 608.784L449.538 607.975L450.092 607.134L450.597 606.263L451.052 605.366L451.45 604.444L451.799 603.501L452.097 602.539L452.339 601.562L452.524 600.574L452.652 599.577L452.723 598.573L452.737 597.801" stroke="#3C3B3B"/>
<path d="M214.558 615.585L434.955 615.585" stroke="#3C3B3B"/>
<path d="M196.774 597.813L196.803 598.818L196.888 599.821L197.03 600.816L197.229 601.802L197.485 602.775L197.791 603.732L198.154 604.67L198.566 605.587L199.028 606.478L199.547 607.341L200.109 608.175L200.72 608.974L201.367 609.739L202.064 610.465L202.803 611.151L203.571 611.794L204.382 612.391L205.221 612.943L206.095 613.446L206.991 613.899L207.915 614.3L208.854 614.649L209.821 614.944L210.795 615.184L211.783 615.369L212.778 615.497L213.781 615.569L214.549 615.585" stroke="#3C3B3B"/>
<path d="M196.767 245.882L196.767 597.813" stroke="#3C3B3B" stroke-width="0.8"/>
<path d="M214.549 228.1L213.546 228.128L212.544 228.213L211.549 228.355L210.56 228.553L209.586 228.806L208.633 229.114L207.695 229.475L206.778 229.89L205.882 230.355L205.022 230.87L204.19 231.433L203.386 232.042L202.619 232.695L201.893 233.391L201.211 234.127L200.564 234.899L199.967 235.708L199.412 236.549L198.914 237.419L198.459 238.317L198.054 239.239L197.706 240.182L197.414 241.144L197.172 242.12L196.988 243.109L196.86 244.106L196.789 245.109L196.767 245.882" stroke="#3C3B3B"/>
<path d="M214.57 228.1L218.118 228.1" stroke="#3C3B3B"/>
<path d="M218.115 228.1L218.435 228.093L218.755 228.071L219.068 228.036L219.38 227.986L219.693 227.923L220.006 227.845L220.305 227.754L220.61 227.649L220.902 227.531L221.193 227.4L221.478 227.256L221.755 227.099L222.025 226.93L222.288 226.75L222.537 226.558L222.786 226.354L223.021 226.14L223.241 225.916L223.461 225.682L223.66 225.438L223.86 225.186L224.037 224.925L224.208 224.656L224.364 224.38L224.514 224.097L224.642 223.808L224.762 223.513L224.869 223.213L224.962 222.909L225.04 222.6L225.104 222.289L225.161 221.975L225.196 221.66L225.217 221.342L225.225 220.991" stroke="#3C3B3B"/>
<path d="M225.225 220.993L225.225 206.78" stroke="#3C3B3B"/>
<path d="M243.007 188.996L242.005 189.025L241.002 189.11L240.007 189.251L239.019 189.449L238.045 189.703L237.092 190.011L236.154 190.372L235.236 190.786L234.341 191.251L233.48 191.766L232.648 192.329L231.845 192.938L231.077 193.592L230.352 194.287L229.669 195.023L229.022 195.796L228.425 196.604L227.871 197.445L227.373 198.316L226.918 199.214L226.513 200.136L226.164 201.079L225.873 202.04L225.631 203.017L225.446 204.006L225.318 205.002L225.247 206.006L225.226 206.778" stroke="#3C3B3B"/>
<path d="M463.41 188.996L243.006 188.996" stroke="#3C3B3B"/>
<path d="M481.169 206.768L481.141 205.762L481.055 204.761L480.913 203.765L480.714 202.779L480.465 201.806L480.159 200.849L479.797 199.91L479.377 198.995L478.915 198.103L478.403 197.239L477.834 196.406L477.23 195.606L476.576 194.842L475.879 194.116L475.147 193.43L474.372 192.788L473.561 192.19L472.722 191.638L471.855 191.135L470.952 190.682L470.035 190.28L469.089 189.932L468.13 189.637L467.155 189.397L466.16 189.212L465.165 189.084L464.162 189.012L463.401 188.996" stroke="#3C3B3B"/>
<path d="M454.154 209.615C454.154 213.149 457.019 216.014 460.553 216.014C464.087 216.014 466.952 213.149 466.952 209.615C466.952 206.081 464.087 203.217 460.553 203.217C457.019 203.217 454.154 206.081 454.154 209.615Z" stroke="#3C3B3B"/>
<path d="M241.927 209.615C241.927 213.149 244.792 216.014 248.326 216.014C251.86 216.014 254.725 213.149 254.725 209.615C254.725 206.081 251.86 203.217 248.326 203.217C244.792 203.217 241.927 206.081 241.927 209.615Z" stroke="#3C3B3B"/>
<path d="M210.995 594.965C210.995 598.499 213.86 601.364 217.394 601.364C220.928 601.364 223.792 598.499 223.792 594.965C223.792 591.432 220.928 588.567 217.394 588.567C213.86 588.567 210.995 591.432 210.995 594.965Z" stroke="#3C3B3B"/>
<path d="M423.222 594.965C423.222 598.499 426.087 601.364 429.621 601.364C433.155 601.364 436.02 598.499 436.02 594.965C436.02 591.432 433.155 588.567 429.621 588.567C426.087 588.567 423.222 591.432 423.222 594.965Z" stroke="#3C3B3B"/>
<path d="M211.184 594.965C211.184 598.389 213.96 601.165 217.385 601.165C220.809 601.165 223.585 598.389 223.585 594.965C223.585 591.541 220.809 588.765 217.385 588.765C213.96 588.765 211.184 591.541 211.184 594.965Z" stroke="#3C3B3B"/>
<path d="M423.412 594.965C423.412 598.389 426.187 601.165 429.612 601.165C433.036 601.165 435.812 598.389 435.812 594.965C435.812 591.541 433.036 588.765 429.612 588.765C426.187 588.765 423.412 591.541 423.412 594.965Z" stroke="#3C3B3B"/>
<path d="M454.344 209.615C454.344 213.039 457.119 215.815 460.544 215.815C463.968 215.815 466.744 213.039 466.744 209.615C466.744 206.191 463.968 203.415 460.544 203.415C457.119 203.415 454.344 206.191 454.344 209.615Z" stroke="#3C3B3B"/>
<path d="M242.116 209.615C242.116 213.039 244.892 215.815 248.316 215.815C251.741 215.815 254.517 213.039 254.517 209.615C254.517 206.191 251.741 203.415 248.316 203.415C244.892 203.415 242.116 206.191 242.116 209.615Z" stroke="#3C3B3B"/>
<path d="M215.852 190.301L214.849 190.329L213.847 190.415L212.851 190.556L211.863 190.754L210.889 191.007L209.936 191.315L208.998 191.677L208.081 192.091L207.185 192.556L206.324 193.07L205.493 193.633L204.689 194.243L203.928 194.895L203.203 195.591L202.514 196.327L201.874 197.099L201.276 197.908L200.722 198.748L200.217 199.619L199.769 200.516L199.364 201.439L199.016 202.381L198.724 203.343L198.482 204.319L198.297 205.308L198.169 206.305L198.098 207.308L198.077 208.073" stroke="#3C3B3B"/>
<path d="M204.271 209.614C204.271 213.207 207.184 216.12 210.778 216.12C214.371 216.12 217.284 213.207 217.284 209.614C217.284 206.021 214.371 203.108 210.778 203.108C207.184 203.108 204.271 206.021 204.271 209.614Z" stroke="#3C3B3B"/>
<path d="M215.85 190.301L236.319 190.301" stroke="#3C3B3B"/>
<path d="M198.069 239.201L198.069 208.071" stroke="#3C3B3B"/>
<path d="M462.093 614.283L463.102 614.255L464.105 614.17L465.1 614.028L466.081 613.83L467.055 613.577L468.015 613.269L468.954 612.908L469.871 612.494L470.759 612.028L471.62 611.513L472.459 610.951L473.255 610.342L474.023 609.688L474.748 608.993L475.431 608.258L476.078 607.485L476.675 606.677L477.222 605.836L477.727 604.965L478.182 604.068L478.58 603.146L478.929 602.203L479.227 601.242L479.469 600.265L479.654 599.277L479.782 598.279L479.853 597.276L479.867 596.512" stroke="#3C3B3B"/>
<path d="M460.66 594.967C460.66 598.561 463.573 601.474 467.166 601.474C470.76 601.474 473.672 598.561 473.672 594.967C473.672 591.374 470.76 588.461 467.166 588.461C463.573 588.461 460.66 591.374 460.66 594.967Z" stroke="#3C3B3B"/>
<path d="M462.085 614.281L441.623 614.281" stroke="#3C3B3B"/>
<path d="M479.867 565.377L479.867 596.508" stroke="#3C3B3B" stroke-width="0.8"/>
<path d="M783.145 189.396C784.581 189.397 785.745 190.56 785.745 191.996V606.073C785.745 607.509 784.581 608.674 783.145 608.674H690.16V189.396H783.145Z" stroke="#3C3B3B" stroke-width="0.8"/>
<path d="M660.202 189.396C658.766 189.397 657.603 190.56 657.603 191.996V606.073C657.603 607.509 658.766 608.674 660.202 608.674H690.728V189.396H660.202Z" stroke="#3C3B3B" stroke-width="0.8"/>
</svg>
