<svg width="529" height="529" viewBox="0 0 529 529" fill="none" xmlns="http://www.w3.org/2000/svg">
<rect width="528.405" height="528.405" rx="51" fill="white"/>
<path d="M441.607 375.197C440.789 375.197 440.061 375.057 439.425 374.777C438.792 374.496 438.292 374.106 437.925 373.606C437.557 373.106 437.362 372.529 437.34 371.873H439.476C439.495 372.188 439.599 372.462 439.789 372.697C439.978 372.928 440.23 373.108 440.544 373.237C440.859 373.366 441.211 373.43 441.601 373.43C442.018 373.43 442.387 373.358 442.709 373.214C443.031 373.066 443.283 372.862 443.465 372.601C443.646 372.339 443.735 372.038 443.732 371.697C443.735 371.345 443.645 371.034 443.459 370.765C443.273 370.496 443.004 370.286 442.652 370.135C442.304 369.983 441.883 369.907 441.391 369.907H440.362V368.282H441.391C441.796 368.282 442.15 368.212 442.453 368.072C442.76 367.932 443.001 367.735 443.175 367.481C443.349 367.224 443.434 366.926 443.431 366.589C443.434 366.26 443.36 365.974 443.209 365.731C443.061 365.485 442.851 365.294 442.578 365.157C442.309 365.021 441.993 364.953 441.629 364.953C441.273 364.953 440.944 365.017 440.641 365.146C440.338 365.275 440.093 365.459 439.908 365.697C439.722 365.932 439.624 366.212 439.612 366.538H437.584C437.599 365.887 437.787 365.315 438.146 364.822C438.51 364.326 438.995 363.94 439.601 363.663C440.207 363.383 440.887 363.243 441.641 363.243C442.417 363.243 443.092 363.388 443.664 363.68C444.239 363.968 444.684 364.356 444.999 364.845C445.313 365.334 445.47 365.873 445.47 366.464C445.474 367.12 445.281 367.669 444.891 368.112C444.504 368.555 443.997 368.845 443.368 368.981V369.072C444.186 369.186 444.813 369.489 445.249 369.981C445.688 370.47 445.906 371.078 445.902 371.805C445.902 372.457 445.717 373.04 445.345 373.555C444.978 374.066 444.47 374.468 443.823 374.76C443.179 375.051 442.44 375.197 441.607 375.197ZM452.154 375.26C451.218 375.26 450.415 375.023 449.744 374.549C449.078 374.072 448.565 373.385 448.205 372.487C447.849 371.585 447.671 370.5 447.671 369.231C447.674 367.962 447.854 366.883 448.21 365.993C448.57 365.099 449.084 364.417 449.75 363.947C450.421 363.477 451.222 363.243 452.154 363.243C453.085 363.243 453.887 363.477 454.557 363.947C455.227 364.417 455.741 365.099 456.097 365.993C456.457 366.887 456.637 367.966 456.637 369.231C456.637 370.504 456.457 371.591 456.097 372.493C455.741 373.39 455.227 374.076 454.557 374.549C453.89 375.023 453.089 375.26 452.154 375.26ZM452.154 373.481C452.881 373.481 453.455 373.123 453.875 372.407C454.299 371.688 454.512 370.629 454.512 369.231C454.512 368.307 454.415 367.531 454.222 366.902C454.029 366.273 453.756 365.799 453.404 365.481C453.051 365.159 452.635 364.998 452.154 364.998C451.43 364.998 450.858 365.358 450.438 366.078C450.017 366.794 449.805 367.845 449.801 369.231C449.798 370.159 449.89 370.94 450.08 371.572C450.273 372.205 450.546 372.682 450.898 373.004C451.25 373.322 451.669 373.481 452.154 373.481ZM462.516 375.038V366.311H464.482V367.794H464.584C464.766 367.294 465.067 366.904 465.487 366.623C465.908 366.339 466.41 366.197 466.993 366.197C467.584 366.197 468.082 366.341 468.487 366.629C468.896 366.913 469.184 367.301 469.351 367.794H469.442C469.635 367.309 469.961 366.923 470.419 366.635C470.881 366.343 471.429 366.197 472.061 366.197C472.864 366.197 473.52 366.451 474.027 366.959C474.535 367.466 474.789 368.207 474.789 369.18V375.038H472.726V369.498C472.726 368.957 472.582 368.561 472.294 368.311C472.006 368.057 471.654 367.93 471.237 367.93C470.741 367.93 470.353 368.085 470.073 368.396C469.796 368.703 469.658 369.102 469.658 369.595V375.038H467.641V369.413C467.641 368.962 467.504 368.602 467.232 368.334C466.963 368.065 466.61 367.93 466.175 367.93C465.879 367.93 465.61 368.006 465.368 368.157C465.126 368.305 464.932 368.515 464.789 368.788C464.645 369.057 464.573 369.371 464.573 369.731V375.038H462.516ZM476.875 375.038V366.311H478.841V367.794H478.943C479.125 367.294 479.426 366.904 479.847 366.623C480.267 366.339 480.769 366.197 481.352 366.197C481.943 366.197 482.441 366.341 482.847 366.629C483.256 366.913 483.544 367.301 483.71 367.794H483.801C483.994 367.309 484.32 366.923 484.779 366.635C485.241 366.343 485.788 366.197 486.421 366.197C487.224 366.197 487.879 366.451 488.387 366.959C488.894 367.466 489.148 368.207 489.148 369.18V375.038H487.085V369.498C487.085 368.957 486.941 368.561 486.654 368.311C486.366 368.057 486.013 367.93 485.597 367.93C485.101 367.93 484.712 368.085 484.432 368.396C484.155 368.703 484.017 369.102 484.017 369.595V375.038H482V369.413C482 368.962 481.864 368.602 481.591 368.334C481.322 368.065 480.97 367.93 480.534 367.93C480.239 367.93 479.97 368.006 479.727 368.157C479.485 368.305 479.292 368.515 479.148 368.788C479.004 369.057 478.932 369.371 478.932 369.731V375.038H476.875Z" fill="#727272"/>
<line x1="0.25" y1="-0.25" x2="28.4322" y2="-0.25" transform="matrix(-4.37114e-08 -1 -1 4.37114e-08 72.8105 397.95)" stroke="#3C3B3B" stroke-width="0.5" stroke-linecap="round"/>
<line x1="0.25" y1="-0.25" x2="28.4322" y2="-0.25" transform="matrix(-4.37114e-08 -1 -1 4.37114e-08 276.16 397.95)" stroke="#3C3B3B" stroke-width="0.5" stroke-linecap="round"/>
<line x1="0.25" y1="-0.25" x2="28.4322" y2="-0.25" transform="matrix(-4.37114e-08 -1 -1 4.37114e-08 371.758 397.95)" stroke="#3C3B3B" stroke-width="0.5" stroke-linecap="round"/>
<line x1="0.25" y1="-0.25" x2="28.4322" y2="-0.25" transform="matrix(-4.37114e-08 -1 -1 4.37114e-08 422.145 397.95)" stroke="#3C3B3B" stroke-width="0.5" stroke-linecap="round"/>
<path d="M144.335 387.521V385.998L148.375 382.038C148.761 381.647 149.083 381.301 149.341 380.998C149.598 380.695 149.791 380.401 149.92 380.117C150.049 379.833 150.113 379.53 150.113 379.208C150.113 378.841 150.03 378.526 149.863 378.265C149.697 378 149.467 377.795 149.176 377.651C148.884 377.507 148.553 377.435 148.181 377.435C147.799 377.435 147.464 377.515 147.176 377.674C146.888 377.829 146.664 378.051 146.505 378.339C146.35 378.627 146.272 378.969 146.272 379.367H144.267C144.267 378.628 144.435 377.986 144.772 377.441C145.109 376.896 145.574 376.473 146.164 376.174C146.759 375.875 147.441 375.725 148.21 375.725C148.99 375.725 149.676 375.871 150.267 376.163C150.858 376.454 151.316 376.854 151.642 377.361C151.971 377.869 152.136 378.449 152.136 379.1C152.136 379.536 152.053 379.964 151.886 380.384C151.719 380.805 151.426 381.271 151.005 381.782C150.589 382.293 150.003 382.913 149.25 383.64L147.244 385.68V385.759H152.312V387.521H144.335ZM158.574 387.742C157.638 387.742 156.835 387.505 156.164 387.032C155.498 386.555 154.984 385.867 154.625 384.969C154.269 384.068 154.091 382.983 154.091 381.714C154.094 380.445 154.274 379.365 154.63 378.475C154.99 377.581 155.503 376.899 156.17 376.43C156.841 375.96 157.642 375.725 158.574 375.725C159.505 375.725 160.306 375.96 160.977 376.43C161.647 376.899 162.161 377.581 162.517 378.475C162.877 379.369 163.056 380.449 163.056 381.714C163.056 382.986 162.877 384.074 162.517 384.975C162.161 385.873 161.647 386.558 160.977 387.032C160.31 387.505 159.509 387.742 158.574 387.742ZM158.574 385.964C159.301 385.964 159.875 385.606 160.295 384.89C160.719 384.17 160.931 383.111 160.931 381.714C160.931 380.789 160.835 380.013 160.642 379.384C160.449 378.755 160.176 378.282 159.824 377.964C159.471 377.642 159.055 377.481 158.574 377.481C157.85 377.481 157.278 377.841 156.858 378.56C156.437 379.276 156.225 380.327 156.221 381.714C156.217 382.642 156.31 383.422 156.5 384.055C156.693 384.687 156.966 385.164 157.318 385.486C157.67 385.805 158.089 385.964 158.574 385.964ZM164.944 387.521V385.998L168.984 382.038C169.37 381.647 169.692 381.301 169.95 380.998C170.208 380.695 170.401 380.401 170.529 380.117C170.658 379.833 170.723 379.53 170.723 379.208C170.723 378.841 170.639 378.526 170.473 378.265C170.306 378 170.077 377.795 169.785 377.651C169.493 377.507 169.162 377.435 168.791 377.435C168.408 377.435 168.073 377.515 167.785 377.674C167.497 377.829 167.274 378.051 167.115 378.339C166.959 378.627 166.882 378.969 166.882 379.367H164.876C164.876 378.628 165.045 377.986 165.382 377.441C165.719 376.896 166.183 376.473 166.774 376.174C167.368 375.875 168.05 375.725 168.819 375.725C169.6 375.725 170.285 375.871 170.876 376.163C171.467 376.454 171.925 376.854 172.251 377.361C172.581 377.869 172.745 378.449 172.745 379.1C172.745 379.536 172.662 379.964 172.495 380.384C172.329 380.805 172.035 381.271 171.615 381.782C171.198 382.293 170.613 382.913 169.859 383.64L167.853 385.68V385.759H172.922V387.521H164.944ZM178.873 387.521V378.793H180.839V380.276H180.941C181.123 379.776 181.424 379.386 181.845 379.106C182.265 378.822 182.767 378.68 183.35 378.68C183.941 378.68 184.44 378.824 184.845 379.111C185.254 379.396 185.542 379.784 185.708 380.276H185.799C185.993 379.791 186.318 379.405 186.777 379.117C187.239 378.825 187.786 378.68 188.419 378.68C189.222 378.68 189.877 378.933 190.385 379.441C190.892 379.949 191.146 380.689 191.146 381.663V387.521H189.083V381.981C189.083 381.439 188.94 381.043 188.652 380.793C188.364 380.539 188.011 380.413 187.595 380.413C187.099 380.413 186.71 380.568 186.43 380.878C186.154 381.185 186.015 381.585 186.015 382.077V387.521H183.998V381.896C183.998 381.445 183.862 381.085 183.589 380.816C183.32 380.547 182.968 380.413 182.532 380.413C182.237 380.413 181.968 380.488 181.725 380.64C181.483 380.788 181.29 380.998 181.146 381.271C181.002 381.539 180.93 381.854 180.93 382.214V387.521H178.873ZM193.233 387.521V378.793H195.199V380.276H195.301C195.483 379.776 195.784 379.386 196.204 379.106C196.625 378.822 197.127 378.68 197.71 378.68C198.301 378.68 198.799 378.824 199.204 379.111C199.613 379.396 199.901 379.784 200.068 380.276H200.159C200.352 379.791 200.678 379.405 201.136 379.117C201.598 378.825 202.145 378.68 202.778 378.68C203.581 378.68 204.236 378.933 204.744 379.441C205.252 379.949 205.505 380.689 205.505 381.663V387.521H203.443V381.981C203.443 381.439 203.299 381.043 203.011 380.793C202.723 380.539 202.371 380.413 201.954 380.413C201.458 380.413 201.07 380.568 200.789 380.878C200.513 381.185 200.375 381.585 200.375 382.077V387.521H198.358V381.896C198.358 381.445 198.221 381.085 197.949 380.816C197.68 380.547 197.327 380.413 196.892 380.413C196.596 380.413 196.327 380.488 196.085 380.64C195.842 380.788 195.649 380.998 195.505 381.271C195.361 381.539 195.289 381.854 195.289 382.214V387.521H193.233Z" fill="#727272"/>
<line x1="73.0605" y1="383.056" x2="132.27" y2="383.056" stroke="#3C3B3B" stroke-width="0.5" stroke-linecap="round"/>
<line x1="221.982" y1="383.056" x2="276.25" y2="383.056" stroke="#3C3B3B" stroke-width="0.5" stroke-linecap="round"/>
<line x1="372.008" y1="383.056" x2="421.895" y2="383.056" stroke="#3C3B3B" stroke-width="0.5" stroke-linecap="round"/>
<line x1="422.395" y1="383.056" x2="491.852" y2="383.056" stroke="#3C3B3B" stroke-width="0.5" stroke-linecap="round"/>
<circle cx="174.485" cy="233.785" r="101.175" stroke="#1E1E1E"/>
<circle cx="96.5385" cy="233.785" r="7.88808" stroke="#1E1E1E"/>
<circle cx="254.48" cy="233.785" r="7.88808" stroke="#1E1E1E"/>
<path d="M155.351 298.335L151.753 305.133H148.84L152.589 298.333L155.351 298.335Z" fill="#3C3B3B"/>
<path d="M150.312 298.335L146.714 305.133H143.801L147.55 298.333L150.312 298.335Z" fill="#3C3B3B"/>
<path d="M145.273 298.335L141.674 305.133H138.762L142.511 298.333L145.273 298.335Z" fill="#3C3B3B"/>
<path d="M159.736 305.333V298.333H161.06L164.004 303.273H163.302L166.197 298.333H167.51L167.53 305.333H166.029L166.019 300.663H166.295L163.984 304.593H163.263L160.902 300.663H161.238V305.333H159.736ZM168.262 305.333L171.344 298.333H172.924L176.016 305.333H174.337L171.808 299.153H172.44L169.902 305.333H168.262ZM169.803 303.833L170.228 302.603H173.784L174.218 303.833H169.803ZM179.946 305.453C179.413 305.453 178.916 305.366 178.455 305.193C178 305.013 177.605 304.76 177.269 304.433C176.933 304.106 176.67 303.723 176.479 303.283C176.295 302.843 176.202 302.36 176.202 301.833C176.202 301.306 176.295 300.823 176.479 300.383C176.67 299.943 176.933 299.56 177.269 299.233C177.612 298.906 178.01 298.656 178.465 298.483C178.919 298.303 179.416 298.213 179.956 298.213C180.555 298.213 181.095 298.32 181.576 298.533C182.063 298.74 182.472 299.046 182.801 299.453L181.774 300.413C181.537 300.14 181.273 299.936 180.983 299.803C180.694 299.663 180.377 299.593 180.035 299.593C179.712 299.593 179.416 299.646 179.146 299.753C178.876 299.86 178.642 300.013 178.445 300.213C178.247 300.413 178.092 300.65 177.98 300.923C177.875 301.196 177.822 301.5 177.822 301.833C177.822 302.166 177.875 302.47 177.98 302.743C178.092 303.016 178.247 303.253 178.445 303.453C178.642 303.653 178.876 303.806 179.146 303.913C179.416 304.02 179.712 304.073 180.035 304.073C180.377 304.073 180.694 304.006 180.983 303.873C181.273 303.733 181.537 303.523 181.774 303.243L182.801 304.203C182.472 304.61 182.063 304.92 181.576 305.133C181.095 305.346 180.552 305.453 179.946 305.453ZM183.881 305.333V298.333H185.205L189.285 303.373H188.643V298.333H190.223V305.333H188.909L184.82 300.293H185.462V305.333H183.881ZM190.95 305.333L194.032 298.333H195.613L198.705 305.333H197.025L194.497 299.153H195.129L192.59 305.333H190.95ZM192.491 303.833L192.916 302.603H196.472L196.907 303.833H192.491ZM199.422 305.333V298.333H200.746L203.69 303.273H202.988L205.882 298.333H207.196L207.216 305.333H205.714L205.705 300.663H205.981L203.67 304.593H202.949L200.588 300.663H200.924V305.333H199.422ZM208.856 305.333V298.333H210.18L214.26 303.373H213.618V298.333H215.198V305.333H213.884L209.795 300.293H210.437V305.333H208.856Z" fill="#3C3B3B"/>
<path d="M375.758 132.61H398.195C401.233 132.61 403.695 135.073 403.695 138.11V330.46C403.695 332.945 401.681 334.96 399.195 334.96H372.258V136.11C372.258 134.177 373.825 132.61 375.758 132.61Z" stroke="#1E1E1E"/>
<path d="M403.727 329.014L424.092 317.05V152.379C424.092 151.202 423.5 150.105 422.518 149.457L403.727 137.075V329.014Z" stroke="#1E1E1E"/>
</svg>
