<svg width="498" height="511" viewBox="0 0 498 511" fill="none" xmlns="http://www.w3.org/2000/svg">
<rect x="0.45" y="0.45" width="496.125" height="479.273" rx="10.55" stroke="#989898" stroke-width="0.9" stroke-dasharray="2.2 2.2"/>
<path d="M218.637 505.799C218.637 505.623 218.609 505.467 218.555 505.33C218.504 505.193 218.412 505.068 218.279 504.955C218.146 504.842 217.959 504.732 217.717 504.627C217.479 504.518 217.174 504.406 216.803 504.293C216.396 504.168 216.021 504.029 215.678 503.877C215.338 503.721 215.041 503.541 214.787 503.338C214.533 503.131 214.336 502.895 214.195 502.629C214.055 502.359 213.984 502.049 213.984 501.697C213.984 501.35 214.057 501.033 214.201 500.748C214.35 500.463 214.559 500.217 214.828 500.01C215.102 499.799 215.424 499.637 215.795 499.523C216.166 499.406 216.576 499.348 217.025 499.348C217.658 499.348 218.203 499.465 218.66 499.699C219.121 499.934 219.475 500.248 219.721 500.643C219.971 501.037 220.096 501.473 220.096 501.949H218.637C218.637 501.668 218.576 501.42 218.455 501.205C218.338 500.986 218.158 500.814 217.916 500.689C217.678 500.564 217.375 500.502 217.008 500.502C216.66 500.502 216.371 500.555 216.141 500.66C215.91 500.766 215.738 500.908 215.625 501.088C215.512 501.268 215.455 501.471 215.455 501.697C215.455 501.857 215.492 502.004 215.566 502.137C215.641 502.266 215.754 502.387 215.906 502.5C216.059 502.609 216.25 502.713 216.48 502.811C216.711 502.908 216.982 503.002 217.295 503.092C217.768 503.232 218.18 503.389 218.531 503.561C218.883 503.729 219.176 503.92 219.41 504.135C219.645 504.35 219.82 504.594 219.938 504.867C220.055 505.137 220.113 505.443 220.113 505.787C220.113 506.146 220.041 506.471 219.896 506.76C219.752 507.045 219.545 507.289 219.275 507.492C219.01 507.691 218.689 507.846 218.314 507.955C217.943 508.061 217.529 508.113 217.072 508.113C216.662 508.113 216.258 508.059 215.859 507.949C215.465 507.84 215.105 507.674 214.781 507.451C214.457 507.225 214.199 506.943 214.008 506.607C213.816 506.268 213.721 505.871 213.721 505.418H215.191C215.191 505.695 215.238 505.932 215.332 506.127C215.43 506.322 215.564 506.482 215.736 506.607C215.908 506.729 216.107 506.818 216.334 506.877C216.564 506.936 216.811 506.965 217.072 506.965C217.416 506.965 217.703 506.916 217.934 506.818C218.168 506.721 218.344 506.584 218.461 506.408C218.578 506.232 218.637 506.029 218.637 505.799ZM224.068 508.113C223.6 508.113 223.176 508.037 222.797 507.885C222.422 507.729 222.102 507.512 221.836 507.234C221.574 506.957 221.373 506.631 221.232 506.256C221.092 505.881 221.021 505.477 221.021 505.043V504.809C221.021 504.312 221.094 503.863 221.238 503.461C221.383 503.059 221.584 502.715 221.842 502.43C222.1 502.141 222.404 501.92 222.756 501.768C223.107 501.615 223.488 501.539 223.898 501.539C224.352 501.539 224.748 501.615 225.088 501.768C225.428 501.92 225.709 502.135 225.932 502.412C226.158 502.686 226.326 503.012 226.436 503.391C226.549 503.77 226.605 504.188 226.605 504.645V505.248H221.707V504.234H225.211V504.123C225.203 503.869 225.152 503.631 225.059 503.408C224.969 503.186 224.83 503.006 224.643 502.869C224.455 502.732 224.205 502.664 223.893 502.664C223.658 502.664 223.449 502.715 223.266 502.816C223.086 502.914 222.936 503.057 222.814 503.244C222.693 503.432 222.6 503.658 222.533 503.924C222.471 504.186 222.439 504.48 222.439 504.809V505.043C222.439 505.32 222.477 505.578 222.551 505.816C222.629 506.051 222.742 506.256 222.891 506.432C223.039 506.607 223.219 506.746 223.43 506.848C223.641 506.945 223.881 506.994 224.15 506.994C224.49 506.994 224.793 506.926 225.059 506.789C225.324 506.652 225.555 506.459 225.75 506.209L226.494 506.93C226.357 507.129 226.18 507.32 225.961 507.504C225.742 507.684 225.475 507.83 225.158 507.943C224.846 508.057 224.482 508.113 224.068 508.113ZM229.107 503.01V507.996H227.695V501.656H229.025L229.107 503.01ZM228.855 504.592L228.398 504.586C228.402 504.137 228.465 503.725 228.586 503.35C228.711 502.975 228.883 502.652 229.102 502.383C229.324 502.113 229.59 501.906 229.898 501.762C230.207 501.613 230.551 501.539 230.93 501.539C231.234 501.539 231.51 501.582 231.756 501.668C232.006 501.75 232.219 501.885 232.395 502.072C232.574 502.26 232.711 502.504 232.805 502.805C232.898 503.102 232.945 503.467 232.945 503.9V507.996H231.527V503.895C231.527 503.59 231.482 503.35 231.393 503.174C231.307 502.994 231.18 502.867 231.012 502.793C230.848 502.715 230.643 502.676 230.396 502.676C230.154 502.676 229.938 502.727 229.746 502.828C229.555 502.93 229.393 503.068 229.26 503.244C229.131 503.42 229.031 503.623 228.961 503.854C228.891 504.084 228.855 504.33 228.855 504.592ZM237.943 506.279C237.943 506.139 237.908 506.012 237.838 505.898C237.768 505.781 237.633 505.676 237.434 505.582C237.238 505.488 236.949 505.402 236.566 505.324C236.23 505.25 235.922 505.162 235.641 505.061C235.363 504.955 235.125 504.828 234.926 504.68C234.727 504.531 234.572 504.355 234.463 504.152C234.354 503.949 234.299 503.715 234.299 503.449C234.299 503.191 234.355 502.947 234.469 502.717C234.582 502.486 234.744 502.283 234.955 502.107C235.166 501.932 235.422 501.793 235.723 501.691C236.027 501.59 236.367 501.539 236.742 501.539C237.273 501.539 237.729 501.629 238.107 501.809C238.49 501.984 238.783 502.225 238.986 502.529C239.189 502.83 239.291 503.17 239.291 503.549H237.879C237.879 503.381 237.836 503.225 237.75 503.08C237.668 502.932 237.543 502.812 237.375 502.723C237.207 502.629 236.996 502.582 236.742 502.582C236.5 502.582 236.299 502.621 236.139 502.699C235.982 502.773 235.865 502.871 235.787 502.992C235.713 503.113 235.676 503.246 235.676 503.391C235.676 503.496 235.695 503.592 235.734 503.678C235.777 503.76 235.848 503.836 235.945 503.906C236.043 503.973 236.176 504.035 236.344 504.094C236.516 504.152 236.73 504.209 236.988 504.264C237.473 504.365 237.889 504.496 238.236 504.656C238.588 504.812 238.857 505.016 239.045 505.266C239.232 505.512 239.326 505.824 239.326 506.203C239.326 506.484 239.266 506.742 239.145 506.977C239.027 507.207 238.855 507.408 238.629 507.58C238.402 507.748 238.131 507.879 237.814 507.973C237.502 508.066 237.15 508.113 236.76 508.113C236.186 508.113 235.699 508.012 235.301 507.809C234.902 507.602 234.6 507.338 234.393 507.018C234.189 506.693 234.088 506.357 234.088 506.01H235.453C235.469 506.271 235.541 506.48 235.67 506.637C235.803 506.789 235.967 506.9 236.162 506.971C236.361 507.037 236.566 507.07 236.777 507.07C237.031 507.07 237.244 507.037 237.416 506.971C237.588 506.9 237.719 506.807 237.809 506.689C237.898 506.568 237.943 506.432 237.943 506.279ZM240.293 504.896V504.762C240.293 504.305 240.359 503.881 240.492 503.49C240.625 503.096 240.816 502.754 241.066 502.465C241.32 502.172 241.629 501.945 241.992 501.785C242.359 501.621 242.773 501.539 243.234 501.539C243.699 501.539 244.113 501.621 244.477 501.785C244.844 501.945 245.154 502.172 245.408 502.465C245.662 502.754 245.855 503.096 245.988 503.49C246.121 503.881 246.188 504.305 246.188 504.762V504.896C246.188 505.354 246.121 505.777 245.988 506.168C245.855 506.559 245.662 506.9 245.408 507.193C245.154 507.482 244.846 507.709 244.482 507.873C244.119 508.033 243.707 508.113 243.246 508.113C242.781 508.113 242.365 508.033 241.998 507.873C241.635 507.709 241.326 507.482 241.072 507.193C240.818 506.9 240.625 506.559 240.492 506.168C240.359 505.777 240.293 505.354 240.293 504.896ZM241.705 504.762V504.896C241.705 505.182 241.734 505.451 241.793 505.705C241.852 505.959 241.943 506.182 242.068 506.373C242.193 506.564 242.354 506.715 242.549 506.824C242.744 506.934 242.977 506.988 243.246 506.988C243.508 506.988 243.734 506.934 243.926 506.824C244.121 506.715 244.281 506.564 244.406 506.373C244.531 506.182 244.623 505.959 244.682 505.705C244.744 505.451 244.775 505.182 244.775 504.896V504.762C244.775 504.48 244.744 504.215 244.682 503.965C244.623 503.711 244.529 503.486 244.4 503.291C244.275 503.096 244.115 502.943 243.92 502.834C243.729 502.721 243.5 502.664 243.234 502.664C242.969 502.664 242.738 502.721 242.543 502.834C242.352 502.943 242.193 503.096 242.068 503.291C241.943 503.486 241.852 503.711 241.793 503.965C241.734 504.215 241.705 504.48 241.705 504.762ZM248.789 502.863V507.996H247.377V501.656H248.725L248.789 502.863ZM250.729 501.615L250.717 502.928C250.631 502.912 250.537 502.9 250.436 502.893C250.338 502.885 250.24 502.881 250.143 502.881C249.9 502.881 249.688 502.916 249.504 502.986C249.32 503.053 249.166 503.15 249.041 503.279C248.92 503.404 248.826 503.557 248.76 503.736C248.693 503.916 248.654 504.117 248.643 504.34L248.32 504.363C248.32 503.965 248.359 503.596 248.438 503.256C248.516 502.916 248.633 502.617 248.789 502.359C248.949 502.102 249.148 501.9 249.387 501.756C249.629 501.611 249.908 501.539 250.225 501.539C250.311 501.539 250.402 501.547 250.5 501.562C250.602 501.578 250.678 501.596 250.729 501.615ZM257.982 504.814H255.762V503.648H257.982C258.369 503.648 258.682 503.586 258.92 503.461C259.158 503.336 259.332 503.164 259.441 502.945C259.555 502.723 259.611 502.469 259.611 502.184C259.611 501.914 259.555 501.662 259.441 501.428C259.332 501.189 259.158 500.998 258.92 500.854C258.682 500.709 258.369 500.637 257.982 500.637H256.213V507.996H254.742V499.465H257.982C258.643 499.465 259.203 499.582 259.664 499.816C260.129 500.047 260.482 500.367 260.725 500.777C260.967 501.184 261.088 501.648 261.088 502.172C261.088 502.723 260.967 503.195 260.725 503.59C260.482 503.984 260.129 504.287 259.664 504.498C259.203 504.709 258.643 504.814 257.982 504.814ZM263.684 502.863V507.996H262.271V501.656H263.619L263.684 502.863ZM265.623 501.615L265.611 502.928C265.525 502.912 265.432 502.9 265.33 502.893C265.232 502.885 265.135 502.881 265.037 502.881C264.795 502.881 264.582 502.916 264.398 502.986C264.215 503.053 264.061 503.15 263.936 503.279C263.814 503.404 263.721 503.557 263.654 503.736C263.588 503.916 263.549 504.117 263.537 504.34L263.215 504.363C263.215 503.965 263.254 503.596 263.332 503.256C263.41 502.916 263.527 502.617 263.684 502.359C263.844 502.102 264.043 501.9 264.281 501.756C264.523 501.611 264.803 501.539 265.119 501.539C265.205 501.539 265.297 501.547 265.395 501.562C265.496 501.578 265.572 501.596 265.623 501.615ZM266.086 504.896V504.762C266.086 504.305 266.152 503.881 266.285 503.49C266.418 503.096 266.609 502.754 266.859 502.465C267.113 502.172 267.422 501.945 267.785 501.785C268.152 501.621 268.566 501.539 269.027 501.539C269.492 501.539 269.906 501.621 270.27 501.785C270.637 501.945 270.947 502.172 271.201 502.465C271.455 502.754 271.648 503.096 271.781 503.49C271.914 503.881 271.98 504.305 271.98 504.762V504.896C271.98 505.354 271.914 505.777 271.781 506.168C271.648 506.559 271.455 506.9 271.201 507.193C270.947 507.482 270.639 507.709 270.275 507.873C269.912 508.033 269.5 508.113 269.039 508.113C268.574 508.113 268.158 508.033 267.791 507.873C267.428 507.709 267.119 507.482 266.865 507.193C266.611 506.9 266.418 506.559 266.285 506.168C266.152 505.777 266.086 505.354 266.086 504.896ZM267.498 504.762V504.896C267.498 505.182 267.527 505.451 267.586 505.705C267.645 505.959 267.736 506.182 267.861 506.373C267.986 506.564 268.146 506.715 268.342 506.824C268.537 506.934 268.77 506.988 269.039 506.988C269.301 506.988 269.527 506.934 269.719 506.824C269.914 506.715 270.074 506.564 270.199 506.373C270.324 506.182 270.416 505.959 270.475 505.705C270.537 505.451 270.568 505.182 270.568 504.896V504.762C270.568 504.48 270.537 504.215 270.475 503.965C270.416 503.711 270.322 503.486 270.193 503.291C270.068 503.096 269.908 502.943 269.713 502.834C269.521 502.721 269.293 502.664 269.027 502.664C268.762 502.664 268.531 502.721 268.336 502.834C268.145 502.943 267.986 503.096 267.861 503.291C267.736 503.486 267.645 503.711 267.586 503.965C267.527 504.215 267.498 504.48 267.498 504.762ZM273.17 498.996H274.582V506.643L274.447 507.996H273.17V498.996ZM278.719 504.768V504.891C278.719 505.359 278.666 505.791 278.561 506.186C278.459 506.576 278.303 506.916 278.092 507.205C277.885 507.494 277.627 507.719 277.318 507.879C277.014 508.035 276.66 508.113 276.258 508.113C275.863 508.113 275.52 508.039 275.227 507.891C274.934 507.742 274.688 507.531 274.488 507.258C274.293 506.984 274.135 506.658 274.014 506.279C273.893 505.9 273.807 505.482 273.756 505.025V504.633C273.807 504.172 273.893 503.754 274.014 503.379C274.135 503 274.293 502.674 274.488 502.4C274.688 502.123 274.932 501.91 275.221 501.762C275.514 501.613 275.855 501.539 276.246 501.539C276.652 501.539 277.01 501.617 277.318 501.773C277.631 501.93 277.891 502.152 278.098 502.441C278.305 502.727 278.459 503.066 278.561 503.461C278.666 503.855 278.719 504.291 278.719 504.768ZM277.307 504.891V504.768C277.307 504.482 277.283 504.215 277.236 503.965C277.189 503.711 277.111 503.488 277.002 503.297C276.896 503.105 276.752 502.955 276.568 502.846C276.389 502.732 276.164 502.676 275.895 502.676C275.645 502.676 275.43 502.719 275.25 502.805C275.07 502.891 274.92 503.008 274.799 503.156C274.678 503.305 274.582 503.477 274.512 503.672C274.445 503.867 274.4 504.078 274.377 504.305V505.365C274.412 505.658 274.486 505.928 274.6 506.174C274.717 506.416 274.881 506.611 275.092 506.76C275.303 506.904 275.574 506.977 275.906 506.977C276.168 506.977 276.389 506.924 276.568 506.818C276.748 506.713 276.891 506.566 276.996 506.379C277.105 506.188 277.184 505.965 277.23 505.711C277.281 505.457 277.307 505.184 277.307 504.891ZM282.709 508.113C282.24 508.113 281.816 508.037 281.438 507.885C281.062 507.729 280.742 507.512 280.477 507.234C280.215 506.957 280.014 506.631 279.873 506.256C279.732 505.881 279.662 505.477 279.662 505.043V504.809C279.662 504.312 279.734 503.863 279.879 503.461C280.023 503.059 280.225 502.715 280.482 502.43C280.74 502.141 281.045 501.92 281.396 501.768C281.748 501.615 282.129 501.539 282.539 501.539C282.992 501.539 283.389 501.615 283.729 501.768C284.068 501.92 284.35 502.135 284.572 502.412C284.799 502.686 284.967 503.012 285.076 503.391C285.189 503.77 285.246 504.188 285.246 504.645V505.248H280.348V504.234H283.852V504.123C283.844 503.869 283.793 503.631 283.699 503.408C283.609 503.186 283.471 503.006 283.283 502.869C283.096 502.732 282.846 502.664 282.533 502.664C282.299 502.664 282.09 502.715 281.906 502.816C281.727 502.914 281.576 503.057 281.455 503.244C281.334 503.432 281.24 503.658 281.174 503.924C281.111 504.186 281.08 504.48 281.08 504.809V505.043C281.08 505.32 281.117 505.578 281.191 505.816C281.27 506.051 281.383 506.256 281.531 506.432C281.68 506.607 281.859 506.746 282.07 506.848C282.281 506.945 282.521 506.994 282.791 506.994C283.131 506.994 283.434 506.926 283.699 506.789C283.965 506.652 284.195 506.459 284.391 506.209L285.135 506.93C284.998 507.129 284.82 507.32 284.602 507.504C284.383 507.684 284.115 507.83 283.799 507.943C283.486 508.057 283.123 508.113 282.709 508.113Z" fill="#303031"/>
<path d="M217.458 204.099V345.524C217.458 353.56 210.944 360.075 202.908 360.075H122.836C114.8 360.075 108.286 353.56 108.286 345.524V204.099H217.458Z" stroke="black" stroke-width="0.9"/>
<path d="M373.776 204.099V352.525C373.776 356.695 370.396 360.075 366.227 360.075H360.152C355.983 360.075 352.603 356.694 352.603 352.524V204.099H373.776Z" stroke="black" stroke-width="0.9"/>
<path d="M175.092 360.071V371.995C175.092 374.508 173.055 376.546 170.542 376.546H156.203C153.138 376.546 150.653 374.06 150.653 370.995V360.071H175.092Z" stroke="black" stroke-width="0.9"/>
<path d="M367.875 360.128V371.48C367.875 373.81 365.986 375.698 363.657 375.698C360.813 375.698 358.507 373.392 358.507 370.547V360.128H367.875Z" stroke="black" stroke-width="0.9"/>
<path d="M359.641 204.063L359.641 73.5098L367.757 73.5098L367.757 204.063L359.641 204.063Z" stroke="black" stroke-width="0.9"/>
<path d="M125.367 204.063L125.367 73.5098L133.483 73.5098L133.483 204.063L125.367 204.063Z" stroke="black" stroke-width="0.9"/>
<path d="M189.947 204.063L189.947 73.5098L198.063 73.5098L198.063 204.063L189.947 204.063Z" stroke="black" stroke-width="0.9"/>
<path d="M367.53 72.5498H359.866L363.698 61.2266L367.53 72.5498Z" stroke="black"/>
<path d="M133.259 72.5498H125.595L129.427 61.2266L133.259 72.5498Z" stroke="black"/>
<path d="M197.837 72.5498H190.173L194.005 61.2266L197.837 72.5498Z" stroke="black"/>
<path d="M367.53 72.5498H359.866L363.698 61.2266L367.53 72.5498Z" stroke="black"/>
<path d="M133.259 72.5498H125.595L129.427 61.2266L133.259 72.5498Z" stroke="black"/>
<path d="M197.837 72.5498H190.173L194.005 61.2266L197.837 72.5498Z" stroke="black"/>
<line x1="124.191" y1="14.6328" x2="124.191" y2="56.2075" stroke="#D1D1D1" stroke-width="0.6"/>
<line x1="114.452" y1="14.6328" x2="114.452" y2="56.4394" stroke="#D1D1D1" stroke-width="0.6"/>
<path d="M137.97 446.501V444.825L142.908 437.024H144.306V439.41H143.453L140.129 444.677V444.768H147.021V446.501H137.97ZM143.521 448.66V445.99L143.544 445.24V437.024H145.533V448.66H143.521ZM152.882 448.819C152.125 448.819 151.447 448.677 150.848 448.393C150.25 448.105 149.774 447.711 149.422 447.211C149.074 446.711 148.888 446.139 148.865 445.495H150.911C150.949 445.973 151.155 446.363 151.53 446.666C151.905 446.965 152.356 447.115 152.882 447.115C153.295 447.115 153.663 447.02 153.985 446.831C154.307 446.641 154.56 446.378 154.746 446.041C154.932 445.704 155.022 445.319 155.019 444.887C155.022 444.448 154.93 444.058 154.74 443.717C154.551 443.376 154.291 443.109 153.962 442.916C153.632 442.719 153.253 442.62 152.825 442.62C152.477 442.617 152.134 442.681 151.797 442.814C151.46 442.946 151.193 443.12 150.996 443.336L149.093 443.024L149.7 437.024H156.45V438.785H151.445L151.11 441.87H151.178C151.394 441.617 151.699 441.406 152.093 441.24C152.486 441.069 152.918 440.984 153.388 440.984C154.093 440.984 154.721 441.151 155.274 441.484C155.827 441.814 156.263 442.268 156.581 442.848C156.899 443.427 157.058 444.09 157.058 444.836C157.058 445.605 156.88 446.291 156.524 446.893C156.172 447.492 155.682 447.963 155.053 448.308C154.428 448.649 153.704 448.819 152.882 448.819ZM162.953 448.66V439.933H164.919V441.416H165.021C165.203 440.916 165.504 440.526 165.925 440.245C166.345 439.961 166.847 439.819 167.431 439.819C168.021 439.819 168.52 439.963 168.925 440.251C169.334 440.535 169.622 440.923 169.789 441.416H169.879C170.073 440.931 170.398 440.545 170.857 440.257C171.319 439.965 171.866 439.819 172.499 439.819C173.302 439.819 173.957 440.073 174.465 440.581C174.972 441.088 175.226 441.829 175.226 442.802V448.66H173.164V443.12C173.164 442.579 173.02 442.183 172.732 441.933C172.444 441.679 172.092 441.552 171.675 441.552C171.179 441.552 170.79 441.708 170.51 442.018C170.234 442.325 170.095 442.725 170.095 443.217V448.66H168.078V443.035C168.078 442.584 167.942 442.225 167.669 441.956C167.4 441.687 167.048 441.552 166.612 441.552C166.317 441.552 166.048 441.628 165.806 441.779C165.563 441.927 165.37 442.137 165.226 442.41C165.082 442.679 165.01 442.993 165.01 443.353V448.66H162.953ZM177.313 448.66V439.933H179.279V441.416H179.381C179.563 440.916 179.864 440.526 180.284 440.245C180.705 439.961 181.207 439.819 181.79 439.819C182.381 439.819 182.879 439.963 183.284 440.251C183.693 440.535 183.981 440.923 184.148 441.416H184.239C184.432 440.931 184.758 440.545 185.216 440.257C185.678 439.965 186.226 439.819 186.858 439.819C187.661 439.819 188.316 440.073 188.824 440.581C189.332 441.088 189.585 441.829 189.585 442.802V448.66H187.523V443.12C187.523 442.579 187.379 442.183 187.091 441.933C186.803 441.679 186.451 441.552 186.034 441.552C185.538 441.552 185.15 441.708 184.869 442.018C184.593 442.325 184.455 442.725 184.455 443.217V448.66H182.438V443.035C182.438 442.584 182.301 442.225 182.029 441.956C181.76 441.687 181.407 441.552 180.972 441.552C180.676 441.552 180.407 441.628 180.165 441.779C179.923 441.927 179.729 442.137 179.585 442.41C179.441 442.679 179.369 442.993 179.369 443.353V448.66H177.313Z" fill="#3C3B3B"/>
<path d="M36.6751 37.1161C35.7395 37.1161 34.9364 36.8794 34.266 36.4059C33.5993 35.9286 33.0861 35.2411 32.7262 34.3434C32.3701 33.4419 32.1921 32.3567 32.1921 31.0877C32.1959 29.8188 32.3758 28.7392 32.7319 27.8491C33.0917 26.9551 33.605 26.2733 34.2717 25.8036C34.9421 25.3339 35.7433 25.0991 36.6751 25.0991C37.6069 25.0991 38.408 25.3339 39.0785 25.8036C39.7489 26.2733 40.2622 26.9551 40.6183 27.8491C40.9781 28.743 41.158 29.8226 41.158 31.0877C41.158 32.3604 40.9781 33.4476 40.6183 34.3491C40.2622 35.2468 39.7489 35.9324 39.0785 36.4059C38.4118 36.8794 37.6107 37.1161 36.6751 37.1161ZM36.6751 35.3377C37.4023 35.3377 37.9762 34.9798 38.3967 34.2638C38.8209 33.5442 39.033 32.4854 39.033 31.0877C39.033 30.1635 38.9364 29.387 38.7433 28.7582C38.5501 28.1294 38.2773 27.6559 37.9251 27.3377C37.5728 27.0157 37.1561 26.8548 36.6751 26.8548C35.9516 26.8548 35.3796 27.2146 34.9592 27.9343C34.5387 28.6502 34.3266 29.7013 34.3228 31.0877C34.319 32.0157 34.4118 32.796 34.6012 33.4286C34.7944 34.0612 35.0671 34.5385 35.4194 34.8604C35.7717 35.1786 36.1902 35.3377 36.6751 35.3377ZM47.2219 37.0536C46.4038 37.0536 45.6765 36.9135 45.0401 36.6332C44.4076 36.3529 43.9076 35.9627 43.5401 35.4627C43.1727 34.9627 42.9776 34.3851 42.9549 33.7298H45.0913C45.1102 34.0442 45.2144 34.3188 45.4038 34.5536C45.5932 34.7847 45.8451 34.9646 46.1594 35.0934C46.4738 35.2222 46.8261 35.2866 47.2163 35.2866C47.6329 35.2866 48.0022 35.2146 48.3242 35.0707C48.6462 34.9229 48.8981 34.7184 49.0799 34.457C49.2617 34.1957 49.3507 33.8945 49.3469 33.5536C49.3507 33.2013 49.2598 32.8907 49.0742 32.6218C48.8886 32.3529 48.6197 32.1426 48.2674 31.9911C47.9189 31.8396 47.4985 31.7638 47.006 31.7638H45.9776V30.1388H47.006C47.4113 30.1388 47.7655 30.0688 48.0685 29.9286C48.3754 29.7885 48.6159 29.5915 48.7901 29.3377C48.9644 29.0801 49.0496 28.7828 49.0458 28.4457C49.0496 28.1161 48.9757 27.8301 48.8242 27.5877C48.6765 27.3415 48.4663 27.1502 48.1935 27.0138C47.9246 26.8775 47.6083 26.8093 47.2447 26.8093C46.8886 26.8093 46.5591 26.8737 46.256 27.0025C45.953 27.1313 45.7087 27.315 45.5231 27.5536C45.3375 27.7885 45.239 28.0688 45.2276 28.3945H43.1992C43.2144 27.743 43.4019 27.171 43.7617 26.6786C44.1254 26.1824 44.6102 25.796 45.2163 25.5195C45.8223 25.2392 46.5022 25.0991 47.256 25.0991C48.0326 25.0991 48.7068 25.2449 49.2788 25.5366C49.8545 25.8245 50.2996 26.2127 50.614 26.7013C50.9284 27.19 51.0856 27.7298 51.0856 28.3207C51.0894 28.976 50.8962 29.5252 50.506 29.9684C50.1197 30.4116 49.6121 30.7013 48.9833 30.8377V30.9286C49.8015 31.0423 50.4284 31.3453 50.864 31.8377C51.3034 32.3263 51.5212 32.9343 51.5174 33.6616C51.5174 34.3131 51.3318 34.8964 50.9606 35.4116C50.5932 35.9229 50.0856 36.3245 49.4379 36.6161C48.7939 36.9078 48.0553 37.0536 47.2219 37.0536ZM57.4592 36.8945V28.1673H59.4251V29.6502H59.5273C59.7092 29.1502 60.0103 28.7601 60.4308 28.4798C60.8512 28.1957 61.3531 28.0536 61.9364 28.0536C62.5273 28.0536 63.0254 28.1976 63.4308 28.4854C63.8398 28.7695 64.1277 29.1578 64.2944 29.6502H64.3853C64.5785 29.1654 64.9042 28.779 65.3626 28.4911C65.8247 28.1995 66.372 28.0536 67.0046 28.0536C67.8076 28.0536 68.463 28.3074 68.9705 28.815C69.4781 29.3226 69.7319 30.0631 69.7319 31.0366V36.8945H67.6694V31.3548C67.6694 30.8131 67.5255 30.4173 67.2376 30.1673C66.9497 29.9135 66.5974 29.7866 66.1808 29.7866C65.6845 29.7866 65.2963 29.9419 65.016 30.2525C64.7395 30.5593 64.6012 30.9589 64.6012 31.4513V36.8945H62.5842V31.2695C62.5842 30.8188 62.4478 30.4589 62.1751 30.19C61.9061 29.921 61.5539 29.7866 61.1183 29.7866C60.8228 29.7866 60.5539 29.8623 60.3114 30.0138C60.069 30.1616 59.8758 30.3718 59.7319 30.6445C59.5879 30.9135 59.516 31.2279 59.516 31.5877V36.8945H57.4592ZM71.8185 36.8945V28.1673H73.7844V29.6502H73.8867C74.0685 29.1502 74.3697 28.7601 74.7901 28.4798C75.2106 28.1957 75.7125 28.0536 76.2958 28.0536C76.8867 28.0536 77.3848 28.1976 77.7901 28.4854C78.1992 28.7695 78.4871 29.1578 78.6538 29.6502H78.7447C78.9379 29.1654 79.2636 28.779 79.7219 28.4911C80.1841 28.1995 80.7314 28.0536 81.364 28.0536C82.167 28.0536 82.8223 28.3074 83.3299 28.815C83.8375 29.3226 84.0913 30.0631 84.0913 31.0366V36.8945H82.0288V31.3548C82.0288 30.8131 81.8848 30.4173 81.5969 30.1673C81.3091 29.9135 80.9568 29.7866 80.5401 29.7866C80.0439 29.7866 79.6557 29.9419 79.3754 30.2525C79.0988 30.5593 78.9606 30.9589 78.9606 31.4513V36.8945H76.9435V31.2695C76.9435 30.8188 76.8072 30.4589 76.5344 30.19C76.2655 29.921 75.9132 29.7866 75.4776 29.7866C75.1822 29.7866 74.9132 29.8623 74.6708 30.0138C74.4284 30.1616 74.2352 30.3718 74.0913 30.6445C73.9473 30.9135 73.8754 31.2279 73.8754 31.5877V36.8945H71.8185Z" fill="#3C3B3B"/>
<path d="M401.056 251.715V263.352H398.948V253.766H398.88L396.158 255.505V253.573L399.05 251.715H401.056ZM408.056 263.511C407.299 263.511 406.621 263.369 406.022 263.085C405.424 262.797 404.948 262.403 404.596 261.903C404.247 261.403 404.062 260.831 404.039 260.187H406.085C406.122 260.664 406.329 261.054 406.704 261.357C407.079 261.656 407.53 261.806 408.056 261.806C408.469 261.806 408.836 261.711 409.158 261.522C409.48 261.333 409.734 261.069 409.92 260.732C410.105 260.395 410.196 260.011 410.192 259.579C410.196 259.139 410.103 258.749 409.914 258.408C409.725 258.067 409.465 257.8 409.136 257.607C408.806 257.41 408.427 257.312 407.999 257.312C407.651 257.308 407.308 257.372 406.971 257.505C406.634 257.638 406.367 257.812 406.17 258.028L404.266 257.715L404.874 251.715H411.624V253.477H406.619L406.283 256.562H406.352C406.567 256.308 406.872 256.098 407.266 255.931C407.66 255.761 408.092 255.675 408.562 255.675C409.266 255.675 409.895 255.842 410.448 256.175C411.001 256.505 411.437 256.96 411.755 257.539C412.073 258.119 412.232 258.781 412.232 259.528C412.232 260.297 412.054 260.982 411.698 261.585C411.346 262.183 410.855 262.655 410.227 262.999C409.602 263.34 408.878 263.511 408.056 263.511ZM418.127 263.352V254.624H420.093V256.107H420.195C420.377 255.607 420.678 255.217 421.099 254.937C421.519 254.653 422.021 254.511 422.604 254.511C423.195 254.511 423.693 254.655 424.099 254.942C424.508 255.227 424.796 255.615 424.962 256.107H425.053C425.246 255.622 425.572 255.236 426.031 254.948C426.493 254.656 427.04 254.511 427.673 254.511C428.476 254.511 429.131 254.764 429.638 255.272C430.146 255.78 430.4 256.52 430.4 257.494V263.352H428.337V257.812C428.337 257.27 428.193 256.874 427.906 256.624C427.618 256.371 427.265 256.244 426.849 256.244C426.353 256.244 425.964 256.399 425.684 256.71C425.407 257.016 425.269 257.416 425.269 257.908V263.352H423.252V257.727C423.252 257.276 423.116 256.916 422.843 256.647C422.574 256.378 422.222 256.244 421.786 256.244C421.491 256.244 421.222 256.319 420.979 256.471C420.737 256.619 420.544 256.829 420.4 257.102C420.256 257.371 420.184 257.685 420.184 258.045V263.352H418.127ZM432.487 263.352V254.624H434.452V256.107H434.555C434.737 255.607 435.038 255.217 435.458 254.937C435.879 254.653 436.38 254.511 436.964 254.511C437.555 254.511 438.053 254.655 438.458 254.942C438.867 255.227 439.155 255.615 439.322 256.107H439.413C439.606 255.622 439.932 255.236 440.39 254.948C440.852 254.656 441.399 254.511 442.032 254.511C442.835 254.511 443.49 254.764 443.998 255.272C444.505 255.78 444.759 256.52 444.759 257.494V263.352H442.697V257.812C442.697 257.27 442.553 256.874 442.265 256.624C441.977 256.371 441.625 256.244 441.208 256.244C440.712 256.244 440.324 256.399 440.043 256.71C439.767 257.016 439.629 257.416 439.629 257.908V263.352H437.612V257.727C437.612 257.276 437.475 256.916 437.202 256.647C436.933 256.378 436.581 256.244 436.146 256.244C435.85 256.244 435.581 256.319 435.339 256.471C435.096 256.619 434.903 256.829 434.759 257.102C434.615 257.371 434.543 257.685 434.543 258.045V263.352H432.487Z" fill="#3C3B3B"/>
<path d="M265.275 244.111L275.071 249.059L275.15 249.059L275.15 243.315L276.912 243.315L276.912 251.241L275.111 251.241L265.275 246.298L265.275 244.111ZM265.275 253.075L266.798 253.075L270.758 257.115C271.148 257.501 271.495 257.823 271.798 258.081C272.101 258.338 272.395 258.532 272.679 258.66C272.963 258.789 273.266 258.854 273.588 258.854C273.955 258.854 274.27 258.77 274.531 258.604C274.796 258.437 275.001 258.208 275.145 257.916C275.289 257.624 275.361 257.293 275.361 256.922C275.361 256.539 275.281 256.204 275.122 255.916C274.967 255.628 274.745 255.405 274.457 255.246C274.169 255.09 273.827 255.013 273.429 255.013L273.429 253.007C274.167 253.007 274.809 253.175 275.355 253.513C275.9 253.85 276.323 254.314 276.622 254.905C276.921 255.499 277.071 256.181 277.071 256.95C277.071 257.73 276.925 258.416 276.633 259.007C276.342 259.598 275.942 260.056 275.434 260.382C274.927 260.711 274.347 260.876 273.696 260.876C273.26 260.876 272.832 260.793 272.412 260.626C271.991 260.46 271.525 260.166 271.014 259.746C270.503 259.329 269.883 258.744 269.156 257.99L267.116 255.984L267.037 255.984L267.037 261.052L265.275 261.052L265.275 253.075ZM265.275 267.004L274.003 267.004L274.003 268.97L272.52 268.97L272.52 269.072C273.02 269.254 273.41 269.555 273.69 269.976C273.974 270.396 274.116 270.898 274.116 271.481C274.116 272.072 273.972 272.57 273.684 272.976C273.4 273.385 273.012 273.673 272.52 273.839L272.52 273.93C273.005 274.123 273.391 274.449 273.679 274.907C273.97 275.37 274.116 275.917 274.116 276.55C274.116 277.353 273.863 278.008 273.355 278.515C272.847 279.023 272.107 279.277 271.133 279.277L265.275 279.277L265.275 277.214L270.815 277.214C271.357 277.214 271.753 277.07 272.003 276.782C272.256 276.495 272.383 276.142 272.383 275.726C272.383 275.229 272.228 274.841 271.917 274.561C271.611 274.284 271.211 274.146 270.719 274.146L265.275 274.146L265.275 272.129L270.9 272.129C271.351 272.129 271.711 271.993 271.98 271.72C272.249 271.451 272.383 271.099 272.383 270.663C272.383 270.368 272.308 270.099 272.156 269.856C272.008 269.614 271.798 269.421 271.525 269.277C271.256 269.133 270.942 269.061 270.582 269.061L265.275 269.061L265.275 267.004ZM265.275 281.363L274.003 281.363L274.003 283.329L272.52 283.329L272.52 283.432C273.02 283.613 273.41 283.915 273.69 284.335C273.974 284.756 274.116 285.257 274.116 285.841C274.116 286.432 273.972 286.93 273.684 287.335C273.4 287.744 273.012 288.032 272.52 288.199L272.52 288.29C273.005 288.483 273.391 288.809 273.679 289.267C273.97 289.729 274.116 290.276 274.116 290.909C274.116 291.712 273.863 292.367 273.355 292.875C272.847 293.382 272.107 293.636 271.133 293.636L265.275 293.636L265.275 291.574L270.815 291.574C271.357 291.574 271.753 291.43 272.003 291.142C272.256 290.854 272.383 290.502 272.383 290.085C272.383 289.589 272.228 289.201 271.917 288.92C271.611 288.644 271.211 288.506 270.719 288.506L265.275 288.506L265.275 286.488L270.9 286.488C271.351 286.488 271.711 286.352 271.98 286.079C272.249 285.81 272.383 285.458 272.383 285.023C272.383 284.727 272.308 284.458 272.156 284.216C272.008 283.973 271.798 283.78 271.525 283.636C271.256 283.492 270.942 283.42 270.582 283.42L265.275 283.42L265.275 281.363Z" fill="#3C3B3B"/>
<path d="M265.275 113.398L275.071 118.347L275.15 118.347L275.15 112.602L276.912 112.602L276.912 120.528L275.111 120.528L265.275 115.585L265.275 113.398ZM265.054 126.413C265.054 125.478 265.291 124.675 265.764 124.004C266.241 123.338 266.929 122.824 267.827 122.464C268.728 122.108 269.813 121.93 271.082 121.93C272.351 121.934 273.431 122.114 274.321 122.47C275.215 122.83 275.897 123.343 276.366 124.01C276.836 124.68 277.071 125.482 277.071 126.413C277.071 127.345 276.836 128.146 276.366 128.817C275.897 129.487 275.215 130 274.321 130.357C273.427 130.716 272.347 130.896 271.082 130.896C269.809 130.896 268.722 130.716 267.821 130.357C266.923 130 266.238 129.487 265.764 128.817C265.291 128.15 265.054 127.349 265.054 126.413ZM266.832 126.413C266.832 127.141 267.19 127.714 267.906 128.135C268.626 128.559 269.684 128.771 271.082 128.771C272.006 128.771 272.783 128.675 273.412 128.482C274.041 128.288 274.514 128.016 274.832 127.663C275.154 127.311 275.315 126.894 275.315 126.413C275.315 125.69 274.955 125.118 274.236 124.697C273.52 124.277 272.469 124.065 271.082 124.061C270.154 124.057 269.374 124.15 268.741 124.339C268.109 124.533 267.631 124.805 267.309 125.158C266.991 125.51 266.832 125.929 266.832 126.413ZM265.275 136.776L274.003 136.776L274.003 138.741L272.52 138.741L272.52 138.844C273.02 139.026 273.41 139.327 273.69 139.747C273.974 140.168 274.116 140.67 274.116 141.253C274.116 141.844 273.972 142.342 273.684 142.747C273.4 143.156 273.012 143.444 272.52 143.611L272.52 143.702C273.005 143.895 273.391 144.221 273.679 144.679C273.97 145.141 274.116 145.688 274.116 146.321C274.116 147.124 273.863 147.779 273.355 148.287C272.847 148.795 272.107 149.048 271.133 149.048L265.275 149.048L265.275 146.986L270.815 146.986C271.357 146.986 271.753 146.842 272.003 146.554C272.256 146.266 272.383 145.914 272.383 145.497C272.383 145.001 272.228 144.613 271.917 144.332C271.611 144.056 271.211 143.918 270.719 143.918L265.275 143.918L265.275 141.901L270.9 141.901C271.351 141.901 271.711 141.764 271.98 141.491C272.249 141.223 272.383 140.87 272.383 140.435C272.383 140.139 272.308 139.87 272.156 139.628C272.008 139.385 271.798 139.192 271.525 139.048C271.256 138.904 270.942 138.832 270.582 138.832L265.275 138.832L265.275 136.776ZM265.275 151.135L274.003 151.135L274.003 153.101L272.52 153.101L272.52 153.203C273.02 153.385 273.41 153.686 273.69 154.107C273.974 154.527 274.116 155.029 274.116 155.612C274.116 156.203 273.972 156.701 273.684 157.107C273.4 157.516 273.012 157.804 272.52 157.97L272.52 158.061C273.005 158.254 273.391 158.58 273.679 159.038C273.97 159.5 274.116 160.048 274.116 160.68C274.116 161.483 273.863 162.139 273.355 162.646C272.847 163.154 272.107 163.408 271.133 163.408L265.275 163.408L265.275 161.345L270.815 161.345C271.357 161.345 271.753 161.201 272.003 160.913C272.256 160.625 272.383 160.273 272.383 159.857C272.383 159.36 272.228 158.972 271.917 158.692C271.611 158.415 271.211 158.277 270.719 158.277L265.275 158.277L265.275 156.26L270.9 156.26C271.351 156.26 271.711 156.124 271.98 155.851C272.249 155.582 272.383 155.23 272.383 154.794C272.383 154.499 272.308 154.23 272.156 153.987C272.008 153.745 271.798 153.552 271.525 153.408C271.256 153.264 270.942 153.192 270.582 153.192L265.275 153.192L265.275 151.135Z" fill="#3C3B3B"/>
<line x1="108.054" y1="431.996" x2="108.054" y2="461.122" stroke="#D1D1D1" stroke-width="0.6"/>
<line x1="281.939" y1="204.814" x2="224.456" y2="204.814" stroke="#D1D1D1" stroke-width="0.6"/>
<line x1="281.939" y1="59.968" x2="252.813" y2="59.968" stroke="#D1D1D1" stroke-width="0.6"/>
<line x1="218.21" y1="431.996" x2="218.21" y2="461.122" stroke="#D1D1D1" stroke-width="0.6"/>
<line x1="280.275" y1="359.978" x2="212.287" y2="359.978" stroke="#D1D1D1" stroke-width="0.6"/>
<line x1="126.703" y1="446.859" x2="107.754" y2="446.859" stroke="#D1D1D1" stroke-width="0.6"/>
<line x1="114.152" y1="33.2551" x2="95.2031" y2="33.2551" stroke="#D1D1D1" stroke-width="0.6"/>
<line x1="352.152" y1="275.249" x2="333.203" y2="275.249" stroke="#D1D1D1" stroke-width="0.6"/>
<line x1="143.146" y1="33.2551" x2="124.197" y2="33.2551" stroke="#D1D1D1" stroke-width="0.6"/>
<line x1="445.789" y1="275.249" x2="374.228" y2="275.249" stroke="#D1D1D1" stroke-width="0.6"/>
<line x1="267.075" y1="232.947" x2="267.075" y2="204.513" stroke="#D1D1D1" stroke-width="0.6"/>
<line x1="267.075" y1="103.508" x2="267.075" y2="59.6684" stroke="#D1D1D1" stroke-width="0.6"/>
<line x1="217.91" y1="446.859" x2="197.175" y2="446.859" stroke="#D1D1D1" stroke-width="0.6"/>
<line x1="267.075" y1="359.678" x2="267.075" y2="306.427" stroke="#D1D1D1" stroke-width="0.6"/>
<line x1="267.075" y1="205.572" x2="267.075" y2="185.987" stroke="#D1D1D1" stroke-width="0.6"/>
</svg>
