<svg width="649" height="649" viewBox="0 0 649 649" fill="none" xmlns="http://www.w3.org/2000/svg">
<rect width="649.01" height="649.01" rx="51" fill="white"/>
<rect x="76.4422" y="69.4568" width="496.125" height="479.273" rx="10.55" stroke="#989898" stroke-width="0.9" stroke-dasharray="2.2 2.2"/>
<path d="M294.629 574.806C294.629 574.63 294.602 574.474 294.547 574.337C294.496 574.2 294.404 574.075 294.271 573.962C294.139 573.849 293.951 573.739 293.709 573.634C293.471 573.524 293.166 573.413 292.795 573.3C292.389 573.175 292.014 573.036 291.67 572.884C291.33 572.728 291.033 572.548 290.779 572.345C290.525 572.138 290.328 571.901 290.188 571.636C290.047 571.366 289.977 571.056 289.977 570.704C289.977 570.356 290.049 570.04 290.193 569.755C290.342 569.47 290.551 569.224 290.82 569.017C291.094 568.806 291.416 568.644 291.787 568.53C292.158 568.413 292.568 568.354 293.018 568.354C293.65 568.354 294.195 568.472 294.652 568.706C295.113 568.94 295.467 569.255 295.713 569.649C295.963 570.044 296.088 570.479 296.088 570.956H294.629C294.629 570.675 294.568 570.427 294.447 570.212C294.33 569.993 294.15 569.821 293.908 569.696C293.67 569.571 293.367 569.509 293 569.509C292.652 569.509 292.363 569.562 292.133 569.667C291.902 569.772 291.73 569.915 291.617 570.095C291.504 570.274 291.447 570.478 291.447 570.704C291.447 570.864 291.484 571.011 291.559 571.144C291.633 571.272 291.746 571.394 291.898 571.507C292.051 571.616 292.242 571.72 292.473 571.817C292.703 571.915 292.975 572.009 293.287 572.099C293.76 572.239 294.172 572.396 294.523 572.567C294.875 572.735 295.168 572.927 295.402 573.142C295.637 573.356 295.812 573.601 295.93 573.874C296.047 574.144 296.105 574.45 296.105 574.794C296.105 575.153 296.033 575.478 295.889 575.767C295.744 576.052 295.537 576.296 295.268 576.499C295.002 576.698 294.682 576.853 294.307 576.962C293.936 577.067 293.521 577.12 293.064 577.12C292.654 577.12 292.25 577.065 291.852 576.956C291.457 576.847 291.098 576.681 290.773 576.458C290.449 576.231 290.191 575.95 290 575.614C289.809 575.274 289.713 574.878 289.713 574.425H291.184C291.184 574.702 291.23 574.938 291.324 575.134C291.422 575.329 291.557 575.489 291.729 575.614C291.9 575.735 292.1 575.825 292.326 575.884C292.557 575.942 292.803 575.972 293.064 575.972C293.408 575.972 293.695 575.923 293.926 575.825C294.16 575.728 294.336 575.591 294.453 575.415C294.57 575.239 294.629 575.036 294.629 574.806ZM300.061 577.12C299.592 577.12 299.168 577.044 298.789 576.892C298.414 576.735 298.094 576.519 297.828 576.241C297.566 575.964 297.365 575.638 297.225 575.263C297.084 574.888 297.014 574.483 297.014 574.05V573.815C297.014 573.319 297.086 572.87 297.23 572.468C297.375 572.065 297.576 571.722 297.834 571.437C298.092 571.147 298.396 570.927 298.748 570.774C299.1 570.622 299.48 570.546 299.891 570.546C300.344 570.546 300.74 570.622 301.08 570.774C301.42 570.927 301.701 571.142 301.924 571.419C302.15 571.692 302.318 572.019 302.428 572.397C302.541 572.776 302.598 573.194 302.598 573.651V574.255H297.699V573.241H301.203V573.13C301.195 572.876 301.145 572.638 301.051 572.415C300.961 572.192 300.822 572.013 300.635 571.876C300.447 571.739 300.197 571.671 299.885 571.671C299.65 571.671 299.441 571.722 299.258 571.823C299.078 571.921 298.928 572.063 298.807 572.251C298.686 572.438 298.592 572.665 298.525 572.931C298.463 573.192 298.432 573.487 298.432 573.815V574.05C298.432 574.327 298.469 574.585 298.543 574.823C298.621 575.058 298.734 575.263 298.883 575.438C299.031 575.614 299.211 575.753 299.422 575.854C299.633 575.952 299.873 576.001 300.143 576.001C300.482 576.001 300.785 575.933 301.051 575.796C301.316 575.659 301.547 575.466 301.742 575.216L302.486 575.937C302.35 576.136 302.172 576.327 301.953 576.511C301.734 576.69 301.467 576.837 301.15 576.95C300.838 577.063 300.475 577.12 300.061 577.12ZM305.1 572.017V577.003H303.688V570.663H305.018L305.1 572.017ZM304.848 573.599L304.391 573.593C304.395 573.144 304.457 572.731 304.578 572.356C304.703 571.981 304.875 571.659 305.094 571.39C305.316 571.12 305.582 570.913 305.891 570.769C306.199 570.62 306.543 570.546 306.922 570.546C307.227 570.546 307.502 570.589 307.748 570.675C307.998 570.757 308.211 570.892 308.387 571.079C308.566 571.267 308.703 571.511 308.797 571.812C308.891 572.108 308.938 572.474 308.938 572.907V577.003H307.52V572.901C307.52 572.597 307.475 572.356 307.385 572.181C307.299 572.001 307.172 571.874 307.004 571.8C306.84 571.722 306.635 571.683 306.389 571.683C306.146 571.683 305.93 571.733 305.738 571.835C305.547 571.937 305.385 572.075 305.252 572.251C305.123 572.427 305.023 572.63 304.953 572.86C304.883 573.091 304.848 573.337 304.848 573.599ZM313.936 575.286C313.936 575.146 313.9 575.019 313.83 574.905C313.76 574.788 313.625 574.683 313.426 574.589C313.23 574.495 312.941 574.409 312.559 574.331C312.223 574.257 311.914 574.169 311.633 574.067C311.355 573.962 311.117 573.835 310.918 573.687C310.719 573.538 310.564 573.362 310.455 573.159C310.346 572.956 310.291 572.722 310.291 572.456C310.291 572.198 310.348 571.954 310.461 571.724C310.574 571.493 310.736 571.29 310.947 571.114C311.158 570.938 311.414 570.8 311.715 570.698C312.02 570.597 312.359 570.546 312.734 570.546C313.266 570.546 313.721 570.636 314.1 570.815C314.482 570.991 314.775 571.231 314.979 571.536C315.182 571.837 315.283 572.177 315.283 572.556H313.871C313.871 572.388 313.828 572.231 313.742 572.087C313.66 571.938 313.535 571.819 313.367 571.729C313.199 571.636 312.988 571.589 312.734 571.589C312.492 571.589 312.291 571.628 312.131 571.706C311.975 571.78 311.857 571.878 311.779 571.999C311.705 572.12 311.668 572.253 311.668 572.397C311.668 572.503 311.688 572.599 311.727 572.685C311.77 572.767 311.84 572.843 311.938 572.913C312.035 572.979 312.168 573.042 312.336 573.101C312.508 573.159 312.723 573.216 312.98 573.271C313.465 573.372 313.881 573.503 314.229 573.663C314.58 573.819 314.85 574.022 315.037 574.272C315.225 574.519 315.318 574.831 315.318 575.21C315.318 575.491 315.258 575.749 315.137 575.983C315.02 576.214 314.848 576.415 314.621 576.587C314.395 576.755 314.123 576.886 313.807 576.979C313.494 577.073 313.143 577.12 312.752 577.12C312.178 577.12 311.691 577.019 311.293 576.815C310.895 576.608 310.592 576.345 310.385 576.024C310.182 575.7 310.08 575.364 310.08 575.017H311.445C311.461 575.278 311.533 575.487 311.662 575.644C311.795 575.796 311.959 575.907 312.154 575.978C312.354 576.044 312.559 576.077 312.77 576.077C313.023 576.077 313.236 576.044 313.408 575.978C313.58 575.907 313.711 575.813 313.801 575.696C313.891 575.575 313.936 575.438 313.936 575.286ZM316.285 573.903V573.769C316.285 573.312 316.352 572.888 316.484 572.497C316.617 572.103 316.809 571.761 317.059 571.472C317.312 571.179 317.621 570.952 317.984 570.792C318.352 570.628 318.766 570.546 319.227 570.546C319.691 570.546 320.105 570.628 320.469 570.792C320.836 570.952 321.146 571.179 321.4 571.472C321.654 571.761 321.848 572.103 321.98 572.497C322.113 572.888 322.18 573.312 322.18 573.769V573.903C322.18 574.36 322.113 574.784 321.98 575.175C321.848 575.565 321.654 575.907 321.4 576.2C321.146 576.489 320.838 576.716 320.475 576.88C320.111 577.04 319.699 577.12 319.238 577.12C318.773 577.12 318.357 577.04 317.99 576.88C317.627 576.716 317.318 576.489 317.064 576.2C316.811 575.907 316.617 575.565 316.484 575.175C316.352 574.784 316.285 574.36 316.285 573.903ZM317.697 573.769V573.903C317.697 574.188 317.727 574.458 317.785 574.712C317.844 574.966 317.936 575.188 318.061 575.38C318.186 575.571 318.346 575.722 318.541 575.831C318.736 575.94 318.969 575.995 319.238 575.995C319.5 575.995 319.727 575.94 319.918 575.831C320.113 575.722 320.273 575.571 320.398 575.38C320.523 575.188 320.615 574.966 320.674 574.712C320.736 574.458 320.768 574.188 320.768 573.903V573.769C320.768 573.487 320.736 573.222 320.674 572.972C320.615 572.718 320.521 572.493 320.393 572.298C320.268 572.103 320.107 571.95 319.912 571.841C319.721 571.728 319.492 571.671 319.227 571.671C318.961 571.671 318.73 571.728 318.535 571.841C318.344 571.95 318.186 572.103 318.061 572.298C317.936 572.493 317.844 572.718 317.785 572.972C317.727 573.222 317.697 573.487 317.697 573.769ZM324.781 571.87V577.003H323.369V570.663H324.717L324.781 571.87ZM326.721 570.622L326.709 571.935C326.623 571.919 326.529 571.907 326.428 571.899C326.33 571.892 326.232 571.888 326.135 571.888C325.893 571.888 325.68 571.923 325.496 571.993C325.312 572.06 325.158 572.157 325.033 572.286C324.912 572.411 324.818 572.563 324.752 572.743C324.686 572.923 324.646 573.124 324.635 573.347L324.312 573.37C324.312 572.972 324.352 572.603 324.43 572.263C324.508 571.923 324.625 571.624 324.781 571.366C324.941 571.108 325.141 570.907 325.379 570.763C325.621 570.618 325.9 570.546 326.217 570.546C326.303 570.546 326.395 570.554 326.492 570.569C326.594 570.585 326.67 570.603 326.721 570.622ZM333.975 573.821H331.754V572.655H333.975C334.361 572.655 334.674 572.593 334.912 572.468C335.15 572.343 335.324 572.171 335.434 571.952C335.547 571.729 335.604 571.476 335.604 571.19C335.604 570.921 335.547 570.669 335.434 570.435C335.324 570.196 335.15 570.005 334.912 569.86C334.674 569.716 334.361 569.644 333.975 569.644H332.205V577.003H330.734V568.472H333.975C334.635 568.472 335.195 568.589 335.656 568.823C336.121 569.054 336.475 569.374 336.717 569.784C336.959 570.19 337.08 570.655 337.08 571.179C337.08 571.729 336.959 572.202 336.717 572.597C336.475 572.991 336.121 573.294 335.656 573.505C335.195 573.716 334.635 573.821 333.975 573.821ZM339.676 571.87V577.003H338.264V570.663H339.611L339.676 571.87ZM341.615 570.622L341.604 571.935C341.518 571.919 341.424 571.907 341.322 571.899C341.225 571.892 341.127 571.888 341.029 571.888C340.787 571.888 340.574 571.923 340.391 571.993C340.207 572.06 340.053 572.157 339.928 572.286C339.807 572.411 339.713 572.563 339.646 572.743C339.58 572.923 339.541 573.124 339.529 573.347L339.207 573.37C339.207 572.972 339.246 572.603 339.324 572.263C339.402 571.923 339.52 571.624 339.676 571.366C339.836 571.108 340.035 570.907 340.273 570.763C340.516 570.618 340.795 570.546 341.111 570.546C341.197 570.546 341.289 570.554 341.387 570.569C341.488 570.585 341.564 570.603 341.615 570.622ZM342.078 573.903V573.769C342.078 573.312 342.145 572.888 342.277 572.497C342.41 572.103 342.602 571.761 342.852 571.472C343.105 571.179 343.414 570.952 343.777 570.792C344.145 570.628 344.559 570.546 345.02 570.546C345.484 570.546 345.898 570.628 346.262 570.792C346.629 570.952 346.939 571.179 347.193 571.472C347.447 571.761 347.641 572.103 347.773 572.497C347.906 572.888 347.973 573.312 347.973 573.769V573.903C347.973 574.36 347.906 574.784 347.773 575.175C347.641 575.565 347.447 575.907 347.193 576.2C346.939 576.489 346.631 576.716 346.268 576.88C345.904 577.04 345.492 577.12 345.031 577.12C344.566 577.12 344.15 577.04 343.783 576.88C343.42 576.716 343.111 576.489 342.857 576.2C342.604 575.907 342.41 575.565 342.277 575.175C342.145 574.784 342.078 574.36 342.078 573.903ZM343.49 573.769V573.903C343.49 574.188 343.52 574.458 343.578 574.712C343.637 574.966 343.729 575.188 343.854 575.38C343.979 575.571 344.139 575.722 344.334 575.831C344.529 575.94 344.762 575.995 345.031 575.995C345.293 575.995 345.52 575.94 345.711 575.831C345.906 575.722 346.066 575.571 346.191 575.38C346.316 575.188 346.408 574.966 346.467 574.712C346.529 574.458 346.561 574.188 346.561 573.903V573.769C346.561 573.487 346.529 573.222 346.467 572.972C346.408 572.718 346.314 572.493 346.186 572.298C346.061 572.103 345.9 571.95 345.705 571.841C345.514 571.728 345.285 571.671 345.02 571.671C344.754 571.671 344.523 571.728 344.328 571.841C344.137 571.95 343.979 572.103 343.854 572.298C343.729 572.493 343.637 572.718 343.578 572.972C343.52 573.222 343.49 573.487 343.49 573.769ZM349.162 568.003H350.574V575.649L350.439 577.003H349.162V568.003ZM354.711 573.774V573.897C354.711 574.366 354.658 574.798 354.553 575.192C354.451 575.583 354.295 575.923 354.084 576.212C353.877 576.501 353.619 576.726 353.311 576.886C353.006 577.042 352.652 577.12 352.25 577.12C351.855 577.12 351.512 577.046 351.219 576.897C350.926 576.749 350.68 576.538 350.48 576.265C350.285 575.991 350.127 575.665 350.006 575.286C349.885 574.907 349.799 574.489 349.748 574.032V573.64C349.799 573.179 349.885 572.761 350.006 572.386C350.127 572.007 350.285 571.681 350.48 571.407C350.68 571.13 350.924 570.917 351.213 570.769C351.506 570.62 351.848 570.546 352.238 570.546C352.645 570.546 353.002 570.624 353.311 570.78C353.623 570.937 353.883 571.159 354.09 571.448C354.297 571.733 354.451 572.073 354.553 572.468C354.658 572.862 354.711 573.298 354.711 573.774ZM353.299 573.897V573.774C353.299 573.489 353.275 573.222 353.229 572.972C353.182 572.718 353.104 572.495 352.994 572.304C352.889 572.112 352.744 571.962 352.561 571.853C352.381 571.739 352.156 571.683 351.887 571.683C351.637 571.683 351.422 571.726 351.242 571.812C351.062 571.897 350.912 572.015 350.791 572.163C350.67 572.312 350.574 572.483 350.504 572.679C350.438 572.874 350.393 573.085 350.369 573.312V574.372C350.404 574.665 350.479 574.935 350.592 575.181C350.709 575.423 350.873 575.618 351.084 575.767C351.295 575.911 351.566 575.983 351.898 575.983C352.16 575.983 352.381 575.931 352.561 575.825C352.74 575.72 352.883 575.573 352.988 575.386C353.098 575.194 353.176 574.972 353.223 574.718C353.273 574.464 353.299 574.19 353.299 573.897ZM358.701 577.12C358.232 577.12 357.809 577.044 357.43 576.892C357.055 576.735 356.734 576.519 356.469 576.241C356.207 575.964 356.006 575.638 355.865 575.263C355.725 574.888 355.654 574.483 355.654 574.05V573.815C355.654 573.319 355.727 572.87 355.871 572.468C356.016 572.065 356.217 571.722 356.475 571.437C356.732 571.147 357.037 570.927 357.389 570.774C357.74 570.622 358.121 570.546 358.531 570.546C358.984 570.546 359.381 570.622 359.721 570.774C360.061 570.927 360.342 571.142 360.564 571.419C360.791 571.692 360.959 572.019 361.068 572.397C361.182 572.776 361.238 573.194 361.238 573.651V574.255H356.34V573.241H359.844V573.13C359.836 572.876 359.785 572.638 359.691 572.415C359.602 572.192 359.463 572.013 359.275 571.876C359.088 571.739 358.838 571.671 358.525 571.671C358.291 571.671 358.082 571.722 357.898 571.823C357.719 571.921 357.568 572.063 357.447 572.251C357.326 572.438 357.232 572.665 357.166 572.931C357.104 573.192 357.072 573.487 357.072 573.815V574.05C357.072 574.327 357.109 574.585 357.184 574.823C357.262 575.058 357.375 575.263 357.523 575.438C357.672 575.614 357.852 575.753 358.062 575.854C358.273 575.952 358.514 576.001 358.783 576.001C359.123 576.001 359.426 575.933 359.691 575.796C359.957 575.659 360.188 575.466 360.383 575.216L361.127 575.937C360.99 576.136 360.812 576.327 360.594 576.511C360.375 576.69 360.107 576.837 359.791 576.95C359.479 577.063 359.115 577.12 358.701 577.12Z" fill="#303031"/>
<path d="M293.45 273.105V414.531C293.45 422.567 286.936 429.082 278.9 429.082H198.828C190.792 429.082 184.278 422.567 184.278 414.531V273.105H293.45Z" stroke="black" stroke-width="0.9"/>
<path d="M449.769 273.105V421.532C449.768 425.702 446.388 429.082 442.219 429.082H436.145C431.975 429.082 428.595 425.701 428.595 421.531V273.105H449.769Z" stroke="black" stroke-width="0.9"/>
<path d="M251.084 429.078V441.002C251.084 443.515 249.047 445.553 246.534 445.553H232.195C229.13 445.553 226.646 443.067 226.646 440.002V429.078H251.084Z" stroke="black" stroke-width="0.9"/>
<path d="M443.867 429.135V440.487C443.867 442.817 441.979 444.705 439.649 444.705C436.805 444.705 434.499 442.398 434.499 439.554V429.135H443.867Z" stroke="black" stroke-width="0.9"/>
<path d="M435.633 273.07L435.633 142.517L443.749 142.517L443.749 273.07L435.633 273.07Z" stroke="black" stroke-width="0.9"/>
<path d="M201.359 273.07L201.359 142.517L209.476 142.517L209.476 273.07L201.359 273.07Z" stroke="black" stroke-width="0.9"/>
<path d="M234.805 273.07L234.805 142.517L242.921 142.517L242.921 273.07L234.805 273.07Z" stroke="black" stroke-width="0.9"/>
<path d="M265.939 273.07L265.939 142.517L274.056 142.517L274.056 273.07L265.939 273.07Z" stroke="black" stroke-width="0.9"/>
<path d="M443.522 141.557H435.858L439.69 130.233L443.522 141.557Z" stroke="black"/>
<path d="M209.251 141.557H201.587L205.419 130.233L209.251 141.557Z" stroke="black"/>
<path d="M242.696 141.557H235.032L238.864 130.233L242.696 141.557Z" stroke="black"/>
<path d="M273.829 141.557H266.165L269.997 130.233L273.829 141.557Z" stroke="black"/>
<path d="M443.522 141.557H435.858L439.69 130.233L443.522 141.557Z" stroke="black"/>
<path d="M209.251 141.557H201.587L205.419 130.233L209.251 141.557Z" stroke="black"/>
<path d="M242.696 141.557H235.032L238.864 130.233L242.696 141.557Z" stroke="black"/>
<path d="M273.829 141.557H266.165L269.997 130.233L273.829 141.557Z" stroke="black"/>
<line x1="200.183" y1="83.6396" x2="200.183" y2="125.214" stroke="#D1D1D1" stroke-width="0.6"/>
<line x1="190.445" y1="83.6396" x2="190.445" y2="125.446" stroke="#D1D1D1" stroke-width="0.6"/>
<path d="M213.963 515.508V513.832L218.9 506.031H220.298V508.417H219.445L216.122 513.684V513.775H223.014V515.508H213.963ZM219.514 517.667V514.997L219.536 514.247V506.031H221.525V517.667H219.514ZM228.874 517.826C228.117 517.826 227.439 517.684 226.84 517.4C226.242 517.112 225.767 516.718 225.414 516.218C225.066 515.718 224.88 515.146 224.857 514.502H226.903C226.941 514.979 227.147 515.37 227.522 515.673C227.897 515.972 228.348 516.122 228.874 516.122C229.287 516.122 229.655 516.027 229.977 515.837C230.299 515.648 230.552 515.385 230.738 515.048C230.924 514.711 231.015 514.326 231.011 513.894C231.015 513.455 230.922 513.065 230.732 512.724C230.543 512.383 230.284 512.116 229.954 511.923C229.624 511.726 229.246 511.627 228.818 511.627C228.469 511.623 228.126 511.688 227.789 511.82C227.452 511.953 227.185 512.127 226.988 512.343L225.085 512.031L225.693 506.031H232.443V507.792H227.437L227.102 510.877H227.17C227.386 510.623 227.691 510.413 228.085 510.247C228.479 510.076 228.91 509.991 229.38 509.991C230.085 509.991 230.713 510.158 231.267 510.491C231.82 510.82 232.255 511.275 232.573 511.854C232.892 512.434 233.051 513.097 233.051 513.843C233.051 514.612 232.873 515.298 232.517 515.9C232.164 516.498 231.674 516.97 231.045 517.315C230.42 517.656 229.696 517.826 228.874 517.826ZM238.945 517.667V508.94H240.911V510.423H241.014C241.195 509.923 241.497 509.533 241.917 509.252C242.338 508.968 242.839 508.826 243.423 508.826C244.014 508.826 244.512 508.97 244.917 509.258C245.326 509.542 245.614 509.93 245.781 510.423H245.872C246.065 509.938 246.391 509.551 246.849 509.264C247.311 508.972 247.858 508.826 248.491 508.826C249.294 508.826 249.949 509.08 250.457 509.587C250.964 510.095 251.218 510.836 251.218 511.809V517.667H249.156V512.127C249.156 511.586 249.012 511.19 248.724 510.94C248.436 510.686 248.084 510.559 247.667 510.559C247.171 510.559 246.783 510.714 246.502 511.025C246.226 511.332 246.088 511.731 246.088 512.224V517.667H244.07V512.042C244.07 511.591 243.934 511.231 243.661 510.962C243.392 510.694 243.04 510.559 242.605 510.559C242.309 510.559 242.04 510.635 241.798 510.786C241.555 510.934 241.362 511.144 241.218 511.417C241.074 511.686 241.002 512 241.002 512.36V517.667H238.945ZM253.305 517.667V508.94H255.271V510.423H255.373C255.555 509.923 255.856 509.533 256.276 509.252C256.697 508.968 257.199 508.826 257.782 508.826C258.373 508.826 258.871 508.97 259.276 509.258C259.686 509.542 259.973 509.93 260.14 510.423H260.231C260.424 509.938 260.75 509.551 261.208 509.264C261.67 508.972 262.218 508.826 262.85 508.826C263.653 508.826 264.309 509.08 264.816 509.587C265.324 510.095 265.578 510.836 265.578 511.809V517.667H263.515V512.127C263.515 511.586 263.371 511.19 263.083 510.94C262.795 510.686 262.443 510.559 262.026 510.559C261.53 510.559 261.142 510.714 260.862 511.025C260.585 511.332 260.447 511.731 260.447 512.224V517.667H258.43V512.042C258.43 511.591 258.294 511.231 258.021 510.962C257.752 510.694 257.4 510.559 256.964 510.559C256.669 510.559 256.4 510.635 256.157 510.786C255.915 510.934 255.722 511.144 255.578 511.417C255.434 511.686 255.362 512 255.362 512.36V517.667H253.305Z" fill="#3C3B3B"/>
<path d="M112.667 106.123C111.732 106.123 110.929 105.886 110.258 105.413C109.592 104.935 109.078 104.248 108.718 103.35C108.362 102.449 108.184 101.363 108.184 100.095C108.188 98.8256 108.368 97.7461 108.724 96.8559C109.084 95.962 109.597 95.2802 110.264 94.8105C110.934 94.3408 111.735 94.1059 112.667 94.1059C113.599 94.1059 114.4 94.3408 115.071 94.8105C115.741 95.2802 116.254 95.962 116.61 96.8559C116.97 97.7499 117.15 98.8294 117.15 100.095C117.15 101.367 116.97 102.454 116.61 103.356C116.254 104.254 115.741 104.939 115.071 105.413C114.404 105.886 113.603 106.123 112.667 106.123ZM112.667 104.345C113.395 104.345 113.968 103.987 114.389 103.271C114.813 102.551 115.025 101.492 115.025 100.095C115.025 99.1703 114.929 98.3938 114.735 97.765C114.542 97.1362 114.27 96.6627 113.917 96.3445C113.565 96.0226 113.148 95.8616 112.667 95.8616C111.944 95.8616 111.372 96.2214 110.951 96.9411C110.531 97.657 110.319 98.7082 110.315 100.095C110.311 101.023 110.404 101.803 110.593 102.435C110.787 103.068 111.059 103.545 111.412 103.867C111.764 104.185 112.182 104.345 112.667 104.345ZM123.214 106.06C122.396 106.06 121.669 105.92 121.032 105.64C120.4 105.36 119.9 104.97 119.532 104.47C119.165 103.97 118.97 103.392 118.947 102.737H121.083C121.102 103.051 121.207 103.326 121.396 103.56C121.585 103.792 121.837 103.971 122.152 104.1C122.466 104.229 122.818 104.293 123.208 104.293C123.625 104.293 123.994 104.221 124.316 104.078C124.638 103.93 124.89 103.725 125.072 103.464C125.254 103.203 125.343 102.901 125.339 102.56C125.343 102.208 125.252 101.898 125.066 101.629C124.881 101.36 124.612 101.149 124.26 100.998C123.911 100.846 123.491 100.771 122.998 100.771H121.97V99.1457H122.998C123.404 99.1457 123.758 99.0756 124.061 98.9355C124.368 98.7953 124.608 98.5983 124.782 98.3445C124.957 98.087 125.042 97.7896 125.038 97.4525C125.042 97.123 124.968 96.837 124.816 96.5945C124.669 96.3483 124.458 96.157 124.186 96.0207C123.917 95.8843 123.6 95.8161 123.237 95.8161C122.881 95.8161 122.551 95.8805 122.248 96.0093C121.945 96.1381 121.701 96.3218 121.515 96.5605C121.33 96.7953 121.231 97.0756 121.22 97.4014H119.191C119.207 96.7499 119.394 96.1779 119.754 95.6855C120.118 95.1892 120.602 94.8029 121.208 94.5264C121.815 94.2461 122.494 94.1059 123.248 94.1059C124.025 94.1059 124.699 94.2517 125.271 94.5434C125.847 94.8313 126.292 95.2195 126.606 95.7082C126.921 96.1968 127.078 96.7366 127.078 97.3275C127.082 97.9828 126.888 98.532 126.498 98.9752C126.112 99.4184 125.604 99.7082 124.975 99.8445V99.9355C125.794 100.049 126.421 100.352 126.856 100.845C127.296 101.333 127.513 101.941 127.51 102.668C127.51 103.32 127.324 103.903 126.953 104.418C126.585 104.93 126.078 105.331 125.43 105.623C124.786 105.915 124.047 106.06 123.214 106.06ZM133.451 105.901V97.1741H135.417V98.657H135.52C135.701 98.157 136.002 97.7669 136.423 97.4866C136.843 97.2025 137.345 97.0605 137.929 97.0605C138.52 97.0605 139.018 97.2044 139.423 97.4923C139.832 97.7764 140.12 98.1646 140.287 98.657H140.377C140.571 98.1722 140.896 97.7858 141.355 97.498C141.817 97.2063 142.364 97.0605 142.997 97.0605C143.8 97.0605 144.455 97.3142 144.963 97.8218C145.47 98.3294 145.724 99.0699 145.724 100.043V105.901H143.662V100.362C143.662 99.8199 143.518 99.4241 143.23 99.1741C142.942 98.9203 142.59 98.7934 142.173 98.7934C141.677 98.7934 141.288 98.9487 141.008 99.2593C140.732 99.5661 140.593 99.9658 140.593 100.458V105.901H138.576V100.276C138.576 99.8256 138.44 99.4658 138.167 99.1968C137.898 98.9279 137.546 98.7934 137.11 98.7934C136.815 98.7934 136.546 98.8692 136.304 99.0207C136.061 99.1684 135.868 99.3786 135.724 99.6514C135.58 99.9203 135.508 100.235 135.508 100.595V105.901H133.451ZM147.811 105.901V97.1741H149.777V98.657H149.879C150.061 98.157 150.362 97.7669 150.782 97.4866C151.203 97.2025 151.705 97.0605 152.288 97.0605C152.879 97.0605 153.377 97.2044 153.782 97.4923C154.191 97.7764 154.479 98.1646 154.646 98.657H154.737C154.93 98.1722 155.256 97.7858 155.714 97.498C156.176 97.2063 156.724 97.0605 157.356 97.0605C158.159 97.0605 158.815 97.3142 159.322 97.8218C159.83 98.3294 160.083 99.0699 160.083 100.043V105.901H158.021V100.362C158.021 99.8199 157.877 99.4241 157.589 99.1741C157.301 98.9203 156.949 98.7934 156.532 98.7934C156.036 98.7934 155.648 98.9487 155.368 99.2593C155.091 99.5661 154.953 99.9658 154.953 100.458V105.901H152.936V100.276C152.936 99.8256 152.799 99.4658 152.527 99.1968C152.258 98.9279 151.905 98.7934 151.47 98.7934C151.174 98.7934 150.905 98.8692 150.663 99.0207C150.421 99.1684 150.227 99.3786 150.083 99.6514C149.94 99.9203 149.868 100.235 149.868 100.595V105.901H147.811Z" fill="#3C3B3B"/>
<path d="M477.048 320.722V332.358H474.94V322.773H474.872L472.151 324.512V322.58L475.043 320.722H477.048ZM484.048 332.517C483.291 332.517 482.613 332.375 482.014 332.091C481.416 331.803 480.94 331.41 480.588 330.91C480.24 330.41 480.054 329.838 480.031 329.194H482.077C482.115 329.671 482.321 330.061 482.696 330.364C483.071 330.663 483.522 330.813 484.048 330.813C484.461 330.813 484.829 330.718 485.151 330.529C485.473 330.339 485.726 330.076 485.912 329.739C486.098 329.402 486.188 329.017 486.185 328.586C486.188 328.146 486.096 327.756 485.906 327.415C485.717 327.074 485.457 326.807 485.128 326.614C484.798 326.417 484.42 326.319 483.991 326.319C483.643 326.315 483.3 326.379 482.963 326.512C482.626 326.644 482.359 326.819 482.162 327.035L480.259 326.722L480.866 320.722H487.616V322.483H482.611L482.276 325.569H482.344C482.56 325.315 482.865 325.105 483.259 324.938C483.652 324.767 484.084 324.682 484.554 324.682C485.259 324.682 485.887 324.849 486.44 325.182C486.993 325.512 487.429 325.966 487.747 326.546C488.065 327.125 488.224 327.788 488.224 328.535C488.224 329.303 488.046 329.989 487.69 330.591C487.338 331.19 486.848 331.661 486.219 332.006C485.594 332.347 484.87 332.517 484.048 332.517ZM494.119 332.358V323.631H496.085V325.114H496.188C496.369 324.614 496.67 324.224 497.091 323.944C497.511 323.66 498.013 323.517 498.597 323.517C499.188 323.517 499.686 323.661 500.091 323.949C500.5 324.233 500.788 324.622 500.955 325.114H501.045C501.239 324.629 501.564 324.243 502.023 323.955C502.485 323.663 503.032 323.517 503.665 323.517C504.468 323.517 505.123 323.771 505.631 324.279C506.138 324.786 506.392 325.527 506.392 326.5V332.358H504.33V326.819C504.33 326.277 504.186 325.881 503.898 325.631C503.61 325.377 503.258 325.25 502.841 325.25C502.345 325.25 501.956 325.406 501.676 325.716C501.4 326.023 501.261 326.423 501.261 326.915V332.358H499.244V326.733C499.244 326.283 499.108 325.923 498.835 325.654C498.566 325.385 498.214 325.25 497.778 325.25C497.483 325.25 497.214 325.326 496.972 325.478C496.729 325.625 496.536 325.836 496.392 326.108C496.248 326.377 496.176 326.692 496.176 327.052V332.358H494.119ZM508.479 332.358V323.631H510.445V325.114H510.547C510.729 324.614 511.03 324.224 511.45 323.944C511.871 323.66 512.373 323.517 512.956 323.517C513.547 323.517 514.045 323.661 514.45 323.949C514.859 324.233 515.147 324.622 515.314 325.114H515.405C515.598 324.629 515.924 324.243 516.382 323.955C516.844 323.663 517.392 323.517 518.024 323.517C518.827 323.517 519.482 323.771 519.99 324.279C520.498 324.786 520.751 325.527 520.751 326.5V332.358H518.689V326.819C518.689 326.277 518.545 325.881 518.257 325.631C517.969 325.377 517.617 325.25 517.2 325.25C516.704 325.25 516.316 325.406 516.036 325.716C515.759 326.023 515.621 326.423 515.621 326.915V332.358H513.604V326.733C513.604 326.283 513.467 325.923 513.195 325.654C512.926 325.385 512.573 325.25 512.138 325.25C511.842 325.25 511.573 325.326 511.331 325.478C511.089 325.625 510.895 325.836 510.751 326.108C510.607 326.377 510.536 326.692 510.536 327.052V332.358H508.479Z" fill="#3C3B3B"/>
<path d="M341.268 313.117L351.063 318.066L351.143 318.066L351.143 312.322L352.904 312.322L352.904 320.248L351.103 320.248L341.268 315.305L341.268 313.117ZM341.268 322.082L342.79 322.082L346.751 326.122C347.141 326.508 347.487 326.83 347.79 327.088C348.093 327.345 348.387 327.538 348.671 327.667C348.955 327.796 349.258 327.86 349.58 327.86C349.948 327.86 350.262 327.777 350.523 327.61C350.788 327.444 350.993 327.215 351.137 326.923C351.281 326.631 351.353 326.3 351.353 325.929C351.353 325.546 351.273 325.211 351.114 324.923C350.959 324.635 350.737 324.411 350.449 324.252C350.162 324.097 349.819 324.019 349.421 324.019L349.421 322.014C350.16 322.014 350.802 322.182 351.347 322.519C351.893 322.857 352.315 323.321 352.614 323.911C352.913 324.506 353.063 325.188 353.063 325.957C353.063 326.737 352.917 327.423 352.626 328.014C352.334 328.605 351.934 329.063 351.427 329.389C350.919 329.718 350.34 329.883 349.688 329.883C349.252 329.883 348.824 329.8 348.404 329.633C347.983 329.466 347.518 329.173 347.006 328.752C346.495 328.336 345.876 327.751 345.148 326.997L343.108 324.991L343.029 324.991L343.029 330.059L341.268 330.059L341.268 322.082ZM341.268 336.011L349.995 336.011L349.995 337.977L348.512 337.977L348.512 338.079C349.012 338.261 349.402 338.562 349.682 338.983C349.966 339.403 350.108 339.905 350.108 340.488C350.108 341.079 349.965 341.577 349.677 341.983C349.393 342.392 349.004 342.679 348.512 342.846L348.512 342.937C348.997 343.13 349.383 343.456 349.671 343.914C349.963 344.376 350.108 344.924 350.108 345.556C350.108 346.359 349.855 347.015 349.347 347.522C348.84 348.03 348.099 348.284 347.126 348.284L341.268 348.284L341.268 346.221L346.807 346.221C347.349 346.221 347.745 346.077 347.995 345.789C348.249 345.501 348.376 345.149 348.376 344.733C348.376 344.236 348.22 343.848 347.91 343.568C347.603 343.291 347.203 343.153 346.711 343.153L341.268 343.153L341.268 341.136L346.893 341.136C347.343 341.136 347.703 341 347.972 340.727C348.241 340.458 348.376 340.106 348.376 339.67C348.376 339.375 348.3 339.106 348.148 338.863C348.001 338.621 347.79 338.428 347.518 338.284C347.249 338.14 346.934 338.068 346.574 338.068L341.268 338.068L341.268 336.011ZM341.268 350.37L349.995 350.37L349.995 352.336L348.512 352.336L348.512 352.438C349.012 352.62 349.402 352.921 349.682 353.342C349.966 353.762 350.108 354.264 350.108 354.848C350.108 355.438 349.965 355.937 349.677 356.342C349.393 356.751 349.004 357.039 348.512 357.206L348.512 357.296C348.997 357.49 349.383 357.815 349.671 358.274C349.963 358.736 350.108 359.283 350.108 359.916C350.108 360.719 349.855 361.374 349.347 361.882C348.84 362.389 348.099 362.643 347.126 362.643L341.268 362.643L341.268 360.581L346.807 360.581C347.349 360.581 347.745 360.437 347.995 360.149C348.249 359.861 348.376 359.509 348.376 359.092C348.376 358.596 348.22 358.207 347.91 357.927C347.603 357.651 347.203 357.512 346.711 357.512L341.268 357.512L341.268 355.495L346.893 355.495C347.343 355.495 347.703 355.359 347.972 355.086C348.241 354.817 348.376 354.465 348.376 354.029C348.376 353.734 348.3 353.465 348.148 353.223C348.001 352.98 347.79 352.787 347.518 352.643C347.249 352.499 346.934 352.427 346.574 352.427L341.268 352.427L341.268 350.37Z" fill="#3C3B3B"/>
<path d="M341.268 182.405L351.063 187.353L351.143 187.353L351.143 181.609L352.904 181.609L352.904 189.535L351.103 189.535L341.268 184.592L341.268 182.405ZM341.046 195.42C341.046 194.485 341.283 193.682 341.756 193.011C342.233 192.344 342.921 191.831 343.819 191.471C344.72 191.115 345.805 190.937 347.074 190.937C348.343 190.941 349.423 191.121 350.313 191.477C351.207 191.837 351.889 192.35 352.358 193.017C352.828 193.687 353.063 194.488 353.063 195.42C353.063 196.352 352.828 197.153 352.358 197.824C351.889 198.494 351.207 199.007 350.313 199.363C349.419 199.723 348.34 199.903 347.074 199.903C345.802 199.903 344.715 199.723 343.813 199.363C342.915 199.007 342.23 198.494 341.756 197.824C341.283 197.157 341.046 196.356 341.046 195.42ZM342.824 195.42C342.824 196.147 343.182 196.721 343.898 197.142C344.618 197.566 345.677 197.778 347.074 197.778C347.999 197.778 348.775 197.682 349.404 197.488C350.033 197.295 350.506 197.022 350.824 196.67C351.146 196.318 351.307 195.901 351.307 195.42C351.307 194.697 350.948 194.125 350.228 193.704C349.512 193.284 348.461 193.072 347.074 193.068C346.146 193.064 345.366 193.157 344.733 193.346C344.101 193.54 343.624 193.812 343.302 194.165C342.983 194.517 342.824 194.935 342.824 195.42ZM341.268 205.782L349.995 205.782L349.995 207.748L348.512 207.748L348.512 207.851C349.012 208.032 349.402 208.334 349.682 208.754C349.966 209.174 350.108 209.676 350.108 210.26C350.108 210.851 349.965 211.349 349.677 211.754C349.393 212.163 349.004 212.451 348.512 212.618L348.512 212.709C348.997 212.902 349.383 213.227 349.671 213.686C349.963 214.148 350.108 214.695 350.108 215.328C350.108 216.131 349.855 216.786 349.347 217.294C348.84 217.801 348.099 218.055 347.126 218.055L341.268 218.055L341.268 215.993L346.807 215.993C347.349 215.993 347.745 215.849 347.995 215.561C348.249 215.273 348.376 214.921 348.376 214.504C348.376 214.008 348.22 213.62 347.91 213.339C347.603 213.063 347.203 212.924 346.711 212.924L341.268 212.924L341.268 210.907L346.893 210.907C347.343 210.907 347.703 210.771 347.972 210.498C348.241 210.229 348.376 209.877 348.376 209.441C348.376 209.146 348.3 208.877 348.148 208.635C348.001 208.392 347.79 208.199 347.518 208.055C347.249 207.911 346.934 207.839 346.574 207.839L341.268 207.839L341.268 205.782ZM341.268 220.142L349.995 220.142L349.995 222.108L348.512 222.108L348.512 222.21C349.012 222.392 349.402 222.693 349.682 223.113C349.966 223.534 350.108 224.036 350.108 224.619C350.108 225.21 349.965 225.708 349.677 226.113C349.393 226.522 349.004 226.81 348.512 226.977L348.512 227.068C348.997 227.261 349.383 227.587 349.671 228.045C349.963 228.507 350.108 229.055 350.108 229.687C350.108 230.49 349.855 231.146 349.347 231.653C348.84 232.161 348.099 232.415 347.126 232.415L341.268 232.415L341.268 230.352L346.807 230.352C347.349 230.352 347.745 230.208 347.995 229.92C348.249 229.632 348.376 229.28 348.376 228.863C348.376 228.367 348.22 227.979 347.91 227.699C347.603 227.422 347.203 227.284 346.711 227.284L341.268 227.284L341.268 225.267L346.893 225.267C347.343 225.267 347.703 225.13 347.972 224.858C348.241 224.589 348.376 224.236 348.376 223.801C348.376 223.505 348.3 223.236 348.148 222.994C348.001 222.752 347.79 222.558 347.518 222.415C347.249 222.271 346.934 222.199 346.574 222.199L341.268 222.199L341.268 220.142Z" fill="#3C3B3B"/>
<line x1="184.046" y1="501.003" x2="184.046" y2="530.129" stroke="#D1D1D1" stroke-width="0.6"/>
<line x1="357.932" y1="273.821" x2="300.448" y2="273.82" stroke="#D1D1D1" stroke-width="0.6"/>
<line x1="357.932" y1="128.975" x2="328.806" y2="128.975" stroke="#D1D1D1" stroke-width="0.6"/>
<line x1="294.202" y1="501.003" x2="294.202" y2="530.129" stroke="#D1D1D1" stroke-width="0.6"/>
<line x1="356.268" y1="428.985" x2="288.279" y2="428.985" stroke="#D1D1D1" stroke-width="0.6"/>
<line x1="202.695" y1="515.865" x2="183.746" y2="515.865" stroke="#D1D1D1" stroke-width="0.6"/>
<line x1="190.145" y1="102.262" x2="171.195" y2="102.262" stroke="#D1D1D1" stroke-width="0.6"/>
<line x1="428.145" y1="344.256" x2="409.195" y2="344.256" stroke="#D1D1D1" stroke-width="0.6"/>
<line x1="219.139" y1="102.262" x2="200.189" y2="102.262" stroke="#D1D1D1" stroke-width="0.6"/>
<line x1="521.781" y1="344.256" x2="450.221" y2="344.256" stroke="#D1D1D1" stroke-width="0.6"/>
<line x1="343.067" y1="301.954" x2="343.067" y2="273.52" stroke="#D1D1D1" stroke-width="0.6"/>
<line x1="343.067" y1="172.515" x2="343.067" y2="128.675" stroke="#D1D1D1" stroke-width="0.6"/>
<line x1="293.902" y1="515.865" x2="273.167" y2="515.865" stroke="#D1D1D1" stroke-width="0.6"/>
<line x1="343.067" y1="428.685" x2="343.067" y2="375.434" stroke="#D1D1D1" stroke-width="0.6"/>
<line x1="343.067" y1="274.579" x2="343.067" y2="254.994" stroke="#D1D1D1" stroke-width="0.6"/>
</svg>
