<svg width="644" height="644" viewBox="0 0 644 644" fill="none" xmlns="http://www.w3.org/2000/svg">
<rect width="643.014" height="643.014" rx="51" fill="white"/>
<rect x="73.4441" y="69.5477" width="496.125" height="479.273" rx="10.55" stroke="#989898" stroke-width="0.9" stroke-dasharray="2.2 2.2"/>
<path d="M291.631 574.895C291.631 574.719 291.604 574.563 291.549 574.426C291.498 574.29 291.406 574.165 291.273 574.051C291.141 573.938 290.953 573.829 290.711 573.723C290.473 573.614 290.168 573.502 289.797 573.389C289.391 573.264 289.016 573.125 288.672 572.973C288.332 572.817 288.035 572.637 287.781 572.434C287.527 572.227 287.33 571.991 287.189 571.725C287.049 571.456 286.979 571.145 286.979 570.793C286.979 570.446 287.051 570.129 287.195 569.844C287.344 569.559 287.553 569.313 287.822 569.106C288.096 568.895 288.418 568.733 288.789 568.62C289.16 568.502 289.57 568.444 290.02 568.444C290.652 568.444 291.197 568.561 291.654 568.795C292.115 569.03 292.469 569.344 292.715 569.739C292.965 570.133 293.09 570.569 293.09 571.045H291.631C291.631 570.764 291.57 570.516 291.449 570.301C291.332 570.083 291.152 569.911 290.91 569.786C290.672 569.661 290.369 569.598 290.002 569.598C289.654 569.598 289.365 569.651 289.135 569.756C288.904 569.862 288.732 570.004 288.619 570.184C288.506 570.364 288.449 570.567 288.449 570.793C288.449 570.954 288.486 571.1 288.561 571.233C288.635 571.362 288.748 571.483 288.9 571.596C289.053 571.706 289.244 571.809 289.475 571.907C289.705 572.004 289.977 572.098 290.289 572.188C290.762 572.329 291.174 572.485 291.525 572.657C291.877 572.825 292.17 573.016 292.404 573.231C292.639 573.446 292.814 573.69 292.932 573.963C293.049 574.233 293.107 574.54 293.107 574.883C293.107 575.243 293.035 575.567 292.891 575.856C292.746 576.141 292.539 576.385 292.27 576.588C292.004 576.788 291.684 576.942 291.309 577.051C290.938 577.157 290.523 577.209 290.066 577.209C289.656 577.209 289.252 577.155 288.854 577.045C288.459 576.936 288.1 576.77 287.775 576.547C287.451 576.321 287.193 576.04 287.002 575.704C286.811 575.364 286.715 574.967 286.715 574.514H288.186C288.186 574.792 288.232 575.028 288.326 575.223C288.424 575.418 288.559 575.579 288.73 575.704C288.902 575.825 289.102 575.915 289.328 575.973C289.559 576.032 289.805 576.061 290.066 576.061C290.41 576.061 290.697 576.012 290.928 575.915C291.162 575.817 291.338 575.68 291.455 575.504C291.572 575.329 291.631 575.125 291.631 574.895ZM297.062 577.209C296.594 577.209 296.17 577.133 295.791 576.981C295.416 576.825 295.096 576.608 294.83 576.331C294.568 576.053 294.367 575.727 294.227 575.352C294.086 574.977 294.016 574.573 294.016 574.139V573.905C294.016 573.409 294.088 572.959 294.232 572.557C294.377 572.155 294.578 571.811 294.836 571.526C295.094 571.237 295.398 571.016 295.75 570.864C296.102 570.711 296.482 570.635 296.893 570.635C297.346 570.635 297.742 570.711 298.082 570.864C298.422 571.016 298.703 571.231 298.926 571.508C299.152 571.782 299.32 572.108 299.43 572.487C299.543 572.866 299.6 573.284 299.6 573.741V574.344H294.701V573.331H298.205V573.219C298.197 572.965 298.146 572.727 298.053 572.504C297.963 572.282 297.824 572.102 297.637 571.965C297.449 571.829 297.199 571.76 296.887 571.76C296.652 571.76 296.443 571.811 296.26 571.913C296.08 572.01 295.93 572.153 295.809 572.34C295.688 572.528 295.594 572.754 295.527 573.02C295.465 573.282 295.434 573.577 295.434 573.905V574.139C295.434 574.417 295.471 574.674 295.545 574.913C295.623 575.147 295.736 575.352 295.885 575.528C296.033 575.704 296.213 575.842 296.424 575.944C296.635 576.042 296.875 576.09 297.145 576.09C297.484 576.09 297.787 576.022 298.053 575.885C298.318 575.749 298.549 575.555 298.744 575.305L299.488 576.026C299.352 576.225 299.174 576.417 298.955 576.6C298.736 576.78 298.469 576.926 298.152 577.04C297.84 577.153 297.477 577.209 297.062 577.209ZM302.102 572.106V577.092H300.689V570.752H302.02L302.102 572.106ZM301.85 573.688L301.393 573.682C301.396 573.233 301.459 572.821 301.58 572.446C301.705 572.071 301.877 571.749 302.096 571.479C302.318 571.209 302.584 571.002 302.893 570.858C303.201 570.709 303.545 570.635 303.924 570.635C304.229 570.635 304.504 570.678 304.75 570.764C305 570.846 305.213 570.981 305.389 571.168C305.568 571.356 305.705 571.6 305.799 571.901C305.893 572.198 305.939 572.563 305.939 572.997V577.092H304.521V572.991C304.521 572.686 304.477 572.446 304.387 572.27C304.301 572.09 304.174 571.963 304.006 571.889C303.842 571.811 303.637 571.772 303.391 571.772C303.148 571.772 302.932 571.823 302.74 571.924C302.549 572.026 302.387 572.165 302.254 572.34C302.125 572.516 302.025 572.719 301.955 572.95C301.885 573.18 301.85 573.426 301.85 573.688ZM310.938 575.375C310.938 575.235 310.902 575.108 310.832 574.995C310.762 574.877 310.627 574.772 310.428 574.678C310.232 574.584 309.943 574.499 309.561 574.42C309.225 574.346 308.916 574.258 308.635 574.157C308.357 574.051 308.119 573.924 307.92 573.776C307.721 573.627 307.566 573.452 307.457 573.249C307.348 573.045 307.293 572.811 307.293 572.545C307.293 572.288 307.35 572.043 307.463 571.813C307.576 571.583 307.738 571.379 307.949 571.204C308.16 571.028 308.416 570.889 308.717 570.788C309.021 570.686 309.361 570.635 309.736 570.635C310.268 570.635 310.723 570.725 311.102 570.905C311.484 571.081 311.777 571.321 311.98 571.625C312.184 571.926 312.285 572.266 312.285 572.645H310.873C310.873 572.477 310.83 572.321 310.744 572.176C310.662 572.028 310.537 571.909 310.369 571.819C310.201 571.725 309.99 571.678 309.736 571.678C309.494 571.678 309.293 571.717 309.133 571.795C308.977 571.87 308.859 571.967 308.781 572.088C308.707 572.209 308.67 572.342 308.67 572.487C308.67 572.592 308.689 572.688 308.729 572.774C308.771 572.856 308.842 572.932 308.939 573.002C309.037 573.069 309.17 573.131 309.338 573.19C309.51 573.249 309.725 573.305 309.982 573.36C310.467 573.461 310.883 573.592 311.23 573.752C311.582 573.909 311.852 574.112 312.039 574.362C312.227 574.608 312.32 574.92 312.32 575.299C312.32 575.581 312.26 575.838 312.139 576.073C312.021 576.303 311.85 576.504 311.623 576.676C311.396 576.844 311.125 576.975 310.809 577.069C310.496 577.163 310.145 577.209 309.754 577.209C309.18 577.209 308.693 577.108 308.295 576.905C307.896 576.698 307.594 576.434 307.387 576.114C307.184 575.79 307.082 575.454 307.082 575.106H308.447C308.463 575.368 308.535 575.577 308.664 575.733C308.797 575.885 308.961 575.997 309.156 576.067C309.355 576.133 309.561 576.167 309.771 576.167C310.025 576.167 310.238 576.133 310.41 576.067C310.582 575.997 310.713 575.903 310.803 575.786C310.893 575.665 310.938 575.528 310.938 575.375ZM313.287 573.993V573.858C313.287 573.401 313.354 572.977 313.486 572.586C313.619 572.192 313.811 571.85 314.061 571.561C314.314 571.268 314.623 571.042 314.986 570.881C315.354 570.717 315.768 570.635 316.229 570.635C316.693 570.635 317.107 570.717 317.471 570.881C317.838 571.042 318.148 571.268 318.402 571.561C318.656 571.85 318.85 572.192 318.982 572.586C319.115 572.977 319.182 573.401 319.182 573.858V573.993C319.182 574.45 319.115 574.874 318.982 575.264C318.85 575.655 318.656 575.997 318.402 576.29C318.148 576.579 317.84 576.805 317.477 576.969C317.113 577.129 316.701 577.209 316.24 577.209C315.775 577.209 315.359 577.129 314.992 576.969C314.629 576.805 314.32 576.579 314.066 576.29C313.812 575.997 313.619 575.655 313.486 575.264C313.354 574.874 313.287 574.45 313.287 573.993ZM314.699 573.858V573.993C314.699 574.278 314.729 574.547 314.787 574.801C314.846 575.055 314.938 575.278 315.062 575.469C315.188 575.661 315.348 575.811 315.543 575.92C315.738 576.03 315.971 576.084 316.24 576.084C316.502 576.084 316.729 576.03 316.92 575.92C317.115 575.811 317.275 575.661 317.4 575.469C317.525 575.278 317.617 575.055 317.676 574.801C317.738 574.547 317.77 574.278 317.77 573.993V573.858C317.77 573.577 317.738 573.311 317.676 573.061C317.617 572.807 317.523 572.583 317.395 572.387C317.27 572.192 317.109 572.04 316.914 571.93C316.723 571.817 316.494 571.76 316.229 571.76C315.963 571.76 315.732 571.817 315.537 571.93C315.346 572.04 315.188 572.192 315.062 572.387C314.938 572.583 314.846 572.807 314.787 573.061C314.729 573.311 314.699 573.577 314.699 573.858ZM321.783 571.959V577.092H320.371V570.752H321.719L321.783 571.959ZM323.723 570.711L323.711 572.024C323.625 572.008 323.531 571.997 323.43 571.989C323.332 571.981 323.234 571.977 323.137 571.977C322.895 571.977 322.682 572.012 322.498 572.083C322.314 572.149 322.16 572.247 322.035 572.375C321.914 572.5 321.82 572.653 321.754 572.833C321.688 573.012 321.648 573.213 321.637 573.436L321.314 573.459C321.314 573.061 321.354 572.692 321.432 572.352C321.51 572.012 321.627 571.713 321.783 571.456C321.943 571.198 322.143 570.997 322.381 570.852C322.623 570.708 322.902 570.635 323.219 570.635C323.305 570.635 323.396 570.643 323.494 570.659C323.596 570.674 323.672 570.692 323.723 570.711ZM330.977 573.911H328.756V572.745H330.977C331.363 572.745 331.676 572.682 331.914 572.557C332.152 572.432 332.326 572.26 332.436 572.042C332.549 571.819 332.605 571.565 332.605 571.28C332.605 571.01 332.549 570.758 332.436 570.524C332.326 570.286 332.152 570.094 331.914 569.95C331.676 569.805 331.363 569.733 330.977 569.733H329.207V577.092H327.736V568.561H330.977C331.637 568.561 332.197 568.678 332.658 568.913C333.123 569.143 333.477 569.463 333.719 569.874C333.961 570.28 334.082 570.745 334.082 571.268C334.082 571.819 333.961 572.292 333.719 572.686C333.477 573.081 333.123 573.383 332.658 573.594C332.197 573.805 331.637 573.911 330.977 573.911ZM336.678 571.959V577.092H335.266V570.752H336.613L336.678 571.959ZM338.617 570.711L338.605 572.024C338.52 572.008 338.426 571.997 338.324 571.989C338.227 571.981 338.129 571.977 338.031 571.977C337.789 571.977 337.576 572.012 337.393 572.083C337.209 572.149 337.055 572.247 336.93 572.375C336.809 572.5 336.715 572.653 336.648 572.833C336.582 573.012 336.543 573.213 336.531 573.436L336.209 573.459C336.209 573.061 336.248 572.692 336.326 572.352C336.404 572.012 336.521 571.713 336.678 571.456C336.838 571.198 337.037 570.997 337.275 570.852C337.518 570.708 337.797 570.635 338.113 570.635C338.199 570.635 338.291 570.643 338.389 570.659C338.49 570.674 338.566 570.692 338.617 570.711ZM339.08 573.993V573.858C339.08 573.401 339.146 572.977 339.279 572.586C339.412 572.192 339.604 571.85 339.854 571.561C340.107 571.268 340.416 571.042 340.779 570.881C341.146 570.717 341.561 570.635 342.021 570.635C342.486 570.635 342.9 570.717 343.264 570.881C343.631 571.042 343.941 571.268 344.195 571.561C344.449 571.85 344.643 572.192 344.775 572.586C344.908 572.977 344.975 573.401 344.975 573.858V573.993C344.975 574.45 344.908 574.874 344.775 575.264C344.643 575.655 344.449 575.997 344.195 576.29C343.941 576.579 343.633 576.805 343.27 576.969C342.906 577.129 342.494 577.209 342.033 577.209C341.568 577.209 341.152 577.129 340.785 576.969C340.422 576.805 340.113 576.579 339.859 576.29C339.605 575.997 339.412 575.655 339.279 575.264C339.146 574.874 339.08 574.45 339.08 573.993ZM340.492 573.858V573.993C340.492 574.278 340.521 574.547 340.58 574.801C340.639 575.055 340.73 575.278 340.855 575.469C340.98 575.661 341.141 575.811 341.336 575.92C341.531 576.03 341.764 576.084 342.033 576.084C342.295 576.084 342.521 576.03 342.713 575.92C342.908 575.811 343.068 575.661 343.193 575.469C343.318 575.278 343.41 575.055 343.469 574.801C343.531 574.547 343.562 574.278 343.562 573.993V573.858C343.562 573.577 343.531 573.311 343.469 573.061C343.41 572.807 343.316 572.583 343.188 572.387C343.062 572.192 342.902 572.04 342.707 571.93C342.516 571.817 342.287 571.76 342.021 571.76C341.756 571.76 341.525 571.817 341.33 571.93C341.139 572.04 340.98 572.192 340.855 572.387C340.73 572.583 340.639 572.807 340.58 573.061C340.521 573.311 340.492 573.577 340.492 573.858ZM346.164 568.092H347.576V575.739L347.441 577.092H346.164V568.092ZM351.713 573.864V573.987C351.713 574.456 351.66 574.887 351.555 575.282C351.453 575.672 351.297 576.012 351.086 576.301C350.879 576.59 350.621 576.815 350.312 576.975C350.008 577.131 349.654 577.209 349.252 577.209C348.857 577.209 348.514 577.135 348.221 576.987C347.928 576.838 347.682 576.627 347.482 576.354C347.287 576.081 347.129 575.754 347.008 575.375C346.887 574.997 346.801 574.579 346.75 574.122V573.729C346.801 573.268 346.887 572.85 347.008 572.475C347.129 572.096 347.287 571.77 347.482 571.497C347.682 571.219 347.926 571.006 348.215 570.858C348.508 570.709 348.85 570.635 349.24 570.635C349.646 570.635 350.004 570.713 350.312 570.87C350.625 571.026 350.885 571.249 351.092 571.538C351.299 571.823 351.453 572.163 351.555 572.557C351.66 572.952 351.713 573.387 351.713 573.864ZM350.301 573.987V573.864C350.301 573.579 350.277 573.311 350.23 573.061C350.184 572.807 350.105 572.584 349.996 572.393C349.891 572.202 349.746 572.051 349.562 571.942C349.383 571.829 349.158 571.772 348.889 571.772C348.639 571.772 348.424 571.815 348.244 571.901C348.064 571.987 347.914 572.104 347.793 572.252C347.672 572.401 347.576 572.573 347.506 572.768C347.439 572.963 347.395 573.174 347.371 573.401V574.461C347.406 574.754 347.48 575.024 347.594 575.27C347.711 575.512 347.875 575.708 348.086 575.856C348.297 576 348.568 576.073 348.9 576.073C349.162 576.073 349.383 576.02 349.562 575.915C349.742 575.809 349.885 575.663 349.99 575.475C350.1 575.284 350.178 575.061 350.225 574.807C350.275 574.553 350.301 574.28 350.301 573.987ZM355.703 577.209C355.234 577.209 354.811 577.133 354.432 576.981C354.057 576.825 353.736 576.608 353.471 576.331C353.209 576.053 353.008 575.727 352.867 575.352C352.727 574.977 352.656 574.573 352.656 574.139V573.905C352.656 573.409 352.729 572.959 352.873 572.557C353.018 572.155 353.219 571.811 353.477 571.526C353.734 571.237 354.039 571.016 354.391 570.864C354.742 570.711 355.123 570.635 355.533 570.635C355.986 570.635 356.383 570.711 356.723 570.864C357.062 571.016 357.344 571.231 357.566 571.508C357.793 571.782 357.961 572.108 358.07 572.487C358.184 572.866 358.24 573.284 358.24 573.741V574.344H353.342V573.331H356.846V573.219C356.838 572.965 356.787 572.727 356.693 572.504C356.604 572.282 356.465 572.102 356.277 571.965C356.09 571.829 355.84 571.76 355.527 571.76C355.293 571.76 355.084 571.811 354.9 571.913C354.721 572.01 354.57 572.153 354.449 572.34C354.328 572.528 354.234 572.754 354.168 573.02C354.105 573.282 354.074 573.577 354.074 573.905V574.139C354.074 574.417 354.111 574.674 354.186 574.913C354.264 575.147 354.377 575.352 354.525 575.528C354.674 575.704 354.854 575.842 355.064 575.944C355.275 576.042 355.516 576.09 355.785 576.09C356.125 576.09 356.428 576.022 356.693 575.885C356.959 575.749 357.189 575.555 357.385 575.305L358.129 576.026C357.992 576.225 357.814 576.417 357.596 576.6C357.377 576.78 357.109 576.926 356.793 577.04C356.48 577.153 356.117 577.209 355.703 577.209Z" fill="#303031"/>
<path d="M290.454 273.196V414.622C290.454 422.657 283.94 429.172 275.904 429.172H195.832C187.796 429.172 181.282 422.657 181.282 414.622V273.196H290.454Z" stroke="black" stroke-width="0.9"/>
<path d="M446.772 273.196V421.623C446.772 425.792 443.392 429.172 439.223 429.172H433.148C428.979 429.172 425.599 425.791 425.599 421.622V273.196H446.772Z" stroke="black" stroke-width="0.9"/>
<path d="M248.086 430.072V441.092C248.086 443.605 246.049 445.643 243.536 445.643H229.197C226.132 445.643 223.648 443.158 223.647 440.093V430.072H248.086Z" stroke="black" stroke-width="0.9"/>
<path d="M440.871 429.225V440.578C440.871 442.907 438.983 444.795 436.653 444.795C433.809 444.795 431.503 442.489 431.503 439.644V429.225H440.871Z" stroke="black" stroke-width="0.9"/>
<path d="M188.318 273.16L188.318 142.606L196.435 142.606L196.435 273.16L188.318 273.16Z" stroke="black" stroke-width="0.9"/>
<path d="M432.635 273.16L432.635 142.606L440.751 142.606L440.751 273.16L432.635 273.16Z" stroke="black" stroke-width="0.9"/>
<path d="M202.816 273.16L202.816 142.606L210.933 142.606L210.933 273.16L202.816 273.16Z" stroke="black" stroke-width="0.9"/>
<path d="M217.314 273.16L217.314 142.606L225.431 142.606L225.431 273.16L217.314 273.16Z" stroke="black" stroke-width="0.9"/>
<path d="M231.811 273.16L231.811 142.606L239.927 142.606L239.927 273.16L231.811 273.16Z" stroke="black" stroke-width="0.9"/>
<path d="M246.307 273.16L246.307 142.606L254.423 142.606L254.423 273.16L246.307 273.16Z" stroke="black" stroke-width="0.9"/>
<path d="M260.803 273.16L260.803 142.606L268.919 142.606L268.919 273.16L260.803 273.16Z" stroke="black" stroke-width="0.9"/>
<path d="M275.301 273.16L275.301 142.606L283.417 142.606L283.417 273.16L275.301 273.16Z" stroke="black" stroke-width="0.9"/>
<path d="M196.21 141.646H188.546L192.378 130.323L196.21 141.646Z" stroke="black"/>
<path d="M440.526 141.646H432.862L436.694 130.323L440.526 141.646Z" stroke="black"/>
<path d="M210.708 141.646H203.044L206.876 130.323L210.708 141.646Z" stroke="black"/>
<path d="M225.204 141.646H217.54L221.372 130.323L225.204 141.646Z" stroke="black"/>
<path d="M239.7 141.646H232.036L235.868 130.323L239.7 141.646Z" stroke="black"/>
<path d="M254.196 141.646H246.532L250.364 130.323L254.196 141.646Z" stroke="black"/>
<path d="M268.692 141.646H261.028L264.86 130.323L268.692 141.646Z" stroke="black"/>
<path d="M283.19 141.646H275.526L279.358 130.323L283.19 141.646Z" stroke="black"/>
<path d="M196.21 141.646H188.546L192.378 130.323L196.21 141.646Z" stroke="black"/>
<path d="M440.526 141.646H432.862L436.694 130.323L440.526 141.646Z" stroke="black"/>
<path d="M210.708 141.646H203.044L206.876 130.323L210.708 141.646Z" stroke="black"/>
<path d="M225.204 141.646H217.54L221.372 130.323L225.204 141.646Z" stroke="black"/>
<path d="M239.7 141.646H232.036L235.868 130.323L239.7 141.646Z" stroke="black"/>
<path d="M254.196 141.646H246.532L250.364 130.323L254.196 141.646Z" stroke="black"/>
<path d="M268.692 141.646H261.028L264.86 130.323L268.692 141.646Z" stroke="black"/>
<path d="M283.19 141.646H275.526L279.358 130.323L283.19 141.646Z" stroke="black"/>
<line x1="197.185" y1="83.7305" x2="197.185" y2="125.305" stroke="#D1D1D1" stroke-width="0.6"/>
<line x1="187.448" y1="83.7305" x2="187.448" y2="125.537" stroke="#D1D1D1" stroke-width="0.6"/>
<path d="M210.966 515.597V513.921L215.904 506.119H217.302V508.506H216.449L213.126 513.773V513.864H220.018V515.597H210.966ZM216.518 517.756V515.085L216.54 514.335V506.119H218.529V517.756H216.518ZM225.878 517.915C225.121 517.915 224.443 517.773 223.844 517.489C223.246 517.201 222.77 516.807 222.418 516.307C222.07 515.807 221.884 515.235 221.861 514.591H223.907C223.945 515.068 224.151 515.459 224.526 515.762C224.901 516.061 225.352 516.21 225.878 516.21C226.291 516.21 226.659 516.116 226.981 515.926C227.303 515.737 227.556 515.474 227.742 515.137C227.928 514.799 228.019 514.415 228.015 513.983C228.019 513.544 227.926 513.154 227.736 512.813C227.547 512.472 227.287 512.205 226.958 512.012C226.628 511.815 226.25 511.716 225.822 511.716C225.473 511.712 225.13 511.777 224.793 511.909C224.456 512.042 224.189 512.216 223.992 512.432L222.089 512.119L222.697 506.119H229.447V507.881H224.441L224.106 510.966H224.174C224.39 510.712 224.695 510.502 225.089 510.335C225.483 510.165 225.914 510.08 226.384 510.08C227.089 510.08 227.717 510.246 228.27 510.58C228.823 510.909 229.259 511.364 229.577 511.943C229.895 512.523 230.055 513.186 230.055 513.932C230.055 514.701 229.876 515.387 229.52 515.989C229.168 516.587 228.678 517.059 228.049 517.404C227.424 517.744 226.7 517.915 225.878 517.915ZM235.949 517.756V509.029H237.915V510.512H238.018C238.199 510.012 238.501 509.621 238.921 509.341C239.341 509.057 239.843 508.915 240.427 508.915C241.018 508.915 241.516 509.059 241.921 509.347C242.33 509.631 242.618 510.019 242.785 510.512H242.876C243.069 510.027 243.394 509.64 243.853 509.352C244.315 509.061 244.862 508.915 245.495 508.915C246.298 508.915 246.953 509.169 247.461 509.676C247.968 510.184 248.222 510.924 248.222 511.898V517.756H246.16V512.216C246.16 511.674 246.016 511.279 245.728 511.029C245.44 510.775 245.088 510.648 244.671 510.648C244.175 510.648 243.787 510.803 243.506 511.114C243.23 511.421 243.091 511.82 243.091 512.313V517.756H241.074V512.131C241.074 511.68 240.938 511.32 240.665 511.051C240.396 510.782 240.044 510.648 239.608 510.648C239.313 510.648 239.044 510.724 238.802 510.875C238.559 511.023 238.366 511.233 238.222 511.506C238.078 511.775 238.006 512.089 238.006 512.449V517.756H235.949ZM250.309 517.756V509.029H252.275V510.512H252.377C252.559 510.012 252.86 509.621 253.28 509.341C253.701 509.057 254.203 508.915 254.786 508.915C255.377 508.915 255.875 509.059 256.28 509.347C256.689 509.631 256.977 510.019 257.144 510.512H257.235C257.428 510.027 257.754 509.64 258.212 509.352C258.674 509.061 259.222 508.915 259.854 508.915C260.657 508.915 261.313 509.169 261.82 509.676C262.328 510.184 262.581 510.924 262.581 511.898V517.756H260.519V512.216C260.519 511.674 260.375 511.279 260.087 511.029C259.799 510.775 259.447 510.648 259.03 510.648C258.534 510.648 258.146 510.803 257.866 511.114C257.589 511.421 257.451 511.82 257.451 512.313V517.756H255.434V512.131C255.434 511.68 255.297 511.32 255.025 511.051C254.756 510.782 254.403 510.648 253.968 510.648C253.672 510.648 253.403 510.724 253.161 510.875C252.919 511.023 252.725 511.233 252.581 511.506C252.438 511.775 252.366 512.089 252.366 512.449V517.756H250.309Z" fill="#3C3B3B"/>
<path d="M109.669 106.213C108.734 106.213 107.931 105.976 107.26 105.503C106.593 105.025 106.08 104.338 105.72 103.44C105.364 102.539 105.186 101.453 105.186 100.184C105.19 98.9155 105.37 97.8359 105.726 96.9458C106.086 96.0518 106.599 95.37 107.266 94.9003C107.936 94.4306 108.737 94.1958 109.669 94.1958C110.601 94.1958 111.402 94.4306 112.073 94.9003C112.743 95.37 113.256 96.0518 113.612 96.9458C113.972 97.8397 114.152 98.9192 114.152 100.184C114.152 101.457 113.972 102.544 113.612 103.446C113.256 104.343 112.743 105.029 112.073 105.503C111.406 105.976 110.605 106.213 109.669 106.213ZM109.669 104.434C110.396 104.434 110.97 104.076 111.391 103.361C111.815 102.641 112.027 101.582 112.027 100.184C112.027 99.2602 111.931 98.4836 111.737 97.8548C111.544 97.2261 111.271 96.7526 110.919 96.4344C110.567 96.1124 110.15 95.9514 109.669 95.9514C108.946 95.9514 108.374 96.3113 107.953 97.031C107.533 97.7469 107.321 98.798 107.317 100.184C107.313 101.112 107.406 101.893 107.595 102.525C107.789 103.158 108.061 103.635 108.414 103.957C108.766 104.275 109.184 104.434 109.669 104.434ZM120.216 106.15C119.398 106.15 118.671 106.01 118.034 105.73C117.402 105.45 116.902 105.059 116.534 104.559C116.167 104.059 115.972 103.482 115.949 102.826H118.085C118.104 103.141 118.209 103.415 118.398 103.65C118.587 103.881 118.839 104.061 119.154 104.19C119.468 104.319 119.82 104.383 120.21 104.383C120.627 104.383 120.996 104.311 121.318 104.167C121.64 104.02 121.892 103.815 122.074 103.554C122.256 103.292 122.345 102.991 122.341 102.65C122.345 102.298 122.254 101.987 122.068 101.718C121.883 101.45 121.614 101.239 121.262 101.088C120.913 100.936 120.493 100.861 120 100.861H118.972V99.2355H120C120.405 99.2355 120.76 99.1655 121.063 99.0253C121.369 98.8852 121.61 98.6882 121.784 98.4344C121.959 98.1768 122.044 97.8795 122.04 97.5423C122.044 97.2128 121.97 96.9268 121.818 96.6844C121.671 96.4382 121.46 96.2469 121.188 96.1105C120.919 95.9742 120.602 95.906 120.239 95.906C119.883 95.906 119.553 95.9704 119.25 96.0992C118.947 96.228 118.703 96.4117 118.517 96.6503C118.332 96.8851 118.233 97.1655 118.222 97.4912H116.193C116.209 96.8397 116.396 96.2677 116.756 95.7753C117.119 95.2791 117.604 94.8927 118.21 94.6162C118.816 94.3359 119.496 94.1958 120.25 94.1958C121.027 94.1958 121.701 94.3416 122.273 94.6333C122.849 94.9211 123.294 95.3094 123.608 95.798C123.923 96.2867 124.08 96.8264 124.08 97.4173C124.084 98.0726 123.89 98.6219 123.5 99.0651C123.114 99.5083 122.606 99.798 121.977 99.9344V100.025C122.796 100.139 123.423 100.442 123.858 100.934C124.298 101.423 124.515 102.031 124.512 102.758C124.512 103.41 124.326 103.993 123.955 104.508C123.587 105.02 123.08 105.421 122.432 105.713C121.788 106.004 121.049 106.15 120.216 106.15ZM130.453 105.991V97.2639H132.419V98.7469H132.521C132.703 98.2469 133.004 97.8567 133.425 97.5764C133.845 97.2923 134.347 97.1503 134.931 97.1503C135.521 97.1503 136.02 97.2942 136.425 97.5821C136.834 97.8662 137.122 98.2545 137.289 98.7469H137.379C137.573 98.262 137.898 97.8757 138.357 97.5878C138.819 97.2961 139.366 97.1503 139.999 97.1503C140.802 97.1503 141.457 97.4041 141.965 97.9117C142.472 98.4192 142.726 99.1598 142.726 100.133V105.991H140.664V100.451C140.664 99.9098 140.52 99.5139 140.232 99.2639C139.944 99.0101 139.592 98.8833 139.175 98.8833C138.679 98.8833 138.29 99.0386 138.01 99.3492C137.734 99.656 137.595 100.056 137.595 100.548V105.991H135.578V100.366C135.578 99.9155 135.442 99.5556 135.169 99.2867C134.9 99.0177 134.548 98.8833 134.112 98.8833C133.817 98.8833 133.548 98.959 133.306 99.1105C133.063 99.2583 132.87 99.4685 132.726 99.7412C132.582 100.01 132.51 100.325 132.51 100.684V105.991H130.453ZM144.813 105.991V97.2639H146.779V98.7469H146.881C147.063 98.2469 147.364 97.8567 147.784 97.5764C148.205 97.2923 148.707 97.1503 149.29 97.1503C149.881 97.1503 150.379 97.2942 150.784 97.5821C151.193 97.8662 151.481 98.2545 151.648 98.7469H151.739C151.932 98.262 152.258 97.8757 152.716 97.5878C153.178 97.2961 153.726 97.1503 154.358 97.1503C155.161 97.1503 155.816 97.4041 156.324 97.9117C156.832 98.4192 157.085 99.1598 157.085 100.133V105.991H155.023V100.451C155.023 99.9098 154.879 99.5139 154.591 99.2639C154.303 99.0101 153.951 98.8833 153.534 98.8833C153.038 98.8833 152.65 99.0386 152.369 99.3492C152.093 99.656 151.955 100.056 151.955 100.548V105.991H149.938V100.366C149.938 99.9155 149.801 99.5556 149.529 99.2867C149.26 99.0177 148.907 98.8833 148.472 98.8833C148.176 98.8833 147.907 98.959 147.665 99.1105C147.423 99.2583 147.229 99.4685 147.085 99.7412C146.941 100.01 146.869 100.325 146.869 100.684V105.991H144.813Z" fill="#3C3B3B"/>
<path d="M474.05 320.813V332.449H471.942V322.864H471.874L469.153 324.603V322.671L472.045 320.813H474.05ZM481.05 332.608C480.293 332.608 479.615 332.466 479.016 332.182C478.418 331.894 477.942 331.5 477.59 331C477.242 330.5 477.056 329.928 477.033 329.284H479.079C479.117 329.762 479.323 330.152 479.698 330.455C480.073 330.754 480.524 330.904 481.05 330.904C481.463 330.904 481.831 330.809 482.153 330.62C482.474 330.43 482.728 330.167 482.914 329.83C483.099 329.493 483.19 329.108 483.187 328.676C483.19 328.237 483.098 327.847 482.908 327.506C482.719 327.165 482.459 326.898 482.13 326.705C481.8 326.508 481.421 326.409 480.993 326.409C480.645 326.406 480.302 326.47 479.965 326.603C479.628 326.735 479.361 326.909 479.164 327.125L477.26 326.813L477.868 320.813H484.618V322.574H479.613L479.278 325.659H479.346C479.562 325.406 479.867 325.195 480.26 325.029C480.654 324.858 481.086 324.773 481.556 324.773C482.26 324.773 482.889 324.94 483.442 325.273C483.995 325.603 484.431 326.057 484.749 326.637C485.067 327.216 485.226 327.879 485.226 328.625C485.226 329.394 485.048 330.08 484.692 330.682C484.34 331.281 483.849 331.752 483.221 332.097C482.596 332.438 481.872 332.608 481.05 332.608ZM491.121 332.449V323.722H493.087V325.205H493.189C493.371 324.705 493.672 324.315 494.093 324.034C494.513 323.75 495.015 323.608 495.599 323.608C496.189 323.608 496.688 323.752 497.093 324.04C497.502 324.324 497.79 324.712 497.956 325.205H498.047C498.241 324.72 498.566 324.334 499.025 324.046C499.487 323.754 500.034 323.608 500.667 323.608C501.47 323.608 502.125 323.862 502.633 324.37C503.14 324.877 503.394 325.618 503.394 326.591V332.449H501.331V326.909C501.331 326.368 501.188 325.972 500.9 325.722C500.612 325.468 500.26 325.341 499.843 325.341C499.347 325.341 498.958 325.497 498.678 325.807C498.402 326.114 498.263 326.514 498.263 327.006V332.449H496.246V326.824C496.246 326.373 496.11 326.014 495.837 325.745C495.568 325.476 495.216 325.341 494.78 325.341C494.485 325.341 494.216 325.417 493.974 325.569C493.731 325.716 493.538 325.926 493.394 326.199C493.25 326.468 493.178 326.783 493.178 327.142V332.449H491.121ZM505.481 332.449V323.722H507.447V325.205H507.549C507.731 324.705 508.032 324.315 508.452 324.034C508.873 323.75 509.375 323.608 509.958 323.608C510.549 323.608 511.047 323.752 511.452 324.04C511.861 324.324 512.149 324.712 512.316 325.205H512.407C512.6 324.72 512.926 324.334 513.384 324.046C513.846 323.754 514.394 323.608 515.026 323.608C515.829 323.608 516.484 323.862 516.992 324.37C517.5 324.877 517.753 325.618 517.753 326.591V332.449H515.691V326.909C515.691 326.368 515.547 325.972 515.259 325.722C514.971 325.468 514.619 325.341 514.202 325.341C513.706 325.341 513.318 325.497 513.037 325.807C512.761 326.114 512.623 326.514 512.623 327.006V332.449H510.606V326.824C510.606 326.373 510.469 326.014 510.197 325.745C509.928 325.476 509.575 325.341 509.14 325.341C508.844 325.341 508.575 325.417 508.333 325.569C508.09 325.716 507.897 325.926 507.753 326.199C507.609 326.468 507.537 326.783 507.537 327.142V332.449H505.481Z" fill="#3C3B3B"/>
<path d="M338.271 313.208L348.067 318.157L348.146 318.157L348.146 312.412L349.908 312.412L349.908 320.338L348.107 320.338L338.271 315.395L338.271 313.208ZM338.271 322.172L339.794 322.172L343.754 326.212C344.145 326.598 344.491 326.92 344.794 327.178C345.097 327.436 345.391 327.629 345.675 327.758C345.959 327.886 346.262 327.951 346.584 327.951C346.951 327.951 347.266 327.867 347.527 327.701C347.792 327.534 347.997 327.305 348.141 327.013C348.285 326.722 348.357 326.39 348.357 326.019C348.357 325.636 348.277 325.301 348.118 325.013C347.963 324.725 347.741 324.502 347.453 324.343C347.165 324.187 346.823 324.11 346.425 324.11L346.425 322.104C347.164 322.104 347.806 322.273 348.351 322.61C348.896 322.947 349.319 323.411 349.618 324.002C349.917 324.597 350.067 325.278 350.067 326.047C350.067 326.828 349.921 327.513 349.629 328.104C349.338 328.695 348.938 329.153 348.431 329.479C347.923 329.809 347.343 329.973 346.692 329.973C346.256 329.973 345.828 329.89 345.408 329.723C344.987 329.557 344.521 329.263 344.01 328.843C343.499 328.426 342.879 327.841 342.152 327.087L340.112 325.081L340.033 325.081L340.033 330.15L338.271 330.15L338.271 322.172ZM338.271 336.101L346.999 336.101L346.999 338.067L345.516 338.067L345.516 338.169C346.016 338.351 346.406 338.652 346.686 339.073C346.97 339.493 347.112 339.995 347.112 340.579C347.112 341.169 346.968 341.668 346.681 342.073C346.396 342.482 346.008 342.77 345.516 342.936L345.516 343.027C346.001 343.221 346.387 343.546 346.675 344.005C346.967 344.467 347.112 345.014 347.112 345.647C347.112 346.45 346.859 347.105 346.351 347.613C345.843 348.12 345.103 348.374 344.129 348.374L338.271 348.374L338.271 346.311L343.811 346.311C344.353 346.311 344.749 346.168 344.999 345.88C345.253 345.592 345.379 345.24 345.379 344.823C345.379 344.327 345.224 343.938 344.914 343.658C344.607 343.382 344.207 343.243 343.715 343.243L338.271 343.243L338.271 341.226L343.896 341.226C344.347 341.226 344.707 341.09 344.976 340.817C345.245 340.548 345.379 340.196 345.379 339.76C345.379 339.465 345.304 339.196 345.152 338.954C345.004 338.711 344.794 338.518 344.521 338.374C344.253 338.23 343.938 338.158 343.578 338.158L338.271 338.158L338.271 336.101ZM338.271 350.461L346.999 350.461L346.999 352.427L345.516 352.427L345.516 352.529C346.016 352.711 346.406 353.012 346.686 353.432C346.97 353.853 347.112 354.355 347.112 354.938C347.112 355.529 346.968 356.027 346.681 356.432C346.396 356.841 346.008 357.129 345.516 357.296L345.516 357.387C346.001 357.58 346.387 357.906 346.675 358.364C346.967 358.826 347.112 359.374 347.112 360.006C347.112 360.809 346.859 361.464 346.351 361.972C345.843 362.48 345.103 362.733 344.129 362.733L338.271 362.733L338.271 360.671L343.811 360.671C344.353 360.671 344.749 360.527 344.999 360.239C345.253 359.951 345.379 359.599 345.379 359.182C345.379 358.686 345.224 358.298 344.914 358.017C344.607 357.741 344.207 357.603 343.715 357.603L338.271 357.603L338.271 355.586L343.896 355.586C344.347 355.586 344.707 355.449 344.976 355.177C345.245 354.908 345.379 354.555 345.379 354.12C345.379 353.824 345.304 353.555 345.152 353.313C345.004 353.07 344.794 352.877 344.521 352.733C344.253 352.589 343.938 352.517 343.578 352.517L338.271 352.517L338.271 350.461Z" fill="#3C3B3B"/>
<path d="M338.271 182.493L348.067 187.442L348.146 187.442L348.146 181.698L349.908 181.698L349.908 189.624L348.107 189.624L338.271 184.681L338.271 182.493ZM338.05 195.509C338.05 194.573 338.287 193.77 338.76 193.1C339.237 192.433 339.925 191.92 340.823 191.56C341.724 191.204 342.809 191.026 344.078 191.026C345.347 191.03 346.427 191.21 347.317 191.566C348.211 191.926 348.893 192.439 349.362 193.106C349.832 193.776 350.067 194.577 350.067 195.509C350.067 196.441 349.832 197.242 349.362 197.912C348.893 198.583 348.211 199.096 347.317 199.452C346.423 199.812 345.343 199.992 344.078 199.992C342.806 199.992 341.718 199.812 340.817 199.452C339.919 199.096 339.234 198.583 338.76 197.912C338.287 197.246 338.05 196.445 338.05 195.509ZM339.828 195.509C339.828 196.236 340.186 196.81 340.902 197.231C341.622 197.655 342.681 197.867 344.078 197.867C345.003 197.867 345.779 197.77 346.408 197.577C347.037 197.384 347.51 197.111 347.828 196.759C348.15 196.407 348.311 195.99 348.311 195.509C348.311 194.786 347.951 194.214 347.232 193.793C346.516 193.373 345.465 193.161 344.078 193.157C343.15 193.153 342.37 193.246 341.737 193.435C341.105 193.628 340.628 193.901 340.306 194.253C339.987 194.606 339.828 195.024 339.828 195.509ZM338.271 205.871L346.999 205.871L346.999 207.837L345.516 207.837L345.516 207.939C346.016 208.121 346.406 208.422 346.686 208.843C346.97 209.263 347.112 209.765 347.112 210.349C347.112 210.939 346.968 211.438 346.681 211.843C346.396 212.252 346.008 212.54 345.516 212.706L345.516 212.797C346.001 212.991 346.387 213.316 346.675 213.775C346.967 214.237 347.112 214.784 347.112 215.417C347.112 216.22 346.859 216.875 346.351 217.383C345.843 217.89 345.103 218.144 344.129 218.144L338.271 218.144L338.271 216.081L343.811 216.081C344.353 216.081 344.749 215.938 344.999 215.65C345.253 215.362 345.379 215.01 345.379 214.593C345.379 214.097 345.224 213.708 344.914 213.428C344.607 213.152 344.207 213.013 343.715 213.013L338.271 213.013L338.271 210.996L343.896 210.996C344.347 210.996 344.707 210.86 344.976 210.587C345.245 210.318 345.379 209.966 345.379 209.53C345.379 209.235 345.304 208.966 345.152 208.724C345.004 208.481 344.794 208.288 344.521 208.144C344.253 208 343.938 207.928 343.578 207.928L338.271 207.928L338.271 205.871ZM338.271 220.231L346.999 220.231L346.999 222.197L345.516 222.197L345.516 222.299C346.016 222.481 346.406 222.782 346.686 223.202C346.97 223.623 347.112 224.125 347.112 224.708C347.112 225.299 346.968 225.797 346.681 226.202C346.396 226.611 346.008 226.899 345.516 227.066L345.516 227.157C346.001 227.35 346.387 227.676 346.675 228.134C346.967 228.596 347.112 229.144 347.112 229.776C347.112 230.579 346.859 231.234 346.351 231.742C345.843 232.25 345.103 232.503 344.129 232.503L338.271 232.503L338.271 230.441L343.811 230.441C344.353 230.441 344.749 230.297 344.999 230.009C345.253 229.721 345.379 229.369 345.379 228.952C345.379 228.456 345.224 228.068 344.914 227.787C344.607 227.511 344.207 227.373 343.715 227.373L338.271 227.373L338.271 225.356L343.896 225.356C344.347 225.356 344.707 225.219 344.976 224.947C345.245 224.678 345.379 224.325 345.379 223.89C345.379 223.594 345.304 223.325 345.152 223.083C345.004 222.84 344.794 222.647 344.521 222.503C344.253 222.359 343.938 222.287 343.578 222.287L338.271 222.287L338.271 220.231Z" fill="#3C3B3B"/>
<line x1="181.05" y1="501.092" x2="181.05" y2="530.218" stroke="#D1D1D1" stroke-width="0.6"/>
<line x1="354.936" y1="273.91" x2="297.452" y2="273.91" stroke="#D1D1D1" stroke-width="0.6"/>
<line x1="354.936" y1="129.065" x2="325.809" y2="129.065" stroke="#D1D1D1" stroke-width="0.6"/>
<line x1="291.204" y1="501.092" x2="291.204" y2="530.218" stroke="#D1D1D1" stroke-width="0.6"/>
<line x1="353.271" y1="429.075" x2="285.283" y2="429.075" stroke="#D1D1D1" stroke-width="0.6"/>
<line x1="199.699" y1="515.955" x2="180.75" y2="515.955" stroke="#D1D1D1" stroke-width="0.6"/>
<line x1="187.148" y1="102.352" x2="168.199" y2="102.352" stroke="#D1D1D1" stroke-width="0.6"/>
<line x1="425.148" y1="344.347" x2="406.199" y2="344.347" stroke="#D1D1D1" stroke-width="0.6"/>
<line x1="216.143" y1="102.352" x2="197.193" y2="102.352" stroke="#D1D1D1" stroke-width="0.6"/>
<line x1="518.783" y1="344.347" x2="447.223" y2="344.347" stroke="#D1D1D1" stroke-width="0.6"/>
<line x1="340.071" y1="302.044" x2="340.071" y2="273.61" stroke="#D1D1D1" stroke-width="0.6"/>
<line x1="340.071" y1="172.604" x2="340.071" y2="128.765" stroke="#D1D1D1" stroke-width="0.6"/>
<line x1="290.904" y1="515.955" x2="270.169" y2="515.955" stroke="#D1D1D1" stroke-width="0.6"/>
<line x1="340.071" y1="428.775" x2="340.071" y2="375.524" stroke="#D1D1D1" stroke-width="0.6"/>
<line x1="340.071" y1="274.669" x2="340.071" y2="255.084" stroke="#D1D1D1" stroke-width="0.6"/>
</svg>
