<svg width="597" height="597" viewBox="0 0 597 597" fill="none" xmlns="http://www.w3.org/2000/svg">
<rect width="596.832" height="596.832" rx="51" fill="white"/>
<path fill-rule="evenodd" clip-rule="evenodd" d="M158.916 153.3H254.021C256.523 153.3 258.57 155.377 258.57 157.914V356.633C254.947 367.868 251.323 379.103 247.7 390.338C247.093 391.588 245.783 392.2 243.95 392.336C243.414 392.621 242.878 392.907 242.343 393.192L207.839 393.346C195.829 393.301 183.819 393.255 171.809 393.21C171.356 392.969 171.432 392.777 170.927 392.734C167.887 392.474 166.546 391.527 166.136 390.258L154.367 356.288V318.43V157.914C154.367 155.376 156.414 153.3 158.916 153.3V153.3Z" stroke="black" stroke-width="0.8" stroke-miterlimit="22.9256"/>
<path fill-rule="evenodd" clip-rule="evenodd" d="M161.631 153.3L180.144 162.782L233.452 162.831L251.964 153.3L236.359 165.289C236.359 165.289 233.936 167.649 230.617 167.428H184.359C184.359 167.428 180.507 168.14 177.018 164.773L161.631 153.3Z" stroke="black" stroke-width="0.8" stroke-miterlimit="22.9256" stroke-linejoin="round"/>
<path d="M173.369 172.085L241.184 172.104L256.905 154.34" stroke="black" stroke-width="0.8" stroke-miterlimit="22.9256"/>
<path d="M169.213 175.291C169.213 174.701 154.367 159.461 154.367 159.461" stroke="black" stroke-width="0.8" stroke-miterlimit="22.9256"/>
<path d="M173.608 172.338L155.947 154.423" stroke="black" stroke-width="0.8" stroke-miterlimit="22.9256"/>
<path d="M245.17 175.291C245.17 174.701 258.571 159.461 258.571 159.461" stroke="black" stroke-width="0.8" stroke-miterlimit="22.9256"/>
<path d="M169.188 356.63V176.033C169.188 176.033 168.461 172.096 173.744 172.096" stroke="black" stroke-width="0.8" stroke-miterlimit="22.9256"/>
<path d="M245.126 356.63V176.033C245.126 176.033 245.853 172.096 240.57 172.096" stroke="black" stroke-width="0.8" stroke-miterlimit="22.9256"/>
<path d="M154.368 318.955L169.188 355.872C169.188 355.872 169.288 357.593 174.667 358.06C180.047 358.527 240.285 358.06 240.285 358.06C240.285 358.06 244.573 358.109 245.567 355.405L258.337 318.779V320.155L245.93 355.784C245.93 355.784 245.567 358.746 241.762 358.967C237.958 359.188 176.097 359.201 176.097 359.201C176.097 359.201 169.18 359.888 168.502 355.783L154.367 319.314" stroke="black" stroke-width="0.8" stroke-miterlimit="22.9256"/>
<path d="M171.217 392.792L185.245 370.478C185.655 369.698 186.439 368.878 187.102 368.344C188.9 366.898 191.119 366.278 193.404 366.247H220.039C221.011 366.17 222.244 366.344 223.169 366.577C225.47 367.157 227.465 368.416 228.952 370.299L228.985 370.341L243.2 392.732M221.577 397.661H221.351M192.649 397.639H192.32" stroke="black" stroke-width="0.8" stroke-miterlimit="22.9256"/>
<path d="M172.172 393.213L186.134 371.004C186.134 371.004 187.975 367.366 193.403 367.293H220.081C220.081 367.293 224.927 366.874 228.15 370.955L242.268 393.194M222.337 396.623H222.293M191.621 396.598H191.496" stroke="black" stroke-width="0.8" stroke-miterlimit="22.9256"/>
<path d="M169.186 356.63L166.012 389.901" stroke="black" stroke-width="0.8" stroke-miterlimit="22.9256"/>
<path d="M173.898 359.233L171.4 392.906" stroke="black" stroke-width="0.8" stroke-miterlimit="22.9256"/>
<path d="M245.129 356.194L248.091 389.122" stroke="black" stroke-width="0.8" stroke-miterlimit="22.9256"/>
<path d="M241.248 358.987L243.846 392.399" stroke="black" stroke-width="0.8" stroke-miterlimit="22.9256"/>
<path d="M173.369 172.096L173.859 359.194" stroke="black" stroke-width="0.8" stroke-miterlimit="22.9256"/>
<path d="M241.386 172.301L241.248 358.968" stroke="black" stroke-width="0.8" stroke-miterlimit="22.9256"/>
<path fill-rule="evenodd" clip-rule="evenodd" d="M193.564 393.279H190.863V395.159C191.289 396.433 192.047 397.562 193.373 398.491C194.009 402.508 196.675 405.351 206.928 405.531C217.047 405.708 219.777 402.722 220.457 398.691C222.43 397.28 223.157 395.39 223.4 393.279H220.292H193.564Z" stroke="black" stroke-width="0.8" stroke-miterlimit="22.9256"/>
<path d="M200.68 393.332C200.68 393.662 200.68 400.564 200.68 400.564" stroke="black" stroke-width="0.8" stroke-miterlimit="22.9256"/>
<path d="M202.277 393.293V400.741" stroke="black" stroke-width="0.8" stroke-miterlimit="22.9256"/>
<path d="M204.141 393.293V400.741" stroke="black" stroke-width="0.8" stroke-miterlimit="22.9256"/>
<path d="M206.004 393.293V400.741" stroke="black" stroke-width="0.8" stroke-miterlimit="22.9256"/>
<path d="M207.873 393.293V400.741" stroke="black" stroke-width="0.8" stroke-miterlimit="22.9256"/>
<path d="M209.74 393.293V400.741" stroke="black" stroke-width="0.8" stroke-miterlimit="22.9256"/>
<path d="M211.609 393.293V400.741" stroke="black" stroke-width="0.8" stroke-miterlimit="22.9256"/>
<path d="M213.473 393.293V400.741" stroke="black" stroke-width="0.8" stroke-miterlimit="22.9256"/>
<path d="M223.551 393.279C222.923 397.615 219.894 400.916 206.919 400.73C193.975 400.544 190.929 397.513 190.291 393.283" stroke="black" stroke-width="0.8" stroke-miterlimit="22.9256"/>
<line x1="205.795" y1="405.542" x2="205.795" y2="459.951" stroke="black"/>
<line x1="424.438" y1="355.999" x2="424.438" y2="459.948" stroke="black"/>
<line x1="423.938" y1="460.448" x2="205.295" y2="460.448" stroke="black"/>
<path d="M294.768 501.265L294.768 512.901L292.66 512.901L292.66 503.316L292.592 503.316L289.87 505.055L289.87 503.123L292.762 501.265L294.768 501.265ZM301.805 501.265L304.384 501.265L307.839 509.697L307.975 509.697L311.43 501.265L314.009 501.265L314.009 512.901L311.987 512.901L311.987 504.907L311.879 504.907L308.663 512.867L307.152 512.867L303.936 504.89L303.828 504.89L303.828 512.901L301.805 512.901L301.805 501.265ZM320.078 513.072C319.203 513.072 318.447 512.89 317.811 512.526C317.178 512.159 316.691 511.64 316.35 510.97C316.009 510.295 315.839 509.502 315.839 508.589C315.839 507.691 316.009 506.903 316.35 506.225C316.695 505.543 317.176 505.013 317.794 504.634C318.411 504.252 319.136 504.06 319.97 504.06C320.508 504.06 321.015 504.148 321.492 504.322C321.973 504.492 322.398 504.757 322.765 505.117C323.136 505.477 323.428 505.935 323.64 506.492C323.852 507.045 323.958 507.704 323.958 508.47L323.958 509.1L316.805 509.1L316.805 507.714L321.987 507.714C321.983 507.32 321.898 506.97 321.731 506.663C321.564 506.352 321.331 506.108 321.032 505.93C320.737 505.752 320.392 505.663 319.998 505.663C319.578 505.663 319.208 505.765 318.89 505.97C318.572 506.17 318.324 506.435 318.146 506.765C317.972 507.091 317.883 507.449 317.879 507.839L317.879 509.049C317.879 509.557 317.972 509.992 318.157 510.356C318.343 510.716 318.602 510.992 318.936 511.185C319.269 511.375 319.659 511.47 320.106 511.47C320.405 511.47 320.676 511.428 320.919 511.345C321.161 511.257 321.371 511.131 321.549 510.964C321.727 510.797 321.862 510.591 321.953 510.345L323.873 510.56C323.752 511.068 323.521 511.511 323.18 511.89C322.843 512.265 322.411 512.557 321.884 512.765C321.358 512.97 320.756 513.072 320.078 513.072ZM330.056 504.174L330.056 505.765L325.039 505.765L325.039 504.174L330.056 504.174ZM326.278 502.083L328.335 502.083L328.335 510.276C328.335 510.553 328.376 510.765 328.46 510.913C328.547 511.057 328.661 511.155 328.801 511.208C328.941 511.261 329.096 511.288 329.267 511.288C329.395 511.288 329.513 511.278 329.619 511.259C329.729 511.24 329.812 511.223 329.869 511.208L330.215 512.816C330.106 512.854 329.948 512.896 329.744 512.941C329.543 512.987 329.297 513.013 329.005 513.021C328.49 513.036 328.026 512.958 327.613 512.788C327.2 512.613 326.873 512.345 326.63 511.981C326.392 511.617 326.274 511.163 326.278 510.617L326.278 502.083ZM335.546 513.072C334.671 513.072 333.916 512.89 333.279 512.526C332.647 512.159 332.16 511.64 331.819 510.97C331.478 510.295 331.308 509.502 331.308 508.589C331.308 507.691 331.478 506.903 331.819 506.225C332.164 505.543 332.645 505.013 333.262 504.634C333.88 504.252 334.605 504.06 335.438 504.06C335.976 504.06 336.484 504.148 336.961 504.322C337.442 504.492 337.866 504.757 338.234 505.117C338.605 505.477 338.897 505.935 339.109 506.492C339.321 507.045 339.427 507.704 339.427 508.47L339.427 509.1L332.274 509.1L332.274 507.714L337.456 507.714C337.452 507.32 337.366 506.97 337.2 506.663C337.033 506.352 336.8 506.108 336.501 505.93C336.206 505.752 335.861 505.663 335.467 505.663C335.046 505.663 334.677 505.765 334.359 505.97C334.041 506.17 333.793 506.435 333.615 506.765C333.44 507.091 333.351 507.449 333.348 507.839L333.348 509.049C333.348 509.557 333.44 509.992 333.626 510.356C333.812 510.716 334.071 510.992 334.404 511.185C334.738 511.375 335.128 511.47 335.575 511.47C335.874 511.47 336.145 511.428 336.387 511.345C336.63 511.257 336.84 511.131 337.018 510.964C337.196 510.797 337.331 510.591 337.421 510.345L339.342 510.56C339.221 511.068 338.99 511.511 338.649 511.89C338.312 512.265 337.88 512.557 337.353 512.765C336.827 512.97 336.224 513.072 335.546 513.072ZM341.167 512.901L341.167 504.174L343.161 504.174L343.161 505.629L343.252 505.629C343.411 505.125 343.684 504.737 344.071 504.464C344.461 504.187 344.906 504.049 345.406 504.049C345.519 504.049 345.646 504.055 345.786 504.066C345.93 504.074 346.05 504.087 346.144 504.106L346.144 505.998C346.057 505.968 345.919 505.941 345.73 505.918C345.544 505.892 345.364 505.879 345.19 505.879C344.815 505.879 344.478 505.96 344.179 506.123C343.883 506.282 343.65 506.504 343.48 506.788C343.309 507.072 343.224 507.399 343.224 507.771L343.224 512.901L341.167 512.901ZM306.429 524.191L304.304 524.191C304.244 523.843 304.132 523.534 303.969 523.265C303.806 522.992 303.603 522.761 303.361 522.572C303.119 522.382 302.842 522.24 302.531 522.146C302.225 522.047 301.893 521.998 301.537 521.998C300.905 521.998 300.344 522.157 299.855 522.475C299.367 522.79 298.984 523.252 298.708 523.862C298.431 524.468 298.293 525.208 298.293 526.083C298.293 526.973 298.431 527.723 298.708 528.333C298.988 528.939 299.371 529.398 299.855 529.708C300.344 530.015 300.903 530.168 301.531 530.168C301.88 530.168 302.206 530.123 302.509 530.032C302.816 529.937 303.09 529.799 303.333 529.617C303.579 529.435 303.785 529.212 303.952 528.947C304.122 528.682 304.24 528.379 304.304 528.038L306.429 528.049C306.35 528.602 306.177 529.121 305.912 529.606C305.651 530.091 305.308 530.519 304.884 530.89C304.46 531.257 303.963 531.545 303.395 531.754C302.827 531.958 302.196 532.06 301.503 532.06C300.48 532.06 299.567 531.824 298.764 531.35C297.961 530.877 297.329 530.193 296.867 529.299C296.405 528.405 296.174 527.333 296.174 526.083C296.174 524.829 296.406 523.757 296.872 522.867C297.338 521.973 297.973 521.29 298.776 520.816C299.579 520.343 300.488 520.106 301.503 520.106C302.151 520.106 302.753 520.197 303.31 520.379C303.867 520.56 304.363 520.828 304.799 521.18C305.234 521.528 305.592 521.956 305.872 522.464C306.156 522.968 306.342 523.543 306.429 524.191ZM310.78 532.078C310.227 532.078 309.729 531.979 309.286 531.782C308.846 531.581 308.498 531.286 308.24 530.896C307.987 530.506 307.86 530.024 307.86 529.453C307.86 528.96 307.951 528.553 308.132 528.231C308.314 527.909 308.562 527.651 308.877 527.458C309.191 527.265 309.545 527.119 309.939 527.021C310.337 526.918 310.748 526.845 311.172 526.799C311.683 526.746 312.098 526.699 312.416 526.657C312.735 526.612 312.966 526.543 313.11 526.453C313.257 526.358 313.331 526.212 313.331 526.015L313.331 525.981C313.331 525.553 313.204 525.221 312.951 524.987C312.697 524.752 312.331 524.634 311.854 524.634C311.35 524.634 310.951 524.744 310.655 524.964C310.363 525.184 310.166 525.443 310.064 525.742L308.144 525.47C308.295 524.939 308.545 524.496 308.894 524.14C309.242 523.78 309.668 523.511 310.172 523.333C310.676 523.151 311.233 523.06 311.843 523.06C312.263 523.06 312.682 523.11 313.098 523.208C313.515 523.307 313.896 523.47 314.24 523.697C314.585 523.92 314.862 524.225 315.07 524.612C315.282 524.998 315.388 525.481 315.388 526.06L315.388 531.901L313.411 531.901L313.411 530.703L313.343 530.703C313.218 530.945 313.041 531.172 312.814 531.384C312.591 531.593 312.308 531.761 311.968 531.89C311.63 532.015 311.235 532.078 310.78 532.078ZM311.314 530.566C311.727 530.566 312.085 530.485 312.388 530.322C312.691 530.155 312.924 529.935 313.087 529.663C313.254 529.39 313.337 529.093 313.337 528.771L313.337 527.742C313.273 527.795 313.163 527.845 313.007 527.89C312.856 527.935 312.685 527.975 312.496 528.009C312.307 528.043 312.119 528.074 311.933 528.1C311.748 528.127 311.587 528.149 311.451 528.168C311.144 528.21 310.869 528.278 310.627 528.373C310.384 528.468 310.193 528.6 310.053 528.771C309.913 528.937 309.843 529.153 309.843 529.418C309.843 529.797 309.981 530.083 310.257 530.276C310.534 530.47 310.886 530.566 311.314 530.566ZM317.547 531.901L317.547 520.265L319.604 520.265L319.604 524.617L319.689 524.617C319.795 524.405 319.945 524.18 320.138 523.941C320.331 523.699 320.593 523.492 320.922 523.322C321.252 523.148 321.672 523.06 322.183 523.06C322.858 523.06 323.466 523.233 324.007 523.578C324.553 523.918 324.985 524.424 325.303 525.095C325.625 525.761 325.786 526.579 325.786 527.549C325.786 528.507 325.629 529.322 325.314 529.992C325 530.663 324.572 531.174 324.03 531.526C323.488 531.879 322.875 532.055 322.189 532.055C321.689 532.055 321.274 531.971 320.945 531.805C320.615 531.638 320.35 531.437 320.149 531.203C319.952 530.964 319.799 530.738 319.689 530.526L319.57 530.526L319.57 531.901L317.547 531.901ZM319.564 527.538C319.564 528.102 319.644 528.596 319.803 529.021C319.966 529.445 320.199 529.776 320.502 530.015C320.808 530.25 321.18 530.367 321.615 530.367C322.07 530.367 322.451 530.246 322.757 530.004C323.064 529.757 323.295 529.422 323.451 528.998C323.61 528.57 323.689 528.083 323.689 527.538C323.689 526.996 323.612 526.515 323.456 526.095C323.301 525.674 323.07 525.345 322.763 525.106C322.456 524.867 322.074 524.748 321.615 524.748C321.176 524.748 320.803 524.863 320.496 525.095C320.189 525.326 319.956 525.649 319.797 526.066C319.642 526.483 319.564 526.973 319.564 527.538ZM329.591 520.265L329.591 531.901L327.534 531.901L327.534 520.265L329.591 520.265ZM335.57 532.072C334.695 532.072 333.939 531.89 333.303 531.526C332.67 531.159 332.183 530.64 331.843 529.97C331.502 529.295 331.331 528.502 331.331 527.589C331.331 526.691 331.502 525.903 331.843 525.225C332.187 524.543 332.668 524.013 333.286 523.634C333.903 523.252 334.629 523.06 335.462 523.06C336 523.06 336.507 523.148 336.985 523.322C337.466 523.492 337.89 523.757 338.257 524.117C338.629 524.477 338.92 524.935 339.132 525.492C339.344 526.045 339.451 526.704 339.451 527.47L339.451 528.1L332.297 528.1L332.297 526.714L337.479 526.714C337.475 526.32 337.39 525.97 337.223 525.663C337.057 525.352 336.824 525.108 336.524 524.93C336.229 524.752 335.884 524.663 335.49 524.663C335.07 524.663 334.701 524.765 334.382 524.97C334.064 525.17 333.816 525.435 333.638 525.765C333.464 526.091 333.375 526.449 333.371 526.839L333.371 528.049C333.371 528.557 333.464 528.992 333.649 529.356C333.835 529.716 334.094 529.992 334.428 530.185C334.761 530.375 335.151 530.47 335.598 530.47C335.898 530.47 336.168 530.428 336.411 530.345C336.653 530.257 336.863 530.131 337.041 529.964C337.219 529.797 337.354 529.591 337.445 529.345L339.365 529.56C339.244 530.068 339.013 530.511 338.672 530.89C338.335 531.265 337.903 531.557 337.377 531.765C336.85 531.97 336.248 532.072 335.57 532.072Z" fill="#3C3B3B"/>
<line x1="204.441" y1="472.112" x2="204.441" y2="541.155" stroke="#D1D1D1" stroke-width="0.6"/>
<line x1="430.46" y1="472.112" x2="430.46" y2="541.155" stroke="#D1D1D1" stroke-width="0.6"/>
<line x1="271.941" y1="513.201" x2="204.14" y2="513.201" stroke="#D1D1D1" stroke-width="0.6"/>
<line x1="430.16" y1="513.201" x2="362.359" y2="513.201" stroke="#D1D1D1" stroke-width="0.6"/>
<path d="M79.7866 269.011V280.647H77.6786V271.062H77.6104L74.8888 272.801V270.869L77.7809 269.011H79.7866ZM86.7866 280.807C86.029 280.807 85.351 280.665 84.7525 280.38C84.154 280.093 83.6786 279.699 83.3263 279.199C82.9779 278.699 82.7923 278.127 82.7695 277.483H84.815C84.8529 277.96 85.0593 278.35 85.4343 278.653C85.8093 278.952 86.2601 279.102 86.7866 279.102C87.1995 279.102 87.5669 279.007 87.8888 278.818C88.2108 278.629 88.4646 278.365 88.6502 278.028C88.8358 277.691 88.9267 277.307 88.9229 276.875C88.9267 276.435 88.8339 276.045 88.6445 275.704C88.4551 275.363 88.1957 275.096 87.8661 274.903C87.5366 274.706 87.1578 274.608 86.7298 274.608C86.3813 274.604 86.0385 274.668 85.7013 274.801C85.3642 274.933 85.0972 275.108 84.9002 275.324L82.9968 275.011L83.6048 269.011H90.3548V270.772H85.3491L85.0138 273.858H85.082C85.2979 273.604 85.6029 273.394 85.9968 273.227C86.3907 273.057 86.8226 272.971 87.2923 272.971C87.9968 272.971 88.6256 273.138 89.1786 273.471C89.7317 273.801 90.1673 274.255 90.4854 274.835C90.8036 275.415 90.9627 276.077 90.9627 276.824C90.9627 277.593 90.7847 278.278 90.4286 278.88C90.0763 279.479 89.5858 279.95 88.957 280.295C88.332 280.636 87.6085 280.807 86.7866 280.807ZM92.8661 280.647V279.125L96.9059 275.165C97.2923 274.774 97.6142 274.428 97.8718 274.125C98.1294 273.822 98.3226 273.528 98.4513 273.244C98.5801 272.96 98.6445 272.657 98.6445 272.335C98.6445 271.968 98.5612 271.653 98.3945 271.392C98.2279 271.127 97.9987 270.922 97.707 270.778C97.4154 270.634 97.0839 270.562 96.7127 270.562C96.3301 270.562 95.9949 270.642 95.707 270.801C95.4192 270.956 95.1957 271.178 95.0366 271.466C94.8813 271.754 94.8036 272.096 94.8036 272.494H92.7979C92.7979 271.755 92.9665 271.113 93.3036 270.568C93.6407 270.022 94.1048 269.6 94.6957 269.301C95.2904 269.002 95.9722 268.852 96.7411 268.852C97.5214 268.852 98.207 268.998 98.7979 269.29C99.3888 269.581 99.8472 269.981 100.173 270.488C100.502 270.996 100.667 271.575 100.667 272.227C100.667 272.663 100.584 273.091 100.417 273.511C100.251 273.932 99.957 274.397 99.5366 274.909C99.1199 275.42 98.5347 276.04 97.7809 276.767L95.7752 278.807V278.886H100.843V280.647H92.8661ZM106.795 280.647V271.92H108.761V273.403H108.863C109.045 272.903 109.346 272.513 109.767 272.233C110.187 271.949 110.689 271.807 111.272 271.807C111.863 271.807 112.361 271.95 112.767 272.238C113.176 272.522 113.464 272.911 113.63 273.403H113.721C113.914 272.918 114.24 272.532 114.699 272.244C115.161 271.952 115.708 271.807 116.341 271.807C117.144 271.807 117.799 272.06 118.306 272.568C118.814 273.075 119.068 273.816 119.068 274.79V280.647H117.005V275.108C117.005 274.566 116.861 274.17 116.574 273.92C116.286 273.666 115.933 273.54 115.517 273.54C115.02 273.54 114.632 273.695 114.352 274.005C114.075 274.312 113.937 274.712 113.937 275.204V280.647H111.92V275.022C111.92 274.572 111.784 274.212 111.511 273.943C111.242 273.674 110.89 273.54 110.454 273.54C110.159 273.54 109.89 273.615 109.647 273.767C109.405 273.915 109.212 274.125 109.068 274.397C108.924 274.666 108.852 274.981 108.852 275.341V280.647H106.795ZM121.154 280.647V271.92H123.12V273.403H123.223C123.404 272.903 123.706 272.513 124.126 272.233C124.547 271.949 125.048 271.807 125.632 271.807C126.223 271.807 126.721 271.95 127.126 272.238C127.535 272.522 127.823 272.911 127.99 273.403H128.081C128.274 272.918 128.6 272.532 129.058 272.244C129.52 271.952 130.067 271.807 130.7 271.807C131.503 271.807 132.158 272.06 132.666 272.568C133.173 273.075 133.427 273.816 133.427 274.79V280.647H131.365V275.108C131.365 274.566 131.221 274.17 130.933 273.92C130.645 273.666 130.293 273.54 129.876 273.54C129.38 273.54 128.992 273.695 128.711 274.005C128.435 274.312 128.297 274.712 128.297 275.204V280.647H126.279V275.022C126.279 274.572 126.143 274.212 125.87 273.943C125.601 273.674 125.249 273.54 124.814 273.54C124.518 273.54 124.249 273.615 124.007 273.767C123.764 273.915 123.571 274.125 123.427 274.397C123.283 274.666 123.211 274.981 123.211 275.341V280.647H121.154Z" fill="#3C3B3B"/>
<line x1="205.052" y1="120.392" x2="205.052" y2="154.843" stroke="#D1D1D1" stroke-width="0.6"/>
<line x1="201.628" y1="405.542" x2="201.628" y2="439.994" stroke="#D1D1D1" stroke-width="0.6"/>
<line x1="106.865" y1="255.455" x2="90.8512" y2="255.455" stroke="#D1D1D1" stroke-width="0.6"/>
<line x1="106.863" y1="296.108" x2="90.8492" y2="296.108" stroke="#D1D1D1" stroke-width="0.6"/>
<line x1="205.295" y1="137.92" x2="98.284" y2="137.92" stroke="#D1D1D1" stroke-width="0.6"/>
<line x1="201.328" y1="421.651" x2="97.8773" y2="421.651" stroke="#D1D1D1" stroke-width="0.6"/>
<line x1="98.5574" y1="255.155" x2="98.5574" y2="137.623" stroke="#D1D1D1" stroke-width="0.6"/>
<line x1="98.5574" y1="421.351" x2="98.5574" y2="295.811" stroke="#D1D1D1" stroke-width="0.6"/>
<path d="M455.063 264.664V331.062C455.063 339.097 448.549 345.611 440.514 345.611H407.363C399.328 345.611 392.813 339.097 392.813 331.062V264.664H455.063Z" stroke="black" stroke-width="0.9"/>
<path d="M433.115 345.934V351.632C433.115 354.145 431.078 356.181 428.565 356.182H420.311C417.245 356.182 414.761 353.697 414.761 350.632V345.934H433.115Z" stroke="black" stroke-width="0.9"/>
<path d="M441.473 264.588L441.473 181.142L446.358 181.142L446.358 264.588L441.473 264.588Z" stroke="black" stroke-width="0.9"/>
<path d="M401.246 264.588L401.246 181.142L406.132 181.142L406.132 264.588L401.246 264.588Z" stroke="black" stroke-width="0.9"/>
<path d="M421.592 264.588L421.592 181.142L426.478 181.142L426.478 264.588L421.592 264.588Z" stroke="black" stroke-width="0.9"/>
<path d="M446.123 180.187H441.705L443.914 173.659L446.123 180.187Z" stroke="black"/>
<path d="M405.896 180.187H401.479L403.688 173.659L405.896 180.187Z" stroke="black"/>
<path d="M426.242 180.187H421.824L424.033 173.659L426.242 180.187Z" stroke="black"/>
<path d="M446.123 180.187H441.705L443.914 173.659L446.123 180.187Z" stroke="black"/>
<path d="M405.896 180.187H401.479L403.688 173.659L405.896 180.187Z" stroke="black"/>
<path d="M426.242 180.187H421.824L424.033 173.659L426.242 180.187Z" stroke="black"/>
<path d="M516.9 245.36L505.264 245.36L505.264 243.252L514.849 243.252L514.849 243.184L513.11 240.462L515.042 240.462L516.9 243.354L516.9 245.36ZM507.423 248.104L509.099 248.104L516.9 253.042L516.9 254.439L514.514 254.439L514.514 253.587L509.247 250.263L509.156 250.263L509.156 257.155L507.423 257.155L507.423 248.104ZM505.264 253.655L507.934 253.655L508.684 253.678L516.9 253.678L516.9 255.667L505.264 255.667L505.264 253.655ZM505.264 258.971L506.786 258.971L510.747 263.01C511.137 263.397 511.483 263.719 511.786 263.976C512.089 264.234 512.383 264.427 512.667 264.556C512.951 264.685 513.254 264.749 513.576 264.749C513.944 264.749 514.258 264.666 514.519 264.499C514.785 264.332 514.989 264.103 515.133 263.812C515.277 263.52 515.349 263.188 515.349 262.817C515.349 262.435 515.269 262.099 515.11 261.812C514.955 261.524 514.733 261.3 514.445 261.141C514.158 260.986 513.815 260.908 513.417 260.908L513.417 258.902C514.156 258.902 514.798 259.071 515.343 259.408C515.889 259.745 516.311 260.209 516.61 260.8C516.91 261.395 517.059 262.077 517.059 262.846C517.059 263.626 516.913 264.312 516.622 264.902C516.33 265.493 515.93 265.952 515.423 266.277C514.915 266.607 514.336 266.772 513.684 266.772C513.249 266.772 512.82 266.688 512.4 266.522C511.98 266.355 511.514 266.062 511.002 265.641C510.491 265.224 509.872 264.639 509.144 263.885L507.105 261.88L507.025 261.88L507.025 266.948L505.264 266.948L505.264 258.971ZM505.264 272.9L513.991 272.9L513.991 274.866L512.508 274.866L512.508 274.968C513.008 275.15 513.398 275.451 513.678 275.871C513.963 276.292 514.105 276.794 514.105 277.377C514.105 277.968 513.961 278.466 513.673 278.871C513.389 279.28 513 279.568 512.508 279.735L512.508 279.826C512.993 280.019 513.379 280.345 513.667 280.803C513.959 281.265 514.105 281.812 514.105 282.445C514.105 283.248 513.851 283.903 513.343 284.411C512.836 284.919 512.095 285.172 511.122 285.172L505.264 285.172L505.264 283.11L510.803 283.11C511.345 283.11 511.741 282.966 511.991 282.678C512.245 282.39 512.372 282.038 512.372 281.621C512.372 281.125 512.216 280.737 511.906 280.456C511.599 280.18 511.199 280.042 510.707 280.042L505.264 280.042L505.264 278.025L510.889 278.025C511.339 278.025 511.699 277.888 511.968 277.616C512.237 277.347 512.372 276.994 512.372 276.559C512.372 276.263 512.296 275.994 512.144 275.752C511.997 275.509 511.786 275.316 511.514 275.172C511.245 275.028 510.93 274.956 510.57 274.956L505.264 274.956L505.264 272.9ZM505.264 287.259L513.991 287.259L513.991 289.225L512.508 289.225L512.508 289.327C513.008 289.509 513.398 289.81 513.678 290.231C513.963 290.651 514.105 291.153 514.105 291.736C514.105 292.327 513.961 292.825 513.673 293.231C513.389 293.64 513 293.928 512.508 294.094L512.508 294.185C512.993 294.378 513.379 294.704 513.667 295.162C513.959 295.624 514.105 296.172 514.105 296.804C514.105 297.607 513.851 298.263 513.343 298.77C512.836 299.278 512.095 299.532 511.122 299.532L505.264 299.532L505.264 297.469L510.803 297.469C511.345 297.469 511.741 297.325 511.991 297.037C512.245 296.749 512.372 296.397 512.372 295.981C512.372 295.484 512.216 295.096 511.906 294.816C511.599 294.539 511.199 294.401 510.707 294.401L505.264 294.401L505.264 292.384L510.889 292.384C511.339 292.384 511.699 292.248 511.968 291.975C512.237 291.706 512.372 291.354 512.372 290.918C512.372 290.623 512.296 290.354 512.144 290.111C511.997 289.869 511.786 289.676 511.514 289.532C511.245 289.388 510.93 289.316 510.57 289.316L505.264 289.316L505.264 287.259Z" fill="#3C3B3B"/>
<line x1="522.375" y1="172.401" x2="446.809" y2="172.401" stroke="#D1D1D1" stroke-width="0.6"/>
<line x1="522.812" y1="344.772" x2="454.824" y2="344.772" stroke="#D1D1D1" stroke-width="0.6"/>
<line x1="509.612" y1="344.472" x2="509.612" y2="303.962" stroke="#D1D1D1" stroke-width="0.6"/>
<line x1="509.612" y1="233.292" x2="509.612" y2="172.101" stroke="#D1D1D1" stroke-width="0.6"/>
<path d="M191.632 96.621C191.076 96.6172 190.532 96.5206 190.002 96.3312C189.471 96.1381 188.994 95.8256 188.57 95.3937C188.146 94.9581 187.808 94.3805 187.558 93.6608C187.308 92.9373 187.185 92.0415 187.189 90.9733C187.189 89.9771 187.295 89.0888 187.507 88.3085C187.719 87.5282 188.024 86.8691 188.422 86.3312C188.82 85.7896 189.299 85.3767 189.86 85.0926C190.424 84.8085 191.055 84.6665 191.752 84.6665C192.483 84.6665 193.13 84.8104 193.695 85.0983C194.263 85.3862 194.721 85.7801 195.07 86.2801C195.418 86.7763 195.634 87.3369 195.718 87.9619L193.644 87.9619C193.538 87.5149 193.32 87.1589 192.99 86.8937C192.665 86.6248 192.252 86.4903 191.752 86.4903C190.945 86.4903 190.324 86.8407 189.888 87.5415C189.456 88.2422 189.238 89.2043 189.235 90.4278L189.314 90.4278C189.5 90.0945 189.74 89.8085 190.036 89.5699C190.331 89.3312 190.665 89.1475 191.036 89.0187C191.411 88.8862 191.807 88.8199 192.223 88.8199C192.905 88.8199 193.517 88.9827 194.058 89.3085C194.604 89.6343 195.036 90.0831 195.354 90.6551C195.672 91.2233 195.829 91.8748 195.826 92.6096C195.829 93.3748 195.655 94.0623 195.303 94.6721C194.951 95.2782 194.46 95.7555 193.831 96.104C193.202 96.4524 192.469 96.6248 191.632 96.621ZM191.621 94.9165C192.034 94.9165 192.403 94.8161 192.729 94.6153C193.055 94.4146 193.312 94.1437 193.502 93.8028C193.691 93.4619 193.784 93.0793 193.78 92.6551C193.784 92.2384 193.693 91.8615 193.507 91.5244C193.326 91.1873 193.074 90.9202 192.752 90.7233C192.43 90.5263 192.062 90.4278 191.649 90.4278C191.343 90.4278 191.057 90.4865 190.791 90.604C190.526 90.7214 190.295 90.8843 190.098 91.0926C189.901 91.2971 189.746 91.5358 189.632 91.8085C189.523 92.0774 189.466 92.3653 189.462 92.6721C189.466 93.0774 189.56 93.4506 189.746 93.7915C189.932 94.1324 190.187 94.4051 190.513 94.6096C190.839 94.8142 191.208 94.9165 191.621 94.9165ZM197.746 96.4619L197.746 94.9392L201.786 90.979C202.172 90.5888 202.494 90.2422 202.752 89.9392C203.009 89.6362 203.202 89.3426 203.331 89.0585C203.46 88.7744 203.524 88.4714 203.524 88.1494C203.524 87.782 203.441 87.4676 203.274 87.2062C203.108 86.9411 202.879 86.7365 202.587 86.5926C202.295 86.4487 201.964 86.3767 201.593 86.3767C201.21 86.3767 200.875 86.4562 200.587 86.6153C200.299 86.7706 200.076 86.9922 199.916 87.2801C199.761 87.568 199.683 87.9108 199.683 88.3085L197.678 88.3085C197.678 87.5699 197.846 86.9278 198.183 86.3824C198.521 85.8369 198.985 85.4146 199.576 85.1153C200.17 84.8161 200.852 84.6665 201.621 84.6665C202.401 84.6665 203.087 84.8123 203.678 85.104C204.269 85.3956 204.727 85.7952 205.053 86.3028C205.382 86.8104 205.547 87.3899 205.547 88.0415C205.547 88.4771 205.464 88.9051 205.297 89.3256C205.13 89.746 204.837 90.2119 204.416 90.7233C204 91.2346 203.415 91.854 202.661 92.5812L200.655 94.621L200.655 94.7006L205.723 94.7006L205.723 96.4619L197.746 96.4619ZM207.706 96.4619L207.706 87.7346L209.672 87.7346L209.672 89.2176L209.774 89.2176C209.956 88.7176 210.257 88.3274 210.678 88.0471C211.098 87.7631 211.6 87.621 212.183 87.621C212.774 87.621 213.273 87.7649 213.678 88.0528C214.087 88.3369 214.375 88.7252 214.541 89.2176L214.632 89.2176C214.826 88.7328 215.151 88.3464 215.61 88.0585C216.072 87.7668 216.619 87.621 217.252 87.621C218.055 87.621 218.71 87.8748 219.218 88.3824C219.725 88.8899 219.979 89.6305 219.979 90.604L219.979 96.4619L217.916 96.4619L217.916 90.9221C217.916 90.3805 217.773 89.9846 217.485 89.7346C217.197 89.4809 216.844 89.354 216.428 89.354C215.932 89.354 215.543 89.5093 215.263 89.8199C214.987 90.1267 214.848 90.5263 214.848 91.0187L214.848 96.4619L212.831 96.4619L212.831 90.8369C212.831 90.3862 212.695 90.0263 212.422 89.7574C212.153 89.4884 211.801 89.354 211.365 89.354C211.07 89.354 210.801 89.4297 210.558 89.5812C210.316 89.729 210.123 89.9392 209.979 90.2119C209.835 90.4809 209.763 90.7953 209.763 91.1551L209.763 96.4619L207.706 96.4619ZM222.066 96.4619L222.066 87.7346L224.032 87.7346L224.032 89.2176L224.134 89.2176C224.316 88.7176 224.617 88.3274 225.037 88.0471C225.458 87.7631 225.96 87.621 226.543 87.621C227.134 87.621 227.632 87.7649 228.037 88.0528C228.446 88.3369 228.734 88.7252 228.901 89.2176L228.992 89.2176C229.185 88.7328 229.511 88.3464 229.969 88.0585C230.431 87.7668 230.978 87.621 231.611 87.621C232.414 87.621 233.069 87.8748 233.577 88.3824C234.085 88.8899 234.338 89.6305 234.338 90.604L234.338 96.4619L232.276 96.4619L232.276 90.9221C232.276 90.3805 232.132 89.9846 231.844 89.7346C231.556 89.4809 231.204 89.354 230.787 89.354C230.291 89.354 229.903 89.5093 229.622 89.8199C229.346 90.1267 229.208 90.5263 229.208 91.0187L229.208 96.4619L227.191 96.4619L227.191 90.8369C227.191 90.3862 227.054 90.0263 226.782 89.7574C226.513 89.4884 226.16 89.354 225.725 89.354C225.429 89.354 225.16 89.4297 224.918 89.5812C224.675 89.729 224.482 89.9392 224.338 90.2119C224.194 90.4809 224.122 90.7953 224.122 91.1551L224.122 96.4619L222.066 96.4619Z" fill="#3C3B3B"/>
<line x1="157.376" y1="55.6768" x2="157.376" y2="124.719" stroke="#D1D1D1" stroke-width="0.6"/>
<line x1="257.663" y1="56.6221" x2="257.663" y2="125.665" stroke="#D1D1D1" stroke-width="0.6"/>
<line x1="174.709" y1="92.7463" x2="157.075" y2="92.7463" stroke="#D1D1D1" stroke-width="0.6"/>
<line x1="257.363" y1="92.7463" x2="244.329" y2="92.7463" stroke="#D1D1D1" stroke-width="0.6"/>
<g clip-path="url(#clip0_185_381)">
<path d="M205.594 256.265H211.074V257.449H208.688V259.425H208.938C209.469 259.425 209.699 259.675 209.699 260.046C209.699 260.648 208.824 261.441 208.219 261.441C207.928 261.441 207.678 261.28 207.678 260.728L207.688 260.608H205.594V261.782H204.594V255.302H205.594V256.265ZM205.594 257.449V259.425H207.678V257.449H205.594ZM202.23 254.816C203.605 254.996 204.105 255.739 204.105 256.852C204.105 257.965 203.605 258.708 202.23 258.888L201.99 257.935C202.876 257.815 203.199 257.474 203.199 256.852C203.199 256.24 202.876 255.899 201.99 255.769L202.23 254.816ZM205.594 247.219V250.479H207.271C207.053 250.198 206.907 249.827 206.907 249.365C206.907 248.352 207.563 247.73 208.646 247.73C209.344 247.73 210.001 247.961 210.719 248.533L210.115 249.556C209.657 249.165 209.209 248.904 208.657 248.904C208.157 248.904 207.896 249.145 207.896 249.556C207.896 249.927 208.146 250.278 208.511 250.479H211.074V251.652H209.594C209.865 252.044 210.021 252.515 210.021 253.057C210.021 254.21 209.376 255.063 208.167 255.063C207.001 255.063 206.334 254.28 206.334 252.936C206.334 252.585 206.376 252.264 206.438 251.973L207.438 252.074C207.386 252.294 207.355 252.545 207.355 252.816C207.355 253.508 207.657 253.879 208.199 253.879C208.74 253.879 209.011 253.508 209.011 252.986C209.011 252.435 208.688 251.943 208.292 251.652H205.594V255.454H204.594V247.219H205.594ZM204.594 247.373V241.284H205.594V242.247H211.074V243.431H208.209V245.036H208.563C209.094 245.036 209.344 245.266 209.344 245.668C209.344 246.269 208.469 247.042 207.824 247.042C207.459 247.042 207.199 246.871 207.199 246.32V243.431H205.594V247.373H204.594ZM205.594 235.91H211.074V237.094H208.688V239.07H208.938C209.469 239.07 209.699 239.321 209.699 239.692C209.699 240.294 208.824 241.086 208.219 241.086C207.928 241.086 207.678 240.925 207.678 240.374L207.688 240.253H205.594V241.427H204.594V234.947H205.594V235.91ZM205.594 237.094V239.07H207.678V237.094H205.594ZM202.23 234.461C203.605 234.642 204.105 235.384 204.105 236.497C204.105 237.611 203.605 238.353 202.23 238.534L201.99 237.581C202.876 237.46 203.199 237.119 203.199 236.497C203.199 235.886 202.876 235.545 201.99 235.414L202.23 234.461ZM204.594 235.099V229.011H205.594V229.974H211.074V231.157H208.209V232.762H208.563C209.094 232.762 209.344 232.993 209.344 233.394C209.344 233.996 208.469 234.768 207.824 234.768C207.459 234.768 207.199 234.598 207.199 234.046V231.157H205.594V235.099H204.594Z" fill="#1E1E1E"/>
<path d="M205.35 267.157H210.585" stroke="#1E1E1E" stroke-width="0.4" stroke-linecap="round"/>
<mask id="mask0_185_381" style="mask-type:luminance" maskUnits="userSpaceOnUse" x="201" y="270" width="11" height="69">
<path d="M201.531 270.782V338.654H211.531V270.782H201.531Z" fill="white"/>
</mask>
<g mask="url(#mask0_185_381)">
<path d="M204.346 324.288L210.099 327.405V329.928L204.344 326.68L204.346 324.288Z" fill="#1E1E1E"/>
<path d="M204.346 328.649L210.099 331.766V334.288L204.344 331.041L204.346 328.649Z" fill="#1E1E1E"/>
<path d="M204.346 333.014L210.099 336.131V338.654L204.344 335.406L204.346 333.014Z" fill="#1E1E1E"/>
<path d="M210.105 321.32H204.105V320.159L208.339 317.577V318.192L204.105 315.654V314.501L210.105 314.484V315.801L206.102 315.81V315.567L209.471 317.594V318.227L206.102 320.298V320.003H210.105V321.32ZM210.105 313.842L204.105 311.139V309.752L210.105 307.04V308.513L204.808 310.731V310.177L210.105 312.404V313.842ZM208.819 312.49L207.765 312.118V308.999L208.819 308.617V312.49ZM210.208 303.593C210.208 304.061 210.133 304.497 209.985 304.901C209.831 305.3 209.613 305.647 209.333 305.941C209.053 306.236 208.725 306.467 208.348 306.634C207.971 306.796 207.556 306.877 207.105 306.877C206.653 306.877 206.239 306.796 205.862 306.634C205.485 306.467 205.156 306.236 204.876 305.941C204.596 305.641 204.382 305.291 204.233 304.893C204.079 304.494 204.002 304.058 204.002 303.584C204.002 303.059 204.093 302.585 204.276 302.163C204.453 301.736 204.716 301.378 205.065 301.089L205.888 301.99C205.653 302.198 205.479 302.429 205.365 302.683C205.245 302.938 205.185 303.215 205.185 303.515C205.185 303.798 205.231 304.058 205.322 304.295C205.413 304.532 205.545 304.737 205.716 304.91C205.888 305.083 206.091 305.219 206.325 305.317C206.559 305.41 206.819 305.456 207.105 305.456C207.391 305.456 207.651 305.41 207.885 305.317C208.119 305.219 208.322 305.083 208.493 304.91C208.665 304.737 208.796 304.532 208.888 304.295C208.979 304.058 209.025 303.798 209.025 303.515C209.025 303.215 208.968 302.938 208.853 302.683C208.733 302.429 208.553 302.198 208.313 301.99L209.136 301.089C209.485 301.378 209.751 301.736 209.933 302.163C210.116 302.585 210.208 303.062 210.208 303.593ZM210.105 300.141H204.105V298.98L208.425 295.402V295.965H204.105V294.578H210.105V295.731L205.785 299.318V298.755H210.105V300.141ZM210.105 293.144H204.105V291.982L208.339 289.401V290.016L204.105 287.477V286.325L210.105 286.307V287.624L206.102 287.633V287.39L209.471 289.418V290.05L206.102 292.121V291.827L210.105 291.826V293.144ZM210.105 285.665L204.105 282.962V281.576L210.105 278.864V280.337L204.808 282.555V282L210.105 284.227V285.665ZM208.819 284.314L207.765 283.941V280.822L208.819 280.44V284.314ZM210.105 278.234H204.105V277.073L208.425 273.495V274.058H204.105V272.672H210.105V273.824L205.785 277.411V276.848H210.105V278.234Z" fill="#1E1E1E"/>
</g>
</g>
<defs>
<clipPath id="clip0_185_381">
<rect width="10" height="110" fill="white" transform="translate(201.531 229.011)"/>
</clipPath>
</defs>
</svg>
