<svg width="651" height="651" viewBox="0 0 651 651" fill="none" xmlns="http://www.w3.org/2000/svg">
<rect width="650.941" height="650.941" rx="51" fill="white"/>
<path fill-rule="evenodd" clip-rule="evenodd" d="M175.322 183.474H270.428C272.929 183.474 274.976 185.551 274.976 188.088V386.806C271.353 398.041 267.729 409.276 264.106 420.511C263.499 421.762 262.19 422.374 260.356 422.51C259.82 422.795 259.285 423.081 258.749 423.366L224.245 423.52C212.235 423.474 200.225 423.429 188.215 423.384C187.762 423.143 187.838 422.951 187.334 422.908C184.294 422.648 182.952 421.701 182.543 420.432L170.773 386.461V348.604V188.088C170.773 185.55 172.82 183.474 175.322 183.474V183.474Z" stroke="black" stroke-width="0.8" stroke-miterlimit="22.9256"/>
<path fill-rule="evenodd" clip-rule="evenodd" d="M178.037 183.474L196.55 192.956L249.858 193.005L268.37 183.474L252.765 195.463C252.765 195.463 250.343 197.822 247.024 197.601H200.766C200.766 197.601 196.913 198.314 193.424 194.946L178.037 183.474Z" stroke="black" stroke-width="0.8" stroke-miterlimit="22.9256" stroke-linejoin="round"/>
<path d="M189.775 202.259L257.59 202.278L273.312 184.514" stroke="black" stroke-width="0.8" stroke-miterlimit="22.9256"/>
<path d="M185.619 205.465C185.619 204.875 170.773 189.635 170.773 189.635" stroke="black" stroke-width="0.8" stroke-miterlimit="22.9256"/>
<path d="M190.014 202.512L172.354 184.597" stroke="black" stroke-width="0.8" stroke-miterlimit="22.9256"/>
<path d="M261.576 205.465C261.576 204.875 274.977 189.635 274.977 189.635" stroke="black" stroke-width="0.8" stroke-miterlimit="22.9256"/>
<path d="M185.594 386.804V206.207C185.594 206.207 184.867 202.27 190.15 202.27" stroke="black" stroke-width="0.8" stroke-miterlimit="22.9256"/>
<path d="M261.532 386.804V206.207C261.532 206.207 262.259 202.27 256.977 202.27" stroke="black" stroke-width="0.8" stroke-miterlimit="22.9256"/>
<path d="M170.774 349.128L185.595 386.046C185.595 386.046 185.694 387.767 191.073 388.234C196.453 388.701 256.691 388.234 256.691 388.234C256.691 388.234 260.98 388.283 261.973 385.579L274.743 348.953V350.329L262.336 385.958C262.336 385.958 261.973 388.92 258.169 389.141C254.364 389.362 192.504 389.374 192.504 389.374C192.504 389.374 185.586 390.062 184.908 385.957L170.773 349.488" stroke="black" stroke-width="0.8" stroke-miterlimit="22.9256"/>
<path d="M187.623 422.966L201.651 400.651C202.061 399.871 202.845 399.052 203.508 398.518C205.306 397.072 207.525 396.452 209.81 396.421H236.445C237.417 396.344 238.65 396.518 239.575 396.751C241.876 397.331 243.871 398.59 245.358 400.473L245.391 400.515L259.606 422.906M237.983 427.835H237.757M209.055 427.812H208.726" stroke="black" stroke-width="0.8" stroke-miterlimit="22.9256"/>
<path d="M188.578 423.387L202.54 401.178C202.54 401.178 204.381 397.54 209.809 397.467H236.487C236.487 397.467 241.333 397.048 244.556 401.129L258.675 423.368M238.743 426.797H238.699M208.027 426.772H207.902" stroke="black" stroke-width="0.8" stroke-miterlimit="22.9256"/>
<path d="M185.593 386.804L182.418 420.075" stroke="black" stroke-width="0.8" stroke-miterlimit="22.9256"/>
<path d="M190.305 389.407L187.807 423.08" stroke="black" stroke-width="0.8" stroke-miterlimit="22.9256"/>
<path d="M261.535 386.368L264.498 419.296" stroke="black" stroke-width="0.8" stroke-miterlimit="22.9256"/>
<path d="M257.654 389.161L260.252 422.572" stroke="black" stroke-width="0.8" stroke-miterlimit="22.9256"/>
<path d="M189.775 202.27L190.265 389.368" stroke="black" stroke-width="0.8" stroke-miterlimit="22.9256"/>
<path d="M257.792 202.475L257.654 389.141" stroke="black" stroke-width="0.8" stroke-miterlimit="22.9256"/>
<path fill-rule="evenodd" clip-rule="evenodd" d="M209.97 423.453H207.27V425.332C207.695 426.607 208.454 427.736 209.779 428.665C210.415 432.682 213.081 435.525 223.335 435.705C233.453 435.882 236.183 432.896 236.864 428.865C238.836 427.454 239.563 425.564 239.806 423.453H236.699H209.97Z" stroke="black" stroke-width="0.8" stroke-miterlimit="22.9256"/>
<path d="M217.086 423.505C217.086 423.836 217.086 430.738 217.086 430.738" stroke="black" stroke-width="0.8" stroke-miterlimit="22.9256"/>
<path d="M218.684 423.467V430.915" stroke="black" stroke-width="0.8" stroke-miterlimit="22.9256"/>
<path d="M220.547 423.467V430.915" stroke="black" stroke-width="0.8" stroke-miterlimit="22.9256"/>
<path d="M222.41 423.467V430.915" stroke="black" stroke-width="0.8" stroke-miterlimit="22.9256"/>
<path d="M224.277 423.467V430.915" stroke="black" stroke-width="0.8" stroke-miterlimit="22.9256"/>
<path d="M226.146 423.467V430.915" stroke="black" stroke-width="0.8" stroke-miterlimit="22.9256"/>
<path d="M228.016 423.467V430.915" stroke="black" stroke-width="0.8" stroke-miterlimit="22.9256"/>
<path d="M229.879 423.467V430.915" stroke="black" stroke-width="0.8" stroke-miterlimit="22.9256"/>
<path d="M239.957 423.453C239.329 427.789 236.3 431.09 223.325 430.903C210.381 430.718 207.336 427.687 206.697 423.457" stroke="black" stroke-width="0.8" stroke-miterlimit="22.9256"/>
<line x1="222.201" y1="435.716" x2="222.201" y2="490.125" stroke="black"/>
<line x1="440.844" y1="386.173" x2="440.844" y2="490.122" stroke="black"/>
<line x1="440.344" y1="490.622" x2="221.701" y2="490.622" stroke="black"/>
<path d="M311.174 531.439L311.174 543.075L309.066 543.075L309.066 533.49L308.998 533.49L306.277 535.229L306.277 533.297L309.169 531.439L311.174 531.439ZM318.211 531.439L320.791 531.439L324.245 539.871L324.382 539.871L327.836 531.439L330.416 531.439L330.416 543.075L328.393 543.075L328.393 535.081L328.285 535.081L325.069 543.041L323.558 543.041L320.342 535.064L320.234 535.064L320.234 543.075L318.211 543.075L318.211 531.439ZM336.484 543.246C335.609 543.246 334.853 543.064 334.217 542.7C333.584 542.333 333.098 541.814 332.757 541.143C332.416 540.469 332.245 539.676 332.245 538.763C332.245 537.865 332.416 537.077 332.757 536.399C333.101 535.717 333.582 535.187 334.2 534.808C334.817 534.426 335.543 534.234 336.376 534.234C336.914 534.234 337.421 534.321 337.899 534.496C338.38 534.666 338.804 534.931 339.171 535.291C339.543 535.651 339.834 536.109 340.046 536.666C340.259 537.219 340.365 537.878 340.365 538.643L340.365 539.274L333.211 539.274L333.211 537.888L338.393 537.888C338.389 537.494 338.304 537.143 338.137 536.837C337.971 536.526 337.738 536.282 337.438 536.104C337.143 535.926 336.798 535.837 336.404 535.837C335.984 535.837 335.615 535.939 335.296 536.143C334.978 536.344 334.73 536.609 334.552 536.939C334.378 537.265 334.289 537.623 334.285 538.013L334.285 539.223C334.285 539.731 334.378 540.166 334.563 540.53C334.749 540.89 335.009 541.166 335.342 541.359C335.675 541.549 336.065 541.643 336.512 541.643C336.812 541.643 337.082 541.602 337.325 541.518C337.567 541.431 337.777 541.304 337.956 541.138C338.134 540.971 338.268 540.765 338.359 540.518L340.279 540.734C340.158 541.242 339.927 541.685 339.586 542.064C339.249 542.439 338.817 542.731 338.291 542.939C337.764 543.143 337.162 543.246 336.484 543.246ZM346.463 534.348L346.463 535.939L341.446 535.939L341.446 534.348L346.463 534.348ZM342.684 532.257L344.741 532.257L344.741 540.45C344.741 540.727 344.783 540.939 344.866 541.087C344.953 541.231 345.067 541.329 345.207 541.382C345.347 541.435 345.502 541.462 345.673 541.462C345.802 541.462 345.919 541.452 346.025 541.433C346.135 541.414 346.218 541.397 346.275 541.382L346.622 542.99C346.512 543.028 346.355 543.07 346.15 543.115C345.949 543.16 345.703 543.187 345.411 543.195C344.896 543.21 344.432 543.132 344.019 542.962C343.607 542.787 343.279 542.518 343.036 542.155C342.798 541.791 342.68 541.337 342.684 540.791L342.684 532.257ZM351.953 543.246C351.078 543.246 350.322 543.064 349.686 542.7C349.053 542.333 348.566 541.814 348.225 541.143C347.884 540.469 347.714 539.676 347.714 538.763C347.714 537.865 347.884 537.077 348.225 536.399C348.57 535.717 349.051 535.187 349.669 534.808C350.286 534.426 351.011 534.234 351.845 534.234C352.383 534.234 352.89 534.321 353.367 534.496C353.848 534.666 354.273 534.931 354.64 535.291C355.011 535.651 355.303 536.109 355.515 536.666C355.727 537.219 355.833 537.878 355.833 538.643L355.833 539.274L348.68 539.274L348.68 537.888L353.862 537.888C353.858 537.494 353.773 537.143 353.606 536.837C353.439 536.526 353.206 536.282 352.907 536.104C352.612 535.926 352.267 535.837 351.873 535.837C351.453 535.837 351.083 535.939 350.765 536.143C350.447 536.344 350.199 536.609 350.021 536.939C349.847 537.265 349.758 537.623 349.754 538.013L349.754 539.223C349.754 539.731 349.847 540.166 350.032 540.53C350.218 540.89 350.477 541.166 350.811 541.359C351.144 541.549 351.534 541.643 351.981 541.643C352.28 541.643 352.551 541.602 352.794 541.518C353.036 541.431 353.246 541.304 353.424 541.138C353.602 540.971 353.737 540.765 353.828 540.518L355.748 540.734C355.627 541.242 355.396 541.685 355.055 542.064C354.718 542.439 354.286 542.731 353.759 542.939C353.233 543.143 352.631 543.246 351.953 543.246ZM357.573 543.075L357.573 534.348L359.568 534.348L359.568 535.802L359.659 535.802C359.818 535.299 360.09 534.91 360.477 534.638C360.867 534.361 361.312 534.223 361.812 534.223C361.926 534.223 362.053 534.229 362.193 534.24C362.337 534.248 362.456 534.261 362.551 534.28L362.551 536.172C362.464 536.141 362.325 536.115 362.136 536.092C361.95 536.066 361.77 536.052 361.596 536.052C361.221 536.052 360.884 536.134 360.585 536.297C360.289 536.456 360.056 536.677 359.886 536.962C359.715 537.246 359.63 537.573 359.63 537.945L359.63 543.075L357.573 543.075ZM322.835 554.365L320.71 554.365C320.65 554.016 320.538 553.708 320.375 553.439C320.212 553.166 320.01 552.935 319.767 552.746C319.525 552.556 319.248 552.414 318.938 552.32C318.631 552.221 318.299 552.172 317.943 552.172C317.311 552.172 316.75 552.331 316.262 552.649C315.773 552.963 315.39 553.426 315.114 554.035C314.837 554.641 314.699 555.382 314.699 556.257C314.699 557.147 314.837 557.897 315.114 558.507C315.394 559.113 315.777 559.571 316.262 559.882C316.75 560.189 317.309 560.342 317.938 560.342C318.286 560.342 318.612 560.297 318.915 560.206C319.222 560.111 319.496 559.973 319.739 559.791C319.985 559.609 320.192 559.386 320.358 559.121C320.529 558.856 320.646 558.552 320.71 558.212L322.835 558.223C322.756 558.776 322.584 559.295 322.318 559.78C322.057 560.265 321.714 560.693 321.29 561.064C320.866 561.431 320.37 561.719 319.801 561.927C319.233 562.132 318.603 562.234 317.909 562.234C316.887 562.234 315.974 561.998 315.171 561.524C314.368 561.051 313.735 560.367 313.273 559.473C312.811 558.579 312.58 557.507 312.58 556.257C312.58 555.003 312.813 553.931 313.279 553.041C313.745 552.147 314.379 551.463 315.182 550.99C315.985 550.516 316.894 550.28 317.909 550.28C318.557 550.28 319.159 550.371 319.716 550.552C320.273 550.734 320.769 551.001 321.205 551.354C321.64 551.702 321.998 552.13 322.279 552.638C322.563 553.141 322.748 553.717 322.835 554.365ZM327.186 562.251C326.633 562.251 326.135 562.153 325.692 561.956C325.253 561.755 324.904 561.46 324.647 561.07C324.393 560.679 324.266 560.198 324.266 559.626C324.266 559.134 324.357 558.727 324.539 558.405C324.72 558.083 324.969 557.825 325.283 557.632C325.597 557.439 325.951 557.293 326.345 557.195C326.743 557.092 327.154 557.018 327.578 556.973C328.09 556.92 328.505 556.873 328.823 556.831C329.141 556.785 329.372 556.717 329.516 556.626C329.664 556.532 329.737 556.386 329.737 556.189L329.737 556.155C329.737 555.727 329.611 555.395 329.357 555.16C329.103 554.926 328.737 554.808 328.26 554.808C327.756 554.808 327.357 554.918 327.061 555.138C326.77 555.357 326.573 555.617 326.47 555.916L324.55 555.643C324.701 555.113 324.951 554.67 325.3 554.314C325.648 553.954 326.075 553.685 326.578 553.507C327.082 553.325 327.639 553.234 328.249 553.234C328.669 553.234 329.088 553.284 329.505 553.382C329.921 553.481 330.302 553.643 330.647 553.871C330.991 554.094 331.268 554.399 331.476 554.785C331.688 555.172 331.794 555.655 331.794 556.234L331.794 562.075L329.817 562.075L329.817 560.876L329.749 560.876C329.624 561.119 329.448 561.346 329.22 561.558C328.997 561.766 328.715 561.935 328.374 562.064C328.037 562.189 327.641 562.251 327.186 562.251ZM327.72 560.74C328.133 560.74 328.491 560.659 328.794 560.496C329.097 560.329 329.33 560.109 329.493 559.837C329.66 559.564 329.743 559.266 329.743 558.945L329.743 557.916C329.679 557.969 329.569 558.018 329.414 558.064C329.262 558.109 329.092 558.149 328.902 558.183C328.713 558.217 328.525 558.248 328.34 558.274C328.154 558.301 327.993 558.323 327.857 558.342C327.55 558.384 327.275 558.452 327.033 558.547C326.79 558.641 326.599 558.774 326.459 558.945C326.319 559.111 326.249 559.327 326.249 559.592C326.249 559.971 326.387 560.257 326.664 560.45C326.94 560.643 327.292 560.74 327.72 560.74ZM333.953 562.075L333.953 550.439L336.01 550.439L336.01 554.791L336.095 554.791C336.201 554.579 336.351 554.354 336.544 554.115C336.737 553.873 336.999 553.666 337.328 553.496C337.658 553.321 338.078 553.234 338.59 553.234C339.264 553.234 339.872 553.407 340.414 553.751C340.959 554.092 341.391 554.598 341.709 555.268C342.031 555.935 342.192 556.753 342.192 557.723C342.192 558.681 342.035 559.496 341.72 560.166C341.406 560.837 340.978 561.348 340.436 561.7C339.895 562.052 339.281 562.229 338.595 562.229C338.095 562.229 337.681 562.145 337.351 561.979C337.022 561.812 336.756 561.611 336.556 561.376C336.359 561.138 336.205 560.912 336.095 560.7L335.976 560.7L335.976 562.075L333.953 562.075ZM335.97 557.712C335.97 558.276 336.05 558.77 336.209 559.195C336.372 559.619 336.605 559.95 336.908 560.189C337.215 560.424 337.586 560.541 338.022 560.541C338.476 560.541 338.857 560.42 339.164 560.177C339.47 559.931 339.701 559.596 339.857 559.172C340.016 558.744 340.095 558.257 340.095 557.712C340.095 557.17 340.018 556.689 339.862 556.268C339.707 555.848 339.476 555.518 339.169 555.28C338.862 555.041 338.48 554.922 338.022 554.922C337.582 554.922 337.209 555.037 336.902 555.268C336.595 555.499 336.362 555.823 336.203 556.24C336.048 556.657 335.97 557.147 335.97 557.712ZM345.997 550.439L345.997 562.075L343.941 562.075L343.941 550.439L345.997 550.439ZM351.976 562.246C351.101 562.246 350.345 562.064 349.709 561.7C349.076 561.333 348.59 560.814 348.249 560.143C347.908 559.469 347.737 558.676 347.737 557.763C347.737 556.865 347.908 556.077 348.249 555.399C348.594 554.717 349.075 554.187 349.692 553.808C350.309 553.426 351.035 553.234 351.868 553.234C352.406 553.234 352.914 553.321 353.391 553.496C353.872 553.666 354.296 553.931 354.664 554.291C355.035 554.651 355.326 555.109 355.539 555.666C355.751 556.219 355.857 556.878 355.857 557.643L355.857 558.274L348.703 558.274L348.703 556.888L353.885 556.888C353.881 556.494 353.796 556.143 353.63 555.837C353.463 555.526 353.23 555.282 352.931 555.104C352.635 554.926 352.29 554.837 351.897 554.837C351.476 554.837 351.107 554.939 350.789 555.143C350.47 555.344 350.222 555.609 350.044 555.939C349.87 556.265 349.781 556.623 349.777 557.013L349.777 558.223C349.777 558.731 349.87 559.166 350.056 559.53C350.241 559.89 350.501 560.166 350.834 560.359C351.167 560.549 351.558 560.643 352.005 560.643C352.304 560.643 352.575 560.602 352.817 560.518C353.059 560.431 353.27 560.304 353.448 560.138C353.626 559.971 353.76 559.765 353.851 559.518L355.772 559.734C355.65 560.242 355.419 560.685 355.078 561.064C354.741 561.439 354.309 561.731 353.783 561.939C353.256 562.143 352.654 562.246 351.976 562.246Z" fill="#3C3B3B"/>
<line x1="220.847" y1="502.286" x2="220.847" y2="571.329" stroke="#D1D1D1" stroke-width="0.6"/>
<line x1="446.866" y1="502.286" x2="446.866" y2="571.329" stroke="#D1D1D1" stroke-width="0.6"/>
<line x1="288.348" y1="543.375" x2="220.546" y2="543.375" stroke="#D1D1D1" stroke-width="0.6"/>
<line x1="446.566" y1="543.375" x2="378.765" y2="543.375" stroke="#D1D1D1" stroke-width="0.6"/>
<path d="M96.1928 299.185V310.821H94.0849V301.236H94.0167L91.2951 302.975V301.043L94.1871 299.185H96.1928ZM103.193 310.98C102.435 310.98 101.757 310.838 101.159 310.554C100.56 310.266 100.085 309.872 99.7326 309.372C99.3841 308.872 99.1985 308.3 99.1758 307.657H101.221C101.259 308.134 101.466 308.524 101.841 308.827C102.216 309.126 102.666 309.276 103.193 309.276C103.606 309.276 103.973 309.181 104.295 308.992C104.617 308.802 104.871 308.539 105.056 308.202C105.242 307.865 105.333 307.48 105.329 307.049C105.333 306.609 105.24 306.219 105.051 305.878C104.861 305.537 104.602 305.27 104.272 305.077C103.943 304.88 103.564 304.782 103.136 304.782C102.788 304.778 102.445 304.842 102.108 304.975C101.77 305.107 101.503 305.282 101.306 305.497L99.4031 305.185L100.011 299.185H106.761V300.946H101.755L101.42 304.032H101.488C101.704 303.778 102.009 303.568 102.403 303.401C102.797 303.23 103.229 303.145 103.699 303.145C104.403 303.145 105.032 303.312 105.585 303.645C106.138 303.975 106.574 304.429 106.892 305.009C107.21 305.588 107.369 306.251 107.369 306.997C107.369 307.766 107.191 308.452 106.835 309.054C106.483 309.653 105.992 310.124 105.363 310.469C104.738 310.81 104.015 310.98 103.193 310.98ZM109.272 310.821V309.299L113.312 305.338C113.699 304.948 114.02 304.602 114.278 304.299C114.536 303.996 114.729 303.702 114.858 303.418C114.986 303.134 115.051 302.831 115.051 302.509C115.051 302.141 114.967 301.827 114.801 301.566C114.634 301.3 114.405 301.096 114.113 300.952C113.822 300.808 113.49 300.736 113.119 300.736C112.736 300.736 112.401 300.816 112.113 300.975C111.825 301.13 111.602 301.352 111.443 301.639C111.288 301.927 111.21 302.27 111.21 302.668H109.204C109.204 301.929 109.373 301.287 109.71 300.742C110.047 300.196 110.511 299.774 111.102 299.475C111.697 299.175 112.378 299.026 113.147 299.026C113.928 299.026 114.613 299.172 115.204 299.463C115.795 299.755 116.253 300.155 116.579 300.662C116.909 301.17 117.074 301.749 117.074 302.401C117.074 302.836 116.99 303.264 116.824 303.685C116.657 304.105 116.363 304.571 115.943 305.083C115.526 305.594 114.941 306.213 114.187 306.941L112.181 308.98V309.06H117.25V310.821H109.272ZM123.201 310.821V302.094H125.167V303.577H125.27C125.451 303.077 125.752 302.687 126.173 302.407C126.593 302.122 127.095 301.98 127.679 301.98C128.27 301.98 128.768 302.124 129.173 302.412C129.582 302.696 129.87 303.085 130.037 303.577H130.127C130.321 303.092 130.646 302.706 131.105 302.418C131.567 302.126 132.114 301.98 132.747 301.98C133.55 301.98 134.205 302.234 134.713 302.742C135.22 303.249 135.474 303.99 135.474 304.963V310.821H133.412V305.282C133.412 304.74 133.268 304.344 132.98 304.094C132.692 303.84 132.34 303.713 131.923 303.713C131.427 303.713 131.038 303.869 130.758 304.179C130.482 304.486 130.343 304.886 130.343 305.378V310.821H128.326V305.196C128.326 304.746 128.19 304.386 127.917 304.117C127.648 303.848 127.296 303.713 126.86 303.713C126.565 303.713 126.296 303.789 126.054 303.941C125.811 304.088 125.618 304.299 125.474 304.571C125.33 304.84 125.258 305.155 125.258 305.514V310.821H123.201ZM137.561 310.821V302.094H139.527V303.577H139.629C139.811 303.077 140.112 302.687 140.532 302.407C140.953 302.122 141.455 301.98 142.038 301.98C142.629 301.98 143.127 302.124 143.532 302.412C143.941 302.696 144.229 303.085 144.396 303.577H144.487C144.68 303.092 145.006 302.706 145.464 302.418C145.926 302.126 146.474 301.98 147.106 301.98C147.909 301.98 148.565 302.234 149.072 302.742C149.58 303.249 149.833 303.99 149.833 304.963V310.821H147.771V305.282C147.771 304.74 147.627 304.344 147.339 304.094C147.051 303.84 146.699 303.713 146.282 303.713C145.786 303.713 145.398 303.869 145.118 304.179C144.841 304.486 144.703 304.886 144.703 305.378V310.821H142.686V305.196C142.686 304.746 142.549 304.386 142.277 304.117C142.008 303.848 141.655 303.713 141.22 303.713C140.924 303.713 140.655 303.789 140.413 303.941C140.171 304.088 139.977 304.299 139.833 304.571C139.69 304.84 139.618 305.155 139.618 305.514V310.821H137.561Z" fill="#3C3B3B"/>
<line x1="221.458" y1="150.565" x2="221.458" y2="185.017" stroke="#D1D1D1" stroke-width="0.6"/>
<line x1="218.034" y1="435.716" x2="218.034" y2="470.168" stroke="#D1D1D1" stroke-width="0.6"/>
<line x1="123.271" y1="285.629" x2="107.257" y2="285.629" stroke="#D1D1D1" stroke-width="0.6"/>
<line x1="123.27" y1="326.281" x2="107.255" y2="326.281" stroke="#D1D1D1" stroke-width="0.6"/>
<line x1="221.701" y1="168.094" x2="114.69" y2="168.094" stroke="#D1D1D1" stroke-width="0.6"/>
<line x1="217.734" y1="451.824" x2="114.284" y2="451.824" stroke="#D1D1D1" stroke-width="0.6"/>
<line x1="114.964" y1="285.329" x2="114.964" y2="167.797" stroke="#D1D1D1" stroke-width="0.6"/>
<line x1="114.964" y1="451.524" x2="114.964" y2="325.984" stroke="#D1D1D1" stroke-width="0.6"/>
<path d="M449.521 376.107V381.806C449.521 384.318 447.484 386.355 444.972 386.355H436.717C433.652 386.355 431.167 383.871 431.167 380.806V376.107H449.521Z" stroke="black" stroke-width="0.9"/>
<path d="M399.352 375.908L399.352 337.776C399.352 333.054 403.179 329.227 407.901 329.227L476.082 329.227C478.595 329.227 480.632 331.264 480.632 333.776L480.632 375.908L399.352 375.908Z" stroke="black" stroke-width="0.9"/>
<path d="M418.919 329.273L418.919 327.196C418.919 315.558 428.354 306.123 439.992 306.123C451.631 306.123 461.065 315.558 461.065 327.196L461.065 329.273L418.919 329.273Z" stroke="black" stroke-width="0.9"/>
<path d="M545.72 236.851C545.72 236.006 545.862 235.256 546.146 234.601C546.43 233.95 546.818 233.438 547.311 233.067C547.807 232.7 548.369 232.518 548.998 232.522C549.487 232.518 549.936 232.624 550.345 232.84C550.754 233.056 551.095 233.347 551.368 233.715C551.644 234.086 551.82 234.499 551.896 234.953L551.975 234.953C552.108 234.355 552.413 233.87 552.89 233.499C553.371 233.131 553.926 232.95 554.555 232.953C555.154 232.95 555.688 233.116 556.157 233.453C556.627 233.791 556.996 234.253 557.265 234.84C557.538 235.427 557.674 236.097 557.674 236.851C557.674 237.597 557.538 238.262 557.265 238.845C556.996 239.433 556.627 239.895 556.157 240.232C555.688 240.573 555.154 240.743 554.555 240.743C553.926 240.743 553.371 240.556 552.89 240.181C552.413 239.809 552.108 239.33 551.975 238.743L551.896 238.743C551.82 239.198 551.644 239.607 551.368 239.97C551.095 240.338 550.754 240.63 550.345 240.845C549.936 241.065 549.487 241.175 548.998 241.175C548.369 241.175 547.807 240.989 547.311 240.618C546.818 240.247 546.43 239.736 546.146 239.084C545.862 238.436 545.72 237.692 545.72 236.851ZM547.345 236.851C547.345 237.287 547.419 237.666 547.566 237.987C547.718 238.309 547.93 238.559 548.203 238.737C548.475 238.916 548.79 239.006 549.146 239.01C549.517 239.006 549.845 238.91 550.129 238.72C550.417 238.535 550.642 238.279 550.805 237.953C550.968 237.631 551.049 237.264 551.049 236.851C551.049 236.434 550.968 236.063 550.805 235.737C550.642 235.412 550.417 235.154 550.129 234.965C549.845 234.779 549.517 234.688 549.146 234.692C548.79 234.688 548.475 234.775 548.203 234.953C547.934 235.131 547.724 235.381 547.572 235.703C547.421 236.029 547.345 236.412 547.345 236.851ZM552.646 236.851C552.646 237.207 552.718 237.522 552.862 237.794C553.006 238.071 553.207 238.289 553.464 238.448C553.722 238.607 554.019 238.688 554.356 238.692C554.69 238.688 554.981 238.609 555.231 238.453C555.485 238.298 555.68 238.082 555.816 237.806C555.957 237.529 556.027 237.211 556.027 236.851C556.027 236.484 555.957 236.16 555.816 235.88C555.68 235.603 555.485 235.387 555.231 235.232C554.981 235.08 554.69 235.006 554.356 235.01C554.019 235.006 553.722 235.082 553.464 235.237C553.21 235.397 553.01 235.614 552.862 235.891C552.718 236.171 552.646 236.491 552.646 236.851ZM545.879 243.043L547.402 243.043L551.362 247.083C551.752 247.469 552.099 247.791 552.402 248.049C552.705 248.306 552.998 248.499 553.282 248.628C553.566 248.757 553.869 248.821 554.191 248.821C554.559 248.821 554.873 248.738 555.135 248.571C555.4 248.405 555.604 248.175 555.748 247.884C555.892 247.592 555.964 247.261 555.964 246.889C555.964 246.507 555.885 246.172 555.725 245.884C555.57 245.596 555.349 245.372 555.061 245.213C554.773 245.058 554.43 244.98 554.032 244.98L554.032 242.975C554.771 242.975 555.413 243.143 555.958 243.48C556.504 243.818 556.926 244.282 557.225 244.872C557.525 245.467 557.674 246.149 557.674 246.918C557.674 247.698 557.529 248.384 557.237 248.975C556.945 249.566 556.546 250.024 556.038 250.35C555.53 250.679 554.951 250.844 554.299 250.844C553.864 250.844 553.436 250.761 553.015 250.594C552.595 250.427 552.129 250.134 551.618 249.713C551.106 249.297 550.487 248.711 549.76 247.958L547.72 245.952L547.64 245.952L547.64 251.02L545.879 251.02L545.879 243.043ZM545.879 256.972L554.606 256.972L554.606 258.938L553.123 258.938L553.123 259.04C553.623 259.222 554.013 259.523 554.294 259.943C554.578 260.364 554.72 260.866 554.72 261.449C554.72 262.04 554.576 262.538 554.288 262.943C554.004 263.353 553.616 263.64 553.123 263.807L553.123 263.898C553.608 264.091 553.994 264.417 554.282 264.875C554.574 265.337 554.72 265.885 554.72 266.517C554.72 267.32 554.466 267.976 553.958 268.483C553.451 268.991 552.71 269.245 551.737 269.245L545.879 269.245L545.879 267.182L551.419 267.182C551.96 267.182 552.356 267.038 552.606 266.75C552.86 266.462 552.987 266.11 552.987 265.693C552.987 265.197 552.832 264.809 552.521 264.529C552.214 264.252 551.815 264.114 551.322 264.114L545.879 264.114L545.879 262.097L551.504 262.097C551.955 262.097 552.315 261.96 552.583 261.688C552.852 261.419 552.987 261.067 552.987 260.631C552.987 260.335 552.911 260.067 552.76 259.824C552.612 259.582 552.402 259.389 552.129 259.245C551.86 259.101 551.546 259.029 551.186 259.029L545.879 259.029L545.879 256.972ZM545.879 271.331L554.606 271.331L554.606 273.297L553.123 273.297L553.123 273.399C553.623 273.581 554.013 273.882 554.294 274.303C554.578 274.723 554.72 275.225 554.72 275.809C554.72 276.399 554.576 276.898 554.288 277.303C554.004 277.712 553.616 278 553.123 278.166L553.123 278.257C553.608 278.451 553.994 278.776 554.282 279.235C554.574 279.697 554.72 280.244 554.72 280.877C554.72 281.68 554.466 282.335 553.958 282.843C553.451 283.35 552.71 283.604 551.737 283.604L545.879 283.604L545.879 281.541L551.419 281.541C551.96 281.541 552.356 281.398 552.606 281.11C552.86 280.822 552.987 280.469 552.987 280.053C552.987 279.557 552.832 279.168 552.521 278.888C552.214 278.612 551.815 278.473 551.322 278.473L545.879 278.473L545.879 276.456L551.504 276.456C551.955 276.456 552.315 276.32 552.583 276.047C552.852 275.778 552.987 275.426 552.987 274.99C552.987 274.695 552.911 274.426 552.76 274.184C552.612 273.941 552.402 273.748 552.129 273.604C551.86 273.46 551.546 273.388 551.186 273.388L545.879 273.388L545.879 271.331Z" fill="#3C3B3B"/>
<path d="M326.247 228.354L331.196 218.559V218.479H325.452V216.718L333.378 216.718V218.519L328.435 228.354H326.247ZM339.223 228.514C338.666 228.51 338.123 228.413 337.593 228.224C337.062 228.031 336.585 227.718 336.161 227.286C335.736 226.851 335.399 226.273 335.149 225.553C334.899 224.83 334.776 223.934 334.78 222.866C334.78 221.87 334.886 220.981 335.098 220.201C335.31 219.421 335.615 218.762 336.013 218.224C336.411 217.682 336.89 217.269 337.45 216.985C338.015 216.701 338.646 216.559 339.343 216.559C340.074 216.559 340.721 216.703 341.286 216.991C341.854 217.279 342.312 217.673 342.661 218.173C343.009 218.669 343.225 219.229 343.308 219.854H341.235C341.128 219.408 340.911 219.051 340.581 218.786C340.255 218.517 339.843 218.383 339.343 218.383C338.536 218.383 337.914 218.733 337.479 219.434C337.047 220.135 336.829 221.097 336.825 222.32H336.905C337.091 221.987 337.331 221.701 337.627 221.462C337.922 221.224 338.255 221.04 338.627 220.911C339.002 220.779 339.397 220.712 339.814 220.712C340.496 220.712 341.108 220.875 341.649 221.201C342.195 221.527 342.627 221.976 342.945 222.548C343.263 223.116 343.42 223.767 343.416 224.502C343.42 225.267 343.246 225.955 342.894 226.565C342.541 227.171 342.051 227.648 341.422 227.997C340.793 228.345 340.06 228.517 339.223 228.514ZM339.212 226.809C339.625 226.809 339.994 226.709 340.32 226.508C340.646 226.307 340.903 226.036 341.093 225.695C341.282 225.354 341.375 224.972 341.371 224.548C341.375 224.131 341.284 223.754 341.098 223.417C340.916 223.08 340.664 222.813 340.343 222.616C340.021 222.419 339.653 222.32 339.24 222.32C338.933 222.32 338.647 222.379 338.382 222.497C338.117 222.614 337.886 222.777 337.689 222.985C337.492 223.19 337.337 223.428 337.223 223.701C337.113 223.97 337.057 224.258 337.053 224.565C337.057 224.97 337.151 225.343 337.337 225.684C337.522 226.025 337.778 226.298 338.104 226.502C338.43 226.707 338.799 226.809 339.212 226.809ZM349.328 228.354V219.627L351.294 219.627V221.11H351.396C351.578 220.61 351.879 220.22 352.3 219.94C352.72 219.656 353.222 219.514 353.806 219.514C354.396 219.514 354.895 219.658 355.3 219.945C355.709 220.229 355.997 220.618 356.164 221.11H356.254C356.448 220.625 356.773 220.239 357.232 219.951C357.694 219.659 358.241 219.514 358.874 219.514C359.677 219.514 360.332 219.767 360.84 220.275C361.347 220.783 361.601 221.523 361.601 222.497V228.354H359.539V222.815C359.539 222.273 359.395 221.877 359.107 221.627C358.819 221.373 358.467 221.247 358.05 221.247C357.554 221.247 357.165 221.402 356.885 221.712C356.609 222.019 356.47 222.419 356.47 222.911V228.354H354.453V222.729C354.453 222.279 354.317 221.919 354.044 221.65C353.775 221.381 353.423 221.247 352.987 221.247C352.692 221.247 352.423 221.322 352.181 221.474C351.938 221.622 351.745 221.832 351.601 222.104C351.457 222.373 351.385 222.688 351.385 223.048V228.354H349.328ZM363.688 228.354V219.627H365.654V221.11H365.756C365.938 220.61 366.239 220.22 366.659 219.94C367.08 219.656 367.582 219.514 368.165 219.514C368.756 219.514 369.254 219.658 369.659 219.945C370.068 220.229 370.356 220.618 370.523 221.11H370.614C370.807 220.625 371.133 220.239 371.591 219.951C372.053 219.659 372.601 219.514 373.233 219.514C374.036 219.514 374.691 219.767 375.199 220.275C375.707 220.783 375.96 221.523 375.96 222.497V228.354H373.898V222.815C373.898 222.273 373.754 221.877 373.466 221.627C373.178 221.373 372.826 221.247 372.409 221.247C371.913 221.247 371.525 221.402 371.244 221.712C370.968 222.019 370.83 222.419 370.83 222.911V228.354H368.813V222.729C368.813 222.279 368.676 221.919 368.404 221.65C368.135 221.381 367.782 221.247 367.347 221.247C367.051 221.247 366.782 221.322 366.54 221.474C366.298 221.622 366.104 221.832 365.96 222.104C365.816 222.373 365.744 222.688 365.744 223.048V228.354H363.688Z" fill="#3C3B3B"/>
<line x1="551.221" y1="305.369" x2="440.535" y2="305.369" stroke="#D1D1D1" stroke-width="0.6"/>
<line x1="398.474" y1="223.013" x2="398.474" y2="333.698" stroke="#D1D1D1" stroke-width="0.6"/>
<line x1="551.221" y1="376.658" x2="483.232" y2="376.658" stroke="#D1D1D1" stroke-width="0.6"/>
<line x1="481.382" y1="223.013" x2="481.382" y2="331.44" stroke="#D1D1D1" stroke-width="0.6"/>
<line x1="538.458" y1="377.415" x2="538.458" y2="231.681" stroke="#D1D1D1" stroke-width="0.6"/>
<line x1="481.082" y1="235.776" x2="324.787" y2="235.776" stroke="#D1D1D1" stroke-width="0.6"/>
<path d="M208.039 126.795C207.482 126.791 206.938 126.694 206.408 126.505C205.878 126.312 205.4 125.999 204.976 125.568C204.552 125.132 204.215 124.554 203.965 123.835C203.715 123.111 203.592 122.215 203.595 121.147C203.595 120.151 203.701 119.263 203.914 118.482C204.126 117.702 204.431 117.043 204.828 116.505C205.226 115.963 205.705 115.551 206.266 115.266C206.83 114.982 207.461 114.84 208.158 114.84C208.889 114.84 209.537 114.984 210.101 115.272C210.669 115.56 211.128 115.954 211.476 116.454C211.825 116.95 212.04 117.511 212.124 118.136L210.05 118.136C209.944 117.689 209.726 117.333 209.397 117.068C209.071 116.799 208.658 116.664 208.158 116.664C207.351 116.664 206.73 117.015 206.294 117.715C205.862 118.416 205.645 119.378 205.641 120.602L205.72 120.602C205.906 120.268 206.147 119.982 206.442 119.744C206.737 119.505 207.071 119.321 207.442 119.193C207.817 119.06 208.213 118.994 208.63 118.994C209.311 118.994 209.923 119.157 210.465 119.482C211.01 119.808 211.442 120.257 211.76 120.829C212.078 121.397 212.236 122.049 212.232 122.783C212.236 123.549 212.061 124.236 211.709 124.846C211.357 125.452 210.866 125.929 210.237 126.278C209.609 126.626 208.876 126.799 208.039 126.795ZM208.027 125.09C208.44 125.09 208.809 124.99 209.135 124.789C209.461 124.588 209.719 124.318 209.908 123.977C210.097 123.636 210.19 123.253 210.186 122.829C210.19 122.412 210.099 122.035 209.914 121.698C209.732 121.361 209.48 121.094 209.158 120.897C208.836 120.7 208.469 120.602 208.056 120.602C207.749 120.602 207.463 120.66 207.198 120.778C206.933 120.895 206.701 121.058 206.505 121.266C206.308 121.471 206.152 121.71 206.039 121.982C205.929 122.251 205.872 122.539 205.868 122.846C205.872 123.251 205.967 123.624 206.152 123.965C206.338 124.306 206.594 124.579 206.919 124.783C207.245 124.988 207.614 125.09 208.027 125.09ZM214.152 126.636L214.152 125.113L218.192 121.153C218.578 120.763 218.9 120.416 219.158 120.113C219.415 119.81 219.609 119.516 219.737 119.232C219.866 118.948 219.931 118.645 219.931 118.323C219.931 117.956 219.847 117.641 219.681 117.38C219.514 117.115 219.285 116.91 218.993 116.766C218.701 116.622 218.37 116.551 217.999 116.551C217.616 116.551 217.281 116.63 216.993 116.789C216.705 116.944 216.482 117.166 216.323 117.454C216.167 117.742 216.09 118.085 216.09 118.482L214.084 118.482C214.084 117.744 214.253 117.102 214.59 116.556C214.927 116.011 215.391 115.588 215.982 115.289C216.576 114.99 217.258 114.84 218.027 114.84C218.808 114.84 219.493 114.986 220.084 115.278C220.675 115.569 221.133 115.969 221.459 116.477C221.789 116.984 221.953 117.564 221.953 118.215C221.953 118.651 221.87 119.079 221.703 119.499C221.537 119.92 221.243 120.386 220.823 120.897C220.406 121.408 219.821 122.028 219.067 122.755L217.061 124.795L217.061 124.874L222.13 124.874L222.13 126.636L214.152 126.636ZM224.112 126.636L224.112 117.908L226.078 117.908L226.078 119.391L226.181 119.391C226.362 118.891 226.664 118.501 227.084 118.221C227.505 117.937 228.006 117.795 228.59 117.795C229.181 117.795 229.679 117.939 230.084 118.227C230.493 118.511 230.781 118.899 230.948 119.391L231.039 119.391C231.232 118.907 231.558 118.52 232.016 118.232C232.478 117.941 233.025 117.795 233.658 117.795C234.461 117.795 235.116 118.049 235.624 118.556C236.131 119.064 236.385 119.804 236.385 120.778L236.385 126.636L234.323 126.636L234.323 121.096C234.323 120.554 234.179 120.158 233.891 119.908C233.603 119.655 233.251 119.528 232.834 119.528C232.338 119.528 231.95 119.683 231.669 119.994C231.393 120.301 231.255 120.7 231.255 121.193L231.255 126.636L229.237 126.636L229.237 121.011C229.237 120.56 229.101 120.2 228.828 119.931C228.559 119.662 228.207 119.528 227.772 119.528C227.476 119.528 227.207 119.604 226.965 119.755C226.722 119.903 226.529 120.113 226.385 120.386C226.241 120.655 226.169 120.969 226.169 121.329L226.169 126.636L224.112 126.636ZM238.472 126.636L238.472 117.908L240.438 117.908L240.438 119.391L240.54 119.391C240.722 118.891 241.023 118.501 241.443 118.221C241.864 117.937 242.366 117.795 242.949 117.795C243.54 117.795 244.038 117.939 244.443 118.227C244.853 118.511 245.14 118.899 245.307 119.391L245.398 119.391C245.591 118.907 245.917 118.52 246.375 118.232C246.837 117.941 247.385 117.795 248.017 117.795C248.82 117.795 249.476 118.049 249.983 118.556C250.491 119.064 250.745 119.804 250.745 120.778L250.745 126.636L248.682 126.636L248.682 121.096C248.682 120.554 248.538 120.158 248.25 119.908C247.962 119.655 247.61 119.528 247.193 119.528C246.697 119.528 246.309 119.683 246.029 119.994C245.752 120.301 245.614 120.7 245.614 121.193L245.614 126.636L243.597 126.636L243.597 121.011C243.597 120.56 243.46 120.2 243.188 119.931C242.919 119.662 242.567 119.528 242.131 119.528C241.835 119.528 241.567 119.604 241.324 119.755C241.082 119.903 240.889 120.113 240.745 120.386C240.601 120.655 240.529 120.969 240.529 121.329L240.529 126.636L238.472 126.636Z" fill="#3C3B3B"/>
<line x1="173.782" y1="85.8506" x2="173.782" y2="154.893" stroke="#D1D1D1" stroke-width="0.6"/>
<line x1="274.07" y1="86.7959" x2="274.07" y2="155.838" stroke="#D1D1D1" stroke-width="0.6"/>
<line x1="191.115" y1="122.92" x2="173.482" y2="122.92" stroke="#D1D1D1" stroke-width="0.6"/>
<line x1="273.77" y1="122.92" x2="260.736" y2="122.92" stroke="#D1D1D1" stroke-width="0.6"/>
<g clip-path="url(#clip0_141_490)">
<path d="M222.001 286.439H227.48V287.622H225.094V289.598H225.344C225.876 289.598 226.105 289.849 226.105 290.22C226.105 290.822 225.23 291.614 224.626 291.614C224.334 291.614 224.084 291.454 224.084 290.902L224.094 290.782H222.001V291.955H221.001V285.476H222.001V286.439ZM222.001 287.622V289.598H224.084V287.622H222.001ZM218.636 284.99C220.011 285.17 220.511 285.912 220.511 287.026C220.511 288.139 220.011 288.882 218.636 289.062L218.396 288.109C219.282 287.989 219.605 287.648 219.605 287.026C219.605 286.414 219.282 286.073 218.396 285.943L218.636 284.99ZM222.001 277.393V280.653H223.678C223.459 280.372 223.313 280.001 223.313 279.539C223.313 278.526 223.969 277.904 225.053 277.904C225.751 277.904 226.407 278.135 227.126 278.707L226.521 279.73C226.063 279.339 225.615 279.078 225.063 279.078C224.563 279.078 224.303 279.319 224.303 279.73C224.303 280.101 224.553 280.452 224.917 280.653H227.48V281.826H226.001C226.271 282.217 226.428 282.689 226.428 283.23C226.428 284.384 225.782 285.237 224.574 285.237C223.407 285.237 222.74 284.454 222.74 283.11C222.74 282.759 222.782 282.438 222.844 282.147L223.844 282.247C223.792 282.468 223.761 282.719 223.761 282.99C223.761 283.682 224.063 284.053 224.605 284.053C225.146 284.053 225.417 283.682 225.417 283.16C225.417 282.608 225.094 282.117 224.699 281.826H222.001V285.628H221.001V277.393H222.001ZM221.001 277.547V271.458H222.001V272.421H227.48V273.605H224.615V275.209H224.969C225.501 275.209 225.751 275.44 225.751 275.841C225.751 276.443 224.876 277.216 224.23 277.216C223.865 277.216 223.605 277.045 223.605 276.493V273.605H222.001V277.547H221.001ZM222.001 266.084H227.48V267.268H225.094V269.244H225.344C225.876 269.244 226.105 269.494 226.105 269.866C226.105 270.467 225.23 271.26 224.626 271.26C224.334 271.26 224.084 271.099 224.084 270.548L224.094 270.427H222.001V271.601H221.001V265.121H222.001V266.084ZM222.001 267.268V269.244H224.084V267.268H222.001ZM218.636 264.635C220.011 264.816 220.511 265.558 220.511 266.671C220.511 267.785 220.011 268.527 218.636 268.707L218.396 267.755C219.282 267.634 219.605 267.293 219.605 266.671C219.605 266.059 219.282 265.718 218.396 265.588L218.636 264.635ZM221.001 265.273V259.185H222.001V260.147H227.48V261.331H224.615V262.936H224.969C225.501 262.936 225.751 263.167 225.751 263.568C225.751 264.17 224.876 264.942 224.23 264.942C223.865 264.942 223.605 264.771 223.605 264.22V261.331H222.001V265.273H221.001Z" fill="#1E1E1E"/>
<path d="M221.756 297.331H226.991" stroke="#1E1E1E" stroke-width="0.4" stroke-linecap="round"/>
<mask id="mask0_141_490" style="mask-type:luminance" maskUnits="userSpaceOnUse" x="217" y="300" width="11" height="69">
<path d="M217.938 300.956V368.828H227.938V300.956H217.938Z" fill="white"/>
</mask>
<g mask="url(#mask0_141_490)">
<path d="M220.752 354.462L226.505 357.579V360.101L220.75 356.854L220.752 354.462Z" fill="#1E1E1E"/>
<path d="M220.752 358.823L226.505 361.939V364.462L220.75 361.215L220.752 358.823Z" fill="#1E1E1E"/>
<path d="M220.752 363.188L226.505 366.305V368.828L220.75 365.58L220.752 363.188Z" fill="#1E1E1E"/>
<path d="M226.511 351.494H220.511V350.333L224.745 347.751V348.366L220.511 345.827V344.675L226.511 344.658V345.975L222.508 345.983V345.741L225.877 347.768V348.401L222.508 350.472V350.177H226.511V351.494ZM226.511 344.016L220.511 341.312V339.926L226.511 337.214V338.687L221.214 340.905V340.351L226.511 342.577V344.016ZM225.225 342.664L224.171 342.291V339.172L225.225 338.791V342.664ZM226.614 333.767C226.614 334.235 226.54 334.671 226.391 335.075C226.237 335.474 226.02 335.82 225.74 336.115C225.46 336.41 225.131 336.641 224.754 336.808C224.377 336.97 223.963 337.051 223.511 337.051C223.06 337.051 222.645 336.97 222.268 336.808C221.891 336.641 221.563 336.41 221.283 336.115C221.003 335.815 220.788 335.465 220.64 335.067C220.485 334.668 220.408 334.232 220.408 333.758C220.408 333.233 220.5 332.759 220.683 332.337C220.86 331.91 221.123 331.552 221.471 331.263L222.294 332.164C222.06 332.372 221.885 332.603 221.771 332.857C221.651 333.111 221.591 333.388 221.591 333.689C221.591 333.972 221.637 334.232 221.728 334.469C221.82 334.706 221.951 334.911 222.123 335.084C222.294 335.257 222.497 335.393 222.731 335.491C222.965 335.584 223.225 335.63 223.511 335.63C223.797 335.63 224.057 335.584 224.291 335.491C224.525 335.393 224.728 335.257 224.9 335.084C225.071 334.911 225.203 334.706 225.294 334.469C225.385 334.232 225.431 333.972 225.431 333.689C225.431 333.388 225.374 333.111 225.26 332.857C225.14 332.603 224.96 332.372 224.72 332.164L225.543 331.263C225.891 331.552 226.157 331.91 226.34 332.337C226.523 332.759 226.614 333.235 226.614 333.767ZM226.511 330.315H220.511V329.154L224.831 325.575V326.139H220.511V324.752H226.511V325.905L222.191 329.492V328.929H226.511V330.315ZM226.511 323.317H220.511V322.156L224.745 319.574V320.189L220.511 317.651V316.498L226.511 316.481V317.798L222.508 317.807V317.564L225.877 319.592V320.224L222.508 322.295V322L226.511 322V323.317ZM226.511 315.839L220.511 313.136V311.749L226.511 309.038V310.51L221.214 312.729V312.174L226.511 314.401V315.839ZM225.225 314.487L224.171 314.115V310.996L225.225 310.614V314.487ZM226.511 308.408H220.511V307.247L224.831 303.669V304.232H220.511V302.846H226.511V303.998L222.191 307.585V307.022H226.511V308.408Z" fill="#1E1E1E"/>
</g>
</g>
<defs>
<clipPath id="clip0_141_490">
<rect width="10" height="110" fill="white" transform="translate(217.938 259.185)"/>
</clipPath>
</defs>
</svg>
