<svg width="900" height="900" viewBox="0 0 900 900" fill="none" xmlns="http://www.w3.org/2000/svg">
<rect width="900" height="900" rx="51" fill="white"/>
<path d="M323.592 752.511C322.652 752.504 321.735 752.341 320.84 752.022C319.945 751.696 319.14 751.168 318.424 750.44C317.708 749.705 317.139 748.73 316.717 747.515C316.296 746.294 316.088 744.783 316.094 742.98C316.094 741.299 316.273 739.8 316.631 738.483C316.989 737.167 317.504 736.054 318.175 735.147C318.846 734.233 319.655 733.536 320.601 733.056C321.553 732.577 322.617 732.337 323.793 732.337C325.027 732.337 326.12 732.58 327.073 733.066C328.031 733.552 328.805 734.217 329.393 735.06C329.981 735.898 330.345 736.844 330.486 737.898L326.986 737.898C326.807 737.144 326.44 736.543 325.884 736.096C325.334 735.642 324.637 735.415 323.793 735.415C322.432 735.415 321.384 736.006 320.649 737.189C319.92 738.371 319.552 739.995 319.546 742.06L319.68 742.06C319.993 741.497 320.399 741.015 320.898 740.612C321.396 740.209 321.959 739.899 322.585 739.682C323.218 739.458 323.886 739.346 324.589 739.346C325.74 739.346 326.772 739.621 327.686 740.171C328.607 740.721 329.335 741.478 329.872 742.443C330.409 743.402 330.674 744.501 330.668 745.741C330.674 747.033 330.38 748.193 329.786 749.222C329.192 750.245 328.364 751.05 327.303 751.638C326.242 752.226 325.005 752.517 323.592 752.511ZM323.573 749.634C324.27 749.634 324.893 749.465 325.443 749.126C325.992 748.787 326.427 748.33 326.747 747.755C327.066 747.18 327.223 746.534 327.216 745.818C327.223 745.115 327.069 744.479 326.756 743.91C326.449 743.341 326.024 742.891 325.481 742.558C324.938 742.226 324.318 742.06 323.621 742.06C323.103 742.06 322.621 742.159 322.173 742.357C321.726 742.555 321.336 742.83 321.003 743.181C320.671 743.527 320.409 743.929 320.217 744.39C320.032 744.843 319.936 745.329 319.929 745.847C319.936 746.531 320.096 747.161 320.409 747.736C320.722 748.311 321.154 748.771 321.703 749.116C322.253 749.462 322.876 749.634 323.573 749.634ZM333.909 752.242L333.909 749.673L340.726 742.99C341.378 742.331 341.921 741.746 342.356 741.235C342.791 740.724 343.117 740.228 343.334 739.749C343.551 739.27 343.66 738.758 343.66 738.215C343.66 737.595 343.519 737.064 343.238 736.623C342.957 736.176 342.57 735.831 342.078 735.588C341.586 735.345 341.026 735.223 340.4 735.223C339.754 735.223 339.189 735.358 338.703 735.626C338.217 735.888 337.84 736.262 337.571 736.748C337.309 737.234 337.178 737.812 337.178 738.483L333.794 738.483C333.794 737.237 334.078 736.153 334.647 735.233C335.216 734.313 335.999 733.6 336.996 733.095C338 732.59 339.15 732.337 340.448 732.337C341.765 732.337 342.922 732.583 343.919 733.076C344.916 733.568 345.689 734.242 346.239 735.099C346.795 735.955 347.073 736.933 347.073 738.033C347.073 738.768 346.933 739.49 346.651 740.2C346.37 740.909 345.875 741.695 345.165 742.558C344.462 743.421 343.475 744.466 342.203 745.694L338.818 749.136L338.818 749.27L347.371 749.27L347.371 752.242L333.909 752.242ZM350.717 752.242L350.717 737.515L354.034 737.515L354.034 740.017L354.207 740.017C354.514 739.174 355.022 738.515 355.731 738.042C356.441 737.563 357.288 737.323 358.272 737.323C359.269 737.323 360.11 737.566 360.794 738.052C361.484 738.531 361.97 739.186 362.251 740.017L362.405 740.017C362.731 739.199 363.28 738.547 364.054 738.061C364.834 737.569 365.757 737.323 366.825 737.323C368.18 737.323 369.286 737.751 370.142 738.608C370.999 739.464 371.427 740.714 371.427 742.357L371.427 752.242L367.946 752.242L367.946 742.894C367.946 741.98 367.704 741.312 367.218 740.89C366.732 740.462 366.138 740.248 365.434 740.248C364.597 740.248 363.942 740.51 363.469 741.034C363.002 741.551 362.769 742.226 362.769 743.057L362.769 752.242L359.365 752.242L359.365 742.75C359.365 741.989 359.135 741.382 358.675 740.928C358.221 740.474 357.627 740.248 356.891 740.248C356.393 740.248 355.939 740.375 355.53 740.631C355.121 740.88 354.795 741.235 354.552 741.695C354.309 742.149 354.188 742.68 354.188 743.287L354.188 752.242L350.717 752.242ZM374.948 752.242L374.948 737.515L378.266 737.515L378.266 740.017L378.438 740.017C378.745 739.174 379.253 738.515 379.963 738.042C380.672 737.563 381.519 737.323 382.504 737.323C383.501 737.323 384.341 737.566 385.025 738.052C385.716 738.531 386.201 739.186 386.483 740.017L386.636 740.017C386.962 739.199 387.512 738.547 388.285 738.061C389.065 737.569 389.989 737.323 391.056 737.323C392.411 737.323 393.517 737.751 394.374 738.608C395.23 739.464 395.658 740.714 395.658 742.357L395.658 752.242L392.178 752.242L392.178 742.894C392.178 741.98 391.935 741.312 391.449 740.89C390.963 740.462 390.369 740.248 389.666 740.248C388.829 740.248 388.173 740.51 387.7 741.034C387.234 741.551 387 742.226 387 743.057L387 752.242L383.597 752.242L383.597 742.75C383.597 741.989 383.367 741.382 382.906 740.928C382.452 740.474 381.858 740.248 381.123 740.248C380.624 740.248 380.17 740.375 379.761 740.631C379.352 740.88 379.026 741.235 378.783 741.695C378.541 742.149 378.419 742.68 378.419 743.287L378.419 752.242L374.948 752.242Z" fill="#3C3B3B"/>
<path d="M664.274 750.015L664.274 747.186L672.606 734.022L674.965 734.022L674.965 738.049L673.527 738.049L667.918 746.937L667.918 747.09L679.548 747.09L679.548 750.015L664.274 750.015ZM673.642 753.658L673.642 749.152L673.68 747.886L673.68 734.022L677.036 734.022L677.036 753.658L673.642 753.658ZM689.659 753.927C688.278 753.927 687.051 753.69 685.977 753.217C684.909 752.744 684.066 752.086 683.446 751.242C682.826 750.398 682.496 749.423 682.458 748.318L686.063 748.318C686.095 748.848 686.271 749.312 686.591 749.708C686.91 750.098 687.335 750.401 687.866 750.619C688.396 750.836 688.991 750.945 689.649 750.945C690.352 750.945 690.975 750.823 691.519 750.58C692.062 750.331 692.487 749.986 692.794 749.545C693.101 749.104 693.251 748.596 693.245 748.02C693.251 747.426 693.098 746.902 692.784 746.448C692.471 745.994 692.017 745.639 691.423 745.384C690.835 745.128 690.125 745 689.294 745L687.559 745L687.559 742.258L689.294 742.258C689.978 742.258 690.576 742.14 691.087 741.903C691.605 741.667 692.011 741.334 692.305 740.906C692.599 740.471 692.743 739.97 692.736 739.401C692.743 738.845 692.618 738.362 692.363 737.953C692.113 737.537 691.759 737.215 691.298 736.985C690.844 736.754 690.311 736.639 689.697 736.639C689.096 736.639 688.54 736.748 688.029 736.965C687.517 737.183 687.105 737.493 686.792 737.895C686.479 738.292 686.312 738.765 686.293 739.314L682.87 739.314C682.896 738.215 683.212 737.25 683.82 736.419C684.433 735.582 685.251 734.93 686.274 734.463C687.297 733.99 688.444 733.753 689.716 733.753C691.027 733.753 692.164 733.999 693.13 734.492C694.101 734.977 694.852 735.633 695.383 736.457C695.913 737.282 696.179 738.193 696.179 739.19C696.185 740.296 695.859 741.222 695.201 741.97C694.549 742.718 693.692 743.207 692.631 743.437L692.631 743.591C694.012 743.782 695.07 744.294 695.805 745.125C696.546 745.949 696.914 746.975 696.907 748.203C696.907 749.302 696.594 750.286 695.968 751.156C695.348 752.019 694.491 752.696 693.398 753.188C692.311 753.681 691.065 753.927 689.659 753.927ZM706.934 753.658L706.934 738.931L710.251 738.931L710.251 741.433L710.424 741.433C710.731 740.59 711.239 739.931 711.949 739.458C712.658 738.979 713.505 738.739 714.489 738.739C715.487 738.739 716.327 738.982 717.011 739.468C717.701 739.947 718.187 740.602 718.468 741.433L718.622 741.433C718.948 740.615 719.498 739.963 720.271 739.477C721.051 738.985 721.975 738.739 723.042 738.739C724.397 738.739 725.503 739.167 726.359 740.024C727.216 740.881 727.644 742.13 727.644 743.773L727.644 753.658L724.164 753.658L724.164 744.31C724.164 743.396 723.921 742.728 723.435 742.306C722.949 741.878 722.355 741.664 721.652 741.664C720.814 741.664 720.159 741.926 719.686 742.45C719.22 742.968 718.986 743.642 718.986 744.473L718.986 753.658L715.582 753.658L715.582 744.166C715.582 743.405 715.352 742.798 714.892 742.344C714.438 741.89 713.844 741.664 713.109 741.664C712.61 741.664 712.156 741.791 711.747 742.047C711.338 742.296 711.012 742.651 710.769 743.111C710.526 743.565 710.405 744.096 710.405 744.703L710.405 753.658L706.934 753.658ZM731.165 753.658L731.165 738.931L734.483 738.931L734.483 741.433L734.656 741.433C734.962 740.59 735.471 739.931 736.18 739.458C736.89 738.979 737.736 738.739 738.721 738.739C739.718 738.739 740.559 738.982 741.243 739.468C741.933 739.947 742.419 740.602 742.7 741.433L742.853 741.433C743.179 740.615 743.729 739.963 744.502 739.477C745.282 738.985 746.206 738.739 747.273 738.739C748.629 738.739 749.734 739.167 750.591 740.024C751.447 740.881 751.876 742.13 751.876 743.773L751.876 753.658L748.395 753.658L748.395 744.31C748.395 743.396 748.152 742.728 747.667 742.306C747.181 741.878 746.586 741.664 745.883 741.664C745.046 741.664 744.391 741.926 743.918 742.45C743.451 742.968 743.218 743.642 743.218 744.473L743.218 753.658L739.814 753.658L739.814 744.166C739.814 743.405 739.584 742.798 739.124 742.344C738.67 741.89 738.075 741.664 737.34 741.664C736.842 741.664 736.388 741.791 735.979 742.047C735.57 742.296 735.244 742.651 735.001 743.111C734.758 743.565 734.636 744.096 734.636 744.703L734.636 753.658L731.165 753.658Z" fill="#3C3B3B"/>
<path d="M106.025 368.532V388.168H102.468V371.993H102.353L97.7599 374.927V371.667L102.64 368.532H106.025ZM117.991 388.436C116.565 388.436 115.3 388.197 114.194 387.717C113.094 387.238 112.232 386.583 111.605 385.752C110.985 384.914 110.678 383.965 110.685 382.904C110.678 382.08 110.857 381.322 111.222 380.632C111.586 379.941 112.078 379.366 112.698 378.906C113.325 378.439 114.021 378.142 114.788 378.014V377.88C113.778 377.656 112.96 377.142 112.334 376.336C111.714 375.525 111.407 374.588 111.413 373.527C111.407 372.517 111.688 371.616 112.257 370.823C112.826 370.031 113.606 369.407 114.597 368.953C115.587 368.493 116.719 368.263 117.991 368.263C119.25 368.263 120.372 368.493 121.356 368.953C122.347 369.407 123.127 370.031 123.696 370.823C124.271 371.616 124.559 372.517 124.559 373.527C124.559 374.588 124.242 375.525 123.609 376.336C122.983 377.142 122.174 377.656 121.184 377.88V378.014C121.951 378.142 122.641 378.439 123.255 378.906C123.875 379.366 124.367 379.941 124.731 380.632C125.102 381.322 125.287 382.08 125.287 382.904C125.287 383.965 124.974 384.914 124.348 385.752C123.721 386.583 122.858 387.238 121.759 387.717C120.666 388.197 119.41 388.436 117.991 388.436ZM117.991 385.694C118.726 385.694 119.365 385.57 119.908 385.32C120.452 385.065 120.874 384.707 121.174 384.246C121.474 383.786 121.628 383.256 121.634 382.655C121.628 382.028 121.465 381.475 121.145 380.996C120.832 380.51 120.401 380.13 119.851 379.855C119.308 379.58 118.688 379.443 117.991 379.443C117.288 379.443 116.661 379.58 116.112 379.855C115.562 380.13 115.127 380.51 114.808 380.996C114.494 381.475 114.341 382.028 114.347 382.655C114.341 383.256 114.488 383.786 114.788 384.246C115.089 384.7 115.511 385.055 116.054 385.311C116.604 385.566 117.249 385.694 117.991 385.694ZM117.991 376.749C118.592 376.749 119.122 376.627 119.582 376.384C120.049 376.141 120.417 375.803 120.685 375.368C120.953 374.933 121.091 374.431 121.097 373.863C121.091 373.3 120.957 372.808 120.695 372.386C120.433 371.958 120.068 371.629 119.602 371.398C119.135 371.162 118.598 371.044 117.991 371.044C117.371 371.044 116.824 371.162 116.351 371.398C115.885 371.629 115.52 371.958 115.258 372.386C115.002 372.808 114.878 373.3 114.884 373.863C114.878 374.431 115.006 374.933 115.268 375.368C115.536 375.796 115.904 376.135 116.37 376.384C116.843 376.627 117.384 376.749 117.991 376.749ZM135.487 388.436C134.106 388.436 132.879 388.2 131.805 387.727C130.737 387.254 129.894 386.596 129.274 385.752C128.653 384.908 128.324 383.933 128.286 382.827H131.891C131.923 383.358 132.099 383.821 132.418 384.218C132.738 384.608 133.163 384.911 133.694 385.129C134.224 385.346 134.819 385.455 135.477 385.455C136.18 385.455 136.803 385.333 137.347 385.09C137.89 384.841 138.315 384.496 138.622 384.055C138.929 383.614 139.079 383.105 139.073 382.53C139.079 381.936 138.926 381.412 138.612 380.958C138.299 380.504 137.845 380.149 137.251 379.893C136.663 379.638 135.953 379.51 135.122 379.51H133.387V376.768H135.122C135.806 376.768 136.404 376.65 136.915 376.413C137.433 376.176 137.839 375.844 138.133 375.416C138.427 374.981 138.571 374.479 138.564 373.911C138.571 373.354 138.446 372.872 138.19 372.463C137.941 372.047 137.586 371.724 137.126 371.494C136.672 371.264 136.139 371.149 135.525 371.149C134.924 371.149 134.368 371.258 133.857 371.475C133.345 371.692 132.933 372.002 132.62 372.405C132.307 372.801 132.14 373.275 132.121 373.824H128.698C128.724 372.725 129.04 371.76 129.647 370.929C130.261 370.091 131.079 369.439 132.102 368.973C133.125 368.5 134.272 368.263 135.544 368.263C136.854 368.263 137.992 368.509 138.957 369.001C139.929 369.487 140.68 370.142 141.211 370.967C141.741 371.792 142.006 372.702 142.006 373.7C142.013 374.805 141.687 375.732 141.028 376.48C140.377 377.228 139.52 377.717 138.459 377.947V378.1C139.84 378.292 140.897 378.804 141.633 379.635C142.374 380.459 142.742 381.485 142.735 382.712C142.735 383.812 142.422 384.796 141.796 385.665C141.176 386.528 140.319 387.206 139.226 387.698C138.139 388.19 136.893 388.436 135.487 388.436ZM152.762 388.168V373.441H156.079V375.943H156.252C156.559 375.099 157.067 374.441 157.776 373.968C158.486 373.489 159.333 373.249 160.317 373.249C161.314 373.249 162.155 373.492 162.839 373.978C163.529 374.457 164.015 375.112 164.296 375.943H164.45C164.776 375.125 165.325 374.473 166.099 373.987C166.879 373.495 167.802 373.249 168.87 373.249C170.225 373.249 171.331 373.677 172.187 374.534C173.044 375.39 173.472 376.64 173.472 378.283V388.168H169.992V378.82C169.992 377.906 169.749 377.238 169.263 376.816C168.777 376.387 168.183 376.173 167.48 376.173C166.642 376.173 165.987 376.435 165.514 376.96C165.047 377.477 164.814 378.152 164.814 378.983V388.168H161.41V378.676C161.41 377.915 161.18 377.308 160.72 376.854C160.266 376.4 159.672 376.173 158.937 376.173C158.438 376.173 157.984 376.301 157.575 376.557C157.166 376.806 156.84 377.161 156.597 377.621C156.354 378.075 156.233 378.605 156.233 379.213V388.168H152.762ZM176.993 388.168V373.441H180.311V375.943H180.483C180.79 375.099 181.298 374.441 182.008 373.968C182.717 373.489 183.564 373.249 184.549 373.249C185.546 373.249 186.386 373.492 187.07 373.978C187.761 374.457 188.247 375.112 188.528 375.943H188.681C189.007 375.125 189.557 374.473 190.33 373.987C191.11 373.495 192.034 373.249 193.101 373.249C194.456 373.249 195.562 373.677 196.419 374.534C197.275 375.39 197.704 376.64 197.704 378.283V388.168H194.223V378.82C194.223 377.906 193.98 377.238 193.494 376.816C193.009 376.387 192.414 376.173 191.711 376.173C190.874 376.173 190.218 376.435 189.745 376.96C189.279 377.477 189.046 378.152 189.046 378.983V388.168H185.642V378.676C185.642 377.915 185.412 377.308 184.951 376.854C184.498 376.4 183.903 376.173 183.168 376.173C182.669 376.173 182.216 376.301 181.807 376.557C181.397 376.806 181.071 377.161 180.829 377.621C180.586 378.075 180.464 378.605 180.464 379.213V388.168H176.993Z" fill="#3C3B3B"/>
<line x1="259.521" y1="678.076" x2="259.521" y2="806.989" stroke="#D1D1D1" stroke-width="2"/>
<line x1="628.285" y1="679.492" x2="628.285" y2="808.405" stroke="#D1D1D1" stroke-width="2"/>
<line x1="446.516" y1="679.492" x2="446.516" y2="808.405" stroke="#D1D1D1" stroke-width="2"/>
<line x1="782.697" y1="679.492" x2="782.697" y2="808.405" stroke="#D1D1D1" stroke-width="2"/>
<line x1="291.104" y1="747.074" x2="258.521" y2="747.074" stroke="#D1D1D1" stroke-width="2"/>
<line x1="648.453" y1="747.074" x2="627.285" y2="747.074" stroke="#D1D1D1" stroke-width="2"/>
<line x1="445.516" y1="747.074" x2="421.433" y2="747.074" stroke="#D1D1D1" stroke-width="2"/>
<line x1="781.697" y1="747.074" x2="764.722" y2="747.074" stroke="#D1D1D1" stroke-width="2"/>
<line x1="326.791" y1="91.5937" x2="326.791" y2="155.342" stroke="#D1D1D1" stroke-width="2"/>
<line x1="319.709" y1="624.244" x2="319.709" y2="687.992" stroke="#D1D1D1" stroke-width="2"/>
<line x1="143.047" y1="344.752" x2="113.298" y2="344.752" stroke="#D1D1D1" stroke-width="2"/>
<line x1="143.047" y1="419.834" x2="113.298" y2="419.834" stroke="#D1D1D1" stroke-width="2"/>
<line x1="327.209" y1="125.176" x2="127.465" y2="125.176" stroke="#D1D1D1" stroke-width="2"/>
<line x1="318.709" y1="654.994" x2="126.048" y2="654.994" stroke="#D1D1D1" stroke-width="2"/>
<line x1="126.465" y1="343.752" x2="126.465" y2="124.175" stroke="#D1D1D1" stroke-width="2"/>
<line x1="126.465" y1="653.994" x2="126.465" y2="418.834" stroke="#D1D1D1" stroke-width="2"/>
<path d="M710.22 546.834V639.706C710.22 641.087 709.1 642.206 707.72 642.206H675.781C674.401 642.206 673.281 641.087 673.281 639.706V532.841L710.22 546.834Z" stroke="black"/>
<line x1="651.717" y1="173.972" x2="651.128" y2="525" stroke="black"/>
<line x1="629.159" y1="286.977" x2="628.476" y2="422.678" stroke="black"/>
<line x1="651.071" y1="423.176" x2="627.976" y2="423.174" stroke="black"/>
<line x1="630.405" y1="288.605" x2="651.75" y2="288.569" stroke="black"/>
<line x1="651.404" y1="173.507" x2="782.164" y2="226.45" stroke="black"/>
<line x1="651.369" y1="173.495" x2="761.444" y2="208.748" stroke="black"/>
<line x1="761.643" y1="217.905" x2="761.299" y2="207.365" stroke="black"/>
<line x1="781.2" y1="225.051" x2="781.059" y2="515.518" stroke="black"/>
<line x1="781.135" y1="514.973" x2="761.412" y2="565.918" stroke="black"/>
<line x1="761.792" y1="566.206" x2="650.75" y2="524.449" stroke="black"/>
<line x1="651.247" y1="466.848" x2="781.401" y2="515.612" stroke="black"/>
<line x1="781.31" y1="510.669" x2="652.552" y2="462.518" stroke="black"/>
<rect x="635.837" y="299.629" width="8.572" height="21.4672" rx="1.8811" stroke="black"/>
<rect x="635.837" y="390.014" width="8.572" height="21.4672" rx="1.8811" stroke="black"/>
<rect x="636.194" y="353.393" width="9.76785" height="9.97252" rx="2.17858" stroke="black"/>
<path fill-rule="evenodd" clip-rule="evenodd" d="M266.037 173.972H423.161C427.294 173.972 430.676 177.402 430.676 181.594V509.898C424.689 528.46 418.703 547.021 412.717 565.582C411.715 567.649 409.551 568.66 406.521 568.884C405.636 569.356 404.751 569.827 403.867 570.299L346.862 570.553C327.02 570.478 307.179 570.403 287.337 570.328C286.589 569.93 286.714 569.613 285.881 569.542C280.858 569.112 278.642 567.547 277.966 565.452L258.521 509.328V446.784V181.594C258.521 177.401 261.903 173.971 266.037 173.971V173.972Z" stroke="black" stroke-width="0.8" stroke-miterlimit="22.9256"/>
<path fill-rule="evenodd" clip-rule="evenodd" d="M270.517 173.971L301.101 189.636L389.173 189.717L419.756 173.971L393.976 193.778C393.976 193.778 389.973 197.676 384.49 197.311H308.067C308.067 197.311 301.702 198.489 295.937 192.925L270.517 173.971Z" stroke="black" stroke-width="0.8" stroke-miterlimit="22.9256" stroke-linejoin="round"/>
<path d="M289.914 205.03L401.951 205.06L427.925 175.713" stroke="black" stroke-width="0.8" stroke-miterlimit="22.9256"/>
<path d="M283.059 210.307C283.059 209.333 258.532 184.154 258.532 184.154" stroke="black" stroke-width="0.8" stroke-miterlimit="22.9256"/>
<path d="M290.315 205.428L261.138 175.83" stroke="black" stroke-width="0.8" stroke-miterlimit="22.9256"/>
<path d="M408.531 210.307C408.531 209.333 430.671 184.154 430.671 184.154" stroke="black" stroke-width="0.8" stroke-miterlimit="22.9256"/>
<path d="M283.009 509.894V211.528C283.009 211.528 281.808 205.023 290.535 205.023" stroke="black" stroke-width="0.8" stroke-miterlimit="22.9256"/>
<path d="M408.468 509.894V211.528C408.468 211.528 409.669 205.023 400.941 205.023" stroke="black" stroke-width="0.8" stroke-miterlimit="22.9256"/>
<path d="M258.522 447.642L283.008 508.634C283.008 508.634 283.173 511.477 292.059 512.249C300.947 513.02 400.466 512.249 400.466 512.249C400.466 512.249 407.552 512.329 409.194 507.862L430.29 447.352V449.625L409.793 508.488C409.793 508.488 409.193 513.382 402.908 513.747C396.623 514.112 294.422 514.133 294.422 514.133C294.422 514.133 282.994 515.269 281.873 508.486L258.521 448.237" stroke="black" stroke-width="0.8" stroke-miterlimit="22.9256"/>
<path d="M287.931 570.334L310.997 533.642C310.997 533.642 314.039 527.631 323.006 527.51H367.081C367.081 527.51 375.088 526.818 380.412 533.56L403.738 570.302M370.808 575.967H370.736M320.062 575.926H319.856" stroke="black" stroke-width="0.8" stroke-miterlimit="22.9256"/>
<path d="M283.008 509.898L277.763 564.866" stroke="black" stroke-width="0.8" stroke-miterlimit="22.9256"/>
<path d="M290.8 514.201L286.673 569.833" stroke="black" stroke-width="0.8" stroke-miterlimit="22.9256"/>
<path d="M408.472 509.184L413.366 563.584" stroke="black" stroke-width="0.8" stroke-miterlimit="22.9256"/>
<path d="M402.053 513.781L406.345 568.981" stroke="black" stroke-width="0.8" stroke-miterlimit="22.9256"/>
<path d="M289.914 205.023L290.723 514.13" stroke="black" stroke-width="0.8" stroke-miterlimit="22.9256"/>
<path d="M402.281 205.389L402.053 513.782" stroke="black" stroke-width="0.8" stroke-miterlimit="22.9256"/>
<path d="M361.915 570.912V638.707C361.915 640.64 360.348 642.207 358.415 642.207H330.396C328.463 642.207 326.896 640.64 326.896 638.707V570.912H361.915Z" stroke="black"/>
<path d="M361.915 618.674V638.707C361.915 640.64 360.348 642.207 358.415 642.207H330.396C328.463 642.207 326.896 640.64 326.896 638.707V618.674H361.915Z" stroke="black"/>
<path d="M710.22 618.674V638.707C710.22 640.64 708.653 642.207 706.72 642.207H676.781C674.848 642.207 673.281 640.64 673.281 638.707V618.674H710.22Z" stroke="black"/>
<path d="M335.905 444.98L352.413 453.603V460.582L335.899 451.598L335.905 444.98Z" fill="#303031"/>
<path d="M335.905 457.055L352.413 465.676V472.656L335.899 463.672L335.905 457.055Z" fill="#303031"/>
<path d="M335.905 469.129L352.413 477.751V484.73L335.899 475.746L335.905 469.129Z" fill="#303031"/>
<path d="M352.904 434.472H335.905V431.3L347.902 424.247V425.928L335.905 418.993V415.845L352.904 415.798V419.395L341.563 419.419V418.756L351.107 424.295V426.022L341.563 431.679V430.874H352.904V434.472ZM352.904 414.045L335.905 406.66V402.873L352.904 395.465V399.489L337.896 405.548V404.033L352.904 410.116V414.045ZM349.261 410.352L346.274 409.335V400.814L349.261 399.773V410.352ZM353.196 386.049C353.196 387.327 352.985 388.518 352.564 389.622C352.127 390.711 351.512 391.658 350.719 392.463C349.925 393.267 348.994 393.898 347.926 394.356C346.857 394.798 345.683 395.019 344.404 395.019C343.125 395.019 341.952 394.798 340.883 394.356C339.815 393.898 338.884 393.267 338.09 392.463C337.297 391.642 336.69 390.687 336.269 389.599C335.832 388.51 335.613 387.319 335.613 386.025C335.613 384.589 335.872 383.295 336.39 382.143C336.892 380.976 337.637 379.998 338.625 379.208L340.956 381.67C340.292 382.238 339.798 382.869 339.475 383.563C339.135 384.258 338.965 385.015 338.965 385.836C338.965 386.609 339.094 387.319 339.353 387.966C339.612 388.613 339.985 389.173 340.47 389.646C340.956 390.119 341.531 390.49 342.195 390.758C342.858 391.011 343.595 391.137 344.404 391.137C345.214 391.137 345.951 391.011 346.614 390.758C347.278 390.49 347.853 390.119 348.339 389.646C348.824 389.173 349.197 388.613 349.456 387.966C349.715 387.319 349.844 386.609 349.844 385.836C349.844 385.015 349.682 384.258 349.359 383.563C349.019 382.869 348.509 382.238 347.829 381.67L350.16 379.208C351.148 379.998 351.9 380.976 352.419 382.143C352.937 383.295 353.196 384.597 353.196 386.049ZM352.904 376.619H335.905V373.448L348.144 363.673V365.211H335.905V361.424H352.904V364.572L340.665 374.371V372.832H352.904V376.619ZM352.904 357.504H335.905V354.333L347.902 347.28V348.96L335.905 342.026V338.878L352.904 338.83V342.428L341.563 342.452V341.789L351.107 347.327V349.055L341.563 354.712V353.907H352.904V357.504ZM352.904 337.077L335.905 329.693V325.906L352.904 318.498V322.521L337.896 328.58V327.066L352.904 333.148V337.077ZM349.261 333.385L346.274 332.367V323.847L349.261 322.805V333.385ZM352.904 316.779H335.905V313.607L348.144 303.832V305.371H335.905V301.584H352.904V304.732L340.665 314.53V312.992H352.904V316.779Z" fill="url(#paint0_linear_31_141)"/>
<defs>
<linearGradient id="paint0_linear_31_141" x1="343.669" y1="436.436" x2="343.669" y2="294.169" gradientUnits="userSpaceOnUse">
<stop offset="1" stop-color="#303031"/>
</linearGradient>
</defs>
</svg>
