<svg width="585" height="585" viewBox="0 0 585 585" fill="none" xmlns="http://www.w3.org/2000/svg">
<rect width="584.939" height="584.939" rx="51" fill="white"/>
<path fill-rule="evenodd" clip-rule="evenodd" d="M134.016 150.602H229.121C231.623 150.602 233.67 152.679 233.67 155.216V353.934C230.046 365.169 226.423 376.404 222.799 387.639C222.193 388.89 220.883 389.502 219.049 389.638C218.514 389.923 217.978 390.209 217.443 390.494L182.938 390.648C170.928 390.602 158.919 390.557 146.909 390.512C146.456 390.271 146.532 390.079 146.027 390.036C142.987 389.776 141.645 388.829 141.236 387.56L129.467 353.589V315.732V155.216C129.467 152.678 131.514 150.602 134.016 150.602V150.602Z" stroke="black" stroke-width="0.8" stroke-miterlimit="22.9256"/>
<path fill-rule="evenodd" clip-rule="evenodd" d="M136.73 150.602L155.243 160.084L208.551 160.132L227.064 150.602L211.459 162.591C211.459 162.591 209.036 164.95 205.717 164.729H159.459C159.459 164.729 155.607 165.442 152.117 162.074L136.73 150.602Z" stroke="black" stroke-width="0.8" stroke-miterlimit="22.9256" stroke-linejoin="round"/>
<path d="M148.469 169.387L216.283 169.406L232.005 151.642" stroke="black" stroke-width="0.8" stroke-miterlimit="22.9256"/>
<path d="M144.313 172.593C144.313 172.003 129.467 156.763 129.467 156.763" stroke="black" stroke-width="0.8" stroke-miterlimit="22.9256"/>
<path d="M148.707 169.64L131.047 151.725" stroke="black" stroke-width="0.8" stroke-miterlimit="22.9256"/>
<path d="M220.27 172.593C220.27 172.003 233.67 156.763 233.67 156.763" stroke="black" stroke-width="0.8" stroke-miterlimit="22.9256"/>
<path d="M144.288 353.932V173.335C144.288 173.335 143.561 169.397 148.843 169.397" stroke="black" stroke-width="0.8" stroke-miterlimit="22.9256"/>
<path d="M220.225 353.932V173.335C220.225 173.335 220.953 169.397 215.67 169.397" stroke="black" stroke-width="0.8" stroke-miterlimit="22.9256"/>
<path d="M129.467 316.256L144.288 353.174C144.288 353.174 144.388 354.895 149.767 355.362C155.146 355.829 215.384 355.362 215.384 355.362C215.384 355.362 219.673 355.411 220.667 352.707L233.436 316.081V317.457L221.03 353.086C221.03 353.086 220.666 356.048 216.862 356.269C213.058 356.49 151.197 356.502 151.197 356.502C151.197 356.502 144.28 357.19 143.601 353.085L129.467 316.616" stroke="black" stroke-width="0.8" stroke-miterlimit="22.9256"/>
<path d="M146.316 390.094L160.345 367.779C160.755 366.999 161.538 366.179 162.202 365.646C164 364.2 166.218 363.58 168.504 363.549H195.139C196.111 363.471 197.343 363.646 198.269 363.879C200.57 364.459 202.564 365.718 204.052 367.601L204.085 367.643L218.3 390.034M196.677 394.963H196.451M167.748 394.94H167.42" stroke="black" stroke-width="0.8" stroke-miterlimit="22.9256"/>
<path d="M147.271 390.515L161.233 368.306C161.233 368.306 163.075 364.668 168.502 364.595H195.18C195.18 364.595 200.027 364.176 203.249 368.257L217.368 390.496M197.436 393.925H197.392M166.72 393.9H166.595" stroke="black" stroke-width="0.8" stroke-miterlimit="22.9256"/>
<path d="M144.286 353.932L141.111 387.203" stroke="black" stroke-width="0.8" stroke-miterlimit="22.9256"/>
<path d="M148.998 356.535L146.5 390.208" stroke="black" stroke-width="0.8" stroke-miterlimit="22.9256"/>
<path d="M220.229 353.496L223.191 386.424" stroke="black" stroke-width="0.8" stroke-miterlimit="22.9256"/>
<path d="M216.348 356.289L218.945 389.7" stroke="black" stroke-width="0.8" stroke-miterlimit="22.9256"/>
<path d="M148.469 169.397L148.959 356.496" stroke="black" stroke-width="0.8" stroke-miterlimit="22.9256"/>
<path d="M216.486 169.603L216.348 356.269" stroke="black" stroke-width="0.8" stroke-miterlimit="22.9256"/>
<path fill-rule="evenodd" clip-rule="evenodd" d="M168.664 390.581H165.963V392.46C166.389 393.735 167.147 394.864 168.473 395.793C169.108 399.81 171.775 402.653 182.028 402.833C192.146 403.01 194.876 400.024 195.557 395.992C197.529 394.582 198.256 392.692 198.5 390.581H195.392H168.664Z" stroke="black" stroke-width="0.8" stroke-miterlimit="22.9256"/>
<path d="M175.779 390.633C175.779 390.964 175.779 397.865 175.779 397.865" stroke="black" stroke-width="0.8" stroke-miterlimit="22.9256"/>
<path d="M177.377 390.595V398.043" stroke="black" stroke-width="0.8" stroke-miterlimit="22.9256"/>
<path d="M179.24 390.595V398.043" stroke="black" stroke-width="0.8" stroke-miterlimit="22.9256"/>
<path d="M181.104 390.595V398.043" stroke="black" stroke-width="0.8" stroke-miterlimit="22.9256"/>
<path d="M182.973 390.595V398.043" stroke="black" stroke-width="0.8" stroke-miterlimit="22.9256"/>
<path d="M184.84 390.595V398.043" stroke="black" stroke-width="0.8" stroke-miterlimit="22.9256"/>
<path d="M186.709 390.595V398.043" stroke="black" stroke-width="0.8" stroke-miterlimit="22.9256"/>
<path d="M188.572 390.595V398.043" stroke="black" stroke-width="0.8" stroke-miterlimit="22.9256"/>
<path d="M198.65 390.581C198.023 394.916 194.994 398.218 182.018 398.031C169.074 397.846 166.029 394.815 165.391 390.585" stroke="black" stroke-width="0.8" stroke-miterlimit="22.9256"/>
<line x1="180.896" y1="402.844" x2="180.896" y2="457.253" stroke="black"/>
<line x1="399.537" y1="353.301" x2="399.537" y2="457.25" stroke="black"/>
<line x1="399.037" y1="457.75" x2="180.395" y2="457.75" stroke="black"/>
<path d="M269.87 498.567L269.87 510.203L267.762 510.203L267.762 500.618L267.693 500.618L264.972 502.357L264.972 500.425L267.864 498.567L269.87 498.567ZM276.907 498.567L279.486 498.567L282.941 506.999L283.077 506.999L286.532 498.567L289.111 498.567L289.111 510.203L287.088 510.203L287.088 502.209L286.98 502.209L283.764 510.169L282.253 510.169L279.037 502.192L278.929 502.192L278.929 510.203L276.906 510.203L276.907 498.567ZM295.179 510.374C294.304 510.374 293.549 510.192 292.912 509.828C292.28 509.461 291.793 508.942 291.452 508.271C291.111 507.597 290.941 506.804 290.941 505.891C290.941 504.993 291.111 504.205 291.452 503.527C291.797 502.845 292.278 502.315 292.895 501.936C293.513 501.554 294.238 501.362 295.071 501.362C295.609 501.362 296.117 501.449 296.594 501.624C297.075 501.794 297.499 502.059 297.867 502.419C298.238 502.779 298.53 503.237 298.742 503.794C298.954 504.347 299.06 505.006 299.06 505.771L299.06 506.402L291.907 506.402L291.907 505.016L297.088 505.016C297.085 504.622 296.999 504.271 296.833 503.964C296.666 503.654 296.433 503.41 296.134 503.232C295.838 503.054 295.494 502.964 295.1 502.964C294.679 502.964 294.31 503.067 293.992 503.271C293.674 503.472 293.425 503.737 293.247 504.067C293.073 504.393 292.984 504.75 292.98 505.141L292.98 506.351C292.98 506.858 293.073 507.294 293.259 507.658C293.444 508.018 293.704 508.294 294.037 508.487C294.371 508.677 294.761 508.771 295.208 508.771C295.507 508.771 295.778 508.73 296.02 508.646C296.263 508.559 296.473 508.432 296.651 508.266C296.829 508.099 296.963 507.893 297.054 507.646L298.975 507.862C298.853 508.37 298.622 508.813 298.282 509.192C297.944 509.567 297.513 509.858 296.986 510.067C296.46 510.271 295.857 510.374 295.179 510.374ZM305.158 501.476L305.158 503.067L300.141 503.067L300.141 501.476L305.158 501.476ZM301.38 499.385L303.436 499.385L303.436 507.578C303.436 507.855 303.478 508.067 303.561 508.214C303.648 508.358 303.762 508.457 303.902 508.51C304.042 508.563 304.198 508.589 304.368 508.589C304.497 508.589 304.614 508.58 304.72 508.561C304.83 508.542 304.914 508.525 304.97 508.51L305.317 510.118C305.207 510.156 305.05 510.197 304.845 510.243C304.645 510.288 304.398 510.315 304.107 510.322C303.592 510.338 303.128 510.26 302.715 510.089C302.302 509.915 301.974 509.646 301.732 509.283C301.493 508.919 301.376 508.464 301.38 507.919L301.38 499.385ZM310.648 510.374C309.773 510.374 309.017 510.192 308.381 509.828C307.748 509.461 307.262 508.942 306.921 508.271C306.58 507.597 306.409 506.804 306.409 505.891C306.409 504.993 306.58 504.205 306.921 503.527C307.265 502.845 307.746 502.315 308.364 501.936C308.981 501.554 309.707 501.362 310.54 501.362C311.078 501.362 311.585 501.449 312.063 501.624C312.544 501.794 312.968 502.059 313.335 502.419C313.707 502.779 313.998 503.237 314.21 503.794C314.423 504.347 314.529 505.006 314.529 505.771L314.529 506.402L307.375 506.402L307.375 505.016L312.557 505.016C312.553 504.622 312.468 504.271 312.301 503.964C312.135 503.654 311.902 503.41 311.603 503.232C311.307 503.054 310.962 502.964 310.568 502.964C310.148 502.964 309.779 503.067 309.46 503.271C309.142 503.472 308.894 503.737 308.716 504.067C308.542 504.393 308.453 504.75 308.449 505.141L308.449 506.351C308.449 506.858 308.542 507.294 308.728 507.658C308.913 508.018 309.173 508.294 309.506 508.487C309.839 508.677 310.229 508.771 310.676 508.771C310.976 508.771 311.246 508.73 311.489 508.646C311.731 508.559 311.942 508.432 312.12 508.266C312.298 508.099 312.432 507.893 312.523 507.646L314.443 507.862C314.322 508.37 314.091 508.813 313.75 509.192C313.413 509.567 312.981 509.858 312.455 510.067C311.928 510.271 311.326 510.374 310.648 510.374ZM316.269 510.203L316.269 501.476L318.263 501.476L318.263 502.93L318.354 502.93C318.513 502.427 318.786 502.038 319.172 501.766C319.562 501.489 320.007 501.351 320.507 501.351C320.621 501.351 320.748 501.357 320.888 501.368C321.032 501.375 321.151 501.389 321.246 501.408L321.246 503.3C321.159 503.269 321.021 503.243 320.831 503.22C320.646 503.194 320.466 503.18 320.291 503.18C319.916 503.18 319.579 503.262 319.28 503.425C318.985 503.584 318.752 503.805 318.581 504.089C318.411 504.374 318.326 504.701 318.326 505.072L318.326 510.203L316.269 510.203ZM281.531 521.493L279.406 521.493C279.345 521.144 279.233 520.836 279.071 520.567C278.908 520.294 278.705 520.063 278.463 519.874C278.22 519.684 277.944 519.542 277.633 519.447C277.326 519.349 276.995 519.3 276.639 519.3C276.006 519.3 275.446 519.459 274.957 519.777C274.468 520.091 274.086 520.554 273.809 521.163C273.533 521.769 273.394 522.51 273.394 523.385C273.394 524.275 273.533 525.025 273.809 525.635C274.09 526.241 274.472 526.699 274.957 527.01C275.446 527.317 276.004 527.47 276.633 527.47C276.982 527.47 277.307 527.425 277.61 527.334C277.917 527.239 278.192 527.101 278.434 526.919C278.68 526.737 278.887 526.514 279.054 526.249C279.224 525.983 279.341 525.68 279.406 525.339L281.531 525.351C281.451 525.904 281.279 526.423 281.014 526.908C280.752 527.393 280.41 527.821 279.985 528.192C279.561 528.559 279.065 528.847 278.497 529.055C277.929 529.26 277.298 529.362 276.605 529.362C275.582 529.362 274.669 529.125 273.866 528.652C273.063 528.179 272.43 527.495 271.968 526.601C271.506 525.707 271.275 524.635 271.275 523.385C271.275 522.131 271.508 521.059 271.974 520.169C272.44 519.275 273.074 518.591 273.877 518.118C274.68 517.644 275.59 517.408 276.605 517.408C277.252 517.408 277.855 517.499 278.411 517.68C278.968 517.862 279.465 518.129 279.9 518.482C280.336 518.83 280.694 519.258 280.974 519.766C281.258 520.269 281.444 520.845 281.531 521.493ZM285.882 529.379C285.329 529.379 284.831 529.281 284.387 529.084C283.948 528.883 283.599 528.588 283.342 528.197C283.088 527.807 282.961 527.326 282.961 526.754C282.961 526.262 283.052 525.855 283.234 525.533C283.416 525.211 283.664 524.953 283.978 524.76C284.293 524.567 284.647 524.421 285.041 524.322C285.438 524.22 285.849 524.146 286.274 524.101C286.785 524.048 287.2 524 287.518 523.959C287.836 523.913 288.067 523.845 288.211 523.754C288.359 523.66 288.433 523.514 288.433 523.317L288.433 523.283C288.433 522.855 288.306 522.523 288.052 522.288C287.798 522.054 287.433 521.936 286.956 521.936C286.452 521.936 286.052 522.046 285.757 522.266C285.465 522.485 285.268 522.745 285.166 523.044L283.245 522.771C283.397 522.241 283.647 521.798 283.995 521.442C284.344 521.082 284.77 520.813 285.274 520.635C285.777 520.453 286.334 520.362 286.944 520.362C287.365 520.362 287.783 520.411 288.2 520.51C288.616 520.608 288.997 520.771 289.342 520.999C289.687 521.222 289.963 521.527 290.171 521.913C290.384 522.3 290.49 522.783 290.49 523.362L290.49 529.203L288.512 529.203L288.512 528.004L288.444 528.004C288.319 528.247 288.143 528.474 287.916 528.686C287.692 528.894 287.41 529.063 287.069 529.192C286.732 529.317 286.336 529.379 285.882 529.379ZM286.416 527.868C286.829 527.868 287.187 527.786 287.49 527.624C287.793 527.457 288.026 527.237 288.188 526.964C288.355 526.692 288.438 526.394 288.438 526.072L288.438 525.044C288.374 525.097 288.264 525.146 288.109 525.192C287.957 525.237 287.787 525.277 287.598 525.311C287.408 525.345 287.221 525.375 287.035 525.402C286.849 525.429 286.688 525.451 286.552 525.47C286.245 525.512 285.971 525.58 285.728 525.675C285.486 525.769 285.295 525.902 285.154 526.072C285.014 526.239 284.944 526.455 284.944 526.72C284.944 527.099 285.082 527.385 285.359 527.578C285.635 527.771 285.988 527.868 286.416 527.868ZM292.649 529.203L292.649 517.567L294.706 517.567L294.706 521.919L294.791 521.919C294.897 521.707 295.046 521.482 295.24 521.243C295.433 521 295.694 520.794 296.024 520.624C296.353 520.449 296.774 520.362 297.285 520.362C297.959 520.362 298.567 520.535 299.109 520.879C299.654 521.22 300.086 521.726 300.404 522.396C300.726 523.063 300.887 523.881 300.887 524.851C300.887 525.809 300.73 526.624 300.416 527.294C300.101 527.964 299.673 528.476 299.132 528.828C298.59 529.18 297.976 529.357 297.291 529.357C296.791 529.357 296.376 529.273 296.046 529.107C295.717 528.94 295.452 528.739 295.251 528.504C295.054 528.266 294.901 528.04 294.791 527.828L294.671 527.828L294.671 529.203L292.649 529.203ZM294.666 524.839C294.666 525.404 294.745 525.898 294.904 526.322C295.067 526.747 295.3 527.078 295.603 527.317C295.91 527.552 296.281 527.669 296.717 527.669C297.171 527.669 297.552 527.548 297.859 527.305C298.166 527.059 298.397 526.724 298.552 526.3C298.711 525.872 298.791 525.385 298.791 524.839C298.791 524.298 298.713 523.817 298.558 523.396C298.402 522.976 298.171 522.646 297.865 522.408C297.558 522.169 297.175 522.05 296.717 522.05C296.277 522.05 295.904 522.165 295.598 522.396C295.291 522.627 295.058 522.951 294.899 523.368C294.743 523.785 294.666 524.275 294.666 524.839ZM304.693 517.567L304.693 529.203L302.636 529.203L302.636 517.567L304.693 517.567ZM310.671 529.374C309.796 529.374 309.041 529.192 308.404 528.828C307.772 528.461 307.285 527.942 306.944 527.271C306.603 526.597 306.433 525.804 306.433 524.891C306.433 523.993 306.603 523.205 306.944 522.527C307.289 521.845 307.77 521.315 308.387 520.936C309.005 520.554 309.73 520.362 310.563 520.362C311.101 520.362 311.609 520.449 312.086 520.624C312.567 520.794 312.991 521.059 313.359 521.419C313.73 521.779 314.022 522.237 314.234 522.794C314.446 523.347 314.552 524.006 314.552 524.771L314.552 525.402L307.399 525.402L307.399 524.016L312.581 524.016C312.577 523.622 312.491 523.271 312.325 522.964C312.158 522.654 311.925 522.41 311.626 522.232C311.331 522.054 310.986 521.964 310.592 521.964C310.171 521.964 309.802 522.067 309.484 522.271C309.166 522.472 308.918 522.737 308.74 523.067C308.565 523.393 308.476 523.75 308.473 524.141L308.473 525.351C308.473 525.858 308.565 526.294 308.751 526.658C308.937 527.018 309.196 527.294 309.529 527.487C309.863 527.677 310.253 527.771 310.7 527.771C310.999 527.771 311.27 527.73 311.512 527.646C311.755 527.559 311.965 527.432 312.143 527.266C312.321 527.099 312.456 526.893 312.546 526.646L314.467 526.862C314.346 527.37 314.115 527.813 313.774 528.192C313.437 528.567 313.005 528.858 312.478 529.067C311.952 529.271 311.349 529.374 310.671 529.374Z" fill="#3C3B3B"/>
<line x1="179.54" y1="469.414" x2="179.54" y2="538.457" stroke="#D1D1D1" stroke-width="0.6"/>
<line x1="405.56" y1="469.414" x2="405.56" y2="538.457" stroke="#D1D1D1" stroke-width="0.6"/>
<line x1="247.041" y1="510.503" x2="179.239" y2="510.503" stroke="#D1D1D1" stroke-width="0.6"/>
<line x1="405.26" y1="510.503" x2="337.458" y2="510.503" stroke="#D1D1D1" stroke-width="0.6"/>
<path d="M54.8862 266.313V277.949H52.7782V268.364H52.71L49.9885 270.103V268.171L52.8805 266.313H54.8862ZM61.8862 278.108C61.1286 278.108 60.4506 277.966 59.8521 277.682C59.2536 277.394 58.7782 277 58.426 276.5C58.0775 276 57.8919 275.428 57.8691 274.784H59.9146C59.9525 275.262 60.1589 275.652 60.5339 275.955C60.9089 276.254 61.3597 276.404 61.8862 276.404C62.2991 276.404 62.6665 276.309 62.9885 276.12C63.3104 275.93 63.5642 275.667 63.7498 275.33C63.9354 274.993 64.0263 274.608 64.0226 274.176C64.0263 273.737 63.9335 273.347 63.7441 273.006C63.5547 272.665 63.2953 272.398 62.9657 272.205C62.6362 272.008 62.2574 271.909 61.8294 271.909C61.4809 271.906 61.1381 271.97 60.801 272.103C60.4638 272.235 60.1968 272.409 59.9998 272.625L58.0964 272.313L58.7044 266.313H65.4544V268.074H60.4487L60.1135 271.159H60.1816C60.3975 270.906 60.7025 270.695 61.0964 270.529C61.4904 270.358 61.9222 270.273 62.3919 270.273C63.0964 270.273 63.7252 270.44 64.2782 270.773C64.8313 271.103 65.2669 271.557 65.585 272.137C65.9032 272.716 66.0623 273.379 66.0623 274.125C66.0623 274.894 65.8843 275.58 65.5282 276.182C65.176 276.781 64.6854 277.252 64.0566 277.597C63.4316 277.938 62.7082 278.108 61.8862 278.108ZM67.9657 277.949V276.426L72.0055 272.466C72.3919 272.076 72.7138 271.73 72.9714 271.426C73.229 271.123 73.4222 270.83 73.551 270.546C73.6797 270.262 73.7441 269.959 73.7441 269.637C73.7441 269.269 73.6608 268.955 73.4941 268.694C73.3275 268.428 73.0983 268.224 72.8066 268.08C72.515 267.936 72.1835 267.864 71.8123 267.864C71.4297 267.864 71.0945 267.944 70.8066 268.103C70.5188 268.258 70.2953 268.48 70.1362 268.767C69.9809 269.055 69.9032 269.398 69.9032 269.796H67.8975C67.8975 269.057 68.0661 268.415 68.4032 267.87C68.7404 267.324 69.2044 266.902 69.7953 266.603C70.39 266.303 71.0718 266.154 71.8407 266.154C72.621 266.154 73.3066 266.3 73.8976 266.591C74.4885 266.883 74.9468 267.283 75.2725 267.79C75.6021 268.298 75.7669 268.877 75.7669 269.529C75.7669 269.964 75.6835 270.392 75.5169 270.813C75.3502 271.233 75.0566 271.699 74.6362 272.211C74.2195 272.722 73.6343 273.341 72.8805 274.069L70.8748 276.108V276.188H75.943V277.949H67.9657ZM81.8947 277.949V269.222H83.8606V270.705H83.9629C84.1447 270.205 84.4458 269.815 84.8663 269.534C85.2868 269.25 85.7886 269.108 86.372 269.108C86.9629 269.108 87.461 269.252 87.8663 269.54C88.2754 269.824 88.5633 270.212 88.7299 270.705H88.8208C89.014 270.22 89.3398 269.834 89.7981 269.546C90.2602 269.254 90.8076 269.108 91.4402 269.108C92.2432 269.108 92.8985 269.362 93.4061 269.87C93.9136 270.377 94.1674 271.118 94.1674 272.091V277.949H92.1049V272.409C92.1049 271.868 91.961 271.472 91.6731 271.222C91.3852 270.968 91.033 270.841 90.6163 270.841C90.1201 270.841 89.7318 270.997 89.4515 271.307C89.175 271.614 89.0368 272.014 89.0368 272.506V277.949H87.0197V272.324C87.0197 271.873 86.8833 271.514 86.6106 271.245C86.3417 270.976 85.9894 270.841 85.5538 270.841C85.2583 270.841 84.9894 270.917 84.747 271.069C84.5046 271.216 84.3114 271.426 84.1674 271.699C84.0235 271.968 83.9515 272.283 83.9515 272.642V277.949H81.8947ZM96.2541 277.949V269.222H98.22V270.705H98.3223C98.5041 270.205 98.8052 269.815 99.2257 269.534C99.6461 269.25 100.148 269.108 100.731 269.108C101.322 269.108 101.82 269.252 102.226 269.54C102.635 269.824 102.923 270.212 103.089 270.705H103.18C103.373 270.22 103.699 269.834 104.157 269.546C104.62 269.254 105.167 269.108 105.8 269.108C106.603 269.108 107.258 269.362 107.765 269.87C108.273 270.377 108.527 271.118 108.527 272.091V277.949H106.464V272.409C106.464 271.868 106.32 271.472 106.032 271.222C105.745 270.968 105.392 270.841 104.976 270.841C104.479 270.841 104.091 270.997 103.811 271.307C103.534 271.614 103.396 272.014 103.396 272.506V277.949H101.379V272.324C101.379 271.873 101.243 271.514 100.97 271.245C100.701 270.976 100.349 270.841 99.9132 270.841C99.6177 270.841 99.3488 270.917 99.1064 271.069C98.8639 271.216 98.6708 271.426 98.5268 271.699C98.3829 271.968 98.3109 272.283 98.3109 272.642V277.949H96.2541Z" fill="#3C3B3B"/>
<line x1="180.154" y1="117.693" x2="180.154" y2="152.145" stroke="#D1D1D1" stroke-width="0.6"/>
<line x1="176.728" y1="402.844" x2="176.728" y2="437.295" stroke="#D1D1D1" stroke-width="0.6"/>
<line x1="81.9668" y1="252.757" x2="65.9528" y2="252.757" stroke="#D1D1D1" stroke-width="0.6"/>
<line x1="81.9629" y1="293.409" x2="65.9489" y2="293.409" stroke="#D1D1D1" stroke-width="0.6"/>
<line x1="180.396" y1="135.222" x2="73.3856" y2="135.222" stroke="#D1D1D1" stroke-width="0.6"/>
<line x1="176.428" y1="418.952" x2="72.9769" y2="418.952" stroke="#D1D1D1" stroke-width="0.6"/>
<line x1="73.659" y1="252.457" x2="73.659" y2="134.925" stroke="#D1D1D1" stroke-width="0.6"/>
<line x1="73.659" y1="418.652" x2="73.659" y2="293.112" stroke="#D1D1D1" stroke-width="0.6"/>
<path d="M404.532 343.235V348.934C404.532 351.446 402.495 353.483 399.982 353.483H399.092C396.027 353.483 393.542 350.999 393.542 347.934V343.235H404.532Z" stroke="black" stroke-width="0.9"/>
<path d="M521.552 235.49L509.916 235.49L509.916 233.382L519.501 233.382L519.501 233.314L517.763 230.592L519.694 230.592L521.552 233.484L521.552 235.49ZM521.711 242.484C521.708 243.041 521.609 243.583 521.416 244.109C521.227 244.639 520.916 245.117 520.484 245.541C520.056 245.965 519.482 246.302 518.763 246.552C518.043 246.802 517.153 246.927 516.092 246.927C515.092 246.931 514.198 246.825 513.41 246.609C512.626 246.397 511.963 246.092 511.422 245.694C510.88 245.297 510.467 244.817 510.183 244.257C509.899 243.696 509.757 243.065 509.757 242.365C509.757 241.63 509.901 240.978 510.189 240.41C510.477 239.846 510.871 239.389 511.371 239.041C511.871 238.692 512.443 238.478 513.086 238.399L513.086 240.473C512.624 240.579 512.257 240.795 511.984 241.12C511.715 241.45 511.581 241.865 511.581 242.365C511.581 243.172 511.931 243.793 512.632 244.228C513.333 244.664 514.306 244.882 515.552 244.882L515.552 244.802C515.219 244.617 514.931 244.376 514.689 244.081C514.45 243.785 514.266 243.45 514.138 243.075C514.009 242.704 513.944 242.31 513.944 241.893C513.944 241.211 514.107 240.598 514.433 240.052C514.759 239.511 515.206 239.081 515.774 238.762C516.342 238.448 516.992 238.289 517.723 238.285C518.48 238.285 519.16 238.459 519.763 238.808C520.369 239.16 520.846 239.651 521.194 240.279C521.547 240.908 521.719 241.643 521.711 242.484ZM520.007 242.49C520.007 242.081 519.907 241.711 519.706 241.382C519.509 241.056 519.24 240.798 518.899 240.609C518.562 240.423 518.185 240.331 517.768 240.331C517.355 240.334 516.98 240.427 516.643 240.609C516.306 240.795 516.039 241.047 515.842 241.365C515.645 241.687 515.547 242.054 515.547 242.467C515.547 242.774 515.605 243.06 515.723 243.325C515.84 243.59 516.003 243.821 516.211 244.018C516.424 244.219 516.664 244.374 516.933 244.484C517.202 244.598 517.486 244.653 517.785 244.649C518.183 244.649 518.55 244.554 518.888 244.365C519.225 244.179 519.496 243.923 519.7 243.598C519.905 243.276 520.007 242.906 520.007 242.49ZM509.694 253.12C509.694 252.185 509.931 251.382 510.405 250.711C510.882 250.045 511.569 249.531 512.467 249.172C513.369 248.815 514.454 248.637 515.723 248.637C516.992 248.641 518.071 248.821 518.961 249.177C519.855 249.537 520.537 250.05 521.007 250.717C521.477 251.387 521.711 252.189 521.711 253.12C521.711 254.052 521.477 254.853 521.007 255.524C520.537 256.194 519.855 256.708 518.961 257.064C518.068 257.423 516.988 257.603 515.723 257.603C514.45 257.603 513.363 257.423 512.461 257.064C511.564 256.708 510.878 256.194 510.405 255.524C509.931 254.857 509.694 254.056 509.694 253.12ZM511.473 253.12C511.473 253.848 511.831 254.422 512.547 254.842C513.266 255.266 514.325 255.478 515.723 255.478C516.647 255.478 517.424 255.382 518.052 255.189C518.681 254.995 519.155 254.723 519.473 254.37C519.795 254.018 519.956 253.601 519.956 253.12C519.956 252.397 519.596 251.825 518.876 251.404C518.16 250.984 517.109 250.772 515.723 250.768C514.795 250.764 514.014 250.857 513.382 251.047C512.749 251.24 512.272 251.512 511.95 251.865C511.632 252.217 511.473 252.636 511.473 253.12ZM509.916 263.483L518.643 263.483L518.643 265.449L517.16 265.449L517.16 265.551C517.66 265.733 518.05 266.034 518.331 266.454C518.615 266.875 518.757 267.377 518.757 267.96C518.757 268.551 518.613 269.049 518.325 269.454C518.041 269.863 517.653 270.151 517.16 270.318L517.16 270.409C517.645 270.602 518.032 270.928 518.319 271.386C518.611 271.848 518.757 272.395 518.757 273.028C518.757 273.831 518.503 274.486 517.996 274.994C517.488 275.502 516.747 275.755 515.774 275.755L509.916 275.755L509.916 273.693L515.456 273.693C515.997 273.693 516.393 273.549 516.643 273.261C516.897 272.973 517.024 272.621 517.024 272.204C517.024 271.708 516.869 271.32 516.558 271.039C516.251 270.763 515.852 270.625 515.359 270.625L509.916 270.625L509.916 268.608L515.541 268.608C515.992 268.608 516.352 268.471 516.621 268.199C516.889 267.93 517.024 267.577 517.024 267.142C517.024 266.846 516.948 266.577 516.797 266.335C516.649 266.092 516.439 265.899 516.166 265.755C515.897 265.611 515.583 265.539 515.223 265.539L509.916 265.539L509.916 263.483ZM509.916 277.842L518.643 277.842L518.643 279.808L517.16 279.808L517.16 279.91C517.66 280.092 518.05 280.393 518.331 280.814C518.615 281.234 518.757 281.736 518.757 282.319C518.757 282.91 518.613 283.408 518.325 283.814C518.041 284.223 517.653 284.511 517.16 284.677L517.16 284.768C517.645 284.961 518.032 285.287 518.319 285.745C518.611 286.208 518.757 286.755 518.757 287.387C518.757 288.19 518.503 288.846 517.996 289.353C517.488 289.861 516.747 290.115 515.774 290.115L509.916 290.115L509.916 288.052L515.456 288.052C515.997 288.052 516.393 287.908 516.643 287.62C516.897 287.333 517.024 286.98 517.024 286.564C517.024 286.067 516.869 285.679 516.558 285.399C516.251 285.122 515.852 284.984 515.359 284.984L509.916 284.984L509.916 282.967L515.541 282.967C515.992 282.967 516.352 282.831 516.621 282.558C516.889 282.289 517.024 281.937 517.024 281.501C517.024 281.206 516.948 280.937 516.797 280.694C516.649 280.452 516.439 280.259 516.166 280.115C515.897 279.971 515.583 279.899 515.223 279.899L509.916 279.899L509.916 277.842Z" fill="#3C3B3B"/>
<path d="M321.337 101.018C320.519 101.018 319.792 100.878 319.155 100.598C318.523 100.318 318.023 99.9276 317.655 99.4276C317.288 98.9276 317.093 98.3499 317.07 97.6946H319.206C319.225 98.009 319.33 98.2836 319.519 98.5185C319.708 98.7495 319.96 98.9295 320.275 99.0582C320.589 99.187 320.941 99.2514 321.331 99.2514C321.748 99.2514 322.117 99.1795 322.439 99.0355C322.761 98.8878 323.013 98.6832 323.195 98.4219C323.377 98.1605 323.466 97.8594 323.462 97.5185C323.466 97.1662 323.375 96.8556 323.189 96.5866C323.004 96.3177 322.735 96.1075 322.383 95.956C322.034 95.8045 321.614 95.7287 321.121 95.7287L320.093 95.7287V94.1037L321.121 94.1037C321.527 94.1037 321.881 94.0336 322.184 93.8935C322.491 93.7533 322.731 93.5563 322.905 93.3026C323.08 93.045 323.165 92.7476 323.161 92.4105C323.165 92.081 323.091 91.795 322.939 91.5526C322.792 91.3063 322.581 91.1151 322.309 90.9787C322.04 90.8423 321.724 90.7741 321.36 90.7741C321.004 90.7741 320.674 90.8385 320.371 90.9673C320.068 91.0961 319.824 91.2798 319.638 91.5185C319.453 91.7533 319.354 92.0336 319.343 92.3594H317.314C317.33 91.7079 317.517 91.1359 317.877 90.6435C318.241 90.1473 318.725 89.7609 319.331 89.4844C319.938 89.2041 320.617 89.0639 321.371 89.0639C322.148 89.0639 322.822 89.2098 323.394 89.5014C323.97 89.7893 324.415 90.1776 324.729 90.6662C325.044 91.1548 325.201 91.6946 325.201 92.2855C325.205 92.9408 325.011 93.4901 324.621 93.9332C324.235 94.3764 323.727 94.6662 323.099 94.8026V94.8935C323.917 95.0071 324.544 95.3101 324.979 95.8026C325.419 96.2912 325.636 96.8991 325.633 97.6264C325.633 98.2779 325.447 98.8613 325.076 99.3764C324.708 99.8878 324.201 100.289 323.553 100.581C322.909 100.873 322.171 101.018 321.337 101.018ZM331.884 101.081C330.948 101.081 330.145 100.844 329.475 100.371C328.808 99.8935 328.295 99.206 327.935 98.3082C327.579 97.4067 327.401 96.3215 327.401 95.0526C327.405 93.7836 327.585 92.7041 327.941 91.8139C328.301 90.92 328.814 90.2382 329.481 89.7685C330.151 89.2988 330.952 89.0639 331.884 89.0639C332.816 89.0639 333.617 89.2988 334.287 89.7685C334.958 90.2382 335.471 90.92 335.827 91.8139C336.187 92.7079 336.367 93.7874 336.367 95.0526C336.367 96.3253 336.187 97.4124 335.827 98.3139C335.471 99.2116 334.958 99.8973 334.287 100.371C333.621 100.844 332.82 101.081 331.884 101.081ZM331.884 99.3026C332.611 99.3026 333.185 98.9446 333.606 98.2287C334.03 97.509 334.242 96.4503 334.242 95.0526C334.242 94.1283 334.145 93.3518 333.952 92.723C333.759 92.0942 333.486 91.6207 333.134 91.3026C332.782 90.9806 332.365 90.8196 331.884 90.8196C331.161 90.8196 330.589 91.1795 330.168 91.8991C329.748 92.6151 329.536 93.6662 329.532 95.0526C329.528 95.9806 329.621 96.7609 329.81 97.3935C330.003 98.026 330.276 98.5033 330.628 98.8253C330.981 99.1435 331.399 99.3026 331.884 99.3026ZM342.246 100.859V92.1321H344.212V93.6151H344.314C344.496 93.1151 344.797 92.7249 345.218 92.4446C345.638 92.1605 346.14 92.0185 346.724 92.0185C347.314 92.0185 347.813 92.1624 348.218 92.4503C348.627 92.7344 348.915 93.1226 349.081 93.6151H349.172C349.366 93.1302 349.691 92.7438 350.15 92.456C350.612 92.1643 351.159 92.0185 351.792 92.0185C352.595 92.0185 353.25 92.2723 353.758 92.7798C354.265 93.2874 354.519 94.0279 354.519 95.0014V100.859L352.456 100.859V95.3196C352.456 94.7779 352.313 94.3821 352.025 94.1321C351.737 93.8783 351.385 93.7514 350.968 93.7514C350.472 93.7514 350.083 93.9067 349.803 94.2173C349.527 94.5241 349.388 94.9238 349.388 95.4162V100.859H347.371V95.2344C347.371 94.7836 347.235 94.4238 346.962 94.1548C346.693 93.8859 346.341 93.7514 345.905 93.7514C345.61 93.7514 345.341 93.8272 345.099 93.9787C344.856 94.1264 344.663 94.3366 344.519 94.6094C344.375 94.8783 344.303 95.1927 344.303 95.5526V100.859H342.246ZM356.606 100.859V92.1321H358.572V93.6151H358.674C358.856 93.1151 359.157 92.7249 359.577 92.4446C359.998 92.1605 360.5 92.0185 361.083 92.0185C361.674 92.0185 362.172 92.1624 362.577 92.4503C362.986 92.7344 363.274 93.1226 363.441 93.6151H363.532C363.725 93.1302 364.051 92.7438 364.509 92.456C364.971 92.1643 365.519 92.0185 366.151 92.0185C366.954 92.0185 367.609 92.2723 368.117 92.7798C368.625 93.2874 368.878 94.0279 368.878 95.0014V100.859H366.816V95.3196C366.816 94.7779 366.672 94.3821 366.384 94.1321C366.096 93.8783 365.744 93.7514 365.327 93.7514C364.831 93.7514 364.443 93.9067 364.162 94.2173C363.886 94.5241 363.748 94.9238 363.748 95.4162V100.859H361.731V95.2344C361.731 94.7836 361.594 94.4238 361.322 94.1548C361.053 93.8859 360.7 93.7514 360.265 93.7514C359.969 93.7514 359.7 93.8272 359.458 93.9787C359.215 94.1264 359.022 94.3366 358.878 94.6094C358.734 94.8783 358.662 95.1927 358.662 95.5526V100.859H356.606Z" fill="#3C3B3B"/>
<line x1="509.916" y1="141.241" x2="399.23" y2="141.241" stroke="#D1D1D1" stroke-width="0.6"/>
<line x1="387.587" y1="96.9199" x2="387.587" y2="140.941" stroke="#D1D1D1" stroke-width="0.6"/>
<line x1="509.916" y1="354.234" x2="404.984" y2="354.234" stroke="#D1D1D1" stroke-width="0.6"/>
<line x1="409.661" y1="95.5176" x2="409.661" y2="140.941" stroke="#D1D1D1" stroke-width="0.6"/>
<line x1="497.151" y1="353.934" x2="497.151" y2="140.941" stroke="#D1D1D1" stroke-width="0.6"/>
<line x1="409.361" y1="108.28" x2="312.658" y2="108.28" stroke="#D1D1D1" stroke-width="0.6"/>
<path d="M166.734 93.9228C166.177 93.919 165.634 93.8224 165.103 93.633C164.573 93.4398 164.096 93.1273 163.671 92.6955C163.247 92.2599 162.91 91.6822 162.66 90.9625C162.41 90.2391 162.287 89.3432 162.291 88.275C162.291 87.2788 162.397 86.3906 162.609 85.6103C162.821 84.83 163.126 84.1709 163.524 83.633C163.921 83.0913 164.401 82.6784 164.961 82.3944C165.526 82.1103 166.156 81.9682 166.853 81.9682C167.584 81.9682 168.232 82.1122 168.796 82.4C169.365 82.6879 169.823 83.0819 170.171 83.5819C170.52 84.0781 170.736 84.6387 170.819 85.2637L168.745 85.2637C168.639 84.8167 168.421 84.4606 168.092 84.1955C167.766 83.9266 167.353 83.7921 166.853 83.7921C166.046 83.7921 165.425 84.1425 164.99 84.8432C164.558 85.544 164.34 86.5061 164.336 87.7296L164.416 87.7296C164.601 87.3962 164.842 87.1103 165.137 86.8716C165.433 86.633 165.766 86.4493 166.137 86.3205C166.512 86.1879 166.908 86.1216 167.325 86.1216C168.007 86.1216 168.618 86.2845 169.16 86.6103C169.706 86.936 170.137 87.3849 170.456 87.9569C170.774 88.525 170.931 89.1766 170.927 89.9114C170.931 90.6766 170.757 91.3641 170.404 91.9739C170.052 92.58 169.562 93.0572 168.933 93.4057C168.304 93.7542 167.571 93.9266 166.734 93.9228ZM166.723 92.2182C167.135 92.2182 167.505 92.1178 167.831 91.9171C168.156 91.7163 168.414 91.4455 168.603 91.1046C168.793 90.7637 168.885 90.3811 168.882 89.9569C168.885 89.5402 168.795 89.1633 168.609 88.8262C168.427 88.4891 168.175 88.222 167.853 88.025C167.531 87.8281 167.164 87.7296 166.751 87.7296C166.444 87.7296 166.158 87.7883 165.893 87.9057C165.628 88.0231 165.397 88.186 165.2 88.3944C165.003 88.5989 164.848 88.8375 164.734 89.1103C164.624 89.3792 164.567 89.6671 164.563 89.9739C164.567 90.3792 164.662 90.7523 164.848 91.0932C165.033 91.4341 165.289 91.7069 165.615 91.9114C165.94 92.1159 166.31 92.2182 166.723 92.2182ZM172.848 93.7637L172.848 92.2409L176.887 88.2807C177.274 87.8906 177.596 87.544 177.853 87.2409C178.111 86.9379 178.304 86.6444 178.433 86.3603C178.562 86.0762 178.626 85.7731 178.626 85.4512C178.626 85.0837 178.543 84.7694 178.376 84.508C178.209 84.2428 177.98 84.0383 177.688 83.8944C177.397 83.7504 177.065 83.6784 176.694 83.6784C176.312 83.6784 175.976 83.758 175.688 83.9171C175.401 84.0724 175.177 84.294 175.018 84.5819C174.863 84.8697 174.785 85.2125 174.785 85.6103L172.779 85.6103C172.779 84.8716 172.948 84.2296 173.285 83.6841C173.622 83.1387 174.086 82.7163 174.677 82.4171C175.272 82.1178 175.954 81.9682 176.723 81.9682C177.503 81.9682 178.188 82.1141 178.779 82.4057C179.37 82.6974 179.829 83.097 180.154 83.6046C180.484 84.1122 180.649 84.6917 180.649 85.3432C180.649 85.7788 180.565 86.2069 180.399 86.6273C180.232 87.0478 179.938 87.5137 179.518 88.025C179.101 88.5364 178.516 89.1557 177.762 89.883L175.757 91.9228L175.757 92.0023L180.825 92.0023L180.825 93.7637L172.848 93.7637ZM182.808 93.7637L182.808 85.0364L184.774 85.0364L184.774 86.5194L184.876 86.5194C185.058 86.0194 185.359 85.6292 185.779 85.3489C186.2 85.0648 186.702 84.9228 187.285 84.9228C187.876 84.9228 188.374 85.0667 188.779 85.3546C189.188 85.6387 189.476 86.0269 189.643 86.5194L189.734 86.5194C189.927 86.0345 190.253 85.6481 190.711 85.3603C191.173 85.0686 191.721 84.9228 192.353 84.9228C193.156 84.9228 193.812 85.1766 194.319 85.6841C194.827 86.1917 195.081 86.9322 195.081 87.9057L195.081 93.7637L193.018 93.7637L193.018 88.2239C193.018 87.6822 192.874 87.2864 192.586 87.0364C192.298 86.7826 191.946 86.6557 191.529 86.6557C191.033 86.6557 190.645 86.811 190.365 87.1216C190.088 87.4284 189.95 87.8281 189.95 88.3205L189.95 93.7637L187.933 93.7637L187.933 88.1387C187.933 87.6879 187.796 87.3281 187.524 87.0591C187.255 86.7902 186.902 86.6557 186.467 86.6557C186.171 86.6557 185.902 86.7315 185.66 86.883C185.418 87.0307 185.224 87.2409 185.081 87.5137C184.937 87.7826 184.865 88.097 184.865 88.4569L184.865 93.7637L182.808 93.7637ZM197.167 93.7637L197.167 85.0364L199.133 85.0364L199.133 86.5194L199.235 86.5194C199.417 86.0194 199.718 85.6292 200.139 85.3489C200.559 85.0648 201.061 84.9228 201.644 84.9228C202.235 84.9228 202.733 85.0667 203.139 85.3546C203.548 85.6387 203.836 86.0269 204.002 86.5194L204.093 86.5194C204.286 86.0345 204.612 85.6481 205.071 85.3603C205.533 85.0686 206.08 84.9228 206.713 84.9228C207.516 84.9228 208.171 85.1766 208.679 85.6841C209.186 86.1917 209.44 86.9322 209.44 87.9057L209.44 93.7637L207.377 93.7637L207.377 88.2239C207.377 87.6822 207.233 87.2864 206.946 87.0364C206.658 86.7826 206.305 86.6557 205.889 86.6557C205.393 86.6557 205.004 86.811 204.724 87.1216C204.447 87.4284 204.309 87.8281 204.309 88.3205L204.309 93.7637L202.292 93.7637L202.292 88.1387C202.292 87.6879 202.156 87.3281 201.883 87.0591C201.614 86.7902 201.262 86.6557 200.826 86.6557C200.531 86.6557 200.262 86.7315 200.019 86.883C199.777 87.0307 199.584 87.2409 199.44 87.5137C199.296 87.7826 199.224 88.097 199.224 88.4569L199.224 93.7637L197.167 93.7637Z" fill="#3C3B3B"/>
<line x1="132.478" y1="52.9785" x2="132.478" y2="122.021" stroke="#D1D1D1" stroke-width="0.6"/>
<line x1="232.763" y1="53.9238" x2="232.763" y2="122.966" stroke="#D1D1D1" stroke-width="0.6"/>
<line x1="149.811" y1="90.048" x2="132.177" y2="90.048" stroke="#D1D1D1" stroke-width="0.6"/>
<line x1="232.463" y1="90.048" x2="219.429" y2="90.048" stroke="#D1D1D1" stroke-width="0.6"/>
<g clip-path="url(#clip0_152_378)">
<path d="M180.694 253.567H186.173V254.75H183.788V256.726H184.038C184.569 256.726 184.798 256.977 184.798 257.348C184.798 257.95 183.923 258.742 183.319 258.742C183.027 258.742 182.777 258.582 182.777 258.03L182.788 257.91H180.694V259.083H179.694V252.604H180.694V253.567ZM180.694 254.75V256.726H182.777V254.75H180.694ZM177.329 252.118C178.704 252.298 179.204 253.04 179.204 254.154C179.204 255.267 178.704 256.009 177.329 256.19L177.09 255.237C177.975 255.117 178.298 254.776 178.298 254.154C178.298 253.542 177.975 253.201 177.09 253.071L177.329 252.118ZM180.694 244.521V247.781H182.371C182.152 247.5 182.007 247.129 182.007 246.667C182.007 245.654 182.663 245.032 183.746 245.032C184.444 245.032 185.1 245.263 185.819 245.835L185.215 246.858C184.757 246.467 184.309 246.206 183.757 246.206C183.257 246.206 182.996 246.447 182.996 246.858C182.996 247.229 183.246 247.58 183.611 247.781H186.173V248.954H184.694C184.965 249.345 185.121 249.817 185.121 250.358C185.121 251.512 184.475 252.364 183.267 252.364C182.1 252.364 181.434 251.582 181.434 250.238C181.434 249.887 181.475 249.566 181.538 249.275L182.538 249.375C182.486 249.596 182.454 249.847 182.454 250.118C182.454 250.81 182.757 251.181 183.298 251.181C183.84 251.181 184.111 250.81 184.111 250.288C184.111 249.736 183.788 249.245 183.392 248.954H180.694V252.756H179.694V244.521H180.694ZM179.694 244.674V238.586H180.694V239.549H186.173V240.733H183.309V242.337H183.663C184.194 242.337 184.444 242.568 184.444 242.969C184.444 243.571 183.569 244.343 182.923 244.343C182.559 244.343 182.298 244.173 182.298 243.621V240.733H180.694V244.674H179.694ZM180.694 233.212H186.173V234.396H183.788V236.372H184.038C184.569 236.372 184.798 236.622 184.798 236.993C184.798 237.595 183.923 238.388 183.319 238.388C183.027 238.388 182.777 238.227 182.777 237.676L182.788 237.555H180.694V238.729H179.694V232.249H180.694V233.212ZM180.694 234.396V236.372H182.777V234.396H180.694ZM177.329 231.763C178.704 231.944 179.204 232.686 179.204 233.799C179.204 234.913 178.704 235.655 177.329 235.835L177.09 234.882C177.975 234.762 178.298 234.421 178.298 233.799C178.298 233.187 177.975 232.846 177.09 232.716L177.329 231.763ZM179.694 232.401V226.312H180.694V227.275H186.173V228.459H183.309V230.064H183.663C184.194 230.064 184.444 230.295 184.444 230.696C184.444 231.298 183.569 232.07 182.923 232.07C182.559 232.07 182.298 231.899 182.298 231.348V228.459H180.694V232.401H179.694Z" fill="#1E1E1E"/>
<path d="M180.449 264.458H185.684" stroke="#1E1E1E" stroke-width="0.4" stroke-linecap="round"/>
<mask id="mask0_152_378" style="mask-type:luminance" maskUnits="userSpaceOnUse" x="176" y="268" width="11" height="68">
<path d="M176.631 268.083V335.956H186.631V268.083H176.631Z" fill="white"/>
</mask>
<g mask="url(#mask0_152_378)">
<path d="M179.445 321.59L185.199 324.707V327.229L179.443 323.982L179.445 321.59Z" fill="#1E1E1E"/>
<path d="M179.445 325.951L185.199 329.067V331.59L179.443 328.343L179.445 325.951Z" fill="#1E1E1E"/>
<path d="M179.445 330.316L185.199 333.433V335.956L179.443 332.708L179.445 330.316Z" fill="#1E1E1E"/>
<path d="M185.204 318.622H179.204V317.461L183.439 314.879V315.494L179.204 312.955V311.803L185.204 311.786V313.103L181.202 313.111V312.869L184.57 314.896V315.529L181.202 317.6V317.305H185.204V318.622ZM185.204 311.144L179.204 308.44V307.054L185.204 304.342V305.815L179.907 308.033V307.479L185.204 309.705V311.144ZM183.919 309.792L182.864 309.419V306.3L183.919 305.919V309.792ZM185.307 300.895C185.307 301.363 185.233 301.799 185.084 302.203C184.93 302.602 184.713 302.948 184.433 303.243C184.153 303.537 183.824 303.769 183.447 303.936C183.07 304.098 182.656 304.179 182.204 304.179C181.753 304.179 181.339 304.098 180.962 303.936C180.584 303.769 180.256 303.537 179.976 303.243C179.696 302.943 179.482 302.593 179.333 302.195C179.179 301.796 179.102 301.36 179.102 300.886C179.102 300.361 179.193 299.887 179.376 299.465C179.553 299.038 179.816 298.68 180.164 298.391L180.987 299.292C180.753 299.5 180.579 299.731 180.464 299.985C180.344 300.239 180.284 300.516 180.284 300.817C180.284 301.1 180.33 301.36 180.422 301.597C180.513 301.834 180.644 302.039 180.816 302.212C180.987 302.385 181.19 302.521 181.424 302.619C181.659 302.712 181.919 302.758 182.204 302.758C182.49 302.758 182.75 302.712 182.984 302.619C183.219 302.521 183.422 302.385 183.593 302.212C183.764 302.039 183.896 301.834 183.987 301.597C184.079 301.36 184.124 301.1 184.124 300.817C184.124 300.516 184.067 300.239 183.953 299.985C183.833 299.731 183.653 299.5 183.413 299.292L184.236 298.391C184.584 298.68 184.85 299.038 185.033 299.465C185.216 299.887 185.307 300.363 185.307 300.895ZM185.204 297.443H179.204V296.282L183.524 292.703V293.266H179.204V291.88H185.204V293.033L180.884 296.62V296.057H185.204V297.443ZM185.204 290.445H179.204V289.284L183.439 286.702V287.317L179.204 284.779V283.626L185.204 283.609V284.926L181.202 284.935V284.692L184.57 286.72V287.352L181.202 289.423V289.128L185.204 289.128V290.445ZM185.204 282.967L179.204 280.264V278.877L185.204 276.165V277.638L179.907 279.857V279.302L185.204 281.529V282.967ZM183.919 281.615L182.864 281.243V278.123L183.919 277.742V281.615ZM185.204 275.536H179.204V274.375L183.524 270.797V271.36H179.204V269.974H185.204V271.126L180.884 274.713V274.15H185.204V275.536Z" fill="#1E1E1E"/>
</g>
</g>
<path d="M408.911 141.392V335.811C408.911 339.98 405.531 343.36 401.361 343.36H395.287C391.117 343.36 387.737 339.98 387.737 335.811V141.392H408.911Z" stroke="black" stroke-width="0.9"/>
<defs>
<clipPath id="clip0_152_378">
<rect width="10" height="110" fill="white" transform="translate(176.631 226.312)"/>
</clipPath>
</defs>
</svg>
