<svg width="628" height="628" viewBox="0 0 628 628" fill="none" xmlns="http://www.w3.org/2000/svg">
<rect width="627.16" height="627.16" rx="51" fill="white"/>
<path fill-rule="evenodd" clip-rule="evenodd" d="M160.58 168.464H255.686C258.187 168.464 260.234 170.541 260.234 173.078V371.797C256.611 383.032 252.987 394.267 249.364 405.502C248.757 406.752 247.447 407.364 245.614 407.5C245.078 407.785 244.542 408.071 244.007 408.356L209.503 408.51C197.493 408.465 185.483 408.419 173.473 408.374C173.02 408.133 173.096 407.942 172.592 407.898C169.551 407.638 168.21 406.691 167.801 405.422L156.031 371.452V333.594V173.078C156.031 170.54 158.078 168.464 160.58 168.464V168.464Z" stroke="black" stroke-width="0.8" stroke-miterlimit="22.9256"/>
<path fill-rule="evenodd" clip-rule="evenodd" d="M163.295 168.464L181.808 177.946L235.116 177.995L253.628 168.464L238.023 180.453C238.023 180.453 235.6 182.813 232.281 182.592H186.024C186.024 182.592 182.171 183.304 178.682 179.937L163.295 168.464Z" stroke="black" stroke-width="0.8" stroke-miterlimit="22.9256" stroke-linejoin="round"/>
<path d="M175.033 187.249L242.848 187.268L258.569 169.504" stroke="black" stroke-width="0.8" stroke-miterlimit="22.9256"/>
<path d="M170.877 190.455C170.877 189.865 156.031 174.625 156.031 174.625" stroke="black" stroke-width="0.8" stroke-miterlimit="22.9256"/>
<path d="M175.272 187.502L157.611 169.587" stroke="black" stroke-width="0.8" stroke-miterlimit="22.9256"/>
<path d="M246.834 190.455C246.834 189.865 260.235 174.625 260.235 174.625" stroke="black" stroke-width="0.8" stroke-miterlimit="22.9256"/>
<path d="M170.852 371.794V191.197C170.852 191.197 170.125 187.26 175.408 187.26" stroke="black" stroke-width="0.8" stroke-miterlimit="22.9256"/>
<path d="M246.79 371.794V191.197C246.79 191.197 247.517 187.26 242.234 187.26" stroke="black" stroke-width="0.8" stroke-miterlimit="22.9256"/>
<path d="M156.032 334.119L170.852 371.036C170.852 371.036 170.952 372.757 176.331 373.224C181.711 373.691 241.949 373.224 241.949 373.224C241.949 373.224 246.237 373.273 247.231 370.569L260.001 333.943V335.319L247.594 370.948C247.594 370.948 247.231 373.91 243.426 374.131C239.622 374.352 177.761 374.365 177.761 374.365C177.761 374.365 170.844 375.052 170.166 370.947L156.031 334.479" stroke="black" stroke-width="0.8" stroke-miterlimit="22.9256"/>
<path d="M172.881 407.956L186.909 385.642C187.319 384.862 188.103 384.042 188.766 383.508C190.564 382.062 192.783 381.442 195.068 381.411H221.703C222.675 381.334 223.908 381.508 224.833 381.741C227.134 382.321 229.129 383.58 230.616 385.463L230.649 385.505L244.864 407.897M223.241 412.825H223.015M194.313 412.803H193.984" stroke="black" stroke-width="0.8" stroke-miterlimit="22.9256"/>
<path d="M173.836 408.377L187.798 386.168C187.798 386.168 189.639 382.53 195.067 382.457H221.745C221.745 382.457 226.591 382.038 229.814 386.119L243.932 408.358M224.001 411.787H223.957M193.285 411.762H193.16" stroke="black" stroke-width="0.8" stroke-miterlimit="22.9256"/>
<path d="M170.85 371.794L167.676 405.065" stroke="black" stroke-width="0.8" stroke-miterlimit="22.9256"/>
<path d="M175.562 374.397L173.064 408.07" stroke="black" stroke-width="0.8" stroke-miterlimit="22.9256"/>
<path d="M246.793 371.358L249.756 404.286" stroke="black" stroke-width="0.8" stroke-miterlimit="22.9256"/>
<path d="M242.912 374.151L245.51 407.563" stroke="black" stroke-width="0.8" stroke-miterlimit="22.9256"/>
<path d="M175.033 187.26L175.523 374.358" stroke="black" stroke-width="0.8" stroke-miterlimit="22.9256"/>
<path d="M243.05 187.465L242.912 374.132" stroke="black" stroke-width="0.8" stroke-miterlimit="22.9256"/>
<path fill-rule="evenodd" clip-rule="evenodd" d="M195.228 408.443H192.527V410.323C192.953 411.597 193.711 412.726 195.037 413.655C195.673 417.672 198.339 420.515 208.593 420.695C218.711 420.873 221.441 417.886 222.121 413.855C224.094 412.444 224.821 410.554 225.064 408.443H221.956H195.228Z" stroke="black" stroke-width="0.8" stroke-miterlimit="22.9256"/>
<path d="M202.344 408.496C202.344 408.826 202.344 415.728 202.344 415.728" stroke="black" stroke-width="0.8" stroke-miterlimit="22.9256"/>
<path d="M203.941 408.458V415.905" stroke="black" stroke-width="0.8" stroke-miterlimit="22.9256"/>
<path d="M205.805 408.458V415.905" stroke="black" stroke-width="0.8" stroke-miterlimit="22.9256"/>
<path d="M207.668 408.458V415.905" stroke="black" stroke-width="0.8" stroke-miterlimit="22.9256"/>
<path d="M209.535 408.458V415.905" stroke="black" stroke-width="0.8" stroke-miterlimit="22.9256"/>
<path d="M211.404 408.458V415.905" stroke="black" stroke-width="0.8" stroke-miterlimit="22.9256"/>
<path d="M213.273 408.458V415.905" stroke="black" stroke-width="0.8" stroke-miterlimit="22.9256"/>
<path d="M215.137 408.458V415.905" stroke="black" stroke-width="0.8" stroke-miterlimit="22.9256"/>
<path d="M225.215 408.443C224.587 412.779 221.558 416.08 208.583 415.894C195.639 415.708 192.594 412.677 191.955 408.447" stroke="black" stroke-width="0.8" stroke-miterlimit="22.9256"/>
<line x1="207.459" y1="420.706" x2="207.459" y2="475.115" stroke="black"/>
<line x1="426.102" y1="371.163" x2="426.102" y2="475.112" stroke="black"/>
<line x1="425.602" y1="475.612" x2="206.959" y2="475.612" stroke="black"/>
<path d="M296.432 516.429L296.432 528.065L294.324 528.065L294.324 518.48L294.256 518.48L291.534 520.219L291.534 518.287L294.426 516.429L296.432 516.429ZM303.469 516.429L306.049 516.429L309.503 524.861L309.639 524.861L313.094 516.429L315.674 516.429L315.674 528.065L313.651 528.065L313.651 520.071L313.543 520.071L310.327 528.031L308.816 528.031L305.6 520.054L305.492 520.054L305.492 528.065L303.469 528.065L303.469 516.429ZM321.742 528.236C320.867 528.236 320.111 528.054 319.475 527.69C318.842 527.323 318.355 526.804 318.014 526.134C317.674 525.459 317.503 524.666 317.503 523.753C317.503 522.855 317.674 522.067 318.014 521.389C318.359 520.707 318.84 520.177 319.458 519.798C320.075 519.416 320.8 519.225 321.634 519.225C322.172 519.225 322.679 519.312 323.157 519.486C323.638 519.656 324.062 519.921 324.429 520.281C324.8 520.641 325.092 521.1 325.304 521.656C325.516 522.209 325.622 522.868 325.622 523.634L325.622 524.264L318.469 524.264L318.469 522.878L323.651 522.878C323.647 522.484 323.562 522.134 323.395 521.827C323.228 521.516 322.996 521.272 322.696 521.094C322.401 520.916 322.056 520.827 321.662 520.827C321.242 520.827 320.872 520.929 320.554 521.134C320.236 521.334 319.988 521.6 319.81 521.929C319.636 522.255 319.547 522.613 319.543 523.003L319.543 524.213C319.543 524.721 319.636 525.156 319.821 525.52C320.007 525.88 320.266 526.156 320.6 526.35C320.933 526.539 321.323 526.634 321.77 526.634C322.069 526.634 322.34 526.592 322.583 526.509C322.825 526.421 323.035 526.295 323.213 526.128C323.391 525.961 323.526 525.755 323.617 525.509L325.537 525.725C325.416 526.232 325.185 526.675 324.844 527.054C324.507 527.429 324.075 527.721 323.549 527.929C323.022 528.134 322.42 528.236 321.742 528.236ZM331.72 519.338L331.72 520.929L326.703 520.929L326.703 519.338L331.72 519.338ZM327.942 517.247L329.999 517.247L329.999 525.44C329.999 525.717 330.04 525.929 330.124 526.077C330.211 526.221 330.325 526.319 330.465 526.372C330.605 526.425 330.76 526.452 330.931 526.452C331.059 526.452 331.177 526.442 331.283 526.423C331.393 526.404 331.476 526.387 331.533 526.372L331.88 527.98C331.77 528.018 331.612 528.06 331.408 528.105C331.207 528.151 330.961 528.177 330.669 528.185C330.154 528.2 329.69 528.122 329.277 527.952C328.864 527.778 328.537 527.509 328.294 527.145C328.056 526.781 327.938 526.327 327.942 525.781L327.942 517.247ZM337.21 528.236C336.335 528.236 335.58 528.054 334.943 527.69C334.311 527.323 333.824 526.804 333.483 526.134C333.142 525.459 332.972 524.666 332.972 523.753C332.972 522.855 333.142 522.067 333.483 521.389C333.828 520.707 334.309 520.177 334.926 519.798C335.544 519.416 336.269 519.225 337.103 519.225C337.64 519.225 338.148 519.312 338.625 519.486C339.106 519.656 339.531 519.921 339.898 520.281C340.269 520.641 340.561 521.1 340.773 521.656C340.985 522.209 341.091 522.868 341.091 523.634L341.091 524.264L333.938 524.264L333.938 522.878L339.12 522.878C339.116 522.484 339.031 522.134 338.864 521.827C338.697 521.516 338.464 521.272 338.165 521.094C337.87 520.916 337.525 520.827 337.131 520.827C336.71 520.827 336.341 520.929 336.023 521.134C335.705 521.334 335.457 521.6 335.279 521.929C335.104 522.255 335.015 522.613 335.012 523.003L335.012 524.213C335.012 524.721 335.104 525.156 335.29 525.52C335.476 525.88 335.735 526.156 336.068 526.35C336.402 526.539 336.792 526.634 337.239 526.634C337.538 526.634 337.809 526.592 338.051 526.509C338.294 526.421 338.504 526.295 338.682 526.128C338.86 525.961 338.995 525.755 339.085 525.509L341.006 525.725C340.885 526.232 340.654 526.675 340.313 527.054C339.976 527.429 339.544 527.721 339.017 527.929C338.491 528.134 337.889 528.236 337.21 528.236ZM342.831 528.065L342.831 519.338L344.826 519.338L344.826 520.793L344.916 520.793C345.076 520.289 345.348 519.901 345.735 519.628C346.125 519.351 346.57 519.213 347.07 519.213C347.183 519.213 347.31 519.219 347.451 519.23C347.594 519.238 347.714 519.251 347.808 519.27L347.808 521.162C347.721 521.132 347.583 521.105 347.394 521.082C347.208 521.056 347.028 521.043 346.854 521.043C346.479 521.043 346.142 521.124 345.843 521.287C345.547 521.446 345.314 521.668 345.144 521.952C344.973 522.236 344.888 522.564 344.888 522.935L344.888 528.065L342.831 528.065ZM308.093 539.355L305.968 539.355C305.908 539.007 305.796 538.698 305.633 538.429C305.47 538.156 305.268 537.925 305.025 537.736C304.783 537.546 304.506 537.404 304.196 537.31C303.889 537.211 303.557 537.162 303.201 537.162C302.569 537.162 302.008 537.321 301.519 537.639C301.031 537.954 300.648 538.416 300.372 539.026C300.095 539.632 299.957 540.372 299.957 541.247C299.957 542.137 300.095 542.887 300.372 543.497C300.652 544.103 301.035 544.562 301.519 544.872C302.008 545.179 302.567 545.332 303.196 545.332C303.544 545.332 303.87 545.287 304.173 545.196C304.48 545.101 304.754 544.963 304.997 544.781C305.243 544.6 305.449 544.376 305.616 544.111C305.786 543.846 305.904 543.543 305.968 543.202L308.093 543.213C308.014 543.766 307.841 544.285 307.576 544.77C307.315 545.255 306.972 545.683 306.548 546.054C306.124 546.421 305.627 546.709 305.059 546.918C304.491 547.122 303.86 547.225 303.167 547.225C302.144 547.225 301.232 546.988 300.429 546.514C299.625 546.041 298.993 545.357 298.531 544.463C298.069 543.569 297.838 542.497 297.838 541.247C297.838 539.993 298.071 538.921 298.536 538.031C299.002 537.137 299.637 536.454 300.44 535.98C301.243 535.507 302.152 535.27 303.167 535.27C303.815 535.27 304.417 535.361 304.974 535.543C305.531 535.725 306.027 535.992 306.463 536.344C306.898 536.692 307.256 537.12 307.536 537.628C307.821 538.132 308.006 538.707 308.093 539.355ZM312.444 547.242C311.891 547.242 311.393 547.143 310.95 546.946C310.51 546.745 310.162 546.45 309.904 546.06C309.651 545.67 309.524 545.189 309.524 544.617C309.524 544.124 309.615 543.717 309.796 543.395C309.978 543.073 310.226 542.815 310.541 542.622C310.855 542.429 311.209 542.283 311.603 542.185C312.001 542.082 312.412 542.009 312.836 541.963C313.348 541.91 313.762 541.863 314.081 541.821C314.399 541.776 314.63 541.707 314.774 541.617C314.921 541.522 314.995 541.376 314.995 541.179L314.995 541.145C314.995 540.717 314.868 540.386 314.615 540.151C314.361 539.916 313.995 539.798 313.518 539.798C313.014 539.798 312.615 539.908 312.319 540.128C312.027 540.348 311.831 540.607 311.728 540.906L309.808 540.634C309.959 540.103 310.209 539.66 310.558 539.304C310.906 538.944 311.332 538.675 311.836 538.497C312.34 538.315 312.897 538.225 313.507 538.225C313.927 538.225 314.346 538.274 314.762 538.372C315.179 538.471 315.56 538.634 315.904 538.861C316.249 539.084 316.526 539.389 316.734 539.776C316.946 540.162 317.052 540.645 317.052 541.225L317.052 547.065L315.075 547.065L315.075 545.867L315.007 545.867C314.882 546.109 314.706 546.336 314.478 546.548C314.255 546.757 313.973 546.925 313.632 547.054C313.295 547.179 312.899 547.242 312.444 547.242ZM312.978 545.73C313.391 545.73 313.749 545.649 314.052 545.486C314.355 545.319 314.588 545.1 314.751 544.827C314.918 544.554 315.001 544.257 315.001 543.935L315.001 542.906C314.937 542.959 314.827 543.009 314.671 543.054C314.52 543.1 314.349 543.139 314.16 543.173C313.971 543.207 313.783 543.238 313.598 543.264C313.412 543.291 313.251 543.314 313.115 543.332C312.808 543.374 312.533 543.442 312.291 543.537C312.048 543.632 311.857 543.764 311.717 543.935C311.577 544.101 311.507 544.317 311.507 544.582C311.507 544.961 311.645 545.247 311.921 545.44C312.198 545.634 312.55 545.73 312.978 545.73ZM319.211 547.065L319.211 535.429L321.268 535.429L321.268 539.781L321.353 539.781C321.459 539.569 321.609 539.344 321.802 539.105C321.995 538.863 322.257 538.656 322.586 538.486C322.916 538.312 323.336 538.225 323.848 538.225C324.522 538.225 325.13 538.397 325.671 538.742C326.217 539.082 326.649 539.588 326.967 540.259C327.289 540.925 327.45 541.743 327.45 542.713C327.45 543.671 327.293 544.486 326.978 545.156C326.664 545.827 326.236 546.338 325.694 546.69C325.152 547.043 324.539 547.219 323.853 547.219C323.353 547.219 322.938 547.136 322.609 546.969C322.279 546.802 322.014 546.601 321.813 546.367C321.616 546.128 321.463 545.903 321.353 545.69L321.234 545.69L321.234 547.065L319.211 547.065ZM321.228 542.702C321.228 543.266 321.308 543.761 321.467 544.185C321.63 544.609 321.863 544.94 322.166 545.179C322.473 545.414 322.844 545.531 323.279 545.531C323.734 545.531 324.115 545.41 324.421 545.168C324.728 544.921 324.959 544.586 325.115 544.162C325.274 543.734 325.353 543.247 325.353 542.702C325.353 542.16 325.276 541.679 325.12 541.259C324.965 540.838 324.734 540.509 324.427 540.27C324.12 540.031 323.738 539.912 323.279 539.912C322.84 539.912 322.467 540.028 322.16 540.259C321.853 540.49 321.62 540.814 321.461 541.23C321.306 541.647 321.228 542.137 321.228 542.702ZM331.255 535.429L331.255 547.065L329.198 547.065L329.198 535.429L331.255 535.429ZM337.234 547.236C336.359 547.236 335.603 547.054 334.967 546.69C334.334 546.323 333.848 545.804 333.507 545.134C333.166 544.459 332.995 543.666 332.995 542.753C332.995 541.855 333.166 541.067 333.507 540.389C333.851 539.707 334.332 539.177 334.95 538.798C335.567 538.416 336.293 538.225 337.126 538.225C337.664 538.225 338.171 538.312 338.649 538.486C339.13 538.656 339.554 538.921 339.921 539.281C340.293 539.641 340.584 540.1 340.796 540.656C341.009 541.209 341.115 541.868 341.115 542.634L341.115 543.264L333.961 543.264L333.961 541.878L339.143 541.878C339.139 541.484 339.054 541.134 338.887 540.827C338.721 540.516 338.488 540.272 338.188 540.094C337.893 539.916 337.548 539.827 337.154 539.827C336.734 539.827 336.365 539.929 336.046 540.134C335.728 540.334 335.48 540.6 335.302 540.929C335.128 541.255 335.039 541.613 335.035 542.003L335.035 543.213C335.035 543.721 335.128 544.156 335.313 544.52C335.499 544.88 335.759 545.156 336.092 545.35C336.425 545.539 336.815 545.634 337.262 545.634C337.562 545.634 337.832 545.592 338.075 545.509C338.317 545.421 338.527 545.295 338.706 545.128C338.884 544.961 339.018 544.755 339.109 544.509L341.029 544.725C340.908 545.232 340.677 545.675 340.336 546.054C339.999 546.429 339.567 546.721 339.041 546.929C338.514 547.134 337.912 547.236 337.234 547.236Z" fill="#3C3B3B"/>
<line x1="206.105" y1="487.276" x2="206.105" y2="556.319" stroke="#D1D1D1" stroke-width="0.6"/>
<line x1="432.124" y1="487.276" x2="432.124" y2="556.319" stroke="#D1D1D1" stroke-width="0.6"/>
<line x1="273.605" y1="528.365" x2="205.804" y2="528.365" stroke="#D1D1D1" stroke-width="0.6"/>
<line x1="431.824" y1="528.365" x2="364.023" y2="528.365" stroke="#D1D1D1" stroke-width="0.6"/>
<path d="M81.4506 284.175V295.812H79.3427V286.226H79.2745L76.5529 287.965V286.033L79.445 284.175H81.4506ZM88.4506 295.971C87.6931 295.971 87.015 295.829 86.4165 295.544C85.8181 295.257 85.3427 294.863 84.9904 294.363C84.6419 293.863 84.4563 293.291 84.4336 292.647H86.479C86.5169 293.124 86.7234 293.514 87.0984 293.817C87.4734 294.116 87.9241 294.266 88.4506 294.266C88.8635 294.266 89.2309 294.171 89.5529 293.982C89.8749 293.793 90.1287 293.529 90.3143 293.192C90.4999 292.855 90.5908 292.471 90.587 292.039C90.5908 291.599 90.498 291.209 90.3086 290.868C90.1192 290.527 89.8597 290.26 89.5302 290.067C89.2006 289.87 88.8219 289.772 88.3938 289.772C88.0453 289.768 87.7025 289.832 87.3654 289.965C87.0283 290.098 86.7612 290.272 86.5643 290.488L84.6609 290.175L85.2688 284.175H92.0188V285.937H87.0131L86.6779 289.022H86.7461C86.962 288.768 87.2669 288.558 87.6609 288.391C88.0548 288.221 88.4866 288.135 88.9563 288.135C89.6609 288.135 90.2897 288.302 90.8427 288.635C91.3957 288.965 91.8313 289.419 92.1495 289.999C92.4677 290.579 92.6268 291.241 92.6268 291.988C92.6268 292.757 92.4487 293.442 92.0927 294.044C91.7404 294.643 91.2499 295.115 90.6211 295.459C89.9961 295.8 89.2726 295.971 88.4506 295.971ZM94.5302 295.812V294.289L98.57 290.329C98.9563 289.938 99.2783 289.592 99.5359 289.289C99.7934 288.986 99.9866 288.692 100.115 288.408C100.244 288.124 100.309 287.821 100.309 287.499C100.309 287.132 100.225 286.817 100.059 286.556C99.8919 286.291 99.6628 286.086 99.3711 285.942C99.0794 285.798 98.748 285.726 98.3768 285.726C97.9942 285.726 97.659 285.806 97.3711 285.965C97.0832 286.12 96.8597 286.342 96.7006 286.63C96.5453 286.918 96.4677 287.26 96.4677 287.658H94.462C94.462 286.919 94.6306 286.277 94.9677 285.732C95.3048 285.187 95.7688 284.764 96.3597 284.465C96.9544 284.166 97.6362 284.016 98.4052 284.016C99.1855 284.016 99.8711 284.162 100.462 284.454C101.053 284.745 101.511 285.145 101.837 285.652C102.167 286.16 102.331 286.74 102.331 287.391C102.331 287.827 102.248 288.255 102.081 288.675C101.915 289.096 101.621 289.562 101.201 290.073C100.784 290.584 100.199 291.204 99.445 291.931L97.4393 293.971V294.05H102.507V295.812H94.5302ZM108.459 295.812V287.084H110.425V288.567H110.527C110.709 288.067 111.01 287.677 111.431 287.397C111.851 287.113 112.353 286.971 112.936 286.971C113.527 286.971 114.025 287.115 114.431 287.402C114.84 287.687 115.128 288.075 115.294 288.567H115.385C115.578 288.082 115.904 287.696 116.363 287.408C116.825 287.116 117.372 286.971 118.005 286.971C118.808 286.971 119.463 287.224 119.971 287.732C120.478 288.24 120.732 288.98 120.732 289.954V295.812H118.669V290.272C118.669 289.73 118.525 289.334 118.238 289.084C117.95 288.83 117.597 288.704 117.181 288.704C116.685 288.704 116.296 288.859 116.016 289.169C115.739 289.476 115.601 289.876 115.601 290.368V295.812H113.584V290.187C113.584 289.736 113.448 289.376 113.175 289.107C112.906 288.838 112.554 288.704 112.118 288.704C111.823 288.704 111.554 288.779 111.311 288.931C111.069 289.079 110.876 289.289 110.732 289.562C110.588 289.83 110.516 290.145 110.516 290.505V295.812H108.459ZM122.819 295.812V287.084H124.784V288.567H124.887C125.069 288.067 125.37 287.677 125.79 287.397C126.211 287.113 126.712 286.971 127.296 286.971C127.887 286.971 128.385 287.115 128.79 287.402C129.199 287.687 129.487 288.075 129.654 288.567H129.745C129.938 288.082 130.264 287.696 130.722 287.408C131.184 287.116 131.731 286.971 132.364 286.971C133.167 286.971 133.822 287.224 134.33 287.732C134.837 288.24 135.091 288.98 135.091 289.954V295.812H133.029V290.272C133.029 289.73 132.885 289.334 132.597 289.084C132.309 288.83 131.957 288.704 131.54 288.704C131.044 288.704 130.656 288.859 130.375 289.169C130.099 289.476 129.961 289.876 129.961 290.368V295.812H127.944V290.187C127.944 289.736 127.807 289.376 127.534 289.107C127.266 288.838 126.913 288.704 126.478 288.704C126.182 288.704 125.913 288.779 125.671 288.931C125.428 289.079 125.235 289.289 125.091 289.562C124.947 289.83 124.875 290.145 124.875 290.505V295.812H122.819Z" fill="#3C3B3B"/>
<line x1="206.716" y1="135.556" x2="206.716" y2="170.007" stroke="#D1D1D1" stroke-width="0.6"/>
<line x1="203.292" y1="420.706" x2="203.292" y2="455.158" stroke="#D1D1D1" stroke-width="0.6"/>
<line x1="108.529" y1="270.619" x2="92.5153" y2="270.619" stroke="#D1D1D1" stroke-width="0.6"/>
<line x1="108.527" y1="311.272" x2="92.5133" y2="311.272" stroke="#D1D1D1" stroke-width="0.6"/>
<line x1="206.959" y1="153.084" x2="99.9481" y2="153.084" stroke="#D1D1D1" stroke-width="0.6"/>
<line x1="202.992" y1="436.815" x2="99.5414" y2="436.815" stroke="#D1D1D1" stroke-width="0.6"/>
<line x1="100.221" y1="270.319" x2="100.221" y2="152.787" stroke="#D1D1D1" stroke-width="0.6"/>
<line x1="100.221" y1="436.515" x2="100.221" y2="310.975" stroke="#D1D1D1" stroke-width="0.6"/>
<path d="M431.097 361.098V366.796C431.097 369.309 429.06 371.346 426.547 371.346H425.656C422.591 371.346 420.107 368.861 420.106 365.796V361.098H431.097Z" stroke="black" stroke-width="0.9"/>
<path d="M548.115 253.352L536.479 253.352L536.479 251.244L546.064 251.244L546.064 251.176L544.325 248.454L546.257 248.454L548.115 251.346L548.115 253.352ZM536.479 256.733L546.274 261.682L546.354 261.682L546.354 255.937L548.115 255.937L548.115 263.863L546.314 263.863L536.479 258.92L536.479 256.733ZM536.257 269.748C536.257 268.813 536.494 268.01 536.967 267.339C537.444 266.673 538.132 266.159 539.03 265.799C539.931 265.443 541.016 265.265 542.285 265.265C543.554 265.269 544.634 265.449 545.524 265.805C546.418 266.165 547.1 266.678 547.569 267.345C548.039 268.015 548.274 268.816 548.274 269.748C548.274 270.68 548.039 271.481 547.569 272.152C547.1 272.822 546.418 273.335 545.524 273.691C544.63 274.051 543.55 274.231 542.285 274.231C541.013 274.231 539.925 274.051 539.024 273.691C538.126 273.335 537.441 272.822 536.967 272.152C536.494 271.485 536.257 270.684 536.257 269.748ZM538.035 269.748C538.035 270.476 538.393 271.049 539.109 271.47C539.829 271.894 540.888 272.106 542.285 272.106C543.21 272.106 543.986 272.01 544.615 271.816C545.244 271.623 545.717 271.351 546.035 270.998C546.357 270.646 546.518 270.229 546.518 269.748C546.518 269.025 546.158 268.453 545.439 268.032C544.723 267.612 543.672 267.4 542.285 267.396C541.357 267.392 540.577 267.485 539.944 267.674C539.312 267.868 538.835 268.14 538.513 268.493C538.194 268.845 538.035 269.263 538.035 269.748ZM536.479 280.111L545.206 280.111L545.206 282.076L543.723 282.076L543.723 282.179C544.223 282.361 544.613 282.662 544.893 283.082C545.177 283.503 545.319 284.004 545.319 284.588C545.319 285.179 545.175 285.677 544.888 286.082C544.604 286.491 544.215 286.779 543.723 286.946L543.723 287.037C544.208 287.23 544.594 287.556 544.882 288.014C545.174 288.476 545.319 289.023 545.319 289.656C545.319 290.459 545.066 291.114 544.558 291.622C544.05 292.129 543.31 292.383 542.336 292.383L536.479 292.383L536.479 290.321L542.018 290.321C542.56 290.321 542.956 290.177 543.206 289.889C543.46 289.601 543.586 289.249 543.586 288.832C543.586 288.336 543.431 287.948 543.121 287.667C542.814 287.391 542.414 287.253 541.922 287.253L536.479 287.253L536.479 285.236L542.104 285.236C542.554 285.236 542.914 285.099 543.183 284.826C543.452 284.557 543.586 284.205 543.586 283.77C543.586 283.474 543.511 283.205 543.359 282.963C543.211 282.72 543.001 282.527 542.729 282.383C542.46 282.239 542.145 282.167 541.785 282.167L536.479 282.167L536.479 280.111ZM536.479 294.47L545.206 294.47L545.206 296.436L543.723 296.436L543.723 296.538C544.223 296.72 544.613 297.021 544.893 297.441C545.177 297.862 545.319 298.364 545.319 298.947C545.319 299.538 545.175 300.036 544.888 300.441C544.604 300.851 544.215 301.138 543.723 301.305L543.723 301.396C544.208 301.589 544.594 301.915 544.882 302.373C545.174 302.835 545.319 303.383 545.319 304.015C545.319 304.818 545.066 305.474 544.558 305.981C544.05 306.489 543.31 306.743 542.336 306.743L536.479 306.743L536.479 304.68L542.018 304.68C542.56 304.68 542.956 304.536 543.206 304.248C543.46 303.96 543.586 303.608 543.586 303.191C543.586 302.695 543.431 302.307 543.121 302.027C542.814 301.75 542.414 301.612 541.922 301.612L536.479 301.612L536.479 299.595L542.104 299.595C542.554 299.595 542.914 299.459 543.183 299.186C543.452 298.917 543.586 298.565 543.586 298.129C543.586 297.834 543.511 297.565 543.359 297.322C543.211 297.08 543.001 296.887 542.729 296.743C542.46 296.599 542.145 296.527 541.785 296.527L536.479 296.527L536.479 294.47Z" fill="#3C3B3B"/>
<path d="M347.9 118.881C347.081 118.881 346.354 118.741 345.718 118.46C345.085 118.18 344.585 117.79 344.218 117.29C343.85 116.79 343.655 116.212 343.633 115.557H345.769C345.788 115.871 345.892 116.146 346.081 116.381C346.271 116.612 346.523 116.792 346.837 116.921C347.152 117.049 347.504 117.114 347.894 117.114C348.311 117.114 348.68 117.042 349.002 116.898C349.324 116.75 349.576 116.546 349.758 116.284C349.939 116.023 350.028 115.722 350.025 115.381C350.028 115.028 349.938 114.718 349.752 114.449C349.566 114.18 349.297 113.97 348.945 113.818C348.597 113.667 348.176 113.591 347.684 113.591L346.655 113.591V111.966L347.684 111.966C348.089 111.966 348.443 111.896 348.746 111.756C349.053 111.616 349.294 111.419 349.468 111.165C349.642 110.907 349.727 110.61 349.724 110.273C349.727 109.943 349.653 109.657 349.502 109.415C349.354 109.169 349.144 108.977 348.871 108.841C348.602 108.705 348.286 108.636 347.922 108.636C347.566 108.636 347.237 108.701 346.934 108.83C346.631 108.958 346.386 109.142 346.201 109.381C346.015 109.616 345.917 109.896 345.905 110.222H343.877C343.892 109.57 344.08 108.998 344.439 108.506C344.803 108.01 345.288 107.623 345.894 107.347C346.5 107.066 347.18 106.926 347.934 106.926C348.71 106.926 349.385 107.072 349.956 107.364C350.532 107.652 350.977 108.04 351.292 108.528C351.606 109.017 351.763 109.557 351.763 110.148C351.767 110.803 351.574 111.352 351.184 111.796C350.797 112.239 350.29 112.528 349.661 112.665V112.756C350.479 112.869 351.106 113.172 351.542 113.665C351.981 114.153 352.199 114.761 352.195 115.489C352.195 116.14 352.01 116.724 351.638 117.239C351.271 117.75 350.763 118.152 350.116 118.443C349.472 118.735 348.733 118.881 347.9 118.881ZM358.447 118.943C357.511 118.943 356.708 118.707 356.037 118.233C355.371 117.756 354.858 117.068 354.498 116.171C354.142 115.269 353.964 114.184 353.964 112.915C353.967 111.646 354.147 110.566 354.503 109.676C354.863 108.782 355.376 108.1 356.043 107.631C356.714 107.161 357.515 106.926 358.447 106.926C359.378 106.926 360.18 107.161 360.85 107.631C361.52 108.1 362.034 108.782 362.39 109.676C362.75 110.57 362.93 111.65 362.93 112.915C362.93 114.188 362.75 115.275 362.39 116.176C362.034 117.074 361.52 117.76 360.85 118.233C360.183 118.707 359.382 118.943 358.447 118.943ZM358.447 117.165C359.174 117.165 359.748 116.807 360.168 116.091C360.592 115.371 360.805 114.313 360.805 112.915C360.805 111.991 360.708 111.214 360.515 110.585C360.322 109.957 360.049 109.483 359.697 109.165C359.344 108.843 358.928 108.682 358.447 108.682C357.723 108.682 357.151 109.042 356.731 109.761C356.31 110.477 356.098 111.528 356.094 112.915C356.09 113.843 356.183 114.623 356.373 115.256C356.566 115.888 356.839 116.366 357.191 116.688C357.543 117.006 357.962 117.165 358.447 117.165ZM368.809 118.722V109.994H370.775V111.477H370.877C371.059 110.977 371.36 110.587 371.78 110.307C372.201 110.023 372.703 109.881 373.286 109.881C373.877 109.881 374.375 110.025 374.78 110.313C375.189 110.597 375.477 110.985 375.644 111.477H375.735C375.928 110.993 376.254 110.606 376.712 110.318C377.174 110.027 377.722 109.881 378.354 109.881C379.157 109.881 379.813 110.135 380.32 110.642C380.828 111.15 381.081 111.89 381.081 112.864V118.722L379.019 118.722V113.182C379.019 112.64 378.875 112.244 378.587 111.994C378.299 111.741 377.947 111.614 377.53 111.614C377.034 111.614 376.646 111.769 376.366 112.08C376.089 112.386 375.951 112.786 375.951 113.278V118.722H373.934V113.097C373.934 112.646 373.797 112.286 373.525 112.017C373.256 111.748 372.903 111.614 372.468 111.614C372.172 111.614 371.903 111.689 371.661 111.841C371.419 111.989 371.225 112.199 371.081 112.472C370.938 112.741 370.866 113.055 370.866 113.415V118.722H368.809ZM383.168 118.722V109.994H385.134V111.477H385.236C385.418 110.977 385.719 110.587 386.14 110.307C386.56 110.023 387.062 109.881 387.645 109.881C388.236 109.881 388.734 110.025 389.14 110.313C389.549 110.597 389.837 110.985 390.003 111.477H390.094C390.287 110.993 390.613 110.606 391.072 110.318C391.534 110.027 392.081 109.881 392.714 109.881C393.517 109.881 394.172 110.135 394.68 110.642C395.187 111.15 395.441 111.89 395.441 112.864V118.722H393.378V113.182C393.378 112.64 393.234 112.244 392.947 111.994C392.659 111.741 392.306 111.614 391.89 111.614C391.394 111.614 391.005 111.769 390.725 112.08C390.448 112.386 390.31 112.786 390.31 113.278V118.722H388.293V113.097C388.293 112.646 388.157 112.286 387.884 112.017C387.615 111.748 387.263 111.614 386.827 111.614C386.532 111.614 386.263 111.689 386.02 111.841C385.778 111.989 385.585 112.199 385.441 112.472C385.297 112.741 385.225 113.055 385.225 113.415V118.722H383.168Z" fill="#3C3B3B"/>
<line x1="536.479" y1="159.104" x2="425.793" y2="159.104" stroke="#D1D1D1" stroke-width="0.6"/>
<line x1="414.15" y1="114.782" x2="414.15" y2="158.804" stroke="#D1D1D1" stroke-width="0.6"/>
<line x1="536.479" y1="372.096" x2="431.547" y2="372.096" stroke="#D1D1D1" stroke-width="0.6"/>
<line x1="436.224" y1="113.38" x2="436.224" y2="158.804" stroke="#D1D1D1" stroke-width="0.6"/>
<line x1="523.716" y1="371.796" x2="523.716" y2="158.804" stroke="#D1D1D1" stroke-width="0.6"/>
<line x1="435.924" y1="126.143" x2="339.221" y2="126.143" stroke="#D1D1D1" stroke-width="0.6"/>
<path d="M193.296 111.785C192.74 111.781 192.196 111.685 191.666 111.495C191.135 111.302 190.658 110.99 190.234 110.558C189.81 110.122 189.473 109.545 189.223 108.825C188.973 108.101 188.849 107.206 188.853 106.137C188.853 105.141 188.959 104.253 189.171 103.473C189.384 102.692 189.688 102.033 190.086 101.495C190.484 100.954 190.963 100.541 191.524 100.257C192.088 99.9726 192.719 99.8305 193.416 99.8305C194.147 99.8305 194.795 99.9745 195.359 100.262C195.927 100.55 196.385 100.944 196.734 101.444C197.082 101.94 197.298 102.501 197.382 103.126L195.308 103.126C195.202 102.679 194.984 102.323 194.654 102.058C194.329 101.789 193.916 101.654 193.416 101.654C192.609 101.654 191.988 102.005 191.552 102.706C191.12 103.406 190.902 104.368 190.899 105.592L190.978 105.592C191.164 105.259 191.404 104.973 191.7 104.734C191.995 104.495 192.329 104.312 192.7 104.183C193.075 104.05 193.471 103.984 193.887 103.984C194.569 103.984 195.181 104.147 195.723 104.473C196.268 104.798 196.7 105.247 197.018 105.819C197.336 106.387 197.493 107.039 197.49 107.774C197.493 108.539 197.319 109.226 196.967 109.836C196.615 110.442 196.124 110.92 195.495 111.268C194.866 111.617 194.134 111.789 193.296 111.785ZM193.285 110.081C193.698 110.081 194.067 109.98 194.393 109.779C194.719 109.579 194.976 109.308 195.166 108.967C195.355 108.626 195.448 108.243 195.444 107.819C195.448 107.402 195.357 107.026 195.171 106.688C194.99 106.351 194.738 106.084 194.416 105.887C194.094 105.69 193.726 105.592 193.313 105.592C193.007 105.592 192.721 105.651 192.456 105.768C192.19 105.885 191.959 106.048 191.762 106.257C191.565 106.461 191.41 106.7 191.296 106.973C191.187 107.242 191.13 107.529 191.126 107.836C191.13 108.242 191.224 108.615 191.41 108.956C191.596 109.296 191.851 109.569 192.177 109.774C192.503 109.978 192.872 110.081 193.285 110.081ZM199.41 111.626L199.41 110.103L203.45 106.143C203.836 105.753 204.158 105.406 204.416 105.103C204.673 104.8 204.866 104.507 204.995 104.223C205.124 103.938 205.188 103.635 205.188 103.313C205.188 102.946 205.105 102.632 204.938 102.37C204.772 102.105 204.543 101.901 204.251 101.757C203.959 101.613 203.628 101.541 203.257 101.541C202.874 101.541 202.539 101.62 202.251 101.779C201.963 101.935 201.74 102.156 201.581 102.444C201.425 102.732 201.348 103.075 201.348 103.473L199.342 103.473C199.342 102.734 199.51 102.092 199.848 101.546C200.185 101.001 200.649 100.579 201.24 100.279C201.834 99.9801 202.516 99.8305 203.285 99.8305C204.065 99.8305 204.751 99.9764 205.342 100.268C205.933 100.56 206.391 100.959 206.717 101.467C207.046 101.974 207.211 102.554 207.211 103.206C207.211 103.641 207.128 104.069 206.961 104.49C206.795 104.91 206.501 105.376 206.081 105.887C205.664 106.399 205.079 107.018 204.325 107.745L202.319 109.785L202.319 109.865L207.387 109.865L207.387 111.626L199.41 111.626ZM209.37 111.626L209.37 102.899L211.336 102.899L211.336 104.382L211.438 104.382C211.62 103.882 211.921 103.492 212.342 103.211C212.762 102.927 213.264 102.785 213.848 102.785C214.438 102.785 214.937 102.929 215.342 103.217C215.751 103.501 216.039 103.889 216.206 104.382L216.296 104.382C216.49 103.897 216.815 103.51 217.274 103.223C217.736 102.931 218.283 102.785 218.916 102.785C219.719 102.785 220.374 103.039 220.882 103.546C221.389 104.054 221.643 104.795 221.643 105.768L221.643 111.626L219.581 111.626L219.581 106.086C219.581 105.545 219.437 105.149 219.149 104.899C218.861 104.645 218.509 104.518 218.092 104.518C217.596 104.518 217.207 104.673 216.927 104.984C216.651 105.291 216.512 105.69 216.512 106.183L216.512 111.626L214.495 111.626L214.495 106.001C214.495 105.55 214.359 105.19 214.086 104.921C213.817 104.652 213.465 104.518 213.029 104.518C212.734 104.518 212.465 104.594 212.223 104.745C211.98 104.893 211.787 105.103 211.643 105.376C211.499 105.645 211.427 105.959 211.427 106.319L211.427 111.626L209.37 111.626ZM223.73 111.626L223.73 102.899L225.696 102.899L225.696 104.382L225.798 104.382C225.98 103.882 226.281 103.492 226.701 103.211C227.122 102.927 227.624 102.785 228.207 102.785C228.798 102.785 229.296 102.929 229.701 103.217C230.11 103.501 230.398 103.889 230.565 104.382L230.656 104.382C230.849 103.897 231.175 103.51 231.633 103.223C232.095 102.931 232.643 102.785 233.275 102.785C234.078 102.785 234.733 103.039 235.241 103.546C235.749 104.054 236.002 104.795 236.002 105.768L236.002 111.626L233.94 111.626L233.94 106.086C233.94 105.545 233.796 105.149 233.508 104.899C233.22 104.645 232.868 104.518 232.451 104.518C231.955 104.518 231.567 104.673 231.286 104.984C231.01 105.291 230.872 105.69 230.872 106.183L230.872 111.626L228.855 111.626L228.855 106.001C228.855 105.55 228.718 105.19 228.446 104.921C228.177 104.652 227.824 104.518 227.389 104.518C227.093 104.518 226.824 104.594 226.582 104.745C226.34 104.893 226.146 105.103 226.002 105.376C225.858 105.645 225.786 105.959 225.786 106.319L225.786 111.626L223.73 111.626Z" fill="#3C3B3B"/>
<line x1="159.04" y1="70.8408" x2="159.04" y2="139.883" stroke="#D1D1D1" stroke-width="0.6"/>
<line x1="259.327" y1="71.7861" x2="259.327" y2="140.829" stroke="#D1D1D1" stroke-width="0.6"/>
<line x1="176.373" y1="107.91" x2="158.739" y2="107.91" stroke="#D1D1D1" stroke-width="0.6"/>
<line x1="259.027" y1="107.91" x2="245.993" y2="107.91" stroke="#D1D1D1" stroke-width="0.6"/>
<g clip-path="url(#clip0_153_526)">
<path d="M207.258 271.429H212.738V272.613H210.352V274.589H210.602C211.133 274.589 211.363 274.839 211.363 275.21C211.363 275.812 210.488 276.605 209.883 276.605C209.592 276.605 209.342 276.444 209.342 275.892L209.352 275.772H207.258V276.946H206.258V270.466H207.258V271.429ZM207.258 272.613V274.589H209.342V272.613H207.258ZM203.894 269.98C205.269 270.161 205.769 270.903 205.769 272.016C205.769 273.129 205.269 273.872 203.894 274.052L203.654 273.099C204.54 272.979 204.863 272.638 204.863 272.016C204.863 271.404 204.54 271.063 203.654 270.933L203.894 269.98ZM207.258 262.383V265.643H208.936C208.717 265.362 208.571 264.991 208.571 264.53C208.571 263.516 209.227 262.895 210.311 262.895C211.008 262.895 211.665 263.125 212.383 263.697L211.779 264.72C211.321 264.329 210.873 264.068 210.321 264.068C209.821 264.068 209.561 264.309 209.561 264.72C209.561 265.091 209.811 265.442 210.175 265.643H212.738V266.816H211.258C211.529 267.208 211.686 267.679 211.686 268.221C211.686 269.374 211.04 270.227 209.831 270.227C208.665 270.227 207.998 269.444 207.998 268.1C207.998 267.749 208.04 267.428 208.102 267.137L209.102 267.238C209.05 267.458 209.019 267.709 209.019 267.98C209.019 268.672 209.321 269.043 209.863 269.043C210.404 269.043 210.675 268.672 210.675 268.15C210.675 267.599 210.352 267.107 209.956 266.816H207.258V270.618H206.258V262.383H207.258ZM206.258 262.537V256.448H207.258V257.411H212.738V258.595H209.873V260.2H210.227C210.758 260.2 211.008 260.43 211.008 260.832C211.008 261.433 210.133 262.206 209.488 262.206C209.123 262.206 208.863 262.035 208.863 261.484V258.595H207.258V262.537H206.258ZM207.258 251.074H212.738V252.258H210.352V254.234H210.602C211.133 254.234 211.363 254.485 211.363 254.856C211.363 255.458 210.488 256.25 209.883 256.25C209.592 256.25 209.342 256.09 209.342 255.538L209.352 255.417H207.258V256.591H206.258V250.111H207.258V251.074ZM207.258 252.258V254.234H209.342V252.258H207.258ZM203.894 249.625C205.269 249.806 205.769 250.548 205.769 251.661C205.769 252.775 205.269 253.517 203.894 253.698L203.654 252.745C204.54 252.624 204.863 252.283 204.863 251.661C204.863 251.05 204.54 250.709 203.654 250.578L203.894 249.625ZM206.258 250.263V244.175H207.258V245.138H212.738V246.321H209.873V247.926H210.227C210.758 247.926 211.008 248.157 211.008 248.558C211.008 249.16 210.133 249.932 209.488 249.932C209.123 249.932 208.863 249.762 208.863 249.21V246.321H207.258V250.263H206.258Z" fill="#1E1E1E"/>
<path d="M207.014 282.321H212.249" stroke="#1E1E1E" stroke-width="0.4" stroke-linecap="round"/>
<mask id="mask0_153_526" style="mask-type:luminance" maskUnits="userSpaceOnUse" x="203" y="285" width="11" height="69">
<path d="M203.195 285.946V353.818H213.195V285.946H203.195Z" fill="white"/>
</mask>
<g mask="url(#mask0_153_526)">
<path d="M206.01 339.452L211.763 342.569V345.092L206.008 341.844L206.01 339.452Z" fill="#1E1E1E"/>
<path d="M206.01 343.813L211.763 346.93V349.452L206.008 346.205L206.01 343.813Z" fill="#1E1E1E"/>
<path d="M206.01 348.178L211.763 351.295V353.818L206.008 350.57L206.01 348.178Z" fill="#1E1E1E"/>
<path d="M211.769 336.484H205.769V335.323L210.003 332.741V333.356L205.769 330.818V329.665L211.769 329.648V330.965L207.766 330.974V330.731L211.135 332.759V333.391L207.766 335.462V335.167H211.769V336.484ZM211.769 329.006L205.769 326.303V324.916L211.769 322.204V323.677L206.472 325.895V325.341L211.769 327.568V329.006ZM210.483 327.654L209.429 327.282V324.163L210.483 323.781V327.654ZM211.872 318.757C211.872 319.225 211.797 319.661 211.649 320.065C211.495 320.464 211.277 320.811 210.997 321.105C210.717 321.4 210.389 321.631 210.012 321.798C209.635 321.96 209.22 322.041 208.769 322.041C208.317 322.041 207.903 321.96 207.526 321.798C207.149 321.631 206.82 321.4 206.54 321.105C206.26 320.805 206.046 320.455 205.897 320.057C205.743 319.658 205.666 319.222 205.666 318.749C205.666 318.223 205.757 317.749 205.94 317.327C206.117 316.9 206.38 316.542 206.729 316.253L207.552 317.154C207.317 317.362 207.143 317.593 207.029 317.847C206.909 318.102 206.849 318.379 206.849 318.679C206.849 318.962 206.895 319.222 206.986 319.459C207.077 319.696 207.209 319.901 207.38 320.074C207.552 320.248 207.755 320.383 207.989 320.481C208.223 320.574 208.483 320.62 208.769 320.62C209.055 320.62 209.315 320.574 209.549 320.481C209.783 320.383 209.986 320.248 210.157 320.074C210.329 319.901 210.46 319.696 210.552 319.459C210.643 319.222 210.689 318.962 210.689 318.679C210.689 318.379 210.632 318.102 210.517 317.847C210.397 317.593 210.217 317.362 209.977 317.154L210.8 316.253C211.149 316.542 211.415 316.9 211.597 317.327C211.78 317.749 211.872 318.226 211.872 318.757ZM211.769 315.305H205.769V314.144L210.089 310.566V311.129H205.769V309.743H211.769V310.895L207.449 314.482V313.919H211.769V315.305ZM211.769 308.308H205.769V307.147L210.003 304.565V305.18L205.769 302.641V301.489L211.769 301.471V302.788L207.766 302.797V302.554L211.135 304.582V305.214L207.766 307.285V306.991L211.769 306.99V308.308ZM211.769 300.829L205.769 298.126V296.74L211.769 294.028V295.501L206.472 297.719V297.164L211.769 299.391V300.829ZM210.483 299.478L209.429 299.105V295.986L210.483 295.605V299.478ZM211.769 293.398H205.769V292.237L210.089 288.659V289.222H205.769V287.836H211.769V288.988L207.449 292.575V292.012H211.769V293.398Z" fill="#1E1E1E"/>
</g>
</g>
<path d="M435.474 159.254V353.673C435.474 357.843 432.094 361.223 427.924 361.223H421.85C417.68 361.223 414.3 357.843 414.3 353.673V159.254H435.474Z" stroke="black" stroke-width="0.9"/>
<defs>
<clipPath id="clip0_153_526">
<rect width="10" height="110" fill="white" transform="translate(203.195 244.175)"/>
</clipPath>
</defs>
</svg>
