<svg xmlns="http://www.w3.org/2000/svg" width="622" height="533" fill="none" xmlns:v="https://vecta.io/nano"><style><![CDATA[.B{stroke-width:.5}.C{fill:#b8b8b8}.D{fill:#0c0c0c}.E{fill:#575757}.F{color-interpolation-filters:sRGB}]]></style><rect x="1.198" y=".25" width="255.5" height="532.5" rx="9.75" fill="#fff" stroke="url(#C)" class="B"/><g fill-rule="evenodd"><path d="M38.949 502.23v6.949a1.18 1.18 0 0 1-1.184 1.184H32.81c-.624 0-1.184-.504-1.184-1.091v-7.136c0-.557.533-1.09 1.091-1.09h5.141a1.11 1.11 0 0 1 .766.355c.179.213.324.453.324.829h0zm8.632 6.543v7.136c0 .558-.533 1.091-1.091 1.091h-5.141c-.563 0-1.09-.539-1.09-1.185v-6.948a1.18 1.18 0 0 1 1.184-1.184h4.954c.644 0 1.184.516 1.184 1.09h0zm-8.632 4.083v2.96a1.17 1.17 0 0 1-.093.468c-.171.379-.538.716-.998.716h-5.141c-.558 0-1.091-.533-1.091-1.09v-3.148c0-.59.558-1.09 1.184-1.09h4.955a1.18 1.18 0 0 1 1.184 1.184h0zm8.632-10.72v3.148c0 .563-.538 1.09-1.184 1.09h-4.954a1.18 1.18 0 0 1-1.184-1.184v-2.96c0-.347.144-.623.306-.816.156-.186.505-.368.784-.368h5.141c.558 0 1.091.533 1.091 1.09h0z" fill="#f85550"/><path d="M121.051 509.023c0-.315.256-.655.686-.655.824 0 .824 1.309 0 1.309-.22 0-.356-.067-.477-.178-.093-.086-.209-.312-.209-.476zm-1.994.467v4.332c0 1.643 1.54 3.178 3.178 3.178h4.332c.487 0 .959-.185 1.298-.353.286-.142.771-.477.95-.702l.351-.459c.372-.572.548-1.21.548-1.976v-3.646c0-1.146-.412-1.955-.989-2.532s-1.38-.989-2.532-.989h-3.646c-1.127 0-1.657.296-2.418.885-.533.413-1.072 1.517-1.072 2.262h0zm7.977-7.821c0 1.072 1.063.479 2.653 1.056 2.202.798 3.757 2.747 3.956 5.111.042.505-.05 1.187.745 1.187.323 0 .623-.3.623-.623 0-1.183-.236-2.258-.685-3.147l-.301-.572c-1.106-2.034-3.676-3.635-6.025-3.635h-.343c-.322 0-.623.301-.623.623zm0 2.648c0 .391.21.659.537.71.41.065.465-.012 1.015.138.432.118.795.312 1.142.572.079.06.082.064.149.131.074.073.104.081.171.141s.062.082.126.154c.433.489.742 1.113.812 1.774.042.394-.051 1.086.754 1.086.342 0 .623-.308.623-.717 0-1.228-.473-2.234-1.223-3.077-.064-.072-.067-.101-.139-.173s-.088-.067-.156-.124c-.191-.161-.183-.188-.477-.396-.718-.509-1.687-.842-2.679-.842-.334 0-.655.286-.655.624v-.001zm79.24 4.706a7.23 7.23 0 0 1 .609-2.814c.388-.833.8-1.437 1.41-2.047l.43-.401c.857-.72 1.753-1.18 2.868-1.452.963-.235 2.124-.268 3.086-.027.924.231 1.644.511 2.413 1.044 2.809 1.946 3.827 5.663 2.291 8.733l-.324.606c-.054.088-.093.115-.12.214-.083-.023-.453-.375-.54-.457-.433-.413-1.268-.924-1.808-1.183-1.634-.785-3.524-.956-5.33-.521a7.85 7.85 0 0 0-2.121.871l-.312.186c-.262.164-.907.669-1.115.879-.087.088-.146.19-.274.225-.025-.094-.158-.277-.219-.38-.082-.139-.145-.281-.213-.418-.294-.588-.509-1.229-.622-1.904-.057-.339-.109-.782-.109-1.154h0zm-1.064-.332c0 1.138.054 2.01.475 3.081l.127.338c.208.508.55 1.094.86 1.534l.407.524c.682.782 1.424 1.417 2.352 1.901l.15.083c.91.455 2.165.848 3.241.848h.664c1.439 0 2.667-.505 3.734-1.085.207-.112.407-.249.587-.377.692-.489 1.194-1.009 1.724-1.666l.209-.291c1.275-1.729 1.742-4.298 1.205-6.433-.142-.565-.288-.942-.493-1.435-.393-.948-1.118-1.82-1.822-2.532-.101-.102-.166-.137-.266-.232-.427-.407-1.246-.883-1.775-1.15a7.9 7.9 0 0 0-3.136-.753c-.963 0-1.285.001-2.254.239a8.02 8.02 0 0 0-4.105 2.576l-.422.542-.38.584c-.618 1.019-1.082 2.533-1.082 3.704h0zm4.786-2.46c0 .597.044.98.299 1.496.141.287.398.679.624.905l.401.33c.167.122.285.185.482.283.83.415 1.922.419 2.748.011 1.041-.513 1.828-1.542 1.828-2.759 0-.832-.207-1.59-.74-2.185-.35-.391-.56-.576-1.066-.829-.83-.415-1.922-.419-2.748-.011-.287.141-.679.398-.905.624-.065.065-.092.12-.167.199s-.113.134-.177.222c-.319.442-.579 1.101-.579 1.714h0z" fill="#545454"/></g><g filter="url(#A)"><rect x="16.948" y="17" width="216" height="52" rx="10" fill="#fff"/></g><g stroke="#5a5c66" stroke-miterlimit="22.9256" class="B"><path d="M32.458 31h10.664a.51.51 0 0 1 .51.51v21.964l-1.219 3.725c-.068.138-.215.206-.42.221l-.18.095-3.869.017-4.04-.015c-.051-.027-.042-.048-.099-.053-.341-.029-.491-.133-.537-.274l-1.32-3.755v-4.184V31.51a.51.51 0 0 1 .51-.51h0z"/><path d="M32.763 31l2.076 1.048 5.977.005L42.891 31l-1.75 1.325s-.272.261-.644.236h-5.187s-.432.079-.823-.293L32.763 31z" stroke-linejoin="round"/><path d="M34.079 33.078l7.604.002 1.763-1.963m-9.833 2.314c0-.065-1.665-1.75-1.665-1.75"/><path d="M34.106 33.104l-1.98-1.98m10.003 2.307c0-.065 1.503-1.75 1.503-1.75"/><path d="M33.61 53.474V33.513s-.081-.435.511-.435m8.004 20.396V33.513s.082-.435-.511-.435"/><path d="M31.948 49.31l1.662 4.08s.011.19.614.242 7.357 0 7.357 0 .481.005.592-.293l1.432-4.048v.152l-1.391 3.938s-.041.327-.467.352-7.363.026-7.363.026-.776.076-.852-.378l-1.585-4.031m1.891 8.121l1.573-2.466c.046-.086.134-.177.208-.236.202-.16.45-.228.707-.232h2.986c.109-.008.247.011.351.037a1.18 1.18 0 0 1 .648.411l.004.005 1.594 2.475m-2.425.545h-.025m-3.218-.003h-.037"/><path d="M33.945 57.517l1.566-2.455s.206-.402.815-.41h2.991s.543-.046.905.405l1.583 2.458m-2.235.379h-.005m-3.439-.003h-.014m-2.502-4.417l-.356 3.677m.885-3.389l-.28 3.722m8.266-4.057l.332 3.639m-.767-3.332l.291 3.693m-7.902-24.349l.055 20.68m7.571-20.656l-.015 20.632"/><path d="M36.343 57.523h-.303v.208a.71.71 0 0 0 .281.368c.071.444.37.758 1.52.778 1.135.02 1.441-.31 1.517-.756.221-.156.303-.365.33-.598h-.348-2.997z"/><path d="M37.141 57.529v.799"/><use href="#E"/><use href="#E" x="0.209"/><use href="#E" x="0.418"/><use href="#E" x="0.628"/><use href="#E" x="0.837"/><use href="#E" x="1.046"/><use href="#E" x="1.255"/><path d="M39.706 57.524c-.07.479-.41.844-1.865.824s-1.793-.355-1.864-.823"/></g><path d="M156.681 44h-.88a1.85 1.85 0 0 0-.274-.668 1.82 1.82 0 0 0-.469-.483 1.98 1.98 0 0 0-.607-.298 2.42 2.42 0 0 0-.696-.099 2.22 2.22 0 0 0-1.197.334c-.355.223-.638.55-.848.984s-.313.965-.313 1.594.104 1.161.313 1.595.493.761.848.984a2.22 2.22 0 0 0 1.197.334 2.42 2.42 0 0 0 .696-.099c.223-.066.425-.164.607-.295a1.87 1.87 0 0 0 .469-.486c.13-.194.221-.417.274-.668h.88a2.93 2.93 0 0 1-.362.998 2.73 2.73 0 0 1-.653.749c-.261.204-.553.359-.878.465s-.666.16-1.033.16c-.62 0-1.172-.152-1.655-.455s-.863-.734-1.14-1.293-.415-1.222-.415-1.989.138-1.43.415-1.989.657-.99 1.14-1.293 1.035-.455 1.655-.455c.367 0 .711.053 1.033.16s.617.263.878.469a2.68 2.68 0 0 1 .653.746c.175.291.296.624.362.998zm3.526 5.114c-.493 0-.925-.117-1.297-.352s-.658-.562-.866-.984-.309-.914-.309-1.477.103-1.064.309-1.488.497-.753.866-.987a2.38 2.38 0 0 1 1.297-.352c.492 0 .923.117 1.292.352a2.35 2.35 0 0 1 .867.987c.208.424.312.92.312 1.488s-.104 1.056-.312 1.477-.495.749-.867.984-.8.352-1.292.352zm0-.753c.374 0 .681-.096.923-.288a1.7 1.7 0 0 0 .536-.756c.116-.312.174-.651.174-1.016s-.058-.704-.174-1.019a1.72 1.72 0 0 0-.536-.763c-.242-.194-.549-.291-.923-.291s-.682.097-.924.291a1.72 1.72 0 0 0-.536.763c-.116.315-.174.655-.174 1.019s.058.703.174 1.016a1.7 1.7 0 0 0 .536.756c.242.192.55.288.924.288zm4.589-2.642V49h-.839v-5.455h.81v.852h.071c.128-.277.322-.499.583-.668s.596-.256 1.008-.256c.369 0 .693.076.97.227a1.53 1.53 0 0 1 .646.682c.154.303.231.687.231 1.151V49h-.838v-3.409c0-.428-.112-.762-.334-1.001s-.528-.362-.916-.362c-.268 0-.507.058-.718.174a1.24 1.24 0 0 0-.493.508c-.121.222-.181.492-.181.81zm5.849 0V49h-.838v-5.455h.81v.852h.071a1.56 1.56 0 0 1 .582-.668c.261-.17.597-.256 1.009-.256.369 0 .692.076.969.227s.493.376.646.682.231.687.231 1.151V49h-.838v-3.409c0-.428-.111-.762-.334-1.001s-.528-.362-.916-.362c-.267 0-.506.058-.717.174a1.25 1.25 0 0 0-.494.508c-.12.222-.181.492-.181.81zm7.299 3.395c-.526 0-.979-.116-1.36-.348s-.672-.561-.878-.98-.305-.911-.305-1.47.102-1.051.305-1.477a2.41 2.41 0 0 1 .86-1.001c.369-.241.8-.362 1.292-.362a2.59 2.59 0 0 1 .842.142c.277.095.529.249.756.462s.409.49.544.838.202.776.202 1.285v.355h-4.204v-.724h3.352a1.79 1.79 0 0 0-.185-.824 1.39 1.39 0 0 0-.518-.572c-.223-.14-.486-.209-.789-.209-.333 0-.622.083-.866.249a1.64 1.64 0 0 0-.558.639 1.88 1.88 0 0 0-.195.845v.483c0 .412.071.761.213 1.048s.345.501.6.65a1.76 1.76 0 0 0 .892.22 1.81 1.81 0 0 0 .596-.092c.18-.064.335-.159.465-.284a1.28 1.28 0 0 0 .302-.476l.81.227c-.085.275-.229.516-.43.724s-.45.367-.746.483a2.76 2.76 0 0 1-.997.17zm5.749 0c-.511 0-.952-.121-1.321-.362s-.654-.574-.852-.998-.299-.908-.299-1.453c0-.554.102-1.043.306-1.467s.492-.759.859-.998.8-.362 1.293-.362a2.45 2.45 0 0 1 1.037.213c.307.142.56.341.756.597s.318.554.366.895H185a1.3 1.3 0 0 0-.426-.66c-.218-.194-.512-.291-.881-.291a1.47 1.47 0 0 0-.859.256c-.244.168-.435.406-.572.714s-.203.664-.203 1.076c0 .421.067.788.199 1.101s.325.555.568.728.535.259.867.259c.218 0 .415-.038.593-.114a1.22 1.22 0 0 0 .451-.327c.123-.142.211-.312.263-.511h.838a1.95 1.95 0 0 1-.352.87c-.184.256-.429.459-.735.611s-.656.224-1.058.224zm5.742-5.568v.71h-2.827v-.71h2.827zm-2.003-1.307h.838v5.199c0 .237.035.414.103.533s.161.194.27.234.229.057.352.057a1.49 1.49 0 0 0 .227-.014l.142-.028.171.753c-.057.021-.137.043-.238.064s-.231.035-.387.035c-.237 0-.469-.051-.696-.153a1.39 1.39 0 0 1-.562-.465c-.146-.208-.22-.471-.22-.788v-5.426zm5.492 6.875c-.525 0-.979-.116-1.36-.348s-.671-.561-.877-.98-.306-.911-.306-1.47.102-1.051.306-1.477.492-.762.859-1.001a2.31 2.31 0 0 1 1.293-.362c.284 0 .564.047.841.142s.53.249.757.462.408.49.543.838.203.776.203 1.285v.355h-4.205v-.724h3.352a1.79 1.79 0 0 0-.184-.824c-.121-.241-.294-.432-.519-.572s-.485-.209-.788-.209c-.334 0-.623.083-.867.249s-.427.376-.557.639a1.88 1.88 0 0 0-.195.845v.483c0 .412.071.761.213 1.048a1.53 1.53 0 0 0 .6.65c.255.147.553.22.891.22a1.82 1.82 0 0 0 .597-.092c.18-.064.335-.159.465-.284s.231-.287.302-.476l.809.227c-.085.275-.228.516-.429.724a2.1 2.1 0 0 1-.746.483c-.296.114-.629.17-.998.17zm5.593 0c-.454 0-.856-.115-1.204-.344a2.32 2.32 0 0 1-.816-.98c-.197-.424-.295-.924-.295-1.502s.098-1.07.295-1.491.469-.747.82-.977.755-.344 1.214-.344c.355 0 .636.059.842.178s.367.249.476.398l.259.362h.071v-2.685h.838V49h-.81v-.838h-.099a5.42 5.42 0 0 1-.263.377c-.113.149-.276.283-.486.401s-.491.174-.842.174zm.114-.753c.336 0 .62-.088.852-.263s.408-.423.529-.735.181-.678.181-1.09-.059-.764-.177-1.069-.294-.547-.526-.717-.518-.259-.859-.259c-.355 0-.651.091-.888.273s-.411.425-.529.735-.174.653-.174 1.037.059.741.177 1.058.299.566.533.753.53.277.881.277z" class="C"/><path d="M57.747 40.727h1.332l2.315 5.653h.085l2.315-5.653h1.332V48h-1.044v-5.263h-.067l-2.145 5.252h-.867l-2.145-5.256h-.068V48h-1.044v-7.273zm9.738 0l1.74 2.844h.057l1.74-2.844h1.271l-2.266 3.636L72.308 48h-1.278l-1.747-2.805h-.057L67.478 48H66.2l2.319-3.636-2.305-3.636h1.271zm5.645 5.852v-.888l3.143-4.965h.7v1.307h-.444l-2.248 3.558v.057h4.307v.93H73.13zM76.578 48v-1.69l.007-.405v-5.178h1.041V48h-1.048zm5.779.099c-.488 0-.923-.084-1.307-.252s-.683-.401-.906-.7-.339-.649-.355-1.044h1.115a.96.96 0 0 0 .217.561c.133.156.305.277.518.362s.45.128.71.128a1.83 1.83 0 0 0 .76-.149c.222-.099.397-.238.522-.415a1.06 1.06 0 0 0 .188-.621c0-.244-.063-.458-.188-.643s-.304-.334-.543-.44-.523-.16-.859-.16h-.614v-.895h.614c.27 0 .507-.049.71-.146s.367-.232.483-.405.174-.38.174-.614c0-.225-.051-.42-.153-.586s-.242-.3-.426-.394-.398-.142-.646-.142a1.68 1.68 0 0 0-.664.131c-.204.085-.369.208-.497.369a.95.95 0 0 0-.206.572h-1.062c.012-.393.128-.739.348-1.037a2.25 2.25 0 0 1 .881-.7c.365-.168.769-.252 1.215-.252.466 0 .869.091 1.207.273a1.99 1.99 0 0 1 .788.721 1.81 1.81 0 0 1 .277.987 1.58 1.58 0 0 1-.341 1.037c-.227.284-.53.475-.909.572v.057c.483.073.857.265 1.122.575s.4.695.398 1.154c.002.4-.109.759-.334 1.076s-.527.567-.913.749-.827.27-1.325.27zm3.761-1.52v-.888l3.143-4.965h.7v1.307h-.444l-2.248 3.558v.057h4.308v.93h-5.458zM89.566 48v-1.69l.007-.405v-5.178h1.04V48h-1.048zm5.779.099c-.488 0-.923-.084-1.307-.252s-.683-.401-.906-.7-.338-.649-.355-1.044h1.115a.96.96 0 0 0 .217.561c.133.156.305.277.519.362s.45.128.71.128a1.83 1.83 0 0 0 .76-.149 1.24 1.24 0 0 0 .522-.415 1.06 1.06 0 0 0 .188-.621c0-.244-.063-.458-.188-.643s-.304-.334-.543-.44-.523-.16-.859-.16h-.614v-.895h.614c.27 0 .507-.049.71-.146s.367-.232.483-.405.174-.38.174-.614c0-.225-.051-.42-.153-.586s-.241-.3-.426-.394-.398-.142-.646-.142a1.68 1.68 0 0 0-.664.131c-.204.085-.369.208-.497.369a.95.95 0 0 0-.206.572h-1.062c.012-.393.128-.739.348-1.037a2.25 2.25 0 0 1 .881-.7c.365-.168.769-.252 1.215-.252.466 0 .869.091 1.207.273a1.99 1.99 0 0 1 .788.721 1.81 1.81 0 0 1 .277.987 1.58 1.58 0 0 1-.341 1.037c-.227.284-.53.475-.909.572v.057c.483.073.857.265 1.122.575s.4.695.398 1.154c.002.4-.109.759-.334 1.076s-.527.567-.913.749-.827.27-1.325.27z" fill="#f85550"/><circle cx="214.448" cy="45.5" r="1.5" fill="#72cf70"/><path d="M216.948 45.5a2.5 2.5 0 1 1-5 0 2.5 2.5 0 1 1 5 0z" fill="#53ee50" fill-opacity=".35"/><g class="C"><path d="M29.364 94.514a2.57 2.57 0 0 0-.309-.643 1.98 1.98 0 0 0-.451-.49 1.89 1.89 0 0 0-.589-.309 2.35 2.35 0 0 0-.725-.106 2.15 2.15 0 0 0-1.175.334c-.352.223-.633.55-.842.984s-.312.965-.312 1.595.105 1.161.316 1.594.496.761.856.984a2.26 2.26 0 0 0 1.214.334c.417 0 .784-.089 1.101-.266a1.89 1.89 0 0 0 .746-.76c.18-.329.27-.716.27-1.161l.27.057h-2.187v-.781h2.77v.781c0 .599-.128 1.12-.383 1.563a2.65 2.65 0 0 1-1.051 1.03c-.445.242-.956.362-1.534.362-.644 0-1.21-.151-1.697-.454s-.864-.734-1.136-1.293-.405-1.221-.405-1.989c0-.575.077-1.093.231-1.552A3.44 3.44 0 0 1 25 93.147a2.89 2.89 0 0 1 1.009-.746c.388-.173.816-.259 1.282-.259.384 0 .741.058 1.073.174a2.88 2.88 0 0 1 .891.487 2.77 2.77 0 0 1 .657.749c.175.289.296.61.362.962h-.909zm4.633 5.114c-.526 0-.979-.116-1.36-.348s-.671-.561-.877-.98-.305-.912-.305-1.47.102-1.051.305-1.477a2.4 2.4 0 0 1 .859-1.001c.367-.239.8-.362 1.293-.362a2.59 2.59 0 0 1 .842.142c.277.095.529.249.756.462a2.23 2.23 0 0 1 .543.838c.135.348.202.776.202 1.285v.355H32.05v-.724h3.352a1.79 1.79 0 0 0-.185-.824 1.39 1.39 0 0 0-.518-.572 1.45 1.45 0 0 0-.788-.21c-.334 0-.623.083-.867.249a1.63 1.63 0 0 0-.557.639 1.88 1.88 0 0 0-.195.845v.483c0 .412.071.761.213 1.047a1.51 1.51 0 0 0 .6.65c.256.149.553.22.891.22.22 0 .419-.031.597-.092s.335-.159.465-.284a1.29 1.29 0 0 0 .302-.476l.81.227a1.78 1.78 0 0 1-.43.724c-.202.208-.45.367-.746.483s-.628.17-.998.17zm4.371-3.395v3.281h-.838v-5.455h.81v.852h.071c.128-.277.322-.499.582-.668s.597-.256 1.008-.256c.369 0 .693.076.97.227a1.53 1.53 0 0 1 .646.682c.154.303.231.686.231 1.151v3.466h-.838v-3.409c0-.428-.111-.762-.334-1.001s-.528-.362-.916-.362a1.46 1.46 0 0 0-.717.174c-.208.116-.373.285-.494.508s-.181.492-.181.81zm7.298 3.395c-.526 0-.979-.116-1.36-.348s-.671-.561-.877-.98-.305-.912-.305-1.47.102-1.051.305-1.477a2.41 2.41 0 0 1 .859-1.001c.369-.242.8-.362 1.293-.362a2.59 2.59 0 0 1 .842.142c.277.095.529.249.756.462a2.23 2.23 0 0 1 .543.838c.135.348.202.776.202 1.285v.355h-4.205v-.724h3.352a1.79 1.79 0 0 0-.185-.824 1.39 1.39 0 0 0-.518-.572 1.45 1.45 0 0 0-.788-.21c-.334 0-.623.083-.866.249s-.427.376-.558.639a1.88 1.88 0 0 0-.195.845v.483c0 .412.071.761.213 1.047a1.51 1.51 0 0 0 .6.65c.256.149.553.22.891.22a1.81 1.81 0 0 0 .597-.092 1.28 1.28 0 0 0 .465-.284 1.29 1.29 0 0 0 .302-.476l.81.227a1.79 1.79 0 0 1-.43.724c-.201.208-.45.367-.746.483s-.629.17-.998.17zm3.533-.114v-5.455h.81v.824h.057a1.31 1.31 0 0 1 .54-.657 1.59 1.59 0 0 1 .881-.252l.231.004.209.011v.852c-.028-.007-.093-.018-.195-.032a1.92 1.92 0 0 0-.316-.025c-.265 0-.502.056-.71.167a1.26 1.26 0 0 0-.49.454 1.23 1.23 0 0 0-.178.657v3.452H49.2zm5.326.128a2.22 2.22 0 0 1-.941-.195c-.282-.13-.505-.323-.671-.572s-.248-.554-.248-.909c0-.312.062-.566.185-.76a1.33 1.33 0 0 1 .494-.462c.206-.112.433-.194.682-.249l.756-.135.806-.096c.208-.024.36-.063.455-.117s.146-.149.146-.284v-.028c0-.35-.096-.623-.288-.817s-.477-.291-.863-.291c-.4 0-.714.088-.941.263s-.387.362-.479.561l-.796-.284c.142-.331.331-.589.568-.774a2.13 2.13 0 0 1 .781-.391 3.23 3.23 0 0 1 .838-.114 3.3 3.3 0 0 1 .604.064 2 2 0 0 1 .664.252c.213.128.394.321.536.579s.213.604.213 1.037v3.594h-.838v-.739h-.043c-.057.118-.151.245-.284.38a1.64 1.64 0 0 1-.529.344c-.22.095-.489.142-.806.142zm.128-.753c.331 0 .611-.065.838-.195a1.33 1.33 0 0 0 .518-.504 1.29 1.29 0 0 0 .178-.65v-.767c-.035.043-.114.082-.234.117a3.6 3.6 0 0 1-.412.089l-.451.064-.352.043c-.218.028-.421.075-.611.139s-.339.155-.455.28-.17.291-.17.504a.75.75 0 0 0 .323.66c.218.147.494.22.827.22zm4.74-6.648v7.273h-.838v-7.273h.838zM30.245 290.514h-.881a1.83 1.83 0 0 0-.273-.668c-.128-.192-.284-.353-.469-.483a2.08 2.08 0 0 0-.607-.298c-.222-.066-.455-.1-.696-.1-.44 0-.839.112-1.197.334s-.638.551-.849.984-.312.965-.312 1.594.104 1.162.313 1.595.494.761.849.983.756.334 1.197.334c.241 0 .474-.033.696-.099s.425-.165.607-.295a1.89 1.89 0 0 0 .469-.486c.13-.195.221-.417.273-.668h.881c-.066.372-.187.704-.362.998a2.71 2.71 0 0 1-.654.749 2.84 2.84 0 0 1-.877.465c-.322.107-.666.16-1.033.16-.62 0-1.172-.151-1.655-.454s-.863-.734-1.14-1.293-.416-1.222-.416-1.989.139-1.43.416-1.988.657-.99 1.14-1.293 1.035-.454 1.655-.454c.367 0 .711.053 1.033.159a2.83 2.83 0 0 1 .877.469 2.68 2.68 0 0 1 .654.746 2.9 2.9 0 0 1 .362.998zm3.525 5.113c-.492 0-.925-.117-1.296-.351s-.658-.563-.867-.984-.309-.914-.309-1.477.103-1.064.309-1.488a2.38 2.38 0 0 1 .867-.987c.372-.235.804-.352 1.296-.352s.923.117 1.293.352.66.563.867.987.313.92.313 1.488-.104 1.056-.312 1.477-.495.749-.867.984-.8.351-1.293.351zm0-.753c.374 0 .682-.095.923-.287a1.7 1.7 0 0 0 .536-.757c.116-.313.174-.651.174-1.015a2.92 2.92 0 0 0-.174-1.019 1.72 1.72 0 0 0-.536-.764c-.241-.194-.549-.291-.923-.291s-.682.097-.923.291a1.72 1.72 0 0 0-.536.764 2.92 2.92 0 0 0-.174 1.019c0 .364.058.703.174 1.015s.295.565.536.757.549.287.923.287zm4.589-2.642v3.282h-.838v-5.455h.81v.852h.071a1.56 1.56 0 0 1 .582-.667c.26-.168.597-.256 1.008-.256.369 0 .693.076.97.227s.492.377.646.682.231.687.231 1.151v3.466h-.838v-3.409c0-.429-.111-.763-.334-1.002s-.528-.362-.916-.362c-.268 0-.507.058-.717.174s-.373.285-.494.508-.181.492-.181.809zm7.441-2.173v.71h-2.94v-.71h2.94zm-2.06 5.455v-6.208c0-.312.073-.573.22-.781s.337-.365.572-.469a1.81 1.81 0 0 1 .742-.156c.206 0 .374.017.504.05s.227.064.291.092l-.242.725-.178-.054a1.09 1.09 0 0 0-.291-.032c-.277 0-.477.07-.6.21s-.181.344-.181.614v6.009h-.838zm3.234 0v-5.455h.838v5.455h-.838zm.426-6.364a.6.6 0 0 1-.423-.167c-.119-.111-.174-.245-.174-.401s.058-.29.174-.401.259-.167.423-.167a.58.58 0 0 1 .419.167.53.53 0 0 1 .178.401.53.53 0 0 1-.178.401c-.116.111-.256.167-.419.167zm4.149 8.523c-.405 0-.753-.052-1.044-.156a2.22 2.22 0 0 1-.728-.405 2.23 2.23 0 0 1-.458-.533l.668-.469c.076.1.172.213.288.341a1.5 1.5 0 0 0 .476.338c.201.095.47.145.799.145.44 0 .804-.106 1.09-.319s.43-.547.43-1.002v-1.108h-.071c-.062.1-.149.223-.263.369s-.272.274-.483.388-.49.166-.845.166c-.44 0-.836-.104-1.186-.312a2.17 2.17 0 0 1-.827-.909c-.203-.398-.302-.881-.302-1.449 0-.559.098-1.045.295-1.46s.47-.738.82-.965.755-.345 1.215-.345c.355 0 .637.059.845.178a1.48 1.48 0 0 1 .483.397l.263.363h.085v-.867h.81v5.611c0 .469-.107.85-.32 1.143a1.85 1.85 0 0 1-.852.65 3.28 3.28 0 0 1-1.186.21zm-.028-2.997c.336 0 .62-.077.852-.231s.408-.375.529-.664.181-.635.181-1.037c0-.393-.059-.74-.178-1.041a1.56 1.56 0 0 0-.526-.706c-.232-.171-.519-.256-.859-.256-.355 0-.651.09-.888.27a1.62 1.62 0 0 0-.529.724 2.8 2.8 0 0 0-.174 1.009 2.65 2.65 0 0 0 .178 1.005 1.54 1.54 0 0 0 .533.682c.237.163.53.245.881.245zm7.358-1.392v-3.225h.838v5.455h-.838v-.924h-.057a1.79 1.79 0 0 1-.597.707c-.27.192-.611.288-1.023.288-.341 0-.644-.075-.909-.224a1.57 1.57 0 0 1-.625-.682c-.152-.305-.227-.69-.227-1.154v-3.466h.838v3.409c0 .398.111.715.334.952s.511.355.859.355a1.42 1.42 0 0 0 .636-.16c.218-.106.4-.27.547-.49s.224-.501.224-.841zm2.373 2.23v-5.455h.81v.824h.057a1.31 1.31 0 0 1 .54-.657 1.59 1.59 0 0 1 .881-.252l.231.003.21.011v.852a3.03 3.03 0 0 0-.195-.032 1.99 1.99 0 0 0-.316-.024c-.265 0-.502.055-.71.166a1.26 1.26 0 0 0-.49.455 1.23 1.23 0 0 0-.178.657v3.452h-.838zm5.842.113c-.526 0-.979-.116-1.36-.348s-.671-.561-.877-.98-.305-.911-.305-1.47.102-1.051.305-1.477.492-.763.859-1.002.8-.362 1.293-.362a2.58 2.58 0 0 1 .842.142 2.09 2.09 0 0 1 .756.462c.227.21.408.49.543.838s.203.776.203 1.285v.355h-4.205v-.724H68.5a1.79 1.79 0 0 0-.185-.824c-.121-.241-.293-.432-.518-.572s-.485-.209-.788-.209c-.334 0-.623.083-.867.249a1.63 1.63 0 0 0-.558.639 1.88 1.88 0 0 0-.195.845v.483c0 .412.071.761.213 1.047a1.53 1.53 0 0 0 .6.65c.256.147.553.22.891.22.22 0 .419-.03.597-.092a1.27 1.27 0 0 0 .465-.284 1.29 1.29 0 0 0 .302-.476l.81.227a1.79 1.79 0 0 1-.43.725c-.201.206-.45.367-.746.483a2.78 2.78 0 0 1-.998.17zm-36.935 83.614v7.273h-.852l-3.963-5.711h-.071v5.711h-.881v-7.273h.852l3.977 5.724h.071v-5.724h.866zm3.936 7.386c-.526 0-.979-.116-1.36-.348s-.671-.561-.877-.98-.305-.911-.305-1.47.102-1.051.305-1.477.492-.763.859-1.002.8-.362 1.293-.362a2.58 2.58 0 0 1 .842.142 2.09 2.09 0 0 1 .756.462c.227.21.408.49.543.838s.202.776.202 1.285v.355h-4.204v-.724h3.352a1.79 1.79 0 0 0-.185-.824 1.4 1.4 0 0 0-.519-.572c-.225-.14-.485-.209-.788-.209-.334 0-.623.083-.866.249a1.63 1.63 0 0 0-.558.639 1.88 1.88 0 0 0-.195.845v.483c0 .412.071.761.213 1.047a1.53 1.53 0 0 0 .6.65c.256.147.553.22.891.22.22 0 .419-.03.597-.092a1.27 1.27 0 0 0 .465-.284 1.29 1.29 0 0 0 .302-.476l.81.227c-.085.275-.229.517-.43.725s-.45.367-.746.483a2.78 2.78 0 0 1-.998.17zm5.906-5.568v.71h-2.827v-.71h2.827zm-2.003-1.307h.838v5.199c0 .237.034.414.103.533a.51.51 0 0 0 .27.234 1.08 1.08 0 0 0 .352.057 1.55 1.55 0 0 0 .227-.014l.142-.029.171.753a1.58 1.58 0 0 1-.238.064 1.73 1.73 0 0 1-.387.036 1.68 1.68 0 0 1-.696-.153 1.37 1.37 0 0 1-.561-.465c-.149-.208-.22-.471-.22-.789v-5.426zm4.499 6.762l-1.662-5.455h.881l1.179 4.176h.057l1.165-4.176h.895l1.151 4.162h.057l1.179-4.162h.881l-1.662 5.455h-.824l-1.193-4.191h-.085l-1.193 4.191h-.824zm8.92.113c-.492 0-.924-.117-1.296-.351s-.658-.563-.866-.984-.309-.914-.309-1.477.103-1.064.309-1.488a2.38 2.38 0 0 1 .866-.987c.372-.235.804-.352 1.296-.352s.923.117 1.293.352.66.563.866.987.313.92.313 1.488-.104 1.056-.312 1.477a2.38 2.38 0 0 1-.866.984c-.371.235-.8.351-1.293.351zm0-.753c.374 0 .682-.095.923-.287a1.7 1.7 0 0 0 .536-.757c.116-.313.174-.651.174-1.015a2.92 2.92 0 0 0-.174-1.019 1.72 1.72 0 0 0-.536-.764c-.241-.194-.549-.291-.923-.291s-.682.097-.923.291a1.72 1.72 0 0 0-.536.764 2.92 2.92 0 0 0-.174 1.019c0 .364.058.703.174 1.015s.295.565.536.757.549.287.923.287zm3.751.64v-5.455h.81v.824h.057a1.31 1.31 0 0 1 .54-.657 1.59 1.59 0 0 1 .881-.252l.231.003.209.011v.852a3.03 3.03 0 0 0-.195-.032 1.99 1.99 0 0 0-.316-.024c-.265 0-.502.055-.71.166a1.26 1.26 0 0 0-.49.455 1.23 1.23 0 0 0-.178.657v3.452h-.838zm4.502-1.989l-.014-1.037h.17l2.386-2.429h1.037l-2.543 2.571h-.071l-.966.895zm-.781 1.989v-7.273h.838v7.273h-.838zm3.466 0l-2.131-2.699.597-.583 2.599 3.282h-1.065z"/><path d="M24.691 225.514h-.923l2.671-7.273h.909l2.67 7.273h-.923l-2.173-6.122h-.057l-2.173 6.122zm.341-2.841h3.722v.781h-3.722v-.781zm8.065 2.954a2.14 2.14 0 0 1-1.204-.344c-.348-.232-.62-.559-.817-.98s-.295-.925-.295-1.502.098-1.07.295-1.492.47-.747.82-.976.755-.345 1.214-.345c.355 0 .636.059.842.178s.367.248.476.397l.259.363h.071v-2.685h.838v7.273h-.81v-.838h-.099a5.35 5.35 0 0 1-.263.376c-.114.149-.276.283-.486.401s-.491.174-.842.174zm.114-.753c.336 0 .62-.087.852-.262s.408-.423.529-.735.181-.679.181-1.091a2.91 2.91 0 0 0-.178-1.068 1.58 1.58 0 0 0-.526-.718c-.232-.171-.518-.259-.859-.259-.355 0-.651.091-.888.273s-.411.425-.529.735a2.89 2.89 0 0 0-.174 1.037 3.01 3.01 0 0 0 .178 1.059c.121.315.298.565.533.752s.53.277.881.277zm8.498-4.815l-2.017 5.455h-.852l-2.017-5.455h.909l1.506 4.347h.057l1.506-4.347h.909zm2.545 5.583a2.22 2.22 0 0 1-.941-.196c-.282-.132-.505-.323-.671-.572s-.249-.554-.249-.909c0-.312.062-.565.185-.76a1.31 1.31 0 0 1 .494-.461 2.62 2.62 0 0 1 .682-.249l.756-.135.806-.096c.208-.023.36-.062.455-.117s.146-.149.146-.284v-.028c0-.351-.096-.623-.288-.817s-.477-.291-.863-.291c-.4 0-.714.087-.941.263s-.387.362-.479.561l-.795-.284a1.91 1.91 0 0 1 .568-.775 2.12 2.12 0 0 1 .781-.39c.282-.073.563-.114.838-.114a3.3 3.3 0 0 1 .604.064 2 2 0 0 1 .664.252c.213.128.394.321.536.579s.213.604.213 1.037v3.594h-.838v-.739h-.043a1.5 1.5 0 0 1-.284.38c-.132.135-.309.25-.529.344a2.05 2.05 0 0 1-.806.143zm.128-.753c.331 0 .611-.065.838-.196s.403-.298.519-.504.178-.422.178-.65v-.767c-.036.043-.114.082-.234.117a3.73 3.73 0 0 1-.412.089l-.451.064-.352.043c-.218.028-.421.074-.611.138s-.339.155-.455.281-.17.291-.17.504c0 .291.108.511.323.661s.494.22.827.22zm4.74-2.657v3.282h-.838v-5.455h.81v.852h.071a1.56 1.56 0 0 1 .582-.667c.26-.168.597-.256 1.009-.256.369 0 .692.076.969.227s.492.377.646.682.231.687.231 1.151v3.466h-.838v-3.409c0-.429-.111-.763-.334-1.002s-.528-.362-.916-.362a1.46 1.46 0 0 0-.717.174c-.21.116-.373.285-.494.508s-.181.492-.181.809zm7.227 3.395c-.511 0-.952-.12-1.321-.362s-.653-.574-.852-.998-.298-.908-.298-1.452c0-.554.102-1.043.305-1.467s.492-.759.859-.998.8-.362 1.293-.362a2.45 2.45 0 0 1 1.037.213c.308.142.56.341.756.597s.318.554.366.895h-.838a1.3 1.3 0 0 0-.426-.661c-.218-.194-.511-.291-.881-.291-.327 0-.613.085-.859.256s-.434.406-.572.713-.202.664-.202 1.076c0 .422.066.789.199 1.101s.324.555.568.728.535.259.867.259a1.49 1.49 0 0 0 .593-.113c.178-.076.328-.185.451-.327a1.25 1.25 0 0 0 .263-.511h.838a1.94 1.94 0 0 1-.352.87 1.98 1.98 0 0 1-.735.611 2.37 2.37 0 0 1-1.058.223zm5.657 0c-.526 0-.979-.116-1.36-.348s-.671-.561-.877-.98-.305-.911-.305-1.47.102-1.051.305-1.477.492-.763.859-1.002.8-.362 1.293-.362a2.58 2.58 0 0 1 .842.142 2.09 2.09 0 0 1 .756.462c.227.21.408.49.543.838s.202.776.202 1.285v.355h-4.205v-.724h3.352a1.79 1.79 0 0 0-.185-.824c-.121-.241-.294-.432-.518-.572s-.485-.209-.788-.209c-.334 0-.623.083-.866.249a1.63 1.63 0 0 0-.558.639 1.88 1.88 0 0 0-.195.845v.483c0 .412.071.761.213 1.047a1.53 1.53 0 0 0 .6.65c.256.147.553.22.891.22.22 0 .419-.03.597-.092a1.27 1.27 0 0 0 .465-.284 1.29 1.29 0 0 0 .302-.476l.81.227a1.79 1.79 0 0 1-.43.725c-.201.206-.45.367-.746.483a2.78 2.78 0 0 1-.998.17zm5.593 0a2.14 2.14 0 0 1-1.204-.344c-.348-.232-.62-.559-.817-.98s-.295-.925-.295-1.502.098-1.07.295-1.492.47-.747.82-.976.755-.345 1.214-.345c.355 0 .636.059.842.178s.367.248.476.397l.259.363h.071v-2.685h.838v7.273h-.81v-.838h-.099a5.36 5.36 0 0 1-.263.376c-.114.149-.276.283-.486.401s-.491.174-.842.174zm.114-.753c.336 0 .62-.087.852-.262a1.65 1.65 0 0 0 .529-.735c.121-.315.181-.679.181-1.091s-.059-.763-.177-1.068a1.56 1.56 0 0 0-.526-.718c-.232-.173-.519-.259-.859-.259-.355 0-.651.091-.888.273s-.411.425-.529.735a2.89 2.89 0 0 0-.174 1.037 3.01 3.01 0 0 0 .178 1.059c.121.315.298.565.533.752s.53.277.881.277zm116.679-100.633h1.052l2.471 6.037H188l2.472-6.037h1.051v7.273h-.824v-5.526h-.071l-2.273 5.526h-.795l-2.273-5.526h-.071v5.526h-.824v-7.273zm9.195 7.273h-.923l2.67-7.273h.909l2.671 7.273h-.923l-2.174-6.122h-.057l-2.173 6.122zm.341-2.841h3.722v.781h-3.722v-.781zm6.545-4.432l1.875 3.026h.057l1.875-3.026h1.037l-2.287 3.636 2.287 3.637h-1.037l-1.875-2.969h-.057l-1.875 2.969h-1.037l2.344-3.637-2.344-3.636h1.037zm5.691 5.781v-.724l3.196-5.057h.526v1.122h-.355l-2.415 3.821v.057h4.304v.781h-5.256zm3.424 1.492v-1.712-.337-5.224h.838v7.273h-.838zm5.62.099c-.468 0-.886-.08-1.253-.241s-.655-.385-.87-.672a1.8 1.8 0 0 1-.348-1.005h.895a1.06 1.06 0 0 0 .241.608 1.39 1.39 0 0 0 .558.39c.229.093.484.139.763.139.313 0 .59-.055.831-.163a1.36 1.36 0 0 0 .568-.455c.138-.194.206-.419.206-.675a1.26 1.26 0 0 0-.199-.706 1.31 1.31 0 0 0-.582-.483c-.256-.116-.568-.174-.938-.174h-.582v-.782h.582c.289 0 .543-.052.76-.156a1.24 1.24 0 0 0 .515-.44 1.18 1.18 0 0 0 .189-.668c0-.246-.055-.46-.164-.643s-.263-.324-.461-.426-.429-.152-.697-.152c-.25 0-.487.046-.71.138s-.4.221-.54.394-.215.377-.227.618h-.852a1.73 1.73 0 0 1 .344-1.001c.216-.289.498-.514.846-.675a2.73 2.73 0 0 1 1.154-.241c.449 0 .835.091 1.157.273s.57.418.743.714.259.615.259.959c0 .409-.108.758-.323 1.047s-.503.489-.87.6v.057c.459.076.818.271 1.076.586s.387.7.387 1.161c0 .396-.108.751-.323 1.066a2.19 2.19 0 0 1-.874.738c-.369.18-.79.27-1.261.27zm3.74-1.591v-.724l3.196-5.057h.525v1.122h-.355l-2.415 3.821v.057h4.304v.781h-5.255zm3.423 1.492v-1.712-.337-5.224h.838v7.273h-.838zm5.62.099c-.468 0-.886-.08-1.253-.241s-.655-.385-.87-.672a1.8 1.8 0 0 1-.348-1.005h.895a1.06 1.06 0 0 0 .241.608 1.39 1.39 0 0 0 .558.39c.229.093.484.139.763.139.313 0 .59-.055.831-.163a1.36 1.36 0 0 0 .568-.455c.138-.194.206-.419.206-.675 0-.267-.066-.503-.198-.706s-.327-.367-.583-.483-.568-.174-.937-.174h-.583v-.782h.583c.288 0 .542-.052.76-.156a1.22 1.22 0 0 0 .514-.44 1.18 1.18 0 0 0 .189-.668c0-.246-.055-.46-.164-.643a1.12 1.12 0 0 0-.461-.426c-.197-.102-.429-.152-.696-.152-.251 0-.488.046-.711.138s-.4.221-.539.394a1.04 1.04 0 0 0-.228.618h-.852c.014-.381.129-.715.345-1.001a2.2 2.2 0 0 1 .845-.675 2.73 2.73 0 0 1 1.154-.241c.45 0 .836.091 1.158.273a1.94 1.94 0 0 1 .742.714c.173.296.259.615.259.959 0 .409-.108.758-.323 1.047s-.503.489-.87.6v.057c.459.076.818.271 1.076.586s.387.7.387 1.161c0 .396-.108.751-.323 1.066a2.2 2.2 0 0 1-.874.738c-.369.18-.789.27-1.261.27zm-29.599 193.901v-7.273h2.458c.568 0 1.034.097 1.399.291s.634.456.81.792.262.719.262 1.147-.087.809-.262 1.14-.444.592-.807.781-.825.281-1.388.281h-1.989v-.796h1.961c.388 0 .7-.057.937-.17s.412-.275.519-.483.163-.462.163-.753-.055-.546-.163-.763-.283-.386-.522-.505-.556-.181-.949-.181h-1.548v6.492h-.881zm3.424-3.267l1.789 3.267h-1.022l-1.762-3.267h.995zm6.95-2.188a1.11 1.11 0 0 0-.518-.838c-.303-.199-.675-.298-1.115-.298-.322 0-.604.052-.846.156s-.426.247-.561.43a1.03 1.03 0 0 0-.198.621c0 .194.046.361.138.501s.215.252.362.344a2.59 2.59 0 0 0 .462.224l.444.139.738.198a6.64 6.64 0 0 1 .633.206 2.96 2.96 0 0 1 .671.359c.215.149.393.341.532.575s.21.522.21.863c0 .393-.103.748-.309 1.066s-.502.569-.895.756-.865.281-1.424.281c-.521 0-.972-.085-1.353-.253a2.14 2.14 0 0 1-.895-.703 1.99 1.99 0 0 1-.366-1.047h.909c.024.274.116.502.277.681a1.5 1.5 0 0 0 .618.398 2.51 2.51 0 0 0 .81.128c.336 0 .638-.054.906-.163s.479-.265.635-.462.235-.431.235-.696c0-.241-.068-.438-.203-.589s-.312-.275-.532-.37a5.58 5.58 0 0 0-.714-.248l-.895-.256c-.568-.163-1.018-.397-1.35-.7s-.497-.699-.497-1.189c0-.407.11-.763.331-1.066a2.19 2.19 0 0 1 .894-.71c.377-.17.797-.255 1.261-.255s.885.084 1.25.252.653.393.867.681a1.7 1.7 0 0 1 .34.984h-.852zm2.102 3.963v-.724l3.196-5.057h.525v1.122h-.355l-2.415 3.821v.057h4.304v.781h-5.255zm3.423 1.492v-1.712-.337-5.224h.838v7.273h-.838zm5.493.099c-.488 0-.919-.086-1.293-.259s-.662-.416-.87-.721a1.81 1.81 0 0 1-.309-1.051c-.002-.308.058-.592.181-.852a1.85 1.85 0 0 1 .504-.657 1.55 1.55 0 0 1 .721-.338v-.042c-.348-.09-.625-.286-.831-.586a1.77 1.77 0 0 1-.305-1.034 1.75 1.75 0 0 1 .28-.99 1.97 1.97 0 0 1 .782-.689c.333-.168.713-.252 1.14-.252.421 0 .797.084 1.129.252s.592.397.781.689a1.8 1.8 0 0 1 .291.99c-.002.386-.107.731-.316 1.034a1.4 1.4 0 0 1-.82.586v.042a1.5 1.5 0 0 1 .71.338 1.9 1.9 0 0 1 .504.657c.126.26.19.544.192.852a1.84 1.84 0 0 1-.319 1.051c-.209.305-.499.546-.87.721s-.797.259-1.282.259zm0-.781c.329 0 .613-.053.852-.16s.424-.257.554-.451a1.22 1.22 0 0 0 .199-.682 1.32 1.32 0 0 0-.213-.728 1.46 1.46 0 0 0-.572-.497c-.239-.121-.513-.181-.82-.181a1.84 1.84 0 0 0-.831.181c-.242.121-.432.287-.572.497a1.29 1.29 0 0 0-.203.728c-.002.261.061.488.189.682s.316.345.557.451.528.16.86.16zm0-3.452c.26 0 .491-.052.692-.156s.363-.25.479-.437a1.24 1.24 0 0 0 .178-.657 1.21 1.21 0 0 0-.174-.643 1.14 1.14 0 0 0-.472-.426c-.202-.102-.436-.152-.703-.152-.273 0-.511.05-.714.152a1.13 1.13 0 0 0-.473.426c-.112.184-.165.397-.163.643s.053.47.167.657a1.19 1.19 0 0 0 .479.437c.204.104.438.156.704.156zm6.105 4.233c-.417 0-.792-.083-1.126-.248a2.08 2.08 0 0 1-.802-.682 1.86 1.86 0 0 1-.331-.988h.853c.033.33.182.602.447.817s.587.32.959.32c.298 0 .563-.07.795-.21a1.5 1.5 0 0 0 .551-.575 1.72 1.72 0 0 0 .202-.834c0-.318-.07-.601-.209-.849s-.327-.449-.569-.593-.517-.218-.827-.22c-.223-.003-.451.032-.685.103a1.96 1.96 0 0 0-.579.266l-.824-.1.44-3.579h3.779v.781h-3.04l-.256 2.145h.043a1.9 1.9 0 0 1 .561-.295 2.13 2.13 0 0 1 .703-.117c.445 0 .842.107 1.19.32a2.23 2.23 0 0 1 .824.866c.201.367.301.786.301 1.257 0 .464-.104.879-.312 1.243a2.29 2.29 0 0 1-.852.86c-.363.208-.775.312-1.236.312zm-28.068-176.372v7.273h-.88v-6.35h-.043l-1.775 1.179v-.895l1.818-1.207h.88zm4.464 7.372c-.535 0-.991-.145-1.367-.437s-.664-.718-.863-1.275-.298-1.233-.298-2.024.099-1.457.298-2.013.49-.985.867-1.279.833-.443 1.363-.443.984.147 1.36.443.668.72.867 1.279.302 1.227.302 2.013-.1 1.466-.299 2.024-.486.982-.863 1.275-.832.437-1.367.437zm0-.781c.53 0 .942-.256 1.236-.767s.44-1.241.44-2.188c0-.629-.067-1.166-.202-1.608s-.324-.78-.575-1.012a1.27 1.27 0 0 0-.899-.348c-.525 0-.936.259-1.232.777s-.444 1.247-.444 2.191c0 .63.066 1.165.199 1.605s.323.776.572 1.005a1.29 1.29 0 0 0 .905.345zm6.705.682v-5.455h.809v.852h.071a1.37 1.37 0 0 1 .551-.678c.253-.163.557-.245.912-.245s.66.082.899.245.43.387.565.678h.056a1.6 1.6 0 0 1 .629-.671c.279-.168.614-.252 1.005-.252.488 0 .886.153 1.197.458s.465.776.465 1.417v3.651h-.838v-3.651c0-.402-.11-.69-.331-.863a1.22 1.22 0 0 0-.777-.259c-.384 0-.681.116-.892.348s-.316.521-.316.874v3.551h-.852v-3.736a.98.98 0 0 0-.302-.749c-.201-.192-.46-.288-.777-.288a1.15 1.15 0 0 0-.611.174c-.187.116-.339.277-.455.483s-.17.439-.17.707v3.409h-.838zm8.691 0v-5.455h.838v5.455h-.838zm.426-6.364c-.163 0-.304-.056-.422-.167a.53.53 0 0 1-.174-.401c0-.156.058-.29.174-.401a.59.59 0 0 1 .422-.167.58.58 0 0 1 .419.167.53.53 0 0 1 .178.401.53.53 0 0 1-.178.401c-.116.111-.255.167-.419.167zm2.785 3.082v3.282h-.838v-5.455h.81v.852h.071a1.56 1.56 0 0 1 .582-.667c.261-.171.597-.256 1.009-.256.369 0 .692.076.969.227a1.54 1.54 0 0 1 .647.682c.153.303.23.687.23 1.151v3.466h-.838v-3.409c0-.429-.111-.763-.334-1.002s-.527-.362-.916-.362c-.267 0-.506.058-.717.174a1.23 1.23 0 0 0-.494.508c-.121.223-.181.492-.181.809zm8.875-.951l-.752.213c-.048-.126-.118-.248-.21-.366s-.213-.22-.369-.298-.357-.117-.6-.117c-.334 0-.612.076-.835.23s-.33.345-.33.579c0 .209.076.373.227.494s.388.221.71.302l.81.199c.488.118.851.299 1.09.543s.359.553.359.934c0 .312-.09.592-.27.838s-.426.44-.746.582-.691.213-1.115.213c-.556 0-1.017-.12-1.381-.362s-.596-.594-.693-1.058l.796-.199c.075.294.219.514.429.661s.492.22.835.22c.391 0 .701-.083.93-.249s.348-.369.348-.604a.63.63 0 0 0-.199-.475c-.132-.131-.336-.228-.61-.292l-.909-.213c-.5-.118-.867-.302-1.101-.55s-.348-.565-.348-.941c0-.308.086-.58.259-.817a1.75 1.75 0 0 1 .714-.557c.303-.135.646-.203 1.03-.203.539 0 .963.118 1.271.355s.53.549.66.938z"/></g><path d="M28.512 138.264h211m-211 30.189h211m-211 164.811h211m-211 94.949h211" stroke="#f2f2f2" class="B"/><g class="D"><path d="M63.159 122.241v7.273h-.852l-3.963-5.711h-.071v5.711h-.881v-7.273h.852l3.977 5.724h.071v-5.724h.866zm3.254 7.401a2.22 2.22 0 0 1-.941-.196 1.61 1.61 0 0 1-.671-.572c-.166-.25-.249-.554-.249-.909 0-.312.061-.565.185-.76a1.32 1.32 0 0 1 .494-.461 2.62 2.62 0 0 1 .682-.249l.756-.135.806-.096c.208-.023.36-.062.455-.117s.146-.149.146-.284v-.028c0-.351-.096-.623-.288-.817s-.477-.291-.863-.291c-.4 0-.714.087-.941.263a1.55 1.55 0 0 0-.479.561l-.795-.284c.142-.332.331-.59.568-.775a2.12 2.12 0 0 1 .781-.39 3.23 3.23 0 0 1 .838-.114 3.3 3.3 0 0 1 .604.064 2 2 0 0 1 .664.252c.213.128.394.321.536.579s.213.604.213 1.037v3.594h-.838v-.739h-.043c-.057.118-.151.245-.284.38s-.309.25-.529.344a2.05 2.05 0 0 1-.806.143zm.128-.753c.332 0 .611-.065.838-.196a1.35 1.35 0 0 0 .518-.504c.116-.206.178-.422.178-.65v-.767c-.036.043-.114.082-.234.117a3.73 3.73 0 0 1-.412.089l-.451.064-.352.043c-.218.028-.421.074-.611.138s-.338.155-.454.281-.171.291-.171.504c0 .291.108.511.323.661s.494.22.827.22zm3.902.625v-5.455h.81v.852h.071a1.37 1.37 0 0 1 .55-.678c.253-.163.558-.245.913-.245s.659.082.898.245a1.6 1.6 0 0 1 .565.678h.057c.14-.281.349-.505.629-.671s.614-.252 1.005-.252c.488 0 .887.153 1.197.458s.465.776.465 1.417v3.651h-.838v-3.651c0-.402-.11-.69-.33-.863a1.22 1.22 0 0 0-.778-.259c-.383 0-.681.116-.891.348s-.316.521-.316.874v3.551h-.852v-3.736a.98.98 0 0 0-.302-.749 1.08 1.08 0 0 0-.778-.288 1.15 1.15 0 0 0-.611.174c-.187.116-.338.277-.455.483s-.17.439-.17.707v3.409h-.838zm10.978.113c-.526 0-.979-.116-1.36-.348s-.671-.561-.877-.98-.305-.911-.305-1.47.102-1.051.305-1.477a2.41 2.41 0 0 1 .859-1.002 2.32 2.32 0 0 1 1.293-.362 2.58 2.58 0 0 1 .842.142 2.09 2.09 0 0 1 .756.462c.227.21.408.49.543.838s.202.776.202 1.285v.355h-4.205v-.724h3.352a1.79 1.79 0 0 0-.185-.824c-.121-.241-.294-.432-.518-.572s-.485-.209-.788-.209c-.334 0-.623.083-.866.249a1.63 1.63 0 0 0-.558.639 1.88 1.88 0 0 0-.195.845v.483c0 .412.071.761.213 1.047a1.53 1.53 0 0 0 .6.65c.256.147.553.22.891.22.22 0 .419-.03.597-.092a1.27 1.27 0 0 0 .465-.284 1.29 1.29 0 0 0 .302-.476l.81.227a1.78 1.78 0 0 1-.43.725c-.202.208-.45.367-.746.483a2.78 2.78 0 0 1-.998.17zM58.273 317.241v7.273h-.881v-7.273h.881zm2.49 3.991v3.282h-.838v-5.455h.81v.852h.071a1.56 1.56 0 0 1 .582-.667c.26-.168.597-.256 1.008-.256.369 0 .693.076.97.227s.492.377.646.682.231.687.231 1.151v3.466h-.838v-3.409c0-.429-.111-.763-.334-1.002s-.528-.362-.916-.362c-.268 0-.507.058-.717.174s-.373.285-.494.508-.181.492-.181.809zm5.012 5.327v-7.5h.81v.867h.099l.256-.363c.111-.149.27-.281.476-.397s.49-.178.845-.178a2.16 2.16 0 0 1 1.214.345c.35.23.624.555.82.976s.295.919.295 1.492-.098 1.078-.295 1.502-.469.748-.817.98a2.14 2.14 0 0 1-1.204.344c-.35 0-.631-.058-.842-.174s-.373-.252-.486-.401l-.263-.376h-.071v2.883h-.838zm.824-4.773c0 .412.06.776.181 1.091s.297.557.529.735.516.262.852.262c.35 0 .643-.092.877-.277a1.69 1.69 0 0 0 .533-.752c.121-.318.181-.67.181-1.059a2.88 2.88 0 0 0-.177-1.037c-.118-.308-.292-.555-.529-.735s-.529-.273-.884-.273c-.341 0-.627.086-.859.259s-.407.41-.525.718-.178.661-.178 1.068zm8.707.498v-3.225h.838v5.455h-.838v-.924h-.057a1.79 1.79 0 0 1-.597.707c-.27.192-.611.288-1.023.288-.341 0-.644-.075-.909-.224a1.55 1.55 0 0 1-.625-.682c-.151-.303-.227-.69-.227-1.154v-3.466h.838v3.409c0 .398.111.715.334.952s.511.355.859.355a1.42 1.42 0 0 0 .636-.16c.218-.106.4-.27.547-.49s.224-.501.224-.841zm4.745-3.225v.71h-2.827v-.71h2.827zm-2.003-1.307h.838v5.199c0 .237.034.414.103.533a.53.53 0 0 0 .27.234 1.08 1.08 0 0 0 .352.057 1.55 1.55 0 0 0 .227-.014l.142-.029.17.753c-.057.022-.136.043-.238.064a1.73 1.73 0 0 1-.387.036 1.68 1.68 0 0 1-.696-.153 1.37 1.37 0 0 1-.561-.465c-.149-.208-.22-.471-.22-.789v-5.426zm-20.656 97.762v-7.273h2.457c.57 0 1.037.103 1.399.309a1.93 1.93 0 0 1 .81.827c.175.348.263.737.263 1.165s-.088.818-.263 1.168-.44.63-.803.838-.826.309-1.392.309h-1.761v-.781h1.733c.391 0 .704-.067.941-.202s.408-.317.515-.547.163-.494.163-.785a1.8 1.8 0 0 0-.163-.781 1.16 1.16 0 0 0-.518-.54c-.239-.13-.556-.199-.952-.199h-1.548v6.492h-.881zm6.234 0v-5.455h.838v5.455h-.838zm.426-6.364a.6.6 0 0 1-.423-.167c-.119-.111-.174-.245-.174-.401s.058-.29.174-.401a.59.59 0 0 1 .423-.167.58.58 0 0 1 .419.167.53.53 0 0 1 .178.401.53.53 0 0 1-.178.401c-.116.111-.256.167-.419.167zm2.785 3.082v3.282H66v-5.455h.81v.852h.071a1.56 1.56 0 0 1 .582-.667c.26-.168.597-.256 1.009-.256.369 0 .692.076.969.227s.492.377.646.682.231.687.231 1.151v3.466h-.838v-3.409c0-.429-.111-.763-.334-1.002s-.528-.362-.916-.362a1.46 1.46 0 0 0-.717.174c-.21.116-.373.285-.494.508s-.181.492-.181.809zm7.213 5.441c-.405 0-.753-.052-1.044-.156a2.22 2.22 0 0 1-.728-.405 2.21 2.21 0 0 1-.458-.533l.668-.469a5.17 5.17 0 0 0 .288.341 1.47 1.47 0 0 0 .476.338c.201.095.47.145.799.145.44 0 .804-.106 1.09-.319s.43-.547.43-1.002v-1.108H75.5c-.061.1-.149.223-.263.369a1.49 1.49 0 0 1-.483.388c-.208.111-.49.166-.845.166-.44 0-.836-.104-1.186-.312s-.624-.511-.828-.909-.302-.881-.302-1.449c0-.559.098-1.045.295-1.46s.47-.738.82-.965.755-.345 1.214-.345c.355 0 .637.059.845.178a1.48 1.48 0 0 1 .483.397l.263.363h.085v-.867h.81v5.611c0 .469-.106.85-.32 1.143s-.495.513-.852.65a3.21 3.21 0 0 1-1.186.21zm-.028-2.997c.336 0 .62-.077.852-.231s.408-.375.529-.664.181-.635.181-1.037a2.83 2.83 0 0 0-.178-1.041 1.56 1.56 0 0 0-.526-.706c-.232-.171-.518-.256-.859-.256-.355 0-.651.09-.888.27a1.62 1.62 0 0 0-.529.724 2.8 2.8 0 0 0-.174 1.009 2.65 2.65 0 0 0 .177 1.005 1.54 1.54 0 0 0 .533.682c.237.163.53.245.881.245z"/><path d="M57.392 254.514v-7.273h.881v6.491h3.381v.782h-4.261zm7.727.113c-.492 0-.924-.117-1.296-.351s-.658-.563-.867-.984-.309-.914-.309-1.477.103-1.064.309-1.488a2.38 2.38 0 0 1 .867-.987c.372-.235.804-.352 1.296-.352s.923.117 1.293.352.66.563.867.987.313.92.313 1.488-.104 1.056-.312 1.477-.495.749-.867.984-.8.351-1.293.351zm0-.753c.374 0 .682-.095.923-.287a1.7 1.7 0 0 0 .536-.757c.116-.313.174-.651.174-1.015a2.92 2.92 0 0 0-.174-1.019 1.72 1.72 0 0 0-.536-.764c-.241-.194-.549-.291-.923-.291s-.682.097-.923.291a1.72 1.72 0 0 0-.536.764 2.92 2.92 0 0 0-.174 1.019c0 .364.058.703.174 1.015s.295.565.536.757.549.287.923.287zm3.865.64v-7.273h2.457c.568 0 1.035.097 1.399.291a1.86 1.86 0 0 1 .81.792c.175.336.263.719.263 1.147a2.4 2.4 0 0 1-.263 1.14c-.175.331-.444.592-.806.781s-.825.281-1.389.281h-1.989v-.796h1.96c.388 0 .701-.057.938-.17a1.08 1.08 0 0 0 .518-.483c.109-.211.163-.462.163-.753s-.055-.546-.163-.763-.283-.386-.522-.505-.555-.181-.948-.181h-1.548v6.492h-.881zm3.423-3.267l1.79 3.267h-1.023l-1.761-3.267h.994zm4.465 3.395a2.22 2.22 0 0 1-.941-.196 1.61 1.61 0 0 1-.671-.572c-.166-.25-.249-.554-.249-.909 0-.312.062-.565.185-.76a1.31 1.31 0 0 1 .494-.461 2.62 2.62 0 0 1 .682-.249l.756-.135.806-.096c.208-.023.36-.062.455-.117s.146-.149.146-.284v-.028c0-.351-.096-.623-.288-.817s-.477-.291-.863-.291c-.4 0-.714.087-.941.263a1.55 1.55 0 0 0-.479.561l-.796-.284c.142-.332.332-.59.568-.775s.499-.317.781-.39a3.36 3.36 0 0 1 .838-.114 3.3 3.3 0 0 1 .604.064 2 2 0 0 1 .664.252c.213.128.394.321.536.579s.213.604.213 1.037v3.594h-.838v-.739h-.043c-.057.118-.151.245-.284.38s-.309.25-.529.344a2.05 2.05 0 0 1-.806.143zm.128-.753c.331 0 .611-.065.838-.196a1.35 1.35 0 0 0 .518-.504c.116-.206.178-.422.178-.65v-.767c-.035.043-.114.082-.234.117a3.6 3.6 0 0 1-.412.089l-.451.064-.352.043c-.218.028-.421.074-.611.138s-.338.155-.454.281-.171.291-.171.504c0 .291.108.511.323.661s.494.22.827.22zm4.829.625l-1.989-7.273h.895l1.52 5.923h.071l1.548-5.923h.994l1.548 5.923h.071l1.52-5.923h.895l-1.989 7.273h-.909l-1.605-5.796h-.057l-1.605 5.796h-.909zm7.903 0h-.923l2.67-7.273h.909l2.67 7.273h-.923l-2.173-6.122h-.057l-2.173 6.122zm.341-2.841h3.722v.781h-3.722v-.781zm11.885-4.432v7.273h-.852l-3.963-5.711h-.071v5.711h-.881v-7.273h.852l3.978 5.724h.071v-5.724h.866zm8.552 1.818a1.11 1.11 0 0 0-.518-.838c-.303-.199-.675-.298-1.115-.298a2.12 2.12 0 0 0-.845.156c-.24.104-.427.247-.561.43a1.02 1.02 0 0 0-.199.621c0 .194.046.361.138.501a1.24 1.24 0 0 0 .362.344 2.59 2.59 0 0 0 .462.224l.444.139.739.198a6.72 6.72 0 0 1 .632.206 2.96 2.96 0 0 1 .671.359c.215.149.393.341.532.575s.21.522.21.863c0 .393-.103.748-.309 1.066s-.502.569-.895.756-.865.281-1.424.281c-.521 0-.972-.085-1.353-.253a2.14 2.14 0 0 1-.895-.703 1.98 1.98 0 0 1-.365-1.047h.909a1.13 1.13 0 0 0 .277.681c.163.178.369.311.618.398a2.5 2.5 0 0 0 .809.128c.336 0 .638-.054.906-.163s.479-.265.635-.462a1.09 1.09 0 0 0 .235-.696c0-.241-.068-.438-.203-.589s-.312-.275-.532-.37-.458-.177-.714-.248l-.895-.256c-.568-.163-1.018-.397-1.349-.7s-.498-.699-.498-1.189c0-.407.11-.763.331-1.066s.52-.542.895-.71.796-.255 1.26-.255.886.084 1.25.252a2.16 2.16 0 0 1 .867.681c.215.289.329.617.341.984h-.853zm4.573 5.568c-.525 0-.979-.116-1.36-.348s-.671-.561-.877-.98-.305-.911-.305-1.47.101-1.051.305-1.477a2.41 2.41 0 0 1 .859-1.002c.367-.239.801-.362 1.293-.362a2.58 2.58 0 0 1 .842.142c.277.095.529.249.756.462a2.23 2.23 0 0 1 .543.838c.135.348.203.776.203 1.285v.355h-4.205v-.724h3.353a1.79 1.79 0 0 0-.185-.824 1.4 1.4 0 0 0-.519-.572c-.222-.139-.485-.209-.788-.209-.334 0-.623.083-.866.249a1.64 1.64 0 0 0-.558.639 1.88 1.88 0 0 0-.195.845v.483c0 .412.071.761.213 1.047a1.51 1.51 0 0 0 .6.65c.256.149.553.22.891.22.22 0 .419-.03.597-.092s.335-.158.465-.284a1.29 1.29 0 0 0 .302-.476l.81.227c-.086.275-.229.517-.43.725s-.45.367-.746.483-.628.17-.998.17zm5.906-5.568v.71h-2.827v-.71h2.827zm-2.003-1.307h.838v5.199c0 .237.034.414.103.533a.53.53 0 0 0 .27.234c.111.038.228.057.351.057.093 0 .169-.005.228-.014l.142-.029.17.753c-.057.022-.136.043-.238.064a1.93 1.93 0 0 1-.387.036c-.236 0-.469-.051-.696-.153a1.37 1.37 0 0 1-.561-.465c-.149-.208-.22-.471-.22-.789v-5.426zm5.636 1.307v.71h-2.827v-.71h2.827zm-2.003-1.307h.838v5.199c0 .237.034.414.103.533a.53.53 0 0 0 .27.234c.111.038.228.057.351.057.093 0 .168-.005.228-.014l.142-.029.17.753c-.057.022-.136.043-.238.064a1.73 1.73 0 0 1-.387.036 1.68 1.68 0 0 1-.696-.153c-.225-.102-.412-.257-.561-.465s-.22-.471-.22-.789v-5.426zm3.263 6.762v-5.455h.838v5.455h-.838zm.426-6.364c-.163 0-.304-.056-.422-.167a.53.53 0 0 1-.174-.401c0-.156.058-.29.174-.401a.59.59 0 0 1 .422-.167.58.58 0 0 1 .419.167.53.53 0 0 1 .178.401.53.53 0 0 1-.178.401c-.116.111-.255.167-.419.167zm2.785 3.082v3.282h-.838v-5.455h.81v.852h.071a1.56 1.56 0 0 1 .582-.667c.261-.171.597-.256 1.009-.256.369 0 .692.076.969.227a1.54 1.54 0 0 1 .647.682c.154.303.231.687.231 1.151v3.466h-.839v-3.409c0-.429-.111-.763-.333-1.002s-.528-.362-.917-.362c-.267 0-.506.058-.717.174a1.24 1.24 0 0 0-.493.508c-.121.222-.182.492-.182.809zm7.214 5.441c-.405 0-.753-.052-1.044-.156s-.534-.237-.728-.405a2.21 2.21 0 0 1-.458-.533l.667-.469c.076.1.172.213.288.341a1.46 1.46 0 0 0 .476.338c.203.097.47.145.799.145.44 0 .803-.106 1.09-.319s.43-.547.43-1.002v-1.108h-.071a4.56 4.56 0 0 1-.263.369c-.112.145-.273.274-.483.388s-.49.166-.845.166c-.441 0-.836-.104-1.186-.312s-.624-.511-.828-.909-.302-.881-.302-1.449c0-.559.099-1.045.295-1.46s.47-.738.82-.965.756-.345 1.215-.345c.355 0 .637.059.845.178s.372.248.483.397l.263.363h.085v-.867h.81v5.611c0 .469-.107.85-.32 1.143a1.82 1.82 0 0 1-.852.65 3.21 3.21 0 0 1-1.186.21zm-.029-2.997c.336 0 .62-.077.853-.231a1.43 1.43 0 0 0 .529-.664c.121-.289.181-.635.181-1.037 0-.393-.059-.74-.178-1.041s-.293-.536-.525-.706-.519-.256-.86-.256c-.355 0-.651.09-.888.27a1.65 1.65 0 0 0-.529.724 2.8 2.8 0 0 0-.174 1.009c0 .379.06.714.178 1.005s.298.516.533.682.53.245.88.245zm7.784-3.395l-.753.213c-.047-.126-.117-.248-.209-.366s-.213-.22-.369-.298-.357-.117-.6-.117c-.334 0-.612.076-.835.23s-.33.345-.33.579c0 .209.075.373.227.494s.388.221.71.302l.81.199c.488.118.851.299 1.09.543s.359.553.359.934c0 .312-.09.592-.27.838s-.426.44-.746.582-.691.213-1.115.213c-.556 0-1.017-.12-1.381-.362s-.596-.594-.693-1.058l.796-.199c.075.294.219.514.429.661s.492.22.835.22c.39 0 .701-.083.93-.249s.348-.369.348-.604a.63.63 0 0 0-.199-.475c-.132-.131-.336-.228-.61-.292l-.909-.213c-.5-.118-.867-.302-1.101-.55s-.348-.565-.348-.941c0-.308.086-.58.259-.817a1.75 1.75 0 0 1 .714-.557c.303-.135.646-.203 1.03-.203.539 0 .963.118 1.271.355s.53.549.66.938zm-86.67-93.767v-7.273h.881v3.239h3.878v-3.239h.881v7.273h-.881v-3.253h-3.878v3.253h-.881zm9.576.113c-.526 0-.979-.116-1.36-.348s-.671-.561-.877-.98-.305-.911-.305-1.47.102-1.051.305-1.477.492-.763.859-1.002.8-.362 1.293-.362a2.58 2.58 0 0 1 .842.142 2.09 2.09 0 0 1 .756.462c.227.21.408.49.543.838s.203.776.203 1.285v.355h-4.205v-.724h3.352a1.79 1.79 0 0 0-.185-.824c-.121-.241-.293-.432-.518-.572s-.485-.209-.788-.209c-.334 0-.623.083-.867.249a1.63 1.63 0 0 0-.558.639 1.88 1.88 0 0 0-.195.845v.483c0 .412.071.761.213 1.047a1.53 1.53 0 0 0 .6.65c.256.147.553.22.891.22.22 0 .419-.03.597-.092a1.27 1.27 0 0 0 .465-.284 1.29 1.29 0 0 0 .302-.476l.81.227a1.79 1.79 0 0 1-.43.725c-.201.206-.45.367-.746.483a2.78 2.78 0 0 1-.998.17zm5.138.015a2.22 2.22 0 0 1-.941-.196 1.61 1.61 0 0 1-.671-.572c-.166-.25-.249-.554-.249-.909 0-.312.062-.565.185-.76a1.31 1.31 0 0 1 .494-.461 2.62 2.62 0 0 1 .682-.249l.756-.135.806-.096c.208-.023.36-.062.455-.117s.146-.149.146-.284v-.028c0-.351-.096-.623-.288-.817s-.477-.291-.863-.291c-.4 0-.714.087-.941.263s-.387.362-.479.561l-.795-.284a1.91 1.91 0 0 1 .568-.775 2.12 2.12 0 0 1 .781-.39c.282-.073.563-.114.838-.114a3.3 3.3 0 0 1 .604.064 2 2 0 0 1 .664.252c.213.128.394.321.536.579s.213.604.213 1.037v3.594h-.838v-.739h-.043a1.5 1.5 0 0 1-.284.38c-.132.135-.309.25-.529.344a2.05 2.05 0 0 1-.806.143zm.128-.753c.331 0 .611-.065.838-.196s.403-.298.519-.504.178-.422.178-.65v-.767c-.035.043-.114.082-.234.117a3.6 3.6 0 0 1-.412.089l-.451.064-.352.043c-.218.028-.421.074-.611.138s-.338.155-.454.281-.171.291-.171.504c0 .291.108.511.323.661s.494.22.827.22zm3.902.625v-5.455h.81v.824h.057c.099-.27.279-.489.54-.657a1.59 1.59 0 0 1 .881-.252l.231.003.21.011v.852a3.05 3.05 0 0 0-.195-.032 1.99 1.99 0 0 0-.316-.024c-.265 0-.502.055-.71.166a1.26 1.26 0 0 0-.49.455 1.23 1.23 0 0 0-.177.657v3.452h-.838zm6.435-5.455v.71h-2.827v-.71h2.827zm-2.003-1.307h.838v5.199c0 .237.034.414.103.533a.53.53 0 0 0 .27.234 1.08 1.08 0 0 0 .352.057 1.55 1.55 0 0 0 .227-.014l.142-.029.171.753c-.057.022-.136.043-.238.064a1.73 1.73 0 0 1-.387.036 1.68 1.68 0 0 1-.696-.153 1.37 1.37 0 0 1-.561-.465c-.149-.208-.22-.471-.22-.789v-5.426zm3.494 6.762v-7.273h.838v2.685h.071l.256-.363a1.5 1.5 0 0 1 .476-.397c.208-.119.49-.178.845-.178.459 0 .864.115 1.215.345s.624.555.82.976.295.919.295 1.492-.098 1.078-.295 1.502-.469.748-.817.98a2.14 2.14 0 0 1-1.204.344c-.35 0-.631-.058-.842-.174s-.373-.252-.486-.401l-.263-.376h-.099v.838h-.81zm.824-2.728c0 .412.06.776.181 1.091a1.65 1.65 0 0 0 .529.735c.232.175.516.262.852.262.35 0 .643-.092.877-.277a1.69 1.69 0 0 0 .533-.752 2.96 2.96 0 0 0 .181-1.059 2.86 2.86 0 0 0-.178-1.037c-.119-.308-.292-.555-.529-.735s-.529-.273-.884-.273c-.341 0-.627.086-.859.259a1.56 1.56 0 0 0-.526.718c-.118.305-.177.661-.177 1.068zm7.56 2.841c-.526 0-.979-.116-1.36-.348s-.671-.561-.877-.98-.305-.911-.305-1.47.102-1.051.305-1.477a2.41 2.41 0 0 1 .859-1.002 2.32 2.32 0 0 1 1.293-.362 2.58 2.58 0 0 1 .842.142 2.09 2.09 0 0 1 .756.462c.227.21.408.49.543.838s.202.776.202 1.285v.355h-4.205v-.724h3.352c0-.308-.061-.582-.185-.824a1.41 1.41 0 0 0-.518-.572c-.225-.14-.485-.209-.788-.209-.334 0-.623.083-.866.249a1.63 1.63 0 0 0-.558.639 1.88 1.88 0 0 0-.195.845v.483c0 .412.071.761.213 1.047a1.53 1.53 0 0 0 .6.65c.256.147.553.22.891.22a1.8 1.8 0 0 0 .596-.092 1.27 1.27 0 0 0 .465-.284 1.29 1.29 0 0 0 .302-.476l.81.227a1.78 1.78 0 0 1-.43.725c-.202.208-.45.367-.746.483a2.78 2.78 0 0 1-.998.17zm5.138.015a2.22 2.22 0 0 1-.941-.196 1.61 1.61 0 0 1-.671-.572c-.166-.25-.249-.554-.249-.909 0-.312.061-.565.185-.76a1.32 1.32 0 0 1 .494-.461 2.62 2.62 0 0 1 .682-.249l.756-.135.806-.096c.208-.023.36-.062.455-.117s.146-.149.146-.284v-.028c0-.351-.096-.623-.288-.817s-.477-.291-.863-.291c-.4 0-.714.087-.941.263a1.55 1.55 0 0 0-.479.561l-.796-.284a1.91 1.91 0 0 1 .568-.775 2.12 2.12 0 0 1 .781-.39 3.36 3.36 0 0 1 .838-.114 3.3 3.3 0 0 1 .604.064 2 2 0 0 1 .664.252c.213.128.394.321.536.579s.213.604.213 1.037v3.594h-.838v-.739h-.043a1.5 1.5 0 0 1-.284.38c-.132.135-.309.25-.529.344a2.05 2.05 0 0 1-.806.143zm.128-.753c.331 0 .611-.065.838-.196a1.35 1.35 0 0 0 .518-.504c.116-.206.178-.422.178-.65v-.767c-.035.043-.114.082-.234.117a3.6 3.6 0 0 1-.412.089l-.451.064-.352.043c-.218.028-.421.074-.611.138s-.338.155-.454.281-.171.291-.171.504c0 .291.108.511.323.661s.494.22.827.22zm6.274-4.83v.71h-2.827v-.71h2.827zm-2.003-1.307h.838v5.199c0 .237.034.414.103.533a.53.53 0 0 0 .27.234 1.08 1.08 0 0 0 .352.057 1.55 1.55 0 0 0 .227-.014l.142-.029.17.753c-.057.022-.136.043-.238.064a1.72 1.72 0 0 1-.387.036 1.69 1.69 0 0 1-.696-.153c-.225-.102-.412-.257-.561-.465s-.22-.471-.22-.789v-5.426z"/><path d="M57.392 351.514v-7.273h2.457c.568 0 1.035.097 1.399.291a1.86 1.86 0 0 1 .81.792c.175.336.263.719.263 1.147a2.4 2.4 0 0 1-.263 1.14c-.175.331-.444.592-.806.781s-.825.281-1.389.281h-1.989v-.796h1.96c.388 0 .701-.057.938-.17a1.08 1.08 0 0 0 .518-.483c.109-.211.163-.462.163-.753s-.055-.546-.163-.763-.283-.386-.522-.505-.555-.181-.948-.181h-1.548v6.492h-.881zm3.423-3.267l1.79 3.267h-1.023l-1.761-3.267h.994zm5.088 3.38c-.526 0-.979-.116-1.36-.348s-.671-.561-.877-.98-.305-.911-.305-1.47.102-1.051.305-1.477.492-.763.859-1.002.8-.362 1.293-.362c.284 0 .565.047.842.142a2.09 2.09 0 0 1 .756.462c.227.21.408.49.543.838s.202.776.202 1.285v.355h-4.204v-.724h3.352a1.79 1.79 0 0 0-.185-.824c-.121-.241-.294-.432-.519-.572s-.485-.209-.788-.209c-.334 0-.623.083-.867.249a1.63 1.63 0 0 0-.557.639c-.13.263-.195.544-.195.845v.483c0 .412.071.761.213 1.047a1.53 1.53 0 0 0 .6.65c.256.147.553.22.891.22.22 0 .419-.03.597-.092a1.27 1.27 0 0 0 .465-.284c.13-.128.231-.286.302-.476l.81.227c-.085.275-.228.517-.43.725s-.45.367-.746.483a2.78 2.78 0 0 1-.998.17zm5.735 2.046c-.405 0-.753-.052-1.044-.156a2.22 2.22 0 0 1-.728-.405c-.192-.166-.344-.344-.458-.533l.668-.469a5.17 5.17 0 0 0 .288.341c.116.13.275.243.476.338s.47.145.799.145c.44 0 .804-.106 1.09-.319s.43-.547.43-1.002v-1.108h-.071c-.062.1-.149.223-.263.369a1.49 1.49 0 0 1-.483.388c-.208.111-.49.166-.845.166a2.28 2.28 0 0 1-1.186-.312c-.348-.208-.624-.511-.827-.909s-.302-.881-.302-1.449c0-.559.098-1.045.295-1.46s.47-.738.82-.965.755-.345 1.215-.345c.355 0 .637.059.845.178a1.48 1.48 0 0 1 .483.397l.263.363h.085v-.867h.81v5.611c0 .469-.106.85-.32 1.143s-.495.513-.852.65a3.21 3.21 0 0 1-1.186.21zm-.028-2.997c.336 0 .62-.077.852-.231s.408-.375.529-.664.181-.635.181-1.037a2.83 2.83 0 0 0-.178-1.041 1.56 1.56 0 0 0-.526-.706c-.232-.171-.518-.256-.859-.256-.355 0-.651.09-.888.27s-.411.421-.529.724a2.8 2.8 0 0 0-.174 1.009 2.65 2.65 0 0 0 .177 1.005 1.54 1.54 0 0 0 .533.682c.237.163.53.245.881.245zm3.92.838v-5.455h.838v5.455h-.838zm.426-6.364c-.163 0-.304-.056-.423-.167s-.174-.245-.174-.401.058-.29.174-.401a.59.59 0 0 1 .423-.167.58.58 0 0 1 .419.167.53.53 0 0 1 .177.401.53.53 0 0 1-.177.401c-.116.111-.256.167-.419.167zm5.81 2.131l-.753.213c-.047-.126-.117-.248-.21-.366a1.01 1.01 0 0 0-.369-.298c-.156-.078-.356-.117-.6-.117-.334 0-.612.076-.835.23s-.33.345-.33.579c0 .209.076.373.227.494s.388.221.71.302l.81.199c.488.118.851.299 1.09.543s.359.553.359.934c0 .312-.09.592-.27.838a1.79 1.79 0 0 1-.746.582c-.32.142-.691.213-1.115.213-.556 0-1.017-.12-1.381-.362s-.595-.594-.692-1.058l.795-.199c.076.294.219.514.43.661s.491.22.835.22c.391 0 .701-.083.93-.249s.348-.369.348-.604a.63.63 0 0 0-.199-.475c-.133-.131-.336-.228-.611-.292l-.909-.213c-.499-.118-.867-.302-1.101-.55s-.348-.565-.348-.941a1.35 1.35 0 0 1 .259-.817c.175-.237.413-.423.714-.557s.646-.203 1.03-.203c.54 0 .963.118 1.271.355s.53.549.66.938zm3.733-1.222v.71h-2.827v-.71h2.827zm-2.003-1.307h.838v5.199c0 .237.034.414.103.533s.161.194.27.234a1.08 1.08 0 0 0 .352.057c.092 0 .168-.005.227-.014l.142-.029.17.753a1.58 1.58 0 0 1-.238.064c-.102.024-.231.036-.387.036-.237 0-.469-.051-.696-.153s-.412-.257-.561-.465-.22-.471-.22-.789v-5.426zm5.492 6.875c-.526 0-.979-.116-1.36-.348s-.671-.561-.877-.98-.305-.911-.305-1.47.102-1.051.305-1.477.492-.763.859-1.002.8-.362 1.293-.362c.284 0 .565.047.842.142a2.09 2.09 0 0 1 .756.462c.227.21.408.49.543.838s.202.776.202 1.285v.355h-4.205v-.724h3.352a1.79 1.79 0 0 0-.185-.824c-.121-.241-.294-.432-.519-.572s-.485-.209-.788-.209c-.334 0-.623.083-.867.249a1.63 1.63 0 0 0-.558.639c-.13.263-.195.544-.195.845v.483c0 .412.071.761.213 1.047s.344.501.6.65.553.22.891.22c.22 0 .419-.03.597-.092a1.27 1.27 0 0 0 .465-.284 1.29 1.29 0 0 0 .302-.476l.81.227a1.79 1.79 0 0 1-.43.725c-.201.206-.45.367-.746.483a2.78 2.78 0 0 1-.998.17zm3.533-.113v-5.455h.81v.824h.057c.099-.27.279-.489.54-.657a1.59 1.59 0 0 1 .881-.252l.231.003.21.011v.852a3.03 3.03 0 0 0-.195-.032 1.99 1.99 0 0 0-.316-.024c-.265 0-.502.055-.71.166a1.26 1.26 0 0 0-.49.455c-.118.192-.177.411-.177.657v3.452h-.838zm7.584-4.233l-.753.213c-.047-.126-.117-.248-.209-.366s-.213-.22-.369-.298-.356-.117-.6-.117c-.334 0-.612.076-.834.23s-.33.345-.33.579c0 .209.076.373.227.494s.388.221.71.302l.81.199c.488.118.851.299 1.09.543s.359.553.359.934c0 .312-.09.592-.27.838a1.79 1.79 0 0 1-.746.582c-.32.142-.691.213-1.115.213-.556 0-1.017-.12-1.381-.362s-.595-.594-.692-1.058l.796-.199c.076.294.219.514.43.661s.491.22.835.22c.391 0 .701-.083.93-.249s.348-.369.348-.604a.63.63 0 0 0-.199-.475c-.133-.131-.336-.228-.611-.292l-.909-.213c-.499-.118-.866-.302-1.101-.55s-.348-.565-.348-.941a1.35 1.35 0 0 1 .259-.817c.175-.237.413-.423.714-.557s.646-.203 1.03-.203c.54 0 .964.118 1.271.355a1.91 1.91 0 0 1 .66.938zm6.233 4.332c-.478 0-.89-.087-1.235-.263s-.612-.415-.799-.721-.281-.654-.281-1.047c0-.303.064-.572.192-.806s.309-.456.536-.657.494-.407.792-.611l1.051-.781c.206-.135.371-.28.494-.433s.188-.356.188-.604c0-.185-.082-.364-.245-.536s-.373-.26-.636-.26a.87.87 0 0 0-.49.142c-.14.093-.25.211-.33.356a.9.9 0 0 0-.117.44c0 .17.046.343.138.518s.214.351.359.533l.454.554 3.338 4.077h-1.008l-2.756-3.324-.696-.838c-.208-.251-.374-.499-.497-.742s-.185-.508-.185-.792c0-.327.073-.614.217-.86s.352-.441.614-.579.576-.209.931-.209c.364 0 .678.071.941.213s.465.326.607.558.213.479.213.749c0 .348-.086.65-.259.905s-.408.494-.707.714l-1.449 1.08c-.326.241-.548.476-.664.703s-.174.39-.174.49a1.21 1.21 0 0 0 .178.636 1.32 1.32 0 0 0 .501.475c.215.121.467.181.756.181.275 0 .542-.058.803-.174s.495-.288.706-.511.381-.49.504-.802.189-.665.189-1.055h.809c0 .483-.055.877-.167 1.182s-.236.545-.376.718l-.337.387c-.029.035-.055.071-.078.106l-.079.107c-.234.263-.53.459-.887.589a3.13 3.13 0 0 1-1.059.192zm7.562-.099h-.924l2.671-7.273h.909l2.67 7.273h-.923l-2.173-6.122h-.057l-2.173 6.122zm.341-2.841h3.721v.781h-3.721v-.781zm8.064 2.954c-.454 0-.856-.115-1.204-.344s-.62-.559-.816-.98-.295-.925-.295-1.502.098-1.07.295-1.492.47-.747.82-.976a2.16 2.16 0 0 1 1.214-.345c.355 0 .636.059.842.178s.367.248.476.397l.259.363h.071v-2.685h.838v7.273h-.809v-.838h-.1a5.08 5.08 0 0 1-.263.376c-.113.149-.276.283-.486.401s-.491.174-.842.174zm.114-.753c.336 0 .62-.087.852-.262s.408-.423.529-.735.181-.679.181-1.091-.059-.763-.177-1.068-.294-.547-.526-.718-.518-.259-.859-.259c-.355 0-.651.091-.888.273s-.411.425-.529.735-.174.654-.174 1.037a3.02 3.02 0 0 0 .177 1.059c.121.315.299.565.533.752s.53.277.881.277zm6.097.753c-.454 0-.856-.115-1.204-.344s-.62-.559-.816-.98-.295-.925-.295-1.502.098-1.07.295-1.492a2.28 2.28 0 0 1 .82-.976 2.16 2.16 0 0 1 1.214-.345c.355 0 .636.059.842.178s.367.248.476.397l.259.363h.071v-2.685h.838v7.273h-.81v-.838h-.099c-.062.099-.149.225-.263.376s-.276.283-.486.401-.492.174-.842.174zm.114-.753c.336 0 .62-.087.852-.262s.408-.423.529-.735.181-.679.181-1.091-.059-.763-.177-1.068-.294-.547-.526-.718-.518-.259-.859-.259c-.355 0-.651.091-.888.273s-.411.425-.529.735-.174.654-.174 1.037a3.02 3.02 0 0 0 .177 1.059c.121.315.299.565.533.752s.53.277.881.277zm4.037.64v-5.455h.81v.824h.057c.099-.27.279-.489.54-.657s.554-.252.88-.252l.231.003.21.011v.852a3.14 3.14 0 0 0-.196-.032 1.98 1.98 0 0 0-.316-.024c-.265 0-.502.055-.71.166s-.369.261-.49.455a1.23 1.23 0 0 0-.178.657v3.452h-.838zm5.842.113c-.526 0-.979-.116-1.36-.348s-.671-.561-.877-.98-.306-.911-.306-1.47.102-1.051.306-1.477.492-.763.859-1.002.8-.362 1.293-.362c.284 0 .564.047.841.142a2.09 2.09 0 0 1 .757.462c.227.21.408.49.543.838s.203.776.203 1.285v.355h-4.205v-.724h3.352a1.79 1.79 0 0 0-.184-.824 1.4 1.4 0 0 0-.519-.572c-.222-.139-.485-.209-.788-.209-.334 0-.623.083-.867.249a1.63 1.63 0 0 0-.557.639 1.88 1.88 0 0 0-.196.845v.483c0 .412.071.761.214 1.047s.344.501.6.65.552.22.891.22c.22 0 .419-.03.597-.092s.335-.158.465-.284a1.29 1.29 0 0 0 .302-.476l.809.227a1.79 1.79 0 0 1-.429.725 2.1 2.1 0 0 1-.746.483c-.296.113-.629.17-.998.17zm7.397-4.346l-.753.213c-.047-.126-.117-.248-.209-.366a1.01 1.01 0 0 0-.37-.298c-.156-.078-.356-.117-.6-.117-.334 0-.612.076-.834.23s-.331.345-.331.579c0 .209.076.373.228.494s.388.221.71.302l.81.199c.487.118.851.299 1.09.543s.358.553.358.934a1.39 1.39 0 0 1-.269.838c-.178.246-.427.44-.746.582s-.691.213-1.115.213c-.557 0-1.017-.12-1.382-.362s-.595-.594-.692-1.058l.795-.199c.076.294.219.514.43.661s.491.22.835.22c.39 0 .7-.083.93-.249s.348-.369.348-.604a.63.63 0 0 0-.199-.475c-.132-.131-.336-.228-.611-.292l-.909-.213c-.499-.118-.866-.302-1.101-.55s-.348-.565-.348-.941a1.35 1.35 0 0 1 .26-.817c.175-.237.413-.423.713-.557s.647-.203 1.03-.203c.54 0 .964.118 1.272.355s.53.549.66.938zm5.225 0l-.753.213c-.048-.126-.117-.248-.21-.366s-.213-.22-.369-.298-.356-.117-.6-.117c-.334 0-.612.076-.835.23s-.33.345-.33.579c0 .209.076.373.227.494s.389.221.711.302l.809.199c.488.118.851.299 1.09.543s.359.553.359.934c0 .312-.09.592-.27.838s-.426.44-.746.582-.691.213-1.115.213c-.556 0-1.016-.12-1.381-.362s-.595-.594-.692-1.058l.795-.199c.076.294.219.514.43.661s.491.22.834.22c.391 0 .701-.083.931-.249s.348-.369.348-.604c0-.189-.067-.348-.199-.475s-.336-.228-.611-.292l-.909-.213c-.5-.118-.867-.302-1.101-.55s-.348-.565-.348-.941c0-.308.086-.58.259-.817a1.75 1.75 0 0 1 .714-.557c.303-.135.646-.203 1.03-.203.54 0 .963.118 1.271.355a1.92 1.92 0 0 1 .661.938z"/></g><path d="M42.637 123.014h-1.5v-.375c0-.621-.505-1.125-1.125-1.125s-1.125.504-1.125 1.125v.375h-1.5a1.88 1.88 0 0 0-1.875 1.875v3.75a1.88 1.88 0 0 0 1.875 1.875h5.25a1.88 1.88 0 0 0 1.875-1.875v-3.75a1.88 1.88 0 0 0-1.875-1.875zm-3-.375c0-.207.168-.375.375-.375s.375.168.375.375v.748.377h-.75v-1.125h0zm4.125 6c0 .62-.505 1.125-1.125 1.125h-5.25c-.62 0-1.125-.505-1.125-1.125v-3.75c0-.621.505-1.125 1.125-1.125h1.5a.75.75 0 0 0 .75.75h.75a.75.75 0 0 0 .75-.75h1.5c.62 0 1.125.504 1.125 1.125v3.75zm-4.687-2.438c0-.518.42-.937.938-.937s.938.419.938.937a.94.94 0 0 1-.937.938.94.94 0 0 1-.937-.938zm2.8 2.719c.052.201-.069.405-.27.457s-.405-.069-.457-.27c-.124-.481-.613-.843-1.137-.843s-1.013.362-1.137.843c-.043.169-.196.282-.363.282a.38.38 0 0 1-.094-.012c-.201-.052-.321-.256-.27-.457.21-.815.993-1.406 1.863-1.406s1.653.591 1.863 1.406h.001zm.08 28.594h-3.886a1.6 1.6 0 0 1-.651-.138 1.57 1.57 0 0 1-.532-.387 1.46 1.46 0 0 1-.312-.555c-.062-.204-.077-.419-.044-.63.209-1.096.815-2.086 1.711-2.79a4.67 4.67 0 0 1-1.711-2.792 1.44 1.44 0 0 1 .044-.629 1.46 1.46 0 0 1 .312-.554 1.56 1.56 0 0 1 .532-.388c.204-.09.426-.137.651-.137h3.886c.225 0 .447.047.651.137a1.56 1.56 0 0 1 .532.388 1.46 1.46 0 0 1 .312.554c.062.204.077.418.045.629-.211 1.097-.819 2.086-1.715 2.792.896.705 1.503 1.695 1.713 2.793a1.44 1.44 0 0 1-.044.629 1.46 1.46 0 0 1-.312.554 1.57 1.57 0 0 1-.532.386 1.63 1.63 0 0 1-.65.138zm0-8.25h-3.886c-.113 0-.224.023-.327.068a.77.77 0 0 0-.267.194c-.073.082-.125.172-.156.273a.7.7 0 0 0-.022.311c.146.937.748 1.815 1.789 2.609a.38.38 0 0 1 .109.13.36.36 0 0 1 .039.164c0 .057-.013.112-.039.163s-.063.095-.109.131c-1.041.794-1.641 1.672-1.789 2.61-.017.104-.009.21.022.311a.71.71 0 0 0 .156.273.77.77 0 0 0 .267.194c.102.045.214.069.327.069h3.886c.113 0 .224-.024.327-.069a.77.77 0 0 0 .267-.194.72.72 0 0 0 .156-.272.7.7 0 0 0 .022-.311c-.145-.932-.746-1.81-1.789-2.61a.37.37 0 0 1-.108-.131c-.025-.051-.038-.106-.038-.163a.36.36 0 0 1 .038-.162.37.37 0 0 1 .108-.131c1.042-.8 1.644-1.678 1.789-2.611.016-.104.009-.21-.022-.311a.72.72 0 0 0-.157-.273.78.78 0 0 0-.266-.193.79.79 0 0 0-.326-.069zm-.513 6.75h-2.863c-.064 0-.126-.015-.182-.044s-.104-.071-.14-.122a.36.36 0 0 1-.038-.35c.304-.634.768-1.184 1.35-1.602l.201-.154c.069-.053.154-.082.242-.082s.173.029.242.082l.198.152c.58.419 1.044.97 1.35 1.604a.36.36 0 0 1 .026.179.37.37 0 0 1-.064.171c-.036.051-.084.093-.14.122a.4.4 0 0 1-.183.044zm-2.196-.75h1.527c-.222-.279-.478-.531-.763-.75a4.29 4.29 0 0 0-.764.75z" class="E"/><g class="C"><use href="#F"/><use href="#F" y="97"/><use href="#F" y="165"/></g><g class="E"><path d="M41.012 247.514c-.363 0-.717.117-1.019.337a1.97 1.97 0 0 0-.675.897 2.17 2.17 0 0 0-.104 1.156 2.06 2.06 0 0 0 .502 1.024 1.79 1.79 0 0 0 .939.547 1.69 1.69 0 0 0 1.059-.114c.335-.151.621-.407.823-.736s.309-.716.309-1.111a2.1 2.1 0 0 0-.537-1.415c-.344-.375-.81-.585-1.296-.585zm0 3c-.181 0-.358-.059-.509-.169a.99.99 0 0 1-.338-.449 1.08 1.08 0 0 1-.052-.577c.035-.194.123-.373.251-.512a.89.89 0 0 1 .469-.274.84.84 0 0 1 .53.057c.167.075.311.204.411.368a1.07 1.07 0 0 1 .154.556 1.05 1.05 0 0 1-.268.707.88.88 0 0 1-.648.293zm4.26-.05l-.204-.128a4.96 4.96 0 0 0 0-1.645l.204-.128a1.43 1.43 0 0 0 .404-.386 1.57 1.57 0 0 0 .238-.525 1.64 1.64 0 0 0 .035-.585 1.59 1.59 0 0 0-.172-.554 1.47 1.47 0 0 0-.354-.441c-.143-.12-.307-.208-.481-.259a1.26 1.26 0 0 0-.536-.038 1.28 1.28 0 0 0-.508.188l-.204.128a4.05 4.05 0 0 0-1.306-.821v-.256c0-.398-.145-.78-.403-1.061a1.32 1.32 0 0 0-.972-.439 1.32 1.32 0 0 0-.972.439c-.258.281-.403.663-.403 1.061v.256c-.478.184-.92.463-1.305.823l-.205-.129c-.316-.199-.691-.253-1.044-.15s-.653.355-.835.7a1.62 1.62 0 0 0-.137 1.139 1.49 1.49 0 0 0 .641.911l.203.128a4.96 4.96 0 0 0 0 1.645l-.203.128a1.49 1.49 0 0 0-.641.911 1.62 1.62 0 0 0 .137 1.139 1.4 1.4 0 0 0 .835.699c.352.103.728.05 1.044-.149l.204-.129c.385.359.828.638 1.306.821v.257a1.57 1.57 0 0 0 .403 1.06c.258.282.608.44.972.44s.714-.158.972-.44a1.57 1.57 0 0 0 .403-1.06v-.257c.478-.184.92-.463 1.305-.823l.205.129c.316.199.692.253 1.044.15s.653-.355.835-.7a1.62 1.62 0 0 0 .137-1.139c-.095-.384-.325-.712-.641-.911v.001zm-1.168-1.888a3.84 3.84 0 0 1 0 1.875.55.55 0 0 0 .017.323.49.49 0 0 0 .195.243l.497.313a.5.5 0 0 1 .214.304.54.54 0 0 1-.046.379.47.47 0 0 1-.278.234.43.43 0 0 1-.348-.05l-.498-.314c-.088-.056-.191-.078-.291-.063s-.194.066-.265.145c-.408.455-.922.779-1.486.938a.45.45 0 0 0-.248.178.53.53 0 0 0-.096.306v.627c0 .132-.048.259-.134.353a.44.44 0 0 1-.324.147.44.44 0 0 1-.324-.147c-.086-.094-.134-.221-.134-.353v-.626c0-.111-.034-.219-.096-.307a.46.46 0 0 0-.248-.178c-.565-.159-1.078-.484-1.486-.939-.071-.08-.165-.131-.265-.146a.43.43 0 0 0-.291.063l-.497.314a.44.44 0 0 1-.17.064c-.06.009-.121.005-.179-.012a.45.45 0 0 1-.161-.086c-.048-.04-.088-.091-.119-.148a.53.53 0 0 1-.058-.185.54.54 0 0 1 .012-.196.52.52 0 0 1 .08-.175.46.46 0 0 1 .136-.128l.497-.313a.49.49 0 0 0 .195-.244c.038-.102.045-.216.018-.323a3.84 3.84 0 0 1 0-1.875c.027-.106.02-.22-.018-.322s-.107-.187-.195-.242l-.497-.313a.5.5 0 0 1-.214-.304.54.54 0 0 1 .046-.38.47.47 0 0 1 .278-.233.43.43 0 0 1 .348.05l.498.314a.43.43 0 0 0 .291.064.45.45 0 0 0 .266-.144c.408-.455.922-.779 1.486-.938.099-.028.186-.09.249-.179a.53.53 0 0 0 .096-.307v-.626c0-.133.048-.26.134-.354a.44.44 0 0 1 .324-.146.44.44 0 0 1 .324.146c.086.094.134.221.134.354v.626a.53.53 0 0 0 .096.306c.062.088.15.151.248.178a3.15 3.15 0 0 1 1.486.94c.071.079.165.13.266.145s.203-.007.291-.063l.497-.313c.052-.034.11-.055.17-.064s.121-.005.179.012a.43.43 0 0 1 .161.086.49.49 0 0 1 .118.147.53.53 0 0 1 .058.186c.008.065.004.131-.012.195s-.043.123-.08.175a.48.48 0 0 1-.136.129l-.497.313c-.087.055-.156.14-.194.243a.54.54 0 0 0-.018.321h0zM41.88 415.897a.46.46 0 0 1-.273.588c-.052.02-.105.029-.158.029a.46.46 0 0 1-.43-.301l-3.007-8.22-1.608 4.395h2.066a.46.46 0 0 1 .458.459.46.46 0 0 1-.458.458h-2.402l-.503 1.375h3.821a.46.46 0 0 1 .458.458.46.46 0 0 1-.458.459H35.23l-.226.616a.46.46 0 0 1-.588.272.46.46 0 0 1-.273-.588l3.225-8.815a.91.91 0 0 1-.274-.652c0-.506.41-.917.917-.917s.917.411.917.917a.91.91 0 0 1-.274.652l3.225 8.815zm-6.249-7.634c.341.009.578-.394.396-.688a2.29 2.29 0 0 1-.306-1.145 2.31 2.31 0 0 1 .032-.382.46.46 0 0 0-.376-.528c-.255-.042-.487.126-.528.376a3.27 3.27 0 0 0-.044.534 3.2 3.2 0 0 0 .43 1.605.46.46 0 0 0 .397.228zm4.534-.061a.46.46 0 0 0 .626-.167 3.21 3.21 0 0 0 .43-1.605 3.27 3.27 0 0 0-.044-.534c-.042-.25-.275-.418-.528-.376a.46.46 0 0 0-.376.528 2.31 2.31 0 0 1 .032.382 2.29 2.29 0 0 1-.306 1.145.46.46 0 0 0 .167.627zm.529 1.363c-.193.164-.215.454-.05.646a.46.46 0 0 0 .646.05 5.04 5.04 0 0 0 1.765-3.831 5.11 5.11 0 0 0-.025-.505c-.025-.252-.245-.434-.502-.41a.46.46 0 0 0-.41.502c.014.136.021.273.021.412a4.12 4.12 0 0 1-1.444 3.135v.001zm-5.958.696a.46.46 0 0 0 .646-.05.46.46 0 0 0-.05-.646 4.12 4.12 0 0 1-1.444-3.134 4.11 4.11 0 0 1 .021-.413.46.46 0 0 0-.411-.502c-.254-.025-.477.158-.502.41l-.025.505a5.04 5.04 0 0 0 1.765 3.831l.001-.001zm7.484-68.362v-.927c0-.122-.048-.238-.134-.324a.46.46 0 0 0-.648 0c-.086.086-.134.202-.134.324v.504a2.35 2.35 0 0 0-.458-.046h-.458v-.458c0-.122-.048-.238-.134-.324a.46.46 0 0 0-.648 0c-.086.086-.134.202-.134.324v.458h-.917v-.458c0-.122-.048-.238-.134-.324a.46.46 0 0 0-.648 0c-.086.086-.134.202-.134.324v.458h-.458a2.35 2.35 0 0 0-.458.046v-.504c0-.122-.048-.238-.134-.324a.46.46 0 0 0-.648 0c-.086.086-.134.202-.134.324v.917.01c-.284.212-.514.487-.674.803s-.242.666-.243 1.02v5.5c.001.608.242 1.19.672 1.62a2.3 2.3 0 0 0 1.62.672h3.667a2.3 2.3 0 0 0 1.62-.672c.43-.43.671-1.012.672-1.62v-5.5a2.29 2.29 0 0 0-.243-1.02c-.159-.317-.39-.591-.673-.803zm0 7.323c0 .365-.145.714-.403.972s-.608.403-.972.403h-3.667c-.365 0-.714-.145-.972-.403s-.403-.607-.403-.972v-5.5c0-.365.145-.714.403-.972s.608-.403.972-.403h3.667c.365 0 .714.145.972.403s.403.607.403.972v5.5zm-.917-5.042c0 .122-.048.238-.134.324a.46.46 0 0 1-.324.135h-3.667a.46.46 0 0 1-.324-.135c-.086-.086-.134-.202-.134-.324a.46.46 0 0 1 .458-.458h3.667a.46.46 0 0 1 .458.458zm0 1.834a.46.46 0 0 1-.458.458h-3.667a.46.46 0 0 1-.458-.458c0-.122.048-.238.134-.324a.46.46 0 0 1 .324-.135h3.667a.46.46 0 0 1 .324.135c.086.086.134.202.134.324zm-1.833 1.833c0 .122-.048.238-.134.324a.46.46 0 0 1-.324.134h-1.833a.46.46 0 0 1-.324-.134c-.086-.086-.134-.202-.134-.324s.048-.238.134-.324a.46.46 0 0 1 .324-.134h1.833a.46.46 0 0 1 .324.134c.086.086.134.202.134.324zm-1.042-23.083h-.833c-.69 0-1.25-.504-1.25-1.125v-5.25c0-.622.56-1.125 1.25-1.125h.833c.23 0 .417-.168.417-.375s-.187-.375-.417-.375h-.833c-1.15.001-2.082.84-2.083 1.875v5.25c.001 1.035.933 1.873 2.083 1.875h.833c.23 0 .417-.168.417-.375s-.187-.375-.417-.375z"/><path d="M45.095 320.638l-6.574.012a.77.77 0 0 1 .136-.167l1.616-1.454a.35.35 0 0 0 .01-.531.45.45 0 0 0-.589-.009l-1.627 1.464c-.651.586-.651 1.535 0 2.121l1.616 1.455a.45.45 0 0 0 .589.009.35.35 0 0 0 .01-.531l-1.626-1.463c-.047-.044-.087-.092-.121-.144l6.56-.012c.23 0 .417-.167.417-.375s-.187-.375-.417-.375z"/></g><path d="M56.431 442.022v-.781h5.455v.781h-2.287v6.492h-.881v-6.492h-2.287zm6.134 6.492v-5.455h.81v.824h.057c.099-.27.279-.489.54-.657a1.59 1.59 0 0 1 .881-.252l.231.003.209.011v.852a3.03 3.03 0 0 0-.195-.032 1.99 1.99 0 0 0-.316-.024c-.265 0-.502.055-.71.166a1.26 1.26 0 0 0-.49.455 1.23 1.23 0 0 0-.178.657v3.452h-.838zm3.721 0v-5.455h.838v5.455h-.838zm.426-6.364c-.163 0-.304-.056-.422-.167a.53.53 0 0 1-.174-.401c0-.156.058-.29.174-.401a.59.59 0 0 1 .422-.167.58.58 0 0 1 .419.167.53.53 0 0 1 .178.401.53.53 0 0 1-.178.401c-.116.111-.256.167-.419.167zm4.149 8.523c-.405 0-.753-.052-1.044-.156s-.534-.237-.728-.405a2.23 2.23 0 0 1-.458-.533l.668-.469a5.17 5.17 0 0 0 .288.341 1.47 1.47 0 0 0 .476.338c.201.095.47.145.799.145.44 0 .804-.106 1.09-.319s.43-.547.43-1.002v-1.108h-.071a4.27 4.27 0 0 1-.263.369c-.111.145-.272.274-.483.388s-.49.166-.845.166a2.28 2.28 0 0 1-1.186-.312c-.348-.208-.624-.511-.827-.909s-.302-.881-.302-1.449c0-.559.098-1.045.295-1.46s.47-.738.82-.965.755-.345 1.215-.345c.355 0 .637.059.845.178s.372.248.483.397l.263.363h.085v-.867h.81v5.611c0 .469-.106.85-.32 1.143s-.495.513-.852.65-.75.21-1.186.21zm-.028-2.997c.336 0 .62-.077.852-.231s.408-.375.529-.664.181-.635.181-1.037a2.83 2.83 0 0 0-.178-1.041 1.56 1.56 0 0 0-.526-.706c-.232-.171-.518-.256-.859-.256-.355 0-.651.09-.888.27a1.62 1.62 0 0 0-.529.724 2.8 2.8 0 0 0-.174 1.009 2.65 2.65 0 0 0 .178 1.005 1.54 1.54 0 0 0 .533.682c.237.163.53.245.881.245zm6.122 2.997c-.405 0-.753-.052-1.044-.156a2.22 2.22 0 0 1-.728-.405 2.21 2.21 0 0 1-.458-.533l.668-.469a5.2 5.2 0 0 0 .288.341 1.47 1.47 0 0 0 .476.338c.201.095.47.145.799.145.44 0 .804-.106 1.09-.319s.43-.547.43-1.002v-1.108h-.071c-.062.1-.149.223-.263.369a1.49 1.49 0 0 1-.483.388c-.208.111-.49.166-.845.166-.44 0-.836-.104-1.186-.312a2.17 2.17 0 0 1-.827-.909c-.203-.398-.302-.881-.302-1.449 0-.559.098-1.045.295-1.46s.47-.738.82-.965.755-.345 1.215-.345c.355 0 .637.059.845.178a1.48 1.48 0 0 1 .483.397l.263.363h.085v-.867h.81v5.611c0 .469-.107.85-.32 1.143a1.85 1.85 0 0 1-.852.65c-.357.137-.75.21-1.186.21zm-.028-2.997c.336 0 .62-.077.852-.231s.408-.375.529-.664.181-.635.181-1.037a2.83 2.83 0 0 0-.178-1.041 1.56 1.56 0 0 0-.525-.706c-.232-.171-.519-.256-.859-.256-.355 0-.651.09-.888.27a1.62 1.62 0 0 0-.529.724 2.8 2.8 0 0 0-.174 1.009c0 .379.059.714.177 1.005a1.54 1.54 0 0 0 .533.682c.237.163.53.245.881.245zm6.207.951c-.526 0-.979-.116-1.36-.348s-.671-.561-.877-.98-.305-.911-.305-1.47.102-1.051.305-1.477.492-.763.859-1.002.8-.362 1.293-.362a2.58 2.58 0 0 1 .842.142 2.09 2.09 0 0 1 .756.462c.227.21.408.49.543.838s.202.776.202 1.285v.355h-4.204v-.724h3.352a1.79 1.79 0 0 0-.185-.824c-.121-.241-.294-.432-.518-.572s-.485-.209-.788-.209c-.334 0-.623.083-.867.249a1.63 1.63 0 0 0-.558.639 1.88 1.88 0 0 0-.195.845v.483c0 .412.071.761.213 1.047a1.53 1.53 0 0 0 .6.65c.256.147.553.22.891.22.22 0 .419-.03.597-.092a1.27 1.27 0 0 0 .465-.284 1.29 1.29 0 0 0 .302-.476l.81.227a1.78 1.78 0 0 1-.43.725c-.202.208-.45.367-.746.483a2.78 2.78 0 0 1-.998.17zm3.533-.113v-5.455h.81v.824h.057a1.31 1.31 0 0 1 .54-.657 1.59 1.59 0 0 1 .881-.252l.231.003.209.011v.852a3.03 3.03 0 0 0-.195-.032 1.99 1.99 0 0 0-.316-.024c-.265 0-.502.055-.71.166a1.26 1.26 0 0 0-.49.455 1.23 1.23 0 0 0-.178.657v3.452h-.838zm-25.861 29.545c-.043-.36-.215-.639-.518-.838s-.675-.298-1.115-.298a2.12 2.12 0 0 0-.845.156 1.33 1.33 0 0 0-.561.43c-.135.183-.199.389-.199.621 0 .194.046.361.139.501s.215.252.362.344a2.58 2.58 0 0 0 .462.224l.444.139.739.198a6.72 6.72 0 0 1 .632.206c.232.087.458.208.671.359a1.83 1.83 0 0 1 .533.575c.14.235.209.522.209.863a1.92 1.92 0 0 1-.309 1.066c-.204.317-.502.569-.895.756s-.865.281-1.424.281c-.521 0-.972-.085-1.353-.253a2.14 2.14 0 0 1-.895-.703 1.99 1.99 0 0 1-.366-1.047h.909c.024.274.116.502.277.681a1.49 1.49 0 0 0 .618.398 2.51 2.51 0 0 0 .81.128c.336 0 .638-.054.906-.163s.479-.265.636-.462.234-.431.234-.696c0-.241-.067-.438-.202-.589a1.49 1.49 0 0 0-.533-.37 5.58 5.58 0 0 0-.714-.248l-.895-.256c-.568-.163-1.018-.397-1.349-.7s-.497-.699-.497-1.189c0-.407.11-.763.33-1.066s.521-.542.895-.71a3.03 3.03 0 0 1 1.261-.255c.469 0 .885.084 1.25.252a2.16 2.16 0 0 1 .867.681 1.7 1.7 0 0 1 .341.984h-.852zm3.891 5.583a2.22 2.22 0 0 1-.941-.196 1.61 1.61 0 0 1-.671-.572c-.166-.25-.248-.554-.248-.909 0-.312.062-.565.185-.76a1.31 1.31 0 0 1 .494-.461 2.62 2.62 0 0 1 .682-.249l.756-.135.806-.096c.208-.023.36-.062.455-.117s.146-.149.146-.284v-.028c0-.351-.096-.623-.288-.817s-.477-.291-.863-.291c-.4 0-.714.087-.941.263a1.55 1.55 0 0 0-.479.561l-.795-.284c.142-.332.331-.59.568-.775a2.14 2.14 0 0 1 .781-.39c.281-.073.563-.114.838-.114a3.3 3.3 0 0 1 .604.064 2 2 0 0 1 .664.252c.213.128.394.321.536.579s.213.604.213 1.037v3.594h-.838v-.739h-.043c-.057.118-.151.245-.284.38s-.309.25-.529.344a2.05 2.05 0 0 1-.806.143zm.128-.753c.331 0 .611-.065.838-.196a1.35 1.35 0 0 0 .518-.504c.116-.206.178-.422.178-.65v-.767c-.035.043-.114.082-.234.117a3.6 3.6 0 0 1-.412.089l-.451.064-.352.043c-.218.028-.421.074-.611.138s-.338.155-.454.281-.171.291-.171.504c0 .291.108.511.323.661s.494.22.827.22zm3.902.625v-5.455h.81v.852h.071a1.37 1.37 0 0 1 .55-.678c.253-.163.557-.245.913-.245s.659.082.898.245a1.6 1.6 0 0 1 .565.678h.057c.14-.281.349-.505.629-.671s.614-.252 1.005-.252c.488 0 .887.153 1.197.458s.465.776.465 1.417v3.651h-.838v-3.651c0-.402-.11-.69-.33-.863a1.22 1.22 0 0 0-.778-.259c-.383 0-.681.116-.891.348s-.316.521-.316.874v3.551h-.852v-3.736a.98.98 0 0 0-.302-.749 1.08 1.08 0 0 0-.778-.288 1.15 1.15 0 0 0-.611.174c-.187.116-.339.277-.455.483s-.17.439-.17.707v3.409h-.838zm8.691 2.045v-7.5h.81v.867h.099l.256-.363a1.5 1.5 0 0 1 .476-.397c.208-.119.49-.178.845-.178.459 0 .864.115 1.215.345s.624.555.82.976.295.919.295 1.492-.098 1.078-.295 1.502-.469.748-.817.98a2.14 2.14 0 0 1-1.204.344c-.35 0-.631-.058-.842-.174s-.373-.252-.487-.401l-.263-.376h-.071v2.883h-.838zm.824-4.773c0 .412.06.776.181 1.091a1.65 1.65 0 0 0 .529.735c.232.175.516.262.852.262.35 0 .643-.092.877-.277a1.69 1.69 0 0 0 .533-.752 2.96 2.96 0 0 0 .181-1.059 2.86 2.86 0 0 0-.178-1.037c-.119-.308-.292-.555-.529-.735s-.529-.273-.884-.273c-.341 0-.627.086-.859.259a1.56 1.56 0 0 0-.526.718c-.118.305-.177.661-.177 1.068zm6.108-4.545v7.273h-.838v-7.273h.838zm1.535 7.273v-5.455h.838v5.455h-.838zm.426-6.364c-.163 0-.304-.056-.422-.167a.53.53 0 0 1-.174-.401c0-.156.058-.29.174-.401a.59.59 0 0 1 .422-.167.58.58 0 0 1 .419.167.53.53 0 0 1 .177.401.53.53 0 0 1-.177.401c-.116.111-.256.167-.419.167zm2.785 3.082v3.282h-.838v-5.455h.81v.852h.071a1.56 1.56 0 0 1 .582-.667c.26-.168.597-.256 1.008-.256a1.99 1.99 0 0 1 .969.227c.276.151.492.377.646.682s.231.687.231 1.151v3.466h-.838v-3.409c0-.429-.111-.763-.334-1.002s-.528-.362-.916-.362a1.46 1.46 0 0 0-.717.174c-.21.116-.373.285-.494.508s-.181.492-.181.809zm7.213 5.441c-.405 0-.753-.052-1.044-.156a2.22 2.22 0 0 1-.728-.405 2.23 2.23 0 0 1-.458-.533l.668-.469a5.17 5.17 0 0 0 .288.341 1.47 1.47 0 0 0 .476.338c.201.095.47.145.799.145.44 0 .804-.106 1.09-.319s.43-.547.43-1.002v-1.108h-.071a4.27 4.27 0 0 1-.263.369c-.111.145-.272.274-.483.388s-.49.166-.845.166a2.28 2.28 0 0 1-1.186-.312c-.348-.208-.624-.511-.827-.909s-.302-.881-.302-1.449c0-.559.098-1.045.295-1.46s.47-.738.82-.965.755-.345 1.215-.345c.355 0 .637.059.845.178a1.48 1.48 0 0 1 .483.397l.263.363h.085v-.867h.81v5.611c0 .469-.106.85-.32 1.143s-.495.513-.852.65-.75.21-1.186.21zm-.028-2.997c.336 0 .62-.077.852-.231s.408-.375.529-.664.181-.635.181-1.037a2.83 2.83 0 0 0-.178-1.041 1.56 1.56 0 0 0-.526-.706c-.232-.171-.518-.256-.859-.256-.355 0-.651.09-.888.27a1.62 1.62 0 0 0-.529.724 2.8 2.8 0 0 0-.174 1.009 2.65 2.65 0 0 0 .178 1.005 1.54 1.54 0 0 0 .533.682c.237.163.53.245.881.245z" class="D"/><g class="C"><use href="#G"/><use href="#G" y="35"/></g><path d="M41.448 449.514a2.19 2.19 0 0 1-1.5-.613 2.17 2.17 0 0 1-3 0 2.17 2.17 0 0 1-3 0 2.09 2.09 0 0 1-2.834.1.5.5 0 0 1 .307-.872c.133-.007.262.039.361.127.131.106.285.18.449.216a1.09 1.09 0 0 0 1.245-.624.51.51 0 0 1 .182-.244.5.5 0 0 1 .58 0 .51.51 0 0 1 .183.244c.093.194.238.358.42.472s.392.176.607.176.425-.061.607-.176.328-.278.42-.472a.5.5 0 0 1 .184-.239c.084-.06.185-.091.288-.091s.204.031.288.091a.5.5 0 0 1 .184.239c.093.194.238.358.42.472s.392.176.607.176.425-.061.607-.176.328-.278.42-.472a.51.51 0 0 1 .184-.239.5.5 0 0 1 .288-.09.5.5 0 0 1 .288.09c.084.059.149.143.184.239a1.09 1.09 0 0 0 .746.621 1.1 1.1 0 0 0 .498.004 1.11 1.11 0 0 0 .449-.216c.049-.045.106-.08.168-.102a.51.51 0 0 1 .194-.03.51.51 0 0 1 .191.048c.06.028.113.069.158.118a.5.5 0 0 1 .127.364.5.5 0 0 1-.05.19.49.49 0 0 1-.12.156 2 2 0 0 1-1.334.513zm0-2.5a2.19 2.19 0 0 1-1.5-.613 2.17 2.17 0 0 1-3 0 2.17 2.17 0 0 1-3 0 2.09 2.09 0 0 1-2.834.1.5.5 0 0 1 .307-.872c.133-.007.262.039.361.127.131.106.285.18.449.216a1.09 1.09 0 0 0 1.245-.624.51.51 0 0 1 .184-.239.5.5 0 0 1 .288-.09.5.5 0 0 1 .288.09c.084.059.149.143.184.239.093.194.238.358.42.472s.392.176.607.176.425-.061.607-.176.328-.278.42-.472a.5.5 0 0 1 .184-.239c.084-.06.185-.091.288-.091s.204.031.288.091a.5.5 0 0 1 .184.239c.093.194.238.358.42.472s.392.176.607.176.425-.061.607-.176.328-.278.42-.472a.51.51 0 0 1 .182-.244.5.5 0 0 1 .58 0 .51.51 0 0 1 .183.244 1.09 1.09 0 0 0 .746.621 1.1 1.1 0 0 0 .498.004 1.11 1.11 0 0 0 .449-.216c.049-.045.106-.08.168-.102a.51.51 0 0 1 .194-.03.51.51 0 0 1 .191.048c.06.028.113.069.158.118a.5.5 0 0 1 .127.364.5.5 0 0 1-.05.19.49.49 0 0 1-.12.156 2 2 0 0 1-1.334.513zm-2.647-7.854l-1.5-1.5a.5.5 0 0 0-.707 0l-1.5 1.5a.5.5 0 0 0 .354.854c.133 0 .26-.053.354-.146l.648-.647v3.793a.5.5 0 1 0 1 0v-3.793l.65.647a.5.5 0 0 0 .352.14c.131-.002.256-.054.349-.147a.5.5 0 0 0 .006-.701h-.004z" class="E"/><path stroke="#f2f2f2" d="M27.948 464.264h211" class="B"/><path d="M41.166 478.421c.089.09.207.134.324.134s.235-.044.324-.134a.46.46 0 0 0 0-.648l-4.125-4.125a.46.46 0 0 0-.648 0 .46.46 0 0 0 0 .648l.442.442-5.863 5.863a2.28 2.28 0 0 0 0 3.242c.433.433 1.008.671 1.62.671a2.28 2.28 0 0 0 1.62-.671l5.863-5.864.442.443v-.001zm-6.954 4.774a1.41 1.41 0 0 1-1.944 0c-.536-.537-.536-1.409 0-1.945l3.581-3.581 1.945 1.945-3.581 3.581h0zm4.229-4.229l-1.945-1.945 1.635-1.634 1.945 1.944-1.635 1.635zm2.386 1.713c-.391-.383-1.031-.383-1.424 0-.011.011-.584.706-.584.706a1.82 1.82 0 0 0 0 2.592 1.82 1.82 0 0 0 1.296.537 1.82 1.82 0 0 0 1.833-1.833 1.79 1.79 0 0 0-.508-1.265l-.613-.737h0zm-.064 2.65a.94.94 0 0 1-1.296 0 .91.91 0 0 1-.269-.648c0-.245.095-.475.297-.68l.559-.675a.1.1 0 0 1 .121 0l.588.707a.91.91 0 0 1 0 1.296z" class="E"/><path d="M55.294 189.514v-7.273h2.457c.568 0 1.035.097 1.399.291a1.86 1.86 0 0 1 .81.792c.175.336.263.719.263 1.147a2.4 2.4 0 0 1-.263 1.14c-.175.331-.444.592-.806.781s-.825.281-1.389.281h-1.989v-.796h1.96c.388 0 .701-.057.938-.17a1.08 1.08 0 0 0 .519-.483c.109-.211.163-.462.163-.753s-.054-.546-.163-.763-.283-.386-.522-.505-.555-.181-.948-.181h-1.548v6.492h-.881zm3.423-3.267l1.79 3.267h-1.023l-1.761-3.267h.994zm5.088 3.38c-.526 0-.979-.116-1.36-.348s-.671-.561-.877-.98-.305-.911-.305-1.47.102-1.051.305-1.477.492-.763.859-1.002.8-.362 1.293-.362c.284 0 .565.047.842.142a2.09 2.09 0 0 1 .756.462c.227.21.408.49.543.838s.202.776.202 1.285v.355h-4.205v-.724h3.352c0-.308-.062-.582-.185-.824s-.293-.432-.518-.572-.485-.209-.788-.209c-.334 0-.623.083-.867.249a1.63 1.63 0 0 0-.558.639c-.13.263-.195.544-.195.845v.483c0 .412.071.761.213 1.047a1.53 1.53 0 0 0 .6.65c.256.147.553.22.891.22a1.8 1.8 0 0 0 .596-.092 1.27 1.27 0 0 0 .465-.284c.13-.128.231-.286.302-.476l.81.227a1.79 1.79 0 0 1-.43.725c-.201.206-.45.367-.746.483a2.78 2.78 0 0 1-.998.17zm3.533-.113v-5.455h.81v.852h.071a1.37 1.37 0 0 1 .55-.678c.253-.163.558-.245.913-.245s.659.082.898.245.43.387.565.678h.057c.14-.281.349-.505.629-.671s.614-.252 1.005-.252c.488 0 .887.153 1.197.458s.465.776.465 1.417v3.651h-.838v-3.651c0-.402-.11-.69-.33-.863a1.22 1.22 0 0 0-.778-.259c-.383 0-.681.116-.891.348s-.316.521-.316.874v3.551h-.852v-3.736c0-.31-.101-.56-.302-.749a1.08 1.08 0 0 0-.778-.288 1.15 1.15 0 0 0-.611.174c-.187.116-.338.277-.454.483s-.171.439-.171.707v3.409h-.838zm8.691 0v-5.455h.838v5.455h-.838zm.426-6.364c-.163 0-.304-.056-.423-.167s-.174-.245-.174-.401.058-.29.174-.401.259-.167.423-.167a.58.58 0 0 1 .419.167.53.53 0 0 1 .178.401.53.53 0 0 1-.178.401c-.116.111-.256.167-.419.167zm2.785 3.082v3.282h-.838v-5.455h.81v.852h.071c.128-.277.322-.499.582-.667s.597-.256 1.008-.256c.369 0 .693.076.969.227s.492.377.646.682.231.687.231 1.151v3.466h-.838v-3.409c0-.429-.111-.763-.334-1.002s-.528-.362-.916-.362c-.268 0-.507.058-.717.174a1.24 1.24 0 0 0-.494.508c-.121.222-.181.492-.181.809zm5.011 3.282v-5.455h.838v5.455h-.838zm.426-6.364c-.163 0-.304-.056-.423-.167s-.174-.245-.174-.401.058-.29.174-.401.259-.167.423-.167a.58.58 0 0 1 .419.167.53.53 0 0 1 .177.401.53.53 0 0 1-.177.401c-.116.111-.256.167-.419.167zm5.811 2.131l-.753.213a1.38 1.38 0 0 0-.209-.366 1.01 1.01 0 0 0-.369-.298c-.156-.078-.356-.117-.6-.117-.334 0-.612.076-.835.23s-.33.345-.33.579c0 .209.076.373.227.494s.388.221.71.302l.81.199c.488.118.851.299 1.09.543s.359.553.359.934c0 .312-.09.592-.27.838a1.79 1.79 0 0 1-.746.582c-.32.142-.691.213-1.115.213-.556 0-1.017-.12-1.381-.362s-.595-.594-.692-1.058l.795-.199c.076.294.219.514.43.661s.491.22.835.22c.391 0 .701-.083.93-.249s.348-.369.348-.604a.63.63 0 0 0-.199-.475c-.133-.131-.336-.228-.611-.292l-.909-.213c-.499-.118-.867-.302-1.101-.55s-.348-.565-.348-.941a1.35 1.35 0 0 1 .259-.817c.175-.237.413-.423.714-.557s.646-.203 1.03-.203c.54 0 .963.118 1.271.355s.53.549.66.938zm3.577 4.346c-.511 0-.952-.12-1.321-.362s-.653-.574-.852-.998-.298-.908-.298-1.452c0-.554.102-1.043.305-1.467s.492-.759.859-.998.8-.362 1.293-.362c.383 0 .729.071 1.037.213s.56.341.756.597.318.554.366.895h-.838a1.3 1.3 0 0 0-.426-.661c-.218-.194-.511-.291-.881-.291-.327 0-.613.085-.859.256s-.434.406-.572.713-.203.664-.203 1.076a2.8 2.8 0 0 0 .199 1.101c.135.313.324.555.568.728s.535.259.867.259c.218 0 .415-.037.593-.113s.328-.185.451-.327a1.25 1.25 0 0 0 .263-.511h.838a1.94 1.94 0 0 1-.352.87c-.185.255-.43.459-.735.611s-.656.223-1.058.223zm5.657 0c-.525 0-.979-.116-1.36-.348s-.671-.561-.877-.98-.305-.911-.305-1.47.102-1.051.305-1.477.492-.763.859-1.002.8-.362 1.293-.362c.284 0 .564.047.841.142a2.1 2.1 0 0 1 .757.462c.227.21.408.49.543.838s.202.776.202 1.285v.355h-4.204v-.724h3.352a1.79 1.79 0 0 0-.184-.824 1.4 1.4 0 0 0-.519-.572c-.222-.139-.485-.209-.788-.209-.334 0-.623.083-.867.249a1.63 1.63 0 0 0-.557.639c-.13.263-.195.544-.195.845v.483c0 .412.071.761.213 1.047s.345.501.6.65.553.22.891.22c.22 0 .419-.03.597-.092s.335-.158.465-.284a1.29 1.29 0 0 0 .302-.476l.809.227a1.79 1.79 0 0 1-.429.725 2.1 2.1 0 0 1-.746.483c-.296.113-.629.17-.998.17z" class="D"/><path d="M38.413 179.514a4.99 4.99 0 0 0-3.333 1.28v-.864c0-.11-.044-.216-.122-.294s-.184-.122-.295-.122-.217.044-.295.122-.122.184-.122.294v1.25a1.25 1.25 0 0 0 1.25 1.25h1.25c.111 0 .216-.044.295-.122s.122-.184.122-.294-.044-.217-.122-.295-.184-.122-.295-.122h-1.25a.3.3 0 0 1-.042-.009 4.16 4.16 0 0 1 5.257-.533 4.16 4.16 0 0 1 1.542 5.054 4.16 4.16 0 0 1-1.883 2.08c-.85.455-1.831.601-2.776.412s-1.796-.698-2.406-1.444a4.16 4.16 0 0 1-.942-2.643c0-.111-.044-.217-.122-.295s-.184-.122-.295-.122-.216.044-.295.122-.122.184-.122.295a5 5 0 0 0 .843 2.778c.549.822 1.33 1.463 2.244 1.841s1.919.478 2.889.285 1.861-.67 2.56-1.369a5 5 0 0 0 1.084-5.449c-.378-.913-1.019-1.694-1.842-2.244a5 5 0 0 0-2.778-.842z" class="E"/><path d="M217.346 189.014l-.532-.5 3.135-2.925-3.135-2.925.532-.5 3.665 3.425-3.665 3.425z" class="C"/><path d="M250.246 322.746c0-2.062-1.672-3.733-3.734-3.733s-3.733 1.671-3.733 3.733 1.671 3.733 3.733 3.733 3.734-1.671 3.734-3.733zm56.907 0v-.7h-60.641v.7.7h60.641v-.7z" fill="url(#D)"/><g filter="url(#B)"><rect x="307.153" y="257.3" width="304" height="128.428" rx="7" fill="#fff"/></g><path d="M337.577 328.824v-9.953h3.24c1.067 0 1.889.267 2.468.8s.868 1.242.868 2.126-.289 1.599-.868 2.146-1.401.821-2.468.821h-1.927v4.06h-1.313zm1.313-5.127h1.927c.757 0 1.283-.184 1.579-.553s.445-.818.445-1.347-.148-.971-.445-1.326-.822-.533-1.579-.533h-1.927v3.759zm4.334 5.127l-2.434-4.594 1.299-.198 2.598 4.792h-1.463zm2.351-2.72v-.083h1.313v.083c0 .601.202 1.052.608 1.353s.973.451 1.702.451 1.288-.155 1.675-.465a1.48 1.48 0 0 0 .581-1.216c0-.456-.189-.821-.567-1.094s-1.083-.561-2.126-.862c-1.085-.314-1.853-.681-2.304-1.1s-.677-1.023-.677-1.798.296-1.42.889-1.935 1.413-.772 2.461-.772 1.882.271 2.502.813a2.63 2.63 0 0 1 .93 2.072v.082h-1.313v-.082c0-.529-.178-.955-.533-1.279s-.884-.485-1.586-.485-1.219.139-1.552.417-.499.656-.499 1.135a1.2 1.2 0 0 0 .513 1.025c.342.251 1.046.527 2.112.827s1.841.677 2.324 1.128.725 1.087.725 1.908a2.49 2.49 0 0 1-.957 2.016c-.638.524-1.504.786-2.598.786s-1.971-.262-2.632-.786-.991-1.237-.991-2.139zm12.674 2.72v-2.72-.356-4.778h-.082l-3.028 4.436h3.459.526 1.75v1.08h-7.232v-.861l4.662-6.754h1.175v9.953h-1.23zm3.664-2.638c0-.593.162-1.099.485-1.518.329-.424.748-.738 1.258-.943v-.028c-.392-.196-.729-.492-1.011-.888s-.417-.869-.417-1.415c0-.821.282-1.479.847-1.976s1.265-.752 2.085-.752 1.511.248 2.071.745c.566.492.848 1.153.848 1.983 0 .546-.139 1.018-.417 1.415a2.7 2.7 0 0 1-1.005.888v.028c.511.205.928.519 1.251.943s.486.925.486 1.518c0 .902-.313 1.601-.937 2.098s-1.385.745-2.297.745-1.681-.248-2.31-.745-.937-1.196-.937-2.098zm1.285-.069c0 .547.178.989.533 1.326s.837.506 1.429.506 1.064-.168 1.415-.506.533-.779.533-1.326-.177-.991-.533-1.333-.822-.513-1.415-.513-1.069.171-1.429.513-.533.786-.533 1.333zm.287-4.655c0 .501.153.916.458 1.244s.716.485 1.217.485.902-.161 1.203-.485.458-.743.458-1.244-.152-.912-.458-1.231-.702-.485-1.203-.485-.907.162-1.217.485-.458.73-.458 1.231zm6.303 4.867v-.068h1.258v.068c0 .501.178.898.533 1.19s.83.43 1.422.43 1.078-.2 1.456-.601.567-.973.567-1.702-.189-1.286-.567-1.668-.864-.575-1.456-.575c-.41 0-.772.076-1.087.226a3.09 3.09 0 0 0-.882.629l-.902-.424.506-4.963h5.168v1.162h-4.102l-.301 2.803a4.16 4.16 0 0 1 .8-.362c.306-.105.64-.158 1.005-.158.866 0 1.602.294 2.208.882s.909 1.399.909 2.448-.314 1.875-.943 2.481-1.422.902-2.379.902c-1.021 0-1.812-.255-2.372-.765a2.51 2.51 0 0 1-.841-1.935zm70.85-46.399v-1.422h8.883v1.422h-3.547v9.953h-1.789v-9.953h-3.547zm8.695 13.203l.008-1.383c.135.042.284.076.445.102.167.026.326.039.477.039.359 0 .672-.131.937-.391.271-.26.539-.81.805-1.648l-.031-.008-3.094-8.141h1.711l1.851 5.188.18.57.133.5h.047l.148-.5.172-.57 1.75-5.188h1.602l-3.336 9.227c-.276.76-.641 1.343-1.094 1.75s-1.008.609-1.664.609a3.78 3.78 0 0 1-.578-.039c-.167-.026-.323-.065-.469-.117zm8.219.008v-11.438h1.594l.054 1.024h.047c.193-.329.503-.607.93-.836s.916-.344 1.469-.344c1.041 0 1.875.383 2.5 1.148s.945 1.756.945 2.969v.25c0 1.214-.313 2.206-.938 2.977-.625.765-1.453 1.148-2.484 1.148-.552 0-1.031-.096-1.438-.289s-.721-.461-.945-.789v4.18h-1.734zm1.734-5.782c.146.344.388.649.727.914s.758.399 1.242.399c.708 0 1.229-.253 1.562-.758.339-.51.508-1.161.508-1.953v-.336c0-.792-.169-1.44-.508-1.945-.333-.511-.856-.766-1.57-.766-.484 0-.896.133-1.234.398s-.576.56-.727.899v3.148zm7.063-1.445v-.25c0-1.24.351-2.247 1.054-3.023.703-.782 1.625-1.172 2.766-1.172s2.023.364 2.648 1.093.938 1.714.938 2.969v.664h-6.305v-1.242h4.578v-.18c.006-.541-.151-1.002-.468-1.382-.313-.386-.766-.579-1.36-.579-.703 0-1.232.266-1.586.797s-.523 1.203-.523 2.016v.328c0 .813.187 1.485.562 2.016s.946.797 1.711.797c.495 0 .92-.112 1.274-.336s.64-.487.859-.789l1.172.836c-.26.427-.675.807-1.242 1.14s-1.245.5-2.047.5c-1.287 0-2.281-.388-2.984-1.164s-1.047-1.794-1.047-3.039z" class="D"/><path d="M307.153 343.21h304m-304-40.642h304" stroke="#e3e3e3" class="B"/><path d="M336.415 367.84l3.787-10.022h1.176l3.787 10.022h-1.367l-2.735-7.52-.143-.437-.109-.438h-.069l-.109.438-.144.437-2.761 7.52h-1.313zm1.627-2.598l.403-1.08h4.676l.397 1.08h-5.476zm8.135 2.598v-7.192h1.148l.055.923h.041a2.79 2.79 0 0 1 .95-.772c.378-.192.795-.287 1.251-.287.725 0 1.301.207 1.73.622.433.41.649 1.098.649 2.064v4.642h-1.272v-4.655c0-.575-.129-.985-.389-1.231-.255-.251-.62-.376-1.094-.376-.406 0-.763.11-1.073.328s-.552.502-.725.848v5.086h-1.271zm7.383-2.119c0-.729.289-1.297.868-1.702s1.315-.609 2.208-.609h1.627v-.492c0-.433-.112-.784-.335-1.053s-.609-.41-1.156-.41-.938.114-1.175.342c-.233.223-.349.483-.349.779v.034h-1.265v-.034c0-.569.253-1.066.759-1.49s1.199-.643 2.065-.643 1.535.208 2.009.622c.479.415.718 1.033.718 1.853v3.281c0 .296.023.577.069.841a3.31 3.31 0 0 0 .191.69v.11h-1.231c-.063-.114-.123-.262-.177-.444a2.92 2.92 0 0 1-.096-.547c-.169.296-.442.558-.82.786s-.857.342-1.449.342c-.684 0-1.265-.194-1.744-.581s-.717-.946-.717-1.675zm1.271-.069c0 .41.119.732.356.964s.606.349 1.107.349.955-.173 1.36-.52.609-.713.609-1.1v-1.033h-1.491c-.638 0-1.121.121-1.449.363a1.15 1.15 0 0 0-.492.977zm6.74 2.188v-10.5h1.272v10.5h-1.272zm2.919-3.486v-.219c0-1.085.308-1.971.923-2.659s1.438-1.033 2.468-1.033 1.852.344 2.468 1.033.922 1.574.922 2.659v.219c0 1.084-.307 1.971-.922 2.659s-1.438 1.032-2.468 1.032-1.853-.344-2.468-1.032-.923-1.575-.923-2.659zm1.299-.219v.219c0 .742.176 1.371.526 1.886s.873.766 1.566.766 1.214-.255 1.565-.766.527-1.144.527-1.886v-.219c0-.743-.176-1.37-.527-1.88s-.872-.773-1.565-.773-1.215.258-1.566.773-.526 1.137-.526 1.88zm6.911 5.646l.8-.957c.201.233.483.438.848.615a2.7 2.7 0 0 0 1.23.274c.615 0 1.101-.176 1.456-.526s.533-.846.533-1.484v-.711c-.209.296-.492.536-.847.718s-.777.267-1.279.267c-.911 0-1.64-.342-2.187-1.026s-.82-1.549-.82-2.597v-.219c0-1.048.273-1.914.82-2.598s1.276-1.025 2.187-1.025c.502 0 .939.105 1.313.314s.658.463.841.759h.041l.054-.937h1.149v7.055c0 1.003-.299 1.773-.896 2.311s-1.374.806-2.331.806c-.592 0-1.139-.098-1.64-.294s-.925-.444-1.272-.745zm1.032-5.427c0 .729.16 1.342.479 1.838s.82.746 1.504.746c.456 0 .843-.126 1.162-.376s.549-.536.69-.855v-2.926a2.24 2.24 0 0 0-.69-.854c-.319-.251-.706-.376-1.162-.376-.684 0-1.185.248-1.504.745s-.479 1.11-.479 1.839v.219z" class="D"/><circle cx="572.136" cy="361.077" r="3.251" fill="#fb1c2e"/><defs><filter id="A" x="10.948" y="12" width="228" height="64" filterUnits="userSpaceOnUse" class="F"><feFlood flood-opacity="0" result="A"/><feColorMatrix in="SourceAlpha" values="0 0 0 0 0 0 0 0 0 0 0 0 0 0 0 0 0 0 127 0" result="B"/><feMorphology radius="1" operator="dilate" in="SourceAlpha"/><feOffset dy="1"/><feGaussianBlur stdDeviation="2.5"/><feComposite in2="B" operator="out"/><feColorMatrix values="0 0 0 0 0 0 0 0 0 0 0 0 0 0 0 0 0 0 0.1 0"/><feBlend in2="A"/><feBlend in="SourceGraphic"/></filter><filter id="B" x="297.153" y="251.3" width="324" height="148.428" filterUnits="userSpaceOnUse" class="F"><feFlood flood-opacity="0" result="A"/><feColorMatrix in="SourceAlpha" values="0 0 0 0 0 0 0 0 0 0 0 0 0 0 0 0 0 0 127 0" result="B"/><feOffset dy="4"/><feGaussianBlur stdDeviation="5"/><feComposite in2="B" operator="out"/><feColorMatrix values="0 0 0 0 0 0 0 0 0 0 0 0 0 0 0 0 0 0 0.25 0"/><feBlend in2="A"/><feBlend in="SourceGraphic"/></filter><linearGradient id="C" x1="128.948" y1="0" x2="128.948" y2="533" gradientUnits="userSpaceOnUse"><stop stop-color="#2f67ff"/><stop offset="1" stop-color="#ff5f9b"/></linearGradient><linearGradient id="D" x1="246.512" y1="321.946" x2="307.153" y2="321.946" gradientUnits="userSpaceOnUse"><stop stop-color="#2f67ff"/><stop offset="1" stop-color="#c262b8"/></linearGradient><path id="E" d="M37.32 57.525v.823"/><path id="F" d="M219.444 254.014l-.531-.5 3.134-2.925-3.134-2.925.531-.5 3.666 3.425-3.666 3.425z"/><path id="G" d="M218.881 449.014l-.531-.5 3.134-2.925-3.134-2.925.531-.5 3.665 3.425-3.665 3.425z"/></defs></svg>