<svg width="900" height="900" viewBox="0 0 900 900" fill="none" xmlns="http://www.w3.org/2000/svg">
<rect width="900" height="900" rx="51" fill="white"/>
<path d="M314.985 752.511C314.045 752.504 313.128 752.341 312.233 752.022C311.338 751.696 310.533 751.168 309.817 750.44C309.101 749.705 308.532 748.73 308.11 747.515C307.688 746.294 307.48 744.783 307.487 742.98C307.487 741.299 307.666 739.8 308.024 738.483C308.382 737.167 308.896 736.054 309.567 735.147C310.239 734.233 311.047 733.536 311.993 733.056C312.946 732.577 314.01 732.337 315.186 732.337C316.42 732.337 317.513 732.58 318.465 733.066C319.424 733.552 320.197 734.217 320.785 735.06C321.374 735.898 321.738 736.844 321.878 737.898L318.379 737.898C318.2 737.144 317.832 736.543 317.276 736.096C316.727 735.642 316.03 735.415 315.186 735.415C313.825 735.415 312.776 736.006 312.041 737.189C311.312 738.371 310.945 739.995 310.939 742.06L311.073 742.06C311.386 741.497 311.792 741.015 312.29 740.612C312.789 740.209 313.352 739.899 313.978 739.682C314.611 739.458 315.279 739.346 315.982 739.346C317.132 739.346 318.165 739.621 319.079 740.171C319.999 740.721 320.728 741.478 321.265 742.443C321.802 743.402 322.067 744.501 322.061 745.741C322.067 747.033 321.773 748.193 321.179 749.222C320.584 750.245 319.756 751.05 318.695 751.638C317.634 752.226 316.397 752.517 314.985 752.511ZM314.965 749.634C315.662 749.634 316.285 749.465 316.835 749.126C317.385 748.787 317.82 748.33 318.139 747.755C318.459 747.18 318.615 746.534 318.609 745.818C318.615 745.115 318.462 744.479 318.149 743.91C317.842 743.341 317.417 742.891 316.874 742.558C316.33 742.226 315.71 742.06 315.013 742.06C314.496 742.06 314.013 742.159 313.566 742.357C313.118 742.555 312.728 742.83 312.396 743.181C312.064 743.527 311.801 743.929 311.61 744.39C311.424 744.843 311.328 745.329 311.322 745.847C311.328 746.531 311.488 747.161 311.801 747.736C312.115 748.311 312.546 748.771 313.096 749.116C313.646 749.462 314.269 749.634 314.965 749.634ZM325.301 752.242L325.301 749.673L332.119 742.99C332.771 742.331 333.314 741.746 333.749 741.235C334.183 740.724 334.509 740.228 334.727 739.749C334.944 739.27 335.052 738.758 335.052 738.215C335.052 737.595 334.912 737.064 334.631 736.623C334.349 736.176 333.963 735.831 333.47 735.588C332.978 735.345 332.419 735.223 331.793 735.223C331.147 735.223 330.581 735.358 330.095 735.626C329.61 735.888 329.233 736.262 328.964 736.748C328.702 737.234 328.571 737.812 328.571 738.483L325.186 738.483C325.186 737.237 325.471 736.153 326.04 735.233C326.609 734.313 327.392 733.6 328.389 733.095C329.392 732.59 330.543 732.337 331.84 732.337C333.157 732.337 334.314 732.583 335.311 733.076C336.309 733.568 337.082 734.242 337.632 735.099C338.188 735.955 338.466 736.933 338.466 738.033C338.466 738.768 338.325 739.49 338.044 740.2C337.763 740.909 337.267 741.695 336.558 742.558C335.855 743.421 334.867 744.466 333.595 745.694L330.211 749.136L330.211 749.27L338.763 749.27L338.763 752.242L325.301 752.242ZM342.109 752.242L342.109 737.515L345.427 737.515L345.427 740.017L345.599 740.017C345.906 739.174 346.414 738.515 347.124 738.042C347.833 737.563 348.68 737.323 349.665 737.323C350.662 737.323 351.502 737.566 352.186 738.052C352.877 738.531 353.363 739.186 353.644 740.017L353.797 740.017C354.123 739.199 354.673 738.547 355.446 738.061C356.226 737.569 357.15 737.323 358.217 737.323C359.572 737.323 360.678 737.751 361.535 738.608C362.391 739.464 362.82 740.714 362.82 742.357L362.82 752.242L359.339 752.242L359.339 742.894C359.339 741.98 359.096 741.312 358.61 740.89C358.125 740.462 357.53 740.248 356.827 740.248C355.99 740.248 355.334 740.51 354.861 741.034C354.395 741.551 354.162 742.226 354.162 743.057L354.162 752.242L350.758 752.242L350.758 742.75C350.758 741.989 350.528 741.382 350.067 740.928C349.614 740.474 349.019 740.248 348.284 740.248C347.785 740.248 347.332 740.375 346.923 740.631C346.513 740.88 346.187 741.235 345.945 741.695C345.702 742.149 345.58 742.68 345.58 743.287L345.58 752.242L342.109 752.242ZM366.341 752.242L366.341 737.515L369.658 737.515L369.658 740.017L369.831 740.017C370.138 739.174 370.646 738.515 371.355 738.042C372.065 737.563 372.912 737.323 373.896 737.323C374.893 737.323 375.734 737.566 376.418 738.052C377.108 738.531 377.594 739.186 377.875 740.017L378.029 740.017C378.355 739.199 378.904 738.547 379.678 738.061C380.458 737.569 381.381 737.323 382.449 737.323C383.804 737.323 384.91 737.751 385.766 738.608C386.623 739.464 387.051 740.714 387.051 742.357L387.051 752.242L383.571 752.242L383.571 742.894C383.571 741.98 383.328 741.312 382.842 740.89C382.356 740.462 381.762 740.248 381.058 740.248C380.221 740.248 379.566 740.51 379.093 741.034C378.626 741.551 378.393 742.226 378.393 743.057L378.393 752.242L374.989 752.242L374.989 742.75C374.989 741.989 374.759 741.382 374.299 740.928C373.845 740.474 373.251 740.248 372.515 740.248C372.017 740.248 371.563 740.375 371.154 740.631C370.745 740.88 370.419 741.235 370.176 741.695C369.933 742.149 369.812 742.68 369.812 743.287L369.812 752.242L366.341 752.242Z" fill="#3C3B3B"/>
<path d="M668.686 748.599L668.686 745.77L677.018 732.606L679.377 732.606L679.377 736.633L677.938 736.633L672.329 745.521L672.329 745.674L683.96 745.674L683.96 748.599L668.686 748.599ZM678.053 752.242L678.053 747.736L678.092 746.47L678.092 732.606L681.448 732.606L681.448 752.242L678.053 752.242ZM694.07 752.511C692.69 752.511 691.462 752.274 690.389 751.801C689.321 751.328 688.477 750.67 687.857 749.826C687.237 748.982 686.908 748.007 686.87 746.902L690.475 746.902C690.507 747.432 690.683 747.896 691.002 748.292C691.322 748.682 691.747 748.985 692.277 749.203C692.808 749.42 693.402 749.529 694.061 749.529C694.764 749.529 695.387 749.407 695.93 749.164C696.474 748.915 696.899 748.57 697.206 748.129C697.512 747.688 697.663 747.18 697.656 746.604C697.663 746.01 697.509 745.486 697.196 745.032C696.883 744.578 696.429 744.223 695.835 743.968C695.246 743.712 694.537 743.584 693.706 743.584L691.971 743.584L691.971 740.842L693.706 740.842C694.39 740.842 694.988 740.724 695.499 740.487C696.017 740.251 696.423 739.918 696.717 739.49C697.011 739.055 697.155 738.554 697.148 737.985C697.155 737.429 697.03 736.946 696.774 736.537C696.525 736.121 696.17 735.799 695.71 735.569C695.256 735.338 694.722 735.223 694.109 735.223C693.508 735.223 692.952 735.332 692.44 735.549C691.929 735.767 691.517 736.077 691.204 736.479C690.89 736.876 690.724 737.349 690.705 737.898L687.282 737.898C687.308 736.799 687.624 735.834 688.231 735.003C688.845 734.165 689.663 733.513 690.686 733.047C691.708 732.574 692.856 732.337 694.128 732.337C695.438 732.337 696.576 732.583 697.541 733.076C698.513 733.561 699.264 734.217 699.794 735.041C700.325 735.866 700.59 736.777 700.59 737.774C700.597 738.88 700.271 739.806 699.612 740.554C698.96 741.302 698.104 741.791 697.043 742.021L697.043 742.175C698.423 742.366 699.481 742.878 700.216 743.709C700.958 744.533 701.325 745.559 701.319 746.787C701.319 747.886 701.006 748.87 700.379 749.74C699.759 750.603 698.903 751.28 697.81 751.772C696.723 752.265 695.477 752.511 694.07 752.511ZM711.346 752.242L711.346 737.515L714.663 737.515L714.663 740.017L714.836 740.017C715.143 739.174 715.651 738.515 716.36 738.042C717.07 737.563 717.917 737.323 718.901 737.323C719.898 737.323 720.739 737.566 721.423 738.052C722.113 738.531 722.599 739.186 722.88 740.017L723.033 740.017C723.359 739.199 723.909 738.547 724.683 738.061C725.462 737.569 726.386 737.323 727.454 737.323C728.809 737.323 729.915 737.751 730.771 738.608C731.628 739.464 732.056 740.714 732.056 742.357L732.056 752.242L728.575 752.242L728.575 742.894C728.575 741.98 728.333 741.312 727.847 740.89C727.361 740.462 726.766 740.248 726.063 740.248C725.226 740.248 724.571 740.51 724.098 741.034C723.631 741.551 723.398 742.226 723.398 743.057L723.398 752.242L719.994 752.242L719.994 742.75C719.994 741.989 719.764 741.382 719.304 740.928C718.85 740.474 718.255 740.248 717.52 740.248C717.022 740.248 716.568 740.375 716.159 740.631C715.75 740.88 715.424 741.235 715.181 741.695C714.938 742.149 714.817 742.68 714.817 743.287L714.817 752.242L711.346 752.242ZM735.577 752.242L735.577 737.515L738.895 737.515L738.895 740.017L739.067 740.017C739.374 739.174 739.882 738.515 740.592 738.042C741.301 737.563 742.148 737.323 743.132 737.323C744.13 737.323 744.97 737.566 745.654 738.052C746.344 738.531 746.83 739.186 747.112 740.017L747.265 740.017C747.591 739.199 748.141 738.547 748.914 738.061C749.694 737.569 750.618 737.323 751.685 737.323C753.04 737.323 754.146 737.751 755.003 738.608C755.859 739.464 756.287 740.714 756.287 742.357L756.287 752.242L752.807 752.242L752.807 742.894C752.807 741.98 752.564 741.312 752.078 740.89C751.592 740.462 750.998 740.248 750.295 740.248C749.457 740.248 748.802 740.51 748.329 741.034C747.863 741.552 747.629 742.226 747.629 743.057L747.629 752.242L744.226 752.242L744.226 742.75C744.226 741.989 743.995 741.382 743.535 740.928C743.081 740.474 742.487 740.248 741.752 740.248C741.253 740.248 740.799 740.375 740.39 740.631C739.981 740.88 739.655 741.235 739.412 741.695C739.169 742.149 739.048 742.68 739.048 743.287L739.048 752.242L735.577 752.242Z" fill="#3C3B3B"/>
<line x1="248.046" y1="678.077" x2="248.046" y2="806.99" stroke="#D1D1D1"/>
<line x1="613.288" y1="678.077" x2="613.288" y2="806.99" stroke="#D1D1D1"/>
<line x1="435.041" y1="679.493" x2="435.041" y2="808.406" stroke="#D1D1D1"/>
<line x1="800.283" y1="679.493" x2="800.283" y2="808.406" stroke="#D1D1D1"/>
<line x1="280.129" y1="746.575" x2="247.546" y2="746.575" stroke="#D1D1D1"/>
<line x1="645.371" y1="746.575" x2="612.788" y2="746.575" stroke="#D1D1D1"/>
<line x1="434.541" y1="746.575" x2="410.458" y2="746.575" stroke="#D1D1D1"/>
<line x1="799.783" y1="746.575" x2="775.7" y2="746.575" stroke="#D1D1D1"/>
<path d="M109.949 368.533V388.169H106.392V371.994H106.277L101.684 374.928V371.668L106.564 368.533H109.949ZM122.126 388.437C121.186 388.431 120.269 388.268 119.374 387.948C118.479 387.622 117.674 387.095 116.958 386.366C116.242 385.631 115.673 384.657 115.251 383.442C114.829 382.221 114.622 380.709 114.628 378.907C114.628 377.226 114.807 375.727 115.165 374.41C115.523 373.093 116.037 371.981 116.709 371.073C117.38 370.159 118.188 369.463 119.134 368.983C120.087 368.504 121.151 368.264 122.327 368.264C123.561 368.264 124.654 368.507 125.606 368.993C126.565 369.479 127.338 370.143 127.927 370.987C128.515 371.824 128.879 372.771 129.02 373.825H125.52C125.341 373.071 124.973 372.47 124.417 372.023C123.868 371.569 123.171 371.342 122.327 371.342C120.966 371.342 119.917 371.933 119.182 373.116C118.454 374.298 118.086 375.922 118.08 377.986H118.214C118.527 377.424 118.933 376.941 119.432 376.539C119.93 376.136 120.493 375.826 121.119 375.609C121.752 375.385 122.42 375.273 123.123 375.273C124.274 375.273 125.306 375.548 126.22 376.098C127.14 376.647 127.869 377.405 128.406 378.37C128.943 379.329 129.208 380.428 129.202 381.668C129.208 382.959 128.914 384.12 128.32 385.149C127.725 386.171 126.897 386.977 125.836 387.565C124.775 388.153 123.538 388.444 122.126 388.437ZM122.107 385.561C122.803 385.561 123.427 385.392 123.976 385.053C124.526 384.714 124.961 384.257 125.28 383.682C125.6 383.106 125.756 382.461 125.75 381.745C125.756 381.042 125.603 380.406 125.29 379.837C124.983 379.268 124.558 378.817 124.015 378.485C123.471 378.153 122.851 377.986 122.155 377.986C121.637 377.986 121.154 378.085 120.707 378.284C120.259 378.482 119.869 378.757 119.537 379.108C119.205 379.453 118.943 379.856 118.751 380.316C118.565 380.77 118.47 381.256 118.463 381.774C118.47 382.458 118.629 383.087 118.943 383.663C119.256 384.238 119.687 384.698 120.237 385.043C120.787 385.388 121.41 385.561 122.107 385.561ZM139.49 388.437C138.109 388.437 136.882 388.201 135.808 387.728C134.74 387.255 133.897 386.597 133.277 385.753C132.657 384.909 132.327 383.934 132.289 382.828H135.894C135.926 383.359 136.102 383.822 136.422 384.219C136.741 384.609 137.166 384.912 137.697 385.13C138.227 385.347 138.822 385.456 139.48 385.456C140.183 385.456 140.807 385.334 141.35 385.091C141.893 384.842 142.318 384.497 142.625 384.056C142.932 383.615 143.082 383.106 143.076 382.531C143.082 381.937 142.929 381.413 142.615 380.959C142.302 380.505 141.848 380.15 141.254 379.894C140.666 379.639 139.956 379.511 139.125 379.511H137.39V376.769H139.125C139.809 376.769 140.407 376.65 140.918 376.414C141.436 376.177 141.842 375.845 142.136 375.417C142.43 374.982 142.574 374.48 142.568 373.911C142.574 373.355 142.449 372.873 142.194 372.464C141.944 372.048 141.59 371.725 141.129 371.495C140.675 371.265 140.142 371.15 139.528 371.15C138.927 371.15 138.371 371.259 137.86 371.476C137.348 371.693 136.936 372.003 136.623 372.406C136.31 372.802 136.144 373.275 136.124 373.825H132.701C132.727 372.726 133.043 371.761 133.651 370.93C134.264 370.092 135.082 369.44 136.105 368.974C137.128 368.501 138.275 368.264 139.547 368.264C140.858 368.264 141.995 368.51 142.961 369.002C143.932 369.488 144.683 370.143 145.214 370.968C145.744 371.793 146.01 372.703 146.01 373.701C146.016 374.806 145.69 375.733 145.032 376.481C144.38 377.229 143.523 377.718 142.462 377.948V378.101C143.843 378.293 144.901 378.805 145.636 379.636C146.377 380.46 146.745 381.486 146.738 382.713C146.738 383.813 146.425 384.797 145.799 385.666C145.179 386.529 144.322 387.207 143.229 387.699C142.142 388.191 140.896 388.437 139.49 388.437ZM156.765 388.169V373.442H160.083V375.944H160.255C160.562 375.1 161.07 374.442 161.78 373.969C162.489 373.49 163.336 373.25 164.32 373.25C165.318 373.25 166.158 373.493 166.842 373.979C167.532 374.458 168.018 375.113 168.3 375.944H168.453C168.779 375.126 169.329 374.474 170.102 373.988C170.882 373.496 171.806 373.25 172.873 373.25C174.228 373.25 175.334 373.678 176.19 374.535C177.047 375.391 177.475 376.641 177.475 378.284V388.169H173.995V378.821C173.995 377.907 173.752 377.239 173.266 376.817C172.78 376.388 172.186 376.174 171.483 376.174C170.645 376.174 169.99 376.436 169.517 376.96C169.051 377.478 168.817 378.153 168.817 378.984V388.169H165.414V378.677C165.414 377.916 165.183 377.309 164.723 376.855C164.269 376.401 163.675 376.174 162.94 376.174C162.441 376.174 161.987 376.302 161.578 376.558C161.169 376.807 160.843 377.162 160.6 377.622C160.357 378.076 160.236 378.606 160.236 379.214V388.169H156.765ZM180.997 388.169V373.442H184.314V375.944H184.487C184.793 375.1 185.302 374.442 186.011 373.969C186.721 373.49 187.568 373.25 188.552 373.25C189.549 373.25 190.39 373.493 191.074 373.979C191.764 374.458 192.25 375.113 192.531 375.944H192.684C193.01 375.126 193.56 374.474 194.334 373.988C195.113 373.496 196.037 373.25 197.104 373.25C198.46 373.25 199.565 373.678 200.422 374.535C201.278 375.391 201.707 376.641 201.707 378.284V388.169H198.226V378.821C198.226 377.907 197.983 377.239 197.498 376.817C197.012 376.388 196.417 376.174 195.714 376.174C194.877 376.174 194.222 376.436 193.749 376.96C193.282 377.478 193.049 378.153 193.049 378.984V388.169H189.645V378.677C189.645 377.916 189.415 377.309 188.955 376.855C188.501 376.401 187.906 376.174 187.171 376.174C186.673 376.174 186.219 376.302 185.81 376.558C185.401 376.807 185.075 377.162 184.832 377.622C184.589 378.076 184.467 378.606 184.467 379.214V388.169H180.997Z" fill="#3C3B3B"/>
<line x1="344.377" y1="91.5935" x2="344.377" y2="155.342" stroke="#D1D1D1"/>
<line x1="337.294" y1="624.245" x2="337.294" y2="687.993" stroke="#D1D1D1"/>
<line x1="161.132" y1="344.253" x2="131.383" y2="344.253" stroke="#D1D1D1"/>
<line x1="161.132" y1="419.334" x2="131.383" y2="419.334" stroke="#D1D1D1"/>
<line x1="345.293" y1="124.676" x2="145.549" y2="124.676" stroke="#D1D1D1"/>
<line x1="336.794" y1="654.494" x2="144.132" y2="654.494" stroke="#D1D1D1"/>
<line x1="145.049" y1="343.753" x2="145.049" y2="124.175" stroke="#D1D1D1"/>
<line x1="145.049" y1="653.994" x2="145.049" y2="418.834" stroke="#D1D1D1"/>
<path d="M714.145 546.337V587.533C714.145 588.913 713.025 590.033 711.645 590.033H679.706C678.326 590.033 677.206 588.913 677.206 587.533V532.833L714.145 546.337Z" stroke="black"/>
<line x1="655.642" y1="173.972" x2="655.352" y2="526.07" stroke="black"/>
<line x1="633.084" y1="286.978" x2="632.401" y2="422.679" stroke="black"/>
<line x1="654.996" y1="423.176" x2="631.901" y2="423.174" stroke="black"/>
<line x1="634.331" y1="288.605" x2="655.675" y2="288.568" stroke="black"/>
<line x1="655.329" y1="173.508" x2="786.089" y2="226.451" stroke="black"/>
<line x1="655.294" y1="173.495" x2="765.369" y2="208.748" stroke="black"/>
<line x1="765.568" y1="217.905" x2="765.224" y2="207.365" stroke="black"/>
<line x1="785.125" y1="225.051" x2="784.984" y2="515.519" stroke="black"/>
<line x1="785.06" y1="514.974" x2="765.337" y2="565.918" stroke="black"/>
<line x1="767.221" y1="565.216" x2="654.681" y2="524.451" stroke="black"/>
<line x1="655.169" y1="466.847" x2="785.795" y2="515.047" stroke="black"/>
<line x1="785.785" y1="510.798" x2="656.478" y2="462.517" stroke="black"/>
<rect x="678.266" y="564.849" width="6.0546" height="13.0778" stroke="black"/>
<rect x="678.266" y="564.849" width="6.0546" height="13.0778" stroke="black"/>
<rect x="678.266" y="564.849" width="6.0546" height="13.0778" stroke="black"/>
<rect x="678.266" y="576.659" width="34.1042" height="1.26909" stroke="black"/>
<rect x="678.266" y="564.338" width="34.1042" height="1.26909" stroke="black"/>
<rect x="687.331" y="564.849" width="6.0546" height="13.0778" stroke="black"/>
<rect x="696.395" y="564.849" width="6.0546" height="13.0778" stroke="black"/>
<rect x="705.46" y="564.849" width="6.0546" height="13.0778" stroke="black"/>
<rect x="639.762" y="299.629" width="8.572" height="21.4672" rx="1.8811" stroke="black"/>
<rect x="639.762" y="390.014" width="8.572" height="21.4672" rx="1.8811" stroke="black"/>
<rect x="640.119" y="353.393" width="9.76785" height="9.97252" rx="2.17858" stroke="black"/>
<path fill-rule="evenodd" clip-rule="evenodd" d="M269.962 173.972H427.086C431.218 173.972 434.6 177.403 434.6 181.594V509.899C428.614 528.46 422.628 547.022 416.642 565.583C415.639 567.649 413.475 568.66 410.446 568.885C409.561 569.356 408.676 569.828 407.792 570.299L350.787 570.553C330.945 570.478 311.104 570.403 291.262 570.329C290.514 569.931 290.639 569.614 289.805 569.542C284.783 569.113 282.567 567.548 281.89 565.452L262.446 509.329V446.784V181.594C262.446 177.402 265.828 173.971 269.962 173.971V173.972Z" stroke="black" stroke-width="0.8" stroke-miterlimit="22.9256"/>
<path fill-rule="evenodd" clip-rule="evenodd" d="M274.441 173.971L305.026 189.637L393.097 189.717L423.681 173.971L397.9 193.779C397.9 193.779 393.898 197.677 388.414 197.312H311.991C311.991 197.312 305.627 198.489 299.862 192.925L274.441 173.971Z" stroke="black" stroke-width="0.8" stroke-miterlimit="22.9256" stroke-linejoin="round"/>
<path d="M293.839 205.031L405.876 205.061L431.85 175.714" stroke="black" stroke-width="0.8" stroke-miterlimit="22.9256"/>
<path d="M286.984 210.308C286.984 209.334 262.457 184.156 262.457 184.156" stroke="black" stroke-width="0.8" stroke-miterlimit="22.9256"/>
<path d="M294.239 205.429L265.062 175.831" stroke="black" stroke-width="0.8" stroke-miterlimit="22.9256"/>
<path d="M412.456 210.308C412.456 209.334 434.596 184.156 434.596 184.156" stroke="black" stroke-width="0.8" stroke-miterlimit="22.9256"/>
<path d="M286.934 509.895V211.529C286.934 211.529 285.732 205.024 294.46 205.024" stroke="black" stroke-width="0.8" stroke-miterlimit="22.9256"/>
<path d="M412.392 509.895V211.529C412.392 211.529 413.593 205.024 404.866 205.024" stroke="black" stroke-width="0.8" stroke-miterlimit="22.9256"/>
<path d="M262.447 447.642L286.932 508.634C286.932 508.634 287.097 511.477 295.984 512.248C304.872 513.02 404.391 512.248 404.391 512.248C404.391 512.248 411.477 512.329 413.118 507.862L434.215 447.351V449.625L413.718 508.488C413.718 508.488 413.117 513.381 406.832 513.747C400.547 514.112 298.347 514.132 298.347 514.132C298.347 514.132 286.919 515.268 285.798 508.486L262.446 448.236" stroke="black" stroke-width="0.8" stroke-miterlimit="22.9256"/>
<path d="M291.855 570.333L314.922 533.642C314.922 533.642 317.964 527.631 326.931 527.51H371.006C371.006 527.51 379.012 526.818 384.337 533.56L407.662 570.302M374.733 575.967H374.66M323.987 575.926H323.78" stroke="black" stroke-width="0.8" stroke-miterlimit="22.9256"/>
<path d="M286.932 509.899L281.687 564.867" stroke="black" stroke-width="0.8" stroke-miterlimit="22.9256"/>
<path d="M294.725 514.202L290.598 569.834" stroke="black" stroke-width="0.8" stroke-miterlimit="22.9256"/>
<path d="M412.396 509.185L417.29 563.585" stroke="black" stroke-width="0.8" stroke-miterlimit="22.9256"/>
<path d="M405.977 513.782L410.269 568.982" stroke="black" stroke-width="0.8" stroke-miterlimit="22.9256"/>
<path d="M293.839 205.024L294.648 514.131" stroke="black" stroke-width="0.8" stroke-miterlimit="22.9256"/>
<path d="M406.205 205.389L405.977 513.782" stroke="black" stroke-width="0.8" stroke-miterlimit="22.9256"/>
<path d="M371.709 570.913V586.246C371.709 588.179 370.142 589.746 368.209 589.746H330.877C328.944 589.746 327.377 588.179 327.377 586.246V570.913H371.709Z" stroke="black"/>
<path d="M339.829 444.981L356.338 453.603V460.582L339.824 451.598L339.829 444.981Z" fill="#303031"/>
<path d="M339.829 457.055L356.338 465.677V472.656L339.824 463.673L339.829 457.055Z" fill="#303031"/>
<path d="M339.829 469.129L356.338 477.752V484.731L339.824 475.747L339.829 469.129Z" fill="#303031"/>
<path d="M356.829 434.474H339.829V431.302L351.826 424.249V425.929L339.829 418.995V415.847L356.829 415.8V419.397L345.488 419.421V418.758L355.032 424.296V426.024L345.488 431.681V430.876H356.829V434.474ZM356.829 414.046L339.829 406.662V402.875L356.829 395.467V399.49L341.821 405.549V404.035L356.829 410.117V414.046ZM353.186 410.354L350.199 409.336V400.816L353.186 399.774V410.354ZM357.12 386.05C357.12 387.328 356.91 388.52 356.489 389.624C356.052 390.713 355.436 391.66 354.643 392.464C353.85 393.269 352.919 393.9 351.85 394.358C350.782 394.799 349.608 395.02 348.329 395.02C347.05 395.02 345.876 394.799 344.808 394.358C343.739 393.9 342.808 393.269 342.015 392.464C341.222 391.644 340.614 390.689 340.194 389.6C339.756 388.512 339.538 387.32 339.538 386.027C339.538 384.591 339.797 383.297 340.315 382.145C340.817 380.977 341.562 379.999 342.549 379.21L344.881 381.672C344.217 382.24 343.723 382.871 343.399 383.565C343.059 384.26 342.889 385.017 342.889 385.837C342.889 386.61 343.019 387.32 343.278 387.967C343.537 388.614 343.909 389.174 344.395 389.648C344.881 390.121 345.455 390.492 346.119 390.76C346.783 391.013 347.52 391.139 348.329 391.139C349.139 391.139 349.875 391.013 350.539 390.76C351.203 390.492 351.777 390.121 352.263 389.648C352.749 389.174 353.121 388.614 353.38 387.967C353.639 387.32 353.769 386.61 353.769 385.837C353.769 385.017 353.607 384.26 353.283 383.565C352.943 382.871 352.433 382.24 351.753 381.672L354.085 379.21C355.072 379.999 355.825 380.977 356.343 382.145C356.861 383.297 357.12 384.598 357.12 386.05ZM356.829 376.621H339.829V373.449L352.069 363.674V365.213H339.829V361.426H356.829V364.574L344.589 374.372V372.834H356.829V376.621ZM356.829 357.506H339.829V354.335L351.826 347.282V348.962L339.829 342.027V338.879L356.829 338.832V342.43L345.488 342.453V341.791L355.032 347.329V349.057L345.488 354.713V353.909H356.829V357.506ZM356.829 337.079L339.829 329.694V325.908L356.829 318.499V322.523L341.821 328.582V327.067L356.829 333.15V337.079ZM353.186 333.387L350.199 332.369V323.848L353.186 322.807V333.387ZM356.829 316.781H339.829V313.609L352.069 303.834V305.373H339.829V301.586H356.829V304.734L344.589 314.532V312.994H356.829V316.781Z" fill="url(#paint0_linear_8_254)"/>
<defs>
<linearGradient id="paint0_linear_8_254" x1="347.594" y1="436.438" x2="347.594" y2="294.171" gradientUnits="userSpaceOnUse">
<stop offset="1" stop-color="#303031"/>
</linearGradient>
</defs>
</svg>
