<svg xmlns="http://www.w3.org/2000/svg" width="620" height="582" fill="none" xmlns:v="https://vecta.io/nano"><style><![CDATA[.B{stroke-width:.5}.C{fill:#fff}.D{fill:#0c0c0c}.E{stroke:#e3e3e3}.F{fill:#b8b8b8}.G{fill:#fb1c2e}.H{color-interpolation-filters:sRGB}]]></style><rect x=".25" y="49.25" width="255.5" height="532.5" rx="9.75" stroke="url(#C)" class="B C"/><g filter="url(#A)" class="C"><rect x="16" y="66" width="216" height="52" rx="10"/></g><g stroke="#5a5c66" stroke-miterlimit="22.9256" class="B"><path d="M31.51 80h10.664a.51.51 0 0 1 .51.51v21.964l-1.219 3.725c-.068.139-.215.206-.42.221l-.18.095-3.869.017-4.04-.015c-.051-.027-.042-.048-.099-.053-.341-.028-.491-.133-.537-.273L31 102.436v-4.184V80.51a.51.51 0 0 1 .51-.51h0z"/><path d="M31.815 80l2.076 1.048 5.977.005L41.943 80l-1.75 1.325s-.272.261-.644.236h-5.187s-.432.079-.823-.293L31.815 80z" stroke-linejoin="round"/><path d="M33.131 82.078l7.604.002 1.763-1.963m-9.833 2.314c0-.065-1.665-1.75-1.665-1.75"/><path d="M33.158 82.104l-1.98-1.98m10.003 2.307c0-.065 1.502-1.75 1.502-1.75"/><path d="M32.662 102.474V82.513s-.081-.435.511-.435m8.004 20.396V82.513s.081-.435-.511-.435"/><path d="M31 98.31l1.662 4.081s.011.19.614.242 7.357 0 7.357 0 .481.005.592-.294l1.432-4.048v.152l-1.391 3.938s-.041.328-.467.352-7.363.026-7.363.026-.776.076-.852-.378L31 98.349m1.89 8.122l1.573-2.466a.85.85 0 0 1 .208-.236c.202-.16.45-.228.707-.232h2.986c.109-.008.247.011.351.037a1.18 1.18 0 0 1 .648.411l.004.005 1.594 2.475m-2.424.544h-.025m-3.218-.002h-.037"/><path d="M32.997 106.517l1.565-2.455s.206-.402.815-.41h2.991s.543-.047.905.404l1.583 2.459m-2.235.379h-.005m-3.439-.003h-.014m-2.501-4.417l-.356 3.677m.884-3.389l-.28 3.722m8.267-4.057l.332 3.639m-.768-3.332l.291 3.693m-7.901-24.349l.055 20.68m7.571-20.656l-.016 20.632"/><path d="M35.395 106.523h-.303v.208c.048.141.133.266.281.369.071.444.37.758 1.52.778 1.135.019 1.441-.311 1.517-.756.221-.156.303-.365.33-.599h-.349-2.997z"/><path d="M36.192 106.529v.8"/><use href="#G"/><use href="#G" x="0.209"/><use href="#G" x="0.418"/><use href="#G" x="0.628"/><use href="#G" x="0.837"/><use href="#G" x="1.046"/><use href="#G" x="1.255"/><path d="M38.758 106.524c-.07.48-.41.845-1.865.824s-1.793-.356-1.864-.823"/></g><path d="M155.733 93h-.881c-.052-.253-.143-.476-.273-.668a1.82 1.82 0 0 0-.469-.483c-.182-.133-.385-.232-.607-.298a2.43 2.43 0 0 0-.696-.099 2.22 2.22 0 0 0-1.197.334c-.355.222-.638.55-.849.984s-.312.965-.312 1.594.104 1.161.312 1.594.494.761.849.984a2.22 2.22 0 0 0 1.197.334 2.43 2.43 0 0 0 .696-.099 2.04 2.04 0 0 0 .607-.295 1.87 1.87 0 0 0 .469-.486c.13-.194.221-.417.273-.668h.881a2.93 2.93 0 0 1-.362.998c-.175.294-.393.543-.654.749s-.552.359-.877.465-.666.16-1.033.16c-.62 0-1.172-.151-1.655-.454s-.863-.734-1.14-1.293-.415-1.222-.415-1.989.138-1.43.415-1.989.657-.99 1.14-1.293 1.035-.455 1.655-.455c.367 0 .711.053 1.033.16a2.81 2.81 0 0 1 .877.469 2.67 2.67 0 0 1 .654.746c.175.291.296.624.362.998zm3.525 5.114c-.492 0-.924-.117-1.296-.352s-.658-.562-.866-.984-.309-.914-.309-1.477.103-1.064.309-1.488.497-.753.866-.987.804-.352 1.296-.352.924.117 1.293.352.66.563.866.987.313.92.313 1.488-.104 1.056-.313 1.477-.494.749-.866.984-.8.352-1.293.352zm0-.753c.374 0 .682-.096.924-.288a1.7 1.7 0 0 0 .536-.756c.116-.312.174-.651.174-1.016s-.058-.704-.174-1.019a1.72 1.72 0 0 0-.536-.763c-.242-.194-.55-.291-.924-.291s-.681.097-.923.291a1.72 1.72 0 0 0-.536.763c-.116.315-.174.655-.174 1.019s.058.703.174 1.016a1.7 1.7 0 0 0 .536.756c.242.192.549.288.923.288zm4.589-2.642V98h-.838v-5.454h.81v.852h.071a1.56 1.56 0 0 1 .582-.668c.261-.17.597-.256 1.009-.256.369 0 .692.076.969.227s.493.376.647.682.23.687.23 1.151V98h-.838v-3.409c0-.428-.111-.762-.333-1.001s-.528-.362-.917-.362c-.267 0-.506.058-.717.174a1.25 1.25 0 0 0-.494.508c-.12.223-.181.492-.181.81zm5.85 0V98h-.838v-5.454h.81v.852h.071c.127-.277.321-.499.582-.668s.597-.256 1.008-.256c.37 0 .693.076.97.227a1.53 1.53 0 0 1 .646.682c.154.303.231.687.231 1.151V98h-.838v-3.409c0-.428-.111-.762-.334-1.001s-.528-.362-.916-.362c-.268 0-.507.058-.717.174s-.373.285-.494.508-.181.492-.181.81zm7.298 3.395c-.525 0-.979-.116-1.36-.348a2.34 2.34 0 0 1-.877-.98c-.203-.421-.305-.911-.305-1.47s.102-1.051.305-1.477a2.41 2.41 0 0 1 .86-1.001c.369-.241.8-.362 1.292-.362a2.59 2.59 0 0 1 .842.142c.277.095.529.249.756.462a2.2 2.2 0 0 1 .543.838c.135.348.203.776.203 1.285v.355h-4.205v-.724h3.353a1.79 1.79 0 0 0-.185-.824 1.4 1.4 0 0 0-.518-.572c-.223-.14-.486-.21-.789-.21-.334 0-.622.083-.866.249a1.63 1.63 0 0 0-.558.639 1.88 1.88 0 0 0-.195.845v.483c0 .412.071.761.213 1.048a1.53 1.53 0 0 0 .6.65 1.76 1.76 0 0 0 .891.22c.221 0 .419-.031.597-.092s.335-.159.465-.284.231-.286.302-.476l.81.227c-.086.275-.229.516-.43.724s-.45.367-.746.483-.628.17-.998.17zm5.75 0c-.512 0-.952-.121-1.321-.362s-.654-.574-.853-.998-.298-.908-.298-1.453c0-.554.102-1.043.305-1.467s.493-.759.86-.998.8-.362 1.292-.362c.384 0 .73.071 1.037.213a1.99 1.99 0 0 1 .757.597c.196.256.318.554.366.895h-.839c-.063-.249-.205-.469-.426-.66s-.511-.291-.88-.291c-.327 0-.613.085-.86.256a1.66 1.66 0 0 0-.571.714c-.135.305-.203.664-.203 1.076 0 .421.066.788.199 1.101s.324.555.568.728a1.47 1.47 0 0 0 .867.259 1.5 1.5 0 0 0 .593-.114 1.23 1.23 0 0 0 .451-.327 1.25 1.25 0 0 0 .262-.511h.839a1.95 1.95 0 0 1-.352.87 1.97 1.97 0 0 1-.735.611c-.303.149-.656.224-1.058.224zm5.742-5.568v.71h-2.827v-.71h2.827zm-2.003-1.307h.838v5.199c0 .237.034.414.103.533s.161.194.27.234a1.08 1.08 0 0 0 .352.057 1.49 1.49 0 0 0 .227-.014l.142-.028.17.753c-.057.021-.136.043-.238.064a1.74 1.74 0 0 1-.387.035 1.69 1.69 0 0 1-.696-.153 1.38 1.38 0 0 1-.561-.465c-.147-.208-.22-.471-.22-.788v-5.426zm5.492 6.875c-.526 0-.979-.116-1.36-.348s-.671-.561-.877-.98-.306-.911-.306-1.47.102-1.051.306-1.477.492-.762.859-1.001.8-.362 1.293-.362c.284 0 .564.047.841.142s.529.249.757.462.408.49.543.838.202.776.202 1.285v.355h-4.204v-.724h3.352c0-.308-.061-.582-.185-.824s-.293-.432-.518-.572-.485-.21-.788-.21c-.334 0-.623.083-.867.249s-.427.376-.557.639-.196.544-.196.845v.483c0 .412.071.761.213 1.048a1.54 1.54 0 0 0 .601.65c.255.147.552.22.891.22a1.81 1.81 0 0 0 .596-.092 1.29 1.29 0 0 0 .466-.284c.13-.128.23-.286.301-.476l.81.227c-.085.275-.228.516-.43.724s-.449.367-.745.483-.629.17-.998.17zm5.593 0c-.455 0-.856-.115-1.204-.344a2.33 2.33 0 0 1-.817-.98c-.196-.424-.294-.925-.294-1.502s.098-1.07.294-1.491.47-.747.821-.977.755-.344 1.214-.344c.355 0 .636.059.842.178s.367.249.476.398l.259.362h.071v-2.685h.838V98h-.81v-.838h-.099a5.42 5.42 0 0 1-.263.376 1.57 1.57 0 0 1-.486.401c-.211.116-.492.174-.842.174zm.114-.753c.336 0 .62-.088.852-.263s.408-.423.529-.735.181-.678.181-1.09-.059-.763-.178-1.069-.293-.547-.525-.717-.519-.259-.859-.259c-.356 0-.652.091-.888.273a1.63 1.63 0 0 0-.529.735c-.116.308-.174.653-.174 1.037s.059.741.177 1.058.298.566.533.753.53.277.881.277z" class="F"/><path d="M56.799 89.727h1.332l2.315 5.653h.085l2.315-5.653h1.332V97h-1.044v-5.263h-.067l-2.145 5.252h-.867l-2.145-5.256h-.067V97h-1.044v-7.273zm9.738 0l1.74 2.844h.057l1.74-2.844h1.271l-2.266 3.636L71.36 97h-1.278l-1.747-2.805h-.057L66.53 97h-1.278l2.319-3.636-2.305-3.636h1.271zm5.645 5.852v-.888l3.143-4.965h.7v1.307h-.444l-2.248 3.558v.057h4.308v.93h-5.458zM75.63 97v-1.69l.007-.405v-5.177h1.041V97H75.63zm5.779.099c-.488 0-.923-.084-1.307-.252s-.683-.401-.906-.7-.338-.649-.355-1.044h1.115a.96.96 0 0 0 .217.561c.132.156.305.277.518.362s.45.128.71.128a1.83 1.83 0 0 0 .76-.149c.223-.1.397-.238.522-.416a1.06 1.06 0 0 0 .188-.621c0-.244-.063-.458-.188-.643s-.304-.334-.543-.44-.523-.16-.859-.16h-.614v-.895h.614c.27 0 .507-.049.71-.146s.367-.232.483-.405.174-.38.174-.614c0-.225-.051-.42-.153-.586s-.242-.299-.426-.394-.398-.142-.646-.142a1.68 1.68 0 0 0-.664.131c-.204.085-.369.208-.497.369a.95.95 0 0 0-.206.572h-1.062c.012-.393.128-.739.348-1.037a2.25 2.25 0 0 1 .881-.7c.365-.168.769-.252 1.215-.252.466 0 .869.091 1.207.274a1.99 1.99 0 0 1 .788.721 1.81 1.81 0 0 1 .277.987c.002.407-.111.753-.341 1.037s-.53.475-.909.572v.057c.483.073.857.265 1.122.575s.4.695.398 1.154c.002.4-.109.759-.334 1.076s-.527.567-.913.749-.827.27-1.325.27zm3.761-1.52v-.888l3.143-4.965h.7v1.307h-.444l-2.248 3.558v.057h4.308v.93H85.17zM88.618 97v-1.69l.007-.405v-5.177h1.04V97h-1.048zm5.779.099c-.488 0-.923-.084-1.307-.252s-.683-.401-.906-.7-.338-.649-.355-1.044h1.115a.96.96 0 0 0 .217.561c.133.156.305.277.518.362s.45.128.71.128a1.83 1.83 0 0 0 .76-.149c.222-.1.396-.238.522-.416a1.06 1.06 0 0 0 .188-.621c0-.244-.063-.458-.188-.643s-.304-.334-.543-.44-.523-.16-.859-.16h-.614v-.895h.614c.27 0 .507-.049.71-.146s.367-.232.483-.405.174-.38.174-.614c0-.225-.051-.42-.153-.586s-.242-.299-.426-.394-.398-.142-.646-.142a1.68 1.68 0 0 0-.664.131c-.204.085-.369.208-.497.369a.95.95 0 0 0-.206.572h-1.062c.012-.393.128-.739.348-1.037a2.25 2.25 0 0 1 .881-.7c.365-.168.769-.252 1.215-.252.466 0 .869.091 1.207.274a1.99 1.99 0 0 1 .788.721 1.81 1.81 0 0 1 .277.987c.002.407-.111.753-.341 1.037s-.53.475-.909.572v.057c.483.073.857.265 1.122.575s.4.695.398 1.154c.002.4-.109.759-.334 1.076s-.527.567-.913.749-.827.27-1.325.27z" fill="#f85550"/><circle cx="213.5" cy="94.5" r="1.5" fill="#72cf70"/><path d="M216 94.5a2.5 2.5 0 1 1-5 0 2.5 2.5 0 1 1 5 0z" fill="#53ee50" fill-opacity=".35"/><path d="M249.297 174.246c0-2.062-1.671-3.733-3.733-3.733s-3.733 1.671-3.733 3.733 1.671 3.733 3.733 3.733 3.733-1.671 3.733-3.733zm56.908 0v-.7h-60.641v.7.7h60.641v-.7z" fill="url(#D)"/><circle cx="576.437" cy="109.014" r="3" class="G"/><g filter="url(#B)" class="C"><rect x="304.937" y="6.514" width="305" height="351" rx="10"/></g><path d="M339.812 82.514h-3.143V72.332h3.282c.987 0 1.833.204 2.535.611s1.241.986 1.616 1.745.562 1.66.562 2.715c0 1.061-.189 1.974-.567 2.739s-.928 1.349-1.651 1.76-1.6.612-2.634.612zm-1.91-1.094h1.83c.842 0 1.54-.162 2.093-.487a3 3 0 0 0 1.238-1.387c.272-.6.408-1.314.408-2.143 0-.822-.135-1.53-.403-2.123s-.67-1.054-1.203-1.372-1.198-.482-1.994-.482h-1.969v7.994zm8.671 1.094v-7.636h1.173v7.636h-1.173zm.596-8.909c-.228 0-.425-.078-.591-.234a.75.75 0 0 1-.244-.562.75.75 0 0 1 .244-.562c.166-.156.363-.234.591-.234s.425.078.587.234.249.343.249.562-.083.406-.249.562a.82.82 0 0 1-.587.234zm8.135 2.983l-1.054.298c-.066-.176-.164-.346-.293-.512s-.298-.308-.517-.418-.499-.164-.84-.164c-.468 0-.857.108-1.169.323s-.462.482-.462.81c0 .292.106.522.318.691s.544.31.995.422l1.133.278c.683.166 1.192.419 1.526.761s.502.774.502 1.308c0 .438-.125.829-.377 1.173s-.597.617-1.044.815-.968.298-1.562.298c-.778 0-1.423-.169-1.933-.507s-.834-.832-.97-1.482l1.114-.278c.106.411.306.719.601.925s.688.308 1.169.308c.546 0 .981-.116 1.302-.348s.487-.517.487-.845c0-.265-.092-.487-.278-.666s-.471-.318-.855-.408l-1.273-.298c-.699-.166-1.213-.423-1.541-.771s-.487-.79-.487-1.317c0-.431.121-.812.363-1.143s.578-.592.999-.781.905-.283 1.442-.283c.755 0 1.349.166 1.78.497s.742.769.924 1.313zm4.153 6.105c-.484 0-.923-.091-1.318-.273a2.26 2.26 0 0 1-.939-.8c-.232-.351-.348-.776-.348-1.273 0-.437.086-.792.258-1.064a1.83 1.83 0 0 1 .691-.646 3.65 3.65 0 0 1 .955-.348l1.059-.189 1.128-.134c.292-.033.504-.088.637-.164s.203-.209.203-.398v-.04c0-.49-.134-.872-.402-1.144s-.668-.408-1.208-.408c-.56 0-1 .123-1.318.368s-.542.507-.671.785l-1.114-.398c.199-.464.464-.825.796-1.084a2.98 2.98 0 0 1 1.094-.547 4.53 4.53 0 0 1 1.173-.159c.245 0 .527.03.845.09a2.71 2.71 0 0 1 .93.353c.301.179.552.449.75.81s.299.845.299 1.452v5.031h-1.174V81.48h-.059c-.08.166-.212.343-.398.532s-.432.35-.741.482-.684.199-1.128.199zm.179-1.054c.464 0 .855-.091 1.173-.273a1.89 1.89 0 0 0 .726-.706c.163-.288.248-.592.248-.91v-1.074c-.049.06-.159.114-.328.164a5.53 5.53 0 0 1-.576.124l-.632.089-.492.06a4.48 4.48 0 0 0-.855.194 1.47 1.47 0 0 0-.636.393c-.16.172-.239.408-.239.706 0 .408.151.716.452.925s.691.308 1.159.308zm5.621.875V72.332h1.174v3.758h.099l.358-.507c.156-.209.378-.394.666-.557s.686-.249 1.183-.249c.643 0 1.21.161 1.701.482s.873.777 1.148 1.367.413 1.286.413 2.088c0 .809-.138 1.51-.413 2.103s-.656 1.047-1.143 1.372-1.049.482-1.686.482c-.49 0-.883-.081-1.178-.244s-.522-.353-.681-.562l-.368-.527h-.139v1.173h-1.134zm1.154-3.818c0 .577.084 1.086.253 1.526s.416.781.741 1.029.723.368 1.193.368c.491 0 .9-.129 1.228-.388s.58-.613.746-1.054.254-.938.254-1.482c0-.537-.083-1.021-.249-1.452s-.409-.777-.741-1.029-.741-.383-1.238-.383c-.477 0-.878.121-1.203.363s-.57.573-.736 1.004-.248.926-.248 1.496zm8.556-6.364v10.182h-1.173V72.332h1.173zm5.351 10.341c-.736 0-1.371-.162-1.905-.487s-.939-.785-1.228-1.372-.427-1.276-.427-2.058.142-1.471.427-2.068.69-1.067 1.204-1.402 1.12-.507 1.809-.507c.398 0 .791.066 1.179.199a2.92 2.92 0 0 1 1.058.646c.318.298.572.686.761 1.173s.283 1.087.283 1.8v.497h-5.886V78.08h4.693c0-.431-.086-.815-.258-1.153s-.411-.605-.726-.8-.68-.293-1.104-.293c-.467 0-.871.116-1.213.348s-.598.527-.78.895a2.62 2.62 0 0 0-.274 1.183v.676c0 .577.1 1.066.298 1.467s.483.701.841.91.774.308 1.248.308a2.54 2.54 0 0 0 .835-.129c.252-.09.469-.222.651-.398a1.82 1.82 0 0 0 .423-.666l1.133.318a2.51 2.51 0 0 1-.601 1.014c-.281.291-.63.514-1.044.676s-.88.239-1.397.239zm57.392-47.159V24.139h3.937c1.266 0 2.237.315 2.915.945s1.023 1.49 1.023 2.578c0 1.083-.341 1.945-1.023 2.586s-1.649.961-2.915.961h-2.156v4.305h-1.781zm1.781-5.711h2.071c.833 0 1.414-.201 1.742-.602s.492-.919.492-1.539c0-.615-.164-1.12-.492-1.516s-.909-.594-1.742-.594h-2.071v4.25zm7.008 1.742v-.25c0-1.25.362-2.26 1.086-3.031.724-.776 1.685-1.164 2.883-1.164s2.159.388 2.883 1.164 1.093 1.781 1.093 3.031v.25c0 1.255-.364 2.271-1.093 3.047-.724.771-1.685 1.156-2.883 1.156s-2.159-.385-2.883-1.156c-.724-.776-1.086-1.792-1.086-3.047zm1.766-.289v.336c0 .818.185 1.487.554 2.008.375.521.925.781 1.649.781s1.273-.261 1.648-.781.563-1.19.563-2.008v-.336c0-.818-.188-1.484-.563-2s-.924-.781-1.648-.781-1.266.26-1.641.781-.562 1.182-.562 2zm6.984-3.922h1.695l1.414 5.117.125.531.118.516h.046l.102-.516a5.57 5.57 0 0 1 .148-.531l1.633-5.117h1.555l1.687 5.117.157.531.109.516h.047l.102-.516.125-.531 1.375-5.117h1.554l-2.5 8.18h-1.492l-1.672-5.07-.18-.602-.14-.609h-.047l-.156.609-.172.602-1.641 5.07h-1.5l-2.492-8.18zm12.781 4.211v-.25c0-1.24.352-2.247 1.055-3.023s1.625-1.172 2.766-1.172 2.023.365 2.648 1.094c.625.724.938 1.713.938 2.969v.664h-6.305v-1.242h4.578v-.18c.005-.542-.151-1.003-.469-1.383-.312-.385-.765-.578-1.359-.578-.703 0-1.232.266-1.586.797s-.524 1.203-.524 2.016v.328c0 .813.188 1.484.563 2.016s.945.797 1.711.797c.495 0 .919-.112 1.273-.336a3.06 3.06 0 0 0 .86-.789l1.172.836c-.261.427-.675.807-1.243 1.141-.562.333-1.244.5-2.046.5-1.287 0-2.282-.388-2.985-1.164-.698-.781-1.047-1.794-1.047-3.039zm9.063 3.969v-8.18h1.609l.055 1.008h.039a3.02 3.02 0 0 1 .781-.867c.323-.245.701-.367 1.133-.367a1.65 1.65 0 0 1 .352.039c.119.026.205.05.257.07v1.547a2.64 2.64 0 0 0-.32-.047 2.56 2.56 0 0 0-.367-.023c-.427 0-.797.117-1.11.351s-.544.529-.695.883v5.586h-1.734z" class="D"/><g class="B E"><use href="#H"/><use href="#H" y="-35"/></g><path d="M339.931 118.653c-.656 0-1.241-.113-1.755-.338s-.917-.539-1.218-.94-.461-.873-.487-1.407h1.252a1.48 1.48 0 0 0 .339.85 1.94 1.94 0 0 0 .78.547 2.85 2.85 0 0 0 1.069.194c.437 0 .825-.076 1.163-.229s.604-.364.796-.636.288-.587.288-.945c0-.374-.093-.704-.278-.989s-.458-.514-.816-.676-.795-.244-1.312-.244h-.815v-1.093h.815c.404 0 .759-.073 1.064-.219a1.71 1.71 0 0 0 .721-.617c.175-.265.263-.576.263-.934 0-.345-.076-.645-.229-.9s-.367-.454-.646-.597-.6-.213-.974-.213c-.352 0-.683.064-.995.193s-.56.31-.755.552a1.43 1.43 0 0 0-.318.865h-1.194c.02-.533.181-1.001.483-1.402a3.03 3.03 0 0 1 1.183-.944c.49-.226 1.029-.338 1.616-.338.629 0 1.17.127 1.62.382a2.69 2.69 0 0 1 1.039 1 2.61 2.61 0 0 1 .363 1.342c0 .573-.15 1.062-.452 1.467s-.704.684-1.218.84v.079c.643.107 1.145.38 1.506.821s.542.979.542 1.625c0 .554-.151 1.051-.452 1.492s-.706.782-1.223 1.034-1.106.378-1.765.378zm6.034-.06a.86.86 0 0 1-.895-.895.86.86 0 0 1 .895-.895.86.86 0 0 1 .632.264c.175.176.263.386.263.631a.84.84 0 0 1-.124.448.94.94 0 0 1-.323.328.86.86 0 0 1-.448.119zm6.038.06c-.656 0-1.241-.113-1.755-.338s-.916-.539-1.218-.94-.461-.873-.487-1.407h1.253c.026.328.139.612.338.85s.459.418.78.547a2.85 2.85 0 0 0 1.069.194c.438 0 .826-.076 1.164-.229s.603-.364.795-.636.288-.587.288-.945c0-.374-.092-.704-.278-.989s-.457-.514-.815-.676-.796-.244-1.313-.244h-.815v-1.093h.815c.404 0 .759-.073 1.064-.219s.549-.351.721-.617.263-.576.263-.934c0-.345-.076-.645-.228-.9a1.57 1.57 0 0 0-.647-.597c-.275-.142-.599-.213-.974-.213a2.57 2.57 0 0 0-.994.193 1.85 1.85 0 0 0-.756.552 1.43 1.43 0 0 0-.318.865h-1.193c.02-.533.18-1.001.482-1.402a3.03 3.03 0 0 1 1.183-.944c.491-.226 1.029-.338 1.616-.338.63 0 1.17.127 1.621.382s.797.585 1.039 1a2.61 2.61 0 0 1 .363 1.342c0 .573-.151 1.062-.453 1.467s-.704.684-1.218.84v.079c.643.107 1.145.38 1.507.821s.541.979.541 1.625c0 .554-.15 1.051-.452 1.492s-.706.782-1.223 1.034-1.105.378-1.765.378zm10.008-10.321l3.023 8.571h.119l3.023-8.571h1.292l-3.738 10.182h-1.273l-3.739-10.182h1.293z" class="D"/><g class="B E"><use href="#H" y="80"/><use href="#H" y="37"/></g><path d="M339.672 159.653c-.583 0-1.108-.116-1.576-.348s-.842-.55-1.123-.955a2.6 2.6 0 0 1-.463-1.382h1.194c.046.461.255.842.626 1.144a2.09 2.09 0 0 0 1.342.447c.418 0 .789-.098 1.114-.293s.585-.464.771-.806.283-.734.283-1.168c0-.444-.098-.84-.293-1.188a2.16 2.16 0 0 0-.796-.83c-.338-.203-.724-.305-1.158-.309-.312-.003-.632.045-.96.145s-.598.22-.81.372l-1.154-.139.617-5.011h5.29v1.094h-4.256l-.358 3.002h.06a2.66 2.66 0 0 1 .785-.412c.315-.11.643-.164.985-.164.623 0 1.178.149 1.665.447a3.13 3.13 0 0 1 1.154 1.213c.281.514.422 1.101.422 1.76 0 .65-.146 1.23-.437 1.74a3.2 3.2 0 0 1-1.194 1.203c-.507.292-1.083.438-1.73.438zm5.828-.06c-.245 0-.455-.088-.631-.263a.86.86 0 0 1-.264-.632.86.86 0 0 1 .895-.895.86.86 0 0 1 .632.264c.175.176.263.386.263.631a.84.84 0 0 1-.124.448.93.93 0 0 1-.323.328.86.86 0 0 1-.448.119zm5.946.06c-.749 0-1.387-.204-1.914-.612s-.929-1.006-1.208-1.784c-.278-.783-.417-1.727-.417-2.834 0-1.101.139-2.04.417-2.819s.686-1.379 1.213-1.79 1.167-.621 1.909-.621 1.377.207 1.904.621.935 1.008 1.213 1.79.423 1.718.423 2.819c0 1.107-.139 2.051-.418 2.834-.278.778-.681 1.373-1.208 1.784s-1.165.612-1.914.612zm0-1.094c.743 0 1.319-.358 1.73-1.074s.617-1.736.617-3.062c0-.882-.095-1.633-.284-2.252s-.454-1.092-.805-1.417-.767-.487-1.258-.487c-.736 0-1.311.362-1.725 1.088s-.621 1.745-.621 3.068c0 .881.093 1.63.278 2.247s.453 1.085.801 1.407a1.81 1.81 0 0 0 1.267.482zm9.963-9.227l3.023 8.571h.119l3.023-8.571h1.293l-3.739 10.182h-1.273l-3.738-10.182h1.292z" class="D"/><use href="#H" y="117" class="B E"/><path d="M340.07 186.332v10.182h-1.233v-8.89h-.06l-2.485 1.651v-1.253l2.545-1.69h1.233zm6.249 10.321c-.749 0-1.387-.204-1.914-.612s-.929-1.006-1.208-1.784-.417-1.727-.417-2.834c0-1.101.139-2.04.417-2.819s.686-1.379 1.213-1.79 1.167-.621 1.909-.621 1.377.207 1.904.621.935 1.008 1.214 1.79.422 1.718.422 2.819c0 1.107-.139 2.051-.418 2.834-.278.778-.681 1.373-1.208 1.784s-1.165.612-1.914.612zm0-1.094c.743 0 1.319-.358 1.73-1.074s.617-1.736.617-3.062c0-.882-.095-1.633-.283-2.252s-.455-1.092-.806-1.417a1.78 1.78 0 0 0-1.258-.487c-.735 0-1.311.362-1.725 1.088s-.621 1.745-.621 3.068c0 .881.093 1.63.278 2.247s.453 1.085.801 1.407a1.81 1.81 0 0 0 1.267.482zm5.949 1.034c-.245 0-.456-.088-.632-.263a.86.86 0 0 1-.263-.632.86.86 0 0 1 .895-.895.86.86 0 0 1 .895.895c0 .163-.042.312-.125.448s-.187.245-.323.328-.281.119-.447.119zm5.946.06c-.749 0-1.387-.204-1.914-.612s-.93-1.006-1.208-1.784-.418-1.727-.418-2.834c0-1.101.139-2.04.418-2.819s.686-1.379 1.213-1.79 1.166-.621 1.909-.621 1.377.207 1.904.621.935 1.008 1.213 1.79.423 1.718.423 2.819c0 1.107-.14 2.051-.418 2.834-.278.778-.681 1.373-1.208 1.784s-1.165.612-1.914.612zm0-1.094c.742 0 1.319-.358 1.73-1.074s.616-1.736.616-3.062c0-.882-.094-1.633-.283-2.252s-.454-1.092-.805-1.417-.768-.487-1.258-.487c-.736 0-1.311.362-1.725 1.088s-.622 1.745-.622 3.068c0 .881.093 1.63.279 2.247s.452 1.085.8 1.407.774.482 1.268.482zm9.963-9.227l3.023 8.571h.119l3.023-8.571h1.292l-3.738 10.182h-1.273l-3.739-10.182h1.293zm-27.107 41v10.182h-1.233v-8.89h-.06l-2.485 1.651v-1.253l2.545-1.69h1.233zm2.928 10.182v-.895l3.361-3.679.975-1.124a4.12 4.12 0 0 0 .566-.905c.126-.285.189-.583.189-.894 0-.358-.086-.668-.258-.93a1.68 1.68 0 0 0-.696-.607c-.295-.142-.627-.213-.995-.213-.391 0-.732.081-1.024.243a1.68 1.68 0 0 0-.671.671c-.156.289-.234.627-.234 1.014h-1.173c0-.596.138-1.12.413-1.571a2.87 2.87 0 0 1 1.123-1.054 3.4 3.4 0 0 1 1.606-.377c.597 0 1.125.126 1.586.377a2.84 2.84 0 0 1 1.084 1.02c.262.427.393.903.393 1.427a3.07 3.07 0 0 1-.204 1.098c-.133.355-.365.751-.696 1.188s-.784.965-1.367 1.591l-2.287 2.446v.08h4.733v1.094h-6.424zm9.352.079c-.245 0-.456-.088-.632-.263a.86.86 0 0 1-.263-.632.86.86 0 0 1 .895-.895.86.86 0 0 1 .895.895c0 .163-.042.312-.125.448s-.187.245-.323.328-.281.119-.447.119zm5.946.06c-.749 0-1.387-.204-1.914-.612s-.93-1.006-1.208-1.784-.418-1.727-.418-2.834c0-1.101.139-2.04.418-2.819s.686-1.379 1.213-1.79 1.166-.621 1.909-.621 1.377.207 1.904.621.935 1.008 1.213 1.79.423 1.718.423 2.819c0 1.107-.14 2.051-.418 2.834-.278.778-.681 1.373-1.208 1.784s-1.165.612-1.914.612zm0-1.094c.742 0 1.319-.358 1.73-1.074s.616-1.736.616-3.062c0-.882-.094-1.633-.283-2.252s-.454-1.092-.805-1.417-.768-.487-1.258-.487c-.736 0-1.311.362-1.725 1.088s-.622 1.745-.622 3.068c0 .881.093 1.63.279 2.247s.452 1.085.8 1.407.774.482 1.268.482zm9.963-9.227l3.023 8.571h.119l3.023-8.571h1.292l-3.738 10.182h-1.273l-3.739-10.182h1.293zm-1.172 48.108h-1.293l3.739-10.181h1.273l3.738 10.181h-1.292l-3.043-8.571h-.079l-3.043 8.571zm.477-3.977h5.211v1.094h-5.211v-1.094zm9.581-6.204v10.181h-1.174v-10.181h1.174zm3.879 10.181l-2.327-7.636h1.233l1.651 5.847h.079l1.631-5.847h1.253l1.61 5.827h.08l1.65-5.827h1.233l-2.326 7.636h-1.154l-1.67-5.866h-.119l-1.671 5.866h-1.153zm11.892.179c-.484 0-.923-.091-1.318-.273a2.23 2.23 0 0 1-.939-.8c-.232-.348-.348-.776-.348-1.273 0-.438.086-.792.258-1.064a1.84 1.84 0 0 1 .691-.646 3.65 3.65 0 0 1 .955-.348l1.059-.189 1.128-.135c.292-.033.504-.087.637-.164s.203-.208.203-.397v-.04c0-.491-.134-.872-.402-1.144s-.668-.407-1.208-.407c-.56 0-1 .122-1.318.368s-.542.507-.671.785l-1.114-.398c.199-.464.464-.825.796-1.083s.699-.445 1.094-.547a4.7 4.7 0 0 1 1.173-.159c.245 0 .527.029.845.089a2.7 2.7 0 0 1 .93.353c.301.179.552.449.75.81s.299.846.299 1.452v5.031h-1.174v-1.034h-.059c-.08.166-.212.343-.398.532s-.432.35-.741.483-.684.198-1.128.198zm.179-1.054c.464 0 .855-.091 1.173-.273a1.89 1.89 0 0 0 .726-.706c.163-.288.248-.592.248-.91v-1.074c-.049.06-.159.115-.328.164s-.358.088-.576.125l-.632.089-.492.06c-.305.04-.59.104-.855.194s-.474.217-.636.393-.239.407-.239.705c0 .408.151.716.452.925s.691.308 1.159.308zm5.945 3.739c-.199 0-.377-.017-.532-.05a1.37 1.37 0 0 1-.324-.089l.299-1.034a2.25 2.25 0 0 0 .755.079c.219-.02.413-.117.582-.293s.33-.452.472-.84l.219-.597-2.824-7.676h1.273l2.108 6.085h.079l2.108-6.085h1.273l-3.241 8.75c-.146.394-.327.721-.542.979a2.07 2.07 0 0 1-.751.582c-.285.126-.6.189-.954.189zm12.446-8.79l-1.054.299a1.94 1.94 0 0 0-.293-.512c-.126-.17-.299-.309-.517-.418s-.499-.164-.841-.164c-.467 0-.856.108-1.168.323s-.462.482-.462.81c0 .292.106.522.318.691s.543.31.994.423l1.134.278c.682.166 1.191.42 1.526.761s.502.774.502 1.308a1.94 1.94 0 0 1-.378 1.173c-.248.345-.596.616-1.044.815s-.968.299-1.561.299c-.779 0-1.423-.17-1.934-.508s-.833-.831-.969-1.481l1.113-.279c.106.411.307.72.602.925s.688.308 1.168.308c.547 0 .981-.116 1.303-.348s.487-.517.487-.845a.89.89 0 0 0-.278-.666c-.186-.182-.471-.318-.856-.408l-1.272-.298c-.7-.166-1.213-.422-1.541-.771s-.488-.79-.488-1.317c0-.431.121-.812.363-1.143s.579-.592 1-.781.904-.283 1.441-.283c.756 0 1.349.165 1.78.497s.743.769.925 1.312zm14.593.836c0 1.073-.194 2.001-.582 2.784s-.92 1.385-1.596 1.809-1.448.637-2.317.637-1.64-.212-2.316-.637-1.208-1.027-1.596-1.809-.582-1.711-.582-2.784.194-2.002.582-2.785.92-1.385 1.596-1.809 1.448-.637 2.316-.637 1.641.213 2.317.637 1.208 1.027 1.596 1.809.582 1.711.582 2.785zm-1.193 0c0-.882-.148-1.626-.443-2.233s-.688-1.065-1.188-1.377-1.054-.467-1.671-.467a3.11 3.11 0 0 0-1.675.467c-.497.312-.893.771-1.188 1.377s-.438 1.351-.438 2.233.146 1.625.438 2.232.691 1.065 1.188 1.377a3.11 3.11 0 0 0 1.675.467c.617 0 1.174-.156 1.671-.467s.896-.771 1.188-1.377.443-1.351.443-2.232zm4.28.497v4.593h-1.173v-7.636h1.133v1.193h.1a2.18 2.18 0 0 1 .815-.934c.365-.239.835-.358 1.412-.358.517 0 .969.106 1.357.318s.69.527.905.954.323.962.323 1.611v4.852h-1.173v-4.772c0-.6-.156-1.068-.467-1.402s-.739-.507-1.283-.507a2.05 2.05 0 0 0-1.004.243c-.292.163-.522.4-.691.711s-.254.69-.254 1.134zm7.434.298c0-1.253.162-2.405.487-3.455s.796-2.024 1.402-2.909h1.034c-.238.328-.462.733-.671 1.213a11.99 11.99 0 0 0-.542 1.576c-.156.57-.278 1.16-.368 1.77a12.92 12.92 0 0 0-.129 1.805c0 .789.076 1.589.229 2.401s.358 1.566.616 2.262.547 1.263.865 1.701h-1.034c-.606-.885-1.074-1.853-1.402-2.904s-.487-2.207-.487-3.46zm4.655 4.295v-7.636h1.133v1.193h.099c.16-.407.416-.724.771-.949s.781-.343 1.278-.343c.504 0 .923.114 1.258.343s.601.542.79.949h.08c.195-.394.488-.707.88-.939s.86-.353 1.407-.353c.682 0 1.241.213 1.675.641s.651 1.085.651 1.984v5.11h-1.173v-5.11c0-.564-.154-.967-.462-1.208s-.672-.363-1.089-.363c-.537 0-.953.162-1.248.487s-.443.729-.443 1.223v4.971h-1.193v-5.23c0-.434-.141-.784-.422-1.049s-.645-.402-1.089-.402a1.61 1.61 0 0 0-.855.243 1.85 1.85 0 0 0-.637.676c-.159.285-.238.615-.238.99v4.772h-1.173zm17.577-5.926l-1.054.299c-.067-.176-.164-.347-.294-.512a1.41 1.41 0 0 0-.517-.418c-.219-.109-.499-.164-.84-.164-.467 0-.857.108-1.168.323s-.463.482-.463.81c0 .292.106.522.319.691s.543.31.994.423l1.133.278c.683.166 1.192.42 1.527.761s.502.774.502 1.308a1.94 1.94 0 0 1-.378 1.173c-.249.345-.597.616-1.044.815s-.968.299-1.561.299c-.779 0-1.424-.17-1.934-.508s-.834-.831-.97-1.481l1.114-.279c.106.411.307.72.602.925s.687.308 1.168.308c.547 0 .981-.116 1.303-.348s.487-.517.487-.845c0-.265-.093-.487-.279-.666s-.47-.318-.855-.408l-1.273-.298c-.699-.166-1.213-.422-1.541-.771s-.487-.79-.487-1.317c0-.431.121-.812.363-1.143s.578-.592.999-.781.905-.283 1.442-.283c.756 0 1.349.165 1.78.497a2.71 2.71 0 0 1 .925 1.312zm4.411 1.631c0 1.253-.164 2.406-.493 3.46a10.75 10.75 0 0 1-1.397 2.904h-1.034c.239-.329.461-.733.667-1.213a11.49 11.49 0 0 0 .546-1.571 14.45 14.45 0 0 0 .363-1.775 12.43 12.43 0 0 0 .135-1.805 13.03 13.03 0 0 0-.229-2.401c-.153-.812-.358-1.566-.617-2.262s-.546-1.263-.865-1.701h1.034c.607.885 1.073 1.855 1.397 2.909s.493 2.202.493 3.455zm95.074-5.943v8.728h-1.057v-7.62h-.051l-2.13 1.415v-1.074l2.181-1.449h1.057zm2.51 8.728v-.767l2.881-3.154.835-.963c.219-.275.381-.534.486-.775a1.88 1.88 0 0 0 .162-.767c0-.307-.074-.573-.222-.797a1.43 1.43 0 0 0-.596-.52c-.253-.122-.537-.183-.853-.183-.335 0-.627.069-.877.208a1.44 1.44 0 0 0-.576.576c-.133.247-.2.537-.2.869h-1.006c0-.511.118-.96.354-1.347s.557-.687.963-.903.868-.324 1.377-.324.964.108 1.359.324.704.507.929.874a2.29 2.29 0 0 1 .337 1.223 2.64 2.64 0 0 1-.175.941c-.114.304-.313.644-.597 1.019s-.672.826-1.172 1.363l-1.96 2.097v.068h4.057v.938h-5.506zm10.112.119c-.642 0-1.188-.175-1.64-.524s-.797-.862-1.036-1.53-.358-1.48-.358-2.429c0-.943.12-1.749.358-2.416s.588-1.182 1.04-1.534 1-.533 1.636-.533 1.181.178 1.633.533.801.863 1.039 1.534.363 1.473.363 2.416c0 .949-.12 1.759-.358 2.429s-.584 1.178-1.036 1.53-.999.524-1.641.524zm0-.937c.637 0 1.131-.307 1.483-.921s.529-1.489.529-2.625c0-.756-.081-1.399-.243-1.93s-.389-.936-.69-1.215-.658-.417-1.079-.417c-.63 0-1.123.311-1.478.933s-.533 1.496-.533 2.629c0 .756.08 1.398.239 1.926s.388.931.686 1.206a1.55 1.55 0 0 0 1.086.414zm7.5.937c-.642 0-1.188-.175-1.64-.524s-.797-.862-1.036-1.53-.358-1.48-.358-2.429c0-.943.12-1.749.358-2.416s.588-1.182 1.04-1.534 1-.533 1.636-.533 1.181.178 1.633.533.801.863 1.039 1.534.363 1.473.363 2.416c0 .949-.12 1.759-.358 2.429s-.584 1.178-1.036 1.53-.999.524-1.641.524zm0-.937c.637 0 1.131-.307 1.483-.921s.529-1.489.529-2.625c0-.756-.081-1.399-.243-1.93s-.389-.936-.69-1.215-.658-.417-1.079-.417c-.63 0-1.123.311-1.478.933s-.533 1.496-.533 2.629c0 .756.08 1.398.239 1.926s.388.931.686 1.206a1.55 1.55 0 0 0 1.086.414z" class="D"/><rect x="336.437" y="265.514" width="13" height="13" rx="2" fill="#f85550"/><use href="#H" y="215" class="B E"/><path d="M515.223 334.852v-.629c0-1.532.392-2.726 1.175-3.582.789-.857 1.798-1.286 3.029-1.286s2.237.429 3.021 1.286 1.183 2.05 1.183 3.582v.629c0 1.531-.394 2.725-1.183 3.582s-1.791 1.285-3.021 1.285-2.24-.429-3.029-1.285c-.783-.857-1.175-2.051-1.175-3.582zm1.326 0c0 1.166.262 2.082.786 2.748a2.54 2.54 0 0 0 2.092.998 2.52 2.52 0 0 0 2.085-.998c.528-.666.793-1.582.793-2.748v-.629c0-1.167-.265-2.083-.793-2.748s-1.219-.998-2.085-.998-1.563.332-2.092.998-.786 1.581-.786 2.748v.629zm8.88 4.662v-10.5h1.271v6.617l3.076-3.309h1.443l-4.519 4.799v2.393h-1.271zm4.634 0l-2.802-3.719.793-.875 3.5 4.594h-1.491zm1.997-2.119c0-.73.289-1.297.868-1.703s1.315-.608 2.208-.608h1.627v-.492c0-.433-.112-.784-.335-1.053s-.609-.41-1.156-.41-.938.114-1.175.342-.349.483-.349.779v.034h-1.265v-.034c0-.57.253-1.066.759-1.49.511-.429 1.199-.643 2.065-.643s1.535.208 2.009.622.718 1.032.718 1.853v3.281c0 .296.023.577.069.841a3.31 3.31 0 0 0 .191.69v.11h-1.231c-.063-.114-.123-.262-.177-.445a2.89 2.89 0 0 1-.096-.547c-.169.297-.442.559-.82.787s-.857.341-1.449.341c-.684 0-1.265-.193-1.744-.581s-.717-.945-.717-1.674zm1.271-.069c0 .41.119.732.356.964s.606.349 1.107.349.955-.174 1.36-.52.609-.713.609-1.1v-1.033h-1.491c-.638 0-1.121.121-1.449.363a1.15 1.15 0 0 0-.492.977zm5.906 5.031v-1.08a2.82 2.82 0 0 0 .397.089 2.72 2.72 0 0 0 .424.034 1.13 1.13 0 0 0 .834-.362c.237-.237.487-.754.752-1.552v-.007l-2.68-7.157h1.23l1.702 4.731.171.512.13.445h.041l.137-.445.171-.512 1.586-4.731h1.203l-2.919 8.149c-.228.638-.531 1.134-.909 1.49s-.834.533-1.381.533c-.182 0-.344-.011-.485-.034s-.276-.057-.404-.103z" class="G"/><path d="M359.223 334.852v-.629c0-1.532.392-2.726 1.175-3.582.789-.857 1.776-1.286 2.96-1.286s2.113.326 2.783.978a3.13 3.13 0 0 1 1.011 2.345v.068h-1.312v-.068c0-.634-.205-1.158-.615-1.573s-1.033-.628-1.867-.628a2.54 2.54 0 0 0-2.016.922c-.529.616-.793 1.557-.793 2.824v.629c0 1.166.262 2.082.786 2.748s1.203.998 2.023.998c.784 0 1.377-.212 1.778-.636s.633-.946.697-1.566l.007-.068h1.312l-.006.068c-.092.912-.449 1.694-1.074 2.345s-1.529.978-2.714.978-2.171-.429-2.96-1.285c-.783-.857-1.175-2.051-1.175-3.582zm9.126 2.543c0-.73.289-1.297.868-1.703s1.315-.608 2.208-.608h1.627v-.492c0-.433-.112-.784-.335-1.053s-.609-.41-1.155-.41-.939.114-1.176.342-.349.483-.349.779v.034h-1.265v-.034c0-.57.253-1.066.759-1.49s1.199-.643 2.065-.643 1.536.208 2.009.622c.479.415.718 1.032.718 1.853v3.281c0 .296.023.577.069.841a3.31 3.31 0 0 0 .191.69v.11h-1.23a2.18 2.18 0 0 1-.178-.445 2.89 2.89 0 0 1-.096-.547c-.169.297-.442.559-.82.787s-.857.341-1.449.341c-.684 0-1.265-.193-1.744-.581s-.717-.945-.717-1.674zm1.271-.069c0 .41.119.732.356.964s.606.349 1.107.349.955-.174 1.36-.52.609-.713.609-1.1v-1.033h-1.49c-.638 0-1.122.121-1.45.363a1.15 1.15 0 0 0-.492.977zm6.686 2.188v-7.192h1.148l.055.923h.041a2.79 2.79 0 0 1 .95-.772c.378-.192.795-.287 1.251-.287.725 0 1.301.207 1.729.622s.65 1.098.65 2.064v4.642h-1.272v-4.656c0-.574-.129-.984-.389-1.23s-.62-.376-1.094-.376a1.81 1.81 0 0 0-1.073.328 2.25 2.25 0 0 0-.725.848v5.086h-1.271zm7.348-3.487v-.218c0-1.085.294-1.971.882-2.66s1.406-1.032 2.441-1.032c.957 0 1.683.26 2.18.779s.745 1.092.745 1.73v.034h-1.23v-.034c0-.387-.135-.729-.403-1.025s-.7-.445-1.292-.445c-.693 0-1.204.258-1.532.773s-.492 1.137-.492 1.88v.218c0 .743.164 1.372.492 1.887s.839.766 1.532.766c.592 0 1.023-.148 1.292-.445s.403-.638.403-1.025v-.034h1.23v.034c0 .638-.248 1.217-.745 1.736s-1.223.773-2.18.773c-1.035 0-1.848-.344-2.441-1.032s-.882-1.575-.882-2.66zm7.301 0v-.218c0-1.085.296-1.971.889-2.66s1.385-1.032 2.365-1.032 1.734.321 2.263.964.793 1.511.793 2.605v.519h-5.531v-1.012h4.252v-.164c0-.519-.148-.961-.444-1.326s-.722-.547-1.278-.547c-.675 0-1.178.258-1.511.773s-.499 1.137-.499 1.88v.218c0 .743.175 1.372.526 1.887s.896.766 1.634.766c.456 0 .848-.101 1.176-.301a2.84 2.84 0 0 0 .8-.711l.82.649c-.228.342-.581.661-1.06.957-.474.297-1.052.445-1.736.445-1.116 0-1.973-.344-2.57-1.032s-.889-1.575-.889-2.66zm7.923 3.487v-10.5h1.271v10.5h-1.271z" fill="#797979"/><path d="M457.687 308.514v49" class="B E"/><g clip-path="url(#E)" class="C"><path d="M341.686 276.441a1.05 1.05 0 0 1-.406-.081 1.06 1.06 0 0 1-.344-.23l-2.317-2.316.884-.883 2.183 2.183 5.683-5.683.884.883-5.817 5.816a1.04 1.04 0 0 1-.344.23c-.129.054-.266.081-.406.081z"/></g><circle cx="570.185" cy="112.265" r="3.251" class="G"/><path d="M22.679 210.93h-.923l2.67-7.273h.909l2.671 7.273h-.923l-2.173-6.122h-.057l-2.173 6.122zm.341-2.841h3.722v.781H23.02v-.781zm6.843-.441v3.282h-.838v-5.455h.81v.852h.071a1.56 1.56 0 0 1 .582-.667c.26-.168.597-.256 1.009-.256.369 0 .692.076.969.227s.492.377.646.682.231.687.231 1.151v3.466h-.838v-3.409c0-.429-.111-.763-.334-1.002s-.528-.362-.916-.362a1.46 1.46 0 0 0-.717.174c-.21.116-.373.285-.494.508s-.181.492-.181.809zm6.617 3.41a2.22 2.22 0 0 1-.941-.196 1.61 1.61 0 0 1-.671-.572c-.166-.25-.249-.553-.249-.909 0-.312.062-.565.185-.76a1.31 1.31 0 0 1 .494-.461 2.62 2.62 0 0 1 .682-.249l.756-.135.806-.096c.208-.023.36-.062.454-.117s.146-.149.146-.284v-.028c0-.351-.096-.623-.288-.817s-.477-.291-.863-.291c-.4 0-.714.087-.941.263a1.55 1.55 0 0 0-.479.561l-.796-.284c.142-.332.331-.59.568-.775a2.12 2.12 0 0 1 .781-.39 3.23 3.23 0 0 1 .838-.114 3.29 3.29 0 0 1 .604.064c.227.043.451.124.664.252s.394.321.536.579.213.604.213 1.037v3.594h-.838v-.739h-.043c-.057.118-.151.245-.284.38s-.309.25-.529.344a2.05 2.05 0 0 1-.806.143zm.128-.753c.331 0 .611-.065.838-.196a1.35 1.35 0 0 0 .518-.504c.116-.206.178-.422.178-.65v-.767c-.035.043-.114.082-.234.117a3.6 3.6 0 0 1-.412.089l-.451.064-.352.043c-.218.028-.421.074-.611.138s-.339.155-.455.281-.17.291-.17.504c0 .291.108.511.323.661s.494.22.827.22zm4.74-6.648v7.273h-.838v-7.273h.838zm3.751 7.386c-.492 0-.925-.117-1.296-.351s-.658-.563-.867-.984-.309-.914-.309-1.477.103-1.064.309-1.488a2.38 2.38 0 0 1 .867-.987c.372-.235.804-.352 1.296-.352s.923.117 1.293.352.66.563.867.987.313.92.313 1.488-.104 1.056-.312 1.477-.495.749-.867.984-.8.351-1.293.351zm0-.753c.374 0 .682-.095.923-.287a1.7 1.7 0 0 0 .536-.757c.116-.313.174-.651.174-1.015s-.058-.704-.174-1.019a1.72 1.72 0 0 0-.536-.764c-.241-.194-.549-.291-.923-.291s-.682.097-.923.291a1.72 1.72 0 0 0-.536.764c-.116.315-.174.654-.174 1.019a2.89 2.89 0 0 0 .174 1.015c.116.312.295.565.536.757s.549.287.923.287zm5.953 2.799c-.405 0-.753-.052-1.044-.156a2.22 2.22 0 0 1-.728-.405 2.23 2.23 0 0 1-.458-.533l.668-.469a5.17 5.17 0 0 0 .288.341 1.47 1.47 0 0 0 .476.338c.201.095.47.145.799.145.44 0 .804-.106 1.09-.319s.43-.547.43-1.002v-1.108H52.5c-.062.1-.149.223-.263.369a1.49 1.49 0 0 1-.483.388c-.208.111-.49.166-.845.166-.44 0-.836-.104-1.186-.312s-.624-.511-.828-.909-.302-.881-.302-1.449c0-.559.098-1.045.295-1.46s.47-.738.82-.965.755-.345 1.214-.345c.355 0 .637.059.845.178a1.48 1.48 0 0 1 .483.397l.263.363h.085v-.867h.81v5.611c0 .469-.107.85-.32 1.143a1.85 1.85 0 0 1-.852.65 3.21 3.21 0 0 1-1.186.21zm-.028-2.997c.336 0 .62-.077.852-.231s.408-.375.529-.664.181-.635.181-1.037a2.83 2.83 0 0 0-.178-1.041 1.56 1.56 0 0 0-.526-.706c-.232-.171-.518-.256-.859-.256-.355 0-.651.09-.888.27a1.62 1.62 0 0 0-.529.724 2.8 2.8 0 0 0-.174 1.009 2.65 2.65 0 0 0 .178 1.005 1.54 1.54 0 0 0 .533.682c.237.163.53.245.881.245zm10.824-4.617c-.043-.36-.215-.639-.518-.838s-.675-.298-1.115-.298a2.12 2.12 0 0 0-.845.156 1.33 1.33 0 0 0-.561.43c-.135.183-.199.389-.199.621a.89.89 0 0 0 .139.501c.095.137.215.252.362.344a2.58 2.58 0 0 0 .462.224l.444.139.739.198a6.72 6.72 0 0 1 .632.206c.232.087.458.208.671.359a1.83 1.83 0 0 1 .533.575c.14.235.209.522.209.863 0 .393-.103.748-.309 1.066s-.502.569-.895.756-.865.281-1.424.281c-.521 0-.972-.085-1.353-.253a2.14 2.14 0 0 1-.895-.703 1.99 1.99 0 0 1-.366-1.047h.909a1.14 1.14 0 0 0 .277.682 1.5 1.5 0 0 0 .618.397 2.51 2.51 0 0 0 .81.128 2.38 2.38 0 0 0 .906-.163 1.56 1.56 0 0 0 .636-.462c.157-.197.234-.431.234-.696 0-.241-.068-.438-.202-.589s-.312-.275-.533-.37a5.58 5.58 0 0 0-.714-.248l-.895-.256c-.568-.163-1.018-.397-1.349-.7s-.497-.699-.497-1.189c0-.407.11-.763.33-1.066s.521-.542.895-.71.797-.255 1.261-.255.885.084 1.25.252a2.16 2.16 0 0 1 .866.681 1.7 1.7 0 0 1 .341.984h-.852zm4.573 5.568c-.526 0-.979-.116-1.36-.348s-.671-.561-.877-.98-.305-.911-.305-1.47.102-1.051.305-1.477.492-.763.859-1.002.8-.362 1.293-.362a2.58 2.58 0 0 1 .842.142 2.09 2.09 0 0 1 .756.462 2.21 2.21 0 0 1 .543.838c.135.348.202.776.202 1.285v.356h-4.204v-.725h3.352a1.79 1.79 0 0 0-.185-.824 1.4 1.4 0 0 0-.519-.572c-.225-.14-.485-.209-.788-.209-.334 0-.623.083-.867.249a1.63 1.63 0 0 0-.558.639 1.88 1.88 0 0 0-.195.845v.483c0 .412.071.761.213 1.047a1.53 1.53 0 0 0 .6.65c.256.147.553.22.891.22.22 0 .419-.03.597-.092a1.27 1.27 0 0 0 .465-.284 1.29 1.29 0 0 0 .302-.476l.81.227a1.79 1.79 0 0 1-.43.725c-.201.206-.45.367-.746.483s-.629.17-.998.17zm4.371-3.395v3.282h-.838v-5.455h.81v.852h.071a1.56 1.56 0 0 1 .582-.667c.26-.168.597-.256 1.008-.256.369 0 .692.076.969.227s.492.377.646.682.231.687.231 1.151v3.466h-.838v-3.409c0-.429-.111-.763-.334-1.002s-.528-.362-.916-.362a1.46 1.46 0 0 0-.717.174 1.24 1.24 0 0 0-.494.508c-.121.222-.181.492-.181.809zm8.875-.951l-.753.213c-.047-.126-.117-.248-.209-.366s-.213-.22-.369-.298-.356-.117-.6-.117c-.334 0-.612.076-.834.23s-.33.345-.33.579c0 .209.076.373.227.494s.388.221.71.302l.81.199c.488.118.851.299 1.09.543s.359.553.359.934c0 .312-.09.592-.27.838a1.79 1.79 0 0 1-.746.582c-.32.142-.691.213-1.115.213-.556 0-1.017-.12-1.381-.362s-.595-.594-.693-1.058l.796-.199c.076.294.219.514.43.661s.491.22.835.22c.391 0 .701-.083.93-.249s.348-.369.348-.604a.63.63 0 0 0-.199-.475c-.132-.131-.336-.228-.611-.292l-.909-.213c-.5-.118-.866-.302-1.101-.55s-.348-.565-.348-.941a1.35 1.35 0 0 1 .259-.817 1.75 1.75 0 0 1 .714-.557c.301-.134.646-.203 1.03-.203.54 0 .964.118 1.271.355a1.93 1.93 0 0 1 .66.938zm3.577 4.346c-.492 0-.924-.117-1.296-.351s-.658-.563-.867-.984-.309-.914-.309-1.477.103-1.064.309-1.488a2.36 2.36 0 0 1 .867-.987c.37-.234.804-.352 1.296-.352s.923.117 1.293.352.66.563.866.987.313.92.313 1.488-.104 1.056-.312 1.477a2.38 2.38 0 0 1-.866.984c-.371.235-.8.351-1.293.351zm0-.753c.374 0 .682-.095.923-.287a1.7 1.7 0 0 0 .536-.757c.116-.313.174-.651.174-1.015s-.058-.704-.174-1.019a1.72 1.72 0 0 0-.536-.764c-.241-.194-.549-.291-.923-.291s-.682.097-.923.291a1.72 1.72 0 0 0-.536.764c-.116.315-.174.654-.174 1.019a2.89 2.89 0 0 0 .174 1.015c.116.312.295.565.536.757s.549.287.923.287zm3.751.64v-5.455h.81v.824h.057c.099-.27.279-.489.54-.657a1.59 1.59 0 0 1 .881-.252l.231.003.21.011v.852a3.03 3.03 0 0 0-.195-.032 1.99 1.99 0 0 0-.316-.024c-.265 0-.502.055-.71.166a1.26 1.26 0 0 0-.49.455 1.23 1.23 0 0 0-.178.657v3.452h-.838zm7.584-4.233l-.753.213a1.36 1.36 0 0 0-.21-.366c-.093-.118-.213-.22-.369-.298s-.356-.117-.6-.117c-.334 0-.612.076-.835.23s-.33.345-.33.579c0 .209.076.373.227.494s.388.221.71.302l.81.199c.488.118.851.299 1.09.543s.359.553.359.934c0 .312-.09.592-.27.838a1.79 1.79 0 0 1-.746.582c-.32.142-.691.213-1.115.213-.556 0-1.017-.12-1.381-.362s-.595-.594-.692-1.058l.795-.199c.076.294.219.514.43.661s.491.22.835.22c.391 0 .701-.083.93-.249s.348-.369.348-.604a.63.63 0 0 0-.199-.475c-.132-.131-.336-.228-.611-.292l-.909-.213c-.5-.118-.867-.302-1.101-.55s-.348-.565-.348-.941a1.35 1.35 0 0 1 .259-.817 1.75 1.75 0 0 1 .714-.557c.301-.134.646-.203 1.03-.203.54 0 .964.118 1.271.355a1.93 1.93 0 0 1 .66.938zM22.381 147.93v-7.273h2.457c.57 0 1.037.103 1.399.309s.634.479.81.827.263.737.263 1.165-.088.818-.263 1.168-.44.63-.803.838-.826.309-1.392.309h-1.761v-.781h1.733c.391 0 .704-.067.941-.202s.408-.317.515-.547.163-.494.163-.785a1.8 1.8 0 0 0-.163-.781c-.107-.23-.279-.41-.518-.54s-.556-.199-.952-.199h-1.548v6.492h-.881zm8.391.113c-.492 0-.924-.117-1.296-.351s-.658-.563-.866-.984-.309-.914-.309-1.477.103-1.064.309-1.488.497-.753.866-.987.804-.352 1.296-.352.923.117 1.293.352.66.563.867.987.313.92.313 1.488-.104 1.056-.312 1.477-.495.749-.867.984-.8.351-1.293.351zm0-.753c.374 0 .682-.095.923-.287a1.7 1.7 0 0 0 .536-.757c.116-.313.174-.651.174-1.015s-.058-.704-.174-1.019a1.72 1.72 0 0 0-.536-.764c-.241-.194-.549-.291-.923-.291s-.682.097-.923.291a1.72 1.72 0 0 0-.536.764c-.116.315-.174.654-.174 1.019a2.89 2.89 0 0 0 .174 1.015c.116.312.295.565.536.757s.549.287.923.287zm4.801.64l-1.662-5.455h.881l1.179 4.176h.057l1.165-4.176h.895l1.151 4.162h.057l1.179-4.162h.881l-1.662 5.455h-.824l-1.193-4.191h-.085l-1.193 4.191h-.824zm8.99.113c-.525 0-.979-.116-1.36-.348s-.671-.561-.877-.98-.305-.911-.305-1.47.102-1.051.305-1.477.492-.763.859-1.002.8-.362 1.293-.362a2.58 2.58 0 0 1 .842.142 2.09 2.09 0 0 1 .756.462c.227.211.408.49.543.838s.202.776.202 1.285v.356h-4.205v-.725h3.352a1.79 1.79 0 0 0-.185-.824c-.121-.241-.294-.432-.518-.572s-.485-.209-.788-.209c-.334 0-.623.083-.866.249a1.63 1.63 0 0 0-.558.639 1.88 1.88 0 0 0-.195.845v.483c0 .412.071.761.213 1.047a1.53 1.53 0 0 0 .6.65c.256.147.553.22.891.22.22 0 .419-.03.597-.092a1.27 1.27 0 0 0 .465-.284 1.29 1.29 0 0 0 .302-.476l.81.227a1.79 1.79 0 0 1-.43.725c-.201.206-.45.367-.746.483s-.628.17-.998.17zm3.533-.113v-5.455h.81v.824h.057a1.31 1.31 0 0 1 .54-.657 1.59 1.59 0 0 1 .881-.252l.231.003.209.011v.852a3.03 3.03 0 0 0-.195-.032 1.99 1.99 0 0 0-.316-.024c-.265 0-.502.055-.71.166a1.26 1.26 0 0 0-.49.455 1.23 1.23 0 0 0-.177.657v3.452h-.838zm12.783-3.637c0 .767-.139 1.43-.416 1.989s-.657.99-1.14 1.293-1.035.454-1.655.454-1.172-.151-1.655-.454-.863-.734-1.14-1.293-.416-1.222-.416-1.989.139-1.43.416-1.988.657-.99 1.14-1.293 1.034-.454 1.655-.454 1.172.151 1.655.454.863.734 1.14 1.293.416 1.221.416 1.988zm-.852 0c0-.629-.105-1.161-.316-1.594s-.491-.761-.849-.984-.753-.334-1.193-.334-.839.112-1.197.334-.638.551-.849.984-.312.965-.312 1.594.104 1.162.313 1.595.494.761.849.983.756.334 1.197.334.838-.111 1.193-.334.64-.55.849-.983.316-.965.316-1.595zm5.657 1.407v-3.225h.838v5.455h-.838v-.924h-.057a1.79 1.79 0 0 1-.597.707c-.27.192-.611.288-1.023.288-.341 0-.644-.075-.909-.224a1.55 1.55 0 0 1-.625-.682c-.151-.303-.227-.69-.227-1.154v-3.466h.838v3.409c0 .398.111.715.334.952s.511.355.859.355a1.42 1.42 0 0 0 .636-.16c.218-.106.4-.27.547-.49s.224-.501.224-.841zm4.745-3.225v.71h-2.827v-.71h2.827zm-2.003-1.307h.838v5.199c0 .237.034.414.103.533a.51.51 0 0 0 .27.234 1.08 1.08 0 0 0 .352.057 1.55 1.55 0 0 0 .227-.014l.142-.029.171.753a1.58 1.58 0 0 1-.238.064 1.73 1.73 0 0 1-.387.036 1.68 1.68 0 0 1-.696-.153 1.37 1.37 0 0 1-.561-.465c-.149-.208-.22-.471-.22-.789v-5.426zm3.263 8.807v-7.5h.81v.867h.099l.256-.363c.111-.149.27-.281.476-.397s.49-.178.845-.178c.459 0 .864.115 1.215.345s.624.555.82.976.295.919.295 1.492-.098 1.078-.295 1.502-.469.748-.817.98-.749.344-1.204.344c-.35 0-.631-.058-.842-.174s-.373-.252-.487-.401l-.263-.376h-.071v2.883h-.838zm.824-4.773c0 .412.06.776.181 1.091s.297.557.529.735.516.262.852.262c.35 0 .643-.092.877-.277a1.69 1.69 0 0 0 .533-.752c.121-.318.181-.67.181-1.059a2.88 2.88 0 0 0-.177-1.037c-.118-.308-.292-.555-.529-.735s-.529-.273-.884-.273c-.341 0-.627.086-.859.259a1.56 1.56 0 0 0-.526.718 2.95 2.95 0 0 0-.178 1.068zm8.707.498v-3.225h.838v5.455h-.838v-.924h-.057a1.79 1.79 0 0 1-.597.707c-.27.192-.611.288-1.023.288-.341 0-.644-.075-.909-.224a1.55 1.55 0 0 1-.625-.682c-.151-.303-.227-.69-.227-1.154v-3.466h.838v3.409c0 .398.111.715.334.952s.511.355.859.355a1.42 1.42 0 0 0 .636-.16c.218-.106.4-.27.547-.49s.224-.501.224-.841zm4.745-3.225v.71h-2.827v-.71h2.827zm-2.003-1.307h.838v5.199c0 .237.034.414.103.533a.51.51 0 0 0 .27.234 1.08 1.08 0 0 0 .352.057 1.55 1.55 0 0 0 .227-.014l.142-.029.171.753a1.58 1.58 0 0 1-.238.064 1.73 1.73 0 0 1-.387.036 1.68 1.68 0 0 1-.696-.153 1.37 1.37 0 0 1-.561-.465c-.149-.208-.22-.471-.22-.789v-5.426z" class="F"/><path d="M33.358 236.475c-.043-.36-.215-.639-.518-.838s-.675-.298-1.115-.298a2.12 2.12 0 0 0-.845.156 1.33 1.33 0 0 0-.561.43c-.135.183-.199.389-.199.621a.89.89 0 0 0 .139.501c.095.137.215.252.362.344a2.58 2.58 0 0 0 .462.224l.444.139.739.198a6.72 6.72 0 0 1 .632.206c.232.087.458.208.671.359s.393.341.533.575.21.522.21.863c0 .393-.103.748-.309 1.066s-.502.569-.895.756-.865.281-1.424.281c-.521 0-.972-.085-1.353-.253a2.14 2.14 0 0 1-.895-.703 1.99 1.99 0 0 1-.366-1.047h.909a1.14 1.14 0 0 0 .277.682c.163.177.369.31.618.397s.521.128.81.128c.336 0 .638-.054.906-.163s.479-.265.636-.462.234-.431.234-.696c0-.241-.068-.438-.202-.589s-.312-.275-.533-.37a5.58 5.58 0 0 0-.714-.248l-.895-.256c-.568-.163-1.018-.397-1.349-.7s-.497-.699-.497-1.189c0-.407.11-.763.33-1.066s.521-.542.895-.71.797-.255 1.261-.255.886.084 1.25.252a2.16 2.16 0 0 1 .867.681 1.7 1.7 0 0 1 .341.984h-.852zm4.573 5.568c-.526 0-.979-.116-1.36-.348s-.671-.561-.877-.98-.305-.911-.305-1.47.102-1.051.305-1.477.492-.763.859-1.002.8-.362 1.293-.362a2.58 2.58 0 0 1 .842.142 2.09 2.09 0 0 1 .756.462 2.21 2.21 0 0 1 .543.838c.135.348.203.776.203 1.285v.356h-4.205v-.725h3.352a1.79 1.79 0 0 0-.185-.824c-.121-.241-.294-.432-.518-.572s-.485-.209-.788-.209c-.334 0-.623.083-.867.249a1.63 1.63 0 0 0-.557.639 1.88 1.88 0 0 0-.195.845v.483c0 .412.071.761.213 1.047a1.53 1.53 0 0 0 .6.65c.256.147.553.22.891.22.22 0 .419-.03.597-.092a1.27 1.27 0 0 0 .465-.284 1.29 1.29 0 0 0 .302-.476l.81.227a1.79 1.79 0 0 1-.43.725c-.201.206-.45.367-.746.483s-.629.17-.998.17zm4.371-3.395v3.282h-.838v-5.455h.81v.852h.071a1.56 1.56 0 0 1 .582-.667c.26-.168.597-.256 1.008-.256.369 0 .693.076.97.227s.492.377.646.682.231.687.231 1.151v3.466h-.838v-3.409c0-.429-.111-.763-.334-1.002s-.528-.362-.916-.362a1.46 1.46 0 0 0-.717.174c-.21.116-.373.285-.494.508s-.181.492-.181.809zm8.875-.951l-.753.213c-.047-.126-.117-.248-.209-.366s-.213-.22-.369-.298-.356-.117-.6-.117c-.334 0-.612.076-.834.23s-.33.345-.33.579c0 .209.076.373.227.494s.388.221.71.302l.81.199c.488.118.851.299 1.09.543s.359.553.359.934c0 .312-.09.592-.27.838a1.79 1.79 0 0 1-.746.582c-.32.142-.691.213-1.115.213-.556 0-1.017-.12-1.381-.362s-.595-.594-.692-1.058l.795-.199c.076.294.219.514.43.661s.491.22.834.22c.391 0 .701-.083.93-.249s.348-.369.348-.604a.63.63 0 0 0-.199-.475c-.133-.131-.336-.228-.611-.292l-.909-.213c-.5-.118-.867-.302-1.101-.55s-.348-.565-.348-.941a1.35 1.35 0 0 1 .259-.817 1.75 1.75 0 0 1 .714-.557c.301-.134.646-.203 1.03-.203.54 0 .964.118 1.271.355a1.94 1.94 0 0 1 .661.938zm3.577 4.346c-.492 0-.924-.117-1.296-.351s-.658-.563-.867-.984-.309-.914-.309-1.477.103-1.064.309-1.488a2.38 2.38 0 0 1 .867-.987c.372-.235.804-.352 1.296-.352s.923.117 1.293.352.66.563.866.987.313.92.313 1.488-.104 1.056-.312 1.477a2.38 2.38 0 0 1-.866.984c-.371.235-.8.351-1.293.351zm0-.753c.374 0 .682-.095.923-.287a1.7 1.7 0 0 0 .536-.757c.116-.313.174-.651.174-1.015s-.058-.704-.174-1.019a1.72 1.72 0 0 0-.536-.764c-.241-.194-.549-.291-.923-.291s-.682.097-.923.291a1.72 1.72 0 0 0-.536.764c-.116.315-.174.654-.174 1.019a2.89 2.89 0 0 0 .174 1.015c.116.312.295.565.536.757s.549.287.923.287zm3.751.64v-5.455h.81v.824h.057a1.31 1.31 0 0 1 .54-.657 1.59 1.59 0 0 1 .881-.252l.231.003.209.011v.852a3.03 3.03 0 0 0-.195-.032 1.99 1.99 0 0 0-.316-.024c-.265 0-.502.055-.71.166a1.26 1.26 0 0 0-.49.455 1.23 1.23 0 0 0-.178.657v3.452h-.838zm6.945 0h-.923l2.67-7.273h.909l2.67 7.273h-.923l-2.173-6.122h-.057l-2.173 6.122zm.341-2.841h3.722v.781h-3.722v-.781zm-8.41-64.159v-7.273h2.457c.571 0 1.037.103 1.399.309s.634.479.81.827.263.737.263 1.165-.088.818-.263 1.168-.44.63-.803.838-.826.309-1.392.309h-1.761v-.781h1.733c.391 0 .704-.067.941-.202s.408-.317.515-.547.163-.494.163-.785a1.8 1.8 0 0 0-.163-.781c-.107-.23-.279-.41-.518-.54s-.556-.199-.952-.199h-1.548v6.492h-.881zm8.391.113c-.492 0-.925-.117-1.296-.351s-.658-.563-.866-.984-.309-.914-.309-1.477.103-1.064.309-1.488.497-.753.866-.987.804-.352 1.296-.352.923.117 1.293.352.66.563.867.987.313.92.313 1.488-.104 1.056-.312 1.477-.495.749-.867.984-.8.351-1.293.351zm0-.753c.374 0 .682-.095.923-.287a1.7 1.7 0 0 0 .536-.757c.116-.313.174-.651.174-1.015s-.058-.704-.174-1.019a1.72 1.72 0 0 0-.536-.764c-.241-.194-.549-.291-.923-.291s-.682.097-.923.291a1.72 1.72 0 0 0-.536.764c-.116.315-.174.654-.174 1.019a2.89 2.89 0 0 0 .174 1.015c.116.312.295.565.536.757s.549.287.923.287zm4.801.64l-1.662-5.455h.881l1.179 4.176h.057l1.165-4.176h.895l1.15 4.162h.057l1.179-4.162h.881l-1.662 5.455h-.824l-1.193-4.191h-.085l-1.193 4.191h-.824zm8.99.113c-.525 0-.979-.116-1.36-.348s-.671-.561-.877-.98-.305-.911-.305-1.47.102-1.051.305-1.477a2.41 2.41 0 0 1 .859-1.002 2.32 2.32 0 0 1 1.293-.362 2.58 2.58 0 0 1 .842.142 2.09 2.09 0 0 1 .756.462c.227.211.408.49.543.838s.202.776.202 1.285v.356h-4.205v-.725h3.352a1.79 1.79 0 0 0-.185-.824c-.121-.241-.294-.432-.518-.572s-.485-.209-.788-.209c-.334 0-.623.083-.867.249a1.63 1.63 0 0 0-.557.639 1.88 1.88 0 0 0-.195.845v.483c0 .412.071.761.213 1.047a1.53 1.53 0 0 0 .6.65c.256.147.553.22.891.22.22 0 .419-.03.597-.092a1.27 1.27 0 0 0 .465-.284 1.29 1.29 0 0 0 .302-.476l.81.227a1.79 1.79 0 0 1-.43.725c-.201.206-.45.367-.746.483s-.629.17-.998.17zm3.533-.113v-5.455h.81v.824h.057a1.31 1.31 0 0 1 .54-.657 1.59 1.59 0 0 1 .881-.252l.231.003.209.011v.852a3.03 3.03 0 0 0-.195-.032 1.99 1.99 0 0 0-.316-.024c-.265 0-.502.055-.71.166a1.26 1.26 0 0 0-.49.455 1.23 1.23 0 0 0-.178.657v3.452h-.838z" class="D"/><path d="M199.81 169.657v7.273h-.881v-6.35h-.043l-1.775 1.179v-.895l1.818-1.207h.881zm2.091 7.273v-.64l2.401-2.627.696-.803c.182-.23.317-.445.405-.646s.135-.417.135-.639a1.18 1.18 0 0 0-.185-.664c-.121-.188-.286-.332-.497-.434a1.61 1.61 0 0 0-.71-.152c-.28 0-.524.058-.732.174s-.366.273-.479.479-.167.447-.167.724h-.838c0-.426.098-.8.294-1.122a2.05 2.05 0 0 1 .803-.753c.341-.18.723-.269 1.147-.269s.804.089 1.133.269.587.423.774.728.281.646.281 1.02a2.19 2.19 0 0 1-.146.784c-.095.254-.261.537-.497.849s-.56.689-.977 1.136l-1.633 1.748v.056h3.38v.782h-4.588zm9.294-7.273l2.159 6.122h.085l2.159-6.122h.923l-2.67 7.273h-.909l-2.671-7.273h.924z" class="F"/><path stroke="#f2f2f2" d="M26.5 251.68h208" class="B"/><path d="M33.358 266.475c-.043-.36-.215-.639-.518-.838s-.675-.298-1.115-.298c-.322 0-.604.052-.845.156s-.426.247-.561.43-.199.389-.199.621a.89.89 0 0 0 .139.501c.095.137.215.252.362.344a2.58 2.58 0 0 0 .462.224l.444.139.739.198c.189.05.4.119.632.206s.458.208.671.359.393.341.533.575.21.522.21.863c0 .393-.103.748-.309 1.066s-.502.569-.895.756-.865.281-1.424.281c-.521 0-.972-.085-1.353-.253s-.677-.402-.895-.703-.337-.65-.366-1.047h.909a1.14 1.14 0 0 0 .277.682c.163.177.369.31.618.397s.521.128.81.128c.336 0 .638-.054.906-.163s.479-.265.636-.462.234-.431.234-.696c0-.241-.068-.438-.202-.589s-.312-.275-.533-.37-.458-.177-.714-.248l-.895-.256c-.568-.163-1.018-.397-1.349-.7s-.497-.699-.497-1.189c0-.407.11-.763.33-1.066s.521-.542.895-.71.797-.255 1.261-.255.886.084 1.25.252a2.16 2.16 0 0 1 .867.681 1.7 1.7 0 0 1 .341.984h-.852zm4.573 5.568c-.526 0-.979-.116-1.36-.348s-.671-.561-.877-.98-.305-.911-.305-1.47.102-1.051.305-1.477.492-.763.859-1.002.8-.362 1.293-.362c.284 0 .565.047.842.142a2.09 2.09 0 0 1 .756.462 2.21 2.21 0 0 1 .543.838c.135.348.203.776.203 1.285v.356h-4.205v-.725h3.352a1.79 1.79 0 0 0-.185-.824c-.121-.241-.294-.432-.518-.572s-.485-.209-.788-.209c-.334 0-.623.083-.867.249a1.63 1.63 0 0 0-.557.639c-.13.263-.195.544-.195.845v.483c0 .412.071.761.213 1.047a1.53 1.53 0 0 0 .6.65c.256.147.553.22.891.22.22 0 .419-.03.597-.092a1.27 1.27 0 0 0 .465-.284 1.29 1.29 0 0 0 .302-.476l.81.227a1.79 1.79 0 0 1-.43.725c-.201.206-.45.367-.746.483s-.629.17-.998.17zm4.371-3.395v3.282h-.838v-5.455h.81v.852h.071c.128-.277.322-.499.582-.667s.597-.256 1.008-.256c.369 0 .693.076.97.227s.492.377.646.682.231.687.231 1.151v3.466h-.838v-3.409c0-.429-.111-.763-.334-1.002s-.528-.362-.916-.362c-.267 0-.507.058-.717.174s-.373.285-.494.508-.181.492-.181.809zm8.875-.951l-.753.213c-.047-.126-.117-.248-.209-.366s-.213-.22-.369-.298-.356-.117-.6-.117c-.334 0-.612.076-.834.23s-.33.345-.33.579c0 .209.076.373.227.494s.388.221.71.302l.81.199c.488.118.851.299 1.09.543s.359.553.359.934c0 .312-.09.592-.27.838a1.79 1.79 0 0 1-.746.582c-.32.142-.691.213-1.115.213-.556 0-1.017-.12-1.381-.362s-.595-.594-.692-1.058l.795-.199c.076.294.219.514.43.661s.491.22.834.22c.391 0 .701-.083.93-.249s.348-.369.348-.604a.63.63 0 0 0-.199-.475c-.133-.131-.336-.228-.611-.292l-.909-.213c-.5-.118-.867-.302-1.101-.55s-.348-.565-.348-.941a1.35 1.35 0 0 1 .259-.817c.175-.237.413-.423.714-.557s.646-.203 1.03-.203c.54 0 .964.118 1.271.355s.53.549.661.938zm3.577 4.346c-.492 0-.924-.117-1.296-.351s-.658-.563-.867-.984-.309-.914-.309-1.477.103-1.064.309-1.488a2.38 2.38 0 0 1 .867-.987c.372-.235.804-.352 1.296-.352s.923.117 1.293.352.66.563.866.987.313.92.313 1.488-.104 1.056-.312 1.477-.495.749-.866.984-.8.351-1.293.351zm0-.753c.374 0 .682-.095.923-.287s.42-.444.536-.757.174-.651.174-1.015-.058-.704-.174-1.019-.295-.57-.536-.764-.549-.291-.923-.291-.682.097-.923.291-.42.449-.536.764-.174.654-.174 1.019.058.703.174 1.015.295.565.536.757.549.287.923.287zm3.751.64v-5.455h.81v.824h.057a1.31 1.31 0 0 1 .54-.657 1.59 1.59 0 0 1 .881-.252l.231.003.209.011v.852a3.03 3.03 0 0 0-.195-.032 1.99 1.99 0 0 0-.316-.024c-.265 0-.502.055-.71.166a1.26 1.26 0 0 0-.49.455c-.118.192-.178.411-.178.657v3.452h-.838zm6.647 0v-7.273h2.543c.507 0 .924.088 1.254.263s.574.406.735.699.241.615.241.97c0 .312-.056.57-.167.774s-.253.365-.433.483a1.99 1.99 0 0 1-.579.263v.071c.223.014.446.092.671.234s.413.346.565.611.227.589.227.973c0 .364-.083.692-.249.984s-.427.522-.785.692-.823.256-1.396.256h-2.628zm.881-.782h1.747c.575 0 .984-.111 1.225-.333a1.07 1.07 0 0 0 .366-.817c0-.246-.063-.474-.188-.682s-.304-.379-.536-.504a1.68 1.68 0 0 0-.824-.192h-1.79v2.528zm0-3.295h1.634c.265 0 .504-.052.717-.156a1.25 1.25 0 0 0 .511-.441c.128-.189.192-.412.192-.667 0-.32-.111-.591-.334-.813s-.575-.338-1.058-.338h-1.662v2.415z" class="D"/><path d="M220.841 242.867l-.563-.562 3.319-3.291-3.319-3.29.563-.563 3.881 3.853-3.881 3.853zm0 28.719l-.563-.594 3.319-3.474-3.319-3.473.563-.594 3.881 4.067-3.881 4.068z" class="F"/><g clip-path="url(#F)"><path d="M45.647 168.443c-.674.028-2.947.195-3.905 1.153-.781.787-.962 1.978-.45 2.965l.173.306c-.3.475-.465 1.023-.465 1.598v.965a1.5 1.5 0 1 1-3 0v-3h.25c.965 0 1.75-.785 1.75-1.75v-1.75h.5v-1H39v-2h-1v2h-1v-2h-1v2h-1.5v1h.5v1.75c0 .965.785 1.75 1.75 1.75H37v3c0 1.378 1.121 2.5 2.5 2.5s2.5-1.122 2.5-2.5v-.965c0-.32.083-.624.224-.901.407.229.869.367 1.32.362a2.54 2.54 0 0 0 1.792-.74c1.274-1.586 1.08-3.558 1.181-4.777l-.87.034zm-8.897 2.987a.75.75 0 0 1-.75-.75v-1.75h3v1.75a.75.75 0 0 1-.75.75h-1.5zm7.88 1.048c-.465.46-1.161.576-1.752.297l1.475-1.492-.707-.707-1.485 1.485a1.54 1.54 0 0 1 .29-1.76c.552-.552 2.114-.786 3.026-.847-.054.905-.282 2.459-.847 3.023v.001z" fill="#575757"/></g><defs><filter id="A" x="10" y="61" width="228" height="64" filterUnits="userSpaceOnUse" class="H"><feFlood flood-opacity="0" result="A"/><feColorMatrix in="SourceAlpha" values="0 0 0 0 0 0 0 0 0 0 0 0 0 0 0 0 0 0 127 0" result="B"/><feMorphology radius="1" operator="dilate" in="SourceAlpha"/><feOffset dy="1"/><feGaussianBlur stdDeviation="2.5"/><feComposite in2="B" operator="out"/><feColorMatrix values="0 0 0 0 0 0 0 0 0 0 0 0 0 0 0 0 0 0 0.1 0"/><feBlend in2="A"/><feBlend in="SourceGraphic"/></filter><filter id="B" x="294.937" y=".514" width="325" height="371" filterUnits="userSpaceOnUse" class="H"><feFlood flood-opacity="0" result="A"/><feColorMatrix in="SourceAlpha" values="0 0 0 0 0 0 0 0 0 0 0 0 0 0 0 0 0 0 127 0" result="B"/><feOffset dy="4"/><feGaussianBlur stdDeviation="5"/><feComposite in2="B" operator="out"/><feColorMatrix values="0 0 0 0 0 0 0 0 0 0 0 0 0 0 0 0 0 0 0.25 0"/><feBlend in2="A"/><feBlend in="SourceGraphic"/></filter><linearGradient id="C" x1="128" y1="49" x2="128" y2="582" gradientUnits="userSpaceOnUse"><stop stop-color="#2f67ff"/><stop offset="1" stop-color="#ff5f9b"/></linearGradient><linearGradient id="D" x1="245.564" y1="173.446" x2="306.205" y2="173.446" gradientUnits="userSpaceOnUse"><stop stop-color="#2f67ff"/><stop offset="1" stop-color="#c262b8"/></linearGradient><clipPath id="E"><path transform="translate(338.437 267.514)" d="M0 0h10v10H0z" class="C"/></clipPath><clipPath id="F"><path transform="translate(34.5 165.93)" d="M0 0h12v12H0z" class="C"/></clipPath><path id="G" d="M36.372 106.525v.824"/><path id="H" d="M305.437 93.264h305"/></defs></svg>