<svg xmlns="http://www.w3.org/2000/svg" width="403" height="533" fill="none" xmlns:v="https://vecta.io/nano"><style><![CDATA[.B{fill:#fff}.C{fill:#575757}.D{fill:#b8b8b8}.E{fill:#0c0c0c}.F{stroke-width:.5}]]></style><rect x=".25" y=".25" width="255.5" height="532.5" rx="9.75" stroke="url(#B)" class="B F"/><g filter="url(#A)" class="B"><rect x="16" y="17" width="216" height="52" rx="10"/></g><g stroke="#5a5c66" stroke-miterlimit="22.9256" class="F"><path d="M31.51 31h10.664a.51.51 0 0 1 .51.51v21.964l-1.219 3.725c-.068.138-.215.206-.42.221l-.18.095-3.869.017-4.04-.015c-.051-.027-.042-.048-.099-.053-.341-.029-.491-.133-.537-.274L31 53.436v-4.184V31.51a.51.51 0 0 1 .51-.51h0z"/><path d="M31.815 31l2.076 1.048 5.977.005L41.943 31l-1.75 1.325s-.272.261-.644.236h-5.187s-.432.079-.823-.293L31.815 31z" stroke-linejoin="round"/><path d="M33.131 33.078l7.604.002 1.763-1.963m-9.833 2.314c0-.065-1.665-1.75-1.665-1.75"/><path d="M33.157 33.104l-1.98-1.98m10.004 2.307c0-.065 1.503-1.75 1.503-1.75"/><path d="M32.662 53.474V33.513s-.081-.435.511-.435m8.003 20.396V33.513s.082-.435-.511-.435"/><path d="M31 49.31l1.662 4.08s.011.19.614.242 7.357 0 7.357 0 .481.005.592-.293l1.432-4.048v.152l-1.391 3.938s-.041.327-.467.352-7.363.026-7.363.026-.776.076-.852-.378L31 49.349m1.89 8.122l1.573-2.466c.046-.086.134-.177.208-.236.202-.16.45-.228.707-.232h2.986c.109-.008.247.011.351.037a1.18 1.18 0 0 1 .648.411l.004.005 1.594 2.475m-2.424.545h-.025m-3.218-.003h-.037"/><path d="M32.997 57.517l1.565-2.455s.207-.402.815-.41h2.991s.543-.046.905.405l1.583 2.458m-2.235.379h-.005m-3.439-.003h-.014m-2.501-4.417l-.356 3.677m.884-3.389l-.28 3.722m8.266-4.057l.332 3.639m-.767-3.332l.291 3.693m-7.901-24.349l.055 20.68m7.57-20.656l-.016 20.632"/><path d="M35.395 57.523h-.303v.208a.71.71 0 0 0 .281.368c.071.444.37.758 1.52.778 1.135.02 1.441-.31 1.517-.756.221-.156.303-.365.33-.598h-.349-2.997z"/><path d="M36.193 57.529v.799"/><use href="#K"/><use href="#K" x="0.209"/><use href="#K" x="0.419"/><use href="#K" x="0.628"/><use href="#K" x="0.837"/><use href="#K" x="1.046"/><use href="#K" x="1.255"/><path d="M38.758 57.524c-.07.479-.41.844-1.865.824s-1.793-.355-1.864-.823"/></g><path d="M155.733 44h-.881c-.052-.253-.143-.476-.273-.668a1.82 1.82 0 0 0-.469-.483c-.182-.133-.385-.232-.607-.298a2.43 2.43 0 0 0-.696-.099 2.22 2.22 0 0 0-1.197.334c-.355.223-.638.55-.849.984s-.312.965-.312 1.594.104 1.161.312 1.595.494.761.849.984a2.22 2.22 0 0 0 1.197.334 2.43 2.43 0 0 0 .696-.099 2.04 2.04 0 0 0 .607-.295 1.87 1.87 0 0 0 .469-.486c.13-.194.221-.417.273-.668h.881a2.93 2.93 0 0 1-.362.998c-.175.294-.393.543-.654.749s-.552.359-.877.465-.666.16-1.033.16c-.62 0-1.172-.152-1.655-.455s-.863-.734-1.14-1.293-.415-1.222-.415-1.989.138-1.43.415-1.989.657-.99 1.14-1.293 1.035-.455 1.655-.455c.367 0 .711.053 1.033.16a2.81 2.81 0 0 1 .877.469 2.67 2.67 0 0 1 .654.746c.175.291.296.624.362.998zm3.525 5.114c-.492 0-.924-.117-1.296-.352s-.658-.562-.866-.984-.309-.914-.309-1.477.103-1.064.309-1.488.497-.753.866-.987.804-.352 1.296-.352.924.117 1.293.352.66.563.866.987.313.92.313 1.488-.104 1.056-.313 1.477-.494.749-.866.984-.8.352-1.293.352zm0-.753c.374 0 .682-.096.924-.288a1.7 1.7 0 0 0 .536-.756c.116-.312.174-.651.174-1.016s-.058-.704-.174-1.019a1.72 1.72 0 0 0-.536-.763c-.242-.194-.55-.291-.924-.291s-.681.097-.923.291a1.72 1.72 0 0 0-.536.763c-.116.315-.174.655-.174 1.019s.058.703.174 1.016a1.7 1.7 0 0 0 .536.756c.242.192.549.288.923.288zm4.589-2.642V49h-.838v-5.455h.81v.852h.071a1.56 1.56 0 0 1 .582-.668c.261-.17.597-.256 1.009-.256.369 0 .692.076.969.227s.493.376.647.682.23.687.23 1.151V49h-.838v-3.409c0-.428-.111-.762-.333-1.001s-.528-.362-.917-.362c-.267 0-.506.058-.717.174a1.25 1.25 0 0 0-.494.508c-.12.222-.181.492-.181.81zm5.85 0V49h-.838v-5.455h.81v.852h.071c.127-.277.321-.499.582-.668s.597-.256 1.008-.256c.37 0 .693.076.97.227a1.53 1.53 0 0 1 .646.682c.154.303.231.687.231 1.151V49h-.838v-3.409c0-.428-.111-.762-.334-1.001s-.528-.362-.916-.362c-.268 0-.507.058-.717.174s-.373.285-.494.508-.181.492-.181.81zm7.298 3.395c-.525 0-.979-.116-1.36-.348a2.34 2.34 0 0 1-.877-.98c-.203-.421-.305-.911-.305-1.47s.102-1.051.305-1.477a2.41 2.41 0 0 1 .86-1.001c.369-.241.8-.362 1.292-.362a2.59 2.59 0 0 1 .842.142c.277.095.529.249.756.462a2.2 2.2 0 0 1 .543.838c.135.348.203.776.203 1.285v.355h-4.205v-.724h3.353a1.79 1.79 0 0 0-.185-.824 1.4 1.4 0 0 0-.518-.572c-.223-.14-.486-.209-.789-.209-.334 0-.622.083-.866.249a1.63 1.63 0 0 0-.558.639 1.88 1.88 0 0 0-.195.845v.483c0 .412.071.761.213 1.048a1.53 1.53 0 0 0 .6.65 1.76 1.76 0 0 0 .891.22c.221 0 .419-.031.597-.092s.335-.159.465-.284.231-.287.302-.476l.81.227c-.086.275-.229.516-.43.724s-.45.367-.746.483-.628.17-.998.17zm5.75 0c-.512 0-.952-.121-1.321-.362s-.654-.574-.853-.998-.298-.908-.298-1.453c0-.554.102-1.043.305-1.467s.493-.759.86-.998.8-.362 1.292-.362c.384 0 .73.071 1.037.213a1.99 1.99 0 0 1 .757.597c.196.256.318.554.366.895h-.839c-.063-.249-.205-.469-.426-.66s-.511-.291-.88-.291c-.327 0-.613.085-.86.256a1.66 1.66 0 0 0-.571.714c-.135.305-.203.664-.203 1.076 0 .421.066.788.199 1.101s.324.555.568.728a1.47 1.47 0 0 0 .867.259 1.5 1.5 0 0 0 .593-.114 1.23 1.23 0 0 0 .451-.327 1.25 1.25 0 0 0 .262-.511h.839a1.95 1.95 0 0 1-.352.87 1.97 1.97 0 0 1-.735.611c-.303.149-.656.224-1.058.224zm5.742-5.568v.71h-2.827v-.71h2.827zm-2.003-1.307h.838v5.199c0 .237.034.414.103.533s.161.194.27.234a1.08 1.08 0 0 0 .352.057 1.49 1.49 0 0 0 .227-.014l.142-.028.17.753c-.057.021-.136.043-.238.064a1.74 1.74 0 0 1-.387.035 1.69 1.69 0 0 1-.696-.153 1.38 1.38 0 0 1-.561-.465c-.147-.208-.22-.471-.22-.788v-5.426zm5.492 6.875c-.526 0-.979-.116-1.36-.348s-.671-.561-.877-.98-.306-.911-.306-1.47.102-1.051.306-1.477.492-.762.859-1.001.8-.362 1.293-.362c.284 0 .564.047.841.142s.529.249.757.462.408.49.543.838.202.776.202 1.285v.355h-4.204v-.724h3.352c0-.308-.061-.582-.185-.824s-.293-.432-.518-.572-.485-.209-.788-.209c-.334 0-.623.083-.867.249s-.427.376-.557.639-.196.544-.196.845v.483c0 .412.071.761.213 1.048a1.54 1.54 0 0 0 .601.65c.255.147.552.22.891.22a1.81 1.81 0 0 0 .596-.092 1.29 1.29 0 0 0 .466-.284c.13-.128.23-.287.301-.476l.81.227c-.085.275-.228.516-.43.724s-.449.367-.745.483-.629.17-.998.17zm5.593 0c-.455 0-.856-.115-1.204-.344a2.33 2.33 0 0 1-.817-.98c-.196-.424-.294-.924-.294-1.502s.098-1.07.294-1.491.47-.747.821-.977.755-.344 1.214-.344c.355 0 .636.059.842.178s.367.249.476.398l.259.362h.071v-2.685h.838V49h-.81v-.838h-.099a5.42 5.42 0 0 1-.263.377 1.57 1.57 0 0 1-.486.401c-.211.116-.492.174-.842.174zm.114-.753c.336 0 .62-.088.852-.263s.408-.423.529-.735.181-.678.181-1.09-.059-.764-.178-1.069-.293-.547-.525-.717-.519-.259-.859-.259c-.356 0-.652.091-.888.273a1.63 1.63 0 0 0-.529.735c-.116.308-.174.653-.174 1.037s.059.741.177 1.058.298.566.533.753.53.277.881.277z" class="D"/><path d="M56.799 40.727h1.332l2.315 5.653h.085l2.315-5.653h1.332V48h-1.044v-5.263h-.067l-2.145 5.252h-.867l-2.145-5.256h-.067V48h-1.044v-7.273zm9.738 0l1.74 2.844h.057l1.74-2.844h1.271l-2.266 3.636L71.36 48h-1.278l-1.747-2.805h-.057L66.53 48h-1.278l2.319-3.636-2.305-3.636h1.271zm5.645 5.852v-.888l3.143-4.965h.7v1.307h-.444l-2.248 3.558v.057h4.308v.93h-5.458zM75.63 48v-1.69l.007-.405v-5.178h1.041V48H75.63zm5.779.099c-.488 0-.923-.084-1.307-.252s-.683-.401-.906-.7-.338-.649-.355-1.044h1.115a.96.96 0 0 0 .217.561c.132.156.305.277.518.362s.45.128.71.128a1.83 1.83 0 0 0 .76-.149c.223-.099.397-.238.522-.415a1.06 1.06 0 0 0 .188-.621c0-.244-.063-.458-.188-.643s-.304-.334-.543-.44-.523-.16-.859-.16h-.614v-.895h.614c.27 0 .507-.049.71-.146s.367-.232.483-.405.174-.38.174-.614c0-.225-.051-.42-.153-.586s-.242-.3-.426-.394-.398-.142-.646-.142a1.68 1.68 0 0 0-.664.131c-.204.085-.369.208-.497.369a.95.95 0 0 0-.206.572h-1.062c.012-.393.128-.739.348-1.037a2.25 2.25 0 0 1 .881-.7c.365-.168.769-.252 1.215-.252.466 0 .869.091 1.207.273a1.99 1.99 0 0 1 .788.721 1.81 1.81 0 0 1 .277.987c.002.407-.111.753-.341 1.037s-.53.475-.909.572v.057c.483.073.857.265 1.122.575s.4.695.398 1.154c.002.4-.109.759-.334 1.076s-.527.567-.913.749-.827.27-1.325.27zm3.761-1.52v-.888l3.143-4.965h.7v1.307h-.444l-2.248 3.558v.057h4.308v.93H85.17zM88.618 48v-1.69l.007-.405v-5.178h1.04V48h-1.048zm5.779.099c-.488 0-.923-.084-1.307-.252s-.683-.401-.906-.7-.338-.649-.355-1.044h1.115a.96.96 0 0 0 .217.561c.133.156.305.277.518.362s.45.128.71.128a1.83 1.83 0 0 0 .76-.149c.222-.099.396-.238.522-.415a1.06 1.06 0 0 0 .188-.621c0-.244-.063-.458-.188-.643s-.304-.334-.543-.44-.523-.16-.859-.16h-.614v-.895h.614c.27 0 .507-.049.71-.146s.367-.232.483-.405.174-.38.174-.614c0-.225-.051-.42-.153-.586s-.242-.3-.426-.394-.398-.142-.646-.142a1.68 1.68 0 0 0-.664.131c-.204.085-.369.208-.497.369a.95.95 0 0 0-.206.572h-1.062c.012-.393.128-.739.348-1.037a2.25 2.25 0 0 1 .881-.7c.365-.168.769-.252 1.215-.252.466 0 .869.091 1.207.273a1.99 1.99 0 0 1 .788.721 1.81 1.81 0 0 1 .277.987c.002.407-.111.753-.341 1.037s-.53.475-.909.572v.057c.483.073.857.265 1.122.575s.4.695.398 1.154c.002.4-.109.759-.334 1.076s-.527.567-.913.749-.827.27-1.325.27z" fill="#f85550"/><circle cx="213.5" cy="45.5" r="1.5" fill="#72cf70"/><path d="M216 45.5a2.5 2.5 0 1 1-5 0 2.5 2.5 0 1 1 5 0z" fill="#53ee50" fill-opacity=".35"/><path d="M245.733 345.832c0-2.062-1.671-3.733-3.733-3.733s-3.733 1.671-3.733 3.733 1.671 3.733 3.733 3.733 3.733-1.671 3.733-3.733zm56.908 0v-.7H242v.7.7h60.641v-.7z" fill="url(#C)"/><path d="M59.316 110.059c-.043-.36-.216-.639-.519-.838s-.675-.298-1.115-.298c-.322 0-.604.052-.845.156s-.426.247-.561.43-.199.389-.199.621a.89.89 0 0 0 .139.501 1.23 1.23 0 0 0 .362.344 2.58 2.58 0 0 0 .462.224l.444.139.739.198c.189.05.4.119.632.206s.458.208.671.359a1.83 1.83 0 0 1 .533.575c.14.235.209.522.209.863 0 .393-.103.748-.309 1.066s-.502.569-.895.756-.865.281-1.424.281c-.521 0-.972-.085-1.353-.253s-.677-.402-.895-.703-.337-.65-.366-1.047h.909c.024.274.116.502.277.681a1.49 1.49 0 0 0 .618.398c.251.085.521.128.81.128.336 0 .638-.054.906-.163s.479-.265.636-.462.234-.431.234-.696c0-.241-.067-.438-.202-.589s-.312-.275-.533-.37-.458-.177-.714-.248l-.895-.256c-.568-.163-1.018-.397-1.349-.7s-.497-.699-.497-1.189c0-.407.11-.763.33-1.066s.521-.542.895-.71.797-.255 1.261-.255.886.084 1.25.252a2.16 2.16 0 0 1 .867.681 1.7 1.7 0 0 1 .341.984h-.852zm3.891 5.583a2.22 2.22 0 0 1-.941-.196c-.282-.132-.506-.323-.671-.572s-.249-.554-.249-.909c0-.312.062-.565.185-.76s.288-.35.494-.461.433-.194.682-.249l.756-.135.806-.096c.208-.023.36-.062.455-.117s.146-.149.146-.284v-.028c0-.351-.096-.623-.288-.817s-.477-.291-.863-.291c-.4 0-.714.087-.941.263s-.387.362-.479.561l-.795-.284a1.91 1.91 0 0 1 .568-.775c.239-.187.5-.317.781-.39s.564-.114.838-.114c.175 0 .376.021.604.064s.451.124.664.252.394.321.536.579.213.604.213 1.037v3.594h-.838v-.739h-.043c-.057.118-.152.245-.284.38s-.309.25-.529.344-.489.143-.806.143zm.128-.753c.331 0 .611-.065.838-.196s.403-.298.519-.504.178-.422.178-.65v-.767c-.036.043-.114.082-.234.117a3.73 3.73 0 0 1-.412.089l-.451.064-.352.043c-.218.028-.421.074-.611.138s-.338.155-.455.281-.17.291-.17.504c0 .291.108.511.323.661s.494.22.828.22zm3.902.625v-5.455h.81v.852h.071a1.37 1.37 0 0 1 .55-.678 1.65 1.65 0 0 1 .913-.245c.36 0 .659.082.898.245s.43.387.565.678h.057c.14-.281.349-.505.629-.671s.614-.252 1.005-.252c.488 0 .887.153 1.197.458s.465.776.465 1.417v3.651h-.838v-3.651c0-.402-.11-.69-.33-.863a1.22 1.22 0 0 0-.778-.259c-.383 0-.681.116-.891.348s-.316.521-.316.874v3.551h-.852v-3.736c0-.31-.101-.56-.302-.749s-.46-.288-.778-.288a1.15 1.15 0 0 0-.611.174c-.187.116-.338.277-.454.483s-.171.439-.171.707v3.409h-.838zm8.691 2.045v-7.5h.81v.867h.1l.256-.363c.111-.149.27-.281.476-.397s.49-.178.845-.178c.459 0 .864.115 1.215.345s.624.555.82.976.295.919.295 1.492-.098 1.078-.295 1.502-.469.748-.817.98a2.14 2.14 0 0 1-1.204.344c-.35 0-.631-.058-.842-.174s-.373-.252-.487-.401l-.263-.376h-.071v2.883h-.838zm.824-4.773c0 .412.06.776.181 1.091s.297.557.529.735.516.262.852.262c.35 0 .643-.092.877-.277a1.69 1.69 0 0 0 .533-.752c.121-.318.181-.67.181-1.059 0-.383-.059-.729-.178-1.037s-.292-.555-.529-.735-.529-.273-.884-.273c-.341 0-.627.086-.859.259a1.56 1.56 0 0 0-.526.718c-.118.305-.178.661-.178 1.068zm6.108-4.545v7.273h-.838v-7.273h.838zm1.535 7.273v-5.455h.838v5.455h-.838zm.426-6.364c-.163 0-.304-.056-.423-.167s-.174-.245-.174-.401.058-.29.174-.401.259-.167.423-.167a.58.58 0 0 1 .419.167.53.53 0 0 1 .178.401.53.53 0 0 1-.178.401c-.116.111-.256.167-.419.167zm2.785 3.082v3.282h-.838v-5.455h.81v.852h.071c.128-.277.322-.499.582-.667s.597-.256 1.008-.256c.369 0 .693.076.97.227s.492.377.646.682.231.687.231 1.151v3.466h-.838v-3.409c0-.429-.111-.763-.334-1.002s-.528-.362-.916-.362c-.267 0-.507.058-.717.174s-.373.285-.494.508-.181.492-.181.809zm7.213 5.441c-.405 0-.753-.052-1.044-.156a2.22 2.22 0 0 1-.728-.405 2.23 2.23 0 0 1-.458-.533l.668-.469c.076.1.172.213.288.341s.275.243.476.338.47.145.799.145c.44 0 .804-.106 1.09-.319s.43-.547.43-1.002v-1.108h-.071a4.29 4.29 0 0 1-.263.369c-.111.145-.272.274-.483.388s-.49.166-.845.166c-.44 0-.836-.104-1.186-.312s-.624-.511-.827-.909-.302-.881-.302-1.449c0-.559.098-1.045.295-1.46s.47-.738.82-.965.755-.345 1.215-.345c.355 0 .637.059.845.178s.372.248.483.397l.263.363h.085v-.867h.81v5.611c0 .469-.106.85-.32 1.143s-.495.513-.852.65-.75.21-1.186.21zm-.028-2.997c.336 0 .62-.077.852-.231s.408-.375.529-.664.181-.635.181-1.037c0-.393-.059-.74-.177-1.041a1.56 1.56 0 0 0-.526-.706c-.232-.171-.519-.256-.859-.256-.355 0-.651.09-.888.27s-.411.421-.529.724a2.8 2.8 0 0 0-.174 1.009 2.65 2.65 0 0 0 .178 1.005 1.54 1.54 0 0 0 .533.682c.237.163.53.245.881.245z" class="E"/><path d="M206.933 116.014l-.532-.5 3.135-2.925-3.135-2.925.532-.5 3.665 3.425-3.665 3.425z" class="D"/><path stroke="#f2f2f2" d="M16 96.264h211" class="F"/><g clip-path="url(#E)" class="C"><path d="M37.908 110.421c.089.09.207.134.324.134s.235-.044.324-.134a.46.46 0 0 0 0-.648l-4.125-4.125a.46.46 0 0 0-.648 0c-.179.179-.179.469 0 .648l.442.442-5.863 5.863a2.28 2.28 0 0 0 0 3.242c.433.433 1.008.671 1.62.671a2.28 2.28 0 0 0 1.62-.671l5.864-5.864.442.443v-.001zm-6.954 4.774a1.41 1.41 0 0 1-1.944 0c-.536-.537-.536-1.409 0-1.945l3.58-3.581 1.945 1.945-3.581 3.581h0zm4.229-4.229l-1.945-1.945 1.635-1.634 1.945 1.944-1.635 1.635zm2.386 1.713c-.391-.383-1.031-.383-1.424 0-.011.011-.584.706-.584.706a1.82 1.82 0 0 0 0 2.592 1.82 1.82 0 0 0 1.296.537 1.82 1.82 0 0 0 1.833-1.833 1.79 1.79 0 0 0-.508-1.265l-.613-.737h0zm-.064 2.65a.94.94 0 0 1-1.296 0 .91.91 0 0 1-.269-.648c0-.245.095-.475.297-.68l.559-.675a.1.1 0 0 1 .12 0l.588.707a.91.91 0 0 1 0 1.296z"/></g><path d="M20.858 149.059c-.043-.36-.216-.639-.518-.838s-.675-.298-1.115-.298c-.322 0-.604.052-.845.156s-.426.247-.561.43-.199.389-.199.621a.89.89 0 0 0 .139.501c.095.137.215.252.362.344a2.58 2.58 0 0 0 .462.224l.444.139.739.198c.189.05.4.119.632.206s.458.208.671.359.393.341.533.575.21.522.21.863c0 .393-.103.748-.309 1.066s-.502.569-.895.756-.865.281-1.424.281c-.521 0-.972-.085-1.353-.253s-.677-.402-.895-.703-.337-.65-.366-1.047h.909c.024.274.116.502.277.681a1.49 1.49 0 0 0 .618.398c.251.085.521.128.81.128.336 0 .638-.054.906-.163s.479-.265.636-.462.234-.431.234-.696c0-.241-.067-.438-.202-.589s-.312-.275-.533-.37-.458-.177-.714-.248l-.895-.256c-.568-.163-1.018-.397-1.349-.7s-.497-.699-.497-1.189c0-.407.11-.763.33-1.066s.521-.542.895-.71.797-.255 1.261-.255.886.084 1.25.252a2.16 2.16 0 0 1 .866.681 1.7 1.7 0 0 1 .341.984h-.852zm4.573 5.568c-.526 0-.979-.116-1.36-.348s-.671-.561-.877-.98-.305-.911-.305-1.47.102-1.051.305-1.477.492-.763.859-1.002.8-.362 1.293-.362c.284 0 .565.047.842.142a2.09 2.09 0 0 1 .756.462c.227.21.408.49.543.838s.203.776.203 1.285v.355h-4.205v-.724h3.352a1.79 1.79 0 0 0-.185-.824c-.121-.241-.293-.432-.518-.572s-.485-.209-.788-.209c-.334 0-.623.083-.867.249a1.63 1.63 0 0 0-.557.639c-.13.263-.195.544-.195.845v.483c0 .412.071.761.213 1.047a1.53 1.53 0 0 0 .6.65c.256.147.553.22.891.22.22 0 .419-.03.597-.092a1.27 1.27 0 0 0 .465-.284 1.29 1.29 0 0 0 .302-.476l.81.227a1.79 1.79 0 0 1-.43.725c-.201.206-.45.367-.746.483a2.78 2.78 0 0 1-.998.17zm5.749 0c-.511 0-.952-.12-1.321-.362s-.653-.574-.852-.998-.298-.908-.298-1.452c0-.554.102-1.043.305-1.467s.492-.759.859-.998.8-.362 1.293-.362c.383 0 .729.071 1.037.213s.56.341.756.597.319.554.366.895h-.838a1.3 1.3 0 0 0-.426-.661c-.218-.194-.511-.291-.881-.291-.327 0-.613.085-.859.256s-.434.406-.572.713-.202.664-.202 1.076a2.8 2.8 0 0 0 .199 1.101c.135.313.324.555.568.728s.535.259.866.259c.218 0 .416-.037.593-.113a1.23 1.23 0 0 0 .451-.327 1.25 1.25 0 0 0 .263-.511h.838a1.94 1.94 0 0 1-.352.87c-.185.255-.43.459-.735.611s-.656.223-1.058.223zm6.807-2.343v-3.225h.838v5.455h-.838v-.924h-.057a1.79 1.79 0 0 1-.597.707c-.27.192-.611.288-1.023.288-.341 0-.644-.075-.909-.224s-.474-.379-.625-.682-.227-.69-.227-1.154v-3.466h.838v3.409c0 .398.111.715.334.952s.511.355.859.355a1.42 1.42 0 0 0 .636-.16c.218-.106.4-.27.547-.49s.224-.501.224-.841zm2.373 2.23v-5.455h.81v.824h.057c.099-.27.279-.489.54-.657a1.59 1.59 0 0 1 .881-.252l.231.003.209.011v.852a3.03 3.03 0 0 0-.195-.032 1.99 1.99 0 0 0-.316-.024c-.265 0-.502.055-.71.166a1.26 1.26 0 0 0-.49.455c-.118.192-.177.411-.177.657v3.452h-.838zm3.721 0v-5.455h.838v5.455h-.838zm.426-6.364c-.163 0-.304-.056-.423-.167s-.174-.245-.174-.401.058-.29.174-.401.259-.167.423-.167a.58.58 0 0 1 .419.167.53.53 0 0 1 .178.401.53.53 0 0 1-.178.401c-.116.111-.256.167-.419.167zm4.319.909v.71H46v-.71h2.827zm-2.003-1.307h.838v5.199c0 .237.034.414.103.533a.53.53 0 0 0 .27.234 1.08 1.08 0 0 0 .352.057 1.55 1.55 0 0 0 .227-.014l.142-.029.17.753c-.057.022-.136.043-.238.064a1.73 1.73 0 0 1-.387.036c-.237 0-.469-.051-.696-.153s-.412-.257-.561-.465-.22-.471-.22-.789v-5.426zm3.803 8.807c-.142 0-.269-.012-.38-.035s-.188-.043-.231-.064l.213-.739c.204.052.384.071.54.057s.295-.084.416-.21.236-.323.337-.6l.156-.426-2.017-5.483h.909l1.506 4.347h.057l1.506-4.347h.909l-2.315 6.25c-.104.282-.233.515-.387.7a1.45 1.45 0 0 1-.536.415c-.201.09-.428.135-.682.135zm9.899-1.946c-.478 0-.89-.087-1.236-.263s-.612-.415-.799-.721-.281-.654-.281-1.047c0-.303.064-.572.192-.806s.309-.456.536-.657a7.94 7.94 0 0 1 .792-.611l1.051-.781c.206-.135.37-.28.494-.433s.188-.356.188-.604c0-.185-.082-.364-.245-.536s-.373-.26-.636-.26c-.185 0-.348.048-.49.142s-.25.211-.33.356a.9.9 0 0 0-.117.44c0 .17.046.343.139.518a3.8 3.8 0 0 0 .359.533l.454.554 3.338 4.077h-1.009l-2.756-3.324-.696-.838c-.208-.251-.374-.499-.497-.742s-.185-.508-.185-.792c0-.327.072-.614.217-.86a1.52 1.52 0 0 1 .614-.579c.265-.139.575-.209.93-.209.365 0 .678.071.941.213s.465.326.607.558.213.479.213.749c0 .348-.086.65-.259.905s-.408.494-.707.714l-1.449 1.08c-.327.241-.548.476-.664.703s-.174.39-.174.49c0 .227.059.439.178.636s.285.355.501.475.468.181.756.181c.275 0 .542-.058.803-.174a2.24 2.24 0 0 0 .707-.511c.213-.222.381-.49.504-.802s.188-.665.188-1.055h.81c0 .483-.056.877-.167 1.182s-.237.545-.376.718l-.337.387-.078.106-.078.107c-.234.263-.53.459-.888.589s-.71.192-1.058.192zm11.24-5.554c-.043-.36-.215-.639-.519-.838s-.675-.298-1.115-.298c-.322 0-.604.052-.845.156s-.426.247-.561.43-.199.389-.199.621a.89.89 0 0 0 .138.501 1.23 1.23 0 0 0 .362.344 2.58 2.58 0 0 0 .462.224l.444.139.739.198c.189.05.4.119.632.206s.458.208.671.359.393.341.533.575.21.522.21.863c0 .393-.103.748-.309 1.066s-.502.569-.895.756-.865.281-1.424.281c-.521 0-.972-.085-1.353-.253s-.677-.402-.895-.703-.337-.65-.366-1.047h.909c.024.274.116.502.277.681a1.49 1.49 0 0 0 .618.398c.251.085.521.128.81.128.336 0 .638-.054.906-.163s.479-.265.636-.462.234-.431.234-.696c0-.241-.067-.438-.202-.589s-.312-.275-.533-.37-.458-.177-.714-.248l-.895-.256c-.568-.163-1.018-.397-1.349-.7s-.497-.699-.497-1.189c0-.407.11-.763.33-1.066s.521-.542.895-.71.797-.255 1.261-.255.885.084 1.25.252a2.16 2.16 0 0 1 .867.681 1.7 1.7 0 0 1 .341.984h-.852zm3.124 2.173v3.282h-.838v-7.273h.838v2.67h.071c.128-.281.32-.505.575-.671s.601-.252 1.03-.252c.372 0 .697.075.977.224s.496.373.65.678.234.689.234 1.158v3.466h-.838v-3.409c0-.434-.112-.769-.337-1.005s-.532-.359-.927-.359c-.275 0-.521.058-.739.174a1.27 1.27 0 0 0-.511.508c-.123.222-.185.492-.185.809zm6.675 3.41a2.22 2.22 0 0 1-.941-.196c-.282-.132-.505-.323-.671-.572s-.249-.554-.249-.909c0-.312.062-.565.185-.76s.288-.35.494-.461.433-.194.682-.249l.756-.135.806-.096c.208-.023.36-.062.455-.117s.146-.149.146-.284v-.028c0-.351-.096-.623-.288-.817s-.477-.291-.863-.291c-.4 0-.714.087-.941.263s-.387.362-.479.561l-.795-.284a1.91 1.91 0 0 1 .568-.775c.239-.187.5-.317.781-.39s.563-.114.838-.114c.175 0 .376.021.604.064s.451.124.664.252.394.321.536.579.213.604.213 1.037v3.594h-.838v-.739h-.043c-.057.118-.151.245-.284.38s-.309.25-.529.344-.489.143-.806.143zm.128-.753c.331 0 .611-.065.838-.196s.402-.298.518-.504.178-.422.178-.65v-.767c-.036.043-.114.082-.234.117a3.73 3.73 0 0 1-.412.089l-.451.064-.352.043c-.218.028-.421.074-.611.138s-.339.155-.455.281-.17.291-.17.504c0 .291.108.511.323.661s.494.22.828.22zm3.902.625v-5.455h.81v.824h.057a1.31 1.31 0 0 1 .54-.657 1.59 1.59 0 0 1 .881-.252l.231.003.21.011v.852a3.03 3.03 0 0 0-.195-.032 1.99 1.99 0 0 0-.316-.024c-.265 0-.502.055-.71.166a1.26 1.26 0 0 0-.49.455c-.118.192-.178.411-.178.657v3.452h-.838zm3.721 0v-5.455h.838v5.455h-.838zm.426-6.364c-.163 0-.304-.056-.423-.167s-.174-.245-.174-.401.058-.29.174-.401.259-.167.423-.167a.58.58 0 0 1 .419.167.53.53 0 0 1 .178.401.53.53 0 0 1-.178.401c-.116.111-.256.167-.419.167zm2.785 3.082v3.282h-.838v-5.455h.81v.852h.071c.128-.277.322-.499.582-.667s.597-.256 1.008-.256c.369 0 .692.076.969.227s.492.377.646.682.231.687.231 1.151v3.466h-.838v-3.409c0-.429-.111-.763-.334-1.002s-.528-.362-.916-.362c-.267 0-.507.058-.717.174s-.373.285-.494.508-.181.492-.181.809zm7.213 5.441c-.405 0-.753-.052-1.044-.156a2.22 2.22 0 0 1-.728-.405 2.23 2.23 0 0 1-.458-.533l.668-.469c.076.1.172.213.288.341s.275.243.476.338.47.145.799.145c.441 0 .804-.106 1.09-.319s.43-.547.43-1.002v-1.108h-.071c-.061.1-.149.223-.263.369s-.272.274-.483.388-.49.166-.845.166c-.44 0-.836-.104-1.186-.312s-.624-.511-.827-.909-.302-.881-.302-1.449c0-.559.098-1.045.295-1.46s.47-.738.82-.965.755-.345 1.214-.345c.355 0 .637.059.846.178s.371.248.483.397l.262.363h.086v-.867h.809v5.611c0 .469-.106.85-.319 1.143s-.495.513-.853.65-.75.21-1.186.21zm-.028-2.997c.336 0 .62-.077.852-.231s.408-.375.529-.664.181-.635.181-1.037c0-.393-.059-.74-.177-1.041s-.294-.536-.526-.706-.518-.256-.859-.256c-.355 0-.651.09-.888.27s-.411.421-.529.724a2.8 2.8 0 0 0-.174 1.009 2.65 2.65 0 0 0 .178 1.005 1.54 1.54 0 0 0 .533.682c.237.163.53.245.881.245z" class="D"/><path d="M33.165 186.348l-.179-.079c-.199-.088-4.847-2.187-4.847-5.988v-3.296a1.5 1.5 0 0 1 .287-.883c.187-.256.448-.449.75-.548l4.016-1.331 4.016 1.331a1.51 1.51 0 0 1 .75.548c.186.257.286.566.286.883v3.296c0 4.333-4.692 5.939-4.892 6.005l-.186.062zm.026-11.066l-3.696 1.226a.5.5 0 0 0-.25.182c-.062.086-.095.189-.095.295v3.296c0 2.775 3.254 4.576 4.065 4.982.81-.326 4.018-1.818 4.018-4.982v-3.296c0-.106-.033-.209-.095-.295a.5.5 0 0 0-.25-.182l-3.696-1.226zm-.449 6.283h-.017a.95.95 0 0 1-.371-.082.94.94 0 0 1-.309-.221l-1.165-1.212.728-.699 1.134 1.183 2.618-2.618.714.714-2.658 2.658a.93.93 0 0 1-.309.206c-.116.048-.24.072-.365.071z" class="C"/><path d="M59.316 179.059c-.043-.36-.216-.639-.519-.838s-.675-.298-1.115-.298c-.322 0-.604.052-.845.156s-.426.247-.561.43-.199.389-.199.621a.89.89 0 0 0 .139.501 1.23 1.23 0 0 0 .362.344 2.58 2.58 0 0 0 .462.224l.444.139.739.198c.189.05.4.119.632.206s.458.208.671.359a1.83 1.83 0 0 1 .533.575c.14.235.209.522.209.863 0 .393-.103.748-.309 1.066s-.502.569-.895.756-.865.281-1.424.281c-.521 0-.972-.085-1.353-.253s-.677-.402-.895-.703-.337-.65-.366-1.047h.909c.024.274.116.502.277.681a1.49 1.49 0 0 0 .618.398c.251.085.521.128.81.128.336 0 .638-.054.906-.163s.479-.265.636-.462.234-.431.234-.696c0-.241-.067-.438-.202-.589s-.312-.275-.533-.37-.458-.177-.714-.248l-.895-.256c-.568-.163-1.018-.397-1.349-.7s-.497-.699-.497-1.189c0-.407.11-.763.33-1.066s.521-.542.895-.71.797-.255 1.261-.255.886.084 1.25.252a2.16 2.16 0 0 1 .867.681 1.7 1.7 0 0 1 .341.984h-.852zm4.573 5.568c-.526 0-.979-.116-1.36-.348s-.671-.561-.877-.98-.305-.911-.305-1.47.102-1.051.305-1.477.492-.763.859-1.002.8-.362 1.293-.362c.284 0 .565.047.842.142a2.09 2.09 0 0 1 .756.462c.227.21.408.49.543.838s.203.776.203 1.285v.355h-4.205v-.724h3.352a1.79 1.79 0 0 0-.185-.824c-.121-.241-.294-.432-.518-.572s-.485-.209-.788-.209c-.334 0-.623.083-.867.249a1.63 1.63 0 0 0-.557.639c-.13.263-.195.544-.195.845v.483c0 .412.071.761.213 1.047a1.53 1.53 0 0 0 .6.65c.256.147.553.22.891.22.22 0 .419-.03.597-.092a1.27 1.27 0 0 0 .465-.284c.13-.128.231-.286.302-.476l.81.227a1.79 1.79 0 0 1-.43.725c-.201.206-.45.367-.746.483a2.78 2.78 0 0 1-.998.17zm5.749 0c-.511 0-.952-.12-1.321-.362s-.653-.574-.852-.998-.298-.908-.298-1.452c0-.554.102-1.043.305-1.467s.493-.759.859-.998.8-.362 1.293-.362c.383 0 .729.071 1.037.213s.56.341.756.597.319.554.366.895h-.838a1.3 1.3 0 0 0-.426-.661c-.218-.194-.511-.291-.881-.291-.327 0-.613.085-.859.256s-.434.406-.572.713-.202.664-.202 1.076a2.8 2.8 0 0 0 .199 1.101c.135.313.324.555.568.728s.535.259.866.259c.218 0 .416-.037.593-.113s.328-.185.451-.327a1.25 1.25 0 0 0 .263-.511h.838a1.94 1.94 0 0 1-.352.87c-.185.255-.43.459-.735.611s-.656.223-1.058.223zm6.808-2.343v-3.225h.838v5.455h-.838v-.924h-.057a1.79 1.79 0 0 1-.597.707c-.27.192-.611.288-1.023.288-.341 0-.644-.075-.909-.224s-.474-.379-.625-.682-.227-.69-.227-1.154v-3.466h.838v3.409c0 .398.111.715.334.952s.511.355.859.355a1.42 1.42 0 0 0 .636-.16c.218-.106.4-.27.547-.49s.224-.501.224-.841zm2.373 2.23v-5.455h.81v.824h.057c.099-.27.279-.489.54-.657a1.59 1.59 0 0 1 .881-.252l.231.003.209.011v.852a3.03 3.03 0 0 0-.195-.032 1.99 1.99 0 0 0-.316-.024c-.265 0-.502.055-.71.166a1.26 1.26 0 0 0-.49.455c-.118.192-.178.411-.178.657v3.452h-.838zm3.721 0v-5.455h.838v5.455h-.838zm.426-6.364c-.163 0-.304-.056-.422-.167s-.174-.245-.174-.401.058-.29.174-.401a.59.59 0 0 1 .422-.167.58.58 0 0 1 .419.167.53.53 0 0 1 .178.401.53.53 0 0 1-.178.401c-.116.111-.256.167-.419.167zm4.319.909v.71h-2.827v-.71h2.827zm-2.003-1.307h.838v5.199c0 .237.034.414.103.533a.53.53 0 0 0 .27.234 1.08 1.08 0 0 0 .352.057 1.55 1.55 0 0 0 .227-.014l.142-.029.17.753c-.057.022-.136.043-.238.064a1.73 1.73 0 0 1-.387.036c-.237 0-.469-.051-.696-.153s-.412-.257-.561-.465-.22-.471-.22-.789v-5.426zm3.803 8.807c-.142 0-.269-.012-.38-.035s-.188-.043-.231-.064l.213-.739c.204.052.383.071.54.057s.295-.084.416-.21.236-.323.337-.6l.156-.426-2.017-5.483h.909l1.506 4.347h.057l1.506-4.347h.909l-2.315 6.25c-.104.282-.233.515-.387.7a1.45 1.45 0 0 1-.536.415c-.201.09-.428.135-.682.135zm7.953-2.045v-7.273h.881v6.491h3.38v.782h-4.261zm7.798.113c-.525 0-.979-.116-1.36-.348s-.671-.561-.877-.98-.305-.911-.305-1.47.101-1.051.305-1.477.492-.763.859-1.002.801-.362 1.293-.362a2.58 2.58 0 0 1 .842.142c.277.095.529.249.756.462s.408.49.543.838.203.776.203 1.285v.355h-4.205v-.724h3.352a1.79 1.79 0 0 0-.184-.824 1.4 1.4 0 0 0-.519-.572c-.222-.139-.485-.209-.788-.209-.334 0-.623.083-.867.249a1.63 1.63 0 0 0-.557.639 1.88 1.88 0 0 0-.195.845v.483c0 .412.071.761.213 1.047s.344.501.6.65.553.22.891.22c.22 0 .419-.03.597-.092s.335-.158.465-.284a1.29 1.29 0 0 0 .302-.476l.809.227a1.79 1.79 0 0 1-.429.725c-.201.206-.45.367-.746.483s-.628.17-.998.17zm7.828-5.568l-2.017 5.455h-.853l-2.017-5.455h.91l1.505 4.347h.057l1.506-4.347h.909zm3.198 5.568c-.526 0-.979-.116-1.36-.348s-.672-.561-.878-.98-.305-.911-.305-1.47.102-1.051.305-1.477.493-.763.86-1.002a2.31 2.31 0 0 1 1.292-.362 2.58 2.58 0 0 1 .842.142c.277.095.529.249.756.462s.409.49.544.838.202.776.202 1.285v.355h-4.204v-.724h3.352a1.79 1.79 0 0 0-.185-.824c-.121-.241-.293-.432-.518-.572a1.46 1.46 0 0 0-.789-.209c-.333 0-.622.083-.866.249s-.427.376-.558.639a1.88 1.88 0 0 0-.195.845v.483c0 .412.071.761.213 1.047a1.54 1.54 0 0 0 .6.65c.256.147.553.22.892.22.22 0 .419-.03.596-.092s.335-.158.465-.284.231-.286.302-.476l.81.227c-.085.275-.229.517-.43.725s-.45.367-.746.483-.628.17-.997.17zm4.371-7.386v7.273h-.838v-7.273h.838zm5.399 3.04l-.753.213c-.048-.126-.117-.248-.21-.366s-.213-.22-.369-.298-.356-.117-.6-.117c-.334 0-.612.076-.835.23s-.33.345-.33.579c0 .209.076.373.227.494s.389.221.711.302l.809.199c.488.118.851.299 1.09.543s.359.553.359.934c0 .312-.09.592-.27.838s-.426.44-.746.582-.691.213-1.115.213c-.556 0-1.016-.12-1.381-.362s-.595-.594-.692-1.058l.795-.199c.076.294.219.514.43.661s.491.22.834.22c.391 0 .701-.083.931-.249s.348-.369.348-.604c0-.189-.067-.348-.199-.475s-.336-.228-.611-.292l-.909-.213c-.5-.118-.867-.302-1.101-.55s-.348-.565-.348-.941c0-.308.086-.58.259-.817a1.75 1.75 0 0 1 .714-.557c.303-.135.646-.203 1.03-.203.54 0 .963.118 1.271.355a1.92 1.92 0 0 1 .661.938z" class="E"/><g class="D"><path d="M188.881 184.514v-7.273h.88v6.491h3.381v.782h-4.261zm7.798.113c-.526 0-.979-.116-1.36-.348s-.671-.561-.877-.98-.306-.911-.306-1.47.102-1.051.306-1.477.492-.763.859-1.002.8-.362 1.293-.362c.284 0 .564.047.841.142a2.1 2.1 0 0 1 .757.462c.227.21.408.49.543.838s.203.776.203 1.285v.355h-4.205v-.724h3.352a1.79 1.79 0 0 0-.184-.824 1.4 1.4 0 0 0-.519-.572c-.222-.139-.485-.209-.788-.209-.334 0-.623.083-.867.249a1.63 1.63 0 0 0-.557.639 1.88 1.88 0 0 0-.196.845v.483c0 .412.071.761.214 1.047s.344.501.6.65.552.22.891.22c.22 0 .419-.03.597-.092s.335-.158.465-.284a1.29 1.29 0 0 0 .302-.476l.809.227a1.79 1.79 0 0 1-.429.725 2.1 2.1 0 0 1-.746.483c-.296.113-.629.17-.998.17zm7.828-5.568l-2.017 5.455h-.853l-2.017-5.455h.909l1.506 4.347h.057l1.505-4.347h.91zm3.197 5.568c-.525 0-.979-.116-1.36-.348s-.671-.561-.877-.98-.305-.911-.305-1.47.102-1.051.305-1.477.493-.763.86-1.002a2.31 2.31 0 0 1 1.292-.362 2.58 2.58 0 0 1 .842.142c.277.095.529.249.756.462s.409.49.543.838.203.776.203 1.285v.355h-4.205v-.724h3.353a1.79 1.79 0 0 0-.185-.824 1.4 1.4 0 0 0-.519-.572c-.222-.139-.485-.209-.788-.209a1.5 1.5 0 0 0-.866.249c-.242.163-.428.376-.558.639a1.88 1.88 0 0 0-.195.845v.483c0 .412.071.761.213 1.047s.344.501.6.65.553.22.891.22c.221 0 .419-.03.597-.092s.335-.158.465-.284a1.29 1.29 0 0 0 .302-.476l.81.227c-.086.275-.229.517-.43.725s-.45.367-.746.483-.628.17-.998.17zm4.372-7.386v7.273h-.838v-7.273h.838zm4.333 7.273v-.64l2.401-2.627.696-.803c.182-.23.317-.445.405-.646a1.58 1.58 0 0 0 .134-.639c0-.256-.061-.477-.184-.665s-.287-.331-.497-.433-.448-.152-.711-.152c-.279 0-.523.058-.731.174s-.366.273-.48.479-.166.447-.166.724h-.838c0-.426.098-.8.294-1.122a2.05 2.05 0 0 1 .803-.753c.341-.18.723-.269 1.147-.269s.804.089 1.133.269.587.423.774.728.28.646.28 1.02a2.19 2.19 0 0 1-.145.784c-.095.254-.261.537-.497.849s-.56.689-.977 1.136l-1.634 1.748v.056h3.381v.782h-4.588z"/><use href="#L"/><path d="M19.483 312.63v-.782h5.454v.782h-2.287v6.491h-.881v-6.491h-2.287zm6.134 6.491v-5.454h.81v.823h.057c.099-.269.279-.488.54-.657a1.59 1.59 0 0 1 .881-.252l.231.004.21.011v.852a2.43 2.43 0 0 0-.195-.032c-.099-.017-.205-.025-.316-.025-.265 0-.502.056-.71.167a1.26 1.26 0 0 0-.49.454c-.118.192-.178.411-.178.657v3.452h-.838zm5.771.114c-.492 0-.924-.117-1.296-.352s-.658-.562-.867-.983-.309-.914-.309-1.478.103-1.064.309-1.488.497-.753.867-.987.804-.351 1.296-.351.923.117 1.293.351.66.564.866.987.313.92.313 1.488-.104 1.056-.312 1.478-.495.749-.866.983-.8.352-1.293.352zm0-.753c.374 0 .682-.096.923-.288s.42-.444.536-.756a2.9 2.9 0 0 0 .174-1.016c0-.364-.058-.704-.174-1.019s-.295-.569-.536-.763-.549-.292-.923-.292-.682.097-.923.292-.42.448-.536.763-.174.655-.174 1.019a2.9 2.9 0 0 0 .174 1.016c.116.312.295.564.536.756s.549.288.923.288zm7.188-1.591v-3.224h.838v5.454h-.838v-.923h-.057c-.128.277-.327.512-.597.706s-.611.288-1.023.288c-.341 0-.644-.074-.909-.224a1.56 1.56 0 0 1-.625-.681c-.151-.306-.227-.691-.227-1.155v-3.465h.838v3.409c0 .397.111.715.334.951s.511.355.859.355c.208 0 .42-.053.636-.159a1.39 1.39 0 0 0 .547-.49c.149-.221.224-.501.224-.842zm2.487 2.23v-7.273h.838v2.685h.071l.256-.362c.111-.149.27-.282.476-.398s.49-.177.845-.177c.459 0 .864.114 1.215.344s.624.555.82.977.295.918.295 1.491-.098 1.078-.295 1.502-.469.748-.817.98-.749.345-1.204.345c-.35 0-.631-.058-.842-.174s-.373-.252-.486-.402l-.263-.376h-.099v.838h-.81zm.824-2.727c0 .412.06.775.181 1.09a1.64 1.64 0 0 0 .529.735c.232.175.516.263.852.263.35 0 .643-.092.877-.277s.414-.438.533-.753.181-.67.181-1.058-.059-.729-.178-1.037-.292-.555-.529-.735-.529-.274-.884-.274c-.341 0-.627.087-.859.26s-.407.409-.526.717a2.95 2.95 0 0 0-.177 1.069zm6.111-4.546v7.273h-.838v-7.273h.838zm3.822 7.387c-.526 0-.979-.116-1.36-.348a2.34 2.34 0 0 1-.877-.98c-.204-.422-.305-.912-.305-1.471s.102-1.051.305-1.477a2.41 2.41 0 0 1 .859-1.001c.369-.242.8-.362 1.293-.362.284 0 .565.047.842.142s.529.248.756.461a2.21 2.21 0 0 1 .543.838c.135.348.202.777.202 1.286v.355h-4.204v-.725h3.352c0-.307-.062-.582-.185-.823a1.39 1.39 0 0 0-.519-.572c-.223-.14-.485-.21-.788-.21-.334 0-.623.083-.867.249a1.63 1.63 0 0 0-.557.639 1.88 1.88 0 0 0-.195.845v.483c0 .412.071.761.213 1.048s.345.501.6.65.553.22.891.22a1.83 1.83 0 0 0 .597-.092c.18-.064.335-.159.465-.285s.231-.286.302-.475l.81.227a1.79 1.79 0 0 1-.43.724c-.201.206-.45.367-.746.483s-.629.171-.998.171zm7.397-4.347l-.753.213a1.42 1.42 0 0 0-.209-.366c-.09-.12-.213-.22-.369-.298s-.356-.117-.6-.117c-.334 0-.612.077-.834.231s-.33.344-.33.579c0 .208.076.372.227.493s.388.222.71.302l.81.199c.488.118.851.299 1.09.543s.359.553.359.934c0 .313-.09.592-.27.838s-.426.441-.746.583-.691.213-1.115.213c-.556 0-1.017-.121-1.381-.362s-.595-.595-.693-1.059l.795-.199c.076.294.219.514.43.661s.491.22.835.22c.391 0 .701-.083.93-.248s.348-.37.348-.604c0-.19-.066-.348-.199-.476s-.336-.227-.611-.291l-.909-.213c-.5-.119-.867-.302-1.101-.551s-.348-.564-.348-.941a1.35 1.35 0 0 1 .259-.817 1.77 1.77 0 0 1 .714-.557c.303-.135.646-.202 1.03-.202.54 0 .964.118 1.271.355a1.91 1.91 0 0 1 .66.937zm2.199.952v3.281h-.838v-7.273h.838v2.671h.071c.128-.282.32-.506.575-.671s.601-.252 1.03-.252c.372 0 .697.074.977.223s.496.373.65.679.234.688.234 1.157v3.466h-.838v-3.409c0-.433-.112-.768-.337-1.005s-.532-.359-.927-.359c-.275 0-.521.058-.739.174s-.386.286-.511.508-.185.493-.185.81zm7.286 3.395c-.492 0-.925-.117-1.296-.352s-.658-.562-.866-.983-.309-.914-.309-1.478.103-1.064.309-1.488.497-.753.866-.987.804-.351 1.296-.351.923.117 1.293.351.66.564.867.987.313.92.313 1.488-.104 1.056-.312 1.478-.495.749-.867.983-.8.352-1.293.352zm0-.753c.374 0 .682-.096.923-.288s.42-.444.536-.756a2.9 2.9 0 0 0 .174-1.016c0-.364-.058-.704-.174-1.019s-.295-.569-.536-.763-.549-.292-.923-.292-.682.097-.923.292-.42.448-.536.763-.174.655-.174 1.019a2.9 2.9 0 0 0 .174 1.016c.116.312.295.564.536.756s.549.288.923.288zm5.967.753c-.492 0-.924-.117-1.296-.352s-.658-.562-.866-.983-.309-.914-.309-1.478.103-1.064.309-1.488.497-.753.866-.987.804-.351 1.296-.351.923.117 1.293.351.66.564.867.987.313.92.313 1.488-.104 1.056-.312 1.478-.495.749-.867.983-.8.352-1.293.352zm0-.753c.374 0 .682-.096.923-.288s.42-.444.536-.756a2.9 2.9 0 0 0 .174-1.016c0-.364-.058-.704-.174-1.019s-.295-.569-.536-.763-.549-.292-.923-.292-.682.097-.923.292-.42.448-.536.763-.174.655-.174 1.019a2.9 2.9 0 0 0 .174 1.016c.116.312.295.564.536.756s.549.288.923.288zm6.123-4.815v.71h-2.827v-.71h2.827zm-2.003-1.307h.838v5.199c0 .236.034.414.103.532s.161.194.27.235a1.08 1.08 0 0 0 .352.056c.092 0 .168-.004.227-.014l.142-.028.171.753c-.057.021-.136.042-.238.064s-.231.035-.387.035c-.237 0-.469-.051-.696-.153a1.37 1.37 0 0 1-.561-.465c-.147-.208-.22-.471-.22-.788v-5.426zm3.263 6.761v-5.454h.838v5.454h-.838zm.426-6.364c-.163 0-.304-.055-.422-.166s-.174-.245-.174-.402.058-.29.174-.401.259-.167.422-.167.303.056.419.167a.53.53 0 0 1 .177.401c0 .157-.059.29-.177.402s-.256.166-.419.166zm2.785 3.083v3.281h-.838v-5.454h.81v.852h.071a1.56 1.56 0 0 1 .582-.668c.26-.17.597-.255 1.008-.255.369 0 .692.075.969.227s.492.376.646.682.231.686.231 1.15v3.466h-.838v-3.409c0-.429-.111-.762-.334-1.001s-.528-.363-.916-.363c-.268 0-.507.058-.717.174a1.25 1.25 0 0 0-.494.508c-.121.223-.181.493-.181.81zm7.213 5.44c-.405 0-.753-.052-1.044-.156s-.534-.237-.728-.405-.344-.343-.458-.533l.668-.468.288.341c.116.13.275.242.476.337s.47.146.799.146c.44 0 .804-.107 1.09-.32s.43-.547.43-1.001v-1.108h-.071c-.061.099-.149.222-.263.369a1.5 1.5 0 0 1-.483.387c-.208.111-.49.167-.845.167a2.27 2.27 0 0 1-1.186-.313c-.348-.208-.624-.511-.827-.909s-.302-.88-.302-1.449c0-.558.098-1.045.295-1.459s.47-.739.82-.966.755-.344 1.214-.344c.355 0 .637.059.845.177s.372.249.483.398l.263.362h.085v-.866h.81v5.61c0 .469-.107.85-.32 1.144s-.495.512-.852.65a3.23 3.23 0 0 1-1.186.209zm-.028-2.997c.336 0 .62-.077.852-.231s.408-.375.529-.664.181-.634.181-1.037c0-.393-.059-.74-.178-1.04s-.294-.536-.526-.707-.518-.256-.859-.256c-.355 0-.651.09-.888.27s-.411.422-.529.725a2.8 2.8 0 0 0-.174 1.008 2.65 2.65 0 0 0 .178 1.005 1.54 1.54 0 0 0 .533.682c.237.163.53.245.881.245z"/></g><path stroke="#f2f2f2" d="M19 366.979l230-.001" class="F"/><path d="M55.339 350.121v-7.273h2.457c.568 0 1.034.097 1.399.292s.635.455.81.791.263.719.263 1.147a2.4 2.4 0 0 1-.263 1.14c-.175.332-.444.592-.806.782s-.825.28-1.389.28h-1.989v-.795h1.96c.388 0 .701-.057.938-.171a1.07 1.07 0 0 0 .518-.483c.109-.21.163-.461.163-.753s-.055-.545-.163-.763a1.11 1.11 0 0 0-.522-.504c-.239-.121-.555-.181-.948-.181h-1.548v6.491h-.881zm3.423-3.267l1.79 3.267h-1.023l-1.761-3.267h.994zm5.088 3.381c-.526 0-.979-.116-1.36-.348a2.34 2.34 0 0 1-.877-.98c-.204-.422-.305-.912-.305-1.471s.102-1.051.305-1.477a2.41 2.41 0 0 1 .859-1.001c.369-.242.8-.362 1.293-.362a2.58 2.58 0 0 1 .842.142 2.07 2.07 0 0 1 .756.461 2.23 2.23 0 0 1 .543.838c.135.348.202.777.202 1.286v.355h-4.205v-.725h3.352c0-.307-.062-.582-.185-.823a1.39 1.39 0 0 0-.519-.572c-.222-.14-.485-.21-.788-.21-.334 0-.623.083-.866.249a1.63 1.63 0 0 0-.558.639 1.88 1.88 0 0 0-.195.845v.483c0 .412.071.761.213 1.048s.344.501.6.65.553.22.891.22a1.83 1.83 0 0 0 .597-.092 1.27 1.27 0 0 0 .465-.285c.13-.126.231-.286.302-.475l.81.227a1.79 1.79 0 0 1-.43.724c-.201.206-.45.367-.746.483s-.629.171-.998.171zm3.647-.114v-7.273h.838v2.685h.071l.256-.362a1.5 1.5 0 0 1 .476-.398c.208-.118.49-.177.845-.177.459 0 .864.114 1.215.344s.624.555.82.977.295.918.295 1.491-.098 1.078-.295 1.502-.469.748-.817.98-.749.345-1.204.345c-.35 0-.631-.058-.842-.174s-.373-.252-.486-.402l-.263-.376h-.099v.838h-.81zm.824-2.727a3.03 3.03 0 0 0 .181 1.09 1.64 1.64 0 0 0 .529.735c.232.175.516.263.852.263.35 0 .643-.092.877-.277s.414-.438.533-.753.181-.67.181-1.058a2.84 2.84 0 0 0-.178-1.037c-.119-.308-.292-.555-.529-.735s-.529-.274-.884-.274c-.341 0-.627.087-.859.26s-.407.409-.526.717-.177.662-.177 1.069zm7.489 2.841c-.492 0-.925-.117-1.296-.352s-.658-.562-.866-.983-.309-.914-.309-1.478.103-1.064.309-1.488.497-.753.866-.987.804-.351 1.296-.351.923.117 1.293.351.66.564.867.987.313.92.313 1.488-.104 1.056-.312 1.478a2.36 2.36 0 0 1-.867.983 2.37 2.37 0 0 1-1.293.352zm0-.753c.374 0 .682-.096.923-.288s.42-.444.536-.756a2.9 2.9 0 0 0 .174-1.016c0-.364-.058-.704-.174-1.019s-.295-.569-.536-.763-.549-.292-.923-.292-.682.097-.923.292-.42.448-.536.763-.174.655-.174 1.019a2.9 2.9 0 0 0 .174 1.016c.116.312.295.564.536.756s.549.288.923.288zm5.967.753c-.492 0-.924-.117-1.296-.352a2.37 2.37 0 0 1-.866-.983c-.208-.421-.309-.914-.309-1.478s.103-1.064.309-1.488.497-.753.866-.987.804-.351 1.296-.351.923.117 1.293.351.66.564.867.987.313.92.313 1.488-.104 1.056-.312 1.478a2.36 2.36 0 0 1-.867.983 2.37 2.37 0 0 1-1.293.352zm0-.753c.374 0 .682-.096.923-.288s.42-.444.536-.756a2.9 2.9 0 0 0 .174-1.016c0-.364-.058-.704-.174-1.019s-.295-.569-.536-.763-.549-.292-.923-.292-.682.097-.923.292-.42.448-.536.763-.174.655-.174 1.019a2.9 2.9 0 0 0 .174 1.016c.116.312.295.564.536.756s.549.288.923.288zm6.123-4.815v.71h-2.827v-.71H87.9zm-2.003-1.307h.838v5.199c0 .236.034.414.103.532a.52.52 0 0 0 .27.235 1.08 1.08 0 0 0 .352.056 1.42 1.42 0 0 0 .227-.014l.142-.028.17.753c-.057.021-.136.042-.238.064s-.231.035-.387.035a1.68 1.68 0 0 1-.696-.153 1.37 1.37 0 0 1-.561-.465c-.147-.208-.22-.471-.22-.788v-5.426zm-30.558 43.761v-7.273H59.7v.782h-3.48v2.457h3.153v.781H56.22v3.253h-.881zm7.361.128a2.22 2.22 0 0 1-.941-.195c-.282-.133-.505-.324-.671-.572s-.249-.554-.249-.909c0-.313.062-.566.185-.76a1.3 1.3 0 0 1 .494-.462c.206-.111.433-.194.682-.248l.756-.135.806-.096c.208-.024.36-.063.454-.117s.146-.15.146-.284v-.029c0-.35-.096-.623-.288-.817s-.477-.291-.863-.291c-.4 0-.714.088-.941.263a1.55 1.55 0 0 0-.479.561l-.795-.284c.142-.332.331-.59.568-.774a2.14 2.14 0 0 1 .781-.391 3.23 3.23 0 0 1 .838-.113 3.38 3.38 0 0 1 .604.063 1.98 1.98 0 0 1 .664.253c.213.128.394.32.536.578s.213.604.213 1.037v3.594h-.838v-.739h-.043a1.46 1.46 0 0 1-.284.38 1.65 1.65 0 0 1-.529.345c-.22.095-.489.142-.806.142zm.128-.753c.331 0 .611-.065.838-.195s.403-.299.519-.504.177-.423.177-.65v-.767c-.035.042-.114.081-.234.117a3.4 3.4 0 0 1-.412.089l-.451.064-.352.042a3.24 3.24 0 0 0-.611.139 1.05 1.05 0 0 0-.455.28c-.114.123-.17.291-.17.504a.75.75 0 0 0 .323.661c.218.147.494.22.827.22zm6.118.739c-.511 0-.952-.121-1.321-.362s-.653-.575-.852-.998-.298-.908-.298-1.453c0-.554.102-1.043.305-1.466a2.41 2.41 0 0 1 .859-.998c.367-.239.8-.362 1.293-.362a2.45 2.45 0 0 1 1.037.213 1.99 1.99 0 0 1 .756.596c.197.256.318.554.366.895h-.838c-.064-.249-.206-.469-.426-.66s-.511-.292-.881-.292c-.327 0-.613.086-.859.256s-.434.406-.572.714-.203.664-.203 1.076c0 .421.066.788.199 1.101s.324.555.568.728.535.259.867.259c.218 0 .415-.038.593-.114a1.22 1.22 0 0 0 .451-.326c.123-.142.211-.313.263-.512h.838a1.94 1.94 0 0 1-.352.87c-.185.256-.43.459-.735.611s-.656.224-1.058.224zm5.742-5.568v.71H71.86v-.71h2.827zm-2.003-1.307h.838v5.199c0 .236.034.414.103.532a.52.52 0 0 0 .27.235 1.08 1.08 0 0 0 .352.056 1.42 1.42 0 0 0 .227-.014l.142-.028.171.753c-.057.021-.136.042-.238.064s-.231.035-.387.035a1.68 1.68 0 0 1-.696-.153 1.37 1.37 0 0 1-.561-.465c-.147-.208-.22-.471-.22-.788v-5.426zm5.421 6.875c-.492 0-.925-.117-1.296-.352s-.658-.562-.866-.983-.309-.914-.309-1.478.103-1.064.309-1.488.497-.753.866-.987.804-.351 1.296-.351.923.117 1.293.351.661.564.867.987.313.92.313 1.488-.104 1.056-.312 1.478a2.36 2.36 0 0 1-.867.983 2.37 2.37 0 0 1-1.293.352zm0-.753c.374 0 .682-.096.923-.288s.42-.444.536-.756a2.9 2.9 0 0 0 .174-1.016c0-.364-.058-.704-.174-1.019s-.295-.569-.536-.763-.549-.292-.923-.292-.682.097-.923.292-.42.448-.536.763-.174.655-.174 1.019a2.9 2.9 0 0 0 .174 1.016 1.7 1.7 0 0 0 .536.756c.241.192.549.288.923.288zm3.751.639v-5.454h.81v.823h.057c.099-.269.279-.488.54-.657a1.59 1.59 0 0 1 .881-.252l.231.004.21.011v.852a2.43 2.43 0 0 0-.195-.032c-.1-.017-.205-.025-.316-.025-.265 0-.502.056-.71.167a1.26 1.26 0 0 0-.49.454 1.23 1.23 0 0 0-.177.657v3.452h-.838zm4.426 2.046a1.81 1.81 0 0 1-.38-.036c-.111-.024-.188-.043-.231-.064l.213-.739a1.57 1.57 0 0 0 .54.057c.156-.014.295-.084.415-.209s.236-.323.337-.6l.156-.426-2.017-5.483h.909l1.506 4.346h.057l1.506-4.346h.909l-2.315 6.25c-.104.281-.233.514-.387.699a1.48 1.48 0 0 1-.536.416c-.203.09-.428.135-.682.135zm7.953-2.046v-7.273h2.457c.568 0 1.034.097 1.399.292s.635.455.81.791.263.719.263 1.147a2.4 2.4 0 0 1-.263 1.14c-.175.332-.444.592-.806.782s-.825.28-1.388.28h-1.989v-.795h1.96c.388 0 .701-.057.938-.171a1.07 1.07 0 0 0 .518-.483c.109-.21.163-.461.163-.753s-.055-.545-.163-.763a1.11 1.11 0 0 0-.522-.504c-.239-.121-.555-.181-.948-.181h-1.548v6.491h-.881zm3.423-3.267l1.79 3.267h-1.023l-1.761-3.267h.994zm5.087 3.381c-.525 0-.979-.116-1.36-.348s-.671-.561-.877-.98-.305-.912-.305-1.471.102-1.051.305-1.477.493-.762.86-1.001.8-.362 1.292-.362a2.58 2.58 0 0 1 .842.142 2.07 2.07 0 0 1 .756.461c.227.211.409.49.543.838s.203.777.203 1.286v.355H100.8v-.725h3.353c0-.307-.062-.582-.185-.823s-.294-.432-.519-.572-.485-.21-.788-.21a1.5 1.5 0 0 0-.866.249c-.242.163-.428.376-.558.639a1.88 1.88 0 0 0-.195.845v.483c0 .412.071.761.213 1.048s.344.501.6.65.553.22.891.22a1.83 1.83 0 0 0 .597-.092 1.27 1.27 0 0 0 .465-.285c.13-.127.231-.286.302-.475l.81.227a1.8 1.8 0 0 1-.43.724c-.201.206-.45.367-.746.483s-.628.171-.998.171zm7.397-4.347l-.752.213a1.45 1.45 0 0 0-.21-.366c-.09-.12-.213-.22-.369-.298s-.357-.117-.6-.117c-.334 0-.612.077-.835.231s-.33.344-.33.579c0 .208.076.372.227.493s.388.222.71.302l.81.199c.488.118.851.299 1.09.543s.359.553.359.934c0 .313-.09.592-.27.838s-.426.441-.746.583-.691.213-1.115.213c-.556 0-1.017-.121-1.381-.362s-.596-.595-.693-1.059l.796-.199c.075.294.219.514.429.661s.492.22.835.22c.391 0 .701-.083.93-.248s.348-.37.348-.604a.63.63 0 0 0-.199-.476c-.132-.13-.336-.227-.61-.291l-.909-.213c-.5-.119-.867-.302-1.101-.551s-.348-.564-.348-.941c0-.308.086-.58.259-.817s.413-.422.714-.557.646-.202 1.03-.202c.539 0 .963.118 1.271.355a1.91 1.91 0 0 1 .66.937zm3.648 4.347c-.525 0-.979-.116-1.36-.348s-.671-.561-.877-.98-.305-.912-.305-1.471.101-1.051.305-1.477a2.41 2.41 0 0 1 .859-1.001c.37-.242.801-.362 1.293-.362a2.58 2.58 0 0 1 .842.142 2.07 2.07 0 0 1 .756.461c.227.211.408.49.543.838s.203.777.203 1.286v.355h-4.205v-.725h3.353c0-.307-.062-.582-.185-.823s-.294-.432-.519-.572-.485-.21-.788-.21c-.334 0-.623.083-.866.249a1.64 1.64 0 0 0-.558.639 1.88 1.88 0 0 0-.195.845v.483c0 .412.071.761.213 1.048s.344.501.6.65.553.22.891.22c.22 0 .419-.031.597-.092a1.27 1.27 0 0 0 .465-.285c.13-.127.231-.286.302-.475l.81.227a1.8 1.8 0 0 1-.43.724c-.201.206-.45.367-.746.483s-.628.171-.998.171zm5.906-5.568v.71h-2.827v-.71h2.827zm-2.003-1.307h.838v5.199c0 .236.034.414.103.532a.52.52 0 0 0 .27.235c.109.041.228.056.351.056.093 0 .169-.004.228-.014l.142-.028.17.753c-.057.021-.136.042-.238.064a1.86 1.86 0 0 1-.387.035 1.69 1.69 0 0 1-.696-.153 1.37 1.37 0 0 1-.561-.465c-.147-.208-.22-.471-.22-.788v-5.426z" class="E"/><g clip-path="url(#F)" class="C"><path d="M28.607 382.621a.46.46 0 0 1-.458.458.46.46 0 0 1-.458-.458 5.51 5.51 0 0 1 5.5-5.5c1.369 0 2.664.51 3.667 1.41v-.952a.46.46 0 0 1 .458-.458.46.46 0 0 1 .458.458v1.605c0 .631-.514 1.145-1.146 1.145h-1.604a.46.46 0 0 1-.458-.458.46.46 0 0 1 .458-.458h1.433c-.859-.876-2.027-1.375-3.266-1.375a4.59 4.59 0 0 0-4.583 4.583zm9.625-.458a.46.46 0 0 0-.458.458 4.59 4.59 0 0 1-4.583 4.583c-1.239 0-2.407-.499-3.266-1.375h1.433a.46.46 0 0 0 .458-.458.46.46 0 0 0-.458-.458h-1.604a1.15 1.15 0 0 0-1.146 1.146v1.604a.46.46 0 0 0 .458.458.46.46 0 0 0 .458-.458v-.952c1.002.9 2.298 1.41 3.667 1.41a5.51 5.51 0 0 0 5.5-5.5.46.46 0 0 0-.458-.458zm-2.431-.52l-.446.258c.076.227.127.467.127.72s-.051.493-.127.721l.446.257a.46.46 0 0 1-.23.855.45.45 0 0 1-.229-.061l-.446-.258c-.323.364-.753.631-1.248.731v.505a.46.46 0 0 1-.458.458.46.46 0 0 1-.458-.458v-.505c-.495-.101-.925-.367-1.248-.731l-.446.258c-.072.042-.151.061-.229.061-.159 0-.313-.082-.397-.229a.46.46 0 0 1 .168-.626l.446-.257c-.076-.228-.127-.467-.127-.721s.051-.493.127-.72l-.446-.258a.46.46 0 0 1-.168-.626c.127-.22.406-.295.626-.168l.446.258c.323-.364.753-.63 1.248-.731v-.504a.46.46 0 0 1 .458-.459.46.46 0 0 1 .458.459v.504c.495.101.925.367 1.248.731l.446-.258c.219-.127.499-.052.626.168a.46.46 0 0 1-.168.626zm-1.236.978c0-.758-.617-1.375-1.375-1.375s-1.375.617-1.375 1.375.617 1.375 1.375 1.375 1.375-.617 1.375-1.375z"/></g><g clip-path="url(#G)" class="C"><path d="M34.689 341.045a.51.51 0 0 0 .314.462 4.5 4.5 0 0 1 2.684 4.256 4.5 4.5 0 0 1-4.57 4.425 4.5 4.5 0 0 1-4.424-4.57c.002-1.781 1.055-3.392 2.684-4.11a.51.51 0 0 0 .314-.464.5.5 0 0 0-.687-.464 5.5 5.5 0 0 0-2.857 7.23 5.5 5.5 0 0 0 7.23 2.856 5.5 5.5 0 0 0 2.857-7.229c-.555-1.281-1.576-2.302-2.857-2.857a.5.5 0 0 0-.688.465zm-1.499-1.924a.5.5 0 0 1 .5.5v2.998a.5.5 0 1 1-1 0v-2.998a.5.5 0 0 1 .5-.5z"/></g><g clip-path="url(#H)" class="C"><path d="M30.211 210.722c.884 0 1.604-.72 1.604-1.604s-.72-1.604-1.604-1.604-1.604.719-1.604 1.604.72 1.604 1.604 1.604zm0-2.292a.69.69 0 0 1 .688.688.69.69 0 0 1-.687.687.69.69 0 0 1-.687-.687.69.69 0 0 1 .688-.688zm5.5 6.875c1.137 0 2.063-.925 2.063-2.062s-.925-2.063-2.062-2.063-2.062.926-2.062 2.063.925 2.062 2.063 2.062zm0-3.208c.632 0 1.146.514 1.146 1.146s-.514 1.146-1.146 1.146-1.146-.514-1.146-1.146.514-1.146 1.146-1.146zm-4.156 3.945c.348.349.348.927-.006 1.282l-1.008 1.049a.46.46 0 0 1-.648.013.46.46 0 0 1-.013-.648l.576-.599h-.933c-1.011 0-1.833-.823-1.833-1.834v-.458a.46.46 0 0 1 .458-.458.46.46 0 0 1 .458.458v.458a.92.92 0 0 0 .917.917h.93l-.573-.599a.46.46 0 0 1 .013-.648.46.46 0 0 1 .648.012l1.014 1.055zm6.806 2.453a.45.45 0 0 1-.129.019.46.46 0 0 1-.44-.329c-.26-.886-1.117-1.505-2.081-1.505s-1.821.619-2.081 1.505c-.072.242-.325.383-.569.31a.46.46 0 0 1-.31-.569c.374-1.273 1.592-2.162 2.96-2.162s2.586.889 2.96 2.162a.46.46 0 0 1-.31.569h.001zm-5.927-5.052c-.053.02-.107.029-.161.029a.46.46 0 0 1-.429-.297c-.242-.645-.898-1.078-1.633-1.078s-1.392.433-1.633 1.078a.46.46 0 0 1-.59.268.46.46 0 0 1-.268-.59c.375-1 1.376-1.672 2.492-1.672s2.117.672 2.492 1.672a.46.46 0 0 1-.268.59h-.001z"/></g><path d="M59.316 212.059c-.043-.36-.216-.639-.519-.838s-.675-.298-1.115-.298c-.322 0-.604.052-.845.156s-.426.247-.561.43-.199.389-.199.621a.89.89 0 0 0 .139.501 1.23 1.23 0 0 0 .362.344 2.58 2.58 0 0 0 .462.224l.444.139.739.198c.189.05.4.119.632.206s.458.208.671.359a1.83 1.83 0 0 1 .533.575c.14.235.209.522.209.863 0 .393-.103.748-.309 1.066s-.502.569-.895.756-.865.281-1.424.281c-.521 0-.972-.085-1.353-.253s-.677-.402-.895-.703-.337-.65-.366-1.047h.909c.024.274.116.502.277.681a1.49 1.49 0 0 0 .618.398c.251.085.521.128.81.128.336 0 .638-.054.906-.163s.479-.265.636-.462.234-.431.234-.696c0-.241-.067-.438-.202-.589s-.312-.275-.533-.37-.458-.177-.714-.248l-.895-.256c-.568-.163-1.018-.397-1.349-.7s-.497-.699-.497-1.189c0-.407.11-.763.33-1.066s.521-.542.895-.71.797-.255 1.261-.255.886.084 1.25.252a2.16 2.16 0 0 1 .867.681 1.7 1.7 0 0 1 .341.984h-.852zm3.124 2.173v3.282h-.838v-7.273h.838v2.67h.071c.128-.281.32-.505.575-.671s.601-.252 1.03-.252c.372 0 .697.075.977.224s.496.373.65.678.234.689.234 1.158v3.466h-.838v-3.409c0-.434-.112-.769-.337-1.005s-.531-.359-.927-.359c-.275 0-.521.058-.739.174a1.27 1.27 0 0 0-.511.508c-.123.222-.185.492-.185.809zm6.675 3.41a2.22 2.22 0 0 1-.941-.196c-.282-.132-.505-.323-.671-.572s-.249-.554-.249-.909c0-.312.062-.565.185-.76s.288-.35.494-.461.433-.194.682-.249l.756-.135.806-.096c.208-.023.36-.062.455-.117s.146-.149.146-.284v-.028c0-.351-.096-.623-.288-.817s-.477-.291-.863-.291c-.4 0-.714.087-.941.263s-.387.362-.479.561l-.795-.284a1.91 1.91 0 0 1 .568-.775c.239-.187.499-.317.781-.39s.564-.114.838-.114c.175 0 .376.021.604.064s.451.124.664.252.394.321.536.579.213.604.213 1.037v3.594h-.838v-.739h-.043c-.057.118-.151.245-.284.38s-.309.25-.529.344-.489.143-.806.143zm.128-.753c.331 0 .611-.065.838-.196s.403-.298.519-.504.178-.422.178-.65v-.767c-.036.043-.114.082-.234.117a3.73 3.73 0 0 1-.412.089l-.451.064-.352.043c-.218.028-.421.074-.611.138s-.339.155-.455.281-.17.291-.17.504c0 .291.108.511.323.661s.494.22.828.22zm3.902.625v-5.455h.81v.824h.057c.099-.27.279-.489.54-.657a1.59 1.59 0 0 1 .881-.252l.231.003.21.011v.852a3.03 3.03 0 0 0-.195-.032 1.99 1.99 0 0 0-.316-.024c-.265 0-.502.055-.71.166a1.26 1.26 0 0 0-.49.455c-.118.192-.178.411-.178.657v3.452h-.838zm5.842.113c-.526 0-.979-.116-1.36-.348s-.671-.561-.877-.98-.305-.911-.305-1.47.102-1.051.305-1.477.492-.763.859-1.002.8-.362 1.293-.362c.284 0 .565.047.842.142a2.09 2.09 0 0 1 .756.462c.227.21.408.49.543.838s.202.776.202 1.285v.355h-4.204v-.724h3.352a1.79 1.79 0 0 0-.185-.824c-.121-.241-.294-.432-.519-.572s-.485-.209-.788-.209c-.334 0-.623.083-.867.249a1.63 1.63 0 0 0-.557.639c-.13.263-.195.544-.195.845v.483c0 .412.071.761.213 1.047a1.53 1.53 0 0 0 .6.65c.256.147.553.22.891.22.22 0 .419-.03.597-.092a1.27 1.27 0 0 0 .465-.284c.13-.128.231-.286.302-.476l.81.227c-.085.275-.228.517-.43.725s-.45.367-.746.483a2.78 2.78 0 0 1-.998.17zm8.406 0a2.14 2.14 0 0 1-1.204-.344c-.348-.232-.62-.559-.817-.98s-.295-.925-.295-1.502.098-1.07.295-1.492.47-.747.82-.976.755-.345 1.214-.345c.355 0 .636.059.842.178s.367.248.476.397l.259.363h.071v-2.685h.838v7.273h-.81v-.838h-.099a5.35 5.35 0 0 1-.263.376c-.114.149-.276.283-.486.401s-.491.174-.842.174zm.114-.753c.336 0 .62-.087.852-.262s.408-.423.529-.735.181-.679.181-1.091-.059-.763-.178-1.068-.293-.547-.526-.718-.518-.259-.859-.259c-.355 0-.651.091-.888.273s-.411.425-.529.735-.174.654-.174 1.037a3.01 3.01 0 0 0 .177 1.059c.121.315.298.565.533.752s.53.277.881.277zm6.325.753c-.525 0-.979-.116-1.36-.348s-.671-.561-.877-.98-.305-.911-.305-1.47.102-1.051.305-1.477.492-.763.859-1.002.8-.362 1.293-.362c.284 0 .565.047.842.142a2.09 2.09 0 0 1 .756.462c.227.21.408.49.543.838s.202.776.202 1.285v.355h-4.205v-.724h3.352a1.79 1.79 0 0 0-.185-.824c-.121-.241-.294-.432-.518-.572s-.485-.209-.788-.209c-.334 0-.623.083-.866.249a1.63 1.63 0 0 0-.558.639c-.13.263-.195.544-.195.845v.483c0 .412.071.761.213 1.047a1.53 1.53 0 0 0 .6.65c.256.147.553.22.891.22.22 0 .419-.03.597-.092a1.27 1.27 0 0 0 .465-.284c.13-.128.231-.286.302-.476l.81.227a1.79 1.79 0 0 1-.43.725c-.201.206-.45.367-.746.483a2.78 2.78 0 0 1-.998.17zm7.828-5.568l-2.017 5.455h-.852l-2.017-5.455h.909l1.506 4.347h.057l1.506-4.347h.909zm1.106 5.455v-5.455h.838v5.455h-.838zm.426-6.364c-.163 0-.304-.056-.422-.167s-.174-.245-.174-.401.058-.29.174-.401a.59.59 0 0 1 .422-.167.58.58 0 0 1 .419.167.53.53 0 0 1 .178.401.53.53 0 0 1-.178.401c-.116.111-.255.167-.419.167zm4.163 6.477c-.511 0-.952-.12-1.321-.362a2.36 2.36 0 0 1-.852-.998c-.199-.424-.299-.908-.299-1.452 0-.554.102-1.043.306-1.467s.492-.759.859-.998.8-.362 1.293-.362a2.45 2.45 0 0 1 1.037.213c.308.142.56.341.756.597a1.85 1.85 0 0 1 .366.895h-.838c-.064-.249-.206-.469-.426-.661s-.512-.291-.881-.291c-.327 0-.613.085-.859.256s-.435.406-.572.713-.202.664-.202 1.076c0 .422.066.789.198 1.101s.325.555.569.728.535.259.866.259a1.49 1.49 0 0 0 .593-.113c.178-.076.328-.185.451-.327a1.25 1.25 0 0 0 .263-.511h.838a1.94 1.94 0 0 1-.352.87c-.184.255-.429.459-.735.611s-.655.223-1.058.223zm5.657 0c-.526 0-.979-.116-1.36-.348s-.671-.561-.877-.98-.306-.911-.306-1.47.102-1.051.306-1.477.492-.763.859-1.002.8-.362 1.293-.362c.284 0 .564.047.841.142a2.09 2.09 0 0 1 .757.462c.227.21.408.49.543.838s.203.776.203 1.285v.355h-4.205v-.724h3.352a1.79 1.79 0 0 0-.184-.824 1.4 1.4 0 0 0-.519-.572c-.222-.139-.485-.209-.788-.209-.334 0-.623.083-.867.249a1.63 1.63 0 0 0-.557.639 1.88 1.88 0 0 0-.196.845v.483c0 .412.072.761.214 1.047s.344.501.6.65.552.22.891.22c.22 0 .419-.03.597-.092s.335-.158.465-.284a1.29 1.29 0 0 0 .302-.476l.809.227a1.79 1.79 0 0 1-.429.725 2.1 2.1 0 0 1-.746.483c-.296.113-.629.17-.998.17z" class="E"/><g class="D"><path d="M27.111 245.241h.881v4.815a2.54 2.54 0 0 1-.352 1.332c-.232.388-.56.695-.984.92s-.921.334-1.491.334-1.068-.112-1.492-.334a2.49 2.49 0 0 1-.987-.92 2.56 2.56 0 0 1-.348-1.332v-4.815h.881v4.744c0 .355.078.671.234.948s.379.492.668.65.639.235 1.044.235.753-.078 1.044-.235.514-.375.668-.65.234-.593.234-.948v-4.744zm2.526 9.318v-7.5h.81v.867h.099l.256-.363c.111-.149.27-.281.476-.397s.49-.178.845-.178c.459 0 .864.115 1.214.345s.624.555.82.976.295.919.295 1.492-.098 1.078-.295 1.502-.469.748-.817.98a2.14 2.14 0 0 1-1.204.344c-.35 0-.631-.058-.842-.174s-.373-.252-.486-.401l-.263-.376h-.071v2.883h-.838zm.824-4.773c0 .412.06.776.181 1.091s.297.557.529.735.516.262.852.262c.35 0 .643-.092.877-.277a1.69 1.69 0 0 0 .533-.752c.121-.318.181-.67.181-1.059 0-.383-.059-.729-.178-1.037s-.292-.555-.529-.735-.529-.273-.884-.273c-.341 0-.627.086-.859.259s-.407.41-.526.718-.178.661-.178 1.068zm7.33 2.841a2.14 2.14 0 0 1-1.204-.344c-.348-.232-.62-.559-.817-.98s-.295-.925-.295-1.502.098-1.07.295-1.492.47-.747.82-.976.755-.345 1.215-.345c.355 0 .636.059.842.178s.367.248.476.397l.259.363h.071v-2.685h.838v7.273h-.81v-.838h-.099c-.062.099-.149.225-.263.376s-.276.283-.486.401-.491.174-.842.174zm.114-.753c.336 0 .62-.087.852-.262a1.65 1.65 0 0 0 .529-.735c.121-.315.181-.679.181-1.091s-.059-.763-.178-1.068a1.56 1.56 0 0 0-.526-.718c-.232-.173-.518-.259-.859-.259-.355 0-.651.091-.888.273s-.411.425-.529.735-.174.654-.174 1.037a3.01 3.01 0 0 0 .178 1.059c.121.315.298.565.533.752s.53.277.881.277zm5.643.768a2.22 2.22 0 0 1-.941-.196 1.61 1.61 0 0 1-.671-.572c-.166-.25-.248-.554-.248-.909 0-.312.062-.565.185-.76s.288-.35.494-.461.433-.194.682-.249l.756-.135.806-.096c.208-.023.36-.062.454-.117s.146-.149.146-.284v-.028c0-.351-.096-.623-.288-.817s-.477-.291-.863-.291c-.4 0-.714.087-.941.263a1.55 1.55 0 0 0-.479.561l-.796-.284c.142-.332.332-.59.568-.775a2.12 2.12 0 0 1 .781-.39c.284-.076.563-.114.838-.114.175 0 .376.021.604.064s.451.124.664.252.394.321.536.579.213.604.213 1.037v3.594h-.838v-.739h-.043c-.057.118-.151.245-.284.38s-.309.25-.529.344-.489.143-.806.143zm.128-.753c.331 0 .611-.065.838-.196s.402-.298.518-.504.178-.422.178-.65v-.767c-.035.043-.114.082-.234.117s-.256.063-.412.089l-.451.064-.352.043c-.218.028-.421.074-.611.138s-.339.155-.455.281-.17.291-.17.504c0 .291.108.511.323.661s.494.22.827.22zm6.274-4.83v.71h-2.827v-.71h2.827zm-2.003-1.307h.838v5.199c0 .237.034.414.103.533a.53.53 0 0 0 .27.234 1.08 1.08 0 0 0 .352.057 1.55 1.55 0 0 0 .227-.014l.142-.029.17.753c-.057.022-.136.043-.238.064a1.73 1.73 0 0 1-.387.036c-.237 0-.469-.051-.696-.153s-.412-.257-.561-.465-.22-.471-.22-.789v-5.426zm5.492 6.875c-.526 0-.979-.116-1.36-.348s-.671-.561-.877-.98-.305-.911-.305-1.47.102-1.051.305-1.477.492-.763.859-1.002.8-.362 1.293-.362a2.58 2.58 0 0 1 .842.142c.277.095.529.249.756.462s.408.49.543.838.202.776.202 1.285v.355h-4.205v-.724h3.352a1.79 1.79 0 0 0-.185-.824c-.121-.241-.294-.432-.518-.572s-.485-.209-.788-.209c-.334 0-.623.083-.866.249a1.63 1.63 0 0 0-.558.639c-.13.263-.195.544-.195.845v.483c0 .412.071.761.213 1.047a1.53 1.53 0 0 0 .6.65c.256.147.553.22.891.22.22 0 .419-.03.597-.092a1.27 1.27 0 0 0 .465-.284c.13-.128.231-.286.302-.476l.81.227c-.085.275-.229.517-.43.725s-.45.367-.746.483a2.78 2.78 0 0 1-.998.17zm7.397-4.346l-.753.213a1.38 1.38 0 0 0-.209-.366 1.01 1.01 0 0 0-.369-.298c-.156-.078-.356-.117-.6-.117-.334 0-.612.076-.835.23s-.33.345-.33.579c0 .209.076.373.227.494s.388.221.71.302l.81.199c.488.118.851.299 1.09.543s.359.553.359.934c0 .312-.09.592-.27.838a1.79 1.79 0 0 1-.746.582c-.32.142-.691.213-1.115.213-.556 0-1.017-.12-1.381-.362s-.595-.594-.692-1.058l.795-.199c.076.294.219.514.43.661s.491.22.834.22c.391 0 .701-.083.93-.249s.348-.369.348-.604a.63.63 0 0 0-.199-.475c-.133-.131-.336-.228-.611-.292l-.909-.213c-.499-.118-.866-.302-1.101-.55s-.348-.565-.348-.941a1.35 1.35 0 0 1 .259-.817c.175-.237.413-.423.714-.557s.646-.203 1.03-.203c.54 0 .964.118 1.271.355s.53.549.66.938z"/><use href="#L" y="66"/></g><g clip-path="url(#I)" class="C"><path d="M36.657 275.511c-.098-.028-.187-.08-.26-.152a.6.6 0 0 1-.156-.257c-.166-.562-.444-1.085-.818-1.536s-.835-.823-1.356-1.091a4.33 4.33 0 0 0-1.676-.469 4.34 4.34 0 0 0-3.222 1.117 4.35 4.35 0 0 0-1.026 1.407 4.33 4.33 0 0 0-.081 3.409.57.57 0 0 1-.166.671 2.98 2.98 0 0 0-1.174 2.816c.119.719.493 1.371 1.052 1.838a3.05 3.05 0 0 0 1.996.708h2.88a.54.54 0 0 0 .383-.925.54.54 0 0 0-.383-.158h-2.88a1.96 1.96 0 0 1-1.287-.442c-.362-.296-.607-.712-.688-1.173-.052-.339-.01-.685.122-1.002a1.88 1.88 0 0 1 .624-.793 1.64 1.64 0 0 0 .535-1.931 3.31 3.31 0 0 1-.04-2.235 3.23 3.23 0 0 1 2.648-2.147 3.25 3.25 0 0 1 .418-.027c.7-.003 1.383.222 1.945.64a3.24 3.24 0 0 1 1.173 1.678 1.62 1.62 0 0 0 .408.677 1.61 1.61 0 0 0 .681.401c.628.186 1.184.559 1.594 1.07a3.21 3.21 0 0 1 .256 3.655 3.22 3.22 0 0 1-1.43 1.282.53.53 0 0 0-.288.481c-.001.09.021.178.063.257a.53.53 0 0 0 .178.196c.075.049.161.079.25.087s.179-.008.261-.044c2.239-1.077 3.456-3.908 1.56-6.643-.522-.681-1.261-1.163-2.095-1.365zm.166 5.053a.54.54 0 0 0 0-.766l-.859-.859c-.305-.305-.718-.476-1.149-.476s-.844.171-1.149.476l-.859.859a.54.54 0 0 0 .007.759.55.55 0 0 0 .378.159.54.54 0 0 0 .381-.152l.7-.701v4.109a.54.54 0 1 0 1.084 0v-4.109l.7.701c.102.101.239.158.383.158s.281-.057.383-.158z"/></g><path d="M55.339 283.514v-7.273h2.457c.57 0 1.037.103 1.399.309a1.93 1.93 0 0 1 .81.827c.175.348.263.737.263 1.165s-.088.818-.263 1.168-.44.63-.803.838-.826.309-1.392.309h-1.761v-.781h1.733c.391 0 .704-.067.941-.202s.408-.317.515-.547.163-.494.163-.785a1.8 1.8 0 0 0-.163-.781c-.106-.23-.279-.41-.518-.54s-.556-.199-.952-.199h-1.548v6.492h-.881zm9.671-2.23v-3.225h.838v5.455h-.838v-.924h-.057a1.79 1.79 0 0 1-.597.707c-.27.192-.611.288-1.023.288-.341 0-.644-.075-.909-.224s-.473-.379-.625-.682-.227-.69-.227-1.154v-3.466h.838v3.409c0 .398.111.715.334.952s.511.355.859.355a1.42 1.42 0 0 0 .636-.16c.218-.106.4-.27.547-.49s.224-.501.224-.841zm6.237-2.003l-.753.213c-.047-.126-.117-.248-.21-.366a1.01 1.01 0 0 0-.369-.298c-.156-.078-.356-.117-.6-.117-.334 0-.612.076-.835.23s-.33.345-.33.579c0 .209.076.373.227.494s.388.221.71.302l.81.199c.488.118.851.299 1.09.543s.359.553.359.934c0 .312-.09.592-.27.838a1.79 1.79 0 0 1-.746.582c-.32.142-.691.213-1.115.213-.556 0-1.017-.12-1.381-.362s-.596-.594-.692-1.058l.795-.199c.076.294.219.514.43.661s.491.22.835.22c.391 0 .701-.083.93-.249s.348-.369.348-.604a.63.63 0 0 0-.199-.475c-.133-.131-.336-.228-.611-.292l-.909-.213c-.499-.118-.867-.302-1.101-.55s-.348-.565-.348-.941a1.35 1.35 0 0 1 .259-.817c.175-.237.413-.423.714-.557s.646-.203 1.03-.203c.54 0 .963.118 1.271.355s.53.549.66.938zm2.199.951v3.282h-.838v-7.273h.838v2.67h.071c.128-.281.32-.505.575-.671s.601-.252 1.03-.252c.372 0 .697.075.977.224s.496.373.65.678.234.689.234 1.158v3.466h-.838v-3.409c0-.434-.112-.769-.337-1.005s-.531-.359-.927-.359c-.275 0-.521.058-.739.174a1.27 1.27 0 0 0-.511.508c-.123.222-.185.492-.185.809zm7.996 3.282v-7.273h4.361v.781h-3.48v2.458h3.153v.781h-3.153v3.253h-.881zm5.755 0v-5.455h.838v5.455h-.838zm.426-6.364c-.163 0-.304-.056-.422-.167s-.174-.245-.174-.401.058-.29.174-.401a.59.59 0 0 1 .422-.167.58.58 0 0 1 .419.167.53.53 0 0 1 .177.401.53.53 0 0 1-.177.401c-.116.111-.256.167-.419.167zm1.947 6.364v-5.455h.81v.824h.057a1.31 1.31 0 0 1 .54-.657 1.59 1.59 0 0 1 .881-.252l.231.003.21.011v.852a3.03 3.03 0 0 0-.195-.032 1.99 1.99 0 0 0-.316-.024c-.265 0-.502.055-.71.166a1.26 1.26 0 0 0-.49.455c-.118.192-.178.411-.178.657v3.452h-.838zm3.721 0v-5.455h.81v.852h.071a1.37 1.37 0 0 1 .55-.678 1.65 1.65 0 0 1 .913-.245c.36 0 .659.082.898.245s.43.387.565.678h.057c.14-.281.349-.505.629-.671s.614-.252 1.005-.252c.488 0 .887.153 1.197.458s.466.776.466 1.417v3.651h-.838v-3.651c0-.402-.11-.69-.33-.863a1.22 1.22 0 0 0-.778-.259c-.383 0-.681.116-.891.348s-.316.521-.316.874v3.551h-.852v-3.736c0-.31-.101-.56-.302-.749s-.46-.288-.778-.288a1.15 1.15 0 0 0-.611.174c-.187.116-.338.277-.454.483s-.171.439-.171.707v3.409h-.838zm9.927 0l-1.662-5.455h.88l1.179 4.176h.057l1.165-4.176h.895l1.15 4.162h.057l1.179-4.162H109l-1.662 5.455h-.824l-1.193-4.191h-.085l-1.193 4.191h-.824zm8.494.128a2.22 2.22 0 0 1-.941-.196 1.6 1.6 0 0 1-.671-.572c-.166-.25-.249-.554-.249-.909 0-.312.062-.565.185-.76a1.3 1.3 0 0 1 .493-.461c.206-.111.434-.194.682-.249l.757-.135.806-.096c.208-.023.36-.062.454-.117s.146-.149.146-.284v-.028c0-.351-.096-.623-.288-.817s-.477-.291-.863-.291c-.4 0-.713.087-.941.263s-.387.362-.479.561l-.796-.284a1.91 1.91 0 0 1 .569-.775 2.12 2.12 0 0 1 .781-.39 3.23 3.23 0 0 1 .838-.114 3.3 3.3 0 0 1 .604.064c.229.04.451.124.664.252s.394.321.536.579.213.604.213 1.037v3.594h-.838v-.739h-.043c-.057.118-.151.245-.284.38s-.309.25-.529.344-.489.143-.806.143zm.128-.753c.331 0 .611-.065.838-.196s.402-.298.518-.504.178-.422.178-.65v-.767c-.036.043-.114.082-.234.117s-.256.063-.412.089l-.451.064-.352.043c-.218.028-.421.074-.611.138a1.05 1.05 0 0 0-.454.281c-.114.123-.171.291-.171.504 0 .291.108.511.323.661s.494.22.828.22zm3.902.625v-5.455h.809v.824h.057a1.31 1.31 0 0 1 .54-.657 1.59 1.59 0 0 1 .881-.252l.23.003.21.011v.852c-.029-.007-.094-.017-.195-.032s-.205-.024-.316-.024a1.49 1.49 0 0 0-.711.166c-.206.109-.369.261-.49.455a1.23 1.23 0 0 0-.177.657v3.452h-.838zm5.841.113c-.525 0-.979-.116-1.36-.348s-.671-.561-.877-.98-.305-.911-.305-1.47.101-1.051.305-1.477.492-.763.859-1.002.801-.362 1.293-.362a2.58 2.58 0 0 1 .842.142c.277.095.529.249.756.462s.408.49.543.838.203.776.203 1.285v.355h-4.205v-.724h3.353a1.79 1.79 0 0 0-.185-.824 1.4 1.4 0 0 0-.519-.572c-.222-.139-.485-.209-.788-.209-.334 0-.623.083-.866.249s-.428.376-.558.639a1.88 1.88 0 0 0-.195.845v.483c0 .412.071.761.213 1.047s.344.501.6.65.553.22.891.22c.22 0 .419-.03.597-.092s.335-.158.465-.284a1.29 1.29 0 0 0 .302-.476l.81.227c-.086.275-.229.517-.43.725s-.45.367-.746.483-.628.17-.998.17z" class="E"/><g clip-path="url(#J)" class="C"><path d="M358.01 331.224c.012.727.454 1.379 1.127 1.658 6.015 2.647 9.821 8.681 9.617 15.25-.144 8.901-7.477 15.999-16.377 15.855a16.12 16.12 0 0 1-15.854-16.377c.009-6.38 3.779-12.154 9.617-14.726.673-.281 1.115-.934 1.127-1.662a1.79 1.79 0 0 0-1.788-1.794c-.23 0-.459.044-.673.13-9.98 4.327-14.563 15.926-10.236 25.907a19.7 19.7 0 0 0 25.906 10.236 19.7 19.7 0 0 0 10.237-25.906c-1.989-4.588-5.649-8.248-10.237-10.237a1.79 1.79 0 0 0-2.333.984 1.77 1.77 0 0 0-.133.682zm-5.371-6.892a1.79 1.79 0 0 1 1.79 1.791v10.743a1.791 1.791 0 1 1-3.581 0v-10.743a1.79 1.79 0 0 1 1.791-1.791z"/></g><circle cx="352.641" cy="348.121" r="49.25" transform="rotate(90 352.641 348.121)" stroke="url(#D)" stroke-width="1.5"/><defs><filter id="A" x="10" y="12" width="228" height="64" filterUnits="userSpaceOnUse" color-interpolation-filters="sRGB"><feFlood flood-opacity="0" result="A"/><feColorMatrix in="SourceAlpha" values="0 0 0 0 0 0 0 0 0 0 0 0 0 0 0 0 0 0 127 0" result="B"/><feMorphology radius="1" operator="dilate" in="SourceAlpha"/><feOffset dy="1"/><feGaussianBlur stdDeviation="2.5"/><feComposite in2="B" operator="out"/><feColorMatrix values="0 0 0 0 0 0 0 0 0 0 0 0 0 0 0 0 0 0 0.1 0"/><feBlend in2="A"/><feBlend in="SourceGraphic"/></filter><linearGradient id="B" x1="128" y1="0" x2="128" y2="533" gradientUnits="userSpaceOnUse"><stop stop-color="#2f67ff"/><stop offset="1" stop-color="#ff5f9b"/></linearGradient><linearGradient id="C" x1="242" y1="345.032" x2="302.641" y2="345.032" gradientUnits="userSpaceOnUse"><stop stop-color="#2f67ff"/><stop offset="1" stop-color="#c262b8"/></linearGradient><linearGradient id="D" x1="352.641" y1="298.121" x2="352.641" y2="398.121" gradientUnits="userSpaceOnUse"><stop stop-color="#2f67ff"/><stop offset="1" stop-color="#ff5f9b"/></linearGradient><clipPath id="E"><path transform="translate(27.69 105.514)" d="M0 0h11v11H0z" class="B"/></clipPath><clipPath id="F"><path transform="translate(27.69 377.121)" d="M0 0h11v11H0z" class="B"/></clipPath><clipPath id="G"><path transform="translate(27.19 339.121)" d="M0 0h12v12H0z" class="B"/></clipPath><clipPath id="H"><path transform="translate(27.69 207.514)" d="M0 0h11v11H0z" class="B"/></clipPath><clipPath id="I"><path transform="translate(26.69 271.514)" d="M0 0h13v13H0z" class="B"/></clipPath><clipPath id="J"><path transform="translate(331.141 324.332)" d="M0 0h43v43H0z" class="B"/></clipPath><path id="K" d="M36.372 57.525v.823"/><path id="L" d="M222.799 217.451l-.563-.562 3.319-3.291-3.319-3.29.563-.563 3.881 3.853-3.881 3.853z"/></defs></svg>