<svg xmlns="http://www.w3.org/2000/svg" width="352" height="533" fill="none" xmlns:v="https://vecta.io/nano"><rect x=".25" y=".25" width="255.5" height="532.5" rx="9.75" stroke="url(#B)" stroke-width=".5"/><path d="M15.923 146.082v-.688h4.629v.498c-.01 1.035.298 1.806.923 2.314s1.494.762 2.607.762c1.094 0 1.934-.235 2.52-.703.586-.479.879-1.114.879-1.905 0-.771-.298-1.377-.894-1.816-.586-.449-1.821-.938-3.706-1.465-2.227-.625-3.892-1.45-4.995-2.475-1.104-1.036-1.655-2.417-1.655-4.146 0-1.885.698-3.384 2.095-4.497s3.267-1.67 5.61-1.67c2.334 0 4.214.552 5.64 1.655s2.139 2.603 2.139 4.497v.586h-4.556v-.395c0-.879-.269-1.577-.806-2.095-.537-.527-1.328-.791-2.373-.791-1.065 0-1.846.215-2.344.645-.488.419-.732.986-.732 1.699 0 .683.293 1.22.879 1.611.596.381 1.846.84 3.75 1.377 2.178.615 3.823 1.45 4.937 2.505 1.113 1.045 1.67 2.51 1.67 4.394 0 2.012-.737 3.584-2.212 4.717-1.465 1.123-3.403 1.685-5.815 1.685-2.402 0-4.37-.532-5.903-1.597-1.523-1.074-2.285-2.641-2.285-4.702zM34.688 152v-14.722h4.644V152h-4.644zm-.322-19.175c0-.674.23-1.24.688-1.699.459-.469 1.113-.703 1.963-.703s1.499.229 1.948.688c.459.459.689 1.031.689 1.714s-.23 1.26-.689 1.729-1.118.703-1.977.703c-.85 0-1.499-.235-1.948-.703s-.674-1.045-.674-1.729zm8.364 23.716l1.48-2.93c.381.352 1.001.694 1.86 1.026s1.758.498 2.695.498c1.025 0 1.89-.308 2.593-.923.703-.606 1.055-1.587 1.055-2.944v-.967a4.17 4.17 0 0 1-1.655 1.435c-.703.342-1.577.513-2.622.513-1.875 0-3.384-.679-4.526-2.036s-1.714-3.14-1.714-5.347v-.469c0-2.207.562-3.994 1.685-5.361s2.637-2.051 4.541-2.051c.947 0 1.812.196 2.593.586s1.343.889 1.685 1.494h.073l.059-1.787h4.438v13.579c0 2.442-.713 4.312-2.139 5.611-1.426 1.308-3.271 1.963-5.537 1.963-1.357 0-2.607-.186-3.75-.557-1.133-.361-2.07-.806-2.812-1.333zm3.809-11.558c0 1.182.249 2.139.747 2.871.508.733 1.279 1.099 2.314 1.099.684 0 1.265-.2 1.743-.6.488-.401.835-.855 1.04-1.363v-4.658c-.215-.576-.566-1.055-1.055-1.436-.488-.39-1.079-.585-1.772-.585-1.016 0-1.773.371-2.27 1.113s-.747 1.699-.747 2.871v.688zM60.249 152v-14.722h4.424l.073 1.787h.059c.381-.625.957-1.132 1.728-1.523s1.665-.586 2.681-.586c1.514 0 2.744.425 3.691 1.274s1.421 2.31 1.421 4.38V152h-4.6v-9.141c0-.888-.191-1.513-.571-1.875-.381-.371-.918-.556-1.611-.556a2.73 2.73 0 0 0-1.597.512c-.488.342-.859.806-1.113 1.392V152h-4.585zm24.741 0v-21.328h4.775V152H84.99zm8.335 0v-14.722h4.424l.073 1.787h.059c.381-.625.957-1.132 1.728-1.523s1.665-.586 2.681-.586c1.514 0 2.744.425 3.691 1.274s1.421 2.31 1.421 4.38V152h-4.599v-9.141c0-.888-.191-1.513-.572-1.875-.38-.371-.918-.556-1.611-.556a2.73 2.73 0 0 0-1.597.512c-.488.342-.859.806-1.113 1.392V152h-4.585z" fill="#2f2e2e"/><path d="M15.681 203.855v-4.253h.892v4.253c0 .507.142.885.426 1.134s.658.369 1.121.369.836-.123 1.121-.369.431-.627.431-1.134v-4.253h.892v4.253c0 .759-.237 1.329-.712 1.71s-1.052.567-1.732.567-1.252-.189-1.727-.567-.712-.951-.712-1.71zm5.919.748h.861v.022c0 .266.107.468.321.606s.495.207.844.207.621-.066.817-.198.299-.301.299-.506c0-.211-.079-.372-.237-.483s-.505-.227-1.05-.338-.964-.28-1.257-.506-.435-.536-.435-.931.167-.718.501-.976.788-.391 1.354-.391c.577 0 1.036.133 1.376.4a1.26 1.26 0 0 1 .51 1.05v.022h-.857v-.026c0-.232-.084-.415-.251-.55s-.426-.206-.778-.206-.607.061-.765.184-.233.273-.233.449.082.322.246.43.52.214 1.068.326.959.284 1.244.518.431.558.431.98a1.29 1.29 0 0 1-.497 1.042c-.331.269-.826.404-1.485.404s-1.162-.138-1.507-.413a1.33 1.33 0 0 1-.518-1.094v-.022zm4.733-.915v-.14c0-.715.204-1.299.611-1.754s.951-.685 1.622-.685c.677 0 1.197.214 1.56.641s.545.998.545 1.719v.364h-3.806v-.689h2.931v-.009c0-.375-.095-.687-.286-.936s-.5-.378-.936-.378c-.445 0-.785.167-1.02.501s-.347.742-.347 1.226v.14c0 .487.122.897.365 1.231s.624.501 1.134.501c.316 0 .587-.065.813-.193s.409-.283.549-.462l.558.466c-.155.223-.397.429-.725.62s-.727.281-1.195.281c-.767 0-1.355-.227-1.762-.681s-.611-1.042-.611-1.763zM31.664 206v-4.759h.782l.039.615h.022a1.95 1.95 0 0 1 .497-.519c.208-.152.456-.228.743-.228a1.03 1.03 0 0 1 .206.022l.158.039v.818c-.062-.012-.126-.021-.193-.027l-.22-.008c-.287 0-.53.071-.73.215s-.347.319-.444.527V206h-.861zm5.528 0v-6.398h.932l3.032 4.491a3.22 3.22 0 0 1 .171.29l.141.268h.044l-.018-.352-.004-.351v-4.346h.853V206h-.936l-3.045-4.513-.171-.264-.127-.242h-.044l.017.299.009.295V206h-.852zm6.293-1.397c0-.484.199-.86.598-1.13s.905-.404 1.52-.404h1.134v-.369c0-.267-.079-.484-.237-.651s-.425-.25-.809-.25-.653.075-.817.224a.67.67 0 0 0-.246.514v.022h-.861v-.022c0-.381.176-.713.527-.997s.826-.431 1.424-.431 1.061.133 1.389.4.492.663.492 1.191v2.245a3.18 3.18 0 0 0 .044.541 2.15 2.15 0 0 0 .132.444v.07h-.835c-.044-.076-.084-.174-.119-.294s-.057-.245-.066-.365c-.117.196-.308.37-.571.523s-.599.224-1.015.224c-.466 0-.863-.128-1.191-.382s-.492-.623-.492-1.103zm.861-.044c0 .263.082.47.246.619s.425.22.773.22a1.48 1.48 0 0 0 .945-.334c.284-.226.426-.463.426-.712v-.664h-1.046c-.439 0-.773.08-1.002.238s-.343.366-.343.633zM48.899 206v-4.759h.782l.04.628h.022c.182-.225.397-.401.646-.527a1.86 1.86 0 0 1 .844-.189c.331 0 .617.064.857.193s.426.336.549.62h.026c.208-.287.441-.494.699-.62s.555-.193.883-.193c.513 0 .914.142 1.204.426s.435.752.435 1.411V206h-.861v-3.019c0-.39-.086-.668-.259-.835s-.418-.255-.734-.255c-.272 0-.511.073-.716.22a1.63 1.63 0 0 0-.488.567V206h-.866v-3.019c0-.39-.086-.668-.259-.835s-.417-.255-.734-.255c-.275 0-.516.073-.721.22a1.63 1.63 0 0 0-.488.567V206h-.861zm7.967-2.312v-.14c0-.715.204-1.299.611-1.754s.951-.685 1.622-.685c.677 0 1.197.214 1.56.641s.545.998.545 1.719v.364h-3.806v-.689h2.931v-.009c0-.375-.095-.687-.286-.936s-.499-.378-.936-.378c-.445 0-.785.167-1.02.501s-.347.742-.347 1.226v.14c0 .487.122.897.365 1.231s.624.501 1.134.501c.316 0 .587-.065.813-.193s.409-.283.549-.462l.558.466c-.155.223-.397.429-.725.62s-.727.281-1.195.281c-.767 0-1.355-.227-1.762-.681s-.611-1.042-.611-1.763z" fill="#5a5c66"/><path stroke="#b8b8b8" stroke-width=".5" d="M15 216.75h226"/><path d="M15.747 251v-6.398h2.237c.741 0 1.31.178 1.705.536s.598.829.598 1.424-.199 1.069-.598 1.432-.964.545-1.705.545h-1.345V251h-.892zm.892-3.204h1.345c.524 0 .891-.12 1.099-.36s.316-.532.316-.874-.105-.635-.316-.866-.574-.352-1.099-.352h-1.345v2.452zm4.258 1.807c0-.484.199-.86.598-1.13s.905-.404 1.52-.404h1.134v-.369c0-.267-.079-.484-.237-.651s-.425-.25-.809-.25-.653.075-.817.224a.67.67 0 0 0-.246.514v.022h-.861v-.022c0-.381.176-.713.527-.997s.826-.431 1.424-.431 1.061.133 1.389.4.492.663.492 1.191v2.245a3.18 3.18 0 0 0 .044.541 2.15 2.15 0 0 0 .132.444v.07h-.835c-.044-.076-.084-.174-.119-.294s-.057-.245-.066-.365c-.117.196-.308.37-.571.523s-.599.224-1.015.224c-.466 0-.863-.128-1.191-.382s-.492-.623-.492-1.103zm.861-.044c0 .263.082.47.246.619s.425.22.773.22a1.48 1.48 0 0 0 .945-.334c.284-.226.426-.463.426-.712v-.664h-1.046c-.439 0-.773.08-1.002.238s-.343.366-.343.633zm4.254.044h.861v.022c0 .266.107.468.321.606s.495.207.844.207.621-.066.817-.198.299-.301.299-.506c0-.211-.079-.372-.237-.483s-.505-.227-1.05-.338-.964-.28-1.257-.506-.435-.536-.435-.931.167-.718.501-.976.788-.391 1.354-.391c.577 0 1.036.133 1.375.4a1.26 1.26 0 0 1 .51 1.05v.022h-.857v-.026a.67.67 0 0 0-.25-.55c-.166-.135-.426-.206-.778-.206s-.607.061-.765.184-.233.273-.233.449.082.322.246.43.52.214 1.068.326.96.284 1.244.518.431.558.431.98a1.29 1.29 0 0 1-.497 1.042c-.331.269-.826.404-1.485.404s-1.162-.138-1.507-.413a1.33 1.33 0 0 1-.518-1.094v-.022zm4.711 0h.861v.022c0 .266.107.468.321.606s.495.207.844.207.621-.066.817-.198.299-.301.299-.506c0-.211-.079-.372-.237-.483s-.505-.227-1.05-.338-.964-.28-1.257-.506-.435-.536-.435-.931.167-.718.501-.976.788-.391 1.353-.391c.577 0 1.036.133 1.376.4a1.26 1.26 0 0 1 .51 1.05v.022h-.857v-.026a.67.67 0 0 0-.25-.55c-.166-.135-.426-.206-.778-.206s-.606.061-.765.184-.233.273-.233.449.082.322.246.43.52.214 1.068.326.959.284 1.244.518.431.558.431.98a1.29 1.29 0 0 1-.496 1.042c-.331.269-.826.404-1.485.404s-1.162-.138-1.507-.413a1.33 1.33 0 0 1-.519-1.094v-.022zm4.469-3.362h.848l.888 3.067.097.343a2.99 2.99 0 0 1 .07.338h.026l.066-.338.105-.343 1.05-3.067h.765l1.055 3.067a3.36 3.36 0 0 1 .101.343 2.99 2.99 0 0 1 .07.338h.026a2.99 2.99 0 0 1 .07-.338l.097-.343.879-3.067h.791L40.699 251h-.716l-1.055-3.125-.114-.351-.101-.352h-.026l-.105.352-.11.351-1.06 3.125h-.721l-1.498-4.759zm7.488 2.447v-.14c0-.715.211-1.299.633-1.754s.99-.685 1.696-.685 1.274.228 1.696.685.637 1.039.637 1.754v.14c0 .721-.212 1.309-.637 1.763s-.987.681-1.696.681-1.272-.227-1.696-.681-.633-1.042-.633-1.763zm.883-.14v.14c0 .484.12.893.36 1.227s.605.496 1.086.496.845-.165 1.085-.496.365-.743.365-1.227v-.14c0-.481-.121-.886-.365-1.217s-.602-.501-1.085-.501-.842.167-1.086.501-.36.736-.36 1.217zM48.372 251v-4.759h.782l.04.615h.022a1.95 1.95 0 0 1 .497-.519c.208-.152.456-.228.743-.228a1.03 1.03 0 0 1 .206.022l.158.039v.818a1.91 1.91 0 0 0-.193-.027l-.22-.008c-.287 0-.53.071-.73.215a1.34 1.34 0 0 0-.444.527V251h-.861zm2.87-2.312v-.14c0-.692.188-1.263.563-1.714s.874-.681 1.499-.681c.349 0 .646.06.892.18a1.59 1.59 0 0 1 .593.47v-2.553h.861V251h-.782l-.04-.62h-.022c-.129.197-.325.364-.589.501s-.565.207-.914.207c-.624 0-1.123-.226-1.498-.677s-.562-1.028-.562-1.723zm.883 0c0 .475.11.874.33 1.196s.57.483 1.041.483c.319 0 .589-.082.809-.246s.384-.351.483-.562v-1.877c-.1-.211-.261-.398-.483-.562s-.489-.246-.809-.246c-.472 0-.819.161-1.041.483s-.33.719-.33 1.191v.14zM177.581 286v-4.977h3.278v.585h-2.577v1.654h2.225v.585h-2.225V286h-.701zm3.688-1.808v-.109c0-.561.166-1.019.499-1.375s.781-.533 1.336-.533 1.004.178 1.337.533.502.814.502 1.375v.109c0 .563-.167 1.022-.502 1.377s-.778.534-1.337.534-1.001-.178-1.336-.534-.499-.814-.499-1.377zm.694-.109v.109c0 .376.096.694.287.954s.476.389.854.389.667-.13.858-.389.288-.578.288-.954v-.109c0-.374-.096-.691-.288-.951s-.477-.389-.858-.389-.663.13-.854.389-.287.577-.287.951zm3.78 1.917v-3.722h.615l.031.482h.017a1.53 1.53 0 0 1 .393-.407c.164-.118.359-.178.585-.178a.87.87 0 0 1 .164.017l.123.031v.646a1.39 1.39 0 0 0-.15-.02 1.88 1.88 0 0 0-.175-.007.97.97 0 0 0-.574.167c-.157.112-.275.25-.352.414V286h-.677zm2.396.971l.393-.52c.114.119.273.222.475.311s.434.134.687.134c.338 0 .603-.088.797-.264s.294-.418.294-.735v-.338c-.117.155-.273.279-.469.373s-.428.136-.704.136c-.492 0-.886-.176-1.182-.529s-.441-.805-.441-1.347v-.109c0-.543.147-.991.441-1.344s.69-.53 1.182-.53c.276 0 .518.055.725.165s.361.237.461.389h.017l.031-.485h.615v3.619c0 .513-.161.906-.485 1.18s-.744.413-1.261.413a2.6 2.6 0 0 1-.889-.147c-.271-.098-.5-.222-.687-.372zm.544-2.779c0 .369.086.68.259.933s.45.376.824.376c.251 0 .464-.064.639-.191s.302-.277.38-.441v-1.46c-.078-.164-.204-.31-.38-.437s-.388-.195-.639-.195c-.374 0-.648.126-.824.379s-.259.56-.259.927v.109zm3.578 0v-.109c0-.561.167-1.019.499-1.375s.781-.533 1.337-.533 1.003.178 1.336.533.503.814.503 1.375v.109c0 .563-.168 1.022-.503 1.377s-.778.534-1.336.534-1.002-.178-1.337-.534-.499-.814-.499-1.377zm.694-.109v.109c0 .376.096.694.287.954s.476.389.855.389.666-.13.858-.389.287-.578.287-.954v-.109c0-.374-.096-.691-.287-.951s-.478-.389-.858-.389-.663.13-.855.389-.287.577-.287.951zm3.274-1.272v-.533h2.212v.533h-2.212zm.694 2.259v-2.474-.103-.977h.677v3.554c0 .16.034.274.103.342s.175.103.321.103c.068 0 .134-.007.198-.021a1.85 1.85 0 0 0 .202-.055V286a1.37 1.37 0 0 1-.246.072c-.101.02-.21.031-.328.031-.283 0-.509-.084-.677-.25s-.25-.427-.25-.783zm3.907 2.352v-5.144h.615l.031.485h.017c.1-.152.254-.282.462-.389a1.52 1.52 0 0 1 .724-.165c.492 0 .885.177 1.179.53s.445.801.445 1.344v.109c0 .542-.148.991-.445 1.347s-.687.529-1.179.529c-.276 0-.511-.045-.707-.136s-.349-.218-.465-.373v1.863h-.677zm.677-2.553c.077.164.204.311.379.441s.389.191.639.191c.374 0 .648-.125.821-.376s.263-.564.263-.933v-.109c0-.367-.088-.676-.263-.927s-.447-.379-.821-.379c-.25 0-.463.065-.639.195a1.15 1.15 0 0 0-.379.437v1.46zm3.397.037a1 1 0 0 1 .472-.882c.314-.212.713-.317 1.196-.317h.899v-.294c0-.205-.062-.372-.188-.499s-.336-.195-.639-.195-.516.058-.646.174a.52.52 0 0 0-.195.4v.017h-.677v-.017c0-.299.138-.559.414-.783s.653-.335 1.125-.335.834.104 1.093.311.39.516.39.927v1.767c0 .148.011.288.034.42s.059.245.103.345V286h-.657c-.034-.059-.065-.137-.092-.232a1.45 1.45 0 0 1-.051-.284c-.094.153-.244.288-.451.407s-.475.177-.804.177c-.366 0-.68-.099-.939-.297s-.387-.489-.387-.865zm.677-.034c0 .205.065.366.195.482s.336.171.612.171a1.19 1.19 0 0 0 .748-.26c.224-.175.335-.36.335-.554v-.516h-.827c-.349 0-.613.062-.793.185s-.27.285-.27.492zm3.343.034h.677v.017a.53.53 0 0 0 .253.475c.168.108.39.161.666.161s.491-.051.646-.154.236-.237.236-.396a.43.43 0 0 0-.185-.376c-.123-.089-.401-.177-.834-.263s-.758-.219-.984-.397-.338-.42-.338-.728a.93.93 0 0 1 .393-.766c.262-.203.619-.304 1.066-.304.456 0 .817.105 1.084.315s.403.481.403.82v.017h-.674v-.017a.53.53 0 0 0-.198-.434c-.132-.107-.337-.161-.615-.161s-.478.048-.602.144-.184.212-.184.349a.39.39 0 0 0 .188.338c.127.082.408.166.841.253s.757.221.981.403.338.439.338.769a1 1 0 0 1-.393.814c-.26.212-.649.318-1.169.318s-.916-.108-1.189-.322a1.04 1.04 0 0 1-.407-.858v-.017zm3.705 0h.677v.017a.53.53 0 0 0 .253.475c.168.108.39.161.666.161s.491-.051.646-.154.236-.237.236-.396a.43.43 0 0 0-.185-.376c-.123-.089-.401-.177-.834-.263s-.758-.219-.984-.397-.338-.42-.338-.728a.93.93 0 0 1 .393-.766c.262-.203.619-.304 1.066-.304.456 0 .817.105 1.084.315s.403.481.403.82v.017h-.673v-.017a.53.53 0 0 0-.199-.434c-.132-.107-.337-.161-.615-.161s-.478.048-.601.144a.43.43 0 0 0-.185.349.39.39 0 0 0 .188.338c.128.082.408.166.841.253s.757.221.981.403.338.439.338.769a1 1 0 0 1-.393.814c-.26.212-.649.318-1.169.318s-.916-.108-1.189-.322a1.04 1.04 0 0 1-.407-.858v-.017zm3.517-2.628h.67l.694 2.389.078.273c.025.092.044.183.055.274h.021c.013-.091.031-.182.054-.274l.082-.273.824-2.389h.608l.824 2.389.082.273.055.274h.02c.012-.091.03-.182.055-.274l.079-.273.694-2.389h.622L220.487 286h-.571l-.827-2.451-.092-.273-.079-.274h-.021l-.082.274-.088.273-.831 2.451h-.574l-1.176-3.722zm5.893 1.914v-.109c0-.561.166-1.019.499-1.375s.78-.533 1.336-.533 1.004.178 1.336.533.503.814.503 1.375v.109c0 .563-.168 1.022-.503 1.377s-.778.534-1.336.534-1.001-.178-1.336-.534-.499-.814-.499-1.377zm.693-.109v.109c0 .376.096.694.288.954s.476.389.854.389.667-.13.858-.389.287-.578.287-.954v-.109c0-.374-.096-.691-.287-.951s-.477-.389-.858-.389-.663.13-.854.389-.288.577-.288.951zm3.781 1.917v-3.722h.615l.031.482h.017a1.5 1.5 0 0 1 .393-.407c.164-.118.359-.178.584-.178a.86.86 0 0 1 .164.017l.123.031v.646a1.36 1.36 0 0 0-.15-.02 1.84 1.84 0 0 0-.174-.007c-.226 0-.417.056-.574.167a1.06 1.06 0 0 0-.353.414V286h-.676zm2.245-1.808v-.109c0-.543.147-.991.441-1.344s.691-.53 1.183-.53c.276 0 .51.047.704.141s.352.214.468.369v-1.969h.677V286h-.615l-.031-.485h-.017c-.1.152-.254.283-.462.393s-.448.16-.724.16c-.492 0-.887-.176-1.183-.529s-.441-.805-.441-1.347zm.694 0c0 .369.087.68.26.933s.45.376.824.376c.25 0 .463-.064.639-.191s.302-.277.379-.441v-1.46a1.15 1.15 0 0 0-.379-.437c-.176-.13-.389-.195-.639-.195-.374 0-.649.126-.824.379s-.26.56-.26.927v.109zm4.402 1.446c0-.119.039-.22.117-.305s.188-.129.331-.129.254.043.332.129.116.186.116.305-.039.224-.116.311-.188.126-.332.126-.254-.042-.331-.126a.45.45 0 0 1-.117-.311zm-.96-3.35v-.075c0-.378.134-.683.403-.913s.636-.345 1.101-.345.828.121 1.09.362.393.556.393.944c0 .303-.086.571-.259.803a3.13 3.13 0 0 1-.523.567c-.212.176-.347.333-.404.472s-.082.287-.082.444v.035h-.683v-.035c0-.284.041-.511.123-.68s.241-.353.471-.554c.201-.182.363-.347.486-.495s.188-.336.188-.557a.69.69 0 0 0-.198-.52c-.133-.127-.333-.191-.602-.191s-.474.059-.615.178-.209.278-.209.485v.075h-.68z" fill="#5a5c66"/><path d="M30.581 286v-4.977h1.729c.567 0 1.005.136 1.313.407s.465.628.465 1.077-.155.816-.465 1.094-.745.413-1.312.413h-1.029V286h-.701zm.701-2.567h1.029c.403 0 .684-.09.841-.27s.236-.399.236-.656a.92.92 0 0 0-.236-.643c-.157-.173-.437-.26-.841-.26h-1.029v1.829zM33.548 286l-1.265-2.297.711-.109L34.348 286h-.8zm1.234-1.808v-.109c0-.561.161-1.019.482-1.375s.75-.533 1.278-.533.942.167 1.227.499.431.782.431 1.347v.287h-2.998v-.543h2.311v.01c0-.299-.074-.546-.222-.742s-.395-.297-.748-.297-.615.13-.8.389-.273.579-.273.958v.109c0 .378.096.698.287.96s.492.39.896.39c.248 0 .461-.05.639-.15s.325-.22.434-.359l.438.369c-.121.173-.311.334-.571.482s-.571.219-.94.219c-.604 0-1.066-.178-1.388-.534s-.482-.814-.482-1.377zM38.969 286v-3.722h.615l.031.492h.017c.144-.178.315-.316.513-.414s.419-.147.663-.147c.262 0 .488.052.677.154s.336.261.434.482h.017c.166-.225.352-.387.557-.485a1.57 1.57 0 0 1 .697-.151c.403 0 .719.112.947.335s.345.592.345 1.111V286h-.677v-2.352c-.002-.307-.072-.527-.209-.659s-.327-.198-.578-.198c-.216 0-.406.058-.567.174s-.288.262-.386.444V286h-.68v-2.352c0-.307-.068-.527-.205-.659s-.33-.198-.581-.198c-.217 0-.406.058-.567.174s-.288.262-.386.444V286h-.677zm6.279-1.808v-.109c0-.561.161-1.019.482-1.375s.75-.533 1.278-.533.942.167 1.227.499.431.782.431 1.347v.287h-2.998v-.543h2.31v.01c0-.299-.074-.546-.222-.742s-.395-.297-.748-.297-.615.13-.8.389-.273.579-.273.958v.109c0 .378.096.698.287.96s.492.39.895.39c.248 0 .461-.05.639-.15s.325-.22.434-.359l.438.369c-.121.173-.311.334-.571.482s-.571.219-.94.219c-.604 0-1.066-.178-1.388-.534s-.482-.814-.482-1.377zM49.435 286v-3.722h.615l.031.492h.017c.143-.178.314-.316.513-.414s.419-.147.663-.147c.262 0 .488.052.677.154s.336.261.434.482h.017c.166-.225.352-.387.557-.485a1.57 1.57 0 0 1 .697-.151c.403 0 .719.112.947.335s.345.592.345 1.111V286h-.677v-2.352c-.002-.307-.072-.527-.209-.659s-.327-.198-.578-.198c-.217 0-.406.058-.567.174s-.288.262-.386.444V286h-.68v-2.352c0-.307-.068-.527-.205-.659s-.33-.198-.581-.198c-.216 0-.406.058-.567.174s-.288.262-.386.444V286h-.677zm6.494 0v-5.25h.677v1.969a1.21 1.21 0 0 1 .465-.369c.196-.094.432-.141.707-.141.492 0 .885.177 1.179.53s.444.801.444 1.344v.109c0 .542-.148.991-.444 1.347s-.687.529-1.179.529a1.56 1.56 0 0 1-.725-.16c-.207-.11-.361-.241-.461-.393h-.017l-.031.485h-.615zm.677-1.131c.077.164.204.311.379.441a1.06 1.06 0 0 0 .639.191c.374 0 .647-.125.82-.376s.263-.564.263-.933v-.109c0-.367-.088-.676-.263-.927s-.447-.379-.82-.379c-.251 0-.464.065-.639.195a1.15 1.15 0 0 0-.379.437v1.46zm3.38-.677v-.109c0-.561.161-1.019.482-1.375s.75-.533 1.278-.533.942.167 1.227.499.431.782.431 1.347v.287h-2.998v-.543h2.311v.01c0-.299-.074-.546-.222-.742s-.395-.297-.748-.297-.615.13-.8.389-.273.579-.273.958v.109c0 .378.096.698.287.96s.492.39.895.39c.248 0 .461-.05.639-.15s.325-.22.434-.359l.438.369c-.121.173-.311.334-.571.482s-.571.219-.94.219c-.604 0-1.066-.178-1.388-.534s-.482-.814-.482-1.377zM64.173 286v-3.722h.615l.031.482h.017a1.51 1.51 0 0 1 .393-.407c.164-.118.359-.178.585-.178.052 0 .107.006.164.017l.123.031v.646c-.048-.009-.098-.016-.15-.02s-.111-.007-.174-.007a.97.97 0 0 0-.574.167 1.06 1.06 0 0 0-.352.414V286h-.677zm4.245 0v-3.722h.615l.031.492h.017c.143-.178.314-.316.513-.414s.419-.147.663-.147c.262 0 .488.052.677.154s.336.261.434.482h.017c.166-.225.352-.387.557-.485a1.57 1.57 0 0 1 .697-.151c.403 0 .719.112.947.335s.345.592.345 1.111V286h-.677v-2.352c-.002-.307-.072-.527-.209-.659s-.327-.198-.578-.198c-.216 0-.406.058-.567.174s-.288.262-.386.444V286h-.68v-2.352c0-.307-.068-.527-.205-.659s-.33-.198-.581-.198c-.216 0-.406.058-.567.174s-.288.262-.386.444V286h-.677zm6.279-1.808v-.109c0-.561.161-1.019.482-1.375s.75-.533 1.278-.533.942.167 1.227.499.431.782.431 1.347v.287h-2.998v-.543h2.311v.01c0-.299-.074-.546-.222-.742s-.395-.297-.749-.297-.615.13-.8.389-.273.579-.273.958v.109c0 .378.096.698.287.96s.492.39.895.39c.248 0 .461-.05.639-.15s.325-.22.434-.359l.438.369c-.121.173-.311.334-.571.482s-.571.219-.94.219c-.604 0-1.066-.178-1.388-.534s-.482-.814-.482-1.377z" fill="#000"/><path d="M124.505 371.985v-.369c0-.99.266-1.762.796-2.316s1.213-.83 2.048-.83c.829 0 1.508.277 2.039.83s.8 1.326.8 2.316v.369c0 .991-.267 1.763-.8 2.316s-1.21.831-2.039.831c-.835 0-1.518-.277-2.048-.831s-.796-1.325-.796-2.316zm.901 0c0 .742.177 1.323.532 1.745s.825.628 1.411.628 1.051-.209 1.406-.628.532-1.003.532-1.745v-.369c0-.741-.178-1.321-.532-1.74s-.823-.633-1.406-.633-1.057.211-1.411.633-.532.999-.532 1.74v.369zm5.942 3.015v-4.759h.782l.039.615h.022c.126-.196.292-.369.497-.519s.456-.228.743-.228c.064 0 .133.007.206.022l.158.039v.818a1.87 1.87 0 0 0-.193-.027l-.22-.008c-.287 0-.53.071-.729.215a1.35 1.35 0 0 0-.444.527V375h-.861zM72.664 480v-5.688h1.805c.773 0 1.417.244 1.93.731s.773 1.135.773 1.953v.32c0 .818-.258 1.47-.773 1.957s-1.156.727-1.93.727h-1.805zm.801-.668h1.004c.578 0 1.038-.178 1.379-.535s.516-.85.516-1.481v-.32c0-.63-.172-1.124-.516-1.48s-.801-.536-1.379-.536h-1.004v4.352zm4.492-1.398v-.125c0-.641.19-1.164.57-1.571s.892-.609 1.527-.609 1.147.203 1.527.609.574.93.574 1.571v.125c0 .643-.191 1.168-.574 1.574s-.889.609-1.527.609-1.144-.203-1.527-.609-.57-.931-.57-1.574zm.793-.125v.125c0 .429.109.793.328 1.089s.544.446.977.446.762-.149.981-.446.328-.66.328-1.089v-.125c0-.427-.109-.789-.328-1.086s-.546-.446-.981-.446-.758.149-.977.446-.328.659-.328 1.086zM83.07 480v-4.254h.703l.035.563h.02c.167-.206.367-.364.602-.473a1.79 1.79 0 0 1 .781-.168c.451 0 .809.126 1.074.379s.402.677.402 1.273V480h-.777v-2.688c0-.351-.082-.602-.246-.753s-.392-.227-.691-.227c-.255 0-.479.066-.672.199a1.43 1.43 0 0 0-.457.508V480h-.773zm5.063-5.695v.414a1.88 1.88 0 0 1-.18.824 1.95 1.95 0 0 1-.496.648l-.434-.312c.128-.172.22-.348.277-.527a2.17 2.17 0 0 0 .09-.633v-.414h.742zm.359 2.05v-.609h2.527v.609h-2.527zm.793 2.583v-2.829-.117-1.117h.773v4.063c0 .182.039.312.117.39s.201.117.367.117c.078 0 .154-.007.226-.023a2.12 2.12 0 0 0 .231-.063V480a1.47 1.47 0 0 1-.281.082 1.91 1.91 0 0 1-.375.035c-.323 0-.581-.095-.773-.285s-.285-.488-.285-.894zM93.75 480v-6h.773v2.297c.164-.198.361-.352.59-.461s.491-.168.777-.168c.45 0 .809.126 1.074.379s.402.677.402 1.273V480h-.777v-2.688c0-.351-.082-.602-.246-.753s-.392-.227-.692-.227c-.255 0-.479.066-.672.199a1.41 1.41 0 0 0-.457.508V480h-.773zm4.508-1.25c0-.432.18-.768.539-1.008s.815-.363 1.367-.363h1.027v-.336c0-.234-.071-.425-.214-.57s-.385-.223-.731-.223-.59.066-.738.199-.223.283-.223.457v.02h-.773v-.02c0-.341.158-.639.473-.894s.746-.383 1.286-.383.953.118 1.25.355.445.59.445 1.059v2.019a2.83 2.83 0 0 0 .039.481c.029.148.068.28.117.395V480h-.75c-.039-.068-.074-.156-.105-.266a1.56 1.56 0 0 1-.059-.324c-.107.175-.279.33-.516.465s-.543.203-.918.203c-.419 0-.777-.113-1.074-.34s-.441-.558-.441-.988zm.773-.039a.7.7 0 0 0 .223.551c.149.133.384.195.699.195s.6-.099.856-.297.382-.411.382-.633v-.589h-.945c-.398 0-.7.07-.906.21s-.309.326-.309.563zm3.438-2.965h.773l1.043 2.801.102.297c.028.088.052.185.07.289h.023a2.18 2.18 0 0 1 .071-.289l.105-.297 1.035-2.801h.739L104.766 480h-.633l-1.664-4.254zm4.23 2.188v-.125c0-.641.184-1.164.551-1.571s.857-.609 1.461-.609 1.077.19 1.402.57.492.893.492 1.539v.328h-3.425v-.621h2.64v.012c0-.341-.084-.624-.254-.848s-.451-.339-.855-.339-.703.148-.914.445-.313.661-.313 1.094v.125c0 .432.11.798.328 1.097s.563.446 1.024.446c.284 0 .527-.058.73-.172a1.63 1.63 0 0 0 .496-.41l.5.421c-.138.198-.355.382-.652.551s-.652.25-1.074.25c-.69 0-1.219-.203-1.586-.609s-.551-.931-.551-1.574zm6.512.816c0-.432.18-.768.539-1.008s.815-.363 1.367-.363h1.028v-.336c0-.234-.072-.425-.215-.57s-.384-.223-.731-.223-.59.066-.738.199a.59.59 0 0 0-.223.457v.02h-.773v-.02c0-.341.157-.639.473-.894s.746-.383 1.285-.383.953.118 1.25.355.445.59.445 1.059v2.019a2.83 2.83 0 0 0 .039.481c.029.148.068.28.117.395V480h-.75c-.039-.068-.074-.156-.105-.266a1.64 1.64 0 0 1-.059-.324c-.107.175-.278.33-.515.465s-.543.203-.918.203c-.42 0-.778-.113-1.075-.34s-.441-.558-.441-.988zm.773-.039c0 .234.075.418.223.551s.384.195.699.195a1.36 1.36 0 0 0 .856-.297c.255-.2.383-.411.383-.633v-.589h-.946c-.398 0-.7.07-.906.21s-.309.326-.309.563zm3.84-.777v-.125c0-.641.183-1.164.547-1.571s.871-.609 1.512-.609c.594 0 1.044.152 1.351.457s.465.644.465 1.019v.02h-.754v-.02c0-.218-.084-.411-.254-.578s-.436-.254-.808-.254c-.435 0-.755.149-.961.446s-.305.66-.305 1.09v.125c0 .432.102.796.305 1.093s.526.446.961.446c.372 0 .642-.084.808-.25a.8.8 0 0 0 .254-.582v-.02h.754v.02c0 .375-.155.714-.465 1.019s-.757.457-1.351.457c-.641 0-1.145-.203-1.512-.609s-.547-.931-.547-1.574zm4.5 0v-.125c0-.641.183-1.164.547-1.571s.871-.609 1.512-.609c.594 0 1.044.152 1.351.457s.465.644.465 1.019v.02h-.754v-.02c0-.218-.084-.411-.254-.578s-.436-.254-.808-.254c-.435 0-.755.149-.961.446s-.305.66-.305 1.09v.125c0 .432.102.796.305 1.093s.526.446.961.446c.372 0 .642-.084.808-.25a.8.8 0 0 0 .254-.582v-.02h.754v.02c0 .375-.155.714-.465 1.019s-.757.457-1.351.457c-.641 0-1.145-.203-1.512-.609s-.547-.931-.547-1.574zm4.5 0v-.125c0-.641.19-1.164.571-1.571s.891-.609 1.527-.609 1.147.203 1.527.609.574.93.574 1.571v.125c0 .643-.191 1.168-.574 1.574s-.889.609-1.527.609-1.145-.203-1.527-.609-.571-.931-.571-1.574zm.793-.125v.125c0 .429.11.793.328 1.089s.545.446.977.446.762-.149.98-.446.328-.66.328-1.089v-.125c0-.427-.109-.789-.328-1.086s-.545-.446-.98-.446-.758.149-.977.446-.328.659-.328 1.086zm4.281.617v-2.68h.774v2.688c0 .351.081.602.242.754s.397.226.699.226c.253 0 .476-.065.668-.195s.345-.304.457-.512v-2.961h.778V480h-.707l-.032-.566h-.019c-.167.205-.369.364-.606.476s-.494.168-.781.168c-.448 0-.806-.126-1.074-.379s-.399-.679-.399-1.273zm4.774 1.574v-4.254h.703l.035.563h.02a1.67 1.67 0 0 1 .601-.473 1.79 1.79 0 0 1 .781-.168c.451 0 .809.126 1.075.379s.402.677.402 1.273V480h-.777v-2.688c0-.351-.082-.602-.246-.753s-.392-.227-.692-.227c-.255 0-.479.066-.672.199a1.43 1.43 0 0 0-.457.508V480h-.773zm4.156-3.645v-.609h2.527v.609h-2.527zm.793 2.583v-2.829-.117-1.117h.774v4.063c0 .182.039.312.117.39s.2.117.367.117c.078 0 .154-.007.226-.023l.231-.063V480a1.48 1.48 0 0 1-.281.082 1.91 1.91 0 0 1-.375.035c-.323 0-.581-.095-.774-.285s-.285-.488-.285-.894zm5.16.648a.5.5 0 0 1 .133-.348c.089-.099.215-.148.379-.148s.29.049.379.148a.5.5 0 0 1 .133.348c0 .138-.045.256-.133.355s-.215.145-.379.145-.29-.048-.379-.145a.51.51 0 0 1-.133-.355zm-1.097-3.828v-.086c0-.432.153-.78.461-1.043s.726-.395 1.257-.395.947.138 1.246.414.45.636.45 1.079c0 .346-.099.652-.297.918a3.62 3.62 0 0 1-.598.648c-.242.2-.396.38-.461.539s-.094.328-.094.508v.039h-.781v-.039c0-.326.047-.585.141-.778s.276-.403.539-.632c.229-.209.414-.397.555-.567a.96.96 0 0 0 .214-.636c0-.25-.075-.448-.226-.594s-.38-.219-.688-.219-.541.068-.703.203-.238.318-.238.555v.086h-.777zm6.019 2.664v-.047h.801v.047c0 .333.122.585.367.754s.593.25 1.035.25.782-.085 1.016-.254.355-.396.355-.672a.7.7 0 0 0-.32-.602c-.214-.151-.655-.309-1.324-.476s-1.138-.374-1.406-.613-.403-.589-.403-1.039.18-.826.539-1.125.862-.45 1.5-.45 1.149.163 1.524.489a1.5 1.5 0 0 1 .566 1.183v.047h-.797v-.047a.88.88 0 0 0-.324-.711c-.216-.179-.539-.269-.969-.269-.424 0-.738.077-.941.23s-.305.344-.305.578a.7.7 0 0 0 .305.602c.206.143.601.288 1.187.433.675.17 1.17.386 1.485.649s.476.633.476 1.109a1.42 1.42 0 0 1-.586 1.172c-.388.305-.914.457-1.578.457s-1.198-.151-1.601-.453-.602-.719-.602-1.242zm5.293 1.578v-4.254h.774V480h-.774zm-.074-5.465c0-.125.039-.23.117-.316s.195-.129.344-.129.262.043.34.129.121.191.121.316a.45.45 0 0 1-.121.32c-.078.086-.192.129-.34.129a.45.45 0 0 1-.344-.129c-.081-.086-.117-.192-.117-.32zm1.965 6.574l.449-.593a1.67 1.67 0 0 0 .543.355c.234.102.496.152.785.152.385 0 .689-.1.91-.3s.336-.478.336-.84v-.387a1.42 1.42 0 0 1-.535.426c-.221.104-.49.156-.805.156-.562 0-1.013-.202-1.351-.605s-.504-.92-.504-1.539v-.125c0-.62.168-1.132.504-1.536s.789-.605 1.351-.605a1.75 1.75 0 0 1 .828.187c.237.123.413.271.528.446h.019l.035-.555h.704v4.137c0 .586-.185 1.035-.555 1.347s-.85.473-1.441.473c-.368 0-.706-.056-1.016-.168s-.572-.254-.785-.426zm.621-3.175c0 .421.099.777.297 1.066s.514.43.941.43c.287 0 .53-.073.731-.219a1.32 1.32 0 0 0 .433-.504v-1.668c-.088-.187-.233-.354-.433-.5s-.444-.223-.731-.223c-.427 0-.741.145-.941.434s-.297.639-.297 1.059v.125zm4.336 2.066v-4.254h.703l.035.563h.02a1.67 1.67 0 0 1 .601-.473 1.79 1.79 0 0 1 .781-.168c.451 0 .809.126 1.075.379s.402.677.402 1.273V480h-.777v-2.688c0-.351-.082-.602-.246-.753s-.392-.227-.692-.227c-.255 0-.479.066-.672.199a1.43 1.43 0 0 0-.457.508V480h-.773zm6.648-1.574v-2.68h.774v2.688c0 .351.08.602.242.754s.397.226.699.226c.253 0 .475-.065.668-.195a1.42 1.42 0 0 0 .457-.512v-2.961h.777V480h-.707l-.031-.566h-.019c-.167.205-.369.364-.606.476s-.495.168-.781.168c-.448 0-.806-.126-1.074-.379s-.399-.679-.399-1.273zm4.774 3.199v-5.879h.703l.035.555h.019c.115-.175.291-.323.528-.446a1.75 1.75 0 0 1 .828-.187c.562 0 1.012.202 1.348.605s.507.916.507 1.536v.125c0 .619-.169 1.132-.507 1.539s-.786.605-1.348.605c-.315 0-.585-.052-.809-.156s-.398-.249-.531-.426v2.129h-.773zm.773-2.918c.089.188.233.355.434.504s.444.219.73.219c.427 0 .74-.144.938-.43s.3-.645.3-1.066v-.125c0-.42-.1-.773-.3-1.059s-.511-.434-.938-.434c-.286 0-.53.075-.73.223s-.345.313-.434.5v1.668z" fill="#5a5c66"/><path stroke="#b8b8b8" stroke-width=".5" d="M15 261.75h226"/><g filter="url(#A)"><rect x="15" y="316" width="226" height="33" rx="16.5" fill="#f03d38"/></g><path d="M114.396 335.229v-.053h.892v.053c0 .378.136.662.408.853s.659.281 1.152.281.873-.097 1.133-.29.396-.446.396-.756c0-.284-.12-.511-.36-.681s-.731-.353-1.473-.541c-.744-.193-1.265-.425-1.564-.694s-.448-.661-.448-1.165a1.57 1.57 0 0 1 .602-1.261c.401-.337.956-.505 1.665-.505.715 0 1.282.181 1.701.545s.628.804.628 1.331v.053h-.887v-.053c0-.334-.12-.602-.361-.804s-.6-.303-1.081-.303c-.471 0-.82.086-1.046.259s-.338.394-.338.664a.79.79 0 0 0 .338.676c.229.162.676.326 1.341.493.747.19 1.295.433 1.643.729s.523.711.523 1.244-.217.975-.65 1.318-1.021.51-1.762.51-1.332-.17-1.78-.51-.672-.804-.672-1.393zm5.91 1.771v-4.759h.861V337h-.861zm-.088-6.126a.51.51 0 0 1 .132-.356c.091-.097.22-.145.387-.145s.294.048.382.145a.5.5 0 0 1 .136.356c0 .144-.045.264-.136.36s-.215.141-.382.141-.296-.047-.387-.141-.132-.216-.132-.36zm2.202 7.374l.505-.659c.144.152.345.286.602.4s.547.171.866.171c.428 0 .765-.113 1.011-.338s.373-.538.373-.945v-.439c-.146.196-.344.354-.593.474s-.543.176-.892.176c-.624 0-1.124-.226-1.499-.677s-.562-1.028-.562-1.723v-.14c0-.692.187-1.263.562-1.714s.875-.681 1.499-.681c.349 0 .653.07.914.211s.46.303.589.496h.022l.039-.619h.783v4.636c0 .656-.207 1.16-.62 1.512s-.943.527-1.6.527c-.407 0-.783-.063-1.129-.189s-.633-.286-.87-.479zm.694-3.56c0 .475.11.874.33 1.196s.57.483 1.041.483c.32 0 .589-.082.809-.246s.384-.351.483-.562v-1.877c-.099-.211-.26-.398-.483-.562s-.489-.246-.809-.246c-.471 0-.818.161-1.041.483s-.33.719-.33 1.191v.14zm4.825 2.312v-4.759h.783l.039.628h.022a1.9 1.9 0 0 1 .664-.527c.261-.126.551-.189.87-.189.498 0 .895.14 1.191.422s.448.753.448 1.415V337h-.866v-3.019c0-.39-.09-.668-.272-.835s-.434-.255-.765-.255c-.284 0-.533.073-.747.22a1.56 1.56 0 0 0-.505.567V337h-.862zm7.59 0v-6.398h.892V337h-.892zm2.316 0v-4.759h.782l.04.628h.021a1.9 1.9 0 0 1 .664-.527c.261-.126.551-.189.87-.189.498 0 .895.14 1.191.422s.448.753.448 1.415V337h-.865v-3.019c0-.39-.091-.668-.273-.835s-.433-.255-.765-.255c-.284 0-.533.073-.747.22a1.57 1.57 0 0 0-.505.567V337h-.861z" fill="#fff"/><path d="M230 252.6c.682 0 1.261-.204 1.739-.612s.716-.905.716-1.488-.239-1.079-.716-1.487-1.057-.613-1.739-.613-1.261.204-1.739.613-.716.904-.716 1.487.239 1.079.716 1.488 1.057.612 1.739.612zm0-.84c-.409 0-.757-.122-1.043-.367s-.43-.543-.43-.893.143-.648.43-.892.634-.368 1.043-.368.757.122 1.043.368.43.542.43.892-.143.648-.43.893-.634.367-1.043.367zm0 2.24c-1.327 0-2.536-.317-3.627-.951s-1.882-1.483-2.373-2.549c.491-1.066 1.282-1.915 2.373-2.549s2.3-.951 3.627-.951 2.536.317 3.627.951 1.882 1.483 2.373 2.549c-.491 1.066-1.282 1.915-2.373 2.549s-2.3.951-3.627.951zm0-.933c1.027 0 1.97-.232 2.83-.695s1.515-1.086 1.97-1.872c-.455-.786-1.111-1.41-1.97-1.873s-1.803-.694-2.83-.694-1.97.232-2.83.694-1.515 1.087-1.97 1.873c.455.786 1.111 1.41 1.97 1.872s1.803.695 2.83.695z" fill="#cfcfcf"/><path d="M112.616 67.495V53.048h2.674l5.947 10.196h-1.417l5.847-10.196h2.654l.04 14.448h-3.033l-.02-9.639h.559l-4.67 8.111h-1.457l-4.769-8.111h.678v9.639h-3.033zm17.222 0l6.226-14.448h3.193l6.246 14.448h-3.392l-5.109-12.755h1.277l-5.129 12.755h-3.312zm3.113-3.096l.858-2.539h7.184l.878 2.539h-8.92zm17.481 3.096v-5.903l.738 2.023-6.146-10.567h3.432l4.71 8.111h-1.976l4.73-8.111h3.173l-6.146 10.567.718-2.023v5.903h-3.233zm7.324 0l6.226-14.448h3.193l6.246 14.448h-3.392L164.92 54.74h1.277l-5.128 12.755h-3.313zm3.113-3.096l.858-2.539h7.184l.878 2.539h-8.92z" fill="#3b3535"/><path d="M95.747 53l-8.444 14.502h-5.11L90.637 53h5.11zm-9.948 0l-8.444 14.502h-5.11L80.689 53h5.11zm19.896 0l-8.444 14.502h-5.11L100.585 53h5.11z" fill-rule="evenodd" fill="#fb1c2e"/><g fill="#000"><path d="M88.501 402.985v-.369c0-.99.269-1.762.809-2.316s1.223-.83 2.043-.83 1.45.212 1.89.637.687.937.734 1.547l.004.048h-1.02v-.053c-.029-.348-.173-.66-.431-.936s-.647-.413-1.178-.413-.971.202-1.314.607-.514.971-.514 1.7v.387c0 .724.171 1.289.514 1.696s.781.611 1.314.611c.527 0 .919-.137 1.173-.413s.403-.59.435-.936v-.053h1.02l-.004.053a2.37 2.37 0 0 1-.738 1.547c-.436.422-1.065.633-1.885.633s-1.501-.277-2.043-.831-.809-1.325-.809-2.316zm6.231.695v-.141c0-.721.217-1.308.65-1.762s1.017-.686 1.74-.686 1.307.229 1.74.686.655 1.041.655 1.762v.141c0 .723-.218 1.314-.655 1.771s-1.014.681-1.74.681-1.304-.227-1.74-.681-.65-1.048-.65-1.771zm1.002-.145v.149c0 .472.117.869.352 1.191s.58.479 1.037.479.807-.16 1.042-.479.352-.719.352-1.191v-.149c0-.469-.117-.863-.352-1.182s-.582-.479-1.042-.479-.803.159-1.037.479-.352.713-.352 1.182zm4.804 2.465v-4.777h.9l.036.611h.022a1.8 1.8 0 0 1 .654-.514c.258-.123.544-.185.857-.185.51 0 .916.144 1.218.431s.457.765.457 1.441V406h-.98v-3.006c0-.381-.087-.653-.26-.817s-.416-.246-.729-.246c-.27 0-.507.071-.712.215a1.56 1.56 0 0 0-.488.554v3.3h-.975zm4.75-4.039v-.738h2.861v.738h-2.861zm.848 2.804v-3.111l.005-.132v-1.288h.975v4.531c0 .205.043.352.128.44s.215.127.391.127c.085 0 .167-.009.246-.026s.164-.041.246-.071V406a1.55 1.55 0 0 1-.308.092c-.126.027-.262.04-.408.04-.387 0-.696-.11-.928-.33s-.347-.565-.347-1.037zm2.909 1.235v-4.777h.98V406h-.98zm-.092-6.113c0-.155.05-.284.15-.387s.246-.158.43-.158.331.053.431.158.149.232.149.387a.55.55 0 0 1-.149.391c-.1.103-.243.154-.431.154s-.328-.051-.43-.154-.15-.236-.15-.391zm2.404 6.113v-4.777h.901l.035.611h.022c.179-.223.397-.394.655-.514s.543-.185.857-.185c.509 0 .915.144 1.217.431s.457.765.457 1.441V406h-.98v-3.006c0-.381-.086-.653-.259-.817s-.416-.246-.73-.246c-.269 0-.507.071-.712.215a1.56 1.56 0 0 0-.487.554v3.3h-.976zm5.352-1.789v-2.988h.976v3.002c0 .383.086.657.259.821s.418.246.734.246a1.2 1.2 0 0 0 .708-.215c.205-.143.367-.328.488-.554v-3.3h.98V406h-.906l-.035-.615h-.022c-.179.225-.398.4-.659.523s-.544.18-.857.18c-.507 0-.911-.144-1.213-.431s-.453-.772-.453-1.446zm5.164-.531v-.141c0-.721.21-1.308.628-1.762s.978-.686 1.666-.686 1.225.214 1.6.642.562 1 .562 1.727v.395h-3.819v-.733h2.83v-.022c0-.34-.09-.633-.272-.879s-.484-.369-.905-.369-.745.162-.967.487-.334.721-.334 1.196v.149c0 .475.117.875.351 1.2s.597.483 1.086.483c.307 0 .571-.064.791-.193s.398-.281.536-.457l.637.51c-.152.228-.398.436-.738.624s-.746.281-1.226.281c-.779 0-1.379-.227-1.798-.681s-.628-1.048-.628-1.771zm7.084-2.457h.98l.826 2.993.092.347a2.43 2.43 0 0 1 .066.338h.027l.066-.338.101-.347.984-2.993h.923l.993 2.993.097.347c.029.111.053.226.07.343h.026l.066-.343.097-.347.822-2.993h.879L134.617 406h-.883l-.993-3.054-.115-.347-.092-.348h-.026l-.097.348-.11.347-.993 3.054h-.896l-1.455-4.777zm7.906 4.777v-4.777h.98V406h-.98zm-.092-6.113c0-.155.049-.284.149-.387s.246-.158.431-.158.331.053.43.158.15.232.15.387-.05.286-.15.391-.243.154-.43.154-.329-.051-.431-.154-.149-.236-.149-.391zm1.757 2.074v-.738h2.861v.738h-2.861zm.848 2.804v-3.111l.005-.132v-1.288h.975v4.531c0 .205.043.352.128.44s.215.127.391.127c.085 0 .167-.009.246-.026s.164-.041.246-.071V406c-.079.035-.181.066-.307.092s-.263.04-.409.04c-.387 0-.696-.11-.927-.33s-.348-.565-.348-1.037zM142.25 406v-6.75h.976v2.58c.176-.217.391-.387.646-.51s.542-.185.861-.185c.504 0 .907.144 1.209.431s.453.763.453 1.437V406h-.985v-3.001c0-.384-.086-.658-.259-.822s-.413-.246-.73-.246a1.21 1.21 0 0 0-.712.215c-.202.144-.363.33-.483.558V406h-.976zm7.449-3.015v-.369c0-.99.27-1.762.809-2.316s1.223-.83 2.043-.83 1.448.196 1.89.589.691.859.738 1.401l.005.044h-1.02l-.004-.044c-.021-.281-.163-.544-.427-.791s-.654-.373-1.182-.373-.971.205-1.314.615-.514.976-.514 1.696v.387c0 .724.172 1.291.514 1.701s.826.611 1.451.611c.322 0 .6-.033.834-.097s.462-.167.673-.308v-1.358h-1.6v-.799h2.589v2.513c-.22.217-.542.418-.967.602s-.932.273-1.529.273c-.912 0-1.638-.277-2.18-.831s-.809-1.325-.809-2.316zm6.232.695v-.141c0-.721.216-1.308.65-1.762s1.017-.686 1.74-.686 1.307.229 1.741.686.654 1.041.654 1.762v.141c0 .723-.218 1.314-.654 1.771s-1.014.681-1.741.681-1.303-.227-1.74-.681-.65-1.048-.65-1.771zm1.002-.145v.149c0 .472.117.869.351 1.191s.58.479 1.037.479.807-.16 1.042-.479.351-.719.351-1.191v-.149c0-.469-.117-.863-.351-1.182s-.582-.479-1.042-.479-.802.159-1.037.479-.351.713-.351 1.182zm4.526.145v-.141c0-.721.217-1.308.65-1.762s1.017-.686 1.741-.686 1.306.229 1.74.686.655 1.041.655 1.762v.141c0 .723-.219 1.314-.655 1.771s-1.014.681-1.74.681-1.304-.227-1.741-.681-.65-1.048-.65-1.771zm1.002-.145v.149c0 .472.117.869.351 1.191s.581.479 1.038.479.807-.16 1.041-.479.352-.719.352-1.191v-.149c0-.469-.118-.863-.352-1.182s-.581-.479-1.041-.479-.803.159-1.038.479-.351.713-.351 1.182zm4.742 3.713l.509-.703c.147.149.352.281.616.395s.558.172.883.172c.41 0 .734-.112.971-.334s.36-.536.36-.941v-.386a1.48 1.48 0 0 1-.584.466c-.243.114-.538.171-.883.171-.633 0-1.14-.227-1.521-.681s-.567-1.03-.567-1.727v-.141c0-.697.189-1.271.567-1.723s.888-.681 1.521-.681c.345 0 .649.068.909.202s.453.299.576.493h.022l.035-.607h.901v4.614c0 .668-.212 1.181-.637 1.538s-.968.541-1.639.541c-.419 0-.804-.063-1.156-.189s-.646-.286-.883-.479zm.786-3.564c0 .46.106.847.317 1.16s.548.466 1.002.466c.304 0 .562-.081.773-.242a1.44 1.44 0 0 0 .461-.545v-1.819a1.43 1.43 0 0 0-.465-.549c-.211-.158-.468-.238-.769-.238-.454 0-.788.156-1.002.466s-.317.695-.317 1.152v.149zm4.852 2.316v-6.75h.98V406h-.98zm2.03-2.32v-.141c0-.721.21-1.308.629-1.762s.977-.686 1.665-.686 1.225.214 1.6.642.562 1 .562 1.727v.395h-3.819v-.733h2.83v-.022c0-.34-.09-.633-.272-.879s-.483-.369-.905-.369-.744.162-.967.487-.334.721-.334 1.196v.149c0 .475.117.875.351 1.2s.597.483 1.086.483c.307 0 .571-.064.791-.193s.398-.281.536-.457l.637.51c-.152.228-.398.436-.738.624s-.746.281-1.226.281c-.779 0-1.379-.227-1.797-.681s-.629-1.048-.629-1.771z" fill-opacity=".7"/><path d="M88.501 442.985v-.369c0-.99.269-1.762.809-2.316s1.223-.83 2.043-.83 1.45.212 1.89.637.687.937.734 1.547l.004.048h-1.02v-.053c-.029-.348-.173-.66-.431-.936s-.647-.413-1.178-.413-.971.202-1.314.607-.514.971-.514 1.7v.387c0 .724.171 1.289.514 1.696s.781.611 1.314.611c.527 0 .919-.137 1.173-.413s.403-.59.435-.936v-.053h1.02l-.004.053a2.37 2.37 0 0 1-.738 1.547c-.436.422-1.065.633-1.885.633s-1.501-.277-2.043-.831-.809-1.325-.809-2.316zm6.231.695v-.141c0-.721.217-1.308.65-1.762s1.017-.686 1.74-.686 1.307.229 1.74.686.655 1.041.655 1.762v.141c0 .723-.218 1.314-.655 1.771s-1.014.681-1.74.681-1.304-.227-1.74-.681-.65-1.048-.65-1.771zm1.002-.145v.149c0 .472.117.869.352 1.191s.58.479 1.037.479.807-.16 1.042-.479.352-.719.352-1.191v-.149c0-.469-.117-.863-.352-1.182s-.582-.479-1.042-.479-.803.159-1.037.479-.352.713-.352 1.182zm4.804 2.465v-4.777h.9l.036.611h.022a1.8 1.8 0 0 1 .654-.514c.258-.123.544-.185.857-.185.51 0 .916.144 1.218.431s.457.765.457 1.441V446h-.98v-3.006c0-.381-.087-.653-.26-.817s-.416-.246-.729-.246c-.27 0-.507.071-.712.215a1.56 1.56 0 0 0-.488.554v3.3h-.975zm4.75-4.039v-.738h2.861v.738h-2.861zm.848 2.804v-3.111l.005-.132v-1.288h.975v4.531c0 .205.043.352.128.44s.215.127.391.127c.085 0 .167-.009.246-.026s.164-.041.246-.071V446a1.55 1.55 0 0 1-.308.092c-.126.027-.262.04-.408.04-.387 0-.696-.11-.928-.33s-.347-.565-.347-1.037zm2.909 1.235v-4.777h.98V446h-.98zm-.092-6.113c0-.155.05-.284.15-.387s.246-.158.43-.158.331.053.431.158.149.232.149.387a.55.55 0 0 1-.149.391c-.1.103-.243.154-.431.154s-.328-.051-.43-.154-.15-.236-.15-.391zm2.404 6.113v-4.777h.901l.035.611h.022c.179-.223.397-.394.655-.514s.543-.185.857-.185c.509 0 .915.144 1.217.431s.457.765.457 1.441V446h-.98v-3.006c0-.381-.086-.653-.259-.817s-.416-.246-.73-.246c-.269 0-.507.071-.712.215a1.56 1.56 0 0 0-.487.554v3.3h-.976zm5.352-1.789v-2.988h.976v3.002c0 .383.086.657.259.821s.418.246.734.246a1.2 1.2 0 0 0 .708-.215c.205-.143.367-.328.488-.554v-3.3h.98V446h-.906l-.035-.615h-.022c-.179.225-.398.4-.659.523s-.544.18-.857.18c-.507 0-.911-.144-1.213-.431s-.453-.772-.453-1.446zm5.164-.531v-.141c0-.721.21-1.308.628-1.762s.978-.686 1.666-.686 1.225.214 1.6.642.562 1 .562 1.727v.395h-3.819v-.733h2.83v-.022c0-.34-.09-.633-.272-.879s-.484-.369-.905-.369-.745.162-.967.487-.334.721-.334 1.196v.149c0 .475.117.875.351 1.2s.597.483 1.086.483c.307 0 .571-.064.791-.193s.398-.281.536-.457l.637.51c-.152.228-.398.436-.738.624s-.746.281-1.226.281c-.779 0-1.379-.227-1.798-.681s-.628-1.048-.628-1.771zm7.084-2.457h.98l.826 2.993.092.347a2.43 2.43 0 0 1 .066.338h.027l.066-.338.101-.347.984-2.993h.923l.993 2.993.097.347c.029.111.053.226.07.343h.026l.066-.343.097-.347.822-2.993h.879L134.617 446h-.883l-.993-3.054-.115-.347-.092-.348h-.026l-.097.348-.11.347-.993 3.054h-.896l-1.455-4.777zm7.906 4.777v-4.777h.98V446h-.98zm-.092-6.113c0-.155.049-.284.149-.387s.246-.158.431-.158.331.053.43.158.15.232.15.387-.05.286-.15.391-.243.154-.43.154-.329-.051-.431-.154-.149-.236-.149-.391zm1.757 2.074v-.738h2.861v.738h-2.861zm.848 2.804v-3.111l.005-.132v-1.288h.975v4.531c0 .205.043.352.128.44s.215.127.391.127c.085 0 .167-.009.246-.026s.164-.041.246-.071V446c-.079.035-.181.066-.307.092s-.263.04-.409.04c-.387 0-.696-.11-.927-.33s-.348-.565-.348-1.037zM142.25 446v-6.75h.976v2.58c.176-.217.391-.387.646-.51s.542-.185.861-.185c.504 0 .907.144 1.209.431s.453.763.453 1.437V446h-.985v-3.001c0-.384-.086-.658-.259-.822s-.413-.246-.73-.246a1.21 1.21 0 0 0-.712.215c-.202.144-.363.33-.483.558V446h-.976zm6.939 0l2.448-6.434h1.015l2.457 6.434h-1.072l-1.723-4.715-.106-.308-.083-.303h-.044l-.079.303-.106.308-1.735 4.715h-.972zm1.095-1.591l.294-.8 3.094.005.294.804-3.682-.009zm5.466 3.419v-6.605h.897l.04.607h.021a1.45 1.45 0 0 1 .576-.493c.261-.134.563-.202.905-.202.633 0 1.14.227 1.521.681s.571 1.026.571 1.723v.141c0 .697-.19 1.273-.571 1.727s-.883.681-1.516.681c-.343 0-.637-.057-.883-.171s-.441-.27-.585-.466v2.377h-.976zm.976-3.305c.094.206.248.389.462.55s.473.237.777.237c.452 0 .783-.155.993-.466s.317-.697.317-1.16v-.149c0-.457-.106-.841-.317-1.152s-.541-.466-.993-.466c-.304 0-.564.081-.777.242s-.365.339-.462.541v1.823zm4.57 3.305v-6.605h.897l.039.607h.022c.123-.194.315-.358.576-.493s.563-.202.905-.202c.633 0 1.14.227 1.521.681s.571 1.026.571 1.723v.141c0 .697-.19 1.273-.571 1.727s-.883.681-1.516.681c-.343 0-.637-.057-.884-.171s-.44-.27-.584-.466v2.377h-.976zm.976-3.305a1.45 1.45 0 0 0 .461.55c.214.158.474.237.778.237.451 0 .782-.155.993-.466s.317-.697.317-1.16v-.149c0-.457-.106-.841-.317-1.152s-.542-.466-.993-.466c-.304 0-.564.081-.778.242a1.48 1.48 0 0 0-.461.541v1.823zm4.601 1.477v-6.75h.98V446h-.98zm2.03-2.32v-.141c0-.721.21-1.308.629-1.762s.977-.686 1.665-.686 1.225.214 1.6.642.562 1 .562 1.727v.395h-3.818v-.733h2.83v-.022c0-.34-.091-.633-.273-.879s-.483-.369-.905-.369-.744.162-.967.487-.334.721-.334 1.196v.149c0 .475.117.875.352 1.2s.596.483 1.085.483c.308 0 .571-.064.791-.193a1.86 1.86 0 0 0 .536-.457l.637.51c-.152.228-.398.436-.738.624s-.745.281-1.226.281c-.779 0-1.378-.227-1.797-.681s-.629-1.048-.629-1.771z" fill-opacity=".7"/></g><g stroke="#6f6f6f"><rect x="25.5" y="388.5" width="197" height="26" rx="13"/><rect x="25.5" y="428.5" width="198" height="26" rx="13"/></g><path d="M36.777 399.763c.556-1.724 2.139-2.963 4.013-2.963 1.008 0 1.918.366 2.633.965l2.081-2.13c-1.268-1.131-2.893-1.83-4.714-1.83-2.819 0-5.246 1.646-6.413 4.058l2.4 1.9z" fill="#ea4335"/><path d="M43.198 404.796c-.649.429-1.475.657-2.408.657-1.867 0-3.445-1.228-4.007-2.942l-2.407 1.871c1.165 2.415 3.592 4.067 6.414 4.067 1.748 0 3.418-.636 4.669-1.831l-2.261-1.822z" fill="#34a853"/><path d="M45.459 406.618c1.308-1.249 2.158-3.109 2.158-5.491 0-.433-.065-.899-.163-1.331H40.79v2.829h3.836c-.189.951-.697 1.688-1.428 2.171l2.261 1.822z" fill="#4a90e2"/><path d="M36.783 402.511a4.44 4.44 0 0 1-.219-1.384c0-.477.075-.936.213-1.364l-2.399-1.9c-.479.982-.739 2.09-.739 3.264a7.47 7.47 0 0 0 .738 3.255l2.407-1.871z" fill="#fbbc05"/><path d="M44.515 436.817c-1.538 0-2.188.686-3.259.686-1.098 0-1.936-.681-3.269-.681-1.305 0-2.696.744-3.579 2.013-1.24 1.789-1.03 5.157.979 8.027.719 1.028 1.678 2.18 2.937 2.192h.023c1.094 0 1.419-.669 2.925-.677h.023c1.483 0 1.781.674 2.87.674h.023c1.259-.013 2.27-1.29 2.989-2.313.517-.736.709-1.106 1.106-1.938-2.906-1.032-3.373-4.883-.499-6.36-.877-1.027-2.11-1.622-3.272-1.622l.004-.001zm-.339-3.74c-.915.059-1.983.603-2.609 1.315-.568.645-1.034 1.601-.851 2.529h.073c.975 0 1.973-.549 2.556-1.252.562-.67.987-1.618.832-2.592z" fill="#020202"/><rect x="15.15" y="281.15" width="7.7" height="7.7" rx="1.85" fill="#fff" stroke="#000" stroke-width=".3"/><path d="M244.6 333a1.6 1.6 0 0 0-3.2 0 1.6 1.6 0 0 0 3.2 0zm40.4-.3h-42v.6h42v-.6z" fill="url(#C)"/><g stroke-width=".6" stroke-linecap="round"><path d="M285 23H327" stroke="url(#D)"/><path d="M311 130H327" stroke="url(#E)"/></g><path d="M186.6 478a1.6 1.6 0 0 0-3.2 0 1.6 1.6 0 0 0 3.2 0zm124.4-.3H185v.6h126v-.6z" fill="url(#F)"/><g stroke-width=".6"><path d="M285 333L285 23" stroke="url(#G)"/><path d="M311 478L311 130" stroke="url(#H)"/></g><g stroke-width=".7"><circle cx="339.5" cy="23" r="12.15" stroke="url(#I)"/><circle cx="339.5" cy="130" r="12.15" stroke="url(#J)"/></g><path d="M333.051 24.182v-2.895c0-.894.25-1.617.75-2.168s1.211-.826 2.121-.826c.902 0 1.605.275 2.109.826s.762 1.274.762 2.168v2.895c0 .895-.254 1.617-.762 2.168s-1.207.826-2.109.826c-.91 0-1.617-.275-2.121-.826s-.75-1.273-.75-2.168zm1.377.082c0 .535.119.975.357 1.318s.621.516 1.137.516.898-.172 1.137-.516.363-.783.363-1.318v-3.053c0-.539-.121-.98-.363-1.324s-.621-.516-1.137-.516-.895.172-1.137.516-.357.785-.357 1.324v3.053zM342.461 27v-7.131l-2.156.873v-1.23l3.093-1.154h.416V27h-1.353zm-9.41 104.182v-2.895c0-.894.25-1.617.75-2.168s1.211-.826 2.121-.826c.902 0 1.605.275 2.109.826s.762 1.274.762 2.168v2.895c0 .894-.254 1.617-.762 2.168s-1.207.826-2.109.826c-.91 0-1.617-.276-2.121-.826s-.75-1.274-.75-2.168zm1.377.082c0 .535.119.974.357 1.318s.621.516 1.137.516.898-.172 1.137-.516.363-.783.363-1.318v-3.053c0-.539-.121-.981-.363-1.324s-.621-.516-1.137-.516-.895.172-1.137.516-.357.785-.357 1.324v3.053zm5.467 2.736v-.926l3.099-3.275c.387-.403.682-.762.885-1.078a1.88 1.88 0 0 0 .305-1.032 1.29 1.29 0 0 0-.37-.931c-.247-.258-.584-.387-1.025-.387s-.814.143-1.107.428-.442.687-.446 1.207v.082h-1.353v-.094c0-.793.273-1.441.82-1.945s1.246-.756 2.086-.756c.848 0 1.518.228 2.01.686s.744 1.007.744 1.652c0 .555-.154 1.057-.463 1.506s-.689.9-1.142 1.365l-2.321 2.385h4.143V134h-5.865z" fill="#1e1e1e"/><defs><filter id="A" x="9" y="311" width="238" height="45" filterUnits="userSpaceOnUse" color-interpolation-filters="sRGB"><feFlood flood-opacity="0" result="A"/><feColorMatrix in="SourceAlpha" values="0 0 0 0 0 0 0 0 0 0 0 0 0 0 0 0 0 0 127 0" result="B"/><feMorphology radius="1" operator="dilate" in="SourceAlpha"/><feOffset dy="1"/><feGaussianBlur stdDeviation="2.5"/><feComposite in2="B" operator="out"/><feColorMatrix values="0 0 0 0 0 0 0 0 0 0 0 0 0 0 0 0 0 0 0.1 0"/><feBlend in2="A"/><feBlend in="SourceGraphic"/></filter><linearGradient id="B" x1="128" y1="0" x2="128" y2="533" href="#K"><stop stop-color="#d84896"/><stop offset="1" stop-color="#a733c3"/></linearGradient><linearGradient id="C" x1="243" y1="332.2" x2="285" y2="332.2" href="#K"><stop stop-color="#2f67ff"/><stop offset="1" stop-color="#c262b8"/></linearGradient><linearGradient id="D" x1="327" y1="23.8" x2="285" y2="23.8" href="#K"><stop stop-color="#2f67ff"/><stop offset="1" stop-color="#c262b8"/></linearGradient><linearGradient id="E" x1="327" y1="130.8" x2="311" y2="130.8" href="#K"><stop stop-color="#2f67ff"/><stop offset="1" stop-color="#c262b8"/></linearGradient><linearGradient id="F" x1="185" y1="477.2" x2="311" y2="477.2" href="#K"><stop stop-color="#2f67ff"/><stop offset="1" stop-color="#c262b8"/></linearGradient><linearGradient id="G" x1="285.8" y1="23" x2="285.8" y2="333" href="#K"><stop stop-color="#2f67ff"/><stop offset="1" stop-color="#c262b8"/></linearGradient><linearGradient id="H" x1="311.8" y1="130" x2="311.8" y2="478" href="#K"><stop stop-color="#2f67ff"/><stop offset="1" stop-color="#c262b8"/></linearGradient><linearGradient id="I" x1="339.5" y1="10.5" x2="339.5" y2="35.5" href="#K"><stop stop-color="#d84896"/><stop offset="1" stop-color="#a733c3"/></linearGradient><linearGradient id="J" x1="339.5" y1="117.5" x2="339.5" y2="142.5" href="#K"><stop stop-color="#d84896"/><stop offset="1" stop-color="#a733c3"/></linearGradient><linearGradient id="K" gradientUnits="userSpaceOnUse"/></defs></svg>