<svg xmlns="http://www.w3.org/2000/svg" width="446" height="352" fill="none" xmlns:v="https://vecta.io/nano"><g stroke="#000"><rect x="50.5" y="226.5" width="40" height="66" rx="4.5"/><rect x=".5" y="-.5" width="10" height="13" rx=".5" transform="matrix(1 0 0 -1 65 305)"/><rect x=".5" y="-.5" width="10" height="13" rx=".5" transform="matrix(1 0 0 -1 65 226)"/><circle cx="83.5" cy="234.5" r="2"/><circle cx="56.5" cy="286.5" r="2"/><g stroke-width=".8" stroke-miterlimit="22.9256"><path d="M51.79 1h37.42C90.194 1 91 1.806 91 2.79v77.075l-4.277 13.073c-.239.485-.754.722-1.476.775l-.632.332-13.576.06-14.176-.053c-.178-.093-.148-.168-.347-.185-1.196-.101-1.724-.468-1.885-.96L50 79.731V65.048 2.79c0-.984.805-1.79 1.79-1.79h0z"/><path d="M52.858 1l7.284 3.678 20.975.019L88.401 1l-6.14 4.65s-.953.915-2.259.829H61.801s-1.516.276-2.889-1.03L52.858 1z" stroke-linejoin="round"/><path d="M57.477 8.291l26.682.007 6.186-6.89M55.842 9.531c0-.229-5.841-6.14-5.841-6.14"/><path d="M57.571 8.385l-6.949-6.949m35.105 8.095c0-.229 5.273-6.14 5.273-6.14"/><path d="M55.832 79.865V9.818s-.286-1.527 1.792-1.527m28.087 71.574V9.818s.286-1.527-1.792-1.527"/><path d="M50 65.249l5.831 14.319s.039.667 2.156.849 25.818 0 25.818 0 1.688.019 2.079-1.03l5.024-14.206v.534l-4.882 13.819s-.143 1.149-1.64 1.234-25.837.091-25.837.091-2.722.267-2.989-1.326L50 65.389m6.63 28.502l5.52-8.655c.161-.303.47-.621.731-.828.707-.561 1.58-.801 2.479-.813h10.48c.382-.03.868.038 1.231.128a4.15 4.15 0 0 1 2.275 1.444l.013.016 5.593 8.685m-8.508 1.912h-.089m-11.293-.009h-.129m-7.926-1.718l5.494-8.614s.724-1.411 2.86-1.44h10.497s1.907-.162 3.175 1.42l5.555 8.626m-7.842 1.33h-.017m-12.068-.01h-.049"/><path d="M55.832 79.865L54.583 92.77m3.103-11.895l-.983 13.061m29.008-14.239l1.166 12.772m-2.694-11.693l1.022 12.959M70.798 73.333c.677 0 1.225-.549 1.225-1.225s-.548-1.225-1.225-1.225-1.225.548-1.225 1.225.549 1.225 1.225 1.225z"/><path d="M57.477 8.291l.193 72.568M84.237 8.376l-.054 72.401m-18.76 13.298H64.36v.729c.168.494.466.932.987 1.293.25 1.558 1.299 2.661 5.334 2.73 3.981.069 5.055-1.089 5.323-2.653.776-.547 1.062-1.28 1.158-2.099h-1.223-10.517z"/><path d="M68.222 94.095V96.9"/><use href="#I"/><use href="#I" x="0.734"/><use href="#I" x="1.468"/><use href="#I" x="2.202"/><use href="#I" x="2.937"/><use href="#I" x="3.672"/><use href="#I" x="4.405"/><path d="M77.222 94.078c-.247 1.682-1.439 2.962-6.544 2.89-5.093-.072-6.291-1.248-6.543-2.888"/></g></g><path d="M378.896 41h-18.792a7.7 7.7 0 0 0-7.687 7.688v27.333A5.99 5.99 0 0 0 358.396 82h20.5a7.7 7.7 0 0 0 7.687-7.687V48.688A7.7 7.7 0 0 0 378.896 41zm5.979 7.688v21.354h-23.917V42.708h8.542v15.115a1.94 1.94 0 0 0 1.336 1.864 1.94 1.94 0 0 0 2.193-.67l1.596-2.089 1.595 2.089a1.95 1.95 0 0 0 2.194.67 1.94 1.94 0 0 0 1.336-1.864V42.77a5.99 5.99 0 0 1 5.125 5.918zm-13.667-5.979h6.834v15.115c0 .154-.096.217-.176.246s-.195.034-.287-.087l-2.274-2.978c-.323-.424-1.034-.424-1.358 0l-2.274 2.978c-.096.123-.21.114-.287.089s-.176-.092-.176-.246V42.708h-.002zm-17.083 5.979a5.99 5.99 0 0 1 5.125-5.918v27.272h-.854c-1.671 0-3.185.69-4.271 1.799V48.688zm24.771 31.604h-20.5c-5.614-.101-5.61-8.443 0-8.542h26.479v2.563a5.99 5.99 0 0 1-5.979 5.979z" fill="#000"/><g stroke="#000"><rect x=".5" y="-.5" width="18.167" height="49.833" rx=".5" transform="matrix(1 0 0 -1 210.833 76.6667)"/><path d="M239.495 82.256a.5.5 0 0 1-.745.363l-8.833-5.097a.5.5 0 0 1-.25-.433V27.43a.5.5 0 0 1 .262-.44l8.833-4.756a.5.5 0 0 1 .738.44v59.511l-.005.07zm-38.995.402a.5.5 0 0 0 .737.441l9.667-5.213a.5.5 0 0 0 .263-.44V27.489a.5.5 0 0 0-.275-.447l-9.667-4.865a.5.5 0 0 0-.725.446v60.035z"/><path d="M200.833 21.417h38.333m-38.333 61.666h38.333" stroke-linecap="round"/><g fill="#fff"><circle cx="220.833" cy="37.667" r="2"/><circle cx="220.833" cy="69.334" r="2"/></g></g><g clip-path="url(#G)"><path d="M395.328 266.914a2.28 2.28 0 0 0-1.794-.656c-1.64.128-7.161.723-9.445 3.006-2.243 2.26-2.538 6.011-.291 8.405-.985 1.217-1.548 2.705-1.548 4.295v2.411a4.38 4.38 0 0 1-4.375 4.375 4.38 4.38 0 0 1-4.375-4.375v-9.439c2.805-.315 5-2.673 5-5.561v-3.125h.625c.345 0 .625-.28.625-.625s-.28-.625-.625-.625H376v-4.375c0-.345-.28-.625-.625-.625s-.625.28-.625.625V265H371v-4.375c0-.345-.28-.625-.625-.625s-.625.28-.625.625V265h-3.125c-.345 0-.625.28-.625.625s.28.625.625.625h.625v3.125c0 2.888 2.195 5.246 5 5.561v9.439c0 3.101 2.524 5.625 5.625 5.625s5.625-2.524 5.625-5.625v-2.411c0-1.262.433-2.445 1.194-3.425 2.367 2.167 6.061 1.829 8.295-.379 2.312-2.311 2.885-7.82 3.006-9.472.046-.659-.196-1.307-.667-1.774zm-26.828 2.461v-3.125h8.75v3.125a4.38 4.38 0 0 1-4.375 4.375 4.38 4.38 0 0 1-4.375-4.375zm23.606 7.899c-1.543 1.531-5.823.93-5.823.93-.149-.133-.388-.319-.753-.6l5.286-5.288c.244-.243.244-.64 0-.883s-.64-.244-.883 0l-5.288 5.287-.594-.743c-.978-1.949-.611-4.286.922-5.832 1.575-1.574 5.648-2.407 8.658-2.642.365-.04 1.28.465 1.114 1.11-.079 1.085-.582 6.603-2.64 8.66l.001.001z" fill="#000"/></g><g clip-path="url(#H)"><path d="M226.146 274.333c-1.666 0-3.021 1.356-3.021 3.021s1.355 3.021 3.021 3.021 3.021-1.356 3.021-3.021-1.355-3.021-3.021-3.021zm0 4.834c-.999 0-1.813-.814-1.813-1.813s.814-1.812 1.813-1.812 1.812.813 1.812 1.812-.813 1.813-1.812 1.813zm3.828-8.459h-7.675l-3.837 6.646 3.837 6.646h7.675l3.836-6.646-3.836-6.646zm-.699 12.084h-6.277l-3.14-5.438 3.14-5.437h6.277l3.141 5.437-3.141 5.438zm-9.775-24.521V255H205v3.271l3.625 3.625v18.45l3.625 3.625 3.625-3.625v-18.45l3.625-3.625zm-5.303 3.979l-4.364 4.363v-4.363h4.364zm.47 3.139l-4.834 5.01v-2.077l4.834-4.833v1.9zm-4.834 6.75l4.834-5.01v1.885l-4.834 5.01v-1.885zm0 3.625l4.834-5.01v1.907l-4.834 5.01v-1.907zm-3.625-19.556h12.084v1.563l-3.271 3.271h-5.542l-3.271-3.271v-1.563zm6.042 26.054l-2.417-2.416v-.435l4.834-5.01v1.884l-2.792 2.88h1.68l1.112-1.145v1.825l-2.417 2.417z" fill="#000"/></g><g stroke-linecap="round" stroke-width=".5"><path stroke="url(#A)" d="M 4.25001 122.75001 L 132.535 122.75"/><path stroke="url(#B)" d="M 0.25001 321.75001 L 128.535 321.75"/><path stroke="url(#C)" d="M 155.25001 122.75001 L 283.535 122.75"/><path stroke="url(#D)" d="M 155.25001 321.75001 L 283.535 321.75"/><path stroke="url(#E)" d="M 306.25001 122.75001 L 434.535 122.75"/><path stroke="url(#F)" d="M 306.25001 321.75001 L 434.535 321.75"/></g><path d="M381 236h43v43l-28 3-15-3v-43z" fill="#fff"/><g fill="#1e1e1e"><path d="M28.717 142.727h1.612l2.159 5.27h.085l2.159-5.27h1.612V150H35.08v-4.996h-.068l-2.01 4.975h-.945l-2.01-4.986h-.067V150h-1.264v-7.273zm10.575 7.383a2.26 2.26 0 0 1-.934-.185 1.52 1.52 0 0 1-.653-.554c-.159-.243-.238-.544-.238-.902 0-.307.057-.562.17-.763a1.32 1.32 0 0 1 .465-.483 2.32 2.32 0 0 1 .664-.273c.246-.061.505-.111.771-.139l.778-.089c.199-.028.343-.071.433-.128s.138-.15.138-.273v-.021c0-.268-.079-.475-.238-.622s-.387-.22-.685-.22c-.315 0-.565.069-.749.206a1.01 1.01 0 0 0-.369.487l-1.2-.171c.095-.331.251-.608.469-.831s.484-.393.799-.504.663-.171 1.044-.171a3.38 3.38 0 0 1 .785.093 2.22 2.22 0 0 1 .714.305 1.54 1.54 0 0 1 .518.572c.13.242.199.543.199.905V150h-1.236v-.749h-.043a1.58 1.58 0 0 1-.33.426 1.6 1.6 0 0 1-.529.316c-.211.078-.458.117-.742.117zm.334-.945c.258 0 .482-.05.671-.152a1.13 1.13 0 0 0 .437-.412 1.05 1.05 0 0 0 .156-.558v-.642a.62.62 0 0 1-.206.092 2.95 2.95 0 0 1-.32.074l-.352.057-.302.043c-.192.026-.363.069-.515.128s-.271.142-.359.248-.131.239-.131.405c0 .237.086.416.259.536s.393.181.66.181zm6.218.942c-.544 0-1.012-.12-1.403-.359a2.39 2.39 0 0 1-.898-.991c-.208-.424-.312-.911-.312-1.463s.107-1.043.32-1.467a2.4 2.4 0 0 1 .902-.994c.388-.237.852-.359 1.385-.359.443 0 .834.082 1.175.245a2.01 2.01 0 0 1 .82.686c.204.293.32.637.348 1.03h-1.229c-.05-.263-.168-.482-.355-.657s-.432-.267-.742-.267a1.16 1.16 0 0 0-.693.213c-.199.14-.354.341-.465.604s-.163.578-.163.945.054.691.163.959.262.469.458.614.432.213.7.213a1.17 1.17 0 0 0 .508-.107 1.01 1.01 0 0 0 .38-.316c.102-.137.172-.304.209-.5h1.229a2.14 2.14 0 0 1-.341 1.026 2.02 2.02 0 0 1-.803.696c-.339.168-.736.249-1.193.249zm7.401-5.38a.97.97 0 0 0-.419-.725c-.244-.173-.561-.259-.952-.259-.275 0-.51.041-.707.124s-.347.195-.451.338a.82.82 0 0 0-.16.486.73.73 0 0 0 .103.394.92.92 0 0 0 .288.284 2.01 2.01 0 0 0 .401.192c.147.052.295.096.444.131l.682.171c.275.064.539.15.792.259a2.83 2.83 0 0 1 .685.412c.201.166.365.366.483.6a1.81 1.81 0 0 1 .178.824c0 .426-.109.801-.327 1.126s-.533.574-.945.756-.905.27-1.488.27c-.566 0-1.057-.088-1.474-.263s-.739-.431-.973-.767-.357-.745-.376-1.228h1.296c.019.253.097.464.234.632a1.24 1.24 0 0 0 .536.376 2.12 2.12 0 0 0 .746.124c.286 0 .537-.042.753-.127s.388-.209.511-.363.186-.338.188-.547a.69.69 0 0 0-.167-.468 1.22 1.22 0 0 0-.458-.313 4.41 4.41 0 0 0-.682-.227l-.827-.213c-.599-.154-1.072-.387-1.42-.7s-.518-.732-.518-1.253c0-.429.116-.804.348-1.126s.553-.572.955-.749.858-.27 1.367-.27c.516 0 .968.09 1.357.27s.697.425.92.742.337.677.345 1.087h-1.268zm3.284 7.318a2.64 2.64 0 0 1-.486-.042c-.147-.026-.264-.057-.352-.092l.298-1.002c.187.055.354.081.501.078a.61.61 0 0 0 .387-.138c.114-.088.21-.235.288-.441l.11-.294-1.978-5.569h1.364l1.257 4.12h.057l1.261-4.12h1.367l-2.184 6.116c-.102.288-.237.536-.405.742a1.65 1.65 0 0 1-.618.476c-.241.111-.53.166-.866.166zm6.248-5.241V150h-1.286v-5.455h1.229v.927h.064a1.56 1.56 0 0 1 .6-.728c.277-.18.619-.27 1.026-.27a1.94 1.94 0 0 1 .984.242 1.63 1.63 0 0 1 .653.699c.153.305.233.676.231 1.112V150h-1.285v-3.274c0-.365-.095-.65-.284-.856s-.446-.309-.778-.309a1.2 1.2 0 0 0-.6.149c-.173.097-.309.238-.408.423s-.146.408-.146.671zm7.187 3.303c-.545 0-1.012-.12-1.403-.359a2.39 2.39 0 0 1-.898-.991c-.208-.424-.312-.911-.312-1.463s.107-1.043.32-1.467a2.4 2.4 0 0 1 .902-.994c.388-.237.852-.359 1.385-.359.443 0 .835.082 1.175.245a2.01 2.01 0 0 1 .82.686c.204.293.32.637.348 1.03h-1.229c-.05-.263-.168-.482-.355-.657s-.432-.267-.742-.267a1.16 1.16 0 0 0-.693.213c-.199.14-.354.341-.465.604s-.163.578-.163.945.054.691.163.959.262.469.458.614.432.213.7.213a1.17 1.17 0 0 0 .508-.107 1.01 1.01 0 0 0 .38-.316c.102-.137.172-.304.209-.5h1.229a2.14 2.14 0 0 1-.341 1.026 2.02 2.02 0 0 1-.803.696c-.339.168-.736.249-1.193.249zm6.698-3.665v1.058H73.39v-1.058h3.274zm1.953-3.715l1.602 2.664h.057l1.609-2.664h1.502l-2.241 3.637L83.422 150h-1.527l-1.619-2.646h-.057L78.599 150h-1.52l2.298-3.636-2.269-3.637h1.509zm8.457 3.108v1.058H83.8v-1.058h3.274zm1.953-3.108l1.602 2.664h.057l1.609-2.664h1.502l-2.241 3.637L93.832 150h-1.527l-1.619-2.646h-.057L89.009 150h-1.52l2.298-3.636-2.269-3.637h1.509zm6.904 0l1.602 2.664h.057l1.609-2.664h1.502l-2.241 3.637 2.276 3.636h-1.527l-1.619-2.646h-.057L95.914 150h-1.52l2.298-3.636-2.269-3.637h1.509zm-60.342 199h1.307v5.114c-.002.469-.102.872-.298 1.211a2 2 0 0 1-.824.778c-.35.179-.759.269-1.225.269-.426 0-.81-.075-1.151-.227s-.607-.381-.806-.682-.298-.674-.298-1.122h1.31a1.01 1.01 0 0 0 .128.508c.083.142.202.251.352.327a1.13 1.13 0 0 0 .515.113c.211 0 .389-.043.536-.131s.258-.223.334-.398.118-.39.121-.646v-5.114zm6.156 4.979v-3.161h1.286V349h-1.247v-.969h-.057a1.64 1.64 0 0 1-.607.749c-.279.194-.624.291-1.033.291-.358 0-.674-.079-.948-.238s-.485-.394-.639-.699-.231-.68-.231-1.116v-3.473h1.285v3.275c0 .345.095.62.284.823s.438.306.746.306a1.17 1.17 0 0 0 .55-.139 1.11 1.11 0 0 0 .437-.412c.116-.184.174-.415.174-.692zm3.893-.902V349H44.35v-5.455h1.229v.927h.064a1.56 1.56 0 0 1 .6-.728c.277-.18.619-.27 1.026-.27a1.94 1.94 0 0 1 .984.242 1.63 1.63 0 0 1 .653.699c.153.305.233.676.231 1.112V349h-1.285v-3.274c0-.365-.095-.65-.284-.856s-.446-.309-.778-.309c-.225 0-.425.05-.6.149a1.03 1.03 0 0 0-.408.423c-.097.184-.146.408-.146.671zm7.188 3.303c-.544 0-1.012-.12-1.403-.359a2.39 2.39 0 0 1-.898-.991c-.208-.424-.312-.911-.312-1.463s.107-1.043.32-1.467a2.4 2.4 0 0 1 .902-.994c.388-.237.852-.359 1.385-.359.443 0 .834.082 1.175.245a2.01 2.01 0 0 1 .82.686c.204.293.32.637.348 1.03h-1.229c-.05-.263-.168-.482-.355-.657s-.432-.267-.742-.267a1.16 1.16 0 0 0-.692.213c-.199.14-.354.341-.465.604s-.163.578-.163.945.055.691.163.959.262.469.458.614.432.213.7.213a1.17 1.17 0 0 0 .508-.107 1.01 1.01 0 0 0 .38-.316 1.21 1.21 0 0 0 .209-.5h1.229a2.14 2.14 0 0 1-.341 1.026 2.02 2.02 0 0 1-.803.696c-.339.168-.736.249-1.193.249zm6.116-5.562v.995h-3.136v-.995h3.136zm-2.361-1.306h1.286v5.12c0 .173.026.306.078.398a.42.42 0 0 0 .213.185.82.82 0 0 0 .291.049c.08 0 .154-.005.22-.017l.156-.032.217 1.005a3.26 3.26 0 0 1-.295.078 2.47 2.47 0 0 1-.462.05c-.322.009-.612-.039-.87-.146a1.34 1.34 0 0 1-.614-.504c-.151-.227-.223-.512-.22-.853v-5.333zM60.014 349v-5.455H61.3V349h-1.285zm.646-6.229a.75.75 0 0 1-.526-.202.65.65 0 0 1-.22-.494c0-.194.073-.358.22-.493a.74.74 0 0 1 .526-.206.73.73 0 0 1 .526.206c.147.135.22.299.22.493a.65.65 0 0 1-.22.494.74.74 0 0 1-.526.202zm4.34 6.336c-.533 0-.994-.118-1.385-.352a2.38 2.38 0 0 1-.909-.984c-.213-.421-.32-.914-.32-1.477s.107-1.057.32-1.481a2.36 2.36 0 0 1 .909-.987c.391-.234.852-.352 1.385-.352s.994.118 1.385.352a2.36 2.36 0 0 1 .906.987c.214.424.323.918.323 1.481s-.108 1.056-.323 1.477a2.36 2.36 0 0 1-.906.984c-.391.234-.852.352-1.385.352zm.007-1.03a1.11 1.11 0 0 0 .724-.238 1.43 1.43 0 0 0 .433-.647c.094-.27.146-.57.146-.902s-.049-.635-.146-.905-.239-.489-.433-.65-.436-.241-.724-.241c-.296 0-.542.08-.739.241a1.46 1.46 0 0 0-.437.65c-.095.27-.142.572-.142.905s.047.633.142.902a1.46 1.46 0 0 0 .437.647c.197.158.443.238.739.238zm4.983-2.273V349h-1.285v-5.455h1.229v.927h.064a1.56 1.56 0 0 1 .6-.728c.277-.18.619-.27 1.026-.27a1.94 1.94 0 0 1 .984.242 1.63 1.63 0 0 1 .653.699c.153.305.233.676.231 1.112V349h-1.285v-3.274c0-.365-.095-.65-.284-.856s-.446-.309-.778-.309a1.2 1.2 0 0 0-.6.149c-.173.097-.309.238-.408.423s-.146.408-.146.671zM77.337 349v-7.273h2.784c.526 0 .962.083 1.31.249s.612.387.785.671.263.606.263.966c0 .296-.057.549-.17.76a1.41 1.41 0 0 1-.458.508c-.192.131-.406.223-.643.28v.071c.258.014.505.094.742.238s.434.343.586.604.227.575.227.944a1.92 1.92 0 0 1-.273 1.016c-.182.298-.457.534-.824.707s-.829.259-1.385.259h-2.944zm1.317-1.101h1.417c.478 0 .823-.091 1.033-.273a.9.9 0 0 0 .32-.711c0-.215-.053-.409-.16-.582a1.12 1.12 0 0 0-.454-.412c-.196-.1-.431-.153-.703-.153h-1.453v2.131zm0-3.079h1.303c.227 0 .432-.041.614-.124s.325-.205.43-.359.16-.341.16-.554c0-.281-.099-.513-.298-.696s-.489-.273-.877-.273h-1.332v2.006zm7.577 4.287c-.533 0-.994-.118-1.385-.352s-.694-.562-.909-.984-.32-.914-.32-1.477.107-1.057.32-1.481a2.38 2.38 0 0 1 .909-.987c.391-.234.852-.352 1.385-.352s.994.118 1.385.352a2.36 2.36 0 0 1 .906.987c.214.424.323.918.323 1.481s-.108 1.056-.323 1.477a2.36 2.36 0 0 1-.906.984c-.391.234-.852.352-1.385.352zm.007-1.03a1.11 1.11 0 0 0 .724-.238 1.43 1.43 0 0 0 .433-.647c.094-.27.145-.57.145-.902s-.049-.635-.145-.905-.239-.489-.433-.65-.436-.241-.724-.241c-.296 0-.542.08-.739.241a1.46 1.46 0 0 0-.437.65c-.095.27-.142.572-.142.905s.047.633.142.902a1.46 1.46 0 0 0 .437.647c.197.158.443.238.739.238zm4.544-4.532l1.101 2.014 1.119-2.014h1.36l-1.644 2.728L94.39 349h-1.353l-1.154-1.964L90.739 349h-1.364l1.662-2.727-1.619-2.728h1.364zm6.197 2.273l.082-1.438-1.207.792-.433-.753 1.289-.646-1.289-.647.433-.752 1.207.791-.082-1.438h.863l-.078 1.438 1.207-.791.433.752-1.293.647 1.293.646-.433.753-1.207-.792.078 1.438h-.863z"/><path d="M183.717 142.727h1.613l2.159 5.27h.085l2.159-5.27h1.612V150h-1.264v-4.996h-.068l-2.009 4.975h-.945l-2.01-4.986h-.067V150h-1.265v-7.273zm11.385 7.38c-.532 0-.994-.118-1.385-.352a2.39 2.39 0 0 1-.909-.984c-.213-.421-.319-.914-.319-1.477s.106-1.057.319-1.481.519-.753.909-.987.853-.352 1.385-.352.995.118 1.385.352a2.36 2.36 0 0 1 .906.987c.213.424.323.918.323 1.481s-.108 1.056-.323 1.477-.515.75-.906.984-.852.352-1.385.352zm.007-1.03c.289 0 .531-.08.725-.238s.338-.377.433-.647a2.7 2.7 0 0 0 .146-.902c0-.332-.049-.635-.146-.905s-.239-.489-.433-.65-.436-.241-.725-.241c-.296 0-.542.08-.738.241a1.46 1.46 0 0 0-.437.65c-.095.27-.142.572-.142.905s.047.633.142.902a1.45 1.45 0 0 0 .437.647c.194.161.442.238.738.238zm7.175-1.371v-3.161h1.285V150h-1.246v-.969h-.057c-.123.305-.326.555-.607.749s-.624.291-1.034.291c-.357 0-.673-.079-.948-.238s-.485-.394-.639-.699-.231-.68-.231-1.116v-3.473h1.286v3.275c0 .345.094.62.284.823s.438.306.745.306c.19 0 .373-.046.551-.139a1.12 1.12 0 0 0 .437-.412c.116-.184.174-.415.174-.692zm3.892-.902V150h-1.285v-5.455h1.229v.927h.064c.125-.305.325-.548.6-.728s.619-.27 1.026-.27a1.94 1.94 0 0 1 .984.242 1.63 1.63 0 0 1 .653.699c.156.306.233.676.231 1.112V150h-1.286v-3.274c0-.365-.094-.65-.284-.856s-.446-.309-.777-.309c-.225 0-.425.05-.601.149a1.04 1.04 0 0 0-.408.423c-.097.184-.146.408-.146.671zm7.532-2.259v.995h-3.135v-.995h3.135zm-2.361-1.306h1.285v5.12c0 .173.026.306.079.398s.125.152.213.185a.82.82 0 0 0 .291.049c.08 0 .154-.005.22-.017l.156-.032.217 1.005c-.069.023-.167.049-.295.078a2.46 2.46 0 0 1-.462.05c-.321.009-.611-.039-.87-.146a1.34 1.34 0 0 1-.614-.504c-.152-.227-.222-.512-.22-.853v-5.333zm3.437 6.761v-5.455h1.285V150h-1.285zm.646-6.229a.75.75 0 0 1-.526-.202c-.146-.137-.22-.302-.22-.494a.65.65 0 0 1 .22-.493.74.74 0 0 1 .526-.206.73.73 0 0 1 .525.206c.147.135.221.299.221.493a.65.65 0 0 1-.221.494.74.74 0 0 1-.525.202zm3.246 3.033V150h-1.285v-5.455h1.229v.927h.064c.125-.305.325-.548.6-.728s.619-.27 1.026-.27a1.94 1.94 0 0 1 .984.242 1.63 1.63 0 0 1 .653.699c.156.306.233.676.231 1.112V150h-1.286v-3.274c0-.365-.094-.65-.284-.856s-.446-.309-.777-.309c-.225 0-.425.05-.601.149a1.04 1.04 0 0 0-.408.423c-.097.184-.146.408-.146.671zm7.181 5.355c-.462 0-.858-.063-1.19-.188s-.598-.289-.799-.497-.341-.439-.419-.693l1.158-.28c.052.106.128.212.227.316a1.15 1.15 0 0 0 .401.263c.168.069.385.106.643.106.365 0 .667-.089.906-.266s.358-.464.358-.867v-1.033h-.064c-.066.132-.163.269-.291.408a1.53 1.53 0 0 1-.5.352c-.208.095-.466.142-.778.142-.419 0-.799-.098-1.14-.295s-.608-.495-.81-.888-.298-.89-.298-1.484.099-1.104.298-1.516.473-.728.814-.941a2.08 2.08 0 0 1 1.139-.324c.32 0 .583.055.789.164a1.57 1.57 0 0 1 .497.387 2.19 2.19 0 0 1 .28.422h.072v-.902h1.267v5.544c0 .466-.111.852-.334 1.157a2.01 2.01 0 0 1-.912.686c-.386.152-.824.227-1.314.227zm.011-3.246c.272 0 .504-.066.696-.199s.337-.323.436-.571.15-.547.15-.895c0-.343-.05-.644-.15-.902s-.241-.458-.433-.6-.422-.217-.699-.217c-.287 0-.526.075-.718.224s-.336.354-.433.614a2.5 2.5 0 0 0-.146.881c0 .334.049.626.146.877s.245.443.437.582.432.206.714.206zm12.629-3.732h-1.328a1.67 1.67 0 0 0-.209-.579 1.57 1.57 0 0 0-.38-.433c-.152-.118-.325-.207-.519-.266a2.01 2.01 0 0 0-.621-.093c-.396 0-.746.1-1.052.299s-.544.485-.717.866-.259.842-.259 1.389c0 .556.086 1.025.259 1.406s.414.665.717.859a1.93 1.93 0 0 0 1.048.288 2.15 2.15 0 0 0 .611-.085c.192-.06.363-.146.515-.26a1.55 1.55 0 0 0 .387-.419 1.58 1.58 0 0 0 .22-.568l1.328.007c-.05.346-.157.67-.323.973a2.87 2.87 0 0 1-.643.803 2.97 2.97 0 0 1-.93.54c-.355.128-.749.191-1.183.191-.639 0-1.209-.148-1.711-.443a3.09 3.09 0 0 1-1.186-1.282c-.288-.558-.434-1.229-.434-2.01s.146-1.454.437-2.01.688-.986 1.19-1.282 1.07-.444 1.704-.444a3.64 3.64 0 0 1 1.13.17 2.9 2.9 0 0 1 .93.501 2.66 2.66 0 0 1 .671.803 2.96 2.96 0 0 1 .348 1.079zm2.435-2.454V150h-1.285v-7.273h1.285zm1.322 7.273v-5.455h1.286V150h-1.286zm.647-6.229a.75.75 0 0 1-.526-.202.65.65 0 0 1-.22-.494c0-.194.073-.358.22-.493a.74.74 0 0 1 .526-.206.73.73 0 0 1 .525.206c.147.135.22.299.22.493a.65.65 0 0 1-.22.494.74.74 0 0 1-.525.202zm1.961 8.274v-7.5h1.264v.902h.074a2.41 2.41 0 0 1 .281-.422c.121-.152.284-.281.49-.387s.469-.164.788-.164c.422 0 .802.108 1.14.324s.611.529.81.948.302.928.302 1.534c0 .599-.098 1.108-.295 1.527s-.464.738-.802.959-.723.33-1.151.33c-.313 0-.572-.052-.778-.156s-.371-.23-.497-.377a2.48 2.48 0 0 1-.288-.422h-.053v2.904h-1.285zm1.26-4.772a2.65 2.65 0 0 0 .149.927c.102.265.248.472.437.621a1.11 1.11 0 0 0 .696.22c.284 0 .522-.076.714-.227a1.38 1.38 0 0 0 .433-.629c.097-.266.149-.571.149-.912s-.048-.639-.145-.902-.242-.469-.433-.618-.431-.224-.718-.224c-.274 0-.508.072-.699.217a1.34 1.34 0 0 0-.437.607c-.099.26-.146.567-.146.92zm-67.405 194.454h1.613l2.159 5.27h.085l2.159-5.27h1.612V349h-1.264v-4.996h-.068l-2.009 4.975h-.945l-2.01-4.986h-.067V349h-1.265v-7.273zm11.385 7.38c-.532 0-.994-.118-1.385-.352a2.39 2.39 0 0 1-.909-.984c-.213-.421-.319-.914-.319-1.477s.106-1.057.319-1.481.519-.753.909-.987.853-.352 1.385-.352.995.118 1.385.352a2.36 2.36 0 0 1 .906.987c.213.424.323.918.323 1.481s-.108 1.056-.323 1.477-.515.75-.906.984-.852.352-1.385.352zm.007-1.03c.289 0 .531-.08.725-.238s.338-.377.433-.647a2.7 2.7 0 0 0 .146-.902c0-.332-.049-.635-.146-.905s-.239-.489-.433-.65-.436-.241-.725-.241c-.296 0-.542.08-.738.241a1.46 1.46 0 0 0-.437.65c-.095.27-.142.572-.142.905s.047.633.142.902a1.45 1.45 0 0 0 .437.647c.194.161.442.238.738.238zm7.175-1.371v-3.161h1.285V349h-1.246v-.969h-.057c-.123.305-.326.555-.607.749s-.624.291-1.034.291c-.357 0-.673-.079-.948-.238s-.485-.394-.639-.699-.231-.68-.231-1.116v-3.473h1.286v3.275c0 .345.094.62.284.823s.438.306.745.306c.19 0 .373-.046.551-.139a1.12 1.12 0 0 0 .437-.412c.116-.184.174-.415.174-.692zm3.892-.902V349h-1.285v-5.455h1.229v.927h.064c.125-.305.325-.548.6-.728s.619-.27 1.026-.27a1.94 1.94 0 0 1 .984.242 1.63 1.63 0 0 1 .653.699c.156.306.233.676.231 1.112V349h-1.286v-3.274c0-.365-.094-.65-.284-.856s-.446-.309-.777-.309c-.225 0-.425.05-.601.149a1.04 1.04 0 0 0-.408.423c-.097.184-.146.408-.146.671zm7.532-2.259v.995h-3.135v-.995h3.135zm-2.361-1.306h1.285v5.12c0 .173.026.306.079.398s.125.152.213.185a.82.82 0 0 0 .291.049c.08 0 .154-.005.22-.017l.156-.032.217 1.005c-.069.023-.167.049-.295.078a2.46 2.46 0 0 1-.462.05c-.321.009-.611-.039-.87-.146a1.34 1.34 0 0 1-.614-.504c-.152-.227-.222-.512-.22-.853v-5.333zm3.437 6.761v-5.455h1.285V349h-1.285zm.646-6.229a.75.75 0 0 1-.526-.202c-.146-.137-.22-.302-.22-.494a.65.65 0 0 1 .22-.493.74.74 0 0 1 .526-.206.73.73 0 0 1 .525.206c.147.135.221.299.221.493a.65.65 0 0 1-.221.494.74.74 0 0 1-.525.202zm3.246 3.033V349h-1.285v-5.455h1.229v.927h.064c.125-.305.325-.548.6-.728s.619-.27 1.026-.27a1.94 1.94 0 0 1 .984.242 1.63 1.63 0 0 1 .653.699c.156.306.233.676.231 1.112V349h-1.286v-3.274c0-.365-.094-.65-.284-.856s-.446-.309-.777-.309c-.225 0-.425.05-.601.149a1.04 1.04 0 0 0-.408.423c-.097.184-.146.408-.146.671zm7.181 5.355c-.462 0-.858-.063-1.19-.188s-.598-.289-.799-.497-.341-.439-.419-.693l1.158-.28c.052.106.128.212.227.316a1.15 1.15 0 0 0 .401.263c.168.069.385.106.643.106.365 0 .667-.089.906-.266s.358-.464.358-.867v-1.033h-.064c-.066.132-.163.269-.291.408a1.53 1.53 0 0 1-.5.352c-.208.095-.466.142-.778.142-.419 0-.799-.098-1.14-.295s-.608-.495-.81-.888-.298-.89-.298-1.484.099-1.104.298-1.516.473-.728.814-.941a2.08 2.08 0 0 1 1.139-.324c.32 0 .583.055.789.164a1.57 1.57 0 0 1 .497.387 2.19 2.19 0 0 1 .28.422h.072v-.902h1.267v5.544c0 .466-.111.852-.334 1.157a2.01 2.01 0 0 1-.912.686c-.386.152-.824.227-1.314.227zm.011-3.246c.272 0 .504-.066.696-.199s.337-.323.436-.571.15-.547.15-.895a2.47 2.47 0 0 0-.15-.902c-.1-.258-.241-.458-.433-.6s-.422-.217-.699-.217c-.287 0-.526.075-.718.224s-.336.354-.433.614a2.5 2.5 0 0 0-.146.881c0 .329.049.626.146.877s.245.443.437.582.432.206.714.206zm10.356-4.186c-.033-.311-.172-.552-.419-.725s-.561-.259-.951-.259c-.275 0-.51.041-.707.124s-.347.195-.451.338-.157.304-.16.486a.74.74 0 0 0 .103.394.94.94 0 0 0 .288.284 2.01 2.01 0 0 0 .401.192c.147.052.295.096.444.131l.682.171c.274.064.538.15.792.259a2.79 2.79 0 0 1 .685.412c.204.166.365.366.483.6a1.81 1.81 0 0 1 .178.824c0 .426-.109.801-.327 1.126s-.533.574-.945.756-.905.27-1.488.27c-.565 0-1.057-.088-1.473-.263s-.739-.431-.973-.767-.358-.745-.377-1.228h1.296c.019.253.097.464.235.632a1.24 1.24 0 0 0 .536.376c.223.083.471.124.746.124.286 0 .537-.042.753-.127s.388-.209.511-.363a.87.87 0 0 0 .188-.547.69.69 0 0 0-.167-.468c-.109-.126-.261-.23-.458-.313a4.73 4.73 0 0 0-.682-.227l-.827-.213c-.599-.154-1.073-.387-1.421-.7s-.518-.732-.518-1.253c0-.429.116-.804.348-1.126s.553-.572.955-.749.858-.27 1.367-.27c.517 0 .969.09 1.357.27a2.21 2.21 0 0 1 .92.742c.222.315.337.677.344 1.087h-1.268zm4.865 5.38c-.545 0-1.012-.12-1.403-.359s-.688-.569-.899-.991-.312-.911-.312-1.463.106-1.043.32-1.467a2.38 2.38 0 0 1 .902-.994c.39-.239.852-.359 1.384-.359.443 0 .835.082 1.176.245s.617.39.82.686.32.637.348 1.03h-1.228c-.05-.263-.169-.482-.356-.657s-.432-.267-.742-.267a1.16 1.16 0 0 0-.692.213c-.199.14-.354.341-.465.604s-.164.578-.164.945.055.691.164.959.261.469.458.614.432.213.699.213c.19 0 .359-.036.508-.107a1.01 1.01 0 0 0 .38-.316 1.21 1.21 0 0 0 .21-.5h1.228c-.031.386-.144.728-.341 1.026s-.464.528-.802.696-.736.249-1.193.249zm3.392-.107v-5.455h1.246v.91h.057c.1-.315.27-.558.511-.728a1.42 1.42 0 0 1 .835-.26l.238.011c.09.005.164.013.224.025v1.182c-.055-.019-.141-.035-.26-.049a2.32 2.32 0 0 0-.337-.025 1.31 1.31 0 0 0-.632.152 1.12 1.12 0 0 0-.437.416c-.106.178-.16.382-.16.614V349h-1.285zm6.155.107c-.547 0-1.019-.114-1.417-.341s-.7-.554-.913-.973-.319-.918-.319-1.488c0-.561.106-1.054.319-1.478a2.42 2.42 0 0 1 .902-.994c.386-.239.84-.359 1.36-.359a2.75 2.75 0 0 1 .952.164c.301.106.566.272.796.497s.414.511.546.859.199.758.199 1.236v.394h-4.471v-.866h3.239c-.002-.246-.056-.465-.16-.657a1.16 1.16 0 0 0-.437-.458c-.184-.112-.4-.167-.646-.167a1.25 1.25 0 0 0-.692.192c-.199.125-.354.291-.466.497s-.164.427-.166.671v.756c0 .318.058.59.174.817s.278.398.486.519.452.177.732.177a1.55 1.55 0 0 0 .507-.078 1.13 1.13 0 0 0 .395-.238c.111-.104.195-.233.252-.387l1.2.135c-.076.317-.22.594-.433.831a2.1 2.1 0 0 1-.81.547c-.329.13-.705.192-1.129.192zm4.609-.107l-1.541-5.455h1.31l.959 3.836h.05l.98-3.836h1.296l.98 3.814h.054l.944-3.814h1.314L255.046 349h-1.338l-1.023-3.686h-.075L251.588 349h-1.343zm11.555-4.013l-1.172.128a.94.94 0 0 0-.174-.334c-.081-.104-.19-.188-.327-.252s-.305-.096-.504-.096c-.268 0-.493.058-.675.174s-.269.267-.266.451c-.003.159.055.288.174.387s.319.181.596.245l.931.199c.516.111.899.288 1.15.529s.382.558.384.948a1.48 1.48 0 0 1-.302.91 1.93 1.93 0 0 1-.82.61c-.351.147-.753.221-1.208.221-.667 0-1.205-.14-1.612-.419a1.68 1.68 0 0 1-.728-1.176l1.254-.121c.057.247.177.432.362.558s.425.188.721.188c.305 0 .55-.063.735-.188s.28-.281.28-.465a.48.48 0 0 0-.181-.387c-.118-.102-.303-.18-.554-.235l-.93-.195c-.523-.109-.91-.292-1.161-.551s-.376-.589-.373-.987c-.003-.336.089-.627.273-.873s.447-.441.778-.576.719-.206 1.154-.206c.639 0 1.142.137 1.509.409s.598.64.686 1.104z"/><path d="M308.302 142.727h1.317v4.752c0 .521-.123.979-.369 1.374a2.5 2.5 0 0 1-1.03.927c-.443.22-.96.33-1.552.33s-1.112-.11-1.555-.33a2.5 2.5 0 0 1-1.03-.927c-.244-.395-.366-.853-.366-1.374v-4.752h1.318v4.642a1.62 1.62 0 0 0 .199.809c.135.237.324.423.568.558s.533.199.866.199.623-.067.867-.199a1.42 1.42 0 0 0 .568-.558 1.62 1.62 0 0 0 .199-.809v-4.642zm7.004 3.26l-1.172.128a.94.94 0 0 0-.174-.334c-.081-.104-.19-.188-.327-.252s-.305-.096-.504-.096c-.268 0-.493.058-.675.174s-.269.267-.266.451c-.003.159.055.288.174.387s.319.181.596.245l.931.199c.516.111.899.288 1.15.529s.381.558.384.948c-.003.344-.103.647-.302.91s-.47.464-.82.61-.753.221-1.208.221c-.667 0-1.205-.14-1.612-.419s-.65-.674-.728-1.176l1.254-.121c.056.247.177.432.362.558s.425.188.721.188c.305 0 .55-.063.735-.188s.28-.281.28-.465a.48.48 0 0 0-.181-.387c-.118-.102-.303-.18-.554-.235l-.93-.195c-.523-.109-.91-.292-1.161-.551s-.376-.589-.373-.987a1.39 1.39 0 0 1 .273-.873c.187-.249.446-.441.778-.576s.718-.206 1.154-.206c.639 0 1.142.137 1.509.409s.598.64.686 1.104zm3.592 4.12c-.547 0-1.02-.114-1.417-.341s-.7-.554-.913-.973-.32-.918-.32-1.488c0-.561.107-1.054.32-1.478s.516-.757.902-.994.839-.359 1.36-.359c.336 0 .653.055.952.164a2.14 2.14 0 0 1 .795.497c.232.225.415.511.547.859s.199.758.199 1.236v.394h-4.471v-.866h3.239c-.003-.246-.056-.465-.16-.657a1.16 1.16 0 0 0-.437-.458c-.185-.112-.4-.167-.646-.167-.263 0-.494.064-.693.192s-.354.291-.465.497-.164.427-.167.671v.756c0 .318.058.59.174.817a1.24 1.24 0 0 0 .487.519c.208.118.452.177.731.177.187 0 .357-.026.508-.078s.283-.134.394-.238a.97.97 0 0 0 .252-.387l1.201.135a1.87 1.87 0 0 1-.434.831c-.21.234-.48.417-.809.547a3.1 3.1 0 0 1-1.129.192zm3.513-.107v-5.455h1.246v.91h.057c.099-.315.27-.558.511-.728s.522-.26.835-.26l.238.011a1.6 1.6 0 0 1 .223.025v1.182c-.054-.019-.141-.035-.259-.049a2.32 2.32 0 0 0-.337-.025c-.235 0-.445.051-.632.152s-.331.238-.437.416-.16.382-.16.614V150h-1.285zm6.445 0v-5.455h1.229v.927h.063c.114-.312.302-.556.565-.731s.577-.267.941-.267c.369 0 .681.09.934.27s.436.421.54.728h.057c.12-.303.324-.544.61-.724s.631-.274 1.027-.274c.502 0 .911.159 1.228.476s.476.78.476 1.389V150h-1.289v-3.462c0-.339-.09-.586-.27-.743s-.4-.237-.66-.237c-.31 0-.553.097-.728.291s-.259.441-.259.749V150h-1.261v-3.516c0-.281-.085-.506-.256-.674s-.388-.252-.66-.252c-.185 0-.353.047-.505.142s-.272.223-.362.394-.135.364-.135.589V150h-1.285zm10.544.11a2.26 2.26 0 0 1-.934-.185c-.275-.125-.492-.31-.653-.554s-.238-.544-.238-.902c0-.307.057-.562.17-.763a1.33 1.33 0 0 1 .465-.483 2.33 2.33 0 0 1 .664-.273c.249-.064.506-.111.771-.139l.778-.089c.199-.028.343-.071.433-.128s.138-.15.138-.273v-.021c0-.268-.079-.475-.237-.622s-.388-.22-.686-.22c-.315 0-.564.069-.749.206s-.305.3-.369.487l-1.201-.171c.095-.331.251-.608.469-.831s.484-.393.799-.504.663-.171 1.044-.171a3.38 3.38 0 0 1 .785.093c.26.061.498.163.714.305s.388.33.518.572.199.543.199.905V150h-1.236v-.749h-.042c-.079.151-.189.293-.331.426s-.316.235-.529.316-.458.117-.742.117zm.334-.945c.258 0 .482-.05.671-.152s.335-.242.437-.412a1.05 1.05 0 0 0 .156-.558v-.642c-.04.033-.109.063-.206.092s-.201.053-.32.074l-.351.057-.302.043c-.192.026-.363.069-.515.128s-.271.142-.359.248a.61.61 0 0 0-.131.405c0 .237.087.416.259.536s.393.181.661.181zm5.124-2.361V150h-1.285v-5.455h1.228v.927h.064c.126-.305.326-.548.6-.728s.619-.27 1.027-.27c.376 0 .704.081.983.242s.5.394.654.699.233.676.231 1.112V150h-1.286v-3.274c0-.365-.095-.65-.284-.856s-.446-.309-.778-.309c-.225 0-.425.05-.6.149s-.309.238-.408.423-.146.408-.146.671zm8.285.902v-3.161h1.285V150h-1.246v-.969h-.057c-.123.305-.325.555-.607.749s-.624.291-1.033.291a1.86 1.86 0 0 1-.949-.238c-.272-.161-.485-.394-.639-.699s-.231-.68-.231-1.116v-3.473h1.286v3.275c0 .345.095.62.284.823s.438.306.746.306a1.17 1.17 0 0 0 .55-.139c.178-.092.323-.229.437-.412s.174-.415.174-.692zm4.177 2.404a2.26 2.26 0 0 1-.934-.185c-.275-.125-.492-.31-.653-.554s-.238-.544-.238-.902c0-.307.056-.562.17-.763a1.33 1.33 0 0 1 .465-.483 2.33 2.33 0 0 1 .664-.273c.249-.064.506-.111.771-.139l.778-.089c.199-.028.343-.071.433-.128s.138-.15.138-.273v-.021c0-.268-.079-.475-.238-.622s-.387-.22-.685-.22c-.315 0-.565.069-.749.206s-.306.3-.369.487l-1.201-.171c.095-.331.251-.608.469-.831s.484-.393.799-.504.663-.171 1.044-.171a3.38 3.38 0 0 1 .785.093c.26.061.498.163.714.305s.388.33.518.572.199.543.199.905V150h-1.236v-.749h-.042c-.079.151-.189.293-.331.426s-.316.235-.529.316-.458.117-.742.117zm.334-.945c.258 0 .482-.05.671-.152s.335-.242.437-.412a1.05 1.05 0 0 0 .156-.558v-.642c-.04.033-.109.063-.206.092s-.201.053-.32.074l-.351.057-.302.043c-.192.026-.363.069-.515.128s-.271.142-.359.248a.61.61 0 0 0-.131.405c0 .237.086.416.259.536s.393.181.661.181zm5.124-6.438V150h-1.285v-7.273h1.285zm5.976 7.38c-.497 0-.925-.09-1.282-.27a2.04 2.04 0 0 1-.828-.728c-.191-.308-.287-.655-.287-1.041 0-.291.059-.549.177-.774a2.37 2.37 0 0 1 .497-.625 6.93 6.93 0 0 1 .739-.572l1.289-.877c.19-.123.333-.253.43-.39s.149-.299.149-.483c0-.157-.066-.305-.199-.444a.7.7 0 0 0-.54-.21.76.76 0 0 0-.408.11c-.116.071-.207.165-.273.281s-.096.239-.096.369a1.01 1.01 0 0 0 .131.483 3.5 3.5 0 0 0 .348.508l.462.557 3.412 3.999h-1.392l-2.834-3.246-.61-.728c-.194-.239-.354-.487-.48-.745a1.96 1.96 0 0 1-.184-.846c0-.343.079-.649.238-.919a1.69 1.69 0 0 1 .664-.643c.286-.156.621-.235 1.005-.235s.712.076.987.228.486.353.635.603a1.57 1.57 0 0 1 .224.821c0 .343-.085.651-.256.923a2.69 2.69 0 0 1-.71.735l-1.47 1.076c-.241.175-.414.353-.518.533s-.157.329-.157.454a.97.97 0 0 0 .146.522c.097.157.233.282.408.377s.385.138.622.138c.26 0 .517-.058.77-.174s.485-.286.693-.504.374-.478.497-.781.185-.644.185-1.016h1.104c0 .459-.051.86-.153 1.2s-.233.625-.394.86-.331.418-.511.557l-.164.121-.163.121a2.4 2.4 0 0 1-.898.511 3.29 3.29 0 0 1-1.005.164zm8.525-.107l-2.052-7.273h1.416l1.311 5.345h.067l1.399-5.345h1.29l1.402 5.348h.064l1.311-5.348h1.416L382.851 150h-1.3l-1.456-5.103h-.057L378.579 150h-1.3zm9.494.11a2.26 2.26 0 0 1-.934-.185c-.274-.125-.492-.31-.653-.554s-.238-.544-.238-.902c0-.307.057-.562.17-.763a1.33 1.33 0 0 1 .465-.483c.197-.121.418-.212.665-.273s.505-.111.77-.139l.778-.089c.199-.028.343-.071.433-.128s.139-.15.139-.273v-.021c0-.268-.08-.475-.238-.622s-.387-.22-.686-.22c-.315 0-.564.069-.749.206s-.305.3-.369.487l-1.201-.171c.095-.331.251-.608.469-.831s.484-.393.799-.504.663-.171 1.044-.171c.263 0 .525.031.785.093s.498.163.714.305.388.33.518.572.199.543.199.905V150h-1.236v-.749h-.042c-.078.151-.189.293-.331.426s-.316.235-.529.316-.458.117-.742.117zm.334-.945c.258 0 .482-.05.671-.152s.335-.242.437-.412a1.05 1.05 0 0 0 .156-.558v-.642c-.04.033-.109.063-.206.092a2.97 2.97 0 0 1-.319.074l-.352.057-.302.043c-.192.026-.363.069-.515.128s-.271.142-.358.248-.132.239-.132.405c0 .237.087.416.259.536s.393.181.661.181zm3.839.835v-5.455h1.246v.91h.057c.099-.315.27-.558.511-.728s.522-.26.835-.26l.238.011a1.6 1.6 0 0 1 .223.025v1.182c-.054-.019-.14-.035-.259-.049a2.32 2.32 0 0 0-.337-.025c-.235 0-.445.051-.632.152a1.12 1.12 0 0 0-.437.416c-.107.178-.16.382-.16.614V150h-1.285zm3.965 0v-5.455h1.246v.91h.057c.099-.315.27-.558.511-.728s.522-.26.835-.26l.238.011a1.6 1.6 0 0 1 .223.025v1.182c-.054-.019-.141-.035-.259-.049a2.32 2.32 0 0 0-.337-.025c-.235 0-.445.051-.632.152s-.331.238-.437.416-.16.382-.16.614V150h-1.285zm5.436.11c-.345 0-.657-.061-.934-.185s-.492-.31-.653-.554-.238-.544-.238-.902c0-.307.057-.562.17-.763s.269-.362.466-.483a2.32 2.32 0 0 1 .664-.273c.248-.064.505-.111.77-.139l.778-.089c.199-.028.343-.071.433-.128a.3.3 0 0 0 .139-.273v-.021c0-.268-.08-.475-.238-.622s-.387-.22-.686-.22c-.314 0-.564.069-.749.206s-.305.3-.369.487l-1.2-.171c.094-.331.251-.608.468-.831s.484-.393.799-.504.663-.171 1.044-.171c.263 0 .525.031.785.093a2.19 2.19 0 0 1 .714.305c.215.14.388.33.518.572s.199.543.199.905V150h-1.236v-.749h-.042a1.58 1.58 0 0 1-.33.426c-.14.13-.316.235-.53.316s-.458.117-.742.117zm.334-.945c.258 0 .482-.05.671-.152a1.13 1.13 0 0 0 .437-.412 1.05 1.05 0 0 0 .156-.558v-.642c-.04.033-.109.063-.206.092s-.201.053-.319.074l-.352.057-.302.043a2.27 2.27 0 0 0-.515.128c-.151.059-.271.142-.358.248s-.132.239-.132.405c0 .237.087.416.26.536s.393.181.66.181zm5.124-2.361V150h-1.285v-5.455h1.229v.927h.063c.126-.305.326-.548.601-.728s.619-.27 1.026-.27a1.94 1.94 0 0 1 .984.242 1.63 1.63 0 0 1 .653.699c.156.306.233.676.231 1.112V150h-1.286v-3.274c0-.365-.094-.65-.284-.856s-.446-.309-.777-.309c-.225 0-.425.05-.601.149s-.309.238-.408.423-.146.408-.146.671zm7.532-2.259v.995h-3.135v-.995h3.135zm-2.361-1.306h1.285v5.12c0 .173.026.306.078.398s.126.152.214.185.184.049.291.049c.08 0 .154-.005.22-.017l.156-.032.217 1.005c-.069.023-.167.049-.295.078a2.46 2.46 0 0 1-.462.05c-.322.009-.612-.039-.87-.146s-.462-.277-.614-.504-.223-.512-.22-.853v-5.333zm4.235 8.806c-.175 0-.337-.014-.486-.042s-.264-.057-.352-.092l.299-1.002c.187.055.354.081.5.078a.61.61 0 0 0 .387-.138c.114-.088.21-.235.288-.441l.11-.294-1.978-5.569h1.364l1.257 4.12h.057l1.26-4.12h1.368l-2.184 6.116c-.102.288-.237.536-.405.742a1.65 1.65 0 0 1-.618.476c-.242.111-.53.166-.867.166zm13.726-6.864h-1.329a1.63 1.63 0 0 0-.209-.579c-.102-.17-.228-.315-.38-.433a1.59 1.59 0 0 0-.518-.266 2.01 2.01 0 0 0-.622-.093c-.395 0-.746.1-1.051.299a1.95 1.95 0 0 0-.717.866c-.173.379-.26.842-.26 1.389 0 .556.087 1.025.26 1.406s.414.665.717.859.655.288 1.048.288a2.14 2.14 0 0 0 .61-.085c.192-.06.364-.146.515-.26s.283-.253.387-.419.18-.355.22-.568l1.329.007a2.86 2.86 0 0 1-.324.973c-.163.303-.377.571-.642.803s-.576.409-.931.54-.749.191-1.182.191c-.639 0-1.21-.148-1.712-.443s-.897-.724-1.186-1.282-.433-1.229-.433-2.01.145-1.454.437-2.01.687-.986 1.189-1.282 1.07-.444 1.705-.444c.405 0 .781.057 1.129.17a2.9 2.9 0 0 1 .93.501c.273.218.496.485.672.803s.293.674.348 1.079zm2.719 4.929a2.26 2.26 0 0 1-.934-.185c-.275-.125-.492-.31-.653-.554s-.238-.544-.238-.902c0-.307.056-.562.17-.763a1.33 1.33 0 0 1 .465-.483 2.33 2.33 0 0 1 .664-.273c.249-.064.506-.111.771-.139l.778-.089c.198-.028.343-.071.433-.128s.138-.15.138-.273v-.021c0-.268-.079-.475-.238-.622s-.387-.22-.685-.22c-.315 0-.565.069-.749.206a1.02 1.02 0 0 0-.37.487l-1.2-.171c.095-.331.251-.608.469-.831s.484-.393.799-.504.663-.171 1.044-.171a3.38 3.38 0 0 1 .785.093c.26.061.498.163.714.305s.388.33.518.572.199.543.199.905V150H433.3v-.749h-.043a1.58 1.58 0 0 1-.33.426c-.139.13-.316.235-.529.316s-.458.117-.742.117zm.334-.945c.258 0 .481-.05.671-.152s.335-.242.437-.412a1.05 1.05 0 0 0 .156-.558v-.642c-.04.033-.109.063-.206.092s-.201.053-.32.074l-.351.057-.302.043c-.192.026-.363.069-.515.128s-.271.142-.359.248a.61.61 0 0 0-.131.405c0 .237.086.416.259.536s.393.181.661.181zm3.838.835v-5.455h1.247v.91h.057c.099-.315.27-.558.511-.728s.522-.26.835-.26l.238.011a1.6 1.6 0 0 1 .223.025v1.182c-.054-.019-.141-.035-.259-.049a2.32 2.32 0 0 0-.337-.025c-.235 0-.445.051-.632.152s-.331.238-.437.416-.16.382-.16.614V150h-1.286zm5.765.096c-.429 0-.812-.11-1.151-.33s-.606-.54-.802-.959-.295-.928-.295-1.527c0-.606.099-1.118.298-1.534s.473-.735.813-.948.721-.324 1.14-.324c.32 0 .583.055.789.164s.369.235.49.387.214.29.28.422h.054v-2.72h1.289V150h-1.265v-.859h-.078a2.21 2.21 0 0 1-.287.422c-.126.147-.291.272-.497.377s-.466.156-.778.156zm.359-1.055a1.11 1.11 0 0 0 .696-.22c.191-.149.337-.356.436-.621s.149-.575.149-.927-.049-.66-.149-.92-.241-.463-.433-.607-.422-.217-.699-.217c-.287 0-.526.075-.718.224a1.35 1.35 0 0 0-.433.618c-.097.263-.146.563-.146.902a2.66 2.66 0 0 0 .146.912c.099.266.245.475.437.629s.432.227.714.227z"/><path d="M333.717 349v-7.273h2.728c.558 0 1.027.104 1.406.313s.669.495.863.859.295.774.295 1.236-.099.881-.295 1.243-.487.647-.87.856-.856.309-1.417.309h-1.808v-1.083h1.63c.327 0 .595-.057.803-.171s.362-.27.461-.469a1.48 1.48 0 0 0 .153-.685c0-.258-.051-.485-.153-.682s-.254-.349-.465-.458-.477-.167-.806-.167h-1.207V349h-1.318zm8.68.107c-.532 0-.994-.118-1.385-.352a2.39 2.39 0 0 1-.909-.984c-.213-.421-.319-.914-.319-1.477s.106-1.057.319-1.481.519-.753.909-.987.853-.352 1.385-.352.995.118 1.385.352.693.563.906.987.323.918.323 1.481-.108 1.056-.323 1.477-.515.75-.906.984-.852.352-1.385.352zm.007-1.03c.289 0 .531-.08.725-.238s.338-.377.433-.647.146-.57.146-.902-.049-.635-.146-.905-.239-.489-.433-.65-.436-.241-.725-.241c-.296 0-.542.08-.738.241a1.46 1.46 0 0 0-.437.65c-.095.27-.142.572-.142.905s.047.633.142.902.243.486.437.647.442.238.738.238zm4.667.923l-1.541-5.455h1.311l.958 3.836h.05l.98-3.836h1.296l.98 3.814h.054l.944-3.814h1.314L351.873 349h-1.339l-1.023-3.686h-.075L348.414 349h-1.343zm9.502.107c-.547 0-1.019-.114-1.417-.341a2.31 2.31 0 0 1-.912-.973c-.213-.422-.32-.918-.32-1.488 0-.561.107-1.054.32-1.478s.516-.757.902-.994.839-.359 1.36-.359c.336 0 .653.055.952.164a2.15 2.15 0 0 1 .795.497c.232.225.414.511.547.859s.199.758.199 1.236v.394h-4.471v-.866h3.239c-.003-.246-.056-.465-.16-.657a1.16 1.16 0 0 0-.437-.458c-.185-.112-.4-.167-.646-.167-.263 0-.494.064-.693.192s-.354.291-.465.497-.165.427-.167.671v.756c0 .318.058.59.174.817a1.24 1.24 0 0 0 .487.519c.208.118.452.177.731.177a1.56 1.56 0 0 0 .508-.078c.151-.054.283-.134.394-.238s.195-.233.252-.387l1.2.135c-.075.317-.22.594-.433.831s-.48.417-.809.547-.706.192-1.13.192zm3.513-.107v-5.455h1.247v.91h.057c.099-.315.269-.558.511-.728s.522-.26.834-.26l.238.011c.09.005.165.013.224.025v1.182c-.054-.019-.141-.035-.259-.049a2.33 2.33 0 0 0-.338-.025 1.31 1.31 0 0 0-.632.152 1.12 1.12 0 0 0-.436.416c-.107.178-.16.382-.16.614V349h-1.286zm7.436 0h-1.406l2.56-7.273h1.627l2.564 7.273h-1.406l-1.943-5.781h-.057L367.522 349zm.047-2.852h3.835v1.059h-3.835v-1.059zm8.057 2.948c-.428 0-.812-.11-1.151-.33s-.606-.54-.802-.959-.295-.928-.295-1.527c0-.606.1-1.118.298-1.534s.473-.735.814-.948.721-.324 1.14-.324c.319 0 .582.055.788.164s.369.235.49.387a2.41 2.41 0 0 1 .281.422h.053v-2.72h1.289V349h-1.264v-.859h-.078c-.067.132-.163.273-.288.422s-.291.272-.497.377-.465.156-.778.156zm.359-1.055a1.11 1.11 0 0 0 .696-.22c.192-.149.337-.356.437-.621a2.65 2.65 0 0 0 .149-.927c0-.353-.05-.66-.149-.92s-.242-.463-.434-.607-.422-.217-.699-.217c-.287 0-.526.075-.718.224s-.336.355-.433.618-.145.563-.145.902a2.66 2.66 0 0 0 .145.912c.1.266.245.475.437.629s.432.227.714.227zm5.485 1.069c-.345 0-.657-.061-.934-.185s-.492-.31-.653-.554-.238-.544-.238-.902c0-.307.057-.562.171-.763s.268-.362.465-.483a2.32 2.32 0 0 1 .664-.273c.248-.064.505-.111.77-.139l.778-.089c.199-.028.343-.071.433-.128a.3.3 0 0 0 .139-.273v-.021c0-.268-.08-.475-.238-.622s-.387-.22-.685-.22c-.315 0-.565.069-.75.206s-.305.3-.369.487l-1.2-.171c.094-.331.251-.608.468-.831s.485-.393.799-.504.663-.171 1.044-.171c.263 0 .525.031.785.093a2.19 2.19 0 0 1 .714.305c.215.14.388.33.518.572s.199.543.199.905V349h-1.235v-.749h-.043a1.58 1.58 0 0 1-.33.426c-.14.13-.316.235-.529.316s-.459.117-.743.117zm.334-.945c.258 0 .482-.05.671-.152a1.13 1.13 0 0 0 .437-.412 1.05 1.05 0 0 0 .156-.558v-.642c-.04.033-.109.063-.206.092s-.201.053-.319.074l-.352.057-.302.043a2.27 2.27 0 0 0-.515.128c-.151.059-.271.142-.358.248s-.132.239-.132.405c0 .237.087.416.26.536s.393.181.66.181zm3.839 2.88v-7.5h1.264v.902h.075a2.4 2.4 0 0 1 .28-.422c.121-.152.284-.281.49-.387s.469-.164.789-.164c.421 0 .801.108 1.14.324s.61.529.809.948.302.928.302 1.534c0 .599-.098 1.108-.295 1.527s-.464.738-.802.959-.722.33-1.151.33c-.312 0-.572-.052-.777-.156s-.372-.23-.498-.377-.219-.29-.287-.422h-.054v2.904h-1.285zm1.261-4.772c0 .352.049.661.149.927s.247.472.437.621.423.22.696.22c.284 0 .522-.076.713-.227s.336-.363.434-.629.149-.571.149-.912-.049-.639-.146-.902a1.35 1.35 0 0 0-.433-.618c-.192-.149-.431-.224-.717-.224-.275 0-.508.072-.7.217s-.337.347-.437.607-.145.567-.145.92zm7.713-2.728v.995h-3.136v-.995h3.136zm-2.362-1.306h1.286v5.12c0 .173.026.306.078.398s.125.152.213.185a.82.82 0 0 0 .291.049c.081 0 .154-.005.22-.017l.156-.032.217 1.005c-.069.023-.167.049-.295.078s-.279.045-.461.05c-.322.009-.612-.039-.87-.146a1.36 1.36 0 0 1-.615-.504c-.149-.228-.222-.512-.22-.853v-5.333zm5.793 6.868c-.547 0-1.019-.114-1.417-.341s-.7-.554-.913-.973-.319-.918-.319-1.488c0-.561.106-1.054.319-1.478a2.42 2.42 0 0 1 .902-.994c.386-.239.84-.359 1.36-.359a2.75 2.75 0 0 1 .952.164c.301.106.566.272.796.497s.414.511.547.859.198.758.198 1.236v.394h-4.471v-.866h3.239c-.002-.246-.056-.465-.16-.657a1.16 1.16 0 0 0-.436-.458c-.185-.112-.401-.167-.647-.167a1.25 1.25 0 0 0-.692.192c-.199.125-.354.291-.465.497s-.165.427-.167.671v.756c0 .318.058.59.174.817s.278.398.486.519.452.177.732.177a1.56 1.56 0 0 0 .508-.078c.151-.054.282-.134.394-.238s.195-.233.252-.387l1.2.135c-.076.317-.22.594-.433.831s-.481.417-.81.547-.705.192-1.129.192zm3.513-.107v-5.455h1.246v.91h.057c.1-.315.27-.558.512-.728s.522-.26.834-.26l.238.011c.09.005.165.013.224.025v1.182c-.055-.019-.141-.035-.26-.049a2.32 2.32 0 0 0-.337-.025 1.31 1.31 0 0 0-.632.152 1.12 1.12 0 0 0-.437.416c-.106.178-.16.382-.16.614V349h-1.285zm8.276-4.013l-1.172.128a.94.94 0 0 0-.174-.334c-.081-.104-.189-.188-.327-.252s-.305-.096-.504-.096c-.268 0-.492.058-.675.174s-.268.267-.266.451c-.002.159.056.288.174.387s.32.181.597.245l.93.199c.516.111.9.288 1.15.529s.382.558.384.948a1.48 1.48 0 0 1-.302.91 1.93 1.93 0 0 1-.82.61c-.351.147-.753.221-1.208.221-.667 0-1.205-.14-1.612-.419s-.65-.674-.728-1.176l1.254-.121c.057.247.177.432.362.558s.425.188.721.188c.305 0 .55-.063.735-.188s.281-.281.281-.465a.48.48 0 0 0-.182-.387c-.118-.102-.303-.18-.554-.235l-.93-.195c-.523-.109-.91-.292-1.161-.551s-.375-.589-.373-.987c-.002-.336.089-.627.273-.873s.447-.441.778-.576.719-.206 1.154-.206c.639 0 1.143.137 1.509.409s.598.64.686 1.104zm2.8.831l.082-1.438-1.208.792-.433-.753 1.289-.646-1.289-.647.433-.752 1.208.791-.082-1.438h.863l-.078 1.438 1.207-.791.433.752-1.292.647 1.292.646-.433.753-1.207-.792.078 1.438h-.863z"/></g><defs><linearGradient id="A" x1="4" y1="123.5" x2="132.785" y2="123.5" href="#J"><stop stop-color="#d84896"/><stop offset="1" stop-color="#a733c3"/></linearGradient><linearGradient id="B" x1="0" y1="322.5" x2="128.785" y2="322.5" href="#J"><stop stop-color="#d84896"/><stop offset="1" stop-color="#a733c3"/></linearGradient><linearGradient id="C" x1="155" y1="123.5" x2="283.785" y2="123.5" href="#J"><stop stop-color="#d84896"/><stop offset="1" stop-color="#a733c3"/></linearGradient><linearGradient id="D" x1="155" y1="322.5" x2="283.785" y2="322.5" href="#J"><stop stop-color="#d84896"/><stop offset="1" stop-color="#a733c3"/></linearGradient><linearGradient id="E" x1="306" y1="123.5" x2="434.785" y2="123.5" href="#J"><stop stop-color="#d84896"/><stop offset="1" stop-color="#a733c3"/></linearGradient><linearGradient id="F" x1="306" y1="322.5" x2="434.785" y2="322.5" href="#J"><stop stop-color="#d84896"/><stop offset="1" stop-color="#a733c3"/></linearGradient><clipPath id="G"><path fill="#fff" transform="translate(366 260)" d="M0 0h30v30H0z"/></clipPath><clipPath id="H"><path fill="#fff" transform="translate(205 255)" d="M0 0h29v29H0z"/></clipPath><path id="I" d="M68.851 94.08v2.888"/><linearGradient id="J" gradientUnits="userSpaceOnUse"/></defs></svg>