<svg xmlns="http://www.w3.org/2000/svg" width="679" height="534" fill="none" xmlns:v="https://vecta.io/nano"><style><![CDATA[.B{stroke-width:.5}.C{fill:#fff}.D{fill:#0c0c0c}.E{fill:#575757}.F{stroke:#e3e3e3}.G{fill:#f85550}.H{fill:#b8b8b8}.I{stroke:#f2f2f2}.J{color-interpolation-filters:sRGB}]]></style><rect x=".25" y=".5" width="255.5" height="532.5" rx="9.75" stroke="url(#C)" class="B C"/><g fill-rule="evenodd"><path d="M38.001 502.48v6.949a1.18 1.18 0 0 1-1.184 1.184h-4.954c-.625 0-1.184-.504-1.184-1.091v-7.136c0-.557.533-1.09 1.091-1.09h5.141a1.11 1.11 0 0 1 .766.355c.179.213.324.453.324.829h0zm8.632 6.543v7.136c0 .558-.533 1.091-1.09 1.091h-5.141c-.563 0-1.09-.539-1.09-1.185v-6.948a1.18 1.18 0 0 1 1.184-1.184h4.955c.644 0 1.184.516 1.184 1.09h0zm-8.632 4.083v2.96a1.17 1.17 0 0 1-.093.468c-.171.379-.538.716-.998.716h-5.141c-.558 0-1.091-.533-1.091-1.09v-3.148c0-.59.558-1.09 1.184-1.09h4.954A1.18 1.18 0 0 1 38 513.106h0zm8.631-10.72v3.148c0 .563-.538 1.09-1.184 1.09h-4.955a1.18 1.18 0 0 1-1.184-1.184v-2.96c0-.347.144-.623.306-.816a1.18 1.18 0 0 1 .785-.368h5.141c.558 0 1.091.533 1.091 1.09h0z" class="G"/><path d="M120.103 509.273c0-.314.256-.654.685-.654.824 0 .824 1.309 0 1.309-.219 0-.355-.068-.476-.178-.093-.086-.209-.313-.209-.477zm-1.994.468v4.331c0 1.643 1.539 3.178 3.178 3.178h4.331c.488 0 .96-.184 1.299-.353.286-.142.771-.477.95-.701l.351-.46c.372-.572.548-1.209.548-1.976v-3.646c0-1.145-.412-1.954-.99-2.531s-1.38-.99-2.532-.99h-3.646c-1.127 0-1.656.297-2.417.886-.533.413-1.073 1.516-1.073 2.262h.001zm7.977-7.822c0 1.072 1.063.479 2.653 1.056 2.202.798 3.757 2.747 3.956 5.111.042.505-.05 1.187.745 1.187.322 0 .623-.3.623-.623 0-1.183-.236-2.258-.685-3.147l-.301-.572c-1.106-2.034-3.677-3.635-6.025-3.635h-.343c-.322 0-.623.301-.623.623zm0 2.649c0 .391.21.658.536.71.411.065.466-.013 1.016.137.432.119.794.312 1.142.573.079.059.082.064.149.13.074.074.104.081.171.141.072.066.062.082.126.155.433.489.742 1.112.812 1.774.042.394-.051 1.085.753 1.085.343 0 .624-.307.624-.716 0-1.229-.474-2.234-1.223-3.078-.064-.072-.068-.1-.14-.172s-.087-.068-.155-.125c-.191-.161-.183-.188-.477-.396-.718-.508-1.688-.841-2.68-.841-.333 0-.654.286-.654.623h0zm79.239 4.705a7.23 7.23 0 0 1 .61-2.814c.388-.833.8-1.437 1.41-2.047l.43-.401c.857-.72 1.753-1.18 2.868-1.452.963-.235 2.124-.268 3.086-.027.923.231 1.643.511 2.412 1.044 2.809 1.946 3.827 5.663 2.291 8.733l-.324.606c-.053.088-.092.115-.119.214-.083-.023-.453-.375-.54-.457-.434-.413-1.268-.924-1.808-1.183-1.634-.785-3.524-.956-5.33-.521a7.85 7.85 0 0 0-2.121.871l-.312.186a9.59 9.59 0 0 0-1.115.879c-.087.088-.146.19-.274.225-.025-.094-.158-.277-.219-.38-.082-.139-.145-.281-.213-.418-.295-.588-.509-1.229-.622-1.904a7.49 7.49 0 0 1-.11-1.154h0zm-1.063-.332c0 1.138.054 2.01.475 3.081l.127.338c.207.508.55 1.094.86 1.534l.406.524c.683.782 1.425 1.417 2.353 1.901l.15.083c.909.455 2.165.848 3.24.848h.665c1.438 0 2.667-.505 3.734-1.085a6.02 6.02 0 0 0 .587-.377c.692-.489 1.194-1.009 1.724-1.666l.209-.291c1.275-1.729 1.742-4.298 1.205-6.433-.142-.565-.288-.942-.493-1.435-.393-.948-1.118-1.82-1.822-2.532-.101-.102-.167-.137-.266-.232-.428-.407-1.246-.883-1.776-1.15-.734-.37-2.048-.753-3.135-.753-.963 0-1.286.001-2.254.239-1.569.385-3.073 1.347-4.105 2.576l-.422.542-.38.584c-.618 1.019-1.082 2.533-1.082 3.704h0zm4.786-2.46c0 .597.044.98.299 1.496.141.287.398.679.624.905l.401.33c.167.122.285.185.482.283.83.415 1.922.419 2.748.011 1.041-.513 1.828-1.542 1.828-2.759 0-.832-.207-1.59-.74-2.185-.35-.391-.56-.576-1.066-.829-.83-.415-1.922-.419-2.748-.011-.287.141-.679.398-.905.624-.065.065-.092.12-.167.199s-.113.134-.177.222c-.319.442-.579 1.101-.579 1.714h0z" fill="#545454"/></g><g filter="url(#A)" class="C"><rect x="16" y="17.25" width="216" height="52" rx="10"/></g><g stroke="#5a5c66" stroke-miterlimit="22.9256" class="B"><path d="M31.51 31.25h10.664a.51.51 0 0 1 .51.51v21.964l-1.219 3.725c-.068.138-.215.206-.42.221l-.18.095-3.869.017-4.04-.015c-.051-.027-.042-.048-.099-.053-.341-.029-.491-.133-.537-.274L31 53.686v-4.184V31.76a.51.51 0 0 1 .51-.51h0z"/><path d="M31.815 31.25l2.076 1.048 5.977.005 2.076-1.053-1.75 1.325s-.272.261-.644.236h-5.187s-.432.079-.823-.293l-1.725-1.268z" stroke-linejoin="round"/><path d="M33.131 33.328l7.604.002 1.763-1.963m-9.833 2.314c0-.065-1.665-1.75-1.665-1.75m2.157 1.424l-1.98-1.98m10.004 2.306c0-.065 1.503-1.75 1.503-1.75"/><path d="M32.662 53.724V33.763s-.081-.435.511-.435m8.003 20.396V33.763s.082-.435-.511-.435"/><path d="M31 49.559l1.662 4.08s.011.19.614.242 7.357 0 7.357 0 .481.005.592-.294l1.432-4.048v.152l-1.391 3.938s-.041.327-.467.352-7.363.026-7.363.026-.776.076-.852-.378L31 49.599m1.89 8.122l1.573-2.466c.046-.086.134-.177.208-.236.202-.16.45-.228.707-.232h2.986c.109-.008.247.011.351.037a1.18 1.18 0 0 1 .648.411l.004.005 1.594 2.475m-2.424.545h-.025m-3.218-.003h-.037"/><path d="M32.997 57.767l1.565-2.455s.207-.402.815-.41h2.991s.543-.046.905.405l1.583 2.458m-2.235.379h-.005m-3.439-.003h-.014m-2.501-4.417l-.356 3.677m.884-3.389l-.28 3.722m8.266-4.058l.332 3.639m-.767-3.331l.291 3.693m-7.901-24.349l.055 20.68m7.57-20.656l-.016 20.632"/><path d="M35.395 57.773h-.303v.208a.71.71 0 0 0 .281.368c.071.444.37.758 1.52.778 1.135.02 1.441-.31 1.517-.756.221-.156.303-.365.33-.598h-.349-2.997z"/><path d="M36.193 57.779v.799"/><use href="#J"/><use href="#J" x="0.209"/><use href="#J" x="0.419"/><use href="#J" x="0.628"/><use href="#J" x="0.837"/><use href="#J" x="1.046"/><use href="#J" x="1.255"/><path d="M38.758 57.774c-.07.479-.41.844-1.865.824s-1.793-.355-1.864-.823"/></g><path d="M155.733 44.25h-.881c-.052-.253-.143-.476-.273-.668a1.82 1.82 0 0 0-.469-.483c-.182-.133-.385-.232-.607-.298a2.43 2.43 0 0 0-.696-.099 2.22 2.22 0 0 0-1.197.334c-.355.223-.638.55-.849.984s-.312.965-.312 1.594.104 1.161.312 1.595.494.761.849.984a2.22 2.22 0 0 0 1.197.334 2.43 2.43 0 0 0 .696-.099 2.04 2.04 0 0 0 .607-.295 1.87 1.87 0 0 0 .469-.486c.13-.194.221-.417.273-.668h.881a2.93 2.93 0 0 1-.362.998c-.175.294-.393.543-.654.749s-.552.359-.877.465-.666.16-1.033.16c-.62 0-1.172-.152-1.655-.455s-.863-.734-1.14-1.293-.415-1.222-.415-1.989.138-1.43.415-1.989.657-.99 1.14-1.293 1.035-.455 1.655-.455c.367 0 .711.053 1.033.16a2.81 2.81 0 0 1 .877.469 2.67 2.67 0 0 1 .654.746c.175.291.296.624.362.998zm3.525 5.114c-.492 0-.924-.117-1.296-.352s-.658-.562-.866-.984-.309-.914-.309-1.477.103-1.064.309-1.488.497-.753.866-.987.804-.352 1.296-.352.924.117 1.293.352.66.563.866.987.313.92.313 1.488-.104 1.056-.313 1.477-.494.749-.866.984-.8.352-1.293.352zm0-.753c.374 0 .682-.096.924-.288a1.7 1.7 0 0 0 .536-.756c.116-.312.174-.651.174-1.016s-.058-.704-.174-1.019a1.72 1.72 0 0 0-.536-.763c-.242-.194-.55-.291-.924-.291s-.681.097-.923.291a1.72 1.72 0 0 0-.536.763c-.116.315-.174.655-.174 1.019s.058.703.174 1.016a1.7 1.7 0 0 0 .536.756c.242.192.549.288.923.288zm4.589-2.642v3.281h-.838v-5.455h.81v.852h.071a1.56 1.56 0 0 1 .582-.668c.261-.17.597-.256 1.009-.256.369 0 .692.076.969.227s.493.376.647.682.23.687.23 1.151v3.466h-.838v-3.409c0-.428-.111-.762-.333-1.001s-.528-.362-.917-.362c-.267 0-.506.058-.717.174a1.25 1.25 0 0 0-.494.508c-.12.222-.181.492-.181.81zm5.85 0v3.281h-.838v-5.455h.81v.852h.071c.127-.277.321-.499.582-.668s.597-.256 1.008-.256c.37 0 .693.076.97.227a1.53 1.53 0 0 1 .646.682c.154.303.231.687.231 1.151v3.466h-.838v-3.409c0-.428-.111-.762-.334-1.001s-.528-.362-.916-.362c-.268 0-.507.058-.717.174s-.373.285-.494.508-.181.492-.181.81zm7.298 3.395c-.525 0-.979-.116-1.36-.348a2.34 2.34 0 0 1-.877-.98c-.203-.421-.305-.911-.305-1.47s.102-1.051.305-1.477a2.41 2.41 0 0 1 .86-1.001c.369-.241.8-.362 1.292-.362a2.59 2.59 0 0 1 .842.142c.277.095.529.249.756.462a2.2 2.2 0 0 1 .543.838c.135.348.203.776.203 1.285v.355h-4.205v-.724h3.353a1.79 1.79 0 0 0-.185-.824 1.4 1.4 0 0 0-.518-.572c-.223-.14-.486-.209-.789-.209-.334 0-.622.083-.866.249a1.63 1.63 0 0 0-.558.639 1.88 1.88 0 0 0-.195.845v.483c0 .412.071.761.213 1.048a1.53 1.53 0 0 0 .6.65 1.76 1.76 0 0 0 .891.22c.221 0 .419-.031.597-.092s.335-.159.465-.284.231-.287.302-.476l.81.227c-.086.275-.229.516-.43.724s-.45.367-.746.483-.628.17-.998.17zm5.75 0c-.512 0-.952-.121-1.321-.362s-.654-.574-.853-.998-.298-.908-.298-1.453c0-.554.102-1.043.305-1.467s.493-.759.86-.998.8-.362 1.292-.362c.384 0 .73.071 1.037.213a1.99 1.99 0 0 1 .757.597c.196.256.318.554.366.895h-.839c-.063-.249-.205-.469-.426-.66s-.511-.291-.88-.291c-.327 0-.613.085-.86.256a1.66 1.66 0 0 0-.571.714c-.135.305-.203.664-.203 1.076 0 .421.066.788.199 1.101s.324.555.568.728a1.47 1.47 0 0 0 .867.259 1.5 1.5 0 0 0 .593-.114 1.23 1.23 0 0 0 .451-.327 1.25 1.25 0 0 0 .262-.511h.839a1.95 1.95 0 0 1-.352.87 1.97 1.97 0 0 1-.735.611c-.303.149-.656.224-1.058.224zm5.742-5.568v.71h-2.827v-.71h2.827zm-2.003-1.307h.838v5.199c0 .237.034.414.103.533s.161.194.27.234a1.08 1.08 0 0 0 .352.057 1.49 1.49 0 0 0 .227-.014l.142-.028.17.753c-.057.021-.136.043-.238.064a1.74 1.74 0 0 1-.387.035 1.69 1.69 0 0 1-.696-.153 1.38 1.38 0 0 1-.561-.465c-.147-.208-.22-.471-.22-.788v-5.426zm5.492 6.875c-.526 0-.979-.116-1.36-.348s-.671-.561-.877-.98-.306-.911-.306-1.47.102-1.051.306-1.477.492-.762.859-1.001.8-.362 1.293-.362c.284 0 .564.047.841.142s.529.249.757.462.408.49.543.838.202.776.202 1.285v.355h-4.204v-.724h3.352c0-.308-.061-.582-.185-.824s-.293-.432-.518-.572-.485-.209-.788-.209c-.334 0-.623.083-.867.249s-.427.376-.557.639-.196.544-.196.845v.483c0 .412.071.761.213 1.048a1.54 1.54 0 0 0 .601.65c.255.147.552.22.891.22a1.81 1.81 0 0 0 .596-.092 1.29 1.29 0 0 0 .466-.284c.13-.128.23-.287.301-.476l.81.227c-.085.275-.228.516-.43.724s-.449.367-.745.483-.629.17-.998.17zm5.593 0c-.455 0-.856-.115-1.204-.344a2.33 2.33 0 0 1-.817-.98c-.196-.424-.294-.924-.294-1.502s.098-1.07.294-1.491.47-.747.821-.977.755-.344 1.214-.344c.355 0 .636.059.842.178s.367.249.476.398l.259.362h.071v-2.685h.838v7.273h-.81v-.838h-.099a5.42 5.42 0 0 1-.263.377 1.57 1.57 0 0 1-.486.401c-.211.116-.492.174-.842.174zm.114-.753c.336 0 .62-.088.852-.263s.408-.423.529-.735.181-.678.181-1.09-.059-.764-.178-1.069-.293-.547-.525-.717-.519-.259-.859-.259c-.356 0-.652.091-.888.273a1.63 1.63 0 0 0-.529.735c-.116.308-.174.653-.174 1.037s.059.741.177 1.058.298.566.533.753.53.277.881.277z" class="H"/><path d="M56.799 40.977h1.332l2.315 5.653h.085l2.315-5.653h1.332v7.273h-1.044v-5.263h-.067l-2.145 5.252h-.867l-2.145-5.256h-.067v5.266h-1.044v-7.273zm9.738 0l1.74 2.844h.057l1.74-2.844h1.271l-2.266 3.636 2.28 3.636h-1.278l-1.747-2.805h-.057L66.53 48.25h-1.278l2.319-3.636-2.305-3.636h1.271zm5.645 5.852v-.888l3.143-4.965h.7v1.307h-.444l-2.248 3.558v.057h4.308v.93h-5.458zm3.448 1.42v-1.69l.007-.405v-5.178h1.041v7.273H75.63zm5.779.099c-.488 0-.923-.084-1.307-.252s-.683-.401-.906-.7-.338-.649-.355-1.044h1.115a.96.96 0 0 0 .217.561c.132.156.305.277.518.362s.45.128.71.128a1.83 1.83 0 0 0 .76-.149c.223-.099.397-.238.522-.415a1.06 1.06 0 0 0 .188-.621c0-.244-.063-.458-.188-.643s-.304-.334-.543-.44-.523-.16-.859-.16h-.614v-.895h.614c.27 0 .507-.049.71-.146s.367-.232.483-.405.174-.38.174-.614c0-.225-.051-.42-.153-.586s-.242-.3-.426-.394-.398-.142-.646-.142a1.68 1.68 0 0 0-.664.131c-.204.085-.369.208-.497.369a.95.95 0 0 0-.206.572h-1.062c.012-.393.128-.739.348-1.037a2.25 2.25 0 0 1 .881-.7c.365-.168.769-.252 1.215-.252.466 0 .869.091 1.207.273a1.99 1.99 0 0 1 .788.721 1.81 1.81 0 0 1 .277.987c.002.407-.111.753-.341 1.037s-.53.475-.909.572v.057c.483.073.857.265 1.122.575s.4.695.398 1.154c.002.4-.109.759-.334 1.076s-.527.567-.913.749-.827.27-1.325.27zm3.761-1.52v-.888l3.143-4.965h.7v1.307h-.444l-2.248 3.558v.057h4.308v.93H85.17zm3.448 1.42v-1.69l.007-.405v-5.178h1.04v7.273h-1.048zm5.779.099c-.488 0-.923-.084-1.307-.252s-.683-.401-.906-.7-.338-.649-.355-1.044h1.115a.96.96 0 0 0 .217.561c.133.156.305.277.518.362s.45.128.71.128a1.83 1.83 0 0 0 .76-.149c.222-.099.396-.238.522-.415a1.06 1.06 0 0 0 .188-.621c0-.244-.063-.458-.188-.643s-.304-.334-.543-.44-.523-.16-.859-.16h-.614v-.895h.614c.27 0 .507-.049.71-.146s.367-.232.483-.405.174-.38.174-.614c0-.225-.051-.42-.153-.586s-.242-.3-.426-.394-.398-.142-.646-.142a1.68 1.68 0 0 0-.664.131c-.204.085-.369.208-.497.369a.95.95 0 0 0-.206.572h-1.062c.012-.393.128-.739.348-1.037a2.25 2.25 0 0 1 .881-.7c.365-.168.769-.252 1.215-.252.466 0 .869.091 1.207.273a1.99 1.99 0 0 1 .788.721 1.81 1.81 0 0 1 .277.987c.002.407-.111.753-.341 1.037s-.53.475-.909.572v.057c.483.073.857.265 1.122.575s.4.695.398 1.154c.002.4-.109.759-.334 1.076s-.527.567-.913.749-.827.27-1.325.27z" class="G"/><circle cx="213.5" cy="45.75" r="1.5" fill="#72cf70"/><path d="M216 45.75a2.5 2.5 0 1 1-5 0 2.5 2.5 0 1 1 5 0z" fill="#53ee50" fill-opacity=".35"/><path d="M17.881 107.273V100h.881v6.492h3.381v.781h-4.261zm7.727.114a2.38 2.38 0 0 1-1.296-.352c-.371-.234-.658-.562-.867-.984s-.309-.913-.309-1.477.103-1.064.309-1.488a2.38 2.38 0 0 1 .867-.987c.372-.234.804-.352 1.296-.352s.923.118 1.293.352.66.563.866.987.313.92.313 1.488-.104 1.056-.312 1.477a2.35 2.35 0 0 1-.866.984c-.369.234-.8.352-1.293.352zm0-.753c.374 0 .682-.096.923-.288s.42-.444.536-.756a2.9 2.9 0 0 0 .174-1.016c0-.364-.058-.704-.174-1.019s-.295-.569-.536-.764-.549-.291-.923-.291-.682.097-.923.291a1.72 1.72 0 0 0-.536.764c-.116.315-.174.655-.174 1.019a2.9 2.9 0 0 0 .174 1.016c.116.312.295.564.536.756s.549.288.923.288zm3.864.639V100h2.457c.568 0 1.034.097 1.399.291a1.86 1.86 0 0 1 .81.792c.175.336.263.719.263 1.147a2.4 2.4 0 0 1-.263 1.14c-.175.332-.444.592-.806.782s-.825.28-1.389.28h-1.989v-.795h1.96c.388 0 .701-.057.938-.171s.412-.274.518-.483a1.62 1.62 0 0 0 .163-.753c0-.291-.054-.545-.163-.763a1.11 1.11 0 0 0-.522-.504c-.239-.121-.555-.182-.948-.182h-1.548v6.492h-.881zm3.423-3.267l1.79 3.267h-1.023l-1.761-3.267h.994zm4.465 3.395c-.346 0-.659-.065-.941-.196a1.6 1.6 0 0 1-.671-.571c-.165-.248-.249-.554-.249-.909 0-.313.062-.566.185-.76a1.3 1.3 0 0 1 .494-.462 2.62 2.62 0 0 1 .682-.249l.756-.134.806-.096c.208-.024.36-.063.455-.118s.146-.149.146-.284v-.028c0-.35-.096-.623-.288-.817s-.477-.291-.863-.291c-.4 0-.714.088-.941.263s-.387.362-.479.561l-.795-.284a1.9 1.9 0 0 1 .568-.774 2.12 2.12 0 0 1 .781-.391 3.36 3.36 0 0 1 .838-.114 3.39 3.39 0 0 1 .604.064 2 2 0 0 1 .664.252c.213.127.394.321.536.579s.213.604.213 1.037v3.594h-.838v-.739h-.043a1.47 1.47 0 0 1-.284.38 1.65 1.65 0 0 1-.529.345c-.22.095-.489.142-.806.142zm.128-.753c.331 0 .611-.065.838-.195s.402-.299.518-.505.178-.422.178-.649v-.768c-.035.043-.114.082-.234.118a4 4 0 0 1-.412.088l-.451.064-.352.043a3.24 3.24 0 0 0-.611.138 1.06 1.06 0 0 0-.454.281c-.116.125-.171.291-.171.504 0 .291.108.512.323.661s.494.22.827.22zm4.829.625L40.328 100h.895l1.52 5.924h.071L44.362 100h.994l1.548 5.924h.071l1.52-5.924h.895l-1.989 7.273h-.909l-1.605-5.796h-.057l-1.605 5.796h-.909zm7.903 0h-.923l2.67-7.273h.909l2.671 7.273h-.923l-2.173-6.122h-.057l-2.173 6.122zm.341-2.841h3.722v.781h-3.722v-.781zM62.447 100v7.273h-.852l-3.963-5.71h-.071v5.71h-.881V100h.852l3.977 5.725h.071V100h.866zm8.552 1.818c-.043-.359-.215-.639-.519-.838s-.675-.298-1.115-.298a2.12 2.12 0 0 0-.845.156 1.34 1.34 0 0 0-.561.43c-.135.182-.199.389-.199.621a.89.89 0 0 0 .138.501c.092.14.216.252.362.345a2.37 2.37 0 0 0 .462.223l.444.139.739.199c.189.049.4.118.632.206a3 3 0 0 1 .671.358 1.82 1.82 0 0 1 .533.576c.14.234.21.522.21.863 0 .393-.103.748-.309 1.065s-.502.569-.895.756-.865.281-1.424.281c-.521 0-.972-.084-1.353-.252a2.16 2.16 0 0 1-.895-.703c-.216-.301-.337-.65-.366-1.048h.909c.024.275.116.502.277.682s.369.31.618.397a2.48 2.48 0 0 0 .81.128c.336 0 .638-.054.906-.163s.479-.265.636-.462.234-.431.234-.696c0-.241-.067-.438-.202-.589a1.47 1.47 0 0 0-.533-.369c-.22-.095-.458-.178-.714-.249l-.895-.256c-.568-.163-1.018-.396-1.35-.699s-.497-.7-.497-1.19c0-.407.11-.762.33-1.065s.521-.542.895-.711.797-.255 1.261-.255.885.084 1.25.252.653.393.866.682.329.616.341.983h-.852zm4.573 5.569c-.526 0-.979-.116-1.36-.348a2.31 2.31 0 0 1-.877-.981c-.206-.419-.305-.911-.305-1.47s.102-1.051.305-1.477a2.41 2.41 0 0 1 .859-1.001c.369-.242.8-.363 1.293-.363.284 0 .565.048.842.142a2.09 2.09 0 0 1 .756.462c.227.211.408.49.543.838s.202.777.202 1.286v.355h-4.205v-.725h3.352c0-.307-.061-.582-.185-.824s-.293-.432-.518-.571a1.45 1.45 0 0 0-.788-.21c-.334 0-.623.083-.866.249a1.63 1.63 0 0 0-.558.639 1.88 1.88 0 0 0-.195.845v.483c0 .412.071.761.213 1.048a1.51 1.51 0 0 0 .6.65c.256.15.553.22.891.22a1.8 1.8 0 0 0 .596-.093 1.27 1.27 0 0 0 .465-.284 1.29 1.29 0 0 0 .302-.476l.81.228c-.085.274-.228.516-.43.724s-.45.367-.746.483-.629.171-.998.171zm5.905-5.569v.711H78.65v-.711h2.827zm-2.003-1.306h.838v5.198c0 .237.034.415.103.533a.53.53 0 0 0 .27.234 1.08 1.08 0 0 0 .352.057 1.42 1.42 0 0 0 .227-.014l.142-.028.17.753c-.057.021-.136.042-.238.063a1.73 1.73 0 0 1-.387.036 1.68 1.68 0 0 1-.696-.153 1.37 1.37 0 0 1-.561-.465c-.149-.208-.22-.471-.22-.788v-5.426zm5.636 1.306v.711h-2.827v-.711h2.827zm-2.003-1.306h.838v5.198c0 .237.034.415.103.533a.53.53 0 0 0 .27.234 1.08 1.08 0 0 0 .352.057 1.42 1.42 0 0 0 .227-.014l.142-.028.17.753c-.057.021-.136.042-.238.063a1.73 1.73 0 0 1-.387.036 1.68 1.68 0 0 1-.696-.153 1.37 1.37 0 0 1-.561-.465c-.149-.208-.22-.471-.22-.788v-5.426zm3.263 6.761v-5.455h.838v5.455h-.838zm.426-6.364c-.163 0-.304-.055-.423-.167s-.174-.245-.174-.401.058-.29.174-.401.259-.167.423-.167.303.056.419.167a.53.53 0 0 1 .178.401.53.53 0 0 1-.178.401.58.58 0 0 1-.419.167zm2.785 3.083v3.281h-.838v-5.455h.81v.853h.071a1.56 1.56 0 0 1 .582-.668c.26-.17.597-.256 1.008-.256.369 0 .693.076.97.228a1.53 1.53 0 0 1 .646.681c.154.304.231.687.231 1.151v3.466h-.838v-3.409c0-.429-.111-.762-.334-1.002s-.528-.362-.916-.362a1.46 1.46 0 0 0-.717.174 1.25 1.25 0 0 0-.494.508c-.121.223-.181.492-.181.81zm7.213 5.44c-.405 0-.753-.052-1.044-.156a2.22 2.22 0 0 1-.728-.405 2.19 2.19 0 0 1-.458-.533l.668-.468.288.34c.116.131.275.243.476.338s.47.145.799.145c.44 0 .804-.106 1.09-.319s.43-.547.43-1.002v-1.108h-.071a4.47 4.47 0 0 1-.263.37 1.5 1.5 0 0 1-.483.387c-.208.111-.49.167-.845.167a2.27 2.27 0 0 1-1.186-.313c-.348-.208-.624-.511-.827-.909s-.302-.881-.302-1.449c0-.558.098-1.045.295-1.459s.47-.739.82-.966.755-.345 1.215-.345c.355 0 .637.06.845.178s.372.249.483.398l.263.362h.085v-.867h.81v5.611c0 .469-.107.85-.32 1.144a1.85 1.85 0 0 1-.852.65 3.23 3.23 0 0 1-1.186.209zm-.028-2.997c.336 0 .62-.077.852-.231s.408-.375.529-.664.181-.634.181-1.037c0-.393-.059-.74-.177-1.04s-.294-.537-.526-.707-.519-.256-.859-.256c-.355 0-.651.09-.888.27s-.411.422-.529.725a2.8 2.8 0 0 0-.174 1.008 2.65 2.65 0 0 0 .178 1.005 1.54 1.54 0 0 0 .533.682c.237.163.53.245.881.245zm7.785-3.395l-.753.213a1.42 1.42 0 0 0-.21-.366c-.09-.12-.213-.22-.369-.298s-.356-.117-.6-.117c-.334 0-.612.077-.835.231s-.33.344-.33.578c0 .209.076.373.227.494s.389.221.711.302l.809.199c.488.118.851.299 1.09.543s.359.553.359.934c0 .313-.09.592-.27.838s-.426.44-.746.583-.691.213-1.115.213c-.556 0-1.016-.121-1.381-.363s-.595-.594-.693-1.058l.796-.199c.076.294.219.514.43.661s.491.22.834.22c.391 0 .701-.083.931-.249s.348-.369.348-.603c0-.19-.067-.348-.199-.476s-.336-.227-.611-.291l-.909-.213c-.5-.119-.867-.302-1.101-.551s-.348-.564-.348-.941c0-.308.086-.58.259-.817s.413-.422.714-.557.646-.203 1.03-.203c.54 0 .963.119 1.271.355s.53.55.661.938zm102.531 94.332c-.487 0-.918-.086-1.292-.259a2.08 2.08 0 0 1-.87-.721 1.8 1.8 0 0 1-.309-1.051c-.003-.308.058-.592.181-.852a1.85 1.85 0 0 1 .504-.657 1.54 1.54 0 0 1 .721-.337v-.043c-.348-.09-.625-.285-.831-.586a1.77 1.77 0 0 1-.305-1.033c-.003-.37.091-.7.28-.991s.45-.521.781-.689.714-.252 1.14-.252.798.084 1.13.252a1.97 1.97 0 0 1 .781.689 1.8 1.8 0 0 1 .291.991 1.8 1.8 0 0 1-.316 1.033 1.4 1.4 0 0 1-.82.586v.043a1.49 1.49 0 0 1 .71.337 1.9 1.9 0 0 1 .504.657c.126.26.19.544.192.852a1.83 1.83 0 0 1-.32 1.051c-.208.306-.498.546-.87.721s-.796.259-1.282.259zm0-.781c.329 0 .614-.053.853-.16a1.27 1.27 0 0 0 .554-.451 1.22 1.22 0 0 0 .199-.681 1.31 1.31 0 0 0-.214-.728c-.139-.211-.33-.377-.571-.498a1.8 1.8 0 0 0-.821-.181 1.86 1.86 0 0 0-.831.181c-.241.121-.432.287-.571.498s-.205.453-.203.728c-.002.26.061.487.188.681a1.25 1.25 0 0 0 .558.451c.241.106.528.16.859.16zm0-3.452c.261 0 .492-.052.693-.156a1.19 1.19 0 0 0 .479-.437 1.25 1.25 0 0 0 .178-.657 1.22 1.22 0 0 0-.174-.642c-.114-.185-.271-.327-.472-.426a1.54 1.54 0 0 0-.704-.153 1.57 1.57 0 0 0-.713.153 1.1 1.1 0 0 0-.473.426 1.19 1.19 0 0 0-.163.642c-.002.251.053.47.167.657a1.19 1.19 0 0 0 .479.437c.204.104.438.156.703.156zm6.148-3.238a2.6 2.6 0 0 1 .895.17 2.19 2.19 0 0 1 .817.554c.246.256.444.605.593 1.048s.224.998.224 1.665c0 .647-.062 1.221-.185 1.723s-.296.921-.526 1.264-.504.603-.83.781-.692.266-1.101.266-.771-.08-1.091-.241a2.15 2.15 0 0 1-.781-.678c-.201-.292-.33-.629-.387-1.012h.867a1.61 1.61 0 0 0 .465.827c.234.215.543.323.927.323.561 0 1.003-.245 1.328-.735s.49-1.182.49-2.077h-.057c-.133.198-.29.37-.472.515a2.09 2.09 0 0 1-.608.333 2.13 2.13 0 0 1-.71.118 2.21 2.21 0 0 1-1.147-.309 2.36 2.36 0 0 1-.831-.856c-.206-.365-.309-.781-.309-1.25 0-.445.1-.853.299-1.222a2.31 2.31 0 0 1 .845-.888c.364-.22.793-.326 1.285-.319zm0 .781c-.298 0-.567.075-.806.224a1.6 1.6 0 0 0-.564.596 1.68 1.68 0 0 0-.206.828c0 .303.066.579.198.827s.319.443.551.59.501.216.799.216c.225 0 .434-.044.628-.131a1.58 1.58 0 0 0 .508-.366c.144-.154.262-.332.345-.529a1.59 1.59 0 0 0 .124-.621c0-.285-.069-.551-.206-.799a1.66 1.66 0 0 0-.561-.604c-.239-.154-.507-.231-.81-.231zm10.445 5.227v-.383a1.63 1.63 0 0 1 .163-.728 1.32 1.32 0 0 1 .483-.533c.213-.135.471-.202.775-.202s.565.067.774.202a1.28 1.28 0 0 1 .472.533c.107.223.16.463.16.728v.383c0 .265-.055.509-.164.732a1.29 1.29 0 0 1-.475.533c-.209.132-.464.198-.767.198s-.567-.066-.778-.198a1.3 1.3 0 0 1-.48-.533c-.109-.22-.163-.467-.163-.732zm.725-.383v.383a1.14 1.14 0 0 0 .156.593c.104.173.284.26.54.26.248 0 .423-.087.525-.26a1.14 1.14 0 0 0 .156-.593v-.383c0-.22-.049-.417-.149-.59s-.277-.262-.532-.262c-.249 0-.428.087-.537.262s-.159.37-.159.59zm-4.347-3.779v-.383c0-.265.054-.508.163-.728a1.32 1.32 0 0 1 .483-.533c.213-.135.471-.202.774-.202s.566.067.775.202a1.28 1.28 0 0 1 .472.533c.107.223.16.463.16.728v.383a1.64 1.64 0 0 1-.164.732c-.106.22-.265.398-.476.533s-.464.198-.767.198-.567-.066-.777-.198-.371-.313-.48-.533a1.64 1.64 0 0 1-.163-.732zm.724-.383v.383c0 .221.052.418.157.593s.284.26.539.26c.249 0 .424-.087.526-.26a1.15 1.15 0 0 0 .156-.593v-.383c0-.22-.05-.417-.149-.59s-.277-.262-.533-.262c-.248 0-.427.087-.536.262s-.16.37-.16.59zm-.454 5.909l5-7.273h.809l-5 7.273h-.809zm-2.144-29h-.923l2.67-7.273h.909l2.671 7.273h-.924l-2.173-6.122h-.057l-2.173 6.122zm.341-2.841h3.721v.781h-3.721v-.781zM201.761 221v7.273h-.88V221h.88zm7.533 0v7.273h-.852l-3.963-5.71h-.071v5.71h-.881V221h.852l3.978 5.725h.071V221h.866zm3.964 7.372c-.488 0-.918-.086-1.292-.259a2.08 2.08 0 0 1-.87-.721 1.8 1.8 0 0 1-.309-1.051c-.003-.308.058-.592.181-.852a1.85 1.85 0 0 1 .504-.657c.215-.178.456-.29.721-.337v-.043c-.348-.09-.625-.285-.831-.586s-.308-.648-.306-1.033a1.76 1.76 0 0 1 .281-.991c.189-.291.45-.521.781-.689s.714-.252 1.14-.252.798.084 1.129.252a1.98 1.98 0 0 1 .782.689c.191.291.289.621.291.991a1.8 1.8 0 0 1-.316 1.033c-.206.301-.48.496-.82.586v.043c.262.047.499.159.71.337a1.91 1.91 0 0 1 .504.657c.125.26.189.544.192.852-.003.393-.109.744-.32 1.051a2.12 2.12 0 0 1-.87.721c-.372.175-.797.259-1.282.259zm0-.781c.329 0 .613-.053.852-.16a1.26 1.26 0 0 0 .554-.451c.131-.194.197-.421.199-.681a1.3 1.3 0 0 0-.213-.728 1.44 1.44 0 0 0-.572-.498c-.239-.12-.512-.181-.82-.181a1.86 1.86 0 0 0-.831.181c-.241.121-.432.287-.572.498s-.204.453-.202.728a1.19 1.19 0 0 0 .188.681 1.26 1.26 0 0 0 .558.451c.241.107.528.16.859.16zm0-3.452a1.49 1.49 0 0 0 .693-.156 1.19 1.19 0 0 0 .479-.437 1.25 1.25 0 0 0 .178-.657 1.22 1.22 0 0 0-.174-.642c-.114-.185-.271-.327-.473-.426s-.435-.153-.703-.153a1.59 1.59 0 0 0-.714.153 1.11 1.11 0 0 0-.472.426 1.18 1.18 0 0 0-.163.642c-.003.251.053.47.167.657a1.17 1.17 0 0 0 .479.437c.204.104.438.156.703.156zm6.248 4.233c-.299-.004-.597-.061-.895-.17s-.571-.292-.817-.55-.444-.612-.593-1.055-.224-1.004-.224-1.676c0-.644.06-1.215.181-1.712s.296-.92.526-1.261a2.39 2.39 0 0 1 .831-.781c.325-.178.695-.266 1.104-.266s.77.081 1.087.245.58.386.781.675a2.37 2.37 0 0 1 .391.997h-.867c-.08-.326-.237-.597-.469-.813s-.539-.323-.923-.323c-.563 0-1.007.245-1.332.735s-.484 1.178-.486 2.063h.057c.132-.201.29-.373.472-.515s.388-.255.611-.333.458-.118.707-.118c.416 0 .797.105 1.143.313a2.3 2.3 0 0 1 .831.856c.208.362.312.777.312 1.246 0 .45-.1.862-.301 1.236s-.485.668-.849.888-.788.324-1.278.319zm0-.781c.298 0 .565-.074.802-.224a1.63 1.63 0 0 0 .565-.6 1.7 1.7 0 0 0 .209-.838c0-.3-.067-.574-.202-.82a1.54 1.54 0 0 0-.551-.593c-.232-.147-.497-.22-.795-.22-.225 0-.435.045-.629.135a1.66 1.66 0 0 0-.511.362 1.76 1.76 0 0 0-.341.529 1.58 1.58 0 0 0-.124.621c0 .289.067.559.202.81a1.68 1.68 0 0 0 .561.607 1.47 1.47 0 0 0 .814.231zm6.098.781c-.417 0-.792-.082-1.126-.248s-.601-.393-.803-.682a1.86 1.86 0 0 1-.33-.987h.852c.034.329.183.601.448.817a1.49 1.49 0 0 0 .959.319c.298 0 .563-.07.795-.209a1.48 1.48 0 0 0 .551-.576c.135-.246.202-.524.202-.834 0-.317-.07-.6-.21-.849a1.53 1.53 0 0 0-.568-.593c-.241-.144-.517-.218-.827-.22a2.28 2.28 0 0 0-.685.103 1.9 1.9 0 0 0-.579.266l-.824-.099.44-3.58h3.779v.781h-3.04l-.256 2.145h.043c.149-.118.336-.216.561-.294a2.13 2.13 0 0 1 .703-.118c.445 0 .842.107 1.19.32a2.23 2.23 0 0 1 .823.867c.202.366.302.785.302 1.257 0 .464-.104.878-.312 1.243s-.49.648-.853.859-.774.312-1.235.312z" class="H"/><path d="M21 179.023h219m-219-30h219" class="B I"/><g class="D"><path d="M57.733 163.273h-.881c-.052-.253-.143-.476-.273-.668a1.86 1.86 0 0 0-.469-.483c-.185-.131-.385-.232-.607-.298s-.455-.099-.696-.099c-.44 0-.839.111-1.197.333s-.638.551-.849.984-.312.965-.312 1.595.104 1.161.313 1.594.494.761.849.984.756.334 1.197.334a2.44 2.44 0 0 0 .696-.1 2.01 2.01 0 0 0 .607-.295c.185-.132.341-.294.469-.486a1.89 1.89 0 0 0 .273-.668h.881c-.066.372-.187.705-.362.998a2.72 2.72 0 0 1-.653.749c-.26.204-.553.359-.877.466s-.666.159-1.033.159c-.62 0-1.172-.151-1.655-.454s-.863-.734-1.14-1.293-.415-1.221-.415-1.988.139-1.43.415-1.989a3.11 3.11 0 0 1 1.14-1.293c.483-.303 1.035-.454 1.655-.454.367 0 .711.053 1.033.16a2.85 2.85 0 0 1 .877.468c.26.206.478.453.653.746a2.91 2.91 0 0 1 .362.998zM59.881 161v7.273h-.838V161h.838zm3.14 7.401c-.346 0-.659-.065-.941-.196s-.505-.323-.671-.571-.249-.554-.249-.909c0-.313.062-.566.185-.76a1.3 1.3 0 0 1 .494-.462 2.62 2.62 0 0 1 .682-.249l.756-.134.806-.096c.208-.024.36-.063.454-.118s.146-.149.146-.284v-.028c0-.35-.096-.623-.288-.817s-.477-.291-.863-.291c-.4 0-.714.088-.941.263a1.55 1.55 0 0 0-.479.561l-.795-.284c.142-.332.331-.59.568-.774a2.16 2.16 0 0 1 .781-.391c.281-.073.563-.114.838-.114a3.39 3.39 0 0 1 .604.064 2 2 0 0 1 .664.252c.213.127.394.321.536.579s.213.604.213 1.037v3.594h-.838v-.739h-.043a1.46 1.46 0 0 1-.284.38 1.65 1.65 0 0 1-.529.345c-.22.095-.489.142-.806.142zm.128-.753c.331 0 .611-.065.838-.195s.402-.299.518-.505.178-.422.178-.649v-.768c-.035.043-.114.082-.234.118a3.41 3.41 0 0 1-.412.088l-.451.064-.352.043a3.24 3.24 0 0 0-.611.138c-.187.062-.339.156-.455.281s-.17.291-.17.504c0 .291.108.512.323.661s.494.22.827.22zm7.765-3.608l-.753.213a1.39 1.39 0 0 0-.21-.366 1.02 1.02 0 0 0-.369-.298c-.156-.078-.356-.117-.6-.117-.334 0-.612.077-.835.231s-.33.344-.33.578c0 .209.076.373.227.494s.388.221.71.302l.81.199c.488.118.851.299 1.09.543s.359.553.359.934a1.38 1.38 0 0 1-.27.838 1.8 1.8 0 0 1-.746.583c-.32.142-.691.213-1.115.213-.556 0-1.017-.121-1.381-.363s-.595-.594-.692-1.058l.795-.199c.076.294.219.514.43.661s.491.22.834.22c.391 0 .701-.083.93-.249s.348-.369.348-.603a.63.63 0 0 0-.199-.476c-.133-.128-.336-.227-.611-.291l-.909-.213c-.499-.119-.867-.302-1.101-.551s-.348-.564-.348-.941a1.35 1.35 0 0 1 .259-.817 1.77 1.77 0 0 1 .714-.557c.303-.135.646-.203 1.03-.203.54 0 .963.119 1.271.355s.53.55.66.938zm5.225 0l-.753.213a1.39 1.39 0 0 0-.21-.366 1.02 1.02 0 0 0-.369-.298c-.156-.078-.356-.117-.6-.117-.334 0-.612.077-.834.231s-.33.344-.33.578c0 .209.076.373.227.494s.388.221.71.302l.81.199c.488.118.851.299 1.09.543s.359.553.359.934a1.38 1.38 0 0 1-.27.838 1.8 1.8 0 0 1-.746.583c-.32.142-.691.213-1.115.213-.556 0-1.017-.121-1.381-.363s-.596-.594-.692-1.058l.795-.199c.076.294.219.514.43.661s.491.22.835.22c.391 0 .701-.083.93-.249s.348-.369.348-.603a.63.63 0 0 0-.199-.476c-.133-.128-.336-.227-.611-.291l-.909-.213c-.499-.119-.867-.302-1.101-.551s-.348-.564-.348-.941a1.35 1.35 0 0 1 .259-.817 1.77 1.77 0 0 1 .714-.557c.303-.135.646-.203 1.03-.203.54 0 .963.119 1.271.355s.53.55.66.938zm-24.258-25.767V131h.881v3.608h.085L56.114 131h1.151l-3.054 3.281 3.054 3.992H56.2l-2.528-3.381-.909 1.023v2.358h-.881zm8.296.114c-.526 0-.979-.116-1.36-.348a2.31 2.31 0 0 1-.877-.981c-.206-.419-.305-.911-.305-1.47s.102-1.051.305-1.477a2.41 2.41 0 0 1 .859-1.001c.369-.242.8-.363 1.293-.363.284 0 .565.048.842.142a2.09 2.09 0 0 1 .756.462 2.21 2.21 0 0 1 .543.838c.135.348.202.777.202 1.286v.355h-4.204v-.725h3.352c0-.307-.062-.582-.185-.824s-.294-.432-.519-.571-.485-.21-.788-.21c-.334 0-.623.083-.867.249a1.63 1.63 0 0 0-.557.639 1.88 1.88 0 0 0-.195.845v.483c0 .412.071.761.213 1.048s.345.5.6.65.553.22.891.22a1.8 1.8 0 0 0 .597-.093 1.27 1.27 0 0 0 .465-.284 1.29 1.29 0 0 0 .302-.476l.81.228c-.085.274-.228.516-.43.724s-.45.367-.746.483-.629.171-.998.171zm3.907 1.931c-.142 0-.269-.011-.38-.035a1 1 0 0 1-.231-.064l.213-.739c.204.052.384.071.54.057s.295-.084.415-.209.236-.324.337-.601l.156-.426-2.017-5.483h.909l1.506 4.347h.057l1.506-4.347h.909l-2.315 6.25a2.36 2.36 0 0 1-.387.7 1.45 1.45 0 0 1-.536.415 1.65 1.65 0 0 1-.682.135zm8.89-6.278l-.753.213a1.42 1.42 0 0 0-.209-.366c-.09-.12-.213-.22-.369-.298s-.356-.117-.6-.117c-.334 0-.612.077-.834.231s-.33.344-.33.578c0 .209.076.373.227.494s.388.221.71.302l.81.199c.488.118.851.299 1.09.543s.359.553.359.934c0 .313-.09.592-.27.838a1.8 1.8 0 0 1-.746.583c-.32.142-.691.213-1.115.213-.556 0-1.017-.121-1.381-.363s-.595-.594-.693-1.058l.796-.199c.076.294.219.514.43.661s.491.22.835.22c.391 0 .701-.083.93-.249s.348-.369.348-.603a.63.63 0 0 0-.199-.476c-.133-.128-.336-.227-.611-.291l-.909-.213c-.5-.119-.866-.302-1.101-.551s-.348-.564-.348-.941a1.35 1.35 0 0 1 .259-.817 1.77 1.77 0 0 1 .714-.557c.303-.135.646-.203 1.03-.203.54 0 .964.119 1.271.355a1.93 1.93 0 0 1 .66.938zm6.233 4.332c-.478 0-.89-.087-1.236-.262s-.612-.416-.799-.721-.281-.655-.281-1.048c0-.303.064-.572.192-.806s.309-.456.536-.657a7.94 7.94 0 0 1 .792-.611l1.051-.781a2.11 2.11 0 0 0 .494-.433c.124-.154.188-.355.188-.604 0-.185-.082-.363-.245-.536a.83.83 0 0 0-.636-.259.86.86 0 0 0-.49.142 1 1 0 0 0-.33.355.9.9 0 0 0-.117.44c0 .171.046.343.139.519a3.85 3.85 0 0 0 .359.532l.455.554 3.338 4.077h-1.009l-2.756-3.324-.696-.838a3.98 3.98 0 0 1-.497-.742c-.123-.244-.185-.508-.185-.792 0-.327.072-.613.217-.859s.352-.442.614-.579a1.99 1.99 0 0 1 .93-.21c.365 0 .678.071.941.213s.465.326.607.558.213.479.213.749a1.58 1.58 0 0 1-.259.906 2.96 2.96 0 0 1-.707.713l-1.449 1.08c-.327.241-.548.476-.664.703s-.174.391-.174.49a1.21 1.21 0 0 0 .178.636c.119.197.285.355.501.476a1.53 1.53 0 0 0 .756.181c.275 0 .542-.058.803-.174a2.26 2.26 0 0 0 .707-.512c.213-.222.381-.49.504-.802a2.81 2.81 0 0 0 .188-1.055h.81c0 .483-.056.877-.167 1.183a2.52 2.52 0 0 1-.376.717l-.337.387-.078.107-.078.106a2.16 2.16 0 0 1-.888.59 3.15 3.15 0 0 1-1.058.191zm7.149-.099v-5.455h.838v5.455h-.838zm.426-6.364c-.163 0-.304-.055-.423-.167s-.174-.245-.174-.401.058-.29.174-.401.259-.167.423-.167.303.056.419.167a.53.53 0 0 1 .177.401.53.53 0 0 1-.177.401.58.58 0 0 1-.419.167zm4.007 6.478c-.455 0-.856-.115-1.204-.345a2.32 2.32 0 0 1-.817-.98c-.197-.421-.295-.924-.295-1.502s.098-1.07.295-1.492.47-.747.82-.976a2.17 2.17 0 0 1 1.215-.345c.355 0 .636.06.842.178a1.45 1.45 0 0 1 .476.398l.259.362h.071V131h.838v7.273h-.81v-.838h-.099a5.08 5.08 0 0 1-.263.376c-.114.151-.276.283-.486.402s-.491.174-.842.174zm.114-.753c.336 0 .62-.088.852-.263a1.65 1.65 0 0 0 .529-.735 3.03 3.03 0 0 0 .181-1.09c0-.408-.059-.764-.177-1.069a1.56 1.56 0 0 0-.526-.718c-.232-.172-.519-.259-.859-.259-.355 0-.651.091-.888.274s-.411.425-.529.735-.174.653-.174 1.037.059.741.178 1.058a1.73 1.73 0 0 0 .533.753c.237.184.53.277.881.277zm6.325.753c-.526 0-.979-.116-1.36-.348a2.31 2.31 0 0 1-.877-.981c-.206-.419-.305-.911-.305-1.47s.102-1.051.305-1.477a2.41 2.41 0 0 1 .859-1.001c.369-.242.8-.363 1.293-.363.284 0 .565.048.842.142a2.09 2.09 0 0 1 .756.462 2.21 2.21 0 0 1 .543.838c.135.348.202.777.202 1.286v.355h-4.204v-.725h3.352c0-.307-.062-.582-.185-.824a1.39 1.39 0 0 0-.519-.571c-.222-.14-.485-.21-.788-.21-.334 0-.623.083-.867.249a1.63 1.63 0 0 0-.558.639 1.88 1.88 0 0 0-.195.845v.483c0 .412.071.761.213 1.048a1.51 1.51 0 0 0 .6.65c.256.15.553.22.891.22a1.8 1.8 0 0 0 .597-.093 1.27 1.27 0 0 0 .465-.284 1.29 1.29 0 0 0 .302-.476l.81.228c-.085.274-.228.516-.43.724s-.45.367-.746.483-.629.171-.998.171zm4.371-3.395v3.281h-.838v-5.455h.81v.853h.071a1.56 1.56 0 0 1 .582-.668c.261-.17.597-.256 1.009-.256.369 0 .692.076.969.228s.493.376.647.681.23.687.23 1.151v3.466h-.838v-3.409c0-.429-.111-.762-.334-1.002s-.527-.362-.916-.362c-.267 0-.506.058-.717.174s-.373.286-.494.508-.181.492-.181.81zm7.384-2.174v.711h-2.827v-.711h2.827zm-2.003-1.306h.838v5.198c0 .237.035.415.103.533a.53.53 0 0 0 .27.234 1.08 1.08 0 0 0 .352.057 1.42 1.42 0 0 0 .227-.014l.142-.028.17.753c-.056.021-.136.042-.238.063a1.72 1.72 0 0 1-.387.036 1.69 1.69 0 0 1-.696-.153c-.225-.102-.412-.257-.561-.465s-.22-.471-.22-.788v-5.426zm3.264 6.761v-5.455h.838v5.455h-.838zm.426-6.364c-.164 0-.304-.055-.423-.167s-.174-.245-.174-.401.058-.29.174-.401a.6.6 0 0 1 .423-.167c.163 0 .303.056.419.167a.53.53 0 0 1 .177.401.53.53 0 0 1-.177.401.58.58 0 0 1-.419.167zm4.319.909v.711h-2.827v-.711h2.827zm-2.003-1.306h.838v5.198c0 .237.034.415.103.533a.53.53 0 0 0 .27.234c.111.038.228.057.351.057.093 0 .169-.004.228-.014l.142-.028.17.753c-.057.021-.136.042-.238.063a1.93 1.93 0 0 1-.387.036c-.236 0-.469-.051-.696-.153a1.37 1.37 0 0 1-.561-.465c-.149-.208-.22-.471-.22-.788v-5.426zm3.803 8.806a1.82 1.82 0 0 1-.38-.035c-.111-.021-.188-.043-.231-.064l.214-.739c.203.052.383.071.539.057a.65.65 0 0 0 .416-.209c.121-.125.235-.324.337-.601l.156-.426-2.017-5.483h.909l1.506 4.347h.057l1.506-4.347h.909l-2.316 6.25a2.36 2.36 0 0 1-.387.7c-.154.187-.332.325-.536.415a1.65 1.65 0 0 1-.682.135zm-64.908 56.955V190h2.543c.507 0 .925.088 1.254.263s.574.406.735.7.241.614.241.969c0 .313-.056.571-.167.774s-.253.365-.433.483a1.96 1.96 0 0 1-.579.263v.071a1.42 1.42 0 0 1 .671.234c.225.142.413.346.565.611s.227.59.227.973a1.95 1.95 0 0 1-.249.984c-.166.291-.427.522-.785.692s-.823.256-1.396.256H51.88zm.881-.781h1.747c.575 0 .984-.112 1.225-.334a1.07 1.07 0 0 0 .366-.817 1.3 1.3 0 0 0-.188-.682 1.37 1.37 0 0 0-.536-.504 1.68 1.68 0 0 0-.824-.192h-1.79v2.529zm0-3.296h1.633c.265 0 .504-.052.717-.156s.386-.251.511-.44.192-.412.192-.668c0-.32-.111-.591-.334-.813s-.575-.338-1.058-.338h-1.662v2.415zm7.115 4.205c-.346 0-.659-.065-.941-.196s-.505-.323-.671-.571-.248-.554-.248-.909c0-.313.061-.566.185-.76a1.3 1.3 0 0 1 .494-.462 2.62 2.62 0 0 1 .682-.249l.756-.134.806-.096c.208-.024.36-.063.455-.118s.146-.149.146-.284v-.028c0-.35-.096-.623-.288-.817s-.477-.291-.863-.291c-.4 0-.714.088-.941.263a1.55 1.55 0 0 0-.479.561l-.795-.284c.142-.332.331-.59.568-.774a2.15 2.15 0 0 1 .781-.391c.282-.073.563-.114.838-.114a3.39 3.39 0 0 1 .604.064 2 2 0 0 1 .664.252c.213.127.394.321.536.579s.213.604.213 1.037v3.594h-.838v-.739h-.043a1.46 1.46 0 0 1-.284.38 1.65 1.65 0 0 1-.529.345c-.22.095-.489.142-.806.142zm.128-.753c.331 0 .611-.065.838-.195s.402-.299.518-.505.178-.422.178-.649v-.768c-.035.043-.114.082-.234.118a3.99 3.99 0 0 1-.412.088l-.451.064-.352.043a3.24 3.24 0 0 0-.611.138 1.06 1.06 0 0 0-.454.281c-.116.125-.171.291-.171.504 0 .291.108.512.323.661s.494.22.827.22zm6.274-4.83v.711h-2.827v-.711h2.827zm-2.003-1.306h.838v5.198c0 .237.034.415.103.533a.53.53 0 0 0 .27.234 1.08 1.08 0 0 0 .352.057 1.42 1.42 0 0 0 .227-.014l.142-.028.17.753c-.057.021-.136.042-.238.063a1.73 1.73 0 0 1-.387.036 1.68 1.68 0 0 1-.696-.153 1.37 1.37 0 0 1-.561-.465c-.149-.208-.22-.471-.22-.788v-5.426zm5.636 1.306v.711h-2.827v-.711h2.827zm-2.003-1.306h.838v5.198c0 .237.034.415.103.533a.53.53 0 0 0 .27.234 1.08 1.08 0 0 0 .352.057 1.42 1.42 0 0 0 .227-.014l.142-.028.17.753c-.057.021-.136.042-.238.063a1.73 1.73 0 0 1-.387.036 1.68 1.68 0 0 1-.696-.153 1.37 1.37 0 0 1-.561-.465c-.149-.208-.22-.471-.22-.788v-5.426zm5.492 6.875c-.526 0-.979-.116-1.36-.348a2.34 2.34 0 0 1-.877-.981c-.204-.421-.305-.911-.305-1.47s.102-1.051.305-1.477a2.41 2.41 0 0 1 .859-1.001c.369-.242.8-.363 1.293-.363.284 0 .565.048.842.142a2.09 2.09 0 0 1 .756.462c.227.211.408.49.543.838s.202.777.202 1.286v.355h-4.204v-.725h3.352c0-.307-.061-.582-.185-.824a1.39 1.39 0 0 0-.519-.571c-.222-.14-.485-.21-.788-.21-.334 0-.623.083-.867.249a1.63 1.63 0 0 0-.558.639 1.88 1.88 0 0 0-.195.845v.483c0 .412.071.761.213 1.048s.345.5.6.65.553.22.891.22a1.8 1.8 0 0 0 .597-.093 1.27 1.27 0 0 0 .465-.284 1.29 1.29 0 0 0 .302-.476l.81.228c-.085.274-.228.516-.43.724s-.45.367-.746.483-.628.171-.998.171zm3.533-.114v-5.455h.81v.824h.057a1.31 1.31 0 0 1 .54-.657 1.59 1.59 0 0 1 .881-.252l.231.004.21.01v.853a2.43 2.43 0 0 0-.195-.032c-.099-.017-.205-.025-.316-.025-.265 0-.502.055-.71.167a1.26 1.26 0 0 0-.49.454 1.23 1.23 0 0 0-.178.657v3.452h-.838zm4.427 2.045c-.142 0-.269-.011-.38-.035a1 1 0 0 1-.231-.064l.213-.739c.204.052.383.071.54.057s.295-.084.416-.209.236-.324.337-.601l.156-.426-2.017-5.483h.909l1.506 4.347h.057l1.506-4.347h.909l-2.315 6.25a2.36 2.36 0 0 1-.387.7 1.45 1.45 0 0 1-.536.415 1.65 1.65 0 0 1-.682.135z"/><path d="M52.881 227.273V220h4.361v.781h-3.48v2.458h3.153v.781h-3.153v3.253h-.881zm5.697 0v-5.455h.81v.824h.057c.099-.27.279-.489.54-.657a1.59 1.59 0 0 1 .881-.252l.231.004.21.01v.853a2.43 2.43 0 0 0-.195-.032c-.099-.017-.205-.025-.316-.025-.265 0-.502.055-.71.167a1.26 1.26 0 0 0-.49.454c-.118.192-.178.411-.178.657v3.452h-.838zm5.842.114c-.526 0-.979-.116-1.36-.348s-.671-.562-.877-.981-.305-.911-.305-1.47.102-1.051.305-1.477a2.41 2.41 0 0 1 .859-1.001c.369-.242.8-.363 1.293-.363.284 0 .565.048.842.142a2.09 2.09 0 0 1 .756.462 2.21 2.21 0 0 1 .543.838c.135.348.202.777.202 1.286v.355h-4.205v-.725h3.352c0-.307-.062-.582-.185-.824a1.39 1.39 0 0 0-.519-.571c-.222-.14-.485-.21-.788-.21-.334 0-.623.083-.867.249a1.63 1.63 0 0 0-.558.639 1.88 1.88 0 0 0-.195.845v.483c0 .412.071.761.213 1.048s.344.5.6.65.553.22.891.22a1.8 1.8 0 0 0 .597-.093 1.27 1.27 0 0 0 .465-.284c.13-.128.231-.286.302-.476l.81.228c-.085.274-.228.516-.43.724s-.45.367-.746.483-.629.171-.998.171zm7.255 1.931v-2.883h-.071c-.062.099-.149.225-.263.376s-.276.283-.487.402-.491.174-.842.174c-.455 0-.856-.115-1.204-.345s-.62-.559-.817-.98-.295-.924-.295-1.502.098-1.07.295-1.492.47-.747.82-.976.755-.345 1.215-.345c.355 0 .636.06.842.178a1.45 1.45 0 0 1 .476.398l.259.362h.099v-.867h.81v7.5h-.838zm-1.548-2.684c.336 0 .62-.088.852-.263s.408-.423.529-.735.181-.678.181-1.09-.059-.764-.178-1.069-.294-.547-.526-.718-.518-.259-.859-.259c-.355 0-.651.091-.888.274s-.411.425-.529.735-.174.653-.174 1.037.059.741.178 1.058a1.73 1.73 0 0 0 .533.753c.237.184.53.277.881.277zm7.358-1.591v-3.225h.838v5.455h-.838v-.923h-.057c-.128.277-.327.512-.597.706s-.611.288-1.023.288c-.341 0-.644-.075-.909-.224s-.474-.379-.625-.682-.227-.69-.227-1.154v-3.466h.838v3.409c0 .398.111.715.334.952s.511.355.859.355c.208 0 .42-.053.636-.159s.4-.27.547-.491.224-.5.224-.841zm4.66 2.344c-.525 0-.979-.116-1.36-.348s-.671-.562-.877-.981-.305-.911-.305-1.47.102-1.051.305-1.477a2.41 2.41 0 0 1 .859-1.001c.369-.242.8-.363 1.293-.363.284 0 .565.048.842.142a2.09 2.09 0 0 1 .756.462 2.21 2.21 0 0 1 .543.838c.135.348.202.777.202 1.286v.355h-4.204v-.725h3.352c0-.307-.062-.582-.185-.824s-.293-.432-.518-.571-.485-.21-.788-.21c-.334 0-.623.083-.867.249a1.63 1.63 0 0 0-.557.639 1.88 1.88 0 0 0-.195.845v.483c0 .412.071.761.213 1.048s.344.5.6.65.553.22.891.22a1.8 1.8 0 0 0 .597-.093 1.27 1.27 0 0 0 .465-.284 1.29 1.29 0 0 0 .302-.476l.81.228c-.085.274-.228.516-.43.724s-.45.367-.746.483-.629.171-.998.171zm4.371-3.395v3.281h-.838v-5.455h.81v.853h.071a1.56 1.56 0 0 1 .582-.668c.26-.17.597-.256 1.008-.256.369 0 .693.076.97.228a1.53 1.53 0 0 1 .646.681c.154.304.231.687.231 1.151v3.466h-.838v-3.409c0-.429-.111-.762-.334-1.002s-.528-.362-.916-.362c-.268 0-.507.058-.717.174a1.25 1.25 0 0 0-.494.508c-.121.223-.181.492-.181.81zm7.227 3.395c-.511 0-.952-.121-1.321-.363a2.36 2.36 0 0 1-.852-.997c-.199-.424-.298-.908-.298-1.453 0-.554.102-1.043.305-1.467s.493-.758.859-.997.8-.363 1.293-.363c.383 0 .729.071 1.037.213s.56.341.756.597a1.86 1.86 0 0 1 .366.895h-.838a1.3 1.3 0 0 0-.426-.661c-.218-.194-.511-.291-.881-.291-.327 0-.613.085-.859.256s-.434.406-.572.714-.202.664-.202 1.076c0 .421.066.788.199 1.101s.324.555.568.728.535.259.867.259c.218 0 .415-.038.593-.114a1.23 1.23 0 0 0 .451-.327 1.25 1.25 0 0 0 .263-.511h.838a1.94 1.94 0 0 1-.352.87c-.185.256-.43.459-.735.611s-.656.224-1.058.224zm3.91 1.931c-.142 0-.269-.011-.38-.035s-.188-.043-.231-.064l.213-.739c.204.052.383.071.54.057s.295-.084.415-.209.236-.324.337-.601l.156-.426-2.017-5.483h.909l1.506 4.347h.057l1.506-4.347h.909l-2.315 6.25c-.104.282-.233.515-.387.7a1.45 1.45 0 0 1-.536.415c-.201.09-.428.135-.682.135z"/></g><path d="M21 207.023h219" class="B I"/><g class="D"><path d="M53.179 255.273h-.923l2.67-7.273h.909l2.67 7.273h-.923l-2.173-6.122h-.057l-2.173 6.122zm.341-2.841h3.722v.781H53.52v-.781zm8.065 2.955c-.454 0-.856-.115-1.204-.345s-.62-.559-.817-.98-.295-.924-.295-1.502.098-1.07.295-1.492.47-.747.82-.976.755-.345 1.215-.345c.355 0 .636.06.842.178a1.45 1.45 0 0 1 .476.398l.259.362h.071V248h.838v7.273h-.81v-.838h-.099c-.062.099-.149.225-.263.376s-.276.283-.486.402-.491.174-.842.174zm.114-.753c.336 0 .62-.088.852-.263a1.65 1.65 0 0 0 .529-.735 3.03 3.03 0 0 0 .181-1.09c0-.408-.059-.764-.178-1.069a1.56 1.56 0 0 0-.526-.718c-.232-.172-.518-.259-.859-.259-.355 0-.651.091-.888.274s-.411.425-.529.735-.174.653-.174 1.037.059.741.178 1.058a1.73 1.73 0 0 0 .533.753c.237.184.53.277.881.277zm5.643.767c-.346 0-.659-.065-.941-.196s-.505-.323-.671-.571-.249-.554-.249-.909c0-.313.062-.566.185-.76a1.3 1.3 0 0 1 .494-.462c.206-.111.433-.194.682-.249l.756-.134.806-.096c.208-.024.36-.063.455-.118s.146-.149.146-.284v-.028c0-.35-.096-.623-.288-.817s-.477-.291-.863-.291c-.4 0-.714.088-.941.263a1.55 1.55 0 0 0-.479.561l-.795-.284c.142-.332.331-.59.568-.774s.5-.318.781-.391.563-.114.838-.114c.175 0 .376.022.604.064s.451.125.664.252.394.321.536.579.213.604.213 1.037v3.594h-.838v-.739h-.043c-.057.119-.151.245-.284.38s-.309.25-.529.345-.489.142-.806.142zm.128-.753c.331 0 .611-.065.838-.195s.403-.299.519-.505.177-.422.177-.649v-.768c-.035.043-.114.082-.234.118s-.256.062-.412.088l-.451.064-.352.043a3.24 3.24 0 0 0-.611.138c-.187.062-.339.156-.455.281s-.17.291-.17.504c0 .291.108.512.323.661s.494.22.828.22zm3.902 2.67v-7.5h.81v.867h.1l.256-.362a1.5 1.5 0 0 1 .476-.398c.208-.118.49-.178.845-.178.459 0 .864.115 1.214.345s.624.555.82.976.295.919.295 1.492-.098 1.078-.295 1.502-.469.748-.817.98-.749.345-1.204.345c-.35 0-.631-.058-.842-.174s-.373-.253-.486-.402l-.263-.376h-.071v2.883h-.838zm.824-4.772c0 .412.06.775.181 1.09s.297.557.529.735.516.263.852.263c.35 0 .643-.093.877-.277s.414-.438.533-.753.181-.67.181-1.058a2.87 2.87 0 0 0-.178-1.037c-.116-.31-.292-.555-.529-.735s-.529-.274-.884-.274c-.341 0-.627.087-.859.259s-.407.41-.525.718-.178.661-.178 1.069zm7.642-2.728v.711H77.01v-.711h2.827zm-2.003-1.306h.838v5.198c0 .237.034.415.103.533a.53.53 0 0 0 .27.234 1.08 1.08 0 0 0 .352.057c.092 0 .168-.004.227-.014l.142-.028.171.753c-.057.021-.136.042-.238.063a1.73 1.73 0 0 1-.387.036c-.237 0-.469-.051-.696-.153s-.412-.257-.561-.465-.22-.471-.22-.788v-5.426zm3.263 6.761v-5.455h.838v5.455h-.838zm.426-6.364a.59.59 0 0 1-.423-.167c-.116-.111-.174-.245-.174-.401s.058-.29.174-.401.259-.167.423-.167.303.056.419.167a.53.53 0 0 1 .178.401.53.53 0 0 1-.178.401.58.58 0 0 1-.419.167zm6.407.909l-2.017 5.455h-.852l-2.017-5.455h.909l1.506 4.347h.057l1.506-4.347h.909zm3.198 5.569c-.526 0-.979-.116-1.36-.348a2.34 2.34 0 0 1-.877-.981c-.204-.421-.305-.911-.305-1.47s.102-1.051.305-1.477a2.41 2.41 0 0 1 .859-1.001c.369-.242.8-.363 1.293-.363.284 0 .565.048.842.142a2.09 2.09 0 0 1 .756.462 2.21 2.21 0 0 1 .543.838c.135.348.202.777.202 1.286v.355h-4.205v-.725h3.352c0-.307-.062-.582-.185-.824a1.39 1.39 0 0 0-.519-.571c-.222-.14-.485-.21-.788-.21-.334 0-.623.083-.867.249a1.63 1.63 0 0 0-.558.639 1.88 1.88 0 0 0-.195.845v.483c0 .412.071.761.213 1.048s.344.5.6.65.553.22.891.22a1.8 1.8 0 0 0 .597-.093 1.27 1.27 0 0 0 .465-.284c.13-.128.231-.286.302-.476l.81.228c-.085.274-.229.516-.43.724s-.45.367-.746.483-.629.171-.998.171zm8.704-.114h-2.244V248h2.344c.706 0 1.31.146 1.811.437s.886.704 1.154 1.246.401 1.187.401 1.939c0 .758-.135 1.41-.405 1.957a2.88 2.88 0 0 1-1.179 1.257c-.516.291-1.143.437-1.882.437zm-1.364-.781h1.307c.602 0 1.1-.116 1.495-.348s.69-.563.884-.991.292-.939.292-1.531-.096-1.092-.288-1.516-.478-.753-.859-.98-.856-.345-1.424-.345h-1.406v5.711zm7.799.909a2.2 2.2 0 0 1-.941-.196c-.282-.132-.506-.323-.672-.571s-.248-.554-.248-.909c0-.313.061-.566.185-.76s.287-.351.493-.462a2.62 2.62 0 0 1 .682-.249l.756-.134.806-.096c.209-.024.36-.063.455-.118s.146-.149.146-.284v-.028c0-.35-.096-.623-.288-.817s-.477-.291-.863-.291c-.4 0-.714.088-.941.263s-.387.362-.479.561l-.796-.284c.142-.332.332-.59.568-.774s.5-.318.782-.391a3.23 3.23 0 0 1 .838-.114 3.37 3.37 0 0 1 .603.064 1.96 1.96 0 0 1 .664.252c.216.128.395.321.537.579s.213.604.213 1.037v3.594h-.838v-.739h-.043c-.057.119-.152.245-.284.38a1.65 1.65 0 0 1-.529.345c-.22.094-.489.142-.806.142zm.128-.753c.331 0 .61-.065.838-.195a1.34 1.34 0 0 0 .518-.505c.118-.206.178-.422.178-.649v-.768c-.036.043-.114.082-.235.118s-.255.062-.412.088l-.451.064-.351.043c-.218.028-.422.075-.611.138s-.339.156-.455.281-.17.291-.17.504c0 .291.108.512.323.661s.494.22.828.22zm6.274-4.83v.711h-2.827v-.711h2.827zm-2.003-1.306h.838v5.198c0 .237.034.415.103.533a.53.53 0 0 0 .27.234c.111.038.228.057.351.057a1.42 1.42 0 0 0 .227-.014l.142-.028.171.753c-.057.021-.136.042-.238.063a1.73 1.73 0 0 1-.387.036 1.68 1.68 0 0 1-.696-.153c-.225-.102-.412-.257-.561-.465s-.22-.471-.22-.788v-5.426zm4.868 6.889c-.345 0-.659-.065-.941-.196s-.505-.323-.671-.571-.249-.554-.249-.909c0-.313.062-.566.185-.76a1.3 1.3 0 0 1 .494-.462 2.62 2.62 0 0 1 .682-.249l.756-.134.806-.096c.208-.024.36-.063.455-.118s.145-.149.145-.284v-.028c0-.35-.096-.623-.287-.817s-.477-.291-.863-.291c-.4 0-.714.088-.941.263s-.387.362-.48.561l-.795-.284c.142-.332.331-.59.568-.774a2.12 2.12 0 0 1 .781-.391c.284-.076.564-.114.838-.114a3.38 3.38 0 0 1 .604.064 1.96 1.96 0 0 1 .664.252c.215.128.394.321.536.579s.213.604.213 1.037v3.594h-.838v-.739h-.042c-.057.119-.152.245-.285.38s-.308.25-.529.345-.488.142-.806.142zm.128-.753c.332 0 .611-.065.838-.195s.403-.299.519-.505.177-.422.177-.649v-.768c-.035.043-.113.082-.234.118s-.256.062-.412.088l-.451.064-.352.043a3.24 3.24 0 0 0-.61.138c-.187.062-.339.156-.455.281s-.17.291-.17.504c0 .291.107.512.323.661s.493.22.827.22zm3.902.625v-5.455h.81v.824h.056c.1-.27.28-.489.54-.657a1.59 1.59 0 0 1 .881-.252l.231.004.209.01v.853c-.028-.007-.093-.018-.195-.032s-.205-.025-.316-.025c-.265 0-.502.055-.71.167s-.37.26-.49.454a1.22 1.22 0 0 0-.178.657v3.452h-.838zm5.326.128a2.2 2.2 0 0 1-.941-.196c-.282-.132-.506-.323-.671-.571s-.249-.554-.249-.909c0-.313.061-.566.185-.76s.287-.351.493-.462a2.62 2.62 0 0 1 .682-.249l.756-.134.807-.096c.208-.024.359-.063.454-.118s.146-.149.146-.284v-.028c0-.35-.096-.623-.288-.817s-.477-.291-.863-.291c-.4 0-.714.088-.941.263s-.387.362-.479.561l-.796-.284c.142-.332.332-.59.568-.774s.5-.318.782-.391a3.23 3.23 0 0 1 .838-.114 3.37 3.37 0 0 1 .603.064 1.96 1.96 0 0 1 .664.252c.216.128.395.321.537.579s.213.604.213 1.037v3.594h-.838v-.739h-.043a1.46 1.46 0 0 1-.284.38 1.65 1.65 0 0 1-.529.345c-.22.094-.489.142-.806.142zm.128-.753c.331 0 .61-.065.838-.195a1.34 1.34 0 0 0 .518-.505c.118-.206.178-.422.178-.649v-.768c-.036.043-.114.082-.235.118s-.255.062-.412.088l-.451.064-.351.043c-.218.028-.422.075-.611.138s-.339.156-.455.281-.17.291-.17.504c0 .291.108.512.323.661s.494.22.828.22zm6.274-4.83v.711h-2.827v-.711h2.827zm-2.003-1.306h.838v5.198c0 .237.034.415.103.533a.53.53 0 0 0 .27.234c.111.038.228.057.351.057.093 0 .168-.004.227-.014l.143-.028.17.753c-.057.021-.136.042-.238.063a1.73 1.73 0 0 1-.387.036 1.68 1.68 0 0 1-.696-.153c-.225-.102-.412-.257-.561-.465s-.22-.471-.22-.788v-5.426zm5.492 6.875c-.526 0-.979-.116-1.361-.348s-.671-.562-.877-.981-.305-.911-.305-1.47.102-1.051.305-1.477.493-.762.86-1.001.8-.363 1.292-.363c.284 0 .565.048.842.142s.529.249.756.462.409.49.544.838.202.777.202 1.286v.355h-4.204v-.725h3.352c0-.307-.062-.582-.185-.824a1.39 1.39 0 0 0-.518-.571c-.223-.14-.486-.21-.789-.21-.333 0-.622.083-.866.249s-.427.376-.558.639a1.88 1.88 0 0 0-.195.845v.483c0 .412.071.761.213 1.048s.345.5.6.65.553.22.892.22c.22 0 .419-.031.596-.093s.335-.158.465-.284.231-.286.302-.476l.81.228c-.085.274-.229.516-.43.724s-.45.367-.746.483-.628.171-.997.171z"/><path d="M58.733 281.273h-.881c-.052-.253-.143-.476-.273-.668s-.284-.352-.469-.483-.385-.232-.607-.298-.455-.099-.696-.099c-.44 0-.839.111-1.197.333s-.638.551-.849.984-.312.965-.312 1.595.104 1.161.313 1.594.494.761.849.984.756.334 1.197.334c.241 0 .473-.034.696-.1a2.01 2.01 0 0 0 .607-.295c.185-.132.341-.294.469-.486s.221-.417.273-.668h.881c-.066.372-.187.705-.362.998a2.72 2.72 0 0 1-.653.749c-.26.204-.553.359-.877.466s-.666.159-1.033.159c-.62 0-1.172-.151-1.655-.454s-.863-.734-1.14-1.293-.415-1.221-.415-1.988.139-1.43.415-1.989.657-.99 1.14-1.293 1.035-.454 1.655-.454c.367 0 .711.053 1.033.16s.617.262.877.468.478.453.653.746.296.624.362.998zm3.525 5.114c-.492 0-.924-.118-1.296-.352s-.658-.562-.867-.984-.309-.913-.309-1.477.103-1.064.309-1.488a2.38 2.38 0 0 1 .867-.987c.372-.234.804-.352 1.296-.352s.923.118 1.293.352.66.563.866.987.313.92.313 1.488-.104 1.056-.312 1.477a2.35 2.35 0 0 1-.866.984c-.369.234-.8.352-1.293.352zm0-.753c.374 0 .682-.096.923-.288s.42-.444.536-.756a2.9 2.9 0 0 0 .174-1.016c0-.364-.058-.704-.174-1.019s-.295-.569-.536-.764-.549-.291-.923-.291-.682.097-.923.291-.42.449-.536.764-.174.655-.174 1.019a2.9 2.9 0 0 0 .174 1.016 1.7 1.7 0 0 0 .536.756c.242.192.549.288.923.288zm4.589-2.642v3.281h-.838v-5.455h.81v.853h.071a1.56 1.56 0 0 1 .582-.668c.26-.17.597-.256 1.008-.256.369 0 .692.076.969.228a1.53 1.53 0 0 1 .646.681c.154.304.231.687.231 1.151v3.466h-.838v-3.409c0-.429-.111-.762-.334-1.002s-.528-.362-.916-.362c-.267 0-.507.058-.717.174a1.25 1.25 0 0 0-.494.508c-.121.223-.181.492-.181.81zm7.441-2.174v.711h-2.94v-.711h2.94zm-2.06 5.455v-6.207c0-.313.073-.573.22-.782s.337-.364.572-.468.482-.157.742-.157c.206 0 .374.017.504.05s.227.064.291.092l-.242.725-.177-.053a1.05 1.05 0 0 0-.291-.032c-.277 0-.477.069-.6.209s-.181.345-.181.614v6.009h-.838zm3.234 0v-5.455h.838v5.455h-.838zm.426-6.364c-.163 0-.304-.055-.423-.167s-.174-.245-.174-.401.058-.29.174-.401.259-.167.423-.167.303.056.419.167a.53.53 0 0 1 .178.401.53.53 0 0 1-.178.401.58.58 0 0 1-.419.167zm1.947 6.364v-5.455h.81v.824h.057c.099-.27.279-.489.54-.657a1.59 1.59 0 0 1 .881-.252l.231.004.21.01v.853a2.43 2.43 0 0 0-.195-.032c-.1-.017-.205-.025-.316-.025-.265 0-.502.055-.71.167a1.26 1.26 0 0 0-.49.454c-.118.192-.177.411-.177.657v3.452h-.838zm3.721 0v-5.455h.81v.853h.071a1.37 1.37 0 0 1 .55-.679c.253-.163.558-.245.913-.245s.659.082.898.245.43.387.565.679h.057c.14-.282.349-.506.629-.671s.614-.253 1.005-.253c.488 0 .887.153 1.197.458s.465.776.465 1.417v3.651h-.838v-3.651c0-.402-.11-.69-.33-.863s-.479-.259-.778-.259c-.383 0-.681.116-.891.348s-.316.521-.316.874v3.551h-.852v-3.736c0-.31-.101-.56-.302-.749a1.08 1.08 0 0 0-.778-.288 1.15 1.15 0 0 0-.611.174c-.187.116-.339.277-.455.483s-.17.439-.17.707v3.409h-.838zm10.978.114c-.526 0-.979-.116-1.36-.348s-.671-.562-.877-.981-.305-.911-.305-1.47.102-1.051.305-1.477a2.41 2.41 0 0 1 .859-1.001c.369-.242.8-.363 1.293-.363.284 0 .565.048.842.142a2.09 2.09 0 0 1 .756.462c.227.211.408.49.543.838s.202.777.202 1.286v.355h-4.205v-.725h3.352c0-.307-.062-.582-.185-.824s-.293-.432-.518-.571a1.45 1.45 0 0 0-.788-.21c-.334 0-.623.083-.867.249a1.63 1.63 0 0 0-.558.639 1.88 1.88 0 0 0-.195.845v.483c0 .412.071.761.213 1.048s.344.5.6.65.553.22.891.22a1.8 1.8 0 0 0 .597-.093 1.27 1.27 0 0 0 .465-.284c.13-.128.231-.286.302-.476l.81.228c-.085.274-.228.516-.43.724s-.45.367-.746.483-.629.171-.998.171zm5.593 0c-.455 0-.856-.115-1.204-.345s-.62-.559-.817-.98-.295-.924-.295-1.502.098-1.07.295-1.492.47-.747.82-.976.755-.345 1.215-.345c.355 0 .636.06.842.178a1.45 1.45 0 0 1 .476.398l.259.362h.071V279h.838v7.273h-.809v-.838h-.099c-.062.099-.149.225-.263.376s-.276.283-.487.402-.491.174-.842.174zm.114-.753c.336 0 .62-.088.852-.263a1.65 1.65 0 0 0 .529-.735 3.03 3.03 0 0 0 .181-1.09c0-.408-.059-.764-.178-1.069a1.56 1.56 0 0 0-.526-.718c-.232-.172-.519-.259-.859-.259-.355 0-.651.091-.888.274s-.411.425-.529.735-.174.653-.174 1.037.059.741.178 1.058a1.73 1.73 0 0 0 .533.753c.237.184.53.277.881.277zm6.964-6.634h1.051l2.472 6.037h.085l2.471-6.037h1.052v7.273h-.824v-5.526h-.071l-2.273 5.526h-.795l-2.273-5.526h-.071v5.526h-.824V279zm11.07 7.387c-.526 0-.979-.116-1.36-.348s-.672-.562-.878-.981-.305-.911-.305-1.47.102-1.051.305-1.477.493-.762.86-1.001.8-.363 1.292-.363c.285 0 .565.048.842.142s.529.249.756.462.409.49.544.838.202.777.202 1.286v.355h-4.204v-.725h3.352c0-.307-.062-.582-.185-.824a1.38 1.38 0 0 0-.518-.571c-.223-.14-.486-.21-.789-.21-.333 0-.622.083-.866.249s-.427.376-.558.639a1.88 1.88 0 0 0-.195.845v.483c0 .412.071.761.213 1.048a1.55 1.55 0 0 0 .6.65c.256.146.553.22.892.22.22 0 .419-.031.596-.093s.335-.158.465-.284.231-.286.302-.476l.81.228c-.085.274-.228.516-.43.724s-.45.367-.745.483a2.76 2.76 0 0 1-.998.171zm7.397-4.347l-.753.213a1.39 1.39 0 0 0-.21-.366c-.09-.12-.213-.22-.369-.298s-.356-.117-.6-.117c-.334 0-.612.077-.835.231s-.33.344-.33.578c0 .209.076.373.227.494s.389.221.711.302l.809.199c.488.118.851.299 1.09.543s.359.553.359.934c0 .313-.09.592-.27.838s-.426.44-.745.583-.692.213-1.116.213c-.556 0-1.016-.121-1.381-.363s-.595-.594-.692-1.058l.795-.199c.076.294.219.514.43.661s.491.22.834.22c.391 0 .701-.083.931-.249s.348-.369.348-.603c0-.19-.067-.348-.199-.476s-.336-.227-.611-.291l-.909-.213c-.5-.119-.867-.302-1.101-.551s-.348-.564-.348-.941c0-.308.086-.58.259-.817s.413-.422.714-.557.646-.203 1.03-.203c.54 0 .963.119 1.271.355s.53.55.661.938zm5.224 0l-.753.213c-.047-.125-.117-.247-.209-.366s-.213-.22-.369-.298-.357-.117-.601-.117c-.333 0-.611.077-.834.231s-.33.344-.33.578c0 .209.075.373.227.494s.388.221.71.302l.81.199c.488.118.851.299 1.09.543s.359.553.359.934c0 .313-.09.592-.27.838s-.426.44-.746.583-.691.213-1.115.213c-.556 0-1.017-.121-1.381-.363s-.596-.594-.693-1.058l.796-.199c.075.294.219.514.429.661s.492.22.835.22c.39 0 .701-.083.93-.249s.348-.369.348-.603a.63.63 0 0 0-.199-.476c-.132-.13-.336-.227-.61-.291l-.909-.213c-.5-.119-.867-.302-1.101-.551s-.348-.564-.348-.941c0-.308.086-.58.259-.817s.413-.422.714-.557.646-.203 1.029-.203c.54 0 .964.119 1.272.355s.53.55.66.938zm2.966 4.361c-.345 0-.659-.065-.941-.196a1.62 1.62 0 0 1-.671-.571c-.166-.251-.248-.554-.248-.909 0-.313.061-.566.184-.76a1.3 1.3 0 0 1 .494-.462 2.62 2.62 0 0 1 .682-.249l.756-.134.806-.096c.209-.024.36-.063.455-.118s.145-.149.145-.284v-.028c0-.35-.096-.623-.287-.817s-.477-.291-.863-.291c-.4 0-.714.088-.941.263s-.387.362-.48.561l-.795-.284c.142-.332.331-.59.568-.774a2.13 2.13 0 0 1 .781-.391c.284-.076.564-.114.838-.114a3.37 3.37 0 0 1 .604.064 1.96 1.96 0 0 1 .664.252c.216.128.394.321.536.579s.213.604.213 1.037v3.594h-.838v-.739h-.042c-.057.119-.152.245-.284.38a1.65 1.65 0 0 1-.529.345c-.221.094-.489.142-.807.142zm.128-.753c.332 0 .611-.065.838-.195s.403-.299.519-.505.177-.422.177-.649v-.768c-.035.043-.113.082-.234.118a3.99 3.99 0 0 1-.412.088l-.451.064-.352.043a3.24 3.24 0 0 0-.61.138c-.187.062-.339.156-.455.281s-.17.291-.17.504c0 .291.107.512.323.661s.493.22.827.22zm6.104 2.784c-.405 0-.753-.052-1.044-.156s-.534-.237-.728-.405a2.19 2.19 0 0 1-.458-.533l.667-.468.288.34c.116.131.275.243.476.338s.47.145.799.145c.44 0 .803-.106 1.09-.319s.43-.547.43-1.002v-1.108h-.071c-.062.1-.15.223-.263.37s-.272.273-.483.387-.49.167-.845.167c-.441 0-.836-.104-1.186-.313s-.624-.511-.828-.909-.302-.881-.302-1.449c0-.558.099-1.045.295-1.459s.47-.739.82-.966.756-.345 1.215-.345c.355 0 .637.06.845.178s.372.249.483.398l.263.362h.085v-.867h.81v5.611c0 .469-.107.85-.32 1.144s-.495.512-.852.65a3.23 3.23 0 0 1-1.186.209zm-.029-2.997c.337 0 .621-.077.853-.231s.408-.375.529-.664.181-.634.181-1.037c0-.393-.059-.74-.178-1.04s-.293-.537-.525-.707-.519-.256-.86-.256c-.355 0-.651.09-.887.27s-.411.422-.53.725a2.8 2.8 0 0 0-.174 1.008c0 .379.06.714.178 1.005s.298.516.533.682.53.245.88.245zm6.208.952c-.526 0-.979-.116-1.36-.348s-.672-.562-.877-.981-.306-.911-.306-1.47.102-1.051.306-1.477.492-.762.859-1.001.8-.363 1.293-.363a2.6 2.6 0 0 1 .841.142 2.1 2.1 0 0 1 .757.462c.227.211.408.49.543.838s.202.777.202 1.286v.355h-4.204v-.725h3.352c0-.307-.062-.582-.185-.824a1.38 1.38 0 0 0-.518-.571 1.45 1.45 0 0 0-.788-.21c-.334 0-.623.083-.867.249a1.64 1.64 0 0 0-.558.639 1.88 1.88 0 0 0-.195.845v.483c0 .412.071.761.213 1.048a1.55 1.55 0 0 0 .6.65c.256.146.553.22.892.22.22 0 .419-.031.596-.093a1.28 1.28 0 0 0 .466-.284 1.29 1.29 0 0 0 .301-.476l.81.228c-.085.274-.228.516-.43.724s-.449.367-.745.483a2.76 2.76 0 0 1-.998.171z"/></g><g clip-path="url(#E)" class="E"><path d="M38.75 163.44c-1.149 0-2.083.934-2.083 2.083v1.25A1.67 1.67 0 0 1 35 168.44a1.67 1.67 0 0 1-1.667-1.667v-1.25c1.149 0 2.083-.935 2.083-2.083v-1.25h.417v-.834h-1.25v-2.083h-.833v2.083h-1.667v-2.083h-.833v2.083H30v.834h.417v1.25c0 1.148.934 2.083 2.083 2.083v1.25c0 1.379 1.121 2.5 2.5 2.5s2.5-1.121 2.5-2.5v-1.25a1.25 1.25 0 0 1 1.25-1.25H40v-.833h-1.25zm-6.25 1.25a1.25 1.25 0 0 1-1.25-1.25v-1.25h3.333v1.25a1.25 1.25 0 0 1-1.25 1.25H32.5z"/></g><g clip-path="url(#F)" class="E"><path d="M37.5 220.023h-4.477l5.645-1.861c.26-.085.395-.348.302-.586s-.38-.363-.639-.276l-8.605 2.835c-1 .3-1.726 1.164-1.726 2.179v3.667c0 1.264 1.122 2.292 2.5 2.292h7c1.379 0 2.5-1.028 2.5-2.292v-3.667c0-1.263-1.121-2.291-2.5-2.291zm1.5 5.958c0 .759-.672 1.375-1.5 1.375h-7c-.828 0-1.5-.616-1.5-1.375v-3.667c0-.759.672-1.375 1.5-1.375h7c.828 0 1.5.616 1.5 1.375v3.667zm-6.5-1.833c0 .253-.224.458-.5.458h-1.5c-.276 0-.5-.205-.5-.458s.224-.459.5-.459H32c.276 0 .5.206.5.459zm0 1.833c0 .253-.224.458-.5.458h-1.5c-.276 0-.5-.205-.5-.458s.224-.458.5-.458H32c.276 0 .5.205.5.458zm0-3.667c0 .253-.224.459-.5.459h-1.5c-.276 0-.5-.206-.5-.459s.224-.458.5-.458H32c.276 0 .5.205.5.458zm3.25-.229c-1.24 0-2.25.926-2.25 2.063s1.01 2.062 2.25 2.062 2.25-.925 2.25-2.062-1.01-2.063-2.25-2.063zm0 3.208c-.689 0-1.25-.514-1.25-1.145s.561-1.146 1.25-1.146 1.25.514 1.25 1.146-.561 1.145-1.25 1.145z"/></g><path d="M22 237.023h219m-219 29h219m-219 31h219" class="B I"/><path d="M33.333 196.189c0 .23-.187.417-.417.417h-.833c-1.149 0-2.083-.934-2.083-2.083v-2.5c0-1.149.935-2.084 2.083-2.084h.833c.23 0 .417.187.417.417s-.187.417-.417.417h-.833a1.25 1.25 0 0 0-1.25 1.25v2.5a1.25 1.25 0 0 0 1.25 1.25h.833c.23 0 .417.186.417.416zm2.817-2.91a.79.79 0 0 0-.695-.423l-1.671.021 1.263-2.322c.11-.202.035-.455-.167-.565s-.455-.035-.565.167l-1.364 2.526c-.073.239-.031.489.115.686s.392.32.651.32h1.684l-.005.011-1.143 2.304c-.102.206-.018.456.188.558a.41.41 0 0 0 .185.044c.153 0 .301-.085.374-.232l1.133-2.285c.148-.244.156-.551.017-.81h0zm3.433-1.673h-.459a2.09 2.09 0 0 0-2.041-1.667h-.833c-.23 0-.417.187-.417.417s.186.417.417.417h.833a1.25 1.25 0 0 1 1.25 1.25v2.5a1.25 1.25 0 0 1-1.25 1.25h-.833c-.23 0-.417.186-.417.416s.186.417.417.417h.833c1.006 0 1.848-.717 2.041-1.667h.459c.23 0 .417-.186.417-.416v-2.5c0-.23-.187-.417-.417-.417z" class="E"/><g clip-path="url(#G)" class="E"><path d="M37.708 132.432v-.534c0-.696-.338-1.364-.94-1.856s-1.418-.769-2.269-.769-1.667.277-2.269.769-.94 1.16-.94 1.856v.534c-.408.146-.756.386-1 .69s-.374.662-.375 1.026v2.25c.001.497.242.974.672 1.325s1.012.549 1.62.55h4.583c.608-.001 1.19-.198 1.62-.55s.671-.828.672-1.325v-2.25c-.001-.364-.131-.721-.375-1.026s-.592-.544-1-.69zm-5.5-.534c0-.497.241-.974.671-1.326s1.013-.549 1.62-.549 1.191.197 1.62.549.671.829.671 1.326v.375h-4.583v-.375zm5.958 4.5c0 .298-.145.584-.403.795s-.608.33-.972.33h-4.583c-.365 0-.714-.119-.972-.33s-.403-.497-.403-.795v-2.25c0-.298.145-.585.403-.796s.608-.329.972-.329h4.583c.365 0 .714.118.972.329s.403.498.403.796v2.25zm-3.666-1.875a.51.51 0 0 0-.324.11c-.086.07-.134.165-.134.265v.75c0 .099.048.195.134.265s.203.11.324.11.238-.04.324-.11.134-.166.134-.265v-.75c0-.1-.048-.195-.134-.265a.51.51 0 0 0-.324-.11z"/></g><g clip-path="url(#H)" class="E"><path d="M38.596 246.677a1.36 1.36 0 0 0-.594-.351c-.225-.064-.462-.07-.69-.015l-7.333 1.544a2.29 2.29 0 0 0-1.149.505c-.328.271-.574.63-.71 1.034s-.156.837-.059 1.252.309.795.61 1.096l.787.787a.47.47 0 0 1 .099.149.46.46 0 0 1 .035.176v1.452a1.36 1.36 0 0 0 .137.589l-.004.003.012.012c.134.27.354.488.624.621l.012.012.003-.003c.183.089.385.136.589.137h1.452a.46.46 0 0 1 .324.134l.787.787c.211.213.462.383.739.499s.574.176.874.176a2.3 2.3 0 0 0 .736-.121c.4-.131.756-.372 1.027-.695s.446-.715.506-1.132l1.547-7.349a1.36 1.36 0 0 0-.01-.697 1.37 1.37 0 0 0-.353-.602zm-8.488 5.205l-.788-.787c-.183-.179-.312-.406-.371-.656a1.35 1.35 0 0 1 .04-.753c.082-.248.233-.467.437-.632s.449-.267.709-.296l7.26-1.529-6.886 6.888v-1.263c.001-.181-.034-.359-.103-.526a1.37 1.37 0 0 0-.298-.446zm6.403 3.286c-.035.254-.14.492-.303.689a1.37 1.37 0 0 1-1.371.461 1.37 1.37 0 0 1-.658-.365l-.788-.788c-.127-.128-.279-.23-.445-.299s-.345-.104-.526-.104h-1.263l6.887-6.885-1.533 7.291z"/></g><g clip-path="url(#I)" class="E"><path d="M28.588 280.48a.39.39 0 0 1 .01-.589.49.49 0 0 1 .648.008l1.874 1.755c.141.129.334.202.539.203a.8.8 0 0 0 .54-.204l4.184-3.84a.49.49 0 0 1 .648-.003.39.39 0 0 1 .003.589l-4.185 3.841c-.319.29-.744.449-1.194.449a1.75 1.75 0 0 1-1.19-.452l-1.878-1.757zm10.277-.169a.49.49 0 0 0-.648.001l-5.998 5.467c-.173.157-.405.244-.65.244a.96.96 0 0 1-.652-.25l-2.138-1.924c-.181-.161-.47-.16-.649.004a.39.39 0 0 0 .003.589l2.135 1.921c.346.317.807.492 1.298.493s.954-.173 1.3-.489l5.999-5.467a.39.39 0 0 0-.001-.589z"/></g><path d="M221.667 246.106h-5.334c-2.94 0-5.333 2.543-5.333 5.667s2.393 5.667 5.333 5.667h5.334c2.94 0 5.333-2.542 5.333-5.667s-2.393-5.667-5.333-5.667zm0 9.209c-1.838 0-3.334-1.588-3.334-3.542s1.496-3.542 3.334-3.542S225 249.82 225 251.773s-1.495 3.542-3.333 3.542zm-1.334 19.791h-5.666c-3.125 0-5.667 2.543-5.667 5.667s2.542 5.667 5.667 5.667h5.666c3.125 0 5.667-2.542 5.667-5.667s-2.542-5.667-5.667-5.667zm0 9.209c-1.953 0-3.541-1.588-3.541-3.542s1.588-3.542 3.541-3.542 3.542 1.589 3.542 3.542-1.589 3.542-3.542 3.542z" class="G"/><path d="M220.933 139.773l-.531-.5 3.134-2.925-3.134-2.925.531-.5 3.665 3.425-3.665 3.425z" class="H"/><path d="M243.733 225.787c0-2.062-1.671-3.733-3.733-3.733s-3.733 1.671-3.733 3.733 1.671 3.733 3.733 3.733 3.733-1.671 3.733-3.733zm114.267 0v-.7H240v.7.7h118v-.7z" fill="url(#D)"/><g filter="url(#B)" class="C"><rect x="358" y="51.776" width="311" height="375.861" rx="10"/></g><path d="M389.351 126.974h-1.108l3.204-8.728h1.091l3.205 8.728h-1.108l-2.608-7.347h-.068l-2.608 7.347zm.409-3.409h4.466v.937h-4.466v-.937zm12.115-3.137a1.34 1.34 0 0 0-.622-1.006c-.364-.238-.81-.357-1.339-.357-.386 0-.724.062-1.014.187s-.511.297-.673.516-.239.467-.239.745c0 .233.056.434.167.601a1.47 1.47 0 0 0 .434.414 3.11 3.11 0 0 0 .554.268l.533.166.886.239a7.93 7.93 0 0 1 .759.247c.281.105.549.249.805.43a2.24 2.24 0 0 1 .639.691c.167.281.252.626.252 1.035a2.3 2.3 0 0 1-.371 1.279c-.244.38-.602.683-1.074.907s-1.038.337-1.709.337c-.625 0-1.166-.101-1.623-.303s-.813-.482-1.074-.843-.405-.78-.439-1.257h1.091c.028.329.139.602.332.818s.443.372.742.477a2.92 2.92 0 0 0 .971.153c.404 0 .766-.065 1.087-.196s.575-.318.763-.554.281-.517.281-.835c0-.29-.081-.525-.243-.707s-.375-.33-.639-.443-.55-.213-.857-.299l-1.073-.306c-.682-.196-1.222-.476-1.62-.84s-.596-.839-.596-1.427c0-.489.132-.915.396-1.279s.625-.65 1.074-.852.956-.307 1.513-.307 1.062.101 1.5.303.784.471 1.039.818a2.03 2.03 0 0 1 .409 1.18h-1.022zm5.504-2.301a3.12 3.12 0 0 1 1.074.205c.358.133.685.355.98.664s.533.726.712 1.257.268 1.198.268 1.999c0 .776-.073 1.465-.221 2.067s-.355 1.105-.631 1.517a2.82 2.82 0 0 1-.997.937c-.392.213-.83.32-1.321.32s-.925-.097-1.308-.29a2.57 2.57 0 0 1-.938-.814c-.241-.349-.396-.754-.464-1.214h1.04c.093.4.279.731.558.993s.652.387 1.112.387c.673 0 1.205-.294 1.594-.882s.588-1.419.588-2.493h-.068c-.159.239-.348.445-.567.618s-.462.307-.729.401-.551.141-.852.141c-.5 0-.959-.124-1.377-.371a2.77 2.77 0 0 1-.997-1.027 3 3 0 0 1-.37-1.5c0-.534.119-1.023.358-1.466a2.76 2.76 0 0 1 1.014-1.065c.437-.265.951-.392 1.542-.384zm0 .938c-.358 0-.68.089-.967.268s-.51.415-.678.716a1.99 1.99 0 0 0-.247.993 2.08 2.08 0 0 0 .239.993 1.91 1.91 0 0 0 .66.707c.282.173.601.26.959.26a1.81 1.81 0 0 0 .754-.158 1.95 1.95 0 0 0 .61-.439 2.12 2.12 0 0 0 .413-.634c.1-.239.149-.488.149-.746a1.95 1.95 0 0 0-.247-.959c-.162-.298-.386-.54-.673-.724a1.74 1.74 0 0 0-.972-.277zm4.71 7.909v-.767l2.881-3.154.835-.963c.219-.275.381-.534.486-.775a1.88 1.88 0 0 0 .162-.768c0-.306-.074-.572-.222-.796s-.344-.398-.596-.52-.537-.184-.853-.184c-.335 0-.627.07-.877.209a1.44 1.44 0 0 0-.576.576c-.133.247-.2.537-.2.869h-1.006c0-.511.118-.96.354-1.347s.557-.687.963-.903.868-.324 1.376-.324.965.108 1.36.324a2.44 2.44 0 0 1 .929.873c.224.367.336.775.336 1.223a2.64 2.64 0 0 1-.174.942c-.114.304-.313.644-.597 1.019s-.672.826-1.172 1.363l-1.96 2.097v.068h4.057v.938h-5.506zm10.215.119c-.563 0-1.064-.097-1.505-.29s-.785-.461-1.044-.805-.394-.749-.417-1.206h1.074a1.27 1.27 0 0 0 .289.729 1.69 1.69 0 0 0 .669.468c.276.111.581.166.917.166.375 0 .707-.065.997-.196a1.63 1.63 0 0 0 .682-.545c.164-.233.247-.503.247-.81a1.52 1.52 0 0 0-.239-.848c-.159-.247-.392-.44-.699-.579s-.682-.209-1.125-.209h-.699v-.938h.699c.347 0 .651-.062.912-.187s.47-.301.618-.528a1.44 1.44 0 0 0 .226-.802c0-.295-.065-.552-.196-.771s-.315-.389-.554-.511-.514-.184-.835-.184c-.301 0-.585.056-.853.167s-.48.265-.647.473a1.24 1.24 0 0 0-.273.741h-1.023c.017-.457.155-.858.414-1.202s.596-.616 1.014-.809.882-.29 1.385-.29c.54 0 1.003.109 1.389.328a2.32 2.32 0 0 1 .891.857c.207.355.311.738.311 1.15 0 .492-.13.911-.388 1.257a1.97 1.97 0 0 1-1.044.721v.068c.551.091.981.325 1.291.703s.465.839.465 1.393c0 .475-.13.901-.388 1.279s-.605.67-1.049.886-.947.324-1.512.324zm46.042-48.441v-.116h1.586v.109c0 .561.186.982.56 1.265s.905.424 1.579.424 1.185-.141 1.545-.424.54-.654.54-1.114c0-.433-.173-.775-.519-1.025s-1.03-.526-2.051-.814c-1.071-.296-1.848-.663-2.331-1.101s-.725-1.05-.725-1.839a2.48 2.48 0 0 1 .93-1.989c.62-.52 1.467-.779 2.543-.779s1.932.271 2.57.814.964 1.244.964 2.106v.109h-1.572v-.102c0-.492-.164-.889-.492-1.189s-.818-.458-1.47-.458-1.126.128-1.436.383-.458.599-.458 1.032a1.1 1.1 0 0 0 .479.95c.319.223.996.478 2.03.766 1.053.292 1.834.668 2.345 1.128s.768 1.114.772 1.962a2.51 2.51 0 0 1-.998 2.078c-.661.524-1.549.786-2.666.786s-2.016-.26-2.7-.779-1.025-1.251-1.025-2.181zm8.449-.738v-.219c0-1.094.31-1.982.93-2.666s1.431-1.025 2.433-1.025 1.78.321 2.331.964.827 1.506.827 2.605v.595h-5.537v-1.101h4.02v-.157c0-.478-.139-.884-.417-1.217s-.675-.506-1.19-.506c-.619 0-1.084.235-1.394.704s-.465 1.055-.465 1.77v.294c0 .706.164 1.294.492 1.764s.836.697 1.511.697c.433 0 .804-.098 1.114-.294a2.74 2.74 0 0 0 .766-.691l1.025.745c-.228.374-.592.706-1.094.998-.496.292-1.096.438-1.797.438-1.135 0-2.012-.342-2.632-1.025s-.923-1.575-.923-2.673zm8.032 3.493V70.921h1.525v10.486h-1.525zm3.097-3.493v-.219c0-1.094.31-1.982.93-2.666s1.431-1.025 2.433-1.025 1.78.321 2.331.964.827 1.506.827 2.605v.595h-5.537v-1.101h4.02v-.157c0-.478-.139-.884-.417-1.217s-.675-.506-1.19-.506c-.62 0-1.084.235-1.394.704s-.465 1.055-.465 1.77v.294c0 .706.164 1.294.492 1.764s.836.697 1.511.697c.433 0 .804-.098 1.114-.294a2.74 2.74 0 0 0 .766-.691l1.025.745c-.228.374-.592.706-1.094.998-.496.292-1.096.438-1.797.438-1.135 0-2.013-.342-2.632-1.025s-.923-1.575-.923-2.673zm7.574 0v-.219c0-1.103.308-1.994.923-2.673s1.458-1.019 2.516-1.019c.984 0 1.734.26 2.249.779s.779 1.11.793 1.771v.068h-1.477v-.055c0-.369-.128-.688-.383-.957s-.647-.41-1.189-.41c-.634 0-1.105.235-1.415.704s-.458 1.05-.458 1.757v.294c0 .706.15 1.294.451 1.764s.779.697 1.422.697c.556 0 .954-.137 1.196-.41a1.41 1.41 0 0 0 .369-.964v-.048h1.484v.055c0 .661-.263 1.253-.787 1.777s-1.271.786-2.255.786c-1.058 0-1.896-.34-2.516-1.019s-.923-1.577-.923-2.68zm6.911-2.564v-1.142h4.211v1.142h-4.211zm1.217 4.156v-4.648-.205-2.194h1.518v7.034c0 .319.063.547.191.684s.317.198.567.198a1.54 1.54 0 0 0 .356-.041 2.65 2.65 0 0 0 .355-.109v1.183a2.09 2.09 0 0 1-.458.144 3 3 0 0 1-.629.062c-.578 0-1.041-.169-1.387-.506s-.513-.875-.513-1.6zm8.005 1.9V73.34c0-.843.23-1.479.69-1.907s1.08-.649 1.846-.649c.159 0 .314.009.465.027a3.08 3.08 0 0 1 .437.082l-.068 1.176-.308-.048a2.69 2.69 0 0 0-.335-.02c-.382 0-.679.114-.888.342s-.315.561-.315 1.012v1.333.15 6.569h-1.524zm-1.101-6.057v-1.142h1.682.294 2.119v1.142h-4.095zm5.004 6.057v-7.198h1.408l.055.875h.041a2.58 2.58 0 0 1 .677-.752 1.57 1.57 0 0 1 .991-.328c.096 0 .196.011.301.034l.225.061v1.374c-.086-.018-.177-.032-.273-.041l-.321-.02c-.374 0-.698.103-.971.308s-.476.46-.608.766v4.922h-1.525zm4.327-3.493v-.219c0-1.094.31-1.982.93-2.666s1.431-1.025 2.434-1.025 1.779.321 2.331.964.827 1.506.827 2.605v.595h-5.537v-1.101h4.019v-.157c0-.478-.139-.884-.417-1.217s-.674-.506-1.189-.506c-.62 0-1.085.235-1.395.704s-.465 1.055-.465 1.77v.294c0 .706.164 1.294.493 1.764s.836.697 1.51.697c.433 0 .805-.098 1.115-.294s.569-.426.765-.691l1.026.745c-.228.374-.593.706-1.094.998s-1.096.438-1.798.438c-1.135 0-2.012-.342-2.632-1.025s-.923-1.575-.923-2.673zm7.575 0v-.219c0-1.062.278-1.93.834-2.605a2.72 2.72 0 0 1 2.201-1.019c.496 0 .927.1 1.292.301s.633.444.806.731h.041l.048-.895h1.408v10.042h-1.524v-3.657h.007a2.14 2.14 0 0 1-.814.697c-.341.169-.761.253-1.257.253-.921 0-1.659-.337-2.215-1.012s-.827-1.552-.827-2.618zm1.558.034c0 .693.148 1.265.444 1.716s.757.677 1.381.677c.424 0 .784-.116 1.08-.349s.515-.501.643-.807v-2.769c-.128-.296-.342-.561-.643-.793s-.656-.349-1.08-.349c-.624 0-1.084.226-1.381.677s-.444 1.023-.444 1.716v.28zm6.952.82v-4.56h1.525v4.594c0 .547.118.937.355 1.169s.579.342 1.012.342a1.66 1.66 0 0 0 .991-.308 2.04 2.04 0 0 0 .663-.793v-5.004h1.525v7.198h-1.409l-.047-.882h-.041a2.57 2.57 0 0 1-.923.745c-.374.182-.789.273-1.244.273-.725 0-1.308-.212-1.75-.636s-.657-1.142-.657-2.14zm7.595-.855v-.219c0-1.094.31-1.982.93-2.666s1.431-1.025 2.433-1.025 1.78.321 2.331.964.827 1.506.827 2.605v.595h-5.537v-1.101h4.02v-.157c0-.478-.139-.884-.417-1.217s-.675-.506-1.19-.506c-.619 0-1.084.235-1.394.704s-.465 1.055-.465 1.77v.294c0 .706.164 1.294.492 1.764s.837.697 1.511.697c.433 0 .804-.098 1.114-.294a2.74 2.74 0 0 0 .766-.691l1.025.745c-.228.374-.592.706-1.093.998s-1.096.438-1.798.438c-1.135 0-2.012-.342-2.632-1.025s-.923-1.575-.923-2.673zm7.991 3.493v-7.198h1.408l.055.882h.034c.237-.31.543-.558.916-.745a2.73 2.73 0 0 1 1.238-.28c.729 0 1.314.21 1.756.629s.664 1.119.664 2.112v4.601h-1.525v-4.628c0-.533-.118-.912-.355-1.135s-.568-.342-1.005-.342a1.7 1.7 0 0 0-.985.301 2 2 0 0 0-.676.8v5.004h-1.525zm7.527-3.493v-.219c0-1.103.307-1.994.922-2.673s1.459-1.019 2.516-1.019c.984 0 1.734.26 2.249.779s.779 1.11.793 1.771v.068h-1.477v-.055a1.34 1.34 0 0 0-.382-.957c-.251-.273-.647-.41-1.19-.41-.633 0-1.105.235-1.415.704s-.458 1.05-.458 1.757v.294c0 .706.151 1.294.451 1.764.306.465.78.697 1.422.697.556 0 .955-.137 1.197-.41a1.41 1.41 0 0 0 .369-.964v-.048h1.483v.055c0 .661-.262 1.253-.786 1.777s-1.272.786-2.256.786c-1.057 0-1.896-.34-2.516-1.019s-.922-1.577-.922-2.68zm7.362 6.337l.007-1.224a2.87 2.87 0 0 0 .389.089 2.68 2.68 0 0 0 .417.034c.315 0 .588-.112.821-.335s.471-.702.704-1.435l-.028-.007-2.713-7.164h1.503l1.621 4.553.157.499.123.444h.041l.123-.444.157-.499 1.531-4.553h1.409l-2.933 8.121c-.237.656-.556 1.162-.957 1.518s-.884.54-1.463.54c-.191 0-.36-.011-.506-.034a2.29 2.29 0 0 1-.403-.102z" class="D"/><path d="M358 139.67h311m-311-34.925h311" class="B F"/><path d="M389.351 163.562h-1.108l3.204-8.727h1.091l3.205 8.727h-1.108l-2.608-7.347h-.068l-2.608 7.347zm.409-3.409h4.466v.937h-4.466v-.937zm13.069-5.318h1.057v5.778c0 .597-.141 1.129-.422 1.598s-.672.834-1.18 1.104-1.105.4-1.79.4-1.281-.133-1.79-.4-.903-.638-1.184-1.104-.418-1.001-.418-1.598v-5.778h1.057v5.693c0 .426.094.805.281 1.138a2.03 2.03 0 0 0 .801.78c.35.187.767.281 1.253.281s.903-.094 1.253-.281.616-.451.801-.78.281-.712.281-1.138v-5.693zm5.793-.12a3.12 3.12 0 0 1 1.073.205c.358.133.685.355.98.665s.533.726.712 1.257.269 1.197.269 1.998c0 .776-.074 1.465-.222 2.067s-.355 1.105-.631 1.517a2.79 2.79 0 0 1-.997.938c-.389.213-.829.319-1.321.319s-.925-.096-1.308-.289a2.58 2.58 0 0 1-.938-.814c-.241-.35-.396-.755-.464-1.215h1.04c.093.401.28.732.558.993s.652.388 1.112.388c.673 0 1.205-.294 1.594-.882s.588-1.419.588-2.493h-.068c-.159.238-.348.444-.567.618a2.49 2.49 0 0 1-.729.4c-.267.094-.551.141-.852.141a2.65 2.65 0 0 1-1.376-.371 2.81 2.81 0 0 1-.998-1.027c-.247-.437-.37-.937-.37-1.5 0-.534.119-1.023.358-1.466a2.76 2.76 0 0 1 1.014-1.065c.437-.264.952-.392 1.543-.384zm0 .938c-.358 0-.681.089-.968.268s-.51.415-.677.716a2.02 2.02 0 0 0-.248.993c0 .364.08.695.239.993s.382.531.661.707a1.78 1.78 0 0 0 .958.26c.27 0 .522-.052.755-.157a1.96 1.96 0 0 0 .609-.439c.176-.188.314-.399.413-.635a1.91 1.91 0 0 0 .15-.746c0-.341-.083-.66-.248-.959s-.386-.539-.673-.724a1.74 1.74 0 0 0-.971-.277zm7.778-.818v8.727h-1.057v-7.619h-.051l-2.131 1.414v-1.073l2.182-1.449h1.057zm5.237 8.846c-.5 0-.95-.099-1.351-.298s-.722-.472-.963-.818a2.22 2.22 0 0 1-.396-1.185h1.022a1.4 1.4 0 0 0 .537.98c.321.256.705.384 1.151.384.358 0 .676-.084.954-.252a1.76 1.76 0 0 0 .661-.69c.162-.295.243-.629.243-1.001a2.04 2.04 0 0 0-.252-1.019 1.84 1.84 0 0 0-.681-.711c-.29-.174-.621-.262-.993-.265-.267-.003-.542.039-.823.124a2.26 2.26 0 0 0-.694.32l-.989-.12.528-4.295h4.534v.937h-3.647l-.307 2.574h.051a2.28 2.28 0 0 1 .673-.354 2.57 2.57 0 0 1 .844-.14c.534 0 1.01.128 1.428.383a2.68 2.68 0 0 1 .988 1.04c.242.44.362.943.362 1.509 0 .556-.125 1.054-.375 1.491a2.74 2.74 0 0 1-1.022 1.031c-.435.25-.929.375-1.483.375z" class="D"/><path d="M358 221.162h311m-311-43.24h311" class="B F"/><path d="M396.015 199.14h-1.056c-.063-.304-.172-.571-.329-.801a2.17 2.17 0 0 0-.562-.58c-.219-.159-.462-.278-.729-.358a2.89 2.89 0 0 0-.835-.119c-.528 0-1.007.133-1.436.4s-.766.661-1.019 1.181-.375 1.157-.375 1.913.125 1.393.375 1.913.593.914 1.019 1.181.908.4 1.436.4a2.89 2.89 0 0 0 .835-.119c.267-.08.51-.197.729-.354s.409-.353.562-.583.266-.5.329-.802h1.056c-.079.446-.224.846-.434 1.198s-.472.652-.784.899-.664.43-1.053.558-.8.192-1.24.192c-.744 0-1.406-.182-1.986-.545s-1.035-.881-1.368-1.552-.498-1.466-.498-2.386.166-1.716.498-2.386.789-1.188 1.368-1.551 1.242-.546 1.986-.546c.44 0 .854.064 1.24.192a3.4 3.4 0 0 1 1.053.562 3.25 3.25 0 0 1 .784.895c.21.35.355.749.434 1.198zm8.629-2.728v8.728h-1.023l-4.756-6.853h-.085v6.853h-1.057v-8.728h1.023l4.773 6.87h.085v-6.87h1.04zm2.234 8.728l3.903-7.722v-.068h-4.5v-.938h5.591v.989l-3.886 7.739h-1.108zm7.089 0l3.904-7.722v-.068h-4.5v-.938h5.591v.989l-3.887 7.739h-1.108zm9.244-8.847a3.12 3.12 0 0 1 1.074.205c.358.133.685.355.98.664s.533.726.712 1.257.268 1.198.268 1.999c0 .776-.073 1.465-.221 2.067s-.355 1.105-.631 1.517-.605.724-.997.937-.83.32-1.321.32-.925-.097-1.308-.29a2.57 2.57 0 0 1-.938-.814c-.241-.349-.396-.754-.464-1.214h1.04c.093.4.279.731.558.993s.652.387 1.112.387c.673 0 1.205-.294 1.594-.882s.588-1.419.588-2.493h-.068c-.159.239-.348.445-.567.618s-.462.307-.729.401-.551.141-.852.141c-.5 0-.959-.124-1.377-.371s-.747-.593-.997-1.027a3 3 0 0 1-.37-1.5c0-.534.119-1.023.358-1.466a2.76 2.76 0 0 1 1.014-1.065c.437-.265.951-.392 1.542-.384zm0 .938c-.358 0-.68.089-.967.268s-.51.415-.678.716-.247.629-.247.993a2.08 2.08 0 0 0 .239.993 1.91 1.91 0 0 0 .66.707c.282.173.601.26.959.26a1.8 1.8 0 0 0 .755-.158c.232-.108.436-.254.609-.439a2.12 2.12 0 0 0 .413-.634c.1-.239.149-.488.149-.746a1.95 1.95 0 0 0-.247-.959c-.162-.298-.386-.54-.673-.724a1.74 1.74 0 0 0-.972-.277z" class="D"/><path d="M358 259.414h311m-311 38.251h311" class="B F"/><path d="M388.993 243.391v-8.727h5.267v.937h-4.211v2.949h3.938v.938h-3.938v2.966h4.279v.937h-5.335zm12.899-8.727h1.057v5.778c0 .597-.141 1.13-.422 1.598s-.672.834-1.181 1.104-1.105.401-1.789.401-1.282-.134-1.79-.401a2.98 2.98 0 0 1-1.185-1.104 3.07 3.07 0 0 1-.418-1.598v-5.778h1.057v5.693c0 .426.094.805.282 1.138a2.02 2.02 0 0 0 .801.78c.349.187.767.281 1.253.281s.903-.094 1.252-.281a1.99 1.99 0 0 0 .802-.78c.187-.333.281-.712.281-1.138v-5.693zm5.809 8.846c-.585 0-1.102-.103-1.551-.311s-.794-.498-1.044-.865a2.17 2.17 0 0 1-.371-1.261 2.33 2.33 0 0 1 .217-1.023 2.23 2.23 0 0 1 .606-.788 1.85 1.85 0 0 1 .865-.405v-.051c-.418-.108-.75-.342-.998-.703a2.13 2.13 0 0 1-.366-1.24 2.1 2.1 0 0 1 .337-1.189c.227-.35.539-.625.937-.827s.857-.302 1.368-.302.957.1 1.355.302.71.477.938.827a2.14 2.14 0 0 1 .349 1.189c-.003.463-.129.876-.379 1.24a1.68 1.68 0 0 1-.985.703v.051a1.8 1.8 0 0 1 .853.405c.253.21.454.473.605.788s.227.654.23 1.023a2.2 2.2 0 0 1-.384 1.261c-.25.367-.598.655-1.044.865s-.956.311-1.538.311zm0-.937c.395 0 .736-.064 1.023-.192s.508-.308.665-.541.235-.506.238-.818c-.003-.33-.088-.621-.255-.874a1.73 1.73 0 0 0-.687-.596 2.15 2.15 0 0 0-.984-.218c-.372 0-.704.073-.997.218s-.519.343-.686.596a1.52 1.52 0 0 0-.243.874c-.003.312.072.585.226.818s.379.413.669.541.633.192 1.031.192zm0-4.142a1.78 1.78 0 0 0 .831-.188 1.42 1.42 0 0 0 .575-.524c.14-.224.211-.487.213-.788a1.4 1.4 0 0 0-.208-.771c-.136-.218-.326-.392-.567-.512a1.85 1.85 0 0 0-.844-.183 1.89 1.89 0 0 0-.856.183c-.245.12-.434.29-.567.512s-.199.475-.196.771a1.46 1.46 0 0 0 .2.788 1.42 1.42 0 0 0 .575.524 1.83 1.83 0 0 0 .844.188zm7.497 5.079a3.24 3.24 0 0 1-1.074-.204c-.358-.131-.685-.351-.98-.661s-.533-.734-.712-1.265-.268-1.205-.268-2.012c0-.772.072-1.457.217-2.054s.355-1.103.631-1.512a2.84 2.84 0 0 1 .997-.938 2.73 2.73 0 0 1 1.325-.319c.489 0 .924.098 1.304.294a2.49 2.49 0 0 1 .938.809 2.84 2.84 0 0 1 .468 1.198h-1.039c-.097-.392-.284-.718-.563-.976s-.648-.388-1.108-.388c-.676 0-1.209.294-1.598.882s-.581 1.413-.584 2.476h.069c.159-.242.348-.447.566-.618a2.55 2.55 0 0 1 .733-.4c.267-.094.55-.141.848-.141.5 0 .958.125 1.372.375s.748.589.998 1.027.375.933.375 1.496c0 .539-.121 1.034-.363 1.483a2.74 2.74 0 0 1-1.018 1.065c-.437.264-.946.389-1.534.383zm0-.937c.358 0 .679-.09.963-.269a1.91 1.91 0 0 0 .677-.72c.168-.301.252-.636.252-1.005 0-.361-.081-.689-.243-.985a1.85 1.85 0 0 0-.66-.711c-.279-.177-.597-.265-.955-.265a1.77 1.77 0 0 0-.754.162 1.94 1.94 0 0 0-.614.435c-.173.185-.31.396-.409.635a1.92 1.92 0 0 0-.149.746 2.02 2.02 0 0 0 .243.971 2 2 0 0 0 .673.729 1.76 1.76 0 0 0 .976.277zm7.386.937c-.585 0-1.102-.103-1.551-.311s-.794-.498-1.044-.865a2.17 2.17 0 0 1-.371-1.261 2.33 2.33 0 0 1 .217-1.023 2.24 2.24 0 0 1 .605-.788 1.86 1.86 0 0 1 .865-.405v-.051c-.417-.108-.75-.342-.997-.703a2.13 2.13 0 0 1-.366-1.24c-.003-.443.109-.84.336-1.189s.54-.625.938-.827.857-.302 1.368-.302.957.1 1.355.302.71.477.937.827.347.746.35 1.189c-.003.463-.129.876-.379 1.24a1.68 1.68 0 0 1-.985.703v.051a1.8 1.8 0 0 1 .853.405 2.31 2.31 0 0 1 .605.788c.15.313.227.654.23 1.023a2.2 2.2 0 0 1-.384 1.261c-.25.367-.598.655-1.044.865s-.956.311-1.538.311zm0-.937c.395 0 .736-.064 1.023-.192s.508-.308.664-.541.236-.506.239-.818a1.57 1.57 0 0 0-.256-.874c-.167-.253-.396-.451-.686-.596s-.615-.218-.984-.218-.705.073-.997.218-.519.343-.686.596a1.52 1.52 0 0 0-.243.874c-.003.312.072.585.226.818s.379.413.669.541.633.192 1.031.192zm0-4.142c.312 0 .589-.063.831-.188a1.42 1.42 0 0 0 .575-.524c.139-.224.21-.487.213-.788-.003-.296-.072-.553-.209-.771a1.39 1.39 0 0 0-.566-.512 1.85 1.85 0 0 0-.844-.183c-.327 0-.612.061-.857.183a1.32 1.32 0 0 0-.566.512c-.134.218-.199.475-.196.771-.003.301.063.564.2.788a1.42 1.42 0 0 0 .575.524c.244.125.526.188.844.188zm-31.928 46.538v-8.728h1.057v4.33h.102l3.92-4.33h1.381l-3.665 3.938 3.665 4.79h-1.278l-3.035-4.057-1.09 1.227v2.83h-1.057zm7.828 0v-8.728h2.949c.682 0 1.241.117 1.679.35a2.23 2.23 0 0 1 .971.95c.21.404.316.862.316 1.377s-.106.97-.316 1.368a2.22 2.22 0 0 1-.967.937c-.435.224-.99.337-1.666.337h-2.387v-.955h2.353c.466 0 .841-.068 1.125-.204s.494-.33.622-.58.196-.554.196-.903a2.04 2.04 0 0 0-.196-.917 1.34 1.34 0 0 0-.627-.605c-.287-.145-.666-.217-1.137-.217h-1.858v7.79h-1.057zm4.108-3.921l2.148 3.921h-1.228l-2.113-3.921h1.193zm6.193-4.926a3.11 3.11 0 0 1 1.073.205c.358.133.685.355.981.664s.532.726.711 1.258.269 1.197.269 1.998c0 .776-.074 1.465-.222 2.067s-.355 1.105-.631 1.517a2.82 2.82 0 0 1-.997.937c-.392.213-.829.32-1.321.32s-.924-.097-1.308-.29a2.57 2.57 0 0 1-.938-.814c-.241-.349-.396-.754-.464-1.214h1.04c.094.4.28.731.558.993s.652.388 1.112.388c.674 0 1.205-.294 1.594-.883s.588-1.419.588-2.492h-.068a2.67 2.67 0 0 1-.567.617c-.219.174-.462.307-.729.401s-.551.141-.852.141a2.65 2.65 0 0 1-1.376-.371c-.415-.25-.747-.592-.997-1.027a2.99 2.99 0 0 1-.371-1.5c0-.534.119-1.023.358-1.466a2.76 2.76 0 0 1 1.014-1.065c.437-.265.952-.392 1.543-.384zm0 .938c-.358 0-.681.089-.968.268s-.51.415-.677.716a2 2 0 0 0-.247.993c0 .364.079.695.238.993a1.86 1.86 0 0 0 .661.707c.279.176.601.26.959.26a1.8 1.8 0 0 0 .754-.158 1.94 1.94 0 0 0 .609-.438 2.14 2.14 0 0 0 .413-.635c.1-.239.15-.488.15-.746a1.95 1.95 0 0 0-.921-1.683 1.74 1.74 0 0 0-.971-.277zm4.709 7.909v-.767l2.881-3.154.835-.963c.219-.275.381-.534.486-.775a1.88 1.88 0 0 0 .162-.767 1.42 1.42 0 0 0-.221-.797c-.145-.225-.344-.398-.597-.52s-.537-.183-.852-.183c-.336 0-.628.069-.878.208a1.44 1.44 0 0 0-.575.576c-.134.247-.201.537-.201.869h-1.005c0-.511.117-.96.353-1.347s.557-.687.963-.903.868-.324 1.377-.324.964.108 1.359.324a2.43 2.43 0 0 1 .929.874 2.29 2.29 0 0 1 .337 1.223c0 .321-.058.635-.175.941s-.312.644-.597 1.019-.671.827-1.171 1.363l-1.961 2.097v.068H419v.938h-5.506zm10.113.119c-.642 0-1.189-.175-1.641-.524s-.797-.862-1.035-1.53-.358-1.48-.358-2.429c0-.943.119-1.748.358-2.416s.588-1.182 1.039-1.534 1-.533 1.637-.533 1.18.178 1.632.533.801.863 1.04 1.534.362 1.473.362 2.416c0 .949-.12 1.759-.358 2.429s-.584 1.178-1.036 1.53-.998.524-1.64.524zm0-.937c.636 0 1.13-.307 1.483-.921s.528-1.489.528-2.625c0-.756-.081-1.399-.243-1.93s-.389-.936-.69-1.215-.658-.417-1.078-.417c-.631 0-1.124.311-1.479.933s-.533 1.496-.533 2.629c0 .756.08 1.398.239 1.926s.388.931.686 1.206a1.55 1.55 0 0 0 1.087.414z" class="D"/><path d="M358 380.82h311m-311-44.903h311" class="B F"/><path d="M391.713 316.156v8.727h-1.057v-8.727h1.057zm9.039 0v8.727h-1.023l-4.755-6.852h-.086v6.852h-1.057v-8.727h1.023l4.773 6.869h.085v-6.869h1.04zm4.757 8.846c-.586 0-1.103-.104-1.551-.311s-.794-.499-1.044-.865a2.17 2.17 0 0 1-.371-1.261 2.31 2.31 0 0 1 .217-1.023 2.24 2.24 0 0 1 .605-.788 1.85 1.85 0 0 1 .865-.405v-.051c-.417-.108-.75-.343-.997-.704s-.369-.777-.366-1.24a2.11 2.11 0 0 1 .336-1.189 2.37 2.37 0 0 1 .938-.826c.4-.202.856-.303 1.368-.303.505 0 .957.101 1.355.303a2.37 2.37 0 0 1 .937.826c.227.349.347.746.35 1.189a2.16 2.16 0 0 1-.38 1.24c-.247.361-.575.596-.984.704v.051a1.79 1.79 0 0 1 .852.405c.253.21.455.473.605.788s.228.653.231 1.023c-.003.471-.131.892-.384 1.261s-.598.655-1.044.865-.956.311-1.538.311zm0-.937c.395 0 .735-.064 1.022-.192s.509-.308.665-.541.236-.506.239-.819c-.003-.329-.088-.62-.256-.873a1.73 1.73 0 0 0-.686-.597c-.287-.145-.615-.217-.984-.217s-.705.072-.997.217a1.74 1.74 0 0 0-.687.597c-.164.253-.245.544-.242.873-.003.313.072.586.225.819s.38.413.669.541.634.192 1.032.192zm0-4.142c.312 0 .589-.063.831-.188a1.43 1.43 0 0 0 .575-.524c.139-.224.21-.487.213-.788-.003-.296-.072-.553-.209-.772a1.35 1.35 0 0 0-.567-.511c-.241-.122-.522-.183-.843-.183-.327 0-.613.061-.857.183s-.433.29-.567.511-.198.476-.196.772.064.564.201.788a1.43 1.43 0 0 0 .575.524c.244.125.525.188.844.188zm7.496 5.079a3.29 3.29 0 0 1-1.073-.204c-.358-.131-.685-.351-.98-.661s-.533-.734-.712-1.266-.269-1.204-.269-2.011c0-.773.073-1.457.218-2.054s.355-1.104.63-1.513.608-.724.998-.937.833-.32 1.325-.32.923.098 1.304.294a2.48 2.48 0 0 1 .937.81 2.83 2.83 0 0 1 .469 1.197h-1.04a1.92 1.92 0 0 0-.562-.975c-.279-.259-.648-.388-1.108-.388-.676 0-1.209.294-1.598.882s-.581 1.413-.584 2.476h.068a2.54 2.54 0 0 1 .567-.618c.222-.174.466-.307.733-.401s.55-.14.848-.14c.5 0 .957.125 1.372.375s.747.589.997 1.027.375.933.375 1.495c0 .54-.12 1.034-.362 1.483a2.75 2.75 0 0 1-1.018 1.066c-.437.265-.946.389-1.535.383zm0-.937c.358 0 .679-.09.964-.269a1.93 1.93 0 0 0 .677-.72c.168-.301.252-.636.252-1.006 0-.36-.081-.689-.243-.984s-.38-.536-.661-.712-.596-.264-.954-.264c-.27 0-.522.054-.755.162s-.437.25-.613.435a2.04 2.04 0 0 0-.409.635c-.099.239-.15.484-.15.745a2.02 2.02 0 0 0 .243.972 2.01 2.01 0 0 0 .674.729c.287.184.612.277.975.277zm7.318.937c-.5 0-.95-.099-1.351-.298s-.721-.472-.963-.818-.373-.742-.396-1.185h1.023a1.4 1.4 0 0 0 .537.98c.321.256.704.384 1.15.384.358 0 .676-.084.955-.252s.501-.398.66-.69a2.05 2.05 0 0 0 .243-1.002c0-.38-.084-.72-.251-1.018a1.85 1.85 0 0 0-.682-.712c-.29-.173-.621-.261-.993-.264-.267-.003-.541.038-.822.124a2.29 2.29 0 0 0-.695.319l-.989-.119.529-4.295h4.534v.937h-3.648l-.307 2.574h.052a2.28 2.28 0 0 1 .673-.354c.27-.094.551-.14.844-.14.534 0 1.01.127 1.427.383a2.68 2.68 0 0 1 .989 1.04c.241.44.362.943.362 1.508 0 .557-.125 1.054-.375 1.492s-.588.778-1.023 1.031-.929.375-1.483.375zm-22.277 27.742h1.057v5.778c0 .597-.141 1.13-.422 1.598a2.96 2.96 0 0 1-1.18 1.104c-.508.27-1.106.401-1.79.401s-1.281-.134-1.79-.401-.903-.638-1.185-1.104-.417-1.001-.417-1.598v-5.778h1.057v5.693c0 .426.093.805.281 1.138a2.02 2.02 0 0 0 .801.78c.349.187.767.281 1.253.281s.903-.094 1.253-.281a1.96 1.96 0 0 0 .801-.78c.185-.329.281-.712.281-1.138v-5.693zm7.94 2.182c-.051-.432-.258-.767-.622-1.006s-.81-.358-1.338-.358c-.387 0-.725.063-1.014.188s-.512.296-.674.515a1.22 1.22 0 0 0-.238.746c0 .233.055.433.166.601a1.47 1.47 0 0 0 .435.413 3.08 3.08 0 0 0 .554.269l.532.166.887.238c.227.06.48.143.758.248a3.48 3.48 0 0 1 .805.43c.259.179.472.409.64.69s.251.627.251 1.036a2.29 2.29 0 0 1-.371 1.278c-.244.381-.602.684-1.074.908s-1.038.337-1.708.337c-.625 0-1.167-.101-1.624-.303s-.812-.483-1.074-.844-.405-.78-.439-1.257h1.091c.029.33.139.602.333.818a1.8 1.8 0 0 0 .741.478 3.01 3.01 0 0 0 .972.153c.403 0 .765-.065 1.086-.196s.576-.318.763-.554a1.31 1.31 0 0 0 .281-.835c0-.29-.081-.526-.243-.708a1.79 1.79 0 0 0-.639-.443 6.75 6.75 0 0 0-.856-.298l-1.074-.307c-.682-.196-1.222-.476-1.619-.839s-.597-.84-.597-1.428c0-.489.132-.915.396-1.278a2.63 2.63 0 0 1 1.074-.853c.452-.204.956-.306 1.513-.306s1.062.1 1.5.302.784.472 1.04.818a2.04 2.04 0 0 1 .409 1.181h-1.023zm5.505-2.301a3.12 3.12 0 0 1 1.074.204 2.63 2.63 0 0 1 .98.665c.295.307.532.726.711 1.257s.269 1.197.269 1.999c0 .775-.074 1.464-.222 2.066s-.355 1.105-.631 1.517a2.79 2.79 0 0 1-.997.938c-.389.213-.829.32-1.321.32s-.924-.097-1.308-.29-.693-.468-.937-.814-.397-.754-.465-1.215h1.04a1.93 1.93 0 0 0 .558.993c.281.259.652.388 1.112.388.674 0 1.205-.294 1.594-.882s.588-1.419.588-2.493h-.068c-.159.239-.348.445-.567.618s-.461.307-.729.4-.551.141-.852.141a2.64 2.64 0 0 1-1.376-.371c-.415-.25-.747-.592-.997-1.027s-.371-.937-.371-1.5a3.04 3.04 0 0 1 .358-1.466 2.76 2.76 0 0 1 1.014-1.065c.438-.264.952-.392 1.543-.383zm0 .937c-.358 0-.681.09-.968.269a1.92 1.92 0 0 0-.677.715 2.02 2.02 0 0 0-.247.993c0 .364.079.695.238.993a1.9 1.9 0 0 0 .661.708c.281.173.601.26.959.26.269 0 .521-.053.754-.158s.436-.254.609-.439a2.17 2.17 0 0 0 .414-.635 1.93 1.93 0 0 0 .149-.746c0-.341-.083-.66-.247-.958a1.96 1.96 0 0 0-.674-.725 1.74 1.74 0 0 0-.971-.277zm7.778-.818v8.727h-1.057v-7.619h-.051l-2.131 1.415v-1.074l2.182-1.449h1.057zm5.237 8.847c-.5 0-.95-.1-1.351-.299a2.5 2.5 0 0 1-.963-.818c-.241-.347-.374-.741-.396-1.185h1.022a1.4 1.4 0 0 0 .537.98c.321.256.705.384 1.151.384.358 0 .676-.084.954-.251a1.77 1.77 0 0 0 .661-.691c.162-.295.243-.629.243-1.001 0-.381-.084-.72-.252-1.019a1.84 1.84 0 0 0-.681-.711c-.29-.174-.621-.262-.993-.264-.267-.003-.541.038-.823.123a2.27 2.27 0 0 0-.694.32l-.989-.12.528-4.295h4.535v.937h-3.648l-.307 2.574h.051c.179-.142.404-.26.673-.353a2.55 2.55 0 0 1 .844-.141c.534 0 1.01.128 1.428.383a2.68 2.68 0 0 1 .988 1.04c.242.441.363.943.363 1.509 0 .557-.125 1.054-.375 1.491s-.588.779-1.023 1.032-.929.375-1.483.375zm-33.85 43.121v-8.727h2.949c.681 0 1.241.116 1.679.349a2.23 2.23 0 0 1 .971.95c.21.404.315.863.315 1.377s-.105.97-.315 1.368-.533.71-.967.937-.99.337-1.666.337h-2.387v-.955h2.353c.465 0 .84-.068 1.125-.204a1.3 1.3 0 0 0 .622-.58c.13-.253.196-.554.196-.903a2.03 2.03 0 0 0-.196-.916c-.131-.262-.34-.463-.627-.606s-.666-.217-1.138-.217h-1.857v7.79h-1.057zm4.108-3.921l2.147 3.921h-1.227l-2.114-3.921h1.194zm9.295-4.806h1.057v5.778c0 .597-.141 1.129-.422 1.598a2.95 2.95 0 0 1-1.181 1.104c-.509.27-1.105.4-1.789.4s-1.282-.133-1.79-.4a2.98 2.98 0 0 1-1.185-1.104c-.278-.469-.418-1.001-.418-1.598v-5.778h1.057v5.693c0 .426.094.805.282 1.138a2.01 2.01 0 0 0 .801.779c.349.188.767.282 1.253.282s.903-.094 1.252-.282.617-.45.801-.779.282-.712.282-1.138v-5.693zm5.809 8.846c-.585 0-1.102-.103-1.551-.311s-.794-.498-1.044-.865a2.17 2.17 0 0 1-.371-1.261c-.003-.37.07-.71.217-1.023a2.23 2.23 0 0 1 .606-.788 1.85 1.85 0 0 1 .865-.405v-.051a1.69 1.69 0 0 1-.998-.703 2.13 2.13 0 0 1-.366-1.24c-.003-.444.109-.84.337-1.189a2.38 2.38 0 0 1 .937-.827 2.99 2.99 0 0 1 1.368-.303 2.95 2.95 0 0 1 1.355.303c.398.202.71.477.938.827s.346.745.349 1.189c-.003.463-.129.876-.379 1.24s-.575.595-.985.703v.051a1.8 1.8 0 0 1 .853.405c.253.21.454.473.605.788a2.38 2.38 0 0 1 .23 1.023c-.003.471-.131.892-.384 1.261s-.598.655-1.044.865-.956.311-1.538.311zm0-.937c.395 0 .736-.064 1.023-.192s.508-.308.665-.541.235-.506.238-.818c-.003-.33-.088-.621-.255-.874a1.74 1.74 0 0 0-.687-.597c-.287-.144-.615-.217-.984-.217a2.23 2.23 0 0 0-.997.217 1.73 1.73 0 0 0-.686.597c-.165.253-.246.544-.243.874-.003.312.072.585.226.818s.379.413.669.541.633.192 1.031.192zm0-4.142a1.78 1.78 0 0 0 .831-.188 1.43 1.43 0 0 0 .575-.524c.14-.224.211-.487.213-.788s-.072-.553-.208-.772a1.37 1.37 0 0 0-.567-.511 1.85 1.85 0 0 0-.844-.183 1.89 1.89 0 0 0-.856.183c-.245.119-.434.29-.567.511a1.42 1.42 0 0 0-.196.772 1.46 1.46 0 0 0 .2.788 1.43 1.43 0 0 0 .575.524 1.83 1.83 0 0 0 .844.188zm7.497 5.079c-.358-.005-.716-.074-1.074-.204s-.685-.351-.98-.661-.533-.734-.712-1.265-.268-1.205-.268-2.012c0-.773.072-1.457.217-2.054s.355-1.103.631-1.513.608-.724.997-.937a2.73 2.73 0 0 1 1.325-.32c.489 0 .924.098 1.304.294s.696.463.938.81a2.83 2.83 0 0 1 .468 1.197h-1.039c-.097-.392-.284-.717-.563-.975s-.648-.388-1.108-.388c-.676 0-1.209.294-1.598.882s-.581 1.413-.584 2.476h.069c.159-.242.348-.448.566-.618s.466-.307.733-.401a2.56 2.56 0 0 1 .848-.14c.5 0 .958.125 1.372.375s.748.589.998 1.027.375.933.375 1.495c0 .54-.121 1.035-.363 1.483a2.76 2.76 0 0 1-1.018 1.066c-.435.261-.946.389-1.534.383zm0-.937c.358 0 .679-.09.963-.269a1.91 1.91 0 0 0 .677-.72c.168-.301.252-.636.252-1.006 0-.36-.081-.689-.243-.984a1.9 1.9 0 0 0-.661-.712c-.282-.177-.596-.264-.954-.264a1.77 1.77 0 0 0-.754.162 1.94 1.94 0 0 0-.614.435c-.173.184-.31.396-.409.635s-.149.484-.149.745a2.02 2.02 0 0 0 .243.972 2 2 0 0 0 .673.729 1.77 1.77 0 0 0 .976.277zm4.386-.972v-.869l3.835-6.068h.631v1.346h-.426l-2.898 4.585v.069h5.165v.937h-6.307zm4.108 1.79v-2.054-.405-6.268h1.006v8.727h-1.006z" class="D"/><g fill="#fb1c2e"><circle cx="634.075" cy="314.546" r="3.326"/><circle cx="634.075" cy="314.546" r="3.326"/></g><defs><filter id="A" x="10" y="12.25" width="228" height="64" filterUnits="userSpaceOnUse" class="J"><feFlood flood-opacity="0" result="A"/><feColorMatrix in="SourceAlpha" values="0 0 0 0 0 0 0 0 0 0 0 0 0 0 0 0 0 0 127 0" result="B"/><feMorphology radius="1" operator="dilate" in="SourceAlpha"/><feOffset dy="1"/><feGaussianBlur stdDeviation="2.5"/><feComposite in2="B" operator="out"/><feColorMatrix values="0 0 0 0 0 0 0 0 0 0 0 0 0 0 0 0 0 0 0.1 0"/><feBlend in2="A"/><feBlend in="SourceGraphic"/></filter><filter id="B" x="348" y="45.776" width="331" height="395.861" filterUnits="userSpaceOnUse" class="J"><feFlood flood-opacity="0" result="A"/><feColorMatrix in="SourceAlpha" values="0 0 0 0 0 0 0 0 0 0 0 0 0 0 0 0 0 0 127 0" result="B"/><feOffset dy="4"/><feGaussianBlur stdDeviation="5"/><feComposite in2="B" operator="out"/><feColorMatrix values="0 0 0 0 0 0 0 0 0 0 0 0 0 0 0 0 0 0 0.25 0"/><feBlend in2="A"/><feBlend in="SourceGraphic"/></filter><linearGradient id="C" x1="128" y1=".25" x2="128" y2="533.25" gradientUnits="userSpaceOnUse"><stop stop-color="#2f67ff"/><stop offset="1" stop-color="#ff5f9b"/></linearGradient><linearGradient id="D" x1="240" y1="224.987" x2="358" y2="224.987" gradientUnits="userSpaceOnUse"><stop stop-color="#2f67ff"/><stop offset="1" stop-color="#ff5f9b"/></linearGradient><clipPath id="E"><path transform="translate(30 159.273)" d="M0 0h10v10H0z" class="C"/></clipPath><clipPath id="F"><path transform="translate(28 217.273)" d="M0 0h12v11H0z" class="C"/></clipPath><clipPath id="G"><path transform="translate(29 129.273)" d="M0 0h11v9H0z" class="C"/></clipPath><clipPath id="H"><path transform="translate(28 246.273)" d="M0 0h11v11H0z" class="C"/></clipPath><clipPath id="I"><path transform="translate(28 277.273)" d="M0 0h11v10H0z" class="C"/></clipPath><path id="J" d="M36.372 57.775v.823"/></defs></svg>