<svg xmlns="http://www.w3.org/2000/svg" width="621" height="533" fill="none" xmlns:v="https://vecta.io/nano"><style><![CDATA[.B{fill:#fff}.C{stroke-width:.5}.D{fill:#5a5c66}.E{fill:#797979}.F{color-interpolation-filters:sRGB}]]></style><rect x=".25" y=".25" width="255.5" height="532.5" rx="9.75" stroke="url(#C)" class="B C"/><g filter="url(#A)" class="B"><rect x="16" y="17" width="216" height="52" rx="10"/></g><g stroke="#5a5c66" stroke-miterlimit="22.9256" class="C"><path d="M31.51 31h10.664a.51.51 0 0 1 .51.51v21.964l-1.219 3.725c-.068.138-.215.206-.42.221l-.18.095-3.869.017-4.04-.015c-.051-.027-.042-.048-.099-.053-.341-.029-.491-.133-.537-.274L31 53.436v-4.184V31.51a.51.51 0 0 1 .51-.51h0z"/><path d="M31.815 31l2.076 1.048 5.977.005L41.943 31l-1.75 1.325s-.272.261-.644.236h-5.187s-.432.079-.823-.293L31.815 31z" stroke-linejoin="round"/><path d="M33.131 33.078l7.604.002 1.763-1.963m-9.833 2.314c0-.065-1.665-1.75-1.665-1.75"/><path d="M33.158 33.104l-1.98-1.98m10.003 2.307c0-.065 1.502-1.75 1.502-1.75"/><path d="M32.662 53.474V33.513s-.081-.435.511-.435m8.004 20.396V33.513s.081-.435-.511-.435"/><path d="M31 49.31l1.662 4.08s.011.19.614.242 7.357 0 7.357 0 .481.005.592-.293l1.432-4.048v.152l-1.391 3.938s-.041.327-.467.352-7.363.026-7.363.026-.776.076-.852-.378L31 49.349m1.89 8.122l1.573-2.466c.046-.086.134-.177.208-.236.202-.16.45-.228.707-.232h2.986c.109-.008.247.011.351.037a1.18 1.18 0 0 1 .648.411l.004.005 1.594 2.475m-2.424.545h-.025m-3.218-.003h-.037"/><path d="M32.997 57.517l1.565-2.455s.206-.402.815-.41h2.991s.543-.046.905.405l1.583 2.458m-2.235.379h-.005m-3.439-.003h-.014m-2.501-4.417l-.356 3.677m.884-3.389l-.28 3.722m8.267-4.057l.332 3.639m-.768-3.332l.291 3.693m-7.901-24.349l.055 20.68m7.571-20.656l-.016 20.632"/><path d="M35.395 57.523h-.303v.208a.71.71 0 0 0 .281.368c.071.444.37.758 1.52.778 1.135.02 1.441-.31 1.517-.756.221-.156.303-.365.33-.598h-.349-2.997z"/><path d="M36.192 57.529v.799"/><use href="#K"/><use href="#K" x="0.209"/><use href="#K" x="0.418"/><use href="#K" x="0.628"/><use href="#K" x="0.837"/><use href="#K" x="1.046"/><use href="#K" x="1.255"/><path d="M38.758 57.524c-.07.479-.41.844-1.865.824s-1.793-.355-1.864-.823"/></g><path d="M155.733 44h-.881c-.052-.253-.143-.476-.273-.668a1.82 1.82 0 0 0-.469-.483c-.182-.133-.385-.232-.607-.298a2.43 2.43 0 0 0-.696-.099 2.22 2.22 0 0 0-1.197.334c-.355.223-.638.55-.849.984s-.312.965-.312 1.594.104 1.161.312 1.595.494.761.849.984a2.22 2.22 0 0 0 1.197.334 2.43 2.43 0 0 0 .696-.099 2.04 2.04 0 0 0 .607-.295 1.87 1.87 0 0 0 .469-.486c.13-.194.221-.417.273-.668h.881a2.93 2.93 0 0 1-.362.998c-.175.294-.393.543-.654.749s-.552.359-.877.465-.666.16-1.033.16c-.62 0-1.172-.152-1.655-.455s-.863-.734-1.14-1.293-.415-1.222-.415-1.989.138-1.43.415-1.989.657-.99 1.14-1.293 1.035-.455 1.655-.455c.367 0 .711.053 1.033.16a2.81 2.81 0 0 1 .877.469 2.67 2.67 0 0 1 .654.746c.175.291.296.624.362.998zm3.525 5.114c-.492 0-.924-.117-1.296-.352s-.658-.562-.866-.984-.309-.914-.309-1.477.103-1.064.309-1.488.497-.753.866-.987.804-.352 1.296-.352.924.117 1.293.352.66.563.866.987.313.92.313 1.488-.104 1.056-.313 1.477-.494.749-.866.984-.8.352-1.293.352zm0-.753c.374 0 .682-.096.924-.288a1.7 1.7 0 0 0 .536-.756c.116-.312.174-.651.174-1.016s-.058-.704-.174-1.019a1.72 1.72 0 0 0-.536-.763c-.242-.194-.55-.291-.924-.291s-.681.097-.923.291a1.72 1.72 0 0 0-.536.763c-.116.315-.174.655-.174 1.019s.058.703.174 1.016a1.7 1.7 0 0 0 .536.756c.242.192.549.288.923.288zm4.589-2.642V49h-.838v-5.455h.81v.852h.071a1.56 1.56 0 0 1 .582-.668c.261-.17.597-.256 1.009-.256.369 0 .692.076.969.227s.493.376.647.682.23.687.23 1.151V49h-.838v-3.409c0-.428-.111-.762-.333-1.001s-.528-.362-.917-.362c-.267 0-.506.058-.717.174a1.25 1.25 0 0 0-.494.508c-.12.222-.181.492-.181.81zm5.85 0V49h-.838v-5.455h.81v.852h.071c.127-.277.321-.499.582-.668s.597-.256 1.008-.256c.37 0 .693.076.97.227a1.53 1.53 0 0 1 .646.682c.154.303.231.687.231 1.151V49h-.838v-3.409c0-.428-.111-.762-.334-1.001s-.528-.362-.916-.362c-.268 0-.507.058-.717.174s-.373.285-.494.508-.181.492-.181.81zm7.298 3.395c-.525 0-.979-.116-1.36-.348a2.34 2.34 0 0 1-.877-.98c-.203-.421-.305-.911-.305-1.47s.102-1.051.305-1.477a2.41 2.41 0 0 1 .86-1.001c.369-.241.8-.362 1.292-.362a2.59 2.59 0 0 1 .842.142c.277.095.529.249.756.462a2.2 2.2 0 0 1 .543.838c.135.348.203.776.203 1.285v.355h-4.205v-.724h3.353a1.79 1.79 0 0 0-.185-.824 1.4 1.4 0 0 0-.518-.572c-.223-.14-.486-.209-.789-.209-.334 0-.622.083-.866.249a1.63 1.63 0 0 0-.558.639 1.88 1.88 0 0 0-.195.845v.483c0 .412.071.761.213 1.048a1.53 1.53 0 0 0 .6.65 1.76 1.76 0 0 0 .891.22c.221 0 .419-.031.597-.092s.335-.159.465-.284.231-.287.302-.476l.81.227c-.086.275-.229.516-.43.724s-.45.367-.746.483-.628.17-.998.17zm5.75 0c-.512 0-.952-.121-1.321-.362s-.654-.574-.853-.998-.298-.908-.298-1.453c0-.554.102-1.043.305-1.467s.493-.759.86-.998.8-.362 1.292-.362c.384 0 .73.071 1.037.213a1.99 1.99 0 0 1 .757.597c.196.256.318.554.366.895h-.839c-.063-.249-.205-.469-.426-.66s-.511-.291-.88-.291c-.327 0-.613.085-.86.256a1.66 1.66 0 0 0-.571.714c-.135.305-.203.664-.203 1.076 0 .421.066.788.199 1.101s.324.555.568.728a1.47 1.47 0 0 0 .867.259 1.5 1.5 0 0 0 .593-.114 1.23 1.23 0 0 0 .451-.327 1.25 1.25 0 0 0 .262-.511h.839a1.95 1.95 0 0 1-.352.87 1.97 1.97 0 0 1-.735.611c-.303.149-.656.224-1.058.224zm5.742-5.568v.71h-2.827v-.71h2.827zm-2.003-1.307h.838v5.199c0 .237.034.414.103.533s.161.194.27.234a1.08 1.08 0 0 0 .352.057 1.49 1.49 0 0 0 .227-.014l.142-.028.17.753c-.057.021-.136.043-.238.064a1.74 1.74 0 0 1-.387.035 1.69 1.69 0 0 1-.696-.153 1.38 1.38 0 0 1-.561-.465c-.147-.208-.22-.471-.22-.788v-5.426zm5.492 6.875c-.526 0-.979-.116-1.36-.348s-.671-.561-.877-.98-.306-.911-.306-1.47.102-1.051.306-1.477.492-.762.859-1.001.8-.362 1.293-.362c.284 0 .564.047.841.142s.529.249.757.462.408.49.543.838.202.776.202 1.285v.355h-4.204v-.724h3.352c0-.308-.061-.582-.185-.824s-.293-.432-.518-.572-.485-.209-.788-.209c-.334 0-.623.083-.867.249s-.427.376-.557.639-.196.544-.196.845v.483c0 .412.071.761.213 1.048a1.54 1.54 0 0 0 .601.65c.255.147.552.22.891.22a1.81 1.81 0 0 0 .596-.092 1.29 1.29 0 0 0 .466-.284c.13-.128.23-.287.301-.476l.81.227c-.085.275-.228.516-.43.724s-.449.367-.745.483-.629.17-.998.17zm5.593 0c-.455 0-.856-.115-1.204-.344a2.33 2.33 0 0 1-.817-.98c-.196-.424-.294-.924-.294-1.502s.098-1.07.294-1.491.47-.747.821-.977.755-.344 1.214-.344c.355 0 .636.059.842.178s.367.249.476.398l.259.362h.071v-2.685h.838V49h-.81v-.838h-.099a5.42 5.42 0 0 1-.263.377 1.57 1.57 0 0 1-.486.401c-.211.116-.492.174-.842.174zm.114-.753c.336 0 .62-.088.852-.263s.408-.423.529-.735.181-.678.181-1.09-.059-.764-.178-1.069-.293-.547-.525-.717-.519-.259-.859-.259c-.356 0-.652.091-.888.273a1.63 1.63 0 0 0-.529.735c-.116.308-.174.653-.174 1.037s.059.741.177 1.058.298.566.533.753.53.277.881.277z" fill="#b8b8b8"/><path d="M56.799 40.727h1.332l2.315 5.653h.085l2.315-5.653h1.332V48h-1.044v-5.263h-.067l-2.145 5.252h-.867l-2.145-5.256h-.067V48h-1.044v-7.273zm9.738 0l1.74 2.844h.057l1.74-2.844h1.271l-2.266 3.636L71.36 48h-1.278l-1.747-2.805h-.057L66.53 48h-1.278l2.319-3.636-2.305-3.636h1.271zm5.645 5.852v-.888l3.143-4.965h.7v1.307h-.444l-2.248 3.558v.057h4.308v.93h-5.458zM75.63 48v-1.69l.007-.405v-5.178h1.041V48H75.63zm5.779.099c-.488 0-.923-.084-1.307-.252s-.683-.401-.906-.7-.338-.649-.355-1.044h1.115a.96.96 0 0 0 .217.561c.132.156.305.277.518.362s.45.128.71.128a1.83 1.83 0 0 0 .76-.149c.223-.099.397-.238.522-.415a1.06 1.06 0 0 0 .188-.621c0-.244-.063-.458-.188-.643s-.304-.334-.543-.44-.523-.16-.859-.16h-.614v-.895h.614c.27 0 .507-.049.71-.146s.367-.232.483-.405.174-.38.174-.614c0-.225-.051-.42-.153-.586s-.242-.3-.426-.394-.398-.142-.646-.142a1.68 1.68 0 0 0-.664.131c-.204.085-.369.208-.497.369a.95.95 0 0 0-.206.572h-1.062c.012-.393.128-.739.348-1.037a2.25 2.25 0 0 1 .881-.7c.365-.168.769-.252 1.215-.252.466 0 .869.091 1.207.273a1.99 1.99 0 0 1 .788.721 1.81 1.81 0 0 1 .277.987c.002.407-.111.753-.341 1.037s-.53.475-.909.572v.057c.483.073.857.265 1.122.575s.4.695.398 1.154c.002.4-.109.759-.334 1.076s-.527.567-.913.749-.827.27-1.325.27zm3.761-1.52v-.888l3.143-4.965h.7v1.307h-.444l-2.248 3.558v.057h4.308v.93H85.17zM88.618 48v-1.69l.007-.405v-5.178h1.04V48h-1.048zm5.779.099c-.488 0-.923-.084-1.307-.252s-.683-.401-.906-.7-.338-.649-.355-1.044h1.115a.96.96 0 0 0 .217.561c.133.156.305.277.518.362s.45.128.71.128a1.83 1.83 0 0 0 .76-.149c.222-.099.396-.238.522-.415a1.06 1.06 0 0 0 .188-.621c0-.244-.063-.458-.188-.643s-.304-.334-.543-.44-.523-.16-.859-.16h-.614v-.895h.614c.27 0 .507-.049.71-.146s.367-.232.483-.405.174-.38.174-.614c0-.225-.051-.42-.153-.586s-.242-.3-.426-.394-.398-.142-.646-.142a1.68 1.68 0 0 0-.664.131c-.204.085-.369.208-.497.369a.95.95 0 0 0-.206.572h-1.062c.012-.393.128-.739.348-1.037a2.25 2.25 0 0 1 .881-.7c.365-.168.769-.252 1.215-.252.466 0 .869.091 1.207.273a1.99 1.99 0 0 1 .788.721 1.81 1.81 0 0 1 .277.987c.002.407-.111.753-.341 1.037s-.53.475-.909.572v.057c.483.073.857.265 1.122.575s.4.695.398 1.154c.002.4-.109.759-.334 1.076s-.527.567-.913.749-.827.27-1.325.27z" fill="#f85550"/><circle cx="213.5" cy="45.5" r="1.5" fill="#72cf70"/><path d="M216 45.5a2.5 2.5 0 1 1-5 0 2.5 2.5 0 1 1 5 0z" fill="#53ee50" fill-opacity=".35"/><path d="M249.297 180.492c0-2.062-1.671-3.733-3.733-3.733s-3.733 1.671-3.733 3.733 1.671 3.734 3.733 3.734 3.733-1.672 3.733-3.734zm56.908 0v-.7h-60.641v.7.7h60.641v-.7z" fill="url(#D)"/><path d="M25.858 97.456c-.043-.36-.216-.639-.518-.838s-.675-.298-1.115-.298a2.12 2.12 0 0 0-.845.156 1.35 1.35 0 0 0-.561.43 1.03 1.03 0 0 0-.199.621c0 .194.046.361.139.501s.215.252.362.344a2.46 2.46 0 0 0 .462.224l.444.138.739.199a6.46 6.46 0 0 1 .632.206 2.92 2.92 0 0 1 .671.359c.215.149.393.341.533.575s.21.522.21.863c0 .393-.103.748-.309 1.065s-.502.569-.895.756-.865.281-1.424.281c-.521 0-.972-.084-1.353-.252a2.16 2.16 0 0 1-.895-.703c-.215-.301-.337-.65-.366-1.048h.909c.024.275.116.502.277.682a1.5 1.5 0 0 0 .618.398 2.51 2.51 0 0 0 .81.128c.336 0 .638-.055.906-.164a1.54 1.54 0 0 0 .636-.461c.157-.196.234-.431.234-.696 0-.242-.067-.438-.202-.59s-.312-.275-.533-.369a5.61 5.61 0 0 0-.714-.249l-.895-.256c-.568-.163-1.018-.397-1.349-.7s-.497-.7-.497-1.19c0-.407.11-.762.33-1.065s.521-.542.895-.71a3.02 3.02 0 0 1 1.261-.256c.469 0 .886.084 1.25.252s.654.393.866.682.329.617.341.984h-.852zm3.124 2.173v3.281h-.838v-7.273h.838v2.671h.071a1.54 1.54 0 0 1 .575-.671c.258-.168.601-.252 1.03-.252.372 0 .697.075.977.224s.496.373.65.678.234.689.234 1.158v3.466h-.838v-3.409c0-.433-.112-.768-.337-1.005s-.531-.359-.927-.359c-.275 0-.521.058-.739.174a1.27 1.27 0 0 0-.511.508c-.123.223-.185.493-.185.81zm6.675 3.409a2.22 2.22 0 0 1-.941-.195c-.282-.133-.505-.323-.671-.572s-.249-.554-.249-.909c0-.313.062-.566.185-.76a1.33 1.33 0 0 1 .494-.462 2.6 2.6 0 0 1 .682-.248l.756-.135.806-.096c.208-.024.36-.063.455-.117s.146-.149.146-.284v-.028c0-.35-.096-.623-.288-.817s-.477-.291-.863-.291c-.4 0-.714.088-.941.263s-.387.362-.479.561l-.795-.284c.142-.331.331-.59.568-.774a2.13 2.13 0 0 1 .781-.391 3.23 3.23 0 0 1 .838-.114 3.3 3.3 0 0 1 .604.064 2 2 0 0 1 .664.252c.213.128.394.321.536.579s.213.604.213 1.037v3.594h-.838v-.738h-.043c-.057.118-.151.245-.284.379s-.309.25-.529.345-.489.142-.806.142zm.128-.753c.331 0 .611-.065.838-.195s.403-.298.519-.504a1.31 1.31 0 0 0 .178-.65v-.767c-.035.042-.114.081-.234.117a3.4 3.4 0 0 1-.412.089l-.451.064-.352.042a3.24 3.24 0 0 0-.611.139 1.05 1.05 0 0 0-.455.28c-.114.123-.17.291-.17.504a.75.75 0 0 0 .323.661c.218.147.494.22.828.22zm3.902.625v-5.454h.81v.824h.057a1.31 1.31 0 0 1 .54-.657 1.59 1.59 0 0 1 .881-.252l.231.004.209.011v.852c-.028-.007-.093-.018-.195-.032a1.92 1.92 0 0 0-.316-.025c-.265 0-.502.056-.71.167a1.26 1.26 0 0 0-.49.455 1.23 1.23 0 0 0-.178.657v3.451h-.838zm5.842.114c-.526 0-.979-.116-1.36-.348a2.34 2.34 0 0 1-.877-.98c-.204-.422-.305-.912-.305-1.471s.102-1.051.305-1.477a2.4 2.4 0 0 1 .859-1.001c.367-.239.8-.362 1.293-.362a2.58 2.58 0 0 1 .842.142c.277.095.529.249.756.462a2.23 2.23 0 0 1 .543.838c.135.348.202.777.202 1.286v.355h-4.205v-.724h3.352a1.79 1.79 0 0 0-.185-.824 1.39 1.39 0 0 0-.519-.572c-.222-.14-.485-.21-.788-.21-.334 0-.623.083-.866.249s-.427.376-.558.639-.195.544-.195.845v.483c0 .412.071.761.213 1.048s.344.501.6.65.553.22.891.22a1.83 1.83 0 0 0 .597-.092 1.28 1.28 0 0 0 .465-.284c.13-.125.231-.287.302-.476l.81.227a1.79 1.79 0 0 1-.43.724c-.201.206-.45.367-.746.483s-.629.171-.998.171zm8.406 0c-.455 0-.856-.115-1.204-.345s-.62-.558-.817-.98-.295-.924-.295-1.502.098-1.07.295-1.491.47-.747.82-.977.755-.344 1.215-.344c.355 0 .636.059.842.177s.367.249.476.398l.259.362h.071v-2.685h.838v7.273h-.81v-.838h-.099c-.061.1-.149.225-.263.377s-.276.282-.487.401-.491.174-.842.174zm.114-.753c.336 0 .62-.088.852-.263a1.64 1.64 0 0 0 .529-.735c.121-.315.181-.678.181-1.09s-.059-.764-.178-1.069-.294-.547-.526-.717-.518-.259-.859-.259c-.355 0-.651.091-.888.273s-.411.425-.529.735-.174.653-.174 1.037.059.741.178 1.058a1.73 1.73 0 0 0 .533.753c.237.185.53.277.881.277zm6.325.753c-.526 0-.979-.116-1.36-.348a2.34 2.34 0 0 1-.877-.98c-.204-.422-.305-.912-.305-1.471s.102-1.051.305-1.477a2.4 2.4 0 0 1 .859-1.001c.367-.239.8-.362 1.293-.362a2.58 2.58 0 0 1 .842.142c.277.095.529.249.756.462a2.23 2.23 0 0 1 .543.838c.135.348.202.777.202 1.286v.355h-4.205v-.724h3.352a1.79 1.79 0 0 0-.185-.824 1.39 1.39 0 0 0-.518-.572 1.45 1.45 0 0 0-.788-.21c-.334 0-.623.083-.867.249a1.63 1.63 0 0 0-.557.639 1.88 1.88 0 0 0-.195.845v.483c0 .412.071.761.213 1.048s.344.501.6.65.553.22.891.22c.22 0 .419-.031.597-.092s.335-.159.465-.284.231-.287.302-.476l.81.227a1.79 1.79 0 0 1-.43.724c-.201.206-.45.367-.746.483s-.628.171-.998.171zm7.828-5.568l-2.017 5.454h-.852l-2.017-5.454h.909l1.506 4.346h.057l1.506-4.346h.909zm1.106 5.454v-5.454h.838v5.454h-.838zm.426-6.364c-.163 0-.304-.056-.422-.167a.53.53 0 0 1-.174-.401c0-.156.058-.29.174-.401a.59.59 0 0 1 .422-.167c.163 0 .303.056.419.167a.53.53 0 0 1 .177.401.53.53 0 0 1-.177.401c-.116.111-.256.167-.419.167zm4.163 6.478c-.511 0-.952-.121-1.321-.362s-.653-.575-.852-.998-.298-.908-.298-1.453c0-.554.102-1.043.305-1.466a2.41 2.41 0 0 1 .859-.998c.367-.239.8-.362 1.293-.362a2.45 2.45 0 0 1 1.037.213c.308.142.56.341.756.596a1.86 1.86 0 0 1 .366.895h-.838a1.3 1.3 0 0 0-.426-.66c-.218-.194-.511-.291-.881-.291-.327 0-.613.085-.859.256s-.434.406-.572.714-.203.664-.203 1.076c0 .421.066.788.199 1.101s.324.555.568.728.535.259.867.259c.218 0 .415-.038.593-.114a1.22 1.22 0 0 0 .451-.326c.123-.142.211-.313.263-.512h.838a1.94 1.94 0 0 1-.352.87c-.185.256-.43.46-.735.611a2.35 2.35 0 0 1-1.058.224zm5.657 0c-.526 0-.979-.116-1.36-.348a2.34 2.34 0 0 1-.877-.98c-.204-.422-.305-.912-.305-1.471s.102-1.051.305-1.477a2.4 2.4 0 0 1 .859-1.001c.367-.239.8-.362 1.293-.362a2.58 2.58 0 0 1 .842.142c.277.095.529.249.756.462a2.23 2.23 0 0 1 .543.838c.135.348.202.777.202 1.286v.355h-4.205v-.724h3.352a1.79 1.79 0 0 0-.185-.824 1.39 1.39 0 0 0-.519-.572c-.222-.14-.485-.21-.788-.21-.334 0-.623.083-.867.249a1.64 1.64 0 0 0-.558.639 1.88 1.88 0 0 0-.195.845v.483c0 .412.071.761.213 1.048s.344.501.6.65.553.22.891.22c.22 0 .419-.031.597-.092s.335-.159.465-.284.231-.287.302-.476l.81.227a1.79 1.79 0 0 1-.43.724c-.201.206-.45.367-.746.483s-.629.171-.998.171zm20.625 136.886h-.923l2.67-7.273h.909l2.671 7.273h-.924l-2.173-6.122h-.057l-2.173 6.122zm.341-2.841h3.721v.781h-3.721v-.781zm8.065 2.955c-.455 0-.856-.115-1.204-.345s-.621-.558-.817-.98-.295-.924-.295-1.502.098-1.07.295-1.491a2.29 2.29 0 0 1 .82-.977c.351-.23.755-.344 1.215-.344.355 0 .635.059.841.177s.367.249.476.398l.259.362h.071v-2.685h.839v7.273h-.81v-.838h-.1a5.32 5.32 0 0 1-.262.377c-.114.149-.276.282-.487.401s-.491.174-.841.174zm.113-.753c.336 0 .62-.088.852-.263s.409-.422.53-.735.181-.678.181-1.09-.06-.764-.178-1.069-.293-.547-.525-.717-.519-.26-.86-.26c-.355 0-.651.092-.888.274s-.41.425-.529.735-.174.653-.174 1.037.059.741.178 1.058.298.566.532.753.531.277.881.277zm6.097.753c-.454 0-.855-.115-1.203-.345s-.621-.558-.817-.98-.295-.924-.295-1.502.098-1.07.295-1.491a2.29 2.29 0 0 1 .82-.977c.351-.23.755-.344 1.215-.344.355 0 .635.059.841.177s.367.249.476.398l.259.362h.071v-2.685h.838v7.273h-.809v-.838h-.1a5.32 5.32 0 0 1-.262.377c-.114.149-.276.282-.487.401s-.491.174-.842.174zm.114-.753c.336 0 .62-.088.852-.263s.409-.422.529-.735a3.04 3.04 0 0 0 .182-1.09c0-.407-.06-.764-.178-1.069s-.294-.547-.526-.717-.518-.26-.859-.26c-.355 0-.651.092-.888.274s-.41.425-.529.735-.174.653-.174 1.037.059.741.178 1.058.298.566.532.753.531.277.881.277zm6.85.639v-5.454h.81v.852h.071c.114-.291.297-.517.55-.678s.558-.245.913-.245c.36 0 .659.081.898.245a1.6 1.6 0 0 1 .565.678h.057c.14-.282.349-.506.628-.671s.615-.252 1.005-.252c.488 0 .887.152 1.197.458s.465.775.465 1.417v3.65h-.838v-3.65c0-.403-.11-.691-.33-.863a1.22 1.22 0 0 0-.778-.26c-.383 0-.68.116-.891.348s-.316.521-.316.874v3.551h-.852v-3.736a.98.98 0 0 0-.302-.749c-.201-.192-.461-.288-.778-.288a1.15 1.15 0 0 0-.611.174c-.187.116-.338.277-.454.483a1.41 1.41 0 0 0-.171.707v3.409h-.838zm10.908.114c-.493 0-.925-.117-1.297-.352a2.37 2.37 0 0 1-.866-.983c-.208-.421-.309-.914-.309-1.478s.103-1.064.309-1.488a2.39 2.39 0 0 1 .866-.987c.372-.234.804-.351 1.297-.351s.923.117 1.292.351.661.564.867.987.312.92.312 1.488-.104 1.056-.312 1.478a2.36 2.36 0 0 1-.867.983c-.372.234-.8.352-1.292.352zm0-.753c.374 0 .681-.096.923-.288s.42-.444.536-.756a2.9 2.9 0 0 0 .174-1.016c0-.364-.058-.704-.174-1.019s-.295-.569-.536-.763-.549-.292-.923-.292-.682.097-.924.292-.42.448-.536.763-.174.655-.174 1.019a2.9 2.9 0 0 0 .174 1.016c.116.312.295.565.536.756s.549.288.924.288zm3.75.639v-5.454h.81v.823h.057c.099-.269.279-.488.54-.656a1.58 1.58 0 0 1 .88-.253l.231.004.21.011v.852c-.029-.007-.094-.018-.196-.032s-.204-.025-.316-.025c-.265 0-.502.056-.71.167a1.26 1.26 0 0 0-.49.454 1.23 1.23 0 0 0-.177.657v3.452h-.839zm5.842.114c-.526 0-.979-.116-1.36-.348s-.671-.561-.877-.98-.306-.912-.306-1.471.102-1.051.306-1.477a2.41 2.41 0 0 1 .859-1.001c.37-.242.8-.362 1.293-.362.284 0 .564.047.841.142a2.09 2.09 0 0 1 .757.461 2.23 2.23 0 0 1 .543.838c.135.348.203.777.203 1.286v.355h-4.205v-.724h3.352c0-.308-.061-.583-.184-.824s-.294-.432-.519-.572-.485-.21-.788-.21c-.334 0-.623.083-.867.249a1.63 1.63 0 0 0-.557.639 1.88 1.88 0 0 0-.195.845v.483c0 .412.071.761.213 1.048s.344.501.6.65.553.22.891.22c.22 0 .419-.031.597-.092a1.28 1.28 0 0 0 .465-.284 1.3 1.3 0 0 0 .302-.476l.809.227c-.085.275-.228.516-.429.724a2.1 2.1 0 0 1-.746.483 2.76 2.76 0 0 1-.998.171zm8.477-.611v-4.688h.795v4.688h-.795zm-1.946-1.946v-.795h4.687v.795h-4.687z" fill="#b8b8b8"/><g clip-path="url(#E)" class="D"><use href="#L"/><use href="#M"/><use href="#N"/></g><g clip-path="url(#F)" class="D"><path d="M38.5 163.41h-1v-1a.5.5 0 1 0-1 0v1h-1a.5.5 0 0 0-.354.854c.094.093.221.146.354.146h1v1a.5.5 0 0 0 .146.354c.094.093.221.146.354.146s.26-.053.354-.146a.5.5 0 0 0 .146-.354v-1h1c.133 0 .26-.053.354-.146a.5.5 0 0 0-.354-.854zm-7 .5a3.01 3.01 0 0 0 1.667-.505c.494-.329.878-.799 1.105-1.347a3 3 0 0 0-2.186-4.09 2.99 2.99 0 0 0-1.733.171 3 3 0 0 0-1.852 2.771c.001.796.317 1.558.88 2.121a3 3 0 0 0 2.12.879zm0-5a2 2 0 0 1 1.962 2.39 2 2 0 0 1-1.571 1.572c-.388.077-.79.037-1.156-.114s-.678-.408-.898-.737a2 2 0 0 1 1.663-3.111zm0 6a4.5 4.5 0 0 0-3.18 1.32c-.844.843-1.318 1.987-1.32 3.18a.5.5 0 0 0 .146.354c.094.093.221.146.354.146s.26-.053.354-.146a.5.5 0 0 0 .146-.354 3.5 3.5 0 1 1 7 0 .5.5 0 0 0 .146.354c.094.093.221.146.354.146s.26-.053.354-.146a.5.5 0 0 0 .146-.354c-.001-1.193-.476-2.337-1.319-3.18a4.5 4.5 0 0 0-3.181-1.32z"/></g><g clip-path="url(#G)" class="D"><path d="M38.5 197.41h-1v-1a.5.5 0 1 0-1 0v1h-1a.5.5 0 0 0-.354.854c.094.093.221.146.354.146h1v1a.5.5 0 0 0 .146.354c.094.093.221.146.354.146s.26-.053.354-.146a.5.5 0 0 0 .146-.354v-1h1c.133 0 .26-.053.354-.146a.5.5 0 0 0-.354-.854zm-7 .5a3.01 3.01 0 0 0 1.667-.505c.494-.329.878-.799 1.105-1.347a3 3 0 0 0-2.186-4.09 2.99 2.99 0 0 0-1.733.171 3 3 0 0 0-1.852 2.771c.001.796.317 1.558.88 2.121a3 3 0 0 0 2.12.879zm0-5a2 2 0 0 1 1.962 2.39 2 2 0 0 1-1.571 1.572c-.388.077-.79.037-1.156-.114s-.678-.408-.898-.737a2 2 0 0 1 1.663-3.111zm0 6a4.5 4.5 0 0 0-3.18 1.32c-.844.843-1.318 1.987-1.32 3.18a.5.5 0 0 0 .146.354c.094.093.221.146.354.146s.26-.053.354-.146a.5.5 0 0 0 .146-.354 3.5 3.5 0 1 1 7 0 .5.5 0 0 0 .146.354c.094.093.221.146.354.146s.26-.053.354-.146a.5.5 0 0 0 .146-.354c-.001-1.193-.476-2.337-1.319-3.18a4.5 4.5 0 0 0-3.181-1.32z"/></g><g fill="#0c0c0c"><path d="M52.881 137.91v-7.273h2.457c.568 0 1.035.097 1.399.292s.634.455.81.792.263.718.263 1.147-.088.808-.263 1.139-.444.592-.806.782-.825.28-1.389.28h-1.989v-.795h1.96c.388 0 .701-.057.938-.171a1.07 1.07 0 0 0 .518-.483c.109-.21.163-.461.163-.752s-.054-.546-.163-.764a1.11 1.11 0 0 0-.522-.504c-.239-.121-.555-.181-.948-.181h-1.548v6.491h-.881zm3.423-3.267l1.79 3.267h-1.023l-1.761-3.267h.994zm4.465 3.395a2.22 2.22 0 0 1-.941-.195c-.282-.133-.505-.323-.671-.572s-.249-.554-.249-.909c0-.313.062-.566.185-.76s.288-.35.494-.462a2.59 2.59 0 0 1 .682-.248l.756-.135.806-.096c.208-.024.36-.063.455-.117s.146-.149.146-.284v-.029c0-.35-.096-.622-.288-.817s-.477-.291-.863-.291c-.4 0-.714.088-.941.263a1.55 1.55 0 0 0-.479.561l-.795-.284c.142-.331.331-.589.568-.774a2.14 2.14 0 0 1 .781-.391c.284-.076.563-.113.838-.113.175 0 .376.021.604.064s.451.124.664.252.394.32.536.578.213.604.213 1.037v3.594h-.838v-.738h-.043c-.057.118-.152.245-.284.379s-.309.25-.529.345-.489.142-.806.142zm.128-.753c.331 0 .611-.065.838-.195s.402-.298.518-.504.178-.423.178-.65v-.767c-.035.042-.114.081-.234.117a3.98 3.98 0 0 1-.412.089l-.451.064-.352.042a3.24 3.24 0 0 0-.611.139 1.05 1.05 0 0 0-.454.28c-.114.123-.171.291-.171.504a.75.75 0 0 0 .323.661c.218.147.494.22.827.22zm4.74-2.656v3.281h-.838v-5.454h.81v.852h.071c.128-.277.322-.5.582-.668s.597-.255 1.009-.255c.369 0 .692.075.969.227s.493.376.646.682.231.686.231 1.15v3.466h-.838v-3.409c0-.428-.111-.762-.334-1.001s-.528-.363-.916-.363c-.267 0-.507.058-.717.174s-.373.286-.494.508-.181.493-.181.81zm5.012-2.173h.838v5.852c0 .336-.058.627-.174.873a1.25 1.25 0 0 1-.519.572c-.23.135-.52.203-.87.203h-.085-.085v-.782h.078.078c.256 0 .443-.075.561-.227s.178-.362.178-.639v-5.852zm.412-.909c-.163 0-.304-.056-.422-.167s-.174-.245-.174-.402.058-.29.174-.401.259-.167.422-.167.303.056.419.167a.53.53 0 0 1 .178.401c0 .157-.059.29-.178.402s-.256.167-.419.167zm2.799 3.082v3.281h-.838v-7.273h.838v2.671h.071c.128-.282.32-.506.575-.671s.601-.252 1.03-.252c.372 0 .697.074.977.223s.496.373.65.679.234.688.234 1.157v3.466h-.838v-3.409c0-.433-.112-.768-.337-1.005s-.532-.359-.927-.359c-.275 0-.521.058-.739.174s-.386.286-.511.508-.185.493-.185.81zm6.675 3.409a2.22 2.22 0 0 1-.941-.195c-.282-.133-.505-.323-.671-.572s-.249-.554-.249-.909c0-.313.061-.566.185-.76s.288-.35.494-.462.433-.194.682-.248l.756-.135.806-.096c.208-.024.36-.063.454-.117s.146-.149.146-.284v-.029c0-.35-.096-.622-.288-.817s-.477-.291-.863-.291c-.4 0-.714.088-.941.263a1.55 1.55 0 0 0-.479.561l-.796-.284c.142-.331.331-.589.568-.774a2.14 2.14 0 0 1 .781-.391 3.23 3.23 0 0 1 .838-.113c.175 0 .376.021.604.064s.451.124.664.252.394.32.536.578.213.604.213 1.037v3.594h-.838v-.738h-.043c-.057.118-.151.245-.284.379s-.309.25-.529.345-.489.142-.806.142zm.128-.753c.331 0 .611-.065.838-.195s.402-.298.518-.504.178-.423.178-.65v-.767c-.035.042-.114.081-.234.117s-.256.063-.412.089l-.451.064-.352.042a3.24 3.24 0 0 0-.611.139 1.05 1.05 0 0 0-.454.28c-.114.123-.171.291-.171.504a.75.75 0 0 0 .323.661c.218.147.494.22.827.22zm8.092 2.543c-.725 0-1.365-.1-1.921-.299a3.63 3.63 0 0 1-1.403-.87 3.71 3.71 0 0 1-.859-1.409c-.194-.557-.291-1.194-.291-1.911 0-.694.098-1.314.295-1.861s.486-1.011.863-1.392a3.75 3.75 0 0 1 1.378-.877c.542-.201 1.155-.302 1.84-.302.665 0 1.248.109 1.747.327s.921.508 1.257.877a3.68 3.68 0 0 1 .76 1.239c.171.46.256.933.256 1.421l-.05 1.044c-.033.353-.103.677-.21.973s-.271.53-.494.71-.518.27-.895.27c-.166 0-.348-.026-.547-.078s-.375-.139-.529-.259a.72.72 0 0 1-.273-.487h-.043c-.057.138-.144.268-.263.391s-.269.221-.458.295-.416.105-.685.095c-.308-.011-.579-.08-.813-.205a1.77 1.77 0 0 1-.59-.519 2.44 2.44 0 0 1-.355-.763c-.078-.292-.117-.605-.117-.941a2.6 2.6 0 0 1 .142-.878 2.23 2.23 0 0 1 .394-.696c.171-.198.369-.357.597-.475s.477-.196.742-.224c.237-.024.452-.013.646.032s.354.107.479.195.205.18.238.284h.043v-.398h.753v3.211a.86.86 0 0 0 .167.525c.111.152.273.227.487.227.242 0 .426-.082.554-.248s.219-.421.266-.767.075-.788.075-1.328c0-.317-.044-.63-.131-.938s-.215-.6-.391-.87a2.84 2.84 0 0 0-.657-.714c-.265-.206-.576-.367-.934-.483s-.759-.177-1.211-.177c-.556 0-1.055.086-1.495.259s-.811.42-1.119.749-.539.725-.7 1.194-.238.996-.238 1.591c0 .603.079 1.139.238 1.608s.398.864.71 1.186.704.566 1.168.732.999.252 1.605.252a3.97 3.97 0 0 0 .771-.075l.671-.163.419-.131.199.653c-.147.062-.338.123-.575.185a7.24 7.24 0 0 1-.753.152c-.265.041-.519.061-.76.061zm-.412-2.827c.317 0 .574-.064.771-.192s.34-.32.43-.579.135-.583.135-.976-.05-.708-.149-.93a.89.89 0 0 0-.44-.469c-.194-.09-.433-.135-.717-.135a1.13 1.13 0 0 0-.692.213 1.35 1.35 0 0 0-.437.561c-.1.232-.149.485-.149.76a2.96 2.96 0 0 0 .121.856c.081.265.212.48.394.646s.427.245.735.245zm5.587.909v-5.454h.81v.852h.071a1.37 1.37 0 0 1 .55-.678c.253-.164.558-.245.913-.245s.659.081.898.245.43.387.565.678h.057c.14-.282.349-.506.629-.671s.614-.252 1.005-.252c.488 0 .887.152 1.197.458s.465.775.465 1.417v3.65h-.838v-3.65c0-.403-.11-.691-.33-.863a1.22 1.22 0 0 0-.778-.26c-.383 0-.681.116-.891.348s-.316.521-.316.874v3.551h-.852v-3.736c0-.31-.101-.56-.302-.749s-.46-.288-.778-.288a1.15 1.15 0 0 0-.611.174c-.187.116-.338.277-.454.483s-.171.44-.171.707v3.409h-.838zm10.297.128c-.346 0-.66-.065-.941-.195s-.506-.323-.672-.572-.248-.554-.248-.909c0-.313.061-.566.185-.76s.287-.35.493-.462.433-.194.682-.248l.756-.135.806-.096c.209-.024.36-.063.455-.117s.146-.149.146-.284v-.029c0-.35-.096-.622-.288-.817s-.477-.291-.863-.291c-.4 0-.714.088-.941.263s-.387.362-.479.561l-.796-.284c.142-.331.332-.589.568-.774a2.14 2.14 0 0 1 .782-.391 3.23 3.23 0 0 1 .838-.113 3.28 3.28 0 0 1 .603.064 1.92 1.92 0 0 1 .664.252c.216.127.395.32.537.578s.213.604.213 1.037v3.594h-.838v-.738h-.043a1.48 1.48 0 0 1-.284.379 1.65 1.65 0 0 1-.529.345c-.22.095-.489.142-.806.142zm.128-.753c.331 0 .61-.065.838-.195a1.33 1.33 0 0 0 .518-.504 1.29 1.29 0 0 0 .178-.65v-.767c-.036.042-.114.081-.235.117s-.255.063-.412.089l-.451.064-.351.042c-.218.029-.422.075-.611.139s-.339.155-.455.28-.17.291-.17.504c0 .292.108.512.323.661s.494.22.828.22zm6.117.739c-.511 0-.951-.121-1.321-.362a2.37 2.37 0 0 1-.852-.998c-.199-.424-.298-.908-.298-1.453 0-.554.101-1.043.305-1.466s.492-.759.859-.998.801-.362 1.293-.362c.384 0 .729.071 1.037.213s.56.341.756.596.319.554.366.895h-.838c-.064-.248-.206-.469-.426-.66s-.511-.292-.881-.292c-.326 0-.613.086-.859.256s-.435.406-.572.714-.202.664-.202 1.076c0 .421.066.788.199 1.101s.324.555.568.728.535.259.866.259a1.49 1.49 0 0 0 .593-.114 1.21 1.21 0 0 0 .451-.326c.123-.142.211-.313.263-.512h.838c-.047.322-.164.612-.351.87s-.43.46-.736.611-.655.224-1.058.224zm4.208-3.395v3.281h-.838v-5.454h.81v.852h.071a1.56 1.56 0 0 1 .582-.668c.261-.17.597-.255 1.009-.255.369 0 .692.075.969.227a1.53 1.53 0 0 1 .647.682c.154.303.23.686.23 1.15v3.466h-.838v-3.409c0-.428-.111-.762-.333-1.001s-.528-.363-.917-.363c-.267 0-.506.058-.717.174s-.373.286-.494.508-.181.493-.181.81zm5.012 3.281v-5.454h.81v.852h.071a1.37 1.37 0 0 1 .55-.678c.253-.164.558-.245.913-.245s.659.081.898.245a1.6 1.6 0 0 1 .565.678h.057a1.58 1.58 0 0 1 .628-.671c.279-.168.614-.252 1.005-.252.488 0 .887.152 1.197.458s.465.775.465 1.417v3.65h-.838v-3.65c0-.403-.11-.691-.33-.863s-.48-.26-.778-.26c-.384 0-.681.116-.891.348s-.316.521-.316.874v3.551h-.853v-3.736c0-.31-.1-.56-.302-.749s-.46-.288-.777-.288a1.15 1.15 0 0 0-.611.174c-.187.116-.339.277-.455.483s-.17.44-.17.707v3.409h-.838zm10.296.128c-.345 0-.659-.065-.941-.195a1.62 1.62 0 0 1-.671-.572c-.166-.251-.248-.554-.248-.909 0-.313.061-.566.184-.76s.288-.35.494-.462.433-.194.682-.248l.756-.135.806-.096c.209-.024.36-.063.455-.117s.145-.149.145-.284v-.029c0-.35-.096-.622-.287-.817s-.477-.291-.863-.291c-.4 0-.714.088-.941.263s-.387.362-.48.561l-.795-.284c.142-.331.331-.589.568-.774s.5-.317.781-.391.564-.113.838-.113a3.28 3.28 0 0 1 .604.064 1.92 1.92 0 0 1 .664.252c.216.127.394.32.536.578s.213.604.213 1.037v3.594h-.838v-.738h-.042a1.48 1.48 0 0 1-.284.379 1.65 1.65 0 0 1-.529.345c-.221.095-.489.142-.807.142zm.128-.753c.332 0 .611-.065.838-.195s.403-.298.519-.504a1.29 1.29 0 0 0 .177-.65v-.767c-.035.042-.113.081-.234.117a3.97 3.97 0 0 1-.412.089l-.451.064-.352.042a3.24 3.24 0 0 0-.61.139c-.187.061-.339.155-.455.28s-.17.291-.17.504c0 .292.107.512.323.661s.493.22.827.22zm4.74-2.656v3.281h-.838v-5.454h.81v.852h.071a1.56 1.56 0 0 1 .582-.668c.261-.17.597-.255 1.009-.255.369 0 .692.075.969.227s.493.376.646.682.231.686.231 1.15v3.466h-.838v-3.409c0-.428-.111-.762-.334-1.001s-.528-.363-.916-.363c-.267 0-.506.058-.717.174s-.373.286-.494.508-.181.493-.181.81zm5.622 3.338c-.175 0-.325-.063-.451-.188s-.188-.276-.188-.451.063-.326.188-.451.276-.188.451-.188a.61.61 0 0 1 .451.188c.126.125.189.276.189.451a.6.6 0 0 1-.089.319c-.057.097-.134.176-.231.235s-.201.085-.32.085zm4.359.057c-.511 0-.951-.121-1.321-.362a2.37 2.37 0 0 1-.852-.998c-.199-.424-.298-.908-.298-1.453 0-.554.102-1.043.305-1.466s.493-.759.86-.998.8-.362 1.292-.362c.384 0 .729.071 1.037.213s.56.341.757.596.318.554.365.895h-.838c-.064-.248-.206-.469-.426-.66s-.511-.292-.881-.292c-.326 0-.613.086-.859.256s-.434.406-.572.714-.202.664-.202 1.076c0 .421.066.788.199 1.101s.324.555.568.728.535.259.866.259c.218 0 .416-.038.594-.114s.327-.184.451-.326.21-.313.262-.512h.838c-.047.322-.164.612-.351.87s-.43.46-.735.611-.656.224-1.059.224zm5.586 0c-.492 0-.924-.117-1.296-.352s-.658-.562-.866-.983-.309-.914-.309-1.478.103-1.064.309-1.488a2.39 2.39 0 0 1 .866-.987c.372-.234.804-.351 1.296-.351s.924.117 1.293.351a2.35 2.35 0 0 1 .866.987c.209.424.313.92.313 1.488s-.104 1.056-.313 1.478-.494.749-.866.983-.8.352-1.293.352zm0-.753c.374 0 .682-.096.924-.288s.42-.444.536-.756a2.9 2.9 0 0 0 .174-1.016c0-.364-.058-.704-.174-1.019s-.295-.569-.536-.763-.55-.292-.924-.292-.681.097-.923.292-.42.448-.536.763-.174.655-.174 1.019a2.9 2.9 0 0 0 .174 1.016c.116.312.295.565.536.756s.549.288.923.288zm3.751.639v-5.454h.81v.852h.071c.114-.291.297-.517.55-.678s.558-.245.913-.245c.36 0 .659.081.898.245a1.6 1.6 0 0 1 .565.678h.057c.14-.282.349-.506.628-.671s.615-.252 1.005-.252c.488 0 .887.152 1.197.458s.465.775.465 1.417v3.65h-.838v-3.65c0-.403-.11-.691-.33-.863a1.22 1.22 0 0 0-.778-.26c-.383 0-.68.116-.891.348s-.316.521-.316.874v3.551h-.852v-3.736a.98.98 0 0 0-.302-.749c-.201-.192-.461-.288-.778-.288a1.15 1.15 0 0 0-.611.174c-.187.116-.338.277-.454.483s-.171.44-.171.707v3.409h-.838z"/><path d="M58.733 163.91h-.881c-.052-.253-.143-.476-.273-.667s-.284-.353-.469-.483-.385-.232-.607-.299-.455-.099-.696-.099c-.44 0-.839.111-1.197.334s-.638.55-.849.983-.312.965-.312 1.595.104 1.161.313 1.594.494.761.849.984.756.334 1.197.334a2.4 2.4 0 0 0 .696-.1c.223-.066.425-.164.607-.294s.341-.295.469-.487.221-.417.273-.668h.881c-.066.372-.187.705-.362.998s-.393.544-.653.75-.553.358-.877.465-.666.16-1.033.16c-.62 0-1.172-.152-1.655-.455s-.863-.734-1.14-1.293-.415-1.221-.415-1.988.139-1.43.415-1.989.657-.989 1.14-1.292 1.035-.455 1.655-.455c.367 0 .711.053 1.033.16a2.81 2.81 0 0 1 .877.469c.26.203.478.452.653.745s.296.624.362.998zm2.148 1.719v3.281h-.838v-7.273h.838v2.671h.071c.128-.282.32-.506.575-.671s.601-.252 1.03-.252c.372 0 .697.074.977.223s.496.373.65.679.234.688.234 1.157v3.466h-.838v-3.409c0-.433-.112-.768-.337-1.005s-.531-.359-.927-.359c-.275 0-.521.058-.739.174s-.386.286-.511.508-.185.493-.185.81zm6.675 3.409a2.22 2.22 0 0 1-.941-.195c-.282-.133-.505-.323-.671-.572s-.249-.554-.249-.909c0-.313.062-.566.185-.76s.288-.35.494-.462a2.59 2.59 0 0 1 .682-.248l.756-.135.806-.096c.208-.024.36-.063.455-.117s.146-.149.146-.284v-.029c0-.35-.096-.622-.288-.817s-.477-.291-.863-.291c-.4 0-.714.088-.941.263a1.55 1.55 0 0 0-.479.561l-.795-.284c.142-.331.331-.589.568-.774a2.14 2.14 0 0 1 .781-.391c.284-.076.564-.113.838-.113.175 0 .376.021.604.064s.451.124.664.252.394.32.536.578.213.604.213 1.037v3.594h-.838v-.738h-.043c-.057.118-.151.245-.284.379s-.309.25-.529.345-.489.142-.806.142zm.128-.753c.331 0 .611-.065.838-.195s.402-.298.518-.504.178-.423.178-.65v-.767c-.035.042-.114.081-.234.117a3.98 3.98 0 0 1-.412.089l-.451.064-.352.042a3.24 3.24 0 0 0-.611.139 1.05 1.05 0 0 0-.454.28c-.114.123-.171.291-.171.504a.75.75 0 0 0 .323.661c.218.147.494.22.827.22zm6.274-4.829v.71h-2.827v-.71h2.827zm-2.003-1.307h.838v5.199c0 .236.034.414.103.532s.161.194.27.235a1.08 1.08 0 0 0 .352.057 1.41 1.41 0 0 0 .227-.015l.142-.028.171.753c-.057.021-.136.042-.238.064s-.231.035-.387.035c-.237 0-.469-.051-.696-.153a1.37 1.37 0 0 1-.561-.465c-.147-.208-.22-.471-.22-.788v-5.426zm7.454 8.679c-.725 0-1.365-.1-1.921-.299a3.63 3.63 0 0 1-1.403-.87c-.379-.383-.665-.853-.859-1.409s-.291-1.194-.291-1.911c0-.694.098-1.314.295-1.861s.487-1.011.863-1.392a3.75 3.75 0 0 1 1.378-.877c.542-.201 1.155-.302 1.84-.302.665 0 1.248.109 1.747.327s.921.508 1.257.877a3.68 3.68 0 0 1 .76 1.239c.17.46.256.933.256 1.421l-.05 1.044c-.033.353-.103.677-.21.973s-.271.53-.494.71-.519.27-.895.27c-.166 0-.348-.026-.547-.078s-.375-.139-.529-.259a.72.72 0 0 1-.273-.487h-.043c-.057.138-.144.268-.263.391s-.269.221-.458.295-.415.105-.685.095c-.308-.011-.579-.08-.813-.205a1.77 1.77 0 0 1-.59-.519 2.44 2.44 0 0 1-.355-.763c-.078-.292-.117-.605-.117-.941a2.6 2.6 0 0 1 .142-.878 2.23 2.23 0 0 1 .394-.696c.17-.198.369-.357.597-.475s.477-.196.742-.224c.237-.024.452-.013.646.032s.354.107.479.195.205.18.238.284h.043v-.398h.753v3.211a.86.86 0 0 0 .167.525c.111.152.273.227.486.227.242 0 .426-.082.554-.248s.219-.421.266-.767.075-.788.075-1.328c0-.317-.044-.63-.131-.938a3.1 3.1 0 0 0-.391-.87 2.84 2.84 0 0 0-.657-.714c-.265-.206-.576-.367-.934-.483s-.759-.177-1.211-.177c-.556 0-1.055.086-1.495.259s-.811.42-1.119.749-.539.725-.7 1.194-.238.996-.238 1.591c0 .603.079 1.139.238 1.608s.398.864.71 1.186.704.566 1.168.732.999.252 1.605.252a3.97 3.97 0 0 0 .771-.075l.671-.163.419-.131.199.653c-.147.062-.338.123-.575.185a7.24 7.24 0 0 1-.753.152c-.265.041-.518.061-.76.061zm-.412-2.827c.317 0 .574-.064.771-.192s.34-.32.43-.579.135-.583.135-.976-.05-.708-.149-.93a.89.89 0 0 0-.44-.469c-.194-.09-.433-.135-.717-.135a1.13 1.13 0 0 0-.692.213 1.35 1.35 0 0 0-.437.561c-.099.232-.149.485-.149.76a2.96 2.96 0 0 0 .121.856c.081.265.212.48.394.646s.427.245.735.245zm5.587.909v-5.454h.81v.852h.071a1.37 1.37 0 0 1 .55-.678c.253-.164.558-.245.913-.245s.659.081.898.245.43.387.565.678h.057c.14-.282.349-.506.628-.671s.614-.252 1.005-.252c.488 0 .887.152 1.197.458s.465.775.465 1.417v3.65h-.838v-3.65c0-.403-.11-.691-.33-.863a1.22 1.22 0 0 0-.778-.26c-.383 0-.681.116-.891.348s-.316.521-.316.874v3.551h-.852v-3.736c0-.31-.101-.56-.302-.749s-.46-.288-.778-.288a1.15 1.15 0 0 0-.611.174c-.187.116-.338.277-.454.483s-.171.44-.171.707v3.409h-.838zm10.296.128a2.22 2.22 0 0 1-.941-.195c-.282-.133-.505-.323-.671-.572s-.249-.554-.249-.909c0-.313.061-.566.185-.76s.288-.35.494-.462.433-.194.682-.248l.756-.135.806-.096c.208-.024.36-.063.454-.117s.146-.149.146-.284v-.029c0-.35-.096-.622-.288-.817s-.477-.291-.863-.291c-.4 0-.714.088-.941.263a1.55 1.55 0 0 0-.479.561l-.796-.284c.142-.331.332-.589.568-.774a2.14 2.14 0 0 1 .781-.391 3.23 3.23 0 0 1 .838-.113c.175 0 .376.021.604.064s.451.124.664.252.394.32.536.578.213.604.213 1.037v3.594h-.838v-.738h-.043c-.057.118-.151.245-.284.379s-.309.25-.529.345-.489.142-.806.142zm.128-.753c.331 0 .611-.065.838-.195s.402-.298.518-.504.178-.423.178-.65v-.767c-.035.042-.114.081-.234.117s-.256.063-.412.089l-.451.064-.352.042a3.24 3.24 0 0 0-.611.139 1.05 1.05 0 0 0-.455.28c-.114.123-.17.291-.17.504a.75.75 0 0 0 .323.661c.218.147.494.22.827.22zm6.118.739c-.512 0-.952-.121-1.322-.362a2.37 2.37 0 0 1-.852-.998c-.199-.424-.298-.908-.298-1.453 0-.554.102-1.043.305-1.466s.493-.759.859-.998.8-.362 1.292-.362c.384 0 .729.071 1.037.213s.56.341.757.596.318.554.365.895h-.838c-.064-.248-.206-.469-.426-.66s-.511-.292-.88-.292c-.327 0-.614.086-.86.256s-.434.406-.572.714-.202.664-.202 1.076c0 .421.066.788.199 1.101s.324.555.568.728.535.259.867.259c.217 0 .415-.038.593-.114s.327-.184.451-.326.21-.313.262-.512h.838c-.047.322-.164.612-.351.87s-.43.46-.735.611-.656.224-1.058.224zm4.208-3.395v3.281h-.838v-5.454h.809v.852h.071c.128-.277.322-.5.583-.668s.596-.255 1.008-.255c.369 0 .693.075.97.227s.492.376.646.682.231.686.231 1.15v3.466h-.838v-3.409c0-.428-.112-.762-.334-1.001s-.528-.363-.916-.363c-.268 0-.507.058-.718.174s-.373.286-.493.508-.181.493-.181.81zm5.011 3.281v-5.454h.81v.852h.071a1.37 1.37 0 0 1 .55-.678c.254-.164.558-.245.913-.245.36 0 .659.081.898.245a1.6 1.6 0 0 1 .565.678h.057a1.58 1.58 0 0 1 .628-.671c.28-.168.615-.252 1.005-.252.488 0 .887.152 1.197.458s.465.775.465 1.417v3.65h-.838v-3.65c0-.403-.11-.691-.33-.863a1.22 1.22 0 0 0-.778-.26c-.383 0-.68.116-.891.348s-.316.521-.316.874v3.551h-.852v-3.736a.98.98 0 0 0-.302-.749c-.201-.192-.461-.288-.778-.288a1.15 1.15 0 0 0-.611.174c-.187.116-.338.277-.454.483s-.171.44-.171.707v3.409h-.838zm10.297.128c-.346 0-.66-.065-.941-.195s-.506-.323-.672-.572-.248-.554-.248-.909c0-.313.061-.566.185-.76s.287-.35.493-.462.433-.194.682-.248l.756-.135.806-.096c.209-.024.36-.063.455-.117s.146-.149.146-.284v-.029c0-.35-.096-.622-.288-.817s-.477-.291-.863-.291c-.4 0-.714.088-.941.263s-.387.362-.479.561l-.796-.284c.142-.331.332-.589.568-.774a2.14 2.14 0 0 1 .782-.391 3.23 3.23 0 0 1 .838-.113 3.28 3.28 0 0 1 .603.064 1.92 1.92 0 0 1 .664.252c.216.127.395.32.537.578s.213.604.213 1.037v3.594h-.838v-.738h-.043a1.48 1.48 0 0 1-.284.379 1.65 1.65 0 0 1-.529.345c-.22.095-.489.142-.806.142zm.128-.753c.331 0 .61-.065.838-.195a1.33 1.33 0 0 0 .518-.504 1.29 1.29 0 0 0 .178-.65v-.767c-.036.042-.114.081-.235.117s-.255.063-.412.089l-.451.064-.351.042c-.218.029-.422.075-.611.139s-.339.155-.455.28-.17.291-.17.504c0 .292.108.512.323.661s.494.22.828.22zm4.739-2.656v3.281h-.838v-5.454h.81v.852h.071a1.56 1.56 0 0 1 .582-.668c.261-.17.597-.255 1.009-.255.369 0 .692.075.969.227a1.53 1.53 0 0 1 .647.682c.154.303.231.686.231 1.15v3.466h-.839v-3.409c0-.428-.111-.762-.333-1.001s-.528-.363-.917-.363c-.267 0-.506.058-.717.174s-.373.286-.493.508-.182.493-.182.81zm5.623 3.338c-.175 0-.326-.063-.451-.188s-.188-.276-.188-.451a.61.61 0 0 1 .639-.639c.175 0 .325.062.451.188s.188.276.188.451a.6.6 0 0 1-.089.319c-.057.097-.134.176-.231.235s-.201.085-.319.085zm4.359.057c-.512 0-.952-.121-1.321-.362s-.654-.575-.853-.998-.298-.908-.298-1.453c0-.554.102-1.043.306-1.466s.492-.759.859-.998.8-.362 1.293-.362c.383 0 .729.071 1.036.213s.56.341.757.596.318.554.366.895h-.838c-.064-.248-.206-.469-.427-.66s-.511-.292-.88-.292c-.327 0-.613.086-.86.256s-.434.406-.571.714-.203.664-.203 1.076c0 .421.067.788.199 1.101s.324.555.568.728a1.47 1.47 0 0 0 .867.259c.218 0 .415-.038.593-.114s.328-.184.451-.326.211-.313.263-.512h.838a1.95 1.95 0 0 1-.352.87c-.185.256-.43.46-.735.611s-.656.224-1.058.224zm5.586 0c-.493 0-.925-.117-1.296-.352a2.38 2.38 0 0 1-.867-.983c-.206-.422-.309-.914-.309-1.478s.103-1.064.309-1.488.497-.752.867-.987.803-.351 1.296-.351.923.117 1.292.351.661.564.867.987.312.92.312 1.488-.104 1.056-.312 1.478-.495.749-.867.983-.8.352-1.292.352zm0-.753c.374 0 .682-.096.923-.288s.42-.444.536-.756a2.9 2.9 0 0 0 .174-1.016c0-.364-.058-.704-.174-1.019s-.295-.569-.536-.763-.549-.292-.923-.292-.682.097-.924.292-.42.448-.536.763-.174.655-.174 1.019a2.9 2.9 0 0 0 .174 1.016c.116.312.295.565.536.756s.55.288.924.288zm3.751.639v-5.454h.809v.852h.071a1.37 1.37 0 0 1 .551-.678c.253-.164.557-.245.912-.245.36 0 .66.081.899.245s.429.387.564.678h.057a1.58 1.58 0 0 1 .629-.671c.279-.168.614-.252 1.005-.252.487 0 .886.152 1.196.458s.466.775.466 1.417v3.65h-.838v-3.65c0-.403-.11-.691-.331-.863a1.22 1.22 0 0 0-.777-.26c-.384 0-.681.116-.892.348s-.316.521-.316.874v3.551h-.852v-3.736a.98.98 0 0 0-.302-.749c-.201-.192-.46-.288-.778-.288-.217 0-.421.058-.61.174s-.339.277-.455.483-.17.44-.17.707v3.409h-.838z"/><path d="M52.256 195.637h1.009l2.017 3.395h.085l2.017-3.395h1.009l-2.628 4.276v2.997h-.881v-2.997l-2.628-4.276zm10.199 5.043v-3.224h.838v5.454h-.838v-.923h-.057c-.128.277-.327.512-.597.707s-.611.287-1.023.287c-.341 0-.644-.074-.909-.224a1.56 1.56 0 0 1-.625-.681c-.152-.306-.227-.69-.227-1.154v-3.466h.838v3.409c0 .397.111.715.334.951s.511.356.859.356c.208 0 .42-.054.636-.16a1.39 1.39 0 0 0 .547-.49c.149-.221.224-.501.224-.842zm3.154.242l-.014-1.037h.171l2.386-2.429h1.037l-2.543 2.571h-.071l-.966.895zm-.781 1.988v-7.273h.838v7.273h-.838zm3.466 0l-2.131-2.699.597-.582 2.599 3.281h-1.065zm1.974 0v-5.454h.838v5.454h-.838zm.426-6.363c-.163 0-.304-.056-.423-.167s-.174-.245-.174-.402.058-.29.174-.401.259-.167.423-.167.303.056.419.167a.53.53 0 0 1 .178.401c0 .157-.059.29-.178.402s-.256.167-.419.167zm6.137 8.281c-.724 0-1.365-.1-1.921-.299a3.63 3.63 0 0 1-1.403-.87c-.379-.383-.665-.853-.859-1.409s-.291-1.194-.291-1.911c0-.694.098-1.314.295-1.861s.487-1.011.863-1.392a3.75 3.75 0 0 1 1.378-.877c.542-.201 1.155-.302 1.84-.302.665 0 1.248.109 1.747.327s.921.508 1.257.877a3.68 3.68 0 0 1 .76 1.239c.171.46.256.933.256 1.421l-.05 1.044a3.96 3.96 0 0 1-.21.973c-.107.294-.271.53-.494.71s-.518.27-.895.27c-.166 0-.348-.026-.547-.078s-.375-.139-.529-.259a.72.72 0 0 1-.273-.487h-.043c-.057.138-.144.268-.263.391s-.269.221-.458.295-.415.105-.685.095c-.308-.011-.579-.08-.813-.205a1.77 1.77 0 0 1-.59-.519c-.156-.22-.275-.475-.355-.763s-.117-.605-.117-.941a2.6 2.6 0 0 1 .142-.878 2.23 2.23 0 0 1 .394-.696c.17-.198.369-.357.597-.475s.477-.196.742-.224c.237-.024.452-.013.646.032s.354.107.479.195.205.18.238.284h.043v-.398h.753v3.211a.86.86 0 0 0 .167.525c.111.152.273.227.487.227.241 0 .426-.082.554-.248s.219-.421.266-.767.075-.788.075-1.328c0-.317-.044-.63-.131-.938a3.1 3.1 0 0 0-.391-.87 2.84 2.84 0 0 0-.657-.714c-.265-.206-.576-.367-.934-.483s-.759-.177-1.211-.177c-.556 0-1.055.086-1.495.259s-.811.42-1.119.749-.539.725-.7 1.194-.238.996-.238 1.591c0 .603.079 1.139.238 1.608s.398.864.71 1.186.704.566 1.168.732.999.252 1.605.252a3.97 3.97 0 0 0 .771-.075l.671-.163.419-.131.199.653c-.147.062-.338.123-.575.185s-.485.112-.753.152-.519.061-.76.061zm-.412-2.827c.317 0 .574-.064.771-.192s.34-.32.43-.579.135-.583.135-.976-.05-.708-.149-.93a.89.89 0 0 0-.44-.469c-.194-.09-.433-.135-.717-.135a1.13 1.13 0 0 0-.692.213 1.35 1.35 0 0 0-.437.561 1.91 1.91 0 0 0-.149.76 2.96 2.96 0 0 0 .121.856c.081.265.212.48.394.646s.427.245.735.245zm5.587.909v-5.454h.81v.852h.071a1.37 1.37 0 0 1 .55-.678c.253-.164.558-.245.913-.245s.659.081.898.245a1.6 1.6 0 0 1 .565.678h.057c.14-.282.349-.506.629-.671s.614-.252 1.005-.252c.488 0 .887.152 1.197.458s.465.775.465 1.417v3.65h-.838v-3.65c0-.403-.11-.691-.33-.863a1.22 1.22 0 0 0-.778-.26c-.383 0-.681.116-.891.348s-.316.521-.316.874v3.551h-.852v-3.736c0-.31-.101-.56-.302-.749a1.08 1.08 0 0 0-.778-.288 1.15 1.15 0 0 0-.611.174c-.187.116-.338.277-.455.483a1.43 1.43 0 0 0-.17.707v3.409h-.838zm10.296.128a2.22 2.22 0 0 1-.941-.195c-.282-.133-.505-.323-.671-.572s-.248-.554-.248-.909c0-.313.061-.566.185-.76s.288-.35.494-.462a2.59 2.59 0 0 1 .682-.248l.756-.135.806-.096c.208-.024.36-.063.455-.117s.146-.149.146-.284v-.029c0-.35-.096-.622-.288-.817s-.477-.291-.863-.291c-.4 0-.714.088-.941.263a1.55 1.55 0 0 0-.479.561l-.795-.284c.142-.331.331-.589.568-.774a2.14 2.14 0 0 1 .781-.391c.284-.076.563-.113.838-.113.175 0 .376.021.604.064s.451.124.664.252.394.32.536.578.213.604.213 1.037v3.594h-.838v-.738h-.043c-.057.118-.152.245-.284.379s-.309.25-.529.345-.489.142-.806.142zm.128-.753c.331 0 .611-.065.838-.195s.402-.298.518-.504.178-.423.178-.65v-.767c-.036.042-.114.081-.234.117a3.98 3.98 0 0 1-.412.089l-.451.064-.352.042a3.24 3.24 0 0 0-.611.139 1.05 1.05 0 0 0-.454.28c-.114.123-.171.291-.171.504a.75.75 0 0 0 .323.661c.218.147.494.22.827.22zm6.118.739c-.511 0-.952-.121-1.321-.362a2.37 2.37 0 0 1-.852-.998c-.199-.424-.298-.908-.298-1.453 0-.554.102-1.043.305-1.466s.492-.759.859-.998.8-.362 1.293-.362c.384 0 .729.071 1.037.213s.56.341.757.596.318.554.365.895h-.838c-.064-.248-.206-.469-.426-.66s-.511-.292-.881-.292c-.327 0-.613.086-.859.256s-.434.406-.572.714-.202.664-.202 1.076c0 .421.066.788.199 1.101a1.69 1.69 0 0 0 .568.728c.246.173.535.259.867.259.218 0 .416-.038.593-.114s.328-.184.451-.326.211-.313.263-.512h.838c-.047.322-.164.612-.351.87a1.96 1.96 0 0 1-.735.611 2.37 2.37 0 0 1-1.058.224zm4.209-3.395v3.281h-.839v-5.454h.81v.852h.071c.128-.277.322-.5.583-.668s.596-.255 1.008-.255c.369 0 .692.075.969.227a1.53 1.53 0 0 1 .647.682c.154.303.231.686.231 1.15v3.466h-.838v-3.409c0-.428-.112-.762-.334-1.001s-.528-.363-.916-.363c-.268 0-.507.058-.718.174s-.373.286-.493.508-.181.493-.181.81zm5.011 3.281v-5.454h.81v.852h.071a1.37 1.37 0 0 1 .55-.678c.253-.164.558-.245.913-.245s.659.081.898.245a1.6 1.6 0 0 1 .565.678h.057a1.58 1.58 0 0 1 .628-.671c.28-.168.615-.252 1.005-.252.488 0 .887.152 1.197.458s.465.775.465 1.417v3.65h-.838v-3.65c0-.403-.11-.691-.33-.863s-.48-.26-.778-.26c-.383 0-.681.116-.891.348s-.316.521-.316.874v3.551h-.853v-3.736c0-.31-.1-.56-.301-.749s-.461-.288-.778-.288a1.15 1.15 0 0 0-.611.174c-.187.116-.338.277-.454.483s-.171.44-.171.707v3.409h-.838zm10.297.128c-.346 0-.66-.065-.941-.195s-.506-.323-.672-.572-.248-.554-.248-.909c0-.313.061-.566.184-.76s.288-.35.494-.462.433-.194.682-.248l.756-.135.806-.096c.209-.024.36-.063.455-.117s.145-.149.145-.284v-.029c0-.35-.095-.622-.287-.817s-.477-.291-.863-.291c-.4 0-.714.088-.941.263s-.387.362-.48.561l-.795-.284c.142-.331.331-.589.568-.774s.5-.317.781-.391a3.24 3.24 0 0 1 .839-.113 3.28 3.28 0 0 1 .603.064 1.92 1.92 0 0 1 .664.252c.216.127.394.32.536.578s.214.604.214 1.037v3.594h-.839v-.738h-.042a1.48 1.48 0 0 1-.284.379 1.65 1.65 0 0 1-.529.345c-.22.095-.489.142-.806.142zm.127-.753c.332 0 .611-.065.838-.195s.403-.298.519-.504a1.29 1.29 0 0 0 .177-.65v-.767c-.035.042-.113.081-.234.117a3.97 3.97 0 0 1-.412.089l-.451.064-.351.042c-.218.029-.422.075-.611.139s-.339.155-.455.28-.17.291-.17.504c0 .292.108.512.323.661s.494.22.827.22zm4.74-2.656v3.281h-.838v-5.454h.81v.852h.071a1.56 1.56 0 0 1 .582-.668c.261-.17.597-.255 1.009-.255.369 0 .692.075.969.227a1.53 1.53 0 0 1 .647.682c.153.303.23.686.23 1.15v3.466h-.838v-3.409c0-.428-.111-.762-.333-1.001s-.528-.363-.917-.363c-.267 0-.506.058-.717.174s-.373.286-.494.508-.181.493-.181.81zm5.623 3.338c-.176 0-.326-.063-.451-.188s-.189-.276-.189-.451.063-.326.189-.451a.61.61 0 0 1 .451-.188c.175 0 .325.062.451.188s.188.276.188.451a.6.6 0 0 1-.089.319c-.057.097-.134.176-.231.235s-.201.085-.319.085zm4.359.057c-.512 0-.952-.121-1.321-.362s-.654-.575-.853-.998-.298-.908-.298-1.453c0-.554.102-1.043.305-1.466s.493-.759.86-.998.8-.362 1.292-.362c.384 0 .73.071 1.037.213s.56.341.757.596.318.554.366.895h-.839c-.063-.248-.206-.469-.426-.66s-.511-.292-.88-.292c-.327 0-.614.086-.86.256a1.66 1.66 0 0 0-.571.714c-.135.305-.203.664-.203 1.076 0 .421.066.788.199 1.101s.324.555.568.728.535.259.867.259c.217 0 .415-.038.593-.114s.328-.184.451-.326.21-.313.262-.512h.839a1.95 1.95 0 0 1-.352.87c-.185.256-.43.46-.735.611s-.656.224-1.058.224zm5.586 0c-.493 0-.925-.117-1.297-.352s-.658-.562-.866-.983-.309-.914-.309-1.478.103-1.064.309-1.488a2.39 2.39 0 0 1 .866-.987c.372-.234.804-.351 1.297-.351s.923.117 1.292.351.661.564.867.987.312.92.312 1.488-.104 1.056-.312 1.478-.495.749-.867.983-.8.352-1.292.352zm0-.753c.374 0 .681-.096.923-.288s.42-.444.536-.756a2.9 2.9 0 0 0 .174-1.016c0-.364-.058-.704-.174-1.019s-.295-.569-.536-.763-.549-.292-.923-.292-.682.097-.924.292-.42.448-.536.763-.174.655-.174 1.019a2.9 2.9 0 0 0 .174 1.016c.116.312.295.565.536.756s.55.288.924.288zm3.75.639v-5.454h.81v.852h.071a1.37 1.37 0 0 1 .551-.678c.253-.164.557-.245.912-.245.36 0 .66.081.899.245s.429.387.564.678h.057a1.58 1.58 0 0 1 .629-.671c.279-.168.614-.252 1.005-.252.487 0 .886.152 1.196.458s.466.775.466 1.417v3.65h-.839v-3.65c0-.403-.11-.691-.33-.863a1.22 1.22 0 0 0-.777-.26c-.384 0-.681.116-.892.348s-.316.521-.316.874v3.551h-.852v-3.736a.98.98 0 0 0-.302-.749c-.201-.192-.46-.288-.778-.288-.217 0-.421.058-.61.174s-.339.277-.455.483-.17.44-.17.707v3.409h-.839z"/></g><g clip-path="url(#H)" class="E"><use href="#O"/><use href="#P"/><path d="M217.249 134.077h-.833v3.333h.833v-3.333z"/></g><g clip-path="url(#I)" class="E"><path d="M220.166 162.577h-2.083v-.834c0-.221-.088-.432-.244-.589a.83.83 0 0 0-.589-.244h-2.5c-.221 0-.433.088-.59.244a.83.83 0 0 0-.244.589v.834h-2.083v.833h.833v6.25a1.25 1.25 0 0 0 .366.884c.235.234.553.366.884.366h4.167a1.25 1.25 0 0 0 1.25-1.25v-6.25h.833v-.833zm-5.416-.834h2.5v.834h-2.5v-.834zm3.75 7.917c0 .111-.044.217-.122.295a.42.42 0 0 1-.295.122h-4.167c-.11 0-.216-.044-.294-.122s-.122-.184-.122-.295v-6.25h5v6.25zm-2.917-4.583h-.833v3.333h.833v-3.333zm1.666 0h-.833v3.333h.833v-3.333z"/></g><g clip-path="url(#J)" class="E"><path d="M220.166 196.577h-2.083v-.834c0-.221-.088-.432-.244-.589a.83.83 0 0 0-.589-.244h-2.5c-.221 0-.433.088-.59.244a.83.83 0 0 0-.244.589v.834h-2.083v.833h.833v6.25a1.25 1.25 0 0 0 .366.884c.235.234.553.366.884.366h4.167a1.25 1.25 0 0 0 1.25-1.25v-6.25h.833v-.833zm-5.416-.834h2.5v.834h-2.5v-.834zm3.75 7.917c0 .111-.044.217-.122.295a.42.42 0 0 1-.295.122h-4.167c-.11 0-.216-.044-.294-.122s-.122-.184-.122-.295v-6.25h5v6.25zm-2.917-4.583h-.833v3.333h.833v-3.333zm1.666 0h-.833v3.333h.833v-3.333z"/></g><path d="M20 150.66h230m-230 33h230" stroke="#f2f2f2" class="C"/><path d="M306.691 194.7v-.111h1.565v.105c0 .453.154.795.463 1.026s.748.345 1.306.345c.563 0 .993-.111 1.289-.334a1.06 1.06 0 0 0 .446-.884c0-.356-.139-.633-.416-.832s-.864-.416-1.77-.651c-.941-.242-1.633-.554-2.074-.937s-.656-.92-.656-1.612c0-.714.279-1.296.838-1.746s1.322-.679 2.291-.679 1.734.238 2.308.714.867 1.084.867 1.823v.111h-1.546v-.105c0-.399-.137-.719-.411-.961-.269-.246-.675-.369-1.218-.369-.535 0-.932.099-1.19.298s-.381.463-.381.791a.88.88 0 0 0 .393.774c.262.176.826.375 1.693.597.934.247 1.639.573 2.116.979s.714.977.714 1.723c0 .761-.298 1.371-.896 1.828s-1.391.679-2.391.679-1.802-.224-2.42-.673-.92-1.086-.92-1.899zm7.518-.644v-.188c0-.953.281-1.726.844-2.32s1.293-.891 2.191-.891c.906 0 1.61.28 2.11.838s.755 1.313.755 2.274v.562h-4.904v-1.019h3.41v-.106c0-.387-.113-.723-.34-1.008s-.57-.427-1.031-.427c-.5 0-.881.193-1.142.58s-.393.875-.393 1.476v.27c0 .593.139 1.084.416 1.47s.699.58 1.266.58c.371 0 .689-.084.955-.251a2.41 2.41 0 0 0 .65-.592l1.014.726c-.199.332-.526.623-.979.873s-.994.369-1.623.369c-1.015 0-1.803-.296-2.361-.89s-.838-1.369-.838-2.326zm7.113 3.041v-6.264h1.401l.041.756h.035a2.06 2.06 0 0 1 .791-.639 2.49 2.49 0 0 1 1.084-.234c.652 0 1.178.185 1.576.556s.604.999.604 1.893v3.932h-1.5v-3.961c0-.453-.1-.774-.299-.961-.196-.192-.477-.287-.844-.287-.305 0-.58.086-.826.258a1.71 1.71 0 0 0-.569.673v4.278h-1.494zm6.721-1.916h1.482v.07c0 .32.118.559.352.715s.547.234.937.234.698-.072.909-.217.316-.345.316-.591-.096-.43-.287-.551-.637-.26-1.348-.404c-.73-.149-1.277-.375-1.64-.68s-.545-.717-.545-1.225c0-.558.23-1.01.691-1.353.465-.348 1.092-.522 1.881-.522s1.414.178 1.887.533.715.832.715 1.43v.059h-1.477v-.076c0-.27-.092-.483-.275-.639s-.469-.235-.856-.235-.66.067-.832.2-.258.302-.258.509.098.374.293.499.657.259 1.383.404 1.268.375 1.623.68.539.728.539 1.271c0 .598-.228 1.078-.685 1.441s-1.135.539-2.034.539-1.58-.181-2.056-.544-.715-.862-.715-1.495v-.052zm6.398-1.125v-.188c0-.961.289-1.736.868-2.326s1.347-.885 2.296-.885 1.713.295 2.291.885.874 1.365.874 2.326v.188c0 .965-.291 1.742-.874 2.332s-1.341.884-2.291.884-1.714-.294-2.296-.884-.868-1.367-.868-2.332zm1.536-.229v.276c0 .601.138 1.087.416 1.459s.681.556 1.212.556.936-.185 1.213-.556.416-.858.416-1.459v-.276c0-.601-.14-1.088-.422-1.459s-.679-.556-1.207-.556-.931.185-1.212.556-.416.858-.416 1.459zm6.076 3.27v-6.264h1.4l.047.738h.029a2.21 2.21 0 0 1 .575-.633c.238-.183.517-.275.837-.275a1.25 1.25 0 0 1 .258.029l.194.053v1.318a1.76 1.76 0 0 0-.241-.041l-.269-.011c-.317 0-.59.086-.821.258s-.4.386-.509.644v4.184h-1.5zm6.381 0l3.216-8.578h1.588l3.252 8.578h-1.652l-2.227-6.188-.123-.387-.093-.38h-.053l-.094.38c-.031.125-.072.254-.123.387l-2.232 6.188h-1.459zm1.611-2.022l.398-1.172h3.938l.398 1.178-4.734-.006z" fill="#1e1e1e"/><g filter="url(#B)" class="B"><rect x="306.205" y="114.042" width="304.231" height="132.901" rx="7"/></g><path stroke="#e3e3e3" d="M306.205 197.055h302.63" class="C"/><path d="M388.185 176.68v-9.953h3.24c1.066 0 1.889.266 2.468.799s.868 1.242.868 2.126-.29 1.6-.868 2.147-1.402.82-2.468.82h-1.928v4.061h-1.312zm1.312-5.127h1.928c.756 0 1.283-.185 1.579-.554s.444-.818.444-1.347-.148-.97-.444-1.326-.823-.533-1.579-.533h-1.928v3.76zm4.334 5.127l-2.434-4.594 1.299-.198 2.598 4.792h-1.463zm2.317-3.487v-.218c0-1.085.308-1.971.923-2.66s1.438-1.032 2.468-1.032 1.853.344 2.468 1.032.923 1.575.923 2.66v.218c0 1.085-.308 1.971-.923 2.66s-1.438 1.032-2.468 1.032-1.852-.344-2.468-1.032-.923-1.575-.923-2.66zm1.299-.218v.218c0 .743.176 1.372.527 1.887s.872.766 1.565.766 1.215-.256 1.565-.766.527-1.144.527-1.887v-.218c0-.743-.176-1.37-.527-1.88s-.872-.773-1.565-.773-1.214.258-1.565.773-.527 1.137-.527 1.88zm7.075 3.705v-10.5h1.272v4.197c.255-.31.579-.558.971-.745s.82-.28 1.285-.28c.67 0 1.219.207 1.647.622s.65 1.098.65 2.064v4.642h-1.272v-4.656c0-.574-.13-.984-.389-1.23-.256-.251-.62-.376-1.094-.376-.406 0-.764.109-1.073.328a2.25 2.25 0 0 0-.725.848v5.086h-1.272zm7.841 0v-7.192h1.272v7.192h-1.272zm-.157-9.366a.76.76 0 0 1 .205-.54c.137-.145.333-.218.588-.218s.451.073.588.218a.76.76 0 0 1 .205.54c0 .215-.068.395-.205.54s-.333.219-.588.219-.451-.073-.588-.219-.205-.325-.205-.54zm2.502 3.145v-.971h4.102v.971h-4.102zm1.285 4.443v-4.826-.205-2.16h1.272v7.191c0 .319.063.547.191.684s.328.205.602.205c.127 0 .253-.014.376-.041s.248-.064.376-.109v1.039a2.33 2.33 0 0 1-.465.143c-.192.041-.401.062-.629.062-.524 0-.944-.16-1.258-.479s-.465-.82-.465-1.504zm7.362-.957c0-1.276.335-2.338 1.005-3.185s1.445-1.272 2.311-1.272a2.7 2.7 0 0 1 1.128.233c.342.15.626.314.854.492h.616l-.821 4.074c-.109.547-.068.928.123 1.142s.47.321.834.321c.638 0 1.158-.324 1.559-.971s.601-1.494.601-2.543c0-1.23-.428-2.312-1.285-3.247s-2.06-1.401-3.609-1.401-2.848.581-3.897 1.743-1.572 2.564-1.572 4.204.456 2.905 1.367 3.794 2.051 1.333 3.418 1.333c.638 0 1.178-.061 1.62-.184s.814-.267 1.115-.431v1.066c-.319.201-.695.353-1.128.458s-.969.158-1.607.158a6.06 6.06 0 0 1-4.258-1.662c-1.199-1.107-1.798-2.618-1.798-4.532s.667-3.561 2.003-4.942 2.914-2.072 4.737-2.072 3.299.554 4.43 1.662 1.695 2.458 1.695 4.053c0 1.322-.315 2.393-.943 3.213s-1.4 1.231-2.311 1.231c-.529 0-.991-.114-1.388-.342s-.686-.524-.868-.889a3.08 3.08 0 0 1-.82.889 1.73 1.73 0 0 1-1.026.342 1.81 1.81 0 0 1-1.524-.752c-.374-.502-.561-1.162-.561-1.983zm1.299 0c0 .547.096.962.287 1.244a.96.96 0 0 0 .841.424c.319 0 .606-.118.862-.355s.451-.652.574-1.244l.683-3.282a1.63 1.63 0 0 0-.478-.211 2.02 2.02 0 0 0-.547-.076c-.643 0-1.174.333-1.593.998s-.629 1.5-.629 2.502zm9.933 2.735v-7.192h1.148l.055.923h.041c.255-.323.563-.581.923-.772s.768-.287 1.21-.287c.483 0 .9.095 1.251.287s.617.501.8.929h.041c.3-.428.633-.738.998-.929s.784-.287 1.258-.287c.747 0 1.33.207 1.75.622s.628 1.098.628 2.064v4.642h-1.271v-4.656c0-.574-.123-.984-.369-1.23-.246-.251-.595-.376-1.046-.376-.392 0-.736.109-1.032.328s-.524.501-.698.848v5.086h-1.271v-4.656c0-.574-.123-.984-.369-1.23-.246-.251-.595-.376-1.046-.376-.392 0-.736.109-1.032.328s-.524.501-.698.848v5.086h-1.271zm11.662-2.119c0-.73.289-1.297.868-1.703s1.315-.608 2.208-.608h1.627v-.492c0-.433-.112-.784-.335-1.053s-.608-.41-1.155-.41-.939.114-1.176.342-.348.483-.348.779v.034h-1.265v-.034c0-.57.253-1.066.759-1.49s1.198-.643 2.064-.643 1.536.208 2.01.622.718 1.033.718 1.853v3.281c0 .296.022.577.068.841a3.37 3.37 0 0 0 .191.69v.11h-1.23a2.24 2.24 0 0 1-.178-.445 2.89 2.89 0 0 1-.096-.547c-.168.297-.442.559-.82.787s-.857.341-1.449.341c-.684 0-1.265-.193-1.743-.581s-.718-.945-.718-1.674zm1.272-.069c0 .41.118.732.355.964s.606.349 1.107.349a2.04 2.04 0 0 0 1.361-.52c.405-.346.608-.713.608-1.1v-1.033h-1.49c-.638 0-1.121.121-1.449.363a1.15 1.15 0 0 0-.492.977zm6.254-1.299v-.218c0-1.085.294-1.971.882-2.66s1.406-1.032 2.441-1.032c.957 0 1.684.26 2.18.779s.745 1.092.745 1.73v.034h-1.23v-.034c0-.387-.134-.729-.403-1.025s-.7-.445-1.292-.445c-.693 0-1.203.258-1.532.773s-.492 1.137-.492 1.88v.218c0 .743.164 1.372.492 1.887s.839.766 1.532.766c.592 0 1.023-.148 1.292-.445a1.48 1.48 0 0 0 .403-1.025v-.034h1.23v.034c0 .638-.248 1.217-.745 1.736s-1.223.773-2.18.773c-1.035 0-1.848-.344-2.441-1.032s-.882-1.575-.882-2.66zm7.732 3.487v-7.192h1.148l.055.923h.041a2.79 2.79 0 0 1 .95-.772c.378-.192.795-.287 1.251-.287.725 0 1.301.207 1.73.622s.649 1.098.649 2.064v4.642h-1.271v-4.656c0-.574-.13-.984-.39-1.23-.255-.251-.62-.376-1.094-.376-.405 0-.763.109-1.073.328a2.25 2.25 0 0 0-.725.848v5.086h-1.271zm7.779 0v-7.192h1.149l.054.923h.041c.255-.323.563-.581.923-.772s.768-.287 1.21-.287c.483 0 .9.095 1.251.287s.618.501.8.929h.041c.301-.428.633-.738.998-.929s.784-.287 1.258-.287c.747 0 1.33.207 1.75.622s.629 1.098.629 2.064v4.642h-1.272v-4.656c0-.574-.123-.984-.369-1.23-.246-.251-.595-.376-1.046-.376-.392 0-.736.109-1.032.328a2.35 2.35 0 0 0-.697.848v5.086h-1.272v-4.656c0-.574-.123-.984-.369-1.23-.246-.251-.595-.376-1.046-.376-.392 0-.736.109-1.032.328a2.35 2.35 0 0 0-.697.848v5.086h-1.272zm11.662-2.119a1.96 1.96 0 0 1 .868-1.703c.579-.405 1.315-.608 2.208-.608h1.627v-.492c0-.433-.111-.784-.335-1.053s-.608-.41-1.155-.41-.939.114-1.176.342-.348.483-.348.779v.034h-1.265v-.034c0-.57.253-1.066.759-1.49s1.198-.643 2.064-.643 1.536.208 2.01.622.718 1.033.718 1.853v3.281a5.01 5.01 0 0 0 .068.841 3.37 3.37 0 0 0 .192.69v.11h-1.231a2.24 2.24 0 0 1-.178-.445 2.81 2.81 0 0 1-.095-.547c-.169.297-.442.559-.821.787-.373.227-.856.341-1.449.341-.683 0-1.264-.193-1.743-.581s-.718-.945-.718-1.674zm1.272-.069c0 .41.118.732.355.964s.606.349 1.108.349a2.04 2.04 0 0 0 1.36-.52c.406-.346.608-.713.608-1.1v-1.033h-1.49c-.638 0-1.121.121-1.449.363a1.15 1.15 0 0 0-.492.977zm6.685 2.188v-7.192h1.149l.054.923h.041a2.79 2.79 0 0 1 .951-.772c.378-.192.795-.287 1.251-.287.724 0 1.301.207 1.729.622s.649 1.098.649 2.064v4.642h-1.271v-4.656c0-.574-.13-.984-.39-1.23-.255-.251-.619-.376-1.093-.376-.406 0-.764.109-1.074.328s-.551.501-.724.848v5.086h-1.272zm7.862-.704a.86.86 0 0 1 .225-.602c.155-.169.376-.253.663-.253s.506.084.657.253a.87.87 0 0 1 .232.602.87.87 0 0 1-.232.608c-.151.164-.37.246-.657.246s-.508-.082-.663-.246c-.15-.169-.225-.371-.225-.608zm3.315-2.783v-.218c0-1.085.294-1.971.882-2.66s1.406-1.032 2.44-1.032c.957 0 1.684.26 2.181.779s.745 1.092.745 1.73v.034h-1.23v-.034a1.48 1.48 0 0 0-.404-1.025c-.269-.297-.699-.445-1.292-.445-.692 0-1.203.258-1.531.773s-.492 1.137-.492 1.88v.218c0 .743.164 1.372.492 1.887s.839.766 1.531.766c.593 0 1.023-.148 1.292-.445a1.48 1.48 0 0 0 .404-1.025v-.034h1.23v.034c0 .638-.248 1.217-.745 1.736s-1.224.773-2.181.773c-1.034 0-1.848-.344-2.44-1.032s-.882-1.575-.882-2.66zm7.301 0v-.218c0-1.085.307-1.971.923-2.66s1.437-1.032 2.467-1.032 1.853.344 2.468 1.032.923 1.575.923 2.66v.218c0 1.085-.308 1.971-.923 2.66s-1.438 1.032-2.468 1.032-1.852-.344-2.467-1.032-.923-1.575-.923-2.66zm1.299-.218v.218c0 .743.175 1.372.526 1.887s.873.766 1.565.766 1.215-.256 1.566-.766.526-1.144.526-1.887v-.218c0-.743-.175-1.37-.526-1.88s-.873-.773-1.566-.773-1.214.258-1.565.773-.526 1.137-.526 1.88zm7.075 3.705v-7.192h1.148l.055.923h.041c.255-.323.563-.581.923-.772s.768-.287 1.21-.287c.483 0 .9.095 1.251.287s.617.501.8.929h.041c.3-.428.633-.738.998-.929s.783-.287 1.257-.287c.748 0 1.331.207 1.75.622s.629 1.098.629 2.064v4.642h-1.271v-4.656c0-.574-.123-.984-.369-1.23-.246-.251-.595-.376-1.046-.376-.392 0-.736.109-1.032.328s-.524.501-.698.848v5.086h-1.271v-4.656c0-.574-.123-.984-.369-1.23-.246-.251-.595-.376-1.046-.376-.392 0-.736.109-1.032.328s-.525.501-.698.848v5.086h-1.271zm-86.619-33.228v-11.375h7.265v1.422h-5.492v3.391h4.774v1.406h-4.774v3.734h5.57v1.422h-7.343zm8.961 0v-8.18h1.601l.055 1.024h.047a2.91 2.91 0 0 1 1.031-.867 2.94 2.94 0 0 1 1.352-.313c.557 0 1.039.115 1.445.344s.711.575.914 1.055h.039c.318-.48.695-.831 1.133-1.055s.927-.344 1.469-.344c.833 0 1.492.242 1.976.727.49.479.735 1.286.735 2.422v5.187h-1.735v-5.242c0-.599-.127-1.031-.383-1.297s-.619-.398-1.093-.398c-.412 0-.774.114-1.086.343a2.43 2.43 0 0 0-.735.914v5.68h-1.734v-5.234c0-.604-.128-1.039-.383-1.305s-.622-.398-1.101-.398c-.412 0-.771.114-1.079.343a2.41 2.41 0 0 0-.734.914v5.68h-1.734zm13.468-2.406c0-.854.336-1.511 1.008-1.969s1.526-.695 2.563-.695h1.765v-.539c0-.448-.117-.813-.351-1.094s-.633-.422-1.211-.422-.982.117-1.227.352-.367.51-.367.828v.07h-1.711v-.078c0-.677.305-1.255.914-1.734.615-.48 1.432-.719 2.453-.719s1.815.232 2.383.695.852 1.167.852 2.11v3.742c0 .333.026.651.078.953s.133.557.226.781v.125h-1.687a2.47 2.47 0 0 1-.188-.492 4.44 4.44 0 0 1-.109-.609c-.177.328-.484.619-.922.875s-.992.382-1.664.382c-.786 0-1.45-.216-1.992-.648-.542-.438-.813-1.076-.813-1.914zm1.735-.117c0 .432.125.773.375 1.023s.638.367 1.164.367c.547 0 1.026-.182 1.437-.547.417-.364.625-.765.625-1.203v-1.039h-1.547c-.682 0-1.195.125-1.539.375a1.19 1.19 0 0 0-.515 1.024zm7.57 2.523v-8.18h1.734v8.18h-1.734zm-.18-10.609c0-.276.089-.508.266-.696s.443-.289.781-.289.599.097.782.289a.96.96 0 0 1 .273.696c0 .281-.091.518-.273.711-.183.187-.443.281-.782.281s-.599-.094-.781-.281c-.177-.193-.266-.43-.266-.711zm4.204 10.609v-11.961h1.734v11.961h-1.734zm8.039 0v-11.375h1.789v11.375h-1.789zm3.711-3.961v-.25c0-1.203.315-2.19.945-2.961s1.474-1.164 2.515-1.164c.553 0 1.024.099 1.415.297s.708.458.937.781v-4.703h1.727v11.961h-1.602l-.055-1.031h-.047c-.197.333-.505.614-.921.844s-.901.343-1.454.343c-1.062 0-1.906-.385-2.531-1.156s-.929-1.763-.929-2.961zm1.765.031c0 .782.169 1.43.508 1.946s.865.773 1.578.773c.479 0 .885-.13 1.219-.39.338-.266.583-.568.734-.907v-3.164c-.146-.343-.385-.646-.719-.906s-.744-.391-1.234-.391c-.708 0-1.234.258-1.578.774s-.508 1.164-.508 1.945v.32z" fill="#0c0c0c"/><path d="M527.59 221.655v-.629c0-1.531.392-2.725 1.176-3.582s1.797-1.285 3.028-1.285 2.238.429 3.021 1.285c.789.857 1.183 2.051 1.183 3.582v.629c0 1.532-.394 2.726-1.183 3.582-.783.857-1.791 1.285-3.021 1.285s-2.24-.428-3.028-1.285-1.176-2.05-1.176-3.582zm1.326 0c0 1.167.262 2.083.786 2.748s1.226.998 2.092.998 1.561-.332 2.085-.998.793-1.581.793-2.748v-.629c0-1.166-.264-2.082-.793-2.748a2.52 2.52 0 0 0-2.085-.998 2.54 2.54 0 0 0-2.092.998c-.524.666-.786 1.582-.786 2.748v.629zm8.88 4.662v-10.5h1.271v6.618l3.077-3.309h1.442l-4.519 4.799v2.392h-1.271zm4.635 0l-2.803-3.718.793-.875 3.5 4.593h-1.49zm1.996-2.119c0-.729.289-1.296.868-1.702s1.315-.608 2.208-.608h1.627v-.492c0-.433-.112-.784-.335-1.053s-.608-.41-1.155-.41-.939.114-1.176.341-.349.483-.349.78v.034h-1.264v-.034c0-.57.253-1.067.758-1.491.511-.428 1.199-.642 2.065-.642s1.536.207 2.01.622.717 1.032.717 1.853v3.281a4.91 4.91 0 0 0 .069.841c.045.259.109.489.191.69v.109h-1.23c-.064-.114-.123-.262-.178-.444s-.082-.365-.096-.547c-.168.296-.442.558-.82.786s-.857.342-1.449.342c-.684 0-1.265-.194-1.743-.581s-.718-.946-.718-1.675zm1.271-.068c0 .41.119.731.356.964s.606.348 1.107.348.955-.173 1.36-.519.609-.713.609-1.101v-1.032h-1.49c-.638 0-1.121.121-1.45.362a1.15 1.15 0 0 0-.492.978zm5.906 5.031v-1.08a2.82 2.82 0 0 0 .397.089 2.72 2.72 0 0 0 .424.034c.319 0 .597-.121.834-.362s.487-.754.752-1.552v-.007l-2.68-7.157h1.231l1.702 4.73.171.513.129.444h.041l.137-.444.171-.513 1.586-4.73h1.203l-2.919 8.148c-.228.638-.531 1.135-.909 1.491s-.834.533-1.381.533a3.17 3.17 0 0 1-.485-.034c-.141-.023-.276-.057-.404-.103z" fill="#3c3b3b"/><path d="M363.985 221.655v-.629c0-1.531.392-2.725 1.176-3.582s1.775-1.285 2.96-1.285 2.112.326 2.782.978 1.012 1.428 1.012 2.344v.069h-1.312v-.069c0-.633-.206-1.157-.616-1.572s-1.032-.629-1.866-.629a2.54 2.54 0 0 0-2.017.923c-.528.615-.792 1.556-.792 2.823v.629c0 1.167.262 2.083.786 2.748s1.203.998 2.023.998c.784 0 1.376-.212 1.777-.635s.634-.946.698-1.566l.007-.068h1.312l-.007.068a3.85 3.85 0 0 1-1.073 2.345c-.624.652-1.529.977-2.714.977s-2.171-.428-2.96-1.285-1.176-2.05-1.176-3.582zm9.126 2.543a1.96 1.96 0 0 1 .868-1.702c.579-.406 1.315-.608 2.209-.608h1.626v-.492c0-.433-.111-.784-.335-1.053s-.608-.41-1.155-.41-.939.114-1.176.341a1.05 1.05 0 0 0-.348.78v.034h-1.265v-.034c0-.57.253-1.067.759-1.491s1.199-.642 2.064-.642 1.536.207 2.01.622.718 1.032.718 1.853v3.281c0 .296.023.576.068.841.046.259.11.489.192.69v.109h-1.231c-.064-.114-.123-.262-.177-.444s-.083-.365-.096-.547c-.169.296-.442.558-.821.786-.373.228-.856.342-1.449.342-.683 0-1.264-.194-1.743-.581s-.718-.946-.718-1.675zm1.272-.068c0 .41.118.731.355.964s.606.348 1.108.348.954-.173 1.36-.519.608-.713.608-1.101v-1.032h-1.49c-.638 0-1.121.121-1.449.362a1.15 1.15 0 0 0-.492.978zm6.685 2.187v-7.191h1.149l.054.923h.041c.26-.328.577-.586.951-.773s.795-.287 1.251-.287c.724 0 1.301.208 1.729.622s.65 1.099.65 2.065v4.641h-1.272v-4.655c0-.574-.13-.984-.39-1.23s-.619-.376-1.093-.376c-.406 0-.764.109-1.074.328a2.26 2.26 0 0 0-.724.847v5.086h-1.272zm7.349-3.486v-.219c0-1.084.294-1.971.882-2.659s1.406-1.032 2.44-1.032c.957 0 1.684.26 2.181.779s.745 1.092.745 1.73v.034h-1.23v-.034a1.48 1.48 0 0 0-.404-1.026c-.269-.296-.699-.444-1.292-.444-.692 0-1.203.257-1.531.772s-.492 1.137-.492 1.88v.219c0 .743.164 1.372.492 1.887s.839.765 1.531.765c.593 0 1.023-.148 1.292-.444a1.48 1.48 0 0 0 .404-1.025v-.035h1.23v.035c0 .638-.248 1.216-.745 1.736-.497.515-1.224.772-2.181.772-1.034 0-1.848-.344-2.44-1.032s-.882-1.574-.882-2.659zm7.301 0v-.219c0-1.084.296-1.971.888-2.659s1.386-1.032 2.366-1.032 1.734.321 2.262.964.793 1.511.793 2.604v.52h-5.53v-1.012h4.252v-.164c0-.52-.148-.962-.444-1.326s-.723-.547-1.279-.547c-.674 0-1.178.257-1.51.772s-.499 1.137-.499 1.88v.219c0 .743.175 1.372.526 1.887s.895.765 1.634.765c.455 0 .847-.1 1.176-.3s.594-.438.799-.711l.821.649c-.228.342-.581.661-1.06.957s-1.053.444-1.736.444c-1.117 0-1.974-.344-2.571-1.032s-.888-1.574-.888-2.659zm7.923 3.486v-10.5h1.271v10.5h-1.271z" fill="#f85550" fill-opacity=".81"/><path stroke="#e3e3e3" d="M458.571 197.305v49.637" class="C"/><defs><filter id="A" x="10" y="12" width="228" height="64" filterUnits="userSpaceOnUse" class="F"><feFlood flood-opacity="0" result="A"/><feColorMatrix in="SourceAlpha" values="0 0 0 0 0 0 0 0 0 0 0 0 0 0 0 0 0 0 127 0" result="B"/><feMorphology radius="1" operator="dilate" in="SourceAlpha"/><feOffset dy="1"/><feGaussianBlur stdDeviation="2.5"/><feComposite in2="B" operator="out"/><feColorMatrix values="0 0 0 0 0 0 0 0 0 0 0 0 0 0 0 0 0 0 0.1 0"/><feBlend in2="A"/><feBlend in="SourceGraphic"/></filter><filter id="B" x="296.205" y="108.042" width="324.231" height="152.901" filterUnits="userSpaceOnUse" class="F"><feFlood flood-opacity="0" result="A"/><feColorMatrix in="SourceAlpha" values="0 0 0 0 0 0 0 0 0 0 0 0 0 0 0 0 0 0 127 0" result="B"/><feOffset dy="4"/><feGaussianBlur stdDeviation="5"/><feComposite in2="B" operator="out"/><feColorMatrix values="0 0 0 0 0 0 0 0 0 0 0 0 0 0 0 0 0 0 0.25 0"/><feBlend in2="A"/><feBlend in="SourceGraphic"/></filter><linearGradient id="C" x1="128" y1="0" x2="128" y2="533" gradientUnits="userSpaceOnUse"><stop stop-color="#2f67ff"/><stop offset="1" stop-color="#ff5f9b"/></linearGradient><linearGradient id="D" x1="245.564" y1="179.692" x2="306.205" y2="179.692" gradientUnits="userSpaceOnUse"><stop stop-color="#2f67ff"/><stop offset="1" stop-color="#c262b8"/></linearGradient><clipPath id="E"><path transform="translate(27 126.91)" d="M0 0h12v12H0z" class="B"/></clipPath><clipPath id="F"><path transform="translate(27 157.91)" d="M0 0h12v12H0z" class="B"/></clipPath><clipPath id="G"><path transform="translate(27 191.91)" d="M0 0h12v12H0z" class="B"/></clipPath><clipPath id="H"><path transform="translate(211 129.91)" d="M0 0h10v10H0z" class="B"/></clipPath><clipPath id="I"><path transform="translate(211 160.91)" d="M0 0h10v10H0z" class="B"/></clipPath><clipPath id="J"><path transform="translate(211 194.91)" d="M0 0h10v10H0z" class="B"/></clipPath><path id="K" d="M36.372 57.525v.823"/><path id="L" d="M38.5 132.41h-1v-1a.5.5 0 0 0-.5-.5.5.5 0 0 0-.5.5v1h-1a.5.5 0 0 0-.5.5.5.5 0 0 0 .146.354c.094.093.221.146.354.146h1v1a.5.5 0 0 0 .146.354c.094.093.221.146.354.146s.26-.053.354-.146a.5.5 0 0 0 .146-.354v-1h1c.133 0 .26-.053.354-.146a.5.5 0 0 0 0-.707.5.5 0 0 0-.354-.147z"/><path id="M" d="M31.5 132.91c.593 0 1.173-.176 1.667-.505s.878-.799 1.105-1.347a3 3 0 0 0-.65-3.269 3 3 0 0 0-1.536-.821 2.99 2.99 0 0 0-1.733.171 3 3 0 0 0-1.346 1.104c-.33.494-.506 1.074-.506 1.667.001.796.317 1.558.88 2.121s1.325.878 2.12.879zm0-5a2 2 0 0 1 1.848 1.235 2 2 0 0 1 .114 1.155c-.077.388-.268.745-.547 1.024a2 2 0 0 1-1.024.548c-.388.077-.79.037-1.156-.114s-.678-.408-.898-.737a2 2 0 0 1 .249-2.525 2 2 0 0 1 1.414-.586z"/><path id="N" d="M31.5 133.91a4.5 4.5 0 0 0-3.18 1.32c-.844.843-1.318 1.987-1.32 3.18a.5.5 0 0 0 .146.354c.094.093.221.146.354.146s.26-.053.354-.146a.5.5 0 0 0 .146-.354 3.5 3.5 0 0 1 3.5-3.5 3.5 3.5 0 0 1 3.5 3.5.5.5 0 0 0 .146.354c.094.093.221.146.354.146s.26-.053.354-.146a.5.5 0 0 0 .146-.354c-.001-1.193-.476-2.337-1.319-3.18a4.5 4.5 0 0 0-3.181-1.32z"/><path id="O" d="M220.166 131.577h-2.083v-.834c0-.221-.088-.432-.244-.589s-.368-.244-.589-.244h-2.5c-.221 0-.433.088-.59.244s-.244.368-.244.589v.834h-2.083v.833h.833v6.25a1.25 1.25 0 0 0 .366.884c.235.234.553.366.884.366h4.167a1.25 1.25 0 0 0 1.25-1.25v-6.25h.833v-.833zm-5.416-.834h2.5v.834h-2.5v-.834zm3.75 7.917c0 .111-.044.217-.122.295a.42.42 0 0 1-.295.122h-4.167c-.11 0-.216-.044-.294-.122s-.122-.184-.122-.295v-6.25h5v6.25z"/><path id="P" d="M215.583 134.077h-.833v3.333h.833v-3.333z"/></defs></svg>