<svg width="264" height="146" viewBox="0 0 264 146" fill="none" xmlns="http://www.w3.org/2000/svg">
<path d="M73.8086 21.7827V5.43115H79.772C81.5913 5.43115 82.9839 5.89535 83.9497 6.82373C84.923 7.74463 85.4097 9.01742 85.4097 10.6421C85.4097 12.2593 84.9268 13.5358 83.9609 14.4717C82.9951 15.4076 81.5951 15.8755 79.7607 15.8755H76.8296V21.7827H73.8086ZM76.8296 13.6069H79.4688C80.5618 13.6069 81.318 13.3337 81.7373 12.7871C82.1641 12.2406 82.3774 11.5293 82.3774 10.6533C82.3774 9.78483 82.1641 9.0848 81.7373 8.55322C81.318 8.01416 80.5618 7.74463 79.4688 7.74463H76.8296V13.6069ZM86.6113 18.4136C86.6113 17.1857 87.0905 16.2461 88.0488 15.5947C89.0072 14.9359 90.2313 14.6064 91.7212 14.6064H94.1694V13.8765C94.1694 13.3 94.0197 12.8358 93.7202 12.4839C93.4207 12.132 92.9079 11.9561 92.1816 11.9561C91.4479 11.9561 90.9201 12.1021 90.5981 12.394C90.2762 12.686 90.1152 13.0492 90.1152 13.4834V13.6406L87.2627 13.6294V13.4609C87.2627 12.4577 87.7231 11.6229 88.644 10.9565C89.5649 10.2827 90.7853 9.9458 92.3052 9.9458C93.825 9.9458 95.0042 10.2677 95.8428 10.9116C96.6813 11.5555 97.1006 12.555 97.1006 13.9102V19.1548C97.1006 19.6265 97.138 20.0757 97.2129 20.5024C97.2952 20.9292 97.4113 21.2961 97.561 21.603V21.7827H94.686C94.5887 21.603 94.5026 21.3747 94.4277 21.0977C94.3529 20.8132 94.3042 20.5286 94.2817 20.2441C94.0347 20.7008 93.5929 21.1051 92.9565 21.457C92.3276 21.8089 91.534 21.9849 90.5757 21.9849C89.4377 21.9849 88.4906 21.6854 87.7344 21.0864C86.9857 20.48 86.6113 19.589 86.6113 18.4136ZM89.5425 18.1777C89.5425 18.7393 89.7035 19.181 90.0254 19.5029C90.3473 19.8249 90.849 19.9858 91.5303 19.9858C92.2415 19.9858 92.8592 19.75 93.3833 19.2783C93.9074 18.8066 94.1694 18.2676 94.1694 17.6611V16.4033H92.2041C91.3132 16.4033 90.6468 16.5568 90.2051 16.8638C89.7633 17.1707 89.5425 17.6087 89.5425 18.1777ZM99.9868 21.7827V10.2603H102.783L102.851 11.6416H102.907C103.169 11.1849 103.524 10.7918 103.974 10.4624C104.423 10.1255 104.939 9.95703 105.523 9.95703C105.688 9.95703 105.857 9.97575 106.029 10.0132C106.201 10.0506 106.321 10.0843 106.388 10.1143V12.6074C106.253 12.5775 106.104 12.555 105.939 12.54C105.782 12.5176 105.606 12.5063 105.411 12.5063C104.857 12.5063 104.359 12.6673 103.917 12.9893C103.483 13.3112 103.158 13.7192 102.94 14.2134V21.7827H99.9868ZM107.253 12.4277V10.2603H114.328V12.4277H107.253ZM109.095 18.5034V11.2822L109.106 11.0015V7.26172H112.003V18.335C112.003 18.9189 112.104 19.3158 112.307 19.5254C112.509 19.735 112.812 19.8398 113.216 19.8398C113.396 19.8398 113.576 19.8211 113.755 19.7837C113.943 19.7463 114.122 19.6938 114.294 19.6265V21.7715C114.107 21.8538 113.849 21.9287 113.52 21.9961C113.198 22.0635 112.834 22.0972 112.43 22.0972C111.412 22.0972 110.6 21.8127 109.993 21.2437C109.394 20.6672 109.095 19.7537 109.095 18.5034ZM116.271 21.7827V10.2603H119.213V21.7827H116.271ZM116.001 6.8125C116.001 6.35579 116.151 5.97396 116.451 5.66699C116.75 5.36003 117.181 5.20654 117.742 5.20654C118.296 5.20654 118.723 5.36003 119.022 5.66699C119.322 5.97396 119.472 6.35579 119.472 6.8125C119.472 7.26172 119.322 7.64355 119.022 7.95801C118.723 8.27246 118.292 8.42969 117.731 8.42969C117.177 8.42969 116.75 8.27246 116.451 7.95801C116.151 7.64355 116.001 7.26172 116.001 6.8125ZM121.538 18.4136C121.538 17.1857 122.017 16.2461 122.976 15.5947C123.934 14.9359 125.158 14.6064 126.648 14.6064H129.096V13.8765C129.096 13.3 128.946 12.8358 128.647 12.4839C128.347 12.132 127.835 11.9561 127.108 11.9561C126.375 11.9561 125.847 12.1021 125.525 12.394C125.203 12.686 125.042 13.0492 125.042 13.4834V13.6406L122.189 13.6294V13.4609C122.189 12.4577 122.65 11.6229 123.571 10.9565C124.492 10.2827 125.712 9.9458 127.232 9.9458C128.752 9.9458 129.931 10.2677 130.77 10.9116C131.608 11.5555 132.027 12.555 132.027 13.9102V19.1548C132.027 19.6265 132.065 20.0757 132.14 20.5024C132.222 20.9292 132.338 21.2961 132.488 21.603V21.7827H129.613C129.515 21.603 129.429 21.3747 129.354 21.0977C129.28 20.8132 129.231 20.5286 129.208 20.2441C128.961 20.7008 128.52 21.1051 127.883 21.457C127.254 21.8089 126.461 21.9849 125.502 21.9849C124.364 21.9849 123.417 21.6854 122.661 21.0864C121.912 20.48 121.538 19.589 121.538 18.4136ZM124.469 18.1777C124.469 18.7393 124.63 19.181 124.952 19.5029C125.274 19.8249 125.776 19.9858 126.457 19.9858C127.168 19.9858 127.786 19.75 128.31 19.2783C128.834 18.8066 129.096 18.2676 129.096 17.6611V16.4033H127.131C126.24 16.4033 125.574 16.5568 125.132 16.8638C124.69 17.1707 124.469 17.6087 124.469 18.1777ZM134.958 21.7827V4.74609H137.901V21.7827H134.958ZM146.515 21.7827V5.43115H151.748C153.889 5.43115 155.653 6.11247 157.038 7.4751C158.43 8.83024 159.126 10.7057 159.126 13.1016V14.1011C159.126 16.4969 158.43 18.3761 157.038 19.7388C155.653 21.1014 153.889 21.7827 151.748 21.7827H146.515ZM149.513 19.5029H151.658C152.998 19.5029 154.065 19.05 154.859 18.144C155.653 17.2381 156.049 15.9279 156.049 14.2134V13.0005C156.049 11.286 155.649 9.97949 154.848 9.08105C154.047 8.18262 152.983 7.7334 151.658 7.7334H149.513V19.5029ZM161.002 16.1899V15.8306C161.002 14.0636 161.522 12.6411 162.563 11.563C163.604 10.4774 164.959 9.93457 166.628 9.93457C168.291 9.93457 169.586 10.4437 170.514 11.4619C171.443 12.4801 171.907 13.8765 171.907 15.6509V16.6841H162.877V14.8086H169.009V14.584C169.009 13.8952 168.807 13.3075 168.403 12.8208C167.999 12.3341 167.411 12.0908 166.64 12.0908C165.749 12.0908 165.075 12.424 164.618 13.0903C164.161 13.7567 163.933 14.6214 163.933 15.6846V16.291C163.933 17.3691 164.176 18.2414 164.663 18.9077C165.15 19.5741 165.88 19.9072 166.853 19.9072C167.497 19.9072 168.051 19.7575 168.515 19.458C168.987 19.1585 169.365 18.8029 169.649 18.3911L171.75 19.6489C171.383 20.3377 170.78 20.9217 169.941 21.4009C169.11 21.8726 168.092 22.1084 166.887 22.1084C165.03 22.1084 163.585 21.5693 162.552 20.4912C161.519 19.4056 161.002 17.9718 161.002 16.1899ZM172.614 12.4277V10.2603H179.689V12.4277H172.614ZM174.456 18.5034V11.2822L174.467 11.0015V7.26172H177.365V18.335C177.365 18.9189 177.466 19.3158 177.668 19.5254C177.87 19.735 178.173 19.8398 178.578 19.8398C178.757 19.8398 178.937 19.8211 179.117 19.7837C179.304 19.7463 179.484 19.6938 179.656 19.6265V21.7715C179.469 21.8538 179.21 21.9287 178.881 21.9961C178.559 22.0635 178.196 22.0972 177.792 22.0972C176.773 22.0972 175.961 21.8127 175.354 21.2437C174.756 20.6672 174.456 19.7537 174.456 18.5034ZM180.925 16.1899V15.8306C180.925 14.0636 181.445 12.6411 182.486 11.563C183.527 10.4774 184.882 9.93457 186.551 9.93457C188.213 9.93457 189.509 10.4437 190.437 11.4619C191.365 12.4801 191.83 13.8765 191.83 15.6509V16.6841H182.8V14.8086H188.932V14.584C188.932 13.8952 188.73 13.3075 188.326 12.8208C187.921 12.3341 187.334 12.0908 186.562 12.0908C185.672 12.0908 184.998 12.424 184.541 13.0903C184.084 13.7567 183.856 14.6214 183.856 15.6846V16.291C183.856 17.3691 184.099 18.2414 184.586 18.9077C185.073 19.5741 185.803 19.9072 186.776 19.9072C187.42 19.9072 187.974 19.7575 188.438 19.458C188.91 19.1585 189.288 18.8029 189.572 18.3911L191.672 19.6489C191.306 20.3377 190.703 20.9217 189.864 21.4009C189.033 21.8726 188.015 22.1084 186.81 22.1084C184.953 22.1084 183.508 21.5693 182.475 20.4912C181.441 19.4056 180.925 17.9718 180.925 16.1899ZM193.301 16.1899V15.8306C193.301 14.0337 193.817 12.6037 194.851 11.5405C195.884 10.4699 197.273 9.93457 199.017 9.93457C200.672 9.93457 201.933 10.3464 202.802 11.1699C203.67 11.9935 204.123 12.9893 204.161 14.1572L204.172 14.3257H201.319V14.2021C201.319 13.6107 201.128 13.1203 200.747 12.731C200.372 12.3416 199.796 12.147 199.017 12.147C198.111 12.147 197.43 12.4727 196.973 13.124C196.524 13.7754 196.299 14.6401 196.299 15.7183V16.3135C196.299 17.3766 196.52 18.2414 196.962 18.9077C197.411 19.5666 198.096 19.896 199.017 19.896C199.833 19.896 200.421 19.6938 200.78 19.2896C201.14 18.8853 201.319 18.3986 201.319 17.8296V17.7173H204.172V17.8521C204.164 19.0125 203.715 20.012 202.824 20.8506C201.941 21.6816 200.672 22.0972 199.017 22.0972C197.28 22.0972 195.891 21.5618 194.851 20.4912C193.817 19.4206 193.301 17.9868 193.301 16.1899ZM204.778 12.4277V10.2603H211.854V12.4277H204.778ZM206.62 18.5034V11.2822L206.631 11.0015V7.26172H209.529V18.335C209.529 18.9189 209.63 19.3158 209.832 19.5254C210.034 19.735 210.337 19.8398 210.742 19.8398C210.921 19.8398 211.101 19.8211 211.281 19.7837C211.468 19.7463 211.648 19.6938 211.82 19.6265V21.7715C211.633 21.8538 211.374 21.9287 211.045 21.9961C210.723 22.0635 210.36 22.0972 209.956 22.0972C208.937 22.0972 208.125 21.8127 207.519 21.2437C206.92 20.6672 206.62 19.7537 206.62 18.5034ZM213.796 21.7827V10.2603H216.739V21.7827H213.796ZM213.527 6.8125C213.527 6.35579 213.677 5.97396 213.976 5.66699C214.276 5.36003 214.706 5.20654 215.268 5.20654C215.822 5.20654 216.248 5.36003 216.548 5.66699C216.847 5.97396 216.997 6.35579 216.997 6.8125C216.997 7.26172 216.847 7.64355 216.548 7.95801C216.248 8.27246 215.818 8.42969 215.256 8.42969C214.702 8.42969 214.276 8.27246 213.976 7.95801C213.677 7.64355 213.527 7.26172 213.527 6.8125ZM219.019 16.1899V15.8306C219.019 14.0487 219.554 12.6224 220.625 11.5518C221.695 10.4736 223.103 9.93457 224.847 9.93457C226.599 9.93457 228.007 10.4736 229.07 11.5518C230.14 12.6224 230.676 14.0487 230.676 15.8306V16.1899C230.676 17.9793 230.14 19.4131 229.07 20.4912C228.007 21.5618 226.599 22.0972 224.847 22.0972C223.103 22.0972 221.695 21.5618 220.625 20.4912C219.554 19.4131 219.019 17.9793 219.019 16.1899ZM222.017 15.7183V16.3022C222.017 17.3953 222.257 18.2638 222.736 18.9077C223.222 19.5441 223.926 19.8623 224.847 19.8623C225.768 19.8623 226.472 19.5441 226.958 18.9077C227.445 18.2638 227.688 17.3953 227.688 16.3022V15.7183C227.688 14.6326 227.441 13.7716 226.947 13.1353C226.461 12.4914 225.761 12.1694 224.847 12.1694C223.934 12.1694 223.234 12.4914 222.747 13.1353C222.26 13.7716 222.017 14.6326 222.017 15.7183ZM232.911 21.7827V10.2603H235.696L235.752 11.6641H235.808C236.145 11.1699 236.613 10.7731 237.212 10.4736C237.818 10.1742 238.496 10.0244 239.245 10.0244C240.413 10.0244 241.36 10.3576 242.086 11.0239C242.812 11.6828 243.175 12.8208 243.175 14.438V21.7827H240.244V14.4829C240.244 13.6893 240.072 13.1315 239.728 12.8096C239.383 12.4801 238.896 12.3154 238.268 12.3154C237.743 12.3154 237.264 12.4652 236.83 12.7646C236.403 13.0566 236.074 13.4572 235.842 13.9663V21.7827H232.911Z" fill="black"/>
<line x1="38.1768" y1="17.1626" x2="0.751415" y2="17.1626" stroke="#D1D1D1" stroke-width="4" stroke-dasharray="3 3"/>
<path d="M69.1738 76.1743V75.916H72.1724V76.1519C72.1724 76.9155 72.4007 77.507 72.8574 77.9263C73.3216 78.3381 73.958 78.5439 74.7666 78.5439C75.5902 78.5439 76.234 78.2669 76.6982 77.7129C77.1624 77.1514 77.3945 76.3278 77.3945 75.2422C77.3945 74.1641 77.1587 73.3667 76.687 72.8501C76.2153 72.326 75.5864 72.064 74.8003 72.064C74.2238 72.064 73.7184 72.1838 73.2842 72.4233C72.8574 72.6554 72.4868 72.9661 72.1724 73.3555L69.7354 72.3896L70.5776 64.1577H79.5845V66.6172L72.9697 66.5947L72.5542 70.6377C72.8836 70.4056 73.2879 70.2072 73.7671 70.0425C74.2537 69.8778 74.8003 69.7954 75.4067 69.7954C76.8293 69.7954 78.0234 70.2559 78.9893 71.1768C79.9551 72.0977 80.438 73.4154 80.438 75.1299C80.438 76.8893 79.9289 78.2782 78.9106 79.2964C77.8999 80.3146 76.5223 80.8237 74.7778 80.8237C72.9884 80.8237 71.6071 80.3932 70.6338 79.5322C69.6605 78.6712 69.1738 77.5519 69.1738 76.1743ZM82.7627 78.9819C82.7627 78.4878 82.9237 78.0723 83.2456 77.7354C83.5675 77.391 84.028 77.2188 84.627 77.2188C85.2334 77.2188 85.6938 77.391 86.0083 77.7354C86.3302 78.0723 86.4912 78.4878 86.4912 78.9819C86.4912 79.4761 86.3302 79.8953 86.0083 80.2397C85.6938 80.5767 85.2334 80.7451 84.627 80.7451C84.028 80.7451 83.5675 80.5729 83.2456 80.2285C82.9237 79.8841 82.7627 79.4686 82.7627 78.9819ZM88.9956 75.04V69.627C88.9956 67.875 89.471 66.4749 90.4219 65.4268C91.3727 64.3711 92.7204 63.8433 94.4648 63.8433C96.2093 63.8433 97.557 64.3674 98.5078 65.4155C99.4661 66.4562 99.9453 67.86 99.9453 69.627V75.04C99.9453 76.807 99.4624 78.2145 98.4966 79.2627C97.5308 80.3034 96.1868 80.8237 94.4648 80.8237C92.7204 80.8162 91.3727 80.2922 90.4219 79.2515C89.471 78.2108 88.9956 76.807 88.9956 75.04ZM92.084 75.3545C92.084 76.3053 92.2749 77.0728 92.6567 77.6567C93.0386 78.2332 93.645 78.5215 94.4761 78.5215C95.3071 78.5215 95.9136 78.2332 96.2954 77.6567C96.6772 77.0728 96.8682 76.3053 96.8682 75.3545V69.335C96.8682 68.3766 96.6772 67.6092 96.2954 67.0327C95.9136 66.4487 95.3071 66.1567 94.4761 66.1567C93.645 66.1567 93.0386 66.4487 92.6567 67.0327C92.2749 67.6092 92.084 68.3766 92.084 69.335V75.3545ZM106.1 64.1577H109.334L113.287 75.624C113.362 75.8411 113.422 76.0396 113.467 76.2192C113.519 76.3989 113.572 76.5973 113.624 76.8145H113.703C113.755 76.5973 113.807 76.3952 113.86 76.208C113.92 76.0208 113.983 75.8262 114.051 75.624L118.06 64.1577H121.002L115.14 80.5879H111.973L106.1 64.1577Z" fill="black"/>
<line x1="38.1768" y1="75.8892" x2="0.751415" y2="75.8892" stroke="#D1D1D1" stroke-width="4"/>
<circle cx="19.4642" cy="129.793" r="15.2425" fill="#E01773"/>
<path d="M69.0615 131.966V131.685H72.0488V131.943C72.0488 132.744 72.2809 133.362 72.7451 133.796C73.2093 134.231 73.8494 134.448 74.6655 134.448C75.4816 134.448 76.118 134.231 76.5747 133.796C77.0389 133.355 77.271 132.666 77.271 131.73C77.271 130.809 77.0052 130.124 76.4736 129.675C75.9495 129.218 75.2158 128.99 74.2725 128.99H72.8013V126.845H74.1714C75.0024 126.845 75.6426 126.631 76.0918 126.205C76.5485 125.778 76.7769 125.153 76.7769 124.329C76.7769 123.565 76.5859 122.993 76.2041 122.611C75.8298 122.229 75.2982 122.038 74.6094 122.038C73.8906 122.038 73.3403 122.233 72.9585 122.622C72.5767 123.011 72.3857 123.573 72.3857 124.307V124.52H69.4097V124.307C69.4097 122.996 69.8813 121.911 70.8247 121.05C71.7756 120.181 73.0596 119.747 74.6768 119.747C76.3089 119.747 77.5742 120.151 78.4727 120.96C79.3711 121.769 79.8203 122.783 79.8203 124.003C79.8203 124.872 79.6144 125.639 79.2026 126.306C78.7909 126.972 78.1619 127.474 77.3159 127.811V127.855C78.2218 128.073 78.9518 128.526 79.5059 129.214C80.0674 129.903 80.3481 130.775 80.3481 131.831C80.3481 133.336 79.8353 134.53 78.8096 135.414C77.7839 136.29 76.3913 136.728 74.6318 136.728C72.8574 136.728 71.4836 136.29 70.5103 135.414C69.5444 134.538 69.0615 133.388 69.0615 131.966ZM82.7627 134.886C82.7627 134.392 82.9237 133.976 83.2456 133.639C83.5675 133.295 84.028 133.123 84.627 133.123C85.2334 133.123 85.6938 133.295 86.0083 133.639C86.3302 133.976 86.4912 134.392 86.4912 134.886C86.4912 135.38 86.3302 135.799 86.0083 136.144C85.6938 136.48 85.2334 136.649 84.627 136.649C84.028 136.649 83.5675 136.477 83.2456 136.132C82.9237 135.788 82.7627 135.372 82.7627 134.886ZM88.6924 131.966V131.685H91.6797V131.943C91.6797 132.744 91.9118 133.362 92.376 133.796C92.8402 134.231 93.4803 134.448 94.2964 134.448C95.1125 134.448 95.7489 134.231 96.2056 133.796C96.6698 133.355 96.9019 132.666 96.9019 131.73C96.9019 130.809 96.6361 130.124 96.1045 129.675C95.5804 129.218 94.8467 128.99 93.9033 128.99H92.4321V126.845H93.8022C94.6333 126.845 95.2734 126.631 95.7227 126.205C96.1794 125.778 96.4077 125.153 96.4077 124.329C96.4077 123.565 96.2168 122.993 95.835 122.611C95.4606 122.229 94.929 122.038 94.2402 122.038C93.5215 122.038 92.9712 122.233 92.5894 122.622C92.2075 123.011 92.0166 123.573 92.0166 124.307V124.52H89.0405V124.307C89.0405 122.996 89.5122 121.911 90.4556 121.05C91.4064 120.181 92.6904 119.747 94.3076 119.747C95.9398 119.747 97.2051 120.151 98.1035 120.96C99.002 121.769 99.4512 122.783 99.4512 124.003C99.4512 124.872 99.2453 125.639 98.8335 126.306C98.4217 126.972 97.7928 127.474 96.9468 127.811V127.855C97.8527 128.073 98.5827 128.526 99.1367 129.214C99.6982 129.903 99.979 130.775 99.979 131.831C99.979 133.336 99.4661 134.53 98.4404 135.414C97.4147 136.29 96.0221 136.728 94.2627 136.728C92.4883 136.728 91.1144 136.29 90.1411 135.414C89.1753 134.538 88.6924 133.388 88.6924 131.966ZM106.1 120.062H109.334L113.287 131.528C113.362 131.745 113.422 131.943 113.467 132.123C113.519 132.303 113.572 132.501 113.624 132.718H113.703C113.755 132.501 113.807 132.299 113.86 132.112C113.92 131.925 113.983 131.73 114.051 131.528L118.06 120.062H121.002L115.14 136.492H111.973L106.1 120.062Z" fill="black"/>
</svg>
