<svg xmlns="http://www.w3.org/2000/svg" width="412" height="541" fill="none" xmlns:v="https://vecta.io/nano"><rect x=".25" y=".25" width="255.5" height="532.5" rx="9.75" fill="#fff" stroke="url(#C)" stroke-width=".5"/><path d="M253.297 493.27c0-2.062-1.672-3.734-3.734-3.734s-3.733 1.672-3.733 3.734 1.672 3.733 3.733 3.733 3.734-1.672 3.734-3.733zm52.907 0v-.7h-56.641v.7.7h56.641v-.7z" fill="url(#D)"/><path d="M253.297 139.256c0-2.062-1.672-3.733-3.734-3.733s-3.733 1.671-3.733 3.733 1.672 3.733 3.733 3.733 3.734-1.671 3.734-3.733zm57.869 0v-.7h-61.603v.7.7h61.603v-.7z" fill="url(#E)"/><g filter="url(#A)"><rect x="17" y="21.5" width="216" height="52" rx="10" fill="#fff"/></g><g stroke-width=".5" stroke="#5a5c66" stroke-miterlimit="22.9256"><path d="M32.51 35.5h10.664a.51.51 0 0 1 .51.51v21.964l-1.219 3.725c-.068.138-.215.206-.42.221l-.18.095-3.869.017-4.04-.015c-.051-.027-.042-.048-.099-.053-.341-.029-.491-.133-.537-.274L32 57.936v-4.184V36.01a.51.51 0 0 1 .51-.51h0z"/><path d="M32.815 35.5l2.076 1.048 5.977.005 2.076-1.053-1.75 1.325s-.272.261-.644.236h-5.187s-.432.079-.823-.293L32.815 35.5z" stroke-linejoin="round"/><path d="M34.131 37.578l7.604.002 1.763-1.963m-9.833 2.314c0-.065-1.665-1.75-1.665-1.75"/><path d="M34.158 37.604l-1.98-1.98m10.003 2.307c0-.065 1.502-1.75 1.502-1.75"/><path d="M33.662 57.974V38.013s-.081-.435.511-.435m8.004 20.396V38.013s.081-.435-.511-.435"/><path d="M32 53.81l1.662 4.08s.011.19.614.242 7.357 0 7.357 0 .481.005.592-.293l1.432-4.048v.152l-1.391 3.938s-.041.327-.467.352-7.363.026-7.363.026-.776.076-.852-.378L32 53.849m1.89 8.122l1.573-2.466c.046-.086.134-.177.208-.236.202-.16.45-.228.707-.232h2.986c.109-.008.247.011.351.037a1.18 1.18 0 0 1 .648.411l.004.005 1.594 2.475m-2.424.545h-.025m-3.218-.003h-.037"/><path d="M33.997 62.017l1.565-2.455s.206-.402.815-.41h2.991s.543-.046.905.405l1.583 2.458m-2.235.379h-.005m-3.439-.003h-.014m-2.501-4.417l-.356 3.677m.884-3.389l-.28 3.722m8.267-4.057l.332 3.639m-.768-3.332l.291 3.693m-7.901-24.349l.055 20.68m7.571-20.656l-.016 20.632"/><path d="M36.395 62.023h-.303v.208a.71.71 0 0 0 .281.368c.071.444.37.758 1.52.778 1.135.02 1.441-.31 1.517-.756.221-.156.303-.365.33-.598h-.349-2.997z"/><path d="M37.192 62.029v.799"/><use href="#H"/><use href="#H" x="0.209"/><use href="#H" x="0.418"/><use href="#H" x="0.628"/><use href="#H" x="0.837"/><use href="#H" x="1.046"/><use href="#H" x="1.255"/><path d="M39.758 62.024c-.07.479-.41.844-1.865.824s-1.793-.355-1.864-.823"/></g><path d="M156.733 48.5h-.881c-.052-.253-.143-.476-.273-.668a1.82 1.82 0 0 0-.469-.483c-.182-.133-.385-.232-.607-.298a2.43 2.43 0 0 0-.696-.099 2.22 2.22 0 0 0-1.197.334c-.355.223-.638.55-.849.984s-.312.965-.312 1.594.104 1.161.312 1.595.494.761.849.984a2.22 2.22 0 0 0 1.197.334 2.43 2.43 0 0 0 .696-.099 2.04 2.04 0 0 0 .607-.295 1.87 1.87 0 0 0 .469-.486c.13-.194.221-.417.273-.668h.881a2.93 2.93 0 0 1-.362.998c-.175.294-.393.543-.654.749s-.552.359-.877.465-.666.16-1.033.16c-.62 0-1.172-.152-1.655-.455s-.863-.734-1.14-1.293-.415-1.222-.415-1.989.138-1.43.415-1.989.657-.99 1.14-1.293 1.035-.455 1.655-.455c.367 0 .711.053 1.033.16a2.81 2.81 0 0 1 .877.469 2.67 2.67 0 0 1 .654.746c.175.291.296.624.362.998zm3.525 5.114c-.492 0-.924-.117-1.296-.352s-.658-.562-.866-.984-.309-.914-.309-1.477.103-1.064.309-1.488.497-.753.866-.987.804-.352 1.296-.352.924.117 1.293.352.66.563.866.987.313.92.313 1.488-.104 1.056-.313 1.477-.494.749-.866.984-.8.352-1.293.352zm0-.753c.374 0 .682-.096.924-.288a1.7 1.7 0 0 0 .536-.756c.116-.312.174-.651.174-1.016s-.058-.704-.174-1.019a1.72 1.72 0 0 0-.536-.763c-.242-.194-.55-.291-.924-.291s-.681.097-.923.291a1.72 1.72 0 0 0-.536.763c-.116.315-.174.655-.174 1.019s.058.703.174 1.016a1.7 1.7 0 0 0 .536.756c.242.192.549.288.923.288zm4.589-2.642V53.5h-.838v-5.455h.81v.852h.071a1.56 1.56 0 0 1 .582-.668c.261-.17.597-.256 1.009-.256.369 0 .692.076.969.227s.493.376.647.682.23.687.23 1.151V53.5h-.838v-3.409c0-.428-.111-.762-.333-1.001s-.528-.362-.917-.362c-.267 0-.506.058-.717.174a1.25 1.25 0 0 0-.494.508c-.12.222-.181.492-.181.81zm5.85 0V53.5h-.838v-5.455h.81v.852h.071c.127-.277.321-.499.582-.668s.597-.256 1.008-.256c.37 0 .693.076.97.227a1.53 1.53 0 0 1 .646.682c.154.303.231.687.231 1.151V53.5h-.838v-3.409c0-.428-.111-.762-.334-1.001s-.528-.362-.916-.362c-.268 0-.507.058-.717.174s-.373.285-.494.508-.181.492-.181.81zm7.298 3.395c-.525 0-.979-.116-1.36-.348a2.34 2.34 0 0 1-.877-.98c-.203-.421-.305-.911-.305-1.47s.102-1.051.305-1.477a2.41 2.41 0 0 1 .86-1.001c.369-.241.8-.362 1.292-.362a2.59 2.59 0 0 1 .842.142c.277.095.529.249.756.462a2.2 2.2 0 0 1 .543.838c.135.348.203.776.203 1.285v.355h-4.205v-.724h3.353a1.79 1.79 0 0 0-.185-.824 1.4 1.4 0 0 0-.518-.572c-.223-.14-.486-.209-.789-.209-.334 0-.622.083-.866.249a1.63 1.63 0 0 0-.558.639 1.88 1.88 0 0 0-.195.845v.483c0 .412.071.761.213 1.048a1.53 1.53 0 0 0 .6.65 1.76 1.76 0 0 0 .891.22c.221 0 .419-.031.597-.092s.335-.159.465-.284.231-.287.302-.476l.81.227c-.086.275-.229.516-.43.724s-.45.367-.746.483-.628.17-.998.17zm5.75 0c-.512 0-.952-.121-1.321-.362s-.654-.574-.853-.998-.298-.908-.298-1.453c0-.554.102-1.043.305-1.467s.493-.759.86-.998.8-.362 1.292-.362c.384 0 .73.071 1.037.213a1.99 1.99 0 0 1 .757.597c.196.256.318.554.366.895h-.839c-.063-.249-.205-.469-.426-.66s-.511-.291-.88-.291c-.327 0-.613.085-.86.256a1.66 1.66 0 0 0-.571.714c-.135.305-.203.664-.203 1.076 0 .421.066.788.199 1.101s.324.555.568.728a1.47 1.47 0 0 0 .867.259 1.5 1.5 0 0 0 .593-.114 1.23 1.23 0 0 0 .451-.327 1.25 1.25 0 0 0 .262-.511h.839a1.95 1.95 0 0 1-.352.87 1.97 1.97 0 0 1-.735.611c-.303.149-.656.224-1.058.224zm5.742-5.568v.71h-2.827v-.71h2.827zm-2.003-1.307h.838v5.199c0 .237.034.414.103.533s.161.194.27.234a1.08 1.08 0 0 0 .352.057 1.49 1.49 0 0 0 .227-.014l.142-.028.17.753c-.057.021-.136.043-.238.064a1.74 1.74 0 0 1-.387.035 1.69 1.69 0 0 1-.696-.153 1.38 1.38 0 0 1-.561-.465c-.147-.208-.22-.471-.22-.788v-5.426zm5.492 6.875c-.526 0-.979-.116-1.36-.348s-.671-.561-.877-.98-.306-.911-.306-1.47.102-1.051.306-1.477.492-.762.859-1.001.8-.362 1.293-.362c.284 0 .564.047.841.142s.529.249.757.462.408.49.543.838.202.776.202 1.285v.355h-4.204v-.724h3.352c0-.308-.061-.582-.185-.824s-.293-.432-.518-.572-.485-.209-.788-.209c-.334 0-.623.083-.867.249s-.427.376-.557.639-.196.544-.196.845v.483c0 .412.071.761.213 1.048a1.54 1.54 0 0 0 .601.65c.255.147.552.22.891.22a1.81 1.81 0 0 0 .596-.092 1.29 1.29 0 0 0 .466-.284c.13-.128.23-.287.301-.476l.81.227c-.085.275-.228.516-.43.724s-.449.367-.745.483-.629.17-.998.17zm5.593 0c-.455 0-.856-.115-1.204-.344a2.33 2.33 0 0 1-.817-.98c-.196-.424-.294-.924-.294-1.502s.098-1.07.294-1.491.47-.747.821-.977.755-.344 1.214-.344c.355 0 .636.059.842.178s.367.249.476.398l.259.362h.071v-2.685h.838V53.5h-.81v-.838h-.099a5.42 5.42 0 0 1-.263.377 1.57 1.57 0 0 1-.486.401c-.211.116-.492.174-.842.174zm.114-.753c.336 0 .62-.088.852-.263s.408-.423.529-.735.181-.678.181-1.09-.059-.764-.178-1.069-.293-.547-.525-.717-.519-.259-.859-.259c-.356 0-.652.091-.888.273a1.63 1.63 0 0 0-.529.735c-.116.308-.174.653-.174 1.037s.059.741.177 1.058.298.566.533.753.53.277.881.277z" fill="#b8b8b8"/><path d="M57.799 45.227h1.332l2.315 5.653h.085l2.315-5.653h1.332V52.5h-1.044v-5.263h-.067l-2.145 5.252h-.867l-2.145-5.256h-.067V52.5h-1.044v-7.273zm9.738 0l1.74 2.844h.057l1.74-2.844h1.271l-2.266 3.636 2.28 3.636h-1.278l-1.747-2.805h-.057L67.53 52.5h-1.278l2.319-3.636-2.305-3.636h1.271zm5.645 5.852v-.888l3.143-4.965h.7v1.307h-.444l-2.248 3.558v.057h4.308v.93h-5.458zm3.448 1.42v-1.69l.007-.405v-5.178h1.041V52.5H76.63zm5.779.099c-.488 0-.923-.084-1.307-.252s-.683-.401-.906-.7-.338-.649-.355-1.044h1.115a.96.96 0 0 0 .217.561c.132.156.305.277.518.362s.45.128.71.128a1.83 1.83 0 0 0 .76-.149c.223-.099.397-.238.522-.415a1.06 1.06 0 0 0 .188-.621c0-.244-.063-.458-.188-.643s-.304-.334-.543-.44-.523-.16-.859-.16h-.614v-.895h.614c.27 0 .507-.049.71-.146s.367-.232.483-.405.174-.38.174-.614c0-.225-.051-.42-.153-.586s-.242-.3-.426-.394-.398-.142-.646-.142a1.68 1.68 0 0 0-.664.131c-.204.085-.369.208-.497.369a.95.95 0 0 0-.206.572h-1.062c.012-.393.128-.739.348-1.037a2.25 2.25 0 0 1 .881-.7c.365-.168.769-.252 1.215-.252.466 0 .869.091 1.207.273a1.99 1.99 0 0 1 .788.721 1.81 1.81 0 0 1 .277.987c.002.407-.111.753-.341 1.037s-.53.475-.909.572v.057c.483.073.857.265 1.122.575s.4.695.398 1.154c.002.4-.109.759-.334 1.076s-.527.567-.913.749-.827.27-1.325.27zm3.761-1.52v-.888l3.143-4.965h.7v1.307h-.444l-2.248 3.558v.057h4.308v.93H86.17zm3.448 1.42v-1.69l.007-.405v-5.178h1.04V52.5h-1.048zm5.779.099c-.488 0-.923-.084-1.307-.252s-.683-.401-.906-.7-.338-.649-.355-1.044h1.115a.96.96 0 0 0 .217.561c.133.156.305.277.518.362s.45.128.71.128a1.83 1.83 0 0 0 .76-.149c.222-.099.396-.238.522-.415a1.06 1.06 0 0 0 .188-.621c0-.244-.063-.458-.188-.643s-.304-.334-.543-.44-.523-.16-.859-.16h-.614v-.895h.614c.27 0 .507-.049.71-.146s.367-.232.483-.405.174-.38.174-.614c0-.225-.051-.42-.153-.586s-.242-.3-.426-.394-.398-.142-.646-.142a1.68 1.68 0 0 0-.664.131c-.204.085-.369.208-.497.369a.95.95 0 0 0-.206.572h-1.062c.012-.393.128-.739.348-1.037a2.25 2.25 0 0 1 .881-.7c.365-.168.769-.252 1.215-.252.466 0 .869.091 1.207.273a1.99 1.99 0 0 1 .788.721 1.81 1.81 0 0 1 .277.987c.002.407-.111.753-.341 1.037s-.53.475-.909.572v.057c.483.073.857.265 1.122.575s.4.695.398 1.154c.002.4-.109.759-.334 1.076s-.527.567-.913.749-.827.27-1.325.27z" fill="#f85550"/><circle cx="214.5" cy="50" r="1.5" fill="#72cf70"/><path d="M217 50a2.5 2.5 0 1 1-5 0 2.5 2.5 0 1 1 5 0z" fill="#53ee50" fill-opacity=".35"/><path d="M22.125 108.5h-2.244v-7.273h2.344c.706 0 1.309.146 1.811.437s.887.704 1.154 1.247.401 1.186.401 1.938c0 .758-.135 1.41-.405 1.957s-.663.964-1.179 1.257-1.143.437-1.882.437zm-1.364-.781h1.307c.601 0 1.1-.116 1.495-.348s.69-.563.884-.991.291-.939.291-1.531-.096-1.092-.288-1.516a2.12 2.12 0 0 0-.859-.98c-.381-.23-.856-.344-1.424-.344h-1.406v5.71zm8.48.895c-.526 0-.979-.116-1.36-.348a2.34 2.34 0 0 1-.877-.98c-.204-.422-.305-.912-.305-1.471s.102-1.051.305-1.477a2.41 2.41 0 0 1 .859-1.001c.369-.242.8-.363 1.293-.363.284 0 .565.048.842.142a2.09 2.09 0 0 1 .756.462c.227.211.408.49.543.838s.202.777.202 1.286v.355h-4.204v-.725h3.352c0-.307-.061-.582-.185-.823s-.294-.433-.518-.572-.485-.21-.788-.21c-.334 0-.623.083-.866.249a1.63 1.63 0 0 0-.558.639 1.88 1.88 0 0 0-.195.845v.483c0 .412.071.761.213 1.048s.345.5.6.65.553.22.891.22c.22 0 .419-.031.597-.093s.335-.158.465-.284.231-.286.302-.475l.81.227c-.085.274-.229.516-.43.724s-.45.367-.746.483-.628.171-.998.171zm7.828-5.569l-2.017 5.455H34.2l-2.017-5.455h.909l1.506 4.347h.057l1.506-4.347h.909zm1.106 5.455v-5.455h.838v5.455h-.838zm.426-6.364c-.163 0-.304-.055-.423-.167s-.174-.245-.174-.401.058-.29.174-.401.259-.167.423-.167.303.056.419.167a.53.53 0 0 1 .178.401.53.53 0 0 1-.178.401.58.58 0 0 1-.419.167zm4.163 6.478c-.511 0-.952-.121-1.321-.363a2.36 2.36 0 0 1-.852-.997c-.199-.424-.298-.908-.298-1.453 0-.554.102-1.043.305-1.466s.492-.759.859-.998.8-.363 1.293-.363c.383 0 .729.071 1.037.214a1.98 1.98 0 0 1 .756.596c.197.256.318.554.366.895h-.838a1.3 1.3 0 0 0-.426-.661c-.218-.194-.511-.291-.881-.291-.327 0-.613.085-.859.256s-.434.406-.572.714-.202.664-.202 1.076c0 .421.066.788.199 1.101a1.69 1.69 0 0 0 .568.728c.246.172.535.259.867.259.218 0 .415-.038.593-.114s.328-.185.451-.327a1.25 1.25 0 0 0 .263-.511h.838a1.94 1.94 0 0 1-.352.87c-.185.256-.43.459-.735.611a2.37 2.37 0 0 1-1.058.224zm5.657 0c-.526 0-.979-.116-1.36-.348a2.34 2.34 0 0 1-.877-.98c-.203-.422-.305-.912-.305-1.471s.102-1.051.305-1.477a2.41 2.41 0 0 1 .859-1.001c.369-.242.8-.363 1.293-.363.284 0 .565.048.842.142a2.09 2.09 0 0 1 .756.462c.227.211.408.49.543.838s.202.777.202 1.286v.355h-4.205v-.725h3.352c0-.307-.061-.582-.185-.823s-.294-.433-.519-.572-.485-.21-.788-.21c-.334 0-.623.083-.866.249a1.63 1.63 0 0 0-.558.639 1.88 1.88 0 0 0-.195.845v.483c0 .412.071.761.213 1.048s.344.5.6.65.553.22.891.22c.22 0 .419-.031.597-.093a1.26 1.26 0 0 0 .465-.284c.13-.127.231-.286.302-.475l.81.227c-.085.274-.228.516-.43.724s-.45.367-.746.483-.628.171-.998.171zm8.704-.114h-2.244v-7.273h2.344c.706 0 1.309.146 1.811.437s.887.704 1.154 1.247.401 1.186.401 1.938c0 .758-.135 1.41-.405 1.957s-.663.964-1.179 1.257-1.144.437-1.882.437zm-1.364-.781h1.307c.601 0 1.1-.116 1.495-.348s.69-.563.884-.991.291-.939.291-1.531-.096-1.092-.288-1.516a2.12 2.12 0 0 0-.859-.98c-.381-.23-.856-.344-1.424-.344h-1.406v5.71zm7.798.909a2.22 2.22 0 0 1-.941-.195c-.282-.133-.505-.324-.671-.572s-.248-.554-.248-.909c0-.313.061-.566.185-.76a1.3 1.3 0 0 1 .494-.462 2.59 2.59 0 0 1 .682-.248l.756-.135.806-.096c.208-.024.36-.063.455-.117s.146-.15.146-.285v-.028c0-.35-.096-.623-.288-.817s-.477-.291-.863-.291c-.4 0-.714.088-.941.263a1.55 1.55 0 0 0-.479.561l-.795-.284c.142-.332.331-.59.568-.774s.5-.318.781-.391.563-.114.838-.114c.175 0 .376.022.604.064s.451.125.664.252.394.321.536.579.213.604.213 1.037v3.594h-.838v-.739h-.043c-.057.119-.151.245-.284.38s-.309.25-.529.345-.489.142-.806.142zm.128-.753c.331 0 .611-.065.838-.195s.402-.299.518-.505.178-.422.178-.649v-.767c-.035.042-.114.081-.234.117a4 4 0 0 1-.412.088l-.451.064-.352.043c-.218.028-.421.075-.611.139a1.05 1.05 0 0 0-.455.28c-.114.123-.17.291-.17.504a.75.75 0 0 0 .323.661c.218.147.494.22.827.22zm6.274-4.83v.711h-2.827v-.711h2.827zm-2.003-1.306h.838v5.199c0 .236.034.414.103.532s.161.194.27.235.228.056.352.056c.092 0 .168-.004.227-.014l.142-.028.171.753c-.057.021-.136.042-.238.064s-.231.035-.387.035c-.237 0-.469-.051-.696-.153a1.38 1.38 0 0 1-.561-.465c-.147-.208-.22-.471-.22-.788v-5.426zm4.869 6.889a2.22 2.22 0 0 1-.941-.195c-.282-.133-.505-.324-.671-.572s-.249-.554-.249-.909c0-.313.062-.566.185-.76a1.3 1.3 0 0 1 .494-.462c.206-.111.433-.194.682-.248l.756-.135.806-.096c.208-.024.36-.063.455-.117s.146-.15.146-.285v-.028c0-.35-.096-.623-.288-.817s-.477-.291-.863-.291c-.4 0-.714.088-.941.263s-.387.362-.479.561l-.795-.284a1.9 1.9 0 0 1 .568-.774c.239-.187.499-.318.781-.391s.564-.114.838-.114c.175 0 .376.022.604.064s.451.125.664.252.394.321.536.579.213.604.213 1.037v3.594h-.838v-.739h-.043a1.47 1.47 0 0 1-.284.38c-.133.135-.309.25-.529.345s-.489.142-.806.142zm.128-.753c.331 0 .611-.065.838-.195s.403-.299.519-.505.178-.422.178-.649v-.767c-.035.042-.114.081-.234.117a4 4 0 0 1-.412.088l-.451.064-.352.043c-.218.028-.421.075-.611.139a1.05 1.05 0 0 0-.455.28c-.114.123-.17.291-.17.504a.75.75 0 0 0 .323.661c.218.147.494.22.827.22z" fill="#b8b8b8"/><g stroke-width="1.5"><circle cx="356.204" cy="490.771" r="49.25" transform="rotate(90 356.204 490.771)" stroke="url(#F)"/><circle cx="361.166" cy="139.178" r="49.25" transform="rotate(90 361.166 139.178)" stroke="url(#G)"/></g><g filter="url(#B)"><rect x="16" y="121.771" width="216" height="36.812" rx="5" fill="#fff"/></g><path d="M178.57 144.777c-.535 0-.99-.145-1.367-.437s-.664-.718-.863-1.274-.298-1.234-.298-2.025.099-1.457.298-2.013.49-.985.867-1.279.833-.443 1.363-.443.984.148 1.36.443.668.72.867 1.279.302 1.227.302 2.013-.1 1.466-.299 2.025-.486.981-.862 1.274-.833.437-1.368.437zm0-.781c.531 0 .943-.256 1.236-.767s.44-1.241.44-2.188c0-.629-.067-1.166-.202-1.608s-.324-.78-.575-1.012a1.27 1.27 0 0 0-.899-.348c-.525 0-.936.259-1.232.777s-.444 1.247-.444 2.191c0 .63.066 1.165.199 1.605s.323.776.572 1.005.553.345.905.345zm4.249.739c-.175 0-.325-.063-.451-.189s-.188-.275-.188-.451.063-.325.188-.451.276-.188.451-.188.326.063.451.188.188.276.188.451c0 .116-.029.223-.088.32s-.134.175-.231.234a.61.61 0 0 1-.32.086zm2.129-.057v-.639l2.401-2.628.696-.803c.182-.23.317-.445.405-.646s.135-.417.135-.639a1.18 1.18 0 0 0-.185-.664c-.121-.187-.287-.332-.497-.434s-.448-.152-.711-.152c-.279 0-.523.058-.731.174s-.366.273-.479.479-.167.447-.167.724h-.838c0-.426.098-.8.294-1.122a2.05 2.05 0 0 1 .803-.753 2.43 2.43 0 0 1 1.147-.269c.426 0 .804.09 1.133.269s.587.423.774.728.28.646.28 1.02a2.19 2.19 0 0 1-.145.784c-.095.254-.261.537-.497.849s-.56.689-.977 1.137l-1.633 1.747v.056h3.38v.782h-4.588zm8.995-7.273h1.051l2.472 6.037h.085l2.472-6.037h1.051v7.273h-.824v-5.526h-.071l-2.273 5.526h-.795l-2.273-5.526h-.071v5.526h-.824v-7.273zm8.783 9.318v-7.5h.81v.867h.099l.256-.363c.111-.149.27-.281.476-.397s.49-.178.845-.178a2.16 2.16 0 0 1 1.214.345c.351.229.624.555.821.976s.294.919.294 1.492-.098 1.078-.294 1.502-.469.748-.817.98-.749.344-1.204.344c-.35 0-.631-.058-.842-.174s-.372-.252-.486-.401l-.263-.376h-.071v2.883h-.838zm.824-4.773c0 .412.06.776.181 1.091s.297.557.529.735.516.263.852.263c.351 0 .643-.093.878-.277s.414-.438.532-.753.181-.67.181-1.059c0-.383-.059-.729-.177-1.036s-.293-.556-.529-.736-.529-.273-.885-.273c-.341 0-.627.086-.859.259s-.407.41-.526.718-.177.661-.177 1.068zm6.875 2.856a2.22 2.22 0 0 1-.941-.196c-.282-.132-.506-.323-.671-.571s-.249-.554-.249-.91c0-.312.062-.565.185-.76a1.3 1.3 0 0 1 .493-.461c.206-.111.434-.194.682-.249l.757-.135.806-.096c.208-.023.36-.062.454-.117s.146-.149.146-.284v-.028c0-.351-.096-.623-.288-.817s-.477-.291-.863-.291c-.4 0-.714.087-.941.263s-.387.362-.479.561l-.796-.284a1.91 1.91 0 0 1 .569-.775 2.12 2.12 0 0 1 .781-.39 3.23 3.23 0 0 1 .838-.114 3.3 3.3 0 0 1 .604.064c.229.04.451.124.664.252s.394.321.536.579.213.604.213 1.037v3.594h-.838v-.739h-.043c-.057.118-.151.245-.284.38a1.64 1.64 0 0 1-.529.345c-.22.094-.489.142-.806.142zm.128-.753c.331 0 .611-.065.838-.196a1.33 1.33 0 0 0 .518-.504c.119-.206.178-.422.178-.65v-.767c-.036.043-.114.082-.235.117s-.255.063-.411.089l-.451.064-.352.043c-.218.028-.421.074-.611.138a1.05 1.05 0 0 0-.454.281c-.114.123-.171.291-.171.504 0 .291.108.511.323.661s.494.22.828.22z" fill="#b8b8b8"/><path d="M30.15 143.678v-7.273h2.457c.571 0 1.037.103 1.399.309s.634.479.81.827.263.737.263 1.165-.088.818-.263 1.168a1.97 1.97 0 0 1-.803.839c-.363.209-.826.308-1.392.308H30.86v-.781h1.733c.391 0 .704-.067.941-.202s.408-.317.515-.547.163-.494.163-.785a1.8 1.8 0 0 0-.163-.781c-.109-.23-.279-.41-.518-.54s-.556-.199-.952-.199h-1.548v6.492h-.881zm6.234 0v-5.455h.81v.824h.057a1.31 1.31 0 0 1 .54-.657 1.59 1.59 0 0 1 .881-.252l.231.004.209.01v.852a3.03 3.03 0 0 0-.195-.032 1.99 1.99 0 0 0-.316-.024c-.265 0-.502.055-.71.167a1.25 1.25 0 0 0-.49.454 1.23 1.23 0 0 0-.178.657v3.452h-.838zm5.842.113c-.526 0-.979-.116-1.36-.348s-.671-.561-.877-.98-.305-.911-.305-1.47.102-1.051.305-1.477.492-.763.859-1.002.8-.362 1.293-.362c.284 0 .565.048.842.142a2.09 2.09 0 0 1 .756.462c.227.211.408.49.543.838s.202.776.202 1.285v.356H40.28v-.725h3.352a1.79 1.79 0 0 0-.185-.824c-.121-.241-.294-.432-.518-.571a1.45 1.45 0 0 0-.788-.21c-.334 0-.623.083-.867.249a1.63 1.63 0 0 0-.557.639 1.88 1.88 0 0 0-.195.845v.483c0 .412.071.761.213 1.048a1.5 1.5 0 0 0 .6.649c.256.149.553.221.891.221a1.8 1.8 0 0 0 .596-.093 1.27 1.27 0 0 0 .465-.284 1.29 1.29 0 0 0 .302-.476l.81.228c-.085.274-.228.516-.43.724s-.45.367-.746.483-.629.17-.998.17zm7.397-4.346l-.753.213c-.047-.126-.117-.248-.209-.366s-.213-.22-.369-.298-.356-.117-.6-.117c-.334 0-.612.077-.835.23s-.33.345-.33.579c0 .209.076.373.227.494s.388.221.71.302l.81.199c.488.118.851.299 1.09.543s.359.553.359.934c0 .312-.09.592-.27.838a1.79 1.79 0 0 1-.746.582c-.32.142-.691.213-1.115.213-.556 0-1.017-.12-1.381-.362s-.595-.594-.692-1.058l.795-.199c.076.294.219.514.43.661s.491.22.834.22c.391 0 .701-.083.93-.249s.348-.369.348-.604a.63.63 0 0 0-.199-.475c-.133-.131-.336-.228-.611-.292l-.909-.213c-.5-.118-.866-.301-1.101-.55s-.348-.565-.348-.941a1.35 1.35 0 0 1 .259-.817c.175-.237.413-.422.714-.557s.646-.203 1.03-.203c.54 0 .964.119 1.271.355a1.93 1.93 0 0 1 .66.938zm5.225 0l-.753.213a1.38 1.38 0 0 0-.209-.366 1.01 1.01 0 0 0-.369-.298c-.156-.078-.356-.117-.6-.117-.334 0-.612.077-.835.23s-.33.345-.33.579c0 .209.076.373.227.494s.388.221.71.302l.81.199c.488.118.851.299 1.09.543s.359.553.359.934c0 .312-.09.592-.27.838a1.79 1.79 0 0 1-.746.582c-.32.142-.691.213-1.115.213-.556 0-1.017-.12-1.381-.362s-.595-.594-.692-1.058l.795-.199c.076.294.219.514.43.661s.491.22.834.22c.391 0 .701-.083.93-.249s.348-.369.348-.604a.63.63 0 0 0-.199-.475c-.133-.131-.336-.228-.611-.292l-.909-.213c-.499-.118-.867-.301-1.101-.55s-.348-.565-.348-.941a1.35 1.35 0 0 1 .259-.817c.175-.237.413-.422.714-.557s.646-.203 1.03-.203c.54 0 .963.119 1.271.355s.53.55.66.938zm4.799 2.003v-3.225h.838v5.455h-.838v-.924h-.057a1.79 1.79 0 0 1-.597.707c-.27.192-.611.288-1.023.288-.341 0-.644-.075-.909-.224s-.473-.379-.625-.682-.227-.69-.227-1.154v-3.466h.838v3.409c0 .398.111.715.334.952s.511.355.859.355a1.42 1.42 0 0 0 .636-.16c.218-.106.4-.27.547-.49s.224-.5.224-.841zm2.373 2.23v-5.455h.81v.824h.057c.099-.27.279-.489.54-.657a1.59 1.59 0 0 1 .881-.252l.231.004.21.01v.852a3.03 3.03 0 0 0-.195-.032 1.99 1.99 0 0 0-.316-.024c-.265 0-.502.055-.71.167a1.25 1.25 0 0 0-.49.454 1.23 1.23 0 0 0-.177.657v3.452h-.838zm5.842.113c-.526 0-.979-.116-1.36-.348s-.671-.561-.877-.98-.305-.911-.305-1.47.102-1.051.305-1.477.492-.763.859-1.002.8-.362 1.293-.362c.284 0 .565.048.842.142a2.09 2.09 0 0 1 .756.462 2.21 2.21 0 0 1 .543.838c.135.348.202.776.202 1.285v.356h-4.205v-.725h3.352a1.79 1.79 0 0 0-.185-.824 1.39 1.39 0 0 0-.519-.571c-.222-.14-.485-.21-.788-.21-.334 0-.623.083-.867.249a1.63 1.63 0 0 0-.558.639 1.88 1.88 0 0 0-.195.845v.483c0 .412.071.761.213 1.048a1.5 1.5 0 0 0 .6.649c.256.149.553.221.891.221a1.8 1.8 0 0 0 .597-.093 1.27 1.27 0 0 0 .465-.284 1.29 1.29 0 0 0 .302-.476l.81.228c-.085.274-.228.516-.43.724s-.45.367-.746.483-.629.17-.998.17zm278.102-9.06v-12.363h1.866v10.758h5.602v1.605h-7.468zm9.451 0v-9.272h1.805v9.272h-1.805zm.912-10.703c-.314 0-.584-.105-.809-.314a1 1 0 0 1-.332-.761 1.01 1.01 0 0 1 .332-.76 1.13 1.13 0 0 1 .809-.32c.314 0 .581.106.803.32a1 1 0 0 1 .338.76c0 .294-.113.548-.338.761a1.13 1.13 0 0 1-.803.314zm11.254 1.431l-3.363 9.272h-1.931l-3.369-9.272h1.938l2.348 7.135h.097l2.342-7.135h1.938zm5.377 9.46c-.913 0-1.7-.196-2.36-.586a3.92 3.92 0 0 1-1.521-1.66c-.355-.717-.532-1.556-.532-2.518 0-.949.177-1.786.532-2.511s.857-1.29 1.497-1.696 1.396-.61 2.258-.61c.523 0 1.03.087 1.521.26a3.67 3.67 0 0 1 1.322.815c.39.37.698.851.924 1.442s.338 1.302.338 2.143v.64h-7.371v-1.352h5.602c0-.475-.097-.895-.29-1.262a2.19 2.19 0 0 0-.815-.875c-.346-.213-.752-.32-1.219-.32-.507 0-.95.125-1.328.374a2.52 2.52 0 0 0-.87.966c-.201.395-.302.823-.302 1.286v1.057c0 .619.109 1.147.326 1.581a2.36 2.36 0 0 0 .924.996c.394.226.855.338 1.383.338a2.88 2.88 0 0 0 .935-.144c.282-.101.525-.25.731-.447s.362-.441.471-.731l1.708.308c-.137.503-.382.944-.736 1.322s-.791.666-1.323.876-1.128.308-1.805.308zm-36.405 8.449l3.441 10.069h.139l3.441-10.069h2.016l-4.449 12.363h-2.155l-4.45-12.363h2.017zm12.463 12.569c-.588 0-1.119-.109-1.594-.326a2.66 2.66 0 0 1-1.129-.96c-.278-.418-.41-.932-.41-1.54 0-.523.1-.953.302-1.291a2.22 2.22 0 0 1 .815-.803c.342-.198.724-.347 1.147-.447s.853-.177 1.292-.23l1.352-.156c.346-.045.597-.115.754-.212s.236-.253.236-.471v-.042c0-.527-.149-.936-.447-1.225s-.732-.435-1.316-.435c-.608 0-1.087.135-1.437.404s-.585.562-.718.888l-1.696-.387c.201-.563.495-1.018.881-1.364a3.6 3.6 0 0 1 1.346-.761 5.38 5.38 0 0 1 1.6-.241 5.61 5.61 0 0 1 1.177.133 3.42 3.42 0 0 1 1.171.471c.367.229.666.557.9.984s.35.972.35 1.648v6.157h-1.763v-1.267h-.072c-.117.233-.292.463-.526.688s-.533.412-.899.561-.805.224-1.316.224zm.392-1.449c.499 0 .926-.099 1.28-.296a2.07 2.07 0 0 0 .815-.773c.189-.322.284-.666.284-1.032v-1.195c-.065.064-.189.124-.374.181a6.18 6.18 0 0 1-.622.139l-.682.102-.556.073c-.35.044-.67.118-.96.223s-.515.256-.688.453-.253.451-.253.773c0 .446.165.784.495 1.014.33.225.75.338 1.261.338zm8.393-11.12v12.363h-1.805v-12.363h1.805zm8.302 8.518v-5.427h1.812v9.272h-1.775v-1.605h-.097c-.213.495-.555.907-1.026 1.237s-1.049.489-1.745.489c-.595 0-1.123-.131-1.582-.392s-.812-.658-1.074-1.177-.386-1.162-.386-1.926v-5.898h1.805v5.68c0 .632.175 1.135.525 1.51s.805.561 1.364.561c.338 0 .674-.084 1.008-.253a2.15 2.15 0 0 0 .839-.767c.221-.342.336-.777.332-1.304zm8.233 4.033c-.913 0-1.7-.196-2.36-.586a3.92 3.92 0 0 1-1.521-1.66c-.355-.717-.532-1.556-.532-2.518 0-.949.177-1.786.532-2.511s.857-1.29 1.497-1.696 1.396-.61 2.258-.61c.523 0 1.03.087 1.521.26a3.67 3.67 0 0 1 1.322.815c.39.37.698.851.924 1.442s.338 1.302.338 2.143v.64h-7.371v-1.352h5.602c0-.475-.097-.895-.29-1.262a2.19 2.19 0 0 0-.815-.875 2.28 2.28 0 0 0-1.219-.32c-.507 0-.95.125-1.328.374a2.51 2.51 0 0 0-.87.966c-.205.398-.302.823-.302 1.286v1.057c0 .619.109 1.147.326 1.581a2.36 2.36 0 0 0 .924.996c.394.226.855.338 1.382.338.343 0 .654-.048.936-.144a1.97 1.97 0 0 0 .731-.447c.206-.197.362-.441.471-.731l1.708.308c-.137.503-.382.944-.737 1.322s-.79.666-1.322.876-1.129.308-1.805.308zm12.93-7.196l-1.636.289c-.068-.209-.177-.408-.326-.597a1.65 1.65 0 0 0-.592-.465c-.25-.121-.561-.181-.935-.181-.512 0-.938.114-1.28.344s-.513.517-.513.875a.92.92 0 0 0 .344.749c.229.189.599.344 1.111.465l1.473.338c.853.197 1.489.501 1.907.911s.628.944.628 1.6a2.43 2.43 0 0 1-.483 1.485c-.318.431-.763.769-1.334 1.014s-1.226.369-1.974.369c-1.039 0-1.886-.222-2.542-.664s-1.058-1.081-1.207-1.902l1.745-.266c.108.455.332.799.67 1.033s.778.344 1.322.344c.591 0 1.064-.123 1.418-.369s.532-.553.532-.911a.95.95 0 0 0-.326-.731c-.214-.197-.542-.346-.984-.446l-1.57-.344c-.865-.198-1.505-.512-1.92-.942s-.615-.976-.615-1.636c0-.548.153-1.026.458-1.437s.729-.73 1.268-.96 1.157-.35 1.853-.35c1.003 0 1.791.217 2.367.652s.956 1.008 1.141 1.733z" fill="#0c0c0c"/><rect x="19.864" y="483.338" width="207.427" height="21" rx="10.5" fill="#f85550"/><path d="M101.9 498.338v-8.727h3.273c.67 0 1.233.116 1.687.349s.803.56 1.036.98.353.905.353 1.462-.119 1.045-.358 1.457-.583.726-1.044.95-1.025.333-1.696.333h-2.331v-1.313h2.118c.392 0 .713-.054.963-.162a1.14 1.14 0 0 0 .554-.481c.122-.213.183-.475.183-.784s-.061-.574-.183-.793a1.17 1.17 0 0 0-.558-.503c-.25-.116-.572-.174-.967-.174h-1.449v7.406H101.9zm4.508-3.955l2.161 3.955h-1.764l-2.122-3.955h1.725zm6.032 4.083c-.656 0-1.223-.137-1.7-.409s-.839-.665-1.095-1.168-.384-1.101-.384-1.785c0-.674.128-1.265.384-1.773a2.89 2.89 0 0 1 1.082-1.193c.463-.287 1.007-.431 1.632-.431.404 0 .784.066 1.142.196s.679.327.955.597.497.613.656 1.031.239.909.239 1.483v.473h-5.365v-1.04h3.886a1.66 1.66 0 0 0-.192-.788c-.125-.233-.299-.416-.524-.55s-.48-.2-.775-.2c-.316 0-.593.077-.831.23s-.425.349-.559.597-.197.512-.2.805v.908c0 .38.07.707.209.98a1.49 1.49 0 0 0 .584.622c.25.142.542.213.878.213.224 0 .427-.031.609-.094a1.34 1.34 0 0 0 .473-.285c.134-.125.234-.28.303-.465l1.44.162a2.24 2.24 0 0 1-.52.997c-.253.282-.577.5-.972.657s-.846.23-1.355.23zm7.531-6.674v1.194h-3.869v-1.194h3.869zm-2.902 6.546v-7.163c0-.441.091-.807.273-1.1s.432-.511.741-.656.654-.217 1.032-.217a3.6 3.6 0 0 1 .711.063l.461.116-.307 1.193a2.74 2.74 0 0 0-.247-.06 1.49 1.49 0 0 0-.333-.034c-.287 0-.49.07-.609.209s-.175.332-.175.588v7.061h-1.547zm4.11 0v-6.546h1.496v1.091h.068c.12-.377.324-.669.614-.873s.626-.311 1.001-.311l.286.012a1.99 1.99 0 0 1 .268.03v1.419c-.065-.022-.169-.042-.311-.059s-.274-.03-.405-.03a1.56 1.56 0 0 0-.758.183 1.34 1.34 0 0 0-.524.499 1.4 1.4 0 0 0-.192.737v3.848h-1.543zm7.386.128c-.656 0-1.223-.137-1.7-.409s-.839-.665-1.095-1.168-.384-1.101-.384-1.785c0-.674.128-1.265.384-1.773a2.89 2.89 0 0 1 1.082-1.193c.463-.287 1.007-.431 1.632-.431.404 0 .784.066 1.142.196s.679.327.955.597.497.613.656 1.031.239.909.239 1.483v.473h-5.365v-1.04h3.886a1.66 1.66 0 0 0-.192-.788c-.125-.233-.299-.416-.524-.55s-.48-.2-.775-.2c-.316 0-.593.077-.831.23s-.425.349-.559.597-.197.512-.2.805v.908c0 .38.07.707.209.98a1.49 1.49 0 0 0 .584.622c.25.142.542.213.878.213.224 0 .427-.031.609-.094a1.34 1.34 0 0 0 .473-.285c.134-.125.234-.28.303-.465l1.44.162a2.24 2.24 0 0 1-.52.997c-.253.282-.577.5-.972.657s-.846.23-1.355.23zm9.389-4.943l-1.406.153c-.04-.142-.109-.276-.209-.401s-.227-.225-.392-.302-.366-.115-.605-.115c-.321 0-.591.069-.81.209s-.322.319-.319.541a.56.56 0 0 0 .209.464c.144.12.383.218.715.294l1.117.239c.619.133 1.079.345 1.381.635s.457.669.46 1.138c-.003.412-.124.775-.362 1.091s-.564.556-.985.733-.903.264-1.449.264c-.801 0-1.446-.168-1.934-.503a2.02 2.02 0 0 1-.874-1.411l1.504-.145c.069.296.213.519.435.67s.51.225.865.225c.367 0 .661-.075.882-.225s.337-.337.337-.559c0-.187-.073-.342-.217-.464s-.364-.216-.665-.281l-1.117-.235c-.628-.131-1.092-.351-1.393-.66s-.45-.708-.448-1.185c-.002-.403.107-.753.328-1.048s.536-.529.934-.691.862-.247 1.385-.247c.767 0 1.37.164 1.811.49s.717.769.822 1.326zm2.955.98v3.835h-1.542v-8.727h1.508v3.294h.077a1.89 1.89 0 0 1 .712-.874c.324-.216.736-.324 1.236-.324.454 0 .85.095 1.188.286s.6.468.785.835.281.814.281 1.342v4.168h-1.543v-3.929c0-.44-.113-.783-.341-1.027s-.54-.371-.946-.371c-.273 0-.517.06-.733.179s-.38.286-.503.507-.179.49-.179.806z" fill="#fff"/><path d="M356.204 470.451c-5.003.004-9.828 1.857-13.547 5.204v-3.51c0-.45-.179-.88-.496-1.198a1.7 1.7 0 0 0-1.198-.496c-.449 0-.88.179-1.197.496a1.69 1.69 0 0 0-.496 1.198v5.08a5.08 5.08 0 0 0 5.08 5.08h5.08c.449 0 .88-.178 1.198-.496s.496-.748.496-1.197a1.7 1.7 0 0 0-1.694-1.694h-5.08a1.37 1.37 0 0 1-.169-.035 16.91 16.91 0 0 1 10.294-4.91c3.897-.395 7.81.574 11.071 2.742s5.669 5.402 6.812 9.148.951 7.773-.544 11.393-4.201 6.608-7.654 8.456a16.91 16.91 0 0 1-11.282 1.673c-3.841-.765-7.298-2.839-9.779-5.869s-3.835-6.827-3.829-10.744c0-.449-.179-.879-.496-1.197s-.749-.496-1.198-.496a1.69 1.69 0 0 0-1.693 1.693c0 4.02 1.192 7.949 3.425 11.29s5.406 5.947 9.119 7.485 7.8 1.94 11.742 1.156 7.562-2.719 10.404-5.561a20.32 20.32 0 0 0 4.406-22.146 20.33 20.33 0 0 0-7.485-9.12 20.32 20.32 0 0 0-11.29-3.425z" fill="#575757"/><defs><filter id="A" x="11" y="16.5" width="228" height="64" filterUnits="userSpaceOnUse" color-interpolation-filters="sRGB"><feFlood flood-opacity="0" result="A"/><feColorMatrix in="SourceAlpha" values="0 0 0 0 0 0 0 0 0 0 0 0 0 0 0 0 0 0 127 0" result="B"/><feMorphology radius="1" operator="dilate" in="SourceAlpha"/><feOffset dy="1"/><feGaussianBlur stdDeviation="2.5"/><feComposite in2="B" operator="out"/><feColorMatrix values="0 0 0 0 0 0 0 0 0 0 0 0 0 0 0 0 0 0 0.1 0"/><feBlend in2="A"/><feBlend in="SourceGraphic"/></filter><filter id="B" x="10" y="116.771" width="228" height="48.812" filterUnits="userSpaceOnUse" color-interpolation-filters="sRGB"><feFlood flood-opacity="0" result="A"/><feColorMatrix in="SourceAlpha" values="0 0 0 0 0 0 0 0 0 0 0 0 0 0 0 0 0 0 127 0" result="B"/><feMorphology radius="1" operator="dilate" in="SourceAlpha"/><feOffset dy="1"/><feGaussianBlur stdDeviation="2.5"/><feComposite in2="B" operator="out"/><feColorMatrix values="0 0 0 0 0 0 0 0 0 0 0 0 0 0 0 0 0 0 0.1 0"/><feBlend in2="A"/><feBlend in="SourceGraphic"/></filter><linearGradient id="C" x1="128" y1="0" x2="128" y2="533" href="#I"><stop stop-color="#2f67ff"/><stop offset="1" stop-color="#ff5f9b"/></linearGradient><linearGradient id="D" x1="249.563" y1="492.47" x2="306.204" y2="492.47" href="#I"><stop stop-color="#2f67ff"/><stop offset="1" stop-color="#c262b8"/></linearGradient><linearGradient id="E" x1="249.563" y1="138.456" x2="311.166" y2="138.456" href="#I"><stop stop-color="#2f67ff"/><stop offset="1" stop-color="#ff5f9b"/></linearGradient><linearGradient id="F" x1="356.204" y1="440.771" x2="356.204" y2="540.771" href="#I"><stop stop-color="#2f67ff"/><stop offset="1" stop-color="#ff5f9b"/></linearGradient><linearGradient id="G" x1="361.166" y1="89.178" x2="361.166" y2="189.178" href="#I"><stop stop-color="#2f67ff"/><stop offset="1" stop-color="#ff5f9b"/></linearGradient><path id="H" d="M37.372 62.025v.823"/><linearGradient id="I" gradientUnits="userSpaceOnUse"/></defs></svg>