<svg xmlns="http://www.w3.org/2000/svg" width="623" height="533" fill="none" xmlns:v="https://vecta.io/nano"><style><![CDATA[.B{fill:#b8b8b8}.C{fill:#fff}.D{fill:#0c0c0c}.E{fill:#575757}.F{stroke-width:.5}.G{fill:#f85550}.H{fill-rule:evenodd}.I{color-interpolation-filters:sRGB}]]></style><rect x=".25" y=".25" width="255.5" height="532.5" rx="9.75" stroke="url(#C)" class="C F"/><g filter="url(#A)" class="C"><rect x="22" y="25" width="213" height="51" rx="10"/></g><g stroke="#5a5c66" stroke-miterlimit="22.9256" class="F"><path d="M37.471 40.401h7.371c.194 0 .352.159.352.352v15.182l-.842 2.575c-.047.096-.148.142-.291.153l-.124.065-2.674.012-2.792-.01c-.035-.018-.029-.033-.068-.036-.236-.02-.34-.092-.371-.189l-.912-2.595v-2.892-12.263c0-.194.159-.352.352-.352h0z"/><path d="M37.681 40.401l1.435.724 4.131.004 1.435-.728-1.209.916s-.188.18-.445.163h-3.585s-.299.054-.569-.203l-1.192-.876z" stroke-linejoin="round"/><path d="M38.591 41.837l5.256.001 1.218-1.357m-6.796 1.6c0-.045-1.151-1.209-1.151-1.209m1.491.984l-1.369-1.369"/><path d="M44.155 42.081c0-.045 1.039-1.209 1.039-1.209m-6.927 15.063V42.138s-.056-.301.353-.301m5.532 14.098V42.138s.056-.301-.353-.301"/><path d="M37.118 53.056l1.149 2.82s.008.131.425.167 5.085 0 5.085 0 .332.004.409-.203l.99-2.798v.105l-.962 2.722s-.028.226-.323.243-5.089.018-5.089.018-.536.052-.589-.261l-1.095-2.786m1.306 5.615l1.087-1.705c.032-.06.092-.122.144-.163a.79.79 0 0 1 .488-.16h2.064c.075-.006.171.007.242.025a.82.82 0 0 1 .448.284l.003.003 1.102 1.711m-1.676.377h-.017m-2.224-.002h-.025"/><path d="M38.498 58.729l1.082-1.697s.143-.278.563-.283h2.068s.376-.032.625.28l1.094 1.699m-1.545.262h-.003m-2.377-.002h-.01m-1.728-3.052l-.246 2.542m.611-2.344l-.194 2.572m5.714-2.804l.23 2.516m-.531-2.303l.201 2.553m-5.461-16.831l.038 14.294m5.232-14.277l-.011 14.261"/><path d="M40.156 58.734h-.209v.144a.49.49 0 0 0 .194.255c.049.307.256.524 1.05.538.784.014.996-.215 1.049-.523.153-.108.209-.252.228-.413h-.241-2.072z"/><path d="M40.707 58.738v.552"/><use href="#J"/><use href="#J" x="0.145"/><use href="#J" x="0.289"/><use href="#J" x="0.434"/><use href="#J" x="0.579"/><use href="#J" x="0.724"/><use href="#J" x="0.868"/><path d="M42.48 58.734c-.049.331-.283.583-1.289.569s-1.239-.246-1.289-.569"/></g><path d="M57.879 48h1.465l2.547 6.219h.094L64.531 48h1.465v8h-1.148v-5.789h-.074l-2.359 5.777h-.953l-2.359-5.781h-.074V56h-1.148v-8zm10.712 0l1.914 3.129h.063L72.481 48h1.399l-2.492 4 2.508 4h-1.406l-1.922-3.086h-.062L68.583 56h-1.406l2.551-4-2.535-4h1.398zm6.209 6.438v-.977L78.257 48h.77v1.438h-.488l-2.473 3.914v.063h4.738v1.023H74.8zM78.593 56v-1.859l.008-.445V48h1.144v8h-1.152zm6.357.109c-.536 0-1.016-.093-1.437-.277a2.44 2.44 0 0 1-.996-.77c-.242-.331-.372-.714-.391-1.148h1.227c.016.237.095.443.238.617s.336.305.57.398.495.141.781.141c.315 0 .594-.055.836-.164s.436-.262.574-.457.207-.426.207-.684c0-.268-.069-.504-.207-.707s-.335-.367-.598-.484-.576-.176-.945-.176h-.676v-.984h.676c.297 0 .557-.053.781-.16a1.28 1.28 0 0 0 .531-.445c.128-.193.191-.418.191-.676 0-.247-.056-.462-.168-.645a1.13 1.13 0 0 0-.469-.434c-.201-.104-.437-.156-.711-.156-.26 0-.504.048-.73.145s-.406.229-.547.406-.216.384-.227.629h-1.168c.013-.432.141-.812.383-1.141s.568-.585.969-.77.846-.277 1.336-.277c.513 0 .956.1 1.328.301a2.19 2.19 0 0 1 .867.793 1.99 1.99 0 0 1 .305 1.086c.003.448-.122.828-.375 1.141s-.583.522-1 .629v.063c.531.081.943.292 1.234.633s.44.764.438 1.269c.003.44-.12.835-.367 1.184a2.5 2.5 0 0 1-1.004.824c-.425.198-.91.297-1.457.297zm4.137-1.672v-.977L92.544 48h.77v1.438h-.488l-2.473 3.914v.063h4.738v1.023h-6.004zM92.88 56v-1.859l.008-.445V48h1.145v8H92.88zm6.357.109c-.537 0-1.016-.093-1.437-.277a2.44 2.44 0 0 1-.996-.77c-.242-.331-.372-.714-.391-1.148h1.227c.016.237.095.443.238.617s.336.305.57.398.495.141.781.141c.315 0 .594-.055.835-.164s.437-.262.575-.457.207-.426.207-.684c0-.268-.069-.504-.207-.707s-.335-.367-.598-.484-.576-.176-.945-.176h-.676v-.984h.676c.297 0 .557-.053.781-.16a1.28 1.28 0 0 0 .531-.445c.128-.193.192-.418.192-.676 0-.247-.056-.462-.168-.645s-.266-.329-.469-.434-.437-.156-.711-.156c-.26 0-.504.048-.73.145s-.406.229-.547.406-.216.384-.227.629h-1.168c.013-.432.141-.812.383-1.141s.568-.585.969-.77.846-.277 1.336-.277c.513 0 .955.1 1.328.301s.664.462.867.793.307.693.305 1.086c.002.448-.123.828-.375 1.141a1.82 1.82 0 0 1-1 .629v.063c.531.081.942.292 1.234.633s.44.764.437 1.269a1.97 1.97 0 0 1-.367 1.184c-.245.349-.579.624-1.004.824s-.91.297-1.457.297z" class="G"/><path d="M159.406 48.805h-.968a2.03 2.03 0 0 0-.301-.734 2.01 2.01 0 0 0-.516-.531 2.18 2.18 0 0 0-.668-.328 2.67 2.67 0 0 0-.765-.109 2.44 2.44 0 0 0-1.317.367c-.391.245-.702.605-.933 1.082s-.344 1.061-.344 1.754.114 1.277.344 1.754.542.837.933 1.082a2.44 2.44 0 0 0 1.317.367c.265 0 .52-.036.765-.109s.468-.181.668-.324.375-.324.516-.535a2.07 2.07 0 0 0 .301-.734h.968c-.073.409-.205.775-.398 1.098s-.432.598-.719.824a3.14 3.14 0 0 1-.965.512c-.354.117-.733.176-1.136.176-.683 0-1.29-.167-1.821-.5s-.949-.807-1.254-1.422-.457-1.344-.457-2.187.153-1.573.457-2.187.723-1.089 1.254-1.422 1.138-.5 1.821-.5c.403 0 .782.059 1.136.176s.679.289.965.516.526.497.719.82.325.686.398 1.098zm3.878 5.625c-.541 0-1.017-.129-1.426-.387s-.724-.618-.953-1.082-.34-1.005-.34-1.625c0-.625.114-1.171.34-1.637s.547-.828.953-1.086.885-.387 1.426-.387 1.016.129 1.422.387a2.58 2.58 0 0 1 .953 1.086c.229.466.344 1.012.344 1.637 0 .62-.115 1.161-.344 1.625s-.544.824-.953 1.082-.88.387-1.422.387zm0-.828c.412 0 .75-.105 1.016-.316s.462-.488.59-.832a3.2 3.2 0 0 0 .191-1.117c0-.401-.064-.775-.191-1.121s-.325-.626-.59-.84-.604-.32-1.016-.32-.75.107-1.015.32-.463.493-.59.84a3.21 3.21 0 0 0-.192 1.121c0 .401.064.773.192 1.117s.324.621.59.832.604.316 1.015.316zm5.048-2.906v3.609h-.922v-6h.891v.938h.078c.141-.305.354-.549.641-.734s.656-.281 1.109-.281c.406 0 .762.083 1.066.25a1.68 1.68 0 0 1 .711.75c.17.333.254.755.254 1.266v3.813h-.922v-3.75c0-.471-.122-.839-.367-1.102s-.581-.398-1.008-.398a1.61 1.61 0 0 0-.789.191 1.37 1.37 0 0 0-.543.559c-.133.245-.199.542-.199.891zm6.435 0v3.609h-.922v-6h.89v.938h.078a1.72 1.72 0 0 1 .641-.734c.287-.187.656-.281 1.109-.281.407 0 .762.083 1.067.25a1.68 1.68 0 0 1 .711.75c.169.333.254.755.254 1.266v3.813h-.922v-3.75c0-.471-.123-.839-.367-1.102s-.581-.398-1.008-.398a1.61 1.61 0 0 0-.789.191 1.37 1.37 0 0 0-.543.559c-.133.245-.199.542-.199.891zm8.028 3.734c-.578 0-1.077-.128-1.496-.383a2.57 2.57 0 0 1-.965-1.078c-.224-.463-.336-1.003-.336-1.617s.112-1.156.336-1.625.542-.839.945-1.102.881-.398 1.422-.398c.313 0 .621.052.926.156a2.29 2.29 0 0 1 .832.508c.25.232.449.539.598.922s.222.854.222 1.414v.391h-4.625v-.797h3.688c0-.339-.068-.641-.203-.906a1.53 1.53 0 0 0-.571-.629c-.244-.154-.533-.231-.867-.231-.367 0-.685.091-.953.273s-.47.414-.613.703a2.07 2.07 0 0 0-.215.93v.531c0 .453.078.837.234 1.152s.379.551.66.715a1.94 1.94 0 0 0 .981.242c.242 0 .461-.034.656-.102s.369-.175.512-.312a1.42 1.42 0 0 0 .332-.523l.891.25a1.98 1.98 0 0 1-.473.797c-.221.227-.495.404-.82.531s-.692.188-1.098.188zm6.324 0c-.562 0-1.047-.133-1.453-.398s-.719-.631-.937-1.098-.329-.999-.329-1.598c0-.609.112-1.147.336-1.613s.542-.835.946-1.098.88-.398 1.422-.398a2.69 2.69 0 0 1 1.14.234 2.18 2.18 0 0 1 .832.656c.216.281.35.609.403.984h-.922c-.071-.273-.227-.516-.469-.727s-.563-.32-.969-.32a1.62 1.62 0 0 0-.945.281c-.268.185-.478.447-.629.785s-.223.73-.223 1.184c0 .464.073.867.219 1.211s.357.611.625.801.589.285.953.285c.24 0 .457-.042.652-.125a1.35 1.35 0 0 0 .497-.359 1.39 1.39 0 0 0 .289-.562h.922c-.053.354-.181.673-.387.957a2.16 2.16 0 0 1-.809.672c-.333.164-.721.246-1.164.246zm6.317-6.125v.781h-3.11v-.781h3.11zm-2.204-1.437h.922v5.719c0 .261.038.456.114.586s.177.213.296.258.252.063.387.063a1.63 1.63 0 0 0 .25-.016l.156-.031.188.828a1.9 1.9 0 0 1-.262.07 1.93 1.93 0 0 1-.426.039c-.26 0-.515-.056-.765-.168s-.453-.282-.617-.512-.243-.518-.243-.867v-5.969zm6.041 7.563c-.578 0-1.076-.128-1.496-.383s-.738-.617-.964-1.078-.336-1.003-.336-1.617.112-1.156.336-1.625.541-.839.945-1.102.88-.398 1.422-.398a2.84 2.84 0 0 1 .925.156c.305.104.583.273.833.508s.449.539.597.922.223.854.223 1.414v.391h-4.625v-.797h3.687a1.96 1.96 0 0 0-.203-.906c-.133-.266-.323-.475-.57-.629s-.534-.231-.867-.231c-.367 0-.685.091-.953.273s-.47.414-.614.703a2.07 2.07 0 0 0-.215.93v.531c0 .453.079.837.235 1.152s.379.551.66.715.608.242.98.242a2 2 0 0 0 .657-.102 1.4 1.4 0 0 0 .511-.312c.144-.141.254-.315.332-.523l.891.25a1.97 1.97 0 0 1-.473.797c-.221.227-.494.404-.82.531a3.04 3.04 0 0 1-1.098.188zm6.153 0c-.5 0-.942-.126-1.324-.379s-.683-.615-.899-1.078-.324-1.017-.324-1.652c0-.63.108-1.177.324-1.641s.517-.822.902-1.074.831-.379 1.336-.379c.391 0 .7.065.926.195s.404.273.524.438l.285.398h.078v-2.953h.922v8h-.891v-.922h-.109a6.01 6.01 0 0 1-.289.414c-.125.164-.304.311-.535.441s-.541.191-.926.191zm.125-.828c.37 0 .682-.096.937-.289s.45-.465.582-.809.2-.746.2-1.199c0-.448-.066-.84-.196-1.176s-.323-.602-.578-.789-.57-.285-.945-.285c-.391 0-.716.1-.977.301s-.452.467-.582.809-.191.719-.191 1.141c0 .427.065.815.195 1.164s.328.622.586.828.583.305.969.305z" class="B"/><ellipse cx="218.118" cy="51" rx="1.882" ry="2" fill="#53ee50" fill-opacity=".35"/><ellipse cx="218.162" cy="51" rx="1.103" ry="1" fill="#72cf70"/><path d="M29.438 105.5c-.086-.263-.199-.499-.34-.707s-.303-.391-.496-.539a2.07 2.07 0 0 0-.649-.34c-.242-.078-.508-.117-.797-.117a2.37 2.37 0 0 0-1.293.367c-.388.245-.697.606-.926 1.082s-.344 1.061-.344 1.754.116 1.277.348 1.754.546.837.941 1.082.841.367 1.336.367c.458 0 .862-.098 1.211-.293s.625-.476.82-.836.297-.788.297-1.277l.297.062h-2.406V107h3.047v.859c0 .659-.141 1.232-.422 1.719s-.664.865-1.156 1.133-1.052.398-1.687.398c-.708 0-1.331-.166-1.867-.5s-.951-.807-1.25-1.422-.445-1.343-.445-2.187c0-.633.085-1.202.254-1.707s.414-.94.727-1.297a3.17 3.17 0 0 1 1.109-.82 3.43 3.43 0 0 1 1.41-.285c.422 0 .815.063 1.18.191a3.16 3.16 0 0 1 .981.535c.289.229.53.504.723.824s.325.671.398 1.059h-1zm5.097 5.625c-.578 0-1.077-.128-1.496-.383a2.57 2.57 0 0 1-.965-1.078c-.224-.463-.336-1.003-.336-1.617s.112-1.156.336-1.625.542-.839.945-1.102.88-.398 1.422-.398a2.85 2.85 0 0 1 .926.156c.305.104.582.274.832.508a2.43 2.43 0 0 1 .598.922c.148.383.223.854.223 1.414v.39h-4.625v-.796h3.688a1.97 1.97 0 0 0-.203-.907c-.133-.265-.323-.475-.57-.629s-.534-.23-.867-.23c-.367 0-.685.091-.953.273s-.47.414-.613.704-.215.599-.215.929v.532c0 .453.078.837.234 1.152s.379.551.66.715.608.242.98.242c.242 0 .461-.034.656-.102a1.4 1.4 0 0 0 .512-.312 1.42 1.42 0 0 0 .332-.524l.891.25c-.094.302-.251.568-.473.797s-.495.404-.82.531a3.02 3.02 0 0 1-1.098.188zm4.809-3.734V111h-.922v-6h.891v.937h.078c.141-.304.354-.549.641-.734s.656-.281 1.109-.281c.406 0 .762.083 1.066.25s.542.414.711.75.254.755.254 1.266V111h-.922v-3.75c0-.471-.122-.839-.367-1.102s-.581-.398-1.008-.398c-.294 0-.557.064-.789.191a1.37 1.37 0 0 0-.543.559c-.133.245-.199.542-.199.891zm8.028 3.734c-.578 0-1.077-.128-1.496-.383a2.57 2.57 0 0 1-.965-1.078c-.224-.463-.336-1.003-.336-1.617s.112-1.156.336-1.625.542-.839.945-1.102.88-.398 1.422-.398a2.85 2.85 0 0 1 .926.156c.305.104.582.274.832.508s.449.539.598.922.223.854.223 1.414v.39h-4.625v-.796h3.688a1.97 1.97 0 0 0-.203-.907c-.133-.265-.323-.475-.57-.629s-.534-.23-.867-.23c-.367 0-.685.091-.953.273s-.47.414-.613.704-.215.599-.215.929v.532c0 .453.078.837.234 1.152s.379.551.66.715.608.242.98.242c.242 0 .461-.034.656-.102a1.4 1.4 0 0 0 .512-.312 1.42 1.42 0 0 0 .332-.524l.891.25c-.094.302-.251.568-.473.797a2.29 2.29 0 0 1-.82.531 3.02 3.02 0 0 1-1.098.188zm3.887-.125v-6h.891v.906h.063c.109-.297.307-.538.594-.722s.609-.278.969-.278l.254.004.231.012v.937c-.031-.007-.103-.019-.215-.035a2.14 2.14 0 0 0-.348-.027c-.292 0-.552.061-.781.183a1.39 1.39 0 0 0-.539.5c-.13.211-.195.452-.195.723V111h-.922zm5.858.141a2.44 2.44 0 0 1-1.035-.215 1.78 1.78 0 0 1-.738-.629c-.182-.276-.273-.61-.273-1 0-.344.068-.623.203-.836a1.44 1.44 0 0 1 .543-.508 2.87 2.87 0 0 1 .75-.273l.832-.149.887-.105c.229-.026.396-.069.5-.129s.16-.164.16-.313v-.031c0-.385-.105-.685-.316-.898s-.525-.321-.949-.321c-.44 0-.785.097-1.035.289s-.426.399-.527.618l-.875-.313c.156-.364.365-.648.625-.851s.55-.349.859-.43.62-.125.922-.125c.193 0 .414.023.664.07s.496.137.73.278.434.352.59.636.234.664.234 1.141V111h-.922v-.813h-.047c-.062.131-.167.27-.312.418s-.34.275-.582.379-.538.157-.887.157zm.141-.829c.365 0 .672-.071.922-.214s.443-.328.57-.555.195-.465.195-.715v-.844c-.039.047-.125.09-.258.129s-.281.069-.453.098l-.496.07-.387.047c-.24.031-.464.082-.672.152s-.372.171-.5.309-.187.32-.187.555c0 .32.118.562.355.726s.543.242.91.242zM62.471 103v8h-.922v-8h.922z" class="B"/><g clip-path="url(#E)" class="E"><path d="M41.625 130.667h-1.5v-.417c0-.689-.505-1.25-1.125-1.25s-1.125.561-1.125 1.25v.417h-1.5c-1.034 0-1.875.934-1.875 2.083v4.167c0 1.148.841 2.083 1.875 2.083h5.25c1.034 0 1.875-.935 1.875-2.083v-4.167c0-1.149-.841-2.083-1.875-2.083zm-3-.417c0-.23.168-.417.375-.417s.375.187.375.417v.831.419h-.75v-1.25h0zm4.125 6.667c0 .689-.505 1.25-1.125 1.25h-5.25c-.62 0-1.125-.561-1.125-1.25v-4.167c0-.689.505-1.25 1.125-1.25h1.5c0 .46.336.833.75.833h.75c.414 0 .75-.373.75-.833h1.5c.62 0 1.125.561 1.125 1.25v4.167zm-4.687-2.709c0-.575.42-1.041.938-1.041s.938.466.938 1.041-.42 1.042-.937 1.042-.937-.466-.937-1.042zm2.8 3.022c.052.222-.069.45-.27.507s-.405-.077-.457-.3c-.124-.534-.613-.937-1.137-.937s-1.013.403-1.137.937c-.044.188-.196.313-.363.313a.34.34 0 0 1-.094-.013c-.201-.057-.321-.285-.27-.507.21-.906.993-1.563 1.863-1.563s1.653.657 1.863 1.563h.001z"/></g><path d="M63.313 132v8h-.937l-4.359-6.281h-.078V140h-.969v-8h.937l4.375 6.297h.078V132h.953zm3.579 8.141c-.38 0-.725-.072-1.035-.215a1.78 1.78 0 0 1-.738-.629c-.182-.276-.273-.61-.273-1 0-.344.068-.623.203-.836a1.44 1.44 0 0 1 .543-.508 2.87 2.87 0 0 1 .75-.273l.832-.149.887-.105c.229-.026.396-.069.5-.129s.16-.164.16-.313v-.031c0-.385-.105-.685-.316-.898s-.525-.321-.949-.321c-.44 0-.785.097-1.035.289s-.426.399-.527.618l-.875-.313c.156-.364.365-.648.625-.851s.55-.349.859-.43.62-.125.922-.125c.193 0 .414.023.664.07s.496.137.731.278.434.352.59.636.234.664.234 1.141V140h-.922v-.813h-.047c-.062.131-.167.27-.312.418s-.34.275-.582.379-.538.157-.887.157zm.141-.829c.365 0 .672-.071.922-.214s.443-.328.57-.555.195-.465.195-.715v-.844c-.039.047-.125.09-.258.129s-.281.069-.453.098l-.496.07-.387.047c-.24.031-.464.082-.672.152s-.372.171-.5.309-.187.32-.187.555c0 .32.118.562.356.726s.543.242.91.242zm4.292.688v-6h.891v.937h.078a1.51 1.51 0 0 1 .605-.746c.279-.179.613-.269 1.004-.269.396 0 .725.09.988.269s.473.426.621.746h.063c.154-.309.384-.555.691-.738s.676-.277 1.105-.277c.537 0 .975.168 1.316.504s.512.853.512 1.558V140h-.922v-4.016c0-.442-.121-.759-.363-.949s-.527-.285-.856-.285c-.422 0-.749.128-.98.383s-.348.573-.348.961V140h-.937v-4.109c0-.342-.111-.616-.332-.825s-.506-.316-.855-.316a1.27 1.27 0 0 0-.672.191c-.206.128-.372.305-.5.532s-.187.483-.187.777V140h-.922zm12.076.125c-.578 0-1.077-.128-1.496-.383a2.57 2.57 0 0 1-.965-1.078c-.224-.463-.336-1.003-.336-1.617s.112-1.156.336-1.625.542-.839.945-1.102.88-.398 1.422-.398a2.85 2.85 0 0 1 .926.156c.305.104.582.274.832.508s.449.539.598.922.223.854.223 1.414v.39H81.26v-.796h3.688a1.97 1.97 0 0 0-.203-.907c-.133-.265-.323-.475-.57-.629s-.534-.23-.867-.23c-.367 0-.685.091-.953.273s-.47.414-.613.704-.215.599-.215.929v.532c0 .453.078.837.234 1.152s.379.551.66.715.608.242.981.242c.242 0 .461-.034.656-.102a1.4 1.4 0 0 0 .512-.312 1.42 1.42 0 0 0 .332-.524l.891.25c-.094.302-.251.568-.473.797a2.29 2.29 0 0 1-.82.531 3.02 3.02 0 0 1-1.098.188z" class="D"/><path d="M181.969 134h1.156l2.719 6.641h.094l2.718-6.641h1.157v8h-.907v-6.078h-.078l-2.5 6.078h-.875l-2.5-6.078h-.078V142h-.906v-8zm10.114 8h-1.016l2.938-8h1l2.937 8h-1.015l-2.391-6.734h-.062L192.083 142zm.375-3.125h4.094v.859h-4.094v-.859zm7.199-4.875l2.063 3.328h.062l2.063-3.328h1.14l-2.515 4 2.515 4h-1.14l-2.063-3.266h-.062L199.657 142h-1.14l2.578-4-2.578-4h1.14zm6.261 6.359v-.797l3.516-5.562h.578v1.234h-.391l-2.656 4.203v.063h4.734v.859h-5.781zm3.766 1.641v-1.883-.371V134h.921v8h-.921zm6.182.109c-.515 0-.975-.088-1.379-.265s-.72-.423-.957-.739-.362-.686-.383-1.105h.985c.021.258.109.48.265.668s.361.328.614.43a2.24 2.24 0 0 0 .84.152c.343 0 .648-.06.914-.18s.474-.286.625-.5a1.25 1.25 0 0 0 .226-.742 1.39 1.39 0 0 0-.219-.777c-.145-.227-.359-.404-.64-.531s-.625-.192-1.031-.192h-.641v-.859h.641a1.93 1.93 0 0 0 .836-.172 1.34 1.34 0 0 0 .566-.485c.138-.208.207-.453.207-.734 0-.271-.06-.506-.18-.707s-.289-.357-.508-.469-.471-.168-.765-.168c-.276 0-.537.051-.781.153s-.441.243-.594.433-.237.414-.25.68h-.938c.016-.419.142-.786.379-1.102a2.39 2.39 0 0 1 .93-.742c.385-.177.809-.265 1.269-.265.495 0 .92.1 1.274.3s.626.46.816.786.285.677.285 1.054c0 .451-.118.835-.355 1.153s-.553.537-.957.66v.062c.505.084.9.298 1.184.645s.425.769.425 1.277c0 .435-.118.826-.355 1.172a2.41 2.41 0 0 1-.961.812c-.406.198-.869.297-1.387.297zm4.113-1.75v-.797l3.516-5.562h.578v1.234h-.39l-2.657 4.203v.063h4.735v.859h-5.782zm3.766 1.641v-1.883-.371V134h.922v8h-.922zm6.183.109c-.516 0-.976-.088-1.379-.265s-.72-.423-.957-.739-.362-.686-.383-1.105h.984c.021.258.11.48.266.668a1.54 1.54 0 0 0 .613.43c.253.101.533.152.84.152.344 0 .649-.06.914-.18s.474-.286.625-.5.227-.461.227-.742a1.39 1.39 0 0 0-.219-.777c-.146-.227-.359-.404-.641-.531s-.625-.192-1.031-.192h-.641v-.859h.641c.318 0 .596-.058.836-.172a1.34 1.34 0 0 0 .566-.485c.138-.208.207-.453.207-.734a1.35 1.35 0 0 0-.179-.707c-.12-.2-.289-.357-.508-.469s-.471-.168-.766-.168a2.01 2.01 0 0 0-.781.153 1.46 1.46 0 0 0-.594.433c-.153.188-.237.414-.25.68h-.937c.015-.419.142-.786.379-1.102s.547-.565.929-.742a3.01 3.01 0 0 1 1.27-.265c.495 0 .919.1 1.273.3a2.11 2.11 0 0 1 .817.786c.19.325.285.677.285 1.054 0 .451-.119.835-.355 1.153s-.554.537-.958.66v.062c.506.084.9.298 1.184.645s.426.769.426 1.277c0 .435-.119.826-.356 1.172s-.554.615-.961.812-.868.297-1.386.297z" class="B"/><path stroke="#f2f2f2" d="M27 147.75h209" class="F"/><rect x="245" y="154" width="4" height="14" rx="2" fill="#d9d9d9"/><path d="M40.943 165h-3.886a1.6 1.6 0 0 1-.651-.138c-.204-.09-.386-.222-.532-.387a1.46 1.46 0 0 1-.312-.555c-.062-.204-.077-.419-.044-.629.209-1.097.815-2.086 1.711-2.791-.896-.705-1.502-1.695-1.711-2.791a1.43 1.43 0 0 1 .044-.63c.061-.204.168-.393.312-.554s.328-.297.532-.387a1.6 1.6 0 0 1 .651-.138h3.886a1.6 1.6 0 0 1 .651.138c.204.09.386.222.532.387s.251.35.312.554.077.419.044.629a4.68 4.68 0 0 1-1.715 2.792 4.68 4.68 0 0 1 1.713 2.793 1.43 1.43 0 0 1-.044.629c-.062.205-.168.394-.312.555s-.328.295-.532.385-.426.138-.65.138zm0-8.25h-3.886a.8.8 0 0 0-.327.069.77.77 0 0 0-.267.194.71.71 0 0 0-.156.272.7.7 0 0 0-.022.311c.146.938.748 1.815 1.789 2.609.046.035.083.08.109.131s.039.106.039.163-.013.112-.039.163-.063.096-.109.131c-1.041.795-1.641 1.673-1.789 2.61-.017.104-.009.21.021.311s.084.194.156.273a.77.77 0 0 0 .267.194.8.8 0 0 0 .327.069h3.886a.8.8 0 0 0 .327-.069.77.77 0 0 0 .267-.194c.072-.078.125-.171.156-.272s.038-.207.022-.31c-.145-.933-.747-1.811-1.789-2.611a.38.38 0 0 1-.108-.13c-.025-.051-.039-.107-.039-.163s.013-.112.039-.163.062-.095.108-.13c1.042-.8 1.644-1.679 1.789-2.612.016-.104.009-.21-.022-.311s-.085-.194-.157-.272-.164-.149-.266-.194a.81.81 0 0 0-.326-.069zm-.513 6.75h-2.863c-.064 0-.126-.015-.182-.044s-.104-.07-.14-.121a.37.37 0 0 1-.064-.171.36.36 0 0 1 .026-.179c.305-.634.768-1.185 1.35-1.602l.201-.155c.069-.053.154-.081.242-.081s.173.028.242.081l.198.152c.58.419 1.044.97 1.35 1.604.024.057.033.119.026.18s-.029.119-.064.17-.084.093-.14.122a.4.4 0 0 1-.183.044zm-2.196-.75h1.527c-.222-.279-.478-.531-.763-.75a4.29 4.29 0 0 0-.764.75z" class="E"/><path d="M56.969 167v-8h.969v3.562h4.266V159h.969v8h-.969v-3.578h-4.266V167h-.969zm10.533.125c-.578 0-1.077-.128-1.496-.383a2.57 2.57 0 0 1-.965-1.078c-.224-.463-.336-1.003-.336-1.617s.112-1.156.336-1.625.542-.839.945-1.102.88-.398 1.422-.398a2.85 2.85 0 0 1 .926.156c.305.104.582.274.832.508s.449.539.598.922.223.854.223 1.414v.39h-4.625v-.796h3.688a1.97 1.97 0 0 0-.203-.907c-.133-.265-.323-.475-.57-.629s-.534-.23-.867-.23c-.367 0-.685.091-.953.273s-.47.414-.613.704-.215.599-.215.929v.532c0 .453.078.837.234 1.152s.379.551.66.715.608.242.98.242c.242 0 .461-.034.656-.102a1.4 1.4 0 0 0 .512-.312 1.42 1.42 0 0 0 .332-.524l.891.25c-.094.302-.251.568-.473.797a2.29 2.29 0 0 1-.82.531 3.02 3.02 0 0 1-1.098.188zm5.652.016c-.38 0-.725-.072-1.035-.215a1.78 1.78 0 0 1-.738-.629c-.182-.276-.273-.61-.273-1 0-.344.068-.623.203-.836a1.44 1.44 0 0 1 .543-.508 2.87 2.87 0 0 1 .75-.273l.832-.149.887-.105c.229-.026.396-.069.5-.129s.16-.164.16-.313v-.031c0-.385-.105-.685-.316-.898s-.525-.321-.949-.321c-.44 0-.785.097-1.035.289s-.426.399-.527.618l-.875-.313c.156-.364.365-.648.625-.851s.549-.349.859-.43.62-.125.922-.125c.193 0 .414.023.664.07s.496.137.731.278.434.352.59.636.234.664.234 1.141V167h-.922v-.813h-.047a1.6 1.6 0 0 1-.312.418 1.79 1.79 0 0 1-.582.379c-.242.105-.538.157-.887.157zm.141-.829c.365 0 .672-.071.922-.214s.443-.328.57-.555.195-.465.195-.715v-.844c-.039.047-.125.09-.258.129s-.281.069-.453.098l-.496.07-.387.047c-.24.031-.464.082-.672.152s-.372.171-.5.309-.187.32-.187.555c0 .32.118.562.355.726s.543.242.91.242zm4.292.688v-6h.891v.906h.063c.109-.297.307-.538.594-.722s.609-.278.969-.278l.254.004.231.012v.937c-.031-.007-.103-.019-.215-.035a2.14 2.14 0 0 0-.348-.027c-.292 0-.552.061-.781.183a1.39 1.39 0 0 0-.539.5c-.13.211-.195.452-.195.723V167h-.922zm7.078-6v.781h-3.109V161h3.109zm-2.203-1.438h.922v5.719c0 .261.038.456.113.586s.177.214.297.258.251.062.387.062a1.7 1.7 0 0 0 .25-.015l.156-.031.188.828a1.88 1.88 0 0 1-.262.07 1.93 1.93 0 0 1-.426.039c-.26 0-.516-.056-.766-.168s-.453-.282-.617-.512-.242-.518-.242-.867v-5.969zM86.306 167v-8h.922v2.953h.078l.281-.398c.122-.164.297-.31.523-.438s.539-.195.93-.195c.505 0 .951.126 1.336.379s.686.61.902 1.074.324 1.01.324 1.641-.108 1.186-.324 1.652-.516.823-.898 1.078-.824.379-1.324.379c-.386 0-.694-.064-.926-.191s-.41-.278-.535-.442l-.289-.414h-.109V167h-.891zm.906-3c0 .453.066.853.199 1.199s.327.613.582.809.568.289.938.289c.385 0 .707-.102.965-.305s.456-.482.586-.828.199-.737.199-1.164a3.16 3.16 0 0 0-.195-1.141c-.128-.341-.322-.61-.582-.808s-.582-.301-.973-.301c-.375 0-.69.095-.945.285s-.448.451-.578.789-.195.728-.195 1.176zm8.316 3.125c-.578 0-1.077-.128-1.496-.383a2.57 2.57 0 0 1-.965-1.078c-.224-.463-.336-1.003-.336-1.617s.112-1.156.336-1.625.542-.839.945-1.102.88-.398 1.422-.398a2.85 2.85 0 0 1 .926.156c.305.104.582.274.832.508s.449.539.598.922.223.854.223 1.414v.39h-4.625v-.796h3.688a1.97 1.97 0 0 0-.203-.907c-.133-.265-.323-.475-.57-.629s-.534-.23-.867-.23c-.367 0-.685.091-.953.273s-.47.414-.613.704-.215.599-.215.929v.532c0 .453.078.837.234 1.152s.379.551.66.715.608.242.98.242c.242 0 .461-.034.656-.102a1.4 1.4 0 0 0 .512-.312 1.42 1.42 0 0 0 .332-.524l.891.25c-.094.302-.251.568-.473.797a2.29 2.29 0 0 1-.82.531 3.02 3.02 0 0 1-1.098.188zm5.653.016c-.381 0-.726-.072-1.035-.215a1.78 1.78 0 0 1-.739-.629c-.182-.276-.273-.61-.273-1 0-.344.068-.623.203-.836a1.44 1.44 0 0 1 .543-.508 2.86 2.86 0 0 1 .75-.273l.832-.149.887-.105c.229-.026.395-.069.5-.129s.16-.164.16-.313v-.031c0-.385-.106-.685-.317-.898s-.524-.321-.949-.321c-.44 0-.785.097-1.035.289s-.426.399-.527.618l-.875-.313c.156-.364.364-.648.625-.851s.549-.349.859-.43.62-.125.922-.125c.193 0 .414.023.664.07s.496.137.73.278.434.352.59.636.235.664.235 1.141V167h-.922v-.813h-.047c-.063.131-.167.27-.313.418s-.339.275-.582.379-.537.157-.886.157zm.14-.829c.365 0 .672-.071.922-.214s.443-.328.57-.555a1.41 1.41 0 0 0 .196-.715v-.844c-.039.047-.125.09-.258.129s-.281.069-.453.098l-.496.07-.387.047c-.24.031-.464.082-.672.152s-.372.171-.5.309-.187.32-.187.555c0 .32.118.562.355.726s.543.242.91.242zm6.902-5.312v.781h-3.11V161h3.11zm-2.203-1.438h.921v5.719c0 .261.038.456.114.586s.177.214.297.258a1.18 1.18 0 0 0 .386.062c.102 0 .185-.005.25-.015l.157-.031.187.828a1.87 1.87 0 0 1-.262.07c-.112.026-.254.039-.425.039-.261 0-.516-.056-.766-.168s-.453-.282-.617-.512-.242-.518-.242-.867v-5.969z" class="D"/><path d="M195.641 159v8h-.969v-6.984h-.047l-1.953 1.296v-.984l2-1.328h.969zm4.91 8.109c-.589 0-1.09-.16-1.504-.48s-.731-.79-.949-1.402-.328-1.357-.328-2.227.109-1.603.328-2.215.539-1.083.953-1.406.916-.488 1.5-.488 1.082.162 1.496.488.734.792.953 1.406.332 1.35.332 2.215-.109 1.612-.328 2.227-.535 1.079-.949 1.402-.916.48-1.504.48zm0-.859c.583 0 1.036-.281 1.359-.844s.485-1.364.485-2.406c0-.693-.075-1.283-.223-1.77s-.357-.858-.633-1.113-.603-.383-.988-.383c-.578 0-1.03.286-1.356.856s-.488 1.371-.488 2.41c0 .693.073 1.281.219 1.766s.355.852.629 1.105a1.42 1.42 0 0 0 .996.379zm7.375.75v-6h.89v.937h.079c.125-.32.326-.569.605-.746s.613-.269 1.004-.269c.396 0 .725.09.988.269s.473.426.621.746h.063c.153-.309.384-.555.691-.738s.676-.277 1.106-.277c.536 0 .975.168 1.316.504s.512.853.512 1.558V167h-.922v-4.016c0-.442-.121-.759-.363-.949s-.528-.285-.856-.285c-.422 0-.749.128-.98.383s-.348.573-.348.961V167h-.937v-4.109c0-.342-.111-.616-.332-.825s-.507-.316-.856-.316c-.24 0-.464.064-.672.191a1.45 1.45 0 0 0-.5.532c-.125.224-.187.483-.187.777V167h-.922zm9.56 0v-6h.922v6h-.922zm.469-7c-.18 0-.335-.061-.465-.184a.59.59 0 0 1-.191-.441.59.59 0 0 1 .191-.441c.13-.123.285-.184.465-.184a.64.64 0 0 1 .461.184c.13.122.195.269.195.441s-.065.319-.195.441a.64.64 0 0 1-.461.184zm3.064 3.391V167h-.922v-6h.89v.937h.078c.141-.304.355-.549.641-.734s.656-.281 1.109-.281c.407 0 .762.083 1.067.25a1.68 1.68 0 0 1 .711.75c.169.333.254.755.254 1.266V167h-.922v-3.75c0-.471-.123-.839-.367-1.102s-.581-.398-1.008-.398c-.294 0-.557.064-.789.191s-.41.314-.543.559-.199.542-.199.891zm9.762-1.047l-.828.234c-.052-.138-.129-.272-.23-.402a1.12 1.12 0 0 0-.407-.328c-.171-.086-.392-.129-.66-.129-.367 0-.673.084-.918.254s-.363.379-.363.636c0 .23.083.411.25.543s.427.244.781.332l.891.219c.536.13.936.33 1.199.598s.395.608.395 1.027c0 .344-.099.651-.297.922s-.469.484-.821.641-.76.234-1.226.234c-.612 0-1.119-.133-1.52-.398s-.655-.654-.761-1.165l.875-.218c.083.323.241.565.472.726s.541.242.918.242c.43 0 .771-.091 1.024-.273s.383-.406.383-.664c0-.208-.073-.383-.219-.523s-.37-.25-.672-.321l-1-.234c-.55-.13-.953-.332-1.211-.606s-.383-.621-.383-1.035c0-.338.095-.638.285-.898s.455-.465.785-.613a2.75 2.75 0 0 1 1.133-.223c.594 0 1.06.13 1.399.39a2.11 2.11 0 0 1 .726 1.032z" class="B"/><path stroke="#f2f2f2" d="M27 175.75h210" class="F"/><g clip-path="url(#F)" class="E"><path d="M39 183a4.99 4.99 0 0 0-3.333 1.28v-.863c0-.111-.044-.217-.122-.295s-.184-.122-.295-.122-.217.044-.295.122-.122.184-.122.295v1.25a1.25 1.25 0 0 0 1.25 1.25h1.25a.42.42 0 0 0 .295-.712c-.078-.078-.184-.122-.295-.122h-1.25l-.042-.008a4.16 4.16 0 0 1 5.257-.534c.802.534 1.395 1.329 1.676 2.251a4.16 4.16 0 0 1-2.017 4.884 4.16 4.16 0 0 1-2.776.412c-.945-.188-1.796-.699-2.406-1.445a4.16 4.16 0 0 1-.942-2.643.42.42 0 0 0-.122-.295c-.078-.078-.184-.122-.295-.122A.42.42 0 0 0 34 188a5 5 0 0 0 3.087 4.619c.914.379 1.919.478 2.889.285a5 5 0 0 0 2.56-1.368c.699-.7 1.175-1.591 1.368-2.561a4.99 4.99 0 0 0-.285-2.888c-.379-.913-1.019-1.695-1.841-2.244S39.989 183 39 183zm0 2.5a.42.42 0 0 0-.295.122c-.079.078-.122.184-.122.295V188a.42.42 0 0 0 .122.295l1.25 1.25c.079.075.184.117.293.117a.42.42 0 0 0 .296-.707l-1.128-1.127v-1.911c0-.111-.044-.217-.122-.295s-.184-.122-.295-.122z"/></g><path d="M56.969 194v-8h2.703c.625 0 1.138.107 1.539.32s.698.502.891.871.289.791.289 1.262-.096.889-.289 1.254-.488.651-.887.859-.907.309-1.527.309H57.5V190h2.156c.427 0 .771-.063 1.031-.188s.453-.302.57-.531.18-.508.18-.828-.06-.6-.18-.84-.311-.424-.574-.554-.611-.2-1.043-.2h-1.703V194h-.969zm3.766-3.594L62.703 194h-1.125l-1.937-3.594h1.094zm5.597 3.719c-.578 0-1.077-.128-1.496-.383a2.57 2.57 0 0 1-.965-1.078c-.224-.463-.336-1.003-.336-1.617s.112-1.156.336-1.625.542-.839.945-1.102.88-.398 1.422-.398a2.85 2.85 0 0 1 .926.156c.305.104.582.274.832.508s.449.539.598.922.223.854.223 1.414v.39H64.19v-.796h3.688a1.97 1.97 0 0 0-.203-.907c-.133-.265-.323-.475-.57-.629s-.534-.23-.867-.23c-.367 0-.685.091-.953.273s-.47.414-.613.704-.215.599-.215.929v.532c0 .453.078.837.234 1.152s.379.551.66.715.608.242.981.242c.242 0 .461-.034.656-.102a1.4 1.4 0 0 0 .512-.312 1.42 1.42 0 0 0 .332-.524l.891.25c-.094.302-.251.568-.473.797a2.29 2.29 0 0 1-.82.531 3.02 3.02 0 0 1-1.098.188zm3.887-.125v-6h.891v.937h.078c.125-.32.327-.569.606-.746s.613-.269 1.004-.269c.396 0 .725.09.988.269s.473.426.621.746h.063c.154-.309.384-.555.691-.738s.676-.277 1.105-.277c.537 0 .975.168 1.317.504s.512.853.512 1.558V194h-.922v-4.016c0-.442-.121-.759-.363-.949s-.527-.285-.855-.285c-.422 0-.749.128-.98.383s-.348.573-.348.961V194h-.937v-4.109a1.08 1.08 0 0 0-.332-.825c-.221-.211-.507-.316-.856-.316a1.27 1.27 0 0 0-.672.191 1.45 1.45 0 0 0-.5.532c-.125.224-.187.483-.187.777V194h-.922zm9.561 0v-6h.922v6h-.922zm.469-7c-.18 0-.335-.061-.465-.184s-.191-.269-.191-.441.064-.319.191-.441.285-.184.465-.184a.64.64 0 0 1 .461.184c.13.122.195.269.195.441s-.065.319-.195.441a.64.64 0 0 1-.461.184zm3.063 3.391V194h-.922v-6h.891v.937h.078c.141-.304.354-.549.641-.734s.656-.281 1.109-.281c.406 0 .762.083 1.066.25s.542.414.711.75.254.755.254 1.266V194h-.922v-3.75c0-.471-.122-.839-.367-1.102s-.581-.398-1.008-.398c-.294 0-.557.064-.789.191a1.37 1.37 0 0 0-.543.559c-.133.245-.199.542-.199.891zM88.823 194v-6h.922v6h-.922zm.469-7c-.18 0-.335-.061-.465-.184s-.191-.269-.191-.441.064-.319.191-.441.285-.184.465-.184a.64.64 0 0 1 .461.184c.13.122.195.269.195.441s-.065.319-.195.441a.64.64 0 0 1-.461.184zm6.392 2.344l-.828.234c-.052-.138-.129-.272-.231-.402s-.234-.242-.406-.328-.392-.129-.66-.129c-.367 0-.673.084-.918.254s-.363.379-.363.636c0 .23.083.411.25.543s.427.244.781.332l.891.219c.536.13.936.33 1.199.598s.395.608.395 1.027c0 .344-.099.651-.297.922s-.469.484-.82.641-.76.234-1.227.234c-.612 0-1.119-.133-1.52-.398s-.655-.654-.762-1.165l.875-.218c.083.323.241.565.473.726s.54.242.918.242c.43 0 .771-.091 1.023-.273s.383-.406.383-.664c0-.208-.073-.383-.219-.523s-.37-.25-.672-.321l-1-.234c-.55-.13-.953-.332-1.211-.606s-.383-.621-.383-1.035c0-.338.095-.638.285-.898s.454-.465.785-.613.711-.223 1.133-.223c.594 0 1.06.13 1.398.39a2.11 2.11 0 0 1 .727 1.032zm3.935 4.781c-.562 0-1.047-.133-1.453-.398a2.6 2.6 0 0 1-.937-1.098c-.219-.466-.328-.999-.328-1.598 0-.609.112-1.147.336-1.613s.542-.835.945-1.098.88-.398 1.422-.398c.421 0 .802.078 1.14.234a2.18 2.18 0 0 1 .832.656c.216.282.35.61.403.985h-.922c-.071-.274-.227-.516-.469-.727s-.563-.32-.969-.32c-.359 0-.674.094-.945.281s-.478.447-.629.785-.223.731-.223 1.184c0 .464.073.867.219 1.211s.357.611.625.801.589.285.953.285c.239 0 .457-.042.653-.125a1.34 1.34 0 0 0 .496-.36c.135-.156.231-.343.289-.562h.922c-.053.354-.181.673-.387.957s-.473.505-.809.672-.721.246-1.164.246zm6.223 0c-.578 0-1.077-.128-1.496-.383s-.739-.617-.965-1.078-.336-1.003-.336-1.617.112-1.156.336-1.625.542-.839.945-1.102.88-.398 1.422-.398a2.85 2.85 0 0 1 .926.156c.305.104.582.274.832.508s.449.539.598.922.222.854.222 1.414v.39H103.7v-.796h3.688c0-.339-.068-.641-.203-.907s-.323-.475-.571-.629-.534-.23-.867-.23c-.367 0-.685.091-.953.273a1.79 1.79 0 0 0-.613.704c-.144.289-.215.599-.215.929v.532c0 .453.078.837.234 1.152s.379.551.66.715.608.242.981.242c.242 0 .461-.034.656-.102a1.4 1.4 0 0 0 .512-.312 1.42 1.42 0 0 0 .332-.524l.89.25a1.97 1.97 0 0 1-.472.797c-.222.227-.495.404-.821.531s-.691.188-1.097.188z" class="D"/><g class="B"><path d="M24.297 231h-1.016l2.938-8h1l2.938 8h-1.016l-2.391-6.734h-.062L24.297 231zm.375-3.125h4.094v.859h-4.094v-.859zm8.871 3.25c-.5 0-.941-.126-1.324-.379s-.682-.614-.899-1.078-.324-1.017-.324-1.652.108-1.177.324-1.641.517-.822.902-1.074.831-.379 1.336-.379c.391 0 .699.065.926.195a1.6 1.6 0 0 1 .523.438l.285.398h.078V223h.922v8h-.891v-.922h-.109c-.068.109-.164.248-.289.414s-.303.311-.535.442-.54.191-.926.191zm.125-.828c.37 0 .682-.096.938-.289s.449-.465.582-.809.199-.746.199-1.199-.065-.84-.195-1.176-.323-.601-.578-.789-.57-.285-.945-.285c-.391 0-.716.1-.977.301a1.8 1.8 0 0 0-.582.808c-.128.339-.191.719-.191 1.141s.065.815.195 1.164.328.622.586.828.583.305.969.305zM43.016 225l-2.219 6h-.937l-2.219-6h1l1.656 4.781h.063L42.016 225h1zm2.8 6.141a2.44 2.44 0 0 1-1.035-.215 1.78 1.78 0 0 1-.738-.629c-.182-.276-.273-.61-.273-1 0-.344.068-.623.203-.836a1.44 1.44 0 0 1 .543-.508 2.87 2.87 0 0 1 .75-.273l.832-.149.887-.105c.229-.026.396-.069.5-.129s.16-.164.16-.313v-.031c0-.385-.105-.685-.316-.898s-.525-.321-.949-.321c-.44 0-.785.097-1.035.289s-.426.399-.527.618l-.875-.313c.156-.364.365-.648.625-.851s.55-.349.859-.43.62-.125.922-.125c.193 0 .414.023.664.07s.496.137.73.278.434.352.59.636.234.664.234 1.141V231h-.922v-.813h-.047c-.062.131-.167.27-.312.418s-.34.275-.582.379-.538.157-.887.157zm.141-.829c.364 0 .672-.071.922-.214s.443-.328.57-.555.195-.465.195-.715v-.844c-.039.047-.125.09-.258.129s-.281.069-.453.098l-.496.07-.387.047c-.24.031-.463.082-.672.152s-.372.171-.5.309-.187.32-.187.555c0 .32.119.562.356.726s.543.242.91.242zm5.214-2.921V231h-.922v-6h.891v.937h.078c.141-.304.354-.549.641-.734s.656-.281 1.109-.281c.406 0 .762.083 1.066.25s.542.414.711.75.254.755.254 1.266V231h-.922v-3.75c0-.471-.122-.839-.367-1.102s-.581-.398-1.008-.398c-.294 0-.557.064-.789.191s-.41.314-.543.559-.199.542-.199.891zm7.95 3.734c-.562 0-1.047-.133-1.453-.398a2.6 2.6 0 0 1-.937-1.098c-.219-.466-.328-.999-.328-1.598 0-.609.112-1.147.336-1.613s.542-.835.945-1.098.88-.398 1.422-.398c.422 0 .802.078 1.141.234s.616.375.832.656a2.05 2.05 0 0 1 .402.985h-.922c-.07-.274-.227-.516-.469-.727s-.562-.32-.969-.32c-.359 0-.675.094-.945.281s-.478.447-.629.785-.223.731-.223 1.184c0 .464.073.867.219 1.211s.357.611.625.801.588.285.953.285c.24 0 .457-.042.652-.125s.361-.203.496-.36.232-.343.289-.562h.922c-.052.354-.181.673-.387.957s-.473.505-.809.672-.721.246-1.164.246zm6.223 0c-.578 0-1.077-.128-1.496-.383a2.57 2.57 0 0 1-.965-1.078c-.224-.463-.336-1.003-.336-1.617s.112-1.156.336-1.625.542-.839.945-1.102.88-.398 1.422-.398a2.85 2.85 0 0 1 .926.156c.305.104.582.274.832.508a2.43 2.43 0 0 1 .598.922c.148.383.223.854.223 1.414v.39h-4.625v-.796h3.688a1.97 1.97 0 0 0-.203-.907c-.133-.265-.323-.475-.57-.629s-.534-.23-.867-.23c-.367 0-.685.091-.953.273s-.47.414-.613.704-.215.599-.215.929v.532c0 .453.078.837.234 1.152s.379.551.66.715.608.242.98.242c.242 0 .461-.034.656-.102a1.4 1.4 0 0 0 .512-.312 1.42 1.42 0 0 0 .332-.524l.891.25c-.094.302-.251.568-.473.797s-.495.404-.82.531a3.02 3.02 0 0 1-1.098.188zm6.152 0c-.5 0-.941-.126-1.324-.379s-.682-.614-.898-1.078-.324-1.017-.324-1.652.108-1.177.324-1.641.517-.822.902-1.074.831-.379 1.336-.379c.391 0 .699.065.926.195s.404.274.523.438l.285.398h.078V223h.922v8h-.891v-.922h-.109a5.84 5.84 0 0 1-.289.414c-.125.164-.303.311-.535.442s-.54.191-.926.191zm.125-.828c.37 0 .682-.096.938-.289s.449-.465.582-.809.199-.746.199-1.199-.065-.84-.195-1.176-.323-.601-.578-.789-.57-.285-.945-.285c-.391 0-.716.1-.976.301s-.452.467-.582.808-.191.719-.191 1.141.065.815.195 1.164.328.622.586.828.583.305.969.305z"/><use href="#K"/><use href="#K" y="68.5"/></g><g clip-path="url(#G)" class="E"><path d="M39 252a2.61 2.61 0 0 0-1.296.337c-.383.22-.683.532-.859.898a1.74 1.74 0 0 0-.133 1.155c.09.388.312.745.639 1.024a2.48 2.48 0 0 0 1.195.548 2.7 2.7 0 0 0 1.348-.114 2.29 2.29 0 0 0 1.047-.737c.256-.329.393-.715.393-1.111 0-.53-.246-1.039-.684-1.414S39.619 252 39 252zm0 3a1.31 1.31 0 0 1-.648-.169c-.192-.109-.341-.266-.43-.448a.87.87 0 0 1-.066-.578c.045-.194.156-.372.319-.512a1.24 1.24 0 0 1 .597-.274 1.35 1.35 0 0 1 .674.057 1.15 1.15 0 0 1 .524.368c.128.165.197.358.197.556 0 .265-.123.52-.342.707A1.27 1.27 0 0 1 39 255zm5.422-.05l-.259-.128a3.91 3.91 0 0 0 0-1.645l.259-.128a1.7 1.7 0 0 0 .514-.386 1.43 1.43 0 0 0 .302-.525c.06-.19.075-.389.045-.584a1.38 1.38 0 0 0-.219-.555c-.114-.171-.268-.32-.45-.44s-.391-.208-.613-.26-.454-.064-.682-.038-.448.09-.647.188l-.26.129a5.47 5.47 0 0 0-1.662-.821v-.257c0-.398-.184-.779-.513-1.061A1.91 1.91 0 0 0 39 248a1.91 1.91 0 0 0-1.237.439c-.328.282-.513.663-.513 1.061v.257a5.51 5.51 0 0 0-1.661.822l-.261-.129a2.01 2.01 0 0 0-1.329-.15c-.449.104-.831.355-1.063.7s-.295.754-.175 1.139.414.712.816.911l.259.128a3.91 3.91 0 0 0 0 1.645l-.259.128c-.402.199-.696.527-.816.911s-.058.794.175 1.139.614.596 1.063.7a2.01 2.01 0 0 0 1.329-.15l.26-.129c.491.36 1.054.638 1.663.821v.257c0 .398.184.779.513 1.061A1.91 1.91 0 0 0 39 260a1.91 1.91 0 0 0 1.237-.439c.328-.282.513-.663.513-1.061v-.257a5.49 5.49 0 0 0 1.661-.823l.261.13c.402.198.88.252 1.329.149s.831-.355 1.063-.699.295-.755.175-1.139-.414-.713-.816-.911h-.001zm-1.486-1.888a3.04 3.04 0 0 1 0 1.875.43.43 0 0 0 .022.323c.049.103.136.188.248.243l.632.314c.134.066.232.175.272.303a.44.44 0 0 1-.058.38.58.58 0 0 1-.354.233c-.149.034-.309.016-.443-.05l-.634-.314a.66.66 0 0 0-.371-.063.63.63 0 0 0-.338.145c-.519.455-1.173.779-1.892.938a.6.6 0 0 0-.316.178.46.46 0 0 0-.122.306v.627c0 .133-.061.26-.171.354A.64.64 0 0 1 39 259a.64.64 0 0 1-.413-.146.47.47 0 0 1-.171-.354v-.626a.46.46 0 0 0-.122-.307c-.079-.088-.19-.15-.316-.178-.718-.159-1.372-.484-1.891-.939a.63.63 0 0 0-.338-.145.66.66 0 0 0-.371.063l-.632.313a.66.66 0 0 1-.216.064.67.67 0 0 1-.228-.012.63.63 0 0 1-.205-.086c-.061-.04-.112-.09-.151-.147a.45.45 0 0 1-.073-.186.43.43 0 0 1 .015-.195c.02-.064.055-.124.102-.176s.106-.095.173-.128l.632-.313a.53.53 0 0 0 .248-.244.43.43 0 0 0 .022-.322 3.04 3.04 0 0 1 0-1.875c.034-.107.026-.22-.023-.322a.53.53 0 0 0-.248-.243l-.632-.313a.52.52 0 0 1-.272-.304.44.44 0 0 1 .058-.379.58.58 0 0 1 .354-.233.67.67 0 0 1 .443.049l.634.315a.67.67 0 0 0 .37.063c.128-.015.247-.065.338-.144.519-.454 1.173-.778 1.892-.938a.59.59 0 0 0 .316-.178.46.46 0 0 0 .122-.308v-.626c0-.133.061-.26.171-.354A.64.64 0 0 1 39 249a.64.64 0 0 1 .413.146.47.47 0 0 1 .171.354v.626a.46.46 0 0 0 .122.307c.079.087.19.15.316.178.719.159 1.373.484 1.892.939.091.079.209.13.338.145a.66.66 0 0 0 .371-.063l.632-.313a.66.66 0 0 1 .216-.064.67.67 0 0 1 .228.012.63.63 0 0 1 .205.086c.061.04.112.09.151.147a.45.45 0 0 1 .073.186.43.43 0 0 1-.015.195c-.02.063-.055.124-.102.176s-.106.095-.173.128l-.632.313c-.111.055-.198.141-.247.243a.43.43 0 0 0-.023.321h0z"/></g><path d="M56.969 260v-8h.969v7.141h3.719V260h-4.687zm8.5.125c-.542 0-1.017-.129-1.426-.387s-.724-.618-.953-1.082-.34-1.005-.34-1.625.113-1.17.34-1.636.547-.829.953-1.086.884-.387 1.426-.387 1.016.129 1.422.387.727.619.953 1.086.344 1.011.344 1.636-.115 1.162-.344 1.625a2.59 2.59 0 0 1-.953 1.082c-.406.258-.88.387-1.422.387zm0-.828c.411 0 .75-.106 1.016-.317s.462-.488.59-.832.191-.716.191-1.117a3.22 3.22 0 0 0-.191-1.121c-.128-.346-.324-.626-.59-.84s-.604-.32-1.016-.32-.75.107-1.016.32-.462.494-.59.84a3.22 3.22 0 0 0-.191 1.121c0 .401.064.774.191 1.117s.324.622.59.832.604.317 1.016.317zm4.251.703v-8h2.703c.625 0 1.138.107 1.539.32s.698.502.891.871.289.791.289 1.262-.096.889-.289 1.254-.488.651-.887.859-.907.309-1.527.309h-2.187V256h2.156c.427 0 .771-.063 1.031-.188s.453-.302.57-.531.18-.508.18-.828-.06-.6-.18-.84-.311-.424-.574-.554-.611-.2-1.043-.2h-1.703V260h-.969zm3.766-3.594L75.454 260h-1.125l-1.937-3.594h1.094zm4.911 3.735c-.38 0-.725-.072-1.035-.215a1.78 1.78 0 0 1-.738-.629c-.182-.276-.273-.61-.273-1 0-.344.068-.623.203-.836a1.44 1.44 0 0 1 .543-.508 2.87 2.87 0 0 1 .75-.273l.832-.149.887-.105c.229-.026.396-.069.5-.129s.16-.164.16-.313v-.031c0-.385-.105-.685-.316-.898s-.525-.321-.949-.321c-.44 0-.785.097-1.035.289s-.426.399-.527.618l-.875-.313c.156-.364.365-.648.625-.851s.549-.349.859-.43.62-.125.922-.125a3.64 3.64 0 0 1 .664.07c.253.044.496.137.73.278s.434.352.59.636.234.664.234 1.141V260h-.922v-.813h-.047a1.6 1.6 0 0 1-.312.418 1.79 1.79 0 0 1-.582.379c-.242.105-.538.157-.887.157zm.141-.829c.365 0 .672-.071.922-.214s.443-.328.57-.555.195-.465.195-.715v-.844c-.039.047-.125.09-.258.129s-.281.069-.453.098l-.496.07-.387.047c-.24.031-.464.082-.672.152s-.372.171-.5.309-.187.32-.187.555c0 .32.118.562.355.726s.543.242.91.242zm5.312.688l-2.187-8h.984l1.672 6.516h.078L86.099 252h1.094l1.703 6.516h.078L90.646 252h.984l-2.187 8h-1l-1.766-6.375h-.062L84.849 260h-1zm8.693 0h-1.016l2.938-8h1l2.938 8h-1.016l-2.391-6.734h-.062L92.542 260zm.375-3.125h4.094v.859h-4.094v-.859zM105.991 252v8h-.937l-4.36-6.281h-.078V260h-.969v-8h.938l4.375 6.297h.078V252h.953zm9.407 2c-.046-.396-.237-.703-.57-.922s-.742-.328-1.226-.328c-.355 0-.664.057-.93.172s-.469.272-.617.473a1.13 1.13 0 0 0-.219.683.98.98 0 0 0 .152.551 1.35 1.35 0 0 0 .399.379 2.8 2.8 0 0 0 .508.246l.488.152.812.219c.209.055.44.13.696.227a3.19 3.19 0 0 1 .738.394 2.01 2.01 0 0 1 .586.633c.153.258.23.574.23.949 0 .432-.113.823-.34 1.172s-.552.626-.984.832-.952.309-1.566.309c-.573 0-1.069-.093-1.489-.278s-.744-.442-.984-.773-.371-.715-.402-1.152h1c.026.302.127.552.304.749s.407.342.68.438.573.141.891.141c.369 0 .702-.06.996-.18a1.71 1.71 0 0 0 .699-.508c.172-.219.258-.474.258-.766 0-.265-.074-.481-.223-.648s-.344-.302-.586-.406-.504-.196-.785-.274l-.984-.281c-.625-.18-1.12-.436-1.485-.769s-.547-.77-.547-1.309c0-.448.122-.839.364-1.172s.573-.596.984-.781.876-.281 1.387-.281.974.092 1.375.277a2.37 2.37 0 0 1 .953.75c.237.318.362.678.375 1.082h-.938zm5.031 6.125c-.578 0-1.077-.128-1.496-.383s-.739-.617-.965-1.078-.336-1.003-.336-1.617.112-1.156.336-1.625.541-.839.945-1.102.88-.398 1.422-.398c.312 0 .621.052.926.156s.582.274.832.508.449.539.597.922.223.854.223 1.414v.39h-4.625v-.796h3.688c0-.339-.068-.641-.204-.907s-.322-.475-.57-.629-.534-.23-.867-.23c-.367 0-.685.091-.953.273a1.79 1.79 0 0 0-.613.704c-.144.289-.215.599-.215.929v.532c0 .453.078.837.234 1.152s.379.551.66.715.608.242.981.242c.242 0 .461-.034.656-.102s.368-.174.512-.312a1.42 1.42 0 0 0 .332-.524l.89.25a1.97 1.97 0 0 1-.472.797c-.222.227-.495.404-.821.531s-.691.188-1.097.188zm6.496-6.125v.781h-3.11V254h3.11zm-2.203-1.438h.922v5.719c0 .261.037.456.113.586s.177.214.297.258a1.18 1.18 0 0 0 .386.062c.102 0 .185-.005.25-.015l.157-.031.187.828a1.87 1.87 0 0 1-.262.07 1.92 1.92 0 0 1-.425.039c-.261 0-.516-.056-.766-.168s-.453-.282-.617-.512-.242-.518-.242-.867v-5.969zm6.199 1.438v.781h-3.109V254h3.109zm-2.203-1.438h.922v5.719c0 .261.037.456.113.586s.177.214.297.258a1.18 1.18 0 0 0 .387.062c.101 0 .184-.005.25-.015l.156-.031.187.828a1.85 1.85 0 0 1-.261.07 1.93 1.93 0 0 1-.426.039c-.261 0-.516-.056-.766-.168s-.453-.282-.617-.512-.242-.518-.242-.867v-5.969zm3.59 7.438v-6h.921v6h-.921zm.468-7a.65.65 0 0 1-.464-.184c-.128-.122-.192-.269-.192-.441s.064-.319.192-.441a.65.65 0 0 1 .464-.184.64.64 0 0 1 .461.184.58.58 0 0 1 .196.441.58.58 0 0 1-.196.441.64.64 0 0 1-.461.184zm3.064 3.391V260h-.922v-6h.891v.937h.078c.14-.304.354-.549.64-.734s.657-.281 1.11-.281c.406 0 .761.083 1.066.25a1.68 1.68 0 0 1 .711.75c.169.333.254.755.254 1.266V260h-.922v-3.75c0-.471-.122-.839-.367-1.102s-.581-.398-1.008-.398c-.294 0-.557.064-.789.191s-.41.314-.543.559-.199.542-.199.891zm7.934 5.984c-.445 0-.828-.057-1.148-.172s-.587-.26-.801-.445-.379-.378-.504-.586l.735-.516c.083.11.188.235.316.375s.302.267.524.371.516.16.878.16c.485 0 .885-.117 1.2-.351s.472-.602.472-1.102v-1.218h-.078c-.068.109-.164.244-.289.406a1.63 1.63 0 0 1-.531.426c-.229.122-.539.183-.93.183-.484 0-.919-.114-1.305-.343s-.686-.563-.91-1.001-.332-.968-.332-1.593c0-.615.108-1.15.325-1.606s.516-.812.902-1.062.831-.379 1.336-.379c.39 0 .7.065.929.195s.409.274.532.438l.289.398h.094V254h.89v6.172c0 .516-.117.935-.351 1.258s-.545.563-.938.715a3.55 3.55 0 0 1-1.305.23zm-.031-3.297c.37 0 .682-.085.938-.254s.449-.413.582-.73.199-.698.199-1.141c0-.432-.065-.814-.195-1.144s-.323-.59-.579-.778-.57-.281-.945-.281c-.39 0-.716.099-.976.297s-.452.463-.582.797a3.07 3.07 0 0 0-.192 1.109c0 .417.065.785.195 1.106s.329.567.586.75.584.269.969.269zm8.563-3.734l-.828.234a1.55 1.55 0 0 0-.231-.402c-.099-.133-.234-.242-.406-.328s-.392-.129-.66-.129c-.368 0-.674.084-.918.254s-.364.379-.364.636c0 .23.084.411.25.543s.427.244.782.332l.89.219c.537.13.936.33 1.2.598s.394.608.394 1.027c0 .344-.099.651-.297.922s-.469.484-.82.641-.761.234-1.227.234c-.612 0-1.118-.133-1.519-.398s-.655-.654-.762-1.165l.875-.218c.083.323.241.565.473.726s.54.242.918.242c.429 0 .77-.091 1.023-.273s.383-.406.383-.664c0-.208-.073-.383-.219-.523s-.37-.25-.672-.321l-1-.234c-.549-.13-.953-.332-1.211-.606s-.382-.621-.382-1.035c0-.338.095-.638.285-.898s.454-.465.785-.613.711-.223 1.133-.223c.593 0 1.06.13 1.398.39s.583.605.727 1.032z" class="D"/><path d="M28.344 294c-.047-.396-.237-.703-.57-.922s-.742-.328-1.226-.328c-.354 0-.664.057-.93.172s-.469.272-.617.473a1.13 1.13 0 0 0-.219.683c0 .214.051.397.152.551a1.36 1.36 0 0 0 .398.379 2.85 2.85 0 0 0 .508.246l.488.152.813.219a7 7 0 0 1 .695.227 3.18 3.18 0 0 1 .738.394c.237.164.432.375.586.633s.23.574.23.949c0 .432-.113.823-.34 1.172s-.552.626-.984.832-.952.309-1.566.309c-.573 0-1.069-.093-1.488-.278a2.37 2.37 0 0 1-.984-.773c-.237-.331-.371-.715-.402-1.152h1c.026.302.128.552.305.749a1.64 1.64 0 0 0 .68.438c.276.094.573.141.891.141.37 0 .702-.06.996-.18s.527-.292.699-.508.258-.474.258-.766c0-.265-.074-.481-.223-.648s-.344-.302-.586-.406-.504-.196-.785-.274l-.984-.281c-.625-.18-1.12-.436-1.484-.769s-.547-.77-.547-1.309a1.94 1.94 0 0 1 .363-1.172c.245-.336.573-.596.984-.781s.876-.281 1.387-.281c.516 0 .974.092 1.375.277s.719.432.953.75a1.87 1.87 0 0 1 .375 1.082h-.937zm5.03 6.125c-.578 0-1.077-.128-1.496-.383a2.57 2.57 0 0 1-.965-1.078c-.224-.463-.336-1.003-.336-1.617s.112-1.156.336-1.625.542-.839.945-1.102.88-.398 1.422-.398a2.85 2.85 0 0 1 .926.156c.305.104.582.274.832.508s.449.539.598.922.223.854.223 1.414v.39h-4.625v-.796h3.688a1.97 1.97 0 0 0-.203-.907c-.133-.265-.323-.475-.57-.629s-.534-.23-.867-.23c-.367 0-.685.091-.953.273s-.47.414-.613.704-.215.599-.215.929v.532c0 .453.078.837.234 1.152s.379.551.66.715.608.242.98.242c.242 0 .461-.034.656-.102a1.4 1.4 0 0 0 .512-.312 1.42 1.42 0 0 0 .332-.524l.891.25c-.094.302-.251.568-.473.797a2.29 2.29 0 0 1-.82.531 3.02 3.02 0 0 1-1.098.188zm4.809-3.734V300h-.922v-6h.891v.937h.078c.141-.304.354-.549.641-.734s.656-.281 1.109-.281c.406 0 .762.083 1.066.25s.542.414.711.75.254.755.254 1.266V300h-.922v-3.75c0-.471-.122-.839-.367-1.102s-.581-.398-1.008-.398c-.294 0-.557.064-.789.191a1.37 1.37 0 0 0-.543.559c-.133.245-.199.542-.199.891zm9.763-1.047l-.828.234c-.052-.138-.129-.272-.23-.402s-.234-.242-.406-.328-.392-.129-.66-.129c-.367 0-.673.084-.918.254s-.363.379-.363.636c0 .23.083.411.25.543s.427.244.781.332l.891.219c.536.13.936.33 1.199.598s.394.608.394 1.027c0 .344-.099.651-.297.922s-.469.484-.82.641-.76.234-1.227.234c-.612 0-1.119-.133-1.52-.398s-.655-.654-.762-1.165l.875-.218c.083.323.241.565.473.726s.54.242.918.242c.43 0 .771-.091 1.023-.273s.383-.406.383-.664c0-.208-.073-.383-.219-.523s-.37-.25-.672-.321l-1-.234c-.549-.13-.953-.332-1.211-.606s-.383-.621-.383-1.035c0-.338.095-.638.285-.898s.455-.465.785-.613.711-.223 1.133-.223c.594 0 1.06.13 1.398.39a2.11 2.11 0 0 1 .727 1.032zm3.935 4.781c-.542 0-1.017-.129-1.426-.387s-.724-.618-.953-1.082-.34-1.005-.34-1.625.113-1.17.34-1.636.547-.829.953-1.086.884-.387 1.426-.387 1.016.129 1.422.387.727.619.953 1.086.344 1.011.344 1.636-.115 1.162-.344 1.625a2.59 2.59 0 0 1-.953 1.082c-.406.258-.88.387-1.422.387zm0-.828c.411 0 .75-.106 1.016-.317a1.86 1.86 0 0 0 .59-.832c.128-.343.191-.716.191-1.117a3.22 3.22 0 0 0-.191-1.121c-.128-.346-.324-.626-.59-.84s-.604-.32-1.016-.32-.75.107-1.016.32-.462.494-.59.84a3.22 3.22 0 0 0-.191 1.121c0 .401.064.774.191 1.117s.324.622.59.832.604.317 1.016.317zm4.126.703v-6h.891v.906h.063c.109-.297.307-.538.594-.722s.609-.278.969-.278l.254.004.23.012v.937c-.031-.007-.103-.019-.215-.035a2.14 2.14 0 0 0-.348-.027c-.292 0-.552.061-.781.183a1.39 1.39 0 0 0-.539.5c-.13.211-.195.452-.195.723V300h-.922zm9.78 0h-2.469v-8h2.578c.776 0 1.44.16 1.992.48s.975.775 1.27 1.372.441 1.304.441 2.132c0 .834-.148 1.551-.445 2.153s-.729 1.06-1.297 1.383-1.258.48-2.07.48zm-1.5-.859h1.438c.661 0 1.21-.128 1.645-.383a2.36 2.36 0 0 0 .973-1.09c.214-.471.32-1.033.32-1.684 0-.645-.105-1.201-.316-1.668s-.526-.828-.945-1.078-.941-.379-1.566-.379h-1.547v6.282zm8.578 1c-.38 0-.725-.072-1.035-.215a1.78 1.78 0 0 1-.738-.629c-.182-.276-.273-.61-.273-1 0-.344.068-.623.203-.836a1.44 1.44 0 0 1 .543-.508 2.87 2.87 0 0 1 .75-.273l.832-.149.887-.105c.229-.026.396-.069.5-.129s.16-.164.16-.313v-.031c0-.385-.106-.685-.316-.898s-.525-.321-.949-.321c-.44 0-.785.097-1.035.289s-.426.399-.527.618l-.875-.313c.156-.364.365-.648.625-.851s.549-.349.859-.43.62-.125.922-.125a3.64 3.64 0 0 1 .664.07c.253.044.496.137.73.278s.434.352.59.636.234.664.234 1.141V300h-.922v-.813h-.047c-.062.131-.167.27-.312.418a1.79 1.79 0 0 1-.582.379c-.242.105-.538.157-.887.157zm.141-.829c.365 0 .672-.071.922-.214s.443-.328.57-.555.195-.465.195-.715v-.844c-.039.047-.125.09-.258.129s-.281.069-.453.098l-.496.07-.387.047c-.24.031-.464.082-.672.152a1.16 1.16 0 0 0-.5.309c-.125.135-.187.32-.187.555 0 .32.118.562.355.726s.543.242.91.242zM79.906 294v.781h-3.109V294h3.109zm-2.203-1.438h.922v5.719c0 .261.038.456.113.586s.177.214.297.258.251.062.387.062a1.7 1.7 0 0 0 .25-.015l.156-.031.188.828a1.88 1.88 0 0 1-.262.07 1.93 1.93 0 0 1-.426.039c-.26 0-.516-.056-.766-.168s-.453-.282-.617-.512-.242-.518-.242-.867v-5.969zm5.355 7.579c-.38 0-.725-.072-1.035-.215a1.78 1.78 0 0 1-.738-.629c-.182-.276-.273-.61-.273-1 0-.344.068-.623.203-.836a1.44 1.44 0 0 1 .543-.508 2.87 2.87 0 0 1 .75-.273l.832-.149.887-.105c.229-.026.396-.069.5-.129s.16-.164.16-.313v-.031c0-.385-.105-.685-.316-.898s-.525-.321-.949-.321c-.44 0-.785.097-1.035.289s-.426.399-.527.618l-.875-.313c.156-.364.365-.648.625-.851s.549-.349.859-.43.62-.125.922-.125c.193 0 .414.023.664.07s.496.137.73.278.434.352.59.636.234.664.234 1.141V300h-.922v-.813h-.047a1.6 1.6 0 0 1-.312.418 1.79 1.79 0 0 1-.582.379c-.242.105-.538.157-.887.157zm.141-.829c.365 0 .672-.071.922-.214s.443-.328.57-.555.195-.465.195-.715v-.844c-.039.047-.125.09-.258.129s-.281.069-.453.098l-.496.07-.387.047c-.24.031-.464.082-.672.152s-.372.171-.5.309-.187.32-.187.555c0 .32.118.562.356.726s.543.242.91.242z" class="B"/><path d="M59.438 329h-2.469v-8h2.578c.776 0 1.44.16 1.992.48s.975.775 1.27 1.372.441 1.304.441 2.132c0 .834-.148 1.551-.445 2.153s-.729 1.06-1.297 1.383-1.258.48-2.07.48zm-1.5-.859h1.438c.661 0 1.21-.128 1.645-.383a2.36 2.36 0 0 0 .973-1.09c.214-.471.32-1.033.32-1.684 0-.645-.105-1.201-.316-1.668s-.526-.828-.945-1.078-.941-.379-1.566-.379h-1.547v6.282zm9.328.984c-.578 0-1.077-.128-1.496-.383a2.57 2.57 0 0 1-.965-1.078c-.224-.463-.336-1.003-.336-1.617s.112-1.156.336-1.625.542-.839.945-1.102.88-.398 1.422-.398a2.85 2.85 0 0 1 .926.156c.305.104.582.274.832.508s.449.539.598.922.223.854.223 1.414v.39h-4.625v-.796h3.688a1.97 1.97 0 0 0-.203-.907c-.133-.265-.323-.475-.57-.629s-.534-.23-.867-.23c-.367 0-.685.091-.953.273s-.47.414-.613.704-.215.599-.215.929v.532c0 .453.078.837.234 1.152s.379.551.66.715.608.242.98.242c.242 0 .461-.034.656-.102a1.4 1.4 0 0 0 .512-.312 1.42 1.42 0 0 0 .332-.524l.891.25c-.094.302-.251.568-.473.797a2.29 2.29 0 0 1-.82.531 3.02 3.02 0 0 1-1.098.188zm8.61-6.125l-2.219 6h-.937l-2.219-6h1l1.656 4.781h.063L74.876 323h1zm1.217 6v-6h.922v6h-.922zm.469-7c-.18 0-.335-.061-.465-.184s-.191-.269-.191-.441.064-.319.191-.441.285-.184.465-.184a.64.64 0 0 1 .461.184c.13.122.195.269.195.441s-.065.319-.195.441a.64.64 0 0 1-.461.184zm4.579 7.125c-.562 0-1.047-.133-1.453-.398a2.6 2.6 0 0 1-.937-1.098c-.219-.466-.328-.999-.328-1.598 0-.609.112-1.147.336-1.613s.542-.835.945-1.098.88-.398 1.422-.398c.422 0 .802.078 1.141.234s.616.375.832.656.35.61.402.985h-.922c-.07-.274-.227-.516-.469-.727s-.562-.32-.969-.32c-.359 0-.675.094-.945.281s-.478.447-.629.785-.223.731-.223 1.184c0 .464.073.867.219 1.211s.357.611.625.801.588.285.953.285c.24 0 .457-.042.652-.125s.361-.203.496-.36.232-.343.289-.562h.922c-.052.354-.181.673-.387.957s-.473.505-.809.672-.721.246-1.164.246zm6.223 0c-.578 0-1.077-.128-1.496-.383a2.57 2.57 0 0 1-.965-1.078c-.224-.463-.336-1.003-.336-1.617s.112-1.156.336-1.625.542-.839.945-1.102.88-.398 1.422-.398a2.85 2.85 0 0 1 .926.156c.305.104.582.274.832.508a2.43 2.43 0 0 1 .598.922c.148.383.223.854.223 1.414v.39h-4.625v-.796h3.688a1.97 1.97 0 0 0-.203-.907c-.133-.265-.323-.475-.57-.629s-.534-.23-.867-.23c-.367 0-.685.091-.953.273s-.47.414-.613.704-.215.599-.215.929v.532c0 .453.078.837.234 1.152s.379.551.66.715.608.242.98.242c.242 0 .461-.034.656-.102a1.4 1.4 0 0 0 .512-.312 1.42 1.42 0 0 0 .332-.524l.891.25c-.094.302-.251.568-.473.797a2.29 2.29 0 0 1-.82.531 3.02 3.02 0 0 1-1.098.188zm9.574-.125h-2.469v-8h2.578c.776 0 1.44.16 1.992.48a3.15 3.15 0 0 1 1.27 1.372c.294.593.441 1.304.441 2.132 0 .834-.148 1.551-.445 2.153s-.729 1.06-1.297 1.383-1.258.48-2.07.48zm-1.5-.859h1.438c.662 0 1.21-.128 1.644-.383s.76-.619.973-1.09.32-1.033.32-1.684c0-.645-.105-1.201-.316-1.668s-.526-.828-.945-1.078-.941-.379-1.566-.379h-1.547v6.282zm8.579 1c-.381 0-.726-.072-1.036-.215s-.556-.356-.738-.629-.273-.61-.273-1c0-.344.067-.623.203-.836s.316-.385.543-.508.476-.213.75-.273l.832-.149.887-.105c.229-.026.395-.069.5-.129s.16-.164.16-.313v-.031c0-.385-.106-.685-.317-.898s-.524-.321-.949-.321c-.44 0-.785.097-1.035.289s-.426.399-.527.618l-.875-.313c.156-.364.364-.648.625-.851a2.34 2.34 0 0 1 .859-.43c.313-.083.62-.125.922-.125.193 0 .414.023.664.07s.496.137.73.278.434.352.59.636.235.664.235 1.141V329h-.922v-.813h-.047c-.063.131-.167.27-.313.418s-.339.275-.582.379-.537.157-.886.157zm.14-.829c.365 0 .672-.071.922-.214s.443-.328.57-.555a1.41 1.41 0 0 0 .196-.715v-.844c-.039.047-.125.09-.258.129s-.281.069-.453.098l-.496.07-.387.047c-.24.031-.464.082-.672.152s-.372.171-.5.309-.187.32-.187.555c0 .32.118.562.355.726s.543.242.91.242zm6.902-5.312v.781h-3.11V323h3.11zm-2.204-1.438h.922v5.719c0 .261.038.456.114.586s.177.214.297.258a1.18 1.18 0 0 0 .386.062c.102 0 .185-.005.25-.015l.156-.031.188.828c-.063.023-.15.047-.262.07a1.93 1.93 0 0 1-.426.039c-.26 0-.515-.056-.765-.168a1.51 1.51 0 0 1-.617-.512c-.162-.229-.243-.518-.243-.867v-5.969zm5.356 7.579c-.38 0-.725-.072-1.035-.215s-.556-.356-.738-.629-.274-.61-.274-1c0-.344.068-.623.203-.836a1.45 1.45 0 0 1 .543-.508c.227-.122.477-.213.75-.273l.832-.149.887-.105c.229-.026.396-.069.5-.129s.16-.164.16-.313v-.031c0-.385-.105-.685-.316-.898s-.525-.321-.95-.321c-.44 0-.785.097-1.035.289s-.425.399-.527.618l-.875-.313c.156-.364.365-.648.625-.851a2.34 2.34 0 0 1 .859-.43c.313-.083.62-.125.922-.125.193 0 .414.023.664.07a2.12 2.12 0 0 1 .731.278c.237.14.433.352.59.636s.234.664.234 1.141V329h-.922v-.813h-.047c-.062.131-.166.27-.312.418s-.34.275-.582.379-.538.157-.887.157zm.141-.829c.364 0 .671-.071.921-.214s.443-.328.571-.555.195-.465.195-.715v-.844c-.039.047-.125.09-.258.129s-.281.069-.453.098l-.496.07-.387.047a3.55 3.55 0 0 0-.672.152c-.205.068-.372.171-.5.309s-.187.32-.187.555c0 .32.118.562.355.726s.543.242.911.242z" class="D"/><path d="M30.313 358.285v8h-.937l-4.359-6.281h-.078v6.281h-.969v-8h.937l4.375 6.297h.078v-6.297h.953zm4.329 8.125c-.578 0-1.077-.127-1.496-.383s-.738-.617-.965-1.078-.336-1.002-.336-1.617.112-1.156.336-1.625.542-.839.945-1.102.88-.398 1.422-.398a2.85 2.85 0 0 1 .926.156c.305.104.582.274.832.508s.449.539.598.922.223.854.223 1.414v.391h-4.625v-.797h3.688c0-.339-.068-.641-.203-.906s-.323-.476-.57-.629-.534-.231-.867-.231a1.65 1.65 0 0 0-.953.274c-.266.179-.47.414-.613.703s-.215.599-.215.929v.532c0 .453.078.837.234 1.152s.379.551.66.715.608.242.98.242c.242 0 .461-.034.656-.102a1.4 1.4 0 0 0 .512-.312c.143-.141.254-.315.332-.523l.891.25a1.97 1.97 0 0 1-.473.796c-.221.227-.495.404-.82.532s-.691.187-1.098.187zm6.496-6.125v.781h-3.109v-.781h3.109zm-2.203-1.437h.922v5.718c0 .261.038.456.113.586s.177.214.297.258.251.063.387.063a1.68 1.68 0 0 0 .25-.016l.156-.031.188.828c-.062.023-.15.047-.262.07a1.93 1.93 0 0 1-.426.039c-.26 0-.516-.056-.766-.168a1.52 1.52 0 0 1-.617-.511c-.161-.23-.242-.519-.242-.868v-5.968zm4.949 7.437l-1.828-6h.969l1.297 4.594h.063l1.281-4.594h.984l1.266 4.578h.063l1.297-4.578h.969l-1.828 6h-.906l-1.312-4.609h-.094l-1.312 4.609h-.906zm9.812.125c-.542 0-1.017-.129-1.426-.387a2.62 2.62 0 0 1-.953-1.082c-.227-.463-.34-1.005-.34-1.625s.113-1.17.34-1.636.547-.828.953-1.086.884-.387 1.426-.387 1.016.129 1.422.387.727.62.953 1.086.344 1.011.344 1.636-.115 1.162-.344 1.625-.544.825-.953 1.082-.88.387-1.422.387zm0-.828c.411 0 .75-.105 1.016-.316a1.87 1.87 0 0 0 .59-.832 3.19 3.19 0 0 0 .191-1.118 3.22 3.22 0 0 0-.191-1.121c-.128-.346-.324-.626-.59-.84s-.604-.32-1.016-.32-.75.107-1.016.32-.462.494-.59.84a3.22 3.22 0 0 0-.191 1.121 3.19 3.19 0 0 0 .191 1.118 1.87 1.87 0 0 0 .59.832c.266.211.604.316 1.016.316zm4.126.703v-6h.891v.906h.063c.109-.296.307-.537.594-.722s.609-.278.969-.278l.254.004.23.012v.938c-.031-.008-.103-.02-.215-.036a2.14 2.14 0 0 0-.348-.027c-.292 0-.552.061-.781.184s-.406.286-.539.5-.195.451-.195.722v3.797h-.922zm4.952-2.187l-.016-1.141h.188l2.625-2.672h1.141l-2.797 2.828h-.078l-1.062.985zm-.859 2.187v-8h.922v8h-.922zm3.813 0l-2.344-2.969.656-.64 2.859 3.609h-1.172z" class="B"/><g clip-path="url(#H)" class="E"><path d="M42.868 395.548c.087.216-.035.455-.273.535-.052.017-.105.025-.158.025-.187 0-.363-.104-.43-.273L39 388.363l-1.608 3.995h2.066c.253 0 .458.187.458.417s-.205.416-.458.416h-2.402l-.503 1.25h3.821c.253 0 .458.187.458.417s-.205.417-.458.417h-4.157l-.225.56c-.087.216-.351.326-.588.248s-.36-.319-.273-.535l3.225-8.014c-.169-.151-.274-.361-.274-.593 0-.46.41-.833.917-.833s.917.373.917.833c0 .232-.105.442-.274.593l3.225 8.014zm-6.249-6.94c.341.008.578-.358.396-.625a1.94 1.94 0 0 1-.306-1.042c0-.117.011-.233.032-.347.042-.227-.126-.442-.376-.48-.255-.038-.487.115-.528.342-.029.159-.044.322-.044.485a2.71 2.71 0 0 0 .43 1.459.47.47 0 0 0 .397.208zm4.534-.056c.215.114.499.049.626-.152.281-.441.43-.946.43-1.459a2.64 2.64 0 0 0-.044-.485c-.042-.227-.275-.38-.528-.342s-.418.253-.376.48c.021.114.032.23.032.347a1.94 1.94 0 0 1-.306 1.042c-.127.199-.052.454.167.569zm.528 1.239a.39.39 0 0 0-.05.587.49.49 0 0 0 .646.046c1.121-.873 1.765-2.142 1.765-3.483a4.22 4.22 0 0 0-.025-.459c-.025-.229-.245-.394-.502-.373-.252.024-.435.228-.41.457a3.36 3.36 0 0 1 .021.375c0 1.097-.526 2.135-1.444 2.849v.001zm-5.958.633c.192.149.481.13.646-.045a.39.39 0 0 0-.05-.588c-.917-.713-1.444-1.753-1.444-2.849 0-.127.007-.252.021-.375.025-.229-.159-.434-.411-.457s-.477.144-.502.373a4.22 4.22 0 0 0-.025.459c0 1.341.643 2.61 1.765 3.483v-.001z"/></g><path d="M56.969 397.108v-8h2.703c.625 0 1.138.107 1.539.321s.698.501.891.871a2.69 2.69 0 0 1 .289 1.262c0 .471-.096.889-.289 1.253s-.488.651-.887.86-.907.308-1.527.308H57.5v-.875h2.156c.427 0 .771-.062 1.031-.187s.453-.302.57-.531.18-.508.18-.828-.06-.601-.18-.84-.311-.425-.574-.555-.611-.199-1.043-.199h-1.703v7.14h-.969zm3.766-3.593l1.969 3.593h-1.125l-1.937-3.593h1.094zm3.271 3.593v-8h4.797v.86h-3.828v2.703h3.469v.859h-3.469v3.578h-.969zm9.112-7.14v-.86h6v.86h-2.516v7.14h-.969v-7.14h-2.516zm9.016 7.265c-.578 0-1.077-.127-1.496-.382s-.738-.618-.965-1.079-.336-1.002-.336-1.617.112-1.156.336-1.625a2.65 2.65 0 0 1 .945-1.101c.406-.266.88-.399 1.422-.399a2.82 2.82 0 0 1 .926.157c.305.104.582.273.832.507s.449.539.598.922.223.854.223 1.414v.391h-4.625v-.797h3.688c0-.339-.068-.641-.203-.906a1.53 1.53 0 0 0-.57-.629c-.245-.154-.534-.231-.867-.231-.367 0-.685.092-.953.274a1.8 1.8 0 0 0-.613.703c-.143.289-.215.599-.215.93v.531c0 .453.078.837.234 1.152s.379.551.66.715.608.242.981.242c.242 0 .461-.034.656-.101s.368-.175.512-.313.254-.315.332-.523l.891.25a1.98 1.98 0 0 1-.473.797c-.221.226-.495.403-.82.531s-.691.187-1.098.187zm8.137-4.781l-.828.235a1.54 1.54 0 0 0-.231-.403c-.099-.133-.234-.242-.406-.328s-.392-.129-.66-.129c-.367 0-.673.085-.918.254s-.363.379-.363.637c0 .229.083.41.25.543s.427.243.781.332l.891.219c.536.13.936.329 1.199.597s.395.608.395 1.028a1.52 1.52 0 0 1-.297.921c-.195.271-.469.485-.82.641s-.76.234-1.227.234c-.612 0-1.118-.132-1.52-.398s-.655-.654-.762-1.164l.875-.219c.083.323.241.565.473.727s.54.242.918.242c.43 0 .771-.091 1.024-.274s.383-.406.383-.664c0-.208-.073-.382-.219-.523s-.37-.25-.672-.32l-1-.235c-.55-.13-.953-.332-1.211-.605s-.383-.621-.383-1.035c0-.339.095-.638.285-.899a1.94 1.94 0 0 1 .785-.613c.333-.149.711-.223 1.133-.223.594 0 1.06.13 1.399.391s.583.604.726 1.031zm4.107-1.344v.782h-3.109v-.782h3.109zm-2.203-1.437h.922v5.719c0 .26.038.455.113.586s.177.213.297.257.251.063.387.063c.102 0 .185-.005.25-.016l.156-.031.188.828a1.75 1.75 0 0 1-.262.07c-.112.027-.254.04-.426.04-.26 0-.516-.056-.766-.168s-.453-.283-.617-.512-.242-.518-.242-.867v-5.969z" class="D"/><path d="M28.344 425.394c-.047-.396-.237-.704-.57-.922s-.742-.328-1.226-.328c-.354 0-.664.057-.93.171s-.469.273-.617.473-.219.428-.219.684c0 .213.051.397.152.55s.237.278.398.379a2.85 2.85 0 0 0 .508.246l.488.153.813.219c.208.054.44.13.695.226s.504.228.738.395.432.375.586.632.23.575.23.95c0 .432-.113.823-.34 1.172s-.552.626-.984.832-.952.308-1.566.308c-.573 0-1.069-.092-1.488-.277s-.745-.443-.984-.774-.371-.714-.402-1.152h1c.026.302.128.552.305.75a1.66 1.66 0 0 0 .68.438 2.77 2.77 0 0 0 .891.14c.37 0 .702-.06.996-.18s.527-.291.699-.507.258-.474.258-.766c0-.266-.074-.482-.223-.648s-.344-.302-.586-.407-.504-.195-.785-.273l-.984-.281c-.625-.18-1.12-.437-1.484-.77s-.547-.769-.547-1.308a1.94 1.94 0 0 1 .363-1.172c.245-.336.573-.597.984-.782s.876-.281 1.387-.281c.516 0 .974.093 1.375.278s.719.432.953.75.362.678.375 1.082h-.937zm5.03 6.125c-.578 0-1.077-.128-1.496-.383a2.57 2.57 0 0 1-.965-1.078c-.224-.464-.336-1.003-.336-1.618s.112-1.156.336-1.625a2.65 2.65 0 0 1 .945-1.101c.406-.266.88-.399 1.422-.399a2.85 2.85 0 0 1 .926.157c.305.104.582.273.832.507s.449.54.598.922.223.855.223 1.414v.391h-4.625v-.797h3.688a1.97 1.97 0 0 0-.203-.906 1.53 1.53 0 0 0-.57-.629c-.245-.154-.534-.23-.867-.23-.367 0-.685.091-.953.273a1.8 1.8 0 0 0-.613.703c-.143.289-.215.599-.215.93v.531c0 .453.078.837.234 1.152s.379.551.66.715.608.242.98.242c.242 0 .461-.033.656-.101a1.4 1.4 0 0 0 .512-.313c.143-.14.254-.315.332-.523l.891.25c-.094.302-.251.568-.473.797s-.495.403-.82.531-.691.188-1.098.188zm6.324 0c-.562 0-1.047-.133-1.453-.399s-.719-.631-.937-1.098-.328-.998-.328-1.597c0-.61.112-1.147.336-1.613s.542-.835.945-1.098.88-.399 1.422-.399c.422 0 .802.079 1.141.235s.616.375.832.656.35.609.402.984h-.922a1.43 1.43 0 0 0-.469-.726c-.24-.214-.562-.32-.969-.32-.359 0-.674.093-.945.281a1.83 1.83 0 0 0-.629.785c-.148.336-.223.73-.223 1.184 0 .463.073.867.219 1.21s.357.611.625.801.589.285.953.285c.24 0 .457-.041.652-.125s.361-.203.496-.359.232-.344.289-.562h.922c-.052.354-.181.673-.387.957s-.473.505-.809.671-.721.247-1.164.247zm7.488-2.579v-3.546h.922v6h-.922v-1.016h-.062c-.141.305-.359.564-.656.777s-.672.317-1.125.317c-.375 0-.708-.082-1-.246s-.521-.417-.687-.75-.25-.76-.25-1.27v-3.812h.922v3.75c0 .437.122.786.367 1.046s.563.391.945.391c.229 0 .462-.059.699-.176s.44-.297.601-.539.246-.551.246-.926zm2.61 2.454v-6h.891v.906h.063a1.44 1.44 0 0 1 .594-.723c.286-.185.609-.277.969-.277l.254.004.23.011v.938c-.031-.008-.103-.02-.215-.035s-.225-.028-.348-.028c-.292 0-.552.062-.781.184s-.406.286-.539.5-.195.452-.195.723v3.797h-.922zm4.093 0v-6h.922v6h-.922zm.469-7c-.18 0-.335-.062-.465-.184a.59.59 0 0 1-.191-.441.59.59 0 0 1 .191-.442c.13-.122.285-.183.465-.183s.333.061.461.183.195.27.195.442-.065.319-.195.441-.281.184-.461.184zm4.751 1v.781H56v-.781h3.109zm-2.203-1.438h.922v5.719c0 .26.038.456.113.586s.177.213.297.258a1.21 1.21 0 0 0 .387.062c.102 0 .185-.005.25-.016l.156-.031.188.828c-.062.024-.15.047-.262.071a1.93 1.93 0 0 1-.426.039c-.261 0-.516-.056-.766-.168s-.453-.283-.617-.512-.242-.518-.242-.867v-5.969zm4.183 9.688a1.95 1.95 0 0 1-.418-.04c-.122-.023-.207-.046-.254-.07l.234-.812a1.77 1.77 0 0 0 .594.062c.172-.015.324-.092.457-.23s.259-.356.371-.66l.172-.469-2.219-6.031h1l1.656 4.781h.063l1.656-4.781h1l-2.547 6.875c-.115.309-.257.566-.426.769s-.366.358-.59.457-.471.149-.75.149zm10.889-2.141c-.526 0-.979-.096-1.359-.289s-.673-.457-.879-.793-.309-.72-.309-1.152c0-.334.07-.629.211-.887a2.72 2.72 0 0 1 .59-.723c.253-.224.543-.448.871-.672l1.156-.859a2.3 2.3 0 0 0 .543-.477c.138-.169.207-.39.207-.664 0-.203-.09-.399-.27-.59a.91.91 0 0 0-.699-.285c-.203 0-.383.052-.539.157a1.1 1.1 0 0 0-.363.39c-.086.156-.129.318-.129.485 0 .187.051.377.152.57a4.25 4.25 0 0 0 .395.586l.5.609 3.672 4.485h-1.109l-3.031-3.657-.766-.922c-.229-.276-.412-.548-.547-.816s-.203-.559-.203-.871c0-.359.079-.675.238-.945s.387-.486.676-.637.633-.231 1.023-.231c.401 0 .746.079 1.035.235a1.69 1.69 0 0 1 .668.613 1.54 1.54 0 0 1 .234.824c0 .383-.095.715-.285.996s-.449.543-.777.786l-1.594 1.187c-.359.266-.603.523-.73.773s-.191.43-.191.54a1.33 1.33 0 0 0 .195.699c.13.216.314.39.551.523s.514.199.832.199a2.14 2.14 0 0 0 .883-.191c.286-.13.546-.318.777-.562a2.69 2.69 0 0 0 .555-.883c.138-.344.207-.731.207-1.16h.891c0 .531-.061.964-.184 1.3s-.26.599-.414.789l-.371.426-.086.117-.086.118c-.258.289-.583.505-.977.648s-.781.211-1.164.211zm12.364-6.109c-.047-.396-.237-.704-.57-.922s-.742-.328-1.227-.328c-.354 0-.664.057-.93.171s-.469.273-.617.473-.219.428-.219.684c0 .213.051.397.152.55s.237.278.399.379a2.84 2.84 0 0 0 .508.246l.488.153.813.219c.208.054.44.13.695.226s.504.228.738.395.432.375.586.632.23.575.23.95c0 .432-.113.823-.34 1.172s-.552.626-.984.832-.952.308-1.566.308c-.573 0-1.069-.092-1.488-.277s-.745-.443-.984-.774-.371-.714-.402-1.152h1c.026.302.128.552.305.75a1.66 1.66 0 0 0 .68.438 2.77 2.77 0 0 0 .891.14c.37 0 .702-.06.996-.18s.527-.291.699-.507.258-.474.258-.766c0-.266-.074-.482-.223-.648s-.344-.302-.586-.407a6.17 6.17 0 0 0-.785-.273l-.984-.281c-.625-.18-1.12-.437-1.484-.77s-.547-.769-.547-1.308a1.94 1.94 0 0 1 .363-1.172c.245-.336.573-.597.984-.782s.876-.281 1.387-.281c.516 0 .974.093 1.375.278s.719.432.953.75.362.678.375 1.082h-.937zm3.437 2.39v3.61h-.922v-8h.922v2.937h.078c.141-.31.352-.556.633-.738s.662-.278 1.133-.278c.409 0 .767.082 1.074.247s.546.41.715.746.258.757.258 1.273v3.813h-.922v-3.75c0-.477-.124-.845-.371-1.106s-.585-.394-1.02-.394c-.302 0-.573.063-.812.191a1.4 1.4 0 0 0-.562.559c-.135.244-.203.541-.203.89zm7.343 3.75c-.38 0-.725-.071-1.035-.215s-.556-.355-.738-.629-.273-.609-.273-1c0-.343.068-.622.203-.836a1.43 1.43 0 0 1 .543-.507c.227-.123.477-.214.75-.274l.832-.148.887-.106c.229-.026.396-.069.5-.129s.16-.164.16-.312v-.031c0-.386-.105-.685-.316-.899s-.525-.32-.949-.32c-.44 0-.785.096-1.035.289s-.426.398-.527.617l-.875-.312c.156-.365.365-.649.625-.852s.549-.349.859-.43.62-.125.922-.125a3.65 3.65 0 0 1 .664.071 2.11 2.11 0 0 1 .73.277c.237.141.433.353.59.637s.234.664.234 1.14v3.954h-.922v-.813h-.047c-.062.13-.167.27-.312.418s-.34.275-.582.379-.538.156-.887.156zm.141-.828c.365 0 .672-.072.922-.215s.443-.328.57-.554.195-.465.195-.715v-.844c-.039.047-.125.09-.258.129s-.281.069-.453.097l-.496.071-.387.047c-.239.031-.463.082-.672.152a1.16 1.16 0 0 0-.5.309c-.125.135-.187.32-.187.554 0 .321.118.563.355.727s.543.242.91.242zm4.292.688v-6h.89v.906h.063c.109-.297.307-.538.594-.723s.609-.277.968-.277l.254.004.231.011v.938a2.46 2.46 0 0 0-.215-.035 2.14 2.14 0 0 0-.348-.028c-.291 0-.552.062-.781.184a1.38 1.38 0 0 0-.539.5 1.35 1.35 0 0 0-.195.723v3.797h-.922zm4.092 0v-6h.922v6h-.922zm.469-7a.66.66 0 0 1-.465-.184.59.59 0 0 1-.191-.441c0-.172.064-.319.191-.442a.66.66 0 0 1 .465-.183.64.64 0 0 1 .461.183c.13.123.195.27.195.442s-.065.319-.195.441a.64.64 0 0 1-.461.184zm3.064 3.39v3.61h-.922v-6h.89v.937h.079a1.71 1.71 0 0 1 .64-.734c.287-.188.656-.282 1.11-.282.406 0 .761.084 1.066.25a1.68 1.68 0 0 1 .711.75c.169.334.254.756.254 1.266v3.813h-.922v-3.75c0-.472-.122-.839-.367-1.102s-.581-.398-1.008-.398c-.294 0-.557.063-.789.191s-.41.314-.543.559-.199.541-.199.89zm7.934 5.985c-.445 0-.828-.058-1.148-.172s-.587-.261-.801-.446-.379-.377-.504-.586l.735-.515.316.375a1.61 1.61 0 0 0 .523.371c.224.107.517.16.879.16.485 0 .884-.117 1.199-.352s.473-.601.473-1.101v-1.219h-.078a4.85 4.85 0 0 1-.289.406 1.64 1.64 0 0 1-.531.426c-.229.123-.539.184-.93.184-.484 0-.919-.115-1.305-.344s-.686-.562-.91-1-.332-.969-.332-1.594c0-.614.108-1.149.324-1.605s.517-.813.903-1.063.83-.379 1.336-.379c.39 0 .7.066.929.196s.409.273.532.437l.289.399h.093v-.953h.891v6.171c0 .516-.117.935-.352 1.258s-.544.564-.937.715-.826.231-1.305.231zm-.031-3.297c.37 0 .682-.085.938-.254a1.58 1.58 0 0 0 .582-.731c.132-.317.199-.698.199-1.14 0-.433-.065-.814-.196-1.145s-.322-.59-.578-.777-.57-.281-.945-.281c-.391 0-.716.099-.977.296s-.451.464-.582.797-.191.703-.191 1.11c0 .416.065.785.195 1.105a1.69 1.69 0 0 0 .586.75c.261.18.584.27.969.27z" class="B"/><path d="M38.974 461.008l-.177-.079c-.196-.086-4.784-2.158-4.784-5.91v-3.254a1.48 1.48 0 0 1 .283-.871c.184-.253.443-.443.74-.541L39 449.039l3.964 1.314a1.49 1.49 0 0 1 .74.541c.184.254.283.558.283.871v3.254c0 4.277-4.632 5.862-4.829 5.928l-.184.061zM39 450.085l-3.648 1.21a.49.49 0 0 0-.341.47v3.254c0 2.74 3.212 4.517 4.013 4.918.8-.322 3.966-1.795 3.966-4.918v-3.254a.49.49 0 0 0-.341-.47L39 450.085zm-.444 6.202h-.016a.94.94 0 0 1-.671-.3l-1.15-1.196.719-.69 1.119 1.167 2.584-2.583.705.705-2.624 2.623c-.087.088-.191.157-.305.204s-.237.07-.36.07z" class="E"/><path d="M61.344 454.394c-.047-.396-.237-.704-.57-.922s-.742-.328-1.227-.328c-.354 0-.664.057-.93.171s-.469.273-.617.473-.219.428-.219.684c0 .213.051.397.152.55s.237.278.398.379a2.85 2.85 0 0 0 .508.246l.488.153.813.219c.208.054.44.13.695.226s.504.228.738.395.432.375.586.632.23.575.23.95c0 .432-.113.823-.34 1.172s-.552.626-.984.832-.952.308-1.566.308c-.573 0-1.069-.092-1.488-.277s-.745-.443-.984-.774-.371-.714-.402-1.152h1c.026.302.128.552.305.75a1.66 1.66 0 0 0 .68.438 2.77 2.77 0 0 0 .891.14c.37 0 .702-.06.996-.18s.527-.291.699-.507.258-.474.258-.766c0-.266-.074-.482-.223-.648s-.344-.302-.586-.407-.504-.195-.785-.273l-.984-.281c-.625-.18-1.12-.437-1.484-.77s-.547-.769-.547-1.308a1.94 1.94 0 0 1 .363-1.172c.245-.336.573-.597.984-.782s.876-.281 1.387-.281c.516 0 .974.093 1.375.278s.719.432.953.75.362.678.375 1.082h-.937zm5.03 6.125c-.578 0-1.077-.128-1.496-.383a2.57 2.57 0 0 1-.965-1.078c-.224-.464-.336-1.003-.336-1.618s.112-1.156.336-1.625a2.65 2.65 0 0 1 .945-1.101c.406-.266.88-.399 1.422-.399a2.85 2.85 0 0 1 .926.157c.305.104.582.273.832.507s.449.54.598.922.223.855.223 1.414v.391h-4.625v-.797h3.688a1.97 1.97 0 0 0-.203-.906 1.53 1.53 0 0 0-.57-.629c-.245-.154-.534-.23-.867-.23-.367 0-.685.091-.953.273a1.8 1.8 0 0 0-.613.703c-.143.289-.215.599-.215.93v.531c0 .453.078.837.234 1.152s.379.551.66.715.608.242.98.242c.242 0 .461-.033.656-.101a1.4 1.4 0 0 0 .512-.313c.143-.14.254-.315.332-.523l.891.25c-.094.302-.251.568-.473.797s-.495.403-.82.531-.691.188-1.098.188zm6.324 0c-.562 0-1.047-.133-1.453-.399s-.719-.631-.937-1.098-.328-.998-.328-1.597c0-.61.112-1.147.336-1.613s.542-.835.945-1.098.88-.399 1.422-.399c.422 0 .802.079 1.141.235s.616.375.832.656.35.609.402.984h-.922a1.43 1.43 0 0 0-.469-.726c-.24-.214-.562-.32-.969-.32-.359 0-.674.093-.945.281a1.83 1.83 0 0 0-.629.785c-.148.336-.223.73-.223 1.184 0 .463.073.867.219 1.21s.357.611.625.801.589.285.953.285c.24 0 .457-.041.652-.125s.361-.203.496-.359.232-.344.289-.562h.922c-.052.354-.181.673-.387.957s-.473.505-.809.671-.721.247-1.164.247zm7.488-2.579v-3.546h.922v6h-.922v-1.016h-.062c-.141.305-.359.564-.656.777s-.672.317-1.125.317c-.375 0-.708-.082-1-.246s-.521-.417-.687-.75-.25-.76-.25-1.27v-3.812h.922v3.75c0 .437.122.786.367 1.046s.563.391.945.391c.229 0 .462-.059.699-.176s.44-.297.602-.539.246-.551.246-.926zm2.61 2.454v-6h.891v.906h.063a1.44 1.44 0 0 1 .594-.723c.286-.185.609-.277.969-.277l.254.004.23.011v.938c-.031-.008-.103-.02-.215-.035s-.225-.028-.348-.028c-.292 0-.552.062-.781.184s-.406.286-.539.5-.195.452-.195.723v3.797h-.922zm4.093 0v-6h.922v6h-.922zm.469-7c-.18 0-.335-.062-.465-.184a.59.59 0 0 1-.192-.441.59.59 0 0 1 .192-.442c.13-.122.285-.183.465-.183s.333.061.461.183.195.27.195.442-.065.319-.195.441-.281.184-.461.184zm4.751 1v.781H89v-.781h3.109zm-2.203-1.438h.922v5.719c0 .26.038.456.113.586s.177.213.297.258a1.21 1.21 0 0 0 .387.062c.102 0 .185-.005.25-.016l.156-.031.188.828c-.062.024-.15.047-.262.071a1.93 1.93 0 0 1-.426.039c-.261 0-.516-.056-.766-.168s-.453-.283-.617-.512-.242-.518-.242-.867v-5.969zm4.183 9.688a1.95 1.95 0 0 1-.418-.04c-.122-.023-.207-.046-.254-.07l.234-.812a1.77 1.77 0 0 0 .594.062c.172-.015.324-.092.457-.23s.259-.356.371-.66l.172-.469-2.219-6.031h1l1.656 4.781h.063l1.656-4.781h1l-2.547 6.875c-.115.309-.257.566-.426.769s-.366.358-.59.457-.471.149-.75.149zm8.748-2.25v-8h.969v7.14h3.718v.86h-4.687zm8.578.125c-.578 0-1.077-.128-1.496-.383a2.57 2.57 0 0 1-.965-1.078c-.224-.464-.336-1.003-.336-1.618s.112-1.156.336-1.625.542-.838.945-1.101.881-.399 1.422-.399a2.85 2.85 0 0 1 .926.157 2.29 2.29 0 0 1 .832.507c.25.232.449.54.598.922s.222.855.222 1.414v.391h-4.625v-.797h3.688c0-.338-.068-.64-.203-.906a1.53 1.53 0 0 0-.571-.629 1.59 1.59 0 0 0-.867-.23c-.367 0-.685.091-.953.273s-.47.414-.613.703a2.07 2.07 0 0 0-.215.93v.531c0 .453.078.837.234 1.152s.379.551.661.715.608.242.98.242c.242 0 .461-.033.656-.101a1.4 1.4 0 0 0 .512-.313c.143-.14.254-.315.332-.523l.891.25a1.98 1.98 0 0 1-.473.797c-.221.226-.495.403-.82.531s-.692.188-1.098.188zm8.61-6.125l-2.218 6h-.938l-2.219-6h1l1.657 4.781h.062l1.656-4.781h1zm3.518 6.125c-.578 0-1.077-.128-1.496-.383a2.57 2.57 0 0 1-.965-1.078c-.224-.464-.336-1.003-.336-1.618s.112-1.156.336-1.625.542-.838.945-1.101.881-.399 1.422-.399a2.85 2.85 0 0 1 .926.157 2.29 2.29 0 0 1 .832.507c.25.232.449.54.598.922s.222.855.222 1.414v.391h-4.625v-.797h3.688c0-.338-.068-.64-.203-.906a1.53 1.53 0 0 0-.571-.629 1.59 1.59 0 0 0-.867-.23c-.367 0-.685.091-.953.273s-.47.414-.613.703a2.07 2.07 0 0 0-.215.93v.531c0 .453.078.837.234 1.152a1.69 1.69 0 0 0 .66.715c.282.162.609.242.981.242.242 0 .461-.033.656-.101a1.4 1.4 0 0 0 .512-.313c.143-.14.254-.315.332-.523l.891.25a1.98 1.98 0 0 1-.473.797c-.221.226-.495.403-.82.531s-.692.188-1.098.188zm4.809-8.125v8h-.922v-8h.922zm5.938 3.343l-.828.235c-.052-.138-.129-.272-.231-.403s-.234-.242-.406-.328-.392-.129-.66-.129c-.367 0-.673.085-.918.254s-.363.379-.363.637c0 .229.083.41.25.543s.427.243.781.332l.891.219c.536.13.936.329 1.199.597s.394.608.394 1.028a1.53 1.53 0 0 1-.296.922c-.196.27-.469.484-.821.64s-.76.235-1.226.235c-.612 0-1.119-.133-1.52-.399s-.655-.654-.762-1.164l.875-.219c.084.323.241.565.473.727s.54.242.918.242c.43 0 .771-.091 1.023-.273s.383-.407.383-.664a.7.7 0 0 0-.218-.524c-.146-.143-.37-.25-.672-.32l-1-.235c-.55-.13-.953-.332-1.211-.605s-.383-.621-.383-1.035c0-.339.095-.638.285-.899s.454-.464.785-.613.711-.223 1.133-.223c.594 0 1.06.131 1.398.391s.584.604.727 1.031z" class="D"/><path d="M193.969 460.394v-8h.969v7.14h3.718v.86h-4.687zm8.578.125c-.578 0-1.077-.128-1.496-.383a2.57 2.57 0 0 1-.965-1.078c-.224-.464-.336-1.003-.336-1.618s.112-1.156.336-1.625.542-.838.945-1.101.88-.399 1.422-.399a2.85 2.85 0 0 1 .926.157 2.29 2.29 0 0 1 .832.507c.25.232.449.54.598.922s.222.855.222 1.414v.391h-4.625v-.797h3.688c0-.338-.068-.64-.203-.906a1.53 1.53 0 0 0-.571-.629c-.244-.154-.534-.23-.867-.23-.367 0-.685.091-.953.273s-.47.414-.613.703-.215.599-.215.93v.531c0 .453.078.837.234 1.152a1.69 1.69 0 0 0 .66.715c.282.162.608.242.981.242.242 0 .461-.033.656-.101a1.4 1.4 0 0 0 .512-.313c.143-.14.254-.315.332-.523l.891.25a1.98 1.98 0 0 1-.473.797c-.222.226-.495.403-.82.531s-.692.188-1.098.188zm8.61-6.125l-2.219 6h-.937l-2.219-6h1l1.656 4.781h.063l1.656-4.781h1zm3.518 6.125c-.578 0-1.077-.128-1.496-.383s-.739-.617-.965-1.078-.336-1.003-.336-1.618.112-1.156.336-1.625a2.65 2.65 0 0 1 .945-1.101c.406-.266.88-.399 1.422-.399a2.85 2.85 0 0 1 .926.157 2.29 2.29 0 0 1 .832.507c.25.232.449.54.598.922s.222.855.222 1.414v.391h-4.625v-.797h3.688c0-.338-.068-.64-.203-.906a1.53 1.53 0 0 0-.571-.629c-.245-.154-.534-.23-.867-.23-.367 0-.685.091-.953.273s-.47.414-.613.703-.215.599-.215.93v.531c0 .453.078.837.234 1.152a1.69 1.69 0 0 0 .66.715c.282.162.608.242.981.242.242 0 .461-.033.656-.101a1.4 1.4 0 0 0 .512-.313c.143-.14.254-.315.332-.523l.89.25a1.97 1.97 0 0 1-.472.797 2.32 2.32 0 0 1-.821.531c-.325.125-.691.188-1.097.188zm4.808-8.125v8h-.921v-8h.921zm4.767 8v-.704l2.641-2.89.765-.883c.201-.253.349-.49.446-.711a1.72 1.72 0 0 0 .148-.703c0-.281-.068-.525-.203-.731a1.32 1.32 0 0 0-.547-.476c-.232-.112-.492-.168-.781-.168-.308 0-.576.064-.805.191a1.32 1.32 0 0 0-.527.528c-.123.226-.184.492-.184.797h-.922c0-.469.108-.881.324-1.235s.511-.63.883-.828.796-.297 1.262-.297.884.099 1.246.297.646.465.852.801a2.11 2.11 0 0 1 .308 1.121c0 .294-.053.582-.16.863s-.286.59-.547.934-.616.758-1.074 1.25l-1.797 1.922v.062h3.719v.86h-5.047z" class="B"/><path d="M43.716 503.311v6.859c0 .648-.521 1.169-1.169 1.169h-4.891c-.616 0-1.169-.497-1.169-1.077v-7.043a1.14 1.14 0 0 1 1.076-1.076h5.075a1.1 1.1 0 0 1 .757.35c.177.21.32.448.32.819v-.001zm8.52 6.459v7.043c0 .551-.526 1.077-1.077 1.077h-5.075c-.556 0-1.076-.531-1.076-1.169v-6.859c0-.648.521-1.169 1.169-1.169h4.891c.635 0 1.169.51 1.169 1.077h0zm-8.519 4.029v2.922a1.15 1.15 0 0 1-.092.462c-.169.375-.531.707-.985.707h-5.075a1.14 1.14 0 0 1-1.076-1.076v-3.107c0-.582.551-1.076 1.169-1.076h4.891c.648 0 1.169.521 1.169 1.169v-.001zm8.519-10.58v3.107c0 .556-.531 1.076-1.169 1.076h-4.891c-.648 0-1.169-.521-1.169-1.169v-2.922c0-.342.142-.615.302-.805a1.16 1.16 0 0 1 .774-.363h5.075c.551 0 1.077.526 1.077 1.076h0z" class="G H"/><path d="M124.758 510.017c0-.311.253-.646.676-.646.814 0 .814 1.291 0 1.291-.216 0-.351-.066-.47-.175-.092-.085-.206-.309-.206-.47zm-1.969.461v4.275c0 1.622 1.52 3.138 3.138 3.138h4.275c.481 0 .947-.183 1.282-.349.282-.14.761-.471.937-.693l.347-.453c.367-.565.541-1.194.541-1.95v-3.599c0-1.131-.407-1.93-.977-2.499s-1.362-.977-2.499-.977h-3.599c-1.112 0-1.635.293-2.386.874-.526.408-1.059 1.497-1.059 2.233h0zm7.874-7.72c0 1.058 1.049.473 2.618 1.042 2.174.788 3.709 2.712 3.906 5.045.041.498-.05 1.172.735 1.172.318 0 .615-.297.615-.615 0-1.168-.233-2.229-.676-3.107l-.297-.564c-1.092-2.008-3.629-3.588-5.947-3.588h-.339c-.318 0-.615.296-.615.615zm0 2.614c0 .386.207.65.53.701.405.064.459-.013 1.002.136.426.116.784.307 1.127.564.078.059.081.063.148.129.072.073.102.08.168.14s.061.08.125.152c.427.483.732 1.098.801 1.751.041.389-.05 1.071.744 1.071.338 0 .615-.303.615-.707 0-1.213-.467-2.205-1.207-3.038-.063-.071-.067-.099-.138-.17s-.086-.066-.153-.123c-.189-.159-.181-.185-.471-.391-.709-.502-1.666-.83-2.645-.83-.329 0-.646.282-.646.615h0zm78.217 4.645a7.16 7.16 0 0 1 .601-2.778c.383-.822.79-1.419 1.392-2.021l.425-.395a6.68 6.68 0 0 1 2.831-1.434c.95-.232 2.097-.264 3.046-.026.911.228 1.622.504 2.381 1.03 2.773 1.921 3.778 5.59 2.262 8.62l-.32.599c-.053.087-.092.113-.118.211-.082-.022-.447-.37-.533-.452-.428-.407-1.252-.912-1.785-1.167-1.612-.775-3.478-.943-5.261-.514-.709.17-1.483.489-2.093.859l-.308.184c-.259.162-.896.66-1.101.868-.086.087-.144.188-.271.222-.024-.093-.156-.274-.216-.375-.081-.137-.143-.278-.21-.413a6.63 6.63 0 0 1-.614-1.879c-.056-.335-.108-.772-.108-1.139h0zm-1.05-.328c0 1.123.054 1.984.469 3.041l.126.334a8.26 8.26 0 0 0 .848 1.513l.402.518c.673.772 1.405 1.399 2.322 1.877l.148.082c.898.449 2.137.837 3.198.837h.656c1.42 0 2.633-.499 3.686-1.071.204-.111.401-.247.58-.373.682-.482 1.178-.995 1.702-1.644l.205-.287c1.259-1.706 1.72-4.243 1.19-6.35-.14-.558-.284-.93-.487-1.416-.388-.936-1.103-1.797-1.798-2.5-.1-.101-.164-.135-.263-.229-.422-.402-1.229-.872-1.752-1.135-.725-.365-2.022-.743-3.095-.743-.951 0-1.269.001-2.225.235-1.549.38-3.033 1.33-4.052 2.543l-.416.535-.375.576c-.611 1.007-1.069 2.501-1.069 3.657h0zm4.725-2.428c0 .589.043.967.294 1.477.14.283.393.669.617.893l.396.325c.164.121.281.183.475.28.819.41 1.897.413 2.713.011 1.028-.507 1.804-1.523 1.804-2.724 0-.821-.204-1.569-.73-2.157-.346-.386-.553-.568-1.052-.818a3.18 3.18 0 0 0-2.713-.011c-.283.14-.67.393-.893.616-.064.064-.091.119-.165.197s-.112.132-.175.218c-.315.437-.571 1.088-.571 1.693h0z" fill="#545454" class="H"/><g clip-path="url(#I)" class="E"><path d="M42.972 328.323l-2.839-2.838c.647-.791 1.037-1.8 1.037-2.899a4.59 4.59 0 0 0-4.583-4.583 4.59 4.59 0 0 0-4.583 4.583 4.59 4.59 0 0 0 4.583 4.584 4.56 4.56 0 0 0 2.898-1.037l2.839 2.838.648-.648zm-6.385-2.071a3.67 3.67 0 0 1-3.667-3.666 3.67 3.67 0 0 1 3.667-3.666 3.67 3.67 0 0 1 3.667 3.666 3.67 3.67 0 0 1-3.667 3.667v-.001zm1.831-3.211h.458v.917h-4.583v-.917h.458v-1.375h.917v1.375h.458v-2.75h.917v2.75h.458v-1.833h.917v1.833z"/></g><path d="M252.733 137.889c0-2.062-1.672-3.734-3.733-3.734s-3.734 1.672-3.734 3.734 1.672 3.733 3.734 3.733 3.733-1.671 3.733-3.733zm56.908 0v-.7H249v.7.7h60.641v-.7z" fill="url(#D)"/><g filter="url(#B)" class="C"><rect x="308.641" y="76" width="304" height="132.8" rx="7"/></g><path stroke="#e3e3e3" d="M308.641 158.95h302.4" class="F"/><path d="M399.838 137v-9.953h3.295c1.094 0 1.934.276 2.522.827s.882 1.276.882 2.188-.294 1.647-.882 2.208-1.428.834-2.522.834h-1.983V137h-1.312zm1.312-4.977h1.983c.775 0 1.317-.189 1.627-.567s.465-.848.465-1.394-.155-1.005-.465-1.374-.852-.561-1.627-.561h-1.983v3.896zm6.672 2.427v-4.641h1.272v4.655c0 .574.127.987.383 1.237s.626.369 1.1.369a1.81 1.81 0 0 0 1.073-.328c.31-.219.552-.501.725-.847v-5.086h1.271V137h-1.148l-.055-.923h-.041c-.259.328-.578.588-.957.779-.373.187-.788.281-1.244.281-.724 0-1.303-.205-1.736-.616s-.643-1.105-.643-2.071zm7.848 2.55v-7.191h1.148l.055.922h.041c.255-.323.563-.581.923-.772s.768-.287 1.21-.287c.483 0 .9.096 1.251.287s.617.501.8.93h.041c.3-.429.633-.739.998-.93a2.67 2.67 0 0 1 1.258-.287c.747 0 1.33.207 1.75.622.419.41.628 1.098.628 2.064V137h-1.271v-4.655c0-.574-.123-.985-.369-1.231s-.595-.376-1.046-.376c-.392 0-.736.11-1.032.328s-.524.502-.698.848V137h-1.271v-4.655c0-.574-.123-.985-.369-1.231s-.595-.376-1.046-.376c-.392 0-.736.11-1.032.328s-.524.502-.698.848V137h-1.271zm12.059 2.844v-10.035h1.148l.055.936h.041c.182-.296.46-.549.834-.759s.818-.314 1.319-.314c.911 0 1.641.342 2.187 1.025s.821 1.55.821 2.598v.219c0 1.048-.274 1.914-.821 2.597s-1.276 1.026-2.187 1.026c-.501 0-.93-.089-1.285-.267a2.31 2.31 0 0 1-.841-.718v3.692h-1.271zm1.271-4.977c.141.319.371.604.69.855s.707.376 1.163.376c.683 0 1.184-.249 1.503-.745s.479-1.11.479-1.839v-.219c0-.729-.16-1.342-.479-1.839s-.82-.745-1.503-.745c-.456 0-.844.125-1.163.376s-.549.535-.69.854v2.926zm6.501-1.586v-1.176h3.855v1.176h-3.855zm5.496.506v-6.74h1.313v6.74c0 .775.209 1.351.628 1.73s.978.567 1.662.567 1.235-.189 1.654-.567.636-.955.636-1.73v-6.74h1.312v6.74c0 1.139-.351 1.994-1.053 2.564s-1.547.854-2.549.854-1.855-.285-2.557-.854-1.046-1.425-1.046-2.564zm9.276 3.213v-7.191h1.149l.055.922h.041a2.78 2.78 0 0 1 .95-.772c.378-.191.795-.287 1.251-.287.724 0 1.301.207 1.729.622.433.41.65 1.098.65 2.064V137h-1.272v-4.655c0-.574-.13-.985-.389-1.231s-.62-.376-1.094-.376c-.406 0-.764.11-1.073.328a2.26 2.26 0 0 0-.725.848V137h-1.272zm7.349-3.486v-.219c0-1.048.274-1.914.82-2.598s1.276-1.025 2.188-1.025c.501 0 .927.091 1.278.273a2.25 2.25 0 0 1 .848.711V126.5h1.271V137h-1.148l-.055-.937h-.041c-.182.297-.462.55-.841.759-.373.21-.811.315-1.312.315-.912 0-1.641-.342-2.188-1.026s-.82-1.549-.82-2.597zm1.299 0c0 .729.159 1.342.478 1.839s.821.745 1.504.745c.456 0 .843-.126 1.162-.376s.55-.536.691-.855v-2.926c-.141-.319-.372-.603-.691-.854s-.706-.376-1.162-.376c-.683 0-1.185.248-1.504.745s-.478 1.11-.478 1.839v.219zm6.699 0v-.219c0-1.085.296-1.971.889-2.659s1.385-1.032 2.365-1.032 1.734.321 2.263.963.793 1.511.793 2.605v.519h-5.531v-1.011h4.252v-.164c0-.52-.148-.962-.444-1.327s-.722-.546-1.278-.546c-.675 0-1.178.257-1.511.772s-.499 1.137-.499 1.88v.219c0 .743.175 1.371.526 1.886s.896.766 1.634.766c.456 0 .848-.1 1.176-.301a2.81 2.81 0 0 0 .8-.711l.82.65c-.228.342-.581.661-1.06.957s-1.052.444-1.736.444c-1.116 0-1.973-.344-2.57-1.032s-.889-1.575-.889-2.659zm7.868 3.486v-7.191h1.149l.054.922h.041a2.83 2.83 0 0 1 .718-.786c.296-.228.65-.341 1.06-.341a1.52 1.52 0 0 1 .314.034 1.51 1.51 0 0 1 .233.061v1.176a2.79 2.79 0 0 0-.287-.041l-.329-.014c-.41 0-.758.107-1.045.322a1.92 1.92 0 0 0-.636.799V137h-1.272zm4.485 1.941l.799-.957c.201.233.484.438.848.616a2.72 2.72 0 0 0 1.231.273c.615 0 1.1-.175 1.456-.526s.533-.846.533-1.484v-.711c-.21.297-.492.536-.848.718s-.777.267-1.278.267c-.912 0-1.641-.342-2.188-1.026s-.82-1.549-.82-2.597v-.219c0-1.048.273-1.914.82-2.598s1.276-1.025 2.188-1.025c.501 0 .939.105 1.312.314.379.21.659.463.841.759h.041l.055-.936h1.148v7.054c0 1.003-.298 1.773-.895 2.311s-1.374.806-2.331.806c-.593 0-1.14-.098-1.641-.293s-.925-.445-1.271-.746zm1.032-5.427c0 .729.159 1.342.478 1.839s.821.745 1.504.745c.456 0 .843-.126 1.162-.376s.55-.536.691-.855v-2.926c-.141-.319-.372-.603-.691-.854s-.706-.376-1.162-.376c-.683 0-1.185.248-1.504.745s-.478 1.11-.478 1.839v.219zm7.13 3.486v-7.191h1.148l.055.922h.041a2.8 2.8 0 0 1 .718-.786c.296-.228.649-.341 1.059-.341a1.53 1.53 0 0 1 .315.034 1.49 1.49 0 0 1 .232.061v1.176a2.75 2.75 0 0 0-.287-.041l-.328-.014c-.41 0-.759.107-1.046.322s-.499.48-.636.799V137h-1.271zm4.218-3.486v-.219c0-1.085.307-1.971.922-2.659s1.438-1.032 2.468-1.032 1.853.344 2.468 1.032.923 1.574.923 2.659v.219c0 1.084-.308 1.971-.923 2.659s-1.438 1.032-2.468 1.032-1.852-.344-2.468-1.032-.922-1.575-.922-2.659zm1.298-.219v.219c0 .743.176 1.371.527 1.886s.872.766 1.565.766 1.215-.255 1.566-.766.526-1.143.526-1.886v-.219c0-.743-.175-1.37-.526-1.88s-.873-.772-1.566-.772-1.214.257-1.565.772-.527 1.137-.527 1.88zm7.007 1.155v-4.641h1.272v4.655c0 .574.127.987.382 1.237s.627.369 1.101.369a1.81 1.81 0 0 0 1.073-.328c.31-.219.552-.501.725-.847v-5.086h1.271V137h-1.148l-.055-.923h-.041c-.259.328-.578.588-.957.779-.373.187-.788.281-1.244.281-.725 0-1.303-.205-1.736-.616s-.643-1.105-.643-2.071zm7.848 2.55v-7.191h1.148l.055.922h.041a2.79 2.79 0 0 1 .95-.772c.378-.191.795-.287 1.251-.287.725 0 1.301.207 1.73.622.433.41.649 1.098.649 2.064V137h-1.271v-4.655c0-.574-.13-.985-.39-1.231s-.62-.376-1.094-.376a1.82 1.82 0 0 0-1.073.328c-.31.219-.551.502-.725.848V137h-1.271zm7.348-3.486v-.219c0-1.048.274-1.914.821-2.598s1.276-1.025 2.187-1.025c.502 0 .928.091 1.279.273s.638.415.847.711V126.5h1.272V137h-1.149l-.054-.937h-.041c-.183.297-.463.55-.841.759s-.811.315-1.313.315c-.911 0-1.64-.342-2.187-1.026s-.821-1.549-.821-2.597zm1.299 0c0 .729.16 1.342.479 1.839s.82.745 1.504.745c.455 0 .843-.126 1.162-.376s.549-.536.69-.855v-2.926c-.141-.319-.371-.603-.69-.854s-.707-.376-1.162-.376c-.684 0-1.185.248-1.504.745s-.479 1.11-.479 1.839v.219zM438.957 105.4V94.025h1.875l4.766 7.688.273.461a3.79 3.79 0 0 1 .211.445h.063l-.016-.523v-.516-7.555h1.656V105.4h-1.898l-4.75-7.672-.274-.461-.218-.445h-.055l.015.531.008.523v7.523h-1.656zm10.758-2.406c0-.854.336-1.51 1.008-1.969s1.526-.695 2.562-.695h1.766v-.539c0-.448-.117-.812-.352-1.094-.229-.281-.633-.422-1.211-.422s-.981.117-1.226.352-.367.51-.367.828v.07h-1.711v-.078c0-.677.304-1.255.914-1.734s1.432-.719 2.453-.719 1.815.232 2.383.695.851 1.167.851 2.109v3.742c0 .333.026.651.078.953a4.01 4.01 0 0 0 .227.781v.125h-1.688c-.067-.125-.13-.289-.187-.492s-.089-.411-.11-.609c-.177.328-.484.62-.921.875s-.993.383-1.664.383c-.787 0-1.451-.217-1.993-.649s-.812-1.075-.812-1.914zm1.734-.117c0 .432.125.773.375 1.023s.638.368 1.164.368c.547 0 1.026-.183 1.438-.547s.625-.766.625-1.203v-1.039h-1.547c-.682 0-1.195.125-1.539.375-.344.244-.516.585-.516 1.023zm7.516 2.523v-8.179h1.601l.055 1.023h.047a2.91 2.91 0 0 1 1.031-.867 2.95 2.95 0 0 1 1.352-.312c.557 0 1.039.115 1.445.344s.711.576.914 1.055h.039c.318-.479.696-.831 1.133-1.055a3.12 3.12 0 0 1 1.469-.344c.833 0 1.492.242 1.976.727.49.479.735 1.287.735 2.422v5.187h-1.735v-5.242c0-.599-.127-1.031-.382-1.297s-.62-.398-1.094-.398c-.412 0-.774.115-1.086.344s-.552.534-.735.914v5.679h-1.734v-5.234c0-.604-.128-1.039-.383-1.305s-.622-.398-1.101-.398c-.412 0-.771.115-1.078.344s-.552.534-.735.914v5.679h-1.734zm13.437-3.968v-.25c0-1.24.352-2.248 1.055-3.024.703-.781 1.625-1.172 2.766-1.172s2.023.365 2.648 1.094.938 1.713.938 2.969v.664h-6.305v-1.242h4.578v-.18c.005-.542-.151-1.003-.469-1.383-.312-.385-.765-.578-1.359-.578-.703 0-1.232.266-1.586.797s-.523 1.203-.523 2.016v.328c0 .812.187 1.484.562 2.015s.945.797 1.711.797c.495 0 .919-.112 1.273-.336s.641-.487.86-.789l1.172.836c-.261.427-.675.807-1.243 1.141-.562.333-1.244.5-2.046.5-1.287 0-2.282-.388-2.985-1.164-.698-.782-1.047-1.795-1.047-3.039z" class="D"/><path d="M523.39 183.538v-.629c0-1.531.392-2.725 1.175-3.582.789-.857 1.798-1.285 3.029-1.285s2.237.428 3.021 1.285 1.183 2.051 1.183 3.582v.629c0 1.531-.394 2.725-1.183 3.582s-1.791 1.285-3.021 1.285-2.24-.428-3.029-1.285c-.783-.857-1.175-2.051-1.175-3.582zm1.326 0c0 1.167.262 2.083.786 2.748a2.54 2.54 0 0 0 2.092.998 2.52 2.52 0 0 0 2.085-.998c.528-.665.793-1.581.793-2.748v-.629c0-1.166-.265-2.083-.793-2.748a2.52 2.52 0 0 0-2.085-.998 2.54 2.54 0 0 0-2.092.998c-.524.665-.786 1.582-.786 2.748v.629zm8.88 4.662v-10.5h1.271v6.617l3.076-3.308h1.443l-4.519 4.799v2.392h-1.271zm4.634 0l-2.802-3.719.793-.875 3.5 4.594h-1.491zm1.997-2.119c0-.729.289-1.296.868-1.702s1.315-.608 2.208-.608h1.627v-.493c0-.433-.112-.784-.335-1.052-.224-.274-.609-.411-1.156-.411s-.938.114-1.175.342-.349.483-.349.78v.034h-1.265v-.034c0-.57.253-1.067.759-1.491s1.199-.642 2.065-.642 1.535.207 2.009.622c.479.414.718 1.032.718 1.852v3.282a4.89 4.89 0 0 0 .069.84c.045.26.109.49.191.691v.109h-1.231c-.063-.114-.123-.262-.177-.444s-.082-.365-.096-.547c-.169.296-.442.558-.82.786s-.857.342-1.449.342c-.684 0-1.265-.194-1.744-.581s-.717-.946-.717-1.675zm1.271-.068c0 .41.119.731.356.964s.606.348 1.107.348.955-.173 1.36-.519.609-.714.609-1.101v-1.032h-1.491c-.638 0-1.121.121-1.449.362a1.15 1.15 0 0 0-.492.978zm5.906 5.031v-1.08c.119.036.251.066.397.089a2.72 2.72 0 0 0 .424.034c.319 0 .597-.121.834-.362s.487-.755.752-1.552v-.007l-2.68-7.157h1.23l1.702 4.73.171.513.13.444h.041l.137-.444.171-.513 1.586-4.73h1.203l-2.919 8.148c-.228.638-.531 1.135-.909 1.49s-.834.534-1.381.534c-.182 0-.344-.012-.485-.035a2.17 2.17 0 0 1-.404-.102z" fill="#3c3b3b"/><path d="M365.427 183.538v-.629c0-1.531.392-2.725 1.176-3.582a3.85 3.85 0 0 1 2.959-1.285c1.185 0 2.113.326 2.783.978.674.647 1.011 1.428 1.011 2.344v.069h-1.312v-.069c0-.633-.205-1.157-.615-1.572s-1.033-.629-1.867-.629a2.54 2.54 0 0 0-2.016.923c-.529.615-.793 1.556-.793 2.823v.629c0 1.167.262 2.083.786 2.748s1.203.998 2.023.998c.784 0 1.377-.212 1.778-.636s.633-.945.697-1.565l.007-.068h1.312l-.006.068c-.092.911-.449 1.693-1.074 2.345s-1.529.977-2.714.977a3.85 3.85 0 0 1-2.959-1.285c-.784-.857-1.176-2.051-1.176-3.582zm9.126 2.543c0-.729.289-1.296.868-1.702s1.315-.608 2.208-.608h1.627v-.493c0-.433-.112-.784-.335-1.052-.223-.274-.609-.411-1.155-.411s-.939.114-1.176.342-.349.483-.349.78v.034h-1.264v-.034c0-.57.252-1.067.758-1.491s1.199-.642 2.065-.642 1.536.207 2.01.622.717 1.032.717 1.852v3.282a4.89 4.89 0 0 0 .069.84c.045.26.109.49.191.691v.109h-1.23c-.064-.114-.123-.262-.178-.444s-.082-.365-.096-.547c-.168.296-.442.558-.82.786s-.857.342-1.449.342c-.684 0-1.265-.194-1.743-.581s-.718-.946-.718-1.675zm1.271-.068c0 .41.119.731.356.964s.606.348 1.107.348.955-.173 1.36-.519.609-.714.609-1.101v-1.032h-1.49c-.638 0-1.121.121-1.45.362a1.15 1.15 0 0 0-.492.978zm6.686 2.187v-7.191h1.148l.055.923h.041a2.79 2.79 0 0 1 .95-.773c.378-.191.795-.287 1.251-.287.725 0 1.301.207 1.73.622s.649 1.098.649 2.065v4.641h-1.272v-4.655c0-.574-.129-.984-.389-1.231s-.62-.376-1.094-.376c-.405 0-.763.11-1.073.329s-.552.501-.725.847v5.086h-1.271zm7.348-3.486v-.219c0-1.085.294-1.971.882-2.659s1.406-1.032 2.441-1.032c.957 0 1.684.259 2.18.779s.745 1.091.745 1.729v.035h-1.23v-.035c0-.387-.134-.729-.403-1.025s-.7-.444-1.292-.444c-.693 0-1.203.257-1.532.772s-.492 1.137-.492 1.88v.219c0 .743.164 1.372.492 1.887s.839.765 1.532.765c.592 0 1.023-.148 1.292-.444a1.48 1.48 0 0 0 .403-1.026v-.034h1.23v.034c0 .639-.248 1.217-.745 1.737-.496.515-1.223.772-2.18.772-1.035 0-1.848-.344-2.441-1.032s-.882-1.574-.882-2.659zm7.301 0v-.219c0-1.085.296-1.971.889-2.659s1.385-1.032 2.365-1.032 1.734.321 2.263.964.793 1.51.793 2.604v.52h-5.531v-1.012h4.252v-.164c0-.52-.148-.962-.444-1.326s-.722-.547-1.278-.547c-.675 0-1.178.257-1.511.772s-.499 1.137-.499 1.88v.219c0 .743.175 1.372.526 1.887s.896.765 1.634.765c.456 0 .848-.1 1.176-.301a2.81 2.81 0 0 0 .8-.711l.82.65c-.228.342-.581.661-1.06.957-.473.296-1.052.444-1.736.444-1.116 0-1.973-.344-2.57-1.032s-.889-1.574-.889-2.659zm7.923 3.486v-10.5h1.272v10.5h-1.272z" fill-opacity=".81" class="G"/><path stroke="#e3e3e3" d="M460.891 159.2v49.6" class="F"/><defs><filter id="A" x="16" y="20" width="225" height="63" filterUnits="userSpaceOnUse" class="I"><feFlood flood-opacity="0" result="A"/><feColorMatrix in="SourceAlpha" values="0 0 0 0 0 0 0 0 0 0 0 0 0 0 0 0 0 0 127 0" result="B"/><feMorphology radius="1" operator="dilate" in="SourceAlpha"/><feOffset dy="1"/><feGaussianBlur stdDeviation="2.5"/><feComposite in2="B" operator="out"/><feColorMatrix values="0 0 0 0 0 0 0 0 0 0 0 0 0 0 0 0 0 0 0.1 0"/><feBlend in2="A"/><feBlend in="SourceGraphic"/></filter><filter id="B" x="298.641" y="70" width="324" height="152.8" filterUnits="userSpaceOnUse" class="I"><feFlood flood-opacity="0" result="A"/><feColorMatrix in="SourceAlpha" values="0 0 0 0 0 0 0 0 0 0 0 0 0 0 0 0 0 0 127 0" result="B"/><feOffset dy="4"/><feGaussianBlur stdDeviation="5"/><feComposite in2="B" operator="out"/><feColorMatrix values="0 0 0 0 0 0 0 0 0 0 0 0 0 0 0 0 0 0 0.25 0"/><feBlend in2="A"/><feBlend in="SourceGraphic"/></filter><linearGradient id="C" x1="128" y1="0" x2="128" y2="533" gradientUnits="userSpaceOnUse"><stop stop-color="#ff5f9b"/><stop offset="1" stop-color="#2f67ff"/></linearGradient><linearGradient id="D" x1="249" y1="137.089" x2="309.641" y2="137.089" gradientUnits="userSpaceOnUse"><stop stop-color="#2f67ff"/><stop offset="1" stop-color="#c262b8"/></linearGradient><clipPath id="E"><path transform="translate(34.5 129)" d="M0 0h9v10H0z" class="C"/></clipPath><clipPath id="F"><path transform="translate(34 183)" d="M0 0h10v10H0z" class="C"/></clipPath><clipPath id="G"><path transform="translate(32 248)" d="M0 0h14v12H0z" class="C"/></clipPath><clipPath id="H"><path transform="translate(33.5 386.108)" d="M0 0h11v10H0z" class="C"/></clipPath><clipPath id="I"><path transform="translate(32 318)" d="M0 0h11v11H0z" class="C"/></clipPath><path id="J" d="M40.831 58.735v.569"/><path id="K" d="M216.341 258.5l-.563-.5 3.319-2.925-3.319-2.925.563-.5 3.881 3.425-3.881 3.425z"/></defs></svg>