<svg xmlns="http://www.w3.org/2000/svg" width="607" height="533" fill="none" xmlns:v="https://vecta.io/nano"><style><![CDATA[.B{fill:#b8b8b8}.C{fill:#0c0c0c}.D{fill:#575757}.E{stroke-width:.5}.F{fill:#f85550}.G{color-interpolation-filters:sRGB}]]></style><rect x=".25" y=".25" width="255.5" height="532.5" rx="9.75" fill="#fff" stroke="url(#C)" class="E"/><path d="M23.648 173.849v7.273h-.852l-3.963-5.71h-.071v5.71h-.881v-7.273h.852l3.977 5.725h.071v-5.725h.867zm3.936 7.387c-.526 0-.979-.116-1.36-.348a2.34 2.34 0 0 1-.877-.98c-.204-.422-.305-.912-.305-1.471s.102-1.051.305-1.477a2.41 2.41 0 0 1 .859-1.001c.369-.242.8-.362 1.293-.362a2.58 2.58 0 0 1 .842.142c.277.094.529.248.756.461s.408.49.543.838.202.777.202 1.286v.355h-4.204v-.725h3.352c0-.307-.061-.582-.185-.823a1.39 1.39 0 0 0-.518-.572c-.223-.14-.485-.21-.788-.21-.334 0-.623.083-.866.249a1.63 1.63 0 0 0-.558.639 1.88 1.88 0 0 0-.195.845v.483c0 .412.071.761.213 1.048s.345.501.6.65.553.22.891.22a1.83 1.83 0 0 0 .597-.092c.18-.064.335-.159.465-.285s.231-.286.302-.475l.81.227c-.085.274-.229.516-.43.724s-.45.367-.746.483-.628.171-.998.171zm5.905-5.568v.71h-2.827v-.71h2.827zm-2.003-1.307h.838v5.199c0 .236.034.414.103.532s.161.194.27.235.229.056.352.056c.092 0 .168-.004.227-.014l.142-.028.17.753c-.057.021-.136.042-.238.064s-.231.035-.387.035c-.237 0-.469-.051-.696-.153a1.37 1.37 0 0 1-.561-.465c-.147-.208-.22-.471-.22-.788v-5.426zm4.499 6.761l-1.662-5.454h.881l1.179 4.176h.057l1.165-4.176h.895l1.151 4.161h.057l1.179-4.161h.881l-1.662 5.454h-.824l-1.193-4.19h-.085l-1.193 4.19h-.824zm8.92.114c-.492 0-.924-.117-1.296-.352s-.658-.562-.867-.984-.309-.913-.309-1.477.103-1.064.309-1.488.497-.753.867-.987.804-.351 1.296-.351.923.117 1.293.351.661.564.866.987.313.92.313 1.488-.104 1.056-.312 1.477a2.35 2.35 0 0 1-.866.984c-.369.235-.8.352-1.293.352zm0-.753c.374 0 .682-.096.923-.288s.42-.444.536-.756.174-.651.174-1.016-.058-.704-.174-1.019-.295-.569-.536-.763-.549-.292-.923-.292-.682.097-.923.292-.42.448-.536.763-.174.655-.174 1.019a2.9 2.9 0 0 0 .174 1.016 1.7 1.7 0 0 0 .536.756c.242.192.549.288.923.288zm3.751.639v-5.454h.81v.823h.057c.099-.269.279-.488.54-.657a1.59 1.59 0 0 1 .881-.252l.231.004.21.011v.852a2.43 2.43 0 0 0-.195-.032c-.099-.017-.205-.025-.316-.025-.265 0-.502.056-.71.167a1.26 1.26 0 0 0-.49.454c-.118.192-.178.411-.178.657v3.452h-.838zm4.502-1.989l-.014-1.036h.17l2.386-2.429h1.037l-2.543 2.571h-.071l-.966.894zm-.781 1.989v-7.273h.838v7.273h-.838zm3.466 0l-2.131-2.699.597-.582 2.599 3.281h-1.065z" class="B"/><path d="M50.881 210.122v-7.273h2.457c.571 0 1.037.103 1.399.309s.634.48.81.828.263.736.263 1.164-.088.818-.263 1.169-.44.63-.803.838-.826.309-1.392.309h-1.761v-.781h1.733c.391 0 .704-.068.941-.203s.408-.317.515-.547.163-.493.163-.785-.054-.551-.163-.781-.279-.409-.518-.54-.556-.198-.952-.198h-1.548v6.491h-.881zm6.234 0v-5.454h.838v5.454h-.838zm.426-6.364c-.163 0-.304-.055-.422-.166s-.174-.245-.174-.402.058-.29.174-.401.259-.167.422-.167.303.056.419.167a.53.53 0 0 1 .178.401c0 .157-.059.29-.178.402s-.256.166-.419.166zm2.785 3.083v3.281h-.838v-5.454h.81v.852h.071a1.56 1.56 0 0 1 .582-.668c.26-.17.597-.255 1.008-.255.369 0 .693.075.97.227s.492.376.646.682.231.686.231 1.15v3.466h-.838v-3.409c0-.429-.111-.762-.334-1.001s-.528-.363-.916-.363c-.268 0-.507.058-.717.174a1.25 1.25 0 0 0-.494.508c-.121.223-.181.493-.181.81zm7.213 5.44c-.405 0-.753-.052-1.044-.156s-.534-.237-.728-.405-.344-.343-.458-.533l.668-.468.288.341c.116.13.275.242.476.337s.47.146.799.146c.44 0 .804-.107 1.09-.32s.43-.547.43-1.001v-1.108h-.071c-.061.099-.149.222-.263.369a1.5 1.5 0 0 1-.483.387c-.208.111-.49.167-.845.167a2.27 2.27 0 0 1-1.186-.313c-.348-.208-.624-.511-.827-.909s-.302-.88-.302-1.449c0-.558.098-1.045.295-1.459s.47-.739.82-.966.755-.344 1.214-.344c.355 0 .637.059.845.177s.372.249.483.398l.263.362h.085v-.866h.81v5.61c0 .469-.107.85-.32 1.144s-.495.512-.852.65a3.23 3.23 0 0 1-1.186.209zm-.028-2.997c.336 0 .62-.077.852-.231s.408-.375.529-.664.181-.634.181-1.037c0-.393-.059-.74-.178-1.04s-.294-.537-.526-.707-.518-.256-.859-.256c-.355 0-.651.09-.888.27s-.411.422-.529.725-.174.639-.174 1.008a2.65 2.65 0 0 0 .178 1.005 1.54 1.54 0 0 0 .533.682c.237.163.53.245.881.245z" class="C"/><g fill-rule="evenodd"><path d="M38.002 502.23v6.949a1.18 1.18 0 0 1-1.184 1.184h-4.955c-.624 0-1.184-.504-1.184-1.091v-7.136c0-.557.533-1.09 1.09-1.09h5.141a1.11 1.11 0 0 1 .766.355c.179.213.324.453.324.829h0zm8.631 6.543v7.136c0 .558-.533 1.091-1.09 1.091h-5.141c-.563 0-1.09-.539-1.09-1.185v-6.948a1.18 1.18 0 0 1 1.184-1.184h4.955c.644 0 1.184.516 1.184 1.09h0zm-8.631 4.083v2.96a1.17 1.17 0 0 1-.093.468c-.171.379-.538.716-.998.716H31.77c-.558 0-1.09-.533-1.09-1.09v-3.148c0-.59.558-1.09 1.184-1.09h4.955a1.18 1.18 0 0 1 1.184 1.184h0zm8.631-10.72v3.148c0 .563-.538 1.09-1.184 1.09h-4.955a1.18 1.18 0 0 1-1.184-1.184v-2.96c0-.347.144-.623.306-.816a1.18 1.18 0 0 1 .785-.368h5.141c.558 0 1.09.533 1.09 1.09h0z" class="F"/><path d="M120.104 509.023c0-.315.256-.655.685-.655.824 0 .824 1.309 0 1.309-.219 0-.355-.067-.476-.178-.093-.086-.209-.312-.209-.476zm-1.994.467v4.332c0 1.643 1.539 3.178 3.178 3.178h4.331c.488 0 .96-.185 1.299-.353.286-.142.771-.477.95-.702l.351-.459c.372-.572.548-1.21.548-1.976v-3.646c0-1.146-.412-1.955-.99-2.532s-1.38-.989-2.532-.989h-3.646c-1.127 0-1.656.296-2.417.885-.533.413-1.073 1.517-1.073 2.262h.001zm7.976-7.821c0 1.072 1.063.479 2.653 1.056 2.202.798 3.757 2.747 3.956 5.111.042.505-.05 1.187.745 1.187.322 0 .623-.3.623-.623 0-1.183-.236-2.258-.685-3.147l-.301-.572c-1.106-2.034-3.677-3.635-6.025-3.635h-.343c-.322 0-.623.301-.623.623zm0 2.648c0 .391.21.659.536.71.411.065.466-.012 1.016.138.432.118.794.312 1.142.572.079.06.082.064.149.131.074.073.104.081.171.141s.062.082.126.154c.433.489.742 1.113.812 1.774.042.394-.051 1.086.753 1.086.343 0 .624-.308.624-.717 0-1.228-.474-2.234-1.223-3.077-.064-.072-.068-.101-.14-.173s-.087-.067-.155-.124c-.191-.161-.183-.188-.477-.396-.718-.509-1.688-.842-2.68-.842-.333 0-.654.286-.654.624v-.001zm79.239 4.706a7.23 7.23 0 0 1 .61-2.814c.388-.833.8-1.437 1.41-2.047l.43-.401c.857-.72 1.753-1.18 2.868-1.452.963-.235 2.124-.268 3.086-.027.923.231 1.643.511 2.412 1.044 2.809 1.946 3.827 5.663 2.291 8.733l-.324.606c-.053.088-.092.115-.119.214-.083-.023-.453-.375-.54-.457-.434-.413-1.268-.924-1.808-1.183-1.634-.785-3.524-.956-5.33-.521a7.85 7.85 0 0 0-2.121.871l-.312.186a9.59 9.59 0 0 0-1.115.879c-.087.088-.146.19-.274.225-.025-.094-.158-.277-.219-.38-.082-.139-.145-.281-.213-.418-.295-.588-.509-1.229-.622-1.904a7.49 7.49 0 0 1-.11-1.154h0zm-1.063-.332c0 1.138.054 2.01.475 3.081l.127.338c.207.508.55 1.094.86 1.534l.406.524c.683.782 1.425 1.417 2.353 1.901l.15.083c.909.455 2.165.848 3.24.848h.665c1.438 0 2.667-.505 3.734-1.085a6.02 6.02 0 0 0 .587-.377c.692-.489 1.194-1.009 1.724-1.666l.209-.291c1.275-1.729 1.742-4.298 1.205-6.433-.142-.565-.288-.942-.493-1.435-.393-.948-1.118-1.82-1.822-2.532-.101-.102-.167-.137-.266-.232-.428-.407-1.246-.883-1.776-1.15-.734-.37-2.048-.753-3.135-.753-.963 0-1.286.001-2.254.239-1.569.385-3.073 1.347-4.105 2.576l-.422.542-.38.584c-.618 1.019-1.082 2.533-1.082 3.704h0zm4.787-2.46c0 .597.044.98.298 1.496.142.287.398.679.625.905l.401.33a2.94 2.94 0 0 0 .481.283c.83.415 1.922.419 2.749.011 1.041-.513 1.828-1.542 1.828-2.759 0-.832-.207-1.59-.74-2.185-.35-.391-.56-.576-1.066-.829-.83-.415-1.922-.419-2.749-.011-.286.141-.678.398-.904.624-.065.065-.092.12-.167.199s-.114.134-.177.222c-.32.442-.579 1.101-.579 1.714h0z" fill="#545454"/></g><g filter="url(#A)"><rect x="16" y="17" width="216" height="52" rx="10" fill="#fff"/></g><g stroke="#5a5c66" stroke-miterlimit="22.9256" class="E"><path d="M31.51 31h10.664a.51.51 0 0 1 .51.51v21.964l-1.219 3.725c-.068.138-.215.206-.42.221l-.18.095-3.869.017-4.04-.015c-.051-.027-.042-.048-.099-.053-.341-.029-.491-.133-.537-.274L31 53.436v-4.184V31.51a.51.51 0 0 1 .51-.51h0z"/><path d="M31.815 31l2.076 1.048 5.977.005L41.943 31l-1.75 1.325s-.272.261-.644.236h-5.187s-.432.079-.823-.293L31.815 31z" stroke-linejoin="round"/><path d="M33.131 33.078l7.604.002 1.763-1.963m-9.833 2.314c0-.065-1.665-1.75-1.665-1.75"/><path d="M33.158 33.104l-1.98-1.98m10.004 2.307c0-.065 1.503-1.75 1.503-1.75"/><path d="M32.662 53.474V33.513s-.081-.435.511-.435m8.004 20.396V33.513s.081-.435-.511-.435"/><path d="M31 49.31l1.662 4.08s.011.19.614.242 7.357 0 7.357 0 .481.005.592-.293l1.432-4.048v.152l-1.391 3.938s-.041.327-.467.352-7.363.026-7.363.026-.776.076-.852-.378L31 49.349m1.889 8.122l1.573-2.466c.046-.086.134-.177.208-.236.202-.16.45-.228.707-.232h2.986c.109-.008.247.011.351.037a1.18 1.18 0 0 1 .648.411l.004.005 1.594 2.475m-2.424.545h-.025m-3.218-.003h-.037"/><path d="M32.996 57.517l1.566-2.455s.206-.402.815-.41h2.991s.543-.046.905.405l1.583 2.458m-2.235.379h-.005m-3.439-.003h-.014m-2.5-4.417l-.356 3.677m.883-3.389l-.28 3.722m8.266-4.057l.332 3.639m-.768-3.332l.291 3.693m-7.9-24.349l.055 20.68m7.57-20.656l-.015 20.632"/><path d="M35.395 57.523h-.303v.208a.71.71 0 0 0 .281.368c.071.444.37.758 1.52.778 1.135.02 1.441-.31 1.517-.756.221-.156.303-.365.33-.598h-.349-2.997z"/><path d="M36.193 57.529v.799"/><use href="#F"/><use href="#F" x="0.211"/><use href="#F" x="0.42"/><use href="#F" x="0.629"/><use href="#F" x="0.838"/><use href="#F" x="1.047"/><use href="#F" x="1.256"/><path d="M38.757 57.524c-.07.479-.41.844-1.865.824s-1.793-.355-1.864-.823"/></g><path d="M155.733 44h-.881c-.052-.253-.143-.476-.273-.668a1.82 1.82 0 0 0-.469-.483c-.182-.133-.385-.232-.607-.298a2.43 2.43 0 0 0-.696-.099 2.22 2.22 0 0 0-1.197.334c-.355.223-.638.55-.849.984s-.312.965-.312 1.594.104 1.161.312 1.595.494.761.849.984a2.22 2.22 0 0 0 1.197.334 2.43 2.43 0 0 0 .696-.099 2.04 2.04 0 0 0 .607-.295 1.87 1.87 0 0 0 .469-.486c.13-.194.221-.417.273-.668h.881a2.93 2.93 0 0 1-.362.998c-.175.294-.393.543-.654.749s-.552.359-.877.465-.666.16-1.033.16c-.62 0-1.172-.152-1.655-.455s-.863-.734-1.14-1.293-.415-1.222-.415-1.989.138-1.43.415-1.989.657-.99 1.14-1.293 1.035-.455 1.655-.455c.367 0 .711.053 1.033.16a2.81 2.81 0 0 1 .877.469 2.67 2.67 0 0 1 .654.746c.175.291.296.624.362.998zm3.525 5.114c-.492 0-.924-.117-1.296-.352s-.658-.562-.866-.984-.309-.914-.309-1.477.103-1.064.309-1.488.497-.753.866-.987.804-.352 1.296-.352.924.117 1.293.352.66.563.866.987.313.92.313 1.488-.104 1.056-.313 1.477-.494.749-.866.984-.8.352-1.293.352zm0-.753c.374 0 .682-.096.924-.288a1.7 1.7 0 0 0 .536-.756c.116-.312.174-.651.174-1.016s-.058-.704-.174-1.019a1.72 1.72 0 0 0-.536-.763c-.242-.194-.55-.291-.924-.291s-.681.097-.923.291a1.72 1.72 0 0 0-.536.763c-.116.315-.174.655-.174 1.019s.058.703.174 1.016a1.7 1.7 0 0 0 .536.756c.242.192.549.288.923.288zm4.589-2.642V49h-.838v-5.455h.81v.852h.071a1.56 1.56 0 0 1 .582-.668c.261-.17.597-.256 1.009-.256.369 0 .692.076.969.227s.493.376.647.682.23.687.23 1.151V49h-.838v-3.409c0-.428-.111-.762-.333-1.001s-.528-.362-.917-.362c-.267 0-.506.058-.717.174a1.25 1.25 0 0 0-.494.508c-.12.222-.181.492-.181.81zm5.85 0V49h-.838v-5.455h.81v.852h.071c.127-.277.321-.499.582-.668s.597-.256 1.008-.256c.37 0 .693.076.97.227a1.53 1.53 0 0 1 .646.682c.154.303.231.687.231 1.151V49h-.838v-3.409c0-.428-.111-.762-.334-1.001s-.528-.362-.916-.362c-.268 0-.507.058-.717.174s-.373.285-.494.508-.181.492-.181.81zm7.298 3.395c-.525 0-.979-.116-1.36-.348a2.34 2.34 0 0 1-.877-.98c-.203-.421-.305-.911-.305-1.47s.102-1.051.305-1.477a2.41 2.41 0 0 1 .86-1.001c.369-.241.8-.362 1.292-.362a2.59 2.59 0 0 1 .842.142c.277.095.529.249.756.462a2.2 2.2 0 0 1 .543.838c.135.348.203.776.203 1.285v.355h-4.205v-.724h3.353a1.79 1.79 0 0 0-.185-.824 1.4 1.4 0 0 0-.518-.572c-.223-.14-.486-.209-.789-.209-.334 0-.622.083-.866.249a1.63 1.63 0 0 0-.558.639 1.88 1.88 0 0 0-.195.845v.483c0 .412.071.761.213 1.048a1.53 1.53 0 0 0 .6.65 1.76 1.76 0 0 0 .891.22c.221 0 .419-.031.597-.092s.335-.159.465-.284.231-.287.302-.476l.81.227c-.086.275-.229.516-.43.724s-.45.367-.746.483-.628.17-.998.17zm5.75 0c-.512 0-.952-.121-1.321-.362s-.654-.574-.853-.998-.298-.908-.298-1.453c0-.554.102-1.043.305-1.467s.493-.759.86-.998.8-.362 1.292-.362c.384 0 .73.071 1.037.213a1.99 1.99 0 0 1 .757.597c.196.256.318.554.366.895h-.839c-.063-.249-.205-.469-.426-.66s-.511-.291-.88-.291c-.327 0-.613.085-.86.256a1.66 1.66 0 0 0-.571.714c-.135.305-.203.664-.203 1.076 0 .421.066.788.199 1.101s.324.555.568.728a1.47 1.47 0 0 0 .867.259 1.5 1.5 0 0 0 .593-.114 1.23 1.23 0 0 0 .451-.327 1.25 1.25 0 0 0 .262-.511h.839a1.95 1.95 0 0 1-.352.87 1.97 1.97 0 0 1-.735.611c-.303.149-.656.224-1.058.224zm5.742-5.568v.71h-2.827v-.71h2.827zm-2.003-1.307h.838v5.199c0 .237.034.414.103.533s.161.194.27.234a1.08 1.08 0 0 0 .352.057 1.49 1.49 0 0 0 .227-.014l.142-.028.17.753c-.057.021-.136.043-.238.064a1.74 1.74 0 0 1-.387.035 1.69 1.69 0 0 1-.696-.153 1.38 1.38 0 0 1-.561-.465c-.147-.208-.22-.471-.22-.788v-5.426zm5.492 6.875c-.526 0-.979-.116-1.36-.348s-.671-.561-.877-.98-.306-.911-.306-1.47.102-1.051.306-1.477.492-.762.859-1.001.8-.362 1.293-.362c.284 0 .564.047.841.142s.529.249.757.462.408.49.543.838.202.776.202 1.285v.355h-4.204v-.724h3.352c0-.308-.061-.582-.185-.824s-.293-.432-.518-.572-.485-.209-.788-.209c-.334 0-.623.083-.867.249s-.427.376-.557.639-.196.544-.196.845v.483c0 .412.071.761.213 1.048a1.54 1.54 0 0 0 .601.65c.255.147.552.22.891.22a1.81 1.81 0 0 0 .596-.092 1.29 1.29 0 0 0 .466-.284c.13-.128.23-.287.301-.476l.81.227c-.085.275-.228.516-.43.724s-.449.367-.745.483-.629.17-.998.17zm5.593 0c-.455 0-.856-.115-1.204-.344a2.33 2.33 0 0 1-.817-.98c-.196-.424-.294-.924-.294-1.502s.098-1.07.294-1.491.47-.747.821-.977.755-.344 1.214-.344c.355 0 .636.059.842.178s.367.249.476.398l.259.362h.071v-2.685h.838V49h-.81v-.838h-.099a5.42 5.42 0 0 1-.263.377 1.57 1.57 0 0 1-.486.401c-.211.116-.492.174-.842.174zm.114-.753c.336 0 .62-.088.852-.263s.408-.423.529-.735.181-.678.181-1.09-.059-.764-.178-1.069-.293-.547-.525-.717-.519-.259-.859-.259c-.356 0-.652.091-.888.273a1.63 1.63 0 0 0-.529.735c-.116.308-.174.653-.174 1.037s.059.741.177 1.058.298.566.533.753.53.277.881.277z" class="B"/><path d="M56.799 40.727h1.332l2.315 5.653h.085l2.315-5.653h1.332V48h-1.044v-5.263h-.067l-2.145 5.252h-.867l-2.145-5.256h-.067V48h-1.044v-7.273zm9.738 0l1.74 2.844h.057l1.74-2.844h1.271l-2.266 3.636L71.36 48h-1.278l-1.747-2.805h-.057L66.53 48h-1.278l2.319-3.636-2.305-3.636h1.271zm5.645 5.852v-.888l3.143-4.965h.7v1.307h-.444l-2.248 3.558v.057h4.308v.93h-5.458zM75.63 48v-1.69l.007-.405v-5.178h1.041V48H75.63zm5.779.099c-.488 0-.923-.084-1.307-.252s-.683-.401-.906-.7-.338-.649-.355-1.044h1.115a.96.96 0 0 0 .217.561c.132.156.305.277.518.362s.45.128.71.128a1.83 1.83 0 0 0 .76-.149c.223-.099.397-.238.522-.415a1.06 1.06 0 0 0 .188-.621c0-.244-.063-.458-.188-.643s-.304-.334-.543-.44-.523-.16-.859-.16h-.614v-.895h.614c.27 0 .507-.049.71-.146s.367-.232.483-.405.174-.38.174-.614c0-.225-.051-.42-.153-.586s-.242-.3-.426-.394-.398-.142-.646-.142a1.68 1.68 0 0 0-.664.131c-.204.085-.369.208-.497.369a.95.95 0 0 0-.206.572h-1.062c.012-.393.128-.739.348-1.037a2.25 2.25 0 0 1 .881-.7c.365-.168.769-.252 1.215-.252.466 0 .869.091 1.207.273a1.99 1.99 0 0 1 .788.721 1.81 1.81 0 0 1 .277.987c.002.407-.111.753-.341 1.037s-.53.475-.909.572v.057c.483.073.857.265 1.122.575s.4.695.398 1.154c.002.4-.109.759-.334 1.076s-.527.567-.913.749-.827.27-1.325.27zm3.761-1.52v-.888l3.143-4.965h.7v1.307h-.444l-2.248 3.558v.057h4.308v.93H85.17zM88.618 48v-1.69l.007-.405v-5.178h1.04V48h-1.048zm5.779.099c-.488 0-.923-.084-1.307-.252s-.683-.401-.906-.7-.338-.649-.355-1.044h1.115a.96.96 0 0 0 .217.561c.133.156.305.277.518.362s.45.128.71.128a1.83 1.83 0 0 0 .76-.149c.222-.099.396-.238.522-.415a1.06 1.06 0 0 0 .188-.621c0-.244-.063-.458-.188-.643s-.304-.334-.543-.44-.523-.16-.859-.16h-.614v-.895h.614c.27 0 .507-.049.71-.146s.367-.232.483-.405.174-.38.174-.614c0-.225-.051-.42-.153-.586s-.242-.3-.426-.394-.398-.142-.646-.142a1.68 1.68 0 0 0-.664.131c-.204.085-.369.208-.497.369a.95.95 0 0 0-.206.572h-1.062c.012-.393.128-.739.348-1.037a2.25 2.25 0 0 1 .881-.7c.365-.168.769-.252 1.215-.252.466 0 .869.091 1.207.273a1.99 1.99 0 0 1 .788.721 1.81 1.81 0 0 1 .277.987c.002.407-.111.753-.341 1.037s-.53.475-.909.572v.057c.483.073.857.265 1.122.575s.4.695.398 1.154c.002.4-.109.759-.334 1.076s-.527.567-.913.749-.827.27-1.325.27z" class="F"/><circle cx="213.5" cy="45.5" r="1.5" fill="#72cf70"/><path d="M216 45.5a2.5 2.5 0 1 1-5 0 2.5 2.5 0 1 1 5 0z" fill="#53ee50" fill-opacity=".35"/><use href="#G" class="B"/><path d="M35.367 210.507a.46.46 0 0 1-.273.588c-.052.019-.105.028-.158.028a.46.46 0 0 1-.43-.301l-3.007-8.219-1.608 4.395h2.066a.46.46 0 0 1 .458.458.46.46 0 0 1-.458.458h-2.402l-.503 1.375h3.821a.46.46 0 0 1 .458.459.46.46 0 0 1-.458.458h-4.157l-.226.616a.46.46 0 0 1-.588.273.46.46 0 0 1-.273-.588l3.225-8.815c-.169-.167-.274-.397-.274-.653 0-.506.41-.916.917-.916s.917.41.917.916c0 .256-.105.487-.274.653l3.225 8.815zm-6.249-7.634c.341.008.578-.394.396-.688a2.29 2.29 0 0 1-.306-1.146c0-.128.011-.257.032-.382a.46.46 0 0 0-.376-.528c-.255-.042-.487.127-.528.376-.029.175-.044.355-.044.534a3.2 3.2 0 0 0 .43 1.605.46.46 0 0 0 .397.229zm4.534-.062a.46.46 0 0 0 .626-.167c.281-.485.43-1.04.43-1.605 0-.179-.015-.359-.044-.534-.042-.249-.275-.418-.528-.376a.46.46 0 0 0-.376.528c.021.125.032.254.032.382a2.29 2.29 0 0 1-.306 1.146.46.46 0 0 0 .167.626zm.529 1.363c-.192.165-.215.454-.05.646a.46.46 0 0 0 .646.05 5.04 5.04 0 0 0 1.765-3.831 5.13 5.13 0 0 0-.025-.505c-.025-.251-.245-.434-.502-.41a.46.46 0 0 0-.41.502c.014.136.021.274.021.413a4.12 4.12 0 0 1-1.444 3.134v.001zm-5.958.697a.46.46 0 0 0 .646-.05.46.46 0 0 0-.05-.647 4.12 4.12 0 0 1-1.444-3.134 4.09 4.09 0 0 1 .021-.412.46.46 0 0 0-.411-.503.46.46 0 0 0-.502.41l-.025.505c0 1.475.643 2.871 1.765 3.831h.001z" class="D"/><path d="M50.483 233.631v-.782h5.455v.782h-2.287v6.491h-.881v-6.491h-2.287zm6.134 6.491v-5.454h.81v.823h.057c.099-.269.279-.488.54-.657a1.59 1.59 0 0 1 .881-.252l.231.004.209.011v.852a2.43 2.43 0 0 0-.195-.032c-.099-.017-.205-.025-.316-.025-.265 0-.502.056-.71.167a1.26 1.26 0 0 0-.49.454 1.23 1.23 0 0 0-.178.657v3.452h-.838zm3.721 0v-5.454h.838v5.454h-.838zm.426-6.364a.6.6 0 0 1-.423-.166c-.119-.111-.174-.245-.174-.402s.058-.29.174-.401.259-.167.423-.167.303.056.419.167a.53.53 0 0 1 .178.401.53.53 0 0 1-.178.402c-.119.112-.256.166-.419.166zm4.149 8.523c-.405 0-.753-.052-1.044-.156a2.22 2.22 0 0 1-.728-.405c-.192-.166-.344-.343-.458-.533l.668-.468.288.341c.116.13.275.242.476.337s.47.146.799.146c.44 0 .804-.107 1.09-.32s.43-.547.43-1.001v-1.108h-.071c-.062.099-.149.222-.263.369a1.5 1.5 0 0 1-.483.387c-.208.111-.49.167-.845.167a2.27 2.27 0 0 1-1.186-.313c-.348-.208-.624-.511-.827-.909s-.302-.88-.302-1.449c0-.558.098-1.045.295-1.459s.47-.739.82-.966.755-.344 1.215-.344c.355 0 .637.059.845.177s.372.249.483.398l.263.362h.085v-.866h.81v5.61c0 .469-.107.85-.32 1.144a1.85 1.85 0 0 1-.852.65 3.23 3.23 0 0 1-1.186.209zm-.028-2.997c.336 0 .62-.077.852-.231s.408-.375.529-.664.181-.634.181-1.037c0-.393-.059-.74-.178-1.04s-.294-.537-.526-.707-.519-.256-.859-.256c-.355 0-.651.09-.888.27s-.411.422-.529.725a2.8 2.8 0 0 0-.174 1.008c0 .379.059.714.178 1.005a1.54 1.54 0 0 0 .533.682c.237.163.53.245.881.245zm6.122 2.997c-.405 0-.753-.052-1.044-.156s-.534-.237-.728-.405-.344-.343-.458-.533l.668-.468.288.341c.116.13.275.242.476.337s.47.146.799.146c.44 0 .804-.107 1.09-.32s.43-.547.43-1.001v-1.108h-.071c-.062.099-.149.222-.263.369a1.5 1.5 0 0 1-.483.387c-.208.111-.49.167-.845.167a2.27 2.27 0 0 1-1.186-.313c-.348-.208-.624-.511-.827-.909s-.302-.88-.302-1.449c0-.558.098-1.045.295-1.459s.47-.739.82-.966.755-.344 1.215-.344c.355 0 .637.059.845.177s.372.249.483.398l.263.362h.085v-.866h.81v5.61c0 .469-.106.85-.32 1.144s-.495.512-.852.65a3.23 3.23 0 0 1-1.186.209zm-.028-2.997c.336 0 .62-.077.852-.231s.408-.375.529-.664.181-.634.181-1.037c0-.393-.059-.74-.178-1.04s-.294-.537-.526-.707-.518-.256-.859-.256c-.355 0-.651.09-.888.27s-.411.422-.529.725a2.8 2.8 0 0 0-.174 1.008 2.65 2.65 0 0 0 .178 1.005 1.54 1.54 0 0 0 .533.682c.237.163.53.245.881.245zm6.207.952c-.525 0-.979-.116-1.36-.348a2.34 2.34 0 0 1-.877-.98c-.204-.422-.305-.912-.305-1.471s.102-1.051.305-1.477a2.41 2.41 0 0 1 .859-1.001c.369-.242.8-.362 1.293-.362a2.58 2.58 0 0 1 .842.142c.277.095.529.248.756.461a2.21 2.21 0 0 1 .543.838c.135.348.203.777.203 1.286v.355H75.24v-.725h3.352c0-.307-.062-.582-.185-.823a1.39 1.39 0 0 0-.518-.572 1.45 1.45 0 0 0-.788-.21c-.334 0-.623.083-.867.249a1.63 1.63 0 0 0-.557.639 1.88 1.88 0 0 0-.195.845v.483c0 .412.071.761.213 1.048s.344.501.6.65.553.22.891.22c.22 0 .419-.031.597-.092a1.27 1.27 0 0 0 .465-.285c.13-.127.231-.286.302-.475l.81.227c-.085.274-.228.516-.43.724s-.45.367-.746.483-.629.171-.998.171zm3.533-.114v-5.454h.81v.823h.057c.099-.269.279-.488.54-.657a1.59 1.59 0 0 1 .881-.252l.231.004.209.011v.852a2.43 2.43 0 0 0-.195-.032c-.1-.017-.205-.025-.316-.025-.265 0-.502.056-.71.167a1.26 1.26 0 0 0-.49.454 1.23 1.23 0 0 0-.178.657v3.452h-.838zm-25.861 29.546c-.043-.36-.215-.64-.518-.839s-.675-.298-1.115-.298a2.12 2.12 0 0 0-.845.156 1.36 1.36 0 0 0-.561.43 1.03 1.03 0 0 0-.199.622c0 .194.046.361.139.5a1.23 1.23 0 0 0 .362.345c.147.09.301.164.462.223l.444.139.739.199a6.44 6.44 0 0 1 .632.206 3 3 0 0 1 .671.358 1.83 1.83 0 0 1 .533.576c.14.234.21.522.21.863 0 .393-.103.748-.309 1.065s-.502.569-.895.756-.865.281-1.424.281c-.521 0-.972-.084-1.353-.252a2.16 2.16 0 0 1-.895-.703c-.215-.301-.337-.65-.366-1.048h.909c.024.275.116.502.277.682a1.51 1.51 0 0 0 .618.398 2.51 2.51 0 0 0 .81.127c.336 0 .638-.054.906-.163s.479-.265.636-.462a1.09 1.09 0 0 0 .234-.696c0-.241-.068-.438-.202-.589a1.47 1.47 0 0 0-.533-.369 5.55 5.55 0 0 0-.714-.249l-.895-.256c-.568-.163-1.018-.396-1.349-.699s-.497-.7-.497-1.19c0-.407.11-.762.33-1.065s.521-.542.895-.71.797-.256 1.261-.256.886.084 1.25.252.654.393.867.682a1.7 1.7 0 0 1 .341.984h-.852zm3.891 5.582a2.22 2.22 0 0 1-.941-.195c-.282-.133-.506-.324-.671-.572s-.249-.554-.249-.909c0-.313.062-.566.185-.76a1.3 1.3 0 0 1 .494-.462c.206-.111.433-.194.682-.248l.756-.135.806-.096c.208-.024.36-.063.455-.117s.146-.15.146-.284v-.029c0-.35-.096-.623-.288-.817s-.477-.291-.863-.291c-.4 0-.714.088-.941.263s-.387.362-.479.561l-.795-.284c.142-.332.331-.59.568-.774a2.14 2.14 0 0 1 .781-.391 3.23 3.23 0 0 1 .838-.113 3.38 3.38 0 0 1 .604.063 1.98 1.98 0 0 1 .664.253c.213.128.394.32.536.578s.213.604.213 1.037v3.594h-.838v-.739h-.043a1.46 1.46 0 0 1-.284.38 1.65 1.65 0 0 1-.529.345c-.22.095-.489.142-.806.142zm.128-.753c.331 0 .611-.065.838-.195a1.33 1.33 0 0 0 .518-.505 1.28 1.28 0 0 0 .178-.649v-.767c-.035.042-.114.081-.234.117a3.4 3.4 0 0 1-.412.089l-.451.063-.351.043a3.24 3.24 0 0 0-.611.139 1.05 1.05 0 0 0-.455.28c-.114.123-.17.291-.17.504a.75.75 0 0 0 .323.661c.218.147.494.22.828.22zm3.902.625v-5.454h.81v.852h.071a1.37 1.37 0 0 1 .551-.678c.253-.164.557-.245.913-.245s.659.081.898.245a1.64 1.64 0 0 1 .565.678h.057a1.58 1.58 0 0 1 .629-.671c.28-.165.614-.252 1.005-.252.488 0 .887.152 1.197.458s.465.775.465 1.417v3.65h-.84v-3.65c0-.403-.11-.691-.33-.863a1.22 1.22 0 0 0-.778-.26c-.383 0-.681.116-.891.348s-.316.521-.316.874v3.551h-.852v-3.736a.98.98 0 0 0-.302-.749c-.201-.189-.46-.288-.778-.288a1.15 1.15 0 0 0-.611.174c-.187.116-.338.277-.454.483s-.171.439-.171.707v3.409h-.838zm8.691 2.046v-7.5h.81v.866h.1l.256-.362a1.5 1.5 0 0 1 .476-.398c.208-.118.49-.177.845-.177.459 0 .864.114 1.215.344s.624.555.82.977.295.918.295 1.491-.098 1.078-.295 1.502-.469.748-.817.98-.749.345-1.204.345c-.35 0-.631-.058-.842-.174a1.56 1.56 0 0 1-.487-.402l-.263-.376h-.071v2.884h-.838zm.824-4.773c0 .412.06.775.181 1.09a1.63 1.63 0 0 0 .529.735c.232.177.516.263.852.263.35 0 .643-.092.877-.277s.414-.438.533-.753.181-.67.181-1.058-.059-.729-.177-1.037-.292-.555-.529-.735-.529-.274-.884-.274c-.341 0-.627.087-.859.26s-.407.409-.526.717-.178.662-.178 1.069zm6.108-4.546v7.273h-.838v-7.273h.838zm1.535 7.273v-5.454h.838v5.454h-.838zm.426-6.364a.6.6 0 0 1-.423-.166c-.119-.111-.174-.245-.174-.402s.058-.29.174-.401.259-.167.423-.167.303.056.419.167a.53.53 0 0 1 .178.401.53.53 0 0 1-.178.402c-.119.112-.256.166-.419.166zm2.785 3.083v3.281h-.838v-5.454h.81v.852h.071a1.56 1.56 0 0 1 .582-.668c.26-.17.597-.255 1.008-.255.369 0 .693.075.969.227s.492.376.646.682.231.686.231 1.15v3.466h-.838v-3.409c0-.429-.111-.762-.334-1.001s-.528-.363-.916-.363a1.46 1.46 0 0 0-.717.174 1.25 1.25 0 0 0-.494.508c-.121.223-.181.493-.181.81zm7.213 5.44c-.405 0-.753-.052-1.044-.156a2.22 2.22 0 0 1-.728-.405 2.21 2.21 0 0 1-.458-.533l.668-.468.288.341c.116.13.275.242.476.337s.47.146.799.146c.44 0 .804-.107 1.09-.32s.43-.547.43-1.001v-1.108h-.071c-.062.099-.149.222-.263.369a1.5 1.5 0 0 1-.483.387c-.208.111-.49.167-.845.167a2.27 2.27 0 0 1-1.186-.313c-.348-.208-.624-.511-.827-.909s-.302-.88-.302-1.449c0-.558.098-1.045.295-1.459s.47-.739.82-.966.755-.344 1.215-.344c.355 0 .637.059.845.177s.372.249.483.398l.263.362h.085v-.866h.81v5.61c0 .469-.107.85-.32 1.144a1.85 1.85 0 0 1-.852.65 3.23 3.23 0 0 1-1.186.209zm-.028-2.997c.336 0 .62-.077.852-.231s.408-.375.529-.664.181-.634.181-1.037c0-.393-.059-.74-.177-1.04s-.294-.537-.526-.707-.519-.256-.859-.256c-.355 0-.651.09-.888.27s-.411.422-.529.725a2.8 2.8 0 0 0-.174 1.008 2.65 2.65 0 0 0 .178 1.005 1.54 1.54 0 0 0 .533.682c.237.163.53.245.881.245z" class="C"/><g class="B"><use href="#G" y="30"/><use href="#G" y="65"/></g><path d="M35.5 241.122a2.19 2.19 0 0 1-1.5-.613 2.17 2.17 0 0 1-1.5.603c-.559 0-1.097-.216-1.5-.603a2.17 2.17 0 0 1-3 0 2.09 2.09 0 0 1-1.397.604 2.1 2.1 0 0 1-1.437-.504.5.5 0 0 1-.038-.706c.089-.099.213-.158.345-.166a.5.5 0 0 1 .361.128 1.11 1.11 0 0 0 .449.216 1.1 1.1 0 0 0 .498-.004 1.09 1.09 0 0 0 .445-.224c.129-.108.232-.243.301-.396.034-.099.098-.184.183-.244s.186-.093.29-.093.205.033.29.093.148.145.182.244c.093.193.238.357.42.472s.392.175.607.175.425-.061.607-.175.328-.279.42-.472c.035-.097.1-.181.184-.24a.5.5 0 0 1 .576 0 .5.5 0 0 1 .184.24c.093.193.238.357.42.472s.392.175.607.175.425-.061.607-.175.328-.279.42-.472a.5.5 0 0 1 .472-.33.5.5 0 0 1 .472.33 1.11 1.11 0 0 0 .301.397 1.1 1.1 0 0 0 .446.223 1.09 1.09 0 0 0 .498.004c.164-.036.318-.11.449-.216a.51.51 0 0 1 .168-.102.48.48 0 0 1 .195-.029.49.49 0 0 1 .191.048c.06.029.113.068.157.117a.5.5 0 0 1 .1.17c.022.063.031.128.027.194a.5.5 0 0 1-.05.191.51.51 0 0 1-.12.156c-.366.329-.841.512-1.334.512zm0-2.5a2.19 2.19 0 0 1-1.5-.613 2.17 2.17 0 0 1-1.5.603c-.559 0-1.097-.216-1.5-.603a2.17 2.17 0 0 1-3 0 2.09 2.09 0 0 1-1.397.604 2.1 2.1 0 0 1-1.437-.504.5.5 0 0 1-.038-.706c.089-.099.213-.158.345-.166a.5.5 0 0 1 .361.128 1.11 1.11 0 0 0 .449.216 1.1 1.1 0 0 0 .498-.004 1.09 1.09 0 0 0 .445-.224c.129-.108.232-.243.301-.396a.5.5 0 0 1 .184-.239c.085-.059.185-.091.288-.091a.5.5 0 0 1 .472.33c.093.193.238.357.42.472s.392.175.607.175.425-.061.607-.175.328-.279.42-.472c.035-.097.1-.181.184-.24a.5.5 0 0 1 .576 0 .5.5 0 0 1 .184.24c.093.193.238.357.42.472s.392.175.607.175.425-.061.607-.175.328-.279.42-.472a.5.5 0 0 1 .472-.337c.104 0 .205.033.29.093s.148.145.182.244a1.11 1.11 0 0 0 .301.397 1.1 1.1 0 0 0 .446.223 1.09 1.09 0 0 0 .498.004c.164-.036.318-.11.449-.216a.51.51 0 0 1 .168-.102.48.48 0 0 1 .195-.029.49.49 0 0 1 .191.048c.06.029.113.068.157.117a.5.5 0 0 1 .1.17c.022.063.031.128.027.194a.5.5 0 0 1-.05.191.51.51 0 0 1-.12.156c-.366.329-.841.512-1.334.512zm-2.646-7.854l-1.5-1.5c-.094-.093-.221-.146-.354-.146s-.26.053-.354.146l-1.5 1.5a.5.5 0 1 0 .707.708l.648-.647v3.793a.5.5 0 0 0 .146.354c.094.093.221.146.354.146s.26-.053.354-.146a.5.5 0 0 0 .146-.354v-3.793l.65.647a.5.5 0 0 0 .847-.356.5.5 0 0 0-.141-.352h-.004z" class="D"/><path d="M22 220.872h211m-211 35h211" stroke="#f2f2f2" class="E"/><path d="M35.218 270.03a.46.46 0 0 0 .648 0 .46.46 0 0 0 0-.649l-4.125-4.125a.46.46 0 0 0-.648 0 .46.46 0 0 0 0 .649l.442.442-5.863 5.863c-.433.433-.672 1.008-.672 1.621s.239 1.187.672 1.62 1.008.671 1.62.671 1.188-.238 1.62-.671l5.863-5.863.442.442h0zm-6.954 4.773a1.41 1.41 0 0 1-1.944 0c-.536-.536-.536-1.408 0-1.945l3.58-3.58 1.945 1.945-3.581 3.58h0zm4.229-4.228l-1.945-1.945 1.635-1.635 1.945 1.945-1.635 1.635zm2.386 1.713c-.392-.384-1.031-.384-1.424 0-.012.011-.584.705-.584.705a1.82 1.82 0 0 0 0 2.592 1.82 1.82 0 0 0 2.592 0 1.82 1.82 0 0 0 .537-1.296c0-.489-.191-.95-.508-1.264l-.613-.737h0zm-.064 2.649a.94.94 0 0 1-1.296 0 .91.91 0 0 1-.269-.648c0-.244.095-.475.297-.679l.559-.676c.037-.027.085-.026.12 0l.588.707a.91.91 0 0 1 0 1.296z" class="D"/><path d="M26.858 308.668c-.043-.36-.216-.64-.518-.839s-.675-.298-1.115-.298c-.322 0-.604.052-.845.156a1.36 1.36 0 0 0-.561.43 1.03 1.03 0 0 0-.199.622c0 .194.046.361.139.5a1.23 1.23 0 0 0 .362.345c.147.09.301.164.462.223l.444.139.739.199c.189.05.4.118.632.206s.458.207.671.358a1.83 1.83 0 0 1 .533.576c.14.234.21.522.21.863 0 .393-.103.748-.309 1.065s-.502.569-.895.756-.865.281-1.424.281c-.521 0-.972-.084-1.353-.252a2.16 2.16 0 0 1-.895-.703c-.215-.301-.337-.65-.366-1.048h.909c.024.275.116.502.277.682a1.51 1.51 0 0 0 .618.398c.251.085.521.127.81.127.336 0 .638-.054.906-.163s.479-.265.636-.462a1.09 1.09 0 0 0 .234-.696c0-.241-.067-.438-.202-.589a1.47 1.47 0 0 0-.533-.369 5.55 5.55 0 0 0-.714-.249l-.895-.256c-.568-.163-1.018-.396-1.349-.699s-.497-.7-.497-1.19c0-.407.11-.762.33-1.065s.521-.542.895-.71.797-.256 1.261-.256.886.084 1.25.252.654.393.866.682a1.7 1.7 0 0 1 .341.984h-.852zm4.573 5.568c-.526 0-.979-.116-1.36-.348a2.34 2.34 0 0 1-.877-.98c-.204-.422-.305-.912-.305-1.471s.102-1.051.305-1.477a2.41 2.41 0 0 1 .859-1.001c.369-.242.8-.362 1.293-.362.284 0 .565.047.842.142s.529.248.756.461a2.21 2.21 0 0 1 .543.838c.135.348.203.777.203 1.286v.355h-4.205v-.725h3.352c0-.307-.062-.582-.185-.823a1.39 1.39 0 0 0-.518-.572 1.45 1.45 0 0 0-.788-.21c-.334 0-.623.083-.867.249a1.63 1.63 0 0 0-.557.639 1.88 1.88 0 0 0-.195.845v.483c0 .412.071.761.213 1.048s.344.501.6.65.553.22.891.22c.22 0 .419-.031.597-.092s.335-.159.465-.285.231-.286.302-.475l.81.227c-.085.274-.228.516-.43.724s-.45.367-.746.483-.629.171-.998.171zm5.749 0c-.511 0-.952-.121-1.321-.363a2.36 2.36 0 0 1-.852-.997c-.199-.424-.298-.908-.298-1.453 0-.554.102-1.043.305-1.466s.492-.759.859-.998.8-.362 1.293-.362c.384 0 .729.071 1.037.213a1.98 1.98 0 0 1 .756.596 1.86 1.86 0 0 1 .366.895h-.838c-.064-.249-.206-.469-.426-.66s-.511-.292-.881-.292c-.327 0-.613.086-.859.256s-.434.406-.572.714-.202.664-.202 1.076c0 .421.066.788.199 1.101s.324.555.568.728.535.259.867.259c.218 0 .416-.038.593-.114s.328-.184.451-.326a1.26 1.26 0 0 0 .263-.512h.838a1.94 1.94 0 0 1-.352.87c-.185.256-.43.459-.735.611s-.656.224-1.058.224zm6.807-2.344v-3.224h.838v5.454h-.838v-.923h-.057c-.128.277-.327.512-.597.706s-.611.288-1.023.288c-.341 0-.644-.074-.909-.224a1.56 1.56 0 0 1-.625-.681c-.152-.306-.227-.691-.227-1.155v-3.465h.838v3.409c0 .397.111.715.334.951s.511.355.859.355c.208 0 .42-.053.636-.159a1.39 1.39 0 0 0 .547-.49c.149-.221.224-.501.224-.842zm2.373 2.23v-5.454h.81v.823h.057c.099-.269.279-.488.54-.657a1.59 1.59 0 0 1 .881-.252l.231.004.209.011v.852a2.43 2.43 0 0 0-.195-.032c-.099-.017-.205-.025-.316-.025-.265 0-.502.056-.71.167a1.26 1.26 0 0 0-.49.454c-.118.192-.177.411-.177.657v3.452h-.838zm3.721 0v-5.454h.838v5.454h-.838zm.426-6.364c-.163 0-.304-.055-.423-.166s-.174-.245-.174-.402.058-.29.174-.401.259-.167.423-.167.303.056.419.167a.53.53 0 0 1 .178.401c0 .157-.059.29-.178.402s-.256.166-.419.166zm4.319.91v.71H52v-.71h2.827zm-2.003-1.307h.838v5.199c0 .236.034.414.103.532s.161.194.27.235.229.056.352.056c.092 0 .168-.004.227-.014l.142-.028.17.753c-.057.021-.136.042-.238.064s-.231.035-.387.035c-.237 0-.469-.051-.696-.153a1.37 1.37 0 0 1-.561-.465c-.147-.208-.22-.471-.22-.788v-5.426zm3.803 8.807a1.81 1.81 0 0 1-.38-.036c-.111-.021-.188-.043-.231-.064l.213-.739c.204.053.384.071.54.057s.295-.084.416-.209.236-.323.337-.6l.156-.427-2.017-5.482h.909l1.506 4.346h.057l1.506-4.346h.909l-2.315 6.25c-.104.281-.233.514-.387.699s-.333.326-.536.416-.428.135-.682.135zm9.899-1.946c-.478 0-.89-.088-1.236-.263a1.94 1.94 0 0 1-.799-.721c-.187-.306-.281-.655-.281-1.048 0-.303.064-.571.192-.806s.309-.456.536-.657.494-.407.792-.611l1.051-.781a2.09 2.09 0 0 0 .494-.433c.126-.154.188-.355.188-.604 0-.184-.082-.363-.245-.536s-.373-.259-.636-.259a.86.86 0 0 0-.49.142 1 1 0 0 0-.33.355c-.078.142-.117.289-.117.44 0 .171.046.344.138.519s.214.35.359.532l.455.554 3.338 4.077h-1.008l-2.756-3.324-.696-.838a3.98 3.98 0 0 1-.497-.742c-.123-.244-.185-.508-.185-.792 0-.327.072-.613.217-.859s.352-.442.614-.579.575-.21.93-.21c.365 0 .678.071.941.213s.465.326.607.558.213.479.213.749a1.58 1.58 0 0 1-.259.906 2.99 2.99 0 0 1-.707.714l-1.449 1.079c-.327.242-.548.476-.664.703s-.174.391-.174.49a1.21 1.21 0 0 0 .177.636c.118.196.285.355.501.476a1.53 1.53 0 0 0 .756.181c.275 0 .542-.058.803-.174a2.26 2.26 0 0 0 .707-.512c.213-.222.381-.49.504-.802a2.81 2.81 0 0 0 .188-1.055h.81c0 .483-.056.877-.167 1.183s-.237.544-.376.717l-.337.387-.078.107-.078.106a2.15 2.15 0 0 1-.888.59c-.358.128-.71.192-1.058.192zm11.24-5.554c-.043-.36-.215-.64-.519-.839s-.675-.298-1.115-.298c-.322 0-.604.052-.845.156a1.36 1.36 0 0 0-.561.43 1.03 1.03 0 0 0-.199.622c0 .194.046.361.138.5a1.23 1.23 0 0 0 .362.345c.147.09.301.164.462.223l.444.139.739.199c.189.05.4.118.632.206s.458.207.671.358a1.83 1.83 0 0 1 .533.576c.14.234.21.522.21.863 0 .393-.103.748-.309 1.065s-.502.569-.895.756-.865.281-1.424.281c-.521 0-.972-.084-1.353-.252a2.16 2.16 0 0 1-.895-.703c-.216-.301-.337-.65-.366-1.048h.909c.024.275.116.502.277.682a1.51 1.51 0 0 0 .618.398c.251.085.521.127.81.127.336 0 .638-.054.906-.163s.479-.265.636-.462a1.09 1.09 0 0 0 .234-.696c0-.241-.067-.438-.202-.589a1.47 1.47 0 0 0-.533-.369 5.55 5.55 0 0 0-.714-.249l-.895-.256c-.568-.163-1.018-.396-1.349-.699s-.497-.7-.497-1.19c0-.407.11-.762.33-1.065s.521-.542.895-.71.797-.256 1.261-.256.885.084 1.25.252.653.393.867.682a1.7 1.7 0 0 1 .341.984h-.852zm3.124 2.173v3.281h-.838v-7.273h.838v2.671h.071c.128-.282.32-.506.575-.671s.601-.252 1.03-.252c.372 0 .697.074.977.223s.496.373.65.678.234.689.234 1.158v3.466h-.838v-3.409c0-.433-.112-.768-.337-1.005s-.532-.359-.927-.359c-.275 0-.521.058-.739.174s-.386.286-.511.508-.185.493-.185.81zm6.675 3.409a2.22 2.22 0 0 1-.941-.195c-.282-.133-.505-.324-.671-.572s-.249-.554-.249-.909c0-.313.062-.566.185-.76a1.3 1.3 0 0 1 .494-.462c.206-.111.433-.194.682-.248l.756-.135.806-.096c.208-.024.36-.063.455-.117s.146-.15.146-.284v-.029c0-.35-.096-.623-.288-.817s-.477-.291-.863-.291c-.4 0-.714.088-.941.263s-.387.362-.479.561l-.795-.284a1.9 1.9 0 0 1 .568-.774 2.14 2.14 0 0 1 .781-.391c.284-.076.563-.113.838-.113.175 0 .376.021.604.063s.451.125.664.253.394.32.536.578.213.604.213 1.037v3.594h-.838v-.739h-.043c-.057.119-.151.245-.284.38s-.309.25-.529.345-.489.142-.806.142zm.128-.753c.331 0 .611-.065.838-.195a1.33 1.33 0 0 0 .518-.505 1.28 1.28 0 0 0 .178-.649v-.767c-.036.042-.114.081-.234.117s-.256.063-.412.089l-.451.063-.352.043a3.24 3.24 0 0 0-.611.139 1.05 1.05 0 0 0-.455.28c-.114.123-.17.291-.17.504a.75.75 0 0 0 .323.661c.218.147.494.22.828.22zm3.902.625v-5.454h.81v.823h.057c.099-.269.279-.488.54-.657a1.59 1.59 0 0 1 .881-.252l.231.004.21.011v.852a2.43 2.43 0 0 0-.195-.032c-.099-.017-.205-.025-.316-.025-.265 0-.502.056-.71.167a1.26 1.26 0 0 0-.49.454c-.118.192-.178.411-.178.657v3.452h-.838zm3.721 0v-5.454h.838v5.454h-.838zm.426-6.364c-.163 0-.304-.055-.423-.166s-.174-.245-.174-.402.058-.29.174-.401.259-.167.423-.167.303.056.419.167a.53.53 0 0 1 .178.401c0 .157-.059.29-.178.402s-.256.166-.419.166zm2.785 3.083v3.281h-.838v-5.454h.81v.852h.071a1.56 1.56 0 0 1 .582-.668c.26-.17.597-.255 1.009-.255.369 0 .692.075.969.227s.492.376.646.682.231.686.231 1.15v3.466h-.838v-3.409c0-.429-.111-.762-.334-1.001s-.528-.363-.916-.363c-.267 0-.507.058-.717.174a1.25 1.25 0 0 0-.494.508c-.121.223-.181.493-.181.81zm7.213 5.44c-.405 0-.753-.052-1.044-.156s-.534-.237-.728-.405-.344-.343-.458-.533l.668-.468c.075.099.171.213.287.341s.275.242.476.337.47.146.799.146c.441 0 .804-.107 1.09-.32s.43-.547.43-1.001v-1.108h-.071c-.061.099-.149.222-.263.369s-.272.273-.483.387-.49.167-.845.167a2.27 2.27 0 0 1-1.186-.313c-.348-.208-.624-.511-.827-.909s-.302-.88-.302-1.449c0-.558.098-1.045.295-1.459a2.27 2.27 0 0 1 .82-.966 2.16 2.16 0 0 1 1.214-.344c.356 0 .637.059.846.177s.371.249.483.398l.262.362h.086v-.866h.809v5.61c0 .469-.106.85-.319 1.144s-.495.512-.853.65-.75.209-1.186.209zm-.028-2.997c.336 0 .62-.077.852-.231s.408-.375.529-.664.181-.634.181-1.037c0-.393-.059-.74-.177-1.04s-.294-.537-.526-.707-.518-.256-.859-.256c-.355 0-.651.09-.888.27s-.411.422-.529.725a2.8 2.8 0 0 0-.174 1.008c0 .379.059.714.177 1.005s.299.516.533.682.53.245.881.245z" class="B"/><path d="M37.514 345.956l-.179-.079c-.199-.087-4.847-2.187-4.847-5.988v-3.296c0-.317.1-.626.286-.883s.448-.449.75-.548l4.016-1.331 4.016 1.331a1.51 1.51 0 0 1 .75.548c.186.257.286.566.286.883v3.296c0 4.333-4.693 5.939-4.892 6.006l-.186.061zm.026-11.065l-3.696 1.225a.5.5 0 0 0-.345.477v3.296c0 2.776 3.254 4.576 4.066 4.982.81-.326 4.018-1.818 4.018-4.982v-3.296a.5.5 0 0 0-.346-.477l-3.696-1.225zm-.45 6.283h-.017a.95.95 0 0 1-.371-.082c-.117-.052-.222-.128-.309-.221l-1.165-1.213.728-.698 1.134 1.182 2.617-2.618.714.715-2.658 2.658a.96.96 0 0 1-.309.206.97.97 0 0 1-.365.071z" class="D"/><path d="M59.858 338.668c-.043-.36-.215-.64-.518-.839s-.675-.298-1.115-.298c-.322 0-.604.052-.845.156a1.36 1.36 0 0 0-.561.43 1.03 1.03 0 0 0-.199.622c0 .194.046.361.139.5a1.23 1.23 0 0 0 .362.345c.147.09.301.164.462.223l.444.139.739.199c.189.05.4.118.632.206s.458.207.671.358a1.83 1.83 0 0 1 .533.576c.14.234.21.522.21.863 0 .393-.103.748-.309 1.065s-.502.569-.895.756-.865.281-1.424.281c-.521 0-.972-.084-1.353-.252a2.16 2.16 0 0 1-.895-.703c-.215-.301-.337-.65-.366-1.048h.909c.024.275.116.502.277.682a1.51 1.51 0 0 0 .618.398c.251.085.521.127.81.127.336 0 .638-.054.906-.163s.479-.265.636-.462a1.09 1.09 0 0 0 .234-.696c0-.241-.068-.438-.202-.589a1.47 1.47 0 0 0-.533-.369 5.55 5.55 0 0 0-.714-.249l-.895-.256c-.568-.163-1.018-.396-1.349-.699s-.497-.7-.497-1.19c0-.407.11-.762.33-1.065s.521-.542.895-.71.797-.256 1.261-.256.886.084 1.25.252.654.393.867.682a1.7 1.7 0 0 1 .341.984h-.852zm4.573 5.568c-.525 0-.979-.116-1.36-.348a2.34 2.34 0 0 1-.877-.98c-.204-.422-.305-.912-.305-1.471s.102-1.051.305-1.477a2.41 2.41 0 0 1 .859-1.001c.369-.242.8-.362 1.293-.362.284 0 .565.047.842.142s.529.248.756.461a2.21 2.21 0 0 1 .543.838c.135.348.203.777.203 1.286v.355h-4.205v-.725h3.352c0-.307-.062-.582-.185-.823a1.39 1.39 0 0 0-.518-.572 1.45 1.45 0 0 0-.788-.21c-.334 0-.623.083-.866.249a1.63 1.63 0 0 0-.557.639 1.88 1.88 0 0 0-.195.845v.483c0 .412.071.761.213 1.048s.344.501.6.65.553.22.891.22c.22 0 .419-.031.597-.092s.335-.159.465-.285.231-.286.302-.475l.81.227c-.085.274-.228.516-.43.724s-.45.367-.746.483-.629.171-.998.171zm5.749 0c-.511 0-.952-.121-1.321-.363a2.36 2.36 0 0 1-.852-.997c-.199-.424-.298-.908-.298-1.453 0-.554.102-1.043.305-1.466s.493-.759.859-.998.8-.362 1.293-.362c.383 0 .729.071 1.037.213a1.98 1.98 0 0 1 .756.596 1.86 1.86 0 0 1 .366.895h-.838c-.064-.249-.206-.469-.426-.66s-.511-.292-.881-.292c-.327 0-.613.086-.859.256s-.434.406-.572.714-.202.664-.202 1.076c0 .421.066.788.199 1.101s.324.555.568.728.535.259.867.259c.218 0 .415-.038.593-.114s.328-.184.451-.326a1.26 1.26 0 0 0 .263-.512h.838a1.94 1.94 0 0 1-.352.87c-.185.256-.43.459-.735.611s-.656.224-1.058.224zm6.808-2.344v-3.224h.838v5.454h-.838v-.923h-.057c-.128.277-.327.512-.597.706s-.611.288-1.023.288c-.341 0-.644-.074-.909-.224a1.56 1.56 0 0 1-.625-.681c-.151-.306-.227-.691-.227-1.155v-3.465h.838v3.409c0 .397.111.715.334.951s.511.355.859.355c.208 0 .42-.053.636-.159a1.39 1.39 0 0 0 .547-.49c.149-.221.224-.501.224-.842zm2.373 2.23v-5.454h.81v.823h.057c.099-.269.279-.488.54-.657a1.59 1.59 0 0 1 .881-.252l.231.004.209.011v.852a2.43 2.43 0 0 0-.195-.032c-.099-.017-.205-.025-.316-.025-.265 0-.502.056-.71.167a1.26 1.26 0 0 0-.49.454c-.118.192-.178.411-.178.657v3.452h-.838zm3.721 0v-5.454h.838v5.454h-.838zm.426-6.364c-.163 0-.304-.055-.423-.166s-.174-.245-.174-.402.058-.29.174-.401.259-.167.423-.167.303.056.419.167a.53.53 0 0 1 .178.401c0 .157-.059.29-.178.402s-.256.166-.419.166zm4.319.91v.71H85v-.71h2.827zm-2.003-1.307h.838v5.199c0 .236.034.414.103.532s.161.194.27.235.228.056.352.056c.092 0 .168-.004.227-.014l.142-.028.17.753c-.057.021-.136.042-.238.064s-.231.035-.387.035c-.237 0-.469-.051-.696-.153a1.37 1.37 0 0 1-.561-.465c-.147-.208-.22-.471-.22-.788v-5.426zm3.803 8.807a1.81 1.81 0 0 1-.38-.036c-.111-.021-.188-.043-.231-.064l.213-.739c.204.053.383.071.54.057s.295-.084.416-.209.235-.323.337-.6l.156-.427-2.017-5.482h.909l1.506 4.346h.057l1.506-4.346h.909l-2.315 6.25c-.104.281-.233.514-.387.699s-.333.326-.536.416-.428.135-.682.135zm7.953-2.046v-7.273h.881v6.492h3.38v.781H97.58zm7.798.114c-.525 0-.979-.116-1.36-.348s-.671-.561-.877-.98-.305-.912-.305-1.471.101-1.051.305-1.477a2.41 2.41 0 0 1 .859-1.001c.37-.242.801-.362 1.293-.362a2.58 2.58 0 0 1 .842.142 2.07 2.07 0 0 1 .756.461c.227.211.408.49.543.838s.203.777.203 1.286v.355h-4.205v-.725h3.352c0-.307-.061-.582-.184-.823s-.294-.432-.519-.572-.485-.21-.788-.21c-.334 0-.623.083-.867.249a1.63 1.63 0 0 0-.557.639 1.88 1.88 0 0 0-.195.845v.483c0 .412.071.761.213 1.048s.344.501.6.65.553.22.891.22c.22 0 .419-.031.597-.092a1.27 1.27 0 0 0 .465-.285c.13-.127.231-.286.302-.475l.809.227c-.085.274-.228.516-.429.724s-.45.367-.746.483-.628.171-.998.171zm7.828-5.568l-2.017 5.454h-.853l-2.017-5.454h.91l1.505 4.346h.057l1.506-4.346h.909zm3.198 5.568c-.526 0-.979-.116-1.36-.348a2.34 2.34 0 0 1-.878-.98c-.203-.422-.305-.912-.305-1.471s.102-1.051.305-1.477.493-.762.86-1.001.8-.362 1.292-.362a2.58 2.58 0 0 1 .842.142 2.07 2.07 0 0 1 .756.461c.228.211.409.49.544.838s.202.777.202 1.286v.355h-4.204v-.725h3.352c0-.307-.062-.582-.185-.823a1.39 1.39 0 0 0-.518-.572c-.223-.14-.486-.21-.789-.21-.333 0-.622.083-.866.249s-.427.376-.558.639a1.88 1.88 0 0 0-.195.845v.483c0 .412.071.761.213 1.048s.345.501.6.65.553.22.892.22c.22 0 .419-.031.596-.092a1.27 1.27 0 0 0 .465-.285c.131-.127.231-.286.302-.475l.81.227c-.085.274-.229.516-.43.724s-.45.367-.746.483a2.75 2.75 0 0 1-.997.171zm4.371-7.387v7.273h-.838v-7.273h.838zm5.399 3.04l-.753.213a1.42 1.42 0 0 0-.21-.366c-.09-.12-.213-.22-.369-.298s-.356-.117-.6-.117c-.334 0-.612.077-.835.231s-.33.344-.33.579c0 .208.076.372.227.493s.389.222.711.302l.809.199c.488.118.851.299 1.09.543s.359.553.359.934c0 .313-.09.592-.27.838s-.426.441-.746.583-.691.213-1.115.213c-.556 0-1.016-.121-1.381-.363s-.595-.594-.692-1.058l.795-.199c.076.294.219.514.43.661s.491.22.834.22c.391 0 .701-.083.931-.249s.348-.369.348-.603c0-.19-.067-.348-.199-.476s-.336-.227-.611-.291l-.909-.213c-.5-.119-.867-.302-1.101-.551s-.348-.564-.348-.941c0-.308.086-.58.259-.817s.413-.422.714-.557.646-.202 1.03-.202c.54 0 .963.118 1.271.355s.53.549.661.937z" class="C"/><g class="B"><path d="M194.881 344.122v-7.273h.88v6.492h3.381v.781h-4.261zm7.798.114c-.526 0-.979-.116-1.36-.348s-.671-.561-.877-.98-.306-.912-.306-1.471.102-1.051.306-1.477a2.41 2.41 0 0 1 .859-1.001c.369-.242.8-.362 1.293-.362.284 0 .564.047.841.142s.529.248.757.461.408.49.543.838.203.777.203 1.286v.355h-4.205v-.725h3.352c0-.307-.061-.582-.184-.823s-.294-.432-.519-.572-.485-.21-.788-.21c-.334 0-.623.083-.867.249a1.63 1.63 0 0 0-.557.639c-.13.263-.196.545-.196.845v.483c0 .412.071.761.214 1.048s.344.501.6.65.552.22.891.22c.22 0 .419-.031.597-.092a1.28 1.28 0 0 0 .465-.285c.13-.127.231-.286.302-.475l.809.227c-.085.274-.228.516-.429.724a2.1 2.1 0 0 1-.746.483 2.76 2.76 0 0 1-.998.171zm7.828-5.568l-2.017 5.454h-.853l-2.017-5.454h.909l1.506 4.346h.057l1.505-4.346h.91zm3.197 5.568c-.525 0-.979-.116-1.36-.348s-.671-.561-.877-.98-.305-.912-.305-1.471.102-1.051.305-1.477.493-.762.86-1.001.8-.362 1.292-.362a2.58 2.58 0 0 1 .842.142 2.07 2.07 0 0 1 .756.461c.227.211.409.49.543.838s.203.777.203 1.286v.355h-4.205v-.725h3.353c0-.307-.062-.582-.185-.823s-.294-.432-.519-.572-.485-.21-.788-.21a1.5 1.5 0 0 0-.866.249c-.242.163-.428.376-.558.639a1.88 1.88 0 0 0-.195.845v.483c0 .412.071.761.213 1.048s.344.501.6.65.553.22.891.22a1.83 1.83 0 0 0 .597-.092 1.27 1.27 0 0 0 .465-.285c.13-.127.231-.286.302-.475l.81.227c-.086.274-.229.516-.43.724s-.45.367-.746.483-.628.171-.998.171zm4.372-7.387v7.273h-.838v-7.273h.838zm4.333 7.273v-.639l2.401-2.628.696-.803c.182-.229.317-.445.405-.646a1.58 1.58 0 0 0 .134-.639 1.18 1.18 0 0 0-.184-.664c-.121-.187-.287-.332-.497-.433s-.448-.153-.711-.153c-.279 0-.523.058-.731.174a1.2 1.2 0 0 0-.48.479c-.111.206-.166.448-.166.725h-.838c0-.426.098-.8.294-1.122a2.05 2.05 0 0 1 .803-.753c.341-.18.723-.27 1.147-.27s.804.09 1.133.27.587.422.774.728a1.91 1.91 0 0 1 .28 1.019 2.2 2.2 0 0 1-.145.785c-.095.253-.261.536-.497.848s-.56.689-.977 1.137l-1.634 1.747v.057h3.381v.781h-4.588z"/><use href="#H"/></g><path d="M36.978 370.33c.885 0 1.604-.719 1.604-1.604s-.72-1.604-1.604-1.604-1.604.72-1.604 1.604.72 1.604 1.604 1.604zm0-2.291a.69.69 0 0 1 .688.687.69.69 0 0 1-.687.688.69.69 0 0 1-.687-.688.69.69 0 0 1 .688-.687zm5.5 6.875c1.137 0 2.063-.926 2.063-2.063s-.925-2.062-2.062-2.062-2.062.925-2.062 2.062.925 2.063 2.063 2.063zm0-3.209c.632 0 1.146.514 1.146 1.146s-.514 1.146-1.146 1.146-1.146-.514-1.146-1.146.514-1.146 1.146-1.146zm-4.156 3.945c.348.35.348.927-.006 1.283l-1.008 1.048c-.09.094-.21.141-.33.141a.46.46 0 0 1-.331-.776l.576-.599h-.933c-1.011 0-1.833-.822-1.833-1.833v-.459a.46.46 0 0 1 .458-.458.46.46 0 0 1 .458.458v.459a.92.92 0 0 0 .917.916h.93l-.573-.599a.46.46 0 0 1 .013-.648.46.46 0 0 1 .648.013l1.014 1.054zm6.806 2.453a.45.45 0 0 1-.129.019c-.199 0-.381-.129-.44-.329-.26-.886-1.117-1.504-2.081-1.504s-1.821.618-2.081 1.504c-.072.242-.325.383-.569.31a.46.46 0 0 1-.31-.569c.374-1.272 1.592-2.162 2.96-2.162s2.586.889 2.96 2.162a.46.46 0 0 1-.31.569h.001zm-5.927-5.051c-.053.019-.107.028-.161.028a.46.46 0 0 1-.429-.297c-.242-.644-.898-1.078-1.633-1.078s-1.392.433-1.633 1.078a.46.46 0 0 1-.59.269.46.46 0 0 1-.268-.59c.375-1.001 1.376-1.673 2.492-1.673s2.117.673 2.492 1.673a.46.46 0 0 1-.268.59h-.001z" class="D"/><path d="M62.315 371.668c-.043-.36-.215-.64-.518-.839s-.675-.298-1.115-.298c-.322 0-.604.052-.845.156a1.36 1.36 0 0 0-.561.43 1.03 1.03 0 0 0-.199.622c0 .194.046.361.138.5a1.23 1.23 0 0 0 .362.345c.147.09.301.164.462.223l.444.139.739.199c.189.05.4.118.632.206s.458.207.671.358a1.83 1.83 0 0 1 .533.576c.14.234.209.522.209.863 0 .393-.103.748-.309 1.065s-.502.569-.895.756-.865.281-1.424.281c-.521 0-.972-.084-1.353-.252a2.16 2.16 0 0 1-.895-.703c-.215-.301-.337-.65-.366-1.048h.909c.024.275.116.502.277.682a1.51 1.51 0 0 0 .618.398c.251.085.521.127.81.127.336 0 .638-.054.906-.163s.479-.265.636-.462a1.09 1.09 0 0 0 .234-.696c0-.241-.068-.438-.202-.589a1.47 1.47 0 0 0-.533-.369c-.22-.095-.458-.178-.714-.249l-.895-.256c-.568-.163-1.018-.396-1.349-.699s-.497-.7-.497-1.19c0-.407.11-.762.33-1.065s.521-.542.895-.71.797-.256 1.261-.256.885.084 1.25.252.653.393.866.682a1.7 1.7 0 0 1 .341.984h-.852zm3.124 2.173v3.281h-.838v-7.273h.838v2.671h.071c.128-.282.32-.506.575-.671s.601-.252 1.03-.252c.372 0 .697.074.977.223s.496.373.65.678.234.689.234 1.158v3.466h-.838v-3.409c0-.433-.113-.768-.337-1.005s-.532-.359-.927-.359c-.275 0-.521.058-.739.174s-.386.286-.511.508-.185.493-.185.81zm6.675 3.409a2.22 2.22 0 0 1-.941-.195c-.282-.133-.505-.324-.671-.572s-.248-.554-.248-.909c0-.313.061-.566.185-.76a1.3 1.3 0 0 1 .494-.462 2.59 2.59 0 0 1 .682-.248l.756-.135.806-.096c.208-.024.36-.063.455-.117s.146-.15.146-.284v-.029c0-.35-.096-.623-.288-.817s-.477-.291-.863-.291c-.4 0-.714.088-.941.263a1.55 1.55 0 0 0-.479.561l-.795-.284a1.9 1.9 0 0 1 .568-.774 2.14 2.14 0 0 1 .781-.391c.284-.076.563-.113.838-.113.175 0 .376.021.604.063s.451.125.664.253.394.32.536.578.213.604.213 1.037v3.594h-.838v-.739h-.043a1.47 1.47 0 0 1-.284.38c-.133.135-.309.25-.529.345s-.489.142-.806.142zm.128-.753c.331 0 .611-.065.838-.195a1.33 1.33 0 0 0 .518-.505 1.28 1.28 0 0 0 .178-.649v-.767c-.036.042-.114.081-.234.117a3.98 3.98 0 0 1-.412.089l-.451.063-.352.043a3.24 3.24 0 0 0-.611.139 1.05 1.05 0 0 0-.454.28c-.114.123-.171.291-.171.504a.75.75 0 0 0 .323.661c.218.147.494.22.827.22zm3.902.625v-5.454h.81v.823h.057c.099-.269.279-.488.54-.657a1.59 1.59 0 0 1 .881-.252l.231.004.21.011v.852a2.43 2.43 0 0 0-.195-.032c-.1-.017-.205-.025-.316-.025-.265 0-.502.056-.71.167a1.26 1.26 0 0 0-.49.454c-.118.192-.177.411-.177.657v3.452h-.838zm5.842.114c-.526 0-.979-.116-1.36-.348a2.34 2.34 0 0 1-.877-.98c-.204-.422-.305-.912-.305-1.471s.102-1.051.305-1.477a2.41 2.41 0 0 1 .859-1.001c.369-.242.8-.362 1.293-.362.284 0 .565.047.842.142s.529.248.756.461a2.21 2.21 0 0 1 .543.838c.135.348.202.777.202 1.286v.355H80.04v-.725h3.352c0-.307-.062-.582-.185-.823a1.39 1.39 0 0 0-.519-.572c-.222-.14-.485-.21-.788-.21-.334 0-.623.083-.867.249a1.63 1.63 0 0 0-.558.639 1.88 1.88 0 0 0-.195.845v.483c0 .412.071.761.213 1.048s.344.501.6.65.553.22.891.22c.22 0 .419-.031.597-.092s.335-.159.465-.285.231-.286.302-.475l.81.227c-.085.274-.228.516-.43.724s-.45.367-.746.483-.629.171-.998.171zm8.406 0c-.455 0-.856-.115-1.204-.345s-.62-.558-.817-.98-.295-.924-.295-1.502c0-.573.098-1.07.295-1.491s.47-.747.82-.977.755-.344 1.215-.344c.355 0 .636.059.842.177a1.45 1.45 0 0 1 .476.398l.259.362h.071v-2.685h.838v7.273h-.81v-.838h-.099c-.062.099-.149.225-.263.376s-.276.283-.487.402-.491.174-.842.174zm.114-.753c.336 0 .62-.088.852-.263s.408-.423.529-.735.181-.678.181-1.09c0-.407-.059-.764-.178-1.069a1.55 1.55 0 0 0-.526-.717c-.232-.173-.519-.26-.859-.26-.355 0-.651.091-.888.274s-.411.425-.529.735-.174.653-.174 1.037.059.741.177 1.058a1.73 1.73 0 0 0 .533.753c.237.185.53.277.881.277zm6.325.753c-.526 0-.979-.116-1.36-.348a2.34 2.34 0 0 1-.877-.98c-.204-.422-.305-.912-.305-1.471s.102-1.051.305-1.477a2.41 2.41 0 0 1 .859-1.001c.369-.242.8-.362 1.293-.362a2.58 2.58 0 0 1 .842.142c.277.094.529.248.756.461s.408.49.543.838.202.777.202 1.286v.355h-4.205v-.725h3.352c0-.307-.062-.582-.185-.823a1.39 1.39 0 0 0-.519-.572c-.222-.14-.485-.21-.788-.21-.334 0-.623.083-.866.249a1.63 1.63 0 0 0-.558.639 1.88 1.88 0 0 0-.195.845v.483c0 .412.071.761.213 1.048s.344.501.6.65.553.22.891.22a1.83 1.83 0 0 0 .597-.092c.18-.064.335-.159.465-.285s.231-.286.302-.475l.81.227c-.085.274-.229.516-.43.724s-.45.367-.746.483-.629.171-.998.171zm7.828-5.568l-2.017 5.454h-.852l-2.017-5.454h.909l1.505 4.346h.057l1.506-4.346h.909zm1.106 5.454v-5.454h.838v5.454h-.838zm.426-6.364c-.163 0-.304-.055-.422-.166s-.174-.245-.174-.402.058-.29.174-.401.259-.167.422-.167.303.056.419.167a.53.53 0 0 1 .178.401.53.53 0 0 1-.178.402c-.116.111-.255.166-.419.166zm4.163 6.478c-.511 0-.952-.121-1.321-.363s-.653-.574-.852-.997-.298-.908-.298-1.453c0-.554.101-1.043.305-1.466s.492-.759.859-.998.8-.362 1.293-.362a2.45 2.45 0 0 1 1.037.213c.308.142.56.34.756.596s.319.554.366.895h-.838c-.064-.249-.206-.469-.426-.66s-.512-.292-.881-.292c-.327 0-.613.086-.859.256s-.435.406-.572.714-.202.664-.202 1.076c0 .421.066.788.198 1.101a1.69 1.69 0 0 0 .569.728c.246.172.535.259.866.259a1.49 1.49 0 0 0 .593-.114 1.22 1.22 0 0 0 .451-.326 1.26 1.26 0 0 0 .263-.512h.838a1.94 1.94 0 0 1-.352.87c-.184.256-.429.459-.735.611s-.655.224-1.058.224zm5.657 0c-.526 0-.979-.116-1.36-.348s-.671-.561-.877-.98-.306-.912-.306-1.471.102-1.051.306-1.477a2.41 2.41 0 0 1 .859-1.001c.37-.242.8-.362 1.293-.362.284 0 .564.047.841.142s.53.248.757.461.408.49.543.838.203.777.203 1.286v.355h-4.205v-.725h3.352c0-.307-.061-.582-.184-.823s-.294-.432-.519-.572-.485-.21-.788-.21c-.334 0-.623.083-.867.249a1.63 1.63 0 0 0-.557.639 1.88 1.88 0 0 0-.195.845v.483c0 .412.071.761.213 1.048s.344.501.6.65.553.22.891.22c.22 0 .419-.031.597-.092a1.27 1.27 0 0 0 .465-.285c.13-.127.231-.286.302-.475l.809.227c-.085.274-.228.516-.429.724a2.1 2.1 0 0 1-.746.483 2.76 2.76 0 0 1-.998.171z" class="C"/><g class="B"><path d="M33.11 404.849h.881v4.816c0 .497-.117.941-.352 1.331s-.56.695-.984.92-.921.334-1.492.334-1.068-.111-1.492-.334-.753-.531-.987-.92-.348-.834-.348-1.331v-4.816h.881v4.745c0 .355.078.671.234.948s.379.491.668.65.639.234 1.044.234.753-.078 1.044-.234.514-.376.668-.65.234-.593.234-.948v-4.745zm2.526 9.319v-7.5h.81v.866h.099l.256-.362a1.5 1.5 0 0 1 .476-.398c.208-.118.49-.177.845-.177.459 0 .864.114 1.215.344s.624.555.82.977.295.918.295 1.491c0 .578-.098 1.078-.295 1.502s-.469.748-.817.98-.749.345-1.204.345c-.35 0-.631-.058-.842-.174s-.373-.252-.486-.402l-.263-.376h-.071v2.884h-.838zm.824-4.773a3.03 3.03 0 0 0 .181 1.09c.121.312.297.558.529.735s.516.263.852.263c.35 0 .643-.092.877-.277s.414-.438.533-.753.181-.67.181-1.058-.059-.729-.178-1.037-.292-.555-.529-.735-.529-.274-.884-.274c-.341 0-.627.087-.859.26s-.407.409-.526.717-.178.662-.178 1.069zm7.33 2.841c-.455 0-.856-.115-1.204-.345s-.62-.558-.817-.98-.295-.924-.295-1.502c0-.573.098-1.07.295-1.491s.47-.747.82-.977.755-.344 1.215-.344c.355 0 .636.059.842.177a1.45 1.45 0 0 1 .476.398l.259.362h.071v-2.685h.838v7.273h-.81v-.838h-.099c-.061.099-.149.225-.263.376s-.276.283-.486.402-.491.174-.842.174zm.114-.753c.336 0 .62-.088.852-.263s.408-.423.529-.735a3.03 3.03 0 0 0 .181-1.09 2.95 2.95 0 0 0-.177-1.069c-.118-.308-.294-.547-.526-.717s-.518-.26-.859-.26c-.355 0-.651.091-.888.274s-.411.425-.529.735-.174.653-.174 1.037.059.741.178 1.058a1.73 1.73 0 0 0 .533.753c.237.185.53.277.881.277zm5.643.767a2.22 2.22 0 0 1-.941-.195c-.282-.133-.505-.324-.671-.572s-.249-.554-.249-.909c0-.313.061-.566.185-.76a1.3 1.3 0 0 1 .494-.462c.206-.111.433-.194.682-.248l.756-.135.806-.096c.208-.024.36-.063.455-.117s.146-.15.146-.284v-.029c0-.35-.096-.623-.288-.817s-.477-.291-.863-.291c-.4 0-.714.088-.941.263a1.55 1.55 0 0 0-.479.561l-.795-.284c.142-.332.331-.59.568-.774a2.14 2.14 0 0 1 .781-.391 3.23 3.23 0 0 1 .838-.113c.175 0 .377.021.604.063s.451.125.664.253.394.32.536.578.213.604.213 1.037v3.594h-.838v-.739h-.043c-.057.119-.151.245-.284.38s-.309.25-.529.345-.489.142-.806.142zm.128-.753c.331 0 .611-.065.838-.195a1.33 1.33 0 0 0 .519-.505 1.28 1.28 0 0 0 .178-.649v-.767c-.035.042-.114.081-.234.117a3.97 3.97 0 0 1-.412.089l-.451.063-.352.043a3.24 3.24 0 0 0-.611.139 1.05 1.05 0 0 0-.455.28c-.114.123-.17.291-.17.504a.75.75 0 0 0 .323.661c.218.147.494.22.827.22zm6.274-4.829v.71h-2.827v-.71h2.827zm-2.003-1.307h.838v5.199c0 .236.034.414.103.532s.161.194.27.235.228.056.352.056c.092 0 .168-.004.227-.014l.142-.028.17.753c-.057.021-.136.042-.238.064s-.231.035-.387.035c-.237 0-.469-.051-.696-.153a1.37 1.37 0 0 1-.561-.465c-.147-.208-.22-.471-.22-.788v-5.426zm5.492 6.875c-.526 0-.979-.116-1.36-.348a2.34 2.34 0 0 1-.877-.98c-.204-.422-.305-.912-.305-1.471s.102-1.051.305-1.477a2.41 2.41 0 0 1 .859-1.001c.369-.242.8-.362 1.293-.362.284 0 .565.047.842.142s.529.248.756.461.408.49.543.838.202.777.202 1.286v.355h-4.205v-.725h3.352c0-.307-.062-.582-.185-.823a1.39 1.39 0 0 0-.519-.572c-.222-.14-.485-.21-.788-.21-.334 0-.623.083-.866.249a1.63 1.63 0 0 0-.558.639 1.88 1.88 0 0 0-.195.845v.483c0 .412.071.761.213 1.048s.344.501.6.65.553.22.891.22a1.83 1.83 0 0 0 .597-.092c.18-.064.335-.159.465-.285s.231-.286.302-.475l.81.227c-.085.274-.229.516-.43.724s-.45.367-.746.483-.629.171-.998.171zm7.397-4.347l-.753.213c-.047-.125-.117-.247-.21-.366a1.02 1.02 0 0 0-.369-.298c-.156-.078-.356-.117-.6-.117-.334 0-.612.077-.835.231s-.33.344-.33.579c0 .208.076.372.227.493s.388.222.71.302l.81.199c.488.118.851.299 1.09.543s.359.553.359.934c0 .313-.09.592-.27.838s-.426.441-.746.583-.691.213-1.115.213c-.556 0-1.017-.121-1.381-.363s-.595-.594-.692-1.058l.795-.199c.076.294.219.514.43.661s.491.22.835.22c.391 0 .701-.083.93-.249s.348-.369.348-.603c0-.19-.066-.348-.199-.476s-.336-.227-.611-.291l-.909-.213c-.499-.119-.867-.302-1.101-.551s-.348-.564-.348-.941a1.35 1.35 0 0 1 .259-.817 1.77 1.77 0 0 1 .714-.557c.303-.135.646-.202 1.03-.202.54 0 .963.118 1.271.355a1.91 1.91 0 0 1 .66.937z"/><use href="#H" y="66"/></g><path d="M44.425 435.119c-.098-.028-.187-.08-.26-.151a.62.62 0 0 1-.156-.257 4.33 4.33 0 0 0-.818-1.537c-.374-.452-.835-.823-1.357-1.091s-1.091-.427-1.676-.469a4.34 4.34 0 0 0-1.726.229c-.554.192-1.063.494-1.496.889a4.33 4.33 0 0 0-1.107 4.815.57.57 0 0 1-.167.671 2.98 2.98 0 0 0-1.173 2.817 3.05 3.05 0 0 0 1.052 1.838 3.04 3.04 0 0 0 1.996.707h2.88a.54.54 0 0 0 .383-.158c.101-.101.159-.24.159-.383a.54.54 0 0 0-.542-.542h-2.88a1.96 1.96 0 0 1-1.975-1.615 1.87 1.87 0 0 1 .122-1.001 1.86 1.86 0 0 1 .624-.793 1.63 1.63 0 0 0 .597-.874 1.64 1.64 0 0 0-.063-1.057 3.31 3.31 0 0 1-.039-2.235 3.22 3.22 0 0 1 1.017-1.452c.468-.38 1.033-.621 1.631-.696a3.25 3.25 0 0 1 .418-.027c.7-.002 1.383.222 1.945.64a3.24 3.24 0 0 1 1.173 1.678 1.61 1.61 0 0 0 1.089 1.078c.628.186 1.184.559 1.594 1.07a3.21 3.21 0 0 1 .7 1.788 3.22 3.22 0 0 1-.444 1.868 3.21 3.21 0 0 1-1.43 1.281.54.54 0 0 0-.213.2c-.051.085-.077.182-.075.281-.001.09.02.179.063.258a.54.54 0 0 0 .178.196c.075.049.161.079.25.086s.179-.008.261-.044c2.239-1.076 3.456-3.908 1.56-6.643-.522-.681-1.261-1.163-2.095-1.365zm.167 5.053a.54.54 0 0 0 0-.766l-.859-.859c-.305-.305-.718-.476-1.149-.476s-.844.171-1.149.476l-.859.859a.54.54 0 0 0 .766.766l.7-.7v4.109a.54.54 0 0 0 .542.541.54.54 0 0 0 .383-.158c.101-.101.159-.24.159-.383v-4.109l.7.7a.54.54 0 0 0 .766 0z" class="D"/><path d="M58.338 443.122v-7.273h2.457c.571 0 1.037.103 1.399.309s.634.48.81.828.263.736.263 1.164-.088.818-.263 1.169-.44.63-.803.838-.826.309-1.392.309h-1.761v-.781h1.733c.391 0 .704-.068.941-.203s.408-.317.515-.547.163-.493.163-.785-.054-.551-.163-.781-.279-.409-.518-.54-.556-.198-.952-.198h-1.548v6.491h-.881zm9.672-2.23v-3.224h.838v5.454h-.838v-.923h-.057c-.128.277-.327.512-.597.706s-.611.288-1.023.288c-.341 0-.644-.074-.909-.224a1.56 1.56 0 0 1-.625-.681c-.152-.306-.227-.691-.227-1.155v-3.465h.838v3.409c0 .397.111.715.334.951s.511.355.859.355c.208 0 .42-.053.636-.159a1.39 1.39 0 0 0 .547-.49c.149-.221.224-.501.224-.842zm6.237-2.003l-.753.213a1.42 1.42 0 0 0-.209-.366c-.09-.12-.213-.22-.369-.298s-.356-.117-.6-.117c-.334 0-.612.077-.834.231s-.33.344-.33.579c0 .208.076.372.227.493s.388.222.71.302l.81.199c.488.118.851.299 1.09.543s.359.553.359.934c0 .313-.09.592-.27.838s-.426.441-.746.583-.691.213-1.115.213c-.556 0-1.017-.121-1.381-.363s-.595-.594-.692-1.058l.796-.199c.076.294.219.514.43.661s.491.22.835.22c.391 0 .701-.083.93-.249s.348-.369.348-.603c0-.19-.066-.348-.199-.476s-.336-.227-.611-.291l-.909-.213c-.499-.119-.866-.302-1.101-.551s-.348-.564-.348-.941a1.35 1.35 0 0 1 .259-.817 1.77 1.77 0 0 1 .714-.557c.303-.135.646-.202 1.03-.202.54 0 .964.118 1.271.355a1.91 1.91 0 0 1 .66.937zm2.199.952v3.281h-.838v-7.273h.838v2.671h.071c.128-.282.32-.506.575-.671s.601-.252 1.03-.252c.372 0 .697.074.977.223s.496.373.65.678.234.689.234 1.158v3.466h-.838v-3.409c0-.433-.112-.768-.337-1.005s-.531-.359-.927-.359c-.275 0-.521.058-.739.174s-.386.286-.511.508-.185.493-.185.81zm7.996 3.281v-7.273h4.361v.782h-3.48v2.457h3.153v.781h-3.153v3.253h-.881zm5.756 0v-5.454h.838v5.454h-.838zm.426-6.364c-.163 0-.304-.055-.423-.166s-.174-.245-.174-.402.058-.29.174-.401.259-.167.423-.167.303.056.419.167a.53.53 0 0 1 .178.401c0 .157-.059.29-.178.402s-.256.166-.419.166zm1.947 6.364v-5.454h.81v.823h.057c.099-.269.279-.488.54-.657a1.59 1.59 0 0 1 .881-.252l.231.004.21.011v.852c-.028-.007-.094-.018-.195-.032s-.205-.025-.316-.025c-.265 0-.502.056-.71.167a1.26 1.26 0 0 0-.49.454c-.118.192-.178.411-.178.657v3.452h-.838zm3.721 0v-5.454h.81v.852h.071a1.37 1.37 0 0 1 .55-.678c.253-.164.558-.245.913-.245s.659.081.898.245a1.6 1.6 0 0 1 .564.678h.057a1.58 1.58 0 0 1 .629-.671c.279-.168.614-.252 1.005-.252.487 0 .886.152 1.196.458s.466.775.466 1.417v3.65h-.838v-3.65c0-.403-.111-.691-.331-.863a1.22 1.22 0 0 0-.777-.26c-.384 0-.681.116-.892.348s-.316.521-.316.874v3.551h-.852v-3.736c0-.31-.101-.56-.302-.749s-.46-.288-.778-.288a1.15 1.15 0 0 0-.611.174c-.187.116-.339.277-.455.483s-.17.439-.17.707v3.409h-.838zm9.928 0l-1.662-5.454h.88l1.179 4.176h.057l1.165-4.176h.895l1.15 4.161h.057l1.179-4.161h.881l-1.662 5.454h-.824l-1.193-4.19h-.085l-1.193 4.19h-.824zm8.494.128a2.22 2.22 0 0 1-.941-.195c-.282-.133-.505-.324-.671-.572s-.249-.554-.249-.909c0-.313.062-.566.185-.76s.288-.351.493-.462.434-.194.682-.248l.757-.135.806-.096c.208-.024.36-.063.454-.117s.146-.15.146-.284v-.029c0-.35-.096-.623-.288-.817s-.477-.291-.863-.291c-.4 0-.713.088-.941.263s-.387.362-.479.561l-.796-.284c.143-.332.332-.59.569-.774s.499-.317.781-.391a3.23 3.23 0 0 1 .838-.113 3.38 3.38 0 0 1 .604.063 1.95 1.95 0 0 1 .664.253c.215.127.394.32.536.578s.213.604.213 1.037v3.594h-.838v-.739h-.043c-.056.119-.151.245-.284.38a1.64 1.64 0 0 1-.529.345c-.22.095-.489.142-.806.142zm.128-.753c.331 0 .611-.065.838-.195s.402-.299.518-.505.178-.422.178-.649v-.767c-.036.042-.114.081-.234.117a4.03 4.03 0 0 1-.412.089l-.451.063-.352.043a3.25 3.25 0 0 0-.611.139 1.05 1.05 0 0 0-.454.28c-.114.123-.171.291-.171.504 0 .292.108.512.323.661s.494.22.828.22zm3.902.625v-5.454h.809v.823h.057c.1-.269.279-.488.54-.657a1.59 1.59 0 0 1 .881-.252l.23.004.21.011v.852c-.028-.007-.094-.018-.195-.032s-.205-.025-.316-.025a1.49 1.49 0 0 0-.711.167 1.26 1.26 0 0 0-.49.454 1.23 1.23 0 0 0-.177.657v3.452h-.838zm5.841.114c-.525 0-.979-.116-1.36-.348s-.671-.561-.877-.98-.305-.912-.305-1.471.101-1.051.305-1.477a2.41 2.41 0 0 1 .859-1.001c.37-.242.801-.362 1.293-.362a2.58 2.58 0 0 1 .842.142 2.07 2.07 0 0 1 .756.461c.227.211.408.49.543.838s.203.777.203 1.286v.355h-4.205v-.725h3.353c0-.307-.062-.582-.185-.823s-.294-.432-.519-.572-.485-.21-.788-.21c-.334 0-.623.083-.866.249s-.428.376-.558.639a1.88 1.88 0 0 0-.195.845v.483c0 .412.071.761.213 1.048s.344.501.6.65.553.22.891.22c.22 0 .419-.031.597-.092a1.27 1.27 0 0 0 .465-.285c.13-.127.231-.286.302-.475l.81.227c-.086.274-.229.516-.43.724s-.45.367-.746.483-.628.171-.998.171z" class="C"/><path d="M236.413 271.9c0-2.061-1.672-3.733-3.734-3.733s-3.733 1.672-3.733 3.733 1.671 3.734 3.733 3.734 3.734-1.672 3.734-3.734zm56.907 0v-.7h-60.641v.7.7h60.641v-.7z" fill="url(#D)"/><g filter="url(#B)"><rect x="293.32" y="178.67" width="303.531" height="190.682" rx="10" fill="#fff"/></g><g class="C"><path d="M323.744 249.006v-.07h1.149v.07c0 .512.177.896.533 1.154s.851.381 1.488.381 1.129-.131 1.465-.393.51-.609.51-1.031c0-.387-.16-.695-.481-.926s-.947-.478-1.881-.732c-.953-.266-1.627-.578-2.021-.938s-.586-.878-.586-1.546a2.09 2.09 0 0 1 .779-1.664c.52-.446 1.239-.668 2.156-.668s1.649.236 2.192.709a2.25 2.25 0 0 1 .814 1.775v.07h-1.148v-.07c0-.449-.156-.811-.469-1.084s-.771-.416-1.389-.416-1.066.119-1.359.357a1.14 1.14 0 0 0-.434.938c0 .375.149.67.446.885s.896.445 1.799.691c.945.254 1.634.576 2.068.967s.656.939.656 1.646-.281 1.287-.843 1.741-1.317.673-2.274.673-1.725-.224-2.303-.673-.867-1.069-.867-1.846zm7.289.51c0-.633.254-1.125.762-1.477s1.162-.533 1.951-.533h1.442v-.445c0-.368-.1-.665-.299-.891s-.541-.346-1.026-.346-.832.098-1.043.293-.31.422-.31.68v.029h-1.108v-.029c0-.496.225-.93.674-1.301s1.055-.557 1.817-.557 1.357.178 1.775.534.633.884.633 1.588v2.882c0 .254.019.495.058.721s.096.42.17.592v.094h-1.078c-.058-.098-.111-.227-.158-.387s-.07-.318-.082-.475c-.149.258-.391.487-.727.686s-.761.293-1.289.293c-.597 0-1.107-.168-1.529-.504s-.633-.818-.633-1.447zm1.113-.059c0 .352.106.627.317.826s.537.293.978.293.848-.148 1.207-.445.54-.611.54-.943v-.885h-1.325c-.562 0-.99.103-1.283.31s-.434.489-.434.844zm5.872 1.893v-6.235h1.007l.047.809h.035c.227-.289.5-.516.821-.68s.677-.246 1.072-.246c.426 0 .793.084 1.102.252s.543.432.703.803h.035c.265-.371.56-.639.885-.803a2.42 2.42 0 0 1 1.119-.252c.656 0 1.17.182 1.541.545s.556.965.556 1.816v3.991h-1.113v-4.002c0-.504-.109-.866-.328-1.084s-.529-.328-.932-.328c-.347 0-.652.095-.914.287s-.463.437-.615.738v4.389h-1.119v-4.002c0-.504-.109-.866-.328-1.084s-.528-.328-.926-.328c-.348 0-.652.095-.914.287a2.11 2.11 0 0 0-.621.738v4.389h-1.113zm10.605 2.437v-8.672h1.008l.047.809h.035c.16-.254.406-.471.738-.651s.727-.275 1.172-.275c.801 0 1.441.297 1.922.891s.721 1.34.721 2.25v.187c0 .906-.241 1.656-.721 2.25s-1.121.891-1.922.891c-.445 0-.824-.078-1.137-.235s-.562-.363-.75-.621v3.176h-1.113zm1.113-4.301c.125.274.328.52.61.739s.629.322 1.031.322c.605 0 1.049-.213 1.33-.639s.422-.957.422-1.582v-.187c0-.629-.141-1.157-.422-1.582s-.725-.645-1.33-.645c-.402 0-.746.109-1.031.328s-.485.461-.61.739v2.507zm5.942 1.864v-9h1.113v9h-1.113zm2.525-3.024v-.187c0-.942.262-1.709.785-2.303s1.217-.897 2.08-.897 1.528.28 1.993.838.703 1.307.703 2.256v.457h-4.875v-.885h3.75v-.087c0-.469-.127-.864-.381-1.184s-.641-.48-1.16-.48c-.582 0-1.022.22-1.319.662s-.439.982-.439 1.623v.187c0 .641.154 1.182.463 1.623s.795.662 1.447.662c.402 0 .748-.086 1.037-.257s.524-.375.703-.61l.721.58c-.199.293-.51.567-.932.821s-.927.38-1.529.38c-.984 0-1.738-.296-2.262-.89s-.785-1.367-.785-2.309zm9.955 3.024v-8.532h5.397v.95h-4.248v2.888h3.662v.949h-3.662v3.745h-1.149zm6.457 0v-6.235h1.008l.047.803h.035c.16-.262.371-.49.633-.686a1.55 1.55 0 0 1 .943-.293 1.3 1.3 0 0 1 .27.03 1.38 1.38 0 0 1 .205.052v1.038c-.078-.016-.162-.028-.252-.036l-.287-.011c-.363 0-.672.093-.926.281a1.71 1.71 0 0 0-.562.691v4.366h-1.114zm3.697-3.024v-.187c0-.942.262-1.709.786-2.303s1.216-.897 2.08-.897 1.527.28 1.992.838.703 1.307.703 2.256v.457h-4.875v-.885h3.75v-.087c0-.469-.127-.864-.381-1.184s-.64-.48-1.16-.48c-.582 0-1.021.22-1.318.662s-.44.982-.44 1.623v.187c0 .641.155 1.182.463 1.623s.795.662 1.447.662c.403 0 .748-.086 1.037-.257s.524-.375.704-.61l.72.58c-.199.293-.509.567-.931.821s-.928.38-1.53.38c-.984 0-1.738-.296-2.261-.89s-.786-1.367-.786-2.309zm6.528 0v-.187c0-.91.24-1.66.721-2.25s1.123-.891 1.927-.891c.442 0 .828.092 1.16.275s.584.397.745.651h.035l.047-.809h1.007v8.672h-1.113v-3.176c-.183.258-.433.465-.75.621s-.689.235-1.131.235c-.804 0-1.447-.297-1.927-.891s-.721-1.344-.721-2.25zm1.137 0c0 .625.14 1.153.421 1.582s.729.639 1.331.639c.406 0 .75-.108 1.031-.322s.484-.465.609-.739v-2.507c-.125-.278-.328-.524-.609-.739a1.65 1.65 0 0 0-1.031-.328c-.602 0-1.045.215-1.331.645s-.421.953-.421 1.582v.187zm6.181.779v-3.99h1.113v4.002c0 .504.114.865.34 1.084s.557.322.979.322c.359 0 .676-.093.949-.281a1.97 1.97 0 0 0 .639-.744v-4.383h1.119v6.235h-1.014l-.047-.809h-.029c-.234.289-.518.516-.85.68a2.45 2.45 0 0 1-1.101.246c-.641 0-1.151-.182-1.529-.545s-.569-.969-.569-1.817zm6.51-.779v-.187c0-.942.262-1.709.785-2.303s1.217-.897 2.08-.897 1.528.28 1.992.838.704 1.307.704 2.256v.457h-4.875v-.885h3.75v-.087c0-.469-.127-.864-.381-1.184s-.641-.48-1.161-.48c-.582 0-1.021.22-1.318.662s-.439.982-.439 1.623v.187c0 .641.154 1.182.463 1.623s.794.662 1.447.662c.402 0 .748-.086 1.037-.257a2.43 2.43 0 0 0 .703-.61l.721.58c-.199.293-.51.567-.932.821s-.928.38-1.529.38c-.985 0-1.738-.296-2.262-.89s-.785-1.367-.785-2.309zm6.896 3.024v-6.235h1.008l.047.809h.035c.231-.293.512-.52.844-.68a2.52 2.52 0 0 1 1.107-.246c.637 0 1.145.182 1.524.545s.574.965.574 1.816v3.991h-1.119v-4.002c0-.504-.115-.866-.346-1.084s-.549-.328-.967-.328a1.61 1.61 0 0 0-.949.287c-.273.191-.488.437-.644.738v4.389h-1.114zm6.452-3.024v-.187c0-.942.259-1.709.779-2.303s1.236-.897 2.15-.897c.844 0 1.485.225 1.922.674s.656.944.656 1.494v.03h-1.078v-.03a1.24 1.24 0 0 0-.357-.873c-.238-.254-.619-.38-1.143-.38-.613 0-1.066.22-1.359.662s-.434.982-.434 1.623v.187c0 .641.145 1.182.434 1.623s.746.662 1.359.662c.524 0 .905-.127 1.143-.381s.357-.546.357-.878v-.03h1.078v.03c0 .554-.218 1.056-.656 1.505s-1.078.668-1.922.668c-.914 0-1.631-.296-2.15-.89s-.779-1.367-.779-2.309zm6.228 5.461v-.949a2.65 2.65 0 0 0 .346.076c.129.02.254.029.375.029.281 0 .521-.093.721-.281s.419-.633.662-1.348v-.005l-2.35-6.194h1.09l1.494 4.084.147.451.117.405h.035l.117-.405.152-.451 1.395-4.084h1.055l-2.561 7.055c-.203.547-.471.973-.803 1.277s-.732.457-1.213.457a2.73 2.73 0 0 1-.427-.029 2.16 2.16 0 0 1-.352-.088zm-91.072 14.117c-.817-.375-1.559-1.025-2.227-1.951s-1.002-2.133-1.002-3.621v-.059c0-1.531.334-2.748 1.002-3.65s1.41-1.547 2.227-1.922v1.043c-.496.293-.965.791-1.406 1.494s-.657 1.698-.657 2.994v.141c0 1.262.219 2.252.657 2.971s.91 1.224 1.406 1.517v1.043zm1.037-2.554v-6.235h1.008l.047.809h.035a2.45 2.45 0 0 1 .82-.68c.32-.164.678-.246 1.072-.246.426 0 .793.084 1.102.252s.543.432.703.803h.035c.266-.371.561-.639.885-.803a2.42 2.42 0 0 1 1.119-.252c.656 0 1.17.182 1.541.545s.557.965.557 1.816v3.991h-1.113v-4.002c0-.504-.11-.866-.329-1.084s-.529-.328-.931-.328a1.5 1.5 0 0 0-.914.287c-.258.191-.463.437-.616.738v4.389h-1.119v-4.002c0-.504-.109-.866-.328-1.084s-.527-.328-.926-.328c-.347 0-.652.095-.914.287a2.13 2.13 0 0 0-.621.738v4.389h-1.113zm10.658 0v-6.235h1.113v6.235h-1.113zm-.129-8.086a.65.65 0 0 1 .176-.463c.121-.129.291-.194.51-.194s.387.065.504.194a.64.64 0 0 1 .181.463c0 .187-.06.345-.181.474s-.285.188-.504.188-.389-.063-.51-.188a.68.68 0 0 1-.176-.474zm3.03 8.086v-6.235h1.007l.047.809h.035c.231-.293.512-.52.844-.68a2.52 2.52 0 0 1 1.108-.246c.636 0 1.144.182 1.523.545s.574.965.574 1.816v3.991h-1.119v-4.002c0-.504-.115-.866-.346-1.084s-.548-.328-.966-.328c-.36 0-.676.095-.95.287a2.02 2.02 0 0 0-.644.738v4.389h-1.113zm6.421-1.834h1.114v.029c0 .355.135.625.404.809s.631.269 1.072.269.795-.086 1.049-.258.381-.4.381-.674-.102-.49-.305-.638-.648-.299-1.336-.451-1.232-.373-1.623-.663-.58-.697-.58-1.212.215-.938.645-1.278 1.008-.51 1.734-.51 1.309.172 1.746.516.662.797.662 1.371v.029h-1.107v-.046c0-.301-.106-.538-.316-.709s-.54-.258-.985-.258-.769.08-.973.24-.304.352-.304.586.111.428.334.568.683.282 1.371.434 1.221.379 1.588.68.556.726.556 1.277a1.7 1.7 0 0 1-.638 1.365c-.426.355-1.055.533-1.899.533s-1.486-.179-1.927-.539a1.77 1.77 0 0 1-.663-1.441v-.029zm5.772 4.388v-1.043c.496-.293.963-.799 1.4-1.517s.662-1.709.662-2.971v-.141c0-1.296-.22-2.294-.662-2.994s-.904-1.201-1.4-1.494v-1.043c.816.375 1.559 1.016 2.227 1.922s1.001 2.119 1.001 3.65v.059c0 1.488-.334 2.695-1.001 3.621s-1.411 1.576-2.227 1.951zm164.725-24.282v8.728h-1.056v-7.62h-.052l-2.13 1.415v-1.074l2.182-1.449h1.056zm2.51 8.728v-.767l2.881-3.154.835-.963c.219-.275.381-.534.486-.775a1.88 1.88 0 0 0 .162-.768c0-.306-.074-.572-.222-.796s-.343-.398-.596-.52-.537-.184-.852-.184c-.336 0-.628.07-.878.209a1.44 1.44 0 0 0-.576.576c-.137.248-.2.536-.2.869h-1.006c0-.511.118-.96.354-1.347s.557-.687.963-.903.868-.324 1.377-.324.964.108 1.359.324.705.507.929.873a2.3 2.3 0 0 1 .337 1.223c0 .321-.059.635-.175.942s-.313.644-.597 1.019-.672.826-1.172 1.363l-1.96 2.097v.068h4.057v.938h-5.506zm-15.129 41.98v-8.727h5.233v.937h-4.177v2.949h3.784v.938h-3.784v3.903h-1.056zm6.906 0v-6.545h1.006v6.545h-1.006zm.512-7.636c-.196 0-.366-.067-.508-.201a.64.64 0 0 1-.208-.481c0-.188.069-.348.208-.482a.72.72 0 0 1 .508-.2.7.7 0 0 1 .502.2.64.64 0 0 1 .213.482c0 .187-.071.348-.213.481s-.306.201-.502.201zm5.08 7.772c-.631 0-1.175-.139-1.632-.417a2.8 2.8 0 0 1-1.052-1.176c-.245-.506-.367-1.094-.367-1.765s.122-1.261.367-1.772.59-.915 1.031-1.202.96-.435 1.551-.435c.341 0 .677.057 1.01.171a2.5 2.5 0 0 1 .908.554c.273.256.49.588.651 1.006s.243.931.243 1.542v.426h-5.045v-.869h4.023c0-.369-.074-.699-.222-.989a1.69 1.69 0 0 0-.622-.686c-.27-.168-.582-.251-.946-.251-.401 0-.747.099-1.04.298a1.96 1.96 0 0 0-.669.767c-.156.315-.234.654-.234 1.014v.58c0 .494.085.913.255 1.257a1.85 1.85 0 0 0 .721.78c.306.176.663.264 1.069.264.264 0 .503-.037.716-.111a1.51 1.51 0 0 0 .558-.341 1.54 1.54 0 0 0 .363-.571l.971.273a2.14 2.14 0 0 1-.516.869c-.241.248-.539.441-.894.58s-.755.204-1.198.204zm5.246-8.863v8.727h-1.006v-8.727h1.006zm4.313 8.863c-.545 0-1.027-.137-1.444-.413s-.744-.67-.98-1.176-.354-1.109-.354-1.803c0-.687.118-1.284.354-1.789s.564-.897.984-1.172.906-.414 1.458-.414c.426 0 .762.071 1.009.213s.441.299.571.478l.312.434h.085v-3.221h1.005v8.727h-.971v-1.006h-.119a6.21 6.21 0 0 1-.316.452c-.136.179-.331.34-.584.482s-.589.208-1.01.208zm.137-.903c.403 0 .744-.105 1.023-.315s.49-.507.635-.882.217-.814.217-1.309c0-.488-.071-.916-.213-1.282s-.353-.657-.631-.861-.622-.311-1.031-.311c-.426 0-.781.109-1.066.328s-.492.51-.634.882-.209.784-.209 1.244c0 .466.071.89.213 1.27s.358.679.639.904.636.332 1.057.332zm8.203.767v-.767l2.881-3.153.835-.963c.219-.276.381-.535.486-.776s.162-.5.162-.767c0-.307-.074-.573-.222-.797a1.44 1.44 0 0 0-.597-.52c-.252-.122-.537-.183-.852-.183-.335 0-.628.07-.878.209s-.439.328-.575.575-.2.537-.2.869h-1.006c0-.511.118-.96.354-1.346s.557-.688.963-.904.868-.324 1.376-.324.965.108 1.36.324.704.507.929.874a2.29 2.29 0 0 1 .336 1.223c0 .321-.058.635-.174.942s-.313.643-.597 1.018-.672.827-1.172 1.364l-1.96 2.096v.069h4.057v.937h-5.506z"/><path d="M401.785 208.385v-.156h1.797v.14c0 .646.214 1.133.641 1.461s1.023.484 1.789.484 1.351-.161 1.758-.484a1.56 1.56 0 0 0 .617-1.281c0-.5-.198-.893-.594-1.18s-1.164-.601-2.32-.93c-1.214-.343-2.097-.763-2.649-1.257-.547-.5-.82-1.201-.82-2.102 0-.927.349-1.685 1.047-2.273s1.666-.883 2.89-.883 2.191.307 2.914.922c.73.614 1.094 1.414 1.094 2.398v.141h-1.781v-.133c0-.563-.188-1.016-.563-1.359-.369-.349-.924-.524-1.664-.524s-1.283.146-1.632.438-.524.687-.524 1.187a1.25 1.25 0 0 0 .547 1.078c.365.261 1.133.555 2.305.883 1.198.339 2.086.771 2.664 1.297s.867 1.271.867 2.234c0 .985-.375 1.776-1.125 2.375s-1.758.891-3.023.891c-1.271 0-2.295-.297-3.071-.891s-1.164-1.419-1.164-2.476zm9.625.734c0-.854.336-1.51 1.008-1.969s1.526-.695 2.562-.695h1.766v-.539c0-.448-.117-.812-.351-1.094s-.633-.422-1.211-.422-.982.118-1.227.352-.367.51-.367.828v.07h-1.711v-.078c0-.677.305-1.255.914-1.734.615-.479 1.432-.719 2.453-.719s1.815.232 2.383.695.851 1.167.851 2.11v3.742c0 .333.027.651.079.953a3.55 3.55 0 0 0 .226.781v.125h-1.687a2.41 2.41 0 0 1-.188-.492 4.44 4.44 0 0 1-.109-.609c-.177.328-.485.62-.922.875s-.992.383-1.664.383c-.787 0-1.451-.217-1.992-.649s-.813-1.075-.813-1.914zm1.735-.117c0 .432.125.773.375 1.023s.638.368 1.164.368a2.1 2.1 0 0 0 1.437-.547c.417-.365.625-.766.625-1.203v-1.039h-1.547c-.682 0-1.195.125-1.539.375a1.18 1.18 0 0 0-.515 1.023zm7.515 2.523v-8.179h1.602l.054 1.023h.047a2.9 2.9 0 0 1 1.032-.867 2.95 2.95 0 0 1 1.351-.313c.557 0 1.039.115 1.445.344s.711.576.914 1.055h.04c.317-.479.695-.831 1.132-1.055a3.12 3.12 0 0 1 1.469-.344c.833 0 1.492.243 1.977.727s.734 1.286.734 2.422v5.187h-1.734v-5.242c0-.599-.128-1.031-.383-1.297s-.62-.398-1.094-.398c-.411 0-.773.114-1.086.344-.307.229-.552.533-.734.914v5.679h-1.735v-5.234c0-.604-.127-1.039-.382-1.305s-.623-.398-1.102-.398c-.411 0-.771.114-1.078.344a2.42 2.42 0 0 0-.734.914v5.679h-1.735zm13.906 3.258v-11.437h1.594l.055 1.023h.047c.192-.328.502-.607.929-.836s.917-.344 1.469-.344c1.042 0 1.875.383 2.5 1.149s.945 1.755.945 2.969v.25c0 1.213-.312 2.205-.937 2.976s-1.453 1.149-2.484 1.149c-.552 0-1.032-.097-1.438-.289-.406-.198-.721-.461-.945-.789v4.179h-1.735zm1.735-5.781c.146.344.388.648.726.914.344.266.758.398 1.243.398.708 0 1.229-.252 1.562-.757.339-.511.508-1.162.508-1.953v-.336c0-.792-.169-1.441-.508-1.946-.333-.51-.857-.765-1.57-.765-.485 0-.896.132-1.235.398a2.36 2.36 0 0 0-.726.899v3.148zm7.578 2.523v-11.961h1.734v11.961h-1.734zm4.023 0v-8.179h1.735v8.179h-1.735zm-.179-10.609c0-.276.088-.508.265-.695.183-.193.443-.289.782-.289s.598.096.781.289c.182.187.273.419.273.695s-.091.518-.273.711c-.183.187-.443.281-.781.281s-.599-.094-.782-.281c-.177-.193-.265-.43-.265-.711zm4.156 10.609v-8.179h1.601l.055 1.015h.047c.266-.359.612-.643 1.039-.851.427-.214.899-.321 1.414-.321.828 0 1.492.237 1.992.711.506.469.758 1.266.758 2.391v5.234h-1.734v-5.257c0-.605-.136-1.034-.406-1.289-.266-.261-.646-.391-1.141-.391-.417 0-.792.114-1.125.344a2.24 2.24 0 0 0-.766.906v5.687h-1.734zm8.914 2.25l.922-1.195c.213.234.531.451.953.649s.893.296 1.414.296c.656 0 1.177-.192 1.563-.578s.585-.945.585-1.679v-.672c-.223.328-.536.591-.937.789-.396.192-.872.289-1.43.289-1.036 0-1.87-.383-2.5-1.149s-.937-1.752-.937-2.961v-.25c0-1.213.312-2.203.937-2.968.625-.771 1.461-1.157 2.508-1.157.547 0 1.031.115 1.453.344s.74.508.938.836h.039l.054-1.023h1.602v7.89c0 1.193-.354 2.107-1.062 2.743s-1.623.953-2.743.953c-.687 0-1.323-.11-1.906-.328-.578-.219-1.062-.495-1.453-.829zm1.398-6.179c0 .781.17 1.429.508 1.945s.867.773 1.586.773c.479 0 .886-.132 1.219-.398s.581-.57.726-.914v-3.117a2.27 2.27 0 0 0-.734-.93c-.333-.266-.739-.398-1.219-.398-.713 0-1.239.257-1.578.773s-.508 1.164-.508 1.945v.321zm-138.447 83.39v-.07h1.149v.07c0 .512.177.897.533 1.155s.851.38 1.488.38 1.129-.13 1.465-.392.51-.609.51-1.031a1.08 1.08 0 0 0-.481-.926c-.32-.234-.947-.479-1.881-.733-.953-.265-1.627-.578-2.021-.937s-.586-.879-.586-1.547a2.09 2.09 0 0 1 .779-1.664c.52-.445 1.239-.668 2.156-.668s1.649.236 2.192.709.814 1.064.814 1.775v.071h-1.148v-.071c0-.449-.156-.81-.469-1.084s-.771-.416-1.389-.416-1.066.12-1.359.358-.434.547-.434.937c0 .375.149.67.446.885s.896.445 1.799.692c.945.253 1.634.576 2.068.966s.656.94.656 1.647-.281 1.287-.843 1.74-1.317.674-2.274.674-1.725-.225-2.303-.674-.867-1.068-.867-1.846zm7.26-.679v-.188c0-.941.262-1.709.785-2.303s1.217-.896 2.08-.896 1.527.279 1.992.838.703 1.306.703 2.256v.457h-4.875v-.885h3.75v-.088c0-.469-.127-.863-.38-1.184s-.641-.48-1.161-.48c-.582 0-1.021.221-1.318.662s-.439.983-.439 1.623v.188c0 .64.154 1.181.463 1.623s.794.662 1.447.662c.402 0 .748-.086 1.037-.258s.523-.375.703-.609l.721.58c-.2.293-.51.566-.932.82s-.928.381-1.529.381c-.985 0-1.739-.297-2.262-.891s-.785-1.367-.785-2.308zm6.943 3.023v-9h1.114v9h-1.114zm2.526-3.023v-.188c0-.941.261-1.709.785-2.303s1.217-.896 2.08-.896 1.527.279 1.992.838.703 1.306.703 2.256v.457h-4.875v-.885h3.75v-.088c0-.469-.127-.863-.381-1.184s-.64-.48-1.16-.48c-.582 0-1.021.221-1.318.662s-.44.983-.44 1.623v.188c0 .64.155 1.181.463 1.623s.795.662 1.448.662c.402 0 .748-.086 1.037-.258s.523-.375.703-.609l.72.58c-.199.293-.509.566-.931.82s-.928.381-1.529.381c-.985 0-1.739-.297-2.262-.891s-.785-1.367-.785-2.308zm6.527 0v-.188c0-.941.26-1.709.779-2.303s1.237-.896 2.151-.896c.843 0 1.484.225 1.922.674s.656.943.656 1.494v.029h-1.078v-.029c0-.328-.119-.619-.358-.873s-.619-.381-1.142-.381c-.614 0-1.067.221-1.36.662s-.433.983-.433 1.623v.188c0 .64.144 1.181.433 1.623s.746.662 1.36.662c.523 0 .904-.127 1.142-.381s.358-.547.358-.879v-.029h1.078v.029c0 .555-.219 1.057-.656 1.506s-1.079.668-1.922.668c-.914 0-1.631-.297-2.151-.891s-.779-1.367-.779-2.308zm5.924-2.356v-.855h3.609v.855h-3.609zm1.131 3.832v-4.172-.175-1.793h1.113v6.14c0 .274.055.469.164.586s.291.176.533.176c.11 0 .217-.012.323-.035a2.99 2.99 0 0 0 .333-.094v.914a2.05 2.05 0 0 1-.41.123 2.61 2.61 0 0 1-.545.053c-.461 0-.828-.139-1.101-.416s-.41-.713-.41-1.307zm6.697 1.547v-8.531h5.396v.949H361.9v2.889h3.662v.949H361.9v3.744h-1.148zm6.662 0v-6.234h1.113v6.234h-1.113zm-.129-8.086c0-.183.059-.338.176-.463s.291-.193.51-.193.386.064.504.193a.64.64 0 0 1 .181.463c0 .188-.06.346-.181.475s-.286.187-.504.187-.389-.062-.51-.187a.68.68 0 0 1-.176-.475zm2.66 5.063v-.188c0-.941.262-1.709.785-2.303s1.217-.896 2.081-.896 1.527.279 1.992.838.703 1.306.703 2.256v.457h-4.875v-.885h3.75v-.088c0-.469-.127-.863-.381-1.184s-.641-.48-1.16-.48c-.582 0-1.022.221-1.319.662s-.439.983-.439 1.623v.188c0 .64.154 1.181.463 1.623s.795.662 1.447.662c.403 0 .748-.086 1.037-.258s.524-.375.703-.609l.721.58c-.199.293-.51.566-.932.82s-.927.381-1.529.381c-.984 0-1.738-.297-2.262-.891s-.785-1.367-.785-2.308zm6.944 3.023v-9h1.113v9h-1.113zm2.525-3.023v-.188c0-.91.24-1.66.721-2.25s1.123-.89 1.927-.89c.442 0 .819.078 1.131.234a1.98 1.98 0 0 1 .75.615v-3.498h1.114v9h-1.008l-.047-.814h-.035c-.16.257-.408.478-.744.662s-.719.269-1.161.269c-.804 0-1.447-.297-1.927-.89s-.721-1.344-.721-2.25zm1.137 0c0 .625.14 1.152.422 1.582s.728.638 1.33.638c.406 0 .75-.107 1.031-.322s.484-.465.609-.738v-2.508c-.125-.277-.328-.523-.609-.738a1.65 1.65 0 0 0-1.031-.328c-.602 0-1.045.214-1.33.644s-.422.953-.422 1.582v.188z"/></g><path d="M558.275 287.199h6.045a.54.54 0 0 1 .3.091c.089.06.159.144.2.243a.55.55 0 0 1 .031.313.54.54 0 0 1-.149.277l-3.022 3.022a.54.54 0 0 1-.765 0l-3.022-3.022a.54.54 0 0 1-.117-.59c.04-.099.11-.183.199-.243s.193-.091.3-.091z" fill="#a0a0a0"/><path stroke="#e3e3e3" d="M294 318.785h306.777" class="E"/><path d="M519.705 342.944c0 1.074-.194 2.002-.582 2.784s-.92 1.386-1.596 1.81-1.448.636-2.317.636-1.64-.212-2.316-.636-1.208-1.027-1.596-1.81-.582-1.71-.582-2.784.194-2.002.582-2.784.92-1.385 1.596-1.81 1.448-.636 2.316-.636 1.641.212 2.317.636 1.208 1.028 1.596 1.81.582 1.71.582 2.784zm-1.193 0c0-.881-.148-1.625-.443-2.232s-.688-1.066-1.188-1.377-1.054-.467-1.671-.467a3.1 3.1 0 0 0-1.675.467c-.497.311-.893.77-1.188 1.377s-.438 1.351-.438 2.232.146 1.626.438 2.232.691 1.066 1.188 1.378a3.11 3.11 0 0 0 1.675.467c.617 0 1.174-.156 1.671-.467s.896-.771 1.188-1.378.443-1.35.443-2.232zm4.201 2.307l-.02-1.452h.238l3.341-3.4h1.452l-3.56 3.599h-.099l-1.352 1.253zm-1.094 2.784v-10.182h1.173v10.182h-1.173zm4.852 0l-2.983-3.778.835-.816 3.64 4.594h-1.492zm5.01.179c-.484 0-.923-.091-1.317-.273s-.708-.453-.94-.801-.348-.775-.348-1.272c0-.438.086-.793.259-1.064a1.82 1.82 0 0 1 .691-.647 3.68 3.68 0 0 1 .954-.348l1.059-.189 1.129-.134c.291-.033.503-.088.636-.164s.204-.209.204-.398v-.039c0-.491-.134-.872-.403-1.144s-.668-.408-1.208-.408c-.56 0-.999.123-1.317.368s-.542.507-.672.786l-1.113-.398c.199-.464.464-.825.795-1.084a2.99 2.99 0 0 1 1.094-.547c.398-.106.789-.159 1.173-.159.246 0 .527.03.845.09s.632.174.93.353.552.449.751.81.298.845.298 1.452v5.031h-1.173v-1.034h-.06c-.079.166-.212.343-.398.532s-.432.35-.74.482-.685.199-1.129.199zm.179-1.054c.464 0 .855-.091 1.173-.273s.564-.418.726-.706a1.8 1.8 0 0 0 .249-.91v-1.074c-.05.06-.159.114-.328.164s-.358.088-.577.124l-.631.09-.493.06a4.49 4.49 0 0 0-.855.193 1.49 1.49 0 0 0-.636.393c-.159.173-.239.408-.239.706 0 .408.151.716.453.925s.691.308 1.158.308zm5.945 3.739a2.58 2.58 0 0 1-.532-.05c-.156-.03-.264-.06-.323-.089l.298-1.035c.285.073.537.1.756.08s.412-.118.581-.293.33-.453.473-.84l.219-.597-2.824-7.676h1.272l2.108 6.085h.08l2.108-6.085h1.273l-3.242 8.75c-.146.394-.326.721-.542.979a2.02 2.02 0 0 1-.751.582c-.281.126-.599.189-.954.189z" fill="#3c3b3b"/><path d="M360.237 342.267h-1.233c-.073-.355-.201-.667-.383-.935s-.398-.494-.656-.676-.539-.325-.85-.418-.637-.139-.975-.139a3.11 3.11 0 0 0-1.675.467c-.497.312-.894.771-1.189 1.377s-.437 1.351-.437 2.233.146 1.625.437 2.232.692 1.066 1.189 1.377a3.1 3.1 0 0 0 1.675.467c.338 0 .663-.046.975-.139s.594-.23.85-.412a2.63 2.63 0 0 0 .656-.682c.182-.271.31-.583.383-.934h1.233a4.12 4.12 0 0 1-.507 1.397 3.85 3.85 0 0 1-.915 1.049 4.01 4.01 0 0 1-1.228.651c-.451.149-.933.224-1.447.224-.868 0-1.641-.212-2.317-.637s-1.208-1.027-1.596-1.809-.581-1.71-.581-2.784.194-2.002.581-2.784.92-1.386 1.596-1.81 1.449-.636 2.317-.636c.514 0 .996.074 1.447.223a3.94 3.94 0 0 1 1.228.657 3.77 3.77 0 0 1 .915 1.044c.245.407.414.873.507 1.397zm4.08 7.179c-.484 0-.923-.092-1.317-.274s-.708-.452-.94-.8-.348-.776-.348-1.273c0-.438.086-.792.259-1.064a1.82 1.82 0 0 1 .691-.646c.288-.156.606-.272.954-.348l1.059-.189 1.129-.134c.291-.034.503-.088.636-.164s.204-.209.204-.398v-.04c0-.49-.134-.872-.403-1.143s-.668-.408-1.208-.408c-.56 0-.999.123-1.317.368s-.542.507-.672.785l-1.113-.397c.199-.464.464-.826.795-1.084a2.99 2.99 0 0 1 1.094-.547c.398-.106.789-.159 1.173-.159.246 0 .527.03.845.089s.632.174.93.353.552.449.751.811.298.845.298 1.451v5.032h-1.173v-1.034h-.06a2.04 2.04 0 0 1-.398.531c-.185.189-.432.35-.74.483s-.685.199-1.129.199zm.179-1.054c.464 0 .855-.092 1.173-.274a1.85 1.85 0 0 0 .726-.706c.166-.288.249-.591.249-.91v-1.073c-.05.059-.159.114-.328.164s-.358.087-.577.124l-.631.089-.493.06c-.305.04-.59.104-.855.194s-.474.217-.636.393-.239.407-.239.706c0 .407.151.716.453.924s.691.309 1.158.309zm6.636-3.719v4.594h-1.173v-7.637h1.133v1.193h.1a2.18 2.18 0 0 1 .815-.934c.365-.239.835-.358 1.412-.358.517 0 .969.106 1.357.318s.689.527.905.955.323.961.323 1.61v4.853h-1.173v-4.773c0-.6-.156-1.067-.468-1.402s-.739-.507-1.282-.507a2.05 2.05 0 0 0-1.004.243c-.292.163-.522.4-.692.711s-.253.69-.253 1.134zm10.118 4.753c-.716 0-1.332-.169-1.849-.507s-.915-.804-1.193-1.397-.418-1.271-.418-2.034c0-.775.143-1.46.428-2.053s.689-1.062 1.203-1.397 1.12-.507 1.809-.507c.537 0 1.021.099 1.452.298a2.78 2.78 0 0 1 1.059.835c.275.358.446.776.512 1.253h-1.173c-.09-.348-.288-.656-.597-.925s-.716-.407-1.233-.407a2.06 2.06 0 0 0-1.203.358c-.341.235-.608.568-.8.999s-.284.93-.284 1.506c0 .59.093 1.104.279 1.542s.454.777.795 1.019.749.363 1.213.363a2.1 2.1 0 0 0 .831-.159c.248-.106.459-.259.631-.458s.295-.437.368-.716h1.173a2.71 2.71 0 0 1-.492 1.218c-.259.358-.602.643-1.029.855s-.918.314-1.482.314zm7.92 0c-.736 0-1.37-.163-1.904-.488s-.94-.785-1.228-1.372-.428-1.276-.428-2.058.143-1.472.428-2.068.689-1.067 1.203-1.402 1.12-.507 1.81-.507c.398 0 .79.066 1.178.199a2.91 2.91 0 0 1 1.059.646c.318.295.572.686.761 1.173s.283 1.087.283 1.8v.497h-5.886v-1.014h4.693c0-.431-.086-.815-.259-1.153s-.411-.605-.726-.801-.679-.293-1.103-.293c-.468 0-.872.116-1.213.348s-.599.527-.781.895a2.63 2.63 0 0 0-.273 1.183v.676c0 .577.099 1.066.298 1.467s.482.701.84.909.774.309 1.248.309c.308 0 .587-.043.835-.13s.469-.222.652-.397.323-.401.422-.666l1.134.318c-.12.384-.32.722-.602 1.014s-.63.514-1.044.676-.88.239-1.397.239zm6.12-10.341v10.182h-1.173v-10.182h1.173z" fill-opacity=".81" class="F"/><path stroke="#e3e3e3" d="M448.449 319.035v50.318" class="E"/><path d="M220.881 140.19l-.563-.5 3.319-2.925-3.319-2.925.563-.5 3.881 3.425-3.881 3.425zM18.344 107.189c-.047-.395-.237-.703-.57-.921s-.742-.329-1.226-.329c-.354 0-.664.058-.93.172s-.469.272-.617.473a1.12 1.12 0 0 0-.219.684c0 .213.051.397.152.55a1.29 1.29 0 0 0 .398.379 2.85 2.85 0 0 0 .508.246l.488.153.813.218c.208.055.44.131.695.227s.504.228.738.395a2.09 2.09 0 0 1 .586.632c.154.257.23.575.23.95a2.1 2.1 0 0 1-.34 1.171c-.227.349-.552.627-.984.832s-.952.309-1.566.309c-.573 0-1.069-.092-1.488-.277s-.745-.443-.984-.774-.371-.715-.402-1.152h1c.026.302.128.552.305.75a1.65 1.65 0 0 0 .68.437c.276.094.573.141.891.141.37 0 .702-.06.996-.18a1.69 1.69 0 0 0 .699-.507c.172-.216.258-.474.258-.766 0-.266-.074-.482-.223-.648a1.63 1.63 0 0 0-.586-.407c-.242-.104-.504-.195-.785-.273l-.984-.281c-.625-.18-1.12-.437-1.484-.77s-.547-.769-.547-1.309a1.94 1.94 0 0 1 .363-1.171c.242-.333.573-.597.984-.782s.876-.281 1.387-.281c.516 0 .974.093 1.375.277s.719.433.953.75a1.87 1.87 0 0 1 .375 1.082h-.937zm5.03 6.125c-.578 0-1.077-.127-1.496-.382s-.738-.618-.965-1.078-.336-1.003-.336-1.618.112-1.156.336-1.625a2.65 2.65 0 0 1 .945-1.101c.406-.266.88-.399 1.422-.399.313 0 .621.052.926.157s.582.273.832.507.449.539.598.922.223.854.223 1.414v.391h-4.625v-.797h3.688a1.97 1.97 0 0 0-.203-.906 1.53 1.53 0 0 0-.57-.629c-.245-.154-.534-.231-.867-.231-.367 0-.685.092-.953.274a1.8 1.8 0 0 0-.613.703 2.07 2.07 0 0 0-.215.93v.531c0 .453.078.837.234 1.152a1.66 1.66 0 0 0 .66.715c.281.164.608.242.98.242.242 0 .461-.034.656-.101s.369-.175.512-.313a1.4 1.4 0 0 0 .332-.523l.891.25a1.97 1.97 0 0 1-.473.797c-.222.229-.495.403-.82.531s-.691.187-1.098.187zm4.809-3.734v3.609h-.922v-6h.891v.938h.078c.141-.305.354-.55.641-.734s.656-.282 1.109-.282c.406 0 .762.084 1.066.25s.542.414.711.75.254.756.254 1.266v3.812h-.922v-3.75c0-.471-.122-.838-.367-1.101s-.581-.399-1.008-.399c-.294 0-.557.064-.789.192a1.37 1.37 0 0 0-.543.558c-.133.245-.199.542-.199.891zm9.763-1.047l-.828.235a1.54 1.54 0 0 0-.23-.403c-.099-.133-.234-.242-.406-.328s-.392-.129-.66-.129c-.367 0-.673.085-.918.254s-.363.379-.363.637c0 .229.083.41.25.543s.427.243.781.332l.891.219c.536.13.936.329 1.199.597s.394.608.394 1.028a1.52 1.52 0 0 1-.297.921c-.195.271-.469.485-.82.641s-.76.234-1.227.234c-.612 0-1.119-.132-1.52-.398s-.655-.654-.762-1.164l.875-.219c.083.323.241.565.473.727s.54.242.918.242c.43 0 .771-.091 1.023-.273s.383-.407.383-.665c0-.208-.073-.382-.219-.523s-.37-.25-.672-.32l-1-.235c-.549-.13-.953-.332-1.211-.605s-.383-.621-.383-1.035c0-.339.095-.638.285-.899a1.94 1.94 0 0 1 .785-.613c.333-.148.711-.223 1.133-.223.594 0 1.06.131 1.398.391a2.13 2.13 0 0 1 .727 1.031zm3.935 4.781c-.542 0-1.017-.128-1.426-.386a2.61 2.61 0 0 1-.953-1.082c-.229-.463-.34-1.006-.34-1.625 0-.625.113-1.171.34-1.637a2.61 2.61 0 0 1 .953-1.086c.406-.258.884-.387 1.426-.387s1.016.129 1.422.387.727.62.953 1.086.344 1.012.344 1.637c0 .619-.115 1.161-.344 1.625s-.544.824-.953 1.082-.88.386-1.422.386zm0-.828c.411 0 .75-.105 1.016-.316s.462-.488.59-.832.191-.716.191-1.117a3.23 3.23 0 0 0-.191-1.121c-.127-.346-.324-.627-.59-.84s-.604-.321-1.016-.321-.75.107-1.016.321a1.89 1.89 0 0 0-.59.84 3.21 3.21 0 0 0-.191 1.121 3.2 3.2 0 0 0 .191 1.117c.127.344.324.621.59.832s.604.316 1.016.316zm4.126.703v-6h.891v.907h.063c.109-.297.307-.538.594-.723s.609-.277.969-.277l.254.004.23.011v.938a2.39 2.39 0 0 0-.215-.035 2.03 2.03 0 0 0-.348-.028c-.292 0-.552.062-.781.184a1.38 1.38 0 0 0-.539.5 1.33 1.33 0 0 0-.195.723v3.796h-.922zm9.78 0h-2.469v-8h2.578c.776 0 1.44.161 1.992.481s.975.775 1.27 1.371.441 1.305.441 2.133-.148 1.551-.445 2.152a3.16 3.16 0 0 1-1.297 1.383c-.568.323-1.258.48-2.07.48zm-1.5-.859h1.438c.662 0 1.21-.128 1.645-.383s.759-.618.973-1.09.32-1.032.32-1.683-.105-1.202-.316-1.668-.526-.828-.945-1.078-.941-.379-1.566-.379h-1.547v6.281zm8.578 1c-.38 0-.725-.072-1.035-.215a1.75 1.75 0 0 1-.738-.629c-.182-.274-.273-.609-.273-1 0-.343.068-.622.203-.836a1.43 1.43 0 0 1 .543-.507 2.85 2.85 0 0 1 .75-.274l.832-.148.887-.106c.229-.026.396-.069.5-.129s.16-.164.16-.312v-.031c0-.386-.106-.685-.316-.899s-.525-.32-.949-.32c-.44 0-.785.096-1.035.289s-.426.398-.527.617l-.875-.312c.156-.365.364-.649.625-.852a2.37 2.37 0 0 1 .859-.43c.31-.081.62-.125.922-.125a3.65 3.65 0 0 1 .664.071 2.11 2.11 0 0 1 .73.277c.237.141.434.353.59.637s.234.664.234 1.14v3.953h-.922v-.812h-.047a1.64 1.64 0 0 1-.312.418c-.145.149-.34.275-.582.379s-.538.156-.887.156zm.141-.828c.365 0 .672-.072.922-.215s.443-.328.57-.555a1.41 1.41 0 0 0 .195-.714v-.844c-.039.047-.125.09-.258.129a4.31 4.31 0 0 1-.453.097l-.496.071-.387.047a3.53 3.53 0 0 0-.672.152c-.209.07-.372.17-.5.309s-.187.32-.187.554c0 .321.118.563.355.727s.543.242.91.242zm6.901-5.313v.782h-3.109v-.782h3.109zm-2.203-1.437h.922v5.719c0 .26.038.455.113.586s.177.213.297.257.251.063.387.063c.102 0 .185-.005.25-.016l.156-.031.188.828a1.86 1.86 0 0 1-.262.071 1.93 1.93 0 0 1-.426.039 1.86 1.86 0 0 1-.766-.168c-.25-.112-.453-.283-.617-.512s-.242-.518-.242-.867v-5.969zm5.355 7.578c-.38 0-.725-.072-1.035-.215a1.75 1.75 0 0 1-.738-.629c-.182-.274-.273-.609-.273-1 0-.343.068-.622.203-.836a1.43 1.43 0 0 1 .543-.507 2.85 2.85 0 0 1 .75-.274l.832-.148.887-.106c.229-.026.396-.069.5-.129s.16-.164.16-.312v-.031c0-.386-.105-.685-.316-.899s-.525-.32-.949-.32c-.44 0-.785.096-1.035.289s-.426.398-.527.617l-.875-.312a2.1 2.1 0 0 1 .625-.852c.26-.203.549-.349.859-.43s.62-.125.922-.125c.193 0 .414.024.664.071a2.11 2.11 0 0 1 .73.277c.237.141.434.353.59.637s.234.664.234 1.14v3.953h-.922v-.812h-.047a1.64 1.64 0 0 1-.312.418c-.145.149-.34.275-.582.379s-.538.156-.887.156zm.141-.828c.365 0 .672-.072.922-.215s.443-.328.57-.555a1.41 1.41 0 0 0 .195-.714v-.844c-.039.047-.125.09-.258.129a4.31 4.31 0 0 1-.453.097l-.496.071-.387.047c-.24.031-.464.082-.672.152a1.16 1.16 0 0 0-.5.309c-.128.139-.187.32-.187.554 0 .321.118.563.356.727s.543.242.91.242z" class="B"/><path d="M49.438 142.189h-2.469v-8h2.578c.776 0 1.44.161 1.992.481a3.15 3.15 0 0 1 1.27 1.371c.294.594.441 1.305.441 2.133s-.148 1.551-.445 2.152-.729 1.06-1.297 1.383-1.258.48-2.07.48zm-1.5-.859h1.438c.661 0 1.21-.128 1.645-.383s.759-.618.973-1.09.32-1.032.32-1.683-.105-1.202-.316-1.668-.526-.828-.945-1.078-.941-.379-1.566-.379h-1.547v6.281zm9.328.984c-.578 0-1.077-.127-1.496-.382s-.738-.618-.965-1.078-.336-1.003-.336-1.618.112-1.156.336-1.625a2.65 2.65 0 0 1 .945-1.101c.406-.266.88-.399 1.422-.399.313 0 .621.052.926.157s.582.273.832.507.449.539.598.922.223.854.223 1.414v.391h-4.625v-.797h3.688c0-.338-.068-.641-.203-.906a1.53 1.53 0 0 0-.57-.629c-.245-.154-.534-.231-.867-.231-.367 0-.685.092-.953.274a1.8 1.8 0 0 0-.613.703c-.143.289-.215.599-.215.93v.531c0 .453.078.837.234 1.152s.379.551.66.715.608.242.98.242c.242 0 .461-.034.656-.101s.368-.175.512-.313.254-.315.332-.523l.891.25c-.094.302-.251.568-.473.797s-.495.403-.82.531-.691.187-1.098.187zm8.61-6.125l-2.219 6h-.937l-2.219-6h1l1.656 4.782h.063l1.656-4.782h1zm1.217 6v-6h.922v6h-.922zm.469-7c-.18 0-.335-.061-.465-.183a.59.59 0 0 1-.191-.442.59.59 0 0 1 .191-.441c.13-.122.285-.184.465-.184s.333.062.461.184.195.27.195.441-.065.319-.195.442-.281.183-.461.183zm4.579 7.125c-.562 0-1.047-.132-1.453-.398s-.719-.631-.937-1.098-.328-.998-.328-1.597c0-.61.112-1.147.336-1.614s.542-.834.945-1.097.88-.399 1.422-.399c.422 0 .802.078 1.141.235s.616.375.832.656.35.609.402.984h-.922a1.43 1.43 0 0 0-.469-.726c-.24-.214-.562-.321-.969-.321-.359 0-.675.094-.945.282s-.478.446-.629.785-.223.73-.223 1.183c0 .464.073.868.219 1.211s.357.611.625.801.588.285.953.285c.24 0 .457-.041.652-.125s.361-.203.496-.359.232-.344.289-.563h.922a2.13 2.13 0 0 1-.387.957c-.203.282-.473.506-.809.672s-.721.246-1.164.246zm6.223 0c-.578 0-1.077-.127-1.496-.382s-.738-.618-.965-1.078-.336-1.003-.336-1.618.112-1.156.336-1.625a2.65 2.65 0 0 1 .945-1.101c.406-.266.88-.399 1.422-.399.313 0 .621.052.926.157s.582.273.832.507a2.43 2.43 0 0 1 .598.922c.148.383.223.854.223 1.414v.391h-4.625v-.797h3.688c0-.338-.068-.641-.203-.906a1.53 1.53 0 0 0-.57-.629c-.245-.154-.534-.231-.867-.231-.367 0-.685.092-.953.274a1.8 1.8 0 0 0-.613.703c-.143.289-.215.599-.215.93v.531c0 .453.078.837.234 1.152s.379.551.66.715.608.242.98.242c.242 0 .461-.034.656-.101s.369-.175.512-.313.254-.315.332-.523l.891.25c-.094.302-.251.568-.473.797s-.495.403-.82.531-.691.187-1.098.187zm9.574-.125h-2.469v-8h2.578c.776 0 1.44.161 1.992.481a3.15 3.15 0 0 1 1.269 1.371c.294.594.441 1.305.441 2.133s-.148 1.551-.445 2.152-.729 1.06-1.297 1.383-1.258.48-2.07.48zm-1.5-.859h1.438c.662 0 1.21-.128 1.644-.383s.759-.618.973-1.09.32-1.032.32-1.683-.106-1.202-.316-1.668-.526-.828-.945-1.078-.941-.379-1.566-.379h-1.547v6.281zm8.578 1a2.44 2.44 0 0 1-1.035-.215c-.31-.146-.556-.355-.738-.629s-.273-.609-.273-1c0-.343.068-.622.203-.836a1.43 1.43 0 0 1 .543-.507c.227-.123.477-.214.75-.274l.832-.148.887-.106c.229-.026.396-.069.5-.129s.16-.164.16-.312v-.031c0-.386-.106-.685-.317-.899s-.525-.32-.949-.32c-.44 0-.785.096-1.035.289s-.426.398-.527.617l-.875-.312c.156-.365.365-.649.625-.852s.549-.349.859-.43.62-.125.922-.125c.193 0 .414.024.664.071a2.11 2.11 0 0 1 .731.277c.237.141.434.353.59.637s.234.664.234 1.14v3.953h-.922v-.812h-.047c-.062.13-.167.269-.312.418s-.34.275-.582.379-.538.156-.887.156zm.141-.828c.365 0 .672-.072.922-.215s.443-.328.57-.555a1.41 1.41 0 0 0 .195-.714v-.844c-.039.047-.125.09-.258.129a4.31 4.31 0 0 1-.453.097l-.496.071-.387.047c-.24.031-.463.082-.672.152s-.372.17-.5.309-.187.32-.187.554c0 .321.118.563.355.727s.543.242.91.242zm6.902-5.313v.782h-3.11v-.782h3.11zm-2.204-1.437h.921v5.719c0 .26.038.455.114.586s.177.213.297.257a1.18 1.18 0 0 0 .386.063c.102 0 .185-.005.25-.016l.156-.031.188.828c-.063.024-.15.047-.262.071a1.93 1.93 0 0 1-.426.039c-.26 0-.515-.056-.765-.168a1.52 1.52 0 0 1-.617-.512c-.162-.229-.242-.518-.242-.867v-5.969zm5.355 7.578c-.38 0-.725-.072-1.035-.215a1.77 1.77 0 0 1-.738-.629c-.183-.276-.274-.609-.274-1 0-.343.068-.622.203-.836a1.44 1.44 0 0 1 .543-.507 2.85 2.85 0 0 1 .75-.274l.832-.148.887-.106c.229-.026.396-.069.5-.129s.16-.164.16-.312v-.031c0-.386-.105-.685-.316-.899s-.525-.32-.95-.32c-.44 0-.785.096-1.035.289s-.425.398-.527.617l-.875-.312a2.1 2.1 0 0 1 .625-.852 2.34 2.34 0 0 1 .859-.43c.313-.083.62-.125.922-.125.193 0 .414.024.664.071s.496.136.731.277.433.353.59.637.234.664.234 1.14v3.953h-.922v-.812h-.047c-.062.13-.166.269-.312.418s-.34.275-.582.379-.538.156-.887.156zm.141-.828c.364 0 .671-.072.921-.215a1.46 1.46 0 0 0 .571-.555 1.41 1.41 0 0 0 .195-.714v-.844c-.039.047-.125.09-.258.129a4.29 4.29 0 0 1-.453.097l-.496.071-.387.047a3.55 3.55 0 0 0-.672.152 1.16 1.16 0 0 0-.5.309c-.125.135-.187.32-.187.554 0 .321.118.563.355.727s.543.242.911.242z" class="C"/><g clip-path="url(#E)" class="D"><path d="M32.971 141.513l-2.839-2.839a4.56 4.56 0 0 0 1.037-2.898 4.59 4.59 0 0 0-4.583-4.584 4.59 4.59 0 0 0-4.583 4.584 4.59 4.59 0 0 0 4.583 4.583 4.56 4.56 0 0 0 2.898-1.037l2.839 2.839.648-.648zm-6.385-2.071a3.67 3.67 0 0 1-3.667-3.667 3.67 3.67 0 0 1 3.667-3.666 3.67 3.67 0 0 1 3.667 3.667 3.67 3.67 0 0 1-3.667 3.666h0zm1.831-3.211h.458v.917h-4.583v-.917h.458v-1.375h.917v1.375h.458v-2.75h.917v2.75h.458v-1.833h.917v1.833z"/></g><defs><filter id="A" x="10" y="12" width="228" height="64" filterUnits="userSpaceOnUse" class="G"><feFlood flood-opacity="0" result="A"/><feColorMatrix in="SourceAlpha" values="0 0 0 0 0 0 0 0 0 0 0 0 0 0 0 0 0 0 127 0" result="B"/><feMorphology radius="1" operator="dilate" in="SourceAlpha"/><feOffset dy="1"/><feGaussianBlur stdDeviation="2.5"/><feComposite in2="B" operator="out"/><feColorMatrix values="0 0 0 0 0 0 0 0 0 0 0 0 0 0 0 0 0 0 0.1 0"/><feBlend in2="A"/><feBlend in="SourceGraphic"/></filter><filter id="B" x="283.32" y="172.67" width="323.531" height="210.682" filterUnits="userSpaceOnUse" class="G"><feFlood flood-opacity="0" result="A"/><feColorMatrix in="SourceAlpha" values="0 0 0 0 0 0 0 0 0 0 0 0 0 0 0 0 0 0 127 0" result="B"/><feOffset dy="4"/><feGaussianBlur stdDeviation="5"/><feComposite in2="B" operator="out"/><feColorMatrix values="0 0 0 0 0 0 0 0 0 0 0 0 0 0 0 0 0 0 0.25 0"/><feBlend in2="A"/><feBlend in="SourceGraphic"/></filter><linearGradient id="C" x1="128" y1="0" x2="128" y2="533" gradientUnits="userSpaceOnUse"><stop stop-color="#2f67ff"/><stop offset="1" stop-color="#ff5f9b"/></linearGradient><linearGradient id="D" x1="232.679" y1="271.101" x2="293.32" y2="271.101" gradientUnits="userSpaceOnUse"><stop stop-color="#2f67ff"/><stop offset="1" stop-color="#c262b8"/></linearGradient><clipPath id="E"><path fill="#fff" transform="translate(22 131.189)" d="M0 0h11v11H0z"/></clipPath><path id="F" d="M36.371 57.525v.823"/><path id="G" d="M220.975 210.622l-.532-.5 3.135-2.925-3.135-2.925.532-.5 3.665 3.425-3.665 3.425z"/><path id="H" d="M220.883 377.06l-.563-.563 3.319-3.29-3.319-3.291.563-.562 3.881 3.853-3.881 3.853z"/></defs></svg>