<svg xmlns="http://www.w3.org/2000/svg" width="432" height="447" fill="none" xmlns:v="https://vecta.io/nano"><g stroke="#000"><g stroke-width=".9"><path d="M186.178 189.783v141.426c-.001 8.036-6.514 14.55-14.55 14.55H91.556c-8.036 0-14.55-6.514-14.55-14.55V189.783h109.172zm156.318 0v148.426a7.55 7.55 0 0 1-7.55 7.55h-6.074a7.55 7.55 0 0 1-7.55-7.55V189.783h21.174zM143.811 346.659v11.021a4.55 4.55 0 0 1-4.55 4.549h-14.339a5.55 5.55 0 0 1-5.55-5.549v-10.021h24.439z"/><path d="M336.594 345.812v11.353a4.22 4.22 0 0 1-4.218 4.217 5.15 5.15 0 0 1-5.15-5.151v-10.419h9.368z"/><use href="#B"/><use href="#C"/><path d="M98.54 189.747V59.193h8.116v130.554H98.54z"/><use href="#B" x="28.994"/><use href="#B" x="43.491"/><use href="#B" x="57.987"/><use href="#C" x="-171.832"/><use href="#C" x="-157.335"/></g><use href="#D"/><use href="#E"/><use href="#E" x="-229.819"/><use href="#E" x="-215.323"/><use href="#E" x="-200.826"/><use href="#E" x="-186.329"/><use href="#E" x="-171.833"/><use href="#E" x="-157.336"/><use href="#D"/><use href="#E"/><use href="#E" x="-229.819"/><use href="#E" x="-215.323"/><use href="#E" x="-200.826"/><use href="#E" x="-186.329"/><use href="#E" x="-171.833"/><use href="#E" x="-157.336"/></g><path d="M92.909.317v41.575M83.172.317v41.807" stroke="#d1d1d1" stroke-width=".6"/><g fill="#3c3b3b"><path d="M106.689 432.184v-1.676l4.938-7.802h1.397v2.387h-.852l-3.324 5.267v.091h6.892v1.733h-9.051zm5.551 2.159v-2.671l.023-.75v-8.216h1.989v11.637h-2.012zm9.361.159c-.758 0-1.436-.142-2.034-.426s-1.074-.682-1.426-1.182-.534-1.072-.557-1.716h2.045a1.61 1.61 0 0 0 .62 1.17c.375.3.826.449 1.352.449.413 0 .78-.094 1.102-.284a2.03 2.03 0 0 0 .762-.79 2.31 2.31 0 0 0 .272-1.153c.004-.439-.089-.829-.278-1.17a2.09 2.09 0 0 0-.778-.802c-.33-.197-.709-.295-1.137-.295-.348-.004-.691.061-1.028.193s-.604.307-.801.523l-1.904-.313.608-6h6.75v1.762h-5.005l-.336 3.085h.068c.216-.254.521-.464.915-.631a3.29 3.29 0 0 1 1.296-.255c.704 0 1.333.166 1.886.5s.989.784 1.307 1.363.477 1.243.477 1.989c0 .769-.178 1.454-.534 2.057a3.78 3.78 0 0 1-1.472 1.415c-.625.34-1.348.511-2.17.511zm10.071-.159v-8.727h1.966v1.482h.102c.182-.5.483-.89.904-1.17s.922-.426 1.505-.426c.591 0 1.089.144 1.495.432s.697.672.863 1.164h.091a2.39 2.39 0 0 1 .977-1.159c.463-.291 1.01-.437 1.643-.437.803 0 1.458.254 1.965.761s.762 1.248.762 2.222v5.858h-2.063v-5.54c0-.542-.144-.937-.432-1.187s-.64-.381-1.056-.381c-.497 0-.885.155-1.165.466s-.415.706-.415 1.199v5.443h-2.017v-5.625c0-.451-.136-.811-.409-1.08s-.621-.403-1.057-.403a1.5 1.5 0 0 0-.807.227c-.242.148-.435.358-.579.631s-.216.583-.216.943v5.307h-2.057zm14.359 0v-8.727h1.966v1.482h.103a2.31 2.31 0 0 1 .903-1.17c.42-.284.922-.426 1.506-.426.591 0 1.089.144 1.494.432a2.26 2.26 0 0 1 .864 1.164h.091a2.39 2.39 0 0 1 .977-1.159c.462-.291 1.009-.437 1.642-.437.803 0 1.458.254 1.966.761s.761 1.248.761 2.222v5.858h-2.062v-5.54c0-.542-.144-.937-.432-1.187a1.54 1.54 0 0 0-1.057-.381c-.496 0-.884.155-1.165.466s-.415.706-.415 1.199v5.443h-2.017v-5.625c0-.451-.136-.811-.409-1.08s-.621-.403-1.056-.403c-.296 0-.565.076-.807.227a1.61 1.61 0 0 0-.58.631c-.144.273-.216.583-.216.943v5.307h-2.057zM5.393 22.8c-.936 0-1.739-.237-2.409-.71s-1.18-1.165-1.54-2.062S.91 18.04.91 16.771s.184-2.348.54-3.239.873-1.576 1.54-2.046 1.472-.704 2.403-.704 1.733.235 2.403.704 1.184 1.152 1.54 2.046.54 1.973.54 3.239c0 1.273-.18 2.36-.54 3.261s-.869 1.583-1.54 2.057-1.468.71-2.403.71zm0-1.778c.727 0 1.301-.358 1.722-1.074s.636-1.778.636-3.176c0-.924-.097-1.701-.29-2.329s-.466-1.102-.818-1.421a1.79 1.79 0 0 0-1.25-.483c-.723 0-1.295.36-1.716 1.08s-.633 1.767-.636 3.153c-.004.928.089 1.708.278 2.341s.466 1.11.818 1.432a1.81 1.81 0 0 0 1.256.477zm10.547 1.716c-.818 0-1.545-.14-2.182-.42s-1.133-.671-1.5-1.171-.562-1.078-.585-1.733h2.136c.019.314.123.589.313.824s.441.411.756.54.667.193 1.057.193a2.69 2.69 0 0 0 1.108-.216 1.82 1.82 0 0 0 .756-.614c.182-.261.271-.562.267-.903a1.57 1.57 0 0 0-.273-.932c-.186-.269-.455-.479-.807-.631s-.769-.227-1.261-.227h-1.028v-1.625h1.028c.405 0 .759-.07 1.063-.21s.547-.337.722-.591.259-.555.256-.892a1.55 1.55 0 0 0-.222-.858c-.148-.246-.358-.437-.631-.574s-.585-.204-.949-.204a2.5 2.5 0 0 0-.989.193 1.8 1.8 0 0 0-.733.551c-.186.235-.284.515-.296.841h-2.028c.015-.651.203-1.223.563-1.716a3.63 3.63 0 0 1 1.454-1.159c.606-.28 1.286-.42 2.04-.42.776 0 1.451.146 2.023.438s1.021.676 1.335 1.165a2.93 2.93 0 0 1 .472 1.619c.004.655-.189 1.204-.58 1.648s-.894.733-1.523.869v.091c.818.114 1.445.417 1.881.909s.657 1.097.653 1.824a2.92 2.92 0 0 1-.557 1.75c-.367.511-.875.913-1.523 1.205s-1.383.438-2.216.438zm10.237-.159v-8.727h1.966v1.483h.102c.182-.5.483-.89.903-1.17s.922-.426 1.506-.426c.591 0 1.089.144 1.494.432s.697.672.864 1.165h.091c.193-.485.519-.871.977-1.159s1.009-.437 1.642-.437c.803 0 1.458.254 1.966.761s.761 1.248.761 2.222v5.858h-2.062v-5.54c0-.542-.144-.937-.432-1.187a1.54 1.54 0 0 0-1.057-.381c-.496 0-.884.155-1.165.466s-.415.706-.415 1.199v5.443h-2.017v-5.625c0-.451-.136-.811-.409-1.079s-.621-.403-1.057-.403a1.49 1.49 0 0 0-.807.227 1.58 1.58 0 0 0-.579.631 1.99 1.99 0 0 0-.216.943v5.307h-2.057zm14.359 0v-8.727h1.966v1.483h.102c.182-.5.483-.89.903-1.17s.922-.426 1.506-.426c.591 0 1.089.144 1.494.432s.697.672.864 1.165h.091c.193-.485.519-.871.977-1.159s1.009-.437 1.642-.437c.803 0 1.458.254 1.966.761s.761 1.248.761 2.222v5.858h-2.062v-5.54c0-.542-.144-.937-.432-1.187a1.54 1.54 0 0 0-1.057-.381c-.496 0-.885.155-1.165.466s-.415.706-.415 1.199v5.443H45.66v-5.625c0-.451-.136-.811-.409-1.079s-.621-.403-1.057-.403a1.49 1.49 0 0 0-.807.227 1.59 1.59 0 0 0-.58.631 1.97 1.97 0 0 0-.216.943v5.307h-2.057zM369.774 237.4v11.636h-2.108v-9.585h-.068l-2.722 1.739v-1.932l2.892-1.858h2.006zm7 11.795c-.758 0-1.436-.142-2.034-.426s-1.074-.682-1.426-1.182-.534-1.072-.557-1.716h2.045a1.61 1.61 0 0 0 .62 1.171 2.1 2.1 0 0 0 1.352.449c.413 0 .78-.095 1.102-.284a2.04 2.04 0 0 0 .762-.79c.186-.337.276-.722.272-1.154.004-.439-.089-.829-.278-1.17s-.449-.608-.779-.801a2.21 2.21 0 0 0-1.136-.296c-.348-.003-.691.061-1.028.194s-.605.306-.801.522l-1.904-.312.608-6h6.75v1.761h-5.006l-.335 3.085h.068c.216-.253.521-.464.915-.63a3.22 3.22 0 0 1 1.296-.256c.704 0 1.333.167 1.886.5s.989.784 1.307 1.364.477 1.242.477 1.988c0 .769-.178 1.455-.534 2.057a3.78 3.78 0 0 1-1.472 1.415c-.629.345-1.348.511-2.17.511zm10.071-.159v-8.727h1.966v1.483h.102c.182-.5.483-.89.903-1.171s.923-.426 1.506-.426c.591 0 1.089.144 1.494.432s.697.672.864 1.165h.091c.193-.485.519-.871.977-1.159s1.01-.438 1.642-.438c.803 0 1.459.254 1.966.762s.762 1.248.762 2.221v5.858h-2.063v-5.54c0-.541-.144-.937-.432-1.187a1.54 1.54 0 0 0-1.057-.381c-.496 0-.884.155-1.164.466s-.415.707-.415 1.199v5.443h-2.017v-5.625c0-.451-.136-.81-.409-1.079s-.621-.404-1.057-.404a1.5 1.5 0 0 0-.807.227c-.242.148-.435.358-.579.631s-.216.583-.216.943v5.307h-2.057zm14.359 0v-8.727h1.966v1.483h.102c.182-.5.483-.89.904-1.171s.922-.426 1.506-.426c.59 0 1.089.144 1.494.432s.697.672.864 1.165h.09c.194-.485.519-.871.978-1.159s1.009-.438 1.642-.438c.803 0 1.458.254 1.966.762s.761 1.248.761 2.221v5.858h-2.062v-5.54c0-.541-.144-.937-.432-1.187a1.54 1.54 0 0 0-1.057-.381c-.496 0-.885.155-1.165.466s-.415.707-.415 1.199v5.443h-2.017v-5.625c0-.451-.136-.81-.409-1.079s-.621-.404-1.057-.404c-.295 0-.564.076-.806.227a1.61 1.61 0 0 0-.58.631c-.144.273-.216.583-.216.943v5.307h-2.057zm-167.21-19.241l9.796 4.949h.079v-5.745h1.762v7.926h-1.802l-9.835-4.943v-2.187zm0 8.964h1.523l3.96 4.04 1.04.966c.303.257.596.451.881.579a2.19 2.19 0 0 0 .909.194c.367 0 .681-.084.943-.25a1.67 1.67 0 0 0 .613-.688 2.23 2.23 0 0 0 .216-.994c0-.383-.079-.718-.238-1.006a1.66 1.66 0 0 0-.665-.67c-.288-.159-.631-.233-1.028-.233v-2.006c.738 0 1.38.169 1.926.506a3.42 3.42 0 0 1 1.267 1.392c.299.594.449 1.276.449 2.045 0 .78-.146 1.466-.438 2.057s-.691 1.049-1.199 1.375a3.15 3.15 0 0 1-1.738.494c-.436 0-.864-.083-1.284-.25s-.887-.46-1.398-.88-1.131-1.002-1.858-1.756l-2.04-2.006h-.079v5.068h-1.762v-7.977zm0 13.929h8.727v1.966h-1.483v.102c.5.182.891.483 1.171.904s.426.922.426 1.505c0 .591-.144 1.089-.432 1.495a2.25 2.25 0 0 1-1.165.863v.091c.485.193.872.519 1.16.978s.437 1.009.437 1.642c0 .803-.254 1.458-.761 1.966s-1.248.761-2.222.761h-5.858v-2.063h5.54c.542 0 .937-.144 1.187-.431a1.56 1.56 0 0 0 .381-1.057c0-.496-.155-.885-.466-1.165s-.706-.415-1.199-.415h-5.443v-2.017h5.625c.451 0 .811-.136 1.08-.409s.403-.621.403-1.057a1.5 1.5 0 0 0-.227-.807c-.148-.242-.358-.435-.631-.579s-.583-.216-.943-.216h-5.307v-2.057zm0 14.36h8.727v1.965h-1.483v.103c.5.182.891.483 1.171.903s.426.922.426 1.506c0 .591-.144 1.089-.432 1.494s-.672.697-1.165.864v.091c.485.193.872.519 1.16.977s.437 1.009.437 1.642c0 .803-.254 1.458-.761 1.966s-1.248.761-2.222.761h-5.858v-2.062h5.54c.542 0 .937-.144 1.187-.432a1.54 1.54 0 0 0 .381-1.057c0-.496-.155-.884-.466-1.165s-.706-.414-1.199-.414h-5.443v-2.017h5.625c.451 0 .811-.137 1.08-.41.269-.268.403-.621.403-1.056 0-.296-.076-.565-.227-.807a1.61 1.61 0 0 0-.631-.58c-.273-.144-.583-.216-.943-.216h-5.307v-2.056z"/><path d="M233.994 99.08l9.796 4.949h.079v-5.744h1.762v7.926h-1.802l-9.835-4.943V99.08zm-.221 13.016c0-.936.236-1.739.71-2.409s1.165-1.18 2.062-1.54c.902-.356 1.987-.534 3.256-.534s2.348.184 3.239.54 1.575.873 2.045 1.54.705 1.471.705 2.403-.235 1.733-.705 2.403-1.151 1.184-2.045 1.54-1.974.54-3.239.54c-1.273 0-2.36-.18-3.261-.54s-1.584-.869-2.057-1.54c-.474-.666-.71-1.467-.71-2.403zm1.778 0c0 .727.358 1.301 1.074 1.722s1.778.636 3.176.636c.924 0 1.701-.097 2.33-.29s1.102-.466 1.42-.818a1.79 1.79 0 0 0 .483-1.25c0-.724-.36-1.295-1.08-1.716s-1.767-.633-3.153-.636c-.928-.004-1.708.089-2.341.278s-1.11.466-1.432.818a1.81 1.81 0 0 0-.477 1.256zm-1.557 10.362h8.727v1.966h-1.483v.102c.5.182.891.483 1.171.904s.426.922.426 1.505c0 .591-.144 1.089-.432 1.495a2.25 2.25 0 0 1-1.165.863v.091a2.39 2.39 0 0 1 1.16.978c.291.462.437 1.009.437 1.642 0 .803-.254 1.458-.761 1.966s-1.248.761-2.222.761h-5.858v-2.063h5.54c.542 0 .937-.144 1.187-.431s.381-.641.381-1.057c0-.496-.155-.885-.466-1.165s-.706-.415-1.199-.415h-5.443v-2.017h5.625c.451 0 .811-.136 1.08-.409s.403-.621.403-1.057a1.5 1.5 0 0 0-.227-.807c-.148-.242-.358-.435-.631-.579s-.583-.216-.943-.216h-5.307v-2.057zm0 14.36h8.727v1.965h-1.483v.103c.5.182.891.483 1.171.903s.426.922.426 1.506c0 .591-.144 1.089-.432 1.494s-.672.697-1.165.864v.091c.485.193.872.519 1.16.977s.437 1.009.437 1.642c0 .803-.254 1.458-.761 1.966s-1.248.761-2.222.761h-5.858v-2.062h5.54c.542 0 .937-.144 1.187-.432a1.54 1.54 0 0 0 .381-1.057c0-.496-.155-.884-.466-1.165-.307-.276-.706-.414-1.199-.414h-5.443v-2.017h5.625c.451 0 .811-.137 1.08-.41.269-.268.403-.621.403-1.056 0-.296-.076-.565-.227-.807s-.358-.436-.631-.58-.583-.216-.943-.216h-5.307v-2.056z"/></g><g stroke="#d1d1d1" stroke-width=".6"><path d="M76.774 417.679v29.126m173.884-256.308h-57.483m57.483-144.845h-29.126m-34.604 372.027v29.126m62.066-101.143h-67.988"/><path d="M95.423 432.542H76.474m6.398-413.603H63.923m256.949 241.995h-18.949M111.865 18.939H92.916m321.591 241.995h-71.561m-107.151-42.303v-28.434m0-101.006V45.352m-49.167 387.19h-20.735m69.902-87.18v-53.251m0-100.855v-19.585"/></g><defs ><path id="B" d="M84.043 189.747V59.193h8.116v130.554h-8.116z"/><path id="C" d="M328.359 189.747V59.193h8.117v130.554h-8.117z"/><path id="D" d="M91.934 58.234H84.27l3.832-11.323 3.832 11.323z"/><path id="E" d="M336.25 58.234h-7.664l3.832-11.323 3.832 11.323z"/></defs></svg>