<svg width="407" height="541" viewBox="0 0 407 541" fill="none" xmlns="http://www.w3.org/2000/svg">
<rect x="0.75" y="0.478027" width="255.5" height="532.5" rx="9.75" fill="white" stroke="url(#paint0_linear_370_2855)" stroke-width="0.5"/>
<path d="M253.797 493.497C253.797 491.435 252.125 489.764 250.063 489.764C248.002 489.764 246.33 491.435 246.33 493.497C246.33 495.559 248.002 497.23 250.063 497.23C252.125 497.23 253.797 495.559 253.797 493.497ZM306.704 493.497L306.704 492.797L250.063 492.797L250.063 493.497L250.063 494.197L306.704 494.197L306.704 493.497Z" fill="url(#paint1_linear_370_2855)"/>
<path d="M253.797 139.483C253.797 137.422 252.125 135.75 250.063 135.75C248.002 135.75 246.33 137.422 246.33 139.483C246.33 141.545 248.002 143.217 250.063 143.217C252.125 143.217 253.797 141.545 253.797 139.483ZM311.666 139.483V138.783H250.063V139.483V140.183H311.666V139.483Z" fill="url(#paint2_linear_370_2855)"/>
<path d="M253.797 183.486C253.797 181.424 252.125 179.753 250.063 179.753C248.002 179.753 246.33 181.424 246.33 183.486C246.33 185.548 248.002 187.22 250.063 187.22C252.125 187.22 253.797 185.548 253.797 183.486ZM313.896 183.486V182.786H250.063V183.486V184.186H313.896V183.486Z" fill="url(#paint3_linear_370_2855)"/>
<g filter="url(#filter0_d_370_2855)">
<rect x="17.5" y="21.728" width="216" height="52" rx="10" fill="white"/>
</g>
<path fill-rule="evenodd" clip-rule="evenodd" d="M33.0101 35.7281H43.6737C43.9542 35.7281 44.1837 35.9576 44.1837 36.238V58.202C43.7774 59.4438 43.3711 60.6856 42.9649 61.9274C42.8968 62.0656 42.75 62.1333 42.5444 62.1483C42.4843 62.1798 42.4243 62.2114 42.3643 62.2429L38.4955 62.2599C37.1489 62.2549 35.8023 62.2499 34.4557 62.2449C34.4049 62.2183 34.4134 62.1971 34.3568 62.1923C34.0159 62.1635 33.8655 62.0588 33.8196 61.9186L32.5 58.1639V53.9796V36.238C32.5 35.9575 32.7295 35.728 33.0101 35.728V35.7281Z" stroke="#5A5C66" stroke-width="0.5" stroke-miterlimit="22.9256"/>
<path fill-rule="evenodd" clip-rule="evenodd" d="M33.3145 35.728L35.3902 36.7761L41.3673 36.7815L43.443 35.728L41.6933 37.0532C41.6933 37.0532 41.4217 37.314 41.0495 37.2895H35.8629C35.8629 37.2895 35.4309 37.3683 35.0397 36.9961L33.3145 35.728Z" stroke="#5A5C66" stroke-width="0.5" stroke-miterlimit="22.9256" stroke-linejoin="round"/>
<path d="M34.6309 37.8061L42.2345 37.8081L43.9973 35.8447" stroke="#5A5C66" stroke-width="0.5" stroke-miterlimit="22.9256"/>
<path d="M34.1646 38.1593C34.1646 38.0941 32.5 36.4097 32.5 36.4097" stroke="#5A5C66" stroke-width="0.5" stroke-miterlimit="22.9256"/>
<path d="M34.6579 37.8327L32.6777 35.8525" stroke="#5A5C66" stroke-width="0.5" stroke-miterlimit="22.9256"/>
<path d="M42.6807 38.1593C42.6807 38.0941 44.1832 36.4097 44.1832 36.4097" stroke="#5A5C66" stroke-width="0.5" stroke-miterlimit="22.9256"/>
<path d="M34.162 58.2024V38.2413C34.162 38.2413 34.0805 37.8062 34.6728 37.8062" stroke="#5A5C66" stroke-width="0.5" stroke-miterlimit="22.9256"/>
<path d="M42.6768 58.2024V38.2413C42.6768 38.2413 42.7583 37.8062 42.166 37.8062" stroke="#5A5C66" stroke-width="0.5" stroke-miterlimit="22.9256"/>
<path d="M32.5001 54.037L34.1618 58.1175C34.1618 58.1175 34.173 58.3076 34.7761 58.3593C35.3793 58.4109 42.1334 58.3593 42.1334 58.3593C42.1334 58.3593 42.6143 58.3647 42.7258 58.0658L44.1575 54.0176V54.1697L42.7665 58.1077C42.7665 58.1077 42.7257 58.4351 42.2991 58.4595C41.8726 58.4839 34.9365 58.4853 34.9365 58.4853C34.9365 58.4853 34.1609 58.5613 34.0848 58.1076L32.5 54.0768" stroke="#5A5C66" stroke-width="0.5" stroke-miterlimit="22.9256"/>
<path d="M34.3896 62.1992L35.9626 59.7328C36.0085 59.6466 36.0964 59.556 36.1708 59.497C36.3724 59.3372 36.6211 59.2687 36.8774 59.2652H39.8638C39.9728 59.2567 40.111 59.276 40.2148 59.3017C40.4728 59.3658 40.6964 59.505 40.8632 59.7131L40.8669 59.7177L42.4607 62.1926M40.0363 62.7374H40.0109M36.7927 62.7349H36.7559" stroke="#5A5C66" stroke-width="0.5" stroke-miterlimit="22.9256"/>
<path d="M34.4971 62.2452L36.0625 59.7905C36.0625 59.7905 36.269 59.3883 36.8776 59.3802H39.8688C39.8688 59.3802 40.4122 59.334 40.7736 59.785L42.3566 62.2431M40.1218 62.6221H40.1168M36.6778 62.6193H36.6637" stroke="#5A5C66" stroke-width="0.5" stroke-miterlimit="22.9256"/>
<path d="M34.1616 58.2021L33.8057 61.8796" stroke="#5A5C66" stroke-width="0.5" stroke-miterlimit="22.9256"/>
<path d="M34.6902 58.4897L34.4102 62.2116" stroke="#5A5C66" stroke-width="0.5" stroke-miterlimit="22.9256"/>
<path d="M42.6768 58.1543L43.0089 61.7938" stroke="#5A5C66" stroke-width="0.5" stroke-miterlimit="22.9256"/>
<path d="M42.2412 58.4619L42.5325 62.1549" stroke="#5A5C66" stroke-width="0.5" stroke-miterlimit="22.9256"/>
<path d="M34.6309 37.8062L34.6858 58.4858" stroke="#5A5C66" stroke-width="0.5" stroke-miterlimit="22.9256"/>
<path d="M42.2567 37.8301L42.2412 58.462" stroke="#5A5C66" stroke-width="0.5" stroke-miterlimit="22.9256"/>
<path fill-rule="evenodd" clip-rule="evenodd" d="M36.8946 62.2515H36.5918V62.4592C36.6395 62.6001 36.7246 62.7249 36.8732 62.8276C36.9445 63.2716 37.2434 63.5858 38.3931 63.6057C39.5276 63.6253 39.8337 63.2952 39.91 62.8496C40.1312 62.6938 40.2127 62.4848 40.24 62.2515H39.8915H36.8946Z" stroke="#5A5C66" stroke-width="0.5" stroke-miterlimit="22.9256"/>
<path d="M37.6924 62.2573C37.6924 62.2939 37.6924 63.0567 37.6924 63.0567" stroke="#5A5C66" stroke-width="0.5" stroke-miterlimit="22.9256"/>
<path d="M37.8721 62.2529V63.0761" stroke="#5A5C66" stroke-width="0.5" stroke-miterlimit="22.9256"/>
<path d="M38.0811 62.2529V63.0761" stroke="#5A5C66" stroke-width="0.5" stroke-miterlimit="22.9256"/>
<path d="M38.29 62.2529V63.0761" stroke="#5A5C66" stroke-width="0.5" stroke-miterlimit="22.9256"/>
<path d="M38.5 62.2529V63.0761" stroke="#5A5C66" stroke-width="0.5" stroke-miterlimit="22.9256"/>
<path d="M38.709 62.2529V63.0761" stroke="#5A5C66" stroke-width="0.5" stroke-miterlimit="22.9256"/>
<path d="M38.918 62.2529V63.0761" stroke="#5A5C66" stroke-width="0.5" stroke-miterlimit="22.9256"/>
<path d="M39.127 62.2529V63.0761" stroke="#5A5C66" stroke-width="0.5" stroke-miterlimit="22.9256"/>
<path d="M40.2576 62.2524C40.1872 62.7317 39.8475 63.0966 38.3927 63.076C36.9414 63.0554 36.5999 62.7205 36.5283 62.2529" stroke="#5A5C66" stroke-width="0.5" stroke-miterlimit="22.9256"/>
<path d="M157.233 48.728H156.352C156.3 48.4747 156.209 48.2522 156.079 48.0604C155.951 47.8687 155.795 47.7077 155.61 47.5775C155.428 47.4449 155.225 47.3455 155.003 47.2792C154.78 47.2129 154.548 47.1797 154.307 47.1797C153.866 47.1797 153.468 47.291 153.11 47.5135C152.755 47.7361 152.472 48.064 152.261 48.4972C152.053 48.9304 151.949 49.4619 151.949 50.0917C151.949 50.7214 152.053 51.2529 152.261 51.6861C152.472 52.1194 152.755 52.4473 153.11 52.6698C153.468 52.8923 153.866 53.0036 154.307 53.0036C154.548 53.0036 154.78 52.9705 155.003 52.9042C155.225 52.8379 155.428 52.7396 155.61 52.6094C155.795 52.4768 155.951 52.3147 156.079 52.1229C156.209 51.9288 156.3 51.7062 156.352 51.4553H157.233C157.167 51.827 157.046 52.1596 156.871 52.4532C156.696 52.7467 156.478 52.9965 156.217 53.2025C155.957 53.4061 155.665 53.5611 155.34 53.6677C155.018 53.7742 154.674 53.8275 154.307 53.8275C153.687 53.8275 153.135 53.6759 152.652 53.3729C152.169 53.0699 151.789 52.639 151.512 52.0803C151.235 51.5216 151.097 50.8587 151.097 50.0917C151.097 49.3246 151.235 48.6617 151.512 48.103C151.789 47.5443 152.169 47.1134 152.652 46.8104C153.135 46.5074 153.687 46.3559 154.307 46.3559C154.674 46.3559 155.018 46.4091 155.34 46.5157C155.665 46.6222 155.957 46.7785 156.217 46.9844C156.478 47.188 156.696 47.4366 156.871 47.7302C157.046 48.0214 157.167 48.354 157.233 48.728ZM160.758 53.8417C160.266 53.8417 159.834 53.7245 159.462 53.4901C159.093 53.2557 158.804 52.9278 158.596 52.5064C158.39 52.085 158.287 51.5926 158.287 51.0292C158.287 50.461 158.39 49.965 158.596 49.5412C158.804 49.1175 159.093 48.7884 159.462 48.554C159.834 48.3196 160.266 48.2025 160.758 48.2025C161.251 48.2025 161.682 48.3196 162.051 48.554C162.423 48.7884 162.711 49.1175 162.917 49.5412C163.126 49.965 163.23 50.461 163.23 51.0292C163.23 51.5926 163.126 52.085 162.917 52.5064C162.711 52.9278 162.423 53.2557 162.051 53.4901C161.682 53.7245 161.251 53.8417 160.758 53.8417ZM160.758 53.0888C161.132 53.0888 161.44 52.9929 161.682 52.8012C161.923 52.6094 162.102 52.3573 162.218 52.0448C162.334 51.7323 162.392 51.3937 162.392 51.0292C162.392 50.6646 162.334 50.3249 162.218 50.01C162.102 49.6951 161.923 49.4406 161.682 49.2465C161.44 49.0524 161.132 48.9553 160.758 48.9553C160.384 48.9553 160.077 49.0524 159.835 49.2465C159.594 49.4406 159.415 49.6951 159.299 50.01C159.183 50.3249 159.125 50.6646 159.125 51.0292C159.125 51.3937 159.183 51.7323 159.299 52.0448C159.415 52.3573 159.594 52.6094 159.835 52.8012C160.077 52.9929 160.384 53.0888 160.758 53.0888ZM165.347 50.4468V53.728H164.509V48.2735H165.319V49.1258H165.39C165.518 48.8488 165.712 48.6262 165.972 48.4581C166.233 48.2877 166.569 48.2025 166.981 48.2025C167.35 48.2025 167.673 48.2782 167.95 48.4297C168.227 48.5789 168.443 48.8062 168.597 49.1115C168.75 49.4146 168.827 49.7981 168.827 50.2621V53.728H167.989V50.3189C167.989 49.8904 167.878 49.5566 167.656 49.3175C167.433 49.076 167.128 48.9553 166.739 48.9553C166.472 48.9553 166.233 49.0133 166.022 49.1293C165.814 49.2453 165.649 49.4146 165.528 49.6371C165.408 49.8597 165.347 50.1295 165.347 50.4468ZM171.197 50.4468V53.728H170.359V48.2735H171.169V49.1258H171.24C171.367 48.8488 171.561 48.6262 171.822 48.4581C172.082 48.2877 172.419 48.2025 172.83 48.2025C173.2 48.2025 173.523 48.2782 173.8 48.4297C174.077 48.5789 174.292 48.8062 174.446 49.1115C174.6 49.4146 174.677 49.7981 174.677 50.2621V53.728H173.839V50.3189C173.839 49.8904 173.728 49.5566 173.505 49.3175C173.283 49.076 172.977 48.9553 172.589 48.9553C172.321 48.9553 172.082 49.0133 171.872 49.1293C171.663 49.2453 171.499 49.4146 171.378 49.6371C171.257 49.8597 171.197 50.1295 171.197 50.4468ZM178.495 53.8417C177.97 53.8417 177.516 53.7257 177.135 53.4937C176.757 53.2593 176.464 52.9326 176.258 52.5135C176.055 52.0921 175.953 51.6021 175.953 51.0434C175.953 50.4847 176.055 49.9922 176.258 49.5661C176.464 49.1376 176.751 48.8038 177.118 48.5647C177.487 48.3232 177.918 48.2025 178.41 48.2025C178.694 48.2025 178.975 48.2498 179.252 48.3445C179.529 48.4392 179.781 48.5931 180.008 48.8062C180.235 49.0169 180.417 49.2962 180.551 49.6442C180.686 49.9922 180.754 50.4207 180.754 50.9297V51.2848H176.549V50.5604H179.902C179.902 50.2526 179.84 49.978 179.717 49.7365C179.596 49.4951 179.423 49.3045 179.199 49.1648C178.976 49.0251 178.713 48.9553 178.41 48.9553C178.076 48.9553 177.788 49.0382 177.544 49.2039C177.302 49.3672 177.116 49.5803 176.986 49.8431C176.856 50.1059 176.791 50.3876 176.791 50.6883V51.1712C176.791 51.5831 176.862 51.9323 177.004 52.2188C177.148 52.5029 177.348 52.7195 177.604 52.8687C177.86 53.0154 178.157 53.0888 178.495 53.0888C178.716 53.0888 178.914 53.058 179.092 52.9965C179.272 52.9326 179.427 52.8379 179.557 52.7124C179.687 52.5846 179.788 52.4259 179.859 52.2366L180.669 52.4638C180.583 52.7384 180.44 52.9799 180.239 53.1883C180.038 53.3942 179.789 53.5552 179.493 53.6712C179.197 53.7848 178.865 53.8417 178.495 53.8417ZM184.245 53.8417C183.733 53.8417 183.293 53.7209 182.924 53.4794C182.554 53.238 182.27 52.9053 182.071 52.4816C181.873 52.0578 181.773 51.5737 181.773 51.0292C181.773 50.4752 181.875 49.9863 182.078 49.5625C182.284 49.1364 182.571 48.8038 182.938 48.5647C183.307 48.3232 183.738 48.2025 184.23 48.2025C184.614 48.2025 184.96 48.2735 185.267 48.4155C185.575 48.5576 185.827 48.7564 186.024 49.0121C186.22 49.2678 186.342 49.5661 186.39 49.907H185.551C185.488 49.6584 185.346 49.4383 185.125 49.2465C184.908 49.0524 184.614 48.9553 184.245 48.9553C183.918 48.9553 183.632 49.0405 183.385 49.211C183.141 49.3791 182.951 49.617 182.814 49.9248C182.679 50.2302 182.611 50.5888 182.611 51.0008C182.611 51.4222 182.677 51.7891 182.81 52.1016C182.945 52.4141 183.134 52.6568 183.378 52.8296C183.624 53.0024 183.913 53.0888 184.245 53.0888C184.462 53.0888 184.66 53.0509 184.838 52.9752C185.015 52.8994 185.166 52.7905 185.289 52.6485C185.412 52.5064 185.499 52.336 185.551 52.1371H186.39C186.342 52.4591 186.225 52.7491 186.038 53.0071C185.853 53.2628 185.608 53.4664 185.303 53.6179C185 53.7671 184.647 53.8417 184.245 53.8417ZM189.987 48.2735V48.9837H187.16V48.2735H189.987ZM187.984 46.9667H188.822V52.1655C188.822 52.4023 188.856 52.5798 188.925 52.6982C188.996 52.8142 189.086 52.8923 189.195 52.9326C189.306 52.9705 189.423 52.9894 189.547 52.9894C189.639 52.9894 189.715 52.9847 189.774 52.9752C189.833 52.9633 189.88 52.9539 189.916 52.9468L190.086 53.6996C190.029 53.7209 189.95 53.7422 189.848 53.7635C189.747 53.7872 189.618 53.7991 189.461 53.7991C189.225 53.7991 188.993 53.7482 188.765 53.6464C188.54 53.5446 188.353 53.3895 188.204 53.1812C188.057 52.9728 187.984 52.71 187.984 52.3928V46.9667ZM193.476 53.8417C192.95 53.8417 192.497 53.7257 192.116 53.4937C191.737 53.2593 191.445 52.9326 191.239 52.5135C191.035 52.0921 190.933 51.6021 190.933 51.0434C190.933 50.4847 191.035 49.9922 191.239 49.5661C191.445 49.1376 191.731 48.8038 192.098 48.5647C192.467 48.3232 192.898 48.2025 193.391 48.2025C193.675 48.2025 193.955 48.2498 194.232 48.3445C194.509 48.4392 194.761 48.5931 194.989 48.8062C195.216 49.0169 195.397 49.2962 195.532 49.6442C195.667 49.9922 195.734 50.4207 195.734 50.9297V51.2848H191.53V50.5604H194.882C194.882 50.2526 194.821 49.978 194.697 49.7365C194.577 49.4951 194.404 49.3045 194.179 49.1648C193.956 49.0251 193.694 48.9553 193.391 48.9553C193.057 48.9553 192.768 49.0382 192.524 49.2039C192.283 49.3672 192.097 49.5803 191.967 49.8431C191.836 50.1059 191.771 50.3876 191.771 50.6883V51.1712C191.771 51.5831 191.842 51.9323 191.984 52.2188C192.129 52.5029 192.329 52.7195 192.585 52.8687C192.84 53.0154 193.137 53.0888 193.476 53.0888C193.696 53.0888 193.895 53.058 194.072 52.9965C194.252 52.9326 194.407 52.8379 194.538 52.7124C194.668 52.5846 194.768 52.4259 194.839 52.2366L195.649 52.4638C195.564 52.7384 195.421 52.9799 195.219 53.1883C195.018 53.3942 194.77 53.5552 194.474 53.6712C194.178 53.7848 193.845 53.8417 193.476 53.8417ZM199.069 53.8417C198.614 53.8417 198.213 53.7268 197.865 53.4972C197.517 53.2652 197.245 52.9385 197.048 52.5171C196.852 52.0933 196.754 51.5926 196.754 51.015C196.754 50.442 196.852 49.9449 197.048 49.5235C197.245 49.1021 197.518 48.7766 197.869 48.5469C198.219 48.3173 198.624 48.2025 199.083 48.2025C199.438 48.2025 199.719 48.2616 199.925 48.38C200.133 48.496 200.292 48.6286 200.401 48.7777C200.512 48.9245 200.598 49.0453 200.66 49.14H200.731V46.4553H201.569V53.728H200.759V52.89H200.66C200.598 52.9894 200.511 53.1149 200.397 53.2664C200.283 53.4155 200.121 53.5493 199.911 53.6677C199.7 53.7837 199.419 53.8417 199.069 53.8417ZM199.183 53.0888C199.519 53.0888 199.803 53.0012 200.035 52.826C200.267 52.6485 200.443 52.4035 200.564 52.091C200.685 51.7761 200.745 51.4127 200.745 51.0008C200.745 50.5936 200.686 50.2373 200.567 49.9319C200.449 49.6241 200.274 49.385 200.042 49.2145C199.81 49.0417 199.523 48.9553 199.183 48.9553C198.827 48.9553 198.531 49.0464 198.295 49.2287C198.06 49.4087 197.884 49.6537 197.766 49.9638C197.65 50.2716 197.592 50.6172 197.592 51.0008C197.592 51.389 197.651 51.7418 197.769 52.059C197.89 52.3739 198.067 52.6248 198.302 52.8118C198.539 52.9965 198.832 53.0888 199.183 53.0888Z" fill="#B8B8B8"/>
<path d="M58.299 45.4553H59.6307L61.946 51.1087H62.0312L64.3466 45.4553H65.6783V52.728H64.6342V47.4652H64.5668L62.4219 52.7174H61.5554L59.4105 47.4617H59.343V52.728H58.299V45.4553ZM68.0371 45.4553L69.7772 48.2998H69.834L71.574 45.4553H72.8453L70.5797 49.0917L72.8596 52.728H71.5811L69.834 49.9226H69.7772L68.03 52.728H66.7516L69.0705 49.0917L66.7658 45.4553H68.0371ZM73.6816 51.3076V50.4198L76.8244 45.4553H77.524V46.7621H77.0801L74.8322 50.3204V50.3772H79.1397V51.3076H73.6816ZM77.1298 52.728V51.0377L77.1369 50.6329V45.4553H78.1774V52.728H77.1298ZM82.9093 52.8275C82.4216 52.8275 81.986 52.7434 81.6025 52.5753C81.2213 52.4072 80.9194 52.1741 80.6969 51.8758C80.4767 51.5751 80.3584 51.2271 80.3418 50.8317H81.4569C81.4711 51.0472 81.5433 51.2342 81.6735 51.3928C81.806 51.5491 81.9789 51.6698 82.1919 51.755C82.405 51.8402 82.6417 51.8829 82.9022 51.8829C83.1886 51.8829 83.4419 51.8331 83.6621 51.7337C83.8846 51.6343 84.0587 51.4958 84.1841 51.3182C84.3096 51.1383 84.3723 50.9312 84.3723 50.6968C84.3723 50.4529 84.3096 50.2387 84.1841 50.054C84.061 49.867 83.8799 49.7202 83.6408 49.6137C83.4041 49.5071 83.1176 49.4539 82.7814 49.4539H82.1671V48.559H82.7814C83.0513 48.559 83.2881 48.5105 83.4917 48.4134C83.6976 48.3163 83.8586 48.1814 83.9746 48.0086C84.0906 47.8334 84.1486 47.6286 84.1486 47.3942C84.1486 47.1693 84.0977 46.974 83.9959 46.8083C83.8965 46.6402 83.7544 46.5088 83.5698 46.4141C83.3875 46.3194 83.1721 46.2721 82.9235 46.2721C82.6867 46.2721 82.4654 46.3159 82.2594 46.4035C82.0558 46.4887 81.8901 46.6118 81.7623 46.7728C81.6344 46.9314 81.5658 47.122 81.5563 47.3445H80.4945C80.5063 46.9515 80.6223 46.6059 80.8425 46.3076C81.065 46.0093 81.3586 45.7761 81.7232 45.608C82.0878 45.4399 82.4926 45.3559 82.9377 45.3559C83.4041 45.3559 83.8065 45.447 84.1451 45.6293C84.486 45.8092 84.7488 46.0495 84.9334 46.3502C85.1204 46.6508 85.2128 46.9799 85.2104 47.3374C85.2128 47.7446 85.0991 48.0902 84.8695 48.3743C84.6422 48.6584 84.3392 48.849 83.9604 48.9461V49.0029C84.4434 49.0763 84.8174 49.268 85.0826 49.5782C85.3501 49.8883 85.4827 50.273 85.4803 50.7323C85.4827 51.1324 85.3714 51.491 85.1465 51.8083C84.9239 52.1255 84.6197 52.3753 84.2338 52.5576C83.848 52.7375 83.4064 52.8275 82.9093 52.8275ZM86.6699 51.3076V50.4198L89.8127 45.4553H90.5123V46.7621H90.0684L87.8205 50.3204V50.3772H92.128V51.3076H86.6699ZM90.1181 52.728V51.0377L90.1252 50.6329V45.4553H91.1657V52.728H90.1181ZM95.8975 52.8275C95.4099 52.8275 94.9743 52.7434 94.5907 52.5753C94.2096 52.4072 93.9077 52.1741 93.6852 51.8758C93.465 51.5751 93.3467 51.2271 93.3301 50.8317H94.4451C94.4593 51.0472 94.5315 51.2342 94.6618 51.3928C94.7943 51.5491 94.9672 51.6698 95.1802 51.755C95.3933 51.8402 95.63 51.8829 95.8904 51.8829C96.1769 51.8829 96.4302 51.8331 96.6504 51.7337C96.8729 51.6343 97.0469 51.4958 97.1724 51.3182C97.2979 51.1383 97.3606 50.9312 97.3606 50.6968C97.3606 50.4529 97.2979 50.2387 97.1724 50.054C97.0493 49.867 96.8682 49.7202 96.6291 49.6137C96.3923 49.5071 96.1059 49.4539 95.7697 49.4539H95.1554V48.559H95.7697C96.0396 48.559 96.2763 48.5105 96.4799 48.4134C96.6859 48.3163 96.8469 48.1814 96.9629 48.0086C97.0789 47.8334 97.1369 47.6286 97.1369 47.3942C97.1369 47.1693 97.086 46.974 96.9842 46.8083C96.8848 46.6402 96.7427 46.5088 96.5581 46.4141C96.3758 46.3194 96.1603 46.2721 95.9118 46.2721C95.675 46.2721 95.4537 46.3159 95.2477 46.4035C95.0441 46.4887 94.8784 46.6118 94.7505 46.7728C94.6227 46.9314 94.554 47.122 94.5446 47.3445H93.4828C93.4946 46.9515 93.6106 46.6059 93.8308 46.3076C94.0533 46.0093 94.3469 45.7761 94.7115 45.608C95.0761 45.4399 95.4809 45.3559 95.926 45.3559C96.3923 45.3559 96.7948 45.447 97.1333 45.6293C97.4743 45.8092 97.737 46.0495 97.9217 46.3502C98.1087 46.6508 98.2011 46.9799 98.1987 47.3374C98.2011 47.7446 98.0874 48.0902 97.8578 48.3743C97.6305 48.6584 97.3275 48.849 96.9487 48.9461V49.0029C97.4316 49.0763 97.8057 49.268 98.0708 49.5782C98.3384 49.8883 98.4709 50.273 98.4686 50.7323C98.4709 51.1324 98.3597 51.491 98.1348 51.8083C97.9122 52.1255 97.608 52.3753 97.2221 52.5576C96.8362 52.7375 96.3947 52.8275 95.8975 52.8275Z" fill="#F85550"/>
<circle cx="215" cy="50.228" r="1.5" fill="#72CF70"/>
<path d="M217.5 50.2281C217.5 51.6088 216.381 52.7281 215 52.7281C213.619 52.7281 212.5 51.6088 212.5 50.2281C212.5 48.8474 213.619 47.7281 215 47.7281C216.381 47.7281 217.5 48.8474 217.5 50.2281Z" fill="#53EE50" fill-opacity="0.35"/>
<path d="M22.625 108.728H20.3807V101.455H22.7244C23.4299 101.455 24.0336 101.601 24.5355 101.892C25.0374 102.181 25.4221 102.596 25.6896 103.139C25.9571 103.678 26.0909 104.325 26.0909 105.077C26.0909 105.835 25.956 106.487 25.6861 107.034C25.4162 107.579 25.0232 107.998 24.5071 108.291C23.991 108.582 23.3636 108.728 22.625 108.728ZM21.2614 107.947H22.5682C23.1695 107.947 23.6679 107.831 24.0632 107.599C24.4586 107.367 24.7533 107.037 24.9474 106.608C25.1416 106.179 25.2386 105.669 25.2386 105.077C25.2386 104.49 25.1428 103.985 24.951 103.561C24.7592 103.135 24.4728 102.808 24.0916 102.581C23.7105 102.351 23.2358 102.237 22.6676 102.237H21.2614V107.947ZM29.7415 108.842C29.2159 108.842 28.7625 108.726 28.3814 108.494C28.0026 108.259 27.7102 107.933 27.5043 107.514C27.3007 107.092 27.1989 106.602 27.1989 106.043C27.1989 105.485 27.3007 104.992 27.5043 104.566C27.7102 104.138 27.9967 103.804 28.3636 103.565C28.733 103.323 29.1638 103.202 29.6562 103.202C29.9403 103.202 30.2209 103.25 30.4979 103.345C30.7749 103.439 31.027 103.593 31.2543 103.806C31.4815 104.017 31.6626 104.296 31.7976 104.644C31.9325 104.992 32 105.421 32 105.93V106.285H27.7955V105.56H31.1477C31.1477 105.253 31.0862 104.978 30.9631 104.737C30.8423 104.495 30.6695 104.304 30.4446 104.165C30.2221 104.025 29.9593 103.955 29.6562 103.955C29.3224 103.955 29.0336 104.038 28.7898 104.204C28.5483 104.367 28.3625 104.58 28.2322 104.843C28.102 105.106 28.0369 105.388 28.0369 105.688V106.171C28.0369 106.583 28.108 106.932 28.25 107.219C28.3944 107.503 28.5945 107.72 28.8501 107.869C29.1058 108.015 29.4029 108.089 29.7415 108.089C29.9616 108.089 30.1605 108.058 30.3381 107.996C30.518 107.933 30.6731 107.838 30.8033 107.712C30.9335 107.585 31.0341 107.426 31.1051 107.237L31.9148 107.464C31.8295 107.738 31.6863 107.98 31.4851 108.188C31.2839 108.394 31.0353 108.555 30.7393 108.671C30.4434 108.785 30.1108 108.842 29.7415 108.842ZM37.5691 103.273L35.552 108.728H34.6998L32.6827 103.273H33.5918L35.0975 107.62H35.1543L36.66 103.273H37.5691ZM38.6752 108.728V103.273H39.5133V108.728H38.6752ZM39.1014 102.364C38.938 102.364 38.7972 102.309 38.6788 102.197C38.5628 102.086 38.5048 101.952 38.5048 101.796C38.5048 101.64 38.5628 101.506 38.6788 101.395C38.7972 101.284 38.938 101.228 39.1014 101.228C39.2647 101.228 39.4044 101.284 39.5204 101.395C39.6388 101.506 39.698 101.64 39.698 101.796C39.698 101.952 39.6388 102.086 39.5204 102.197C39.4044 102.309 39.2647 102.364 39.1014 102.364ZM43.2642 108.842C42.7528 108.842 42.3125 108.721 41.9432 108.479C41.5739 108.238 41.2898 107.905 41.0909 107.482C40.892 107.058 40.7926 106.574 40.7926 106.029C40.7926 105.475 40.8944 104.986 41.098 104.563C41.304 104.136 41.5904 103.804 41.9574 103.565C42.3267 103.323 42.7576 103.202 43.25 103.202C43.6335 103.202 43.9792 103.273 44.2869 103.416C44.5947 103.558 44.8468 103.756 45.0433 104.012C45.2398 104.268 45.3617 104.566 45.4091 104.907H44.571C44.5071 104.658 44.3651 104.438 44.1449 104.246C43.9271 104.052 43.6335 103.955 43.2642 103.955C42.9375 103.955 42.651 104.041 42.4048 104.211C42.161 104.379 41.9704 104.617 41.8331 104.925C41.6982 105.23 41.6307 105.589 41.6307 106.001C41.6307 106.422 41.697 106.789 41.8295 107.102C41.9645 107.414 42.1539 107.657 42.3977 107.83C42.6439 108.002 42.9328 108.089 43.2642 108.089C43.482 108.089 43.6797 108.051 43.8572 107.975C44.0348 107.899 44.1851 107.791 44.3082 107.648C44.4313 107.506 44.5189 107.336 44.571 107.137H45.4091C45.3617 107.459 45.2446 107.749 45.0575 108.007C44.8729 108.263 44.6278 108.466 44.3224 108.618C44.0194 108.767 43.6667 108.842 43.2642 108.842ZM48.9212 108.842C48.3956 108.842 47.9422 108.726 47.5611 108.494C47.1823 108.259 46.8899 107.933 46.6839 107.514C46.4804 107.092 46.3786 106.602 46.3786 106.043C46.3786 105.485 46.4804 104.992 46.6839 104.566C46.8899 104.138 47.1764 103.804 47.5433 103.565C47.9126 103.323 48.3435 103.202 48.8359 103.202C49.12 103.202 49.4006 103.25 49.6776 103.345C49.9545 103.439 50.2067 103.593 50.4339 103.806C50.6612 104.017 50.8423 104.296 50.9773 104.644C51.1122 104.992 51.1797 105.421 51.1797 105.93V106.285H46.9751V105.56H50.3274C50.3274 105.253 50.2659 104.978 50.1428 104.737C50.022 104.495 49.8492 104.304 49.6243 104.165C49.4018 104.025 49.139 103.955 48.8359 103.955C48.5021 103.955 48.2133 104.038 47.9695 104.204C47.728 104.367 47.5421 104.58 47.4119 104.843C47.2817 105.106 47.2166 105.388 47.2166 105.688V106.171C47.2166 106.583 47.2876 106.932 47.4297 107.219C47.5741 107.503 47.7741 107.72 48.0298 107.869C48.2855 108.015 48.5826 108.089 48.9212 108.089C49.1413 108.089 49.3402 108.058 49.5178 107.996C49.6977 107.933 49.8527 107.838 49.983 107.712C50.1132 107.585 50.2138 107.426 50.2848 107.237L51.0945 107.464C51.0092 107.738 50.866 107.98 50.6648 108.188C50.4635 108.394 50.215 108.555 49.919 108.671C49.6231 108.785 49.2905 108.842 48.9212 108.842ZM57.625 108.728H55.3807V101.455H57.7244C58.4299 101.455 59.0336 101.601 59.5355 101.892C60.0374 102.181 60.4221 102.596 60.6896 103.139C60.9571 103.678 61.0909 104.325 61.0909 105.077C61.0909 105.835 60.956 106.487 60.6861 107.034C60.4162 107.579 60.0232 107.998 59.5071 108.291C58.991 108.582 58.3636 108.728 57.625 108.728ZM56.2614 107.947H57.5682C58.1695 107.947 58.6679 107.831 59.0632 107.599C59.4586 107.367 59.7533 107.037 59.9474 106.608C60.1416 106.179 60.2386 105.669 60.2386 105.077C60.2386 104.49 60.1428 103.985 59.951 103.561C59.7592 103.135 59.4728 102.808 59.0916 102.581C58.7105 102.351 58.2358 102.237 57.6676 102.237H56.2614V107.947ZM64.0597 108.856C63.714 108.856 63.4003 108.791 63.1186 108.661C62.8369 108.528 62.6132 108.337 62.4474 108.089C62.2817 107.838 62.1989 107.535 62.1989 107.18C62.1989 106.867 62.2604 106.614 62.3835 106.42C62.5066 106.223 62.6712 106.069 62.8771 105.958C63.0831 105.847 63.3104 105.764 63.5589 105.71C63.8099 105.653 64.062 105.608 64.3153 105.575C64.6468 105.532 64.9155 105.5 65.1214 105.479C65.3298 105.455 65.4813 105.416 65.576 105.362C65.6731 105.307 65.7216 105.212 65.7216 105.077V105.049C65.7216 104.699 65.6257 104.426 65.4339 104.232C65.2446 104.038 64.9569 103.941 64.571 103.941C64.1709 103.941 63.8572 104.029 63.63 104.204C63.4027 104.379 63.2429 104.566 63.1506 104.765L62.3551 104.481C62.4972 104.149 62.6866 103.891 62.9233 103.707C63.1624 103.52 63.4228 103.389 63.7045 103.316C63.9886 103.24 64.268 103.202 64.5426 103.202C64.7178 103.202 64.919 103.224 65.1463 103.266C65.3759 103.307 65.5973 103.391 65.8104 103.519C66.0258 103.646 66.2045 103.839 66.3466 104.097C66.4886 104.355 66.5597 104.701 66.5597 105.134V108.728H65.7216V107.989H65.679C65.6222 108.108 65.5275 108.234 65.3949 108.369C65.2623 108.504 65.0859 108.619 64.8658 108.714C64.6456 108.809 64.3769 108.856 64.0597 108.856ZM64.1875 108.103C64.5189 108.103 64.7983 108.038 65.0256 107.908C65.2552 107.778 65.428 107.609 65.544 107.403C65.6624 107.197 65.7216 106.981 65.7216 106.754V105.987C65.6861 106.029 65.608 106.068 65.4872 106.104C65.3688 106.137 65.2315 106.166 65.0753 106.193C64.9214 106.216 64.7711 106.237 64.6243 106.256C64.4799 106.273 64.3627 106.287 64.2727 106.299C64.0549 106.327 63.8513 106.374 63.6619 106.438C63.4749 106.499 63.3234 106.593 63.2074 106.718C63.0938 106.841 63.0369 107.009 63.0369 107.222C63.0369 107.514 63.1446 107.734 63.3601 107.883C63.5779 108.03 63.8537 108.103 64.1875 108.103ZM70.4615 103.273V103.984H67.6348V103.273H70.4615ZM68.4586 101.967H69.2967V107.166C69.2967 107.402 69.331 107.58 69.3997 107.698C69.4707 107.814 69.5607 107.892 69.6696 107.933C69.7808 107.97 69.898 107.989 70.0211 107.989C70.1135 107.989 70.1892 107.985 70.2484 107.975C70.3076 107.963 70.3549 107.954 70.3904 107.947L70.5609 108.7C70.5041 108.721 70.4248 108.742 70.323 108.764C70.2212 108.787 70.0922 108.799 69.9359 108.799C69.6992 108.799 69.4672 108.748 69.2399 108.646C69.015 108.545 68.8279 108.389 68.6788 108.181C68.532 107.973 68.4586 107.71 68.4586 107.393V101.967ZM73.3272 108.856C72.9816 108.856 72.6679 108.791 72.3862 108.661C72.1045 108.528 71.8807 108.337 71.715 108.089C71.5493 107.838 71.4664 107.535 71.4664 107.18C71.4664 106.867 71.528 106.614 71.6511 106.42C71.7742 106.223 71.9387 106.069 72.1447 105.958C72.3507 105.847 72.5779 105.764 72.8265 105.71C73.0775 105.653 73.3296 105.608 73.5829 105.575C73.9144 105.532 74.1831 105.5 74.389 105.479C74.5974 105.455 74.7489 105.416 74.8436 105.362C74.9406 105.307 74.9892 105.212 74.9892 105.077V105.049C74.9892 104.699 74.8933 104.426 74.7015 104.232C74.5121 104.038 74.2245 103.941 73.8386 103.941C73.4385 103.941 73.1248 104.029 72.8975 104.204C72.6703 104.379 72.5105 104.566 72.4181 104.765L71.6227 104.481C71.7647 104.149 71.9541 103.891 72.1909 103.707C72.43 103.52 72.6904 103.389 72.9721 103.316C73.2562 103.24 73.5356 103.202 73.8102 103.202C73.9854 103.202 74.1866 103.224 74.4139 103.266C74.6435 103.307 74.8649 103.391 75.0779 103.519C75.2934 103.646 75.4721 103.839 75.6142 104.097C75.7562 104.355 75.8272 104.701 75.8272 105.134V108.728H74.9892V107.989H74.9466C74.8897 108.108 74.795 108.234 74.6625 108.369C74.5299 108.504 74.3535 108.619 74.1333 108.714C73.9132 108.809 73.6445 108.856 73.3272 108.856ZM73.4551 108.103C73.7865 108.103 74.0659 108.038 74.2931 107.908C74.5228 107.778 74.6956 107.609 74.8116 107.403C74.93 107.197 74.9892 106.981 74.9892 106.754V105.987C74.9537 106.029 74.8755 106.068 74.7548 106.104C74.6364 106.137 74.4991 106.166 74.3429 106.193C74.189 106.216 74.0386 106.237 73.8919 106.256C73.7475 106.273 73.6303 106.287 73.5403 106.299C73.3225 106.327 73.1189 106.374 72.9295 106.438C72.7425 106.499 72.591 106.593 72.475 106.718C72.3613 106.841 72.3045 107.009 72.3045 107.222C72.3045 107.514 72.4122 107.734 72.6277 107.883C72.8455 108.03 73.1213 108.103 73.4551 108.103Z" fill="#B8B8B8"/>
<circle cx="356.704" cy="491" r="49.25" transform="rotate(90 356.704 491)" stroke="url(#paint4_linear_370_2855)" stroke-width="1.5"/>
<circle cx="356.704" cy="158.812" r="49.25" transform="rotate(90 356.704 158.812)" stroke="url(#paint5_linear_370_2855)" stroke-width="1.5"/>
<g filter="url(#filter1_d_370_2855)">
<rect x="16.5" y="122" width="216" height="36.8115" rx="5" fill="white"/>
</g>
<g filter="url(#filter2_d_370_2855)">
<rect x="16.5" y="165.081" width="216" height="36.8115" rx="5" fill="white"/>
</g>
<path d="M185.753 144.906V144.267L188.153 141.639C188.435 141.331 188.667 141.063 188.849 140.836C189.032 140.607 189.167 140.391 189.254 140.19C189.344 139.986 189.389 139.773 189.389 139.551C189.389 139.295 189.328 139.074 189.205 138.887C189.084 138.7 188.918 138.555 188.707 138.453C188.497 138.352 188.26 138.301 187.997 138.301C187.718 138.301 187.474 138.359 187.266 138.475C187.06 138.588 186.9 138.748 186.786 138.954C186.675 139.16 186.619 139.402 186.619 139.678H185.781C185.781 139.252 185.879 138.878 186.076 138.556C186.272 138.234 186.54 137.983 186.879 137.803C187.219 137.624 187.602 137.534 188.026 137.534C188.452 137.534 188.829 137.624 189.158 137.803C189.487 137.983 189.746 138.226 189.933 138.531C190.12 138.837 190.213 139.177 190.213 139.551C190.213 139.818 190.165 140.08 190.067 140.335C189.973 140.589 189.807 140.872 189.57 141.184C189.336 141.494 189.01 141.873 188.594 142.321L186.96 144.068V144.125H190.341V144.906H185.753ZM194.08 145.005C193.664 145.005 193.288 144.922 192.955 144.757C192.621 144.591 192.353 144.364 192.152 144.075C191.951 143.786 191.841 143.457 191.822 143.088H192.674C192.707 143.417 192.856 143.689 193.121 143.904C193.389 144.117 193.709 144.224 194.08 144.224C194.379 144.224 194.644 144.154 194.876 144.014C195.11 143.875 195.294 143.683 195.426 143.439C195.561 143.193 195.629 142.915 195.629 142.605C195.629 142.287 195.559 142.004 195.419 141.756C195.282 141.505 195.092 141.307 194.851 141.163C194.609 141.018 194.334 140.945 194.023 140.943C193.801 140.94 193.572 140.975 193.338 141.046C193.104 141.114 192.911 141.203 192.759 141.312L191.935 141.213L192.376 137.633H196.154V138.414H193.114L192.859 140.559H192.901C193.05 140.441 193.237 140.343 193.462 140.264C193.687 140.186 193.922 140.147 194.165 140.147C194.611 140.147 195.007 140.254 195.355 140.467C195.705 140.678 195.98 140.966 196.179 141.333C196.38 141.7 196.481 142.119 196.481 142.59C196.481 143.054 196.377 143.469 196.168 143.833C195.962 144.196 195.678 144.482 195.316 144.693C194.954 144.901 194.542 145.005 194.08 145.005ZM206.684 139.906H205.803C205.751 139.652 205.66 139.43 205.53 139.238C205.402 139.046 205.246 138.885 205.061 138.755C204.879 138.623 204.677 138.523 204.454 138.457C204.231 138.391 203.999 138.357 203.758 138.357C203.318 138.357 202.919 138.469 202.561 138.691C202.206 138.914 201.923 139.242 201.713 139.675C201.504 140.108 201.4 140.64 201.4 141.269C201.4 141.899 201.504 142.431 201.713 142.864C201.923 143.297 202.206 143.625 202.561 143.848C202.919 144.07 203.318 144.181 203.758 144.181C203.999 144.181 204.231 144.148 204.454 144.082C204.677 144.016 204.879 143.917 205.061 143.787C205.246 143.655 205.402 143.492 205.53 143.301C205.66 143.107 205.751 142.884 205.803 142.633H206.684C206.618 143.005 206.497 143.337 206.322 143.631C206.147 143.924 205.929 144.174 205.669 144.38C205.408 144.584 205.116 144.739 204.791 144.845C204.469 144.952 204.125 145.005 203.758 145.005C203.138 145.005 202.586 144.854 202.103 144.551C201.62 144.248 201.24 143.817 200.963 143.258C200.686 142.699 200.548 142.036 200.548 141.269C200.548 140.502 200.686 139.839 200.963 139.281C201.24 138.722 201.62 138.291 202.103 137.988C202.586 137.685 203.138 137.534 203.758 137.534C204.125 137.534 204.469 137.587 204.791 137.693C205.116 137.8 205.408 137.956 205.669 138.162C205.929 138.366 206.147 138.614 206.322 138.908C206.497 139.199 206.618 139.532 206.684 139.906Z" fill="#B8B8B8"/>
<path d="M30.2525 137.414V136.633H35.707V137.414H33.4201V143.906H32.5394V137.414H30.2525ZM38.4485 144.019C37.9229 144.019 37.4696 143.903 37.0884 143.671C36.7096 143.437 36.4173 143.11 36.2113 142.691C36.0077 142.27 35.9059 141.78 35.9059 141.221C35.9059 140.662 36.0077 140.17 36.2113 139.744C36.4173 139.315 36.7037 138.982 37.0707 138.742C37.44 138.501 37.8709 138.38 38.3633 138.38C38.6474 138.38 38.9279 138.428 39.2049 138.522C39.4819 138.617 39.734 138.771 39.9613 138.984C40.1886 139.195 40.3697 139.474 40.5046 139.822C40.6396 140.17 40.707 140.598 40.707 141.107V141.463H36.5025V140.738H39.8548C39.8548 140.43 39.7932 140.156 39.6701 139.914C39.5494 139.673 39.3765 139.482 39.1516 139.343C38.9291 139.203 38.6663 139.133 38.3633 139.133C38.0295 139.133 37.7406 139.216 37.4968 139.382C37.2553 139.545 37.0695 139.758 36.9393 140.021C36.8091 140.284 36.744 140.565 36.744 140.866V141.349C36.744 141.761 36.815 142.11 36.957 142.397C37.1014 142.681 37.3015 142.897 37.5572 143.046C37.8129 143.193 38.11 143.267 38.4485 143.267C38.6687 143.267 38.8675 143.236 39.0451 143.174C39.225 143.11 39.3801 143.016 39.5103 142.89C39.6405 142.762 39.7411 142.604 39.8121 142.414L40.6218 142.642C40.5366 142.916 40.3933 143.158 40.1921 143.366C39.9909 143.572 39.7423 143.733 39.4464 143.849C39.1504 143.963 38.8178 144.019 38.4485 144.019ZM41.9819 143.906V138.451H42.7915V139.303H42.8626C42.9762 139.012 43.1597 138.786 43.413 138.625C43.6663 138.462 43.9705 138.38 44.3256 138.38C44.6855 138.38 44.985 138.462 45.2241 138.625C45.4656 138.786 45.6538 139.012 45.7887 139.303H45.8455C45.9852 139.022 46.1947 138.798 46.4741 138.632C46.7534 138.464 47.0884 138.38 47.479 138.38C47.9667 138.38 48.3656 138.533 48.6758 138.838C48.9859 139.141 49.141 139.614 49.141 140.255V143.906H48.3029V140.255C48.3029 139.853 48.1928 139.565 47.9727 139.392C47.7525 139.219 47.4933 139.133 47.195 139.133C46.8114 139.133 46.5143 139.249 46.3036 139.481C46.0929 139.711 45.9876 140.002 45.9876 140.355V143.906H45.1353V140.17C45.1353 139.86 45.0347 139.61 44.8335 139.421C44.6322 139.229 44.373 139.133 44.0558 139.133C43.8379 139.133 43.6344 139.191 43.445 139.307C43.2579 139.423 43.1064 139.584 42.9904 139.79C42.8768 139.994 42.82 140.229 42.82 140.497V143.906H41.9819ZM50.6733 145.951V138.451H51.483V139.318H51.5824C51.6439 139.223 51.7292 139.102 51.8381 138.955C51.9493 138.806 52.108 138.674 52.3139 138.558C52.5223 138.439 52.804 138.38 53.1591 138.38C53.6184 138.38 54.0232 138.495 54.3736 138.725C54.724 138.954 54.9974 139.28 55.1939 139.701C55.3904 140.123 55.4886 140.62 55.4886 141.193C55.4886 141.77 55.3904 142.271 55.1939 142.695C54.9974 143.116 54.7251 143.443 54.3771 143.675C54.0291 143.905 53.6278 144.019 53.1733 144.019C52.8229 144.019 52.5424 143.961 52.3317 143.845C52.121 143.727 51.9588 143.593 51.8452 143.444C51.7315 143.293 51.6439 143.167 51.5824 143.068H51.5114V145.951H50.6733ZM51.4972 141.178C51.4972 141.59 51.5575 141.954 51.6783 142.269C51.799 142.581 51.9754 142.826 52.2074 143.004C52.4394 143.179 52.7235 143.267 53.0597 143.267C53.41 143.267 53.7024 143.174 53.9368 142.99C54.1735 142.803 54.3511 142.552 54.4695 142.237C54.5902 141.919 54.6506 141.567 54.6506 141.178C54.6506 140.795 54.5914 140.449 54.473 140.142C54.357 139.831 54.1806 139.586 53.9439 139.406C53.7095 139.224 53.4148 139.133 53.0597 139.133C52.7188 139.133 52.4323 139.219 52.2003 139.392C51.9683 139.563 51.7931 139.802 51.6747 140.11C51.5563 140.415 51.4972 140.771 51.4972 141.178ZM59.054 144.019C58.5284 144.019 58.075 143.903 57.6939 143.671C57.3151 143.437 57.0227 143.11 56.8168 142.691C56.6132 142.27 56.5114 141.78 56.5114 141.221C56.5114 140.662 56.6132 140.17 56.8168 139.744C57.0227 139.315 57.3092 138.982 57.6761 138.742C58.0455 138.501 58.4763 138.38 58.9688 138.38C59.2528 138.38 59.5334 138.428 59.8104 138.522C60.0874 138.617 60.3395 138.771 60.5668 138.984C60.794 139.195 60.9751 139.474 61.1101 139.822C61.245 140.17 61.3125 140.598 61.3125 141.107V141.463H57.108V140.738H60.4602C60.4602 140.43 60.3987 140.156 60.2756 139.914C60.1548 139.673 59.982 139.482 59.7571 139.343C59.5346 139.203 59.2718 139.133 58.9688 139.133C58.6349 139.133 58.3461 139.216 58.1023 139.382C57.8608 139.545 57.675 139.758 57.5447 140.021C57.4145 140.284 57.3494 140.565 57.3494 140.866V141.349C57.3494 141.761 57.4205 142.11 57.5625 142.397C57.7069 142.681 57.907 142.897 58.1626 143.046C58.4183 143.193 58.7154 143.267 59.054 143.267C59.2741 143.267 59.473 143.236 59.6506 143.174C59.8305 143.11 59.9856 143.016 60.1158 142.89C60.246 142.762 60.3466 142.604 60.4176 142.414L61.2273 142.642C61.142 142.916 60.9988 143.158 60.7976 143.366C60.5964 143.572 60.3478 143.733 60.0518 143.849C59.7559 143.963 59.4233 144.019 59.054 144.019ZM62.5874 143.906V138.451H63.397V139.275H63.4538C63.5533 139.005 63.7332 138.786 63.9936 138.618C64.254 138.45 64.5476 138.366 64.8743 138.366C64.9358 138.366 65.0128 138.367 65.1051 138.37C65.1974 138.372 65.2673 138.375 65.3146 138.38V139.232C65.2862 139.225 65.2211 139.215 65.1193 139.201C65.0199 139.184 64.9145 139.176 64.8033 139.176C64.5381 139.176 64.3014 139.231 64.093 139.343C63.8871 139.451 63.7237 139.603 63.603 139.797C63.4846 139.989 63.4254 140.208 63.4254 140.454V143.906H62.5874ZM67.9132 144.034C67.5675 144.034 67.2538 143.968 66.9721 143.838C66.6904 143.706 66.4667 143.515 66.301 143.267C66.1352 143.016 66.0524 142.713 66.0524 142.357C66.0524 142.045 66.1139 141.792 66.237 141.598C66.3601 141.401 66.5247 141.247 66.7306 141.136C66.9366 141.025 67.1639 140.942 67.4125 140.887C67.6634 140.83 67.9155 140.785 68.1689 140.752C68.5003 140.71 68.769 140.678 68.975 140.656C69.1833 140.633 69.3348 140.594 69.4295 140.539C69.5266 140.485 69.5751 140.39 69.5751 140.255V140.227C69.5751 139.876 69.4792 139.604 69.2875 139.41C69.0981 139.216 68.8104 139.119 68.4245 139.119C68.0244 139.119 67.7108 139.206 67.4835 139.382C67.2562 139.557 67.0964 139.744 67.0041 139.943L66.2086 139.659C66.3507 139.327 66.5401 139.069 66.7768 138.884C67.0159 138.697 67.2763 138.567 67.5581 138.494C67.8422 138.418 68.1215 138.38 68.3961 138.38C68.5713 138.38 68.7725 138.402 68.9998 138.444C69.2295 138.484 69.4508 138.568 69.6639 138.696C69.8793 138.824 70.0581 139.017 70.2001 139.275C70.3422 139.533 70.4132 139.879 70.4132 140.312V143.906H69.5751V143.167H69.5325C69.4757 143.285 69.381 143.412 69.2484 143.547C69.1158 143.682 68.9395 143.797 68.7193 143.892C68.4991 143.986 68.2304 144.034 67.9132 144.034ZM68.041 143.281C68.3725 143.281 68.6518 143.216 68.8791 143.085C69.1087 142.955 69.2815 142.787 69.3975 142.581C69.5159 142.375 69.5751 142.159 69.5751 141.931V141.164C69.5396 141.207 69.4615 141.246 69.3407 141.281C69.2224 141.315 69.085 141.344 68.9288 141.37C68.7749 141.394 68.6246 141.415 68.4778 141.434C68.3334 141.451 68.2162 141.465 68.1262 141.477C67.9084 141.505 67.7048 141.551 67.5154 141.615C67.3284 141.677 67.1769 141.77 67.0609 141.896C66.9473 142.019 66.8904 142.187 66.8904 142.4C66.8904 142.691 66.9982 142.911 67.2136 143.061C67.4314 143.207 67.7072 143.281 68.041 143.281ZM74.315 138.451V139.161H71.4883V138.451H74.315ZM72.3121 137.144H73.1502V142.343C73.1502 142.58 73.1845 142.758 73.2532 142.876C73.3242 142.992 73.4142 143.07 73.5231 143.11C73.6344 143.148 73.7515 143.167 73.8746 143.167C73.967 143.167 74.0427 143.162 74.1019 143.153C74.1611 143.141 74.2085 143.132 74.244 143.125L74.4144 143.877C74.3576 143.899 74.2783 143.92 74.1765 143.941C74.0747 143.965 73.9457 143.977 73.7894 143.977C73.5527 143.977 73.3207 143.926 73.0934 143.824C72.8685 143.722 72.6815 143.567 72.5323 143.359C72.3855 143.151 72.3121 142.888 72.3121 142.571V137.144ZM79.0131 141.676V138.451H79.8512V143.906H79.0131V142.982H78.9563C78.8285 143.259 78.6296 143.495 78.3597 143.689C78.0898 143.881 77.7489 143.977 77.337 143.977C76.9961 143.977 76.6931 143.902 76.4279 143.753C76.1628 143.602 75.9544 143.374 75.8029 143.071C75.6514 142.766 75.5756 142.381 75.5756 141.917V138.451H76.4137V141.86C76.4137 142.258 76.525 142.575 76.7475 142.812C76.9724 143.049 77.2589 143.167 77.6069 143.167C77.8152 143.167 78.0271 143.114 78.2425 143.007C78.4603 142.901 78.6426 142.737 78.7894 142.517C78.9386 142.297 79.0131 142.017 79.0131 141.676ZM81.3862 143.906V138.451H82.1958V139.275H82.2527C82.3521 139.005 82.532 138.786 82.7924 138.618C83.0529 138.45 83.3464 138.366 83.6731 138.366C83.7347 138.366 83.8116 138.367 83.9039 138.37C83.9963 138.372 84.0661 138.375 84.1135 138.38V139.232C84.085 139.225 84.0199 139.215 83.9181 139.201C83.8187 139.184 83.7134 139.176 83.6021 139.176C83.3369 139.176 83.1002 139.231 82.8919 139.343C82.6859 139.451 82.5225 139.603 82.4018 139.797C82.2834 139.989 82.2243 140.208 82.2243 140.454V143.906H81.3862ZM87.2278 144.019C86.7022 144.019 86.2489 143.903 85.8677 143.671C85.4889 143.437 85.1966 143.11 84.9906 142.691C84.787 142.27 84.6852 141.78 84.6852 141.221C84.6852 140.662 84.787 140.17 84.9906 139.744C85.1966 139.315 85.483 138.982 85.85 138.742C86.2193 138.501 86.6502 138.38 87.1426 138.38C87.4267 138.38 87.7072 138.428 87.9842 138.522C88.2612 138.617 88.5133 138.771 88.7406 138.984C88.9679 139.195 89.149 139.474 89.2839 139.822C89.4189 140.17 89.4863 140.598 89.4863 141.107V141.463H85.2818V140.738H88.6341C88.6341 140.43 88.5725 140.156 88.4494 139.914C88.3287 139.673 88.1558 139.482 87.9309 139.343C87.7084 139.203 87.4456 139.133 87.1426 139.133C86.8088 139.133 86.5199 139.216 86.2761 139.382C86.0346 139.545 85.8488 139.758 85.7186 140.021C85.5884 140.284 85.5233 140.565 85.5233 140.866V141.349C85.5233 141.761 85.5943 142.11 85.7363 142.397C85.8807 142.681 86.0808 142.897 86.3365 143.046C86.5922 143.193 86.8893 143.267 87.2278 143.267C87.448 143.267 87.6468 143.236 87.8244 143.174C88.0043 143.11 88.1594 143.016 88.2896 142.89C88.4198 142.762 88.5204 142.604 88.5914 142.414L89.4011 142.642C89.3159 142.916 89.1726 143.158 88.9714 143.366C88.7702 143.572 88.5216 143.733 88.2257 143.849C87.9297 143.963 87.5971 144.019 87.2278 144.019Z" fill="#0C0C0C"/>
<path d="M188.168 188.086C187.869 188.081 187.571 188.024 187.273 187.915C186.974 187.806 186.702 187.623 186.456 187.365C186.21 187.104 186.012 186.753 185.863 186.31C185.714 185.865 185.639 185.306 185.639 184.634C185.639 183.99 185.7 183.42 185.82 182.922C185.941 182.423 186.116 182.003 186.346 181.662C186.576 181.318 186.853 181.058 187.177 180.881C187.504 180.703 187.872 180.614 188.281 180.614C188.688 180.614 189.051 180.696 189.368 180.859C189.688 181.02 189.948 181.245 190.149 181.534C190.35 181.823 190.481 182.155 190.54 182.532H189.673C189.593 182.205 189.437 181.934 189.205 181.719C188.973 181.503 188.665 181.395 188.281 181.395C187.718 181.395 187.274 181.64 186.95 182.131C186.628 182.621 186.465 183.308 186.463 184.194H186.52C186.652 183.992 186.81 183.821 186.992 183.679C187.177 183.534 187.38 183.423 187.603 183.345C187.826 183.267 188.061 183.228 188.31 183.228C188.726 183.228 189.107 183.332 189.453 183.54C189.799 183.746 190.076 184.032 190.284 184.396C190.492 184.758 190.597 185.174 190.597 185.643C190.597 186.092 190.496 186.504 190.295 186.878C190.094 187.25 189.811 187.546 189.446 187.766C189.084 187.984 188.658 188.09 188.168 188.086ZM188.168 187.305C188.466 187.305 188.733 187.23 188.97 187.081C189.209 186.932 189.397 186.732 189.535 186.481C189.674 186.23 189.744 185.95 189.744 185.643C189.744 185.342 189.677 185.068 189.542 184.822C189.409 184.574 189.226 184.376 188.991 184.229C188.759 184.082 188.494 184.009 188.196 184.009C187.971 184.009 187.762 184.054 187.567 184.144C187.373 184.232 187.203 184.352 187.056 184.506C186.912 184.66 186.798 184.836 186.715 185.035C186.632 185.232 186.591 185.439 186.591 185.657C186.591 185.946 186.658 186.215 186.793 186.466C186.931 186.717 187.118 186.92 187.354 187.074C187.594 187.228 187.865 187.305 188.168 187.305ZM194.266 188.086C193.849 188.086 193.474 188.003 193.14 187.837C192.806 187.671 192.539 187.444 192.338 187.155C192.136 186.867 192.026 186.537 192.007 186.168H192.86C192.893 186.497 193.042 186.769 193.307 186.985C193.575 187.198 193.894 187.305 194.266 187.305C194.564 187.305 194.829 187.235 195.061 187.095C195.296 186.955 195.479 186.764 195.612 186.52C195.747 186.273 195.814 185.995 195.814 185.685C195.814 185.368 195.744 185.085 195.605 184.836C195.467 184.586 195.278 184.388 195.036 184.243C194.795 184.099 194.519 184.026 194.209 184.023C193.986 184.021 193.758 184.055 193.524 184.126C193.289 184.195 193.096 184.284 192.945 184.393L192.121 184.293L192.561 180.714H196.34V181.495H193.3L193.044 183.64H193.087C193.236 183.521 193.423 183.423 193.648 183.345C193.873 183.267 194.107 183.228 194.351 183.228C194.796 183.228 195.193 183.334 195.541 183.547C195.891 183.758 196.166 184.047 196.365 184.414C196.566 184.781 196.666 185.2 196.666 185.671C196.666 186.135 196.562 186.549 196.354 186.914C196.148 187.276 195.864 187.563 195.502 187.773C195.139 187.982 194.727 188.086 194.266 188.086ZM204.597 186.623V186.239C204.597 185.974 204.651 185.731 204.76 185.511C204.872 185.289 205.033 185.111 205.243 184.979C205.456 184.844 205.714 184.776 206.017 184.776C206.325 184.776 206.583 184.844 206.792 184.979C207 185.111 207.157 185.289 207.264 185.511C207.37 185.731 207.424 185.974 207.424 186.239V186.623C207.424 186.888 207.369 187.132 207.26 187.354C207.154 187.574 206.995 187.752 206.784 187.887C206.576 188.019 206.32 188.086 206.017 188.086C205.71 188.086 205.45 188.019 205.24 187.887C205.029 187.752 204.869 187.574 204.76 187.354C204.651 187.132 204.597 186.888 204.597 186.623ZM205.321 186.239V186.623C205.321 186.843 205.373 187.041 205.478 187.216C205.582 187.389 205.762 187.475 206.017 187.475C206.266 187.475 206.441 187.389 206.543 187.216C206.647 187.041 206.699 186.843 206.699 186.623V186.239C206.699 186.019 206.65 185.823 206.55 185.65C206.451 185.474 206.273 185.387 206.017 185.387C205.769 185.387 205.59 185.474 205.481 185.65C205.375 185.823 205.321 186.019 205.321 186.239ZM200.975 182.461V182.077C200.975 181.812 201.029 181.569 201.138 181.349C201.249 181.127 201.41 180.949 201.621 180.817C201.834 180.682 202.092 180.614 202.395 180.614C202.703 180.614 202.961 180.682 203.169 180.817C203.378 180.949 203.535 181.127 203.642 181.349C203.748 181.569 203.801 181.812 203.801 182.077V182.461C203.801 182.726 203.747 182.97 203.638 183.192C203.532 183.412 203.373 183.59 203.162 183.725C202.954 183.858 202.698 183.924 202.395 183.924C202.087 183.924 201.828 183.858 201.618 183.725C201.407 183.59 201.247 183.412 201.138 183.192C201.029 182.97 200.975 182.726 200.975 182.461ZM201.699 182.077V182.461C201.699 182.681 201.751 182.879 201.855 183.054C201.96 183.227 202.14 183.313 202.395 183.313C202.644 183.313 202.819 183.227 202.921 183.054C203.025 182.879 203.077 182.681 203.077 182.461V182.077C203.077 181.857 203.027 181.661 202.928 181.488C202.828 181.313 202.651 181.225 202.395 181.225C202.147 181.225 201.968 181.313 201.859 181.488C201.752 181.661 201.699 181.857 201.699 182.077ZM201.245 187.986L206.245 180.714H207.054L202.054 187.986H201.245Z" fill="#B8B8B8"/>
<path d="M30.6502 186.986V179.714H31.5309V182.952H35.4087V179.714H36.2894V186.986H35.4087V183.733H31.5309V186.986H30.6502ZM41.3764 184.756V181.532H42.2145V186.986H41.3764V186.063H41.3196C41.1918 186.34 40.9929 186.576 40.723 186.77C40.4531 186.961 40.1122 187.057 39.7003 187.057C39.3594 187.057 39.0563 186.983 38.7912 186.834C38.526 186.682 38.3177 186.455 38.1662 186.152C38.0147 185.846 37.9389 185.462 37.9389 184.998V181.532H38.777V184.941C38.777 185.339 38.8883 185.656 39.1108 185.893C39.3357 186.129 39.6222 186.248 39.9702 186.248C40.1785 186.248 40.3904 186.194 40.6058 186.088C40.8236 185.981 41.0059 185.818 41.1527 185.598C41.3018 185.378 41.3764 185.097 41.3764 184.756ZM43.7495 186.986V181.532H44.5591V182.384H44.6301C44.7438 182.093 44.9273 181.867 45.1806 181.706C45.4339 181.542 45.7381 181.461 46.0932 181.461C46.4531 181.461 46.7525 181.542 46.9917 181.706C47.2331 181.867 47.4213 182.093 47.5563 182.384H47.6131C47.7528 182.102 47.9623 181.879 48.2417 181.713C48.521 181.545 48.856 181.461 49.2466 181.461C49.7343 181.461 50.1332 181.613 50.4434 181.919C50.7535 182.222 50.9086 182.694 50.9086 183.336V186.986H50.0705V183.336C50.0705 182.933 49.9604 182.646 49.7402 182.473C49.5201 182.3 49.2608 182.214 48.9625 182.214C48.579 182.214 48.2819 182.33 48.0712 182.562C47.8605 182.791 47.7551 183.082 47.7551 183.435V186.986H46.9029V183.251C46.9029 182.94 46.8023 182.691 46.601 182.501C46.3998 182.309 46.1406 182.214 45.8233 182.214C45.6055 182.214 45.4019 182.272 45.2125 182.388C45.0255 182.504 44.874 182.665 44.758 182.871C44.6444 183.074 44.5875 183.31 44.5875 183.577V186.986H43.7495ZM52.4409 186.986V181.532H53.2789V186.986H52.4409ZM52.867 180.623C52.7037 180.623 52.5628 180.567 52.4444 180.456C52.3284 180.345 52.2704 180.211 52.2704 180.055C52.2704 179.898 52.3284 179.765 52.4444 179.653C52.5628 179.542 52.7037 179.486 52.867 179.486C53.0304 179.486 53.17 179.542 53.286 179.653C53.4044 179.765 53.4636 179.898 53.4636 180.055C53.4636 180.211 53.4044 180.345 53.286 180.456C53.17 180.567 53.0304 180.623 52.867 180.623ZM56.8736 187.1C56.419 187.1 56.0178 186.985 55.6697 186.756C55.3217 186.523 55.0495 186.197 54.853 185.775C54.6565 185.352 54.5582 184.851 54.5582 184.273C54.5582 183.7 54.6565 183.203 54.853 182.782C55.0495 182.36 55.3229 182.035 55.6733 181.805C56.0237 181.576 56.4285 181.461 56.8878 181.461C57.2429 181.461 57.5234 181.52 57.7294 181.638C57.9377 181.754 58.0964 181.887 58.2053 182.036C58.3165 182.183 58.4029 182.304 58.4645 182.398H58.5355V179.714H59.3736V186.986H58.5639V186.148H58.4645C58.4029 186.248 58.3153 186.373 58.2017 186.525C58.0881 186.674 57.9259 186.808 57.7152 186.926C57.5045 187.042 57.224 187.1 56.8736 187.1ZM56.9872 186.347C57.3234 186.347 57.6075 186.26 57.8395 186.084C58.0715 185.907 58.2479 185.662 58.3686 185.349C58.4893 185.034 58.5497 184.671 58.5497 184.259C58.5497 183.852 58.4905 183.496 58.3722 183.19C58.2538 182.882 58.0786 182.643 57.8466 182.473C57.6146 182.3 57.3281 182.214 56.9872 182.214C56.6321 182.214 56.3362 182.305 56.0994 182.487C55.8651 182.667 55.6887 182.912 55.5703 183.222C55.4543 183.53 55.3963 183.876 55.3963 184.259C55.3963 184.647 55.4555 185 55.5739 185.317C55.6946 185.632 55.8722 185.883 56.1065 186.07C56.3433 186.255 56.6368 186.347 56.9872 186.347ZM61.0249 186.986V181.532H61.8629V186.986H61.0249ZM61.451 180.623C61.2876 180.623 61.1468 180.567 61.0284 180.456C60.9124 180.345 60.8544 180.211 60.8544 180.055C60.8544 179.898 60.9124 179.765 61.0284 179.653C61.1468 179.542 61.2876 179.486 61.451 179.486C61.6143 179.486 61.754 179.542 61.87 179.653C61.9884 179.765 62.0476 179.898 62.0476 180.055C62.0476 180.211 61.9884 180.345 61.87 180.456C61.754 180.567 61.6143 180.623 61.451 180.623ZM65.7701 181.532V182.242H62.9434V181.532H65.7701ZM63.7672 180.225H64.6053V185.424C64.6053 185.661 64.6396 185.838 64.7083 185.956C64.7793 186.073 64.8693 186.151 64.9782 186.191C65.0894 186.229 65.2066 186.248 65.3297 186.248C65.4221 186.248 65.4978 186.243 65.557 186.233C65.6162 186.222 65.6635 186.212 65.699 186.205L65.8695 186.958C65.8127 186.979 65.7334 187.001 65.6316 187.022C65.5298 187.046 65.4007 187.057 65.2445 187.057C65.0078 187.057 64.7757 187.006 64.5485 186.905C64.3236 186.803 64.1365 186.648 63.9874 186.439C63.8406 186.231 63.7672 185.968 63.7672 185.651V180.225ZM67.5705 189.032C67.4284 189.032 67.3018 189.02 67.1905 188.996C67.0792 188.975 67.0023 188.954 66.9597 188.932L67.1728 188.194C67.3764 188.246 67.5563 188.265 67.7125 188.251C67.8688 188.236 68.0073 188.166 68.128 188.041C68.2511 187.918 68.3636 187.718 68.4654 187.441L68.6216 187.015L66.6046 181.532H67.5137L69.0194 185.878H69.0762L70.5819 181.532H71.4909L69.1756 187.782C69.0714 188.064 68.9424 188.297 68.7885 188.481C68.6346 188.668 68.4559 188.807 68.2523 188.897C68.0511 188.987 67.8238 189.032 67.5705 189.032Z" fill="#0C0C0C"/>
<path d="M341.502 154.366V142.002H343.368V152.76H348.97V154.366H341.502ZM350.953 154.366V145.093H352.758V154.366H350.953ZM351.865 143.662C351.551 143.662 351.281 143.558 351.056 143.348C350.834 143.135 350.724 142.881 350.724 142.588C350.724 142.29 350.834 142.036 351.056 141.827C351.281 141.614 351.551 141.507 351.865 141.507C352.179 141.507 352.446 141.614 352.668 141.827C352.893 142.036 353.006 142.29 353.006 142.588C353.006 142.881 352.893 143.135 352.668 143.348C352.446 143.558 352.179 143.662 351.865 143.662ZM363.119 145.093L359.757 154.366H357.825L354.456 145.093H356.394L358.742 152.229H358.839L361.181 145.093H363.119ZM368.496 154.553C367.583 154.553 366.796 154.358 366.136 153.967C365.48 153.573 364.973 153.019 364.615 152.307C364.261 151.591 364.083 150.752 364.083 149.79C364.083 148.84 364.261 148.003 364.615 147.278C364.973 146.554 365.472 145.988 366.112 145.582C366.756 145.175 367.508 144.972 368.37 144.972C368.893 144.972 369.4 145.059 369.891 145.232C370.382 145.405 370.823 145.677 371.213 146.047C371.604 146.417 371.911 146.898 372.137 147.49C372.362 148.077 372.475 148.792 372.475 149.633V150.273H365.104V148.92H370.706C370.706 148.446 370.609 148.025 370.416 147.659C370.223 147.288 369.951 146.997 369.601 146.783C369.255 146.57 368.849 146.463 368.382 146.463C367.875 146.463 367.432 146.588 367.054 146.838C366.679 147.083 366.39 147.405 366.184 147.804C365.983 148.198 365.883 148.627 365.883 149.089V150.146C365.883 150.766 365.991 151.293 366.208 151.728C366.43 152.162 366.738 152.494 367.132 152.724C367.527 152.949 367.987 153.062 368.515 153.062C368.857 153.062 369.169 153.013 369.45 152.917C369.732 152.816 369.976 152.667 370.181 152.47C370.386 152.273 370.543 152.029 370.652 151.74L372.36 152.048C372.223 152.551 371.978 152.991 371.624 153.37C371.273 153.744 370.833 154.036 370.302 154.245C369.774 154.45 369.173 154.553 368.496 154.553ZM332.091 163.002L335.532 173.072H335.671L339.112 163.002H341.128L336.679 175.366H334.524L330.074 163.002H332.091ZM344.554 175.571C343.966 175.571 343.435 175.462 342.96 175.245C342.485 175.024 342.109 174.704 341.831 174.285C341.558 173.867 341.421 173.353 341.421 172.746C341.421 172.222 341.521 171.792 341.723 171.454C341.924 171.116 342.196 170.848 342.538 170.651C342.88 170.454 343.262 170.305 343.685 170.204C344.107 170.104 344.538 170.027 344.977 169.975C345.532 169.91 345.983 169.858 346.329 169.818C346.675 169.774 346.927 169.703 347.083 169.606C347.24 169.51 347.319 169.353 347.319 169.136V169.093C347.319 168.566 347.17 168.158 346.872 167.868C346.578 167.578 346.14 167.433 345.556 167.433C344.948 167.433 344.47 167.568 344.119 167.838C343.773 168.103 343.534 168.399 343.401 168.725L341.705 168.339C341.906 167.775 342.2 167.321 342.586 166.974C342.976 166.624 343.425 166.371 343.932 166.214C344.439 166.053 344.973 165.972 345.532 165.972C345.902 165.972 346.295 166.017 346.709 166.105C347.128 166.19 347.518 166.347 347.88 166.576C348.247 166.805 348.546 167.133 348.78 167.56C349.013 167.983 349.13 168.532 349.13 169.208V175.366H347.367V174.098H347.295C347.178 174.331 347.003 174.561 346.77 174.786C346.536 175.012 346.236 175.199 345.87 175.348C345.504 175.497 345.065 175.571 344.554 175.571ZM344.946 174.122C345.445 174.122 345.872 174.024 346.226 173.826C346.584 173.629 346.856 173.372 347.041 173.054C347.23 172.732 347.325 172.388 347.325 172.021V170.826C347.261 170.89 347.136 170.951 346.951 171.007C346.77 171.059 346.562 171.106 346.329 171.146C346.095 171.182 345.868 171.216 345.647 171.249C345.425 171.277 345.24 171.301 345.091 171.321C344.741 171.365 344.421 171.44 344.131 171.544C343.846 171.649 343.616 171.8 343.443 171.997C343.274 172.19 343.19 172.448 343.19 172.77C343.19 173.217 343.355 173.555 343.685 173.784C344.015 174.009 344.435 174.122 344.946 174.122ZM353.339 163.002V175.366H351.534V163.002H353.339ZM361.642 171.52V166.093H363.453V175.366H361.678V173.76H361.581C361.368 174.255 361.026 174.667 360.555 174.997C360.088 175.323 359.506 175.486 358.81 175.486C358.215 175.486 357.687 175.356 357.229 175.094C356.774 174.828 356.416 174.436 356.154 173.917C355.896 173.398 355.768 172.756 355.768 171.991V166.093H357.573V171.774C357.573 172.406 357.748 172.909 358.098 173.283C358.448 173.657 358.903 173.844 359.462 173.844C359.8 173.844 360.136 173.76 360.47 173.591C360.808 173.422 361.088 173.166 361.31 172.824C361.535 172.482 361.646 172.047 361.642 171.52ZM369.874 175.553C368.961 175.553 368.174 175.358 367.514 174.967C366.858 174.573 366.351 174.019 365.993 173.307C365.639 172.591 365.461 171.752 365.461 170.79C365.461 169.84 365.639 169.003 365.993 168.278C366.351 167.554 366.85 166.988 367.49 166.582C368.134 166.175 368.886 165.972 369.748 165.972C370.271 165.972 370.778 166.059 371.269 166.232C371.76 166.405 372.201 166.677 372.591 167.047C372.981 167.417 373.289 167.898 373.515 168.49C373.74 169.077 373.853 169.792 373.853 170.633V171.273H366.482V169.92H372.084C372.084 169.446 371.987 169.025 371.794 168.659C371.601 168.288 371.329 167.997 370.979 167.783C370.633 167.57 370.227 167.463 369.76 167.463C369.253 167.463 368.81 167.588 368.432 167.838C368.057 168.083 367.768 168.405 367.562 168.804C367.361 169.198 367.26 169.627 367.26 170.089V171.146C367.26 171.766 367.369 172.293 367.586 172.728C367.808 173.162 368.116 173.494 368.51 173.724C368.904 173.949 369.365 174.062 369.893 174.062C370.235 174.062 370.547 174.013 370.828 173.917C371.11 173.816 371.353 173.667 371.559 173.47C371.764 173.273 371.921 173.029 372.03 172.74L373.738 173.048C373.601 173.551 373.356 173.991 373.002 174.37C372.651 174.744 372.211 175.036 371.679 175.245C371.152 175.45 370.551 175.553 369.874 175.553ZM382.804 168.357L381.168 168.647C381.1 168.437 380.991 168.238 380.842 168.049C380.697 167.86 380.5 167.705 380.25 167.584C380.001 167.463 379.689 167.403 379.315 167.403C378.804 167.403 378.377 167.518 378.035 167.747C377.693 167.972 377.522 168.264 377.522 168.622C377.522 168.932 377.636 169.182 377.866 169.371C378.095 169.56 378.465 169.715 378.977 169.836L380.45 170.174C381.303 170.371 381.939 170.675 382.357 171.086C382.776 171.496 382.985 172.029 382.985 172.685C382.985 173.241 382.824 173.736 382.502 174.17C382.184 174.601 381.74 174.939 381.168 175.185C380.601 175.43 379.943 175.553 379.194 175.553C378.156 175.553 377.308 175.332 376.652 174.889C375.996 174.442 375.594 173.808 375.445 172.987L377.19 172.722C377.298 173.176 377.522 173.52 377.86 173.754C378.198 173.983 378.639 174.098 379.182 174.098C379.773 174.098 380.246 173.975 380.601 173.73C380.955 173.48 381.132 173.176 381.132 172.818C381.132 172.528 381.023 172.285 380.806 172.088C380.592 171.89 380.264 171.742 379.822 171.641L378.252 171.297C377.387 171.1 376.747 170.786 376.332 170.355C375.922 169.924 375.717 169.379 375.717 168.719C375.717 168.172 375.87 167.693 376.175 167.282C376.481 166.872 376.904 166.552 377.443 166.322C377.983 166.089 378.6 165.972 379.297 165.972C380.299 165.972 381.088 166.19 381.663 166.624C382.239 167.055 382.619 167.632 382.804 168.357Z" fill="#0C0C0C"/>
<rect x="20.3643" y="483.566" width="207.427" height="21" rx="10.5" fill="#F85550"/>
<path d="M102.4 498.566V489.839H105.673C106.343 489.839 106.906 489.955 107.36 490.188C107.817 490.421 108.163 490.748 108.396 491.168C108.631 491.586 108.749 492.073 108.749 492.63C108.749 493.189 108.63 493.675 108.391 494.087C108.156 494.496 107.808 494.813 107.347 495.038C106.887 495.259 106.322 495.37 105.651 495.37H103.32V494.057H105.438C105.83 494.057 106.151 494.003 106.401 493.895C106.651 493.785 106.836 493.624 106.955 493.414C107.077 493.201 107.138 492.939 107.138 492.63C107.138 492.32 107.077 492.056 106.955 491.837C106.833 491.616 106.647 491.448 106.397 491.334C106.147 491.218 105.825 491.16 105.43 491.16H103.981V498.566H102.4ZM106.908 494.611L109.069 498.566H107.305L105.183 494.611H106.908ZM112.94 498.694C112.284 498.694 111.717 498.557 111.24 498.285C110.766 498.009 110.401 497.62 110.145 497.117C109.889 496.611 109.761 496.016 109.761 495.332C109.761 494.658 109.889 494.067 110.145 493.559C110.403 493.047 110.764 492.65 111.227 492.366C111.69 492.079 112.234 491.935 112.859 491.935C113.263 491.935 113.643 492.001 114.001 492.131C114.362 492.259 114.68 492.458 114.956 492.728C115.234 492.998 115.453 493.341 115.612 493.759C115.771 494.174 115.851 494.668 115.851 495.242V495.715H110.486V494.675H114.372C114.369 494.38 114.305 494.117 114.18 493.887C114.055 493.654 113.881 493.471 113.656 493.337C113.435 493.204 113.176 493.137 112.881 493.137C112.565 493.137 112.288 493.214 112.05 493.367C111.811 493.518 111.625 493.716 111.491 493.964C111.361 494.208 111.294 494.476 111.291 494.769V495.677C111.291 496.057 111.361 496.384 111.5 496.657C111.639 496.927 111.834 497.134 112.084 497.279C112.334 497.421 112.626 497.492 112.962 497.492C113.186 497.492 113.389 497.461 113.571 497.398C113.753 497.333 113.911 497.238 114.044 497.113C114.178 496.988 114.278 496.833 114.347 496.648L115.787 496.81C115.696 497.191 115.523 497.523 115.267 497.807C115.014 498.089 114.69 498.307 114.295 498.464C113.901 498.617 113.449 498.694 112.94 498.694ZM120.471 492.02V493.214H116.602V492.02H120.471ZM117.569 498.566V491.403C117.569 490.962 117.66 490.596 117.842 490.303C118.027 490.011 118.274 489.792 118.583 489.647C118.893 489.502 119.237 489.43 119.615 489.43C119.882 489.43 120.119 489.451 120.326 489.493C120.534 489.536 120.687 489.574 120.787 489.609L120.48 490.802C120.414 490.782 120.332 490.762 120.233 490.742C120.133 490.719 120.022 490.708 119.9 490.708C119.613 490.708 119.41 490.778 119.291 490.917C119.174 491.053 119.116 491.249 119.116 491.505V498.566H117.569ZM121.679 498.566V492.02H123.175V493.111H123.243C123.363 492.734 123.567 492.442 123.857 492.238C124.15 492.03 124.483 491.927 124.858 491.927C124.944 491.927 125.039 491.931 125.144 491.939C125.252 491.945 125.341 491.955 125.412 491.969V493.388C125.347 493.366 125.243 493.346 125.101 493.329C124.962 493.309 124.827 493.299 124.696 493.299C124.415 493.299 124.162 493.36 123.938 493.482C123.716 493.601 123.542 493.768 123.414 493.981C123.286 494.194 123.222 494.439 123.222 494.718V498.566H121.679ZM129.065 498.694C128.409 498.694 127.842 498.557 127.365 498.285C126.891 498.009 126.526 497.62 126.27 497.117C126.014 496.611 125.886 496.016 125.886 495.332C125.886 494.658 126.014 494.067 126.27 493.559C126.528 493.047 126.889 492.65 127.352 492.366C127.815 492.079 128.359 491.935 128.984 491.935C129.388 491.935 129.768 492.001 130.126 492.131C130.487 492.259 130.805 492.458 131.081 492.728C131.359 492.998 131.578 493.341 131.737 493.759C131.896 494.174 131.976 494.668 131.976 495.242V495.715H126.611V494.675H130.497C130.494 494.38 130.43 494.117 130.305 493.887C130.18 493.654 130.006 493.471 129.781 493.337C129.56 493.204 129.301 493.137 129.006 493.137C128.69 493.137 128.413 493.214 128.175 493.367C127.936 493.518 127.75 493.716 127.616 493.964C127.486 494.208 127.419 494.476 127.416 494.769V495.677C127.416 496.057 127.486 496.384 127.625 496.657C127.764 496.927 127.959 497.134 128.209 497.279C128.459 497.421 128.751 497.492 129.087 497.492C129.311 497.492 129.514 497.461 129.696 497.398C129.878 497.333 130.036 497.238 130.169 497.113C130.303 496.988 130.403 496.833 130.472 496.648L131.912 496.81C131.821 497.191 131.648 497.523 131.392 497.807C131.139 498.089 130.815 498.307 130.42 498.464C130.026 498.617 129.574 498.694 129.065 498.694ZM138.454 493.751L137.048 493.904C137.008 493.762 136.939 493.628 136.839 493.503C136.743 493.378 136.612 493.278 136.447 493.201C136.282 493.124 136.081 493.086 135.842 493.086C135.521 493.086 135.251 493.155 135.032 493.295C134.816 493.434 134.71 493.614 134.713 493.836C134.71 494.026 134.779 494.181 134.922 494.3C135.066 494.42 135.305 494.518 135.637 494.594L136.754 494.833C137.373 494.966 137.833 495.178 138.135 495.468C138.439 495.758 138.592 496.137 138.595 496.606C138.592 497.018 138.471 497.381 138.233 497.697C137.997 498.009 137.669 498.253 137.248 498.43C136.828 498.606 136.345 498.694 135.799 498.694C134.998 498.694 134.353 498.526 133.865 498.191C133.376 497.853 133.085 497.383 132.991 496.78L134.495 496.636C134.564 496.931 134.708 497.154 134.93 497.305C135.152 497.455 135.44 497.53 135.795 497.53C136.162 497.53 136.456 497.455 136.677 497.305C136.902 497.154 137.014 496.968 137.014 496.746C137.014 496.559 136.941 496.404 136.797 496.282C136.654 496.16 136.433 496.066 136.132 496.001L135.015 495.766C134.387 495.636 133.923 495.415 133.622 495.106C133.321 494.793 133.172 494.398 133.174 493.921C133.172 493.518 133.281 493.168 133.502 492.873C133.727 492.574 134.038 492.344 134.436 492.182C134.836 492.018 135.298 491.935 135.821 491.935C136.588 491.935 137.191 492.099 137.632 492.425C138.075 492.752 138.349 493.194 138.454 493.751ZM141.409 494.731V498.566H139.867V489.839H141.375V493.133H141.452C141.605 492.763 141.843 492.472 142.164 492.259C142.488 492.043 142.9 491.935 143.4 491.935C143.854 491.935 144.25 492.03 144.588 492.221C144.926 492.411 145.188 492.689 145.373 493.056C145.56 493.422 145.654 493.87 145.654 494.398V498.566H144.111V494.637C144.111 494.197 143.998 493.854 143.77 493.61C143.546 493.363 143.23 493.239 142.824 493.239C142.551 493.239 142.307 493.299 142.091 493.418C141.878 493.535 141.711 493.704 141.588 493.925C141.469 494.147 141.409 494.415 141.409 494.731Z" fill="white"/>
<path d="M356.704 470.679C351.701 470.682 346.876 472.536 343.157 475.883V472.372C343.157 471.923 342.978 471.492 342.661 471.175C342.343 470.857 341.912 470.679 341.463 470.679C341.014 470.679 340.583 470.857 340.266 471.175C339.948 471.492 339.77 471.923 339.77 472.372V477.452C339.77 478.8 340.305 480.092 341.258 481.045C342.21 481.998 343.503 482.533 344.85 482.533H349.93C350.379 482.533 350.81 482.354 351.128 482.037C351.445 481.719 351.624 481.288 351.624 480.839C351.624 480.39 351.445 479.959 351.128 479.642C350.81 479.324 350.379 479.146 349.93 479.146H344.85C344.793 479.137 344.736 479.126 344.681 479.11C347.44 476.331 351.079 474.596 354.975 474.201C358.872 473.805 362.785 474.775 366.046 476.943C369.307 479.111 371.715 482.345 372.858 486.091C374.001 489.837 373.809 493.863 372.314 497.483C370.818 501.103 368.113 504.092 364.66 505.939C361.206 507.787 357.219 508.378 353.378 507.613C349.537 506.848 346.08 504.773 343.599 501.744C341.117 498.714 339.764 494.916 339.77 491C339.77 490.551 339.591 490.12 339.274 489.803C338.956 489.485 338.525 489.307 338.076 489.307C337.627 489.307 337.196 489.485 336.879 489.803C336.561 490.12 336.383 490.551 336.383 491C336.383 495.019 337.575 498.948 339.808 502.29C342.04 505.632 345.214 508.236 348.927 509.774C352.641 511.312 356.727 511.715 360.669 510.931C364.611 510.147 368.231 508.211 371.073 505.369C373.915 502.527 375.851 498.906 376.635 494.964C377.419 491.023 377.017 486.937 375.479 483.223C373.94 479.51 371.336 476.336 367.994 474.103C364.652 471.871 360.723 470.679 356.704 470.679Z" fill="#575757"/>
<defs>
<filter id="filter0_d_370_2855" x="11.5" y="16.728" width="228" height="64" filterUnits="userSpaceOnUse" color-interpolation-filters="sRGB">
<feFlood flood-opacity="0" result="BackgroundImageFix"/>
<feColorMatrix in="SourceAlpha" type="matrix" values="0 0 0 0 0 0 0 0 0 0 0 0 0 0 0 0 0 0 127 0" result="hardAlpha"/>
<feMorphology radius="1" operator="dilate" in="SourceAlpha" result="effect1_dropShadow_370_2855"/>
<feOffset dy="1"/>
<feGaussianBlur stdDeviation="2.5"/>
<feComposite in2="hardAlpha" operator="out"/>
<feColorMatrix type="matrix" values="0 0 0 0 0 0 0 0 0 0 0 0 0 0 0 0 0 0 0.1 0"/>
<feBlend mode="normal" in2="BackgroundImageFix" result="effect1_dropShadow_370_2855"/>
<feBlend mode="normal" in="SourceGraphic" in2="effect1_dropShadow_370_2855" result="shape"/>
</filter>
<filter id="filter1_d_370_2855" x="10.5" y="117" width="228" height="48.8115" filterUnits="userSpaceOnUse" color-interpolation-filters="sRGB">
<feFlood flood-opacity="0" result="BackgroundImageFix"/>
<feColorMatrix in="SourceAlpha" type="matrix" values="0 0 0 0 0 0 0 0 0 0 0 0 0 0 0 0 0 0 127 0" result="hardAlpha"/>
<feMorphology radius="1" operator="dilate" in="SourceAlpha" result="effect1_dropShadow_370_2855"/>
<feOffset dy="1"/>
<feGaussianBlur stdDeviation="2.5"/>
<feComposite in2="hardAlpha" operator="out"/>
<feColorMatrix type="matrix" values="0 0 0 0 0 0 0 0 0 0 0 0 0 0 0 0 0 0 0.1 0"/>
<feBlend mode="normal" in2="BackgroundImageFix" result="effect1_dropShadow_370_2855"/>
<feBlend mode="normal" in="SourceGraphic" in2="effect1_dropShadow_370_2855" result="shape"/>
</filter>
<filter id="filter2_d_370_2855" x="10.5" y="160.081" width="228" height="48.8115" filterUnits="userSpaceOnUse" color-interpolation-filters="sRGB">
<feFlood flood-opacity="0" result="BackgroundImageFix"/>
<feColorMatrix in="SourceAlpha" type="matrix" values="0 0 0 0 0 0 0 0 0 0 0 0 0 0 0 0 0 0 127 0" result="hardAlpha"/>
<feMorphology radius="1" operator="dilate" in="SourceAlpha" result="effect1_dropShadow_370_2855"/>
<feOffset dy="1"/>
<feGaussianBlur stdDeviation="2.5"/>
<feComposite in2="hardAlpha" operator="out"/>
<feColorMatrix type="matrix" values="0 0 0 0 0 0 0 0 0 0 0 0 0 0 0 0 0 0 0.1 0"/>
<feBlend mode="normal" in2="BackgroundImageFix" result="effect1_dropShadow_370_2855"/>
<feBlend mode="normal" in="SourceGraphic" in2="effect1_dropShadow_370_2855" result="shape"/>
</filter>
<linearGradient id="paint0_linear_370_2855" x1="128.5" y1="0.228027" x2="128.5" y2="533.228" gradientUnits="userSpaceOnUse">
<stop stop-color="#2F67FF"/>
<stop offset="1" stop-color="#FF5F9B"/>
</linearGradient>
<linearGradient id="paint1_linear_370_2855" x1="250.063" y1="492.697" x2="306.704" y2="492.697" gradientUnits="userSpaceOnUse">
<stop stop-color="#2F67FF"/>
<stop offset="1" stop-color="#C262B8"/>
</linearGradient>
<linearGradient id="paint2_linear_370_2855" x1="250.063" y1="138.684" x2="311.666" y2="138.684" gradientUnits="userSpaceOnUse">
<stop stop-color="#2F67FF"/>
<stop offset="1" stop-color="#FF5F9B"/>
</linearGradient>
<linearGradient id="paint3_linear_370_2855" x1="250.063" y1="182.687" x2="313.896" y2="182.687" gradientUnits="userSpaceOnUse">
<stop stop-color="#2F67FF"/>
<stop offset="1" stop-color="#FF5F9B"/>
</linearGradient>
<linearGradient id="paint4_linear_370_2855" x1="356.704" y1="441" x2="356.704" y2="541" gradientUnits="userSpaceOnUse">
<stop stop-color="#2F67FF"/>
<stop offset="1" stop-color="#FF5F9B"/>
</linearGradient>
<linearGradient id="paint5_linear_370_2855" x1="356.704" y1="108.812" x2="356.704" y2="208.812" gradientUnits="userSpaceOnUse">
<stop stop-color="#2F67FF"/>
<stop offset="1" stop-color="#FF5F9B"/>
</linearGradient>
</defs>
</svg>
