<svg xmlns="http://www.w3.org/2000/svg" width="407" height="541" fill="none" xmlns:v="https://vecta.io/nano"><style><![CDATA[.B{fill:#fff}.C{color-interpolation-filters:sRGB}.D{flood-opacity:0}.E{fill:#b8b8b8}]]></style><rect x=".25" y=".25" width="255.5" height="532.5" rx="9.75" stroke="url(#H)" stroke-width=".5" class="B"/><path d="M253.297 493.27c0-2.062-1.672-3.734-3.734-3.734s-3.733 1.672-3.733 3.734 1.672 3.733 3.733 3.733 3.734-1.672 3.734-3.733zm52.907 0v-.7h-56.641v.7.7h56.641v-.7z" fill="url(#I)"/><path d="M253.297 139.256c0-2.062-1.672-3.733-3.734-3.733s-3.733 1.671-3.733 3.733 1.672 3.733 3.733 3.733 3.734-1.671 3.734-3.733zm57.869 0v-.7h-61.603v.7.7h61.603v-.7z" fill="url(#J)"/><path d="M253.297 183.258c0-2.062-1.672-3.734-3.734-3.734s-3.733 1.672-3.733 3.734 1.672 3.733 3.733 3.733 3.734-1.671 3.734-3.733zm60.099 0v-.7h-63.833v.7.7h63.833v-.7z" fill="url(#K)"/><path d="M253.297 226.339c0-2.062-1.672-3.733-3.734-3.733s-3.733 1.671-3.733 3.733 1.672 3.733 3.733 3.733 3.734-1.671 3.734-3.733zm102.907 0v-.7H249.563v.7.7h106.641v-.7z" fill="url(#L)"/><path d="M253.297 272.264c0-2.062-1.672-3.734-3.734-3.734s-3.733 1.672-3.733 3.734 1.672 3.733 3.733 3.733 3.734-1.671 3.734-3.733zm102.907 0v-.7H249.563v.7.7h106.641v-.7z" fill="url(#M)"/><path d="M253.297 318.188c0-2.061-1.672-3.733-3.734-3.733s-3.733 1.672-3.733 3.733 1.672 3.734 3.733 3.734 3.734-1.672 3.734-3.734zm102.907 0v-.7H249.563v.7.7h106.641v-.7z" fill="url(#N)"/><path d="M253.297 364.113c0-2.062-1.672-3.733-3.734-3.733s-3.733 1.671-3.733 3.733 1.672 3.734 3.733 3.734 3.734-1.672 3.734-3.734zm102.907 0v-.7H249.563v.7.7h106.641v-.7z" fill="url(#O)"/><path d="M356.904 207.933a.7.7 0 0 0-1.4 0h.7.7zm-.7 156.68h.7v-156.68h-.7-.7v156.68h.7z" fill="url(#P)"/><g filter="url(#A)" class="B"><rect x="17" y="21.5" width="216" height="52" rx="10"/></g><g stroke-width=".5" stroke="#5a5c66" stroke-miterlimit="22.9256"><path d="M32.51 35.5h10.664a.51.51 0 0 1 .51.51v21.964l-1.219 3.725c-.068.138-.215.206-.42.221l-.18.095-3.869.017-4.04-.015c-.051-.027-.042-.048-.099-.053-.341-.029-.491-.133-.537-.274L32 57.936v-4.184V36.01a.51.51 0 0 1 .51-.51h0z"/><path d="M32.815 35.5l2.076 1.048 5.977.005 2.076-1.053-1.75 1.325s-.272.261-.644.236h-5.187s-.432.079-.823-.293L32.815 35.5z" stroke-linejoin="round"/><path d="M34.131 37.578l7.604.002 1.763-1.963m-9.833 2.314c0-.065-1.665-1.75-1.665-1.75"/><path d="M34.158 37.604l-1.98-1.98m10.003 2.307c0-.065 1.502-1.75 1.502-1.75"/><path d="M33.662 57.974V38.013s-.081-.435.511-.435m8.004 20.396V38.013s.081-.435-.511-.435"/><path d="M32 53.81l1.662 4.08s.011.19.614.242 7.357 0 7.357 0 .481.005.592-.293l1.432-4.048v.152l-1.391 3.938s-.041.327-.467.352-7.363.026-7.363.026-.776.076-.852-.378L32 53.849m1.89 8.122l1.573-2.466c.046-.086.134-.177.208-.236.202-.16.45-.228.707-.232h2.986c.109-.008.247.011.351.037a1.18 1.18 0 0 1 .648.411l.004.005 1.594 2.475m-2.424.545h-.025m-3.218-.003h-.037"/><path d="M33.997 62.017l1.565-2.455s.206-.402.815-.41h2.991s.543-.046.905.405l1.583 2.458m-2.235.379h-.005m-3.439-.003h-.014m-2.501-4.417l-.356 3.677m.884-3.389l-.28 3.722m8.267-4.057l.332 3.639m-.768-3.332l.291 3.693m-7.901-24.349l.055 20.68m7.571-20.656l-.016 20.632"/><path d="M36.395 62.023h-.303v.208a.71.71 0 0 0 .281.368c.071.444.37.758 1.52.778 1.135.02 1.441-.31 1.517-.756.221-.156.303-.365.33-.598h-.349-2.997z"/><path d="M37.192 62.029v.799"/><use href="#S"/><use href="#S" x="0.209"/><use href="#S" x="0.418"/><use href="#S" x="0.628"/><use href="#S" x="0.837"/><use href="#S" x="1.046"/><use href="#S" x="1.255"/><path d="M39.758 62.024c-.07.479-.41.844-1.865.824s-1.793-.355-1.864-.823"/></g><path d="M156.733 48.5h-.881c-.052-.253-.143-.476-.273-.668a1.82 1.82 0 0 0-.469-.483c-.182-.133-.385-.232-.607-.298a2.43 2.43 0 0 0-.696-.099 2.22 2.22 0 0 0-1.197.334c-.355.223-.638.55-.849.984s-.312.965-.312 1.594.104 1.161.312 1.595.494.761.849.984a2.22 2.22 0 0 0 1.197.334 2.43 2.43 0 0 0 .696-.099 2.04 2.04 0 0 0 .607-.295 1.87 1.87 0 0 0 .469-.486c.13-.194.221-.417.273-.668h.881a2.93 2.93 0 0 1-.362.998c-.175.294-.393.543-.654.749s-.552.359-.877.465-.666.16-1.033.16c-.62 0-1.172-.152-1.655-.455s-.863-.734-1.14-1.293-.415-1.222-.415-1.989.138-1.43.415-1.989.657-.99 1.14-1.293 1.035-.455 1.655-.455c.367 0 .711.053 1.033.16a2.81 2.81 0 0 1 .877.469 2.67 2.67 0 0 1 .654.746c.175.291.296.624.362.998zm3.525 5.114c-.492 0-.924-.117-1.296-.352s-.658-.562-.866-.984-.309-.914-.309-1.477.103-1.064.309-1.488.497-.753.866-.987.804-.352 1.296-.352.924.117 1.293.352.66.563.866.987.313.92.313 1.488-.104 1.056-.313 1.477-.494.749-.866.984-.8.352-1.293.352zm0-.753c.374 0 .682-.096.924-.288a1.7 1.7 0 0 0 .536-.756c.116-.312.174-.651.174-1.016s-.058-.704-.174-1.019a1.72 1.72 0 0 0-.536-.763c-.242-.194-.55-.291-.924-.291s-.681.097-.923.291a1.72 1.72 0 0 0-.536.763c-.116.315-.174.655-.174 1.019s.058.703.174 1.016a1.7 1.7 0 0 0 .536.756c.242.192.549.288.923.288zm4.589-2.642V53.5h-.838v-5.455h.81v.852h.071a1.56 1.56 0 0 1 .582-.668c.261-.17.597-.256 1.009-.256.369 0 .692.076.969.227s.493.376.647.682.23.687.23 1.151V53.5h-.838v-3.409c0-.428-.111-.762-.333-1.001s-.528-.362-.917-.362c-.267 0-.506.058-.717.174a1.25 1.25 0 0 0-.494.508c-.12.222-.181.492-.181.81zm5.85 0V53.5h-.838v-5.455h.81v.852h.071c.127-.277.321-.499.582-.668s.597-.256 1.008-.256c.37 0 .693.076.97.227a1.53 1.53 0 0 1 .646.682c.154.303.231.687.231 1.151V53.5h-.838v-3.409c0-.428-.111-.762-.334-1.001s-.528-.362-.916-.362c-.268 0-.507.058-.717.174s-.373.285-.494.508-.181.492-.181.81zm7.298 3.395c-.525 0-.979-.116-1.36-.348a2.34 2.34 0 0 1-.877-.98c-.203-.421-.305-.911-.305-1.47s.102-1.051.305-1.477a2.41 2.41 0 0 1 .86-1.001c.369-.241.8-.362 1.292-.362a2.59 2.59 0 0 1 .842.142c.277.095.529.249.756.462a2.2 2.2 0 0 1 .543.838c.135.348.203.776.203 1.285v.355h-4.205v-.724h3.353a1.79 1.79 0 0 0-.185-.824 1.4 1.4 0 0 0-.518-.572c-.223-.14-.486-.209-.789-.209-.334 0-.622.083-.866.249a1.63 1.63 0 0 0-.558.639 1.88 1.88 0 0 0-.195.845v.483c0 .412.071.761.213 1.048a1.53 1.53 0 0 0 .6.65 1.76 1.76 0 0 0 .891.22c.221 0 .419-.031.597-.092s.335-.159.465-.284.231-.287.302-.476l.81.227c-.086.275-.229.516-.43.724s-.45.367-.746.483-.628.17-.998.17zm5.75 0c-.512 0-.952-.121-1.321-.362s-.654-.574-.853-.998-.298-.908-.298-1.453c0-.554.102-1.043.305-1.467s.493-.759.86-.998.8-.362 1.292-.362c.384 0 .73.071 1.037.213a1.99 1.99 0 0 1 .757.597c.196.256.318.554.366.895h-.839c-.063-.249-.205-.469-.426-.66s-.511-.291-.88-.291c-.327 0-.613.085-.86.256a1.66 1.66 0 0 0-.571.714c-.135.305-.203.664-.203 1.076 0 .421.066.788.199 1.101s.324.555.568.728a1.47 1.47 0 0 0 .867.259 1.5 1.5 0 0 0 .593-.114 1.23 1.23 0 0 0 .451-.327 1.25 1.25 0 0 0 .262-.511h.839a1.95 1.95 0 0 1-.352.87 1.97 1.97 0 0 1-.735.611c-.303.149-.656.224-1.058.224zm5.742-5.568v.71h-2.827v-.71h2.827zm-2.003-1.307h.838v5.199c0 .237.034.414.103.533s.161.194.27.234a1.08 1.08 0 0 0 .352.057 1.49 1.49 0 0 0 .227-.014l.142-.028.17.753c-.057.021-.136.043-.238.064a1.74 1.74 0 0 1-.387.035 1.69 1.69 0 0 1-.696-.153 1.38 1.38 0 0 1-.561-.465c-.147-.208-.22-.471-.22-.788v-5.426zm5.492 6.875c-.526 0-.979-.116-1.36-.348s-.671-.561-.877-.98-.306-.911-.306-1.47.102-1.051.306-1.477.492-.762.859-1.001.8-.362 1.293-.362c.284 0 .564.047.841.142s.529.249.757.462.408.49.543.838.202.776.202 1.285v.355h-4.204v-.724h3.352c0-.308-.061-.582-.185-.824s-.293-.432-.518-.572-.485-.209-.788-.209c-.334 0-.623.083-.867.249s-.427.376-.557.639-.196.544-.196.845v.483c0 .412.071.761.213 1.048a1.54 1.54 0 0 0 .601.65c.255.147.552.22.891.22a1.81 1.81 0 0 0 .596-.092 1.29 1.29 0 0 0 .466-.284c.13-.128.23-.287.301-.476l.81.227c-.085.275-.228.516-.43.724s-.449.367-.745.483-.629.17-.998.17zm5.593 0c-.455 0-.856-.115-1.204-.344a2.33 2.33 0 0 1-.817-.98c-.196-.424-.294-.924-.294-1.502s.098-1.07.294-1.491.47-.747.821-.977.755-.344 1.214-.344c.355 0 .636.059.842.178s.367.249.476.398l.259.362h.071v-2.685h.838V53.5h-.81v-.838h-.099a5.42 5.42 0 0 1-.263.377 1.57 1.57 0 0 1-.486.401c-.211.116-.492.174-.842.174zm.114-.753c.336 0 .62-.088.852-.263s.408-.423.529-.735.181-.678.181-1.09-.059-.764-.178-1.069-.293-.547-.525-.717-.519-.259-.859-.259c-.356 0-.652.091-.888.273a1.63 1.63 0 0 0-.529.735c-.116.308-.174.653-.174 1.037s.059.741.177 1.058.298.566.533.753.53.277.881.277z" class="E"/><path d="M57.799 45.227h1.332l2.315 5.653h.085l2.315-5.653h1.332V52.5h-1.044v-5.263h-.067l-2.145 5.252h-.867l-2.145-5.256h-.067V52.5h-1.044v-7.273zm9.738 0l1.74 2.844h.057l1.74-2.844h1.271l-2.266 3.636 2.28 3.636h-1.278l-1.747-2.805h-.057L67.53 52.5h-1.278l2.319-3.636-2.305-3.636h1.271zm5.645 5.852v-.888l3.143-4.965h.7v1.307h-.444l-2.248 3.558v.057h4.308v.93h-5.458zm3.448 1.42v-1.69l.007-.405v-5.178h1.041V52.5H76.63zm5.779.099c-.488 0-.923-.084-1.307-.252s-.683-.401-.906-.7-.338-.649-.355-1.044h1.115a.96.96 0 0 0 .217.561c.132.156.305.277.518.362s.45.128.71.128a1.83 1.83 0 0 0 .76-.149c.223-.099.397-.238.522-.415a1.06 1.06 0 0 0 .188-.621c0-.244-.063-.458-.188-.643s-.304-.334-.543-.44-.523-.16-.859-.16h-.614v-.895h.614c.27 0 .507-.049.71-.146s.367-.232.483-.405.174-.38.174-.614c0-.225-.051-.42-.153-.586s-.242-.3-.426-.394-.398-.142-.646-.142a1.68 1.68 0 0 0-.664.131c-.204.085-.369.208-.497.369a.95.95 0 0 0-.206.572h-1.062c.012-.393.128-.739.348-1.037a2.25 2.25 0 0 1 .881-.7c.365-.168.769-.252 1.215-.252.466 0 .869.091 1.207.273a1.99 1.99 0 0 1 .788.721 1.81 1.81 0 0 1 .277.987c.002.407-.111.753-.341 1.037s-.53.475-.909.572v.057c.483.073.857.265 1.122.575s.4.695.398 1.154c.002.4-.109.759-.334 1.076s-.527.567-.913.749-.827.27-1.325.27zm3.761-1.52v-.888l3.143-4.965h.7v1.307h-.444l-2.248 3.558v.057h4.308v.93H86.17zm3.448 1.42v-1.69l.007-.405v-5.178h1.04V52.5h-1.048zm5.779.099c-.488 0-.923-.084-1.307-.252s-.683-.401-.906-.7-.338-.649-.355-1.044h1.115a.96.96 0 0 0 .217.561c.133.156.305.277.518.362s.45.128.71.128a1.83 1.83 0 0 0 .76-.149c.222-.099.396-.238.522-.415a1.06 1.06 0 0 0 .188-.621c0-.244-.063-.458-.188-.643s-.304-.334-.543-.44-.523-.16-.859-.16h-.614v-.895h.614c.27 0 .507-.049.71-.146s.367-.232.483-.405.174-.38.174-.614c0-.225-.051-.42-.153-.586s-.242-.3-.426-.394-.398-.142-.646-.142a1.68 1.68 0 0 0-.664.131c-.204.085-.369.208-.497.369a.95.95 0 0 0-.206.572h-1.062c.012-.393.128-.739.348-1.037a2.25 2.25 0 0 1 .881-.7c.365-.168.769-.252 1.215-.252.466 0 .869.091 1.207.273a1.99 1.99 0 0 1 .788.721 1.81 1.81 0 0 1 .277.987c.002.407-.111.753-.341 1.037s-.53.475-.909.572v.057c.483.073.857.265 1.122.575s.4.695.398 1.154c.002.4-.109.759-.334 1.076s-.527.567-.913.749-.827.27-1.325.27z" fill="#f85550"/><circle cx="214.5" cy="50" r="1.5" fill="#72cf70"/><path d="M217 50a2.5 2.5 0 1 1-5 0 2.5 2.5 0 1 1 5 0z" fill="#53ee50" fill-opacity=".35"/><path d="M22.125 108.5h-2.244v-7.273h2.344c.706 0 1.309.146 1.811.437s.887.704 1.154 1.247.401 1.186.401 1.938c0 .758-.135 1.41-.405 1.957s-.663.964-1.179 1.257-1.143.437-1.882.437zm-1.364-.781h1.307c.601 0 1.1-.116 1.495-.348s.69-.563.884-.991.291-.939.291-1.531-.096-1.092-.288-1.516a2.12 2.12 0 0 0-.859-.98c-.381-.23-.856-.344-1.424-.344h-1.406v5.71zm8.48.895c-.526 0-.979-.116-1.36-.348a2.34 2.34 0 0 1-.877-.98c-.204-.422-.305-.912-.305-1.471s.102-1.051.305-1.477a2.41 2.41 0 0 1 .859-1.001c.369-.242.8-.363 1.293-.363.284 0 .565.048.842.142a2.09 2.09 0 0 1 .756.462c.227.211.408.49.543.838s.202.777.202 1.286v.355h-4.204v-.725h3.352c0-.307-.061-.582-.185-.823s-.294-.433-.518-.572-.485-.21-.788-.21c-.334 0-.623.083-.866.249a1.63 1.63 0 0 0-.558.639 1.88 1.88 0 0 0-.195.845v.483c0 .412.071.761.213 1.048s.345.5.6.65.553.22.891.22c.22 0 .419-.031.597-.093s.335-.158.465-.284.231-.286.302-.475l.81.227c-.085.274-.229.516-.43.724s-.45.367-.746.483-.628.171-.998.171zm7.828-5.569l-2.017 5.455H34.2l-2.017-5.455h.909l1.506 4.347h.057l1.506-4.347h.909zm1.106 5.455v-5.455h.838v5.455h-.838zm.426-6.364c-.163 0-.304-.055-.423-.167s-.174-.245-.174-.401.058-.29.174-.401.259-.167.423-.167.303.056.419.167a.53.53 0 0 1 .178.401.53.53 0 0 1-.178.401.58.58 0 0 1-.419.167zm4.163 6.478c-.511 0-.952-.121-1.321-.363a2.36 2.36 0 0 1-.852-.997c-.199-.424-.298-.908-.298-1.453 0-.554.102-1.043.305-1.466s.492-.759.859-.998.8-.363 1.293-.363c.383 0 .729.071 1.037.214a1.98 1.98 0 0 1 .756.596c.197.256.318.554.366.895h-.838a1.3 1.3 0 0 0-.426-.661c-.218-.194-.511-.291-.881-.291-.327 0-.613.085-.859.256s-.434.406-.572.714-.202.664-.202 1.076c0 .421.066.788.199 1.101a1.69 1.69 0 0 0 .568.728c.246.172.535.259.867.259.218 0 .415-.038.593-.114s.328-.185.451-.327a1.25 1.25 0 0 0 .263-.511h.838a1.94 1.94 0 0 1-.352.87c-.185.256-.43.459-.735.611a2.37 2.37 0 0 1-1.058.224zm5.657 0c-.526 0-.979-.116-1.36-.348a2.34 2.34 0 0 1-.877-.98c-.203-.422-.305-.912-.305-1.471s.102-1.051.305-1.477a2.41 2.41 0 0 1 .859-1.001c.369-.242.8-.363 1.293-.363.284 0 .565.048.842.142a2.09 2.09 0 0 1 .756.462c.227.211.408.49.543.838s.202.777.202 1.286v.355h-4.205v-.725h3.352c0-.307-.061-.582-.185-.823s-.294-.433-.519-.572-.485-.21-.788-.21c-.334 0-.623.083-.866.249a1.63 1.63 0 0 0-.558.639 1.88 1.88 0 0 0-.195.845v.483c0 .412.071.761.213 1.048s.344.5.6.65.553.22.891.22c.22 0 .419-.031.597-.093a1.26 1.26 0 0 0 .465-.284c.13-.127.231-.286.302-.475l.81.227c-.085.274-.228.516-.43.724s-.45.367-.746.483-.628.171-.998.171zm8.704-.114h-2.244v-7.273h2.344c.706 0 1.309.146 1.811.437s.887.704 1.154 1.247.401 1.186.401 1.938c0 .758-.135 1.41-.405 1.957s-.663.964-1.179 1.257-1.144.437-1.882.437zm-1.364-.781h1.307c.601 0 1.1-.116 1.495-.348s.69-.563.884-.991.291-.939.291-1.531-.096-1.092-.288-1.516a2.12 2.12 0 0 0-.859-.98c-.381-.23-.856-.344-1.424-.344h-1.406v5.71zm7.798.909a2.22 2.22 0 0 1-.941-.195c-.282-.133-.505-.324-.671-.572s-.248-.554-.248-.909c0-.313.061-.566.185-.76a1.3 1.3 0 0 1 .494-.462 2.59 2.59 0 0 1 .682-.248l.756-.135.806-.096c.208-.024.36-.063.455-.117s.146-.15.146-.285v-.028c0-.35-.096-.623-.288-.817s-.477-.291-.863-.291c-.4 0-.714.088-.941.263a1.55 1.55 0 0 0-.479.561l-.795-.284c.142-.332.331-.59.568-.774s.5-.318.781-.391.563-.114.838-.114c.175 0 .376.022.604.064s.451.125.664.252.394.321.536.579.213.604.213 1.037v3.594h-.838v-.739h-.043c-.057.119-.151.245-.284.38s-.309.25-.529.345-.489.142-.806.142zm.128-.753c.331 0 .611-.065.838-.195s.402-.299.518-.505.178-.422.178-.649v-.767c-.035.042-.114.081-.234.117a4 4 0 0 1-.412.088l-.451.064-.352.043c-.218.028-.421.075-.611.139a1.05 1.05 0 0 0-.455.28c-.114.123-.17.291-.17.504a.75.75 0 0 0 .323.661c.218.147.494.22.827.22zm6.274-4.83v.711h-2.827v-.711h2.827zm-2.003-1.306h.838v5.199c0 .236.034.414.103.532s.161.194.27.235.228.056.352.056c.092 0 .168-.004.227-.014l.142-.028.171.753c-.057.021-.136.042-.238.064s-.231.035-.387.035c-.237 0-.469-.051-.696-.153a1.38 1.38 0 0 1-.561-.465c-.147-.208-.22-.471-.22-.788v-5.426zm4.869 6.889a2.22 2.22 0 0 1-.941-.195c-.282-.133-.505-.324-.671-.572s-.249-.554-.249-.909c0-.313.062-.566.185-.76a1.3 1.3 0 0 1 .494-.462c.206-.111.433-.194.682-.248l.756-.135.806-.096c.208-.024.36-.063.455-.117s.146-.15.146-.285v-.028c0-.35-.096-.623-.288-.817s-.477-.291-.863-.291c-.4 0-.714.088-.941.263s-.387.362-.479.561l-.795-.284a1.9 1.9 0 0 1 .568-.774c.239-.187.499-.318.781-.391s.564-.114.838-.114c.175 0 .376.022.604.064s.451.125.664.252.394.321.536.579.213.604.213 1.037v3.594h-.838v-.739h-.043a1.47 1.47 0 0 1-.284.38c-.133.135-.309.25-.529.345s-.489.142-.806.142zm.128-.753c.331 0 .611-.065.838-.195s.403-.299.519-.505.178-.422.178-.649v-.767c-.035.042-.114.081-.234.117a4 4 0 0 1-.412.088l-.451.064-.352.043c-.218.028-.421.075-.611.139a1.05 1.05 0 0 0-.455.28c-.114.123-.17.291-.17.504a.75.75 0 0 0 .323.661c.218.147.494.22.827.22z" class="E"/><g stroke-width="1.5"><circle cx="356.204" cy="490.771" r="49.25" transform="rotate(90 356.204 490.771)" stroke="url(#Q)"/><circle cx="356.204" cy="158.584" r="49.25" transform="rotate(90 356.204 158.584)" stroke="url(#R)"/></g><g filter="url(#B)" class="B"><rect x="16" y="121.771" width="216" height="36.812" rx="5"/></g><g filter="url(#C)" class="B"><rect x="16" y="164.853" width="216" height="36.812" rx="5"/></g><g filter="url(#D)" class="B"><rect x="16" y="207.934" width="216" height="36.812" rx="5"/></g><g filter="url(#E)" class="B"><rect x="16" y="253.858" width="216" height="36.812" rx="5"/></g><g filter="url(#F)" class="B"><rect x="16" y="299.783" width="216" height="36.812" rx="5"/></g><g filter="url(#G)" class="B"><rect x="16" y="345.708" width="216" height="36.812" rx="5"/></g><path d="M185.253 144.678v-.639l2.4-2.628.696-.803c.183-.23.318-.445.405-.646s.135-.417.135-.639a1.18 1.18 0 0 0-.184-.664c-.121-.187-.287-.332-.498-.434a1.62 1.62 0 0 0-.71-.152c-.279 0-.523.058-.731.174s-.366.273-.48.479-.167.447-.167.724h-.838c0-.426.098-.8.295-1.122s.464-.573.803-.753.723-.269 1.147-.269a2.33 2.33 0 0 1 1.132.269c.329.18.588.423.775.728s.28.646.28 1.02a2.17 2.17 0 0 1-.146.784c-.094.254-.26.537-.497.849s-.56.689-.976 1.137l-1.634 1.747v.056h3.381v.782h-4.588zm8.327.099c-.416 0-.792-.083-1.125-.248a2.09 2.09 0 0 1-.803-.682 1.86 1.86 0 0 1-.33-.987h.852c.033.329.182.601.447.816s.588.32.959.32a1.51 1.51 0 0 0 .796-.21 1.47 1.47 0 0 0 .55-.575c.135-.246.203-.524.203-.834 0-.318-.07-.601-.21-.849s-.327-.449-.568-.593-.517-.218-.828-.22c-.222-.003-.451.032-.685.103s-.427.157-.579.266l-.824-.099.441-3.58h3.778v.781h-3.04l-.255 2.145h.042c.149-.118.336-.216.561-.295s.46-.117.703-.117c.446 0 .842.107 1.19.32s.625.499.824.866.302.786.302 1.257c0 .464-.104.879-.313 1.243s-.49.649-.852.86-.774.312-1.236.312zm12.604-5.099h-.881a1.83 1.83 0 0 0-.273-.668c-.128-.192-.284-.353-.469-.483s-.384-.232-.607-.298a2.44 2.44 0 0 0-.696-.1c-.44 0-.839.112-1.197.334s-.638.551-.848.984-.313.965-.313 1.594.104 1.162.313 1.595.493.761.848.983.757.334 1.197.334a2.44 2.44 0 0 0 .696-.099c.223-.066.425-.165.607-.295a1.87 1.87 0 0 0 .469-.486c.13-.195.221-.417.273-.668h.881c-.066.372-.187.704-.362.998s-.393.543-.653.749-.553.359-.878.465-.666.16-1.033.16c-.62 0-1.172-.151-1.655-.454s-.863-.734-1.14-1.293-.415-1.222-.415-1.989.138-1.43.415-1.988.657-.99 1.14-1.293 1.035-.454 1.655-.454c.367 0 .711.053 1.033.159s.617.263.878.469a2.68 2.68 0 0 1 .653.746c.175.291.296.624.362.998z" class="E"/><path d="M29.753 137.186v-.781h5.454v.781H32.92v6.492h-.881v-6.492h-2.287zm8.196 6.605c-.526 0-.979-.116-1.36-.348s-.671-.561-.877-.98-.305-.911-.305-1.47.102-1.051.305-1.477.492-.763.859-1.002.8-.362 1.293-.362c.284 0 .565.048.842.142a2.09 2.09 0 0 1 .756.462 2.21 2.21 0 0 1 .543.838c.135.348.202.776.202 1.285v.356h-4.205v-.725h3.352a1.79 1.79 0 0 0-.185-.824 1.39 1.39 0 0 0-.518-.571c-.223-.14-.485-.21-.788-.21-.334 0-.623.083-.867.249a1.63 1.63 0 0 0-.557.639c-.13.263-.195.544-.195.845v.483c0 .412.071.761.213 1.048s.344.5.6.649.553.221.891.221a1.8 1.8 0 0 0 .597-.093 1.27 1.27 0 0 0 .465-.284c.13-.128.231-.286.302-.476l.81.228c-.085.274-.228.516-.43.724s-.45.367-.746.483-.629.17-.998.17zm3.533-.113v-5.455h.81v.852h.071a1.37 1.37 0 0 1 .55-.678 1.65 1.65 0 0 1 .913-.245c.36 0 .659.082.898.245a1.6 1.6 0 0 1 .565.678h.057c.14-.281.349-.505.629-.671s.614-.252 1.005-.252c.488 0 .887.153 1.197.458s.465.776.465 1.417v3.651h-.838v-3.651c0-.402-.11-.69-.33-.863a1.22 1.22 0 0 0-.778-.259c-.384 0-.681.116-.891.348s-.316.521-.316.874v3.551h-.852v-3.736c0-.31-.101-.56-.302-.749a1.08 1.08 0 0 0-.778-.288 1.15 1.15 0 0 0-.611.174c-.187.116-.339.277-.455.483s-.17.439-.17.707v3.409h-.838zm8.691 2.045v-7.5h.81v.867h.099l.256-.363c.111-.149.27-.281.476-.397s.49-.178.845-.178c.459 0 .864.115 1.215.345s.624.555.82.976.295.919.295 1.492-.098 1.078-.295 1.502-.469.748-.817.98-.749.344-1.204.344c-.35 0-.631-.058-.842-.174s-.373-.252-.486-.401l-.263-.376h-.071v2.883h-.838zm.824-4.773c0 .412.06.776.181 1.091a1.65 1.65 0 0 0 .529.735c.232.175.516.263.852.263.35 0 .643-.093.877-.277s.414-.438.533-.753a2.96 2.96 0 0 0 .181-1.059c0-.383-.059-.729-.178-1.036a1.6 1.6 0 0 0-.529-.736c-.234-.182-.529-.273-.884-.273-.341 0-.627.086-.859.259a1.56 1.56 0 0 0-.526.718c-.118.305-.178.661-.178 1.068zm7.557 2.841c-.526 0-.979-.116-1.36-.348s-.671-.561-.877-.98-.305-.911-.305-1.47.102-1.051.305-1.477.492-.763.859-1.002.8-.362 1.293-.362c.284 0 .565.048.842.142a2.09 2.09 0 0 1 .756.462c.227.211.408.49.543.838s.202.776.202 1.285v.356h-4.205v-.725h3.352a1.79 1.79 0 0 0-.185-.824 1.39 1.39 0 0 0-.518-.571c-.223-.14-.485-.21-.788-.21-.334 0-.623.083-.867.249a1.63 1.63 0 0 0-.558.639c-.13.263-.195.544-.195.845v.483c0 .412.071.761.213 1.048s.344.5.6.649.553.221.891.221c.22 0 .419-.031.597-.093a1.27 1.27 0 0 0 .465-.284c.13-.128.231-.286.302-.476l.81.228c-.085.274-.228.516-.43.724s-.45.367-.746.483-.629.17-.998.17zm3.533-.113v-5.455h.81v.824h.057a1.31 1.31 0 0 1 .54-.657 1.59 1.59 0 0 1 .881-.252l.231.004.21.01v.852a3.03 3.03 0 0 0-.195-.032 1.99 1.99 0 0 0-.316-.024c-.265 0-.502.055-.71.167a1.25 1.25 0 0 0-.49.454c-.118.192-.178.411-.178.657v3.452h-.838zm5.326.128a2.22 2.22 0 0 1-.941-.196c-.282-.132-.505-.323-.671-.571s-.249-.554-.249-.91c0-.312.061-.565.185-.76s.288-.35.494-.461.433-.194.682-.249l.756-.135.806-.096c.208-.023.36-.062.455-.117s.146-.149.146-.284v-.028c0-.351-.096-.623-.288-.817s-.477-.291-.863-.291c-.4 0-.714.087-.941.263a1.55 1.55 0 0 0-.479.561l-.795-.284c.142-.332.331-.59.568-.775a2.12 2.12 0 0 1 .781-.39c.284-.076.563-.114.838-.114.175 0 .376.021.604.064s.451.124.664.252.394.321.536.579.213.604.213 1.037v3.594h-.838v-.739h-.043c-.057.118-.151.245-.284.38s-.309.25-.529.345-.489.142-.806.142zm.128-.753c.332 0 .611-.065.838-.196s.402-.298.518-.504.178-.422.178-.65v-.767c-.036.043-.114.082-.234.117a3.73 3.73 0 0 1-.412.089l-.451.064-.352.043c-.218.028-.421.074-.611.138s-.338.155-.454.281-.171.291-.171.504c0 .291.108.511.323.661s.494.22.827.22zm6.274-4.83v.71h-2.827v-.71h2.827zm-2.003-1.307h.838v5.199c0 .237.034.415.103.533a.53.53 0 0 0 .27.234 1.08 1.08 0 0 0 .352.057 1.55 1.55 0 0 0 .227-.014l.142-.029.17.753c-.057.022-.136.043-.238.064a1.73 1.73 0 0 1-.387.036c-.237 0-.469-.051-.696-.153s-.412-.257-.561-.465-.22-.471-.22-.788v-5.427zm6.701 4.532v-3.225h.838v5.455h-.838v-.924h-.057a1.79 1.79 0 0 1-.597.707c-.27.192-.611.288-1.023.288-.341 0-.644-.075-.909-.224s-.473-.379-.625-.682-.227-.69-.227-1.154v-3.466h.838v3.409c0 .398.111.715.334.952s.511.355.859.355a1.42 1.42 0 0 0 .636-.16c.218-.106.4-.27.547-.49s.224-.5.224-.841zm2.373 2.23v-5.455h.81v.824h.057c.099-.27.279-.489.54-.657a1.59 1.59 0 0 1 .881-.252l.231.004.21.01v.852a3.05 3.05 0 0 0-.195-.032 1.99 1.99 0 0 0-.316-.024c-.265 0-.502.055-.71.167a1.25 1.25 0 0 0-.49.454c-.118.192-.177.411-.177.657v3.452h-.838zm5.842.113c-.526 0-.979-.116-1.36-.348s-.671-.561-.877-.98-.305-.911-.305-1.47.102-1.051.305-1.477.492-.763.859-1.002.8-.362 1.293-.362c.284 0 .565.048.842.142a2.09 2.09 0 0 1 .756.462 2.21 2.21 0 0 1 .543.838c.135.348.202.776.202 1.285v.356h-4.204v-.725h3.352a1.79 1.79 0 0 0-.185-.824 1.39 1.39 0 0 0-.519-.571c-.222-.14-.485-.21-.788-.21-.334 0-.623.083-.867.249a1.63 1.63 0 0 0-.558.639c-.13.263-.195.544-.195.845v.483c0 .412.071.761.213 1.048s.344.5.6.649.553.221.891.221a1.8 1.8 0 0 0 .597-.093 1.27 1.27 0 0 0 .465-.284c.13-.128.231-.286.302-.476l.81.228c-.085.274-.228.516-.43.724s-.45.367-.746.483-.629.17-.998.17z" fill="#0c0c0c"/><path d="M187.668 187.857c-.299-.004-.597-.061-.895-.17a2.14 2.14 0 0 1-.817-.551c-.246-.26-.444-.612-.593-1.054s-.224-1.004-.224-1.676a7.33 7.33 0 0 1 .181-1.712c.121-.5.296-.92.526-1.261a2.38 2.38 0 0 1 .831-.781 2.27 2.27 0 0 1 1.104-.266c.407 0 .77.081 1.087.245s.58.386.781.674a2.36 2.36 0 0 1 .391.998h-.867c-.08-.326-.236-.598-.468-.813s-.54-.323-.924-.323c-.563 0-1.007.245-1.331.735s-.485 1.178-.487 2.063h.057c.132-.201.29-.373.472-.515a2.16 2.16 0 0 1 .611-.334c.223-.078.458-.117.707-.117a2.17 2.17 0 0 1 1.143.313 2.3 2.3 0 0 1 .831.856c.208.362.313.777.313 1.246a2.57 2.57 0 0 1-.302 1.236 2.3 2.3 0 0 1-.849.888c-.362.217-.788.324-1.278.319zm0-.781c.298 0 .565-.075.802-.224a1.62 1.62 0 0 0 .565-.6 1.7 1.7 0 0 0 .209-.838c0-.301-.067-.574-.202-.82s-.316-.447-.551-.593a1.47 1.47 0 0 0-.795-.22c-.225 0-.434.045-.629.134a1.63 1.63 0 0 0-.511.363 1.76 1.76 0 0 0-.341.529c-.083.196-.124.403-.124.621 0 .289.067.559.202.81a1.68 1.68 0 0 0 .561.607c.24.154.511.231.814.231zm6.098.781c-.417 0-.792-.083-1.126-.248a2.08 2.08 0 0 1-.802-.682 1.86 1.86 0 0 1-.331-.987h.853c.033.329.182.601.447.816s.587.32.959.32c.298 0 .563-.07.795-.21a1.5 1.5 0 0 0 .551-.575 1.72 1.72 0 0 0 .202-.834 1.71 1.71 0 0 0-.209-.849c-.138-.251-.327-.449-.569-.593s-.517-.218-.827-.22c-.223-.003-.451.032-.685.103a1.96 1.96 0 0 0-.579.266l-.824-.099.44-3.58h3.779v.781h-3.04l-.256 2.145h.043c.149-.118.336-.216.561-.295a2.13 2.13 0 0 1 .703-.117c.445 0 .842.107 1.19.32s.625.499.824.866.301.786.301 1.257c0 .464-.104.879-.312 1.243a2.29 2.29 0 0 1-.852.86c-.362.211-.775.312-1.236.312zm10.331-1.463v-.383c0-.265.054-.508.163-.728a1.32 1.32 0 0 1 .483-.533c.213-.135.471-.202.774-.202s.566.067.775.202a1.28 1.28 0 0 1 .472.533c.107.223.16.463.16.728v.383c0 .265-.055.509-.164.732s-.265.397-.476.532-.464.199-.767.199-.567-.066-.777-.199a1.31 1.31 0 0 1-.48-.532c-.109-.22-.163-.467-.163-.732zm.724-.383v.383a1.13 1.13 0 0 0 .157.593c.104.173.284.259.539.259.249 0 .424-.086.526-.259a1.14 1.14 0 0 0 .156-.593v-.383c0-.221-.049-.417-.149-.59s-.277-.263-.533-.263c-.248 0-.427.088-.536.263s-.16.369-.16.59zm-4.346-3.779v-.383c0-.265.054-.508.163-.728a1.31 1.31 0 0 1 .483-.533c.211-.133.471-.202.774-.202s.566.067.774.202a1.27 1.27 0 0 1 .473.533c.106.22.159.463.159.728v.383c0 .265-.054.509-.163.732a1.28 1.28 0 0 1-.476.532c-.208.133-.464.199-.767.199s-.567-.066-.777-.199a1.31 1.31 0 0 1-.48-.532c-.109-.223-.163-.467-.163-.732zm.724-.383v.383a1.14 1.14 0 0 0 .156.593c.105.173.285.26.54.26.249 0 .424-.087.526-.26a1.14 1.14 0 0 0 .156-.593v-.383c0-.22-.05-.417-.149-.59s-.277-.263-.533-.263c-.248 0-.427.088-.536.263a1.1 1.1 0 0 0-.16.59zm-.454 5.909l5-7.273h.809l-5 7.273h-.809zm-28.348 43.18c-.535 0-.99-.145-1.367-.436s-.664-.719-.863-1.275-.298-1.234-.298-2.024.099-1.458.298-2.014.49-.985.867-1.278a2.16 2.16 0 0 1 1.363-.444c.53 0 .984.148 1.361.444s.667.719.866 1.278.302 1.228.302 2.014-.1 1.465-.298 2.024-.487.981-.863 1.275-.833.436-1.368.436zm0-.781c.531 0 .943-.256 1.236-.767s.441-1.241.441-2.187c0-.63-.068-1.166-.203-1.609s-.324-.78-.575-1.012a1.27 1.27 0 0 0-.899-.348c-.525 0-.936.259-1.232.777s-.444 1.247-.444 2.192c0 .629.067 1.164.199 1.605s.323.775.572 1.005.553.344.905.344zm4.249.739c-.175 0-.325-.063-.451-.189a.61.61 0 0 1-.188-.451c0-.176.063-.325.188-.451a.61.61 0 0 1 .451-.188c.175 0 .326.063.451.188s.189.276.189.451c0 .116-.03.223-.089.32a.68.68 0 0 1-.231.234.61.61 0 0 1-.32.086zm2.129-.057v-.639l2.401-2.628.696-.803c.182-.229.317-.445.405-.646a1.59 1.59 0 0 0 .135-.639 1.18 1.18 0 0 0-.185-.664 1.2 1.2 0 0 0-.497-.434c-.211-.101-.448-.152-.71-.152-.28 0-.524.058-.732.174s-.366.273-.479.479-.167.448-.167.725h-.838c0-.427.098-.801.294-1.123a2.04 2.04 0 0 1 .803-.752c.339-.18.723-.27 1.147-.27s.804.09 1.133.27.587.422.774.728.281.645.281 1.019a2.2 2.2 0 0 1-.146.785c-.095.253-.26.536-.497.848s-.56.689-.977 1.137l-1.633 1.747v.057h3.38v.781h-4.588zm8.612-7.273v7.273h-.881v-6.35h-.042l-1.776 1.179v-.894l1.818-1.208h.881zm4.918 7.273v-5.455h.81v.853h.071c.113-.292.297-.518.55-.679s.558-.245.913-.245.659.082.898.245a1.63 1.63 0 0 1 .565.679h.057c.139-.282.349-.506.628-.672s.615-.252 1.005-.252c.488 0 .887.153 1.197.458s.465.776.465 1.417v3.651h-.838v-3.651c0-.402-.11-.69-.33-.863s-.48-.259-.778-.259c-.383 0-.68.116-.891.348s-.316.521-.316.874v3.551h-.852v-3.736a.98.98 0 0 0-.302-.749c-.202-.192-.461-.288-.778-.288a1.15 1.15 0 0 0-.611.174c-.187.116-.338.277-.454.483s-.171.439-.171.707v3.409h-.838zm11.263-7.614l-2.344 8.708h-.767l2.344-8.708h.767zm4.857 3.381l-.753.213a1.42 1.42 0 0 0-.21-.366c-.09-.121-.213-.22-.369-.298s-.356-.117-.6-.117c-.334 0-.612.077-.835.231s-.33.344-.33.578c0 .209.076.373.227.494s.389.221.711.302l.809.199c.488.118.851.299 1.09.543s.359.553.359.934c0 .312-.09.592-.27.838s-.426.44-.746.582-.691.214-1.115.214c-.556 0-1.016-.121-1.381-.363s-.595-.594-.692-1.058l.795-.199c.076.294.219.514.43.661s.491.22.834.22c.391 0 .701-.083.931-.249s.348-.369.348-.603c0-.19-.067-.348-.199-.476s-.336-.228-.611-.291l-.909-.214c-.5-.118-.867-.301-1.101-.55s-.348-.565-.348-.941c0-.308.086-.58.259-.817s.413-.422.714-.557.646-.203 1.03-.203c.54 0 .963.119 1.271.355s.53.55.661.938zm-10.37 50.257c-.535 0-.991-.145-1.367-.437s-.665-.718-.863-1.275-.299-1.233-.299-2.024.1-1.457.299-2.013.49-.985.866-1.279.833-.443 1.364-.443.983.147 1.36.443.667.72.866 1.279.302 1.227.302 2.013-.099 1.466-.298 2.024-.487.982-.863 1.275-.832.437-1.367.437zm0-.781c.53 0 .942-.256 1.235-.767s.441-1.241.441-2.188c0-.629-.068-1.166-.203-1.608s-.324-.78-.575-1.012-.548-.348-.898-.348c-.526 0-.937.259-1.233.777s-.443 1.247-.443 2.191c0 .63.066 1.165.198 1.605s.324.776.572 1.005.553.345.906.345zm4.249.738a.61.61 0 0 1-.451-.188c-.126-.125-.189-.276-.189-.451s.063-.325.189-.451a.61.61 0 0 1 .451-.188c.176 0 .325.063.451.188a.61.61 0 0 1 .188.451c0 .116-.03.223-.089.32a.68.68 0 0 1-.231.234c-.097.059-.201.085-.319.085zm3.816-7.329v7.273h-.88v-6.35h-.043l-1.776 1.179v-.895l1.819-1.207h.88zm3.612 3.21c-.301 0-.576-.073-.824-.22a1.68 1.68 0 0 1-.59-.589 1.6 1.6 0 0 1-.22-.824c0-.301.074-.574.22-.821s.344-.446.59-.593a1.58 1.58 0 0 1 .824-.22 1.58 1.58 0 0 1 .82.22 1.66 1.66 0 0 1 .593.593c.147.247.22.52.22.821a1.59 1.59 0 0 1-.22.824c-.147.246-.344.442-.593.589a1.57 1.57 0 0 1-.82.22zm0-.71c.17 0 .325-.041.465-.124a.94.94 0 0 0 .334-.334c.083-.14.124-.295.124-.465s-.041-.326-.124-.466-.194-.25-.334-.333-.295-.125-.465-.125a.89.89 0 0 0-.465.125c-.14.083-.251.194-.334.333s-.125.295-.125.466.042.325.125.465a.94.94 0 0 0 .334.334.89.89 0 0 0 .465.124zm-37.15 43.425v7.272h-.881v-6.349h-.042l-1.776 1.179v-.895l1.818-1.207h.881zm4.649 0v7.272h-.881v-6.349h-.043l-1.775 1.179v-.895l1.818-1.207h.881zm4.463 7.372c-.535 0-.99-.146-1.367-.437s-.664-.718-.863-1.275-.298-1.233-.298-2.024.099-1.457.298-2.013.49-.985.867-1.279.833-.444 1.363-.444.984.148 1.36.444.668.72.867 1.279.302 1.227.302 2.013-.1 1.466-.299 2.024-.486.982-.862 1.275-.833.437-1.368.437zm0-.781c.531 0 .943-.256 1.236-.767s.44-1.241.44-2.188c0-.63-.067-1.166-.202-1.609s-.324-.78-.575-1.012a1.27 1.27 0 0 0-.899-.348c-.525 0-.936.26-1.232.778s-.444 1.247-.444 2.191c0 .63.066 1.165.199 1.605s.323.776.572 1.005.553.345.905.345zm6.25.781c-.535 0-.99-.146-1.367-.437s-.664-.718-.863-1.275-.298-1.233-.298-2.024.099-1.457.298-2.013.49-.985.867-1.279.833-.444 1.363-.444.984.148 1.36.444.668.72.867 1.279.302 1.227.302 2.013-.1 1.466-.299 2.024-.486.982-.862 1.275-.833.437-1.368.437zm0-.781c.531 0 .943-.256 1.236-.767s.44-1.241.44-2.188c0-.63-.067-1.166-.202-1.609s-.324-.78-.575-1.012a1.27 1.27 0 0 0-.899-.348c-.525 0-.936.26-1.232.778s-.444 1.247-.444 2.191c0 .63.066 1.165.199 1.605s.323.776.572 1.005.553.345.905.345zm7.543-2.6v3.281h-.838v-7.272h.838v2.67h.071c.128-.282.32-.505.575-.671s.602-.252 1.03-.252c.372 0 .697.074.977.224a1.5 1.5 0 0 1 .65.678c.156.303.234.689.234 1.158v3.465h-.838v-3.409c0-.433-.113-.768-.338-1.005s-.531-.358-.926-.358c-.275 0-.521.058-.739.174a1.25 1.25 0 0 0-.511.508c-.125.223-.185.492-.185.809zm5.184 3.281v-7.272h2.457c.571 0 1.037.103 1.399.309a1.96 1.96 0 0 1 .81.827c.175.348.263.736.263 1.165s-.088.818-.263 1.168-.44.63-.803.838-.826.309-1.392.309h-1.761v-.781h1.733c.391 0 .704-.067.941-.202a1.21 1.21 0 0 0 .515-.547c.109-.232.163-.494.163-.785s-.054-.552-.163-.781-.279-.41-.519-.54-.556-.199-.951-.199h-1.549v6.491h-.88zm7.839.128a2.22 2.22 0 0 1-.941-.195 1.61 1.61 0 0 1-.671-.572c-.166-.251-.249-.554-.249-.909 0-.312.062-.566.185-.76a1.3 1.3 0 0 1 .493-.461c.206-.112.434-.195.682-.249l.757-.135.806-.096c.208-.023.359-.063.454-.117s.146-.149.146-.284v-.029c0-.35-.096-.622-.288-.816s-.477-.291-.863-.291c-.4 0-.714.087-.941.262s-.387.363-.479.561l-.796-.284c.142-.331.332-.589.568-.774a2.13 2.13 0 0 1 .782-.39 3.23 3.23 0 0 1 .838-.114 3.3 3.3 0 0 1 .604.064c.229.04.45.124.664.252s.394.321.536.579.213.603.213 1.037v3.593h-.838v-.738h-.043c-.057.118-.151.245-.284.38s-.309.25-.529.344-.489.142-.806.142zm.128-.753c.331 0 .61-.065.838-.195a1.33 1.33 0 0 0 .518-.504 1.28 1.28 0 0 0 .178-.65v-.767c-.036.043-.114.082-.235.117a3.6 3.6 0 0 1-.412.089l-.451.064-.351.042a3.25 3.25 0 0 0-.611.139 1.05 1.05 0 0 0-.454.281c-.114.123-.171.291-.171.504 0 .291.108.511.323.66s.494.22.828.22zm-36.241 46.65c-.535 0-.99-.146-1.367-.437s-.664-.719-.863-1.275-.298-1.233-.298-2.024.099-1.457.298-2.014.49-.984.867-1.278.833-.444 1.363-.444.984.148 1.361.444.667.72.866 1.278.302 1.228.302 2.014-.1 1.465-.298 2.024-.487.981-.863 1.275-.833.437-1.368.437zm0-.782c.531 0 .943-.255 1.236-.767s.441-1.24.441-2.187c0-.63-.068-1.166-.203-1.609s-.324-.78-.575-1.012a1.27 1.27 0 0 0-.899-.348c-.525 0-.936.259-1.232.778s-.444 1.246-.444 2.191c0 .63.067 1.165.199 1.605s.323.775.572 1.005a1.29 1.29 0 0 0 .905.344zm4.249.739c-.175 0-.325-.063-.451-.188a.61.61 0 0 1-.188-.451c0-.175.063-.326.188-.451s.276-.188.451-.188a.61.61 0 0 1 .451.188c.126.125.189.276.189.451a.6.6 0 0 1-.089.319.66.66 0 0 1-.231.235c-.095.057-.201.085-.32.085zm2.129-.057v-.639l2.401-2.628.696-.802c.182-.23.317-.445.405-.647a1.56 1.56 0 0 0 .135-.639 1.18 1.18 0 0 0-.185-.664 1.2 1.2 0 0 0-.497-.433 1.61 1.61 0 0 0-.71-.153c-.28 0-.524.058-.732.174s-.366.274-.479.48a1.48 1.48 0 0 0-.167.724h-.838c0-.426.098-.8.294-1.122a2.05 2.05 0 0 1 .803-.753c.341-.18.723-.27 1.147-.27s.804.09 1.133.27.587.423.774.728.281.645.281 1.019c0 .268-.049.529-.146.785s-.26.536-.497.849-.56.689-.977 1.136l-1.633 1.747v.057h3.38v.781h-4.588zm8.882 0v-5.454h.809v.852h.071a1.37 1.37 0 0 1 .551-.678c.253-.164.557-.245.912-.245s.66.081.899.245a1.64 1.64 0 0 1 .565.678h.056c.14-.282.35-.505.629-.671s.614-.252 1.005-.252c.488 0 .886.152 1.197.458s.465.775.465 1.417v3.65h-.838v-3.65c0-.403-.11-.69-.331-.863a1.22 1.22 0 0 0-.777-.259c-.384 0-.681.116-.892.348s-.316.52-.316.873v3.551h-.852v-3.736c0-.31-.101-.559-.302-.749s-.46-.287-.777-.287a1.15 1.15 0 0 0-.611.174c-.187.116-.339.277-.455.483a1.43 1.43 0 0 0-.17.706v3.409h-.838zm8.691 0v-5.454h.81v.852h.071a1.37 1.37 0 0 1 .55-.678c.254-.164.558-.245.913-.245s.659.081.898.245a1.6 1.6 0 0 1 .565.678h.057c.139-.282.349-.505.628-.671s.615-.252 1.005-.252c.488 0 .887.152 1.197.458s.465.775.465 1.417v3.65h-.838v-3.65c0-.403-.11-.69-.33-.863s-.48-.259-.778-.259c-.383 0-.68.116-.891.348s-.316.52-.316.873v3.551h-.852v-3.736c0-.31-.101-.559-.302-.749s-.461-.287-.778-.287a1.15 1.15 0 0 0-.611.174c-.187.116-.338.277-.454.483a1.42 1.42 0 0 0-.171.706v3.409h-.838z" class="E"/><g fill="#0c0c0c"><path d="M30.15 186.758v-7.273h.881v3.239h3.878v-3.239h.881v7.273h-.881v-3.253h-3.878v3.253h-.881zm10.726-2.23v-3.225h.838v5.455h-.838v-.923h-.057c-.128.277-.327.512-.597.706s-.611.288-1.023.288c-.341 0-.644-.075-.909-.224a1.55 1.55 0 0 1-.625-.682c-.151-.303-.227-.69-.227-1.154v-3.466h.838v3.409c0 .398.111.715.334.952s.511.355.859.355a1.42 1.42 0 0 0 .636-.16c.218-.106.4-.27.547-.49s.224-.5.224-.841zm2.373 2.23v-5.455h.81v.853h.071a1.37 1.37 0 0 1 .55-.679 1.65 1.65 0 0 1 .913-.245c.36 0 .659.082.898.245a1.6 1.6 0 0 1 .565.679h.057a1.59 1.59 0 0 1 .629-.672c.279-.168.614-.252 1.005-.252.488 0 .887.153 1.197.458s.465.776.465 1.417v3.651h-.838v-3.651c0-.402-.11-.69-.33-.863a1.22 1.22 0 0 0-.778-.259c-.383 0-.681.116-.891.348s-.316.521-.316.874v3.551h-.852v-3.736a.98.98 0 0 0-.302-.749c-.201-.189-.46-.288-.778-.288a1.15 1.15 0 0 0-.611.174c-.187.116-.338.277-.454.483s-.171.439-.171.707v3.409h-.838zm8.691 0v-5.455h.838v5.455h-.838zm.426-6.364c-.163 0-.304-.055-.423-.167s-.174-.245-.174-.401.058-.29.174-.401.259-.167.423-.167a.58.58 0 0 1 .419.167.53.53 0 0 1 .178.401.53.53 0 0 1-.178.401.58.58 0 0 1-.419.167zm4.007 6.477c-.455 0-.856-.114-1.204-.344a2.32 2.32 0 0 1-.817-.98c-.197-.421-.295-.925-.295-1.502s.098-1.07.295-1.492.47-.747.82-.976a2.17 2.17 0 0 1 1.215-.345c.355 0 .636.059.842.178s.367.248.476.398l.259.362h.071v-2.685h.838v7.273h-.81v-.838h-.099c-.062.099-.149.225-.263.376s-.276.283-.486.401-.491.174-.842.174zm.114-.752c.336 0 .62-.088.852-.263a1.65 1.65 0 0 0 .529-.735 3.03 3.03 0 0 0 .181-1.09c0-.411-.059-.764-.178-1.069a1.56 1.56 0 0 0-.526-.718c-.232-.173-.519-.259-.859-.259-.355 0-.651.091-.888.274s-.411.424-.529.735a2.89 2.89 0 0 0-.174 1.037c0 .384.059.741.178 1.058a1.73 1.73 0 0 0 .533.753c.237.184.53.277.881.277zm4.038.639v-5.455h.838v5.455h-.838zm.426-6.364c-.163 0-.304-.055-.423-.167s-.174-.245-.174-.401.058-.29.174-.401.259-.167.423-.167a.58.58 0 0 1 .419.167.53.53 0 0 1 .178.401.53.53 0 0 1-.178.401.58.58 0 0 1-.419.167zm4.319.909v.71h-2.827v-.71h2.827zm-2.003-1.307h.838v5.199c0 .237.034.415.103.533a.53.53 0 0 0 .27.234 1.08 1.08 0 0 0 .352.057 1.55 1.55 0 0 0 .227-.014l.142-.028.171.752c-.057.022-.136.043-.238.064a1.73 1.73 0 0 1-.387.036 1.68 1.68 0 0 1-.696-.153 1.37 1.37 0 0 1-.561-.465c-.149-.208-.22-.471-.22-.788v-5.427zm3.803 8.807c-.142 0-.269-.012-.38-.035s-.188-.043-.231-.064l.213-.739a1.62 1.62 0 0 0 .54.057c.156-.014.295-.084.415-.21s.236-.323.337-.6l.156-.426-2.017-5.483h.909l1.506 4.347h.057l1.506-4.347h.909l-2.315 6.25a2.36 2.36 0 0 1-.387.7 1.45 1.45 0 0 1-.536.415 1.65 1.65 0 0 1-.682.135zm-35.599 41.036l-1.989-7.273h.895l1.52 5.923h.071l1.548-5.923h.994l1.548 5.923h.071l1.52-5.923h.895l-1.989 7.273h-.909l-1.605-5.796h-.057l-1.605 5.796h-.909zm8.058 0v-5.455h.838v5.455h-.838zm.426-6.364c-.163 0-.304-.055-.423-.167s-.174-.245-.174-.401.058-.29.174-.401.259-.167.423-.167.303.056.419.167a.53.53 0 0 1 .178.401.53.53 0 0 1-.178.401.58.58 0 0 1-.419.167zm2.785 3.083v3.281h-.838v-5.455h.81v.853h.071a1.56 1.56 0 0 1 .582-.668c.26-.17.597-.256 1.008-.256.369 0 .693.076.97.228a1.53 1.53 0 0 1 .646.681c.154.303.231.687.231 1.151v3.466h-.838v-3.409c0-.429-.111-.763-.334-1.002s-.528-.362-.916-.362a1.46 1.46 0 0 0-.717.174c-.21.116-.373.285-.494.508s-.181.492-.181.81zm7.071 3.395c-.455 0-.856-.115-1.204-.345a2.32 2.32 0 0 1-.817-.98c-.197-.421-.295-.925-.295-1.502s.098-1.07.295-1.492.47-.747.82-.976a2.17 2.17 0 0 1 1.215-.345c.355 0 .636.059.842.178s.367.248.476.398l.259.362h.071v-2.685h.838v7.273h-.81v-.838h-.099c-.062.099-.149.225-.263.376s-.276.283-.486.401-.491.175-.842.175zm.114-.753c.336 0 .62-.088.852-.263a1.65 1.65 0 0 0 .529-.735c.121-.315.181-.678.181-1.09s-.059-.764-.178-1.069a1.56 1.56 0 0 0-.526-.718c-.232-.172-.519-.259-.859-.259-.355 0-.651.091-.888.274s-.411.425-.529.735-.174.653-.174 1.037.059.741.178 1.058a1.73 1.73 0 0 0 .533.753c.237.184.53.277.881.277zm10.941-4.816c-.043-.36-.215-.639-.519-.838s-.675-.298-1.115-.298a2.12 2.12 0 0 0-.845.156 1.35 1.35 0 0 0-.561.43c-.133.182-.199.389-.199.621a.89.89 0 0 0 .139.501c.095.137.215.252.362.345s.301.164.462.223l.444.139.739.199c.189.049.4.118.632.206a3 3 0 0 1 .671.358 1.82 1.82 0 0 1 .533.576c.14.234.21.522.21.862 0 .393-.103.749-.309 1.066s-.502.569-.895.756-.865.281-1.424.281c-.521 0-.972-.084-1.353-.252s-.677-.403-.895-.704a2 2 0 0 1-.366-1.047h.909a1.14 1.14 0 0 0 .277.682c.163.177.369.31.618.397a2.48 2.48 0 0 0 .81.128c.336 0 .638-.054.906-.163s.479-.265.636-.462.234-.431.234-.696c0-.241-.068-.438-.202-.589s-.312-.275-.533-.37a5.58 5.58 0 0 0-.714-.248l-.895-.256c-.568-.163-1.018-.396-1.349-.699s-.497-.7-.497-1.19c0-.407.11-.762.33-1.065a2.19 2.19 0 0 1 .895-.711c.376-.17.797-.255 1.261-.255s.885.084 1.25.252.653.393.866.682.329.616.341.983h-.852zm2.286 7.5v-7.5h.81v.867h.099l.256-.362c.111-.15.27-.282.476-.398s.49-.178.845-.178a2.16 2.16 0 0 1 1.214.345c.35.23.624.555.82.976s.295.919.295 1.492-.098 1.078-.295 1.502-.469.748-.817.98-.749.345-1.204.345c-.35 0-.631-.058-.842-.175a1.53 1.53 0 0 1-.486-.401l-.263-.376h-.071v2.883h-.838zm.824-4.772a3.03 3.03 0 0 0 .181 1.09 1.65 1.65 0 0 0 .529.735c.232.175.516.263.852.263.35 0 .643-.093.877-.277s.414-.438.533-.753.181-.67.181-1.058-.059-.73-.178-1.037-.292-.555-.529-.735-.529-.274-.884-.274c-.341 0-.627.087-.859.259a1.56 1.56 0 0 0-.526.718c-.118.305-.177.661-.177 1.069zm7.557 2.841c-.526 0-.979-.117-1.36-.349s-.671-.561-.877-.98-.305-.911-.305-1.47.102-1.051.305-1.477a2.4 2.4 0 0 1 .859-1.001c.367-.239.8-.363 1.293-.363.284 0 .565.048.842.142a2.09 2.09 0 0 1 .756.462c.227.211.408.49.543.838s.202.777.202 1.286v.355h-4.204v-.725h3.352a1.79 1.79 0 0 0-.185-.824 1.39 1.39 0 0 0-.518-.571 1.45 1.45 0 0 0-.788-.21c-.334 0-.623.083-.867.249a1.63 1.63 0 0 0-.557.639 1.88 1.88 0 0 0-.195.845v.483c0 .412.071.761.213 1.048a1.5 1.5 0 0 0 .6.649c.256.149.553.221.891.221a1.8 1.8 0 0 0 .597-.093 1.27 1.27 0 0 0 .465-.284 1.29 1.29 0 0 0 .302-.476l.81.228c-.085.274-.228.516-.43.724s-.45.367-.746.483-.629.171-.998.171zm5.82 0c-.526 0-.979-.117-1.36-.349s-.671-.561-.877-.98-.305-.911-.305-1.47.102-1.051.305-1.477a2.4 2.4 0 0 1 .859-1.001c.367-.239.8-.363 1.293-.363.284 0 .565.048.842.142a2.09 2.09 0 0 1 .756.462 2.21 2.21 0 0 1 .543.838c.135.348.202.777.202 1.286v.355h-4.204v-.725h3.352a1.79 1.79 0 0 0-.185-.824 1.39 1.39 0 0 0-.519-.571c-.222-.14-.485-.21-.788-.21-.334 0-.623.083-.867.249a1.63 1.63 0 0 0-.558.639 1.88 1.88 0 0 0-.195.845v.483c0 .412.071.761.213 1.048a1.5 1.5 0 0 0 .6.649c.256.149.553.221.891.221a1.8 1.8 0 0 0 .597-.093 1.27 1.27 0 0 0 .465-.284 1.29 1.29 0 0 0 .302-.476l.81.228c-.085.274-.228.516-.43.724s-.45.367-.746.483-.629.171-.998.171zm5.593 0c-.455 0-.856-.115-1.204-.345a2.32 2.32 0 0 1-.817-.98c-.197-.421-.295-.925-.295-1.502s.098-1.07.295-1.492.47-.747.82-.976.755-.345 1.214-.345c.355 0 .636.059.842.178s.367.248.476.398l.259.362h.071v-2.685h.838v7.273h-.81v-.838h-.099c-.062.099-.149.225-.263.376s-.276.283-.487.401-.491.175-.842.175zm.114-.753c.336 0 .62-.088.852-.263s.408-.423.529-.735.181-.678.181-1.09-.059-.764-.178-1.069a1.58 1.58 0 0 0-.526-.718c-.232-.171-.518-.259-.859-.259-.355 0-.651.091-.888.274s-.411.425-.529.735-.174.653-.174 1.037.059.741.178 1.058a1.73 1.73 0 0 0 .533.753c.237.184.53.277.881.277z"/><path d="M31.471 275.764l-1.989-7.273h.895l1.52 5.923h.071l1.548-5.923h.994l1.548 5.923h.071l1.52-5.923h.895l-1.989 7.273h-.909l-1.605-5.796h-.057l-1.605 5.796h-.909zm8.058 0v-5.455h.838v5.455h-.838zm.426-6.364a.6.6 0 0 1-.423-.167c-.119-.111-.174-.245-.174-.401s.058-.29.174-.401.259-.167.423-.167a.58.58 0 0 1 .419.167.53.53 0 0 1 .178.401.53.53 0 0 1-.178.401c-.116.111-.256.167-.419.167zm2.785 3.082v3.282h-.838v-5.455h.81v.852h.071a1.56 1.56 0 0 1 .582-.667c.26-.168.597-.256 1.008-.256.369 0 .693.076.97.227s.492.377.646.682.231.687.231 1.151v3.466h-.838v-3.409c0-.429-.111-.763-.334-1.002s-.528-.362-.916-.362a1.46 1.46 0 0 0-.717.174c-.21.116-.373.285-.494.508s-.181.492-.181.809zm7.071 3.395a2.14 2.14 0 0 1-1.204-.344c-.348-.232-.62-.559-.817-.98s-.295-.925-.295-1.502.098-1.07.295-1.492.47-.747.82-.976a2.17 2.17 0 0 1 1.215-.345c.355 0 .636.059.842.178s.367.248.476.397l.259.363h.071v-2.685h.838v7.273h-.81v-.838h-.099c-.062.099-.149.225-.263.376s-.276.283-.486.401-.491.174-.842.174zm.114-.753c.336 0 .62-.087.852-.262a1.65 1.65 0 0 0 .529-.735c.121-.315.181-.679.181-1.091a2.91 2.91 0 0 0-.178-1.068 1.56 1.56 0 0 0-.526-.718c-.232-.173-.519-.259-.859-.259-.355 0-.651.091-.888.273s-.411.425-.529.735a2.89 2.89 0 0 0-.174 1.037 3.01 3.01 0 0 0 .178 1.059c.121.315.298.565.533.752s.53.277.881.277zm9.208.64h-2.244v-7.273h2.344c.706 0 1.309.146 1.811.437a2.86 2.86 0 0 1 1.154 1.246c.268.54.401 1.186.401 1.939s-.135 1.41-.405 1.957a2.89 2.89 0 0 1-1.179 1.257c-.516.291-1.143.437-1.882.437zm-1.364-.782h1.307c.601 0 1.1-.116 1.495-.348s.69-.562.884-.99.291-.939.291-1.531-.096-1.092-.288-1.516a2.12 2.12 0 0 0-.859-.98c-.381-.23-.856-.345-1.424-.345h-1.406v5.71zm6.193.782v-5.455h.838v5.455h-.838zm.426-6.364a.6.6 0 0 1-.423-.167c-.119-.111-.174-.245-.174-.401s.058-.29.174-.401.259-.167.423-.167a.58.58 0 0 1 .419.167.53.53 0 0 1 .178.401.53.53 0 0 1-.178.401c-.116.111-.256.167-.419.167zm1.947 6.364v-5.455h.81v.824h.057c.099-.27.279-.489.54-.657a1.59 1.59 0 0 1 .881-.252l.231.003.21.011v.852a3.03 3.03 0 0 0-.195-.032 1.99 1.99 0 0 0-.316-.024c-.265 0-.502.055-.71.166a1.26 1.26 0 0 0-.49.455 1.23 1.23 0 0 0-.177.657v3.452h-.838zm5.842.113c-.526 0-.979-.116-1.36-.348s-.671-.561-.877-.98-.305-.911-.305-1.47.102-1.051.305-1.477.492-.763.859-1.002.8-.362 1.293-.362a2.58 2.58 0 0 1 .842.142 2.09 2.09 0 0 1 .756.462c.227.21.408.49.543.838s.202.776.202 1.285v.355H70.23v-.724h3.352a1.79 1.79 0 0 0-.185-.824 1.4 1.4 0 0 0-.519-.572c-.225-.14-.485-.209-.788-.209-.334 0-.623.083-.867.249a1.63 1.63 0 0 0-.558.639 1.88 1.88 0 0 0-.195.845v.483c0 .412.071.761.213 1.047a1.51 1.51 0 0 0 .6.65c.256.149.553.22.891.22.22 0 .419-.03.597-.092a1.27 1.27 0 0 0 .465-.284 1.29 1.29 0 0 0 .302-.476l.81.227a1.79 1.79 0 0 1-.43.725c-.201.206-.45.367-.746.483a2.78 2.78 0 0 1-.998.17zm5.749 0c-.511 0-.952-.12-1.321-.362s-.653-.574-.852-.998-.298-.908-.298-1.452c0-.554.102-1.043.305-1.467s.492-.759.859-.998.8-.362 1.293-.362a2.45 2.45 0 0 1 1.037.213c.308.142.56.341.756.597s.319.554.366.895h-.838a1.3 1.3 0 0 0-.426-.661c-.218-.194-.511-.291-.881-.291-.327 0-.613.085-.859.256s-.434.406-.572.713-.202.664-.202 1.076a2.8 2.8 0 0 0 .199 1.101c.135.313.324.555.568.728s.535.259.867.259a1.49 1.49 0 0 0 .593-.113 1.23 1.23 0 0 0 .451-.327 1.25 1.25 0 0 0 .263-.511h.838a1.94 1.94 0 0 1-.352.87 1.98 1.98 0 0 1-.735.611c-.305.152-.656.223-1.058.223zm5.742-5.568v.71h-2.827v-.71h2.827zm-2.003-1.307h.838v5.199c0 .237.034.414.103.533a.53.53 0 0 0 .27.234 1.08 1.08 0 0 0 .352.057 1.55 1.55 0 0 0 .227-.014l.142-.029.17.753c-.057.022-.136.043-.238.064a1.73 1.73 0 0 1-.387.036 1.68 1.68 0 0 1-.696-.153 1.37 1.37 0 0 1-.561-.465c-.149-.208-.22-.471-.22-.789v-5.426zm3.263 6.762v-5.455h.838v5.455h-.838zm.426-6.364a.6.6 0 0 1-.423-.167c-.119-.111-.174-.245-.174-.401s.058-.29.174-.401.259-.167.423-.167a.58.58 0 0 1 .419.167.53.53 0 0 1 .178.401.53.53 0 0 1-.178.401c-.116.111-.256.167-.419.167zm4.163 6.477c-.492 0-.925-.117-1.296-.351s-.658-.563-.866-.984-.309-.914-.309-1.477.103-1.064.309-1.488.497-.753.866-.987.804-.352 1.296-.352.923.117 1.293.352.66.563.867.987.313.92.313 1.488-.104 1.056-.312 1.477-.495.749-.867.984-.8.351-1.293.351zm0-.753c.374 0 .682-.095.923-.287a1.7 1.7 0 0 0 .536-.757c.116-.313.174-.651.174-1.015a2.92 2.92 0 0 0-.174-1.019 1.72 1.72 0 0 0-.536-.764c-.241-.194-.549-.291-.923-.291s-.682.097-.923.291a1.72 1.72 0 0 0-.536.764 2.92 2.92 0 0 0-.174 1.019c0 .364.058.703.174 1.015s.295.565.536.757.549.287.923.287zm4.589-2.642v3.282h-.838v-5.455h.81v.852h.071a1.56 1.56 0 0 1 .582-.667c.26-.168.597-.256 1.008-.256.369 0 .692.076.969.227s.493.377.646.682.231.687.231 1.151v3.466h-.838v-3.409c0-.429-.111-.763-.334-1.002s-.528-.362-.916-.362a1.46 1.46 0 0 0-.717.174 1.24 1.24 0 0 0-.494.508c-.121.222-.181.492-.181.809zM30.15 321.688v-7.272h2.457c.571 0 1.037.103 1.399.309a1.93 1.93 0 0 1 .81.827c.175.348.263.736.263 1.165s-.088.818-.263 1.168-.44.63-.803.838-.826.309-1.392.309H30.86v-.781h1.733c.391 0 .704-.067.941-.202a1.21 1.21 0 0 0 .515-.547c.109-.232.163-.494.163-.785a1.8 1.8 0 0 0-.163-.781c-.107-.23-.279-.41-.518-.54s-.556-.199-.952-.199h-1.548v6.491h-.881zm6.234 0v-5.454h.81v.824h.057a1.31 1.31 0 0 1 .54-.657 1.59 1.59 0 0 1 .881-.252l.231.003.209.011v.852a2.43 2.43 0 0 0-.195-.032c-.099-.016-.205-.025-.316-.025-.265 0-.502.056-.71.167a1.26 1.26 0 0 0-.49.455 1.23 1.23 0 0 0-.178.657v3.451h-.838zm5.842.114c-.526 0-.979-.116-1.36-.348s-.671-.561-.877-.98-.305-.911-.305-1.47.102-1.051.305-1.477.492-.763.859-1.002.8-.362 1.293-.362a2.58 2.58 0 0 1 .842.142 2.09 2.09 0 0 1 .756.462c.227.21.408.49.543.838s.202.776.202 1.285v.355H40.28v-.724h3.352c0-.308-.062-.583-.185-.824s-.294-.432-.518-.572-.485-.209-.788-.209a1.51 1.51 0 0 0-.867.248 1.64 1.64 0 0 0-.557.64c-.13.262-.195.544-.195.845v.483c0 .412.071.761.213 1.047a1.51 1.51 0 0 0 .6.65c.256.149.553.22.891.22.22 0 .419-.031.596-.092s.335-.159.465-.284.231-.287.302-.476l.81.227a1.8 1.8 0 0 1-.43.725c-.201.206-.45.367-.746.483a2.78 2.78 0 0 1-.998.17zm7.397-4.346l-.753.213c-.047-.126-.117-.248-.209-.366s-.213-.22-.369-.298-.356-.118-.6-.118c-.334 0-.612.077-.835.231s-.33.345-.33.579a.6.6 0 0 0 .227.494c.151.121.388.221.71.301l.81.199c.488.119.851.3 1.09.544s.359.552.359.934c0 .312-.09.591-.27.838a1.79 1.79 0 0 1-.746.582c-.32.142-.691.213-1.115.213-.556 0-1.017-.121-1.381-.362s-.595-.594-.692-1.058l.795-.199c.076.293.219.514.43.66s.491.22.834.22c.391 0 .701-.082.93-.248s.348-.369.348-.604c0-.189-.066-.348-.199-.476s-.336-.227-.611-.291l-.909-.213c-.5-.118-.866-.302-1.101-.55s-.348-.565-.348-.941a1.35 1.35 0 0 1 .259-.817 1.76 1.76 0 0 1 .714-.558c.301-.135.646-.202 1.03-.202.54 0 .964.118 1.271.355a1.93 1.93 0 0 1 .66.938zm5.225 0l-.753.213a1.38 1.38 0 0 0-.209-.366 1.01 1.01 0 0 0-.369-.298c-.156-.079-.356-.118-.6-.118-.334 0-.612.077-.835.231s-.33.345-.33.579a.6.6 0 0 0 .227.494c.151.121.388.221.71.301l.81.199c.488.119.851.3 1.09.544s.359.552.359.934c0 .312-.09.591-.27.838a1.79 1.79 0 0 1-.746.582c-.32.142-.691.213-1.115.213-.556 0-1.017-.121-1.381-.362s-.595-.594-.692-1.058l.795-.199c.076.293.219.514.43.66s.491.22.834.22c.391 0 .701-.082.93-.248s.348-.369.348-.604c0-.189-.066-.348-.199-.476s-.336-.227-.611-.291l-.909-.213c-.499-.118-.867-.302-1.101-.55s-.348-.565-.348-.941a1.35 1.35 0 0 1 .259-.817 1.76 1.76 0 0 1 .714-.558c.301-.135.646-.202 1.03-.202.54 0 .963.118 1.271.355s.53.549.66.938zm4.799 2.002v-3.224h.838v5.454h-.838v-.923h-.057a1.79 1.79 0 0 1-.597.707c-.27.192-.611.287-1.023.287-.341 0-.644-.074-.909-.223s-.473-.379-.625-.682-.227-.69-.227-1.154v-3.466h.838v3.409c0 .398.111.715.334.952s.511.355.859.355a1.42 1.42 0 0 0 .636-.16c.218-.106.4-.27.547-.49s.224-.501.224-.842zm2.373 2.23v-5.454h.81v.824h.057c.099-.27.279-.489.54-.657a1.59 1.59 0 0 1 .881-.252l.231.003.21.011v.852a2.43 2.43 0 0 0-.195-.032c-.1-.016-.205-.025-.316-.025-.265 0-.502.056-.71.167a1.26 1.26 0 0 0-.49.455 1.23 1.23 0 0 0-.177.657v3.451h-.838zm5.842.114c-.526 0-.979-.116-1.36-.348s-.671-.561-.877-.98-.305-.911-.305-1.47.102-1.051.305-1.477.492-.763.859-1.002.8-.362 1.293-.362a2.58 2.58 0 0 1 .842.142 2.09 2.09 0 0 1 .756.462c.227.21.408.49.543.838s.202.776.202 1.285v.355h-4.205v-.724h3.352c0-.308-.062-.583-.185-.824s-.294-.432-.519-.572-.485-.209-.788-.209a1.51 1.51 0 0 0-.867.248 1.64 1.64 0 0 0-.558.64c-.13.262-.195.544-.195.845v.483c0 .412.071.761.213 1.047a1.51 1.51 0 0 0 .6.65c.256.149.553.22.891.22.22 0 .419-.031.597-.092s.335-.159.465-.284.231-.287.302-.476l.81.227a1.8 1.8 0 0 1-.43.725c-.201.206-.45.367-.746.483a2.78 2.78 0 0 1-.998.17zM30.15 367.613v-7.272h2.457c.568 0 1.035.097 1.399.291s.634.455.81.792.263.718.263 1.147-.088.808-.263 1.14-.444.591-.806.781-.825.28-1.389.28h-1.989v-.795h1.96c.388 0 .701-.057.938-.171s.412-.274.518-.482a1.65 1.65 0 0 0 .163-.753c0-.291-.054-.546-.163-.764a1.11 1.11 0 0 0-.522-.504c-.239-.121-.555-.181-.948-.181H31.03v6.491h-.881zm3.423-3.267l1.79 3.267H34.34l-1.761-3.267h.994zm4.465 3.395a2.22 2.22 0 0 1-.941-.195c-.282-.133-.505-.323-.671-.572s-.249-.554-.249-.909c0-.313.062-.566.185-.76a1.33 1.33 0 0 1 .494-.462 2.55 2.55 0 0 1 .682-.248l.756-.135.806-.096c.208-.024.36-.063.454-.117s.146-.149.146-.284v-.029c0-.35-.096-.622-.288-.816s-.477-.292-.863-.292c-.4 0-.714.088-.941.263a1.55 1.55 0 0 0-.479.561l-.796-.284c.142-.331.332-.589.568-.774a2.14 2.14 0 0 1 .781-.391c.284-.075.563-.113.838-.113a3.3 3.3 0 0 1 .604.064 2 2 0 0 1 .664.252c.213.128.394.321.536.579s.213.603.213 1.037v3.593H39.7v-.738h-.043c-.057.118-.151.245-.284.38s-.309.249-.529.344-.489.142-.806.142zm.128-.753c.332 0 .611-.065.838-.195s.402-.298.518-.504a1.31 1.31 0 0 0 .178-.65v-.767c-.035.042-.114.081-.234.117a3.4 3.4 0 0 1-.412.089l-.451.064-.352.042a3.24 3.24 0 0 0-.611.139 1.05 1.05 0 0 0-.455.28c-.114.123-.17.292-.17.505 0 .291.108.511.323.66s.494.22.827.22zm3.902.625v-5.454h.838v5.454h-.838zm.426-6.363a.6.6 0 0 1-.423-.167c-.119-.111-.174-.245-.174-.402s.058-.29.174-.401.259-.167.423-.167.303.056.419.167a.53.53 0 0 1 .178.401.53.53 0 0 1-.178.402c-.119.112-.256.167-.419.167zm2.785 3.082v3.281h-.838v-5.454h.81v.852h.071a1.56 1.56 0 0 1 .582-.668c.26-.168.597-.255 1.009-.255.369 0 .692.075.969.227s.492.376.646.682.231.686.231 1.15v3.466h-.838v-3.409c0-.428-.111-.762-.334-1.001s-.528-.362-.916-.362a1.46 1.46 0 0 0-.717.174c-.21.116-.373.285-.494.507s-.181.493-.181.81zm7.441-2.173v.71h-2.94v-.71h2.94zm-2.06 5.454v-6.207c0-.313.073-.573.22-.781a1.36 1.36 0 0 1 .572-.469 1.81 1.81 0 0 1 .742-.156 2.11 2.11 0 0 1 .504.049c.13.033.227.064.291.093l-.241.724-.178-.053a1.09 1.09 0 0 0-.291-.032c-.277 0-.477.07-.6.209s-.181.345-.181.615v6.008h-.838zm4.683.128a2.22 2.22 0 0 1-.941-.195c-.282-.133-.505-.323-.671-.572s-.248-.554-.248-.909c0-.313.061-.566.185-.76s.288-.35.494-.462a2.55 2.55 0 0 1 .682-.248l.756-.135.806-.096c.208-.024.36-.063.455-.117s.146-.149.146-.284v-.029c0-.35-.096-.622-.288-.816s-.477-.292-.863-.292c-.4 0-.714.088-.941.263a1.55 1.55 0 0 0-.479.561l-.795-.284c.142-.331.331-.589.568-.774a2.14 2.14 0 0 1 .781-.391 3.28 3.28 0 0 1 .838-.113 3.3 3.3 0 0 1 .604.064 2 2 0 0 1 .664.252c.213.128.394.321.536.579s.213.603.213 1.037v3.593h-.838v-.738h-.043a1.5 1.5 0 0 1-.284.38c-.132.135-.309.249-.529.344s-.489.142-.806.142zm.128-.753c.331 0 .611-.065.838-.195s.402-.298.518-.504a1.31 1.31 0 0 0 .178-.65v-.767c-.036.042-.114.081-.234.117a3.98 3.98 0 0 1-.412.089l-.451.064-.352.042a3.24 3.24 0 0 0-.611.139 1.05 1.05 0 0 0-.454.28c-.114.123-.171.292-.171.505 0 .291.108.511.323.66s.494.22.827.22zm4.74-6.647v7.272h-.838v-7.272h.838zm2.373 0v7.272h-.838v-7.272h.838z"/><path d="M341.002 154.138v-12.364h1.866v10.758h5.602v1.606h-7.468zm9.451 0v-9.273h1.805v9.273h-1.805zm.912-10.704c-.314 0-.584-.104-.809-.314s-.332-.467-.332-.76c0-.298.11-.552.332-.761s.495-.32.809-.32.581.107.803.32a1 1 0 0 1 .338.761c0 .293-.113.547-.338.76s-.489.314-.803.314zm11.254 1.431l-3.362 9.273h-1.932l-3.369-9.273h1.938l2.348 7.136h.097l2.342-7.136h1.938zm5.377 9.46c-.913 0-1.7-.195-2.36-.586s-1.163-.948-1.521-1.66-.532-1.555-.532-2.517c0-.95.178-1.787.532-2.512s.857-1.29 1.497-1.696 1.396-.61 2.258-.61c.523 0 1.03.087 1.521.26s.932.445 1.322.815.698.851.924 1.443c.225.587.338 1.302.338 2.143v.64h-7.371v-1.353h5.602c0-.475-.097-.895-.29-1.261a2.19 2.19 0 0 0-.815-.876c-.346-.213-.752-.32-1.219-.32-.507 0-.95.125-1.328.375-.375.245-.664.567-.87.966s-.301.823-.301 1.285v1.057c0 .62.108 1.147.325 1.582s.53.766.924.996c.395.225.855.338 1.383.338a2.88 2.88 0 0 0 .935-.145c.282-.101.526-.25.731-.447a1.95 1.95 0 0 0 .471-.73l1.708.308a3.1 3.1 0 0 1-.736 1.322c-.351.374-.791.666-1.322.875s-1.129.308-1.806.308zm-36.405 8.449l3.441 10.07h.139l3.441-10.07h2.016l-4.449 12.364h-2.155l-4.45-12.364h2.017zm12.463 12.569c-.588 0-1.119-.109-1.594-.326a2.68 2.68 0 0 1-1.129-.96c-.273-.418-.41-.932-.41-1.539 0-.524.1-.954.302-1.292s.473-.606.815-.803a4.27 4.27 0 0 1 1.147-.447c.422-.1.853-.177 1.292-.229l1.352-.157c.346-.045.598-.115.754-.212s.236-.253.236-.47v-.043c0-.527-.149-.935-.447-1.225s-.732-.435-1.316-.435c-.608 0-1.086.135-1.437.405-.346.265-.585.561-.718.887l-1.696-.386c.201-.564.495-1.019.881-1.365s.839-.603 1.346-.76a5.26 5.26 0 0 1 1.6-.242c.37 0 .763.045 1.177.133a3.46 3.46 0 0 1 1.171.471c.367.229.666.557.9.984s.35.972.35 1.648v6.158h-1.763v-1.268h-.072c-.117.233-.292.463-.525.688s-.534.413-.9.562-.805.223-1.316.223zm.392-1.449c.499 0 .926-.099 1.28-.296s.63-.455.815-.772a2.01 2.01 0 0 0 .284-1.033v-1.195c-.064.064-.189.125-.374.181a5.86 5.86 0 0 1-.622.139l-.682.103-.556.072c-.35.044-.67.119-.96.223-.285.105-.515.256-.688.453s-.253.451-.253.773c0 .447.165.785.495 1.014s.75.338 1.261.338zm8.393-11.12v12.364h-1.805v-12.364h1.805zm8.303 8.518v-5.427h1.811v9.273h-1.775v-1.606h-.097c-.213.495-.555.907-1.026 1.237s-1.049.489-1.745.489c-.595 0-1.123-.13-1.581-.392s-.813-.658-1.075-1.177-.386-1.161-.386-1.926v-5.898h1.805v5.681c0 .632.175 1.135.525 1.509s.805.561 1.364.561c.338 0 .674-.084 1.008-.253s.618-.425.84-.767.336-.777.332-1.304zm8.232 4.033c-.913 0-1.7-.195-2.36-.586s-1.163-.948-1.521-1.66-.532-1.555-.532-2.517c0-.95.178-1.787.532-2.512s.857-1.29 1.497-1.696 1.396-.61 2.258-.61c.523 0 1.03.087 1.521.26s.932.445 1.322.815.698.851.924 1.443c.225.587.338 1.302.338 2.143v.64h-7.371v-1.353h5.602c0-.475-.097-.895-.29-1.261a2.19 2.19 0 0 0-.815-.876c-.346-.213-.752-.32-1.219-.32-.507 0-.95.125-1.328.375-.375.245-.664.567-.87.966a2.79 2.79 0 0 0-.302 1.285v1.057c0 .62.109 1.147.326 1.582s.53.766.924.996c.394.225.855.338 1.383.338a2.88 2.88 0 0 0 .935-.145c.282-.101.525-.25.731-.447a1.95 1.95 0 0 0 .471-.73l1.708.308a3.1 3.1 0 0 1-.736 1.322c-.351.374-.791.666-1.323.875-.527.205-1.128.308-1.805.308zm12.93-7.196l-1.636.29a1.92 1.92 0 0 0-.326-.598c-.145-.189-.342-.344-.592-.465s-.561-.181-.935-.181c-.511 0-.938.115-1.28.344s-.513.517-.513.875a.92.92 0 0 0 .344.749c.229.189.599.344 1.111.465l1.473.338c.853.197 1.489.501 1.907.912s.628.943.628 1.599c0 .556-.161 1.051-.483 1.485s-.762.769-1.334 1.015-1.225.368-1.974.368c-1.038 0-1.886-.222-2.542-.664s-1.058-1.081-1.207-1.902l1.745-.265c.108.454.332.798.67 1.032.338.229.779.344 1.322.344.591 0 1.064-.123 1.419-.368s.531-.554.531-.912c0-.29-.109-.533-.326-.73s-.542-.346-.984-.447l-1.57-.344c-.865-.197-1.505-.511-1.92-.942-.41-.431-.615-.976-.615-1.636 0-.547.153-1.026.458-1.437s.729-.73 1.268-.96 1.157-.35 1.854-.35c1.002 0 1.791.218 2.366.652a3.03 3.03 0 0 1 1.141 1.733z"/></g><rect x="19.864" y="483.338" width="207.427" height="21" rx="10.5" fill="#f85550"/><path d="M101.9 498.338v-8.727h3.273c.67 0 1.233.116 1.687.349s.803.56 1.036.98.353.905.353 1.462-.119 1.045-.358 1.457-.583.726-1.044.95-1.025.333-1.696.333h-2.331v-1.313h2.118c.392 0 .713-.054.963-.162a1.14 1.14 0 0 0 .554-.481c.122-.213.183-.475.183-.784s-.061-.574-.183-.793a1.17 1.17 0 0 0-.558-.503c-.25-.116-.572-.174-.967-.174h-1.449v7.406H101.9zm4.508-3.955l2.161 3.955h-1.764l-2.122-3.955h1.725zm6.032 4.083c-.656 0-1.223-.137-1.7-.409s-.839-.665-1.095-1.168-.384-1.101-.384-1.785c0-.674.128-1.265.384-1.773a2.89 2.89 0 0 1 1.082-1.193c.463-.287 1.007-.431 1.632-.431.404 0 .784.066 1.142.196s.679.327.955.597.497.613.656 1.031.239.909.239 1.483v.473h-5.365v-1.04h3.886a1.66 1.66 0 0 0-.192-.788c-.125-.233-.299-.416-.524-.55s-.48-.2-.775-.2c-.316 0-.593.077-.831.23s-.425.349-.559.597-.197.512-.2.805v.908c0 .38.07.707.209.98a1.49 1.49 0 0 0 .584.622c.25.142.542.213.878.213.224 0 .427-.031.609-.094a1.34 1.34 0 0 0 .473-.285c.134-.125.234-.28.303-.465l1.44.162a2.24 2.24 0 0 1-.52.997c-.253.282-.577.5-.972.657s-.846.23-1.355.23zm7.531-6.674v1.194h-3.869v-1.194h3.869zm-2.902 6.546v-7.163c0-.441.091-.807.273-1.1s.432-.511.741-.656.654-.217 1.032-.217a3.6 3.6 0 0 1 .711.063l.461.116-.307 1.193a2.74 2.74 0 0 0-.247-.06 1.49 1.49 0 0 0-.333-.034c-.287 0-.49.07-.609.209s-.175.332-.175.588v7.061h-1.547zm4.11 0v-6.546h1.496v1.091h.068c.12-.377.324-.669.614-.873s.626-.311 1.001-.311l.286.012a1.99 1.99 0 0 1 .268.03v1.419c-.065-.022-.169-.042-.311-.059s-.274-.03-.405-.03a1.56 1.56 0 0 0-.758.183 1.34 1.34 0 0 0-.524.499 1.4 1.4 0 0 0-.192.737v3.848h-1.543zm7.386.128c-.656 0-1.223-.137-1.7-.409s-.839-.665-1.095-1.168-.384-1.101-.384-1.785c0-.674.128-1.265.384-1.773a2.89 2.89 0 0 1 1.082-1.193c.463-.287 1.007-.431 1.632-.431.404 0 .784.066 1.142.196s.679.327.955.597.497.613.656 1.031.239.909.239 1.483v.473h-5.365v-1.04h3.886a1.66 1.66 0 0 0-.192-.788c-.125-.233-.299-.416-.524-.55s-.48-.2-.775-.2c-.316 0-.593.077-.831.23s-.425.349-.559.597-.197.512-.2.805v.908c0 .38.07.707.209.98a1.49 1.49 0 0 0 .584.622c.25.142.542.213.878.213.224 0 .427-.031.609-.094a1.34 1.34 0 0 0 .473-.285c.134-.125.234-.28.303-.465l1.44.162a2.24 2.24 0 0 1-.52.997c-.253.282-.577.5-.972.657s-.846.23-1.355.23zm9.389-4.943l-1.406.153c-.04-.142-.109-.276-.209-.401s-.227-.225-.392-.302-.366-.115-.605-.115c-.321 0-.591.069-.81.209s-.322.319-.319.541a.56.56 0 0 0 .209.464c.144.12.383.218.715.294l1.117.239c.619.133 1.079.345 1.381.635s.457.669.46 1.138c-.003.412-.124.775-.362 1.091s-.564.556-.985.733-.903.264-1.449.264c-.801 0-1.446-.168-1.934-.503a2.02 2.02 0 0 1-.874-1.411l1.504-.145c.069.296.213.519.435.67s.51.225.865.225c.367 0 .661-.075.882-.225s.337-.337.337-.559c0-.187-.073-.342-.217-.464s-.364-.216-.665-.281l-1.117-.235c-.628-.131-1.092-.351-1.393-.66s-.45-.708-.448-1.185c-.002-.403.107-.753.328-1.048s.536-.529.934-.691.862-.247 1.385-.247c.767 0 1.37.164 1.811.49s.717.769.822 1.326zm2.955.98v3.835h-1.542v-8.727h1.508v3.294h.077a1.89 1.89 0 0 1 .712-.874c.324-.216.736-.324 1.236-.324.454 0 .85.095 1.188.286s.6.468.785.835.281.814.281 1.342v4.168h-1.543v-3.929c0-.44-.113-.783-.341-1.027s-.54-.371-.946-.371c-.273 0-.517.06-.733.179s-.38.286-.503.507-.179.49-.179.806z" class="B"/><path d="M356.204 470.451c-5.003.004-9.828 1.857-13.547 5.204v-3.51c0-.45-.179-.88-.496-1.198a1.7 1.7 0 0 0-1.198-.496c-.449 0-.88.179-1.197.496a1.69 1.69 0 0 0-.496 1.198v5.08a5.08 5.08 0 0 0 5.08 5.08h5.08c.449 0 .88-.178 1.198-.496s.496-.748.496-1.197a1.7 1.7 0 0 0-1.694-1.694h-5.08a1.37 1.37 0 0 1-.169-.035 16.91 16.91 0 0 1 10.294-4.91c3.897-.395 7.81.574 11.071 2.742s5.669 5.402 6.812 9.148.951 7.773-.544 11.393-4.201 6.608-7.654 8.456a16.91 16.91 0 0 1-11.282 1.673c-3.841-.765-7.298-2.839-9.779-5.869s-3.835-6.827-3.829-10.744c0-.449-.179-.879-.496-1.197s-.749-.496-1.198-.496a1.69 1.69 0 0 0-1.693 1.693c0 4.02 1.192 7.949 3.425 11.29s5.406 5.947 9.119 7.485 7.8 1.94 11.742 1.156 7.562-2.719 10.404-5.561a20.32 20.32 0 0 0 4.406-22.146 20.33 20.33 0 0 0-7.485-9.12 20.32 20.32 0 0 0-11.29-3.425z" fill="#575757"/><defs><filter id="A" x="11" y="16.5" width="228" height="64" filterUnits="userSpaceOnUse" class="C"><feFlood result="A" class="D"/><feColorMatrix in="SourceAlpha" values="0 0 0 0 0 0 0 0 0 0 0 0 0 0 0 0 0 0 127 0" result="B"/><feMorphology radius="1" operator="dilate" in="SourceAlpha"/><feOffset dy="1"/><feGaussianBlur stdDeviation="2.5"/><feComposite in2="B" operator="out"/><feColorMatrix values="0 0 0 0 0 0 0 0 0 0 0 0 0 0 0 0 0 0 0.1 0"/><feBlend in2="A"/><feBlend in="SourceGraphic"/></filter><filter id="B" x="10" y="116.771" width="228" height="48.812" filterUnits="userSpaceOnUse" class="C"><feFlood result="A" class="D"/><feColorMatrix in="SourceAlpha" values="0 0 0 0 0 0 0 0 0 0 0 0 0 0 0 0 0 0 127 0" result="B"/><feMorphology radius="1" operator="dilate" in="SourceAlpha"/><feOffset dy="1"/><feGaussianBlur stdDeviation="2.5"/><feComposite in2="B" operator="out"/><feColorMatrix values="0 0 0 0 0 0 0 0 0 0 0 0 0 0 0 0 0 0 0.1 0"/><feBlend in2="A"/><feBlend in="SourceGraphic"/></filter><filter id="C" x="10" y="159.853" width="228" height="48.812" filterUnits="userSpaceOnUse" class="C"><feFlood result="A" class="D"/><feColorMatrix in="SourceAlpha" values="0 0 0 0 0 0 0 0 0 0 0 0 0 0 0 0 0 0 127 0" result="B"/><feMorphology radius="1" operator="dilate" in="SourceAlpha"/><feOffset dy="1"/><feGaussianBlur stdDeviation="2.5"/><feComposite in2="B" operator="out"/><feColorMatrix values="0 0 0 0 0 0 0 0 0 0 0 0 0 0 0 0 0 0 0.1 0"/><feBlend in2="A"/><feBlend in="SourceGraphic"/></filter><filter id="D" x="10" y="202.934" width="228" height="48.812" filterUnits="userSpaceOnUse" class="C"><feFlood result="A" class="D"/><feColorMatrix in="SourceAlpha" values="0 0 0 0 0 0 0 0 0 0 0 0 0 0 0 0 0 0 127 0" result="B"/><feMorphology radius="1" operator="dilate" in="SourceAlpha"/><feOffset dy="1"/><feGaussianBlur stdDeviation="2.5"/><feComposite in2="B" operator="out"/><feColorMatrix values="0 0 0 0 0 0 0 0 0 0 0 0 0 0 0 0 0 0 0.1 0"/><feBlend in2="A"/><feBlend in="SourceGraphic"/></filter><filter id="E" x="10" y="248.858" width="228" height="48.812" filterUnits="userSpaceOnUse" class="C"><feFlood result="A" class="D"/><feColorMatrix in="SourceAlpha" values="0 0 0 0 0 0 0 0 0 0 0 0 0 0 0 0 0 0 127 0" result="B"/><feMorphology radius="1" operator="dilate" in="SourceAlpha"/><feOffset dy="1"/><feGaussianBlur stdDeviation="2.5"/><feComposite in2="B" operator="out"/><feColorMatrix values="0 0 0 0 0 0 0 0 0 0 0 0 0 0 0 0 0 0 0.1 0"/><feBlend in2="A"/><feBlend in="SourceGraphic"/></filter><filter id="F" x="10" y="294.783" width="228" height="48.812" filterUnits="userSpaceOnUse" class="C"><feFlood result="A" class="D"/><feColorMatrix in="SourceAlpha" values="0 0 0 0 0 0 0 0 0 0 0 0 0 0 0 0 0 0 127 0" result="B"/><feMorphology radius="1" operator="dilate" in="SourceAlpha"/><feOffset dy="1"/><feGaussianBlur stdDeviation="2.5"/><feComposite in2="B" operator="out"/><feColorMatrix values="0 0 0 0 0 0 0 0 0 0 0 0 0 0 0 0 0 0 0.1 0"/><feBlend in2="A"/><feBlend in="SourceGraphic"/></filter><filter id="G" x="10" y="340.708" width="228" height="48.812" filterUnits="userSpaceOnUse" class="C"><feFlood result="A" class="D"/><feColorMatrix in="SourceAlpha" values="0 0 0 0 0 0 0 0 0 0 0 0 0 0 0 0 0 0 127 0" result="B"/><feMorphology radius="1" operator="dilate" in="SourceAlpha"/><feOffset dy="1"/><feGaussianBlur stdDeviation="2.5"/><feComposite in2="B" operator="out"/><feColorMatrix values="0 0 0 0 0 0 0 0 0 0 0 0 0 0 0 0 0 0 0.1 0"/><feBlend in2="A"/><feBlend in="SourceGraphic"/></filter><linearGradient id="H" x1="128" y1="0" x2="128" y2="533" href="#T"><stop stop-color="#2f67ff"/><stop offset="1" stop-color="#ff5f9b"/></linearGradient><linearGradient id="I" x1="249.563" y1="492.47" x2="306.204" y2="492.47" href="#T"><stop stop-color="#2f67ff"/><stop offset="1" stop-color="#c262b8"/></linearGradient><linearGradient id="J" x1="249.563" y1="138.456" x2="311.166" y2="138.456" href="#T"><stop stop-color="#2f67ff"/><stop offset="1" stop-color="#ff5f9b"/></linearGradient><linearGradient id="K" x1="249.563" y1="182.458" x2="313.396" y2="182.458" href="#T"><stop stop-color="#2f67ff"/><stop offset="1" stop-color="#ff5f9b"/></linearGradient><linearGradient id="L" x1="249.563" y1="225.539" x2="356.204" y2="225.539" href="#T"><stop stop-color="#2f67ff"/><stop offset="1" stop-color="#ff5f9b"/></linearGradient><linearGradient id="M" x1="249.563" y1="271.464" x2="356.204" y2="271.464" href="#T"><stop stop-color="#2f67ff"/><stop offset="1" stop-color="#ff5f9b"/></linearGradient><linearGradient id="N" x1="249.563" y1="317.389" x2="356.204" y2="317.389" href="#T"><stop stop-color="#2f67ff"/><stop offset="1" stop-color="#ff5f9b"/></linearGradient><linearGradient id="O" x1="249.563" y1="363.313" x2="356.204" y2="363.313" href="#T"><stop stop-color="#2f67ff"/><stop offset="1" stop-color="#ff5f9b"/></linearGradient><linearGradient id="P" x1="357.004" y1="207.933" x2="357.004" y2="364.613" href="#T"><stop stop-color="#2f67ff"/><stop offset="1" stop-color="#ff5f9b"/></linearGradient><linearGradient id="Q" x1="356.204" y1="440.771" x2="356.204" y2="540.771" href="#T"><stop stop-color="#2f67ff"/><stop offset="1" stop-color="#ff5f9b"/></linearGradient><linearGradient id="R" x1="356.204" y1="108.584" x2="356.204" y2="208.584" href="#T"><stop stop-color="#2f67ff"/><stop offset="1" stop-color="#ff5f9b"/></linearGradient><path id="S" d="M37.372 62.025v.823"/><linearGradient id="T" gradientUnits="userSpaceOnUse"/></defs></svg>