<svg width="649" height="444" viewBox="0 0 649 444" fill="none" xmlns="http://www.w3.org/2000/svg">
<rect width="648.673" height="443.47" rx="20" fill="white"/>
<rect x="272.194" y="181.378" width="48.1667" height="42.5" fill="white"/>
<line x1="587.191" y1="326.121" x2="135.631" y2="326.121" stroke="url(#paint0_linear_1001_6912)" stroke-width="0.6" stroke-linecap="round"/>
<path d="M135.933 48.2119C135.933 48.0462 135.798 47.9119 135.633 47.9119C135.467 47.9119 135.333 48.0462 135.333 48.2119L135.633 48.2119L135.933 48.2119ZM135.633 48.2119L135.333 48.2119L135.333 325.821L135.633 325.821L135.933 325.821L135.933 48.2119L135.633 48.2119Z" fill="url(#paint1_linear_1001_6912)"/>
<path d="M47.6045 251.348L33.059 251.348L33.059 245.609C33.059 244.51 33.2555 243.573 33.6485 242.796C34.0368 242.015 34.5884 241.421 35.3034 241.014C36.0136 240.602 36.8493 240.396 37.8105 240.396C38.7764 240.396 39.6073 240.604 40.3034 241.021C40.9946 241.438 41.5249 242.041 41.8943 242.832C42.2636 243.618 42.4482 244.57 42.4482 245.687L42.4482 249.529L39.9767 249.529L39.9767 246.184C39.9767 245.597 39.8962 245.109 39.7352 244.721C39.5742 244.333 39.3327 244.044 39.0107 243.855C38.6888 243.661 38.2887 243.564 37.8105 243.564C37.3275 243.564 36.9203 243.661 36.5889 243.855C36.2574 244.044 36.0065 244.335 35.836 244.728C35.6608 245.117 35.5732 245.607 35.5732 246.198L35.5732 248.272L47.6045 248.272L47.6045 251.348ZM40.9852 243.492L47.6045 239.877L47.6045 243.272L40.9852 246.809L40.9852 243.492ZM37.2423 230.332C36.6694 230.389 36.2243 230.633 35.907 231.064C35.5898 231.494 35.4312 232.079 35.4312 232.818C35.4312 233.32 35.5022 233.743 35.6443 234.089C35.7816 234.435 35.9733 234.7 36.2195 234.885C36.4658 235.064 36.7451 235.154 37.0576 235.154C37.318 235.164 37.5453 235.109 37.7394 234.991C37.9336 234.868 38.1017 234.7 38.2437 234.487C38.381 234.274 38.5017 234.028 38.6059 233.748C38.7053 233.469 38.7906 233.171 38.8616 232.853L39.1741 231.546C39.3161 230.912 39.5055 230.33 39.7423 229.799C39.979 229.269 40.2702 228.81 40.6159 228.421C40.9615 228.033 41.3687 227.733 41.8374 227.519C42.3062 227.302 42.8436 227.19 43.4497 227.186C44.3398 227.19 45.1116 227.418 45.765 227.867C46.4137 228.313 46.9179 228.957 47.2778 229.799C47.6329 230.637 47.8105 231.648 47.8105 232.832C47.8105 234.006 47.6305 235.029 47.2707 235.9C46.9108 236.767 46.3782 237.444 45.6727 237.931C44.9624 238.414 44.0841 238.668 43.0377 238.691L43.0377 235.716C43.5254 235.682 43.9326 235.543 44.2593 235.296C44.5813 235.046 44.8251 234.712 44.9909 234.295C45.1518 233.874 45.2323 233.398 45.2323 232.867C45.2323 232.347 45.1566 231.894 45.0051 231.511C44.8535 231.123 44.6428 230.822 44.373 230.609C44.1031 230.396 43.7929 230.289 43.4426 230.289C43.1159 230.289 42.8412 230.386 42.6187 230.581C42.3962 230.77 42.2068 231.049 42.0505 231.419C41.8943 231.783 41.7522 232.231 41.6244 232.761L41.2267 234.345C40.9284 235.571 40.462 236.539 39.8275 237.25C39.193 237.96 38.3384 238.313 37.2636 238.308C36.3829 238.313 35.6135 238.078 34.9553 237.605C34.2972 237.126 33.7835 236.471 33.4142 235.637C33.0448 234.804 32.8602 233.857 32.8602 232.796C32.8602 231.717 33.0448 230.775 33.4141 229.97C33.7835 229.16 34.2972 228.53 34.9553 228.081C35.6135 227.631 36.3758 227.399 37.2423 227.385L37.2423 230.332ZM37.2423 217.227C36.6694 217.283 36.2243 217.527 35.907 217.958C35.5898 218.389 35.4312 218.974 35.4312 219.712C35.4312 220.214 35.5022 220.638 35.6443 220.984C35.7816 221.329 35.9733 221.594 36.2195 221.779C36.4658 221.959 36.7451 222.049 37.0576 222.049C37.318 222.058 37.5453 222.004 37.7394 221.886C37.9336 221.763 38.1016 221.594 38.2437 221.381C38.381 221.168 38.5017 220.922 38.6059 220.643C38.7053 220.363 38.7906 220.065 38.8616 219.748L39.1741 218.441C39.3161 217.807 39.5055 217.224 39.7423 216.694C39.979 216.164 40.2702 215.704 40.6159 215.316C40.9615 214.928 41.3687 214.627 41.8374 214.414C42.3062 214.196 42.8436 214.085 43.4497 214.08C44.3398 214.085 45.1116 214.312 45.765 214.762C46.4137 215.207 46.9179 215.851 47.2778 216.694C47.6329 217.532 47.8105 218.543 47.8105 219.727C47.8105 220.901 47.6305 221.923 47.2707 222.795C46.9108 223.661 46.3782 224.338 45.6727 224.826C44.9624 225.309 44.0841 225.562 43.0377 225.586L43.0377 222.61C43.5254 222.577 43.9326 222.437 44.2593 222.191C44.5813 221.94 44.8251 221.606 44.9909 221.19C45.1518 220.768 45.2323 220.292 45.2323 219.762C45.2323 219.241 45.1566 218.789 45.0051 218.405C44.8535 218.017 44.6428 217.717 44.373 217.504C44.1031 217.29 43.7929 217.184 43.4426 217.184C43.1159 217.184 42.8412 217.281 42.6187 217.475C42.3962 217.664 42.2068 217.944 42.0505 218.313C41.8943 218.678 41.7522 219.125 41.6244 219.655L41.2266 221.239C40.9284 222.466 40.462 223.434 39.8275 224.144C39.193 224.854 38.3384 225.207 37.2636 225.202C36.3829 225.207 35.6135 224.973 34.9553 224.499C34.2972 224.021 33.7835 223.365 33.4141 222.532C33.0448 221.699 32.8602 220.752 32.8602 219.691C32.8602 218.611 33.0448 217.669 33.4141 216.864C33.7835 216.055 34.2972 215.425 34.9553 214.975C35.6135 214.525 36.3758 214.293 37.2423 214.279L37.2423 217.227ZM33.059 208.936L47.6045 208.936L47.6045 212.012L33.059 212.012L33.059 208.936ZM47.8176 197.374C47.8176 198.378 47.6376 199.244 47.2778 199.973C46.9179 200.702 46.4302 201.264 45.8147 201.657C45.1945 202.045 44.5032 202.239 43.7409 202.239C43.1727 202.239 42.6684 202.125 42.2281 201.898C41.7877 201.671 41.3829 201.354 41.0136 200.946C40.6395 200.539 40.2678 200.066 39.8985 199.526L38.0448 196.706C37.8128 196.342 37.569 196.074 37.3133 195.904C37.0529 195.733 36.7712 195.648 36.4681 195.648C36.1793 195.648 35.9118 195.764 35.6656 195.996C35.4194 196.228 35.2986 196.557 35.3034 196.983C35.3034 197.267 35.3673 197.514 35.4951 197.722C35.6182 197.93 35.7816 198.094 35.9852 198.212C36.184 198.326 36.4066 198.382 36.6528 198.382C36.9558 198.382 37.2636 198.297 37.5761 198.127C37.8886 197.956 38.22 197.729 38.5704 197.445C38.916 197.161 39.2901 196.851 39.6926 196.515L47.6045 189.618L47.6045 192.772L41.1982 198.524C40.7674 198.903 40.3176 199.282 39.8488 199.661C39.3753 200.035 38.8734 200.347 38.3431 200.598C37.8081 200.849 37.2281 200.975 36.6031 200.975C35.8976 200.975 35.2631 200.811 34.6997 200.485C34.1362 200.153 33.6911 199.689 33.3644 199.093C33.033 198.496 32.8673 197.8 32.8673 197.005C32.8673 196.228 33.0259 195.558 33.3431 194.995C33.6556 194.426 34.0723 193.991 34.5931 193.688C35.1092 193.38 35.6774 193.226 36.2977 193.226C36.9842 193.226 37.6069 193.397 38.1656 193.738C38.7195 194.074 39.2167 194.547 39.657 195.158L41.7948 198.127C42.0884 198.529 42.3891 198.827 42.6968 199.022C42.9998 199.211 43.291 199.306 43.5704 199.306C43.916 199.306 44.2262 199.22 44.5008 199.05C44.7754 198.88 44.9932 198.638 45.1542 198.326C45.3105 198.013 45.3886 197.646 45.3886 197.225C45.3886 196.713 45.2726 196.209 45.0406 195.712C44.8038 195.21 44.47 194.756 44.0391 194.348C43.6035 193.936 43.0874 193.607 42.4909 193.361C41.8943 193.115 41.2338 192.992 40.5093 192.992L40.5093 190.485C41.3995 190.485 42.202 190.582 42.917 190.776C43.6272 190.97 44.2475 191.24 44.7778 191.586C45.3034 191.931 45.7342 192.327 46.0704 192.772C46.1604 192.914 46.2456 193.051 46.3261 193.184C46.4066 193.316 46.4918 193.453 46.5818 193.595C47.0174 194.135 47.3322 194.739 47.5264 195.407C47.7205 196.069 47.8176 196.725 47.8176 197.374ZM37.2423 175.781C36.6694 175.838 36.2243 176.082 35.907 176.513C35.5898 176.944 35.4312 177.528 35.4312 178.267C35.4312 178.769 35.5022 179.193 35.6443 179.538C35.7816 179.884 35.9733 180.149 36.2195 180.334C36.4658 180.514 36.7451 180.604 37.0576 180.604C37.318 180.613 37.5453 180.559 37.7394 180.44C37.9336 180.317 38.1016 180.149 38.2437 179.936C38.381 179.723 38.5017 179.477 38.6059 179.197C38.7053 178.918 38.7906 178.62 38.8616 178.303L39.1741 176.996C39.3161 176.361 39.5055 175.779 39.7423 175.249C39.979 174.718 40.2702 174.259 40.6159 173.871C40.9615 173.482 41.3687 173.182 41.8374 172.969C42.3062 172.751 42.8436 172.64 43.4497 172.635C44.3398 172.64 45.1116 172.867 45.765 173.317C46.4137 173.762 46.9179 174.406 47.2778 175.249C47.6329 176.087 47.8105 177.097 47.8105 178.281C47.8105 179.455 47.6305 180.478 47.2707 181.349C46.9108 182.216 46.3782 182.893 45.6727 183.381C44.9624 183.864 44.0841 184.117 43.0377 184.141L43.0377 181.165C43.5254 181.132 43.9326 180.992 44.2593 180.746C44.5813 180.495 44.8251 180.161 44.9909 179.744C45.1518 179.323 45.2323 178.847 45.2323 178.317C45.2323 177.796 45.1566 177.344 45.0051 176.96C44.8535 176.572 44.6428 176.271 44.373 176.058C44.1031 175.845 43.7929 175.739 43.4426 175.739C43.1159 175.739 42.8412 175.836 42.6187 176.03C42.3962 176.219 42.2068 176.499 42.0505 176.868C41.8943 177.232 41.7522 177.68 41.6244 178.21L41.2266 179.794C40.9284 181.02 40.462 181.989 39.8275 182.699C39.193 183.409 38.3384 183.762 37.2636 183.757C36.3829 183.762 35.6135 183.527 34.9553 183.054C34.2972 182.576 33.7835 181.92 33.4141 181.087C33.0448 180.253 32.8602 179.306 32.8602 178.246C32.8602 177.166 33.0448 176.224 33.4141 175.419C33.7835 174.609 34.2972 173.98 34.9553 173.53C35.6135 173.08 36.3758 172.848 37.2423 172.834L37.2423 175.781ZM33.059 158.4L47.6045 158.4L47.6045 161.056L38.4497 167.385L38.4497 167.491L47.6045 167.491L47.6045 170.566L33.059 170.566L33.059 167.867L42.2068 161.589L42.2068 161.461L33.059 161.461L33.059 158.4ZM47.6045 155.859L33.059 155.859L33.059 150.121C33.059 149.022 33.2555 148.085 33.6485 147.308C34.0368 146.527 34.5884 145.933 35.3034 145.526C36.0136 145.114 36.8493 144.908 37.8105 144.908C38.7764 144.908 39.6073 145.116 40.3034 145.533C40.9946 145.949 41.5249 146.553 41.8943 147.344C42.2636 148.13 42.4482 149.081 42.4482 150.199L42.4482 154.041L39.9766 154.041L39.9766 150.696C39.9766 150.109 39.8962 149.621 39.7352 149.233C39.5742 148.845 39.3327 148.556 39.0107 148.366C38.6888 148.172 38.2887 148.075 37.8105 148.075C37.3275 148.075 36.9203 148.172 36.5889 148.366C36.2574 148.556 36.0065 148.847 35.836 149.24C35.6608 149.628 35.5732 150.118 35.5732 150.71L35.5732 152.784L47.6045 152.784L47.6045 155.859ZM40.9852 148.004L47.6045 144.389L47.6045 147.784L40.9852 151.321L40.9852 148.004Z" fill="#1E1E1E"/>
<path d="M282.323 405.284H277.167L277.167 390.738H282.365C283.828 390.738 285.088 391.029 286.144 391.612C287.2 392.189 288.012 393.02 288.58 394.105C289.153 395.189 289.439 396.486 289.439 397.997C289.439 399.512 289.153 400.814 288.58 401.903C288.012 402.992 287.195 403.828 286.13 404.41C285.069 404.992 283.8 405.284 282.323 405.284ZM280.242 402.649H282.195C283.104 402.649 283.869 402.488 284.489 402.166C285.114 401.839 285.583 401.335 285.895 400.653C286.212 399.966 286.371 399.081 286.371 397.997C286.371 396.922 286.212 396.044 285.895 395.362C285.583 394.68 285.116 394.178 284.496 393.856C283.876 393.534 283.111 393.373 282.202 393.373H280.242V402.649ZM291.661 405.284L291.661 394.375H294.686L294.686 405.284H291.661ZM293.18 392.968C292.731 392.968 292.345 392.819 292.023 392.521C291.705 392.218 291.547 391.856 291.547 391.434C291.547 391.018 291.705 390.66 292.023 390.362C292.345 390.059 292.731 389.907 293.18 389.907C293.63 389.907 294.014 390.059 294.331 390.362C294.653 390.66 294.814 391.018 294.814 391.434C294.814 391.856 294.653 392.218 294.331 392.521C294.014 392.819 293.63 392.968 293.18 392.968ZM306.186 397.485L303.417 397.656C303.369 397.419 303.267 397.206 303.111 397.017C302.955 396.823 302.749 396.669 302.493 396.555C302.242 396.437 301.942 396.377 301.591 396.377C301.123 396.377 300.727 396.477 300.405 396.676C300.083 396.87 299.922 397.13 299.922 397.457C299.922 397.717 300.026 397.938 300.235 398.117C300.443 398.297 300.801 398.442 301.307 398.551L303.282 398.948C304.342 399.166 305.133 399.517 305.654 400C306.175 400.483 306.435 401.117 306.435 401.903C306.435 402.618 306.224 403.245 305.803 403.785C305.386 404.325 304.813 404.746 304.084 405.049C303.36 405.348 302.524 405.497 301.577 405.497C300.133 405.497 298.982 405.196 298.125 404.595C297.273 403.989 296.774 403.165 296.627 402.123L299.603 401.967C299.693 402.407 299.91 402.743 300.256 402.975C300.602 403.203 301.044 403.316 301.584 403.316C302.114 403.316 302.541 403.215 302.863 403.011C303.189 402.803 303.355 402.535 303.36 402.208C303.355 401.934 303.239 401.709 303.012 401.534C302.784 401.354 302.434 401.216 301.961 401.122L300.071 400.745C299.006 400.532 298.213 400.163 297.692 399.637C297.176 399.112 296.918 398.442 296.918 397.627C296.918 396.927 297.107 396.323 297.486 395.816C297.87 395.31 298.407 394.919 299.098 394.644C299.794 394.37 300.609 394.233 301.542 394.233C302.919 394.233 304.004 394.524 304.794 395.106C305.59 395.689 306.054 396.482 306.186 397.485ZM314.143 394.375V396.647H307.573V394.375H314.143ZM309.065 391.761H312.09V401.931C312.09 402.211 312.133 402.429 312.218 402.585C312.303 402.736 312.422 402.843 312.573 402.904C312.729 402.966 312.909 402.997 313.113 402.997C313.255 402.997 313.397 402.985 313.539 402.961C313.681 402.933 313.79 402.912 313.866 402.897L314.342 405.149C314.19 405.196 313.977 405.251 313.702 405.312C313.428 405.378 313.094 405.419 312.701 405.433C311.972 405.461 311.333 405.364 310.783 405.142C310.239 404.919 309.815 404.573 309.512 404.105C309.209 403.636 309.06 403.044 309.065 402.329V391.761ZM319.224 405.49C318.528 405.49 317.908 405.369 317.364 405.127C316.819 404.881 316.388 404.519 316.071 404.041C315.759 403.558 315.602 402.957 315.602 402.237C315.602 401.631 315.714 401.122 315.936 400.71C316.159 400.298 316.462 399.966 316.845 399.716C317.229 399.465 317.664 399.275 318.152 399.147C318.644 399.019 319.161 398.93 319.7 398.877C320.335 398.811 320.846 398.75 321.234 398.693C321.623 398.631 321.904 398.541 322.08 398.423C322.255 398.305 322.342 398.129 322.342 397.897V397.855C322.342 397.405 322.2 397.057 321.916 396.811C321.637 396.564 321.239 396.441 320.723 396.441C320.179 396.441 319.745 396.562 319.423 396.804C319.101 397.04 318.888 397.339 318.784 397.698L315.986 397.471C316.128 396.808 316.407 396.235 316.824 395.752C317.241 395.265 317.778 394.891 318.436 394.63C319.099 394.365 319.866 394.233 320.737 394.233C321.343 394.233 321.923 394.304 322.477 394.446C323.036 394.588 323.531 394.808 323.962 395.106C324.397 395.404 324.741 395.788 324.991 396.257C325.242 396.721 325.368 397.277 325.368 397.926L325.368 405.284H322.499L322.499 403.771H322.413C322.238 404.112 322.004 404.412 321.71 404.673C321.417 404.929 321.064 405.13 320.652 405.277C320.24 405.419 319.764 405.49 319.224 405.49ZM320.091 403.402C320.536 403.402 320.929 403.314 321.27 403.139C321.611 402.959 321.878 402.717 322.072 402.414C322.267 402.111 322.364 401.768 322.364 401.385V400.227C322.269 400.288 322.139 400.345 321.973 400.397C321.812 400.445 321.63 400.49 321.426 400.532C321.223 400.57 321.019 400.606 320.815 400.639C320.612 400.667 320.427 400.693 320.261 400.717C319.906 400.769 319.596 400.852 319.331 400.966C319.066 401.079 318.86 401.233 318.713 401.427C318.566 401.617 318.493 401.853 318.493 402.137C318.493 402.549 318.642 402.864 318.94 403.082C319.243 403.295 319.627 403.402 320.091 403.402ZM330.741 398.977L330.741 405.284H327.715L327.715 394.375H330.599V396.299H330.727C330.968 395.665 331.373 395.163 331.941 394.794C332.509 394.42 333.198 394.233 334.008 394.233C334.765 394.233 335.426 394.398 335.989 394.73C336.553 395.061 336.991 395.535 337.303 396.15C337.616 396.761 337.772 397.49 337.772 398.338V405.284H334.746L334.746 398.877C334.751 398.21 334.581 397.689 334.235 397.315C333.889 396.936 333.414 396.747 332.808 396.747C332.4 396.747 332.04 396.834 331.728 397.01C331.42 397.185 331.179 397.44 331.004 397.777C330.833 398.108 330.746 398.508 330.741 398.977ZM345.086 405.497C343.968 405.497 343.007 405.26 342.202 404.787C341.402 404.308 340.786 403.645 340.355 402.798C339.929 401.95 339.716 400.975 339.716 399.872C339.716 398.754 339.932 397.774 340.363 396.931C340.798 396.084 341.416 395.423 342.216 394.95C343.016 394.472 343.968 394.233 345.071 394.233C346.023 394.233 346.856 394.405 347.571 394.751C348.286 395.097 348.852 395.582 349.269 396.207C349.685 396.832 349.915 397.566 349.958 398.409H347.103C347.022 397.864 346.809 397.426 346.463 397.095C346.123 396.759 345.675 396.591 345.121 396.591C344.652 396.591 344.243 396.718 343.892 396.974C343.547 397.225 343.277 397.592 343.083 398.075C342.889 398.558 342.792 399.143 342.792 399.829C342.792 400.525 342.886 401.117 343.076 401.605C343.27 402.092 343.542 402.464 343.892 402.72C344.243 402.975 344.652 403.103 345.121 403.103C345.467 403.103 345.777 403.032 346.051 402.89C346.331 402.748 346.56 402.542 346.74 402.272C346.925 401.998 347.046 401.669 347.103 401.285H349.958C349.91 402.118 349.683 402.852 349.276 403.487C348.873 404.117 348.317 404.609 347.607 404.964C346.897 405.319 346.056 405.497 345.086 405.497ZM356.866 405.497C355.744 405.497 354.778 405.269 353.969 404.815C353.164 404.356 352.544 403.707 352.108 402.869C351.672 402.026 351.455 401.029 351.455 399.879C351.455 398.757 351.672 397.772 352.108 396.924C352.544 396.077 353.157 395.416 353.947 394.943C354.743 394.469 355.676 394.233 356.746 394.233C357.465 394.233 358.135 394.349 358.756 394.581C359.381 394.808 359.925 395.151 360.389 395.61C360.858 396.07 361.223 396.647 361.483 397.343C361.743 398.035 361.874 398.844 361.874 399.772V400.603L352.662 400.603V398.728L359.026 398.728C359.026 398.293 358.931 397.907 358.741 397.571C358.552 397.234 358.289 396.972 357.953 396.782C357.622 396.588 357.236 396.491 356.795 396.491C356.336 396.491 355.929 396.598 355.574 396.811C355.223 397.019 354.949 397.301 354.75 397.656C354.551 398.006 354.449 398.397 354.445 398.828V400.61C354.445 401.15 354.544 401.617 354.743 402.01C354.946 402.403 355.233 402.706 355.602 402.919C355.972 403.132 356.41 403.238 356.916 403.238C357.252 403.238 357.56 403.191 357.839 403.096C358.119 403.001 358.358 402.859 358.557 402.67C358.756 402.481 358.907 402.249 359.011 401.974L361.81 402.159C361.668 402.831 361.376 403.418 360.936 403.92C360.5 404.417 359.937 404.805 359.246 405.085C358.559 405.359 357.766 405.497 356.866 405.497ZM364.516 399.453C364.516 397.691 364.75 396.07 365.219 394.588C365.692 393.106 366.414 391.733 367.385 390.468H370.276C369.906 390.937 369.563 391.51 369.246 392.187C368.929 392.859 368.652 393.598 368.415 394.403C368.178 395.208 367.993 396.041 367.861 396.903C367.728 397.76 367.662 398.61 367.662 399.453C367.662 400.575 367.776 401.709 368.003 402.855C368.235 403.996 368.547 405.056 368.94 406.037C369.338 407.017 369.783 407.819 370.276 408.444H367.385C366.414 407.18 365.692 405.807 365.219 404.325C364.75 402.843 364.516 401.219 364.516 399.453ZM372.088 390.738H375.881L379.887 400.511H380.057L384.063 390.738L387.855 390.738V405.284L384.873 405.284V395.816H384.752L380.988 405.213H378.956L375.192 395.781H375.071V405.284H372.088V390.738ZM395.304 405.497C394.182 405.497 393.216 405.269 392.406 404.815C391.601 404.356 390.981 403.707 390.545 402.869C390.11 402.026 389.892 401.029 389.892 399.879C389.892 398.757 390.11 397.772 390.545 396.924C390.981 396.077 391.594 395.416 392.385 394.943C393.18 394.469 394.113 394.233 395.183 394.233C395.903 394.233 396.573 394.349 397.193 394.581C397.818 394.808 398.363 395.151 398.827 395.61C399.295 396.07 399.66 396.647 399.92 397.343C400.181 398.035 400.311 398.844 400.311 399.772V400.603H391.099V398.728H397.463C397.463 398.293 397.368 397.907 397.179 397.571C396.99 397.234 396.727 396.972 396.391 396.782C396.059 396.588 395.673 396.491 395.233 396.491C394.774 396.491 394.366 396.598 394.011 396.811C393.661 397.019 393.386 397.301 393.188 397.656C392.989 398.006 392.887 398.397 392.882 398.828V400.61C392.882 401.15 392.982 401.617 393.18 402.01C393.384 402.403 393.67 402.706 394.04 402.919C394.409 403.132 394.847 403.238 395.354 403.238C395.69 403.238 395.998 403.191 396.277 403.096C396.556 403.001 396.795 402.859 396.994 402.67C397.193 402.481 397.345 402.249 397.449 401.974L400.247 402.159C400.105 402.831 399.814 403.418 399.374 403.92C398.938 404.417 398.375 404.805 397.683 405.085C396.997 405.359 396.204 405.497 395.304 405.497ZM408.088 394.375V396.647H401.518V394.375H408.088ZM403.01 391.761H406.036V401.931C406.036 402.211 406.078 402.429 406.163 402.585C406.249 402.736 406.367 402.843 406.518 402.904C406.675 402.966 406.855 402.997 407.058 402.997C407.2 402.997 407.342 402.985 407.484 402.961C407.626 402.933 407.735 402.912 407.811 402.897L408.287 405.149C408.135 405.196 407.922 405.251 407.648 405.312C407.373 405.378 407.039 405.419 406.646 405.433C405.917 405.461 405.278 405.364 404.729 405.142C404.184 404.919 403.76 404.573 403.457 404.105C403.154 403.636 403.005 403.044 403.01 402.329V391.761ZM414.913 405.497C413.791 405.497 412.825 405.269 412.016 404.815C411.211 404.356 410.59 403.707 410.155 402.869C409.719 402.026 409.501 401.029 409.501 399.879C409.501 398.757 409.719 397.772 410.155 396.924C410.59 396.077 411.204 395.416 411.994 394.943C412.79 394.469 413.723 394.233 414.793 394.233C415.512 394.233 416.182 394.349 416.803 394.581C417.428 394.808 417.972 395.151 418.436 395.61C418.905 396.07 419.269 396.647 419.53 397.343C419.79 398.035 419.92 398.844 419.92 399.772V400.603H410.709V398.728H417.072C417.072 398.293 416.978 397.907 416.788 397.571C416.599 397.234 416.336 396.972 416 396.782C415.669 396.588 415.283 396.491 414.842 396.491C414.383 396.491 413.976 396.598 413.621 396.811C413.27 397.019 412.996 397.301 412.797 397.656C412.598 398.006 412.496 398.397 412.491 398.828V400.61C412.491 401.15 412.591 401.617 412.79 402.01C412.993 402.403 413.28 402.706 413.649 402.919C414.018 403.132 414.456 403.238 414.963 403.238C415.299 403.238 415.607 403.191 415.886 403.096C416.166 403.001 416.405 402.859 416.604 402.67C416.803 402.481 416.954 402.249 417.058 401.974L419.857 402.159C419.714 402.831 419.423 403.418 418.983 403.92C418.547 404.417 417.984 404.805 417.293 405.085C416.606 405.359 415.813 405.497 414.913 405.497ZM421.895 405.284V394.375H424.828V396.278H424.942C425.141 395.601 425.474 395.09 425.943 394.744C426.412 394.394 426.952 394.218 427.562 394.218C427.714 394.218 427.877 394.228 428.053 394.247C428.228 394.266 428.382 394.292 428.514 394.325V397.01C428.372 396.967 428.176 396.929 427.925 396.896C427.674 396.863 427.444 396.846 427.236 396.846C426.791 396.846 426.393 396.943 426.043 397.137C425.697 397.327 425.422 397.592 425.219 397.933C425.02 398.274 424.92 398.667 424.92 399.112V405.284H421.895ZM439.155 397.485L436.385 397.656C436.338 397.419 436.236 397.206 436.08 397.017C435.924 396.823 435.718 396.669 435.462 396.555C435.211 396.437 434.91 396.377 434.56 396.377C434.091 396.377 433.696 396.477 433.374 396.676C433.052 396.87 432.891 397.13 432.891 397.457C432.891 397.717 432.995 397.938 433.203 398.117C433.412 398.297 433.769 398.442 434.276 398.551L436.25 398.948C437.311 399.166 438.102 399.517 438.623 400C439.143 400.483 439.404 401.117 439.404 401.903C439.404 402.618 439.193 403.245 438.772 403.785C438.355 404.325 437.782 404.746 437.053 405.049C436.328 405.348 435.493 405.497 434.546 405.497C433.102 405.497 431.951 405.196 431.094 404.595C430.242 403.989 429.742 403.165 429.596 402.123L432.571 401.967C432.661 402.407 432.879 402.743 433.225 402.975C433.57 403.203 434.013 403.316 434.553 403.316C435.083 403.316 435.509 403.215 435.831 403.011C436.158 402.803 436.324 402.535 436.328 402.208C436.324 401.934 436.208 401.709 435.98 401.534C435.753 401.354 435.403 401.216 434.929 401.122L433.04 400.745C431.975 400.532 431.182 400.163 430.661 399.637C430.145 399.112 429.887 398.442 429.887 397.627C429.887 396.927 430.076 396.323 430.455 395.816C430.838 395.31 431.376 394.919 432.067 394.644C432.763 394.37 433.578 394.233 434.51 394.233C435.888 394.233 436.972 394.524 437.763 395.106C438.559 395.689 439.023 396.482 439.155 397.485ZM446.408 399.453C446.408 401.219 446.172 402.843 445.698 404.325C445.229 405.807 444.51 407.18 443.539 408.444H440.648C441.018 407.975 441.361 407.403 441.678 406.725C441.996 406.048 442.272 405.31 442.509 404.51C442.746 403.705 442.931 402.871 443.063 402.01C443.196 401.148 443.262 400.296 443.262 399.453C443.262 398.331 443.146 397.199 442.914 396.058C442.687 394.912 442.374 393.851 441.977 392.876C441.584 391.896 441.141 391.093 440.648 390.468H443.539C444.51 391.733 445.229 393.106 445.698 394.588C446.172 396.07 446.408 397.691 446.408 399.453Z" fill="#1E1E1E"/>
<line x1="543.836" y1="325.821" x2="543.836" y2="48.2119" stroke="#EBEBEB" stroke-width="0.6"/>
<line x1="464.683" y1="325.821" x2="464.683" y2="48.2119" stroke="#EBEBEB" stroke-width="0.6"/>
<line x1="380.655" y1="325.821" x2="380.655" y2="48.2119" stroke="#EBEBEB" stroke-width="0.6"/>
<line x1="298.15" y1="325.821" x2="298.15" y2="48.2119" stroke="#EBEBEB" stroke-width="0.6"/>
<line x1="212.459" y1="325.821" x2="212.459" y2="48.2119" stroke="#EBEBEB" stroke-width="0.6"/>
<circle cx="208.684" cy="192.788" r="5.30127" transform="rotate(1.58058 208.684 192.788)" fill="#FFC54F"/>
<circle cx="208.514" cy="165.295" r="5.30127" transform="rotate(47.597 208.514 165.295)" fill="#FFC54F"/>
<circle cx="209.94" cy="213.609" r="5.30127" transform="rotate(47.597 209.94 213.609)" fill="#FFC54F"/>
<circle cx="382.46" cy="162.059" r="5.30127" fill="#50C8A7"/>
<circle cx="458.737" cy="145.643" r="5.30127" fill="#50C8A7"/>
<circle cx="534.104" cy="76.7559" r="5.30127" fill="#50C8A7"/>
<circle cx="281.67" cy="153.917" r="5.30127" fill="#FFC54F"/>
<circle cx="297.114" cy="164.52" r="5.30127" fill="#50C8A7"/>
<circle cx="286.634" cy="178.086" r="5.30127" transform="rotate(-31.1337 286.634 178.086)" fill="#FFC54F"/>
<circle cx="370.913" cy="161.359" r="5.30127" fill="#50C8A7"/>
<circle cx="474.694" cy="113.07" r="5.30127" fill="#50C8A7"/>
<circle cx="547.127" cy="65.2563" r="5.30127" fill="#50C8A7"/>
<circle cx="370.913" cy="131.206" r="5.30127" fill="#50C8A7"/>
<circle cx="466.272" cy="128.004" r="5.30127" fill="#50C8A7"/>
<circle cx="542.643" cy="91.8428" r="5.30127" fill="#50C8A7"/>
<circle cx="216.342" cy="186.677" r="5.30127" transform="rotate(47.597 216.342 186.677)" fill="#FFC54F"/>
<circle cx="391.558" cy="163.045" r="5.30127" transform="rotate(16.4891 391.558 163.045)" fill="#FFC54F"/>
<circle cx="472.577" cy="144.356" r="5.30127" transform="rotate(16.4891 472.577 144.356)" fill="#FFC54F"/>
<circle cx="547.944" cy="82.0571" r="5.30127" transform="rotate(-9.69316 547.944 82.0571)" fill="#FFC54F"/>
<circle cx="377.159" cy="137.21" r="5.30127" transform="rotate(16.4891 377.159 137.21)" fill="#FFC54F"/>
<circle cx="473.409" cy="134.19" r="5.30127" transform="rotate(16.4891 473.409 134.19)" fill="#FFC54F"/>
<circle cx="539.065" cy="66.7754" r="5.30127" transform="rotate(16.4891 539.065 66.7754)" fill="#FFC54F"/>
<circle cx="296.795" cy="218.577" r="5.30127" fill="#50C8A7"/>
<circle cx="388.766" cy="132.467" r="5.30127" fill="#50C8A7"/>
<circle cx="462.283" cy="115.453" r="5.30127" fill="#50C8A7"/>
<circle cx="547.944" cy="88.3052" r="5.30127" fill="#50C8A7"/>
<circle cx="291.598" cy="193.653" r="5.30127" fill="#FFC54F"/>
<circle cx="287.282" cy="188.352" r="5.30127" fill="#FFC54F"/>
<circle cx="214.563" cy="176.74" r="5.30127" fill="#50C8A7"/>
<circle cx="218.06" cy="238.496" r="5.30127" fill="#50C8A7"/>
<circle cx="215.581" cy="198.955" r="5.30127" fill="#50C8A7"/>
<circle cx="303.515" cy="186.677" r="5.30127" fill="#FFC54F"/>
<circle cx="309.859" cy="162.401" r="5.30127" transform="rotate(-12.7896 309.859 162.401)" fill="#FFC54F"/>
<circle cx="204.978" cy="245.354" r="5.30127" fill="#50C8A7"/>
<circle cx="279.355" cy="209.557" r="5.30127" fill="#50C8A7"/>
<circle cx="386.256" cy="151.156" r="5.30127" fill="#50C8A7"/>
<circle cx="465.25" cy="104.85" r="5.30127" fill="#50C8A7"/>
<circle cx="552.428" cy="88.3052" r="5.30127" fill="#50C8A7"/>
<circle cx="220.882" cy="214.727" r="5.30127" transform="rotate(-13.1849 220.882 214.727)" fill="#50C8A7"/>
<circle cx="287.026" cy="110.302" r="5.30127" transform="rotate(-13.1849 287.026 110.302)" fill="#50C8A7"/>
<circle cx="295.687" cy="134.825" r="5.30127" transform="rotate(-13.1849 295.687 134.825)" fill="#50C8A7"/>
<circle cx="375.872" cy="149.02" r="5.30127" fill="#FFC54F"/>
<circle cx="464.234" cy="140.342" r="5.30127" transform="rotate(-2.5051 464.234 140.342)" fill="#FFC54F"/>
<circle cx="543.821" cy="46.7505" r="5.30127" fill="#FFC54F"/>
<circle cx="371.858" cy="115.453" r="5.30127" fill="#FFC54F"/>
<circle cx="466.272" cy="92.6606" r="5.30127" fill="#FFC54F"/>
<circle cx="542.643" cy="73.3628" r="5.30127" fill="#FFC54F"/>
<circle cx="371.858" cy="137.769" r="5.30127" fill="#FFC54F"/>
<circle cx="459.682" cy="131.909" r="5.30127" fill="#FFC54F"/>
<circle cx="543.821" cy="106.693" r="5.30127" fill="#FFC54F"/>
<circle cx="214.993" cy="249.414" r="5.30127" transform="rotate(14.8009 214.993 249.414)" fill="#50C8A7"/>
<circle cx="291.97" cy="150.278" r="5.30127" transform="rotate(14.8009 291.97 150.278)" fill="#50C8A7"/>
<circle cx="214.155" cy="222.818" r="5.30127" fill="#50C8A7"/>
<circle cx="360.205" cy="152.411" r="5.30127" fill="#50C8A7"/>
<circle cx="459.683" cy="107.86" r="5.30127" transform="rotate(87.0542 459.683 107.86)" fill="#50C8A7"/>
<circle cx="544.086" cy="61.7532" r="5.30127" transform="rotate(87.0542 544.086 61.7532)" fill="#50C8A7"/>
<circle cx="325.375" cy="114.719" r="5.30127" fill="#50C8A7"/>
<circle cx="192.362" cy="229.18" r="5.30127" fill="#50C8A7"/>
<circle cx="384.502" cy="149.56" r="5.30127" fill="#50C8A7"/>
<circle cx="463.698" cy="152.927" r="5.30127" fill="#50C8A7"/>
<circle cx="548.1" cy="116.196" r="5.30127" fill="#50C8A7"/>
<circle cx="378.165" cy="128.842" r="5.30127" fill="#FFC54F"/>
<circle cx="458.396" cy="162.401" r="5.30127" fill="#FFC54F"/>
<circle cx="537.497" cy="102.293" r="5.30127" fill="#FFC54F"/>
<circle cx="285.411" cy="170.432" r="5.30127" fill="#FFC54F"/>
<circle cx="311.591" cy="145.211" r="5.30127" fill="#50C8A7"/>
<path d="M41.604 125.452C41.1875 125.456 40.7893 125.623 40.4957 125.919L37.0915 129.315C36.9441 129.463 36.8613 129.664 36.8613 129.873C36.8613 130.082 36.9441 130.283 37.0915 130.431C37.1651 130.506 37.2527 130.565 37.3492 130.605C37.4456 130.645 37.5491 130.666 37.6536 130.666C37.7581 130.666 37.8616 130.645 37.9581 130.605C38.0546 130.565 38.1421 130.506 38.2157 130.431L40.8124 127.827L40.8124 135.743C40.8124 135.953 40.8958 136.155 41.0442 136.303C41.1927 136.452 41.3941 136.535 41.604 136.535C41.814 136.535 42.0154 136.452 42.1638 136.303C42.3123 136.155 42.3957 135.953 42.3957 135.743L42.3957 127.827L45.0003 130.431C45.1483 130.58 45.3495 130.665 45.5596 130.665C45.7697 130.666 45.9714 130.583 46.1205 130.435C46.2696 130.287 46.3537 130.086 46.3545 129.876C46.3552 129.666 46.2725 129.464 46.1245 129.315L42.7203 125.919C42.4247 125.622 42.0233 125.454 41.604 125.452Z" fill="#CACACA"/>
<path d="M468.886 399.784C468.882 399.367 468.714 398.969 468.419 398.675L465.023 395.271C464.874 395.124 464.674 395.041 464.465 395.041C464.255 395.041 464.055 395.124 463.906 395.271C463.832 395.345 463.773 395.432 463.733 395.529C463.693 395.625 463.672 395.729 463.672 395.833C463.672 395.938 463.693 396.041 463.733 396.138C463.773 396.234 463.832 396.322 463.906 396.395L466.511 398.992H458.594C458.384 398.992 458.183 399.075 458.035 399.224C457.886 399.372 457.803 399.574 457.803 399.784C457.803 399.994 457.886 400.195 458.035 400.344C458.183 400.492 458.384 400.575 458.594 400.575H466.511L463.906 403.18C463.757 403.328 463.673 403.529 463.673 403.739C463.672 403.949 463.755 404.151 463.903 404.3C464.051 404.449 464.252 404.533 464.462 404.534C464.672 404.535 464.874 404.452 465.023 404.304L468.419 400.9C468.716 400.604 468.884 400.203 468.886 399.784Z" fill="#CACACA"/>
<path d="M86.0789 261.107V262.166H82.8048V261.107H86.0789ZM89.9452 265.372C89.4717 265.372 89.048 265.284 88.6739 265.106C88.2999 264.926 88.0028 264.68 87.7826 264.367C87.5648 264.055 87.4488 263.697 87.4346 263.295H88.713C88.7367 263.593 88.8657 263.837 89.1001 264.027C89.3344 264.214 89.6162 264.307 89.9452 264.307C90.2033 264.307 90.4329 264.248 90.6341 264.129C90.8354 264.011 90.994 263.847 91.11 263.636C91.226 263.425 91.2828 263.185 91.2805 262.915C91.2828 262.64 91.2248 262.397 91.1064 262.183C90.9881 261.97 90.8259 261.803 90.6199 261.683C90.414 261.56 90.1772 261.498 89.9097 261.498C89.6919 261.496 89.4777 261.536 89.267 261.619C89.0563 261.702 88.8894 261.811 88.7662 261.946L87.5766 261.75L87.9566 258H92.1753V259.101H89.0468L88.8373 261.029H88.8799C89.0148 260.871 89.2054 260.739 89.4516 260.635C89.6978 260.529 89.9677 260.475 90.2613 260.475C90.7016 260.475 91.0946 260.58 91.4403 260.788C91.7859 260.994 92.0582 261.278 92.257 261.64C92.4559 262.002 92.5553 262.417 92.5553 262.883C92.5553 263.364 92.444 263.792 92.2215 264.169C92.0013 264.543 91.6948 264.837 91.3018 265.053C90.9111 265.266 90.459 265.372 89.9452 265.372ZM96.4331 265.411C95.8484 265.411 95.3465 265.263 94.9275 264.968C94.5108 264.669 94.19 264.24 93.9651 263.678C93.7426 263.115 93.6313 262.437 93.6313 261.644C93.6337 260.851 93.7461 260.176 93.9687 259.62C94.1936 259.061 94.5144 258.635 94.931 258.341C95.3501 258.048 95.8508 257.901 96.4331 257.901C97.0155 257.901 97.5162 258.048 97.9353 258.341C98.3543 258.635 98.6751 259.061 98.8976 259.62C99.1225 260.178 99.235 260.853 99.235 261.644C99.235 262.439 99.1225 263.119 98.8976 263.682C98.6751 264.243 98.3543 264.672 97.9353 264.968C97.5186 265.263 97.0179 265.411 96.4331 265.411ZM96.4331 264.3C96.8877 264.3 97.2464 264.076 97.5091 263.629C97.7743 263.179 97.9069 262.517 97.9069 261.644C97.9069 261.066 97.8465 260.581 97.7258 260.188C97.605 259.795 97.4346 259.499 97.2144 259.3C96.9942 259.099 96.7338 258.998 96.4331 258.998C95.981 258.998 95.6235 259.223 95.3607 259.673C95.0979 260.12 94.9653 260.777 94.963 261.644C94.9606 262.224 95.0186 262.711 95.137 263.107C95.2577 263.502 95.4282 263.8 95.6483 264.002C95.8685 264.201 96.1301 264.3 96.4331 264.3ZM104.419 264.279L104.373 264.669C104.339 264.968 104.28 265.271 104.195 265.578C104.112 265.888 104.025 266.174 103.932 266.434C103.84 266.695 103.765 266.899 103.709 267.049H102.842C102.875 266.904 102.92 266.708 102.977 266.459C103.036 266.21 103.093 265.931 103.147 265.621C103.202 265.311 103.239 264.996 103.258 264.676L103.282 264.279H104.419ZM111.059 258V265.273H109.741V259.282H109.698L107.997 260.369V259.161L109.805 258H111.059ZM115.593 265.411C115.009 265.411 114.507 265.263 114.088 264.968C113.671 264.669 113.35 264.24 113.125 263.678C112.903 263.115 112.791 262.437 112.791 261.644C112.794 260.851 112.906 260.176 113.129 259.62C113.354 259.061 113.675 258.635 114.091 258.341C114.51 258.048 115.011 257.901 115.593 257.901C116.176 257.901 116.676 258.048 117.095 258.341C117.514 258.635 117.835 259.061 118.058 259.62C118.283 260.178 118.395 260.853 118.395 261.644C118.395 262.439 118.283 263.119 118.058 263.682C117.835 264.243 117.514 264.672 117.095 264.968C116.679 265.263 116.178 265.411 115.593 265.411ZM115.593 264.3C116.048 264.3 116.407 264.076 116.669 263.629C116.934 263.179 117.067 262.517 117.067 261.644C117.067 261.066 117.007 260.581 116.886 260.188C116.765 259.795 116.595 259.499 116.375 259.3C116.154 259.099 115.894 258.998 115.593 258.998C115.141 258.998 114.784 259.223 114.521 259.673C114.258 260.12 114.126 260.777 114.123 261.644C114.121 262.224 114.179 262.711 114.297 263.107C114.418 263.502 114.588 263.8 114.809 264.002C115.029 264.201 115.29 264.3 115.593 264.3Z" fill="#C6C6C6"/>
<path d="M204.791 347.787C204.279 347.787 203.825 347.699 203.427 347.524C203.032 347.349 202.719 347.105 202.489 346.793C202.26 346.48 202.138 346.119 202.124 345.71H203.459C203.471 345.906 203.536 346.078 203.654 346.224C203.773 346.369 203.93 346.481 204.127 346.562C204.323 346.642 204.543 346.683 204.787 346.683C205.047 346.683 205.278 346.638 205.479 346.548C205.681 346.455 205.838 346.327 205.952 346.164C206.065 346.001 206.121 345.812 206.119 345.599C206.121 345.379 206.064 345.185 205.948 345.017C205.832 344.849 205.664 344.718 205.444 344.623C205.226 344.528 204.963 344.481 204.656 344.481H204.013V343.465H204.656C204.909 343.465 205.13 343.421 205.32 343.334C205.511 343.246 205.662 343.123 205.771 342.964C205.88 342.804 205.933 342.618 205.93 342.407C205.933 342.201 205.887 342.022 205.792 341.871C205.7 341.717 205.568 341.597 205.398 341.512C205.23 341.427 205.032 341.384 204.805 341.384C204.582 341.384 204.376 341.424 204.187 341.505C203.997 341.585 203.845 341.7 203.729 341.849C203.613 341.996 203.551 342.171 203.544 342.375H202.276C202.286 341.968 202.403 341.61 202.628 341.303C202.855 340.992 203.158 340.751 203.537 340.578C203.916 340.403 204.341 340.315 204.812 340.315C205.297 340.315 205.719 340.406 206.076 340.589C206.436 340.769 206.714 341.011 206.911 341.317C207.107 341.622 207.205 341.96 207.205 342.329C207.208 342.738 207.087 343.082 206.843 343.359C206.602 343.636 206.284 343.817 205.891 343.902V343.959C206.403 344.03 206.795 344.219 207.067 344.527C207.341 344.832 207.478 345.212 207.475 345.667C207.475 346.074 207.359 346.439 207.127 346.761C206.898 347.08 206.58 347.331 206.176 347.513C205.773 347.696 205.311 347.787 204.791 347.787ZM211.279 347.787C210.751 347.787 210.283 347.698 209.873 347.521C209.466 347.343 209.146 347.1 208.914 346.793C208.685 346.482 208.571 346.131 208.573 345.738C208.571 345.433 208.637 345.152 208.772 344.896C208.907 344.641 209.09 344.428 209.319 344.257C209.551 344.084 209.809 343.974 210.093 343.927V343.877C209.719 343.794 209.416 343.604 209.184 343.305C208.955 343.005 208.841 342.658 208.843 342.265C208.841 341.891 208.945 341.557 209.156 341.263C209.367 340.97 209.655 340.739 210.022 340.571C210.389 340.401 210.808 340.315 211.279 340.315C211.746 340.315 212.161 340.401 212.526 340.571C212.893 340.739 213.182 340.97 213.392 341.263C213.605 341.557 213.712 341.891 213.712 342.265C213.712 342.658 213.595 343.005 213.36 343.305C213.128 343.604 212.829 343.794 212.462 343.877V343.927C212.746 343.974 213.002 344.084 213.229 344.257C213.459 344.428 213.641 344.641 213.776 344.896C213.913 345.152 213.982 345.433 213.982 345.738C213.982 346.131 213.866 346.482 213.634 346.793C213.402 347.1 213.082 347.343 212.675 347.521C212.27 347.698 211.805 347.787 211.279 347.787ZM211.279 346.771C211.552 346.771 211.788 346.725 211.99 346.633C212.191 346.538 212.347 346.406 212.458 346.235C212.57 346.065 212.626 345.868 212.629 345.646C212.626 345.414 212.566 345.209 212.448 345.031C212.332 344.851 212.172 344.71 211.968 344.609C211.767 344.507 211.537 344.456 211.279 344.456C211.019 344.456 210.787 344.507 210.583 344.609C210.38 344.71 210.219 344.851 210.1 345.031C209.984 345.209 209.928 345.414 209.93 345.646C209.928 345.868 209.982 346.065 210.093 346.235C210.205 346.403 210.361 346.535 210.562 346.629C210.766 346.724 211.005 346.771 211.279 346.771ZM211.279 343.458C211.502 343.458 211.698 343.413 211.869 343.323C212.042 343.233 212.178 343.108 212.277 342.947C212.377 342.786 212.428 342.6 212.43 342.389C212.428 342.181 212.378 341.999 212.281 341.842C212.184 341.684 212.049 341.562 211.876 341.477C211.703 341.389 211.504 341.345 211.279 341.345C211.05 341.345 210.847 341.389 210.672 341.477C210.499 341.562 210.364 341.684 210.267 341.842C210.173 341.999 210.126 342.181 210.129 342.389C210.126 342.6 210.174 342.786 210.271 342.947C210.37 343.105 210.506 343.231 210.679 343.323C210.854 343.413 211.054 343.458 211.279 343.458ZM217.837 347.826C217.253 347.826 216.751 347.678 216.332 347.382C215.915 347.084 215.594 346.654 215.369 346.093C215.147 345.53 215.036 344.851 215.036 344.058C215.038 343.265 215.15 342.59 215.373 342.034C215.598 341.475 215.919 341.049 216.335 340.756C216.754 340.462 217.255 340.315 217.837 340.315C218.42 340.315 218.921 340.462 219.34 340.756C219.759 341.049 220.079 341.475 220.302 342.034C220.527 342.593 220.639 343.268 220.639 344.058C220.639 344.854 220.527 345.533 220.302 346.097C220.079 346.658 219.759 347.086 219.34 347.382C218.923 347.678 218.422 347.826 217.837 347.826ZM217.837 346.714C218.292 346.714 218.651 346.491 218.913 346.043C219.179 345.594 219.311 344.932 219.311 344.058C219.311 343.481 219.251 342.995 219.13 342.602C219.009 342.209 218.839 341.913 218.619 341.714C218.399 341.513 218.138 341.413 217.837 341.413C217.385 341.413 217.028 341.638 216.765 342.087C216.502 342.535 216.37 343.192 216.367 344.058C216.365 344.638 216.423 345.126 216.541 345.521C216.662 345.917 216.832 346.215 217.053 346.416C217.273 346.615 217.534 346.714 217.837 346.714Z" fill="#C6C6C6"/>
<path d="M366.893 340.415V347.688H365.576V341.697H365.533L363.832 342.784V341.576L365.64 340.415H366.893ZM368.609 346.339V345.291L371.695 340.415H372.568V341.907H372.036L369.958 345.199V345.255H374.266V346.339H368.609ZM372.078 347.688V346.019L372.092 345.55V340.415H373.335V347.688H372.078ZM375.269 346.339V345.291L378.355 340.415H379.228V341.907H378.696L376.618 345.199V345.255H380.926V346.339H375.269ZM378.738 347.688V346.019L378.752 345.55V340.415H379.995V347.688H378.738ZM384.749 347.826C384.164 347.826 383.662 347.679 383.243 347.383C382.826 347.084 382.505 346.655 382.281 346.094C382.058 345.53 381.947 344.852 381.947 344.059C381.949 343.266 382.062 342.591 382.284 342.035C382.509 341.476 382.83 341.05 383.246 340.756C383.665 340.463 384.166 340.316 384.749 340.316C385.331 340.316 385.832 340.463 386.251 340.756C386.67 341.05 386.991 341.476 387.213 342.035C387.438 342.593 387.55 343.268 387.55 344.059C387.55 344.854 387.438 345.534 387.213 346.097C386.991 346.658 386.67 347.087 386.251 347.383C385.834 347.679 385.333 347.826 384.749 347.826ZM384.749 346.715C385.203 346.715 385.562 346.491 385.825 346.044C386.09 345.594 386.222 344.932 386.222 344.059C386.222 343.481 386.162 342.996 386.041 342.603C385.92 342.21 385.75 341.914 385.53 341.715C385.31 341.514 385.049 341.413 384.749 341.413C384.296 341.413 383.939 341.638 383.676 342.088C383.413 342.535 383.281 343.192 383.278 344.059C383.276 344.639 383.334 345.126 383.452 345.522C383.573 345.917 383.744 346.215 383.964 346.417C384.184 346.616 384.446 346.715 384.749 346.715Z" fill="#C6C6C6"/>
<path d="M284.814 347.688L287.907 341.566V341.516H284.317V340.415H289.271V341.541L286.181 347.688H284.814ZM292.924 347.787C292.576 347.785 292.236 347.725 291.905 347.606C291.573 347.486 291.275 347.29 291.01 347.02C290.745 346.748 290.534 346.387 290.378 345.937C290.222 345.485 290.145 344.925 290.147 344.258C290.147 343.635 290.213 343.08 290.346 342.592C290.478 342.104 290.669 341.692 290.918 341.356C291.166 341.018 291.466 340.76 291.816 340.582C292.169 340.405 292.563 340.316 292.998 340.316C293.455 340.316 293.86 340.406 294.213 340.586C294.568 340.766 294.855 341.012 295.072 341.324C295.29 341.634 295.425 341.985 295.477 342.375H294.181C294.115 342.096 293.979 341.874 293.773 341.708C293.569 341.54 293.311 341.456 292.998 341.456C292.494 341.456 292.106 341.675 291.834 342.113C291.564 342.551 291.428 343.152 291.425 343.917H291.475C291.591 343.708 291.741 343.53 291.926 343.38C292.111 343.231 292.319 343.116 292.551 343.036C292.785 342.953 293.033 342.912 293.293 342.912C293.719 342.912 294.102 343.014 294.44 343.217C294.781 343.421 295.051 343.701 295.25 344.059C295.449 344.414 295.547 344.821 295.545 345.28C295.547 345.759 295.438 346.188 295.218 346.569C294.998 346.948 294.691 347.246 294.298 347.464C293.905 347.682 293.447 347.79 292.924 347.787ZM292.917 346.722C293.175 346.722 293.406 346.659 293.609 346.534C293.813 346.408 293.974 346.239 294.092 346.026C294.211 345.813 294.269 345.574 294.266 345.309C294.269 345.048 294.212 344.813 294.096 344.602C293.982 344.391 293.825 344.224 293.623 344.101C293.422 343.978 293.193 343.917 292.935 343.917C292.743 343.917 292.564 343.953 292.398 344.027C292.233 344.1 292.088 344.202 291.965 344.332C291.842 344.46 291.745 344.609 291.674 344.78C291.605 344.948 291.57 345.128 291.567 345.319C291.57 345.573 291.629 345.806 291.745 346.019C291.861 346.232 292.021 346.402 292.224 346.53C292.428 346.658 292.659 346.722 292.917 346.722ZM299.433 347.826C298.848 347.826 298.347 347.679 297.927 347.383C297.511 347.084 297.19 346.655 296.965 346.094C296.743 345.53 296.631 344.852 296.631 344.059C296.634 343.266 296.746 342.591 296.969 342.035C297.194 341.476 297.514 341.05 297.931 340.756C298.35 340.463 298.851 340.316 299.433 340.316C300.016 340.316 300.516 340.463 300.935 340.756C301.354 341.05 301.675 341.476 301.898 342.035C302.123 342.593 302.235 343.268 302.235 344.059C302.235 344.854 302.123 345.534 301.898 346.097C301.675 346.658 301.354 347.087 300.935 347.383C300.519 347.679 300.018 347.826 299.433 347.826ZM299.433 346.715C299.888 346.715 300.246 346.491 300.509 346.044C300.774 345.594 300.907 344.932 300.907 344.059C300.907 343.481 300.847 342.996 300.726 342.603C300.605 342.21 300.435 341.914 300.214 341.715C299.994 341.514 299.734 341.413 299.433 341.413C298.981 341.413 298.623 341.638 298.361 342.088C298.098 342.535 297.965 343.192 297.963 344.059C297.961 344.639 298.019 345.126 298.137 345.522C298.258 345.917 298.428 346.215 298.648 346.417C298.869 346.616 299.13 346.715 299.433 346.715Z" fill="#C6C6C6"/>
<path d="M454.355 340.415V347.688H453.038V341.697H452.995L451.294 342.783V341.576L453.102 340.415H454.355ZM458.73 347.787C458.257 347.787 457.833 347.698 457.459 347.521C457.085 347.341 456.788 347.094 456.568 346.782C456.35 346.469 456.234 346.112 456.22 345.71H457.498C457.522 346.008 457.651 346.252 457.885 346.441C458.12 346.628 458.401 346.722 458.73 346.722C458.988 346.722 459.218 346.662 459.419 346.544C459.621 346.426 459.779 346.261 459.895 346.05C460.011 345.84 460.068 345.599 460.066 345.33C460.068 345.055 460.01 344.811 459.892 344.598C459.773 344.385 459.611 344.218 459.405 344.097C459.199 343.974 458.962 343.913 458.695 343.913C458.477 343.91 458.263 343.951 458.052 344.033C457.841 344.116 457.675 344.225 457.551 344.36L456.362 344.165L456.742 340.415H460.96V341.516H457.832L457.622 343.444H457.665C457.8 343.285 457.991 343.154 458.237 343.05C458.483 342.943 458.753 342.89 459.046 342.89C459.487 342.89 459.88 342.994 460.225 343.202C460.571 343.408 460.843 343.692 461.042 344.055C461.241 344.417 461.34 344.831 461.34 345.298C461.34 345.778 461.229 346.207 461.007 346.583C460.786 346.957 460.48 347.252 460.087 347.467C459.696 347.68 459.244 347.787 458.73 347.787ZM462.53 347.688V346.736L465.055 344.261C465.296 344.017 465.498 343.8 465.659 343.611C465.82 343.421 465.94 343.238 466.021 343.06C466.101 342.883 466.142 342.693 466.142 342.492C466.142 342.263 466.09 342.066 465.985 341.903C465.881 341.737 465.738 341.609 465.556 341.519C465.373 341.429 465.166 341.384 464.934 341.384C464.695 341.384 464.486 341.434 464.306 341.533C464.126 341.63 463.986 341.769 463.887 341.949C463.79 342.129 463.741 342.343 463.741 342.592H462.487C462.487 342.13 462.593 341.729 462.804 341.388C463.014 341.047 463.304 340.783 463.674 340.596C464.045 340.409 464.471 340.315 464.952 340.315C465.44 340.315 465.868 340.406 466.237 340.589C466.607 340.771 466.893 341.021 467.097 341.338C467.303 341.655 467.406 342.018 467.406 342.425C467.406 342.697 467.354 342.964 467.25 343.227C467.145 343.49 466.962 343.781 466.699 344.101C466.439 344.42 466.073 344.808 465.602 345.262L464.348 346.537V346.587H467.516V347.688H462.53ZM471.429 347.826C470.844 347.826 470.343 347.678 469.924 347.382C469.507 347.084 469.186 346.654 468.961 346.093C468.739 345.53 468.627 344.851 468.627 344.058C468.63 343.265 468.742 342.59 468.965 342.034C469.19 341.475 469.51 341.049 469.927 340.756C470.346 340.462 470.847 340.315 471.429 340.315C472.012 340.315 472.512 340.462 472.931 340.756C473.35 341.049 473.671 341.475 473.894 342.034C474.119 342.593 474.231 343.268 474.231 344.058C474.231 344.854 474.119 345.533 473.894 346.097C473.671 346.658 473.35 347.086 472.931 347.382C472.515 347.678 472.014 347.826 471.429 347.826ZM471.429 346.714C471.884 346.714 472.242 346.491 472.505 346.043C472.77 345.594 472.903 344.932 472.903 344.058C472.903 343.481 472.843 342.995 472.722 342.602C472.601 342.209 472.431 341.913 472.21 341.714C471.99 341.513 471.73 341.413 471.429 341.413C470.977 341.413 470.62 341.638 470.357 342.087C470.094 342.535 469.961 343.192 469.959 344.058C469.957 344.638 470.015 345.126 470.133 345.521C470.254 345.917 470.424 346.215 470.644 346.416C470.865 346.615 471.126 346.714 471.429 346.714Z" fill="#C6C6C6"/>
<path d="M536.659 340.415V347.688H535.342V341.697H535.299L533.598 342.784V341.576L535.406 340.415H536.659ZM541.031 340.316C541.379 340.318 541.717 340.38 542.046 340.5C542.378 340.619 542.676 340.813 542.941 341.083C543.206 341.35 543.417 341.709 543.573 342.159C543.729 342.609 543.808 343.165 543.808 343.828C543.81 344.453 543.744 345.012 543.609 345.504C543.476 345.994 543.286 346.408 543.037 346.747C542.788 347.085 542.489 347.344 542.138 347.521C541.788 347.699 541.394 347.787 540.956 347.787C540.497 347.787 540.089 347.697 539.734 347.518C539.382 347.338 539.096 347.091 538.879 346.779C538.661 346.466 538.527 346.109 538.477 345.706H539.773C539.84 345.995 539.975 346.225 540.178 346.395C540.384 346.563 540.643 346.648 540.956 346.648C541.46 346.648 541.848 346.429 542.121 345.991C542.393 345.553 542.529 344.944 542.529 344.165H542.479C542.363 344.374 542.213 344.554 542.028 344.705C541.844 344.854 541.634 344.969 541.4 345.049C541.168 345.13 540.922 345.17 540.661 345.17C540.235 345.17 539.852 345.068 539.511 344.865C539.172 344.661 538.903 344.382 538.705 344.027C538.508 343.672 538.409 343.266 538.406 342.809C538.406 342.335 538.515 341.91 538.733 341.534C538.953 341.155 539.26 340.857 539.653 340.639C540.046 340.419 540.505 340.311 541.031 340.316ZM541.034 341.381C540.778 341.381 540.548 341.444 540.342 341.569C540.138 341.692 539.977 341.861 539.859 342.074C539.743 342.284 539.685 342.52 539.685 342.78C539.687 343.038 539.745 343.273 539.859 343.483C539.975 343.694 540.132 343.861 540.331 343.984C540.532 344.107 540.762 344.169 541.02 344.169C541.212 344.169 541.39 344.132 541.556 344.059C541.722 343.985 541.866 343.884 541.989 343.753C542.115 343.621 542.212 343.47 542.281 343.302C542.352 343.134 542.386 342.957 542.384 342.77C542.384 342.521 542.324 342.291 542.206 342.081C542.09 341.87 541.93 341.701 541.727 341.573C541.525 341.445 541.295 341.381 541.034 341.381ZM547.678 347.826C547.094 347.826 546.592 347.679 546.173 347.383C545.756 347.084 545.435 346.655 545.21 346.094C544.988 345.53 544.876 344.852 544.876 344.059C544.879 343.266 544.991 342.591 545.214 342.035C545.439 341.476 545.759 341.05 546.176 340.756C546.595 340.463 547.096 340.316 547.678 340.316C548.261 340.316 548.761 340.463 549.18 340.756C549.599 341.05 549.92 341.476 550.143 342.035C550.368 342.593 550.48 343.268 550.48 344.059C550.48 344.854 550.368 345.534 550.143 346.097C549.92 346.658 549.599 347.087 549.18 347.383C548.764 347.679 548.263 347.826 547.678 347.826ZM547.678 346.715C548.133 346.715 548.491 346.491 548.754 346.044C549.019 345.594 549.152 344.932 549.152 344.059C549.152 343.481 549.092 342.996 548.971 342.603C548.85 342.21 548.68 341.914 548.46 341.715C548.239 341.514 547.979 341.413 547.678 341.413C547.226 341.413 546.869 341.638 546.606 342.088C546.343 342.535 546.21 343.192 546.208 344.059C546.206 344.639 546.264 345.126 546.382 345.522C546.503 345.917 546.673 346.215 546.893 346.417C547.114 346.616 547.375 346.715 547.678 346.715ZM554.348 347.826C553.763 347.826 553.262 347.679 552.843 347.383C552.426 347.084 552.105 346.655 551.88 346.094C551.658 345.53 551.546 344.852 551.546 344.059C551.549 343.266 551.661 342.591 551.884 342.035C552.109 341.476 552.429 341.05 552.846 340.756C553.265 340.463 553.766 340.316 554.348 340.316C554.931 340.316 555.431 340.463 555.85 340.756C556.269 341.05 556.59 341.476 556.813 342.035C557.038 342.593 557.15 343.268 557.15 344.059C557.15 344.854 557.038 345.534 556.813 346.097C556.59 346.658 556.269 347.087 555.85 347.383C555.434 347.679 554.933 347.826 554.348 347.826ZM554.348 346.715C554.803 346.715 555.161 346.491 555.424 346.044C555.689 345.594 555.822 344.932 555.822 344.059C555.822 343.481 555.762 342.996 555.641 342.603C555.52 342.21 555.35 341.914 555.129 341.715C554.909 341.514 554.649 341.413 554.348 341.413C553.896 341.413 553.539 341.638 553.276 342.088C553.013 342.535 552.88 343.192 552.878 344.059C552.876 344.639 552.934 345.126 553.052 345.522C553.173 345.917 553.343 346.215 553.563 346.417C553.784 346.616 554.045 346.715 554.348 346.715Z" fill="#C6C6C6"/>
<path d="M78.5711 197.841V198.9H75.297V197.841H78.5711ZM82.5724 202.106C82.2243 202.104 81.8846 202.044 81.5532 201.925C81.2217 201.804 80.9234 201.609 80.6583 201.339C80.3931 201.067 80.1824 200.706 80.0262 200.256C79.8699 199.804 79.793 199.244 79.7954 198.576C79.7954 197.954 79.8617 197.399 79.9942 196.911C80.1268 196.423 80.3174 196.011 80.566 195.675C80.8145 195.337 81.114 195.079 81.4644 194.901C81.8171 194.723 82.2113 194.635 82.6469 194.635C83.1038 194.635 83.5087 194.725 83.8614 194.905C84.2165 195.084 84.503 195.331 84.7208 195.643C84.9386 195.953 85.0735 196.304 85.1256 196.694H83.8295C83.7632 196.415 83.627 196.192 83.4211 196.027C83.2175 195.859 82.9594 195.775 82.6469 195.775C82.1427 195.775 81.7544 195.994 81.4822 196.432C81.2123 196.87 81.0761 197.471 81.0738 198.236H81.1235C81.2395 198.027 81.3898 197.848 81.5745 197.699C81.7591 197.55 81.9675 197.435 82.1995 197.355C82.4339 197.272 82.6813 197.231 82.9417 197.231C83.3678 197.231 83.7501 197.332 84.0887 197.536C84.4296 197.74 84.6995 198.02 84.8983 198.378C85.0972 198.733 85.1955 199.14 85.1931 199.599C85.1955 200.077 85.0866 200.507 84.8664 200.888C84.6462 201.267 84.3396 201.565 83.9466 201.783C83.5537 202.001 83.0956 202.109 82.5724 202.106ZM82.5653 201.041C82.8233 201.041 83.0541 200.978 83.2577 200.853C83.4613 200.727 83.6223 200.558 83.7407 200.345C83.859 200.132 83.9171 199.893 83.9147 199.628C83.9171 199.367 83.8602 199.132 83.7442 198.921C83.6306 198.71 83.4732 198.543 83.2719 198.42C83.0707 198.297 82.8411 198.236 82.583 198.236C82.3912 198.236 82.2125 198.272 82.0468 198.346C81.8811 198.419 81.7367 198.521 81.6135 198.651C81.4904 198.779 81.3934 198.928 81.3224 199.098C81.2537 199.267 81.2182 199.446 81.2158 199.638C81.2182 199.892 81.2774 200.125 81.3934 200.338C81.5094 200.551 81.6692 200.721 81.8728 200.849C82.0764 200.977 82.3072 201.041 82.5653 201.041ZM86.6597 202.007L89.7528 195.885V195.835H86.1626V194.734H91.1164V195.86L88.0269 202.007H86.6597ZM91.8186 202.085C91.6032 202.085 91.4185 202.009 91.2646 201.858C91.1108 201.706 91.035 201.522 91.0374 201.304C91.035 201.091 91.1108 200.908 91.2646 200.757C91.4185 200.605 91.6032 200.53 91.8186 200.53C92.027 200.53 92.2081 200.605 92.3619 200.757C92.5182 200.908 92.5975 201.091 92.5999 201.304C92.5975 201.448 92.5596 201.58 92.4862 201.698C92.4152 201.816 92.3205 201.911 92.2021 201.982C92.0861 202.051 91.9583 202.085 91.8186 202.085ZM96.3534 202.106C95.8799 202.106 95.4562 202.017 95.0821 201.84C94.7081 201.66 94.411 201.414 94.1908 201.101C93.973 200.789 93.857 200.431 93.8428 200.029H95.1212C95.1449 200.327 95.2739 200.571 95.5083 200.76C95.7426 200.947 96.0244 201.041 96.3534 201.041C96.6115 201.041 96.8411 200.982 97.0423 200.863C97.2436 200.745 97.4022 200.58 97.5182 200.37C97.6342 200.159 97.691 199.919 97.6887 199.649C97.691 199.374 97.633 199.13 97.5146 198.917C97.3963 198.704 97.2341 198.537 97.0281 198.417C96.8222 198.294 96.5854 198.232 96.3179 198.232C96.1001 198.23 95.8859 198.27 95.6752 198.353C95.4645 198.436 95.2976 198.544 95.1744 198.679L93.9848 198.484L94.3648 194.734H98.5835V195.835H95.455L95.2455 197.763H95.2881C95.423 197.605 95.6136 197.473 95.8598 197.369C96.106 197.263 96.3759 197.209 96.6695 197.209C97.1098 197.209 97.5028 197.313 97.8485 197.522C98.1941 197.728 98.4664 198.012 98.6652 198.374C98.8641 198.736 98.9635 199.151 98.9635 199.617C98.9635 200.098 98.8522 200.526 98.6297 200.902C98.4095 201.276 98.103 201.571 97.71 201.787C97.3193 202 96.8672 202.106 96.3534 202.106ZM104.157 201.013L104.111 201.403C104.078 201.701 104.019 202.004 103.933 202.312C103.85 202.622 103.763 202.908 103.671 203.168C103.578 203.428 103.504 203.633 103.447 203.782H102.58C102.613 203.638 102.658 203.441 102.715 203.193C102.774 202.944 102.831 202.665 102.886 202.355C102.94 202.045 102.977 201.73 102.996 201.41L103.021 201.013H104.157ZM110.527 202.145C109.942 202.145 109.44 201.997 109.021 201.701C108.605 201.403 108.284 200.973 108.059 200.412C107.836 199.849 107.725 199.171 107.725 198.378C107.727 197.584 107.84 196.91 108.062 196.353C108.287 195.795 108.608 195.369 109.025 195.075C109.444 194.781 109.945 194.635 110.527 194.635C111.109 194.635 111.61 194.781 112.029 195.075C112.448 195.369 112.769 195.795 112.991 196.353C113.216 196.912 113.329 197.587 113.329 198.378C113.329 199.173 113.216 199.852 112.991 200.416C112.769 200.977 112.448 201.406 112.029 201.701C111.612 201.997 111.112 202.145 110.527 202.145ZM110.527 201.034C110.981 201.034 111.34 200.81 111.603 200.363C111.868 199.913 112.001 199.251 112.001 198.378C112.001 197.8 111.94 197.315 111.82 196.922C111.699 196.529 111.528 196.233 111.308 196.034C111.088 195.833 110.828 195.732 110.527 195.732C110.075 195.732 109.717 195.957 109.454 196.407C109.192 196.854 109.059 197.511 109.057 198.378C109.054 198.958 109.112 199.445 109.231 199.841C109.351 200.236 109.522 200.534 109.742 200.736C109.962 200.934 110.224 201.034 110.527 201.034ZM117.172 202.106C116.824 202.104 116.484 202.044 116.153 201.925C115.821 201.804 115.523 201.609 115.258 201.339C114.993 201.067 114.782 200.706 114.626 200.256C114.47 199.804 114.393 199.244 114.395 198.576C114.395 197.954 114.461 197.399 114.594 196.911C114.726 196.423 114.917 196.011 115.166 195.675C115.414 195.337 115.714 195.079 116.064 194.901C116.417 194.723 116.811 194.635 117.247 194.635C117.703 194.635 118.108 194.725 118.461 194.905C118.816 195.084 119.103 195.331 119.32 195.643C119.538 195.953 119.673 196.304 119.725 196.694H118.429C118.363 196.415 118.227 196.192 118.021 196.027C117.817 195.859 117.559 195.775 117.247 195.775C116.742 195.775 116.354 195.994 116.082 196.432C115.812 196.87 115.676 197.471 115.673 198.236H115.723C115.839 198.027 115.989 197.848 116.174 197.699C116.359 197.55 116.567 197.435 116.799 197.355C117.033 197.272 117.281 197.231 117.541 197.231C117.967 197.231 118.35 197.332 118.688 197.536C119.029 197.74 119.299 198.02 119.498 198.378C119.697 198.733 119.795 199.14 119.793 199.599C119.795 200.077 119.686 200.507 119.466 200.888C119.246 201.267 118.939 201.565 118.546 201.783C118.153 202.001 117.695 202.109 117.172 202.106ZM117.165 201.041C117.423 201.041 117.654 200.978 117.857 200.853C118.061 200.727 118.222 200.558 118.34 200.345C118.459 200.132 118.517 199.893 118.514 199.628C118.517 199.367 118.46 199.132 118.344 198.921C118.23 198.71 118.073 198.543 117.872 198.42C117.67 198.297 117.441 198.236 117.183 198.236C116.991 198.236 116.812 198.272 116.646 198.346C116.481 198.419 116.336 198.521 116.213 198.651C116.09 198.779 115.993 198.928 115.922 199.098C115.853 199.267 115.818 199.446 115.815 199.638C115.818 199.892 115.877 200.125 115.993 200.338C116.109 200.551 116.269 200.721 116.472 200.849C116.676 200.977 116.907 201.041 117.165 201.041Z" fill="#C6C6C6"/>
<path d="M91.2283 136.652V137.711H87.9542V136.652H91.2283ZM95.1515 140.917C94.6235 140.917 94.1548 140.829 93.7452 140.651C93.338 140.473 93.0184 140.231 92.7864 139.923C92.5568 139.613 92.4431 139.261 92.4455 138.868C92.4431 138.563 92.5094 138.282 92.6444 138.027C92.7793 137.771 92.9616 137.558 93.1912 137.387C93.4232 137.215 93.6813 137.105 93.9654 137.057V137.008C93.5913 136.925 93.2883 136.734 93.0563 136.436C92.8266 136.135 92.713 135.788 92.7154 135.395C92.713 135.021 92.8172 134.687 93.0279 134.394C93.2386 134.1 93.5274 133.869 93.8944 133.701C94.2613 133.531 94.6803 133.446 95.1515 133.446C95.6178 133.446 96.0333 133.531 96.3979 133.701C96.7649 133.869 97.0537 134.1 97.2644 134.394C97.4775 134.687 97.584 135.021 97.584 135.395C97.584 135.788 97.4668 136.135 97.2324 136.436C97.0004 136.734 96.7009 136.925 96.334 137.008V137.057C96.6181 137.105 96.8738 137.215 97.101 137.387C97.3307 137.558 97.513 137.771 97.6479 138.027C97.7852 138.282 97.8539 138.563 97.8539 138.868C97.8539 139.261 97.7379 139.613 97.5059 139.923C97.2739 140.231 96.9542 140.473 96.5471 140.651C96.1422 140.829 95.677 140.917 95.1515 140.917ZM95.1515 139.902C95.4237 139.902 95.6605 139.856 95.8617 139.763C96.0629 139.668 96.2192 139.536 96.3304 139.365C96.4417 139.195 96.4985 138.999 96.5009 138.776C96.4985 138.544 96.4382 138.339 96.3198 138.162C96.2038 137.982 96.044 137.841 95.8404 137.739C95.6391 137.637 95.4095 137.586 95.1515 137.586C94.891 137.586 94.659 137.637 94.4554 137.739C94.2518 137.841 94.0908 137.982 93.9725 138.162C93.8565 138.339 93.7997 138.544 93.802 138.776C93.7997 138.999 93.8541 139.195 93.9654 139.365C94.0766 139.534 94.2329 139.665 94.4341 139.76C94.6377 139.854 94.8768 139.902 95.1515 139.902ZM95.1515 136.588C95.374 136.588 95.5705 136.543 95.7409 136.454C95.9138 136.364 96.0499 136.238 96.1493 136.077C96.2488 135.916 96.2997 135.73 96.302 135.52C96.2997 135.311 96.2499 135.129 96.1529 134.973C96.0558 134.814 95.9209 134.692 95.748 134.607C95.5752 134.519 95.3764 134.476 95.1515 134.476C94.9218 134.476 94.7194 134.519 94.5442 134.607C94.3714 134.692 94.2364 134.814 94.1394 134.973C94.0447 135.129 93.9985 135.311 94.0009 135.52C93.9985 135.73 94.0459 135.916 94.1429 136.077C94.2424 136.236 94.3785 136.361 94.5513 136.454C94.7265 136.543 94.9266 136.588 95.1515 136.588ZM101.55 140.917C101.076 140.917 100.652 140.829 100.278 140.651C99.9044 140.471 99.6072 140.225 99.3871 139.912C99.1693 139.6 99.0533 139.242 99.0391 138.84H100.317C100.341 139.138 100.47 139.382 100.705 139.571C100.939 139.758 101.221 139.852 101.55 139.852C101.808 139.852 102.037 139.793 102.239 139.674C102.44 139.556 102.598 139.391 102.714 139.181C102.83 138.97 102.887 138.73 102.885 138.46C102.887 138.185 102.829 137.941 102.711 137.728C102.593 137.515 102.43 137.348 102.224 137.228C102.018 137.105 101.782 137.043 101.514 137.043C101.296 137.041 101.082 137.081 100.871 137.164C100.661 137.247 100.494 137.356 100.371 137.49L99.1811 137.295L99.5611 133.545H103.78V134.646H100.651L100.442 136.574H100.484C100.619 136.416 100.81 136.284 101.056 136.18C101.302 136.074 101.572 136.02 101.866 136.02C102.306 136.02 102.699 136.124 103.045 136.333C103.39 136.539 103.663 136.823 103.862 137.185C104.06 137.547 104.16 137.962 104.16 138.428C104.16 138.909 104.049 139.337 103.826 139.713C103.606 140.088 103.299 140.382 102.906 140.598C102.516 140.811 102.063 140.917 101.55 140.917ZM109.353 139.824L109.307 140.214C109.274 140.512 109.215 140.816 109.13 141.123C109.047 141.433 108.959 141.719 108.867 141.979C108.775 142.24 108.7 142.444 108.643 142.593H107.777C107.81 142.449 107.855 142.253 107.912 142.004C107.971 141.755 108.028 141.476 108.082 141.166C108.136 140.856 108.173 140.541 108.192 140.221L108.217 139.824H109.353ZM115.723 140.956C115.138 140.956 114.637 140.808 114.218 140.512C113.801 140.214 113.48 139.784 113.255 139.223C113.033 138.66 112.921 137.982 112.921 137.189C112.924 136.396 113.036 135.721 113.259 135.164C113.484 134.606 113.804 134.18 114.221 133.886C114.64 133.592 115.141 133.446 115.723 133.446C116.306 133.446 116.806 133.592 117.225 133.886C117.644 134.18 117.965 134.606 118.188 135.164C118.413 135.723 118.525 136.398 118.525 137.189C118.525 137.984 118.413 138.664 118.188 139.227C117.965 139.788 117.644 140.217 117.225 140.512C116.809 140.808 116.308 140.956 115.723 140.956ZM115.723 139.845C116.178 139.845 116.536 139.621 116.799 139.174C117.064 138.724 117.197 138.062 117.197 137.189C117.197 136.611 117.137 136.126 117.016 135.733C116.895 135.34 116.725 135.044 116.504 134.845C116.284 134.644 116.024 134.543 115.723 134.543C115.271 134.543 114.914 134.768 114.651 135.218C114.388 135.665 114.255 136.322 114.253 137.189C114.251 137.769 114.309 138.256 114.427 138.652C114.548 139.047 114.718 139.345 114.938 139.547C115.159 139.745 115.42 139.845 115.723 139.845Z" fill="#C6C6C6"/>
<path d="M69.5711 75.4634V76.5217H66.297V75.4634H69.5711ZM73.8671 72.3562V79.6289H72.5496V73.6381H72.507L70.806 74.7248V73.5174L72.6135 72.3562H73.8671ZM78.4019 79.7674C77.8171 79.7674 77.3153 79.6194 76.8962 79.3235C76.4796 79.0252 76.1588 78.5955 75.9339 78.0344C75.7113 77.471 75.6001 76.7927 75.6001 75.9996C75.6024 75.2066 75.7149 74.5318 75.9374 73.9755C76.1623 73.4168 76.4831 72.9906 76.8998 72.6971C77.3188 72.4035 77.8195 72.2567 78.4019 72.2567C78.9843 72.2567 79.485 72.4035 79.904 72.6971C80.3231 72.9906 80.6439 73.4168 80.8664 73.9755C81.0913 74.5342 81.2037 75.2089 81.2037 75.9996C81.2037 76.7951 81.0913 77.4746 80.8664 78.038C80.6439 78.5991 80.3231 79.0276 79.904 79.3235C79.4874 79.6194 78.9867 79.7674 78.4019 79.7674ZM78.4019 78.6559C78.8564 78.6559 79.2151 78.4322 79.4779 77.9847C79.743 77.5349 79.8756 76.8732 79.8756 75.9996C79.8756 75.422 79.8153 74.9367 79.6945 74.5437C79.5738 74.1507 79.4033 73.8548 79.1831 73.6559C78.963 73.4547 78.7026 73.354 78.4019 73.354C77.9497 73.354 77.5922 73.579 77.3295 74.0288C77.0667 74.4762 76.9341 75.1332 76.9317 75.9996C76.9294 76.5797 76.9874 77.0674 77.1057 77.4627C77.2265 77.8581 77.3969 78.1564 77.6171 78.3576C77.8373 78.5565 78.0989 78.6559 78.4019 78.6559ZM82.3836 79.6289V78.6772L84.9085 76.2021C85.1499 75.9582 85.3512 75.7416 85.5122 75.5522C85.6731 75.3628 85.7939 75.1793 85.8744 75.0018C85.9549 74.8242 85.9951 74.6348 85.9951 74.4336C85.9951 74.204 85.943 74.0075 85.8389 73.8441C85.7347 73.6784 85.5915 73.5505 85.4092 73.4606C85.2269 73.3706 85.0197 73.3256 84.7877 73.3256C84.5486 73.3256 84.3391 73.3754 84.1592 73.4748C83.9793 73.5719 83.8396 73.7103 83.7401 73.8903C83.6431 74.0702 83.5945 74.2844 83.5945 74.533H82.341C82.341 74.0714 82.4463 73.6701 82.657 73.3292C82.8677 72.9883 83.1578 72.7243 83.5271 72.5373C83.8988 72.3503 84.3249 72.2567 84.8055 72.2567C85.2932 72.2567 85.7217 72.3479 86.091 72.5302C86.4603 72.7125 86.7468 72.9622 86.9504 73.2795C87.1563 73.5967 87.2593 73.9589 87.2593 74.3661C87.2593 74.6384 87.2072 74.9059 87.1031 75.1687C86.9989 75.4315 86.8154 75.7227 86.5526 76.0423C86.2922 76.3619 85.9265 76.7489 85.4553 77.2035L84.2018 78.4783V78.5281H87.3694V79.6289H82.3836ZM89.4007 79.707C89.1852 79.707 89.0006 79.6313 88.8467 79.4798C88.6928 79.3282 88.617 79.1436 88.6194 78.9258C88.617 78.7127 88.6928 78.5304 88.8467 78.3789C89.0006 78.2274 89.1852 78.1516 89.4007 78.1516C89.609 78.1516 89.7901 78.2274 89.944 78.3789C90.1002 78.5304 90.1795 78.7127 90.1819 78.9258C90.1795 79.0702 90.1417 79.2016 90.0683 79.32C89.9972 79.4383 89.9026 79.533 89.7842 79.604C89.6682 79.6727 89.5403 79.707 89.4007 79.707ZM93.9355 79.7283C93.462 79.7283 93.0382 79.6396 92.6642 79.462C92.2901 79.2821 91.993 79.0359 91.7728 78.7234C91.555 78.4109 91.439 78.0534 91.4248 77.6509H92.7032C92.7269 77.9492 92.8559 78.1931 93.0903 78.3825C93.3247 78.5695 93.6064 78.663 93.9355 78.663C94.1935 78.663 94.4231 78.6038 94.6244 78.4854C94.8256 78.3671 94.9842 78.2025 95.1002 77.9918C95.2162 77.7811 95.2731 77.5408 95.2707 77.271C95.2731 76.9963 95.2151 76.7525 95.0967 76.5394C94.9783 76.3263 94.8161 76.1594 94.6102 76.0387C94.4042 75.9156 94.1675 75.854 93.8999 75.854C93.6821 75.8517 93.4679 75.8919 93.2572 75.9748C93.0465 76.0576 92.8796 76.1665 92.7565 76.3015L91.5669 76.1062L91.9468 72.3562H96.1656V73.457H93.037L92.8275 75.3853H92.8701C93.0051 75.2267 93.1956 75.0953 93.4419 74.9911C93.6881 74.8846 93.9579 74.8313 94.2515 74.8313C94.6919 74.8313 95.0848 74.9355 95.4305 75.1438C95.7761 75.3498 96.0484 75.6339 96.2472 75.9961C96.4461 76.3583 96.5455 76.7726 96.5455 77.239C96.5455 77.7196 96.4343 78.1481 96.2117 78.5245C95.9916 78.8986 95.685 79.1933 95.292 79.4087C94.9014 79.6218 94.4492 79.7283 93.9355 79.7283ZM101.739 78.6346L101.693 79.0252C101.66 79.3235 101.601 79.6265 101.515 79.9343C101.432 80.2444 101.345 80.5297 101.253 80.7901C101.16 81.0505 101.086 81.2553 101.029 81.4045H100.162C100.196 81.2601 100.241 81.0636 100.297 80.815C100.357 80.5664 100.413 80.2871 100.468 79.9769C100.522 79.6668 100.559 79.3519 100.578 79.0323L100.603 78.6346H101.739ZM108.741 75.4634V76.5217H105.467V75.4634H108.741ZM112.767 79.7674C112.182 79.7674 111.68 79.6194 111.261 79.3235C110.845 79.0252 110.524 78.5955 110.299 78.0344C110.077 77.471 109.965 76.7927 109.965 75.9996C109.968 75.2066 110.08 74.5318 110.303 73.9755C110.528 73.4168 110.848 72.9906 111.265 72.6971C111.684 72.4035 112.185 72.2567 112.767 72.2567C113.35 72.2567 113.85 72.4035 114.269 72.6971C114.688 72.9906 115.009 73.4168 115.232 73.9755C115.457 74.5342 115.569 75.2089 115.569 75.9996C115.569 76.7951 115.457 77.4746 115.232 78.038C115.009 78.5991 114.688 79.0276 114.269 79.3235C113.853 79.6194 113.352 79.7674 112.767 79.7674ZM112.767 78.6559C113.222 78.6559 113.58 78.4322 113.843 77.9847C114.108 77.5349 114.241 76.8732 114.241 75.9996C114.241 75.422 114.18 74.9367 114.06 74.5437C113.939 74.1507 113.769 73.8548 113.548 73.6559C113.328 73.4547 113.068 73.354 112.767 73.354C112.315 73.354 111.957 73.579 111.695 74.0288C111.432 74.4762 111.299 75.1332 111.297 75.9996C111.295 76.5797 111.353 77.0674 111.471 77.4627C111.592 77.8581 111.762 78.1564 111.982 78.3576C112.203 78.5565 112.464 78.6559 112.767 78.6559ZM119.412 79.7283C119.064 79.726 118.724 79.6656 118.393 79.5472C118.062 79.4265 117.763 79.2312 117.498 78.9613C117.233 78.689 117.022 78.328 116.866 77.8782C116.71 77.426 116.633 76.8661 116.635 76.1985C116.635 75.5759 116.701 75.0207 116.834 74.533C116.967 74.0453 117.157 73.6334 117.406 73.2972C117.654 72.9587 117.954 72.7006 118.304 72.5231C118.657 72.3455 119.051 72.2567 119.487 72.2567C119.944 72.2567 120.349 72.3467 120.701 72.5266C121.056 72.7066 121.343 72.9528 121.561 73.2653C121.778 73.5754 121.913 73.9258 121.965 74.3164H120.669C120.603 74.0371 120.467 73.8145 120.261 73.6488C120.057 73.4807 119.799 73.3967 119.487 73.3967C118.983 73.3967 118.594 73.6156 118.322 74.0536C118.052 74.4916 117.916 75.0929 117.914 75.8576H117.963C118.079 75.6493 118.23 75.4705 118.414 75.3214C118.599 75.1722 118.807 75.0574 119.039 74.9769C119.274 74.8941 119.521 74.8526 119.782 74.8526C120.208 74.8526 120.59 74.9544 120.929 75.158C121.269 75.3616 121.539 75.6422 121.738 75.9996C121.937 76.3548 122.035 76.762 122.033 77.2212C122.035 77.6995 121.926 78.1291 121.706 78.5103C121.486 78.8891 121.179 79.1874 120.786 79.4052C120.393 79.623 119.935 79.7307 119.412 79.7283ZM119.405 78.663C119.663 78.663 119.894 78.6003 120.098 78.4748C120.301 78.3493 120.462 78.18 120.581 77.967C120.699 77.7539 120.757 77.5148 120.755 77.2496C120.757 76.9892 120.7 76.7537 120.584 76.543C120.47 76.3323 120.313 76.1654 120.112 76.0423C119.911 75.9192 119.681 75.8576 119.423 75.8576C119.231 75.8576 119.052 75.8943 118.887 75.9677C118.721 76.0411 118.576 76.1429 118.453 76.2731C118.33 76.4009 118.233 76.5501 118.162 76.7205C118.094 76.8886 118.058 77.0685 118.056 77.2603C118.058 77.5136 118.117 77.7468 118.233 77.9599C118.349 78.1729 118.509 78.3434 118.713 78.4712C118.916 78.5991 119.147 78.663 119.405 78.663Z" fill="#C6C6C6"/>
<circle cx="144.04" cy="368.465" r="5.30127" transform="rotate(47.597 144.04 368.465)" fill="#FFC54F"/>
<circle cx="199.895" cy="369.023" r="5.30127" fill="#50C8A7"/>
<path d="M165.428 367.814C165.394 367.504 165.255 367.263 165.009 367.09C164.765 366.917 164.447 366.831 164.057 366.831C163.782 366.831 163.547 366.872 163.35 366.955C163.154 367.038 163.003 367.15 162.899 367.292C162.795 367.434 162.742 367.597 162.739 367.779C162.739 367.93 162.774 368.062 162.842 368.173C162.913 368.284 163.009 368.379 163.13 368.457C163.251 368.533 163.384 368.597 163.531 368.649C163.678 368.701 163.826 368.745 163.975 368.78L164.657 368.951C164.932 369.015 165.196 369.101 165.449 369.21C165.705 369.319 165.933 369.456 166.134 369.622C166.338 369.788 166.499 369.988 166.617 370.222C166.736 370.456 166.795 370.731 166.795 371.046C166.795 371.472 166.686 371.847 166.468 372.172C166.25 372.494 165.935 372.746 165.523 372.928C165.114 373.108 164.618 373.198 164.036 373.198C163.47 373.198 162.978 373.11 162.562 372.935C162.147 372.76 161.823 372.504 161.589 372.168C161.357 371.832 161.231 371.422 161.212 370.939H162.509C162.527 371.193 162.606 371.403 162.743 371.572C162.88 371.74 163.059 371.865 163.279 371.948C163.502 372.031 163.75 372.072 164.025 372.072C164.311 372.072 164.562 372.03 164.778 371.944C164.996 371.857 165.166 371.736 165.289 371.582C165.412 371.426 165.475 371.244 165.477 371.035C165.475 370.846 165.419 370.69 165.31 370.567C165.201 370.441 165.049 370.337 164.852 370.254C164.658 370.169 164.431 370.093 164.17 370.027L163.343 369.814C162.744 369.66 162.271 369.427 161.923 369.114C161.577 368.799 161.404 368.381 161.404 367.861C161.404 367.432 161.52 367.057 161.752 366.735C161.987 366.413 162.305 366.163 162.707 365.986C163.11 365.806 163.566 365.716 164.075 365.716C164.591 365.716 165.043 365.806 165.431 365.986C165.822 366.163 166.128 366.411 166.351 366.728C166.573 367.043 166.688 367.405 166.695 367.814H165.428ZM173.946 365.815V373.088H172.774L169.347 368.134H169.287V373.088H167.969V365.815H169.148L172.572 370.773H172.635V365.815H173.946ZM175.381 373.088V365.815H178.109C178.667 365.815 179.136 365.912 179.515 366.106C179.896 366.3 180.184 366.573 180.378 366.923C180.574 367.271 180.673 367.677 180.673 368.141C180.673 368.608 180.573 369.012 180.374 369.356C180.178 369.697 179.888 369.961 179.504 370.148C179.121 370.332 178.65 370.425 178.091 370.425H176.148V369.331H177.913C178.24 369.331 178.508 369.286 178.716 369.196C178.924 369.104 179.078 368.97 179.178 368.795C179.279 368.617 179.33 368.399 179.33 368.141C179.33 367.883 179.279 367.663 179.178 367.481C179.076 367.296 178.921 367.156 178.712 367.062C178.504 366.965 178.235 366.916 177.906 366.916H176.699V373.088H175.381ZM179.138 369.792L180.939 373.088H179.469L177.7 369.792H179.138Z" fill="#C6C6C6"/>
<path d="M217.969 373.088V365.815H220.697C221.255 365.815 221.724 365.912 222.103 366.106C222.484 366.3 222.772 366.573 222.966 366.923C223.162 367.271 223.26 367.677 223.26 368.141C223.26 368.608 223.161 369.012 222.962 369.356C222.766 369.697 222.476 369.961 222.092 370.148C221.709 370.332 221.238 370.425 220.679 370.425H218.736V369.331H220.501C220.828 369.331 221.095 369.286 221.304 369.196C221.512 369.104 221.666 368.97 221.765 368.795C221.867 368.617 221.918 368.399 221.918 368.141C221.918 367.883 221.867 367.663 221.765 367.481C221.664 367.296 221.509 367.156 221.3 367.062C221.092 366.965 220.823 366.916 220.494 366.916H219.287V373.088H217.969ZM221.726 369.792L223.527 373.088H222.057L220.288 369.792H221.726ZM228.426 367.814C228.392 367.504 228.253 367.263 228.007 367.09C227.763 366.917 227.445 366.831 227.055 366.831C226.78 366.831 226.545 366.872 226.348 366.955C226.152 367.038 226.001 367.15 225.897 367.292C225.793 367.434 225.74 367.597 225.737 367.779C225.737 367.93 225.772 368.062 225.84 368.173C225.911 368.284 226.007 368.379 226.128 368.457C226.249 368.533 226.383 368.597 226.529 368.649C226.676 368.701 226.824 368.745 226.973 368.78L227.655 368.951C227.93 369.015 228.194 369.101 228.447 369.21C228.703 369.319 228.931 369.456 229.132 369.622C229.336 369.788 229.497 369.988 229.615 370.222C229.734 370.456 229.793 370.731 229.793 371.046C229.793 371.472 229.684 371.847 229.466 372.172C229.248 372.494 228.933 372.746 228.521 372.928C228.112 373.108 227.616 373.198 227.034 373.198C226.468 373.198 225.977 373.11 225.56 372.935C225.146 372.76 224.821 372.504 224.587 372.168C224.355 371.832 224.229 371.422 224.21 370.939H225.507C225.526 371.193 225.604 371.403 225.741 371.572C225.878 371.74 226.057 371.865 226.277 371.948C226.5 372.031 226.748 372.072 227.023 372.072C227.309 372.072 227.56 372.03 227.776 371.944C227.994 371.857 228.164 371.736 228.287 371.582C228.41 371.426 228.473 371.244 228.475 371.035C228.473 370.846 228.417 370.69 228.308 370.567C228.2 370.441 228.047 370.337 227.85 370.254C227.656 370.169 227.429 370.093 227.169 370.027L226.341 369.814C225.742 369.66 225.269 369.427 224.921 369.114C224.575 368.799 224.402 368.381 224.402 367.861C224.402 367.432 224.518 367.057 224.75 366.735C224.985 366.413 225.303 366.163 225.705 365.986C226.108 365.806 226.564 365.716 227.073 365.716C227.589 365.716 228.041 365.806 228.429 365.986C228.82 366.163 229.126 366.411 229.349 366.728C229.571 367.043 229.686 367.405 229.693 367.814H228.426ZM234.92 367.814C234.887 367.504 234.747 367.263 234.501 367.09C234.257 366.917 233.94 366.831 233.549 366.831C233.274 366.831 233.039 366.872 232.842 366.955C232.646 367.038 232.496 367.15 232.391 367.292C232.287 367.434 232.234 367.597 232.232 367.779C232.232 367.93 232.266 368.062 232.335 368.173C232.406 368.284 232.501 368.379 232.622 368.457C232.743 368.533 232.877 368.597 233.023 368.649C233.17 368.701 233.318 368.745 233.467 368.78L234.149 368.951C234.424 369.015 234.688 369.101 234.941 369.21C235.197 369.319 235.425 369.456 235.626 369.622C235.83 369.788 235.991 369.988 236.109 370.222C236.228 370.456 236.287 370.731 236.287 371.046C236.287 371.472 236.178 371.847 235.96 372.172C235.742 372.494 235.428 372.746 235.016 372.928C234.606 373.108 234.11 373.198 233.528 373.198C232.962 373.198 232.471 373.11 232.054 372.935C231.64 372.76 231.315 372.504 231.081 372.168C230.849 371.832 230.723 371.422 230.705 370.939H232.001C232.02 371.193 232.098 371.403 232.235 371.572C232.372 371.74 232.551 371.865 232.771 371.948C232.994 372.031 233.242 372.072 233.517 372.072C233.804 372.072 234.054 372.03 234.27 371.944C234.488 371.857 234.658 371.736 234.781 371.582C234.904 371.426 234.967 371.244 234.969 371.035C234.967 370.846 234.911 370.69 234.803 370.567C234.694 370.441 234.541 370.337 234.344 370.254C234.15 370.169 233.923 370.093 233.663 370.027L232.835 369.814C232.236 369.66 231.763 369.427 231.415 369.114C231.069 368.799 230.896 368.381 230.896 367.861C230.896 367.432 231.012 367.057 231.244 366.735C231.479 366.413 231.797 366.163 232.2 365.986C232.602 365.806 233.058 365.716 233.567 365.716C234.083 365.716 234.535 365.806 234.923 365.986C235.314 366.163 235.621 366.411 235.843 366.728C236.066 367.043 236.18 367.405 236.188 367.814H234.92ZM238.779 365.815V373.088H237.461V365.815H238.779Z" fill="#C6C6C6"/>
<defs>
<linearGradient id="paint0_linear_1001_6912" x1="135.331" y1="325.321" x2="587.491" y2="325.321" gradientUnits="userSpaceOnUse">
<stop stop-color="#FF5F9B"/>
<stop offset="1" stop-color="#2F67FF"/>
</linearGradient>
<linearGradient id="paint1_linear_1001_6912" x1="134.833" y1="325.821" x2="134.833" y2="48.2119" gradientUnits="userSpaceOnUse">
<stop stop-color="#FF5F9B"/>
<stop offset="1" stop-color="#2F67FF"/>
</linearGradient>
</defs>
</svg>
