<svg width="658" height="488" viewBox="0 0 658 488" fill="none" xmlns="http://www.w3.org/2000/svg">
<rect width="657.207" height="487.288" rx="20" fill="white"/>
<line x1="605.153" y1="356.871" x2="153.593" y2="356.871" stroke="url(#paint0_linear_1000_6355)" stroke-width="0.6" stroke-linecap="round"/>
<path d="M153.895 78.9619C153.895 78.7962 153.76 78.6619 153.595 78.6619C153.429 78.6619 153.295 78.7962 153.295 78.9619L153.595 78.9619L153.895 78.9619ZM153.595 78.9619L153.295 78.9619L153.295 356.571L153.595 356.571L153.895 356.571L153.895 78.9619L153.595 78.9619Z" fill="url(#paint1_linear_1000_6355)"/>
<path d="M65.5664 282.098L51.021 282.098L51.021 276.359C51.021 275.26 51.2174 274.323 51.6104 273.546C51.9987 272.765 52.5503 272.171 53.2653 271.764C53.9755 271.352 54.8112 271.146 55.7724 271.146C56.7383 271.146 57.5692 271.354 58.2653 271.771C58.9566 272.188 59.4869 272.791 59.8562 273.582C60.2255 274.368 60.4102 275.32 60.4102 276.437L60.4102 280.279L57.9386 280.279L57.9386 276.934C57.9386 276.347 57.8581 275.859 57.6971 275.471C57.5361 275.083 57.2946 274.794 56.9727 274.605C56.6507 274.411 56.2506 274.314 55.7724 274.314C55.2894 274.314 54.8822 274.411 54.5508 274.605C54.2193 274.794 53.9684 275.085 53.7979 275.478C53.6228 275.867 53.5352 276.357 53.5352 276.948L53.5352 279.022L65.5664 279.022L65.5664 282.098ZM58.9471 274.242L65.5664 270.627L65.5664 274.022L58.9471 277.559L58.9471 274.242ZM55.2042 261.082C54.6313 261.139 54.1862 261.383 53.869 261.814C53.5517 262.244 53.3931 262.829 53.3931 263.568C53.3931 264.07 53.4641 264.493 53.6062 264.839C53.7435 265.185 53.9353 265.45 54.1815 265.635C54.4277 265.814 54.707 265.904 55.0195 265.904C55.2799 265.914 55.5072 265.859 55.7013 265.741C55.8955 265.618 56.0636 265.45 56.2056 265.237C56.3429 265.024 56.4637 264.778 56.5678 264.498C56.6673 264.219 56.7525 263.921 56.8235 263.603L57.136 262.296C57.2781 261.662 57.4674 261.08 57.7042 260.549C57.9409 260.019 58.2321 259.56 58.5778 259.171C58.9234 258.783 59.3306 258.483 59.7994 258.269C60.2681 258.052 60.8055 257.94 61.4116 257.936C62.3017 257.94 63.0735 258.168 63.7269 258.617C64.3756 259.063 64.8799 259.707 65.2397 260.549C65.5948 261.387 65.7724 262.398 65.7724 263.582C65.7724 264.756 65.5924 265.779 65.2326 266.65C64.8728 267.517 64.3401 268.194 63.6346 268.681C62.9244 269.164 62.046 269.418 60.9996 269.441L60.9996 266.466C61.4873 266.432 61.8945 266.293 62.2212 266.046C62.5432 265.796 62.787 265.462 62.9528 265.045C63.1138 264.624 63.1942 264.148 63.1942 263.617C63.1942 263.097 63.1185 262.644 62.967 262.261C62.8155 261.873 62.6048 261.572 62.3349 261.359C62.065 261.146 61.7549 261.039 61.4045 261.039C61.0778 261.039 60.8031 261.136 60.5806 261.331C60.3581 261.52 60.1687 261.799 60.0124 262.169C59.8562 262.533 59.7141 262.981 59.5863 263.511L59.1886 265.095C58.8903 266.321 58.4239 267.289 57.7894 268C57.1549 268.71 56.3003 269.063 55.2255 269.058C54.3448 269.063 53.5754 268.828 52.9173 268.355C52.2591 267.876 51.7454 267.221 51.3761 266.387C51.0067 265.554 50.8221 264.607 50.8221 263.546C50.8221 262.467 51.0067 261.525 51.3761 260.72C51.7454 259.91 52.2591 259.28 52.9173 258.831C53.5754 258.381 54.3377 258.149 55.2042 258.135L55.2042 261.082ZM55.2042 247.977C54.6313 248.033 54.1862 248.277 53.869 248.708C53.5517 249.139 53.3931 249.724 53.3931 250.462C53.3931 250.964 53.4641 251.388 53.6062 251.734C53.7435 252.079 53.9352 252.344 54.1815 252.529C54.4277 252.709 54.707 252.799 55.0195 252.799C55.2799 252.808 55.5072 252.754 55.7013 252.636C55.8955 252.513 56.0636 252.344 56.2056 252.131C56.3429 251.918 56.4637 251.672 56.5678 251.393C56.6673 251.113 56.7525 250.815 56.8235 250.498L57.136 249.191C57.2781 248.557 57.4674 247.974 57.7042 247.444C57.9409 246.914 58.2321 246.454 58.5778 246.066C58.9234 245.678 59.3306 245.377 59.7994 245.164C60.2681 244.946 60.8055 244.835 61.4116 244.83C62.3017 244.835 63.0735 245.062 63.7269 245.512C64.3756 245.957 64.8799 246.601 65.2397 247.444C65.5948 248.282 65.7724 249.293 65.7724 250.477C65.7724 251.651 65.5924 252.673 65.2326 253.545C64.8727 254.411 64.3401 255.088 63.6346 255.576C62.9244 256.059 62.046 256.312 60.9996 256.336L60.9996 253.36C61.4873 253.327 61.8945 253.187 62.2212 252.941C62.5432 252.69 62.787 252.356 62.9528 251.94C63.1138 251.518 63.1942 251.042 63.1942 250.512C63.1942 249.991 63.1185 249.539 62.967 249.155C62.8155 248.767 62.6048 248.467 62.3349 248.254C62.065 248.04 61.7549 247.934 61.4045 247.934C61.0778 247.934 60.8031 248.031 60.5806 248.225C60.3581 248.414 60.1687 248.694 60.0124 249.063C59.8562 249.428 59.7141 249.875 59.5863 250.405L59.1886 251.989C58.8903 253.216 58.4239 254.184 57.7894 254.894C57.1549 255.604 56.3003 255.957 55.2255 255.952C54.3448 255.957 53.5754 255.723 52.9173 255.249C52.2591 254.771 51.7454 254.115 51.3761 253.282C51.0067 252.449 50.8221 251.502 50.8221 250.441C50.8221 249.361 51.0067 248.419 51.3761 247.614C51.7454 246.805 52.2591 246.175 52.9173 245.725C53.5754 245.275 54.3377 245.043 55.2042 245.029L55.2042 247.977ZM51.0209 239.686L65.5664 239.686L65.5664 242.762L51.0209 242.762L51.0209 239.686ZM65.7795 228.124C65.7795 229.128 65.5995 229.994 65.2397 230.723C64.8799 231.452 64.3922 232.014 63.7766 232.407C63.1564 232.795 62.4651 232.989 61.7028 232.989C61.1346 232.989 60.6303 232.875 60.19 232.648C59.7496 232.421 59.3448 232.104 58.9755 231.696C58.6014 231.289 58.2298 230.816 57.8604 230.276L56.0067 227.456C55.7747 227.092 55.5309 226.824 55.2752 226.654C55.0148 226.483 54.7331 226.398 54.43 226.398C54.1412 226.398 53.8737 226.514 53.6275 226.746C53.3813 226.978 53.2605 227.307 53.2653 227.733C53.2653 228.017 53.3292 228.264 53.457 228.472C53.5801 228.68 53.7435 228.844 53.9471 228.962C54.1459 229.076 54.3685 229.132 54.6147 229.132C54.9177 229.132 55.2255 229.047 55.538 228.877C55.8505 228.706 56.1819 228.479 56.5323 228.195C56.878 227.911 57.252 227.601 57.6545 227.265L65.5664 220.368L65.5664 223.522L59.1602 229.274C58.7293 229.653 58.2795 230.032 57.8107 230.411C57.3372 230.785 56.8353 231.097 56.305 231.348C55.77 231.599 55.19 231.725 54.565 231.725C53.8595 231.725 53.225 231.561 52.6616 231.235C52.0981 230.903 51.6531 230.439 51.3263 229.843C50.9949 229.246 50.8292 228.55 50.8292 227.755C50.8292 226.978 50.9878 226.308 51.305 225.745C51.6175 225.176 52.0342 224.741 52.555 224.438C53.0711 224.13 53.6393 223.976 54.2596 223.976C54.9461 223.976 55.5688 224.147 56.1275 224.488C56.6815 224.824 57.1786 225.297 57.619 225.908L59.7567 228.877C60.0503 229.279 60.351 229.577 60.6587 229.772C60.9618 229.961 61.253 230.056 61.5323 230.056C61.878 230.056 62.1881 229.97 62.4627 229.8C62.7373 229.63 62.9551 229.388 63.1161 229.076C63.2724 228.763 63.3505 228.396 63.3505 227.975C63.3505 227.463 63.2345 226.959 63.0025 226.462C62.7657 225.96 62.4319 225.506 62.0011 225.098C61.5655 224.686 61.0494 224.357 60.4528 224.111C59.8562 223.865 59.1957 223.742 58.4712 223.742L58.4712 221.235C59.3614 221.235 60.1639 221.332 60.8789 221.526C61.5891 221.72 62.2094 221.99 62.7397 222.336C63.2653 222.681 63.6961 223.077 64.0323 223.522C64.1223 223.664 64.2075 223.801 64.288 223.934C64.3685 224.066 64.4537 224.203 64.5437 224.345C64.9793 224.885 65.2941 225.489 65.4883 226.157C65.6824 226.819 65.7795 227.475 65.7795 228.124ZM55.2042 206.531C54.6313 206.588 54.1862 206.832 53.869 207.263C53.5517 207.694 53.3931 208.278 53.3931 209.017C53.3931 209.519 53.4641 209.943 53.6062 210.288C53.7435 210.634 53.9352 210.899 54.1815 211.084C54.4277 211.264 54.707 211.354 55.0195 211.354C55.2799 211.363 55.5072 211.309 55.7013 211.19C55.8955 211.067 56.0636 210.899 56.2056 210.686C56.3429 210.473 56.4637 210.227 56.5678 209.947C56.6673 209.668 56.7525 209.37 56.8235 209.053L57.136 207.746C57.2781 207.111 57.4674 206.529 57.7042 205.999C57.9409 205.468 58.2321 205.009 58.5778 204.621C58.9234 204.232 59.3306 203.932 59.7994 203.719C60.2681 203.501 60.8055 203.39 61.4116 203.385C62.3017 203.39 63.0735 203.617 63.7269 204.067C64.3756 204.512 64.8798 205.156 65.2397 205.999C65.5948 206.837 65.7724 207.847 65.7724 209.031C65.7724 210.205 65.5924 211.228 65.2326 212.099C64.8727 212.966 64.3401 213.643 63.6346 214.131C62.9244 214.614 62.046 214.867 60.9996 214.891L60.9996 211.915C61.4873 211.882 61.8945 211.742 62.2212 211.496C62.5432 211.245 62.787 210.911 62.9528 210.494C63.1138 210.073 63.1942 209.597 63.1942 209.067C63.1942 208.546 63.1185 208.094 62.967 207.71C62.8155 207.322 62.6048 207.021 62.3349 206.808C62.065 206.595 61.7548 206.489 61.4045 206.489C61.0778 206.489 60.8031 206.586 60.5806 206.78C60.3581 206.969 60.1687 207.249 60.0124 207.618C59.8562 207.982 59.7141 208.43 59.5863 208.96L59.1886 210.544C58.8903 211.77 58.4239 212.739 57.7894 213.449C57.1549 214.159 56.3003 214.512 55.2255 214.507C54.3448 214.512 53.5754 214.277 52.9173 213.804C52.2591 213.326 51.7454 212.67 51.3761 211.837C51.0067 211.003 50.8221 210.056 50.8221 208.996C50.8221 207.916 51.0067 206.974 51.3761 206.169C51.7454 205.359 52.2591 204.73 52.9173 204.28C53.5754 203.83 54.3377 203.598 55.2042 203.584L55.2042 206.531ZM51.0209 189.15L65.5664 189.15L65.5664 191.806L56.4116 198.135L56.4116 198.241L65.5664 198.241L65.5664 201.316L51.0209 201.316L51.0209 198.617L60.1687 192.339L60.1687 192.211L51.0209 192.211L51.0209 189.15ZM65.5664 186.609L51.0209 186.609L51.0209 180.871C51.0209 179.772 51.2174 178.835 51.6104 178.058C51.9987 177.277 52.5503 176.683 53.2653 176.276C53.9755 175.864 54.8112 175.658 55.7724 175.658C56.7383 175.658 57.5692 175.866 58.2653 176.283C58.9566 176.699 59.4869 177.303 59.8562 178.094C60.2255 178.88 60.4102 179.831 60.4102 180.949L60.4102 184.791L57.9386 184.791L57.9386 181.446C57.9386 180.859 57.8581 180.371 57.6971 179.983C57.5361 179.595 57.2946 179.306 56.9727 179.116C56.6507 178.922 56.2506 178.825 55.7724 178.825C55.2894 178.825 54.8822 178.922 54.5508 179.116C54.2193 179.306 53.9684 179.597 53.7979 179.99C53.6227 180.378 53.5352 180.868 53.5352 181.46L53.5352 183.534L65.5664 183.534L65.5664 186.609ZM58.9471 178.754L65.5664 175.139L65.5664 178.534L58.9471 182.071L58.9471 178.754Z" fill="#1E1E1E"/>
<path d="M300.285 436.034H295.128L295.128 421.488H300.327C301.79 421.488 303.05 421.779 304.106 422.362C305.162 422.939 305.974 423.77 306.542 424.855C307.115 425.939 307.401 427.236 307.401 428.747C307.401 430.262 307.115 431.564 306.542 432.653C305.974 433.742 305.157 434.578 304.092 435.16C303.031 435.742 301.762 436.034 300.285 436.034ZM298.204 433.399H300.157C301.066 433.399 301.831 433.238 302.451 432.916C303.076 432.589 303.545 432.085 303.857 431.403C304.174 430.716 304.333 429.831 304.333 428.747C304.333 427.672 304.174 426.794 303.857 426.112C303.545 425.43 303.078 424.928 302.458 424.606C301.838 424.284 301.073 424.123 300.164 424.123H298.204V433.399ZM309.622 436.034L309.622 425.125H312.648L312.648 436.034H309.622ZM311.142 423.718C310.693 423.718 310.307 423.569 309.985 423.271C309.667 422.968 309.509 422.606 309.509 422.184C309.509 421.768 309.667 421.41 309.985 421.112C310.307 420.809 310.693 420.657 311.142 420.657C311.592 420.657 311.976 420.809 312.293 421.112C312.615 421.41 312.776 421.768 312.776 422.184C312.776 422.606 312.615 422.968 312.293 423.271C311.976 423.569 311.592 423.718 311.142 423.718ZM324.148 428.235L321.378 428.406C321.331 428.169 321.229 427.956 321.073 427.767C320.917 427.573 320.711 427.419 320.455 427.305C320.204 427.187 319.904 427.127 319.553 427.127C319.084 427.127 318.689 427.227 318.367 427.426C318.045 427.62 317.884 427.88 317.884 428.207C317.884 428.467 317.988 428.688 318.197 428.867C318.405 429.047 318.762 429.192 319.269 429.301L321.244 429.698C322.304 429.916 323.095 430.267 323.616 430.75C324.137 431.233 324.397 431.867 324.397 432.653C324.397 433.368 324.186 433.995 323.765 434.535C323.348 435.075 322.775 435.496 322.046 435.799C321.322 436.098 320.486 436.247 319.539 436.247C318.095 436.247 316.944 435.946 316.087 435.345C315.235 434.739 314.735 433.915 314.589 432.873L317.565 432.717C317.655 433.157 317.872 433.493 318.218 433.725C318.564 433.953 319.006 434.066 319.546 434.066C320.076 434.066 320.503 433.965 320.824 433.761C321.151 433.553 321.317 433.285 321.322 432.958C321.317 432.684 321.201 432.459 320.974 432.284C320.746 432.104 320.396 431.966 319.922 431.872L318.033 431.495C316.968 431.282 316.175 430.913 315.654 430.387C315.138 429.862 314.88 429.192 314.88 428.377C314.88 427.677 315.069 427.073 315.448 426.566C315.832 426.06 316.369 425.669 317.06 425.394C317.756 425.12 318.571 424.983 319.503 424.983C320.881 424.983 321.966 425.274 322.756 425.856C323.552 426.439 324.016 427.232 324.148 428.235ZM332.105 425.125V427.397H325.535V425.125H332.105ZM327.027 422.511H330.052V432.681C330.052 432.961 330.095 433.179 330.18 433.335C330.265 433.486 330.384 433.593 330.535 433.654C330.691 433.716 330.871 433.747 331.075 433.747C331.217 433.747 331.359 433.735 331.501 433.711C331.643 433.683 331.752 433.662 331.828 433.647L332.304 435.899C332.152 435.946 331.939 436.001 331.664 436.062C331.39 436.128 331.056 436.169 330.663 436.183C329.934 436.211 329.295 436.114 328.745 435.892C328.201 435.669 327.777 435.323 327.474 434.855C327.171 434.386 327.022 433.794 327.027 433.079V422.511ZM337.186 436.24C336.49 436.24 335.87 436.119 335.326 435.877C334.781 435.631 334.35 435.269 334.033 434.791C333.72 434.308 333.564 433.707 333.564 432.987C333.564 432.381 333.675 431.872 333.898 431.46C334.121 431.048 334.424 430.716 334.807 430.466C335.191 430.215 335.626 430.025 336.114 429.897C336.606 429.769 337.122 429.68 337.662 429.627C338.297 429.561 338.808 429.5 339.196 429.443C339.585 429.381 339.866 429.291 340.041 429.173C340.217 429.055 340.304 428.879 340.304 428.647V428.605C340.304 428.155 340.162 427.807 339.878 427.561C339.599 427.314 339.201 427.191 338.685 427.191C338.14 427.191 337.707 427.312 337.385 427.554C337.063 427.79 336.85 428.089 336.746 428.448L333.948 428.221C334.09 427.558 334.369 426.985 334.786 426.502C335.202 426.015 335.74 425.641 336.398 425.38C337.061 425.115 337.828 424.983 338.699 424.983C339.305 424.983 339.885 425.054 340.439 425.196C340.998 425.338 341.493 425.558 341.924 425.856C342.359 426.154 342.702 426.538 342.953 427.007C343.204 427.471 343.33 428.027 343.33 428.676L343.33 436.034H340.46L340.46 434.521H340.375C340.2 434.862 339.966 435.162 339.672 435.423C339.379 435.679 339.026 435.88 338.614 436.027C338.202 436.169 337.726 436.24 337.186 436.24ZM338.053 434.152C338.498 434.152 338.891 434.064 339.232 433.889C339.573 433.709 339.84 433.467 340.034 433.164C340.228 432.861 340.326 432.518 340.326 432.135V430.977C340.231 431.038 340.101 431.095 339.935 431.147C339.774 431.195 339.592 431.24 339.388 431.282C339.184 431.32 338.981 431.356 338.777 431.389C338.574 431.417 338.389 431.443 338.223 431.467C337.868 431.519 337.558 431.602 337.293 431.716C337.028 431.829 336.822 431.983 336.675 432.177C336.528 432.367 336.455 432.603 336.455 432.887C336.455 433.299 336.604 433.614 336.902 433.832C337.205 434.045 337.589 434.152 338.053 434.152ZM348.703 429.727L348.703 436.034H345.677L345.677 425.125H348.561V427.049H348.688C348.93 426.415 349.335 425.913 349.903 425.544C350.471 425.17 351.16 424.983 351.97 424.983C352.727 424.983 353.388 425.148 353.951 425.48C354.515 425.811 354.953 426.285 355.265 426.9C355.578 427.511 355.734 428.24 355.734 429.088V436.034H352.708L352.708 429.627C352.713 428.96 352.543 428.439 352.197 428.065C351.851 427.686 351.376 427.497 350.769 427.497C350.362 427.497 350.002 427.584 349.69 427.76C349.382 427.935 349.141 428.19 348.965 428.527C348.795 428.858 348.707 429.258 348.703 429.727ZM363.047 436.247C361.93 436.247 360.969 436.01 360.164 435.537C359.364 435.058 358.748 434.395 358.317 433.548C357.891 432.7 357.678 431.725 357.678 430.622C357.678 429.504 357.894 428.524 358.324 427.681C358.76 426.834 359.378 426.173 360.178 425.7C360.978 425.222 361.93 424.983 363.033 424.983C363.985 424.983 364.818 425.155 365.533 425.501C366.248 425.847 366.814 426.332 367.231 426.957C367.647 427.582 367.877 428.316 367.92 429.159H365.065C364.984 428.614 364.771 428.176 364.425 427.845C364.084 427.509 363.637 427.341 363.083 427.341C362.614 427.341 362.205 427.468 361.854 427.724C361.509 427.975 361.239 428.342 361.045 428.825C360.851 429.308 360.753 429.893 360.753 430.579C360.753 431.275 360.848 431.867 361.038 432.355C361.232 432.842 361.504 433.214 361.854 433.47C362.205 433.725 362.614 433.853 363.083 433.853C363.429 433.853 363.739 433.782 364.013 433.64C364.293 433.498 364.522 433.292 364.702 433.022C364.887 432.748 365.008 432.419 365.065 432.035H367.92C367.872 432.868 367.645 433.602 367.238 434.237C366.835 434.867 366.279 435.359 365.569 435.714C364.859 436.069 364.018 436.247 363.047 436.247ZM374.828 436.247C373.706 436.247 372.74 436.019 371.931 435.565C371.126 435.106 370.505 434.457 370.07 433.619C369.634 432.776 369.416 431.779 369.416 430.629C369.416 429.507 369.634 428.522 370.07 427.674C370.505 426.827 371.119 426.166 371.909 425.693C372.705 425.219 373.638 424.983 374.708 424.983C375.427 424.983 376.097 425.099 376.718 425.331C377.343 425.558 377.887 425.901 378.351 426.36C378.82 426.82 379.184 427.397 379.445 428.093C379.705 428.785 379.835 429.594 379.835 430.522V431.353L370.624 431.353V429.478L376.987 429.478C376.987 429.043 376.893 428.657 376.703 428.321C376.514 427.984 376.251 427.722 375.915 427.532C375.584 427.338 375.198 427.241 374.757 427.241C374.298 427.241 373.891 427.348 373.536 427.561C373.185 427.769 372.911 428.051 372.712 428.406C372.513 428.756 372.411 429.147 372.407 429.578V431.36C372.407 431.9 372.506 432.367 372.705 432.76C372.908 433.153 373.195 433.456 373.564 433.669C373.934 433.882 374.371 433.988 374.878 433.988C375.214 433.988 375.522 433.941 375.801 433.846C376.081 433.751 376.32 433.609 376.519 433.42C376.718 433.231 376.869 432.999 376.973 432.724L379.772 432.909C379.63 433.581 379.338 434.168 378.898 434.67C378.462 435.167 377.899 435.555 377.208 435.835C376.521 436.109 375.728 436.247 374.828 436.247ZM382.478 430.203C382.478 428.441 382.712 426.82 383.181 425.338C383.654 423.856 384.376 422.483 385.347 421.218H388.237C387.868 421.687 387.525 422.26 387.208 422.937C386.89 423.609 386.613 424.348 386.377 425.153C386.14 425.958 385.955 426.791 385.823 427.653C385.69 428.51 385.624 429.36 385.624 430.203C385.624 431.325 385.737 432.459 385.965 433.605C386.197 434.746 386.509 435.806 386.902 436.787C387.3 437.767 387.745 438.569 388.237 439.194H385.347C384.376 437.93 383.654 436.557 383.181 435.075C382.712 433.593 382.478 431.969 382.478 430.203ZM390.05 421.488H393.843L397.849 431.261H398.019L402.025 421.488L405.817 421.488V436.034L402.834 436.034V426.566H402.714L398.949 435.963H396.918L393.154 426.531H393.033V436.034H390.05V421.488ZM413.266 436.247C412.144 436.247 411.178 436.019 410.368 435.565C409.563 435.106 408.943 434.457 408.507 433.619C408.072 432.776 407.854 431.779 407.854 430.629C407.854 429.507 408.072 428.522 408.507 427.674C408.943 426.827 409.556 426.166 410.347 425.693C411.142 425.219 412.075 424.983 413.145 424.983C413.865 424.983 414.535 425.099 415.155 425.331C415.78 425.558 416.325 425.901 416.789 426.36C417.257 426.82 417.622 427.397 417.882 428.093C418.143 428.785 418.273 429.594 418.273 430.522V431.353H409.061V429.478H415.425C415.425 429.043 415.33 428.657 415.141 428.321C414.951 427.984 414.689 427.722 414.353 427.532C414.021 427.338 413.635 427.241 413.195 427.241C412.736 427.241 412.328 427.348 411.973 427.561C411.623 427.769 411.348 428.051 411.149 428.406C410.951 428.756 410.849 429.147 410.844 429.578V431.36C410.844 431.9 410.943 432.367 411.142 432.76C411.346 433.153 411.632 433.456 412.002 433.669C412.371 433.882 412.809 433.988 413.316 433.988C413.652 433.988 413.96 433.941 414.239 433.846C414.518 433.751 414.757 433.609 414.956 433.42C415.155 433.231 415.307 432.999 415.411 432.724L418.209 432.909C418.067 433.581 417.776 434.168 417.335 434.67C416.9 435.167 416.336 435.555 415.645 435.835C414.959 436.109 414.166 436.247 413.266 436.247ZM426.05 425.125V427.397H419.48V425.125H426.05ZM420.972 422.511H423.997V432.681C423.997 432.961 424.04 433.179 424.125 433.335C424.21 433.486 424.329 433.593 424.48 433.654C424.637 433.716 424.817 433.747 425.02 433.747C425.162 433.747 425.304 433.735 425.446 433.711C425.588 433.683 425.697 433.662 425.773 433.647L426.249 435.899C426.097 435.946 425.884 436.001 425.61 436.062C425.335 436.128 425.001 436.169 424.608 436.183C423.879 436.211 423.24 436.114 422.691 435.892C422.146 435.669 421.722 435.323 421.419 434.855C421.116 434.386 420.967 433.794 420.972 433.079V422.511ZM432.875 436.247C431.753 436.247 430.787 436.019 429.978 435.565C429.173 435.106 428.552 434.457 428.117 433.619C427.681 432.776 427.463 431.779 427.463 430.629C427.463 429.507 427.681 428.522 428.117 427.674C428.552 426.827 429.166 426.166 429.956 425.693C430.752 425.219 431.684 424.983 432.755 424.983C433.474 424.983 434.144 425.099 434.764 425.331C435.389 425.558 435.934 425.901 436.398 426.36C436.867 426.82 437.231 427.397 437.492 428.093C437.752 428.785 437.882 429.594 437.882 430.522V431.353H428.671V429.478H435.034C435.034 429.043 434.94 428.657 434.75 428.321C434.561 427.984 434.298 427.722 433.962 427.532C433.63 427.338 433.245 427.241 432.804 427.241C432.345 427.241 431.938 427.348 431.583 427.561C431.232 427.769 430.958 428.051 430.759 428.406C430.56 428.756 430.458 429.147 430.453 429.578V431.36C430.453 431.9 430.553 432.367 430.752 432.76C430.955 433.153 431.242 433.456 431.611 433.669C431.98 433.882 432.418 433.988 432.925 433.988C433.261 433.988 433.569 433.941 433.848 433.846C434.128 433.751 434.367 433.609 434.566 433.42C434.764 433.231 434.916 432.999 435.02 432.724L437.818 432.909C437.676 433.581 437.385 434.168 436.945 434.67C436.509 435.167 435.946 435.555 435.255 435.835C434.568 436.109 433.775 436.247 432.875 436.247ZM439.857 436.034V425.125H442.79V427.028H442.904C443.103 426.351 443.436 425.84 443.905 425.494C444.374 425.144 444.914 424.968 445.524 424.968C445.676 424.968 445.839 424.978 446.014 424.997C446.19 425.016 446.344 425.042 446.476 425.075V427.76C446.334 427.717 446.138 427.679 445.887 427.646C445.636 427.613 445.406 427.596 445.198 427.596C444.753 427.596 444.355 427.693 444.005 427.887C443.659 428.077 443.384 428.342 443.181 428.683C442.982 429.024 442.882 429.417 442.882 429.862V436.034H439.857ZM457.117 428.235L454.347 428.406C454.3 428.169 454.198 427.956 454.042 427.767C453.886 427.573 453.68 427.419 453.424 427.305C453.173 427.187 452.872 427.127 452.522 427.127C452.053 427.127 451.658 427.227 451.336 427.426C451.014 427.62 450.853 427.88 450.853 428.207C450.853 428.467 450.957 428.688 451.165 428.867C451.374 429.047 451.731 429.192 452.238 429.301L454.212 429.698C455.273 429.916 456.064 430.267 456.584 430.75C457.105 431.233 457.366 431.867 457.366 432.653C457.366 433.368 457.155 433.995 456.734 434.535C456.317 435.075 455.744 435.496 455.015 435.799C454.29 436.098 453.455 436.247 452.508 436.247C451.064 436.247 449.913 435.946 449.056 435.345C448.204 434.739 447.704 433.915 447.557 432.873L450.533 432.717C450.623 433.157 450.841 433.493 451.187 433.725C451.532 433.953 451.975 434.066 452.515 434.066C453.045 434.066 453.471 433.965 453.793 433.761C454.12 433.553 454.286 433.285 454.29 432.958C454.286 432.684 454.17 432.459 453.942 432.284C453.715 432.104 453.365 431.966 452.891 431.872L451.002 431.495C449.937 431.282 449.144 430.913 448.623 430.387C448.107 429.862 447.849 429.192 447.849 428.377C447.849 427.677 448.038 427.073 448.417 426.566C448.8 426.06 449.338 425.669 450.029 425.394C450.725 425.12 451.539 424.983 452.472 424.983C453.85 424.983 454.934 425.274 455.725 425.856C456.521 426.439 456.985 427.232 457.117 428.235ZM464.37 430.203C464.37 431.969 464.134 433.593 463.66 435.075C463.191 436.557 462.472 437.93 461.501 439.194H458.61C458.98 438.725 459.323 438.153 459.64 437.475C459.957 436.798 460.234 436.06 460.471 435.26C460.708 434.455 460.893 433.621 461.025 432.76C461.158 431.898 461.224 431.046 461.224 430.203C461.224 429.081 461.108 427.949 460.876 426.808C460.649 425.662 460.336 424.601 459.938 423.626C459.545 422.646 459.103 421.843 458.61 421.218H461.501C462.472 422.483 463.191 423.856 463.66 425.338C464.134 426.82 464.37 428.441 464.37 430.203Z" fill="#1E1E1E"/>
<line x1="311.798" y1="356.571" x2="311.798" y2="78.9619" stroke="#EBEBEB" stroke-width="0.6"/>
<line x1="481.798" y1="356.571" x2="481.798" y2="78.9619" stroke="#EBEBEB" stroke-width="0.6"/>
<line x1="154.514" y1="290.723" x2="605.032" y2="290.723" stroke="#EBEBEB" stroke-width="0.6"/>
<line x1="153.969" y1="229.405" x2="604.487" y2="229.405" stroke="#EBEBEB" stroke-width="0.6"/>
<line x1="154.426" y1="168.086" x2="604.944" y2="168.086" stroke="#EBEBEB" stroke-width="0.6"/>
<line x1="153.881" y1="106.768" x2="604.399" y2="106.768" stroke="#EBEBEB" stroke-width="0.6"/>
<line x1="391.798" y1="356.571" x2="391.798" y2="78.9619" stroke="#EBEBEB" stroke-width="0.6"/>
<line x1="561.798" y1="356.571" x2="561.798" y2="78.9619" stroke="#EBEBEB" stroke-width="0.6"/>
<circle cx="218.865" cy="235.317" r="5.30127" transform="rotate(1.58058 218.865 235.317)" fill="#FFC54F"/>
<circle cx="224.609" cy="210.741" r="5.30127" transform="rotate(47.597 224.609 210.741)" fill="#FFC54F"/>
<circle cx="224.311" cy="249.468" r="5.30127" transform="rotate(47.597 224.311 249.468)" fill="#FFC54F"/>
<circle cx="160.783" cy="408.424" r="5.30127" transform="rotate(47.597 160.783 408.424)" fill="#FFC54F"/>
<circle cx="388.875" cy="189.137" r="5.30127" fill="#50C8A7"/>
<circle cx="476.699" cy="176.393" r="5.30127" fill="#50C8A7"/>
<circle cx="552.066" cy="107.506" r="5.30127" fill="#50C8A7"/>
<circle cx="299.633" cy="184.667" r="5.30127" fill="#FFC54F"/>
<circle cx="312.912" cy="205.819" r="5.30127" fill="#50C8A7"/>
<circle cx="313.65" cy="196.045" r="5.30127" fill="#FFC54F"/>
<circle cx="393.617" cy="204.792" r="5.30127" fill="#50C8A7"/>
<circle cx="497.958" cy="142.401" r="5.30127" fill="#50C8A7"/>
<circle cx="569.181" cy="79.8369" r="5.30127" fill="#50C8A7"/>
<circle cx="388.875" cy="161.956" r="5.30127" fill="#50C8A7"/>
<circle cx="489.252" cy="151.504" r="5.30127" fill="#50C8A7"/>
<circle cx="556.797" cy="97.5249" r="5.30127" fill="#50C8A7"/>
<circle cx="234.714" cy="225.369" r="5.30127" transform="rotate(47.597 234.714 225.369)" fill="#FFC54F"/>
<circle cx="402.714" cy="187.85" r="5.30127" transform="rotate(16.4891 402.714 187.85)" fill="#FFC54F"/>
<circle cx="490.54" cy="175.106" r="5.30127" transform="rotate(16.4891 490.54 175.106)" fill="#FFC54F"/>
<circle cx="565.906" cy="112.807" r="5.30127" transform="rotate(-9.69316 565.906 112.807)" fill="#FFC54F"/>
<circle cx="395.122" cy="167.96" r="5.30127" transform="rotate(16.4891 395.122 167.96)" fill="#FFC54F"/>
<circle cx="477.646" cy="159.592" r="5.30127" transform="rotate(16.4891 477.646 159.592)" fill="#FFC54F"/>
<circle cx="553.012" cy="90.7046" r="5.30127" transform="rotate(16.4891 553.012 90.7046)" fill="#FFC54F"/>
<circle cx="308.348" cy="242.665" r="5.30127" fill="#50C8A7"/>
<circle cx="404.833" cy="170.7" r="5.30127" fill="#50C8A7"/>
<circle cx="487.498" cy="164.132" r="5.30127" fill="#50C8A7"/>
<circle cx="571.208" cy="111.99" r="5.30127" fill="#50C8A7"/>
<circle cx="322.519" cy="227.771" r="5.30127" fill="#FFC54F"/>
<circle cx="308.348" cy="215.395" r="5.30127" fill="#FFC54F"/>
<circle cx="232.846" cy="220.067" r="5.30127" fill="#50C8A7"/>
<circle cx="218.649" cy="260.656" r="5.30127" fill="#50C8A7"/>
<circle cx="242.502" cy="244.167" r="5.30127" fill="#50C8A7"/>
<circle cx="318.952" cy="212.792" r="5.30127" fill="#FFC54F"/>
<circle cx="322.948" cy="197.35" r="5.30127" transform="rotate(-12.7896 322.948 197.35)" fill="#FFC54F"/>
<circle cx="225.547" cy="291.945" r="5.30127" fill="#50C8A7"/>
<circle cx="216.637" cy="408.981" r="5.30127" fill="#50C8A7"/>
<circle cx="309.897" cy="228.553" r="5.30127" fill="#50C8A7"/>
<circle cx="404.219" cy="181.906" r="5.30127" fill="#50C8A7"/>
<circle cx="501.142" cy="161.956" r="5.30127" fill="#50C8A7"/>
<circle cx="578.626" cy="105.848" r="5.30127" fill="#50C8A7"/>
<circle cx="232.846" cy="248.349" r="5.30127" transform="rotate(-13.1849 232.846 248.349)" fill="#50C8A7"/>
<circle cx="307.859" cy="170.7" r="5.30127" transform="rotate(-13.1849 307.859 170.7)" fill="#50C8A7"/>
<circle cx="319.461" cy="175.009" r="5.30127" transform="rotate(-13.1849 319.461 175.009)" fill="#50C8A7"/>
<circle cx="393.834" cy="179.77" r="5.30127" fill="#FFC54F"/>
<circle cx="474.944" cy="171.946" r="5.30127" fill="#FFC54F"/>
<circle cx="546.424" cy="108.127" r="5.30127" fill="#FFC54F"/>
<circle cx="396.409" cy="147.703" r="5.30127" fill="#FFC54F"/>
<circle cx="484.234" cy="134.959" r="5.30127" fill="#FFC54F"/>
<circle cx="577.326" cy="97.5249" r="5.30127" fill="#FFC54F"/>
<circle cx="396.409" cy="147.703" r="5.30127" fill="#FFC54F"/>
<circle cx="487.498" cy="182.549" r="5.30127" fill="#FFC54F"/>
<circle cx="563.88" cy="129.658" r="5.30127" fill="#FFC54F"/>
<circle cx="237.201" cy="282.252" r="5.30127" transform="rotate(14.8009 237.201 282.252)" fill="#50C8A7"/>
<circle cx="310.739" cy="183.084" r="5.30127" transform="rotate(14.8009 310.739 183.084)" fill="#50C8A7"/>
<circle cx="233.543" cy="261.25" r="5.30127" fill="#50C8A7"/>
<circle cx="383.327" cy="175.297" r="5.30127" fill="#50C8A7"/>
<circle cx="477.645" cy="138.61" r="5.30127" transform="rotate(87.0542 477.645 138.61)" fill="#50C8A7"/>
<circle cx="551.991" cy="85.138" r="5.30127" transform="rotate(87.0542 551.991 85.138)" fill="#50C8A7"/>
<circle cx="324.933" cy="165.772" r="5.30127" fill="#50C8A7"/>
<circle cx="229.91" cy="277.432" r="5.30127" fill="#50C8A7"/>
<circle cx="402.464" cy="180.31" r="5.30127" fill="#50C8A7"/>
<circle cx="495.84" cy="172.559" r="5.30127" fill="#50C8A7"/>
<circle cx="572.494" cy="140.168" r="5.30127" fill="#50C8A7"/>
<circle cx="402.327" cy="134.867" r="5.30127" fill="#FFC54F"/>
<circle cx="476.359" cy="193.151" r="5.30127" fill="#FFC54F"/>
<circle cx="551.725" cy="124.264" r="5.30127" fill="#FFC54F"/>
<circle cx="303.373" cy="201.182" r="5.30127" fill="#FFC54F"/>
<circle cx="322.519" cy="185.706" r="5.30127" fill="#50C8A7"/>
<path d="M59.566 156.202C59.1495 156.206 58.7512 156.373 58.4576 156.669L55.0535 160.065C54.906 160.213 54.8232 160.414 54.8232 160.623C54.8232 160.832 54.906 161.033 55.0535 161.181C55.127 161.256 55.2146 161.315 55.3111 161.355C55.4076 161.395 55.511 161.416 55.6155 161.416C55.72 161.416 55.8235 161.395 55.92 161.355C56.0165 161.315 56.104 161.256 56.1776 161.181L58.7743 158.577L58.7743 166.493C58.7743 166.703 58.8577 166.905 59.0062 167.053C59.1546 167.202 59.356 167.285 59.566 167.285C59.7759 167.285 59.9773 167.202 60.1257 167.053C60.2742 166.905 60.3576 166.703 60.3576 166.493L60.3576 158.577L62.9622 161.181C63.1102 161.33 63.3114 161.415 63.5215 161.415C63.7316 161.416 63.9333 161.333 64.0824 161.185C64.2315 161.037 64.3157 160.836 64.3164 160.626C64.3171 160.416 64.2344 160.214 64.0864 160.065L60.6822 156.669C60.3866 156.372 59.9852 156.204 59.566 156.202Z" fill="#CACACA"/>
<path d="M486.848 430.534C486.844 430.117 486.676 429.719 486.381 429.425L482.985 426.021C482.836 425.874 482.636 425.791 482.427 425.791C482.217 425.791 482.017 425.874 481.868 426.021C481.794 426.095 481.735 426.182 481.695 426.279C481.655 426.375 481.634 426.479 481.634 426.583C481.634 426.688 481.655 426.791 481.695 426.888C481.735 426.984 481.794 427.072 481.868 427.145L484.473 429.742H476.556C476.346 429.742 476.145 429.825 475.997 429.974C475.848 430.122 475.765 430.324 475.765 430.534C475.765 430.744 475.848 430.945 475.997 431.094C476.145 431.242 476.346 431.325 476.556 431.325H484.473L481.868 433.93C481.719 434.078 481.635 434.279 481.634 434.489C481.634 434.699 481.716 434.901 481.864 435.05C482.012 435.199 482.214 435.283 482.424 435.284C482.634 435.285 482.836 435.202 482.985 435.054L486.381 431.65C486.678 431.354 486.846 430.953 486.848 430.534Z" fill="#CACACA"/>
<path d="M104.041 291.857V292.916H100.767V291.857H104.041ZM107.907 296.122C107.434 296.122 107.01 296.034 106.636 295.856C106.262 295.676 105.965 295.43 105.744 295.117C105.527 294.805 105.411 294.447 105.396 294.045H106.675C106.699 294.343 106.828 294.587 107.062 294.777C107.296 294.964 107.578 295.057 107.907 295.057C108.165 295.057 108.395 294.998 108.596 294.879C108.797 294.761 108.956 294.597 109.072 294.386C109.188 294.175 109.245 293.935 109.242 293.665C109.245 293.39 109.187 293.147 109.068 292.933C108.95 292.72 108.788 292.553 108.582 292.433C108.376 292.31 108.139 292.248 107.872 292.248C107.654 292.246 107.44 292.286 107.229 292.369C107.018 292.452 106.851 292.561 106.728 292.696L105.539 292.5L105.919 288.75H110.137V289.851H107.009L106.799 291.779H106.842C106.977 291.621 107.167 291.489 107.414 291.385C107.66 291.279 107.93 291.225 108.223 291.225C108.664 291.225 109.057 291.33 109.402 291.538C109.748 291.744 110.02 292.028 110.219 292.39C110.418 292.752 110.517 293.167 110.517 293.633C110.517 294.114 110.406 294.542 110.183 294.919C109.963 295.293 109.657 295.587 109.264 295.803C108.873 296.016 108.421 296.122 107.907 296.122ZM114.395 296.161C113.81 296.161 113.308 296.013 112.889 295.718C112.473 295.419 112.152 294.99 111.927 294.428C111.704 293.865 111.593 293.187 111.593 292.394C111.596 291.601 111.708 290.926 111.931 290.37C112.155 289.811 112.476 289.385 112.893 289.091C113.312 288.798 113.813 288.651 114.395 288.651C114.977 288.651 115.478 288.798 115.897 289.091C116.316 289.385 116.637 289.811 116.86 290.37C117.084 290.928 117.197 291.603 117.197 292.394C117.197 293.189 117.084 293.869 116.86 294.432C116.637 294.993 116.316 295.422 115.897 295.718C115.481 296.013 114.98 296.161 114.395 296.161ZM114.395 295.05C114.85 295.05 115.208 294.826 115.471 294.379C115.736 293.929 115.869 293.267 115.869 292.394C115.869 291.816 115.808 291.331 115.688 290.938C115.567 290.545 115.396 290.249 115.176 290.05C114.956 289.849 114.696 289.748 114.395 289.748C113.943 289.748 113.585 289.973 113.323 290.423C113.06 290.87 112.927 291.527 112.925 292.394C112.923 292.974 112.981 293.461 113.099 293.857C113.22 294.252 113.39 294.55 113.61 294.752C113.83 294.951 114.092 295.05 114.395 295.05ZM122.381 295.029L122.335 295.419C122.301 295.718 122.242 296.021 122.157 296.328C122.074 296.638 121.987 296.924 121.894 297.184C121.802 297.445 121.727 297.649 121.67 297.799H120.804C120.837 297.654 120.882 297.458 120.939 297.209C120.998 296.96 121.055 296.681 121.109 296.371C121.164 296.061 121.201 295.746 121.219 295.426L121.244 295.029H122.381ZM129.02 288.75V296.023H127.703V290.032H127.66L125.959 291.119V289.911L127.767 288.75H129.02ZM133.555 296.161C132.97 296.161 132.469 296.013 132.05 295.718C131.633 295.419 131.312 294.99 131.087 294.428C130.865 293.865 130.753 293.187 130.753 292.394C130.756 291.601 130.868 290.926 131.091 290.37C131.316 289.811 131.636 289.385 132.053 289.091C132.472 288.798 132.973 288.651 133.555 288.651C134.138 288.651 134.638 288.798 135.057 289.091C135.476 289.385 135.797 289.811 136.02 290.37C136.245 290.928 136.357 291.603 136.357 292.394C136.357 293.189 136.245 293.869 136.02 294.432C135.797 294.993 135.476 295.422 135.057 295.718C134.641 296.013 134.14 296.161 133.555 296.161ZM133.555 295.05C134.01 295.05 134.368 294.826 134.631 294.379C134.896 293.929 135.029 293.267 135.029 292.394C135.029 291.816 134.969 291.331 134.848 290.938C134.727 290.545 134.557 290.249 134.336 290.05C134.116 289.849 133.856 289.748 133.555 289.748C133.103 289.748 132.746 289.973 132.483 290.423C132.22 290.87 132.087 291.527 132.085 292.394C132.083 292.974 132.141 293.461 132.259 293.857C132.38 294.252 132.55 294.55 132.77 294.752C132.991 294.951 133.252 295.05 133.555 295.05Z" fill="#C6C6C6"/>
<path d="M222.671 378.537C222.197 378.537 221.774 378.448 221.4 378.271C221.025 378.091 220.728 377.844 220.508 377.532C220.29 377.219 220.174 376.862 220.16 376.46H221.439C221.462 376.758 221.591 377.002 221.826 377.191C222.06 377.378 222.342 377.472 222.671 377.472C222.929 377.472 223.158 377.412 223.36 377.294C223.561 377.176 223.72 377.011 223.836 376.8C223.952 376.59 224.008 376.349 224.006 376.08C224.008 375.805 223.95 375.561 223.832 375.348C223.714 375.135 223.551 374.968 223.346 374.847C223.14 374.724 222.903 374.663 222.635 374.663C222.417 374.66 222.203 374.701 221.993 374.783C221.782 374.866 221.615 374.975 221.492 375.11L220.302 374.915L220.682 371.165H224.901V372.266H221.772L221.563 374.194H221.605C221.74 374.035 221.931 373.904 222.177 373.8C222.423 373.693 222.693 373.64 222.987 373.64C223.427 373.64 223.82 373.744 224.166 373.952C224.511 374.158 224.784 374.442 224.983 374.805C225.181 375.167 225.281 375.581 225.281 376.048C225.281 376.528 225.17 376.957 224.947 377.333C224.727 377.707 224.42 378.002 224.027 378.217C223.637 378.43 223.185 378.537 222.671 378.537ZM228.999 378.537C228.525 378.537 228.102 378.448 227.728 378.271C227.354 378.091 227.056 377.844 226.836 377.532C226.618 377.219 226.502 376.862 226.488 376.46H227.767C227.79 376.758 227.919 377.002 228.154 377.191C228.388 377.378 228.67 377.472 228.999 377.472C229.257 377.472 229.487 377.412 229.688 377.294C229.889 377.176 230.048 377.011 230.164 376.8C230.28 376.59 230.337 376.349 230.334 376.08C230.337 375.805 230.279 375.561 230.16 375.348C230.042 375.135 229.88 374.968 229.674 374.847C229.468 374.724 229.231 374.663 228.963 374.663C228.746 374.66 228.531 374.701 228.321 374.783C228.11 374.866 227.943 374.975 227.82 375.11L226.63 374.915L227.01 371.165H231.229V372.266H228.1L227.891 374.194H227.934C228.069 374.035 228.259 373.904 228.505 373.8C228.752 373.693 229.021 373.64 229.315 373.64C229.755 373.64 230.148 373.744 230.494 373.952C230.84 374.158 231.112 374.442 231.311 374.805C231.51 375.167 231.609 375.581 231.609 376.048C231.609 376.528 231.498 376.957 231.275 377.333C231.055 377.707 230.748 378.002 230.355 378.217C229.965 378.43 229.513 378.537 228.999 378.537ZM235.487 378.576C234.902 378.576 234.4 378.428 233.981 378.132C233.565 377.834 233.244 377.404 233.019 376.843C232.796 376.28 232.685 375.601 232.685 374.808C232.687 374.015 232.8 373.34 233.022 372.784C233.247 372.225 233.568 371.799 233.985 371.506C234.404 371.212 234.904 371.065 235.487 371.065C236.069 371.065 236.57 371.212 236.989 371.506C237.408 371.799 237.729 372.225 237.951 372.784C238.176 373.343 238.289 374.018 238.289 374.808C238.289 375.604 238.176 376.283 237.951 376.847C237.729 377.408 237.408 377.836 236.989 378.132C236.572 378.428 236.072 378.576 235.487 378.576ZM235.487 377.464C235.941 377.464 236.3 377.241 236.563 376.793C236.828 376.344 236.961 375.682 236.961 374.808C236.961 374.231 236.9 373.745 236.779 373.352C236.659 372.959 236.488 372.663 236.268 372.464C236.048 372.263 235.788 372.163 235.487 372.163C235.035 372.163 234.677 372.388 234.414 372.837C234.152 373.285 234.019 373.942 234.017 374.808C234.014 375.388 234.072 375.876 234.191 376.271C234.311 376.667 234.482 376.965 234.702 377.166C234.922 377.365 235.184 377.464 235.487 377.464Z" fill="#C6C6C6"/>
<path d="M182.171 407.773C182.138 407.463 181.998 407.221 181.752 407.049C181.508 406.876 181.191 406.789 180.8 406.789C180.525 406.789 180.29 406.831 180.093 406.914C179.897 406.996 179.746 407.109 179.642 407.251C179.538 407.393 179.485 407.555 179.483 407.737C179.483 407.889 179.517 408.02 179.585 408.132C179.657 408.243 179.752 408.338 179.873 408.416C179.994 408.491 180.128 408.555 180.274 408.607C180.421 408.66 180.569 408.703 180.718 408.739L181.4 408.909C181.675 408.973 181.939 409.06 182.192 409.169C182.448 409.277 182.676 409.415 182.877 409.58C183.081 409.746 183.242 409.946 183.36 410.181C183.479 410.415 183.538 410.69 183.538 411.004C183.538 411.431 183.429 411.806 183.211 412.13C182.993 412.452 182.679 412.704 182.267 412.887C181.857 413.067 181.361 413.156 180.779 413.156C180.213 413.156 179.722 413.069 179.305 412.894C178.891 412.718 178.566 412.463 178.332 412.127C178.1 411.79 177.974 411.381 177.956 410.898H179.252C179.271 411.151 179.349 411.362 179.486 411.53C179.623 411.698 179.802 411.824 180.022 411.906C180.245 411.989 180.493 412.031 180.768 412.031C181.054 412.031 181.305 411.988 181.521 411.903C181.739 411.815 181.909 411.695 182.032 411.541C182.155 411.384 182.218 411.202 182.22 410.994C182.218 410.804 182.162 410.648 182.054 410.525C181.945 410.4 181.792 410.295 181.595 410.213C181.401 410.127 181.174 410.052 180.914 409.985L180.086 409.772C179.487 409.618 179.014 409.385 178.666 409.073C178.32 408.758 178.147 408.34 178.147 407.819C178.147 407.391 178.263 407.015 178.495 406.693C178.73 406.371 179.048 406.122 179.451 405.944C179.853 405.764 180.309 405.674 180.818 405.674C181.334 405.674 181.786 405.764 182.174 405.944C182.565 406.122 182.871 406.369 183.094 406.686C183.317 407.001 183.431 407.363 183.438 407.773H182.171ZM190.689 405.774V413.046H189.517L186.09 408.093H186.03V413.046H184.712V405.774H185.891L189.315 410.731H189.379V405.774H190.689ZM192.125 413.046V405.774H194.852C195.411 405.774 195.879 405.871 196.258 406.065C196.639 406.259 196.927 406.531 197.121 406.882C197.318 407.23 197.416 407.636 197.416 408.1C197.416 408.566 197.316 408.971 197.117 409.314C196.921 409.655 196.631 409.919 196.247 410.106C195.864 410.291 195.393 410.383 194.834 410.383H192.892V409.289H194.657C194.983 409.289 195.251 409.244 195.459 409.154C195.667 409.062 195.821 408.928 195.921 408.753C196.023 408.576 196.073 408.358 196.073 408.1C196.073 407.842 196.023 407.621 195.921 407.439C195.819 407.254 195.664 407.115 195.456 407.02C195.247 406.923 194.978 406.875 194.649 406.875H193.442V413.046H192.125ZM195.882 409.751L197.682 413.046H196.212L194.443 409.751H195.882Z" fill="#C6C6C6"/>
<path d="M234.712 413.046V405.774H237.44C237.998 405.774 238.467 405.871 238.846 406.065C239.227 406.259 239.515 406.531 239.709 406.882C239.905 407.23 240.004 407.636 240.004 408.1C240.004 408.566 239.904 408.971 239.705 409.314C239.509 409.655 239.219 409.919 238.835 410.106C238.452 410.291 237.981 410.383 237.422 410.383H235.479V409.289H237.244C237.571 409.289 237.839 409.244 238.047 409.154C238.255 409.062 238.409 408.928 238.509 408.753C238.61 408.576 238.661 408.358 238.661 408.1C238.661 407.842 238.61 407.621 238.509 407.439C238.407 407.254 238.252 407.115 238.043 407.02C237.835 406.923 237.566 406.875 237.237 406.875H236.03V413.046H234.712ZM238.47 409.751L240.27 413.046H238.8L237.031 409.751H238.47ZM245.169 407.773C245.136 407.463 244.996 407.221 244.75 407.049C244.506 406.876 244.189 406.789 243.798 406.789C243.523 406.789 243.288 406.831 243.091 406.914C242.895 406.996 242.745 407.109 242.64 407.251C242.536 407.393 242.483 407.555 242.481 407.737C242.481 407.889 242.515 408.02 242.584 408.132C242.655 408.243 242.75 408.338 242.871 408.416C242.992 408.491 243.126 408.555 243.272 408.607C243.419 408.66 243.567 408.703 243.716 408.739L244.398 408.909C244.673 408.973 244.937 409.06 245.19 409.169C245.446 409.277 245.674 409.415 245.875 409.58C246.079 409.746 246.24 409.946 246.358 410.181C246.477 410.415 246.536 410.69 246.536 411.004C246.536 411.431 246.427 411.806 246.209 412.13C245.991 412.452 245.677 412.704 245.265 412.887C244.855 413.067 244.359 413.156 243.777 413.156C243.211 413.156 242.72 413.069 242.303 412.894C241.889 412.718 241.564 412.463 241.33 412.127C241.098 411.79 240.973 411.381 240.954 410.898H242.25C242.269 411.151 242.347 411.362 242.484 411.53C242.621 411.698 242.8 411.824 243.02 411.906C243.243 411.989 243.491 412.031 243.766 412.031C244.053 412.031 244.303 411.988 244.519 411.903C244.737 411.815 244.907 411.695 245.03 411.541C245.153 411.384 245.216 411.202 245.218 410.994C245.216 410.804 245.16 410.648 245.052 410.525C244.943 410.4 244.79 410.295 244.593 410.213C244.399 410.127 244.172 410.052 243.912 409.985L243.084 409.772C242.485 409.618 242.012 409.385 241.664 409.073C241.318 408.758 241.145 408.34 241.145 407.819C241.145 407.391 241.261 407.015 241.493 406.693C241.728 406.371 242.046 406.122 242.449 405.944C242.851 405.764 243.307 405.674 243.816 405.674C244.332 405.674 244.784 405.764 245.172 405.944C245.563 406.122 245.87 406.369 246.092 406.686C246.315 407.001 246.429 407.363 246.437 407.773H245.169ZM251.663 407.773C251.63 407.463 251.49 407.221 251.244 407.049C251 406.876 250.683 406.789 250.292 406.789C250.018 406.789 249.782 406.831 249.585 406.914C249.389 406.996 249.239 407.109 249.134 407.251C249.03 407.393 248.977 407.555 248.975 407.737C248.975 407.889 249.009 408.02 249.078 408.132C249.149 408.243 249.245 408.338 249.365 408.416C249.486 408.491 249.62 408.555 249.767 408.607C249.913 408.66 250.061 408.703 250.21 408.739L250.892 408.909C251.167 408.973 251.431 409.06 251.684 409.169C251.94 409.277 252.168 409.415 252.37 409.58C252.573 409.746 252.734 409.946 252.853 410.181C252.971 410.415 253.03 410.69 253.03 411.004C253.03 411.431 252.921 411.806 252.703 412.13C252.486 412.452 252.171 412.704 251.759 412.887C251.349 413.067 250.853 413.156 250.271 413.156C249.705 413.156 249.214 413.069 248.797 412.894C248.383 412.718 248.059 412.463 247.824 412.127C247.592 411.79 247.467 411.381 247.448 410.898H248.744C248.763 411.151 248.841 411.362 248.978 411.53C249.116 411.698 249.294 411.824 249.514 411.906C249.737 411.989 249.986 412.031 250.26 412.031C250.547 412.031 250.798 411.988 251.013 411.903C251.231 411.815 251.401 411.695 251.524 411.541C251.648 411.384 251.71 411.202 251.713 410.994C251.71 410.804 251.655 410.648 251.546 410.525C251.437 410.4 251.284 410.295 251.088 410.213C250.893 410.127 250.666 410.052 250.406 409.985L249.578 409.772C248.979 409.618 248.506 409.385 248.158 409.073C247.812 408.758 247.639 408.34 247.639 407.819C247.639 407.391 247.755 407.015 247.987 406.693C248.222 406.371 248.54 406.122 248.943 405.944C249.345 405.764 249.801 405.674 250.31 405.674C250.826 405.674 251.278 405.764 251.666 405.944C252.057 406.122 252.364 406.369 252.586 406.686C252.809 407.001 252.924 407.363 252.931 407.773H251.663ZM255.522 405.774V413.046H254.205V405.774H255.522Z" fill="#C6C6C6"/>
<path d="M384.856 371.165V378.438H383.539V372.447H383.496L381.795 373.533V372.326L383.603 371.165H384.856ZM389.366 378.537C389.018 378.535 388.679 378.474 388.347 378.356C388.016 378.235 387.717 378.04 387.452 377.77C387.187 377.498 386.976 377.137 386.82 376.687C386.664 376.235 386.587 375.675 386.589 375.007C386.589 374.384 386.656 373.829 386.788 373.342C386.921 372.854 387.111 372.442 387.36 372.106C387.608 371.767 387.908 371.509 388.258 371.332C388.611 371.154 389.005 371.065 389.441 371.065C389.898 371.065 390.303 371.155 390.655 371.335C391.01 371.515 391.297 371.761 391.515 372.074C391.733 372.384 391.867 372.734 391.92 373.125H390.623C390.557 372.846 390.421 372.623 390.215 372.457C390.011 372.289 389.753 372.205 389.441 372.205C388.937 372.205 388.548 372.424 388.276 372.862C388.006 373.3 387.87 373.902 387.868 374.666H387.917C388.033 374.458 388.184 374.279 388.368 374.13C388.553 373.981 388.761 373.866 388.993 373.786C389.228 373.703 389.475 373.661 389.736 373.661C390.162 373.661 390.544 373.763 390.883 373.967C391.224 374.17 391.493 374.451 391.692 374.808C391.891 375.163 391.989 375.571 391.987 376.03C391.989 376.508 391.881 376.938 391.66 377.319C391.44 377.698 391.134 377.996 390.741 378.214C390.348 378.432 389.89 378.539 389.366 378.537ZM389.359 377.472C389.617 377.472 389.848 377.409 390.052 377.283C390.255 377.158 390.416 376.989 390.535 376.776C390.653 376.562 390.711 376.323 390.709 376.058C390.711 375.798 390.654 375.562 390.538 375.352C390.425 375.141 390.267 374.974 390.066 374.851C389.865 374.728 389.635 374.666 389.377 374.666C389.185 374.666 389.006 374.703 388.841 374.776C388.675 374.85 388.531 374.951 388.407 375.082C388.284 375.21 388.187 375.359 388.116 375.529C388.048 375.697 388.012 375.877 388.01 376.069C388.012 376.322 388.071 376.555 388.187 376.768C388.303 376.982 388.463 377.152 388.667 377.28C388.87 377.408 389.101 377.472 389.359 377.472ZM395.716 378.537C395.242 378.537 394.818 378.448 394.444 378.271C394.07 378.091 393.773 377.844 393.553 377.532C393.335 377.219 393.219 376.862 393.205 376.46H394.483C394.507 376.758 394.636 377.002 394.871 377.191C395.105 377.378 395.387 377.472 395.716 377.472C395.974 377.472 396.203 377.412 396.405 377.294C396.606 377.176 396.765 377.011 396.881 376.8C396.997 376.59 397.053 376.349 397.051 376.08C397.053 375.805 396.995 375.561 396.877 375.348C396.759 375.135 396.596 374.968 396.39 374.847C396.184 374.724 395.948 374.663 395.68 374.663C395.462 374.66 395.248 374.701 395.037 374.783C394.827 374.866 394.66 374.975 394.537 375.11L393.347 374.915L393.727 371.165H397.946V372.266H394.817L394.608 374.194H394.65C394.785 374.035 394.976 373.904 395.222 373.8C395.468 373.693 395.738 373.64 396.032 373.64C396.472 373.64 396.865 373.744 397.211 373.952C397.556 374.158 397.829 374.442 398.028 374.805C398.226 375.167 398.326 375.581 398.326 376.048C398.326 376.528 398.215 376.957 397.992 377.333C397.772 377.707 397.465 378.002 397.072 378.217C396.682 378.43 396.229 378.537 395.716 378.537ZM402.204 378.576C401.619 378.576 401.117 378.428 400.698 378.132C400.281 377.834 399.961 377.404 399.736 376.843C399.513 376.28 399.402 375.601 399.402 374.808C399.404 374.015 399.517 373.34 399.739 372.784C399.964 372.225 400.285 371.799 400.702 371.506C401.121 371.212 401.621 371.065 402.204 371.065C402.786 371.065 403.287 371.212 403.706 371.506C404.125 371.799 404.446 372.225 404.668 372.784C404.893 373.343 405.006 374.018 405.006 374.808C405.006 375.604 404.893 376.283 404.668 376.847C404.446 377.408 404.125 377.836 403.706 378.132C403.289 378.428 402.788 378.576 402.204 378.576ZM402.204 377.464C402.658 377.464 403.017 377.241 403.28 376.793C403.545 376.344 403.677 375.682 403.677 374.808C403.677 374.231 403.617 373.745 403.496 373.352C403.376 372.959 403.205 372.663 402.985 372.464C402.765 372.263 402.504 372.163 402.204 372.163C401.751 372.163 401.394 372.388 401.131 372.837C400.868 373.285 400.736 373.942 400.733 374.808C400.731 375.388 400.789 375.876 400.907 376.271C401.028 376.667 401.199 376.965 401.419 377.166C401.639 377.365 401.901 377.464 402.204 377.464Z" fill="#C6C6C6"/>
<path d="M304.468 371.165V378.438H303.15V372.447H303.108L301.407 373.533V372.326L303.214 371.165H304.468ZM309.272 371.165V378.438H307.955V372.447H307.912L306.211 373.533V372.326L308.019 371.165H309.272ZM313.807 378.576C313.222 378.576 312.721 378.428 312.301 378.132C311.885 377.834 311.564 377.404 311.339 376.843C311.117 376.28 311.005 375.601 311.005 374.808C311.008 374.015 311.12 373.34 311.343 372.784C311.568 372.225 311.888 371.799 312.305 371.506C312.724 371.212 313.225 371.065 313.807 371.065C314.39 371.065 314.89 371.212 315.309 371.506C315.728 371.799 316.049 372.225 316.272 372.784C316.497 373.343 316.609 374.018 316.609 374.808C316.609 375.604 316.497 376.283 316.272 376.847C316.049 377.408 315.728 377.836 315.309 378.132C314.893 378.428 314.392 378.576 313.807 378.576ZM313.807 377.464C314.262 377.464 314.62 377.241 314.883 376.793C315.148 376.344 315.281 375.682 315.281 374.808C315.281 374.231 315.221 373.745 315.1 373.352C314.979 372.959 314.809 372.663 314.588 372.464C314.368 372.263 314.108 372.163 313.807 372.163C313.355 372.163 312.998 372.388 312.735 372.837C312.472 373.285 312.339 373.942 312.337 374.808C312.335 375.388 312.393 375.876 312.511 376.271C312.632 376.667 312.802 376.965 313.022 377.166C313.243 377.365 313.504 377.464 313.807 377.464ZM320.477 378.576C319.892 378.576 319.39 378.428 318.971 378.132C318.555 377.834 318.234 377.404 318.009 376.843C317.787 376.28 317.675 375.601 317.675 374.808C317.678 374.015 317.79 373.34 318.013 372.784C318.238 372.225 318.558 371.799 318.975 371.506C319.394 371.212 319.895 371.065 320.477 371.065C321.059 371.065 321.56 371.212 321.979 371.506C322.398 371.799 322.719 372.225 322.942 372.784C323.166 373.343 323.279 374.018 323.279 374.808C323.279 375.604 323.166 376.283 322.942 376.847C322.719 377.408 322.398 377.836 321.979 378.132C321.563 378.428 321.062 378.576 320.477 378.576ZM320.477 377.464C320.932 377.464 321.29 377.241 321.553 376.793C321.818 376.344 321.951 375.682 321.951 374.808C321.951 374.231 321.89 373.745 321.77 373.352C321.649 372.959 321.479 372.663 321.258 372.464C321.038 372.263 320.778 372.163 320.477 372.163C320.025 372.163 319.667 372.388 319.405 372.837C319.142 373.285 319.009 373.942 319.007 374.808C319.005 375.388 319.063 375.876 319.181 376.271C319.302 376.667 319.472 376.965 319.692 377.166C319.912 377.365 320.174 377.464 320.477 377.464Z" fill="#C6C6C6"/>
<path d="M469.359 378.438V377.486L471.884 375.011C472.126 374.767 472.327 374.55 472.488 374.361C472.649 374.171 472.769 373.988 472.85 373.81C472.93 373.633 472.971 373.443 472.971 373.242C472.971 373.013 472.919 372.816 472.814 372.653C472.71 372.487 472.567 372.359 472.385 372.269C472.202 372.179 471.995 372.134 471.763 372.134C471.524 372.134 471.315 372.184 471.135 372.283C470.955 372.38 470.815 372.519 470.716 372.699C470.619 372.879 470.57 373.093 470.57 373.342H469.317C469.317 372.88 469.422 372.479 469.633 372.138C469.843 371.797 470.133 371.533 470.503 371.346C470.874 371.159 471.3 371.065 471.781 371.065C472.269 371.065 472.697 371.156 473.067 371.339C473.436 371.521 473.722 371.771 473.926 372.088C474.132 372.405 474.235 372.768 474.235 373.175C474.235 373.447 474.183 373.714 474.079 373.977C473.974 374.24 473.791 374.531 473.528 374.851C473.268 375.17 472.902 375.558 472.431 376.012L471.177 377.287V377.337H474.345V378.438H469.359ZM475.57 378.438V377.486L478.095 375.011C478.336 374.767 478.538 374.55 478.699 374.361C478.86 374.171 478.98 373.988 479.061 373.81C479.141 373.633 479.182 373.443 479.182 373.242C479.182 373.013 479.13 372.816 479.025 372.653C478.921 372.487 478.778 372.359 478.596 372.269C478.413 372.179 478.206 372.134 477.974 372.134C477.735 372.134 477.526 372.184 477.346 372.283C477.166 372.38 477.026 372.519 476.927 372.699C476.83 372.879 476.781 373.093 476.781 373.342H475.528C475.528 372.88 475.633 372.479 475.844 372.138C476.054 371.797 476.344 371.533 476.714 371.346C477.085 371.159 477.511 371.065 477.992 371.065C478.48 371.065 478.908 371.156 479.278 371.339C479.647 371.521 479.933 371.771 480.137 372.088C480.343 372.405 480.446 372.768 480.446 373.175C480.446 373.447 480.394 373.714 480.29 373.977C480.185 374.24 480.002 374.531 479.739 374.851C479.479 375.17 479.113 375.558 478.642 376.012L477.388 377.287V377.337H480.556V378.438H475.57ZM484.469 378.576C483.885 378.576 483.383 378.428 482.964 378.132C482.547 377.834 482.226 377.404 482.001 376.843C481.779 376.28 481.667 375.601 481.667 374.808C481.67 374.015 481.782 373.34 482.005 372.784C482.23 372.225 482.55 371.799 482.967 371.506C483.386 371.212 483.887 371.065 484.469 371.065C485.052 371.065 485.552 371.212 485.971 371.506C486.39 371.799 486.711 372.225 486.934 372.784C487.159 373.343 487.271 374.018 487.271 374.808C487.271 375.604 487.159 376.283 486.934 376.847C486.711 377.408 486.39 377.836 485.971 378.132C485.555 378.428 485.054 378.576 484.469 378.576ZM484.469 377.464C484.924 377.464 485.282 377.241 485.545 376.793C485.81 376.344 485.943 375.682 485.943 374.808C485.943 374.231 485.883 373.745 485.762 373.352C485.641 372.959 485.471 372.663 485.251 372.464C485.03 372.263 484.77 372.163 484.469 372.163C484.017 372.163 483.66 372.388 483.397 372.837C483.134 373.285 483.001 373.942 482.999 374.808C482.997 375.388 483.055 375.876 483.173 376.271C483.294 376.667 483.464 376.965 483.684 377.166C483.905 377.365 484.166 377.464 484.469 377.464ZM491.139 378.576C490.554 378.576 490.053 378.428 489.634 378.132C489.217 377.834 488.896 377.404 488.671 376.843C488.449 376.28 488.337 375.601 488.337 374.808C488.34 374.015 488.452 373.34 488.675 372.784C488.9 372.225 489.22 371.799 489.637 371.506C490.056 371.212 490.557 371.065 491.139 371.065C491.722 371.065 492.222 371.212 492.641 371.506C493.06 371.799 493.381 372.225 493.604 372.784C493.829 373.343 493.941 374.018 493.941 374.808C493.941 375.604 493.829 376.283 493.604 376.847C493.381 377.408 493.06 377.836 492.641 378.132C492.225 378.428 491.724 378.576 491.139 378.576ZM491.139 377.464C491.594 377.464 491.952 377.241 492.215 376.793C492.48 376.344 492.613 375.682 492.613 374.808C492.613 374.231 492.553 373.745 492.432 373.352C492.311 372.959 492.141 372.663 491.92 372.464C491.7 372.263 491.44 372.163 491.139 372.163C490.687 372.163 490.33 372.388 490.067 372.837C489.804 373.285 489.671 373.942 489.669 374.808C489.667 375.388 489.725 375.876 489.843 376.271C489.964 376.667 490.134 376.965 490.354 377.166C490.575 377.365 490.836 377.464 491.139 377.464Z" fill="#C6C6C6"/>
<path d="M552.664 378.438V377.486L555.189 375.011C555.43 374.767 555.631 374.55 555.792 374.361C555.953 374.171 556.074 373.988 556.155 373.81C556.235 373.633 556.275 373.443 556.275 373.242C556.275 373.013 556.223 372.816 556.119 372.653C556.015 372.487 555.872 372.359 555.689 372.269C555.507 372.179 555.3 372.134 555.068 372.134C554.829 372.134 554.619 372.184 554.439 372.283C554.26 372.38 554.12 372.519 554.02 372.699C553.923 372.879 553.875 373.093 553.875 373.342H552.621C552.621 372.88 552.727 372.479 552.937 372.138C553.148 371.797 553.438 371.533 553.807 371.346C554.179 371.159 554.605 371.065 555.086 371.065C555.573 371.065 556.002 371.156 556.371 371.339C556.741 371.521 557.027 371.771 557.231 372.088C557.437 372.405 557.54 372.768 557.54 373.175C557.54 373.447 557.488 373.714 557.383 373.977C557.279 374.24 557.096 374.531 556.833 374.851C556.573 375.17 556.207 375.558 555.736 376.012L554.482 377.287V377.337H557.65V378.438H552.664ZM559.141 378.438L562.234 372.315V372.266H558.644V371.165H563.598V372.29L560.508 378.438H559.141ZM567.175 378.537C566.701 378.537 566.277 378.448 565.903 378.271C565.529 378.091 565.232 377.844 565.012 377.532C564.794 377.219 564.678 376.862 564.664 376.46H565.942C565.966 376.758 566.095 377.002 566.33 377.191C566.564 377.378 566.846 377.472 567.175 377.472C567.433 377.472 567.662 377.412 567.864 377.294C568.065 377.176 568.223 377.011 568.339 376.8C568.455 376.59 568.512 376.349 568.51 376.08C568.512 375.805 568.454 375.561 568.336 375.348C568.218 375.135 568.055 374.968 567.849 374.847C567.643 374.724 567.407 374.663 567.139 374.663C566.921 374.66 566.707 374.701 566.496 374.783C566.286 374.866 566.119 374.975 565.996 375.11L564.806 374.915L565.186 371.165H569.405V372.266H566.276L566.067 374.194H566.109C566.244 374.035 566.435 373.904 566.681 373.8C566.927 373.693 567.197 373.64 567.491 373.64C567.931 373.64 568.324 373.744 568.67 373.952C569.015 374.158 569.288 374.442 569.487 374.805C569.685 375.167 569.785 375.581 569.785 376.048C569.785 376.528 569.674 376.957 569.451 377.333C569.231 377.707 568.924 378.002 568.531 378.217C568.141 378.43 567.688 378.537 567.175 378.537ZM573.663 378.576C573.078 378.576 572.576 378.428 572.157 378.132C571.74 377.834 571.42 377.404 571.195 376.843C570.972 376.28 570.861 375.601 570.861 374.808C570.863 374.015 570.976 373.34 571.198 372.784C571.423 372.225 571.744 371.799 572.161 371.506C572.58 371.212 573.08 371.065 573.663 371.065C574.245 371.065 574.746 371.212 575.165 371.506C575.584 371.799 575.905 372.225 576.127 372.784C576.352 373.343 576.464 374.018 576.464 374.808C576.464 375.604 576.352 376.283 576.127 376.847C575.905 377.408 575.584 377.836 575.165 378.132C574.748 378.428 574.247 378.576 573.663 378.576ZM573.663 377.464C574.117 377.464 574.476 377.241 574.739 376.793C575.004 376.344 575.136 375.682 575.136 374.808C575.136 374.231 575.076 373.745 574.955 373.352C574.835 372.959 574.664 372.663 574.444 372.464C574.224 372.263 573.963 372.163 573.663 372.163C573.21 372.163 572.853 372.388 572.59 372.837C572.327 373.285 572.195 373.942 572.192 374.808C572.19 375.388 572.248 375.876 572.366 376.271C572.487 376.667 572.658 376.965 572.878 377.166C573.098 377.365 573.36 377.464 573.663 377.464Z" fill="#C6C6C6"/>
<path d="M96.533 228.591V229.65H93.2589V228.591H96.533ZM100.534 232.856C100.186 232.854 99.8465 232.794 99.5151 232.675C99.1837 232.554 98.8854 232.359 98.6202 232.089C98.3551 231.817 98.1444 231.456 97.9881 231.006C97.8319 230.554 97.7549 229.994 97.7573 229.326C97.7573 228.704 97.8236 228.149 97.9561 227.661C98.0887 227.173 98.2793 226.761 98.5279 226.425C98.7765 226.087 99.0759 225.829 99.4263 225.651C99.7791 225.473 100.173 225.385 100.609 225.385C101.066 225.385 101.471 225.475 101.823 225.655C102.178 225.834 102.465 226.081 102.683 226.393C102.901 226.703 103.035 227.054 103.088 227.444H101.791C101.725 227.165 101.589 226.942 101.383 226.777C101.179 226.609 100.921 226.525 100.609 226.525C100.105 226.525 99.7163 226.744 99.4441 227.182C99.1742 227.62 99.0381 228.221 99.0357 228.986H99.0854C99.2014 228.777 99.3517 228.598 99.5364 228.449C99.7211 228.3 99.9294 228.185 100.161 228.105C100.396 228.022 100.643 227.981 100.904 227.981C101.33 227.981 101.712 228.082 102.051 228.286C102.392 228.49 102.661 228.77 102.86 229.128C103.059 229.483 103.157 229.89 103.155 230.349C103.157 230.827 103.048 231.257 102.828 231.638C102.608 232.017 102.302 232.315 101.909 232.533C101.516 232.751 101.057 232.859 100.534 232.856ZM100.527 231.791C100.785 231.791 101.016 231.728 101.22 231.603C101.423 231.477 101.584 231.308 101.703 231.095C101.821 230.882 101.879 230.643 101.877 230.378C101.879 230.117 101.822 229.882 101.706 229.671C101.593 229.46 101.435 229.293 101.234 229.17C101.033 229.047 100.803 228.986 100.545 228.986C100.353 228.986 100.174 229.022 100.009 229.096C99.843 229.169 99.6986 229.271 99.5755 229.401C99.4524 229.529 99.3553 229.678 99.2843 229.848C99.2156 230.017 99.1801 230.196 99.1777 230.388C99.1801 230.642 99.2393 230.875 99.3553 231.088C99.4713 231.301 99.6311 231.471 99.8347 231.599C100.038 231.727 100.269 231.791 100.527 231.791ZM104.622 232.757L107.715 226.635V226.585H104.124V225.484H109.078V226.61L105.989 232.757H104.622ZM109.781 232.835C109.565 232.835 109.38 232.759 109.227 232.608C109.073 232.456 108.997 232.272 108.999 232.054C108.997 231.841 109.073 231.658 109.227 231.507C109.38 231.355 109.565 231.28 109.781 231.28C109.989 231.28 110.17 231.355 110.324 231.507C110.48 231.658 110.559 231.841 110.562 232.054C110.559 232.198 110.522 232.33 110.448 232.448C110.377 232.566 110.282 232.661 110.164 232.732C110.048 232.801 109.92 232.835 109.781 232.835ZM114.315 232.856C113.842 232.856 113.418 232.767 113.044 232.59C112.67 232.41 112.373 232.164 112.153 231.851C111.935 231.539 111.819 231.181 111.805 230.779H113.083C113.107 231.077 113.236 231.321 113.47 231.51C113.705 231.697 113.986 231.791 114.315 231.791C114.573 231.791 114.803 231.732 115.004 231.613C115.205 231.495 115.364 231.33 115.48 231.12C115.596 230.909 115.653 230.669 115.651 230.399C115.653 230.124 115.595 229.88 115.477 229.667C115.358 229.454 115.196 229.287 114.99 229.167C114.784 229.044 114.547 228.982 114.28 228.982C114.062 228.98 113.848 229.02 113.637 229.103C113.426 229.186 113.259 229.294 113.136 229.429L111.947 229.234L112.327 225.484H116.545V226.585H113.417L113.207 228.513H113.25C113.385 228.355 113.576 228.223 113.822 228.119C114.068 228.013 114.338 227.959 114.631 227.959C115.072 227.959 115.465 228.063 115.81 228.272C116.156 228.478 116.428 228.762 116.627 229.124C116.826 229.486 116.925 229.901 116.925 230.367C116.925 230.848 116.814 231.276 116.592 231.652C116.371 232.026 116.065 232.321 115.672 232.537C115.281 232.75 114.829 232.856 114.315 232.856ZM122.119 231.763L122.073 232.153C122.04 232.451 121.98 232.754 121.895 233.062C121.812 233.372 121.725 233.658 121.632 233.918C121.54 234.178 121.466 234.383 121.409 234.532H120.542C120.575 234.388 120.62 234.191 120.677 233.943C120.736 233.694 120.793 233.415 120.848 233.105C120.902 232.795 120.939 232.48 120.958 232.16L120.983 231.763H122.119ZM128.489 232.895C127.904 232.895 127.402 232.747 126.983 232.451C126.566 232.153 126.246 231.723 126.021 231.162C125.798 230.599 125.687 229.921 125.687 229.128C125.689 228.334 125.802 227.66 126.024 227.103C126.249 226.545 126.57 226.119 126.987 225.825C127.406 225.531 127.906 225.385 128.489 225.385C129.071 225.385 129.572 225.531 129.991 225.825C130.41 226.119 130.731 226.545 130.953 227.103C131.178 227.662 131.291 228.337 131.291 229.128C131.291 229.923 131.178 230.602 130.953 231.166C130.731 231.727 130.41 232.156 129.991 232.451C129.574 232.747 129.074 232.895 128.489 232.895ZM128.489 231.784C128.943 231.784 129.302 231.56 129.565 231.113C129.83 230.663 129.963 230.001 129.963 229.128C129.963 228.55 129.902 228.065 129.781 227.672C129.661 227.279 129.49 226.983 129.27 226.784C129.05 226.583 128.789 226.482 128.489 226.482C128.037 226.482 127.679 226.707 127.416 227.157C127.154 227.604 127.021 228.261 127.019 229.128C127.016 229.708 127.074 230.195 127.193 230.591C127.313 230.986 127.484 231.284 127.704 231.486C127.924 231.684 128.186 231.784 128.489 231.784ZM135.134 232.856C134.786 232.854 134.446 232.794 134.115 232.675C133.783 232.554 133.485 232.359 133.22 232.089C132.955 231.817 132.744 231.456 132.588 231.006C132.431 230.554 132.355 229.994 132.357 229.326C132.357 228.704 132.423 228.149 132.556 227.661C132.688 227.173 132.879 226.761 133.127 226.425C133.376 226.087 133.676 225.829 134.026 225.651C134.379 225.473 134.773 225.385 135.208 225.385C135.665 225.385 136.07 225.475 136.423 225.655C136.778 225.834 137.065 226.081 137.282 226.393C137.5 226.703 137.635 227.054 137.687 227.444H136.391C136.325 227.165 136.189 226.942 135.983 226.777C135.779 226.609 135.521 226.525 135.208 226.525C134.704 226.525 134.316 226.744 134.044 227.182C133.774 227.62 133.638 228.221 133.635 228.986H133.685C133.801 228.777 133.951 228.598 134.136 228.449C134.321 228.3 134.529 228.185 134.761 228.105C134.995 228.022 135.243 227.981 135.503 227.981C135.929 227.981 136.312 228.082 136.65 228.286C136.991 228.49 137.261 228.77 137.46 229.128C137.659 229.483 137.757 229.89 137.755 230.349C137.757 230.827 137.648 231.257 137.428 231.638C137.208 232.017 136.901 232.315 136.508 232.533C136.115 232.751 135.657 232.859 135.134 232.856ZM135.127 231.791C135.385 231.791 135.616 231.728 135.819 231.603C136.023 231.477 136.184 231.308 136.302 231.095C136.421 230.882 136.479 230.643 136.476 230.378C136.479 230.117 136.422 229.882 136.306 229.671C136.192 229.46 136.035 229.293 135.833 229.17C135.632 229.047 135.403 228.986 135.145 228.986C134.953 228.986 134.774 229.022 134.608 229.096C134.443 229.169 134.298 229.271 134.175 229.401C134.052 229.529 133.955 229.678 133.884 229.848C133.815 230.017 133.78 230.196 133.777 230.388C133.78 230.642 133.839 230.875 133.955 231.088C134.071 231.301 134.231 231.471 134.434 231.599C134.638 231.727 134.869 231.791 135.127 231.791Z" fill="#C6C6C6"/>
<path d="M109.19 167.402V168.461H105.916V167.402H109.19ZM113.113 171.667C112.585 171.667 112.117 171.579 111.707 171.401C111.3 171.223 110.98 170.981 110.748 170.673C110.519 170.363 110.405 170.011 110.407 169.618C110.405 169.313 110.471 169.032 110.606 168.777C110.741 168.521 110.924 168.308 111.153 168.137C111.385 167.965 111.643 167.855 111.927 167.807V167.758C111.553 167.675 111.25 167.484 111.018 167.186C110.789 166.885 110.675 166.538 110.677 166.145C110.675 165.771 110.779 165.437 110.99 165.144C111.2 164.85 111.489 164.619 111.856 164.451C112.223 164.281 112.642 164.196 113.113 164.196C113.58 164.196 113.995 164.281 114.36 164.451C114.727 164.619 115.016 164.85 115.226 165.144C115.439 165.437 115.546 165.771 115.546 166.145C115.546 166.538 115.429 166.885 115.194 167.186C114.962 167.484 114.663 167.675 114.296 167.758V167.807C114.58 167.855 114.836 167.965 115.063 168.137C115.293 168.308 115.475 168.521 115.61 168.777C115.747 169.032 115.816 169.313 115.816 169.618C115.816 170.011 115.7 170.363 115.468 170.673C115.236 170.981 114.916 171.223 114.509 171.401C114.104 171.579 113.639 171.667 113.113 171.667ZM113.113 170.652C113.386 170.652 113.622 170.606 113.824 170.513C114.025 170.418 114.181 170.286 114.292 170.115C114.404 169.945 114.46 169.749 114.463 169.526C114.46 169.294 114.4 169.089 114.282 168.912C114.166 168.732 114.006 168.591 113.802 168.489C113.601 168.387 113.371 168.336 113.113 168.336C112.853 168.336 112.621 168.387 112.417 168.489C112.214 168.591 112.053 168.732 111.934 168.912C111.818 169.089 111.762 169.294 111.764 169.526C111.762 169.749 111.816 169.945 111.927 170.115C112.039 170.284 112.195 170.415 112.396 170.51C112.6 170.604 112.839 170.652 113.113 170.652ZM113.113 167.338C113.336 167.338 113.532 167.293 113.703 167.204C113.876 167.114 114.012 166.988 114.111 166.827C114.211 166.666 114.262 166.48 114.264 166.27C114.262 166.061 114.212 165.879 114.115 165.723C114.018 165.564 113.883 165.442 113.71 165.357C113.537 165.269 113.338 165.226 113.113 165.226C112.884 165.226 112.681 165.269 112.506 165.357C112.333 165.442 112.198 165.564 112.101 165.723C112.007 165.879 111.96 166.061 111.963 166.27C111.96 166.48 112.008 166.666 112.105 166.827C112.204 166.986 112.34 167.111 112.513 167.204C112.688 167.293 112.888 167.338 113.113 167.338ZM119.512 171.667C119.038 171.667 118.614 171.579 118.24 171.401C117.866 171.221 117.569 170.975 117.349 170.662C117.131 170.35 117.015 169.992 117.001 169.59H118.279C118.303 169.888 118.432 170.132 118.666 170.321C118.901 170.508 119.183 170.602 119.512 170.602C119.77 170.602 119.999 170.543 120.201 170.424C120.402 170.306 120.56 170.141 120.676 169.931C120.792 169.72 120.849 169.48 120.847 169.21C120.849 168.935 120.791 168.691 120.673 168.478C120.554 168.265 120.392 168.098 120.186 167.978C119.98 167.855 119.744 167.793 119.476 167.793C119.258 167.791 119.044 167.831 118.833 167.914C118.623 167.997 118.456 168.106 118.333 168.24L117.143 168.045L117.523 164.295H121.742V165.396H118.613L118.404 167.324H118.446C118.581 167.166 118.772 167.034 119.018 166.93C119.264 166.824 119.534 166.77 119.828 166.77C120.268 166.77 120.661 166.874 121.007 167.083C121.352 167.289 121.625 167.573 121.823 167.935C122.022 168.297 122.122 168.712 122.122 169.178C122.122 169.659 122.01 170.087 121.788 170.463C121.568 170.838 121.261 171.132 120.868 171.348C120.478 171.561 120.025 171.667 119.512 171.667ZM127.315 170.574L127.269 170.964C127.236 171.262 127.177 171.566 127.092 171.873C127.009 172.183 126.921 172.469 126.829 172.729C126.736 172.99 126.662 173.194 126.605 173.343H125.739C125.772 173.199 125.817 173.003 125.873 172.754C125.933 172.505 125.989 172.226 126.044 171.916C126.098 171.606 126.135 171.291 126.154 170.971L126.179 170.574H127.315ZM133.685 171.706C133.1 171.706 132.598 171.558 132.179 171.262C131.763 170.964 131.442 170.534 131.217 169.973C130.995 169.41 130.883 168.732 130.883 167.939C130.886 167.146 130.998 166.471 131.221 165.914C131.446 165.356 131.766 164.93 132.183 164.636C132.602 164.342 133.103 164.196 133.685 164.196C134.267 164.196 134.768 164.342 135.187 164.636C135.606 164.93 135.927 165.356 136.15 165.914C136.374 166.473 136.487 167.148 136.487 167.939C136.487 168.734 136.374 169.414 136.15 169.977C135.927 170.538 135.606 170.967 135.187 171.262C134.771 171.558 134.27 171.706 133.685 171.706ZM133.685 170.595C134.14 170.595 134.498 170.371 134.761 169.924C135.026 169.474 135.159 168.812 135.159 167.939C135.159 167.361 135.098 166.876 134.978 166.483C134.857 166.09 134.687 165.794 134.466 165.595C134.246 165.394 133.986 165.293 133.685 165.293C133.233 165.293 132.875 165.518 132.613 165.968C132.35 166.415 132.217 167.072 132.215 167.939C132.213 168.519 132.271 169.006 132.389 169.402C132.51 169.797 132.68 170.095 132.9 170.297C133.12 170.495 133.382 170.595 133.685 170.595Z" fill="#C6C6C6"/>
<path d="M87.533 106.213V107.272H84.2589V106.213H87.533ZM91.829 103.106V110.379H90.5115V104.388H90.4689L88.7679 105.475V104.267L90.5755 103.106H91.829ZM96.3638 110.517C95.7791 110.517 95.2772 110.369 94.8581 110.074C94.4415 109.775 94.1207 109.346 93.8958 108.784C93.6732 108.221 93.562 107.543 93.562 106.75C93.5643 105.957 93.6768 105.282 93.8993 104.725C94.1242 104.167 94.445 103.741 94.8617 103.447C95.2807 103.154 95.7814 103.007 96.3638 103.007C96.9462 103.007 97.4469 103.154 97.8659 103.447C98.285 103.741 98.6058 104.167 98.8283 104.725C99.0532 105.284 99.1657 105.959 99.1657 106.75C99.1657 107.545 99.0532 108.225 98.8283 108.788C98.6058 109.349 98.285 109.778 97.8659 110.074C97.4493 110.369 96.9486 110.517 96.3638 110.517ZM96.3638 109.406C96.8184 109.406 97.177 109.182 97.4398 108.735C97.705 108.285 97.8375 107.623 97.8375 106.75C97.8375 106.172 97.7772 105.687 97.6564 105.294C97.5357 104.901 97.3652 104.605 97.1451 104.406C96.9249 104.205 96.6645 104.104 96.3638 104.104C95.9116 104.104 95.5542 104.329 95.2914 104.779C95.0286 105.226 94.896 105.883 94.8936 106.75C94.8913 107.33 94.9493 107.817 95.0676 108.213C95.1884 108.608 95.3588 108.906 95.579 109.108C95.7992 109.306 96.0608 109.406 96.3638 109.406ZM100.346 110.379V109.427L102.87 106.952C103.112 106.708 103.313 106.492 103.474 106.302C103.635 106.113 103.756 105.929 103.836 105.752C103.917 105.574 103.957 105.385 103.957 105.184C103.957 104.954 103.905 104.757 103.801 104.594C103.697 104.428 103.553 104.301 103.371 104.211C103.189 104.121 102.982 104.076 102.75 104.076C102.511 104.076 102.301 104.125 102.121 104.225C101.941 104.322 101.801 104.46 101.702 104.64C101.605 104.82 101.556 105.034 101.556 105.283H100.303C100.303 104.821 100.408 104.42 100.619 104.079C100.83 103.738 101.12 103.474 101.489 103.287C101.861 103.1 102.287 103.007 102.767 103.007C103.255 103.007 103.684 103.098 104.053 103.28C104.422 103.462 104.709 103.712 104.912 104.029C105.118 104.347 105.221 104.709 105.221 105.116C105.221 105.388 105.169 105.656 105.065 105.919C104.961 106.181 104.777 106.473 104.515 106.792C104.254 107.112 103.888 107.499 103.417 107.953L102.164 109.228V109.278H105.331V110.379H100.346ZM107.363 110.457C107.147 110.457 106.962 110.381 106.809 110.23C106.655 110.078 106.579 109.894 106.581 109.676C106.579 109.463 106.655 109.28 106.809 109.129C106.962 108.977 107.147 108.902 107.363 108.902C107.571 108.902 107.752 108.977 107.906 109.129C108.062 109.28 108.141 109.463 108.144 109.676C108.141 109.82 108.104 109.952 108.03 110.07C107.959 110.188 107.864 110.283 107.746 110.354C107.63 110.423 107.502 110.457 107.363 110.457ZM111.897 110.478C111.424 110.478 111 110.39 110.626 110.212C110.252 110.032 109.955 109.786 109.735 109.473C109.517 109.161 109.401 108.803 109.387 108.401H110.665C110.689 108.699 110.818 108.943 111.052 109.132C111.287 109.319 111.568 109.413 111.897 109.413C112.155 109.413 112.385 109.354 112.586 109.235C112.788 109.117 112.946 108.953 113.062 108.742C113.178 108.531 113.235 108.291 113.233 108.021C113.235 107.746 113.177 107.502 113.059 107.289C112.94 107.076 112.778 106.909 112.572 106.789C112.366 106.666 112.129 106.604 111.862 106.604C111.644 106.602 111.43 106.642 111.219 106.725C111.008 106.808 110.842 106.917 110.718 107.051L109.529 106.856L109.909 103.106H114.127V104.207H110.999L110.789 106.135H110.832C110.967 105.977 111.158 105.845 111.404 105.741C111.65 105.635 111.92 105.581 112.213 105.581C112.654 105.581 113.047 105.685 113.392 105.894C113.738 106.1 114.01 106.384 114.209 106.746C114.408 107.108 114.507 107.523 114.507 107.989C114.507 108.47 114.396 108.898 114.174 109.275C113.953 109.649 113.647 109.943 113.254 110.159C112.863 110.372 112.411 110.478 111.897 110.478ZM119.701 109.385L119.655 109.775C119.622 110.074 119.563 110.377 119.477 110.684C119.394 110.994 119.307 111.28 119.214 111.54C119.122 111.801 119.048 112.005 118.991 112.154H118.124C118.157 112.01 118.202 111.814 118.259 111.565C118.318 111.316 118.375 111.037 118.43 110.727C118.484 110.417 118.521 110.102 118.54 109.782L118.565 109.385H119.701ZM126.703 106.213V107.272H123.429V106.213H126.703ZM130.729 110.517C130.144 110.517 129.642 110.369 129.223 110.074C128.807 109.775 128.486 109.346 128.261 108.784C128.038 108.221 127.927 107.543 127.927 106.75C127.93 105.957 128.042 105.282 128.265 104.725C128.489 104.167 128.81 103.741 129.227 103.447C129.646 103.154 130.147 103.007 130.729 103.007C131.311 103.007 131.812 103.154 132.231 103.447C132.65 103.741 132.971 104.167 133.194 104.725C133.418 105.284 133.531 105.959 133.531 106.75C133.531 107.545 133.418 108.225 133.194 108.788C132.971 109.349 132.65 109.778 132.231 110.074C131.815 110.369 131.314 110.517 130.729 110.517ZM130.729 109.406C131.184 109.406 131.542 109.182 131.805 108.735C132.07 108.285 132.203 107.623 132.203 106.75C132.203 106.172 132.142 105.687 132.022 105.294C131.901 104.901 131.73 104.605 131.51 104.406C131.29 104.205 131.03 104.104 130.729 104.104C130.277 104.104 129.919 104.329 129.657 104.779C129.394 105.226 129.261 105.883 129.259 106.75C129.257 107.33 129.315 107.817 129.433 108.213C129.554 108.608 129.724 108.906 129.944 109.108C130.164 109.306 130.426 109.406 130.729 109.406ZM137.374 110.478C137.026 110.476 136.686 110.416 136.355 110.297C136.023 110.176 135.725 109.981 135.46 109.711C135.195 109.439 134.984 109.078 134.828 108.628C134.672 108.176 134.595 107.616 134.597 106.949C134.597 106.326 134.663 105.771 134.796 105.283C134.929 104.795 135.119 104.383 135.368 104.047C135.616 103.709 135.916 103.451 136.266 103.273C136.619 103.096 137.013 103.007 137.449 103.007C137.906 103.007 138.31 103.097 138.663 103.277C139.018 103.457 139.305 103.703 139.523 104.015C139.74 104.325 139.875 104.676 139.927 105.066H138.631C138.565 104.787 138.429 104.565 138.223 104.399C138.019 104.231 137.761 104.147 137.449 104.147C136.944 104.147 136.556 104.366 136.284 104.804C136.014 105.242 135.878 105.843 135.876 106.608H135.925C136.041 106.399 136.192 106.221 136.376 106.071C136.561 105.922 136.769 105.807 137.001 105.727C137.236 105.644 137.483 105.603 137.743 105.603C138.17 105.603 138.552 105.704 138.89 105.908C139.231 106.112 139.501 106.392 139.7 106.75C139.899 107.105 139.997 107.512 139.995 107.971C139.997 108.449 139.888 108.879 139.668 109.26C139.448 109.639 139.141 109.937 138.748 110.155C138.355 110.373 137.897 110.481 137.374 110.478ZM137.367 109.413C137.625 109.413 137.856 109.35 138.059 109.225C138.263 109.099 138.424 108.93 138.542 108.717C138.661 108.504 138.719 108.265 138.716 108C138.719 107.739 138.662 107.504 138.546 107.293C138.432 107.082 138.275 106.915 138.074 106.792C137.872 106.669 137.643 106.608 137.385 106.608C137.193 106.608 137.014 106.644 136.849 106.718C136.683 106.791 136.538 106.893 136.415 107.023C136.292 107.151 136.195 107.3 136.124 107.471C136.055 107.639 136.02 107.819 136.018 108.01C136.02 108.264 136.079 108.497 136.195 108.71C136.311 108.923 136.471 109.093 136.675 109.221C136.878 109.349 137.109 109.413 137.367 109.413Z" fill="#C6C6C6"/>
<defs>
<linearGradient id="paint0_linear_1000_6355" x1="153.293" y1="356.071" x2="605.453" y2="356.071" gradientUnits="userSpaceOnUse">
<stop stop-color="#FF5F9B"/>
<stop offset="1" stop-color="#2F67FF"/>
</linearGradient>
<linearGradient id="paint1_linear_1000_6355" x1="152.795" y1="356.571" x2="152.795" y2="78.9619" gradientUnits="userSpaceOnUse">
<stop stop-color="#FF5F9B"/>
<stop offset="1" stop-color="#2F67FF"/>
</linearGradient>
</defs>
</svg>
