<svg width="649" height="444" viewBox="0 0 649 444" fill="none" xmlns="http://www.w3.org/2000/svg">
<rect width="648.673" height="443.47" rx="20" fill="white"/>
<rect x="281.983" y="182.326" width="48.1667" height="42.5" fill="white"/>
<line x1="596.979" y1="327.069" x2="145.42" y2="327.069" stroke="url(#paint0_linear_1001_7707)" stroke-width="0.6" stroke-linecap="round"/>
<path d="M145.721 49.1592C145.721 48.9935 145.587 48.8592 145.421 48.8592C145.255 48.8592 145.121 48.9935 145.121 49.1592L145.421 49.1592L145.721 49.1592ZM145.421 49.1592L145.121 49.1592L145.121 326.768L145.421 326.768L145.721 326.768L145.721 49.1592L145.421 49.1592Z" fill="url(#paint1_linear_1001_7707)"/>
<path d="M57.3926 252.295L42.8471 252.295L42.8471 246.556C42.8471 245.458 43.0436 244.52 43.4366 243.744C43.8249 242.962 44.3765 242.368 45.0914 241.961C45.8017 241.549 46.6374 241.343 47.5985 241.343C48.5645 241.343 49.3954 241.552 50.0914 241.968C50.7827 242.385 51.313 242.989 51.6824 243.779C52.0517 244.565 52.2363 245.517 52.2363 246.634L52.2363 250.477L49.7647 250.477L49.7647 247.132C49.7647 246.544 49.6842 246.057 49.5233 245.668C49.3623 245.28 49.1208 244.991 48.7988 244.802C48.4769 244.608 48.0768 244.511 47.5985 244.511C47.1156 244.511 46.7084 244.608 46.377 244.802C46.0455 244.991 45.7946 245.283 45.6241 245.676C45.4489 246.064 45.3613 246.554 45.3613 247.146L45.3613 249.22L57.3926 249.22L57.3926 252.295ZM50.7733 244.44L57.3926 240.825L57.3926 244.22L50.7733 247.757L50.7733 244.44ZM47.0304 231.279C46.4574 231.336 46.0124 231.58 45.6951 232.011C45.3779 232.442 45.2193 233.026 45.2193 233.765C45.2193 234.267 45.2903 234.691 45.4323 235.036C45.5697 235.382 45.7614 235.647 46.0076 235.832C46.2538 236.012 46.5332 236.102 46.8457 236.102C47.1061 236.111 47.3334 236.057 47.5275 235.938C47.7216 235.815 47.8897 235.647 48.0318 235.434C48.1691 235.221 48.2898 234.975 48.394 234.695C48.4934 234.416 48.5787 234.118 48.6497 233.801L48.9622 232.494C49.1042 231.859 49.2936 231.277 49.5304 230.747C49.7671 230.216 50.0583 229.757 50.4039 229.369C50.7496 228.98 51.1568 228.68 51.6255 228.467C52.0943 228.249 52.6317 228.138 53.2377 228.133C54.1279 228.138 54.8997 228.365 55.5531 228.815C56.2018 229.26 56.706 229.904 57.0659 230.747C57.421 231.585 57.5985 232.596 57.5985 233.779C57.5985 234.953 57.4186 235.976 57.0588 236.847C56.6989 237.714 56.1663 238.391 55.4608 238.879C54.7505 239.362 53.8722 239.615 52.8258 239.639L52.8258 236.663C53.3135 236.63 53.7207 236.49 54.0474 236.244C54.3694 235.993 54.6132 235.659 54.7789 235.242C54.9399 234.821 55.0204 234.345 55.0204 233.815C55.0204 233.294 54.9447 232.842 54.7931 232.458C54.6416 232.07 54.4309 231.769 54.161 231.556C53.8912 231.343 53.581 231.237 53.2306 231.237C52.9039 231.237 52.6293 231.334 52.4068 231.528C52.1842 231.717 51.9948 231.997 51.8386 232.366C51.6823 232.73 51.5403 233.178 51.4125 233.708L51.0147 235.292C50.7164 236.518 50.2501 237.487 49.6156 238.197C48.9811 238.907 48.1265 239.26 47.0517 239.255C46.171 239.26 45.4016 239.025 44.7434 238.552C44.0853 238.074 43.5716 237.418 43.2022 236.585C42.8329 235.751 42.6483 234.804 42.6483 233.744C42.6483 232.664 42.8329 231.722 43.2022 230.917C43.5716 230.107 44.0853 229.478 44.7434 229.028C45.4016 228.578 46.1639 228.346 47.0304 228.332L47.0304 231.279ZM47.0304 218.174C46.4574 218.231 46.0124 218.474 45.6951 218.905C45.3779 219.336 45.2193 219.921 45.2193 220.66C45.2193 221.161 45.2903 221.585 45.4323 221.931C45.5697 222.277 45.7614 222.542 46.0076 222.726C46.2538 222.906 46.5332 222.996 46.8457 222.996C47.1061 223.006 47.3334 222.951 47.5275 222.833C47.7216 222.71 47.8897 222.542 48.0318 222.329C48.1691 222.116 48.2898 221.869 48.394 221.59C48.4934 221.311 48.5787 221.012 48.6497 220.695L48.9622 219.388C49.1042 218.754 49.2936 218.171 49.5304 217.641C49.7671 217.111 50.0583 216.652 50.4039 216.263C50.7496 215.875 51.1568 215.574 51.6255 215.361C52.0943 215.143 52.6317 215.032 53.2377 215.027C54.1279 215.032 54.8997 215.259 55.5531 215.709C56.2018 216.154 56.706 216.798 57.0659 217.641C57.421 218.479 57.5985 219.49 57.5985 220.674C57.5985 221.848 57.4186 222.871 57.0588 223.742C56.6989 224.608 56.1663 225.286 55.4608 225.773C54.7505 226.256 53.8722 226.509 52.8258 226.533L52.8258 223.557C53.3135 223.524 53.7207 223.384 54.0474 223.138C54.3694 222.887 54.6132 222.554 54.7789 222.137C54.9399 221.715 55.0204 221.24 55.0204 220.709C55.0204 220.188 54.9447 219.736 54.7931 219.353C54.6416 218.965 54.4309 218.664 54.161 218.451C53.8912 218.238 53.581 218.131 53.2306 218.131C52.9039 218.131 52.6293 218.228 52.4068 218.422C52.1842 218.612 51.9948 218.891 51.8386 219.26C51.6823 219.625 51.5403 220.072 51.4125 220.603L51.0147 222.187C50.7164 223.413 50.2501 224.381 49.6156 225.091C48.9811 225.802 48.1265 226.154 47.0517 226.15C46.171 226.154 45.4016 225.92 44.7434 225.447C44.0853 224.968 43.5716 224.313 43.2022 223.479C42.8329 222.646 42.6483 221.699 42.6483 220.638C42.6483 219.559 42.8329 218.616 43.2022 217.812C43.5716 217.002 44.0853 216.372 44.7434 215.922C45.4016 215.473 46.1639 215.241 47.0304 215.226L47.0304 218.174ZM42.8471 209.884L57.3926 209.884L57.3926 212.959L42.8471 212.959L42.8471 209.884ZM57.6056 198.321C57.6056 199.325 57.4257 200.191 57.0659 200.921C56.706 201.65 56.2183 202.211 55.6028 202.604C54.9825 202.992 54.2912 203.186 53.5289 203.186C52.9608 203.186 52.4565 203.073 52.0162 202.845C51.5758 202.618 51.171 202.301 50.8017 201.894C50.4276 201.486 50.0559 201.013 49.6866 200.473L47.8329 197.654C47.6009 197.289 47.3571 197.021 47.1014 196.851C46.841 196.681 46.5592 196.595 46.2562 196.595C45.9674 196.595 45.6999 196.711 45.4537 196.943C45.2074 197.175 45.0867 197.504 45.0914 197.931C45.0914 198.215 45.1554 198.461 45.2832 198.669C45.4063 198.878 45.5697 199.041 45.7733 199.159C45.9721 199.273 46.1947 199.33 46.4409 199.33C46.7439 199.33 47.0517 199.244 47.3642 199.074C47.6767 198.904 48.0081 198.676 48.3585 198.392C48.7041 198.108 49.0782 197.798 49.4806 197.462L57.3926 190.565L57.3926 193.719L50.9863 199.472C50.5555 199.851 50.1056 200.229 49.6369 200.608C49.1634 200.982 48.6615 201.295 48.1312 201.546C47.5962 201.797 47.0162 201.922 46.3912 201.922C45.6857 201.922 45.0512 201.759 44.4877 201.432C43.9243 201.101 43.4792 200.636 43.1525 200.04C42.8211 199.443 42.6554 198.747 42.6554 197.952C42.6554 197.175 42.814 196.505 43.1312 195.942C43.4437 195.374 43.8604 194.938 44.3812 194.635C44.8973 194.327 45.4655 194.173 46.0858 194.173C46.7723 194.173 47.3949 194.344 47.9537 194.685C48.5076 195.021 49.0048 195.494 49.4451 196.105L51.5829 199.074C51.8765 199.476 52.1771 199.775 52.4849 199.969C52.7879 200.158 53.0791 200.253 53.3585 200.253C53.7041 200.253 54.0143 200.168 54.2889 199.997C54.5635 199.827 54.7813 199.585 54.9423 199.273C55.0985 198.96 55.1767 198.593 55.1767 198.172C55.1767 197.661 55.0607 197.156 54.8287 196.659C54.5919 196.157 54.2581 195.703 53.8272 195.296C53.3916 194.884 52.8755 194.555 52.2789 194.308C51.6823 194.062 51.0218 193.939 50.2974 193.939L50.2974 191.432C51.1876 191.432 51.9901 191.529 52.7051 191.723C53.4153 191.917 54.0356 192.187 54.5659 192.533C55.0914 192.878 55.5223 193.274 55.8585 193.719C55.9484 193.861 56.0337 193.998 56.1142 194.131C56.1947 194.263 56.2799 194.401 56.3698 194.543C56.8055 195.083 57.1203 195.686 57.3145 196.354C57.5086 197.017 57.6056 197.672 57.6056 198.321ZM47.0304 176.728C46.4574 176.785 46.0124 177.029 45.6951 177.46C45.3779 177.891 45.2193 178.476 45.2193 179.214C45.2193 179.716 45.2903 180.14 45.4323 180.486C45.5697 180.831 45.7614 181.096 46.0076 181.281C46.2538 181.461 46.5332 181.551 46.8457 181.551C47.1061 181.56 47.3334 181.506 47.5275 181.388C47.7216 181.264 47.8897 181.096 48.0318 180.883C48.1691 180.67 48.2898 180.424 48.394 180.145C48.4934 179.865 48.5787 179.567 48.6497 179.25L48.9622 177.943C49.1042 177.308 49.2936 176.726 49.5304 176.196C49.7671 175.665 50.0583 175.206 50.4039 174.818C50.7496 174.43 51.1568 174.129 51.6255 173.916C52.0943 173.698 52.6317 173.587 53.2377 173.582C54.1279 173.587 54.8997 173.814 55.5531 174.264C56.2018 174.709 56.706 175.353 57.0659 176.196C57.421 177.034 57.5985 178.045 57.5985 179.228C57.5985 180.403 57.4186 181.425 57.0588 182.297C56.6989 183.163 56.1662 183.84 55.4608 184.328C54.7505 184.811 53.8722 185.064 52.8258 185.088L52.8258 182.112C53.3135 182.079 53.7207 181.939 54.0474 181.693C54.3694 181.442 54.6132 181.108 54.7789 180.692C54.9399 180.27 55.0204 179.794 55.0204 179.264C55.0204 178.743 54.9447 178.291 54.7931 177.907C54.6416 177.519 54.4309 177.219 54.161 177.005C53.8912 176.792 53.581 176.686 53.2306 176.686C52.9039 176.686 52.6293 176.783 52.4068 176.977C52.1842 177.166 51.9948 177.446 51.8386 177.815C51.6823 178.18 51.5403 178.627 51.4125 179.157L51.0147 180.741C50.7164 181.968 50.2501 182.936 49.6156 183.646C48.9811 184.356 48.1265 184.709 47.0517 184.704C46.171 184.709 45.4016 184.475 44.7434 184.001C44.0853 183.523 43.5716 182.867 43.2022 182.034C42.8329 181.201 42.6483 180.254 42.6483 179.193C42.6483 178.113 42.8329 177.171 43.2022 176.366C43.5716 175.557 44.0853 174.927 44.7434 174.477C45.4016 174.027 46.1639 173.795 47.0304 173.781L47.0304 176.728ZM42.8471 159.347L57.3926 159.347L57.3926 162.004L48.2377 168.332L48.2377 168.438L57.3926 168.438L57.3926 171.514L42.8471 171.514L42.8471 168.815L51.9948 162.536L51.9948 162.409L42.8471 162.409L42.8471 159.347ZM57.3926 156.807L42.8471 156.807L42.8471 151.068C42.8471 149.969 43.0436 149.032 43.4366 148.255C43.8249 147.474 44.3765 146.88 45.0914 146.473C45.8017 146.061 46.6374 145.855 47.5985 145.855C48.5644 145.855 49.3954 146.063 50.0914 146.48C50.7827 146.897 51.313 147.5 51.6823 148.291C52.0517 149.077 52.2363 150.029 52.2363 151.146L52.2363 154.988L49.7647 154.988L49.7647 151.643C49.7647 151.056 49.6842 150.568 49.5233 150.18C49.3623 149.792 49.1208 149.503 48.7988 149.314C48.4769 149.12 48.0768 149.023 47.5985 149.023C47.1156 149.023 46.7084 149.12 46.3769 149.314C46.0455 149.503 45.7946 149.794 45.6241 150.187C45.4489 150.576 45.3613 151.066 45.3613 151.657L45.3613 153.731L57.3926 153.731L57.3926 156.807ZM50.7733 148.951L57.3926 145.336L57.3926 148.731L50.7733 152.268L50.7733 148.951Z" fill="#1E1E1E"/>
<path d="M292.111 406.231H286.955L286.955 391.686H292.153C293.617 391.686 294.876 391.977 295.932 392.559C296.988 393.137 297.8 393.968 298.368 395.052C298.941 396.136 299.227 397.434 299.227 398.944C299.227 400.459 298.941 401.761 298.368 402.85C297.8 403.939 296.983 404.775 295.918 405.357C294.857 405.94 293.588 406.231 292.111 406.231ZM290.03 403.596H291.983C292.892 403.596 293.657 403.435 294.277 403.113C294.902 402.786 295.371 402.282 295.683 401.6C296.001 400.914 296.159 400.028 296.159 398.944C296.159 397.869 296.001 396.991 295.683 396.309C295.371 395.627 294.904 395.125 294.284 394.803C293.664 394.481 292.899 394.32 291.99 394.32H290.03V403.596ZM301.449 406.231L301.449 395.322H304.474L304.474 406.231H301.449ZM302.968 393.916C302.519 393.916 302.133 393.766 301.811 393.468C301.494 393.165 301.335 392.803 301.335 392.382C301.335 391.965 301.494 391.607 301.811 391.309C302.133 391.006 302.519 390.855 302.968 390.855C303.418 390.855 303.802 391.006 304.119 391.309C304.441 391.607 304.602 391.965 304.602 392.382C304.602 392.803 304.441 393.165 304.119 393.468C303.802 393.766 303.418 393.916 302.968 393.916ZM315.975 398.433L313.205 398.603C313.157 398.366 313.055 398.153 312.899 397.964C312.743 397.77 312.537 397.616 312.281 397.502C312.03 397.384 311.73 397.325 311.379 397.325C310.911 397.325 310.515 397.424 310.193 397.623C309.871 397.817 309.71 398.078 309.71 398.404C309.71 398.665 309.814 398.885 310.023 399.065C310.231 399.245 310.589 399.389 311.095 399.498L313.07 399.896C314.13 400.114 314.921 400.464 315.442 400.947C315.963 401.43 316.223 402.064 316.223 402.85C316.223 403.565 316.012 404.193 315.591 404.732C315.174 405.272 314.601 405.694 313.872 405.997C313.148 406.295 312.312 406.444 311.365 406.444C309.921 406.444 308.77 406.143 307.913 405.542C307.061 404.936 306.562 404.112 306.415 403.07L309.391 402.914C309.481 403.355 309.698 403.691 310.044 403.923C310.39 404.15 310.832 404.264 311.372 404.264C311.903 404.264 312.329 404.162 312.651 403.958C312.977 403.75 313.143 403.482 313.148 403.156C313.143 402.881 313.027 402.656 312.8 402.481C312.573 402.301 312.222 402.164 311.749 402.069L309.859 401.693C308.794 401.48 308.001 401.11 307.48 400.585C306.964 400.059 306.706 399.389 306.706 398.575C306.706 397.874 306.895 397.27 307.274 396.764C307.658 396.257 308.195 395.866 308.886 395.592C309.582 395.317 310.397 395.18 311.33 395.18C312.707 395.18 313.792 395.471 314.582 396.053C315.378 396.636 315.842 397.429 315.975 398.433ZM323.931 395.322V397.595H317.361V395.322H323.931ZM318.853 392.708H321.878V402.879C321.878 403.158 321.921 403.376 322.006 403.532C322.091 403.684 322.21 403.79 322.361 403.852C322.517 403.913 322.697 403.944 322.901 403.944C323.043 403.944 323.185 403.932 323.327 403.909C323.469 403.88 323.578 403.859 323.654 403.845L324.13 406.096C323.978 406.143 323.765 406.198 323.491 406.259C323.216 406.326 322.882 406.366 322.489 406.38C321.76 406.409 321.121 406.311 320.571 406.089C320.027 405.866 319.603 405.521 319.3 405.052C318.997 404.583 318.848 403.991 318.853 403.276V392.708ZM329.013 406.437C328.316 406.437 327.696 406.316 327.152 406.075C326.607 405.828 326.176 405.466 325.859 404.988C325.547 404.505 325.39 403.904 325.39 403.184C325.39 402.578 325.502 402.069 325.724 401.657C325.947 401.245 326.25 400.914 326.633 400.663C327.017 400.412 327.452 400.222 327.94 400.095C328.432 399.967 328.949 399.877 329.488 399.825C330.123 399.758 330.634 399.697 331.022 399.64C331.411 399.578 331.692 399.489 331.868 399.37C332.043 399.252 332.13 399.077 332.13 398.845V398.802C332.13 398.352 331.988 398.004 331.704 397.758C331.425 397.512 331.027 397.389 330.511 397.389C329.967 397.389 329.533 397.509 329.211 397.751C328.889 397.988 328.676 398.286 328.572 398.646L325.774 398.418C325.916 397.756 326.195 397.183 326.612 396.7C327.029 396.212 327.566 395.838 328.224 395.578C328.887 395.312 329.654 395.18 330.525 395.18C331.131 395.18 331.711 395.251 332.265 395.393C332.824 395.535 333.319 395.755 333.75 396.053C334.185 396.352 334.529 396.735 334.78 397.204C335.031 397.668 335.156 398.224 335.156 398.873L335.156 406.231H332.287L332.287 404.718H332.201C332.026 405.059 331.792 405.36 331.498 405.62C331.205 405.876 330.852 406.077 330.44 406.224C330.028 406.366 329.552 406.437 329.013 406.437ZM329.879 404.349C330.324 404.349 330.717 404.261 331.058 404.086C331.399 403.906 331.666 403.665 331.861 403.362C332.055 403.059 332.152 402.715 332.152 402.332V401.174C332.057 401.236 331.927 401.293 331.761 401.345C331.6 401.392 331.418 401.437 331.214 401.48C331.011 401.517 330.807 401.553 330.603 401.586C330.4 401.614 330.215 401.641 330.049 401.664C329.694 401.716 329.384 401.799 329.119 401.913C328.854 402.026 328.648 402.18 328.501 402.374C328.354 402.564 328.281 402.801 328.281 403.085C328.281 403.497 328.43 403.811 328.728 404.029C329.031 404.242 329.415 404.349 329.879 404.349ZM340.529 399.924L340.529 406.231H337.503L337.503 395.322H340.387V397.247H340.515C340.756 396.612 341.161 396.11 341.729 395.741C342.297 395.367 342.986 395.18 343.796 395.18C344.553 395.18 345.214 395.346 345.777 395.677C346.341 396.008 346.779 396.482 347.091 397.097C347.404 397.708 347.56 398.437 347.56 399.285V406.231H344.535L344.535 399.825C344.539 399.157 344.369 398.636 344.023 398.262C343.678 397.883 343.202 397.694 342.596 397.694C342.188 397.694 341.829 397.782 341.516 397.957C341.208 398.132 340.967 398.388 340.792 398.724C340.621 399.055 340.534 399.455 340.529 399.924ZM354.874 406.444C353.756 406.444 352.795 406.207 351.99 405.734C351.19 405.256 350.574 404.593 350.144 403.745C349.717 402.898 349.504 401.922 349.504 400.819C349.504 399.702 349.72 398.721 350.151 397.879C350.586 397.031 351.204 396.371 352.004 395.897C352.805 395.419 353.756 395.18 354.859 395.18C355.811 395.18 356.645 395.353 357.359 395.698C358.074 396.044 358.64 396.529 359.057 397.154C359.474 397.779 359.703 398.513 359.746 399.356H356.891C356.81 398.811 356.597 398.373 356.252 398.042C355.911 397.706 355.463 397.538 354.909 397.538C354.44 397.538 354.031 397.666 353.68 397.921C353.335 398.172 353.065 398.539 352.871 399.022C352.677 399.505 352.58 400.09 352.58 400.776C352.58 401.472 352.674 402.064 352.864 402.552C353.058 403.04 353.33 403.411 353.68 403.667C354.031 403.923 354.44 404.051 354.909 404.051C355.255 404.051 355.565 403.98 355.84 403.837C356.119 403.695 356.349 403.489 356.528 403.22C356.713 402.945 356.834 402.616 356.891 402.232H359.746C359.698 403.066 359.471 403.8 359.064 404.434C358.662 405.064 358.105 405.556 357.395 405.911C356.685 406.266 355.844 406.444 354.874 406.444ZM366.655 406.444C365.532 406.444 364.566 406.217 363.757 405.762C362.952 405.303 362.332 404.654 361.896 403.816C361.46 402.973 361.243 401.977 361.243 400.826C361.243 399.704 361.46 398.719 361.896 397.872C362.332 397.024 362.945 396.364 363.736 395.89C364.531 395.417 365.464 395.18 366.534 395.18C367.254 395.18 367.924 395.296 368.544 395.528C369.169 395.755 369.713 396.098 370.177 396.558C370.646 397.017 371.011 397.595 371.271 398.291C371.531 398.982 371.662 399.792 371.662 400.72V401.551L362.45 401.551V399.676L368.814 399.676C368.814 399.24 368.719 398.854 368.53 398.518C368.34 398.182 368.077 397.919 367.741 397.73C367.41 397.535 367.024 397.438 366.584 397.438C366.124 397.438 365.717 397.545 365.362 397.758C365.012 397.966 364.737 398.248 364.538 398.603C364.339 398.953 364.237 399.344 364.233 399.775V401.558C364.233 402.097 364.332 402.564 364.531 402.957C364.735 403.35 365.021 403.653 365.39 403.866C365.76 404.079 366.198 404.186 366.704 404.186C367.04 404.186 367.348 404.138 367.628 404.043C367.907 403.949 368.146 403.807 368.345 403.617C368.544 403.428 368.695 403.196 368.799 402.921L371.598 403.106C371.456 403.778 371.165 404.365 370.724 404.867C370.289 405.364 369.725 405.753 369.034 406.032C368.347 406.307 367.554 406.444 366.655 406.444ZM374.304 400.4C374.304 398.639 374.538 397.017 375.007 395.535C375.48 394.053 376.202 392.68 377.173 391.416H380.064C379.694 391.884 379.351 392.457 379.034 393.134C378.717 393.807 378.44 394.545 378.203 395.35C377.966 396.155 377.781 396.989 377.649 397.85C377.516 398.707 377.45 399.557 377.45 400.4C377.45 401.522 377.564 402.656 377.791 403.802C378.023 404.943 378.335 406.004 378.728 406.984C379.126 407.964 379.571 408.766 380.064 409.391H377.173C376.202 408.127 375.48 406.754 375.007 405.272C374.538 403.79 374.304 402.166 374.304 400.4ZM381.877 391.686H385.669L389.675 401.458H389.845L393.851 391.686L397.644 391.686V406.231L394.661 406.231V396.764H394.54L390.776 406.16H388.744L384.98 396.728H384.859V406.231H381.877V391.686ZM405.092 406.444C403.97 406.444 403.004 406.217 402.194 405.762C401.389 405.303 400.769 404.654 400.334 403.816C399.898 402.973 399.68 401.977 399.68 400.826C399.68 399.704 399.898 398.719 400.334 397.872C400.769 397.024 401.382 396.364 402.173 395.89C402.968 395.417 403.901 395.18 404.971 395.18C405.691 395.18 406.361 395.296 406.981 395.528C407.606 395.755 408.151 396.098 408.615 396.558C409.084 397.017 409.448 397.595 409.709 398.291C409.969 398.982 410.099 399.792 410.099 400.72V401.551H400.888V399.676H407.251C407.251 399.24 407.156 398.854 406.967 398.518C406.778 398.182 406.515 397.919 406.179 397.73C405.847 397.535 405.461 397.438 405.021 397.438C404.562 397.438 404.155 397.545 403.799 397.758C403.449 397.966 403.174 398.248 402.976 398.603C402.777 398.953 402.675 399.344 402.67 399.775V401.558C402.67 402.097 402.77 402.564 402.968 402.957C403.172 403.35 403.459 403.653 403.828 403.866C404.197 404.079 404.635 404.186 405.142 404.186C405.478 404.186 405.786 404.138 406.065 404.043C406.344 403.949 406.584 403.807 406.782 403.617C406.981 403.428 407.133 403.196 407.237 402.921L410.035 403.106C409.893 403.778 409.602 404.365 409.162 404.867C408.726 405.364 408.163 405.753 407.471 406.032C406.785 406.307 405.992 406.444 405.092 406.444ZM417.876 395.322V397.595H411.307V395.322H417.876ZM412.798 392.708H415.824V402.879C415.824 403.158 415.866 403.376 415.951 403.532C416.037 403.684 416.155 403.79 416.307 403.852C416.463 403.913 416.643 403.944 416.846 403.944C416.988 403.944 417.13 403.932 417.272 403.909C417.415 403.88 417.523 403.859 417.599 403.845L418.075 406.096C417.924 406.143 417.71 406.198 417.436 406.259C417.161 406.326 416.827 406.366 416.434 406.38C415.705 406.409 415.066 406.311 414.517 406.089C413.972 405.866 413.549 405.521 413.245 405.052C412.942 404.583 412.793 403.991 412.798 403.276V392.708ZM424.701 406.444C423.579 406.444 422.613 406.217 421.804 405.762C420.999 405.303 420.379 404.654 419.943 403.816C419.507 402.973 419.29 401.977 419.29 400.826C419.29 399.704 419.507 398.719 419.943 397.872C420.379 397.024 420.992 396.364 421.782 395.89C422.578 395.417 423.511 395.18 424.581 395.18C425.3 395.18 425.97 395.296 426.591 395.528C427.216 395.755 427.76 396.098 428.224 396.558C428.693 397.017 429.057 397.595 429.318 398.291C429.578 398.982 429.709 399.792 429.709 400.72V401.551H420.497V399.676H426.861C426.861 399.24 426.766 398.854 426.576 398.518C426.387 398.182 426.124 397.919 425.788 397.73C425.457 397.535 425.071 397.438 424.63 397.438C424.171 397.438 423.764 397.545 423.409 397.758C423.058 397.966 422.784 398.248 422.585 398.603C422.386 398.953 422.284 399.344 422.28 399.775V401.558C422.28 402.097 422.379 402.564 422.578 402.957C422.781 403.35 423.068 403.653 423.437 403.866C423.807 404.079 424.245 404.186 424.751 404.186C425.087 404.186 425.395 404.138 425.674 404.043C425.954 403.949 426.193 403.807 426.392 403.617C426.591 403.428 426.742 403.196 426.846 402.921L429.645 403.106C429.503 403.778 429.211 404.365 428.771 404.867C428.335 405.364 427.772 405.753 427.081 406.032C426.394 406.307 425.601 406.444 424.701 406.444ZM431.683 406.231V395.322H434.616V397.225H434.73C434.929 396.548 435.263 396.037 435.731 395.691C436.2 395.341 436.74 395.166 437.351 395.166C437.502 395.166 437.665 395.175 437.841 395.194C438.016 395.213 438.17 395.239 438.302 395.272V397.957C438.16 397.914 437.964 397.876 437.713 397.843C437.462 397.81 437.232 397.793 437.024 397.793C436.579 397.793 436.181 397.891 435.831 398.085C435.485 398.274 435.21 398.539 435.007 398.88C434.808 399.221 434.709 399.614 434.709 400.059V406.231H431.683ZM448.943 398.433L446.173 398.603C446.126 398.366 446.024 398.153 445.868 397.964C445.712 397.77 445.506 397.616 445.25 397.502C444.999 397.384 444.698 397.325 444.348 397.325C443.879 397.325 443.484 397.424 443.162 397.623C442.84 397.817 442.679 398.078 442.679 398.404C442.679 398.665 442.783 398.885 442.992 399.065C443.2 399.245 443.557 399.389 444.064 399.498L446.038 399.896C447.099 400.114 447.89 400.464 448.411 400.947C448.931 401.43 449.192 402.064 449.192 402.85C449.192 403.565 448.981 404.193 448.56 404.732C448.143 405.272 447.57 405.694 446.841 405.997C446.117 406.295 445.281 406.444 444.334 406.444C442.89 406.444 441.739 406.143 440.882 405.542C440.03 404.936 439.53 404.112 439.384 403.07L442.359 402.914C442.449 403.355 442.667 403.691 443.013 403.923C443.359 404.15 443.801 404.264 444.341 404.264C444.871 404.264 445.297 404.162 445.619 403.958C445.946 403.75 446.112 403.482 446.117 403.156C446.112 402.881 445.996 402.656 445.769 402.481C445.541 402.301 445.191 402.164 444.717 402.069L442.828 401.693C441.763 401.48 440.97 401.11 440.449 400.585C439.933 400.059 439.675 399.389 439.675 398.575C439.675 397.874 439.864 397.27 440.243 396.764C440.627 396.257 441.164 395.866 441.855 395.592C442.551 395.317 443.366 395.18 444.298 395.18C445.676 395.18 446.761 395.471 447.551 396.053C448.347 396.636 448.811 397.429 448.943 398.433ZM456.196 400.4C456.196 402.166 455.96 403.79 455.486 405.272C455.017 406.754 454.298 408.127 453.327 409.391H450.437C450.806 408.923 451.149 408.35 451.466 407.673C451.784 406.996 452.061 406.257 452.297 405.457C452.534 404.652 452.719 403.819 452.851 402.957C452.984 402.095 453.05 401.243 453.05 400.4C453.05 399.278 452.934 398.146 452.702 397.005C452.475 395.859 452.162 394.799 451.765 393.823C451.372 392.843 450.929 392.041 450.437 391.416H453.327C454.298 392.68 455.017 394.053 455.486 395.535C455.96 397.017 456.196 398.639 456.196 400.4Z" fill="#1E1E1E"/>
<line x1="303.624" y1="326.769" x2="303.624" y2="49.1592" stroke="#EBEBEB" stroke-width="0.6"/>
<line x1="223.624" y1="326.769" x2="223.624" y2="49.1592" stroke="#EBEBEB" stroke-width="0.6"/>
<line x1="473.624" y1="326.769" x2="473.624" y2="49.1592" stroke="#EBEBEB" stroke-width="0.6"/>
<line x1="146.34" y1="260.92" x2="596.858" y2="260.92" stroke="#EBEBEB" stroke-width="0.6"/>
<line x1="145.795" y1="199.602" x2="596.313" y2="199.602" stroke="#EBEBEB" stroke-width="0.6"/>
<line x1="146.252" y1="138.283" x2="596.771" y2="138.283" stroke="#EBEBEB" stroke-width="0.6"/>
<line x1="145.707" y1="76.9656" x2="596.226" y2="76.9656" stroke="#EBEBEB" stroke-width="0.6"/>
<line x1="383.624" y1="326.769" x2="383.624" y2="49.1592" stroke="#EBEBEB" stroke-width="0.6"/>
<line x1="553.624" y1="326.769" x2="553.624" y2="49.1592" stroke="#EBEBEB" stroke-width="0.6"/>
<circle cx="210.691" cy="205.514" r="5.30127" transform="rotate(1.58058 210.691 205.514)" fill="#FFC54F"/>
<circle cx="215.524" cy="190.554" r="5.30127" transform="rotate(47.597 215.524 190.554)" fill="#FFC54F"/>
<circle cx="221.977" cy="225.055" r="5.30127" transform="rotate(65.7571 221.977 225.055)" fill="#FFC54F"/>
<circle cx="386.395" cy="162.706" r="5.30127" fill="#50C8A7"/>
<circle cx="472.81" cy="168.007" r="5.30127" fill="#50C8A7"/>
<circle cx="543.892" cy="77.7036" r="5.30127" fill="#50C8A7"/>
<circle cx="295.843" cy="152.103" r="5.30127" fill="#FFC54F"/>
<circle cx="306.157" cy="169.937" r="5.30127" fill="#50C8A7"/>
<circle cx="304.916" cy="177.024" r="5.30127" fill="#FFC54F"/>
<circle cx="382.619" cy="131.541" r="5.30127" fill="#50C8A7"/>
<circle cx="469.472" cy="98.7495" r="5.30127" fill="#50C8A7"/>
<circle cx="559.456" cy="37.5396" r="5.30127" fill="#50C8A7"/>
<circle cx="376.356" cy="138.716" r="5.30127" fill="#50C8A7"/>
<circle cx="474.773" cy="107.297" r="5.30127" fill="#50C8A7"/>
<circle cx="548.624" cy="67.7222" r="5.30127" fill="#50C8A7"/>
<circle cx="226.54" cy="195.566" r="5.30127" transform="rotate(47.597 226.54 195.566)" fill="#FFC54F"/>
<circle cx="394.54" cy="158.047" r="5.30127" transform="rotate(16.4891 394.54 158.047)" fill="#FFC54F"/>
<circle cx="482.366" cy="145.304" r="5.30127" transform="rotate(16.4891 482.366 145.304)" fill="#FFC54F"/>
<circle cx="557.732" cy="83.0049" r="5.30127" transform="rotate(-9.69316 557.732 83.0049)" fill="#FFC54F"/>
<circle cx="381.864" cy="145.171" r="5.30127" transform="rotate(16.4891 381.864 145.171)" fill="#FFC54F"/>
<circle cx="473.05" cy="136.842" r="5.30127" transform="rotate(16.4891 473.05 136.842)" fill="#FFC54F"/>
<circle cx="544.838" cy="60.9024" r="5.30127" transform="rotate(16.4891 544.838 60.9024)" fill="#FFC54F"/>
<circle cx="306.157" cy="208.357" r="5.30127" fill="#50C8A7"/>
<circle cx="396.263" cy="129.028" r="5.30127" fill="#50C8A7"/>
<circle cx="476.06" cy="125.591" r="5.30127" fill="#50C8A7"/>
<circle cx="554.56" cy="69.101" r="5.30127" transform="rotate(-6.05629 554.56 69.101)" fill="#50C8A7"/>
<circle cx="317.657" cy="195.566" r="5.30127" fill="#FFC54F"/>
<circle cx="236.344" cy="247.824" r="5.30127" fill="#FFC54F"/>
<circle cx="300.174" cy="185.592" r="5.30127" fill="#FFC54F"/>
<circle cx="222.316" cy="199.902" r="5.30127" fill="#50C8A7"/>
<circle cx="234.329" cy="222.867" r="5.30127" fill="#50C8A7"/>
<circle cx="239.331" cy="182.663" r="5.30127" fill="#50C8A7"/>
<circle cx="300.174" cy="189.552" r="5.30127" fill="#FFC54F"/>
<circle cx="235.506" cy="232.133" r="5.30127" fill="#FFC54F"/>
<circle cx="314.774" cy="167.547" r="5.30127" transform="rotate(-12.7896 314.774 167.547)" fill="#FFC54F"/>
<circle cx="216.435" cy="218.644" r="5.30127" fill="#50C8A7"/>
<circle cx="306.157" cy="196.447" r="5.30127" fill="#50C8A7"/>
<circle cx="396.045" cy="152.103" r="5.30127" fill="#50C8A7"/>
<circle cx="485.375" cy="134.692" r="5.30127" fill="#50C8A7"/>
<circle cx="573.882" cy="76.3638" r="5.30127" fill="#50C8A7"/>
<circle cx="221.247" cy="214.211" r="5.30127" transform="rotate(-13.1849 221.247 214.211)" fill="#50C8A7"/>
<circle cx="301.523" cy="146.308" r="5.30127" transform="rotate(-13.1849 301.523 146.308)" fill="#50C8A7"/>
<circle cx="307.226" cy="157.252" r="5.30127" transform="rotate(-13.1849 307.226 157.252)" fill="#50C8A7"/>
<circle cx="393.145" cy="146.802" r="5.30127" transform="rotate(-70.7914 393.145 146.802)" fill="#FFC54F"/>
<circle cx="468.624" cy="126.24" r="5.30127" fill="#FFC54F"/>
<circle cx="538.25" cy="78.3247" r="5.30127" fill="#FFC54F"/>
<circle cx="394.594" cy="112.599" r="5.30127" fill="#FFC54F"/>
<circle cx="476.06" cy="105.156" r="5.30127" fill="#FFC54F"/>
<circle cx="561.723" cy="60.9019" r="5.30127" fill="#FFC54F"/>
<circle cx="389.239" cy="129.028" r="5.30127" fill="#FFC54F"/>
<circle cx="484.758" cy="125.591" r="5.30127" fill="#FFC54F"/>
<circle cx="554.154" cy="120.29" r="5.30127" fill="#FFC54F"/>
<circle cx="229.027" cy="252.449" r="5.30127" transform="rotate(14.8009 229.027 252.449)" fill="#50C8A7"/>
<circle cx="301.145" cy="160.512" r="5.30127" transform="rotate(14.8009 301.145 160.512)" fill="#50C8A7"/>
<circle cx="212.728" cy="215.322" r="5.30127" transform="rotate(-48.675 212.728 215.322)" fill="#50C8A7"/>
<circle cx="378.525" cy="151.609" r="5.30127" fill="#50C8A7"/>
<circle cx="479.457" cy="116.199" r="5.30127" transform="rotate(4.97523 479.457 116.199)" fill="#50C8A7"/>
<circle cx="552.431" cy="52.6312" r="5.30127" transform="rotate(87.0542 552.431 52.6312)" fill="#50C8A7"/>
<circle cx="304.916" cy="134.892" r="5.30127" fill="#50C8A7"/>
<circle cx="221.231" cy="246.757" r="5.30127" fill="#50C8A7"/>
<circle cx="398.836" cy="141.289" r="5.30127" fill="#50C8A7"/>
<circle cx="487.667" cy="142.756" r="5.30127" fill="#50C8A7"/>
<circle cx="552.431" cy="150.473" r="5.30127" fill="#50C8A7"/>
<circle cx="389.292" cy="89.2524" r="5.30127" fill="#FFC54F"/>
<circle cx="475.778" cy="187.964" r="5.30127" fill="#FFC54F"/>
<circle cx="552.431" cy="104.051" r="5.30127" fill="#FFC54F"/>
<circle cx="299.615" cy="187.627" r="5.30127" fill="#FFC54F"/>
<circle cx="317.657" cy="178.95" r="5.30127" fill="#50C8A7"/>
<path d="M51.3921 126.399C50.9756 126.403 50.5774 126.571 50.2838 126.866L46.8796 130.262C46.7322 130.411 46.6494 130.611 46.6494 130.821C46.6494 131.03 46.7322 131.23 46.8796 131.379C46.9532 131.453 47.0408 131.512 47.1373 131.552C47.2337 131.592 47.3372 131.613 47.4417 131.613C47.5462 131.613 47.6497 131.592 47.7462 131.552C47.8426 131.512 47.9302 131.453 48.0038 131.379L50.6005 128.774L50.6005 136.691C50.6005 136.901 50.6839 137.102 50.8323 137.251C50.9808 137.399 51.1822 137.482 51.3921 137.482C51.6021 137.482 51.8035 137.399 51.9519 137.251C52.1004 137.102 52.1838 136.901 52.1838 136.691L52.1838 128.774L54.7884 131.379C54.9364 131.528 55.1376 131.612 55.3477 131.613C55.5577 131.613 55.7595 131.531 55.9086 131.383C56.0577 131.235 56.1418 131.033 56.1426 130.823C56.1433 130.613 56.0606 130.411 55.9125 130.262L52.5084 126.866C52.2128 126.569 51.8114 126.401 51.3921 126.399Z" fill="#CACACA"/>
<path d="M478.674 400.731C478.67 400.314 478.502 399.916 478.207 399.623L474.811 396.218C474.662 396.071 474.462 395.988 474.253 395.988C474.044 395.988 473.843 396.071 473.695 396.218C473.62 396.292 473.561 396.38 473.521 396.476C473.481 396.573 473.46 396.676 473.46 396.781C473.46 396.885 473.481 396.989 473.521 397.085C473.561 397.182 473.62 397.269 473.695 397.343L476.299 399.939H468.382C468.173 399.939 467.971 400.023 467.823 400.171C467.674 400.32 467.591 400.521 467.591 400.731C467.591 400.941 467.674 401.142 467.823 401.291C467.971 401.439 468.173 401.523 468.382 401.523H476.299L473.695 404.127C473.545 404.275 473.461 404.476 473.461 404.687C473.46 404.897 473.543 405.098 473.691 405.247C473.839 405.397 474.04 405.481 474.25 405.481C474.46 405.482 474.662 405.399 474.811 405.251L478.207 401.847C478.504 401.552 478.672 401.15 478.674 400.731Z" fill="#CACACA"/>
<path d="M95.867 262.055V263.113H92.5929V262.055H95.867ZM99.7333 266.32C99.2598 266.32 98.8361 266.231 98.462 266.053C98.0879 265.873 97.7908 265.627 97.5707 265.315C97.3529 265.002 97.2369 264.645 97.2227 264.242H98.5011C98.5247 264.541 98.6538 264.784 98.8881 264.974C99.1225 265.161 99.4042 265.254 99.7333 265.254C99.9914 265.254 100.221 265.195 100.422 265.077C100.623 264.958 100.782 264.794 100.898 264.583C101.014 264.372 101.071 264.132 101.069 263.862C101.071 263.588 101.013 263.344 100.895 263.131C100.776 262.918 100.614 262.751 100.408 262.63C100.202 262.507 99.9653 262.445 99.6978 262.445C99.48 262.443 99.2657 262.483 99.055 262.566C98.8443 262.649 98.6774 262.758 98.5543 262.893L97.3647 262.697L97.7447 258.947H101.963V260.048H98.8349L98.6254 261.977H98.668C98.8029 261.818 98.9935 261.687 99.2397 261.582C99.4859 261.476 99.7558 261.423 100.049 261.423C100.49 261.423 100.883 261.527 101.228 261.735C101.574 261.941 101.846 262.225 102.045 262.587C102.244 262.95 102.343 263.364 102.343 263.83C102.343 264.311 102.232 264.739 102.01 265.116C101.789 265.49 101.483 265.785 101.09 266C100.699 266.213 100.247 266.32 99.7333 266.32ZM106.221 266.359C105.636 266.359 105.135 266.211 104.716 265.915C104.299 265.617 103.978 265.187 103.753 264.626C103.531 264.062 103.419 263.384 103.419 262.591C103.422 261.798 103.534 261.123 103.757 260.567C103.982 260.008 104.302 259.582 104.719 259.288C105.138 258.995 105.639 258.848 106.221 258.848C106.804 258.848 107.304 258.995 107.723 259.288C108.142 259.582 108.463 260.008 108.686 260.567C108.911 261.126 109.023 261.8 109.023 262.591C109.023 263.386 108.911 264.066 108.686 264.629C108.463 265.19 108.142 265.619 107.723 265.915C107.307 266.211 106.806 266.359 106.221 266.359ZM106.221 265.247C106.676 265.247 107.034 265.023 107.297 264.576C107.562 264.126 107.695 263.465 107.695 262.591C107.695 262.013 107.635 261.528 107.514 261.135C107.393 260.742 107.223 260.446 107.002 260.247C106.782 260.046 106.522 259.945 106.221 259.945C105.769 259.945 105.412 260.17 105.149 260.62C104.886 261.068 104.753 261.724 104.751 262.591C104.749 263.171 104.807 263.659 104.925 264.054C105.046 264.449 105.216 264.748 105.436 264.949C105.657 265.148 105.918 265.247 106.221 265.247ZM114.207 265.226L114.161 265.617C114.128 265.915 114.068 266.218 113.983 266.526C113.9 266.836 113.813 267.121 113.72 267.381C113.628 267.642 113.553 267.847 113.497 267.996H112.63C112.663 267.851 112.708 267.655 112.765 267.406C112.824 267.158 112.881 266.878 112.936 266.568C112.99 266.258 113.027 265.943 113.046 265.624L113.07 265.226H114.207ZM120.847 258.947V266.22H119.529V260.229H119.487L117.786 261.316V260.109L119.593 258.947H120.847ZM125.381 266.359C124.797 266.359 124.295 266.211 123.876 265.915C123.459 265.617 123.138 265.187 122.913 264.626C122.691 264.062 122.58 263.384 122.58 262.591C122.582 261.798 122.694 261.123 122.917 260.567C123.142 260.008 123.463 259.582 123.879 259.288C124.298 258.995 124.799 258.848 125.381 258.848C125.964 258.848 126.464 258.995 126.884 259.288C127.303 259.582 127.623 260.008 127.846 260.567C128.071 261.126 128.183 261.8 128.183 262.591C128.183 263.386 128.071 264.066 127.846 264.629C127.623 265.19 127.303 265.619 126.884 265.915C126.467 266.211 125.966 266.359 125.381 266.359ZM125.381 265.247C125.836 265.247 126.195 265.023 126.457 264.576C126.723 264.126 126.855 263.465 126.855 262.591C126.855 262.013 126.795 261.528 126.674 261.135C126.553 260.742 126.383 260.446 126.163 260.247C125.942 260.046 125.682 259.945 125.381 259.945C124.929 259.945 124.572 260.17 124.309 260.62C124.046 261.068 123.914 261.724 123.911 262.591C123.909 263.171 123.967 263.659 124.085 264.054C124.206 264.449 124.376 264.748 124.597 264.949C124.817 265.148 125.078 265.247 125.381 265.247Z" fill="#C6C6C6"/>
<path d="M213.411 341.362V348.635H212.094V342.644H212.051L210.35 343.731V342.523L212.157 341.362H213.411ZM217.868 348.734C217.356 348.734 216.902 348.647 216.504 348.471C216.109 348.296 215.796 348.052 215.567 347.74C215.337 347.427 215.215 347.066 215.201 346.657H216.536C216.548 346.853 216.613 347.025 216.731 347.172C216.85 347.316 217.007 347.429 217.204 347.509C217.4 347.59 217.62 347.63 217.864 347.63C218.125 347.63 218.355 347.585 218.557 347.495C218.758 347.403 218.915 347.275 219.029 347.111C219.143 346.948 219.198 346.76 219.196 346.547C219.198 346.327 219.141 346.132 219.025 345.964C218.909 345.796 218.741 345.665 218.521 345.57C218.303 345.475 218.041 345.428 217.733 345.428H217.09V344.412H217.733C217.986 344.412 218.207 344.369 218.397 344.281C218.589 344.193 218.739 344.07 218.848 343.912C218.957 343.751 219.01 343.565 219.008 343.354C219.01 343.148 218.964 342.97 218.869 342.818C218.777 342.664 218.645 342.545 218.475 342.459C218.307 342.374 218.109 342.331 217.882 342.331C217.659 342.331 217.453 342.372 217.264 342.452C217.075 342.533 216.922 342.648 216.806 342.797C216.69 342.943 216.628 343.119 216.621 343.322H215.354C215.363 342.915 215.48 342.558 215.705 342.25C215.932 341.94 216.235 341.698 216.614 341.525C216.993 341.35 217.418 341.263 217.889 341.263C218.374 341.263 218.796 341.354 219.153 341.536C219.513 341.716 219.791 341.959 219.988 342.264C220.184 342.569 220.282 342.907 220.282 343.276C220.285 343.686 220.164 344.029 219.92 344.306C219.679 344.583 219.362 344.764 218.969 344.849V344.906C219.48 344.977 219.872 345.166 220.144 345.474C220.419 345.78 220.555 346.16 220.552 346.614C220.552 347.021 220.436 347.386 220.204 347.708C219.975 348.028 219.657 348.278 219.253 348.461C218.85 348.643 218.389 348.734 217.868 348.734ZM224.435 348.734C224.087 348.732 223.747 348.671 223.415 348.553C223.084 348.432 222.786 348.237 222.521 347.967C222.255 347.695 222.045 347.334 221.888 346.884C221.732 346.432 221.655 345.872 221.658 345.204C221.658 344.582 221.724 344.027 221.857 343.539C221.989 343.051 222.18 342.639 222.428 342.303C222.677 341.965 222.976 341.706 223.327 341.529C223.679 341.351 224.074 341.263 224.509 341.263C224.966 341.263 225.371 341.353 225.724 341.532C226.079 341.712 226.365 341.959 226.583 342.271C226.801 342.581 226.936 342.932 226.988 343.322H225.692C225.625 343.043 225.489 342.82 225.283 342.655C225.08 342.487 224.822 342.403 224.509 342.403C224.005 342.403 223.617 342.622 223.344 343.059C223.075 343.497 222.938 344.099 222.936 344.863H222.986C223.102 344.655 223.252 344.476 223.437 344.327C223.621 344.178 223.83 344.063 224.062 343.983C224.296 343.9 224.544 343.858 224.804 343.858C225.23 343.858 225.612 343.96 225.951 344.164C226.292 344.367 226.562 344.648 226.761 345.006C226.96 345.361 227.058 345.768 227.055 346.227C227.058 346.705 226.949 347.135 226.729 347.516C226.509 347.895 226.202 348.193 225.809 348.411C225.416 348.629 224.958 348.737 224.435 348.734ZM224.428 347.669C224.686 347.669 224.916 347.606 225.12 347.481C225.324 347.355 225.485 347.186 225.603 346.973C225.721 346.76 225.779 346.521 225.777 346.256C225.779 345.995 225.723 345.76 225.607 345.549C225.493 345.338 225.335 345.171 225.134 345.048C224.933 344.925 224.703 344.863 224.445 344.863C224.254 344.863 224.075 344.9 223.909 344.974C223.743 345.047 223.599 345.149 223.476 345.279C223.353 345.407 223.256 345.556 223.185 345.726C223.116 345.894 223.08 346.074 223.078 346.266C223.08 346.519 223.14 346.753 223.256 346.966C223.372 347.179 223.531 347.349 223.735 347.477C223.939 347.605 224.17 347.669 224.428 347.669ZM228.522 348.635L231.615 342.513V342.463H228.025V341.362H232.979V342.488L229.889 348.635H228.522Z" fill="#C6C6C6"/>
<path d="M373.593 347.285V346.238L376.679 341.362H377.553V342.854H377.02L374.942 346.145V346.202H379.25V347.285H373.593ZM377.062 348.635V346.966L377.077 346.497V341.362H378.32V348.635H377.062ZM383.245 341.362V348.635H381.928V342.644H381.885L380.184 343.731V342.523L381.991 341.362H383.245ZM387.78 348.773C387.195 348.773 386.693 348.625 386.274 348.329C385.857 348.031 385.537 347.601 385.312 347.04C385.089 346.477 384.978 345.799 384.978 345.006C384.98 344.212 385.093 343.538 385.315 342.981C385.54 342.423 385.861 341.997 386.278 341.703C386.697 341.409 387.197 341.263 387.78 341.263C388.362 341.263 388.863 341.409 389.282 341.703C389.701 341.997 390.022 342.423 390.244 342.981C390.469 343.54 390.582 344.215 390.582 345.006C390.582 345.801 390.469 346.48 390.244 347.044C390.022 347.605 389.701 348.033 389.282 348.329C388.865 348.625 388.365 348.773 387.78 348.773ZM387.78 347.662C388.234 347.662 388.593 347.438 388.856 346.991C389.121 346.541 389.254 345.879 389.254 345.006C389.254 344.428 389.193 343.943 389.072 343.55C388.952 343.157 388.781 342.861 388.561 342.662C388.341 342.461 388.08 342.36 387.78 342.36C387.328 342.36 386.97 342.585 386.707 343.035C386.445 343.482 386.312 344.139 386.31 345.006C386.307 345.586 386.365 346.073 386.484 346.469C386.604 346.864 386.775 347.162 386.995 347.363C387.215 347.562 387.477 347.662 387.78 347.662ZM394.72 341.362V348.635H393.402V342.644H393.36L391.659 343.731V342.523L393.466 341.362H394.72Z" fill="#C6C6C6"/>
<path d="M290.544 348.635V347.683L293.069 345.208C293.31 344.964 293.511 344.747 293.672 344.558C293.833 344.369 293.954 344.185 294.035 344.008C294.115 343.83 294.155 343.641 294.155 343.439C294.155 343.21 294.103 343.013 293.999 342.85C293.895 342.684 293.752 342.556 293.569 342.466C293.387 342.376 293.18 342.331 292.948 342.331C292.709 342.331 292.499 342.381 292.319 342.481C292.139 342.578 292 342.716 291.9 342.896C291.803 343.076 291.755 343.29 291.755 343.539H290.501C290.501 343.077 290.607 342.676 290.817 342.335C291.028 341.994 291.318 341.73 291.687 341.543C292.059 341.356 292.485 341.263 292.966 341.263C293.453 341.263 293.882 341.354 294.251 341.536C294.62 341.718 294.907 341.968 295.111 342.285C295.316 342.603 295.419 342.965 295.419 343.372C295.419 343.644 295.367 343.912 295.263 344.175C295.159 344.437 294.976 344.729 294.713 345.048C294.452 345.368 294.087 345.755 293.616 346.209L292.362 347.484V347.534H295.53V348.635H290.544ZM297.021 348.635L300.114 342.513V342.463H296.524V341.362H301.478V342.488L298.388 348.635H297.021ZM305.068 348.734C304.557 348.734 304.102 348.647 303.704 348.471C303.309 348.296 302.996 348.052 302.767 347.74C302.537 347.427 302.415 347.066 302.401 346.657H303.736C303.748 346.853 303.813 347.025 303.932 347.172C304.05 347.316 304.207 347.429 304.404 347.509C304.6 347.59 304.821 347.63 305.064 347.63C305.325 347.63 305.556 347.585 305.757 347.495C305.958 347.403 306.116 347.275 306.229 347.111C306.343 346.948 306.398 346.76 306.396 346.547C306.398 346.327 306.342 346.132 306.226 345.964C306.11 345.796 305.941 345.665 305.721 345.57C305.504 345.475 305.241 345.428 304.933 345.428H304.29V344.412H304.933C305.186 344.412 305.408 344.369 305.597 344.281C305.789 344.193 305.939 344.07 306.048 343.912C306.157 343.751 306.21 343.565 306.208 343.354C306.21 343.148 306.164 342.97 306.069 342.818C305.977 342.664 305.846 342.545 305.675 342.459C305.507 342.374 305.309 342.331 305.082 342.331C304.86 342.331 304.654 342.372 304.464 342.452C304.275 342.533 304.122 342.648 304.006 342.797C303.89 342.943 303.829 343.119 303.821 343.322H302.554C302.563 342.915 302.68 342.558 302.905 342.25C303.133 341.94 303.436 341.698 303.814 341.525C304.193 341.35 304.618 341.263 305.089 341.263C305.575 341.263 305.996 341.354 306.353 341.536C306.713 341.716 306.991 341.959 307.188 342.264C307.384 342.569 307.483 342.907 307.483 343.276C307.485 343.686 307.364 344.029 307.12 344.306C306.879 344.583 306.562 344.764 306.169 344.849V344.906C306.68 344.977 307.072 345.166 307.344 345.474C307.619 345.78 307.755 346.16 307.753 346.614C307.753 347.021 307.637 347.386 307.405 347.708C307.175 348.028 306.858 348.278 306.453 348.461C306.05 348.643 305.589 348.734 305.068 348.734ZM308.84 347.285V346.238L311.926 341.362H312.8V342.854H312.267L310.19 346.145V346.202H314.497V347.285H308.84ZM312.31 348.635V346.966L312.324 346.497V341.362H313.567V348.635H312.31Z" fill="#C6C6C6"/>
<path d="M463.714 348.734C463.24 348.734 462.817 348.645 462.442 348.468C462.068 348.288 461.771 348.042 461.551 347.729C461.333 347.417 461.217 347.059 461.203 346.657H462.482C462.505 346.955 462.634 347.199 462.869 347.388C463.103 347.575 463.385 347.669 463.714 347.669C463.972 347.669 464.201 347.61 464.403 347.491C464.604 347.373 464.763 347.208 464.879 346.998C464.995 346.787 465.051 346.547 465.049 346.277C465.051 346.002 464.993 345.758 464.875 345.545C464.757 345.332 464.594 345.165 464.388 345.045C464.183 344.921 463.946 344.86 463.678 344.86C463.46 344.858 463.246 344.898 463.036 344.981C462.825 345.064 462.658 345.172 462.535 345.307L461.345 345.112L461.725 341.362H465.944V342.463H462.815L462.606 344.391H462.648C462.783 344.233 462.974 344.101 463.22 343.997C463.466 343.89 463.736 343.837 464.03 343.837C464.47 343.837 464.863 343.941 465.209 344.15C465.554 344.356 465.827 344.64 466.026 345.002C466.224 345.364 466.324 345.778 466.324 346.245C466.324 346.725 466.213 347.154 465.99 347.53C465.77 347.904 465.463 348.199 465.07 348.415C464.68 348.628 464.228 348.734 463.714 348.734ZM467.382 347.285V346.238L470.468 341.362H471.342V342.854H470.809L468.732 346.145V346.202H473.039V347.285H467.382ZM470.852 348.635V346.966L470.866 346.497V341.362H472.109V348.635H470.852ZM476.837 348.734C476.489 348.732 476.149 348.671 475.818 348.553C475.486 348.432 475.188 348.237 474.923 347.967C474.658 347.695 474.447 347.334 474.291 346.884C474.135 346.432 474.058 345.872 474.06 345.204C474.06 344.582 474.126 344.027 474.259 343.539C474.391 343.051 474.582 342.639 474.831 342.303C475.079 341.965 475.379 341.706 475.729 341.529C476.082 341.351 476.476 341.263 476.912 341.263C477.368 341.263 477.773 341.353 478.126 341.532C478.481 341.712 478.768 341.959 478.985 342.271C479.203 342.581 479.338 342.932 479.39 343.322H478.094C478.028 343.043 477.892 342.82 477.686 342.655C477.482 342.487 477.224 342.403 476.912 342.403C476.407 342.403 476.019 342.622 475.747 343.059C475.477 343.497 475.341 344.099 475.338 344.863H475.388C475.504 344.655 475.654 344.476 475.839 344.327C476.024 344.178 476.232 344.063 476.464 343.983C476.699 343.9 476.946 343.858 477.206 343.858C477.632 343.858 478.015 343.96 478.353 344.164C478.694 344.367 478.964 344.648 479.163 345.006C479.362 345.361 479.46 345.768 479.458 346.227C479.46 346.705 479.351 347.135 479.131 347.516C478.911 347.895 478.604 348.193 478.211 348.411C477.818 348.629 477.36 348.737 476.837 348.734ZM476.83 347.669C477.088 347.669 477.319 347.606 477.522 347.481C477.726 347.355 477.887 347.186 478.005 346.973C478.124 346.76 478.182 346.521 478.179 346.256C478.182 345.995 478.125 345.76 478.009 345.549C477.895 345.338 477.738 345.171 477.537 345.048C477.335 344.925 477.106 344.863 476.848 344.863C476.656 344.863 476.477 344.9 476.311 344.974C476.146 345.047 476.001 345.149 475.878 345.279C475.755 345.407 475.658 345.556 475.587 345.726C475.518 345.894 475.483 346.074 475.48 346.266C475.483 346.519 475.542 346.753 475.658 346.966C475.774 347.179 475.934 347.349 476.137 347.477C476.341 347.605 476.572 347.669 476.83 347.669ZM483.243 348.734C482.715 348.734 482.247 348.645 481.837 348.468C481.43 348.29 481.11 348.048 480.878 347.74C480.649 347.43 480.535 347.078 480.537 346.685C480.535 346.38 480.601 346.099 480.736 345.844C480.871 345.588 481.053 345.375 481.283 345.204C481.515 345.032 481.773 344.921 482.057 344.874V344.824C481.683 344.742 481.38 344.551 481.148 344.253C480.918 343.952 480.805 343.605 480.807 343.212C480.805 342.838 480.909 342.504 481.12 342.211C481.33 341.917 481.619 341.686 481.986 341.518C482.353 341.348 482.772 341.263 483.243 341.263C483.71 341.263 484.125 341.348 484.49 341.518C484.857 341.686 485.145 341.917 485.356 342.211C485.569 342.504 485.676 342.838 485.676 343.212C485.676 343.605 485.559 343.952 485.324 344.253C485.092 344.551 484.793 344.742 484.426 344.824V344.874C484.71 344.921 484.966 345.032 485.193 345.204C485.422 345.375 485.605 345.588 485.74 345.844C485.877 346.099 485.946 346.38 485.946 346.685C485.946 347.078 485.83 347.43 485.598 347.74C485.366 348.048 485.046 348.29 484.639 348.468C484.234 348.645 483.769 348.734 483.243 348.734ZM483.243 347.719C483.516 347.719 483.752 347.672 483.953 347.58C484.155 347.485 484.311 347.353 484.422 347.182C484.533 347.012 484.59 346.815 484.593 346.593C484.59 346.361 484.53 346.156 484.412 345.979C484.296 345.799 484.136 345.658 483.932 345.556C483.731 345.454 483.501 345.403 483.243 345.403C482.983 345.403 482.751 345.454 482.547 345.556C482.344 345.658 482.183 345.799 482.064 345.979C481.948 346.156 481.891 346.361 481.894 346.593C481.891 346.815 481.946 347.012 482.057 347.182C482.168 347.35 482.325 347.482 482.526 347.577C482.73 347.671 482.969 347.719 483.243 347.719ZM483.243 344.405C483.466 344.405 483.662 344.36 483.833 344.27C484.006 344.18 484.142 344.055 484.241 343.894C484.341 343.733 484.391 343.547 484.394 343.336C484.391 343.128 484.342 342.946 484.245 342.79C484.148 342.631 484.013 342.509 483.84 342.424C483.667 342.336 483.468 342.292 483.243 342.292C483.014 342.292 482.811 342.336 482.636 342.424C482.463 342.509 482.328 342.631 482.231 342.79C482.136 342.946 482.09 343.128 482.093 343.336C482.09 343.547 482.138 343.733 482.235 343.894C482.334 344.053 482.47 344.178 482.643 344.27C482.818 344.36 483.018 344.405 483.243 344.405Z" fill="#C6C6C6"/>
<path d="M547.153 348.734C546.805 348.732 546.466 348.671 546.134 348.553C545.803 348.432 545.504 348.237 545.239 347.967C544.974 347.695 544.763 347.334 544.607 346.884C544.451 346.432 544.374 345.872 544.376 345.204C544.376 344.582 544.443 344.027 544.575 343.539C544.708 343.051 544.898 342.639 545.147 342.303C545.396 341.965 545.695 341.706 546.045 341.529C546.398 341.351 546.792 341.263 547.228 341.263C547.685 341.263 548.09 341.353 548.442 341.532C548.798 341.712 549.084 341.959 549.302 342.271C549.52 342.581 549.655 342.932 549.707 343.322H548.411C548.344 343.043 548.208 342.82 548.002 342.655C547.799 342.487 547.54 342.403 547.228 342.403C546.724 342.403 546.335 342.622 546.063 343.059C545.793 343.497 545.657 344.099 545.655 344.863H545.705C545.821 344.655 545.971 344.476 546.156 344.327C546.34 344.178 546.549 344.063 546.781 343.983C547.015 343.9 547.262 343.858 547.523 343.858C547.949 343.858 548.331 343.96 548.67 344.164C549.011 344.367 549.281 344.648 549.479 345.006C549.678 345.361 549.777 345.768 549.774 346.227C549.777 346.705 549.668 347.135 549.447 347.516C549.227 347.895 548.921 348.193 548.528 348.411C548.135 348.629 547.677 348.737 547.153 348.734ZM547.146 347.669C547.404 347.669 547.635 347.606 547.839 347.481C548.042 347.355 548.203 347.186 548.322 346.973C548.44 346.76 548.498 346.521 548.496 346.256C548.498 345.995 548.441 345.76 548.325 345.549C548.212 345.338 548.054 345.171 547.853 345.048C547.652 344.925 547.422 344.863 547.164 344.863C546.972 344.863 546.794 344.9 546.628 344.974C546.462 345.047 546.318 345.149 546.195 345.279C546.071 345.407 545.974 345.556 545.903 345.726C545.835 345.894 545.799 346.074 545.797 346.266C545.799 346.519 545.858 346.753 545.974 346.966C546.09 347.179 546.25 347.349 546.454 347.477C546.657 347.605 546.888 347.669 547.146 347.669ZM553.56 348.734C553.032 348.734 552.563 348.645 552.153 348.468C551.746 348.29 551.427 348.048 551.195 347.74C550.965 347.43 550.851 347.078 550.854 346.685C550.851 346.38 550.918 346.099 551.053 345.844C551.188 345.588 551.37 345.375 551.599 345.204C551.831 345.032 552.089 344.921 552.374 344.874V344.824C552 344.742 551.696 344.551 551.464 344.253C551.235 343.952 551.121 343.605 551.124 343.212C551.121 342.838 551.225 342.504 551.436 342.211C551.647 341.917 551.936 341.686 552.303 341.518C552.67 341.348 553.089 341.263 553.56 341.263C554.026 341.263 554.442 341.348 554.806 341.518C555.173 341.686 555.462 341.917 555.673 342.211C555.886 342.504 555.992 342.838 555.992 343.212C555.992 343.605 555.875 343.952 555.641 344.253C555.409 344.551 555.109 344.742 554.742 344.824V344.874C555.026 344.921 555.282 345.032 555.509 345.204C555.739 345.375 555.921 345.588 556.056 345.844C556.193 346.099 556.262 346.38 556.262 346.685C556.262 347.078 556.146 347.43 555.914 347.74C555.682 348.048 555.362 348.29 554.955 348.468C554.55 348.645 554.085 348.734 553.56 348.734ZM553.56 347.719C553.832 347.719 554.069 347.672 554.27 347.58C554.471 347.485 554.627 347.353 554.739 347.182C554.85 347.012 554.907 346.815 554.909 346.593C554.907 346.361 554.846 346.156 554.728 345.979C554.612 345.799 554.452 345.658 554.249 345.556C554.047 345.454 553.818 345.403 553.56 345.403C553.299 345.403 553.067 345.454 552.864 345.556C552.66 345.658 552.499 345.799 552.381 345.979C552.265 346.156 552.208 346.361 552.21 346.593C552.208 346.815 552.262 347.012 552.374 347.182C552.485 347.35 552.641 347.482 552.842 347.577C553.046 347.671 553.285 347.719 553.56 347.719ZM553.56 344.405C553.782 344.405 553.979 344.36 554.149 344.27C554.322 344.18 554.458 344.055 554.558 343.894C554.657 343.733 554.708 343.547 554.71 343.336C554.708 343.128 554.658 342.946 554.561 342.79C554.464 342.631 554.329 342.509 554.156 342.424C553.983 342.336 553.785 342.292 553.56 342.292C553.33 342.292 553.128 342.336 552.952 342.424C552.78 342.509 552.645 342.631 552.548 342.79C552.453 342.946 552.407 343.128 552.409 343.336C552.407 343.547 552.454 343.733 552.551 343.894C552.651 344.053 552.787 344.178 552.96 344.27C553.135 344.36 553.335 344.405 553.56 344.405ZM560.04 348.734C559.528 348.734 559.074 348.647 558.676 348.471C558.281 348.296 557.968 348.052 557.738 347.74C557.509 347.427 557.387 347.066 557.373 346.657H558.708C558.72 346.853 558.785 347.025 558.903 347.172C559.022 347.316 559.179 347.429 559.376 347.509C559.572 347.59 559.792 347.63 560.036 347.63C560.296 347.63 560.527 347.585 560.729 347.495C560.93 347.403 561.087 347.275 561.201 347.111C561.314 346.948 561.37 346.76 561.368 346.547C561.37 346.327 561.313 346.132 561.197 345.964C561.081 345.796 560.913 345.665 560.693 345.57C560.475 345.475 560.212 345.428 559.905 345.428H559.262V344.412H559.905C560.158 344.412 560.379 344.369 560.569 344.281C560.76 344.193 560.911 344.07 561.02 343.912C561.129 343.751 561.182 343.565 561.18 343.354C561.182 343.148 561.136 342.97 561.041 342.818C560.949 342.664 560.817 342.545 560.647 342.459C560.479 342.374 560.281 342.331 560.054 342.331C559.831 342.331 559.625 342.372 559.436 342.452C559.247 342.533 559.094 342.648 558.978 342.797C558.862 342.943 558.8 343.119 558.793 343.322H557.525C557.535 342.915 557.652 342.558 557.877 342.25C558.104 341.94 558.407 341.698 558.786 341.525C559.165 341.35 559.59 341.263 560.061 341.263C560.546 341.263 560.968 341.354 561.325 341.536C561.685 341.716 561.963 341.959 562.16 342.264C562.356 342.569 562.454 342.907 562.454 343.276C562.457 343.686 562.336 344.029 562.092 344.306C561.851 344.583 561.533 344.764 561.14 344.849V344.906C561.652 344.977 562.044 345.166 562.316 345.474C562.59 345.78 562.727 346.16 562.724 346.614C562.724 347.021 562.608 347.386 562.376 347.708C562.147 348.028 561.829 348.278 561.425 348.461C561.022 348.643 560.56 348.734 560.04 348.734ZM566.472 348.734C565.998 348.734 565.574 348.645 565.2 348.468C564.826 348.288 564.529 348.042 564.309 347.729C564.091 347.417 563.975 347.059 563.961 346.657H565.239C565.263 346.955 565.392 347.199 565.626 347.388C565.861 347.575 566.143 347.669 566.472 347.669C566.73 347.669 566.959 347.61 567.161 347.491C567.362 347.373 567.52 347.208 567.636 346.998C567.752 346.787 567.809 346.547 567.807 346.277C567.809 346.002 567.751 345.758 567.633 345.545C567.514 345.332 567.352 345.165 567.146 345.045C566.94 344.921 566.704 344.86 566.436 344.86C566.218 344.858 566.004 344.898 565.793 344.981C565.583 345.064 565.416 345.172 565.293 345.307L564.103 345.112L564.483 341.362H568.702V342.463H565.573L565.364 344.391H565.406C565.541 344.233 565.732 344.101 565.978 343.997C566.224 343.89 566.494 343.837 566.788 343.837C567.228 343.837 567.621 343.941 567.967 344.15C568.312 344.356 568.585 344.64 568.783 345.002C568.982 345.364 569.082 345.778 569.082 346.245C569.082 346.725 568.97 347.154 568.748 347.53C568.528 347.904 568.221 348.199 567.828 348.415C567.438 348.628 566.985 348.734 566.472 348.734Z" fill="#C6C6C6"/>
<path d="M88.3592 198.789V199.847H85.085V198.789H88.3592ZM92.3604 203.054C92.0124 203.051 91.6727 202.991 91.3413 202.872C91.0098 202.752 90.7115 202.556 90.4464 202.286C90.1812 202.014 89.9705 201.653 89.8143 201.203C89.658 200.751 89.5811 200.191 89.5835 199.524C89.5835 198.901 89.6497 198.346 89.7823 197.858C89.9149 197.371 90.1055 196.959 90.354 196.622C90.6026 196.284 90.9021 196.026 91.2525 195.848C91.6052 195.671 91.9994 195.582 92.435 195.582C92.8919 195.582 93.2968 195.672 93.6495 195.852C94.0046 196.032 94.2911 196.278 94.5089 196.59C94.7267 196.901 94.8616 197.251 94.9137 197.642H93.6175C93.5513 197.362 93.4151 197.14 93.2092 196.974C93.0056 196.806 92.7475 196.722 92.435 196.722C91.9308 196.722 91.5425 196.941 91.2702 197.379C91.0004 197.817 90.8642 198.418 90.8619 199.183H90.9116C91.0276 198.974 91.1779 198.796 91.3626 198.647C91.5472 198.497 91.7556 198.383 91.9876 198.302C92.2219 198.219 92.4693 198.178 92.7298 198.178C93.1559 198.178 93.5382 198.28 93.8768 198.483C94.2177 198.687 94.4876 198.967 94.6864 199.325C94.8853 199.68 94.9835 200.087 94.9812 200.546C94.9835 201.025 94.8746 201.454 94.6545 201.835C94.4343 202.214 94.1277 202.513 93.7347 202.73C93.3417 202.948 92.8836 203.056 92.3604 203.054ZM92.3533 201.988C92.6114 201.988 92.8422 201.925 93.0458 201.8C93.2494 201.675 93.4104 201.505 93.5288 201.292C93.6471 201.079 93.7051 200.84 93.7028 200.575C93.7051 200.314 93.6483 200.079 93.5323 199.868C93.4187 199.657 93.2612 199.491 93.06 199.367C92.8588 199.244 92.6291 199.183 92.3711 199.183C92.1793 199.183 92.0006 199.219 91.8349 199.293C91.6692 199.366 91.5247 199.468 91.4016 199.598C91.2785 199.726 91.1815 199.875 91.1104 200.046C91.0418 200.214 91.0063 200.394 91.0039 200.585C91.0063 200.839 91.0655 201.072 91.1815 201.285C91.2975 201.498 91.4573 201.669 91.6609 201.796C91.8645 201.924 92.0953 201.988 92.3533 201.988ZM96.4478 202.954L99.5408 196.832V196.782H95.9506V195.681H100.904V196.807L97.815 202.954H96.4478ZM101.607 203.032C101.391 203.032 101.207 202.956 101.053 202.805C100.899 202.653 100.823 202.469 100.825 202.251C100.823 202.038 100.899 201.856 101.053 201.704C101.207 201.553 101.391 201.477 101.607 201.477C101.815 201.477 101.996 201.553 102.15 201.704C102.306 201.856 102.386 202.038 102.388 202.251C102.386 202.395 102.348 202.527 102.274 202.645C102.203 202.764 102.109 202.858 101.99 202.929C101.874 202.998 101.746 203.032 101.607 203.032ZM106.142 203.054C105.668 203.054 105.244 202.965 104.87 202.787C104.496 202.607 104.199 202.361 103.979 202.049C103.761 201.736 103.645 201.379 103.631 200.976H104.909C104.933 201.274 105.062 201.518 105.296 201.708C105.531 201.895 105.812 201.988 106.142 201.988C106.4 201.988 106.629 201.929 106.83 201.811C107.032 201.692 107.19 201.528 107.306 201.317C107.422 201.106 107.479 200.866 107.477 200.596C107.479 200.322 107.421 200.078 107.303 199.865C107.184 199.652 107.022 199.485 106.816 199.364C106.61 199.241 106.374 199.179 106.106 199.179C105.888 199.177 105.674 199.217 105.463 199.3C105.253 199.383 105.086 199.492 104.963 199.627L103.773 199.431L104.153 195.681H108.372V196.782H105.243L105.034 198.71H105.076C105.211 198.552 105.402 198.42 105.648 198.316C105.894 198.21 106.164 198.157 106.458 198.157C106.898 198.157 107.291 198.261 107.637 198.469C107.982 198.675 108.254 198.959 108.453 199.321C108.652 199.684 108.752 200.098 108.752 200.564C108.752 201.045 108.64 201.473 108.418 201.85C108.198 202.224 107.891 202.518 107.498 202.734C107.107 202.947 106.655 203.054 106.142 203.054ZM113.945 201.96L113.899 202.35C113.866 202.649 113.807 202.952 113.721 203.259C113.639 203.57 113.551 203.855 113.459 204.115C113.366 204.376 113.292 204.581 113.235 204.73H112.368C112.402 204.585 112.447 204.389 112.503 204.14C112.563 203.892 112.619 203.612 112.674 203.302C112.728 202.992 112.765 202.677 112.784 202.358L112.809 201.96H113.945ZM120.315 203.093C119.73 203.093 119.228 202.945 118.809 202.649C118.393 202.35 118.072 201.921 117.847 201.36C117.624 200.796 117.513 200.118 117.513 199.325C117.516 198.532 117.628 197.857 117.85 197.301C118.075 196.742 118.396 196.316 118.813 196.022C119.232 195.729 119.733 195.582 120.315 195.582C120.897 195.582 121.398 195.729 121.817 196.022C122.236 196.316 122.557 196.742 122.779 197.301C123.004 197.859 123.117 198.534 123.117 199.325C123.117 200.12 123.004 200.8 122.779 201.363C122.557 201.924 122.236 202.353 121.817 202.649C121.4 202.945 120.9 203.093 120.315 203.093ZM120.315 201.981C120.77 201.981 121.128 201.757 121.391 201.31C121.656 200.86 121.789 200.198 121.789 199.325C121.789 198.747 121.728 198.262 121.608 197.869C121.487 197.476 121.316 197.18 121.096 196.981C120.876 196.78 120.616 196.679 120.315 196.679C119.863 196.679 119.505 196.904 119.243 197.354C118.98 197.801 118.847 198.458 118.845 199.325C118.842 199.905 118.9 200.393 119.019 200.788C119.14 201.183 119.31 201.482 119.53 201.683C119.75 201.882 120.012 201.981 120.315 201.981ZM126.96 203.054C126.612 203.051 126.272 202.991 125.941 202.872C125.609 202.752 125.311 202.556 125.046 202.286C124.781 202.014 124.57 201.653 124.414 201.203C124.258 200.751 124.181 200.191 124.183 199.524C124.183 198.901 124.249 198.346 124.382 197.858C124.515 197.371 124.705 196.959 124.954 196.622C125.202 196.284 125.502 196.026 125.852 195.848C126.205 195.671 126.599 195.582 127.035 195.582C127.492 195.582 127.896 195.672 128.249 195.852C128.604 196.032 128.891 196.278 129.108 196.59C129.326 196.901 129.461 197.251 129.513 197.642H128.217C128.151 197.362 128.015 197.14 127.809 196.974C127.605 196.806 127.347 196.722 127.035 196.722C126.53 196.722 126.142 196.941 125.87 197.379C125.6 197.817 125.464 198.418 125.461 199.183H125.511C125.627 198.974 125.778 198.796 125.962 198.647C126.147 198.497 126.355 198.383 126.587 198.302C126.822 198.219 127.069 198.178 127.329 198.178C127.756 198.178 128.138 198.28 128.476 198.483C128.817 198.687 129.087 198.967 129.286 199.325C129.485 199.68 129.583 200.087 129.581 200.546C129.583 201.025 129.474 201.454 129.254 201.835C129.034 202.214 128.727 202.513 128.334 202.73C127.941 202.948 127.483 203.056 126.96 203.054ZM126.953 201.988C127.211 201.988 127.442 201.925 127.645 201.8C127.849 201.675 128.01 201.505 128.128 201.292C128.247 201.079 128.305 200.84 128.302 200.575C128.305 200.314 128.248 200.079 128.132 199.868C128.018 199.657 127.861 199.491 127.66 199.367C127.458 199.244 127.229 199.183 126.971 199.183C126.779 199.183 126.6 199.219 126.434 199.293C126.269 199.366 126.124 199.468 126.001 199.598C125.878 199.726 125.781 199.875 125.71 200.046C125.641 200.214 125.606 200.394 125.604 200.585C125.606 200.839 125.665 201.072 125.781 201.285C125.897 201.498 126.057 201.669 126.26 201.796C126.464 201.924 126.695 201.988 126.953 201.988Z" fill="#C6C6C6"/>
<path d="M101.016 137.6V138.658H97.7423V137.6H101.016ZM104.94 141.865C104.412 141.865 103.943 141.776 103.533 141.598C103.126 141.421 102.806 141.178 102.574 140.87C102.345 140.56 102.231 140.209 102.234 139.816C102.231 139.51 102.297 139.23 102.432 138.974C102.567 138.718 102.75 138.505 102.979 138.335C103.211 138.162 103.469 138.052 103.753 138.004V137.955C103.379 137.872 103.076 137.681 102.844 137.383C102.615 137.082 102.501 136.736 102.503 136.343C102.501 135.968 102.605 135.635 102.816 135.341C103.027 135.048 103.315 134.817 103.682 134.649C104.049 134.478 104.468 134.393 104.94 134.393C105.406 134.393 105.821 134.478 106.186 134.649C106.553 134.817 106.842 135.048 107.052 135.341C107.266 135.635 107.372 135.968 107.372 136.343C107.372 136.736 107.255 137.082 107.021 137.383C106.789 137.681 106.489 137.872 106.122 137.955V138.004C106.406 138.052 106.662 138.162 106.889 138.335C107.119 138.505 107.301 138.718 107.436 138.974C107.573 139.23 107.642 139.51 107.642 139.816C107.642 140.209 107.526 140.56 107.294 140.87C107.062 141.178 106.742 141.421 106.335 141.598C105.93 141.776 105.465 141.865 104.94 141.865ZM104.94 140.849C105.212 140.849 105.449 140.803 105.65 140.71C105.851 140.616 106.007 140.483 106.119 140.313C106.23 140.142 106.287 139.946 106.289 139.723C106.287 139.491 106.226 139.286 106.108 139.109C105.992 138.929 105.832 138.788 105.628 138.686C105.427 138.585 105.198 138.534 104.94 138.534C104.679 138.534 104.447 138.585 104.244 138.686C104.04 138.788 103.879 138.929 103.761 139.109C103.645 139.286 103.588 139.491 103.59 139.723C103.588 139.946 103.642 140.142 103.753 140.313C103.865 140.481 104.021 140.612 104.222 140.707C104.426 140.802 104.665 140.849 104.94 140.849ZM104.94 137.536C105.162 137.536 105.359 137.491 105.529 137.401C105.702 137.311 105.838 137.185 105.937 137.024C106.037 136.863 106.088 136.678 106.09 136.467C106.088 136.259 106.038 136.076 105.941 135.92C105.844 135.761 105.709 135.639 105.536 135.554C105.363 135.467 105.164 135.423 104.94 135.423C104.71 135.423 104.507 135.467 104.332 135.554C104.159 135.639 104.025 135.761 103.927 135.92C103.833 136.076 103.787 136.259 103.789 136.467C103.787 136.678 103.834 136.863 103.931 137.024C104.03 137.183 104.167 137.308 104.339 137.401C104.515 137.491 104.715 137.536 104.94 137.536ZM111.338 141.865C110.864 141.865 110.441 141.776 110.066 141.598C109.692 141.418 109.395 141.172 109.175 140.86C108.957 140.547 108.841 140.19 108.827 139.787H110.106C110.129 140.085 110.258 140.329 110.493 140.519C110.727 140.706 111.009 140.799 111.338 140.799C111.596 140.799 111.825 140.74 112.027 140.622C112.228 140.503 112.387 140.339 112.503 140.128C112.619 139.917 112.675 139.677 112.673 139.407C112.675 139.133 112.617 138.889 112.499 138.676C112.381 138.463 112.218 138.296 112.013 138.175C111.807 138.052 111.57 137.99 111.302 137.99C111.084 137.988 110.87 138.028 110.66 138.111C110.449 138.194 110.282 138.303 110.159 138.438L108.969 138.242L109.349 134.492H113.568V135.593H110.439L110.23 137.522H110.272C110.407 137.363 110.598 137.232 110.844 137.127C111.09 137.021 111.36 136.968 111.654 136.968C112.094 136.968 112.487 137.072 112.833 137.28C113.178 137.486 113.451 137.77 113.65 138.132C113.848 138.495 113.948 138.909 113.948 139.375C113.948 139.856 113.837 140.284 113.614 140.661C113.394 141.035 113.087 141.33 112.694 141.545C112.304 141.758 111.852 141.865 111.338 141.865ZM119.141 140.771L119.095 141.161C119.062 141.46 119.003 141.763 118.918 142.071C118.835 142.381 118.747 142.666 118.655 142.926C118.563 143.187 118.488 143.392 118.431 143.541H117.565C117.598 143.396 117.643 143.2 117.7 142.951C117.759 142.703 117.816 142.423 117.87 142.113C117.925 141.803 117.961 141.488 117.98 141.169L118.005 140.771H119.141ZM125.511 141.904C124.927 141.904 124.425 141.756 124.006 141.46C123.589 141.161 123.268 140.732 123.043 140.171C122.821 139.607 122.709 138.929 122.709 138.136C122.712 137.343 122.824 136.668 123.047 136.112C123.272 135.553 123.592 135.127 124.009 134.833C124.428 134.54 124.929 134.393 125.511 134.393C126.094 134.393 126.594 134.54 127.013 134.833C127.432 135.127 127.753 135.553 127.976 136.112C128.201 136.67 128.313 137.345 128.313 138.136C128.313 138.931 128.201 139.611 127.976 140.174C127.753 140.735 127.432 141.164 127.013 141.46C126.597 141.756 126.096 141.904 125.511 141.904ZM125.511 140.792C125.966 140.792 126.324 140.568 126.587 140.121C126.852 139.671 126.985 139.009 126.985 138.136C126.985 137.558 126.925 137.073 126.804 136.68C126.683 136.287 126.513 135.991 126.293 135.792C126.072 135.591 125.812 135.49 125.511 135.49C125.059 135.49 124.702 135.715 124.439 136.165C124.176 136.612 124.043 137.269 124.041 138.136C124.039 138.716 124.097 139.204 124.215 139.599C124.336 139.994 124.506 140.293 124.726 140.494C124.947 140.693 125.208 140.792 125.511 140.792Z" fill="#C6C6C6"/>
<path d="M79.3592 76.4107V77.4689H76.085V76.4107H79.3592ZM83.6552 73.3034V80.5762H82.3377V74.5854H82.2951L80.5941 75.6721V74.4647L82.4016 73.3034H83.6552ZM88.19 80.7147C87.6052 80.7147 87.1033 80.5667 86.6843 80.2708C86.2676 79.9725 85.9469 79.5428 85.7219 78.9817C85.4994 78.4183 85.3881 77.74 85.3881 76.9469C85.3905 76.1538 85.503 75.4791 85.7255 74.9228C85.9504 74.3641 86.2712 73.9379 86.6879 73.6444C87.1069 73.3508 87.6076 73.204 88.19 73.204C88.7724 73.204 89.2731 73.3508 89.6921 73.6444C90.1112 73.9379 90.4319 74.3641 90.6545 74.9228C90.8794 75.4815 90.9918 76.1562 90.9918 76.9469C90.9918 77.7424 90.8794 78.4218 90.6545 78.9853C90.4319 79.5463 90.1112 79.9748 89.6921 80.2708C89.2754 80.5667 88.7747 80.7147 88.19 80.7147ZM88.19 79.6032C88.6445 79.6032 89.0032 79.3794 89.266 78.932C89.5311 78.4822 89.6637 77.8205 89.6637 76.9469C89.6637 76.3693 89.6033 75.8839 89.4826 75.4909C89.3619 75.098 89.1914 74.802 88.9712 74.6032C88.7511 74.4019 88.4906 74.3013 88.19 74.3013C87.7378 74.3013 87.3803 74.5262 87.1175 74.976C86.8548 75.4235 86.7222 76.0804 86.7198 76.9469C86.7174 77.5269 86.7754 78.0146 86.8938 78.41C87.0146 78.8053 87.185 79.1036 87.4052 79.3049C87.6254 79.5037 87.887 79.6032 88.19 79.6032ZM92.1717 80.5762V79.6245L94.6966 77.1493C94.938 76.9055 95.1393 76.6889 95.3002 76.4995C95.4612 76.3101 95.582 76.1266 95.6625 75.949C95.743 75.7715 95.7832 75.5821 95.7832 75.3809C95.7832 75.1512 95.7311 74.9547 95.627 74.7914C95.5228 74.6257 95.3796 74.4978 95.1973 74.4078C95.015 74.3179 94.8078 74.2729 94.5758 74.2729C94.3367 74.2729 94.1272 74.3226 93.9473 74.4221C93.7673 74.5191 93.6277 74.6576 93.5282 74.8375C93.4312 75.0175 93.3826 75.2317 93.3826 75.4803H92.1291C92.1291 75.0186 92.2344 74.6174 92.4451 74.2765C92.6558 73.9355 92.9458 73.6716 93.3152 73.4846C93.6868 73.2975 94.113 73.204 94.5936 73.204C95.0813 73.204 95.5098 73.2952 95.8791 73.4775C96.2484 73.6597 96.5349 73.9095 96.7385 74.2267C96.9444 74.544 97.0474 74.9062 97.0474 75.3134C97.0474 75.5856 96.9953 75.8532 96.8912 76.1159C96.787 76.3787 96.6035 76.6699 96.3407 76.9895C96.0803 77.3091 95.7145 77.6962 95.2434 78.1507L93.9899 79.4256V79.4753H97.1575V80.5762H92.1717ZM99.1887 80.6543C98.9733 80.6543 98.7886 80.5785 98.6348 80.427C98.4809 80.2755 98.4051 80.0908 98.4075 79.873C98.4051 79.66 98.4809 79.4777 98.6348 79.3262C98.7886 79.1747 98.9733 79.0989 99.1887 79.0989C99.3971 79.0989 99.5782 79.1747 99.7321 79.3262C99.8883 79.4777 99.9676 79.66 99.97 79.873C99.9676 80.0175 99.9297 80.1489 99.8564 80.2672C99.7853 80.3856 99.6906 80.4803 99.5723 80.5513C99.4563 80.62 99.3284 80.6543 99.1887 80.6543ZM103.724 80.6756C103.25 80.6756 102.826 80.5868 102.452 80.4093C102.078 80.2293 101.781 79.9831 101.561 79.6706C101.343 79.3581 101.227 79.0007 101.213 78.5982H102.491C102.515 78.8965 102.644 79.1403 102.878 79.3297C103.113 79.5167 103.394 79.6103 103.724 79.6103C103.982 79.6103 104.211 79.5511 104.412 79.4327C104.614 79.3143 104.772 79.1498 104.888 78.9391C105.004 78.7284 105.061 78.4881 105.059 78.2182C105.061 77.9436 105.003 77.6998 104.885 77.4867C104.766 77.2736 104.604 77.1067 104.398 76.986C104.192 76.8629 103.956 76.8013 103.688 76.8013C103.47 76.7989 103.256 76.8392 103.045 76.9221C102.835 77.0049 102.668 77.1138 102.545 77.2488L101.355 77.0534L101.735 73.3034H105.954V74.4043H102.825L102.616 76.3326H102.658C102.793 76.1739 102.984 76.0426 103.23 75.9384C103.476 75.8319 103.746 75.7786 104.04 75.7786C104.48 75.7786 104.873 75.8828 105.219 76.0911C105.564 76.2971 105.836 76.5811 106.035 76.9434C106.234 77.3056 106.334 77.7199 106.334 78.1863C106.334 78.6668 106.222 79.0953 106 79.4718C105.78 79.8458 105.473 80.1406 105.08 80.356C104.689 80.5691 104.237 80.6756 103.724 80.6756ZM111.527 79.5819L111.481 79.9725C111.448 80.2708 111.389 80.5738 111.303 80.8816C111.221 81.1917 111.133 81.477 111.041 81.7374C110.948 81.9978 110.874 82.2026 110.817 82.3517H109.95C109.984 82.2073 110.029 82.0108 110.085 81.7623C110.145 81.5137 110.201 81.2343 110.256 80.9242C110.31 80.6141 110.347 80.2992 110.366 79.9796L110.391 79.5819H111.527ZM118.529 76.4107V77.4689H115.255V76.4107H118.529ZM122.555 80.7147C121.97 80.7147 121.469 80.5667 121.05 80.2708C120.633 79.9725 120.312 79.5428 120.087 78.9817C119.865 78.4183 119.753 77.74 119.753 76.9469C119.756 76.1538 119.868 75.4791 120.091 74.9228C120.316 74.3641 120.636 73.9379 121.053 73.6444C121.472 73.3508 121.973 73.204 122.555 73.204C123.138 73.204 123.638 73.3508 124.057 73.6444C124.476 73.9379 124.797 74.3641 125.02 74.9228C125.245 75.4815 125.357 76.1562 125.357 76.9469C125.357 77.7424 125.245 78.4218 125.02 78.9853C124.797 79.5463 124.476 79.9748 124.057 80.2708C123.641 80.5667 123.14 80.7147 122.555 80.7147ZM122.555 79.6032C123.01 79.6032 123.368 79.3794 123.631 78.932C123.896 78.4822 124.029 77.8205 124.029 76.9469C124.029 76.3693 123.969 75.8839 123.848 75.4909C123.727 75.098 123.557 74.802 123.336 74.6032C123.116 74.4019 122.856 74.3013 122.555 74.3013C122.103 74.3013 121.746 74.5262 121.483 74.976C121.22 75.4235 121.087 76.0804 121.085 76.9469C121.083 77.5269 121.141 78.0146 121.259 78.41C121.38 78.8053 121.55 79.1036 121.77 79.3049C121.991 79.5037 122.252 79.6032 122.555 79.6032ZM129.2 80.6756C128.852 80.6732 128.513 80.6129 128.181 80.4945C127.85 80.3738 127.551 80.1784 127.286 79.9086C127.021 79.6363 126.81 79.2753 126.654 78.8255C126.498 78.3733 126.421 77.8134 126.423 77.1458C126.423 76.5231 126.49 75.968 126.622 75.4803C126.755 74.9926 126.945 74.5807 127.194 74.2445C127.442 73.906 127.742 73.6479 128.092 73.4703C128.445 73.2928 128.839 73.204 129.275 73.204C129.732 73.204 130.137 73.294 130.489 73.4739C130.844 73.6538 131.131 73.9 131.349 74.2125C131.567 74.5227 131.701 74.873 131.754 75.2637H130.457C130.391 74.9843 130.255 74.7618 130.049 74.5961C129.845 74.428 129.587 74.3439 129.275 74.3439C128.771 74.3439 128.382 74.5629 128.11 75.0009C127.84 75.4389 127.704 76.0402 127.702 76.8049H127.751C127.867 76.5965 128.018 76.4178 128.202 76.2686C128.387 76.1195 128.595 76.0047 128.827 75.9242C129.062 75.8413 129.309 75.7999 129.57 75.7999C129.996 75.7999 130.378 75.9017 130.717 76.1053C131.058 76.3089 131.327 76.5894 131.526 76.9469C131.725 77.302 131.823 77.7092 131.821 78.1685C131.823 78.6467 131.714 79.0764 131.494 79.4576C131.274 79.8364 130.968 80.1346 130.575 80.3525C130.182 80.5703 129.723 80.678 129.2 80.6756ZM129.193 79.6103C129.451 79.6103 129.682 79.5475 129.886 79.4221C130.089 79.2966 130.25 79.1273 130.369 78.9142C130.487 78.7012 130.545 78.4621 130.543 78.1969C130.545 77.9365 130.488 77.7009 130.372 77.4902C130.259 77.2795 130.101 77.1126 129.9 76.9895C129.699 76.8664 129.469 76.8049 129.211 76.8049C129.019 76.8049 128.84 76.8416 128.675 76.915C128.509 76.9883 128.365 77.0901 128.241 77.2203C128.118 77.3482 128.021 77.4973 127.95 77.6678C127.882 77.8359 127.846 78.0158 127.844 78.2076C127.846 78.4609 127.905 78.6941 128.021 78.9071C128.137 79.1202 128.297 79.2907 128.501 79.4185C128.704 79.5463 128.935 79.6103 129.193 79.6103Z" fill="#C6C6C6"/>
<rect x="255.85" y="210.952" width="34.0483" height="35.0171" fill="white"/>
<circle cx="153.828" cy="369.412" r="5.30127" transform="rotate(47.597 153.828 369.412)" fill="#FFC54F"/>
<circle cx="209.683" cy="369.97" r="5.30127" fill="#50C8A7"/>
<path d="M175.217 368.762C175.183 368.452 175.044 368.21 174.798 368.037C174.554 367.864 174.237 367.778 173.846 367.778C173.571 367.778 173.336 367.819 173.139 367.902C172.943 367.985 172.792 368.098 172.688 368.24C172.584 368.382 172.531 368.544 172.528 368.726C172.528 368.878 172.563 369.009 172.631 369.12C172.702 369.232 172.798 369.326 172.919 369.404C173.04 369.48 173.174 369.544 173.32 369.596C173.467 369.648 173.615 369.692 173.764 369.728L174.446 369.898C174.721 369.962 174.985 370.048 175.238 370.157C175.494 370.266 175.722 370.404 175.923 370.569C176.127 370.735 176.288 370.935 176.406 371.169C176.525 371.404 176.584 371.678 176.584 371.993C176.584 372.419 176.475 372.795 176.257 373.119C176.039 373.441 175.724 373.693 175.312 373.875C174.903 374.055 174.407 374.145 173.825 374.145C173.259 374.145 172.768 374.058 172.351 373.882C171.937 373.707 171.612 373.452 171.378 373.115C171.146 372.779 171.02 372.37 171.001 371.887H172.298C172.317 372.14 172.395 372.351 172.532 372.519C172.669 372.687 172.848 372.812 173.068 372.895C173.291 372.978 173.539 373.02 173.814 373.02C174.1 373.02 174.351 372.977 174.567 372.892C174.785 372.804 174.955 372.683 175.078 372.529C175.201 372.373 175.264 372.191 175.266 371.983C175.264 371.793 175.208 371.637 175.099 371.514C174.991 371.388 174.838 371.284 174.641 371.201C174.447 371.116 174.22 371.04 173.96 370.974L173.132 370.761C172.533 370.607 172.06 370.374 171.712 370.061C171.366 369.747 171.193 369.329 171.193 368.808C171.193 368.379 171.309 368.004 171.541 367.682C171.776 367.36 172.094 367.11 172.496 366.933C172.899 366.753 173.355 366.663 173.864 366.663C174.38 366.663 174.832 366.753 175.22 366.933C175.611 367.11 175.917 367.358 176.14 367.675C176.362 367.99 176.477 368.352 176.484 368.762H175.217ZM183.735 366.762V374.035H182.563L179.136 369.081H179.076V374.035H177.758V366.762H178.937L182.361 371.72H182.425V366.762H183.735ZM185.17 374.035V366.762H187.898C188.456 366.762 188.925 366.859 189.304 367.054C189.685 367.248 189.973 367.52 190.167 367.87C190.363 368.218 190.462 368.624 190.462 369.088C190.462 369.555 190.362 369.96 190.163 370.303C189.967 370.644 189.677 370.908 189.293 371.095C188.91 371.279 188.439 371.372 187.88 371.372H185.938V370.278H187.702C188.029 370.278 188.297 370.233 188.505 370.143C188.713 370.051 188.867 369.917 188.967 369.742C189.068 369.564 189.119 369.346 189.119 369.088C189.119 368.83 189.068 368.61 188.967 368.428C188.865 368.243 188.71 368.104 188.501 368.009C188.293 367.912 188.024 367.863 187.695 367.863H186.488V374.035H185.17ZM188.928 370.74L190.728 374.035H189.258L187.489 370.74H188.928Z" fill="#C6C6C6"/>
<path d="M227.758 374.035V366.762H230.486C231.044 366.762 231.513 366.859 231.892 367.054C232.273 367.248 232.561 367.52 232.755 367.87C232.951 368.218 233.05 368.624 233.05 369.088C233.05 369.555 232.95 369.96 232.751 370.303C232.555 370.644 232.265 370.908 231.881 371.095C231.498 371.279 231.027 371.372 230.468 371.372H228.525V370.278H230.29C230.617 370.278 230.885 370.233 231.093 370.143C231.301 370.051 231.455 369.917 231.555 369.742C231.656 369.564 231.707 369.346 231.707 369.088C231.707 368.83 231.656 368.61 231.555 368.428C231.453 368.243 231.298 368.104 231.089 368.009C230.881 367.912 230.612 367.863 230.283 367.863H229.076V374.035H227.758ZM231.515 370.74L233.316 374.035H231.846L230.077 370.74H231.515ZM238.215 368.762C238.182 368.452 238.042 368.21 237.796 368.037C237.552 367.864 237.235 367.778 236.844 367.778C236.569 367.778 236.334 367.819 236.137 367.902C235.941 367.985 235.79 368.098 235.686 368.24C235.582 368.382 235.529 368.544 235.526 368.726C235.526 368.878 235.561 369.009 235.629 369.12C235.7 369.232 235.796 369.326 235.917 369.404C236.038 369.48 236.172 369.544 236.318 369.596C236.465 369.648 236.613 369.692 236.762 369.728L237.444 369.898C237.719 369.962 237.983 370.048 238.236 370.157C238.492 370.266 238.72 370.404 238.921 370.569C239.125 370.735 239.286 370.935 239.404 371.169C239.523 371.404 239.582 371.678 239.582 371.993C239.582 372.419 239.473 372.795 239.255 373.119C239.037 373.441 238.722 373.693 238.311 373.875C237.901 374.055 237.405 374.145 236.823 374.145C236.257 374.145 235.766 374.058 235.349 373.882C234.935 373.707 234.61 373.452 234.376 373.115C234.144 372.779 234.018 372.37 233.999 371.887H235.296C235.315 372.14 235.393 372.351 235.53 372.519C235.667 372.687 235.846 372.812 236.066 372.895C236.289 372.978 236.537 373.02 236.812 373.02C237.098 373.02 237.349 372.977 237.565 372.892C237.783 372.804 237.953 372.683 238.076 372.529C238.199 372.373 238.262 372.191 238.264 371.983C238.262 371.793 238.206 371.637 238.097 371.514C237.989 371.388 237.836 371.284 237.639 371.201C237.445 371.116 237.218 371.04 236.958 370.974L236.13 370.761C235.531 370.607 235.058 370.374 234.71 370.061C234.364 369.747 234.191 369.329 234.191 368.808C234.191 368.379 234.307 368.004 234.539 367.682C234.774 367.36 235.092 367.11 235.494 366.933C235.897 366.753 236.353 366.663 236.862 366.663C237.378 366.663 237.83 366.753 238.218 366.933C238.609 367.11 238.915 367.358 239.138 367.675C239.36 367.99 239.475 368.352 239.482 368.762H238.215ZM244.709 368.762C244.676 368.452 244.536 368.21 244.29 368.037C244.046 367.864 243.729 367.778 243.338 367.778C243.063 367.778 242.828 367.819 242.631 367.902C242.435 367.985 242.285 368.098 242.18 368.24C242.076 368.382 242.023 368.544 242.021 368.726C242.021 368.878 242.055 369.009 242.124 369.12C242.195 369.232 242.29 369.326 242.411 369.404C242.532 369.48 242.666 369.544 242.812 369.596C242.959 369.648 243.107 369.692 243.256 369.728L243.938 369.898C244.213 369.962 244.477 370.048 244.73 370.157C244.986 370.266 245.214 370.404 245.415 370.569C245.619 370.735 245.78 370.935 245.898 371.169C246.017 371.404 246.076 371.678 246.076 371.993C246.076 372.419 245.967 372.795 245.749 373.119C245.531 373.441 245.217 373.693 244.805 373.875C244.395 374.055 243.899 374.145 243.317 374.145C242.751 374.145 242.26 374.058 241.843 373.882C241.429 373.707 241.104 373.452 240.87 373.115C240.638 372.779 240.513 372.37 240.494 371.887H241.79C241.809 372.14 241.887 372.351 242.024 372.519C242.161 372.687 242.34 372.812 242.56 372.895C242.783 372.978 243.031 373.02 243.306 373.02C243.593 373.02 243.844 372.977 244.059 372.892C244.277 372.804 244.447 372.683 244.57 372.529C244.693 372.373 244.756 372.191 244.759 371.983C244.756 371.793 244.701 371.637 244.592 371.514C244.483 371.388 244.33 371.284 244.134 371.201C243.939 371.116 243.712 371.04 243.452 370.974L242.624 370.761C242.025 370.607 241.552 370.374 241.204 370.061C240.858 369.747 240.685 369.329 240.685 368.808C240.685 368.379 240.801 368.004 241.033 367.682C241.268 367.36 241.586 367.11 241.989 366.933C242.391 366.753 242.847 366.663 243.356 366.663C243.872 366.663 244.324 366.753 244.712 366.933C245.103 367.11 245.41 367.358 245.632 367.675C245.855 367.99 245.969 368.352 245.977 368.762H244.709ZM248.568 366.762V374.035H247.251V366.762H248.568Z" fill="#C6C6C6"/>
<defs>
<linearGradient id="paint0_linear_1001_7707" x1="145.12" y1="326.269" x2="597.279" y2="326.269" gradientUnits="userSpaceOnUse">
<stop stop-color="#FF5F9B"/>
<stop offset="1" stop-color="#2F67FF"/>
</linearGradient>
<linearGradient id="paint1_linear_1001_7707" x1="144.621" y1="326.768" x2="144.621" y2="49.1592" gradientUnits="userSpaceOnUse">
<stop stop-color="#FF5F9B"/>
<stop offset="1" stop-color="#2F67FF"/>
</linearGradient>
</defs>
</svg>
