<svg width="649" height="444" viewBox="0 0 649 444" fill="none" xmlns="http://www.w3.org/2000/svg">
<rect width="648.673" height="443.47" rx="20" fill="white"/>
<rect x="283.376" y="173.866" width="48.1667" height="42.5" fill="white"/>
<line x1="598.373" y1="318.609" x2="146.813" y2="318.609" stroke="url(#paint0_linear_1001_7787)" stroke-width="0.6" stroke-linecap="round"/>
<path d="M147.113 40.6992C147.113 40.5335 146.979 40.3992 146.813 40.3992C146.648 40.3992 146.513 40.5335 146.513 40.6992L146.813 40.6992L147.113 40.6992ZM146.813 40.6992L146.513 40.6992L146.513 318.308L146.813 318.308L147.113 318.308L147.113 40.6992L146.813 40.6992Z" fill="url(#paint1_linear_1001_7787)"/>
<path d="M58.7861 243.835L44.2407 243.835L44.2407 238.096C44.2407 236.998 44.4372 236.06 44.8302 235.284C45.2184 234.503 45.77 233.908 46.485 233.501C47.1952 233.089 48.0309 232.883 48.9921 232.883C49.958 232.883 50.789 233.092 51.485 233.508C52.1763 233.925 52.7066 234.529 53.0759 235.319C53.4452 236.105 53.6299 237.057 53.6299 238.174L53.6299 242.017L51.1583 242.017L51.1583 238.672C51.1583 238.084 51.0778 237.597 50.9168 237.208C50.7558 236.82 50.5144 236.531 50.1924 236.342C49.8704 236.148 49.4703 236.051 48.9921 236.051C48.5091 236.051 48.1019 236.148 47.7705 236.342C47.4391 236.531 47.1881 236.823 47.0177 237.216C46.8425 237.604 46.7549 238.094 46.7549 238.686L46.7549 240.76L58.7861 240.76L58.7861 243.835ZM52.1668 235.98L58.7861 232.365L58.7861 235.76L52.1668 239.297L52.1668 235.98ZM48.4239 222.819C47.851 222.876 47.4059 223.12 47.0887 223.551C46.7715 223.982 46.6128 224.566 46.6128 225.305C46.6128 225.807 46.6839 226.231 46.8259 226.576C46.9632 226.922 47.155 227.187 47.4012 227.372C47.6474 227.552 47.9268 227.642 48.2393 227.642C48.4997 227.651 48.7269 227.597 48.9211 227.478C49.1152 227.355 49.2833 227.187 49.4253 226.974C49.5626 226.761 49.6834 226.515 49.7876 226.235C49.887 225.956 49.9722 225.658 50.0432 225.341L50.3557 224.034C50.4978 223.399 50.6872 222.817 50.9239 222.287C51.1607 221.756 51.4519 221.297 51.7975 220.909C52.1431 220.521 52.5503 220.22 53.0191 220.007C53.4878 219.789 54.0252 219.678 54.6313 219.673C55.5215 219.678 56.2932 219.905 56.9466 220.355C57.5953 220.8 58.0996 221.444 58.4594 222.287C58.8145 223.125 58.9921 224.136 58.9921 225.319C58.9921 226.494 58.8122 227.516 58.4523 228.387C58.0925 229.254 57.5598 229.931 56.8543 230.419C56.1441 230.902 55.2658 231.155 54.2194 231.179L54.2194 228.203C54.7071 228.17 55.1143 228.03 55.441 227.784C55.7629 227.533 56.0068 227.199 56.1725 226.782C56.3335 226.361 56.414 225.885 56.414 225.355C56.414 224.834 56.3382 224.382 56.1867 223.998C56.0352 223.61 55.8245 223.309 55.5546 223.096C55.2847 222.883 54.9746 222.777 54.6242 222.777C54.2975 222.777 54.0229 222.874 53.8003 223.068C53.5778 223.257 53.3884 223.537 53.2322 223.906C53.0759 224.271 52.9339 224.718 52.806 225.248L52.4083 226.832C52.11 228.058 51.6436 229.027 51.0091 229.737C50.3747 230.447 49.52 230.8 48.4452 230.795C47.5645 230.8 46.7951 230.566 46.137 230.092C45.4788 229.614 44.9651 228.958 44.5958 228.125C44.2265 227.291 44.0418 226.344 44.0418 225.284C44.0418 224.204 44.2265 223.262 44.5958 222.457C44.9651 221.647 45.4788 221.018 46.137 220.568C46.7951 220.118 47.5574 219.886 48.4239 219.872L48.4239 222.819ZM48.4239 209.714C47.851 209.771 47.4059 210.014 47.0887 210.445C46.7715 210.876 46.6128 211.461 46.6128 212.2C46.6128 212.702 46.6839 213.125 46.8259 213.471C46.9632 213.817 47.155 214.082 47.4012 214.266C47.6474 214.446 47.9268 214.536 48.2393 214.536C48.4997 214.546 48.7269 214.491 48.9211 214.373C49.1152 214.25 49.2833 214.082 49.4253 213.869C49.5626 213.656 49.6834 213.409 49.7876 213.13C49.887 212.851 49.9722 212.552 50.0432 212.235L50.3557 210.928C50.4978 210.294 50.6872 209.711 50.9239 209.181C51.1607 208.651 51.4519 208.192 51.7975 207.803C52.1431 207.415 52.5503 207.114 53.0191 206.901C53.4878 206.684 54.0252 206.572 54.6313 206.568C55.5215 206.572 56.2932 206.8 56.9466 207.249C57.5953 207.694 58.0996 208.338 58.4594 209.181C58.8145 210.019 58.9921 211.03 58.9921 212.214C58.9921 213.388 58.8122 214.411 58.4523 215.282C58.0925 216.148 57.5598 216.826 56.8543 217.313C56.1441 217.796 55.2658 218.05 54.2194 218.073L54.2194 215.097C54.7071 215.064 55.1143 214.925 55.441 214.678C55.7629 214.427 56.0068 214.094 56.1725 213.677C56.3335 213.255 56.414 212.78 56.414 212.249C56.414 211.729 56.3382 211.276 56.1867 210.893C56.0352 210.505 55.8245 210.204 55.5546 209.991C55.2847 209.778 54.9746 209.671 54.6242 209.671C54.2975 209.671 54.0229 209.768 53.8003 209.962C53.5778 210.152 53.3884 210.431 53.2322 210.8C53.0759 211.165 52.9339 211.612 52.806 212.143L52.4083 213.727C52.11 214.953 51.6436 215.921 51.0091 216.631C50.3747 217.342 49.52 217.694 48.4452 217.69C47.5645 217.694 46.7951 217.46 46.137 216.987C45.4788 216.508 44.9651 215.853 44.5958 215.019C44.2265 214.186 44.0418 213.239 44.0418 212.178C44.0418 211.099 44.2265 210.157 44.5958 209.352C44.9651 208.542 45.4788 207.912 46.137 207.462C46.7951 207.013 47.5574 206.781 48.4239 206.766L48.4239 209.714ZM44.2407 201.424L58.7861 201.424L58.7861 204.499L44.2407 204.499L44.2407 201.424ZM58.9992 189.861C58.9992 190.865 58.8193 191.731 58.4594 192.461C58.0996 193.19 57.6119 193.751 56.9964 194.144C56.3761 194.532 55.6848 194.726 54.9225 194.726C54.3543 194.726 53.8501 194.613 53.4097 194.385C52.9694 194.158 52.5645 193.841 52.1952 193.434C51.8212 193.026 51.4495 192.553 51.0802 192.013L49.2265 189.194C48.9945 188.829 48.7506 188.561 48.4949 188.391C48.2345 188.221 47.9528 188.135 47.6498 188.135C47.3609 188.135 47.0934 188.251 46.8472 188.483C46.601 188.715 46.4803 189.044 46.485 189.471C46.485 189.755 46.5489 190.001 46.6768 190.209C46.7999 190.418 46.9632 190.581 47.1668 190.699C47.3657 190.813 47.5882 190.87 47.8344 190.87C48.1375 190.87 48.4452 190.784 48.7577 190.614C49.0702 190.444 49.4017 190.216 49.752 189.932C50.0977 189.648 50.4717 189.338 50.8742 189.002L58.7861 182.106L58.7861 185.259L52.3799 191.012C51.949 191.391 51.4992 191.769 51.0304 192.148C50.557 192.522 50.0551 192.835 49.5248 193.086C48.9897 193.337 48.4097 193.462 47.7847 193.462C47.0792 193.462 46.4447 193.299 45.8813 192.972C45.3179 192.641 44.8728 192.177 44.5461 191.58C44.2146 190.983 44.0489 190.287 44.0489 189.492C44.0489 188.715 44.2075 188.045 44.5248 187.482C44.8373 186.914 45.2539 186.478 45.7748 186.175C46.2909 185.867 46.859 185.713 47.4793 185.713C48.1659 185.713 48.7885 185.884 49.3472 186.225C49.9012 186.561 50.3983 187.034 50.8387 187.645L52.9765 190.614C53.27 191.016 53.5707 191.315 53.8785 191.509C54.1815 191.698 54.4727 191.793 54.752 191.793C55.0977 191.793 55.4078 191.708 55.6824 191.537C55.9571 191.367 56.1749 191.125 56.3358 190.813C56.4921 190.5 56.5702 190.133 56.5702 189.712C56.5702 189.201 56.4542 188.696 56.2222 188.199C55.9855 187.697 55.6517 187.243 55.2208 186.836C54.7852 186.424 54.2691 186.095 53.6725 185.848C53.0759 185.602 52.4154 185.479 51.691 185.479L51.691 182.972C52.5811 182.972 53.3837 183.069 54.0986 183.263C54.8089 183.457 55.4291 183.727 55.9594 184.073C56.485 184.418 56.9159 184.814 57.252 185.259C57.342 185.401 57.4272 185.538 57.5077 185.671C57.5882 185.803 57.6734 185.941 57.7634 186.083C58.199 186.623 58.5139 187.226 58.708 187.894C58.9021 188.557 58.9992 189.213 58.9992 189.861ZM48.4239 168.269C47.851 168.325 47.4059 168.569 47.0887 169C46.7715 169.431 46.6128 170.016 46.6128 170.754C46.6128 171.256 46.6839 171.68 46.8259 172.026C46.9632 172.371 47.155 172.636 47.4012 172.821C47.6474 173.001 47.9268 173.091 48.2393 173.091C48.4997 173.1 48.7269 173.046 48.9211 172.928C49.1152 172.804 49.2833 172.636 49.4253 172.423C49.5626 172.21 49.6834 171.964 49.7875 171.685C49.887 171.405 49.9722 171.107 50.0432 170.79L50.3557 169.483C50.4978 168.849 50.6872 168.266 50.9239 167.736C51.1607 167.206 51.4518 166.746 51.7975 166.358C52.1431 165.97 52.5503 165.669 53.0191 165.456C53.4878 165.238 54.0252 165.127 54.6313 165.122C55.5215 165.127 56.2932 165.354 56.9466 165.804C57.5953 166.249 58.0996 166.893 58.4594 167.736C58.8145 168.574 58.9921 169.585 58.9921 170.769C58.9921 171.943 58.8122 172.965 58.4523 173.837C58.0925 174.703 57.5598 175.38 56.8543 175.868C56.1441 176.351 55.2658 176.604 54.2194 176.628L54.2194 173.652C54.7071 173.619 55.1143 173.479 55.441 173.233C55.7629 172.982 56.0068 172.648 56.1725 172.232C56.3335 171.81 56.414 171.334 56.414 170.804C56.414 170.283 56.3382 169.831 56.1867 169.447C56.0352 169.059 55.8245 168.759 55.5546 168.545C55.2847 168.332 54.9746 168.226 54.6242 168.226C54.2975 168.226 54.0229 168.323 53.8003 168.517C53.5778 168.706 53.3884 168.986 53.2322 169.355C53.0759 169.72 52.9339 170.167 52.806 170.697L52.4083 172.281C52.11 173.508 51.6436 174.476 51.0091 175.186C50.3747 175.896 49.52 176.249 48.4452 176.244C47.5645 176.249 46.7951 176.015 46.137 175.541C45.4788 175.063 44.9651 174.407 44.5958 173.574C44.2265 172.741 44.0418 171.794 44.0418 170.733C44.0418 169.653 44.2265 168.711 44.5958 167.906C44.9651 167.097 45.4788 166.467 46.137 166.017C46.7951 165.567 47.5574 165.335 48.4239 165.321L48.4239 168.269ZM44.2407 150.887L58.7861 150.887L58.7861 153.544L49.6313 159.872L49.6313 159.978L58.7861 159.978L58.7861 163.054L44.2407 163.054L44.2407 160.355L53.3884 154.076L53.3884 153.949L44.2407 153.949L44.2407 150.887ZM58.7861 148.347L44.2407 148.347L44.2407 142.608C44.2407 141.51 44.4372 140.572 44.8302 139.795C45.2184 139.014 45.77 138.42 46.485 138.013C47.1952 137.601 48.0309 137.395 48.9921 137.395C49.958 137.395 50.789 137.603 51.485 138.02C52.1763 138.437 52.7066 139.04 53.0759 139.831C53.4452 140.617 53.6299 141.569 53.6299 142.686L53.6299 146.528L51.1583 146.528L51.1583 143.183C51.1583 142.596 51.0778 142.108 50.9168 141.72C50.7558 141.332 50.5143 141.043 50.1924 140.854C49.8704 140.66 49.4703 140.563 48.9921 140.563C48.5091 140.563 48.1019 140.66 47.7705 140.854C47.4391 141.043 47.1881 141.334 47.0177 141.727C46.8425 142.116 46.7549 142.606 46.7549 143.197L46.7549 145.271L58.7861 145.271L58.7861 148.347ZM52.1668 140.492L58.7861 136.876L58.7861 140.271L52.1668 143.808L52.1668 140.492Z" fill="#1E1E1E"/>
<path d="M293.503 397.771H288.347L288.347 383.226H293.546C295.009 383.226 296.269 383.517 297.324 384.099C298.38 384.677 299.192 385.508 299.761 386.592C300.333 387.676 300.62 388.974 300.62 390.484C300.62 391.999 300.333 393.301 299.761 394.39C299.192 395.479 298.376 396.315 297.31 396.897C296.25 397.48 294.981 397.771 293.503 397.771ZM291.422 395.136H293.376C294.285 395.136 295.049 394.975 295.67 394.653C296.295 394.326 296.763 393.822 297.076 393.14C297.393 392.454 297.552 391.568 297.552 390.484C297.552 389.409 297.393 388.531 297.076 387.849C296.763 387.167 296.297 386.665 295.677 386.343C295.056 386.021 294.292 385.86 293.383 385.86H291.422V395.136ZM302.841 397.771L302.841 386.862H305.867L305.867 397.771H302.841ZM304.361 385.456C303.911 385.456 303.525 385.307 303.203 385.008C302.886 384.705 302.728 384.343 302.728 383.922C302.728 383.505 302.886 383.147 303.203 382.849C303.525 382.546 303.911 382.395 304.361 382.395C304.811 382.395 305.194 382.546 305.512 382.849C305.834 383.147 305.995 383.505 305.995 383.922C305.995 384.343 305.834 384.705 305.512 385.008C305.194 385.307 304.811 385.456 304.361 385.456ZM317.367 389.973L314.597 390.143C314.55 389.906 314.448 389.693 314.292 389.504C314.136 389.31 313.93 389.156 313.674 389.042C313.423 388.924 313.122 388.865 312.772 388.865C312.303 388.865 311.908 388.964 311.586 389.163C311.264 389.357 311.103 389.618 311.103 389.944C311.103 390.205 311.207 390.425 311.415 390.605C311.624 390.785 311.981 390.929 312.488 391.038L314.462 391.436C315.523 391.654 316.314 392.004 316.834 392.487C317.355 392.97 317.616 393.604 317.616 394.39C317.616 395.105 317.405 395.733 316.984 396.272C316.567 396.812 315.994 397.234 315.265 397.537C314.54 397.835 313.705 397.984 312.758 397.984C311.314 397.984 310.163 397.683 309.306 397.082C308.454 396.476 307.954 395.652 307.807 394.61L310.783 394.454C310.873 394.895 311.091 395.231 311.437 395.463C311.782 395.69 312.225 395.804 312.765 395.804C313.295 395.804 313.721 395.702 314.043 395.498C314.37 395.29 314.536 395.022 314.54 394.696C314.536 394.421 314.42 394.196 314.192 394.021C313.965 393.841 313.615 393.704 313.141 393.609L311.252 393.233C310.187 393.02 309.394 392.65 308.873 392.125C308.357 391.599 308.099 390.929 308.099 390.115C308.099 389.414 308.288 388.81 308.667 388.304C309.05 387.797 309.588 387.406 310.279 387.132C310.975 386.857 311.789 386.72 312.722 386.72C314.1 386.72 315.184 387.011 315.975 387.593C316.771 388.176 317.235 388.969 317.367 389.973ZM325.323 386.862V389.135H318.754V386.862H325.323ZM320.245 384.248H323.271V394.419C323.271 394.698 323.313 394.916 323.399 395.072C323.484 395.224 323.602 395.33 323.754 395.392C323.91 395.453 324.09 395.484 324.294 395.484C324.436 395.484 324.578 395.472 324.72 395.449C324.862 395.42 324.971 395.399 325.046 395.385L325.522 397.636C325.371 397.683 325.158 397.738 324.883 397.799C324.608 397.866 324.275 397.906 323.882 397.92C323.152 397.949 322.513 397.851 321.964 397.629C321.42 397.406 320.996 397.061 320.693 396.592C320.39 396.123 320.241 395.531 320.245 394.816V384.248ZM330.405 397.977C329.709 397.977 329.089 397.856 328.544 397.615C328 397.369 327.569 397.006 327.252 396.528C326.939 396.045 326.783 395.444 326.783 394.724C326.783 394.118 326.894 393.609 327.117 393.197C327.339 392.785 327.642 392.454 328.026 392.203C328.409 391.952 328.845 391.762 329.333 391.635C329.825 391.507 330.341 391.417 330.881 391.365C331.515 391.298 332.027 391.237 332.415 391.18C332.803 391.119 333.085 391.029 333.26 390.91C333.435 390.792 333.523 390.617 333.523 390.385V390.342C333.523 389.892 333.381 389.544 333.097 389.298C332.818 389.052 332.42 388.929 331.904 388.929C331.359 388.929 330.926 389.049 330.604 389.291C330.282 389.528 330.069 389.826 329.965 390.186L327.166 389.958C327.309 389.296 327.588 388.723 328.005 388.24C328.421 387.752 328.959 387.378 329.617 387.118C330.28 386.852 331.047 386.72 331.918 386.72C332.524 386.72 333.104 386.791 333.658 386.933C334.217 387.075 334.711 387.295 335.142 387.593C335.578 387.892 335.921 388.275 336.172 388.744C336.423 389.208 336.549 389.764 336.549 390.413L336.549 397.771H333.679L333.679 396.258H333.594C333.419 396.599 333.184 396.9 332.891 397.16C332.597 397.416 332.245 397.617 331.833 397.764C331.421 397.906 330.945 397.977 330.405 397.977ZM331.272 395.889C331.717 395.889 332.11 395.801 332.451 395.626C332.791 395.446 333.059 395.205 333.253 394.902C333.447 394.599 333.544 394.255 333.544 393.872V392.714C333.45 392.776 333.319 392.833 333.154 392.885C332.993 392.932 332.81 392.977 332.607 393.02C332.403 393.057 332.2 393.093 331.996 393.126C331.792 393.155 331.608 393.181 331.442 393.204C331.087 393.256 330.777 393.339 330.512 393.453C330.246 393.566 330.041 393.72 329.894 393.914C329.747 394.104 329.674 394.341 329.674 394.625C329.674 395.037 329.823 395.351 330.121 395.569C330.424 395.782 330.808 395.889 331.272 395.889ZM341.921 391.464L341.921 397.771H338.896L338.896 386.862H341.779V388.787H341.907C342.149 388.152 342.554 387.65 343.122 387.281C343.69 386.907 344.379 386.72 345.188 386.72C345.946 386.72 346.607 386.886 347.17 387.217C347.733 387.548 348.171 388.022 348.484 388.637C348.796 389.248 348.953 389.977 348.953 390.825V397.771H345.927L345.927 391.365C345.932 390.697 345.761 390.176 345.416 389.802C345.07 389.423 344.594 389.234 343.988 389.234C343.581 389.234 343.221 389.322 342.909 389.497C342.601 389.672 342.359 389.928 342.184 390.264C342.014 390.595 341.926 390.995 341.921 391.464ZM356.266 397.984C355.149 397.984 354.188 397.747 353.383 397.274C352.583 396.796 351.967 396.133 351.536 395.285C351.11 394.438 350.897 393.462 350.897 392.359C350.897 391.242 351.112 390.262 351.543 389.419C351.979 388.571 352.597 387.911 353.397 387.437C354.197 386.959 355.149 386.72 356.252 386.72C357.204 386.72 358.037 386.893 358.752 387.238C359.467 387.584 360.033 388.069 360.449 388.694C360.866 389.319 361.096 390.053 361.138 390.896H358.283C358.203 390.351 357.99 389.914 357.644 389.582C357.303 389.246 356.856 389.078 356.302 389.078C355.833 389.078 355.423 389.206 355.073 389.461C354.727 389.712 354.458 390.079 354.263 390.562C354.069 391.045 353.972 391.63 353.972 392.316C353.972 393.012 354.067 393.604 354.256 394.092C354.45 394.58 354.723 394.951 355.073 395.207C355.423 395.463 355.833 395.591 356.302 395.591C356.647 395.591 356.958 395.52 357.232 395.378C357.512 395.235 357.741 395.03 357.921 394.76C358.106 394.485 358.226 394.156 358.283 393.772H361.138C361.091 394.606 360.864 395.34 360.457 395.974C360.054 396.604 359.498 397.096 358.788 397.451C358.077 397.807 357.237 397.984 356.266 397.984ZM368.047 397.984C366.925 397.984 365.959 397.757 365.149 397.302C364.344 396.843 363.724 396.194 363.289 395.356C362.853 394.513 362.635 393.517 362.635 392.366C362.635 391.244 362.853 390.259 363.289 389.412C363.724 388.564 364.337 387.904 365.128 387.43C365.924 386.957 366.856 386.72 367.926 386.72C368.646 386.72 369.316 386.836 369.936 387.068C370.561 387.295 371.106 387.638 371.57 388.098C372.039 388.557 372.403 389.135 372.664 389.831C372.924 390.522 373.054 391.332 373.054 392.26V393.091L363.843 393.091V391.216L370.206 391.216C370.206 390.78 370.112 390.394 369.922 390.058C369.733 389.722 369.47 389.459 369.134 389.27C368.802 389.075 368.416 388.978 367.976 388.978C367.517 388.978 367.11 389.085 366.755 389.298C366.404 389.506 366.13 389.788 365.931 390.143C365.732 390.494 365.63 390.884 365.625 391.315V393.098C365.625 393.637 365.725 394.104 365.924 394.497C366.127 394.89 366.414 395.193 366.783 395.406C367.152 395.619 367.59 395.726 368.097 395.726C368.433 395.726 368.741 395.678 369.02 395.583C369.3 395.489 369.539 395.347 369.737 395.157C369.936 394.968 370.088 394.736 370.192 394.461L372.99 394.646C372.848 395.318 372.557 395.905 372.117 396.407C371.681 396.905 371.118 397.293 370.426 397.572C369.74 397.847 368.947 397.984 368.047 397.984ZM375.696 391.94C375.696 390.179 375.931 388.557 376.399 387.075C376.873 385.593 377.595 384.22 378.566 382.956H381.456C381.087 383.424 380.744 383.997 380.426 384.674C380.109 385.347 379.832 386.085 379.595 386.89C379.359 387.695 379.174 388.529 379.041 389.39C378.909 390.247 378.843 391.097 378.843 391.94C378.843 393.062 378.956 394.196 379.184 395.342C379.416 396.483 379.728 397.544 380.121 398.524C380.519 399.504 380.964 400.307 381.456 400.932H378.566C377.595 399.667 376.873 398.294 376.399 396.812C375.931 395.33 375.696 393.706 375.696 391.94ZM383.269 383.226H387.062L391.067 392.998H391.238L395.244 383.226L399.036 383.226V397.771L396.053 397.771V388.304H395.932L392.168 397.7H390.137L386.373 388.268H386.252V397.771H383.269V383.226ZM406.485 397.984C405.362 397.984 404.397 397.757 403.587 397.302C402.782 396.843 402.162 396.194 401.726 395.356C401.291 394.513 401.073 393.517 401.073 392.366C401.073 391.244 401.291 390.259 401.726 389.412C402.162 388.564 402.775 387.904 403.566 387.43C404.361 386.957 405.294 386.72 406.364 386.72C407.084 386.72 407.754 386.836 408.374 387.068C408.999 387.295 409.543 387.638 410.007 388.098C410.476 388.557 410.841 389.135 411.101 389.831C411.362 390.522 411.492 391.332 411.492 392.26V393.091H402.28V391.216H408.644C408.644 390.78 408.549 390.394 408.36 390.058C408.17 389.722 407.907 389.459 407.571 389.27C407.24 389.075 406.854 388.978 406.414 388.978C405.954 388.978 405.547 389.085 405.192 389.298C404.842 389.506 404.567 389.788 404.368 390.143C404.169 390.494 404.068 390.884 404.063 391.315V393.098C404.063 393.637 404.162 394.104 404.361 394.497C404.565 394.89 404.851 395.193 405.22 395.406C405.59 395.619 406.028 395.726 406.534 395.726C406.871 395.726 407.178 395.678 407.458 395.583C407.737 395.489 407.976 395.347 408.175 395.157C408.374 394.968 408.525 394.736 408.63 394.461L411.428 394.646C411.286 395.318 410.995 395.905 410.554 396.407C410.119 396.905 409.555 397.293 408.864 397.572C408.177 397.847 407.384 397.984 406.485 397.984ZM419.269 386.862V389.135H412.699V386.862H419.269ZM414.191 384.248H417.216V394.419C417.216 394.698 417.259 394.916 417.344 395.072C417.429 395.224 417.548 395.33 417.699 395.392C417.855 395.453 418.035 395.484 418.239 395.484C418.381 395.484 418.523 395.472 418.665 395.449C418.807 395.42 418.916 395.399 418.992 395.385L419.468 397.636C419.316 397.683 419.103 397.738 418.828 397.799C418.554 397.866 418.22 397.906 417.827 397.92C417.098 397.949 416.459 397.851 415.909 397.629C415.365 397.406 414.941 397.061 414.638 396.592C414.335 396.123 414.186 395.531 414.191 394.816V384.248ZM426.094 397.984C424.972 397.984 424.006 397.757 423.196 397.302C422.391 396.843 421.771 396.194 421.335 395.356C420.9 394.513 420.682 393.517 420.682 392.366C420.682 391.244 420.9 390.259 421.335 389.412C421.771 388.564 422.384 387.904 423.175 387.43C423.97 386.957 424.903 386.72 425.973 386.72C426.693 386.72 427.363 386.836 427.983 387.068C428.608 387.295 429.153 387.638 429.617 388.098C430.085 388.557 430.45 389.135 430.71 389.831C430.971 390.522 431.101 391.332 431.101 392.26V393.091H421.889V391.216H428.253C428.253 390.78 428.158 390.394 427.969 390.058C427.78 389.722 427.517 389.459 427.181 389.27C426.849 389.075 426.463 388.978 426.023 388.978C425.564 388.978 425.157 389.085 424.801 389.298C424.451 389.506 424.176 389.788 423.978 390.143C423.779 390.494 423.677 390.884 423.672 391.315V393.098C423.672 393.637 423.772 394.104 423.97 394.497C424.174 394.89 424.46 395.193 424.83 395.406C425.199 395.619 425.637 395.726 426.144 395.726C426.48 395.726 426.788 395.678 427.067 395.583C427.346 395.489 427.585 395.347 427.784 395.157C427.983 394.968 428.135 394.736 428.239 394.461L431.037 394.646C430.895 395.318 430.604 395.905 430.164 396.407C429.728 396.905 429.165 397.293 428.473 397.572C427.787 397.847 426.994 397.984 426.094 397.984ZM433.076 397.771V386.862H436.009V388.765H436.122C436.321 388.088 436.655 387.577 437.124 387.231C437.593 386.881 438.132 386.706 438.743 386.706C438.895 386.706 439.058 386.715 439.233 386.734C439.408 386.753 439.562 386.779 439.695 386.812V389.497C439.553 389.454 439.356 389.416 439.105 389.383C438.854 389.35 438.625 389.333 438.416 389.333C437.971 389.333 437.574 389.431 437.223 389.625C436.878 389.814 436.603 390.079 436.399 390.42C436.201 390.761 436.101 391.154 436.101 391.599V397.771H433.076ZM450.336 389.973L447.566 390.143C447.519 389.906 447.417 389.693 447.261 389.504C447.104 389.31 446.898 389.156 446.643 389.042C446.392 388.924 446.091 388.865 445.741 388.865C445.272 388.865 444.877 388.964 444.555 389.163C444.233 389.357 444.072 389.618 444.072 389.944C444.072 390.205 444.176 390.425 444.384 390.605C444.592 390.785 444.95 390.929 445.457 391.038L447.431 391.436C448.492 391.654 449.282 392.004 449.803 392.487C450.324 392.97 450.584 393.604 450.584 394.39C450.584 395.105 450.374 395.733 449.952 396.272C449.536 396.812 448.963 397.234 448.234 397.537C447.509 397.835 446.673 397.984 445.726 397.984C444.282 397.984 443.132 397.683 442.275 397.082C441.422 396.476 440.923 395.652 440.776 394.61L443.752 394.454C443.842 394.895 444.06 395.231 444.405 395.463C444.751 395.69 445.194 395.804 445.734 395.804C446.264 395.804 446.69 395.702 447.012 395.498C447.339 395.29 447.504 395.022 447.509 394.696C447.504 394.421 447.388 394.196 447.161 394.021C446.934 393.841 446.583 393.704 446.11 393.609L444.221 393.233C443.155 393.02 442.362 392.65 441.842 392.125C441.325 391.599 441.067 390.929 441.067 390.115C441.067 389.414 441.257 388.81 441.636 388.304C442.019 387.797 442.556 387.406 443.248 387.132C443.944 386.857 444.758 386.72 445.691 386.72C447.069 386.72 448.153 387.011 448.944 387.593C449.739 388.176 450.203 388.969 450.336 389.973ZM457.589 391.94C457.589 393.706 457.352 395.33 456.879 396.812C456.41 398.294 455.69 399.667 454.72 400.932H451.829C452.198 400.463 452.542 399.89 452.859 399.213C453.176 398.536 453.453 397.797 453.69 396.997C453.927 396.192 454.111 395.359 454.244 394.497C454.376 393.635 454.443 392.783 454.443 391.94C454.443 390.818 454.327 389.686 454.095 388.545C453.867 387.399 453.555 386.339 453.157 385.363C452.764 384.383 452.322 383.581 451.829 382.956H454.72C455.69 384.22 456.41 385.593 456.879 387.075C457.352 388.557 457.589 390.179 457.589 391.94Z" fill="#1E1E1E"/>
<line x1="147.101" y1="68.5047" x2="597.619" y2="68.5047" stroke="#EBEBEB" stroke-width="0.6"/>
<line x1="555.017" y1="318.309" x2="555.017" y2="40.6992" stroke="#EBEBEB" stroke-width="0.6"/>
<circle cx="221.754" cy="183.009" r="5.30127" transform="rotate(1.58058 221.754 183.009)" fill="#FFC54F"/>
<circle cx="212.575" cy="179.164" r="5.30127" transform="rotate(47.597 212.575 179.164)" fill="#FFC54F"/>
<circle cx="216.792" cy="216.026" r="5.30127" transform="rotate(47.597 216.792 216.026)" fill="#FFC54F"/>
<circle cx="385.318" cy="155.927" r="5.30127" fill="#50C8A7"/>
<circle cx="470.016" cy="149.025" r="5.30127" fill="#50C8A7"/>
<circle cx="551.533" cy="78.8765" r="5.30127" fill="#50C8A7"/>
<circle cx="300.009" cy="113.091" r="5.30127" fill="#FFC54F"/>
<circle cx="302.158" cy="174.203" r="5.30127" transform="rotate(-36.7313 302.158 174.203)" fill="#50C8A7"/>
<circle cx="315.664" cy="168.402" r="5.30127" fill="#FFC54F"/>
<circle cx="386.835" cy="166.53" r="5.30127" fill="#50C8A7"/>
<circle cx="480.18" cy="89.479" r="5.30127" fill="#50C8A7"/>
<circle cx="562.4" cy="60.8237" r="5.30127" fill="#50C8A7"/>
<circle cx="379.026" cy="119.307" r="5.30127" transform="rotate(27.179 379.026 119.307)" fill="#50C8A7"/>
<circle cx="473.595" cy="120.55" r="5.30127" fill="#50C8A7"/>
<circle cx="550.016" cy="59.2622" r="5.30127" fill="#50C8A7"/>
<circle cx="217.528" cy="266.463" r="5.30127" transform="rotate(47.597 217.528 266.463)" fill="#FFC54F"/>
<circle cx="395.933" cy="149.587" r="5.30127" transform="rotate(16.4891 395.933 149.587)" fill="#FFC54F"/>
<circle cx="478.896" cy="132.829" r="5.30127" transform="rotate(16.4891 478.896 132.829)" fill="#FFC54F"/>
<circle cx="553.824" cy="92.854" r="5.30127" transform="rotate(-9.69316 553.824 92.854)" fill="#FFC54F"/>
<circle cx="391.906" cy="123.99" r="5.30127" transform="rotate(16.4891 391.906 123.99)" fill="#FFC54F"/>
<circle cx="472.587" cy="77.5899" r="5.30127" transform="rotate(16.4891 472.587 77.5899)" fill="#FFC54F"/>
<circle cx="549.81" cy="62.6553" r="5.30127" transform="rotate(16.4891 549.81 62.6553)" fill="#FFC54F"/>
<circle cx="305.318" cy="197.73" r="5.30127" fill="#50C8A7"/>
<circle cx="391.339" cy="136.746" r="5.30127" fill="#50C8A7"/>
<circle cx="476.506" cy="142.047" r="5.30127" fill="#50C8A7"/>
<circle cx="559.943" cy="101.905" r="5.30127" fill="#50C8A7"/>
<circle cx="328.349" cy="194.225" r="5.30127" fill="#FFC54F"/>
<circle cx="297.751" cy="182.865" r="5.30127" fill="#FFC54F"/>
<circle cx="220.764" cy="199.014" r="5.30127" fill="#50C8A7"/>
<circle cx="213.464" cy="230.102" r="5.30127" fill="#50C8A7"/>
<circle cx="231.367" cy="204.828" r="5.30127" fill="#50C8A7"/>
<circle cx="303.958" cy="163.685" r="5.30127" fill="#FFC54F"/>
<circle cx="303.756" cy="148.391" r="5.30127" transform="rotate(-12.7896 303.756 148.391)" fill="#FFC54F"/>
<circle cx="211.15" cy="248.651" r="5.30127" fill="#50C8A7"/>
<circle cx="311.433" cy="185.979" r="5.30127" fill="#50C8A7"/>
<circle cx="387.394" cy="147.738" r="5.30127" fill="#50C8A7"/>
<circle cx="480.18" cy="119.307" r="5.30127" fill="#50C8A7"/>
<circle cx="562.4" cy="79.8457" r="5.30127" fill="#50C8A7"/>
<circle cx="211.458" cy="196.661" r="5.30127" transform="rotate(-13.1849 211.458 196.661)" fill="#50C8A7"/>
<circle cx="297.94" cy="121.197" r="5.30127" transform="rotate(-13.1849 297.94 121.197)" fill="#50C8A7"/>
<circle cx="299.76" cy="127.136" r="5.30127" transform="rotate(-13.1849 299.76 127.136)" fill="#50C8A7"/>
<circle cx="384.044" cy="138.808" r="5.30127" fill="#FFC54F"/>
<circle cx="471.205" cy="131.922" r="5.30127" transform="rotate(43.694 471.205 131.922)" fill="#FFC54F"/>
<circle cx="539.644" cy="69.8647" r="5.30127" fill="#FFC54F"/>
<circle cx="389.628" cy="109.44" r="5.30127" fill="#FFC54F"/>
<circle cx="472.312" cy="99.4688" r="5.30127" fill="#FFC54F"/>
<circle cx="557.099" cy="74.5444" r="5.30127" fill="#FFC54F"/>
<circle cx="387.394" cy="115.267" r="5.30127" fill="#FFC54F"/>
<circle cx="480.18" cy="153.04" r="5.30127" fill="#FFC54F"/>
<circle cx="551.097" cy="109.44" r="5.30127" transform="rotate(-28.1795 551.097 109.44)" fill="#FFC54F"/>
<circle cx="223.467" cy="239.508" r="5.30127" transform="rotate(24.3235 223.467 239.508)" fill="#50C8A7"/>
<circle cx="305.135" cy="153.04" r="5.30127" transform="rotate(14.8009 305.135 153.04)" fill="#50C8A7"/>
<circle cx="226.066" cy="229.793" r="5.30127" fill="#50C8A7"/>
<circle cx="381.535" cy="151.861" r="5.30127" fill="#50C8A7"/>
<circle cx="477.614" cy="109.805" r="5.30127" transform="rotate(87.0542 477.614 109.805)" fill="#50C8A7"/>
<circle cx="557.099" cy="61.0892" r="5.30127" transform="rotate(87.0542 557.099 61.0892)" fill="#50C8A7"/>
<circle cx="298.066" cy="140.504" r="5.30127" fill="#50C8A7"/>
<circle cx="216.452" cy="240.705" r="5.30127" fill="#50C8A7"/>
<circle cx="382.093" cy="139.81" r="5.30127" fill="#50C8A7"/>
<circle cx="489.06" cy="134.296" r="5.30127" fill="#50C8A7"/>
<circle cx="556.833" cy="125.276" r="5.30127" fill="#50C8A7"/>
<circle cx="398.494" cy="102.488" r="5.30127" fill="#FFC54F"/>
<circle cx="473.399" cy="159.628" r="5.30127" fill="#FFC54F"/>
<circle cx="544.945" cy="86.0015" r="5.30127" fill="#FFC54F"/>
<circle cx="295.529" cy="168.986" r="5.30127" fill="#FFC54F"/>
<circle cx="312.761" cy="138.342" r="5.30127" fill="#50C8A7"/>
<path d="M52.7857 117.939C52.3692 117.943 51.971 118.111 51.6773 118.406L48.2732 121.802C48.1257 121.951 48.043 122.151 48.043 122.361C48.043 122.57 48.1257 122.77 48.2732 122.919C48.3468 122.993 48.4343 123.052 48.5308 123.092C48.6273 123.132 48.7308 123.153 48.8353 123.153C48.9398 123.153 49.0432 123.132 49.1397 123.092C49.2362 123.052 49.3238 122.993 49.3973 122.919L51.994 120.314L51.994 128.231C51.994 128.441 52.0774 128.642 52.2259 128.791C52.3744 128.939 52.5757 129.022 52.7857 129.022C52.9956 129.022 53.197 128.939 53.3455 128.791C53.4939 128.642 53.5773 128.441 53.5773 128.231L53.5773 120.314L56.1819 122.919C56.33 123.068 56.5311 123.152 56.7412 123.153C56.9513 123.153 57.1531 123.071 57.3021 122.923C57.4512 122.775 57.5354 122.573 57.5361 122.363C57.5369 122.153 57.4541 121.952 57.3061 121.802L53.9019 118.406C53.6064 118.109 53.2049 117.941 52.7857 117.939Z" fill="#CACACA"/>
<path d="M480.068 392.271C480.064 391.855 479.896 391.456 479.601 391.163L476.204 387.759C476.056 387.611 475.855 387.528 475.646 387.528C475.437 387.528 475.236 387.611 475.088 387.759C475.014 387.832 474.955 387.92 474.915 388.016C474.875 388.113 474.854 388.216 474.854 388.321C474.854 388.425 474.875 388.529 474.915 388.625C474.955 388.722 475.014 388.809 475.088 388.883L477.693 391.479H469.776C469.566 391.479 469.365 391.563 469.216 391.711C469.068 391.86 468.984 392.061 468.984 392.271C468.984 392.481 469.068 392.682 469.216 392.831C469.365 392.979 469.566 393.063 469.776 393.063H477.693L475.088 395.667C474.939 395.815 474.855 396.016 474.854 396.227C474.853 396.437 474.936 396.638 475.084 396.787C475.232 396.937 475.433 397.021 475.643 397.021C475.854 397.022 476.055 396.939 476.204 396.791L479.601 393.387C479.898 393.092 480.066 392.69 480.068 392.271Z" fill="#CACACA"/>
<path d="M97.2606 253.595V254.653H93.9864V253.595H97.2606ZM101.127 257.86C100.653 257.86 100.23 257.771 99.8556 257.593C99.4815 257.413 99.1844 257.167 98.9642 256.855C98.7464 256.542 98.6304 256.185 98.6162 255.782H99.8946C99.9183 256.081 100.047 256.324 100.282 256.514C100.516 256.701 100.798 256.794 101.127 256.794C101.385 256.794 101.615 256.735 101.816 256.617C102.017 256.498 102.176 256.334 102.292 256.123C102.408 255.912 102.464 255.672 102.462 255.402C102.464 255.128 102.406 254.884 102.288 254.671C102.17 254.458 102.008 254.291 101.802 254.17C101.596 254.047 101.359 253.985 101.091 253.985C100.874 253.983 100.659 254.023 100.449 254.106C100.238 254.189 100.071 254.298 99.9479 254.433L98.7583 254.238L99.1382 250.488H103.357V251.588H100.228L100.019 253.517H100.062C100.196 253.358 100.387 253.227 100.633 253.122C100.879 253.016 101.149 252.963 101.443 252.963C101.883 252.963 102.276 253.067 102.622 253.275C102.968 253.481 103.24 253.765 103.439 254.127C103.638 254.49 103.737 254.904 103.737 255.37C103.737 255.851 103.626 256.279 103.403 256.656C103.183 257.03 102.876 257.325 102.483 257.54C102.093 257.753 101.641 257.86 101.127 257.86ZM107.615 257.899C107.03 257.899 106.528 257.751 106.109 257.455C105.692 257.157 105.372 256.727 105.147 256.166C104.924 255.602 104.813 254.924 104.813 254.131C104.815 253.338 104.928 252.663 105.15 252.107C105.375 251.548 105.696 251.122 106.113 250.828C106.532 250.535 107.032 250.388 107.615 250.388C108.197 250.388 108.698 250.535 109.117 250.828C109.536 251.122 109.857 251.548 110.079 252.107C110.304 252.666 110.417 253.34 110.417 254.131C110.417 254.926 110.304 255.606 110.079 256.169C109.857 256.73 109.536 257.159 109.117 257.455C108.7 257.751 108.2 257.899 107.615 257.899ZM107.615 256.787C108.069 256.787 108.428 256.564 108.691 256.116C108.956 255.666 109.089 255.005 109.089 254.131C109.089 253.553 109.028 253.068 108.907 252.675C108.787 252.282 108.616 251.986 108.396 251.787C108.176 251.586 107.915 251.485 107.615 251.485C107.163 251.485 106.805 251.71 106.542 252.16C106.28 252.608 106.147 253.265 106.145 254.131C106.142 254.711 106.2 255.199 106.319 255.594C106.439 255.989 106.61 256.288 106.83 256.489C107.05 256.688 107.312 256.787 107.615 256.787ZM115.6 256.766L115.554 257.157C115.521 257.455 115.462 257.758 115.377 258.066C115.294 258.376 115.206 258.661 115.114 258.921C115.022 259.182 114.947 259.387 114.89 259.536H114.024C114.057 259.391 114.102 259.195 114.159 258.946C114.218 258.698 114.275 258.418 114.329 258.108C114.384 257.798 114.42 257.483 114.439 257.164L114.464 256.766H115.6ZM122.24 250.488V257.76H120.923V251.769H120.88L119.179 252.856V251.649L120.987 250.488H122.24ZM126.775 257.899C126.19 257.899 125.688 257.751 125.269 257.455C124.853 257.157 124.532 256.727 124.307 256.166C124.084 255.602 123.973 254.924 123.973 254.131C123.975 253.338 124.088 252.663 124.31 252.107C124.535 251.548 124.856 251.122 125.273 250.828C125.692 250.535 126.193 250.388 126.775 250.388C127.357 250.388 127.858 250.535 128.277 250.828C128.696 251.122 129.017 251.548 129.239 252.107C129.464 252.666 129.577 253.34 129.577 254.131C129.577 254.926 129.464 255.606 129.239 256.169C129.017 256.73 128.696 257.159 128.277 257.455C127.86 257.751 127.36 257.899 126.775 257.899ZM126.775 256.787C127.229 256.787 127.588 256.564 127.851 256.116C128.116 255.666 128.249 255.005 128.249 254.131C128.249 253.553 128.188 253.068 128.068 252.675C127.947 252.282 127.776 251.986 127.556 251.787C127.336 251.586 127.076 251.485 126.775 251.485C126.323 251.485 125.965 251.71 125.703 252.16C125.44 252.608 125.307 253.265 125.305 254.131C125.302 254.711 125.36 255.199 125.479 255.594C125.6 255.989 125.77 256.288 125.99 256.489C126.21 256.688 126.472 256.787 126.775 256.787Z" fill="#C6C6C6"/>
<path d="M213.231 338.825V337.778L216.317 332.902H217.19V334.394H216.658L214.58 337.685V337.742H218.888V338.825H213.231ZM216.7 340.175V338.506L216.714 338.037V332.902H217.957V340.175H216.7ZM219.891 338.825V337.778L222.977 332.902H223.85V334.394H223.318L221.24 337.685V337.742H225.548V338.825H219.891ZM223.36 340.175V338.506L223.375 338.037V332.902H224.617V340.175H223.36ZM226.949 340.175L230.042 334.053V334.003H226.452V332.902H231.405V334.028L228.316 340.175H226.949Z" fill="#C6C6C6"/>
<path d="M378.075 332.902V340.175H376.758V334.184H376.715L375.014 335.271V334.063L376.822 332.902H378.075ZM382.532 340.274C382.02 340.274 381.566 340.187 381.168 340.011C380.773 339.836 380.46 339.592 380.231 339.28C380.001 338.967 379.879 338.606 379.865 338.197H381.2C381.212 338.393 381.277 338.565 381.395 338.712C381.514 338.856 381.671 338.969 381.868 339.049C382.064 339.13 382.284 339.17 382.528 339.17C382.789 339.17 383.019 339.125 383.221 339.035C383.422 338.943 383.579 338.815 383.693 338.651C383.807 338.488 383.862 338.3 383.86 338.087C383.862 337.867 383.805 337.672 383.689 337.504C383.573 337.336 383.405 337.205 383.185 337.11C382.967 337.015 382.705 336.968 382.397 336.968H381.754V335.953H382.397C382.65 335.953 382.872 335.909 383.061 335.821C383.253 335.734 383.403 335.61 383.512 335.452C383.621 335.291 383.674 335.105 383.672 334.894C383.674 334.688 383.628 334.51 383.533 334.358C383.441 334.204 383.309 334.085 383.139 333.999C382.971 333.914 382.773 333.872 382.546 333.872C382.323 333.872 382.117 333.912 381.928 333.992C381.739 334.073 381.586 334.188 381.47 334.337C381.354 334.484 381.292 334.659 381.285 334.862H380.018C380.027 334.455 380.144 334.098 380.369 333.79C380.596 333.48 380.899 333.238 381.278 333.065C381.657 332.89 382.082 332.803 382.553 332.803C383.038 332.803 383.46 332.894 383.817 333.076C384.177 333.256 384.455 333.499 384.652 333.804C384.848 334.109 384.947 334.447 384.947 334.816C384.949 335.226 384.828 335.569 384.584 335.846C384.343 336.123 384.026 336.304 383.633 336.389V336.446C384.144 336.517 384.536 336.707 384.808 337.014C385.083 337.32 385.219 337.7 385.216 338.154C385.216 338.561 385.1 338.926 384.868 339.248C384.639 339.568 384.322 339.819 383.917 340.001C383.514 340.183 383.053 340.274 382.532 340.274ZM386.304 338.825V337.778L389.39 332.902H390.263V334.394H389.731L387.653 337.685V337.742H391.961V338.825H386.304ZM389.773 340.175V338.506L389.788 338.037V332.902H391.031V340.175H389.773ZM395.956 332.902V340.175H394.638V334.184H394.596L392.895 335.271V334.063L394.702 332.902H395.956Z" fill="#C6C6C6"/>
<path d="M297.315 340.274C296.787 340.274 296.318 340.185 295.908 340.008C295.501 339.83 295.181 339.588 294.949 339.28C294.72 338.97 294.606 338.618 294.609 338.225C294.606 337.92 294.672 337.639 294.807 337.384C294.942 337.128 295.125 336.915 295.354 336.744C295.586 336.572 295.844 336.461 296.128 336.414V336.364C295.754 336.282 295.451 336.091 295.219 335.793C294.99 335.492 294.876 335.145 294.878 334.752C294.876 334.378 294.98 334.044 295.191 333.751C295.402 333.457 295.69 333.226 296.057 333.058C296.424 332.888 296.843 332.803 297.315 332.803C297.781 332.803 298.196 332.888 298.561 333.058C298.928 333.226 299.217 333.457 299.427 333.751C299.641 334.044 299.747 334.378 299.747 334.752C299.747 335.145 299.63 335.492 299.396 335.793C299.164 336.091 298.864 336.282 298.497 336.364V336.414C298.781 336.461 299.037 336.572 299.264 336.744C299.494 336.915 299.676 337.128 299.811 337.384C299.948 337.639 300.017 337.92 300.017 338.225C300.017 338.618 299.901 338.97 299.669 339.28C299.437 339.588 299.117 339.83 298.71 340.008C298.305 340.185 297.84 340.274 297.315 340.274ZM297.315 339.259C297.587 339.259 297.824 339.212 298.025 339.12C298.226 339.025 298.382 338.893 298.494 338.722C298.605 338.552 298.662 338.355 298.664 338.133C298.662 337.901 298.601 337.696 298.483 337.519C298.367 337.339 298.207 337.198 298.003 337.096C297.802 336.994 297.573 336.943 297.315 336.943C297.054 336.943 296.822 336.994 296.619 337.096C296.415 337.198 296.254 337.339 296.136 337.519C296.02 337.696 295.963 337.901 295.965 338.133C295.963 338.355 296.017 338.552 296.128 338.722C296.24 338.89 296.396 339.022 296.597 339.117C296.801 339.211 297.04 339.259 297.315 339.259ZM297.315 335.945C297.537 335.945 297.734 335.9 297.904 335.81C298.077 335.72 298.213 335.595 298.312 335.434C298.412 335.273 298.463 335.087 298.465 334.877C298.463 334.668 298.413 334.486 298.316 334.33C298.219 334.171 298.084 334.049 297.911 333.964C297.738 333.876 297.539 333.832 297.315 333.832C297.085 333.832 296.882 333.876 296.707 333.964C296.534 334.049 296.4 334.171 296.302 334.33C296.208 334.486 296.162 334.668 296.164 334.877C296.162 335.087 296.209 335.273 296.306 335.434C296.405 335.593 296.542 335.718 296.714 335.81C296.89 335.9 297.09 335.945 297.315 335.945ZM303.709 332.803C304.057 332.805 304.396 332.867 304.725 332.987C305.056 333.106 305.355 333.3 305.62 333.57C305.885 333.837 306.096 334.196 306.252 334.646C306.408 335.095 306.486 335.652 306.486 336.315C306.489 336.94 306.422 337.498 306.287 337.991C306.155 338.481 305.964 338.895 305.716 339.234C305.467 339.572 305.168 339.83 304.817 340.008C304.467 340.185 304.073 340.274 303.635 340.274C303.175 340.274 302.768 340.184 302.413 340.004C302.06 339.824 301.775 339.578 301.557 339.266C301.339 338.953 301.206 338.596 301.156 338.193H302.452C302.518 338.482 302.653 338.712 302.857 338.882C303.063 339.05 303.322 339.134 303.635 339.134C304.139 339.134 304.527 338.915 304.799 338.477C305.072 338.039 305.208 337.431 305.208 336.652H305.158C305.042 336.86 304.892 337.04 304.707 337.192C304.522 337.341 304.313 337.456 304.079 337.536C303.847 337.617 303.6 337.657 303.34 337.657C302.914 337.657 302.53 337.555 302.189 337.352C301.851 337.148 301.582 336.869 301.383 336.514C301.187 336.158 301.087 335.752 301.085 335.296C301.085 334.822 301.194 334.397 301.412 334.021C301.632 333.642 301.938 333.344 302.331 333.126C302.724 332.906 303.184 332.798 303.709 332.803ZM303.713 333.868C303.457 333.868 303.226 333.931 303.02 334.056C302.817 334.179 302.656 334.347 302.537 334.56C302.421 334.771 302.363 335.007 302.363 335.267C302.366 335.525 302.424 335.76 302.537 335.97C302.653 336.181 302.811 336.348 303.01 336.471C303.211 336.594 303.441 336.656 303.699 336.656C303.89 336.656 304.069 336.619 304.235 336.546C304.401 336.472 304.545 336.37 304.668 336.24C304.794 336.108 304.891 335.957 304.959 335.789C305.03 335.621 305.065 335.444 305.062 335.256C305.062 335.008 305.003 334.778 304.885 334.568C304.769 334.357 304.609 334.188 304.405 334.06C304.204 333.932 303.973 333.868 303.713 333.868ZM307.537 338.825V337.778L310.623 332.902H311.497V334.394H310.964L308.887 337.685V337.742H313.194V338.825H307.537ZM311.007 340.175V338.506L311.021 338.037V332.902H312.264V340.175H311.007Z" fill="#C6C6C6"/>
<path d="M465.537 332.902V340.175H464.22V334.184H464.177L462.476 335.271V334.063L464.283 332.902H465.537ZM467.65 340.175L470.743 334.053V334.003H467.153V332.902H472.107V334.028L469.017 340.175H467.65ZM475.691 340.274C475.164 340.274 474.695 340.185 474.285 340.008C473.878 339.83 473.558 339.588 473.326 339.28C473.097 338.97 472.983 338.618 472.986 338.225C472.983 337.92 473.049 337.639 473.184 337.384C473.319 337.128 473.502 336.915 473.731 336.744C473.963 336.572 474.221 336.461 474.505 336.414V336.364C474.131 336.282 473.828 336.091 473.596 335.793C473.367 335.492 473.253 335.145 473.255 334.752C473.253 334.378 473.357 334.044 473.568 333.751C473.779 333.457 474.067 333.226 474.434 333.058C474.801 332.888 475.22 332.803 475.691 332.803C476.158 332.803 476.573 332.888 476.938 333.058C477.305 333.226 477.594 333.457 477.804 333.751C478.017 334.044 478.124 334.378 478.124 334.752C478.124 335.145 478.007 335.492 477.772 335.793C477.54 336.091 477.241 336.282 476.874 336.364V336.414C477.158 336.461 477.414 336.572 477.641 336.744C477.871 336.915 478.053 337.128 478.188 337.384C478.325 337.639 478.394 337.92 478.394 338.225C478.394 338.618 478.278 338.97 478.046 339.28C477.814 339.588 477.494 339.83 477.087 340.008C476.682 340.185 476.217 340.274 475.691 340.274ZM475.691 339.259C475.964 339.259 476.2 339.212 476.402 339.12C476.603 339.025 476.759 338.893 476.87 338.722C476.982 338.552 477.039 338.355 477.041 338.133C477.039 337.901 476.978 337.696 476.86 337.519C476.744 337.339 476.584 337.198 476.38 337.096C476.179 336.994 475.95 336.943 475.691 336.943C475.431 336.943 475.199 336.994 474.995 337.096C474.792 337.198 474.631 337.339 474.513 337.519C474.397 337.696 474.34 337.901 474.342 338.133C474.34 338.355 474.394 338.552 474.505 338.722C474.617 338.89 474.773 339.022 474.974 339.117C475.178 339.211 475.417 339.259 475.691 339.259ZM475.691 335.945C475.914 335.945 476.111 335.9 476.281 335.81C476.454 335.72 476.59 335.595 476.689 335.434C476.789 335.273 476.84 335.087 476.842 334.877C476.84 334.668 476.79 334.486 476.693 334.33C476.596 334.171 476.461 334.049 476.288 333.964C476.115 333.876 475.916 333.832 475.691 333.832C475.462 333.832 475.259 333.876 475.084 333.964C474.911 334.049 474.776 334.171 474.679 334.33C474.585 334.486 474.539 334.668 474.541 334.877C474.539 335.087 474.586 335.273 474.683 335.434C474.782 335.593 474.919 335.718 475.091 335.81C475.267 335.9 475.467 335.945 475.691 335.945ZM482.147 340.274C481.619 340.274 481.15 340.185 480.74 340.008C480.333 339.83 480.014 339.588 479.782 339.28C479.552 338.97 479.438 338.618 479.441 338.225C479.438 337.92 479.505 337.639 479.639 337.384C479.774 337.128 479.957 336.915 480.186 336.744C480.418 336.572 480.676 336.461 480.96 336.414V336.364C480.586 336.282 480.283 336.091 480.051 335.793C479.822 335.492 479.708 335.145 479.71 334.752C479.708 334.378 479.812 334.044 480.023 333.751C480.234 333.457 480.523 333.226 480.889 333.058C481.256 332.888 481.675 332.803 482.147 332.803C482.613 332.803 483.028 332.888 483.393 333.058C483.76 333.226 484.049 333.457 484.259 333.751C484.473 334.044 484.579 334.378 484.579 334.752C484.579 335.145 484.462 335.492 484.228 335.793C483.996 336.091 483.696 336.282 483.329 336.364V336.414C483.613 336.461 483.869 336.572 484.096 336.744C484.326 336.915 484.508 337.128 484.643 337.384C484.78 337.639 484.849 337.92 484.849 338.225C484.849 338.618 484.733 338.97 484.501 339.28C484.269 339.588 483.949 339.83 483.542 340.008C483.137 340.185 482.672 340.274 482.147 340.274ZM482.147 339.259C482.419 339.259 482.656 339.212 482.857 339.12C483.058 339.025 483.214 338.893 483.326 338.722C483.437 338.552 483.494 338.355 483.496 338.133C483.494 337.901 483.433 337.696 483.315 337.519C483.199 337.339 483.039 337.198 482.835 337.096C482.634 336.994 482.405 336.943 482.147 336.943C481.886 336.943 481.654 336.994 481.451 337.096C481.247 337.198 481.086 337.339 480.968 337.519C480.852 337.696 480.795 337.901 480.797 338.133C480.795 338.355 480.849 338.552 480.96 338.722C481.072 338.89 481.228 339.022 481.429 339.117C481.633 339.211 481.872 339.259 482.147 339.259ZM482.147 335.945C482.369 335.945 482.566 335.9 482.736 335.81C482.909 335.72 483.045 335.595 483.144 335.434C483.244 335.273 483.295 335.087 483.297 334.877C483.295 334.668 483.245 334.486 483.148 334.33C483.051 334.171 482.916 334.049 482.743 333.964C482.57 333.876 482.371 333.832 482.147 333.832C481.917 333.832 481.715 333.876 481.539 333.964C481.367 334.049 481.232 334.171 481.134 334.33C481.04 334.486 480.994 334.668 480.996 334.877C480.994 335.087 481.041 335.273 481.138 335.434C481.237 335.593 481.374 335.718 481.546 335.81C481.722 335.9 481.922 335.945 482.147 335.945Z" fill="#C6C6C6"/>
<path d="M545.883 340.175V339.223L548.407 336.748C548.649 336.504 548.85 336.287 549.011 336.098C549.172 335.909 549.293 335.725 549.373 335.548C549.454 335.37 549.494 335.181 549.494 334.979C549.494 334.75 549.442 334.553 549.338 334.39C549.234 334.224 549.09 334.096 548.908 334.006C548.726 333.917 548.519 333.872 548.287 333.872C548.048 333.872 547.838 333.921 547.658 334.021C547.478 334.118 547.339 334.256 547.239 334.436C547.142 334.616 547.094 334.83 547.094 335.079H545.84C545.84 334.617 545.945 334.216 546.156 333.875C546.367 333.534 546.657 333.27 547.026 333.083C547.398 332.896 547.824 332.803 548.305 332.803C548.792 332.803 549.221 332.894 549.59 333.076C549.959 333.258 550.246 333.508 550.449 333.825C550.655 334.143 550.758 334.505 550.758 334.912C550.758 335.184 550.706 335.452 550.602 335.715C550.498 335.977 550.314 336.269 550.052 336.588C549.791 336.908 549.425 337.295 548.954 337.749L547.701 339.024V339.074H550.868V340.175H545.883ZM552.094 340.175V339.223L554.618 336.748C554.86 336.504 555.061 336.287 555.222 336.098C555.383 335.909 555.504 335.725 555.584 335.548C555.665 335.37 555.705 335.181 555.705 334.979C555.705 334.75 555.653 334.553 555.549 334.39C555.445 334.224 555.301 334.096 555.119 334.006C554.937 333.917 554.73 333.872 554.498 333.872C554.259 333.872 554.049 333.921 553.869 334.021C553.689 334.118 553.55 334.256 553.45 334.436C553.353 334.616 553.305 334.83 553.305 335.079H552.051C552.051 334.617 552.156 334.216 552.367 333.875C552.578 333.534 552.868 333.27 553.237 333.083C553.609 332.896 554.035 332.803 554.515 332.803C555.003 332.803 555.432 332.894 555.801 333.076C556.17 333.258 556.457 333.508 556.66 333.825C556.866 334.143 556.969 334.505 556.969 334.912C556.969 335.184 556.917 335.452 556.813 335.715C556.709 335.977 556.525 336.269 556.263 336.588C556.002 336.908 555.636 337.295 555.165 337.749L553.912 339.024V339.074H557.079V340.175H552.094ZM560.915 340.274C560.403 340.274 559.949 340.187 559.551 340.011C559.156 339.836 558.843 339.592 558.613 339.28C558.384 338.967 558.262 338.606 558.248 338.197H559.583C559.595 338.393 559.66 338.565 559.778 338.712C559.897 338.856 560.054 338.969 560.251 339.049C560.447 339.13 560.667 339.17 560.911 339.17C561.171 339.17 561.402 339.125 561.604 339.035C561.805 338.943 561.962 338.815 562.076 338.651C562.189 338.488 562.245 338.3 562.243 338.087C562.245 337.867 562.188 337.672 562.072 337.504C561.956 337.336 561.788 337.205 561.568 337.11C561.35 337.015 561.087 336.968 560.78 336.968H560.137V335.953H560.78C561.033 335.953 561.254 335.909 561.444 335.821C561.635 335.734 561.786 335.61 561.895 335.452C562.004 335.291 562.057 335.105 562.055 334.894C562.057 334.688 562.011 334.51 561.916 334.358C561.824 334.204 561.692 334.085 561.522 333.999C561.354 333.914 561.156 333.872 560.929 333.872C560.706 333.872 560.5 333.912 560.311 333.992C560.122 334.073 559.969 334.188 559.853 334.337C559.737 334.484 559.675 334.659 559.668 334.862H558.4C558.41 334.455 558.527 334.098 558.752 333.79C558.979 333.48 559.282 333.238 559.661 333.065C560.04 332.89 560.465 332.803 560.936 332.803C561.421 332.803 561.843 332.894 562.2 333.076C562.56 333.256 562.838 333.499 563.035 333.804C563.231 334.109 563.329 334.447 563.329 334.816C563.332 335.226 563.211 335.569 562.967 335.846C562.726 336.123 562.408 336.304 562.015 336.389V336.446C562.527 336.517 562.919 336.707 563.191 337.014C563.465 337.32 563.602 337.7 563.599 338.154C563.599 338.561 563.483 338.926 563.251 339.248C563.022 339.568 562.704 339.819 562.3 340.001C561.897 340.183 561.435 340.274 560.915 340.274ZM567.347 340.274C566.873 340.274 566.449 340.185 566.075 340.008C565.701 339.828 565.404 339.582 565.184 339.269C564.966 338.957 564.85 338.599 564.836 338.197H566.114C566.138 338.495 566.267 338.739 566.501 338.928C566.736 339.115 567.018 339.209 567.347 339.209C567.605 339.209 567.834 339.15 568.036 339.031C568.237 338.913 568.395 338.748 568.511 338.538C568.627 338.327 568.684 338.087 568.682 337.817C568.684 337.542 568.626 337.298 568.508 337.085C568.389 336.872 568.227 336.705 568.021 336.585C567.815 336.461 567.579 336.4 567.311 336.4C567.093 336.398 566.879 336.438 566.668 336.521C566.458 336.604 566.291 336.712 566.168 336.847L564.978 336.652L565.358 332.902H569.577V334.003H566.448L566.239 335.931H566.281C566.416 335.773 566.607 335.641 566.853 335.537C567.099 335.43 567.369 335.377 567.663 335.377C568.103 335.377 568.496 335.481 568.842 335.69C569.187 335.896 569.46 336.18 569.658 336.542C569.857 336.904 569.957 337.319 569.957 337.785C569.957 338.265 569.845 338.694 569.623 339.07C569.403 339.444 569.096 339.739 568.703 339.955C568.312 340.168 567.86 340.274 567.347 340.274Z" fill="#C6C6C6"/>
<path d="M89.7528 190.329V191.387H86.4786V190.329H89.7528ZM93.754 194.594C93.406 194.591 93.0663 194.531 92.7348 194.412C92.4034 194.292 92.1051 194.096 91.8399 193.827C91.5748 193.554 91.3641 193.193 91.2078 192.743C91.0516 192.291 90.9746 191.731 90.977 191.064C90.977 190.441 91.0433 189.886 91.1759 189.398C91.3084 188.911 91.499 188.499 91.7476 188.162C91.9962 187.824 92.2957 187.566 92.646 187.388C92.9988 187.211 93.393 187.122 93.8286 187.122C94.2855 187.122 94.6903 187.212 95.0431 187.392C95.3982 187.572 95.6846 187.818 95.9024 188.131C96.1202 188.441 96.2552 188.791 96.3073 189.182H95.0111C94.9448 188.902 94.8087 188.68 94.6027 188.514C94.3991 188.346 94.1411 188.262 93.8286 188.262C93.3243 188.262 92.936 188.481 92.6638 188.919C92.3939 189.357 92.2578 189.958 92.2554 190.723H92.3051C92.4211 190.515 92.5715 190.336 92.7561 190.187C92.9408 190.037 93.1491 189.923 93.3811 189.842C93.6155 189.759 93.8629 189.718 94.1233 189.718C94.5494 189.718 94.9318 189.82 95.2703 190.023C95.6112 190.227 95.8811 190.507 96.08 190.865C96.2789 191.22 96.3771 191.627 96.3747 192.086C96.3771 192.565 96.2682 192.994 96.048 193.376C95.8279 193.754 95.5213 194.053 95.1283 194.27C94.7353 194.488 94.2772 194.596 93.754 194.594ZM93.7469 193.528C94.0049 193.528 94.2358 193.465 94.4394 193.34C94.643 193.215 94.8039 193.045 94.9223 192.832C95.0407 192.619 95.0987 192.38 95.0963 192.115C95.0987 191.854 95.0419 191.619 94.9259 191.408C94.8122 191.198 94.6548 191.031 94.4536 190.907C94.2523 190.784 94.0227 190.723 93.7646 190.723C93.5729 190.723 93.3941 190.76 93.2284 190.833C93.0627 190.906 92.9183 191.008 92.7952 191.138C92.6721 191.266 92.575 191.415 92.504 191.586C92.4353 191.754 92.3998 191.934 92.3975 192.126C92.3998 192.379 92.459 192.612 92.575 192.825C92.691 193.038 92.8508 193.209 93.0544 193.336C93.258 193.464 93.4888 193.528 93.7469 193.528ZM97.8414 194.494L100.934 188.372V188.322H97.3442V187.221H102.298V188.347L99.2085 194.494H97.8414ZM103 194.572C102.785 194.572 102.6 194.497 102.446 194.345C102.292 194.193 102.217 194.009 102.219 193.791C102.217 193.578 102.292 193.396 102.446 193.244C102.6 193.093 102.785 193.017 103 193.017C103.209 193.017 103.39 193.093 103.544 193.244C103.7 193.396 103.779 193.578 103.782 193.791C103.779 193.935 103.741 194.067 103.668 194.185C103.597 194.304 103.502 194.398 103.384 194.469C103.268 194.538 103.14 194.572 103 194.572ZM107.535 194.594C107.062 194.594 106.638 194.505 106.264 194.327C105.89 194.147 105.593 193.901 105.372 193.589C105.155 193.276 105.039 192.919 105.024 192.516H106.303C106.326 192.814 106.456 193.058 106.69 193.248C106.924 193.435 107.206 193.528 107.535 193.528C107.793 193.528 108.023 193.469 108.224 193.351C108.425 193.232 108.584 193.068 108.7 192.857C108.816 192.646 108.873 192.406 108.87 192.136C108.873 191.862 108.815 191.618 108.696 191.405C108.578 191.192 108.416 191.025 108.21 190.904C108.004 190.781 107.767 190.719 107.5 190.719C107.282 190.717 107.068 190.757 106.857 190.84C106.646 190.923 106.479 191.032 106.356 191.167L105.166 190.971L105.546 187.221H109.765V188.322H106.637L106.427 190.251H106.47C106.605 190.092 106.795 189.961 107.041 189.856C107.288 189.75 107.558 189.697 107.851 189.697C108.291 189.697 108.684 189.801 109.03 190.009C109.376 190.215 109.648 190.499 109.847 190.861C110.046 191.224 110.145 191.638 110.145 192.104C110.145 192.585 110.034 193.013 109.811 193.39C109.591 193.764 109.285 194.059 108.892 194.274C108.501 194.487 108.049 194.594 107.535 194.594ZM115.339 193.5L115.293 193.89C115.259 194.189 115.2 194.492 115.115 194.8C115.032 195.11 114.945 195.395 114.852 195.655C114.76 195.916 114.685 196.121 114.628 196.27H113.762C113.795 196.125 113.84 195.929 113.897 195.68C113.956 195.432 114.013 195.152 114.067 194.842C114.122 194.532 114.159 194.217 114.177 193.898L114.202 193.5H115.339ZM121.709 194.633C121.124 194.633 120.622 194.485 120.203 194.189C119.786 193.89 119.465 193.461 119.241 192.9C119.018 192.336 118.907 191.658 118.907 190.865C118.909 190.072 119.022 189.397 119.244 188.841C119.469 188.282 119.79 187.856 120.206 187.562C120.625 187.269 121.126 187.122 121.709 187.122C122.291 187.122 122.792 187.269 123.211 187.562C123.63 187.856 123.95 188.282 124.173 188.841C124.398 189.399 124.51 190.074 124.51 190.865C124.51 191.66 124.398 192.34 124.173 192.903C123.95 193.464 123.63 193.893 123.211 194.189C122.794 194.485 122.293 194.633 121.709 194.633ZM121.709 193.521C122.163 193.521 122.522 193.297 122.785 192.85C123.05 192.4 123.182 191.738 123.182 190.865C123.182 190.287 123.122 189.802 123.001 189.409C122.88 189.016 122.71 188.72 122.49 188.521C122.27 188.32 122.009 188.219 121.709 188.219C121.256 188.219 120.899 188.444 120.636 188.894C120.373 189.341 120.241 189.998 120.238 190.865C120.236 191.445 120.294 191.933 120.412 192.328C120.533 192.723 120.704 193.022 120.924 193.223C121.144 193.422 121.406 193.521 121.709 193.521ZM128.354 194.594C128.006 194.591 127.666 194.531 127.334 194.412C127.003 194.292 126.705 194.096 126.44 193.827C126.174 193.554 125.964 193.193 125.807 192.743C125.651 192.291 125.574 191.731 125.577 191.064C125.577 190.441 125.643 189.886 125.775 189.398C125.908 188.911 126.099 188.499 126.347 188.162C126.596 187.824 126.895 187.566 127.246 187.388C127.598 187.211 127.993 187.122 128.428 187.122C128.885 187.122 129.29 187.212 129.643 187.392C129.998 187.572 130.284 187.818 130.502 188.131C130.72 188.441 130.855 188.791 130.907 189.182H129.611C129.544 188.902 129.408 188.68 129.202 188.514C128.999 188.346 128.741 188.262 128.428 188.262C127.924 188.262 127.536 188.481 127.263 188.919C126.994 189.357 126.857 189.958 126.855 190.723H126.905C127.021 190.515 127.171 190.336 127.356 190.187C127.54 190.037 127.749 189.923 127.981 189.842C128.215 189.759 128.463 189.718 128.723 189.718C129.149 189.718 129.531 189.82 129.87 190.023C130.211 190.227 130.481 190.507 130.68 190.865C130.878 191.22 130.977 191.627 130.974 192.086C130.977 192.565 130.868 192.994 130.648 193.376C130.427 193.754 130.121 194.053 129.728 194.27C129.335 194.488 128.877 194.596 128.354 194.594ZM128.347 193.528C128.605 193.528 128.835 193.465 129.039 193.34C129.243 193.215 129.404 193.045 129.522 192.832C129.64 192.619 129.698 192.38 129.696 192.115C129.698 191.854 129.641 191.619 129.525 191.408C129.412 191.198 129.254 191.031 129.053 190.907C128.852 190.784 128.622 190.723 128.364 190.723C128.172 190.723 127.994 190.76 127.828 190.833C127.662 190.906 127.518 191.008 127.395 191.138C127.272 191.266 127.175 191.415 127.104 191.586C127.035 191.754 126.999 191.934 126.997 192.126C126.999 192.379 127.059 192.612 127.175 192.825C127.291 193.038 127.45 193.209 127.654 193.336C127.858 193.464 128.088 193.528 128.347 193.528Z" fill="#C6C6C6"/>
<path d="M102.41 129.14V130.198H99.1358V129.14H102.41ZM106.333 133.405C105.805 133.405 105.336 133.316 104.927 133.138C104.52 132.961 104.2 132.718 103.968 132.41C103.738 132.1 103.625 131.749 103.627 131.356C103.625 131.05 103.691 130.77 103.826 130.514C103.961 130.258 104.143 130.045 104.373 129.875C104.605 129.702 104.863 129.592 105.147 129.545V129.495C104.773 129.412 104.47 129.221 104.238 128.923C104.008 128.622 103.895 128.276 103.897 127.883C103.895 127.509 103.999 127.175 104.21 126.881C104.42 126.588 104.709 126.357 105.076 126.189C105.443 126.018 105.862 125.933 106.333 125.933C106.799 125.933 107.215 126.018 107.58 126.189C107.946 126.357 108.235 126.588 108.446 126.881C108.659 127.175 108.766 127.509 108.766 127.883C108.766 128.276 108.648 128.622 108.414 128.923C108.182 129.221 107.883 129.412 107.516 129.495V129.545C107.8 129.592 108.055 129.702 108.283 129.875C108.512 130.045 108.695 130.258 108.83 130.514C108.967 130.77 109.036 131.05 109.036 131.356C109.036 131.749 108.92 132.1 108.688 132.41C108.455 132.718 108.136 132.961 107.729 133.138C107.324 133.316 106.859 133.405 106.333 133.405ZM106.333 132.389C106.605 132.389 106.842 132.343 107.043 132.25C107.245 132.156 107.401 132.023 107.512 131.853C107.623 131.682 107.68 131.486 107.683 131.263C107.68 131.031 107.62 130.826 107.501 130.649C107.385 130.469 107.226 130.328 107.022 130.226C106.821 130.125 106.591 130.074 106.333 130.074C106.073 130.074 105.841 130.125 105.637 130.226C105.433 130.328 105.272 130.469 105.154 130.649C105.038 130.826 104.981 131.031 104.984 131.263C104.981 131.486 105.036 131.682 105.147 131.853C105.258 132.021 105.415 132.152 105.616 132.247C105.819 132.342 106.058 132.389 106.333 132.389ZM106.333 129.076C106.556 129.076 106.752 129.031 106.923 128.941C107.095 128.851 107.232 128.725 107.331 128.564C107.43 128.403 107.481 128.218 107.484 128.007C107.481 127.799 107.432 127.616 107.335 127.46C107.237 127.301 107.103 127.179 106.93 127.094C106.757 127.007 106.558 126.963 106.333 126.963C106.103 126.963 105.901 127.007 105.726 127.094C105.553 127.179 105.418 127.301 105.321 127.46C105.226 127.616 105.18 127.799 105.183 128.007C105.18 128.218 105.228 128.403 105.325 128.564C105.424 128.723 105.56 128.848 105.733 128.941C105.908 129.031 106.108 129.076 106.333 129.076ZM112.731 133.405C112.258 133.405 111.834 133.316 111.46 133.138C111.086 132.958 110.789 132.712 110.569 132.4C110.351 132.087 110.235 131.73 110.221 131.327H111.499C111.523 131.625 111.652 131.869 111.886 132.059C112.121 132.246 112.402 132.339 112.731 132.339C112.989 132.339 113.219 132.28 113.42 132.162C113.622 132.043 113.78 131.879 113.896 131.668C114.012 131.457 114.069 131.217 114.067 130.947C114.069 130.673 114.011 130.429 113.893 130.216C113.774 130.003 113.612 129.836 113.406 129.715C113.2 129.592 112.963 129.53 112.696 129.53C112.478 129.528 112.264 129.568 112.053 129.651C111.842 129.734 111.675 129.843 111.552 129.978L110.363 129.782L110.743 126.032H114.961V127.133H111.833L111.623 129.062H111.666C111.801 128.903 111.992 128.772 112.238 128.667C112.484 128.561 112.754 128.508 113.047 128.508C113.488 128.508 113.881 128.612 114.226 128.82C114.572 129.026 114.844 129.31 115.043 129.672C115.242 130.035 115.341 130.449 115.341 130.915C115.341 131.396 115.23 131.824 115.008 132.201C114.787 132.575 114.481 132.87 114.088 133.085C113.697 133.298 113.245 133.405 112.731 133.405ZM120.535 132.311L120.489 132.701C120.456 133 120.396 133.303 120.311 133.611C120.228 133.921 120.141 134.206 120.048 134.466C119.956 134.727 119.882 134.932 119.825 135.081H118.958C118.991 134.936 119.036 134.74 119.093 134.491C119.152 134.243 119.209 133.963 119.264 133.653C119.318 133.343 119.355 133.028 119.374 132.709L119.399 132.311H120.535ZM126.905 133.444C126.32 133.444 125.818 133.296 125.399 133C124.982 132.701 124.662 132.272 124.437 131.711C124.214 131.147 124.103 130.469 124.103 129.676C124.105 128.883 124.218 128.208 124.44 127.652C124.665 127.093 124.986 126.667 125.403 126.373C125.822 126.08 126.322 125.933 126.905 125.933C127.487 125.933 127.988 126.08 128.407 126.373C128.826 126.667 129.147 127.093 129.369 127.652C129.594 128.21 129.707 128.885 129.707 129.676C129.707 130.471 129.594 131.151 129.369 131.714C129.147 132.275 128.826 132.704 128.407 133C127.99 133.296 127.49 133.444 126.905 133.444ZM126.905 132.332C127.359 132.332 127.718 132.108 127.981 131.661C128.246 131.211 128.379 130.549 128.379 129.676C128.379 129.098 128.318 128.613 128.197 128.22C128.077 127.827 127.906 127.531 127.686 127.332C127.466 127.131 127.205 127.03 126.905 127.03C126.453 127.03 126.095 127.255 125.832 127.705C125.57 128.152 125.437 128.809 125.435 129.676C125.432 130.256 125.49 130.744 125.609 131.139C125.729 131.534 125.9 131.833 126.12 132.034C126.34 132.233 126.602 132.332 126.905 132.332Z" fill="#C6C6C6"/>
<path d="M80.7528 67.9507V69.009H77.4786V67.9507H80.7528ZM85.0487 64.8435V72.1162H83.7313V66.1254H83.6887L81.9877 67.2121V66.0047L83.7952 64.8435H85.0487ZM89.5835 72.2547C88.9988 72.2547 88.4969 72.1067 88.0779 71.8108C87.6612 71.5125 87.3404 71.0828 87.1155 70.5218C86.893 69.9583 86.7817 69.28 86.7817 68.4869C86.7841 67.6939 86.8965 67.0191 87.1191 66.4628C87.344 65.9041 87.6647 65.478 88.0814 65.1844C88.5004 64.8908 89.0012 64.7441 89.5835 64.7441C90.1659 64.7441 90.6666 64.8908 91.0857 65.1844C91.5047 65.478 91.8255 65.9041 92.048 66.4628C92.2729 67.0215 92.3854 67.6962 92.3854 68.4869C92.3854 69.2824 92.2729 69.9619 92.048 70.5253C91.8255 71.0864 91.5047 71.5149 91.0857 71.8108C90.669 72.1067 90.1683 72.2547 89.5835 72.2547ZM89.5835 71.1432C90.0381 71.1432 90.3968 70.9195 90.6595 70.472C90.9247 70.0222 91.0573 69.3605 91.0573 68.4869C91.0573 67.9093 90.9969 67.424 90.8762 67.031C90.7554 66.638 90.585 66.3421 90.3648 66.1432C90.1446 65.942 89.8842 65.8414 89.5835 65.8414C89.1314 65.8414 88.7739 66.0663 88.5111 66.5161C88.2483 66.9635 88.1157 67.6205 88.1134 68.4869C88.111 69.067 88.169 69.5547 88.2874 69.95C88.4081 70.3454 88.5786 70.6437 88.7987 70.8449C89.0189 71.0438 89.2805 71.1432 89.5835 71.1432ZM93.5653 72.1162V71.1645L96.0901 68.6894C96.3316 68.4455 96.5328 68.2289 96.6938 68.0395C96.8548 67.8501 96.9755 67.6666 97.056 67.4891C97.1365 67.3115 97.1768 67.1221 97.1768 66.9209C97.1768 66.6913 97.1247 66.4948 97.0205 66.3314C96.9163 66.1657 96.7731 66.0378 96.5908 65.9479C96.4085 65.8579 96.2014 65.8129 95.9694 65.8129C95.7303 65.8129 95.5207 65.8627 95.3408 65.9621C95.1609 66.0592 95.0212 66.1977 94.9218 66.3776C94.8247 66.5575 94.7762 66.7718 94.7762 67.0203H93.5226C93.5226 66.5587 93.628 66.1574 93.8387 65.8165C94.0494 65.4756 94.3394 65.2116 94.7087 65.0246C95.0804 64.8376 95.5065 64.7441 95.9871 64.7441C96.4748 64.7441 96.9033 64.8352 97.2726 65.0175C97.642 65.1998 97.9284 65.4495 98.132 65.7668C98.338 66.084 98.441 66.4462 98.441 66.8534C98.441 67.1257 98.3889 67.3932 98.2847 67.656C98.1805 67.9188 97.9971 68.21 97.7343 68.5296C97.4739 68.8492 97.1081 69.2362 96.637 69.6908L95.3834 70.9656V71.0154H98.551V72.1162H93.5653ZM100.582 72.1943C100.367 72.1943 100.182 72.1186 100.028 71.9671C99.8744 71.8155 99.7987 71.6309 99.801 71.4131C99.7987 71.2 99.8744 71.0177 100.028 70.8662C100.182 70.7147 100.367 70.6389 100.582 70.6389C100.791 70.6389 100.972 70.7147 101.126 70.8662C101.282 71.0177 101.361 71.2 101.364 71.4131C101.361 71.5575 101.323 71.6889 101.25 71.8073C101.179 71.9256 101.084 72.0203 100.966 72.0914C100.85 72.16 100.722 72.1943 100.582 72.1943ZM105.117 72.2156C104.644 72.2156 104.22 72.1269 103.846 71.9493C103.472 71.7694 103.175 71.5232 102.954 71.2107C102.737 70.8982 102.621 70.5407 102.606 70.1382H103.885C103.909 70.4365 104.038 70.6804 104.272 70.8698C104.506 71.0568 104.788 71.1503 105.117 71.1503C105.375 71.1503 105.605 71.0911 105.806 70.9727C106.007 70.8544 106.166 70.6898 106.282 70.4791C106.398 70.2684 106.455 70.0281 106.452 69.7583C106.455 69.4836 106.397 69.2398 106.278 69.0267C106.16 68.8137 105.998 68.6468 105.792 68.526C105.586 68.4029 105.349 68.3414 105.082 68.3414C104.864 68.339 104.65 68.3792 104.439 68.4621C104.228 68.545 104.061 68.6539 103.938 68.7888L102.748 68.5935L103.128 64.8435H107.347V65.9443H104.219L104.009 67.8726H104.052C104.187 67.714 104.377 67.5826 104.623 67.4784C104.87 67.3719 105.14 67.3186 105.433 67.3186C105.873 67.3186 106.266 67.4228 106.612 67.6311C106.958 67.8371 107.23 68.1212 107.429 68.4834C107.628 68.8456 107.727 69.2599 107.727 69.7263C107.727 70.2069 107.616 70.6354 107.393 71.0118C107.173 71.3859 106.867 71.6806 106.474 71.896C106.083 72.1091 105.631 72.2156 105.117 72.2156ZM112.921 71.1219L112.875 71.5125C112.841 71.8108 112.782 72.1138 112.697 72.4216C112.614 72.7317 112.527 73.017 112.434 73.2774C112.342 73.5378 112.267 73.7426 112.21 73.8918H111.344C111.377 73.7474 111.422 73.5509 111.479 73.3023C111.538 73.0537 111.595 72.7744 111.649 72.4642C111.704 72.1541 111.741 71.8392 111.759 71.5196L111.784 71.1219H112.921ZM119.923 67.9507V69.009H116.649V67.9507H119.923ZM123.949 72.2547C123.364 72.2547 122.862 72.1067 122.443 71.8108C122.026 71.5125 121.706 71.0828 121.481 70.5218C121.258 69.9583 121.147 69.28 121.147 68.4869C121.149 67.6939 121.262 67.0191 121.484 66.4628C121.709 65.9041 122.03 65.478 122.447 65.1844C122.866 64.8908 123.366 64.7441 123.949 64.7441C124.531 64.7441 125.032 64.8908 125.451 65.1844C125.87 65.478 126.191 65.9041 126.413 66.4628C126.638 67.0215 126.751 67.6962 126.751 68.4869C126.751 69.2824 126.638 69.9619 126.413 70.5253C126.191 71.0864 125.87 71.5149 125.451 71.8108C125.034 72.1067 124.534 72.2547 123.949 72.2547ZM123.949 71.1432C124.403 71.1432 124.762 70.9195 125.025 70.472C125.29 70.0222 125.422 69.3605 125.422 68.4869C125.422 67.9093 125.362 67.424 125.241 67.031C125.121 66.638 124.95 66.3421 124.73 66.1432C124.51 65.942 124.249 65.8414 123.949 65.8414C123.497 65.8414 123.139 66.0663 122.876 66.5161C122.614 66.9635 122.481 67.6205 122.479 68.4869C122.476 69.067 122.534 69.5547 122.653 69.95C122.773 70.3454 122.944 70.6437 123.164 70.8449C123.384 71.0438 123.646 71.1432 123.949 71.1432ZM130.594 72.2156C130.246 72.2133 129.906 72.1529 129.575 72.0345C129.243 71.9138 128.945 71.7185 128.68 71.4486C128.415 71.1763 128.204 70.8153 128.048 70.3655C127.891 69.9133 127.814 69.3534 127.817 68.6858C127.817 68.0632 127.883 67.508 128.016 67.0203C128.148 66.5326 128.339 66.1207 128.587 65.7845C128.836 65.446 129.136 65.1879 129.486 65.0104C129.839 64.8328 130.233 64.7441 130.668 64.7441C131.125 64.7441 131.53 64.834 131.883 65.0139C132.238 65.1939 132.524 65.4401 132.742 65.7526C132.96 66.0627 133.095 66.4131 133.147 66.8037H131.851C131.785 66.5244 131.649 66.3018 131.443 66.1361C131.239 65.968 130.981 65.884 130.668 65.884C130.164 65.884 129.776 66.103 129.504 66.5409C129.234 66.9789 129.098 67.5802 129.095 68.3449H129.145C129.261 68.1366 129.411 67.9578 129.596 67.8087C129.781 67.6595 129.989 67.5447 130.221 67.4642C130.455 67.3814 130.703 67.3399 130.963 67.3399C131.389 67.3399 131.772 67.4417 132.11 67.6453C132.451 67.8489 132.721 68.1295 132.92 68.4869C133.119 68.8421 133.217 69.2493 133.215 69.7085C133.217 70.1868 133.108 70.6164 132.888 70.9976C132.668 71.3764 132.361 71.6747 131.968 71.8925C131.575 72.1103 131.117 72.218 130.594 72.2156ZM130.587 71.1503C130.845 71.1503 131.076 71.0876 131.279 70.9621C131.483 70.8366 131.644 70.6673 131.762 70.4543C131.881 70.2412 131.939 70.0021 131.936 69.7369C131.939 69.4765 131.882 69.241 131.766 69.0303C131.652 68.8196 131.495 68.6527 131.293 68.5296C131.092 68.4065 130.863 68.3449 130.604 68.3449C130.413 68.3449 130.234 68.3816 130.068 68.455C129.903 68.5284 129.758 68.6302 129.635 68.7604C129.512 68.8882 129.415 69.0374 129.344 69.2078C129.275 69.3759 129.24 69.5558 129.237 69.7476C129.24 70.0009 129.299 70.2341 129.415 70.4472C129.531 70.6602 129.691 70.8307 129.894 70.9585C130.098 71.0864 130.329 71.1503 130.587 71.1503Z" fill="#C6C6C6"/>
<circle cx="155.222" cy="360.952" r="5.30127" transform="rotate(47.597 155.222 360.952)" fill="#FFC54F"/>
<circle cx="211.076" cy="361.51" r="5.30127" fill="#50C8A7"/>
<path d="M176.609 360.302C176.576 359.992 176.436 359.75 176.19 359.577C175.946 359.405 175.629 359.318 175.238 359.318C174.964 359.318 174.728 359.36 174.532 359.442C174.335 359.525 174.185 359.638 174.081 359.78C173.977 359.922 173.923 360.084 173.921 360.266C173.921 360.418 173.955 360.549 174.024 360.66C174.095 360.772 174.191 360.866 174.312 360.945C174.432 361.02 174.566 361.084 174.713 361.136C174.86 361.188 175.008 361.232 175.157 361.268L175.839 361.438C176.113 361.502 176.377 361.588 176.631 361.697C176.886 361.806 177.115 361.944 177.316 362.109C177.519 362.275 177.68 362.475 177.799 362.709C177.917 362.944 177.976 363.218 177.976 363.533C177.976 363.959 177.867 364.335 177.65 364.659C177.432 364.981 177.117 365.233 176.705 365.415C176.296 365.595 175.8 365.685 175.217 365.685C174.651 365.685 174.16 365.598 173.743 365.422C173.329 365.247 173.005 364.992 172.77 364.655C172.538 364.319 172.413 363.91 172.394 363.427H173.69C173.709 363.68 173.787 363.891 173.925 364.059C174.062 364.227 174.241 364.352 174.461 364.435C174.683 364.518 174.932 364.56 175.206 364.56C175.493 364.56 175.744 364.517 175.959 364.432C176.177 364.344 176.348 364.223 176.471 364.07C176.594 363.913 176.657 363.731 176.659 363.523C176.657 363.333 176.601 363.177 176.492 363.054C176.383 362.928 176.23 362.824 176.034 362.741C175.84 362.656 175.613 362.58 175.352 362.514L174.525 362.301C173.926 362.147 173.452 361.914 173.104 361.601C172.759 361.287 172.586 360.869 172.586 360.348C172.586 359.919 172.702 359.544 172.934 359.222C173.168 358.9 173.487 358.65 173.889 358.473C174.291 358.293 174.747 358.203 175.256 358.203C175.772 358.203 176.224 358.293 176.613 358.473C177.003 358.65 177.31 358.898 177.532 359.215C177.755 359.53 177.87 359.892 177.877 360.302H176.609ZM185.127 358.302V365.575H183.956L180.529 360.621H180.468V365.575H179.151V358.302H180.33L183.753 363.26H183.817V358.302H185.127ZM186.563 365.575V358.302H189.29C189.849 358.302 190.318 358.4 190.697 358.594C191.078 358.788 191.365 359.06 191.559 359.41C191.756 359.758 191.854 360.164 191.854 360.628C191.854 361.095 191.755 361.5 191.556 361.843C191.359 362.184 191.069 362.448 190.686 362.635C190.302 362.82 189.831 362.912 189.273 362.912H187.33V361.818H189.095C189.422 361.818 189.689 361.773 189.898 361.683C190.106 361.591 190.26 361.457 190.359 361.282C190.461 361.104 190.512 360.887 190.512 360.628C190.512 360.37 190.461 360.15 190.359 359.968C190.257 359.783 190.102 359.644 189.894 359.549C189.686 359.452 189.417 359.403 189.088 359.403H187.881V365.575H186.563ZM190.32 362.28L192.121 365.575H190.65L188.882 362.28H190.32Z" fill="#C6C6C6"/>
<path d="M229.152 365.575V358.302H231.879C232.438 358.302 232.907 358.4 233.285 358.594C233.667 358.788 233.954 359.06 234.148 359.41C234.345 359.758 234.443 360.164 234.443 360.628C234.443 361.095 234.344 361.5 234.145 361.843C233.948 362.184 233.658 362.448 233.275 362.635C232.891 362.82 232.42 362.912 231.861 362.912H229.919V361.818H231.684C232.011 361.818 232.278 361.773 232.486 361.683C232.695 361.591 232.849 361.457 232.948 361.282C233.05 361.104 233.101 360.887 233.101 360.628C233.101 360.37 233.05 360.15 232.948 359.968C232.846 359.783 232.691 359.644 232.483 359.549C232.275 359.452 232.006 359.403 231.677 359.403H230.469V365.575H229.152ZM232.909 362.28L234.709 365.575H233.239L231.471 362.28H232.909ZM239.608 360.302C239.575 359.992 239.435 359.75 239.189 359.577C238.945 359.405 238.628 359.318 238.237 359.318C237.963 359.318 237.727 359.36 237.531 359.442C237.334 359.525 237.184 359.638 237.08 359.78C236.976 359.922 236.922 360.084 236.92 360.266C236.92 360.418 236.954 360.549 237.023 360.66C237.094 360.772 237.19 360.866 237.311 360.945C237.431 361.02 237.565 361.084 237.712 361.136C237.859 361.188 238.007 361.232 238.156 361.268L238.838 361.438C239.112 361.502 239.376 361.588 239.63 361.697C239.885 361.806 240.114 361.944 240.315 362.109C240.518 362.275 240.679 362.475 240.798 362.709C240.916 362.944 240.975 363.218 240.975 363.533C240.975 363.959 240.867 364.335 240.649 364.659C240.431 364.981 240.116 365.233 239.704 365.415C239.295 365.595 238.799 365.685 238.216 365.685C237.65 365.685 237.159 365.598 236.742 365.422C236.328 365.247 236.004 364.992 235.769 364.655C235.537 364.319 235.412 363.91 235.393 363.427H236.689C236.708 363.68 236.786 363.891 236.924 364.059C237.061 364.227 237.24 364.352 237.46 364.435C237.682 364.518 237.931 364.56 238.206 364.56C238.492 364.56 238.743 364.517 238.958 364.432C239.176 364.344 239.347 364.223 239.47 364.07C239.593 363.913 239.656 363.731 239.658 363.523C239.656 363.333 239.6 363.177 239.491 363.054C239.382 362.928 239.229 362.824 239.033 362.741C238.839 362.656 238.612 362.58 238.351 362.514L237.524 362.301C236.925 362.147 236.451 361.914 236.103 361.601C235.758 361.287 235.585 360.869 235.585 360.348C235.585 359.919 235.701 359.544 235.933 359.222C236.167 358.9 236.486 358.65 236.888 358.473C237.291 358.293 237.746 358.203 238.255 358.203C238.771 358.203 239.224 358.293 239.612 358.473C240.002 358.65 240.309 358.898 240.532 359.215C240.754 359.53 240.869 359.892 240.876 360.302H239.608ZM246.102 360.302C246.069 359.992 245.93 359.75 245.683 359.577C245.439 359.405 245.122 359.318 244.732 359.318C244.457 359.318 244.221 359.36 244.025 359.442C243.828 359.525 243.678 359.638 243.574 359.78C243.47 359.922 243.417 360.084 243.414 360.266C243.414 360.418 243.448 360.549 243.517 360.66C243.588 360.772 243.684 360.866 243.805 360.945C243.926 361.02 244.059 361.084 244.206 361.136C244.353 361.188 244.501 361.232 244.65 361.268L245.332 361.438C245.606 361.502 245.87 361.588 246.124 361.697C246.379 361.806 246.608 361.944 246.809 362.109C247.013 362.275 247.174 362.475 247.292 362.709C247.41 362.944 247.47 363.218 247.47 363.533C247.47 363.959 247.361 364.335 247.143 364.659C246.925 364.981 246.61 365.233 246.198 365.415C245.789 365.595 245.293 365.685 244.71 365.685C244.145 365.685 243.653 365.598 243.237 365.422C242.822 365.247 242.498 364.992 242.264 364.655C242.032 364.319 241.906 363.91 241.887 363.427H243.183C243.202 363.68 243.28 363.891 243.418 364.059C243.555 364.227 243.734 364.352 243.954 364.435C244.176 364.518 244.425 364.56 244.7 364.56C244.986 364.56 245.237 364.517 245.453 364.432C245.67 364.344 245.841 364.223 245.964 364.07C246.087 363.913 246.15 363.731 246.152 363.523C246.15 363.333 246.094 363.177 245.985 363.054C245.876 362.928 245.724 362.824 245.527 362.741C245.333 362.656 245.106 362.58 244.845 362.514L244.018 362.301C243.419 362.147 242.945 361.914 242.597 361.601C242.252 361.287 242.079 360.869 242.079 360.348C242.079 359.919 242.195 359.544 242.427 359.222C242.661 358.9 242.98 358.65 243.382 358.473C243.785 358.293 244.24 358.203 244.749 358.203C245.265 358.203 245.718 358.293 246.106 358.473C246.497 358.65 246.803 358.898 247.026 359.215C247.248 359.53 247.363 359.892 247.37 360.302H246.102ZM249.962 358.302V365.575H248.644V358.302H249.962Z" fill="#C6C6C6"/>
<defs>
<linearGradient id="paint0_linear_1001_7787" x1="146.513" y1="317.809" x2="598.673" y2="317.809" gradientUnits="userSpaceOnUse">
<stop stop-color="#FF5F9B"/>
<stop offset="1" stop-color="#2F67FF"/>
</linearGradient>
<linearGradient id="paint1_linear_1001_7787" x1="146.014" y1="318.308" x2="146.013" y2="40.6992" gradientUnits="userSpaceOnUse">
<stop stop-color="#FF5F9B"/>
<stop offset="1" stop-color="#2F67FF"/>
</linearGradient>
</defs>
</svg>
