<svg xmlns="http://www.w3.org/2000/svg" width="1904" height="631" fill="none" xmlns:v="https://vecta.io/nano"><rect x=".1" y=".976" width="1903" height="629.667" rx="51" fill="#fff"/><g stroke="#000"><g stroke-width="1.5"><path d="M213.72 172.498l-.486.487m10.632-14.611l-.486.487m81.597 155.002l.486-.487m9.647-13.636l.489-.486m-16.616-135.521h-.04m.04 1.994v-1.994m0 1.994h-.04m-55.116-5.348v.04m51.801-.04h-51.799m51.799 0v.04m17.967 17.924h-.039m.039 116.214V178.343m0 116.214h-.039m.001 0h-.51m-24.685 11.952h-.04m.04 1.995v-1.995m0 1.996h-.04m-67.734-11.251v-.04"/><path d="M218.593 297.25h1.995"/><path d="M218.594 297.254v-.04m11.254 11.291h.039"/><path d="M229.848 306.511v1.994m0-1.994h.039m-14.652-12.616h.04m-.038-116.213v116.213"/><path d="M215.235 177.682h.04m-.003 0h.51m69.223 134.182v-.04"/><path d="M233.207 311.859h51.798m-51.8.005v-.04m77.695-15.119v.51m0 .039v-.04"/><path d="M297.618 297.25H310.9"/><path d="M297.622 297.254v-.04m-79.69-121.68v-.51m0-.035v.039m13.288-.039h-13.281m13.281 0v.039m56.106 135.847l.024-.023m-2.343 1.007l.236-.008.234-.026.234-.043.231-.06.226-.075.223-.092.215-.106.21-.122.199-.136.189-.15.175-.163.165-.177.148-.189.139-.199.119-.208.109-.216.09-.223.075-.228.061-.231.042-.233.027-.235.008-.234m-3.357 3.319l.21-.007.207-.02.202-.032.2-.044.196-.056.189-.067.183-.077.178-.088.17-.097.162-.106.154-.115.146-.122.138-.129m1.696-7.912l.133-.31.146-.305m-.001.001l.157-.295.164-.288.173-.282.186-.274.191-.268.205-.26.21-.252.22-.244.226-.236m.003.001l.261-.25.268-.24.281-.23.29-.22.298-.209.308-.197.313-.185.324-.174.33-.161.34-.148m-.005-.002l.327-.128.335-.117.34-.106.35-.092.356-.08.362-.066.366-.053.372-.037.377-.023.38-.008m-9.263 9.296l.011-.401.027-.402.042-.402.061-.399.08-.397.096-.393.114-.389.13-.383.146-.377.162-.371.178-.362.194-.354.21-.345.226-.336.239-.325.252-.315.266-.304.276-.291.292-.279.303-.266.313-.252.327-.239.335-.224.345-.21.353-.195.362-.179.372-.163.377-.146.382-.13.391-.114.393-.096.398-.079.401-.062.402-.045.403-.027.404-.008"/><path d="M288.323 306.51l.008-.345.019-.342.031-.338.043-.335.053-.33.066-.325.077-.32.088-.314.098-.309.109-.303.117-.296m24.525-8.396l-.011.226-.032.227-.05.225-.069.222-.088.215-.106.208-.125.198-.069.096-.075.093-.074.086-.085.088m-1.869.808l.205-.008.207-.026.207-.041.202-.058.199-.073.194-.088.186-.103.178-.117.168-.13.156-.144.144-.157.13-.168.117-.178.103-.186.088-.193.074-.199.059-.204.04-.206.026-.206.008-.207"/><path d="M310.905 297.214l.207-.008.207-.025.205-.04.202-.057.194-.072.188-.087.181-.101.173-.115.162-.128.154-.14m-.175-120.421l-.025-.024m-2.339-1.007v.039m3.356 3.315l-.008-.234-.026-.234-.043-.233-.061-.232-.074-.227-.091-.223-.109-.215-.119-.209-.136-.199-.151-.188-.162-.177-.178-.164-.189-.15-.199-.136-.207-.122-.218-.106-.223-.092-.226-.076-.231-.059-.234-.044-.236-.026-.234-.008m3.317 3.354l-.006-.209-.021-.207-.032-.203-.045-.2-.056-.195-.066-.189-.077-.183-.088-.177-.098-.17-.106-.162-.115-.155-.122-.147-.127-.138m-7.904-1.692l-.311-.135-.305-.146m-.006-.001l-.295-.154-.287-.165-.282-.174-.276-.185-.268-.193-.258-.202-.252-.211-.245-.22-.236-.227m.007 0l-.25-.26-.242-.269-.228-.28-.221-.289-.207-.299-.199-.307-.186-.315-.173-.323-.162-.331-.146-.338m-.001 0l-.131-.327-.116-.335-.104-.342-.093-.348-.08-.356-.066-.361-.053-.367-.037-.372-.024-.377-.008-.38m9.293 9.261l-.404-.009-.401-.026-.401-.045-.399-.061-.398-.079-.393-.096-.388-.113-.383-.129-.377-.147-.372-.162-.361-.179-.356-.195-.345-.209-.335-.225-.324-.238-.316-.253-.303-.265-.292-.279-.279-.291-.266-.303-.252-.314-.239-.325-.223-.335-.21-.345-.194-.353-.181-.363-.162-.37-.146-.378-.13-.384-.114-.39-.096-.394-.08-.397-.061-.401-.045-.402-.026-.403-.011-.403m9.263 9.262v.039"/><path d="M308.246 175.023l-.346-.006-.342-.019-.338-.031-.334-.044-.33-.055-.327-.066-.318-.077-.316-.087-.309-.098-.302-.107-.295-.117m-6.697-12.907l-.025-.023m1.016 2.348l-.008-.234-.027-.234-.042-.234-.059-.231-.077-.227-.09-.223-.106-.215-.122-.209-.136-.199-.151-.188-.162-.177-.178-.164-.189-.15-.199-.136-.207-.122-.218-.107-.221-.091-.228-.076-.231-.06-.234-.043-.234-.026-.236-.009m3.327 3.355l-.005-.209-.022-.207-.031-.203-.043-.199-.056-.195-.069-.189-.077-.184-.087-.176-.096-.17-.106-.163-.115-.155-.122-.146-.13-.138m-56.504-.026l-.016.018m-1.005 2.341h.04"/><path d="M243.827 160.379l-.234.009-.233.026-.234.043-.231.06-.229.075-.223.092-.215.106-.207.121-.199.136-.189.151-.178.163-.162.177-.151.188-.136.2-.122.208-.106.216-.093.223-.075.227-.061.231-.042.234-.027.235-.008.234m1.02-2.361l.093-.089.098-.084.101-.083.107-.079.22-.142.229-.125.236-.107.244-.089.25-.07.25-.05.255-.031.252-.011m-4.028 8.872l-.136.31-.146.305m.001.001l-.154.294-.165.288-.175.282-.184.275-.194.267-.202.26-.212.252-.218.244-.228.236m.001 0l-.261.25-.268.24-.279.23-.289.22-.301.208-.305.198-.316.185-.324.174-.33.161-.337.148m.003-.001l-.326.129-.335.117-.343.105-.348.093-.356.08-.361.066-.367.052-.371.038-.378.023-.38.008m9.265-9.295l-.008.402-.026.402-.045.401-.061.399-.08.397-.096.393-.111.389-.13.384-.146.377-.163.37-.18.362-.194.355-.21.345-.223.335-.239.326-.252.315-.266.303-.279.291-.292.279-.303.266-.313.252-.325.239-.334.224-.346.21-.353.195-.364.179-.369.163-.377.146-.385.131-.391.113-.393.096-.398.08-.402.062-.401.044-.403.027-.402.009m9.251-9.261h.04"/><path d="M240.511 165.728l-.006.345-.018.342-.032.338-.043.334-.055.33-.067.326-.077.32-.087.314-.099.309-.106.303-.117.296m-24.526 8.397l.011-.227.032-.227.05-.225.069-.221.091-.216.106-.207.125-.198.069-.097.074-.093.074-.086.085-.088m1.868-.808l-.208.008-.207.025-.204.042-.205.057-.196.074-.194.088-.186.103-.178.116-.17.131-.157.144-.143.156-.131.168-.116.178-.104.187-.088.193-.071.199-.059.203-.042.206-.024.207-.011.207m2.694-2.657l-.21.009-.207.024-.205.041-.199.057-.197.072-.188.086-.181.102-.173.114-.162.128-.151.14m.174 120.432l.016.018m-1.01-2.352l.01.234.024.234.045.234.059.231.074.227.093.223.107.215.122.209.135.199.149.188.165.177.175.164.189.15.199.136.21.122.215.107.223.091.228.076.231.059.234.044.234.026.234.009"/><path d="M215.278 293.895l.008.209.018.207.032.203.045.199.056.195.066.189.077.183.091.177.095.17.107.163.114.155.122.146.13.138m13.611 12.276l.008.234.026.234.043.234.061.231.074.227.093.222.106.216.12.209.138.199.149.188.164.177.176.164.188.15.2.136.209.122.216.106.223.092.226.076.233.059.234.043.234.027.234.008"/><path d="M229.883 308.505l.008.209.019.208.032.204.045.2.056.195.069.19.077.184.087.177.099.17.106.163.117.155.122.147.13.138m-6.703-12.923l.311.135.303.146m.004.001l.295.154.29.165.281.174.274.184.268.194.261.202.252.211.244.22.234.227m-.003 0l.25.26.241.27.232.279.217.289.21.299.197.307.186.315.172.323.162.331.149.338m.001-.001l.127.327.117.335.107.342.093.349.079.355.067.362.05.367.04.372.021.376.008.38m-9.299-9.26l.401.008.401.027.401.044.402.062.395.079.393.095.388.113.385.13.378.146.369.163.364.179.353.194.345.21.335.224.327.239.313.252.303.266.292.279.279.29.266.303.252.315.239.324.226.336.21.344.194.354.178.363.165.37.146.378.13.384.111.389.099.395.079.397.061.401.046.402.026.403.008.403m-9.256-9.297l.345.007.34.019.34.031.335.043.329.055.324.066.322.077.313.088.308.098.303.107.297.117m86.091-122.933h-1.992m-67.767-11.256v1.995m77.065 128.827V163.069m-6.644 138.13l.375-.011.374-.032.372-.053.37-.074.364-.094.358-.115.351-.135.342-.155.332-.174.325-.192.31-.21.298-.228.287-.244.271-.26.257-.275.239-.289.224-.302.207-.314.188-.325.17-.336.149-.344.13-.353.112-.359.09-.365.069-.369.048-.373.027-.374.005-.289M310.9 301.2h-1.326m.004 0l-.12.002-.117.008-.119.014-.117.018-.117.024-.114.029-.115.034-.111.039-.112.044-.109.049-.103.054-.104.059-.101.063-.098.067-.096.072-.09.076-.088.08-.085.084-.079.087-.077.091-.072.095-.069.097-.064.101-.058.103-.053.105-.051.108-.045.11-.04.113-.034.113-.03.115-.024.117-.018.117-.013.118-.011.119-.003.131m.001-.001v5.31m-6.643 6.644l.374-.011.375-.032.372-.053.369-.074.364-.094.359-.115.35-.136.343-.154.332-.174.324-.192.311-.211.297-.227.287-.244.271-.26.258-.275.239-.289.223-.302.207-.314.189-.325.17-.336.149-.344.13-.353.111-.359.091-.365.069-.369.047-.373.027-.375.005-.288m-88.988 6.644h82.344m-88.987-6.64l.01.376.032.374.053.372.075.369.095.363.115.358.135.35.154.343.173.333.194.322.21.312.228.298.242.286.26.271.276.257.287.24.303.223.314.206.326.188.335.169.345.15.351.131.361.11.364.089.369.07.372.047.375.027.287.006m-6.644-138.127v131.487"/><path d="M217.932 171.038l-.375.011-.374.032-.372.053-.37.074-.363.094-.356.115-.351.135-.343.155-.334.174-.322.192-.311.211-.3.227-.287.244-.271.26-.255.275-.241.289-.224.302-.207.314-.186.325-.17.336-.151.344-.13.353-.109.359-.09.365-.07.369-.047.373-.027.374-.008.289m6.651-6.644h1.326m-.001.001l.119-.003.12-.008.117-.013.116-.019.117-.024.117-.029.112-.034.114-.039.109-.044.109-.049.106-.054.104-.058.101-.063.098-.068.093-.072.093-.076.087-.08.083-.084.082-.087.075-.091.074-.094.066-.098.064-.1.058-.103.056-.106.048-.108.045-.11.04-.112.035-.114.029-.115.024-.117.021-.117.013-.118.008-.118.003-.132m0 .001v-5.31m6.643-6.644l-.374.01-.375.032-.371.053-.37.074-.364.095-.356.115-.35.135-.343.154-.335.174-.321.192-.311.211-.3.227-.287.245-.271.259-.255.275-.242.289-.223.302-.207.314-.186.325-.17.336-.151.344-.13.353-.109.359-.091.365-.069.369-.047.373-.027.375-.008.288m88.99-6.643h-82.347m88.982 6.639l-.011-.375-.032-.375-.053-.371-.074-.369-.093-.364-.114-.357-.136-.351-.156-.342-.173-.333-.191-.323-.213-.311-.226-.299-.244-.285-.26-.272-.274-.256-.29-.24-.302-.223-.314-.206-.324-.188-.337-.17-.343-.15-.353-.13-.359-.11-.364-.09-.372-.069-.372-.048-.374-.026-.284-.006"/><use href="#M"/><use href="#N"/><use href="#M" x="-90.848" y="143.973"/><use href="#N" x="67.735" y="143.973"/><use href="#O"/><path d="M295.966 308.105c0 1.28 1.037 2.317 2.316 2.317a2.32 2.32 0 0 0 2.317-2.317 2.32 2.32 0 0 0-2.317-2.316c-1.279 0-2.316 1.037-2.316 2.316z"/><use href="#O" x="90.848" y="-143.973"/><path d="M228.231 164.132c0 1.28 1.037 2.317 2.316 2.317a2.32 2.32 0 0 0 2.317-2.317c0-1.28-1.037-2.316-2.317-2.316s-2.316 1.037-2.316 2.316zm-9.813-7.216l-.375.011-.374.032-.372.053-.369.073-.364.095-.356.115-.351.135-.342.155-.335.174-.322.192-.31.21-.301.228-.284.244-.271.26-.257.274-.239.289-.224.302-.207.314-.188.326-.168.335-.151.344-.13.353-.109.359-.09.364-.07.37-.047.373-.027.374-.008.286m2.314.576a2.431 2.431 0 1 0 4.862 0 2.431 2.431 0 1 0-4.862 0z"/><path d="M218.417 156.916h7.648m-14.291 18.27v-11.631m98.644 151.768l.377-.011.374-.032.372-.053.367-.073.364-.095.358-.115.351-.135.343-.155.332-.174.321-.192.314-.21.297-.228.287-.244.271-.26.255-.274.242-.289.223-.302.204-.314.189-.326.17-.335.149-.344.13-.353.111-.359.091-.365.069-.369.048-.373.026-.374.006-.286m-7.176-.577a2.43 2.43 0 1 0 4.861 0 2.43 2.43 0 1 0-4.861 0z"/><path d="M310.415 315.322h-7.645m14.289-18.271v11.631"/></g><rect x="1064.21" y="202.008" width="70.781" height="116.934" rx="4" stroke-width="2"/></g><mask id="A" fill="#fff"><rect width="19.527" height="24.852" rx="1" transform="matrix(1 0 0 -1 1089.84 343.019)"/></mask><rect width="19.527" height="24.852" rx="1" transform="matrix(1 0 0 -1 1089.84 343.019)" stroke="#000" stroke-width="4" mask="url(#A)"/><mask id="B" fill="#fff"><rect width="19.527" height="24.852" rx="1" transform="matrix(1 0 0 -1 1089.84 202.783)"/></mask><g stroke="#000"><rect width="19.527" height="24.852" rx="1" transform="matrix(1 0 0 -1 1089.84 202.783)" stroke-width="4" mask="url(#B)"/><g stroke-width="2"><circle cx="1122.68" cy="216.097" r="3.438"/><circle cx="1074.75" cy="308.404" r="3.438"/></g></g><g clip-path="url(#J)"><path d="M816.329 218.643h-33.458c-7.547 0-13.688 6.057-13.688 13.5v48c0 5.79 4.776 10.5 10.646 10.5h36.5c7.546 0 13.687-6.057 13.687-13.5v-45c0-7.443-6.141-13.5-13.687-13.5zm10.646 13.5v37.5h-42.584v-48H799.6v26.544c0 1.506.934 2.79 2.378 3.273s2.978.021 3.906-1.176l2.841-3.669 2.841 3.669c.93 1.206 2.494 1.653 3.905 1.176 1.445-.483 2.379-1.767 2.379-3.273v-26.436c5.152.729 9.125 5.112 9.125 10.392zm-24.334-10.5h12.167v26.544c0 .27-.17.381-.313.432-.14.045-.347.06-.511-.153l-4.049-5.229c-.575-.744-1.84-.744-2.418 0l-4.048 5.229c-.171.216-.374.201-.511.156-.143-.048-.314-.162-.314-.432v-26.547h-.003zm-30.416 10.5c0-5.28 3.972-9.663 9.125-10.392v47.892h-1.521c-2.975 0-5.67 1.212-7.604 3.159v-40.659zm44.104 55.5h-36.5c-9.995-.177-9.989-14.826 0-15h47.146v4.5c0 5.79-4.776 10.5-10.646 10.5z" fill="#000"/></g><mask id="C" fill="#fff"><rect width="34.023" height="90.236" rx="1" transform="matrix(1 0 0 -1 517.57 283.394)"/></mask><g stroke="#000"><rect width="34.023" height="90.236" rx="1" transform="matrix(1 0 0 -1 517.57 283.394)" stroke-width="4" mask="url(#C)"/><g stroke-width="2"><path d="M551.114 282.816v-89.061l17.231-9.279v108.281l-17.231-9.941zm-33.064.647v-89.621l-18.71-9.417v109.127l18.71-10.089z"/><path d="M499.819 183.544h68.047m-68.047 109.465h68.047" stroke-linecap="round"/><g fill="#fff"><circle cx="535.321" cy="212.389" r="3.438"/><circle cx="535.321" cy="268.601" r="3.438"/></g></g></g><g clip-path="url(#K)"><path d="M1675.91 273.857c-.84-.835-2-1.256-3.17-1.159-2.89.227-12.65 1.278-16.68 5.311-3.97 3.992-4.49 10.62-.52 14.849-1.74 2.15-2.73 4.778-2.73 7.587v4.26c0 4.262-3.47 7.729-7.73 7.729s-7.73-3.467-7.73-7.729V288.03c4.96-.556 8.83-4.723 8.83-9.825v-5.521h1.11a1.1 1.1 0 1 0 0-2.208h-5.52v-7.729a1.11 1.11 0 0 0-1.11-1.104 1.1 1.1 0 0 0-1.1 1.104v7.729h-6.63v-7.729a1.1 1.1 0 0 0-1.1-1.104 1.11 1.11 0 0 0-1.11 1.104v7.729h-5.52a1.1 1.1 0 1 0 0 2.208h1.11v5.521c0 5.102 3.88 9.269 8.83 9.825v16.675c0 5.479 4.46 9.938 9.94 9.938s9.94-4.459 9.94-9.938v-4.26c0-2.228.76-4.319 2.11-6.05 4.18 3.829 10.7 3.23 14.65-.67 4.09-4.083 5.1-13.815 5.31-16.734.08-1.164-.35-2.308-1.18-3.134zm-47.39 4.348v-5.521h15.45v5.521c0 4.262-3.46 7.729-7.72 7.729-4.27 0-7.73-3.467-7.73-7.729zm41.7 13.955c-2.73 2.705-10.29 1.643-10.29 1.643-.26-.234-.68-.563-1.33-1.06l9.34-9.342c.43-.43.43-1.13 0-1.561s-1.13-.43-1.56 0l-9.34 9.341c-.49-.633-.82-1.049-1.05-1.311a8.91 8.91 0 0 1 1.63-10.304c2.78-2.781 9.98-4.254 15.29-4.669.65-.07 2.27.822 1.97 1.961-.14 1.917-1.03 11.667-4.66 15.3v.002z" fill="#000"/></g><g clip-path="url(#L)"><path d="M1376.02 286.643c-2.99 0-5.42 2.384-5.42 5.312s2.43 5.313 5.42 5.313c2.98 0 5.41-2.384 5.41-5.313s-2.43-5.312-5.41-5.312zm0 8.5c-1.8 0-3.25-1.43-3.25-3.188s1.45-3.187 3.25-3.187c1.79 0 3.25 1.43 3.25 3.187s-1.46 3.188-3.25 3.188zm6.86-14.875h-13.76l-6.88 11.687 6.88 11.688h13.76l6.88-11.688-6.88-11.687zm-1.25 21.25h-11.26l-5.63-9.563 5.63-9.562h11.26l5.63 9.562-5.63 9.563zm-17.53-43.123v-5.752h-26v5.752l6.5 6.375v32.447l6.5 6.375 6.5-6.375V264.77l6.5-6.375zm-9.51 6.998l-7.82 7.673v-7.673h7.82zm.84 5.521l-8.66 8.81v-3.653l8.66-8.5v3.343zm-8.66 11.87l8.66-8.81v3.315l-8.66 8.81v-3.315zm0 6.375l8.66-8.81v3.353l-8.66 8.81v-3.353zm-6.5-34.391h21.66v2.747l-5.86 5.753h-9.94l-5.86-5.753v-2.747zm10.83 45.819l-4.33-4.25v-.765l8.66-8.81v3.313l-5 5.066h3.01l1.99-2.015v3.209l-4.33 4.252z" fill="#000"/></g><g stroke-linecap="round" stroke-width=".5"><path stroke="url(#D)" d="M 150.66401 363.61600999999996 L 378.774 363.616"/><path stroke="url(#E)" d="M 974.70801 371.17100999999997 L 1202.82 371.171"/><path stroke="url(#F)" d="M 418.70901 363.61600999999996 L 646.82 363.616"/><path stroke="url(#G)" d="M 1249.8500099999999 371.17100999999997 L 1477.96 371.171"/><path stroke="url(#H)" d="M 686.75401 363.61600999999996 L 914.865 363.616"/><path stroke="url(#I)" d="M 1517.90001 371.17100999999997 L 1746.01 371.171"/></g><path d="M1651.1 218.643h76v76.652l-49.49 5.348-26.51-5.348v-76.652z" fill="#fff"/><g fill="#1e1e1e"><path d="M211.373 400.825h4.837l6.477 15.809h.256l6.477-15.809h4.837v21.818h-3.793v-14.99h-.202l-6.03 14.926h-2.834l-6.03-14.958h-.202v15.022h-3.793v-21.818zm31.726 22.148c-1.037 0-1.971-.185-2.802-.554-.824-.376-1.477-.93-1.96-1.662-.476-.731-.714-1.633-.714-2.706 0-.923.171-1.687.511-2.29a3.96 3.96 0 0 1 1.396-1.449 7.07 7.07 0 0 1 1.992-.821c.746-.191 1.517-.33 2.312-.415l2.333-.266c.597-.086 1.03-.213 1.3-.384.277-.177.415-.451.415-.82v-.064c0-.803-.238-1.424-.713-1.864s-1.162-.661-2.057-.661c-.944 0-1.693.206-2.247.618-.547.412-.917.898-1.108 1.459l-3.601-.511c.284-.994.753-1.825 1.406-2.493a6.11 6.11 0 0 1 2.397-1.513c.945-.34 1.989-.511 3.132-.511.788 0 1.573.092 2.355.277s1.495.49 2.141.916a4.6 4.6 0 0 1 1.555 1.715c.398.725.597 1.63.597 2.717v10.952h-3.708v-2.248h-.127a4.72 4.72 0 0 1-.991 1.278c-.419.391-.948.707-1.588.948-.632.235-1.374.352-2.226.352zm1.001-2.834c.774 0 1.446-.152 2.014-.458.568-.312 1.005-.724 1.31-1.236a3.14 3.14 0 0 0 .469-1.672v-1.929c-.121.1-.327.192-.618.277a8.59 8.59 0 0 1-.959.224l-1.054.171-.906.127c-.575.079-1.09.206-1.545.384s-.813.426-1.076.746c-.263.312-.394.717-.394 1.214 0 .71.259 1.247.778 1.609s1.179.543 1.981.543zm18.654 2.823c-1.633 0-3.036-.358-4.208-1.076-1.164-.717-2.063-1.708-2.695-2.972-.625-1.271-.937-2.734-.937-4.389 0-1.662.319-3.129.958-4.4.64-1.278 1.542-2.273 2.706-2.983 1.172-.717 2.557-1.076 4.155-1.076 1.328 0 2.504.245 3.526.735 1.03.483 1.851 1.168 2.461 2.056.611.881.959 1.911 1.044 3.09h-3.686c-.149-.789-.504-1.446-1.065-1.971-.554-.533-1.296-.799-2.227-.799-.788 0-1.48.213-2.077.639-.597.419-1.062 1.023-1.396 1.811-.326.788-.49 1.733-.49 2.834 0 1.115.164 2.074.49 2.876.327.796.785 1.41 1.375 1.843.596.427 1.296.64 2.098.64.569 0 1.076-.107 1.524-.32a3.07 3.07 0 0 0 1.14-.948c.305-.412.515-.913.628-1.502h3.686c-.092 1.157-.433 2.184-1.022 3.079-.59.887-1.392 1.583-2.408 2.088-1.016.497-2.209.745-3.58.745zm22.205-16.14c-.1-.93-.519-1.654-1.257-2.173-.732-.518-1.684-.778-2.855-.778-.824 0-1.531.125-2.12.373s-1.041.586-1.353 1.012a2.46 2.46 0 0 0-.48 1.46c0 .454.103.849.309 1.182.213.334.501.618.863.853a6.09 6.09 0 0 0 1.204.575c.44.156.884.288 1.332.394l2.045.512a14.08 14.08 0 0 1 2.376.777c.767.327 1.452.739 2.056 1.236a5.48 5.48 0 0 1 1.449 1.8c.355.704.532 1.527.532 2.472 0 1.278-.326 2.404-.98 3.377-.653.966-1.598 1.722-2.834 2.269-1.228.54-2.716.81-4.463.81-1.698 0-3.171-.263-4.421-.788-1.243-.526-2.216-1.293-2.92-2.301-.696-1.009-1.072-2.238-1.129-3.687h3.889c.057.76.291 1.392.703 1.897s.948.88 1.609 1.129c.667.249 1.413.373 2.237.373.859 0 1.612-.128 2.258-.384.654-.262 1.165-.625 1.534-1.086a2.62 2.62 0 0 0 .565-1.641c-.007-.568-.174-1.037-.501-1.406-.326-.377-.785-.689-1.374-.938-.582-.255-1.264-.483-2.045-.681l-2.483-.64c-1.797-.461-3.217-1.161-4.261-2.098-1.037-.945-1.555-2.199-1.555-3.761 0-1.286.348-2.411 1.044-3.377.703-.966 1.658-1.715 2.865-2.248 1.208-.54 2.575-.81 4.102-.81 1.548 0 2.905.27 4.069.81 1.172.533 2.092 1.275 2.76 2.227.667.944 1.012 2.031 1.033 3.259h-3.803zm14.699 16.14c-1.641 0-3.058-.341-4.251-1.022-1.186-.689-2.099-1.662-2.738-2.919-.639-1.265-.959-2.753-.959-4.464 0-1.683.32-3.161.959-4.432.647-1.278 1.549-2.273 2.706-2.983 1.158-.717 2.518-1.076 4.08-1.076 1.009 0 1.961.163 2.856.49.902.32 1.697.817 2.386 1.492.696.674 1.243 1.534 1.641 2.578.397 1.037.596 2.272.596 3.707v1.183h-13.413v-2.6h9.716c-.007-.738-.166-1.395-.479-1.971-.312-.582-.749-1.04-1.31-1.374-.554-.334-1.201-.501-1.939-.501-.789 0-1.481.192-2.078.576-.596.376-1.061.873-1.395 1.491-.327.611-.494 1.282-.501 2.014v2.269c0 .951.174 1.768.522 2.45a3.72 3.72 0 0 0 1.46 1.555c.625.356 1.356.533 2.194.533.561 0 1.069-.078 1.524-.234.454-.164.848-.402 1.182-.714s.586-.7.756-1.161l3.601.405a5.61 5.61 0 0 1-1.299 2.492c-.632.704-1.442 1.25-2.429 1.641-.988.384-2.117.575-3.388.575zm18.71-16.683v2.983h-9.407v-2.983h9.407zm-7.085-3.92h3.857v15.362c0 .518.078.916.234 1.193.164.27.377.455.64.554s.553.149.873.149c.242 0 .462-.018.661-.053l.468-.096.65 3.015c-.206.071-.501.149-.884.234-.376.086-.838.135-1.385.149-.966.029-1.836-.117-2.61-.436-.774-.327-1.389-.831-1.843-1.513-.448-.682-.668-1.534-.661-2.557v-16.001zm728.127 6.466h3.92v15.34c0 1.407-.3 2.618-.89 3.633a6.02 6.02 0 0 1-2.47 2.333c-1.05.54-2.28.81-3.68.81-1.28 0-2.43-.227-3.45-.682-1.02-.461-1.82-1.143-2.42-2.045s-.89-2.024-.89-3.367h3.93c0 .59.13 1.098.38 1.524.26.426.61.753 1.06.98.44.227.96.341 1.54.341.63 0 1.17-.132 1.61-.394.44-.27.77-.668 1-1.194s.36-1.171.36-1.939v-15.34zm18.47 14.936v-9.482h3.86v16.364H1058v-2.909h-.17c-.37.917-.98 1.666-1.83 2.248-.83.583-1.87.874-3.1.874-1.07 0-2.02-.238-2.84-.714-.82-.483-1.46-1.182-1.92-2.099-.46-.923-.69-2.038-.69-3.345v-10.419h3.86v9.823c0 1.036.28 1.86.85 2.471s1.31.916 2.24.916c.56 0 1.11-.138 1.65-.415.53-.277.97-.689 1.31-1.236.35-.554.52-1.246.52-2.077zm11.68-2.706v9.588h-3.86v-16.364h3.69v2.781h.19a4.71 4.71 0 0 1 1.8-2.184c.83-.54 1.86-.81 3.08-.81 1.13 0 2.11.242 2.95.724.85.483 1.5 1.183 1.96 2.099.47.916.7 2.028.69 3.335v10.419h-3.85v-9.823c0-1.093-.29-1.949-.86-2.567-.56-.618-1.33-.927-2.33-.927-.67 0-1.27.149-1.8.447-.52.292-.93.714-1.22 1.268-.3.554-.44 1.225-.44 2.014zm21.56 9.907c-1.63 0-3.03-.358-4.21-1.076-1.16-.717-2.06-1.708-2.69-2.972-.63-1.271-.94-2.734-.94-4.389 0-1.662.32-3.129.96-4.4.64-1.278 1.54-2.273 2.71-2.983 1.17-.717 2.55-1.076 4.15-1.076 1.33 0 2.5.245 3.53.735 1.03.483 1.85 1.168 2.46 2.056.61.881.96 1.911 1.04 3.09h-3.68c-.15-.789-.51-1.446-1.07-1.971-.55-.533-1.3-.799-2.23-.799-.79 0-1.48.213-2.07.639-.6.419-1.07 1.023-1.4 1.811s-.49 1.733-.49 2.834c0 1.115.16 2.074.49 2.876.33.796.79 1.41 1.37 1.843.6.427 1.3.64 2.1.64.57 0 1.08-.107 1.53-.32.45-.22.83-.536 1.14-.948.3-.412.51-.913.63-1.502h3.68c-.09 1.157-.43 2.184-1.02 3.079-.59.887-1.39 1.583-2.41 2.088-1.01.497-2.21.745-3.58.745zm18.35-16.683v2.983h-9.41v-2.983h9.41zm-7.09-3.92h3.86v15.362c0 .518.08.916.24 1.193.16.27.37.455.63.554.27.099.56.149.88.149.24 0 .46-.018.66-.053l.47-.096.65 3.015a8.58 8.58 0 0 1-.89.234c-.37.086-.83.135-1.38.149-.97.029-1.84-.117-2.61-.436a4 4 0 0 1-1.84-1.513c-.45-.682-.67-1.534-.67-2.557v-16.001zm10.31 20.284v-16.364h3.86v16.364h-3.86zm1.94-18.686c-.61 0-1.13-.203-1.57-.608-.44-.411-.66-.905-.66-1.48 0-.583.22-1.076.66-1.481a2.21 2.21 0 0 1 1.57-.618c.62 0 1.15.206 1.58.618.44.405.66.898.66 1.481 0 .575-.22 1.069-.66 1.48-.43.405-.96.608-1.58.608zm13.02 19.005c-1.59 0-2.98-.351-4.15-1.054s-2.08-1.687-2.73-2.951c-.64-1.265-.96-2.742-.96-4.432s.32-3.171.96-4.443c.65-1.271 1.56-2.258 2.73-2.961s2.56-1.055 4.15-1.055c1.6 0 2.99.352 4.16 1.055a7.1 7.1 0 0 1 2.72 2.961c.64 1.272.97 2.753.97 4.443s-.33 3.167-.97 4.432a7.11 7.11 0 0 1-2.72 2.951c-1.17.703-2.56 1.054-4.16 1.054zm.03-3.089c.86 0 1.59-.238 2.17-.714.58-.483 1.01-1.129 1.3-1.939s.44-1.711.44-2.706c0-1.001-.15-1.907-.44-2.716-.29-.817-.72-1.467-1.3-1.95s-1.31-.724-2.17-.724c-.89 0-1.63.241-2.22.724-.58.483-1.02 1.133-1.31 1.95-.28.809-.43 1.715-.43 2.716 0 .995.15 1.897.43 2.706.29.81.73 1.456 1.31 1.939.59.476 1.33.714 2.22.714zm14.95-6.818v9.588h-3.86v-16.364h3.68v2.781h.2c.37-.917.97-1.645 1.8-2.184s1.85-.81 3.08-.81c1.13 0 2.11.242 2.95.724s1.5 1.183 1.96 2.099c.47.916.7 2.028.69 3.335v10.419h-3.86v-9.823c0-1.093-.28-1.949-.85-2.567-.56-.618-1.34-.927-2.33-.927-.68 0-1.28.149-1.8.447a3.12 3.12 0 0 0-1.23 1.268c-.29.554-.43 1.225-.43 2.014zm-83.88 45.588v-21.818h8.36c1.57 0 2.88.248 3.93.745 1.05.49 1.83 1.162 2.35 2.014.53.852.79 1.818.79 2.898 0 .887-.17 1.647-.51 2.279a4.27 4.27 0 0 1-1.38 1.524 5.73 5.73 0 0 1-1.92.841v.213c.77.043 1.51.281 2.22.714a4.9 4.9 0 0 1 1.76 1.811c.45.782.68 1.726.68 2.834 0 1.129-.27 2.145-.82 3.047-.55.895-1.37 1.602-2.47 2.12s-2.49.778-4.15.778h-8.84zm3.96-3.303h4.25c1.43 0 2.46-.273 3.1-.82.64-.554.96-1.264.96-2.131a3.26 3.26 0 0 0-.48-1.747c-.32-.526-.78-.937-1.37-1.236-.59-.305-1.29-.458-2.11-.458h-4.35v6.392zm0-9.236h3.91c.68 0 1.29-.125 1.84-.373.55-.256.98-.615 1.29-1.076.32-.469.48-1.023.48-1.662 0-.845-.3-1.541-.9-2.088-.59-.547-1.46-.82-2.63-.82h-3.99v6.019zm22.73 12.858c-1.6 0-2.99-.351-4.16-1.054s-2.08-1.687-2.72-2.951-.96-2.742-.96-4.432.32-3.171.96-4.443a7.1 7.1 0 0 1 2.72-2.961c1.17-.703 2.56-1.055 4.16-1.055s2.98.352 4.15 1.055a7.1 7.1 0 0 1 2.72 2.961c.65 1.272.97 2.753.97 4.443s-.32 3.167-.97 4.432c-.64 1.264-1.55 2.248-2.72 2.951s-2.55 1.054-4.15 1.054zm.02-3.089c.87 0 1.59-.238 2.17-.714.58-.483 1.02-1.129 1.3-1.939.29-.809.44-1.711.44-2.706 0-1.001-.15-1.907-.44-2.716-.28-.817-.72-1.467-1.3-1.95s-1.3-.724-2.17-.724c-.89 0-1.63.241-2.22.724-.58.483-1.02 1.133-1.31 1.95-.28.809-.42 1.715-.42 2.716 0 .995.14 1.897.42 2.706.29.81.73 1.456 1.31 1.939.59.476 1.33.714 2.22.714zm13.63-13.594l3.3 6.041 3.36-6.041h4.08l-4.93 8.182 5.01 8.182h-4.06l-3.46-5.892-3.43 5.892h-4.09l4.99-8.182-4.86-8.182h4.09zm18.59 6.818l.25-4.314-3.63 2.375-1.3-2.258 3.87-1.939-3.87-1.939 1.3-2.259 3.63 2.376-.25-4.314h2.59l-.24 4.314 3.63-2.376 1.3 2.259-3.88 1.939 3.88 1.939-1.3 2.258-3.63-2.375.24 4.314h-2.59z"/><path d="M457.483 400.825h4.837l6.477 15.809h.256l6.477-15.809h4.837v21.818h-3.793v-14.99h-.202l-6.03 14.926h-2.834l-6.03-14.958h-.202v15.022h-3.793v-21.818zm34.155 22.137c-1.598 0-2.983-.351-4.155-1.054s-2.081-1.687-2.727-2.951c-.639-1.265-.959-2.742-.959-4.432s.32-3.171.959-4.443c.646-1.271 1.555-2.258 2.727-2.961s2.557-1.055 4.155-1.055 2.983.352 4.155 1.055 2.077 1.69 2.716 2.961c.647 1.272.97 2.753.97 4.443s-.323 3.167-.97 4.432c-.639 1.264-1.544 2.248-2.716 2.951s-2.557 1.054-4.155 1.054zm.021-3.089c.867 0 1.591-.238 2.174-.714.582-.483 1.015-1.129 1.299-1.939.291-.809.437-1.711.437-2.706 0-1.001-.146-1.907-.437-2.716-.284-.817-.717-1.467-1.299-1.95s-1.307-.724-2.174-.724c-.888 0-1.626.241-2.216.724-.582.483-1.019 1.133-1.31 1.95-.284.809-.426 1.715-.426 2.716 0 .995.142 1.897.426 2.706.291.81.728 1.456 1.31 1.939.59.476 1.328.714 2.216.714zm21.523-4.112v-9.482h3.856v16.364h-3.739v-2.909h-.171c-.369.917-.976 1.666-1.821 2.248-.838.583-1.872.874-3.1.874-1.073 0-2.021-.238-2.845-.714-.817-.483-1.456-1.182-1.917-2.099-.462-.923-.693-2.038-.693-3.345v-10.419h3.857v9.823c0 1.036.284 1.86.852 2.471s1.314.916 2.237.916c.568 0 1.119-.138 1.651-.415s.97-.689 1.311-1.236c.348-.554.522-1.246.522-2.077zm11.679-2.706v9.588h-3.857v-16.364h3.686v2.781h.192c.376-.917.976-1.645 1.8-2.184.831-.54 1.858-.81 3.079-.81 1.129 0 2.113.242 2.951.724.845.483 1.499 1.183 1.96 2.099.469.916.7 2.028.693 3.335v10.419h-3.857v-9.823c0-1.093-.284-1.949-.852-2.567-.561-.618-1.339-.927-2.333-.927-.675 0-1.275.149-1.801.447-.518.292-.926.714-1.225 1.268-.291.554-.436 1.225-.436 2.014zm22.595-6.776v2.983h-9.407v-2.983h9.407zm-7.084-3.92h3.856v15.362c0 .518.079.916.235 1.193a1.26 1.26 0 0 0 .639.554c.263.099.554.149.874.149a3.82 3.82 0 0 0 .66-.053l.469-.096.65 3.015c-.206.071-.501.149-.884.234-.377.086-.839.135-1.385.149-.966.029-1.836-.117-2.611-.436-.774-.327-1.388-.831-1.843-1.513-.447-.682-.667-1.534-.66-2.557v-16.001zm10.31 20.284v-16.364h3.856v16.364h-3.856zm1.939-18.686a2.25 2.25 0 0 1-1.577-.608c-.44-.411-.661-.905-.661-1.48 0-.583.221-1.076.661-1.481.44-.412.966-.618 1.577-.618a2.2 2.2 0 0 1 1.576.618c.441.405.661.898.661 1.481 0 .575-.22 1.069-.661 1.48-.433.405-.958.608-1.576.608zm9.74 9.098v9.588h-3.857v-16.364h3.686v2.781h.192c.376-.917.976-1.645 1.8-2.184.831-.54 1.858-.81 3.079-.81 1.129 0 2.113.242 2.951.724.845.483 1.499 1.183 1.96 2.099.469.916.7 2.028.693 3.335v10.419h-3.857v-9.823c0-1.093-.284-1.949-.852-2.567-.561-.618-1.339-.927-2.333-.927-.675 0-1.275.149-1.801.447-.518.292-.926.714-1.225 1.268-.291.554-.436 1.225-.436 2.014zm21.541 16.065c-1.385 0-2.575-.188-3.569-.565-.994-.369-1.793-.866-2.397-1.491s-1.023-1.318-1.257-2.077l3.473-.842c.156.319.383.636.682.948.298.32.699.582 1.203.788.512.213 1.155.32 1.929.32 1.093 0 1.999-.266 2.716-.799.718-.526 1.076-1.392 1.076-2.599v-3.101h-.191c-.199.398-.491.807-.874 1.226-.376.419-.877.77-1.502 1.054-.618.284-1.396.426-2.333.426-1.257 0-2.397-.294-3.42-.884-1.016-.596-1.825-1.484-2.429-2.663-.597-1.186-.895-2.671-.895-4.453 0-1.797.298-3.314.895-4.549.604-1.243 1.417-2.184 2.44-2.823 1.022-.647 2.162-.97 3.419-.97.959 0 1.748.163 2.365.49.625.32 1.123.707 1.492 1.161.369.448.65.87.842 1.268h.213v-2.706h3.803v16.63c0 1.399-.334 2.557-1.002 3.473s-1.58 1.602-2.737 2.056-2.472.682-3.942.682zm.032-9.737c.816 0 1.512-.199 2.088-.597s1.012-.969 1.31-1.715.448-1.641.448-2.685c0-1.029-.15-1.931-.448-2.706-.291-.774-.724-1.374-1.3-1.8-.568-.433-1.267-.65-2.098-.65-.86 0-1.577.224-2.152.671s-1.009 1.062-1.3 1.843c-.291.774-.437 1.655-.437 2.642 0 1.002.146 1.879.437 2.632.298.745.735 1.328 1.31 1.747.583.412 1.297.618 2.142.618zm-63.288 24.803h-3.985c-.113-.653-.323-1.232-.628-1.736-.306-.512-.685-.945-1.14-1.3a4.75 4.75 0 0 0-1.555-.799c-.576-.185-1.197-.277-1.865-.277-1.186 0-2.237.298-3.153.895-.916.589-1.634 1.456-2.152 2.599-.519 1.137-.778 2.525-.778 4.166 0 1.669.259 3.075.778 4.218.525 1.137 1.243 1.996 2.152 2.579.916.575 1.964.862 3.143.862.653 0 1.264-.085 1.832-.255.575-.178 1.09-.437 1.545-.778a4.59 4.59 0 0 0 1.161-1.257 4.72 4.72 0 0 0 .66-1.705l3.985.022c-.149 1.037-.472 2.01-.97 2.919a8.59 8.59 0 0 1-1.928 2.407c-.795.689-1.726 1.229-2.791 1.62-1.065.383-2.248.575-3.548.575-1.917 0-3.629-.444-5.135-1.332s-2.691-2.169-3.558-3.846-1.3-3.686-1.3-6.029c0-2.351.437-4.361 1.311-6.03.873-1.676 2.063-2.958 3.569-3.846s3.21-1.332 5.113-1.332c1.215 0 2.344.171 3.388.512s1.975.841 2.791 1.502a8 8 0 0 1 2.014 2.407c.532.945.88 2.025 1.044 3.239zm7.305-7.361v21.818h-3.856v-21.818h3.856zm3.966 21.818v-16.364h3.857v16.364h-3.857zm1.939-18.686a2.25 2.25 0 0 1-1.577-.608c-.44-.411-.66-.905-.66-1.48 0-.583.22-1.076.66-1.481a2.23 2.23 0 0 1 1.577-.618c.618 0 1.143.206 1.577.618.44.405.66.898.66 1.481 0 .575-.22 1.069-.66 1.48-.434.405-.959.608-1.577.608zm5.883 24.822v-22.5h3.793v2.706h.224c.199-.398.479-.82.841-1.268.363-.454.853-.841 1.471-1.161.617-.327 1.406-.49 2.365-.49 1.264 0 2.404.323 3.419.97 1.023.639 1.833 1.587 2.429 2.844.604 1.25.906 2.784.906 4.602 0 1.797-.295 3.324-.884 4.581s-1.392 2.216-2.408 2.877-2.166.99-3.452.99c-.937 0-1.715-.156-2.333-.468s-1.115-.689-1.491-1.13c-.37-.447-.657-.87-.863-1.267h-.16v8.714h-3.857zm3.782-14.318c0 1.058.149 1.985.448 2.78.305.796.742 1.417 1.31 1.865.575.44 1.271.66 2.088.66.852 0 1.566-.227 2.142-.681.575-.462 1.008-1.091 1.299-1.886.299-.803.448-1.715.448-2.738 0-1.016-.146-1.918-.437-2.706s-.725-1.406-1.3-1.854-1.292-.671-2.152-.671c-.824 0-1.523.217-2.099.65s-1.012 1.04-1.31 1.822c-.291.781-.437 1.701-.437 2.759zm749.279-41.636h4.84l6.48 15.809h.25l6.48-15.809h4.84v21.818h-3.79v-14.99h-.21l-6.03 14.926h-2.83l-6.03-14.958h-.2v15.022h-3.8v-21.818zm34.16 22.137c-1.6 0-2.98-.351-4.16-1.054-1.17-.703-2.08-1.687-2.72-2.951s-.96-2.742-.96-4.432.32-3.171.96-4.443a7.1 7.1 0 0 1 2.72-2.961c1.18-.703 2.56-1.055 4.16-1.055s2.98.352 4.15 1.055c1.18.703 2.08 1.69 2.72 2.961.65 1.272.97 2.753.97 4.443s-.32 3.167-.97 4.432c-.64 1.264-1.54 2.248-2.72 2.951-1.17.703-2.55 1.054-4.15 1.054zm.02-3.089c.87 0 1.59-.238 2.17-.714.59-.483 1.02-1.129 1.3-1.939.3-.809.44-1.711.44-2.706 0-1.001-.14-1.907-.44-2.716-.28-.817-.71-1.467-1.3-1.95-.58-.483-1.3-.724-2.17-.724-.89 0-1.63.241-2.21.724-.59.483-1.02 1.133-1.32 1.95-.28.809-.42 1.715-.42 2.716 0 .995.14 1.897.42 2.706.3.81.73 1.456 1.32 1.939.58.476 1.32.714 2.21.714zm21.52-4.112v-9.482h3.86v16.364h-3.74v-2.909h-.17c-.37.917-.98 1.666-1.82 2.248s-1.87.874-3.1.874c-1.07 0-2.02-.238-2.85-.714-.81-.483-1.45-1.182-1.91-2.099-.47-.923-.7-2.038-.7-3.345v-10.419h3.86v9.823c0 1.036.28 1.86.85 2.471s1.32.916 2.24.916c.57 0 1.12-.138 1.65-.415s.97-.689 1.31-1.236c.35-.554.52-1.246.52-2.077zm11.68-2.706v9.588h-3.85v-16.364h3.68v2.781h.19a4.71 4.71 0 0 1 1.8-2.184c.84-.54 1.86-.81 3.08-.81 1.13 0 2.12.242 2.95.724.85.483 1.5 1.183 1.96 2.099.47.916.7 2.028.7 3.335v10.419h-3.86v-9.823c0-1.093-.28-1.949-.85-2.567-.56-.618-1.34-.927-2.34-.927-.67 0-1.27.149-1.8.447a3.16 3.16 0 0 0-1.22 1.268c-.29.554-.44 1.225-.44 2.014zm22.6-6.776v2.983h-9.41v-2.983h9.41zm-7.09-3.92h3.86v15.362c0 .518.08.916.23 1.193.17.27.38.455.64.554.27.099.56.149.88.149.24 0 .46-.018.66-.053l.47-.096.65 3.015a8.58 8.58 0 0 1-.89.234c-.37.086-.84.135-1.38.149-.97.029-1.84-.117-2.61-.436-.78-.327-1.39-.831-1.85-1.513-.44-.682-.66-1.534-.66-2.557v-16.001zm10.31 20.284v-16.364h3.86v16.364H1386zm1.94-18.686c-.61 0-1.13-.203-1.57-.608-.44-.411-.66-.905-.66-1.48 0-.583.22-1.076.66-1.481a2.21 2.21 0 0 1 1.57-.618c.62 0 1.15.206 1.58.618.44.405.66.898.66 1.481 0 .575-.22 1.069-.66 1.48-.43.405-.96.608-1.58.608zm9.74 9.098v9.588h-3.85v-16.364h3.68v2.781h.19a4.71 4.71 0 0 1 1.8-2.184c.84-.54 1.86-.81 3.08-.81 1.13 0 2.12.242 2.95.724.85.483 1.5 1.183 1.96 2.099.47.916.7 2.028.7 3.335v10.419h-3.86v-9.823c0-1.093-.28-1.949-.85-2.567-.56-.618-1.34-.927-2.34-.927-.67 0-1.27.149-1.8.447a3.16 3.16 0 0 0-1.22 1.268c-.29.554-.44 1.225-.44 2.014zm21.54 16.065c-1.38 0-2.57-.188-3.57-.565-.99-.369-1.79-.866-2.39-1.491-.61-.625-1.03-1.318-1.26-2.077l3.47-.842a3.92 3.92 0 0 0 .69.948c.29.32.69.582 1.2.788.51.213 1.15.32 1.93.32 1.09 0 2-.266 2.71-.799.72-.526 1.08-1.392 1.08-2.599v-3.101h-.19c-.2.398-.49.807-.88 1.226-.37.419-.87.77-1.5 1.054-.62.284-1.39.426-2.33.426-1.26 0-2.4-.294-3.42-.884-1.02-.596-1.83-1.484-2.43-2.663-.6-1.186-.89-2.671-.89-4.453 0-1.797.29-3.314.89-4.549.6-1.243 1.42-2.184 2.44-2.823 1.02-.647 2.16-.97 3.42-.97.96 0 1.75.163 2.37.49.62.32 1.12.707 1.49 1.161.37.448.65.87.84 1.268h.21v-2.706h3.8v16.63c0 1.399-.33 2.557-1 3.473-.66.916-1.58 1.602-2.73 2.056-1.16.455-2.48.682-3.95.682zm.04-9.737c.81 0 1.51-.199 2.08-.597.58-.398 1.02-.969 1.31-1.715.3-.746.45-1.641.45-2.685 0-1.029-.15-1.931-.45-2.706-.29-.774-.72-1.374-1.3-1.8-.56-.433-1.26-.65-2.09-.65-.86 0-1.58.224-2.16.671-.57.448-1.01 1.062-1.3 1.843-.29.774-.43 1.655-.43 2.642 0 1.002.14 1.879.43 2.632.3.745.74 1.328 1.31 1.747.59.412 1.3.618 2.15.618zm-99.13 23.439c-.1-.93-.52-1.654-1.26-2.173-.73-.518-1.68-.778-2.85-.778-.83 0-1.53.125-2.12.373s-1.04.586-1.35 1.012a2.37 2.37 0 0 0-.48 1.46c0 .454.1.849.31 1.182s.5.618.86.853a6 6 0 0 0 1.2.575c.44.156.89.288 1.33.394l2.05.512c.82.191 1.61.451 2.37.777a8.29 8.29 0 0 1 2.06 1.236 5.56 5.56 0 0 1 1.45 1.8c.35.704.53 1.527.53 2.472 0 1.278-.32 2.404-.98 3.377-.65.966-1.6 1.722-2.83 2.269-1.23.54-2.72.81-4.47.81-1.69 0-3.17-.263-4.42-.788-1.24-.526-2.21-1.293-2.92-2.301-.69-1.009-1.07-2.238-1.12-3.687h3.88c.06.76.29 1.392.71 1.897.41.504.94.88 1.61 1.129.66.249 1.41.373 2.23.373.86 0 1.61-.128 2.26-.384.65-.262 1.17-.625 1.54-1.086.36-.469.55-1.016.56-1.641-.01-.568-.17-1.037-.5-1.406-.33-.377-.79-.689-1.38-.938-.58-.255-1.26-.483-2.04-.681l-2.48-.64c-1.8-.461-3.22-1.161-4.26-2.098-1.04-.945-1.56-2.199-1.56-3.761 0-1.286.35-2.411 1.04-3.377.71-.966 1.66-1.715 2.87-2.248 1.21-.54 2.57-.81 4.1-.81 1.55 0 2.91.27 4.07.81 1.17.533 2.09 1.275 2.76 2.227.67.944 1.01 2.031 1.03 3.259h-3.8zm14.59 16.14c-1.63 0-3.03-.358-4.2-1.076a7.15 7.15 0 0 1-2.7-2.972c-.63-1.271-.94-2.734-.94-4.389 0-1.662.32-3.129.96-4.4.64-1.278 1.54-2.273 2.71-2.983 1.17-.717 2.55-1.076 4.15-1.076 1.33 0 2.51.245 3.53.735 1.03.483 1.85 1.168 2.46 2.056.61.881.96 1.911 1.04 3.09h-3.68c-.15-.789-.51-1.446-1.07-1.971-.55-.533-1.29-.799-2.22-.799-.79 0-1.49.213-2.08.639-.6.419-1.06 1.023-1.4 1.811-.32.788-.49 1.733-.49 2.834 0 1.115.17 2.074.49 2.876.33.796.79 1.41 1.38 1.843.59.427 1.29.64 2.1.64a3.52 3.52 0 0 0 1.52-.32c.45-.22.83-.536 1.14-.948.3-.412.51-.913.63-1.502h3.68c-.09 1.157-.43 2.184-1.02 3.079-.59.887-1.39 1.583-2.41 2.088-1.01.497-2.21.745-3.58.745zm10.18-.319v-16.364h3.74v2.727h.17c.3-.944.81-1.672 1.53-2.184.74-.518 1.57-.777 2.51-.777l.71.032c.27.014.49.039.67.074v3.548c-.16-.057-.42-.107-.78-.149a6.97 6.97 0 0 0-1.01-.075c-.7 0-1.33.153-1.89.458-.56.299-.99.714-1.31 1.247s-.48 1.147-.48 1.843v9.62h-3.86zm18.47.319c-1.65 0-3.06-.341-4.26-1.022a6.95 6.95 0 0 1-2.73-2.919c-.64-1.265-.96-2.753-.96-4.464 0-1.683.32-3.161.96-4.432.64-1.278 1.54-2.273 2.7-2.983 1.16-.717 2.52-1.076 4.08-1.076 1.01 0 1.96.163 2.86.49.9.32 1.7.817 2.38 1.492.7.674 1.25 1.534 1.64 2.578.4 1.037.6 2.272.6 3.707v1.183h-13.41v-2.6h9.71c0-.738-.16-1.395-.47-1.971-.32-.582-.75-1.04-1.32-1.374-.55-.334-1.2-.501-1.93-.501-.79 0-1.48.192-2.08.576a3.99 3.99 0 0 0-1.4 1.491 4.41 4.41 0 0 0-.5 2.014v2.269c0 .951.18 1.768.52 2.45.35.675.84 1.193 1.46 1.555.63.356 1.36.533 2.2.533.56 0 1.07-.078 1.52-.234.46-.164.85-.402 1.18-.714.34-.313.59-.7.76-1.161l3.6.405c-.23.951-.66 1.782-1.3 2.492-.63.704-1.44 1.25-2.43 1.641-.98.384-2.11.575-3.38.575zm13.82-.319l-4.62-16.364h3.93l2.88 11.506h.15l2.94-11.506h3.89l2.94 11.442h.16l2.83-11.442h3.94l-4.63 16.364h-4.02l-3.07-11.058h-.22l-3.07 11.058h-4.03zm34.67-12.039l-3.52.384a2.8 2.8 0 0 0-.52-1.001c-.24-.313-.57-.565-.98-.757s-.92-.288-1.51-.288c-.81 0-1.48.174-2.03.522-.54.349-.8.799-.8 1.353a1.45 1.45 0 0 0 .52 1.162c.37.298.96.543 1.79.735l2.8.596c1.54.334 2.69.863 3.45 1.588s1.14 1.672 1.15 2.844c-.01 1.03-.31 1.939-.91 2.727-.59.782-1.41 1.393-2.46 1.833s-2.26.66-3.62.66c-2 0-3.62-.419-4.84-1.257-1.22-.845-1.95-2.02-2.18-3.526l3.76-.362c.17.738.53 1.296 1.09 1.672.55.377 1.27.565 2.16.565.92 0 1.65-.188 2.2-.565.57-.376.85-.841.85-1.395 0-.469-.19-.856-.55-1.161-.35-.306-.91-.54-1.66-.704l-2.79-.586c-1.57-.326-2.73-.877-3.48-1.651-.76-.781-1.13-1.768-1.12-2.961-.01-1.009.26-1.883.82-2.621.56-.746 1.34-1.321 2.33-1.726 1-.412 2.16-.618 3.46-.618 1.92 0 3.43.408 4.53 1.225 1.11.817 1.79 1.921 2.06 3.313z"/><path d="M711.179 400.825h3.952v14.254c0 1.562-.369 2.937-1.108 4.123-.731 1.186-1.761 2.113-3.089 2.78-1.328.661-2.88.991-4.656.991-1.782 0-3.338-.33-4.666-.991-1.328-.667-2.358-1.594-3.089-2.78s-1.098-2.561-1.098-4.123v-14.254h3.953v13.924c0 .909.199 1.718.596 2.429.405.71.973 1.267 1.705 1.672.732.398 1.598.597 2.599.597s1.868-.199 2.6-.597c.738-.405 1.307-.962 1.704-1.672s.597-1.52.597-2.429v-13.924zm21.011 9.779l-3.515.384a2.84 2.84 0 0 0-.522-1.001c-.242-.313-.569-.565-.981-.757s-.916-.288-1.512-.288c-.803 0-1.478.174-2.025.522-.539.349-.806.799-.799 1.353-.007.476.167.863.522 1.162.363.298.959.543 1.79.735l2.791.596c1.549.334 2.699.863 3.452 1.588.76.724 1.144 1.672 1.151 2.844-.007 1.03-.309 1.939-.906 2.727-.589.782-1.41 1.393-2.461 1.833s-2.258.66-3.622.66c-2.003 0-3.615-.419-4.837-1.257-1.221-.845-1.949-2.02-2.184-3.526l3.761-.362c.171.738.533 1.296 1.087 1.672s1.275.565 2.162.565c.917 0 1.652-.188 2.206-.565.561-.376.841-.841.841-1.395a1.45 1.45 0 0 0-.543-1.161c-.355-.306-.909-.54-1.662-.704l-2.791-.586c-1.57-.326-2.731-.877-3.484-1.651-.753-.781-1.126-1.768-1.118-2.961-.008-1.009.266-1.883.82-2.621.561-.746 1.339-1.321 2.333-1.726 1.001-.412 2.156-.618 3.462-.618 1.918 0 3.427.408 4.528 1.225 1.108.817 1.793 1.921 2.056 3.313zm10.776 12.358c-1.641 0-3.057-.341-4.251-1.022-1.186-.689-2.098-1.662-2.738-2.919-.639-1.265-.958-2.753-.958-4.464 0-1.683.319-3.161.958-4.432.647-1.278 1.549-2.273 2.706-2.983 1.158-.717 2.518-1.076 4.081-1.076 1.008 0 1.96.163 2.855.49.902.32 1.697.817 2.386 1.492.696.674 1.243 1.534 1.641 2.578.398 1.037.596 2.272.596 3.707v1.183H736.83v-2.6h9.716c-.007-.738-.167-1.395-.48-1.971-.312-.582-.749-1.04-1.31-1.374-.554-.334-1.2-.501-1.939-.501-.788 0-1.481.192-2.077.576a3.96 3.96 0 0 0-1.396 1.491c-.327.611-.494 1.282-.501 2.014v2.269c0 .951.174 1.768.522 2.45a3.72 3.72 0 0 0 1.46 1.555c.625.356 1.356.533 2.194.533.561 0 1.069-.078 1.524-.234.454-.164.849-.402 1.182-.714s.586-.7.757-1.161l3.601.405c-.228.951-.661 1.782-1.3 2.492-.632.704-1.442 1.25-2.429 1.641-.987.384-2.117.575-3.388.575zm10.539-.319v-16.364h3.739v2.727h.171c.298-.944.809-1.672 1.534-2.184.731-.518 1.566-.777 2.503-.777l.714.032c.27.014.494.039.671.074v3.548c-.163-.057-.422-.107-.777-.149-.348-.05-.686-.075-1.012-.075-.704 0-1.336.153-1.897.458-.554.299-.99.714-1.31 1.247s-.479 1.147-.479 1.843v9.62h-3.857zm19.336 0v-16.364h3.686v2.781h.192c.341-.938.905-1.669 1.694-2.195.788-.533 1.729-.799 2.823-.799 1.108 0 2.042.27 2.802.81.767.532 1.306 1.26 1.619 2.184h.17c.363-.909.973-1.634 1.833-2.174.866-.547 1.893-.82 3.079-.82 1.505 0 2.734.476 3.686 1.428s1.427 2.34 1.427 4.165v10.984h-3.867v-10.387c0-1.016-.27-1.758-.81-2.227-.539-.476-1.2-.714-1.981-.714-.931 0-1.658.292-2.184.874-.519.575-.778 1.324-.778 2.248v10.206h-3.782v-10.547c0-.845-.255-1.52-.767-2.024-.504-.505-1.165-.757-1.981-.757-.554 0-1.059.142-1.513.426-.455.277-.817.672-1.087 1.183-.27.504-.405 1.094-.405 1.768v9.951h-3.856zm31.633.33c-1.037 0-1.971-.185-2.802-.554-.824-.376-1.478-.93-1.961-1.662-.475-.731-.713-1.633-.713-2.706 0-.923.17-1.687.511-2.29a3.95 3.95 0 0 1 1.396-1.449c.589-.362 1.253-.636 1.992-.821a16.27 16.27 0 0 1 2.312-.415l2.333-.266c.596-.086 1.03-.213 1.299-.384.277-.177.416-.451.416-.82v-.064c0-.803-.238-1.424-.714-1.864s-1.161-.661-2.056-.661c-.945 0-1.694.206-2.248.618-.547.412-.916.898-1.108 1.459l-3.601-.511c.284-.994.753-1.825 1.407-2.493a6.11 6.11 0 0 1 2.397-1.513c.944-.34 1.988-.511 3.132-.511a10.18 10.18 0 0 1 2.354.277c.781.185 1.495.49 2.141.916.647.419 1.165.991 1.556 1.715.398.725.596 1.63.596 2.717v10.952h-3.707v-2.248h-.128a4.68 4.68 0 0 1-.991 1.278c-.419.391-.948.707-1.587.948-.632.235-1.374.352-2.226.352zm1.001-2.834c.774 0 1.445-.152 2.013-.458.569-.312 1.005-.724 1.311-1.236a3.15 3.15 0 0 0 .469-1.672v-1.929c-.121.1-.327.192-.618.277a8.59 8.59 0 0 1-.959.224l-1.055.171-.905.127c-.576.079-1.091.206-1.545.384s-.813.426-1.076.746c-.263.312-.394.717-.394 1.214 0 .71.259 1.247.777 1.609s1.179.543 1.982.543zm15.373-7.084v9.588h-3.857v-16.364h3.686v2.781h.192a4.67 4.67 0 0 1 1.801-2.184c.831-.54 1.857-.81 3.078-.81 1.13 0 2.113.242 2.951.724.846.483 1.499 1.183 1.961 2.099.468.916.699 2.028.692 3.335v10.419h-3.856v-9.823c0-1.093-.285-1.949-.853-2.567-.561-.618-1.338-.927-2.333-.927-.675 0-1.275.149-1.8.447-.519.292-.927.714-1.225 1.268-.292.554-.437 1.225-.437 2.014zm24.854 2.706v-9.482h3.857v16.364h-3.74v-2.909h-.17c-.369.917-.977 1.666-1.822 2.248-.838.583-1.871.874-3.1.874-1.072 0-2.021-.238-2.844-.714-.817-.483-1.456-1.182-1.918-2.099-.462-.923-.692-2.038-.692-3.345v-10.419h3.856v9.823c0 1.036.284 1.86.852 2.471s1.314.916 2.238.916c.568 0 1.118-.138 1.651-.415s.969-.689 1.31-1.236c.348-.554.522-1.246.522-2.077zm12.531 7.212c-1.037 0-1.971-.185-2.802-.554a4.57 4.57 0 0 1-1.96-1.662c-.476-.731-.714-1.633-.714-2.706 0-.923.171-1.687.512-2.29s.806-1.087 1.395-1.449 1.254-.636 1.993-.821a16.26 16.26 0 0 1 2.311-.415l2.333-.266c.597-.086 1.03-.213 1.3-.384.277-.177.416-.451.416-.82v-.064c0-.803-.238-1.424-.714-1.864s-1.161-.661-2.056-.661c-.945 0-1.694.206-2.248.618-.547.412-.916.898-1.108 1.459l-3.601-.511c.284-.994.753-1.825 1.406-2.493.654-.675 1.453-1.179 2.397-1.513.945-.34 1.989-.511 3.132-.511.789 0 1.574.092 2.355.277s1.495.49 2.141.916c.647.419 1.165.991 1.556 1.715.397.725.596 1.63.596 2.717v10.952h-3.707v-2.248h-.128a4.7 4.7 0 0 1-.991 1.278c-.419.391-.948.707-1.587.948-.632.235-1.374.352-2.227.352zm1.002-2.834c.774 0 1.445-.152 2.013-.458.568-.312 1.005-.724 1.311-1.236a3.15 3.15 0 0 0 .468-1.672v-1.929c-.12.1-.326.192-.618.277a8.57 8.57 0 0 1-.958.224l-1.055.171-.906.127c-.575.079-1.09.206-1.544.384s-.814.426-1.076.746c-.263.312-.395.717-.395 1.214 0 .71.26 1.247.778 1.609s1.179.543 1.982.543zm15.373-19.314v21.818h-3.857v-21.818h3.857zm17.927 22.137c-1.492 0-2.774-.27-3.846-.809s-1.9-1.268-2.483-2.184c-.575-.924-.862-1.964-.862-3.122 0-.873.177-1.647.532-2.322.362-.675.86-1.3 1.492-1.875.639-.575 1.378-1.147 2.216-1.715l3.867-2.632c.568-.369.998-.76 1.289-1.172.298-.412.447-.894.447-1.448 0-.469-.199-.913-.596-1.332-.391-.419-.931-.629-1.62-.629a2.27 2.27 0 0 0-1.225.331c-.348.213-.621.493-.82.841a2.26 2.26 0 0 0-.288 1.108c0 .476.132.959.394 1.449.27.49.618.998 1.045 1.523l1.384 1.673 10.238 11.996h-4.176l-8.501-9.737-1.833-2.184c-.582-.718-1.061-1.463-1.438-2.238-.369-.781-.554-1.626-.554-2.535 0-1.03.238-1.95.714-2.759.476-.817 1.14-1.46 1.992-1.929.86-.468 1.865-.703 3.015-.703s2.138.228 2.962.682 1.459 1.058 1.907 1.811.671 1.573.671 2.461c0 1.03-.256 1.953-.767 2.77-.511.81-1.222 1.545-2.131 2.205l-4.41 3.228c-.725.526-1.243 1.058-1.556 1.598-.312.533-.468.987-.468 1.364a2.91 2.91 0 0 0 .436 1.566 3.2 3.2 0 0 0 1.225 1.129c.533.277 1.155.416 1.865.416.781 0 1.552-.174 2.312-.522.76-.355 1.452-.86 2.077-1.513s1.122-1.435 1.491-2.344c.37-.916.554-1.932.554-3.047h3.314c0 1.378-.153 2.578-.458 3.601-.306 1.016-.7 1.875-1.183 2.578-.483.696-.994 1.254-1.534 1.673l-.49.362-.49.362c-.767.696-1.666 1.208-2.695 1.534-1.023.327-2.028.49-3.015.49zM701.08 458.643l-6.158-21.818h4.251l3.931 16.033h.202l4.198-16.033h3.867l4.208 16.044h.192l3.931-16.044h4.25l-6.157 21.818h-3.899l-4.368-15.309h-.171l-4.378 15.309h-3.899zm28.481.33c-1.036 0-1.97-.185-2.801-.554-.824-.376-1.478-.93-1.961-1.662-.475-.731-.713-1.633-.713-2.706 0-.923.17-1.687.511-2.29a3.95 3.95 0 0 1 1.396-1.449c.589-.362 1.253-.636 1.992-.821.745-.191 1.516-.33 2.312-.415l2.333-.266c.596-.086 1.029-.213 1.299-.384.277-.177.416-.451.416-.82v-.064c0-.803-.238-1.424-.714-1.864s-1.161-.661-2.056-.661c-.945 0-1.694.206-2.248.618-.547.412-.916.898-1.108 1.459l-3.601-.511c.284-.994.753-1.825 1.407-2.493a6.11 6.11 0 0 1 2.397-1.513c.944-.34 1.988-.511 3.132-.511a10.18 10.18 0 0 1 2.354.277c.781.185 1.495.49 2.141.916.647.419 1.165.991 1.556 1.715.397.725.596 1.63.596 2.717v10.952h-3.707v-2.248h-.128a4.7 4.7 0 0 1-.991 1.278c-.419.391-.948.707-1.587.948-.632.235-1.374.352-2.227.352zm1.002-2.834c.774 0 1.445-.152 2.013-.458.569-.312 1.005-.724 1.311-1.236a3.15 3.15 0 0 0 .468-1.672v-1.929c-.12.1-.326.192-.617.277-.285.086-.604.16-.959.224l-1.055.171-.905.127c-.576.079-1.091.206-1.545.384s-.813.426-1.076.746c-.263.312-.394.717-.394 1.214 0 .71.259 1.247.777 1.609s1.179.543 1.982.543zm11.516 2.504v-16.364h3.74v2.727h.17c.298-.944.81-1.672 1.534-2.184.732-.518 1.566-.777 2.504-.777l.713.032a4.88 4.88 0 0 1 .672.074v3.548c-.164-.057-.423-.107-.778-.149a7.11 7.11 0 0 0-1.012-.075c-.703 0-1.335.153-1.897.458-.553.299-.99.714-1.31 1.247s-.479 1.147-.479 1.843v9.62h-3.857zm11.895 0v-16.364h3.739v2.727h.171c.298-.944.809-1.672 1.534-2.184.731-.518 1.566-.777 2.503-.777l.714.032c.27.014.494.039.671.074v3.548c-.163-.057-.422-.107-.778-.149a7.11 7.11 0 0 0-1.012-.075c-.703 0-1.335.153-1.896.458a3.35 3.35 0 0 0-1.31 1.247c-.32.532-.48 1.147-.48 1.843v9.62h-3.856zm16.31.33c-1.037 0-1.971-.185-2.802-.554-.824-.376-1.477-.93-1.96-1.662-.476-.731-.714-1.633-.714-2.706 0-.923.171-1.687.512-2.29s.806-1.087 1.395-1.449a7.07 7.07 0 0 1 1.992-.821c.746-.191 1.517-.33 2.312-.415l2.333-.266c.597-.086 1.03-.213 1.3-.384.277-.177.415-.451.415-.82v-.064c0-.803-.237-1.424-.713-1.864s-1.162-.661-2.056-.661c-.945 0-1.694.206-2.248.618-.547.412-.916.898-1.108 1.459l-3.601-.511c.284-.994.753-1.825 1.406-2.493.654-.675 1.453-1.179 2.397-1.513.945-.34 1.989-.511 3.132-.511a10.19 10.19 0 0 1 2.355.277c.781.185 1.495.49 2.141.916a4.6 4.6 0 0 1 1.555 1.715c.398.725.597 1.63.597 2.717v10.952h-3.707v-2.248h-.128a4.72 4.72 0 0 1-.991 1.278c-.419.391-.948.707-1.587.948-.632.235-1.375.352-2.227.352zm1.002-2.834c.774 0 1.445-.152 2.013-.458.568-.312 1.005-.724 1.31-1.236a3.14 3.14 0 0 0 .469-1.672v-1.929c-.121.1-.327.192-.618.277a8.54 8.54 0 0 1-.959.224l-1.054.171-.906.127c-.575.079-1.09.206-1.545.384s-.813.426-1.076.746c-.262.312-.394.717-.394 1.214 0 .71.26 1.247.778 1.609s1.179.543 1.982.543zm15.372-7.084v9.588h-3.856v-16.364h3.686v2.781h.192c.376-.917.976-1.645 1.8-2.184.831-.54 1.857-.81 3.079-.81 1.129 0 2.113.242 2.951.724.845.483 1.499 1.183 1.96 2.099.469.916.7 2.028.693 3.335v10.419h-3.857v-9.823c0-1.093-.284-1.949-.852-2.567-.561-.618-1.339-.927-2.333-.927-.675 0-1.275.149-1.801.447-.518.292-.927.714-1.225 1.268-.291.554-.437 1.225-.437 2.014zm22.596-6.776v2.983h-9.407v-2.983h9.407zm-7.084-3.92h3.856v15.362c0 .518.078.916.235 1.193a1.26 1.26 0 0 0 .639.554 2.46 2.46 0 0 0 .873.149c.242 0 .462-.018.661-.053l.469-.096.65 3.015c-.206.071-.501.149-.885.234-.376.086-.838.135-1.385.149-.966.029-1.836-.117-2.61-.436-.774-.327-1.388-.831-1.843-1.513-.447-.682-.667-1.534-.66-2.557v-16.001zm12.707 26.42a7.75 7.75 0 0 1-1.46-.128c-.44-.078-.792-.17-1.055-.277l.895-3.004c.561.163 1.062.242 1.502.234a1.84 1.84 0 0 0 1.162-.415c.341-.263.628-.703.863-1.321l.33-.884-5.934-16.705h4.091l3.771 12.358h.171l3.781-12.358h4.102l-6.552 18.345c-.305.867-.71 1.609-1.214 2.227a4.93 4.93 0 0 1-1.854 1.427c-.724.334-1.591.501-2.599.501zm41.175-20.593h-3.984c-.114-.653-.324-1.232-.629-1.736-.305-.512-.685-.945-1.14-1.3a4.74 4.74 0 0 0-1.555-.799c-.575-.185-1.197-.277-1.865-.277-1.186 0-2.237.298-3.153.895-.916.589-1.633 1.456-2.152 2.599-.518 1.137-.778 2.525-.778 4.166 0 1.669.26 3.075.778 4.218.526 1.137 1.243 1.996 2.152 2.579.916.575 1.964.862 3.143.862.653 0 1.264-.085 1.832-.255.575-.178 1.09-.437 1.545-.778a4.56 4.56 0 0 0 1.161-1.257 4.74 4.74 0 0 0 .661-1.705l3.984.022c-.149 1.037-.472 2.01-.969 2.919-.49.909-1.133 1.711-1.929 2.407-.795.689-1.726 1.229-2.791 1.62-1.065.383-2.248.575-3.547.575-1.918 0-3.63-.444-5.135-1.332s-2.692-2.169-3.559-3.846-1.299-3.686-1.299-6.029c0-2.351.436-4.361 1.31-6.03.874-1.676 2.063-2.958 3.569-3.846s3.21-1.332 5.114-1.332c1.214 0 2.343.171 3.387.512s1.975.841 2.791 1.502a8 8 0 0 1 2.014 2.407c.533.945.881 2.025 1.044 3.239zm8.158 14.787c-1.037 0-1.971-.185-2.802-.554-.824-.376-1.477-.93-1.96-1.662-.476-.731-.714-1.633-.714-2.706 0-.923.17-1.687.511-2.29a3.95 3.95 0 0 1 1.396-1.449c.589-.362 1.254-.636 1.992-.821.746-.191 1.517-.33 2.312-.415l2.333-.266c.597-.086 1.03-.213 1.3-.384.277-.177.415-.451.415-.82v-.064c0-.803-.238-1.424-.714-1.864s-1.161-.661-2.056-.661c-.944 0-1.694.206-2.248.618-.546.412-.916.898-1.107 1.459l-3.601-.511c.284-.994.753-1.825 1.406-2.493a6.11 6.11 0 0 1 2.397-1.513c.945-.34 1.989-.511 3.132-.511a10.18 10.18 0 0 1 2.354.277c.782.185 1.495.49 2.142.916a4.6 4.6 0 0 1 1.555 1.715c.398.725.597 1.63.597 2.717v10.952h-3.708v-2.248h-.127a4.72 4.72 0 0 1-.991 1.278c-.419.391-.948.707-1.588.948-.632.235-1.374.352-2.226.352zm1.001-2.834c.774 0 1.446-.152 2.014-.458.568-.312 1.005-.724 1.31-1.236a3.14 3.14 0 0 0 .469-1.672v-1.929c-.121.1-.327.192-.618.277a8.59 8.59 0 0 1-.959.224l-1.054.171-.906.127c-.575.079-1.09.206-1.545.384s-.813.426-1.076.746c-.263.312-.394.717-.394 1.214 0 .71.259 1.247.778 1.609s1.179.543 1.981.543zm11.517 2.504v-16.364h3.739v2.727h.17c.299-.944.81-1.672 1.535-2.184.731-.518 1.566-.777 2.503-.777l.714.032c.27.014.493.039.671.074v3.548c-.163-.057-.423-.107-.778-.149a7.11 7.11 0 0 0-1.012-.075c-.703 0-1.335.153-1.896.458a3.35 3.35 0 0 0-1.31 1.247c-.32.532-.48 1.147-.48 1.843v9.62h-3.856zm17.293.287c-1.286 0-2.436-.33-3.452-.99s-1.818-1.62-2.408-2.877-.884-2.784-.884-4.581c0-1.818.298-3.352.895-4.602.604-1.257 1.417-2.205 2.44-2.844 1.022-.647 2.162-.97 3.419-.97.959 0 1.748.163 2.365.49.618.32 1.108.707 1.471 1.161.362.448.642.87.841 1.268h.16v-8.16h3.867v21.818h-3.792v-2.578h-.235c-.199.397-.486.82-.863 1.267-.376.441-.873.817-1.491 1.13s-1.396.468-2.333.468zm1.076-3.164c.817 0 1.513-.22 2.088-.66.575-.448 1.012-1.069 1.31-1.865s.448-1.722.448-2.78-.149-1.978-.448-2.759c-.291-.782-.724-1.389-1.3-1.822-.568-.433-1.267-.65-2.098-.65-.86 0-1.577.224-2.152.671s-1.009 1.066-1.3 1.854-.437 1.69-.437 2.706c0 1.023.146 1.935.437 2.738.298.795.735 1.424 1.31 1.886.583.454 1.297.681 2.142.681z"/><path d="M1592.64 430.643v-21.818h8.18c1.68 0 3.08.312 4.22.937s2.01 1.484 2.59 2.578c.59 1.087.88 2.323.88 3.708 0 1.399-.29 2.642-.88 3.728s-1.46 1.943-2.61 2.568c-1.15.618-2.57.927-4.25.927h-5.43v-3.25h4.89c.98 0 1.79-.17 2.41-.511.63-.341 1.09-.81 1.39-1.406s.46-1.282.46-2.056-.16-1.456-.46-2.046-.77-1.047-1.4-1.374c-.62-.334-1.43-.501-2.42-.501h-3.62v18.516h-3.95zm26.04.319c-1.6 0-2.98-.351-4.16-1.054-1.17-.703-2.08-1.687-2.72-2.951s-.96-2.742-.96-4.432.32-3.171.96-4.443a7.1 7.1 0 0 1 2.72-2.961c1.18-.703 2.56-1.055 4.16-1.055s2.98.352 4.15 1.055a7.1 7.1 0 0 1 2.72 2.961c.65 1.272.97 2.753.97 4.443s-.32 3.167-.97 4.432c-.64 1.264-1.55 2.248-2.72 2.951s-2.55 1.054-4.15 1.054zm.02-3.089c.87 0 1.59-.238 2.17-.714.59-.483 1.02-1.129 1.3-1.939.29-.809.44-1.711.44-2.706 0-1.001-.15-1.907-.44-2.716-.28-.817-.71-1.467-1.3-1.95-.58-.483-1.3-.724-2.17-.724-.89 0-1.63.241-2.22.724-.58.483-1.02 1.133-1.31 1.95-.28.809-.42 1.715-.42 2.716 0 .995.14 1.897.42 2.706.29.81.73 1.456 1.31 1.939.59.476 1.33.714 2.22.714zm14 2.77l-4.62-16.364h3.93l2.87 11.506h.15l2.94-11.506h3.89l2.94 11.442h.16l2.84-11.442h3.94l-4.64 16.364h-4.01l-3.07-11.058h-.22l-3.07 11.058h-4.03zm28.51.319c-1.64 0-3.06-.341-4.25-1.022-1.19-.689-2.1-1.662-2.74-2.919-.64-1.265-.96-2.753-.96-4.464 0-1.683.32-3.161.96-4.432.64-1.278 1.55-2.273 2.7-2.983 1.16-.717 2.52-1.076 4.08-1.076 1.01 0 1.96.163 2.86.49.9.32 1.7.817 2.39 1.492s1.24 1.534 1.64 2.578c.39 1.037.59 2.272.59 3.707v1.183h-13.41v-2.6h9.72c-.01-.738-.17-1.395-.48-1.971-.32-.582-.75-1.04-1.31-1.374s-1.2-.501-1.94-.501c-.79 0-1.48.192-2.08.576a3.99 3.99 0 0 0-1.4 1.491 4.41 4.41 0 0 0-.5 2.014v2.269c0 .951.18 1.768.53 2.45a3.64 3.64 0 0 0 1.46 1.555c.62.356 1.35.533 2.19.533.56 0 1.07-.078 1.52-.234.46-.164.85-.402 1.19-.714.33-.313.58-.7.75-1.161l3.6.405c-.22.951-.66 1.782-1.3 2.492-.63.704-1.44 1.25-2.43 1.641-.98.384-2.11.575-3.38.575zm10.54-.319v-16.364h3.73v2.727h.18c.29-.944.8-1.672 1.53-2.184.73-.518 1.57-.777 2.5-.777l.72.032c.27.014.49.039.67.074v3.548c-.17-.057-.42-.107-.78-.149a7.18 7.18 0 0 0-1.01-.075c-.71 0-1.34.153-1.9.458-.55.299-.99.714-1.31 1.247s-.48 1.147-.48 1.843v9.62h-3.85zm-105.59 36h-4.22l7.68-21.818h4.88l7.69 21.818h-4.22l-5.82-17.344h-.18l-5.81 17.344zm.14-8.555h11.5v3.175h-11.5v-3.175zm24.17 8.842c-1.29 0-2.44-.33-3.45-.99-1.02-.661-1.82-1.62-2.41-2.877s-.88-2.784-.88-4.581c0-1.818.29-3.352.89-4.602.6-1.257 1.42-2.205 2.44-2.844 1.02-.647 2.16-.97 3.42-.97.96 0 1.75.163 2.36.49.62.32 1.11.707 1.48 1.161a7.28 7.28 0 0 1 .84 1.268h.16v-8.16h3.86v21.818h-3.79v-2.578h-.23c-.2.397-.49.82-.87 1.267-.37.441-.87.817-1.49 1.13s-1.39.468-2.33.468zm1.08-3.164c.81 0 1.51-.22 2.08-.66.58-.448 1.02-1.069 1.31-1.865.3-.795.45-1.722.45-2.78s-.15-1.978-.45-2.759c-.29-.782-.72-1.389-1.3-1.822-.56-.433-1.26-.65-2.09-.65-.86 0-1.58.224-2.16.671-.57.448-1.01 1.066-1.3 1.854s-.43 1.69-.43 2.706c0 1.023.14 1.935.43 2.738.3.795.74 1.424 1.31 1.886.59.454 1.3.681 2.15.681zm16.45 3.207c-1.03 0-1.97-.185-2.8-.554a4.57 4.57 0 0 1-1.96-1.662c-.48-.731-.71-1.633-.71-2.706 0-.923.17-1.687.51-2.29s.8-1.087 1.39-1.449 1.26-.636 2-.821c.74-.191 1.51-.33 2.31-.415l2.33-.266c.6-.086 1.03-.213 1.3-.384.28-.177.42-.451.42-.82v-.064c0-.803-.24-1.424-.72-1.864-.47-.441-1.16-.661-2.05-.661-.95 0-1.7.206-2.25.618s-.92.898-1.11 1.459l-3.6-.511c.28-.994.75-1.825 1.41-2.493.65-.675 1.45-1.179 2.39-1.513.95-.34 1.99-.511 3.13-.511.79 0 1.58.092 2.36.277s1.49.49 2.14.916c.65.419 1.16.991 1.56 1.715.39.725.59 1.63.59 2.717v10.952h-3.71v-2.248h-.12c-.24.454-.57.881-.99 1.278-.42.391-.95.707-1.59.948-.63.235-1.38.352-2.23.352zm1-2.834c.78 0 1.45-.152 2.02-.458.57-.312 1-.724 1.31-1.236a3.17 3.17 0 0 0 .47-1.672v-1.929c-.12.1-.33.192-.62.277a9.23 9.23 0 0 1-.96.224l-1.06.171-.9.127c-.58.079-1.09.206-1.55.384-.45.178-.81.426-1.07.746-.26.312-.4.717-.4 1.214 0 .71.26 1.247.78 1.609s1.18.543 1.98.543zm11.52 8.64v-22.5h3.79v2.706h.23a7.28 7.28 0 0 1 .84-1.268c.36-.454.85-.841 1.47-1.161.62-.327 1.4-.49 2.36-.49 1.27 0 2.41.323 3.42.97 1.03.639 1.84 1.587 2.43 2.844.61 1.25.91 2.784.91 4.602 0 1.797-.3 3.324-.89 4.581s-1.39 2.216-2.4 2.877c-1.02.66-2.17.99-3.46.99-.93 0-1.71-.156-2.33-.468s-1.11-.689-1.49-1.13c-.37-.447-.66-.87-.86-1.267h-.16v8.714h-3.86zm3.78-14.318c0 1.058.15 1.985.45 2.78s.74 1.417 1.31 1.865c.57.44 1.27.66 2.09.66.85 0 1.56-.227 2.14-.681.57-.462 1.01-1.091 1.3-1.886.3-.803.45-1.715.45-2.738 0-1.016-.15-1.918-.44-2.706s-.73-1.406-1.3-1.854c-.58-.447-1.29-.671-2.15-.671-.83 0-1.53.217-2.1.65-.58.433-1.01 1.04-1.31 1.822-.29.781-.44 1.701-.44 2.759zm23.14-8.182v2.983h-9.41v-2.983h9.41zm-7.08-3.92h3.85v15.362c0 .518.08.916.24 1.193.16.27.37.455.64.554.26.099.55.149.87.149.24 0 .46-.018.66-.053l.47-.096.65 3.015c-.21.071-.5.149-.88.234s-.84.135-1.39.149c-.97.029-1.84-.117-2.61-.436a4.05 4.05 0 0 1-1.84-1.513c-.45-.682-.67-1.534-.66-2.557v-16.001zm17.37 20.603c-1.64 0-3.05-.341-4.25-1.022a6.95 6.95 0 0 1-2.73-2.919c-.64-1.265-.96-2.753-.96-4.464 0-1.683.32-3.161.96-4.432.64-1.278 1.54-2.273 2.7-2.983 1.16-.717 2.52-1.076 4.08-1.076 1.01 0 1.96.163 2.86.49.9.32 1.7.817 2.38 1.492.7.674 1.25 1.534 1.64 2.578.4 1.037.6 2.272.6 3.707v1.183h-13.41v-2.6h9.71c0-.738-.16-1.395-.47-1.971-.32-.582-.75-1.04-1.32-1.374-.55-.334-1.2-.501-1.93-.501-.79 0-1.49.192-2.08.576a3.99 3.99 0 0 0-1.4 1.491 4.41 4.41 0 0 0-.5 2.014v2.269c0 .951.18 1.768.52 2.45.35.675.84 1.193 1.46 1.555.63.356 1.36.533 2.2.533.56 0 1.07-.078 1.52-.234.46-.164.85-.402 1.18-.714.34-.313.59-.7.76-1.161l3.6.405c-.23.951-.66 1.782-1.3 2.492-.63.704-1.44 1.25-2.43 1.641-.98.384-2.11.575-3.39.575zm10.54-.319v-16.364h3.74v2.727h.17c.3-.944.81-1.672 1.54-2.184.73-.518 1.56-.777 2.5-.777l.71.032c.27.014.5.039.68.074v3.548c-.17-.057-.43-.107-.78-.149a7.18 7.18 0 0 0-1.01-.075c-.71 0-1.34.153-1.9.458-.55.299-.99.714-1.31 1.247s-.48 1.147-.48 1.843v9.62h-3.86zm24.83-12.039l-3.51.384c-.1-.355-.28-.689-.53-1.001-.24-.313-.56-.565-.98-.757-.41-.192-.91-.288-1.51-.288-.8 0-1.48.174-2.02.522s-.81.799-.8 1.353c-.01.476.16.863.52 1.162s.96.543 1.79.735l2.79.596c1.55.334 2.7.863 3.45 1.588.76.724 1.15 1.672 1.15 2.844a4.44 4.44 0 0 1-.9 2.727c-.59.782-1.41 1.393-2.46 1.833s-2.26.66-3.63.66c-2 0-3.61-.419-4.83-1.257-1.22-.845-1.95-2.02-2.19-3.526l3.76-.362c.17.738.54 1.296 1.09 1.672.56.377 1.28.565 2.16.565.92 0 1.66-.188 2.21-.565.56-.376.84-.841.84-1.395 0-.469-.18-.856-.54-1.161s-.91-.54-1.66-.704l-2.8-.586c-1.57-.326-2.73-.877-3.48-1.651-.75-.781-1.13-1.768-1.12-2.961-.01-1.009.27-1.883.82-2.621.56-.746 1.34-1.321 2.34-1.726 1-.412 2.15-.618 3.46-.618 1.92 0 3.42.408 4.53 1.225 1.1.817 1.79 1.921 2.05 3.313zm8.4 2.493l.25-4.314-3.63 2.375-1.3-2.258 3.87-1.939-3.87-1.939 1.3-2.259 3.63 2.376-.25-4.314h2.59l-.23 4.314 3.62-2.376 1.3 2.259-3.88 1.939 3.88 1.939-1.3 2.258-3.62-2.375.23 4.314h-2.59z"/></g><defs><linearGradient id="D" x1="150.414" y1="364.366" x2="379.024" y2="364.366" href="#P"><stop stop-color="#d84896"/><stop offset="1" stop-color="#a733c3"/></linearGradient><linearGradient id="E" x1="974.458" y1="371.921" x2="1203.07" y2="371.921" href="#P"><stop stop-color="#d84896"/><stop offset="1" stop-color="#a733c3"/></linearGradient><linearGradient id="F" x1="418.459" y1="364.366" x2="647.07" y2="364.366" href="#P"><stop stop-color="#d84896"/><stop offset="1" stop-color="#a733c3"/></linearGradient><linearGradient id="G" x1="1249.6" y1="371.921" x2="1478.21" y2="371.921" href="#P"><stop stop-color="#d84896"/><stop offset="1" stop-color="#a733c3"/></linearGradient><linearGradient id="H" x1="686.504" y1="364.366" x2="915.114" y2="364.366" href="#P"><stop stop-color="#d84896"/><stop offset="1" stop-color="#a733c3"/></linearGradient><linearGradient id="I" x1="1517.65" y1="371.921" x2="1746.26" y2="371.921" href="#P"><stop stop-color="#d84896"/><stop offset="1" stop-color="#a733c3"/></linearGradient><clipPath id="J"><path fill="#fff" transform="translate(763.1 218.643)" d="M0 0h73v72H0z"/></clipPath><clipPath id="K"><path fill="#fff" transform="translate(1624.1 261.643)" d="M0 0h53v53H0z"/></clipPath><clipPath id="L"><path fill="#fff" transform="translate(1338.1 252.643)" d="M0 0h52v51H0z"/></clipPath><path id="M" d="M307.451 164.132a2.39 2.39 0 1 0 4.782 0 2.39 2.39 0 1 0-4.782 0z"/><path id="N" d="M228.16 164.132a2.39 2.39 0 1 0 4.781 0 2.39 2.39 0 1 0-4.781 0z"/><path id="O" d="M216.674 308.105c0 1.28 1.037 2.317 2.317 2.317s2.316-1.037 2.316-2.317-1.037-2.316-2.316-2.316-2.317 1.037-2.317 2.316z"/><linearGradient id="P" gradientUnits="userSpaceOnUse"/></defs></svg>