<svg width="352" height="533" viewBox="0 0 352 533" fill="none" xmlns="http://www.w3.org/2000/svg">
<rect x="0.25" y="0.25" width="255.5" height="532.5" rx="9.75" fill="white" stroke="url(#paint0_linear_259_266)" stroke-width="0.5"/>
<path d="M15.9229 146.082V145.394H20.5518V145.892C20.542 146.927 20.8496 147.698 21.4746 148.206C22.0996 148.714 22.9688 148.968 24.082 148.968C25.1758 148.968 26.0156 148.733 26.6016 148.265C27.1875 147.786 27.4805 147.151 27.4805 146.36C27.4805 145.589 27.1826 144.983 26.5869 144.544C26.001 144.095 24.7656 143.606 22.8809 143.079C20.6543 142.454 18.9893 141.629 17.8857 140.604C16.7822 139.568 16.2305 138.187 16.2305 136.458C16.2305 134.573 16.9287 133.074 18.3252 131.961C19.7217 130.848 21.5918 130.291 23.9355 130.291C26.2695 130.291 28.1494 130.843 29.5752 131.946C31.001 133.05 31.7139 134.549 31.7139 136.443V137.029H27.1582V136.634C27.1582 135.755 26.8896 135.057 26.3525 134.539C25.8154 134.012 25.0244 133.748 23.9795 133.748C22.915 133.748 22.1338 133.963 21.6357 134.393C21.1475 134.812 20.9033 135.379 20.9033 136.092C20.9033 136.775 21.1963 137.312 21.7822 137.703C22.3779 138.084 23.6279 138.543 25.5322 139.08C27.71 139.695 29.3555 140.53 30.4688 141.585C31.582 142.63 32.1387 144.095 32.1387 145.979C32.1387 147.991 31.4014 149.563 29.9268 150.696C28.4619 151.819 26.5234 152.381 24.1113 152.381C21.709 152.381 19.7412 151.849 18.208 150.784C16.6846 149.71 15.9229 148.143 15.9229 146.082ZM34.6875 152V137.278H39.3311V152H34.6875ZM34.3652 132.825C34.3652 132.151 34.5947 131.585 35.0537 131.126C35.5127 130.657 36.167 130.423 37.0166 130.423C37.8662 130.423 38.5156 130.652 38.9648 131.111C39.4238 131.57 39.6533 132.142 39.6533 132.825C39.6533 133.509 39.4238 134.085 38.9648 134.554C38.5059 135.022 37.8467 135.257 36.9873 135.257C36.1377 135.257 35.4883 135.022 35.0391 134.554C34.5898 134.085 34.3652 133.509 34.3652 132.825ZM42.7295 156.541L44.209 153.611C44.5898 153.963 45.21 154.305 46.0693 154.637C46.9287 154.969 47.8271 155.135 48.7646 155.135C49.79 155.135 50.6543 154.827 51.3574 154.212C52.0605 153.606 52.4121 152.625 52.4121 151.268V150.301C52.0117 150.906 51.46 151.385 50.7568 151.736C50.0537 152.078 49.1797 152.249 48.1348 152.249C46.2598 152.249 44.751 151.57 43.6084 150.213C42.4658 148.855 41.8945 147.073 41.8945 144.866V144.397C41.8945 142.19 42.4561 140.403 43.5791 139.036C44.7021 137.669 46.2158 136.985 48.1201 136.985C49.0674 136.985 49.9316 137.181 50.7129 137.571C51.4941 137.962 52.0557 138.46 52.3975 139.065H52.4707L52.5293 137.278H56.9678V150.857C56.9678 153.299 56.2549 155.169 54.8291 156.468C53.4033 157.776 51.5576 158.431 49.292 158.431C47.9346 158.431 46.6846 158.245 45.542 157.874C44.4092 157.513 43.4717 157.068 42.7295 156.541ZM46.5381 144.983C46.5381 146.165 46.7871 147.122 47.2852 147.854C47.793 148.587 48.5645 148.953 49.5996 148.953C50.2832 148.953 50.8643 148.753 51.3428 148.353C51.8311 147.952 52.1777 147.498 52.3828 146.99V142.332C52.168 141.756 51.8164 141.277 51.3281 140.896C50.8398 140.506 50.249 140.311 49.5557 140.311C48.54 140.311 47.7832 140.682 47.2852 141.424C46.7871 142.166 46.5381 143.123 46.5381 144.295V144.983ZM60.249 152V137.278H64.6729L64.7461 139.065H64.8047C65.1855 138.44 65.7617 137.933 66.5332 137.542C67.3047 137.151 68.1982 136.956 69.2139 136.956C70.7275 136.956 71.958 137.381 72.9053 138.23C73.8525 139.08 74.3262 140.54 74.3262 142.61V152H69.7266V142.859C69.7266 141.971 69.5361 141.346 69.1553 140.984C68.7744 140.613 68.2373 140.428 67.5439 140.428C66.9678 140.428 66.4355 140.599 65.9473 140.94C65.459 141.282 65.0879 141.746 64.834 142.332V152H60.249ZM84.9902 152V130.672H89.7656V152H84.9902ZM93.3252 152V137.278H97.749L97.8223 139.065H97.8809C98.2617 138.44 98.8379 137.933 99.6094 137.542C100.381 137.151 101.274 136.956 102.29 136.956C103.804 136.956 105.034 137.381 105.981 138.23C106.929 139.08 107.402 140.54 107.402 142.61V152H102.803V142.859C102.803 141.971 102.612 141.346 102.231 140.984C101.851 140.613 101.313 140.428 100.62 140.428C100.044 140.428 99.5117 140.599 99.0234 140.94C98.5352 141.282 98.1641 141.746 97.9102 142.332V152H93.3252Z" fill="#2F2E2E"/>
<path d="M15.6812 203.855V199.602H16.5732V203.855C16.5732 204.362 16.7153 204.74 16.9995 204.989C17.2837 205.235 17.6572 205.358 18.1201 205.358C18.583 205.358 18.9565 205.235 19.2407 204.989C19.5278 204.74 19.6714 204.362 19.6714 203.855V199.602H20.5635V203.855C20.5635 204.614 20.3262 205.184 19.8516 205.565C19.377 205.943 18.7998 206.132 18.1201 206.132C17.4434 206.132 16.8677 205.943 16.3931 205.565C15.9185 205.184 15.6812 204.614 15.6812 203.855ZM21.6006 204.603H22.4619V204.625C22.4619 204.891 22.5688 205.093 22.7827 205.231C22.9966 205.369 23.2778 205.438 23.6265 205.438C23.9751 205.438 24.2476 205.372 24.4438 205.24C24.6431 205.108 24.7427 204.939 24.7427 204.734C24.7427 204.523 24.6636 204.362 24.5054 204.251C24.3501 204.137 24 204.024 23.4551 203.913C22.9102 203.801 22.4912 203.633 22.1982 203.407C21.9082 203.182 21.7632 202.871 21.7632 202.476C21.7632 202.083 21.9302 201.758 22.2642 201.5C22.6011 201.239 23.0522 201.109 23.6177 201.109C24.1948 201.109 24.6533 201.242 24.9932 201.509C25.333 201.772 25.5029 202.123 25.5029 202.559V202.581H24.646V202.555C24.646 202.323 24.5625 202.14 24.3955 202.005C24.2285 201.868 23.9692 201.799 23.6177 201.799C23.2661 201.799 23.0112 201.86 22.853 201.983C22.6978 202.106 22.6201 202.256 22.6201 202.432C22.6201 202.61 22.7021 202.754 22.8662 202.862C23.0303 202.968 23.3862 203.076 23.9341 203.188C24.479 203.299 24.8936 203.472 25.1777 203.706C25.4648 203.938 25.6084 204.264 25.6084 204.686C25.6084 205.108 25.4429 205.455 25.1118 205.728C24.7808 205.997 24.2856 206.132 23.6265 206.132C22.9673 206.132 22.4648 205.994 22.1191 205.719C21.7734 205.443 21.6006 205.079 21.6006 204.625V204.603ZM26.3335 203.688V203.548C26.3335 202.833 26.5371 202.249 26.9443 201.794C27.3545 201.337 27.895 201.109 28.5659 201.109C29.2427 201.109 29.7627 201.323 30.126 201.75C30.4893 202.175 30.6709 202.748 30.6709 203.469V203.833H26.8652V203.144H29.7964V203.135C29.7964 202.76 29.7012 202.448 29.5107 202.199C29.3232 201.947 29.0112 201.821 28.5747 201.821C28.1294 201.821 27.7896 201.988 27.5552 202.322C27.3237 202.656 27.208 203.064 27.208 203.548V203.688C27.208 204.175 27.3296 204.585 27.5728 204.919C27.8188 205.253 28.1968 205.42 28.7065 205.42C29.0229 205.42 29.2939 205.355 29.5195 205.227C29.7451 205.098 29.9282 204.944 30.0688 204.765L30.627 205.231C30.4717 205.454 30.23 205.66 29.9019 205.851C29.5737 206.038 29.1753 206.132 28.7065 206.132C27.939 206.132 27.3516 205.905 26.9443 205.451C26.5371 204.997 26.3335 204.409 26.3335 203.688ZM31.6641 206V201.241H32.4463L32.4858 201.856H32.5078C32.6338 201.66 32.7993 201.487 33.0044 201.337C33.2124 201.185 33.46 201.109 33.7471 201.109C33.8115 201.109 33.8804 201.116 33.9536 201.131C34.0298 201.146 34.0825 201.159 34.1118 201.17V201.988C34.0503 201.976 33.9858 201.967 33.9185 201.961C33.8511 201.956 33.7778 201.953 33.6987 201.953C33.4116 201.953 33.1685 202.024 32.9692 202.168C32.77 202.312 32.6221 202.487 32.5254 202.695V206H31.6641ZM37.1924 206V199.602H38.124L41.1562 204.093C41.2148 204.181 41.272 204.277 41.3276 204.383C41.3862 204.488 41.4331 204.578 41.4683 204.651H41.5122C41.5063 204.563 41.5005 204.446 41.4946 204.299C41.4917 204.153 41.4902 204.036 41.4902 203.948V199.602H42.3428V206H41.4067L38.3613 201.487C38.2998 201.399 38.2427 201.311 38.1899 201.223C38.1401 201.135 38.0977 201.055 38.0625 200.981H38.0186C38.0244 201.069 38.0303 201.169 38.0361 201.28C38.042 201.389 38.0449 201.487 38.0449 201.575V206H37.1924ZM43.4854 204.603C43.4854 204.119 43.6846 203.743 44.083 203.473C44.4814 203.204 44.9883 203.069 45.6035 203.069H46.7373V202.7C46.7373 202.433 46.6582 202.216 46.5 202.049C46.3447 201.882 46.0752 201.799 45.6914 201.799C45.3105 201.799 45.0381 201.874 44.874 202.023C44.71 202.169 44.6279 202.341 44.6279 202.537V202.559H43.7666V202.537C43.7666 202.156 43.9424 201.824 44.2939 201.54C44.6455 201.252 45.1201 201.109 45.7178 201.109C46.3154 201.109 46.7783 201.242 47.1064 201.509C47.4346 201.775 47.5986 202.172 47.5986 202.7V204.945C47.5986 205.136 47.6133 205.316 47.6426 205.486C47.6748 205.653 47.7188 205.801 47.7744 205.93V206H46.9395C46.8955 205.924 46.856 205.826 46.8208 205.706C46.7856 205.583 46.7637 205.461 46.7549 205.341C46.6377 205.537 46.4473 205.711 46.1836 205.864C45.9229 206.013 45.5845 206.088 45.1685 206.088C44.7026 206.088 44.3057 205.96 43.9775 205.706C43.6494 205.451 43.4854 205.083 43.4854 204.603ZM44.3467 204.559C44.3467 204.822 44.4287 205.029 44.5928 205.178C44.7598 205.325 45.0176 205.398 45.3662 205.398C45.7148 205.398 46.0298 205.287 46.311 205.064C46.5952 204.838 46.7373 204.601 46.7373 204.352V203.688H45.6914C45.252 203.688 44.918 203.768 44.6895 203.926C44.4609 204.081 44.3467 204.292 44.3467 204.559ZM48.8994 206V201.241H49.6816L49.7212 201.869H49.7432C49.9248 201.644 50.1401 201.468 50.3892 201.342C50.6411 201.216 50.9224 201.153 51.2329 201.153C51.564 201.153 51.8496 201.217 52.0898 201.346C52.333 201.475 52.5161 201.682 52.6392 201.966H52.6655C52.8735 201.679 53.1064 201.472 53.3643 201.346C53.625 201.217 53.9194 201.153 54.2476 201.153C54.7603 201.153 55.1616 201.295 55.4517 201.579C55.7417 201.86 55.8867 202.331 55.8867 202.99V206H55.0254V202.981C55.0254 202.591 54.939 202.313 54.7661 202.146C54.5933 201.976 54.3486 201.891 54.0322 201.891C53.7598 201.891 53.521 201.964 53.3159 202.111C53.1138 202.257 52.9512 202.446 52.8281 202.678V206H51.9624V202.981C51.9624 202.591 51.876 202.313 51.7031 202.146C51.5303 201.976 51.2856 201.891 50.9692 201.891C50.6938 201.891 50.4536 201.964 50.2485 202.111C50.0464 202.257 49.8838 202.446 49.7607 202.678V206H48.8994ZM56.8667 203.688V203.548C56.8667 202.833 57.0703 202.249 57.4775 201.794C57.8877 201.337 58.4282 201.109 59.0991 201.109C59.7759 201.109 60.2959 201.323 60.6592 201.75C61.0225 202.175 61.2041 202.748 61.2041 203.469V203.833H57.3984V203.144H60.3296V203.135C60.3296 202.76 60.2344 202.448 60.0439 202.199C59.8564 201.947 59.5444 201.821 59.1079 201.821C58.6626 201.821 58.3228 201.988 58.0884 202.322C57.8569 202.656 57.7412 203.064 57.7412 203.548V203.688C57.7412 204.175 57.8628 204.585 58.106 204.919C58.3521 205.253 58.73 205.42 59.2397 205.42C59.5562 205.42 59.8271 205.355 60.0527 205.227C60.2783 205.098 60.4614 204.944 60.6021 204.765L61.1602 205.231C61.0049 205.454 60.7632 205.66 60.4351 205.851C60.1069 206.038 59.7085 206.132 59.2397 206.132C58.4722 206.132 57.8848 205.905 57.4775 205.451C57.0703 204.997 56.8667 204.409 56.8667 203.688Z" fill="#5A5C66"/>
<line x1="15" y1="216.75" x2="241" y2="216.75" stroke="#B8B8B8" stroke-width="0.5"/>
<path d="M15.7471 251V244.602H17.9839C18.7251 244.602 19.2935 244.78 19.689 245.138C20.0874 245.492 20.2866 245.967 20.2866 246.562C20.2866 247.153 20.0874 247.631 19.689 247.994C19.2935 248.357 18.7251 248.539 17.9839 248.539H16.6392V251H15.7471ZM16.6392 247.796H17.9839C18.5083 247.796 18.8745 247.676 19.0825 247.436C19.2935 247.196 19.3989 246.904 19.3989 246.562C19.3989 246.216 19.2935 245.927 19.0825 245.696C18.8745 245.461 18.5083 245.344 17.9839 245.344H16.6392V247.796ZM20.8975 249.603C20.8975 249.119 21.0967 248.743 21.4951 248.473C21.8936 248.204 22.4004 248.069 23.0156 248.069H24.1494V247.7C24.1494 247.433 24.0703 247.216 23.9121 247.049C23.7568 246.882 23.4873 246.799 23.1035 246.799C22.7227 246.799 22.4502 246.874 22.2861 247.023C22.1221 247.169 22.04 247.341 22.04 247.537V247.559H21.1787V247.537C21.1787 247.156 21.3545 246.824 21.7061 246.54C22.0576 246.252 22.5322 246.109 23.1299 246.109C23.7275 246.109 24.1904 246.242 24.5186 246.509C24.8467 246.775 25.0107 247.172 25.0107 247.7V249.945C25.0107 250.136 25.0254 250.316 25.0547 250.486C25.0869 250.653 25.1309 250.801 25.1865 250.93V251H24.3516C24.3076 250.924 24.2681 250.826 24.2329 250.706C24.1978 250.583 24.1758 250.461 24.167 250.341C24.0498 250.537 23.8594 250.711 23.5957 250.864C23.335 251.013 22.9966 251.088 22.5806 251.088C22.1147 251.088 21.7178 250.96 21.3896 250.706C21.0615 250.451 20.8975 250.083 20.8975 249.603ZM21.7588 249.559C21.7588 249.822 21.8408 250.029 22.0049 250.178C22.1719 250.325 22.4297 250.398 22.7783 250.398C23.127 250.398 23.4419 250.287 23.7231 250.064C24.0073 249.838 24.1494 249.601 24.1494 249.352V248.688H23.1035C22.6641 248.688 22.3301 248.768 22.1016 248.926C21.873 249.081 21.7588 249.292 21.7588 249.559ZM26.0127 249.603H26.874V249.625C26.874 249.891 26.981 250.093 27.1948 250.231C27.4087 250.369 27.6899 250.438 28.0386 250.438C28.3872 250.438 28.6597 250.372 28.856 250.24C29.0552 250.108 29.1548 249.939 29.1548 249.734C29.1548 249.523 29.0757 249.362 28.9175 249.251C28.7622 249.137 28.4121 249.024 27.8672 248.913C27.3223 248.801 26.9033 248.633 26.6104 248.407C26.3203 248.182 26.1753 247.871 26.1753 247.476C26.1753 247.083 26.3423 246.758 26.6763 246.5C27.0132 246.239 27.4644 246.109 28.0298 246.109C28.6069 246.109 29.0654 246.242 29.4053 246.509C29.7451 246.772 29.915 247.123 29.915 247.559V247.581H29.0581V247.555C29.0581 247.323 28.9746 247.14 28.8076 247.005C28.6406 246.868 28.3813 246.799 28.0298 246.799C27.6782 246.799 27.4233 246.86 27.2651 246.983C27.1099 247.106 27.0322 247.256 27.0322 247.432C27.0322 247.61 27.1143 247.754 27.2783 247.862C27.4424 247.968 27.7983 248.076 28.3462 248.188C28.8911 248.299 29.3057 248.472 29.5898 248.706C29.877 248.938 30.0205 249.264 30.0205 249.686C30.0205 250.108 29.855 250.455 29.5239 250.728C29.1929 250.997 28.6978 251.132 28.0386 251.132C27.3794 251.132 26.877 250.994 26.5312 250.719C26.1855 250.443 26.0127 250.079 26.0127 249.625V249.603ZM30.7236 249.603H31.585V249.625C31.585 249.891 31.6919 250.093 31.9058 250.231C32.1196 250.369 32.4009 250.438 32.7495 250.438C33.0981 250.438 33.3706 250.372 33.5669 250.24C33.7661 250.108 33.8657 249.939 33.8657 249.734C33.8657 249.523 33.7866 249.362 33.6284 249.251C33.4731 249.137 33.123 249.024 32.5781 248.913C32.0332 248.801 31.6143 248.633 31.3213 248.407C31.0312 248.182 30.8862 247.871 30.8862 247.476C30.8862 247.083 31.0532 246.758 31.3872 246.5C31.7241 246.239 32.1753 246.109 32.7407 246.109C33.3179 246.109 33.7764 246.242 34.1162 246.509C34.4561 246.772 34.626 247.123 34.626 247.559V247.581H33.769V247.555C33.769 247.323 33.6855 247.14 33.5186 247.005C33.3516 246.868 33.0923 246.799 32.7407 246.799C32.3892 246.799 32.1343 246.86 31.9761 246.983C31.8208 247.106 31.7432 247.256 31.7432 247.432C31.7432 247.61 31.8252 247.754 31.9893 247.862C32.1533 247.968 32.5093 248.076 33.0571 248.188C33.6021 248.299 34.0166 248.472 34.3008 248.706C34.5879 248.938 34.7314 249.264 34.7314 249.686C34.7314 250.108 34.5659 250.455 34.2349 250.728C33.9038 250.997 33.4087 251.132 32.7495 251.132C32.0903 251.132 31.5879 250.994 31.2422 250.719C30.8965 250.443 30.7236 250.079 30.7236 249.625V249.603ZM35.1929 246.241H36.041L36.9287 249.308C36.9639 249.425 36.9961 249.54 37.0254 249.651C37.0547 249.759 37.0781 249.872 37.0957 249.989H37.1221C37.1396 249.872 37.1616 249.759 37.188 249.651C37.2173 249.54 37.2524 249.425 37.2935 249.308L38.3438 246.241H39.1084L40.1631 249.308C40.2041 249.425 40.2378 249.54 40.2642 249.651C40.2935 249.759 40.3169 249.872 40.3345 249.989H40.3608C40.3784 249.872 40.4019 249.759 40.4312 249.651C40.4604 249.54 40.4927 249.425 40.5278 249.308L41.4067 246.241H42.1978L40.6992 251H39.9829L38.9282 247.875C38.8872 247.758 38.8491 247.641 38.814 247.524C38.7788 247.407 38.7451 247.29 38.7129 247.172H38.6865C38.6543 247.29 38.6191 247.407 38.5811 247.524C38.5459 247.641 38.5093 247.758 38.4712 247.875L37.4121 251H36.6914L35.1929 246.241ZM42.6812 248.688V248.548C42.6812 247.833 42.8921 247.249 43.314 246.794C43.7388 246.337 44.3042 246.109 45.0103 246.109C45.7192 246.109 46.2847 246.337 46.7065 246.794C47.1313 247.249 47.3438 247.833 47.3438 248.548V248.688C47.3438 249.409 47.1313 249.997 46.7065 250.451C46.2847 250.905 45.7192 251.132 45.0103 251.132C44.3042 251.132 43.7388 250.905 43.314 250.451C42.8921 249.997 42.6812 249.409 42.6812 248.688ZM43.5645 248.548V248.688C43.5645 249.172 43.6846 249.581 43.9248 249.915C44.168 250.246 44.5298 250.411 45.0103 250.411C45.4937 250.411 45.8555 250.246 46.0957 249.915C46.3389 249.581 46.4604 249.172 46.4604 248.688V248.548C46.4604 248.067 46.3389 247.662 46.0957 247.331C45.8555 246.997 45.4937 246.83 45.0103 246.83C44.5298 246.83 44.168 246.997 43.9248 247.331C43.6846 247.662 43.5645 248.067 43.5645 248.548ZM48.3721 251V246.241H49.1543L49.1938 246.856H49.2158C49.3418 246.66 49.5073 246.487 49.7124 246.337C49.9204 246.185 50.168 246.109 50.4551 246.109C50.5195 246.109 50.5884 246.116 50.6616 246.131C50.7378 246.146 50.7905 246.159 50.8198 246.17V246.988C50.7583 246.976 50.6938 246.967 50.6265 246.961C50.5591 246.956 50.4858 246.953 50.4067 246.953C50.1196 246.953 49.8765 247.024 49.6772 247.168C49.478 247.312 49.3301 247.487 49.2334 247.695V251H48.3721ZM51.2417 248.688V248.548C51.2417 247.856 51.4292 247.285 51.8042 246.834C52.1792 246.38 52.6787 246.153 53.3027 246.153C53.6514 246.153 53.9487 246.213 54.1948 246.333C54.4438 246.45 54.6416 246.607 54.7881 246.803V244.25H55.6494V251H54.8672L54.8276 250.38H54.8057C54.6768 250.577 54.4805 250.744 54.2168 250.881C53.9561 251.019 53.6514 251.088 53.3027 251.088C52.6787 251.088 52.1792 250.862 51.8042 250.411C51.4292 249.957 51.2417 249.383 51.2417 248.688ZM52.125 248.688C52.125 249.163 52.2349 249.562 52.4546 249.884C52.6772 250.206 53.0244 250.367 53.4961 250.367C53.8154 250.367 54.085 250.285 54.3047 250.121C54.5273 249.957 54.6885 249.77 54.7881 249.559V247.682C54.6885 247.471 54.5273 247.284 54.3047 247.12C54.085 246.956 53.8154 246.874 53.4961 246.874C53.0244 246.874 52.6772 247.035 52.4546 247.357C52.2349 247.679 52.125 248.076 52.125 248.548V248.688Z" fill="#5A5C66"/>
<path d="M177.581 286V281.023H180.859V281.608H178.282V283.262H180.507V283.847H178.282V286H177.581ZM181.269 284.192V284.083C181.269 283.522 181.435 283.064 181.768 282.708C182.103 282.353 182.549 282.175 183.104 282.175C183.663 282.175 184.108 282.353 184.441 282.708C184.776 283.064 184.943 283.522 184.943 284.083V284.192C184.943 284.755 184.776 285.214 184.441 285.569C184.108 285.925 183.663 286.103 183.104 286.103C182.549 286.103 182.103 285.925 181.768 285.569C181.435 285.214 181.269 284.755 181.269 284.192ZM181.963 284.083V284.192C181.963 284.568 182.059 284.886 182.25 285.146C182.441 285.405 182.726 285.535 183.104 285.535C183.485 285.535 183.771 285.405 183.962 285.146C184.154 284.886 184.25 284.568 184.25 284.192V284.083C184.25 283.709 184.154 283.392 183.962 283.132C183.771 282.873 183.485 282.743 183.104 282.743C182.726 282.743 182.441 282.873 182.25 283.132C182.059 283.392 181.963 283.709 181.963 284.083ZM185.743 286V282.278H186.358L186.389 282.76H186.406C186.507 282.605 186.638 282.469 186.799 282.353C186.963 282.235 187.158 282.175 187.384 282.175C187.436 282.175 187.491 282.181 187.548 282.192C187.607 282.204 187.648 282.214 187.671 282.223V282.869C187.623 282.86 187.573 282.853 187.521 282.849C187.468 282.844 187.41 282.842 187.346 282.842C187.121 282.842 186.929 282.898 186.772 283.009C186.615 283.121 186.497 283.259 186.42 283.423V286H185.743ZM188.139 286.971L188.532 286.451C188.646 286.57 188.805 286.673 189.007 286.762C189.212 286.851 189.441 286.896 189.694 286.896C190.032 286.896 190.297 286.808 190.491 286.632C190.687 286.459 190.785 286.214 190.785 285.897V285.559C190.668 285.714 190.512 285.838 190.316 285.932C190.123 286.023 189.888 286.068 189.612 286.068C189.12 286.068 188.726 285.892 188.43 285.539C188.136 285.183 187.989 284.734 187.989 284.192V284.083C187.989 283.54 188.136 283.092 188.43 282.739C188.726 282.386 189.12 282.209 189.612 282.209C189.888 282.209 190.13 282.264 190.337 282.374C190.544 282.481 190.698 282.611 190.798 282.763H190.815L190.846 282.278H191.461V285.897C191.461 286.41 191.3 286.803 190.976 287.077C190.653 287.352 190.232 287.49 189.715 287.49C189.394 287.49 189.097 287.441 188.826 287.343C188.555 287.245 188.326 287.121 188.139 286.971ZM188.683 284.192C188.683 284.561 188.769 284.872 188.942 285.125C189.118 285.376 189.392 285.501 189.766 285.501C190.017 285.501 190.23 285.437 190.405 285.31C190.581 285.18 190.707 285.033 190.785 284.869V283.409C190.707 283.245 190.581 283.099 190.405 282.972C190.23 282.842 190.017 282.777 189.766 282.777C189.392 282.777 189.118 282.903 188.942 283.156C188.769 283.407 188.683 283.716 188.683 284.083V284.192ZM192.261 284.192V284.083C192.261 283.522 192.428 283.064 192.76 282.708C193.095 282.353 193.541 282.175 194.097 282.175C194.655 282.175 195.1 282.353 195.433 282.708C195.768 283.064 195.936 283.522 195.936 284.083V284.192C195.936 284.755 195.768 285.214 195.433 285.569C195.1 285.925 194.655 286.103 194.097 286.103C193.541 286.103 193.095 285.925 192.76 285.569C192.428 285.214 192.261 284.755 192.261 284.192ZM192.955 284.083V284.192C192.955 284.568 193.051 284.886 193.242 285.146C193.434 285.405 193.718 285.535 194.097 285.535C194.477 285.535 194.763 285.405 194.955 285.146C195.146 284.886 195.242 284.568 195.242 284.192V284.083C195.242 283.709 195.146 283.392 194.955 283.132C194.763 282.873 194.477 282.743 194.097 282.743C193.718 282.743 193.434 282.873 193.242 283.132C193.051 283.392 192.955 283.709 192.955 284.083ZM196.229 282.811V282.278H198.441V282.811H196.229ZM196.923 285.07V282.596V282.493V281.516H197.6V285.07C197.6 285.23 197.634 285.344 197.703 285.412C197.771 285.48 197.878 285.515 198.024 285.515C198.092 285.515 198.158 285.508 198.222 285.494C198.288 285.48 198.355 285.462 198.424 285.439V286C198.36 286.027 198.278 286.051 198.178 286.072C198.077 286.092 197.968 286.103 197.85 286.103C197.567 286.103 197.341 286.019 197.173 285.853C197.007 285.687 196.923 285.426 196.923 285.07ZM200.83 287.422V282.278H201.445L201.476 282.763H201.493C201.593 282.611 201.747 282.481 201.955 282.374C202.162 282.264 202.403 282.209 202.679 282.209C203.171 282.209 203.564 282.386 203.858 282.739C204.155 283.092 204.303 283.54 204.303 284.083V284.192C204.303 284.734 204.155 285.183 203.858 285.539C203.564 285.892 203.171 286.068 202.679 286.068C202.403 286.068 202.168 286.023 201.972 285.932C201.778 285.838 201.623 285.714 201.507 285.559V287.422H200.83ZM201.507 284.869C201.584 285.033 201.711 285.18 201.886 285.31C202.062 285.437 202.275 285.501 202.525 285.501C202.899 285.501 203.173 285.376 203.346 285.125C203.521 284.872 203.609 284.561 203.609 284.192V284.083C203.609 283.716 203.521 283.407 203.346 283.156C203.173 282.903 202.899 282.777 202.525 282.777C202.275 282.777 202.062 282.842 201.886 282.972C201.711 283.099 201.584 283.245 201.507 283.409V284.869ZM204.904 284.906C204.904 284.528 205.062 284.234 205.376 284.024C205.69 283.812 206.089 283.707 206.572 283.707H207.471V283.413C207.471 283.208 207.409 283.041 207.283 282.914C207.16 282.784 206.947 282.719 206.644 282.719C206.343 282.719 206.128 282.777 205.998 282.893C205.868 283.007 205.803 283.14 205.803 283.293V283.31H205.126V283.293C205.126 282.994 205.264 282.734 205.54 282.51C205.818 282.287 206.193 282.175 206.665 282.175C207.134 282.175 207.499 282.279 207.758 282.486C208.018 282.694 208.148 283.002 208.148 283.413V285.18C208.148 285.328 208.159 285.468 208.182 285.6C208.207 285.73 208.241 285.845 208.285 285.945V286H207.628C207.594 285.941 207.563 285.863 207.536 285.768C207.509 285.672 207.492 285.577 207.485 285.484C207.391 285.637 207.241 285.772 207.034 285.891C206.826 286.009 206.559 286.068 206.23 286.068C205.864 286.068 205.55 285.969 205.291 285.771C205.033 285.57 204.904 285.282 204.904 284.906ZM205.581 284.872C205.581 285.077 205.646 285.238 205.776 285.354C205.908 285.468 206.112 285.525 206.388 285.525C206.663 285.525 206.913 285.438 207.136 285.265C207.36 285.09 207.471 284.905 207.471 284.711V284.195H206.644C206.295 284.195 206.031 284.257 205.851 284.38C205.671 284.501 205.581 284.665 205.581 284.872ZM208.924 284.906H209.601V284.923C209.601 285.131 209.685 285.289 209.854 285.398C210.022 285.506 210.244 285.559 210.52 285.559C210.796 285.559 211.011 285.508 211.166 285.405C211.323 285.3 211.402 285.168 211.402 285.009C211.402 284.845 211.34 284.719 211.217 284.633C211.094 284.544 210.816 284.456 210.383 284.37C209.953 284.283 209.625 284.151 209.399 283.973C209.173 283.795 209.061 283.553 209.061 283.245C209.061 282.938 209.192 282.682 209.454 282.479C209.718 282.277 210.073 282.175 210.52 282.175C210.976 282.175 211.337 282.28 211.604 282.49C211.872 282.697 212.007 282.971 212.007 283.31V283.327H211.333V283.31C211.333 283.128 211.267 282.983 211.135 282.876C211.003 282.769 210.798 282.715 210.52 282.715C210.242 282.715 210.042 282.763 209.918 282.859C209.795 282.955 209.734 283.071 209.734 283.208C209.734 283.349 209.797 283.462 209.922 283.546C210.049 283.628 210.33 283.712 210.763 283.799C211.193 283.885 211.52 284.02 211.744 284.202C211.969 284.384 212.082 284.641 212.082 284.971C212.082 285.302 211.951 285.573 211.689 285.785C211.429 285.997 211.04 286.103 210.52 286.103C210 286.103 209.604 285.995 209.331 285.781C209.059 285.565 208.924 285.279 208.924 284.923V284.906ZM212.629 284.906H213.306V284.923C213.306 285.131 213.39 285.289 213.559 285.398C213.727 285.506 213.949 285.559 214.225 285.559C214.501 285.559 214.716 285.508 214.871 285.405C215.028 285.3 215.107 285.168 215.107 285.009C215.107 284.845 215.045 284.719 214.922 284.633C214.799 284.544 214.521 284.456 214.088 284.37C213.658 284.283 213.33 284.151 213.104 283.973C212.878 283.795 212.766 283.553 212.766 283.245C212.766 282.938 212.897 282.682 213.159 282.479C213.423 282.277 213.778 282.175 214.225 282.175C214.681 282.175 215.042 282.28 215.309 282.49C215.577 282.697 215.712 282.971 215.712 283.31V283.327H215.039V283.31C215.039 283.128 214.972 282.983 214.84 282.876C214.708 282.769 214.503 282.715 214.225 282.715C213.947 282.715 213.747 282.763 213.624 282.859C213.5 282.955 213.439 283.071 213.439 283.208C213.439 283.349 213.502 283.462 213.627 283.546C213.755 283.628 214.035 283.712 214.468 283.799C214.898 283.885 215.225 284.02 215.449 284.202C215.674 284.384 215.787 284.641 215.787 284.971C215.787 285.302 215.656 285.573 215.394 285.785C215.134 285.997 214.745 286.103 214.225 286.103C213.706 286.103 213.309 285.995 213.036 285.781C212.764 285.565 212.629 285.279 212.629 284.923V284.906ZM216.146 282.278H216.816L217.51 284.667C217.537 284.758 217.563 284.849 217.588 284.94C217.613 285.032 217.632 285.123 217.643 285.214H217.664C217.677 285.123 217.695 285.032 217.718 284.94C217.741 284.849 217.768 284.758 217.8 284.667L218.624 282.278H219.232L220.056 284.667C220.088 284.758 220.115 284.849 220.138 284.94C220.161 285.032 220.179 285.123 220.193 285.214H220.213C220.225 285.123 220.243 285.032 220.268 284.94C220.293 284.849 220.319 284.758 220.347 284.667L221.041 282.278H221.663L220.487 286H219.916L219.089 283.549C219.057 283.458 219.026 283.367 218.997 283.276C218.969 283.185 218.943 283.094 218.918 283.002H218.897C218.872 283.094 218.845 283.185 218.815 283.276C218.788 283.367 218.758 283.458 218.727 283.549L217.896 286H217.322L216.146 282.278ZM222.039 284.192V284.083C222.039 283.522 222.205 283.064 222.538 282.708C222.873 282.353 223.318 282.175 223.874 282.175C224.432 282.175 224.878 282.353 225.21 282.708C225.545 283.064 225.713 283.522 225.713 284.083V284.192C225.713 284.755 225.545 285.214 225.21 285.569C224.878 285.925 224.432 286.103 223.874 286.103C223.318 286.103 222.873 285.925 222.538 285.569C222.205 285.214 222.039 284.755 222.039 284.192ZM222.732 284.083V284.192C222.732 284.568 222.828 284.886 223.02 285.146C223.211 285.405 223.496 285.535 223.874 285.535C224.255 285.535 224.541 285.405 224.732 285.146C224.923 284.886 225.019 284.568 225.019 284.192V284.083C225.019 283.709 224.923 283.392 224.732 283.132C224.541 282.873 224.255 282.743 223.874 282.743C223.496 282.743 223.211 282.873 223.02 283.132C222.828 283.392 222.732 283.709 222.732 284.083ZM226.513 286V282.278H227.128L227.159 282.76H227.176C227.276 282.605 227.407 282.469 227.569 282.353C227.733 282.235 227.928 282.175 228.153 282.175C228.206 282.175 228.26 282.181 228.317 282.192C228.377 282.204 228.418 282.214 228.44 282.223V282.869C228.393 282.86 228.342 282.853 228.29 282.849C228.238 282.844 228.18 282.842 228.116 282.842C227.89 282.842 227.699 282.898 227.542 283.009C227.384 283.121 227.267 283.259 227.189 283.423V286H226.513ZM228.758 284.192V284.083C228.758 283.54 228.905 283.092 229.199 282.739C229.495 282.386 229.89 282.209 230.382 282.209C230.658 282.209 230.892 282.256 231.086 282.35C231.282 282.441 231.438 282.564 231.554 282.719V280.75H232.231V286H231.616L231.585 285.515H231.568C231.468 285.667 231.314 285.798 231.106 285.908C230.899 286.015 230.658 286.068 230.382 286.068C229.89 286.068 229.495 285.892 229.199 285.539C228.905 285.183 228.758 284.734 228.758 284.192ZM229.452 284.192C229.452 284.561 229.539 284.872 229.712 285.125C229.887 285.376 230.162 285.501 230.536 285.501C230.786 285.501 230.999 285.437 231.175 285.31C231.35 285.18 231.477 285.033 231.554 284.869V283.409C231.477 283.245 231.35 283.099 231.175 282.972C230.999 282.842 230.786 282.777 230.536 282.777C230.162 282.777 229.887 282.903 229.712 283.156C229.539 283.407 229.452 283.716 229.452 284.083V284.192ZM233.854 285.638C233.854 285.519 233.893 285.418 233.971 285.333C234.048 285.247 234.159 285.204 234.302 285.204C234.446 285.204 234.556 285.247 234.634 285.333C234.711 285.418 234.75 285.519 234.75 285.638C234.75 285.758 234.711 285.862 234.634 285.949C234.556 286.033 234.446 286.075 234.302 286.075C234.159 286.075 234.048 286.033 233.971 285.949C233.893 285.862 233.854 285.758 233.854 285.638ZM232.894 282.288V282.213C232.894 281.835 233.028 281.53 233.297 281.3C233.566 281.07 233.933 280.955 234.398 280.955C234.863 280.955 235.226 281.076 235.488 281.317C235.75 281.559 235.881 281.873 235.881 282.261C235.881 282.564 235.795 282.832 235.622 283.064C235.451 283.296 235.276 283.486 235.099 283.631C234.887 283.807 234.752 283.964 234.695 284.103C234.641 284.242 234.613 284.39 234.613 284.547V284.582H233.93V284.547C233.93 284.263 233.971 284.036 234.053 283.867C234.137 283.699 234.294 283.514 234.524 283.313C234.725 283.131 234.887 282.966 235.01 282.818C235.135 282.667 235.198 282.482 235.198 282.261C235.198 282.042 235.132 281.869 235 281.741C234.867 281.614 234.667 281.55 234.398 281.55C234.129 281.55 233.924 281.609 233.783 281.728C233.644 281.844 233.574 282.006 233.574 282.213V282.288H232.894Z" fill="#5A5C66"/>
<path d="M30.5811 286V281.023H32.3105C32.8779 281.023 33.3154 281.159 33.623 281.43C33.9329 281.699 34.0879 282.058 34.0879 282.507C34.0879 282.958 33.9329 283.323 33.623 283.601C33.3154 283.876 32.8779 284.014 32.3105 284.014H31.2817V286H30.5811ZM31.2817 283.433H32.3105C32.7139 283.433 32.9941 283.343 33.1514 283.163C33.3086 282.983 33.3872 282.764 33.3872 282.507C33.3872 282.252 33.3086 282.037 33.1514 281.864C32.9941 281.691 32.7139 281.604 32.3105 281.604H31.2817V283.433ZM33.5479 286L32.2832 283.703L32.9941 283.594L34.3477 286H33.5479ZM34.7817 284.192V284.083C34.7817 283.522 34.9424 283.064 35.2637 282.708C35.5872 282.353 36.0133 282.175 36.542 282.175C37.0752 282.175 37.4842 282.342 37.769 282.674C38.0562 283.007 38.1997 283.456 38.1997 284.021V284.308H35.2021V283.765H37.5127V283.775C37.5127 283.476 37.4386 283.229 37.2905 283.033C37.1447 282.835 36.8952 282.736 36.542 282.736C36.1934 282.736 35.9268 282.866 35.7422 283.125C35.5599 283.385 35.4688 283.704 35.4688 284.083V284.192C35.4688 284.57 35.5645 284.89 35.7559 285.152C35.9495 285.412 36.248 285.542 36.6514 285.542C36.8997 285.542 37.1128 285.492 37.2905 285.392C37.4705 285.291 37.6152 285.172 37.7246 285.033L38.1621 285.402C38.0413 285.575 37.8511 285.736 37.5913 285.884C37.3338 286.03 37.0205 286.103 36.6514 286.103C36.0475 286.103 35.585 285.925 35.2637 285.569C34.9424 285.214 34.7817 284.755 34.7817 284.192ZM38.9688 286V282.278H39.584L39.6147 282.77H39.6318C39.7754 282.592 39.9463 282.454 40.1445 282.356C40.3428 282.258 40.5638 282.209 40.8076 282.209C41.0697 282.209 41.2952 282.261 41.4844 282.363C41.6758 282.464 41.8205 282.624 41.9185 282.845H41.9355C42.1019 282.62 42.2876 282.458 42.4927 282.36C42.6978 282.26 42.9302 282.209 43.1899 282.209C43.5933 282.209 43.9089 282.321 44.1367 282.544C44.3669 282.765 44.4819 283.136 44.4819 283.655V286H43.8052V283.648C43.8029 283.341 43.7334 283.121 43.5967 282.989C43.4622 282.857 43.2697 282.791 43.019 282.791C42.8026 282.791 42.6134 282.849 42.4517 282.965C42.2922 283.079 42.1634 283.227 42.0654 283.409V286H41.3853V283.648C41.3853 283.341 41.3169 283.121 41.1802 282.989C41.0435 282.857 40.8498 282.791 40.5991 282.791C40.3826 282.791 40.1935 282.849 40.0317 282.965C39.8722 283.079 39.7435 283.227 39.6455 283.409V286H38.9688ZM45.2476 284.192V284.083C45.2476 283.522 45.4082 283.064 45.7295 282.708C46.0531 282.353 46.4792 282.175 47.0078 282.175C47.541 282.175 47.95 282.342 48.2349 282.674C48.522 283.007 48.6655 283.456 48.6655 284.021V284.308H45.668V283.765H47.9785V283.775C47.9785 283.476 47.9045 283.229 47.7563 283.033C47.6105 282.835 47.361 282.736 47.0078 282.736C46.6592 282.736 46.3926 282.866 46.208 283.125C46.0257 283.385 45.9346 283.704 45.9346 284.083V284.192C45.9346 284.57 46.0303 284.89 46.2217 285.152C46.4154 285.412 46.7139 285.542 47.1172 285.542C47.3656 285.542 47.5786 285.492 47.7563 285.392C47.9364 285.291 48.0811 285.172 48.1904 285.033L48.6279 285.402C48.5072 285.575 48.3169 285.736 48.0571 285.884C47.7996 286.03 47.4863 286.103 47.1172 286.103C46.5133 286.103 46.0508 285.925 45.7295 285.569C45.4082 285.214 45.2476 284.755 45.2476 284.192ZM49.4346 286V282.278H50.0498L50.0806 282.77H50.0977C50.2412 282.592 50.4121 282.454 50.6104 282.356C50.8086 282.258 51.0296 282.209 51.2734 282.209C51.5355 282.209 51.7611 282.261 51.9502 282.363C52.1416 282.464 52.2863 282.624 52.3843 282.845H52.4014C52.5677 282.62 52.7534 282.458 52.9585 282.36C53.1636 282.26 53.396 282.209 53.6558 282.209C54.0591 282.209 54.3747 282.321 54.6025 282.544C54.8327 282.765 54.9478 283.136 54.9478 283.655V286H54.271V283.648C54.2687 283.341 54.1992 283.121 54.0625 282.989C53.9281 282.857 53.7355 282.791 53.4849 282.791C53.2684 282.791 53.0793 282.849 52.9175 282.965C52.758 283.079 52.6292 283.227 52.5312 283.409V286H51.8511V283.648C51.8511 283.341 51.7827 283.121 51.646 282.989C51.5093 282.857 51.3156 282.791 51.0649 282.791C50.8485 282.791 50.6593 282.849 50.4976 282.965C50.3381 283.079 50.2093 283.227 50.1113 283.409V286H49.4346ZM55.9287 286V280.75H56.6055V282.719C56.7217 282.564 56.8766 282.441 57.0703 282.35C57.2663 282.256 57.5021 282.209 57.7778 282.209C58.27 282.209 58.6631 282.386 58.957 282.739C59.2533 283.092 59.4014 283.54 59.4014 284.083V284.192C59.4014 284.734 59.2533 285.183 58.957 285.539C58.6631 285.892 58.27 286.068 57.7778 286.068C57.5021 286.068 57.2606 286.015 57.0532 285.908C56.8459 285.798 56.6921 285.667 56.5918 285.515H56.5747L56.5439 286H55.9287ZM56.6055 284.869C56.6829 285.033 56.8094 285.18 56.9849 285.31C57.1603 285.437 57.3734 285.501 57.624 285.501C57.9977 285.501 58.2712 285.376 58.4443 285.125C58.6198 284.872 58.7075 284.561 58.7075 284.192V284.083C58.7075 283.716 58.6198 283.407 58.4443 283.156C58.2712 282.903 57.9977 282.777 57.624 282.777C57.3734 282.777 57.1603 282.842 56.9849 282.972C56.8094 283.099 56.6829 283.245 56.6055 283.409V284.869ZM59.9858 284.192V284.083C59.9858 283.522 60.1465 283.064 60.4678 282.708C60.7913 282.353 61.2174 282.175 61.7461 282.175C62.2793 282.175 62.6883 282.342 62.9731 282.674C63.2603 283.007 63.4038 283.456 63.4038 284.021V284.308H60.4062V283.765H62.7168V283.775C62.7168 283.476 62.6427 283.229 62.4946 283.033C62.3488 282.835 62.0993 282.736 61.7461 282.736C61.3975 282.736 61.1309 282.866 60.9463 283.125C60.764 283.385 60.6729 283.704 60.6729 284.083V284.192C60.6729 284.57 60.7686 284.89 60.96 285.152C61.1536 285.412 61.4521 285.542 61.8555 285.542C62.1038 285.542 62.3169 285.492 62.4946 285.392C62.6746 285.291 62.8193 285.172 62.9287 285.033L63.3662 285.402C63.2454 285.575 63.0552 285.736 62.7954 285.884C62.5379 286.03 62.2246 286.103 61.8555 286.103C61.2516 286.103 60.7891 285.925 60.4678 285.569C60.1465 285.214 59.9858 284.755 59.9858 284.192ZM64.1729 286V282.278H64.7881L64.8188 282.76H64.8359C64.9362 282.605 65.0672 282.469 65.229 282.353C65.3931 282.235 65.5879 282.175 65.8135 282.175C65.8659 282.175 65.9206 282.181 65.9775 282.192C66.0368 282.204 66.0778 282.214 66.1006 282.223V282.869C66.0527 282.86 66.0026 282.853 65.9502 282.849C65.8978 282.844 65.8397 282.842 65.7759 282.842C65.5503 282.842 65.3589 282.898 65.2017 283.009C65.0444 283.121 64.9271 283.259 64.8496 283.423V286H64.1729ZM68.418 286V282.278H69.0332L69.064 282.77H69.0811C69.2246 282.592 69.3955 282.454 69.5938 282.356C69.792 282.258 70.013 282.209 70.2568 282.209C70.5189 282.209 70.7445 282.261 70.9336 282.363C71.125 282.464 71.2697 282.624 71.3677 282.845H71.3848C71.5511 282.62 71.7368 282.458 71.9419 282.36C72.147 282.26 72.3794 282.209 72.6392 282.209C73.0425 282.209 73.3581 282.321 73.5859 282.544C73.8161 282.765 73.9312 283.136 73.9312 283.655V286H73.2544V283.648C73.2521 283.341 73.1826 283.121 73.0459 282.989C72.9115 282.857 72.7189 282.791 72.4683 282.791C72.2518 282.791 72.0627 282.849 71.9009 282.965C71.7414 283.079 71.6126 283.227 71.5146 283.409V286H70.8345V283.648C70.8345 283.341 70.7661 283.121 70.6294 282.989C70.4927 282.857 70.299 282.791 70.0483 282.791C69.8319 282.791 69.6427 282.849 69.481 282.965C69.3215 283.079 69.1927 283.227 69.0947 283.409V286H68.418ZM74.6968 284.192V284.083C74.6968 283.522 74.8574 283.064 75.1787 282.708C75.5023 282.353 75.9284 282.175 76.457 282.175C76.9902 282.175 77.3993 282.342 77.6841 282.674C77.9712 283.007 78.1147 283.456 78.1147 284.021V284.308H75.1172V283.765H77.4277V283.775C77.4277 283.476 77.3537 283.229 77.2056 283.033C77.0597 282.835 76.8102 282.736 76.457 282.736C76.1084 282.736 75.8418 282.866 75.6572 283.125C75.4749 283.385 75.3838 283.704 75.3838 284.083V284.192C75.3838 284.57 75.4795 284.89 75.6709 285.152C75.8646 285.412 76.1631 285.542 76.5664 285.542C76.8148 285.542 77.0278 285.492 77.2056 285.392C77.3856 285.291 77.5303 285.172 77.6396 285.033L78.0771 285.402C77.9564 285.575 77.7661 285.736 77.5063 285.884C77.2489 286.03 76.9355 286.103 76.5664 286.103C75.9626 286.103 75.5 285.925 75.1787 285.569C74.8574 285.214 74.6968 284.755 74.6968 284.192Z" fill="black"/>
<path d="M124.505 371.985V371.616C124.505 370.626 124.771 369.854 125.301 369.3C125.831 368.747 126.514 368.47 127.349 368.47C128.178 368.47 128.857 368.747 129.388 369.3C129.921 369.854 130.188 370.626 130.188 371.616V371.985C130.188 372.976 129.921 373.748 129.388 374.301C128.857 374.855 128.178 375.132 127.349 375.132C126.514 375.132 125.831 374.855 125.301 374.301C124.771 373.748 124.505 372.976 124.505 371.985ZM125.406 371.985C125.406 372.727 125.583 373.308 125.938 373.73C126.292 374.149 126.763 374.358 127.349 374.358C127.932 374.358 128.4 374.149 128.755 373.73C129.109 373.308 129.287 372.727 129.287 371.985V371.616C129.287 370.875 129.109 370.295 128.755 369.876C128.4 369.454 127.932 369.243 127.349 369.243C126.763 369.243 126.292 369.454 125.938 369.876C125.583 370.295 125.406 370.875 125.406 371.616V371.985ZM131.348 375V370.241H132.13L132.169 370.856H132.191C132.317 370.66 132.483 370.487 132.688 370.337C132.896 370.185 133.144 370.109 133.431 370.109C133.495 370.109 133.564 370.116 133.637 370.131C133.713 370.146 133.766 370.159 133.795 370.17V370.988C133.734 370.976 133.669 370.967 133.602 370.961C133.535 370.956 133.461 370.953 133.382 370.953C133.095 370.953 132.852 371.024 132.653 371.168C132.454 371.312 132.306 371.487 132.209 371.695V375H131.348Z" fill="#5A5C66"/>
<path d="M72.6641 480V474.312H74.4688C75.2422 474.312 75.8854 474.556 76.3984 475.043C76.9141 475.527 77.1719 476.178 77.1719 476.996V477.316C77.1719 478.134 76.9141 478.786 76.3984 479.273C75.8854 479.758 75.2422 480 74.4688 480H72.6641ZM73.4648 479.332H74.4688C75.0469 479.332 75.5065 479.154 75.8477 478.797C76.1914 478.44 76.3633 477.947 76.3633 477.316V476.996C76.3633 476.366 76.1914 475.872 75.8477 475.516C75.5065 475.159 75.0469 474.98 74.4688 474.98H73.4648V479.332ZM77.957 477.934V477.809C77.957 477.168 78.1471 476.645 78.5273 476.238C78.9102 475.832 79.4193 475.629 80.0547 475.629C80.6927 475.629 81.2018 475.832 81.582 476.238C81.9648 476.645 82.1562 477.168 82.1562 477.809V477.934C82.1562 478.577 81.9648 479.102 81.582 479.508C81.2018 479.914 80.6927 480.117 80.0547 480.117C79.4193 480.117 78.9102 479.914 78.5273 479.508C78.1471 479.102 77.957 478.577 77.957 477.934ZM78.75 477.809V477.934C78.75 478.363 78.8594 478.727 79.0781 479.023C79.2969 479.32 79.6224 479.469 80.0547 479.469C80.4896 479.469 80.8164 479.32 81.0352 479.023C81.2539 478.727 81.3633 478.363 81.3633 477.934V477.809C81.3633 477.382 81.2539 477.02 81.0352 476.723C80.8164 476.426 80.4896 476.277 80.0547 476.277C79.6224 476.277 79.2969 476.426 79.0781 476.723C78.8594 477.02 78.75 477.382 78.75 477.809ZM83.0703 480V475.746H83.7734L83.8086 476.309H83.8281C83.9948 476.103 84.1953 475.945 84.4297 475.836C84.6641 475.724 84.9245 475.668 85.2109 475.668C85.6615 475.668 86.0195 475.794 86.2852 476.047C86.5534 476.299 86.6875 476.724 86.6875 477.32V480H85.9102V477.312C85.9102 476.961 85.8281 476.71 85.6641 476.559C85.5026 476.408 85.2721 476.332 84.9727 476.332C84.7174 476.332 84.4935 476.398 84.3008 476.531C84.1081 476.661 83.9557 476.831 83.8438 477.039V480H83.0703ZM88.1328 474.305V474.719C88.1328 475.018 88.0729 475.293 87.9531 475.543C87.8359 475.793 87.6706 476.009 87.457 476.191L87.0234 475.879C87.151 475.707 87.2435 475.531 87.3008 475.352C87.3581 475.172 87.388 474.961 87.3906 474.719V474.305H88.1328ZM88.4922 476.355V475.746H91.0195V476.355H88.4922ZM89.2852 478.938V476.109V475.992V474.875H90.0586V478.938C90.0586 479.12 90.0977 479.25 90.1758 479.328C90.2539 479.406 90.3763 479.445 90.543 479.445C90.6211 479.445 90.6966 479.438 90.7695 479.422C90.8451 479.406 90.9219 479.385 91 479.359V480C90.9271 480.031 90.8333 480.059 90.7188 480.082C90.6042 480.105 90.4792 480.117 90.3438 480.117C90.0208 480.117 89.763 480.022 89.5703 479.832C89.3802 479.642 89.2852 479.344 89.2852 478.938ZM93.75 480V474H94.5234V476.297C94.6875 476.099 94.8841 475.945 95.1133 475.836C95.3451 475.724 95.6042 475.668 95.8906 475.668C96.3411 475.668 96.6992 475.794 96.9648 476.047C97.2331 476.299 97.3672 476.724 97.3672 477.32V480H96.5898V477.312C96.5898 476.961 96.5078 476.71 96.3438 476.559C96.1823 476.408 95.9518 476.332 95.6523 476.332C95.3971 476.332 95.1732 476.398 94.9805 476.531C94.7878 476.661 94.6354 476.831 94.5234 477.039V480H93.75ZM98.2578 478.75C98.2578 478.318 98.4375 477.982 98.7969 477.742C99.1562 477.5 99.612 477.379 100.164 477.379H101.191V477.043C101.191 476.809 101.12 476.618 100.977 476.473C100.836 476.324 100.592 476.25 100.246 476.25C99.9023 476.25 99.6562 476.316 99.5078 476.449C99.3594 476.579 99.2852 476.732 99.2852 476.906V476.926H98.5117V476.906C98.5117 476.565 98.6693 476.267 98.9844 476.012C99.3021 475.757 99.7305 475.629 100.27 475.629C100.806 475.629 101.223 475.747 101.52 475.984C101.816 476.221 101.965 476.574 101.965 477.043V479.062C101.965 479.232 101.978 479.392 102.004 479.543C102.033 479.691 102.072 479.823 102.121 479.938V480H101.371C101.332 479.932 101.297 479.844 101.266 479.734C101.234 479.625 101.215 479.517 101.207 479.41C101.1 479.585 100.928 479.74 100.691 479.875C100.454 480.01 100.148 480.078 99.7734 480.078C99.3542 480.078 98.9961 479.965 98.6992 479.738C98.4049 479.509 98.2578 479.18 98.2578 478.75ZM99.0312 478.711C99.0312 478.945 99.1055 479.129 99.2539 479.262C99.4049 479.392 99.638 479.457 99.9531 479.457C100.268 479.457 100.553 479.358 100.809 479.16C101.064 478.96 101.191 478.749 101.191 478.527V477.938H100.246C99.8477 477.938 99.5456 478.008 99.3398 478.148C99.1341 478.286 99.0312 478.474 99.0312 478.711ZM102.469 475.746H103.242L104.285 478.547C104.324 478.654 104.358 478.753 104.387 478.844C104.415 478.932 104.439 479.029 104.457 479.133H104.48C104.499 479.029 104.522 478.932 104.551 478.844C104.582 478.753 104.617 478.654 104.656 478.547L105.691 475.746H106.43L104.766 480H104.133L102.469 475.746ZM106.699 477.934V477.809C106.699 477.168 106.883 476.645 107.25 476.238C107.62 475.832 108.107 475.629 108.711 475.629C109.32 475.629 109.788 475.819 110.113 476.199C110.441 476.579 110.605 477.092 110.605 477.738V478.066H107.18V477.445H109.82V477.457C109.82 477.116 109.736 476.833 109.566 476.609C109.4 476.383 109.115 476.27 108.711 476.27C108.312 476.27 108.008 476.418 107.797 476.715C107.589 477.012 107.484 477.376 107.484 477.809V477.934C107.484 478.366 107.594 478.732 107.812 479.031C108.034 479.328 108.375 479.477 108.836 479.477C109.12 479.477 109.363 479.419 109.566 479.305C109.772 479.19 109.938 479.053 110.062 478.895L110.562 479.316C110.424 479.514 110.207 479.698 109.91 479.867C109.616 480.034 109.258 480.117 108.836 480.117C108.146 480.117 107.617 479.914 107.25 479.508C106.883 479.102 106.699 478.577 106.699 477.934ZM113.211 478.75C113.211 478.318 113.391 477.982 113.75 477.742C114.109 477.5 114.565 477.379 115.117 477.379H116.145V477.043C116.145 476.809 116.073 476.618 115.93 476.473C115.789 476.324 115.546 476.25 115.199 476.25C114.855 476.25 114.609 476.316 114.461 476.449C114.312 476.579 114.238 476.732 114.238 476.906V476.926H113.465V476.906C113.465 476.565 113.622 476.267 113.938 476.012C114.255 475.757 114.684 475.629 115.223 475.629C115.759 475.629 116.176 475.747 116.473 475.984C116.77 476.221 116.918 476.574 116.918 477.043V479.062C116.918 479.232 116.931 479.392 116.957 479.543C116.986 479.691 117.025 479.823 117.074 479.938V480H116.324C116.285 479.932 116.25 479.844 116.219 479.734C116.188 479.625 116.168 479.517 116.16 479.41C116.053 479.585 115.882 479.74 115.645 479.875C115.408 480.01 115.102 480.078 114.727 480.078C114.307 480.078 113.949 479.965 113.652 479.738C113.358 479.509 113.211 479.18 113.211 478.75ZM113.984 478.711C113.984 478.945 114.059 479.129 114.207 479.262C114.358 479.392 114.591 479.457 114.906 479.457C115.221 479.457 115.507 479.358 115.762 479.16C116.017 478.96 116.145 478.749 116.145 478.527V477.938H115.199C114.801 477.938 114.499 478.008 114.293 478.148C114.087 478.286 113.984 478.474 113.984 478.711ZM117.824 477.934V477.809C117.824 477.168 118.007 476.645 118.371 476.238C118.738 475.832 119.242 475.629 119.883 475.629C120.477 475.629 120.927 475.781 121.234 476.086C121.544 476.391 121.699 476.73 121.699 477.105V477.125H120.945V477.105C120.945 476.887 120.861 476.694 120.691 476.527C120.525 476.358 120.255 476.273 119.883 476.273C119.448 476.273 119.128 476.422 118.922 476.719C118.719 477.016 118.617 477.379 118.617 477.809V477.934C118.617 478.366 118.719 478.73 118.922 479.027C119.128 479.324 119.448 479.473 119.883 479.473C120.255 479.473 120.525 479.389 120.691 479.223C120.861 479.053 120.945 478.859 120.945 478.641V478.621H121.699V478.641C121.699 479.016 121.544 479.355 121.234 479.66C120.927 479.965 120.477 480.117 119.883 480.117C119.242 480.117 118.738 479.914 118.371 479.508C118.007 479.102 117.824 478.577 117.824 477.934ZM122.324 477.934V477.809C122.324 477.168 122.507 476.645 122.871 476.238C123.238 475.832 123.742 475.629 124.383 475.629C124.977 475.629 125.427 475.781 125.734 476.086C126.044 476.391 126.199 476.73 126.199 477.105V477.125H125.445V477.105C125.445 476.887 125.361 476.694 125.191 476.527C125.025 476.358 124.755 476.273 124.383 476.273C123.948 476.273 123.628 476.422 123.422 476.719C123.219 477.016 123.117 477.379 123.117 477.809V477.934C123.117 478.366 123.219 478.73 123.422 479.027C123.628 479.324 123.948 479.473 124.383 479.473C124.755 479.473 125.025 479.389 125.191 479.223C125.361 479.053 125.445 478.859 125.445 478.641V478.621H126.199V478.641C126.199 479.016 126.044 479.355 125.734 479.66C125.427 479.965 124.977 480.117 124.383 480.117C123.742 480.117 123.238 479.914 122.871 479.508C122.507 479.102 122.324 478.577 122.324 477.934ZM126.824 477.934V477.809C126.824 477.168 127.014 476.645 127.395 476.238C127.777 475.832 128.286 475.629 128.922 475.629C129.56 475.629 130.069 475.832 130.449 476.238C130.832 476.645 131.023 477.168 131.023 477.809V477.934C131.023 478.577 130.832 479.102 130.449 479.508C130.069 479.914 129.56 480.117 128.922 480.117C128.286 480.117 127.777 479.914 127.395 479.508C127.014 479.102 126.824 478.577 126.824 477.934ZM127.617 477.809V477.934C127.617 478.363 127.727 478.727 127.945 479.023C128.164 479.32 128.49 479.469 128.922 479.469C129.357 479.469 129.684 479.32 129.902 479.023C130.121 478.727 130.23 478.363 130.23 477.934V477.809C130.23 477.382 130.121 477.02 129.902 476.723C129.684 476.426 129.357 476.277 128.922 476.277C128.49 476.277 128.164 476.426 127.945 476.723C127.727 477.02 127.617 477.382 127.617 477.809ZM131.898 478.426V475.746H132.672V478.434C132.672 478.785 132.753 479.036 132.914 479.188C133.078 479.339 133.311 479.414 133.613 479.414C133.866 479.414 134.089 479.349 134.281 479.219C134.474 479.086 134.626 478.915 134.738 478.707V475.746H135.516V480H134.809L134.777 479.434H134.758C134.591 479.639 134.389 479.798 134.152 479.91C133.918 480.022 133.658 480.078 133.371 480.078C132.923 480.078 132.565 479.952 132.297 479.699C132.031 479.444 131.898 479.02 131.898 478.426ZM136.672 480V475.746H137.375L137.41 476.309H137.43C137.596 476.103 137.797 475.945 138.031 475.836C138.266 475.724 138.526 475.668 138.812 475.668C139.263 475.668 139.621 475.794 139.887 476.047C140.155 476.299 140.289 476.724 140.289 477.32V480H139.512V477.312C139.512 476.961 139.43 476.71 139.266 476.559C139.104 476.408 138.874 476.332 138.574 476.332C138.319 476.332 138.095 476.398 137.902 476.531C137.71 476.661 137.557 476.831 137.445 477.039V480H136.672ZM140.828 476.355V475.746H143.355V476.355H140.828ZM141.621 478.938V476.109V475.992V474.875H142.395V478.938C142.395 479.12 142.434 479.25 142.512 479.328C142.59 479.406 142.712 479.445 142.879 479.445C142.957 479.445 143.033 479.438 143.105 479.422C143.181 479.406 143.258 479.385 143.336 479.359V480C143.263 480.031 143.169 480.059 143.055 480.082C142.94 480.105 142.815 480.117 142.68 480.117C142.357 480.117 142.099 480.022 141.906 479.832C141.716 479.642 141.621 479.344 141.621 478.938ZM146.781 479.586C146.781 479.451 146.826 479.335 146.914 479.238C147.003 479.139 147.129 479.09 147.293 479.09C147.457 479.09 147.583 479.139 147.672 479.238C147.76 479.335 147.805 479.451 147.805 479.586C147.805 479.724 147.76 479.842 147.672 479.941C147.583 480.038 147.457 480.086 147.293 480.086C147.129 480.086 147.003 480.038 146.914 479.941C146.826 479.842 146.781 479.724 146.781 479.586ZM145.684 475.758V475.672C145.684 475.24 145.837 474.892 146.145 474.629C146.452 474.366 146.871 474.234 147.402 474.234C147.934 474.234 148.349 474.372 148.648 474.648C148.948 474.924 149.098 475.284 149.098 475.727C149.098 476.073 148.999 476.379 148.801 476.645C148.605 476.91 148.406 477.126 148.203 477.293C147.961 477.493 147.807 477.673 147.742 477.832C147.68 477.991 147.648 478.16 147.648 478.34V478.379H146.867V478.34C146.867 478.014 146.914 477.755 147.008 477.562C147.104 477.37 147.284 477.159 147.547 476.93C147.776 476.721 147.961 476.533 148.102 476.363C148.245 476.191 148.316 475.979 148.316 475.727C148.316 475.477 148.241 475.279 148.09 475.133C147.939 474.987 147.71 474.914 147.402 474.914C147.095 474.914 146.861 474.982 146.699 475.117C146.54 475.25 146.461 475.435 146.461 475.672V475.758H145.684ZM151.703 478.422V478.375H152.504V478.422C152.504 478.755 152.626 479.007 152.871 479.176C153.118 479.342 153.464 479.426 153.906 479.426C154.349 479.426 154.688 479.341 154.922 479.172C155.159 479 155.277 478.776 155.277 478.5C155.277 478.25 155.171 478.049 154.957 477.898C154.743 477.747 154.302 477.589 153.633 477.422C152.964 477.253 152.495 477.048 152.227 476.809C151.958 476.566 151.824 476.22 151.824 475.77C151.824 475.319 152.004 474.944 152.363 474.645C152.725 474.345 153.225 474.195 153.863 474.195C154.504 474.195 155.012 474.358 155.387 474.684C155.764 475.007 155.953 475.401 155.953 475.867V475.914H155.156V475.867C155.156 475.573 155.048 475.336 154.832 475.156C154.616 474.977 154.293 474.887 153.863 474.887C153.439 474.887 153.125 474.964 152.922 475.117C152.719 475.268 152.617 475.461 152.617 475.695C152.617 475.951 152.719 476.151 152.922 476.297C153.128 476.44 153.523 476.585 154.109 476.73C154.784 476.9 155.279 477.116 155.594 477.379C155.911 477.642 156.07 478.012 156.07 478.488C156.07 478.965 155.875 479.355 155.484 479.66C155.096 479.965 154.57 480.117 153.906 480.117C153.242 480.117 152.708 479.966 152.305 479.664C151.904 479.359 151.703 478.945 151.703 478.422ZM156.996 480V475.746H157.77V480H156.996ZM156.922 474.535C156.922 474.41 156.961 474.305 157.039 474.219C157.12 474.133 157.234 474.09 157.383 474.09C157.531 474.09 157.645 474.133 157.723 474.219C157.803 474.305 157.844 474.41 157.844 474.535C157.844 474.663 157.803 474.77 157.723 474.855C157.645 474.941 157.531 474.984 157.383 474.984C157.234 474.984 157.12 474.941 157.039 474.855C156.961 474.77 156.922 474.663 156.922 474.535ZM158.887 481.109L159.336 480.516C159.466 480.651 159.647 480.77 159.879 480.871C160.113 480.973 160.375 481.023 160.664 481.023C161.049 481.023 161.353 480.923 161.574 480.723C161.798 480.525 161.91 480.245 161.91 479.883V479.496C161.777 479.673 161.599 479.815 161.375 479.922C161.154 480.026 160.885 480.078 160.57 480.078C160.008 480.078 159.557 479.876 159.219 479.473C158.883 479.066 158.715 478.553 158.715 477.934V477.809C158.715 477.189 158.883 476.677 159.219 476.273C159.557 475.87 160.008 475.668 160.57 475.668C160.885 475.668 161.161 475.73 161.398 475.855C161.635 475.978 161.811 476.126 161.926 476.301H161.945L161.98 475.746H162.684V479.883C162.684 480.469 162.499 480.918 162.129 481.23C161.759 481.546 161.279 481.703 160.688 481.703C160.32 481.703 159.982 481.647 159.672 481.535C159.362 481.423 159.1 481.281 158.887 481.109ZM159.508 477.934C159.508 478.355 159.607 478.711 159.805 479C160.005 479.286 160.319 479.43 160.746 479.43C161.033 479.43 161.276 479.357 161.477 479.211C161.677 479.062 161.822 478.895 161.91 478.707V477.039C161.822 476.852 161.677 476.685 161.477 476.539C161.276 476.391 161.033 476.316 160.746 476.316C160.319 476.316 160.005 476.461 159.805 476.75C159.607 477.036 159.508 477.389 159.508 477.809V477.934ZM163.844 480V475.746H164.547L164.582 476.309H164.602C164.768 476.103 164.969 475.945 165.203 475.836C165.438 475.724 165.698 475.668 165.984 475.668C166.435 475.668 166.793 475.794 167.059 476.047C167.327 476.299 167.461 476.724 167.461 477.32V480H166.684V477.312C166.684 476.961 166.602 476.71 166.438 476.559C166.276 476.408 166.046 476.332 165.746 476.332C165.491 476.332 165.267 476.398 165.074 476.531C164.882 476.661 164.729 476.831 164.617 477.039V480H163.844ZM170.492 478.426V475.746H171.266V478.434C171.266 478.785 171.346 479.036 171.508 479.188C171.672 479.339 171.905 479.414 172.207 479.414C172.46 479.414 172.682 479.349 172.875 479.219C173.068 479.086 173.22 478.915 173.332 478.707V475.746H174.109V480H173.402L173.371 479.434H173.352C173.185 479.639 172.983 479.798 172.746 479.91C172.512 480.022 172.251 480.078 171.965 480.078C171.517 480.078 171.159 479.952 170.891 479.699C170.625 479.444 170.492 479.02 170.492 478.426ZM175.266 481.625V475.746H175.969L176.004 476.301H176.023C176.138 476.126 176.314 475.978 176.551 475.855C176.788 475.73 177.064 475.668 177.379 475.668C177.941 475.668 178.391 475.87 178.727 476.273C179.065 476.677 179.234 477.189 179.234 477.809V477.934C179.234 478.553 179.065 479.066 178.727 479.473C178.391 479.876 177.941 480.078 177.379 480.078C177.064 480.078 176.794 480.026 176.57 479.922C176.349 479.815 176.172 479.673 176.039 479.496V481.625H175.266ZM176.039 478.707C176.128 478.895 176.272 479.062 176.473 479.211C176.673 479.357 176.917 479.43 177.203 479.43C177.63 479.43 177.943 479.286 178.141 479C178.341 478.711 178.441 478.355 178.441 477.934V477.809C178.441 477.389 178.341 477.036 178.141 476.75C177.943 476.461 177.63 476.316 177.203 476.316C176.917 476.316 176.673 476.391 176.473 476.539C176.272 476.685 176.128 476.852 176.039 477.039V478.707Z" fill="#5A5C66"/>
<line x1="15" y1="261.75" x2="241" y2="261.75" stroke="#B8B8B8" stroke-width="0.5"/>
<g filter="url(#filter0_d_259_266)">
<rect x="15" y="316" width="226" height="33" rx="16.5" fill="#F03D38"/>
</g>
<path d="M114.396 335.229V335.176H115.288V335.229C115.288 335.607 115.424 335.891 115.696 336.082C115.972 336.269 116.355 336.363 116.848 336.363C117.343 336.363 117.721 336.266 117.981 336.073C118.245 335.879 118.377 335.627 118.377 335.317C118.377 335.033 118.257 334.806 118.017 334.636C117.776 334.463 117.286 334.283 116.544 334.095C115.8 333.902 115.279 333.67 114.98 333.401C114.681 333.128 114.532 332.74 114.532 332.236C114.532 331.729 114.732 331.309 115.134 330.975C115.535 330.638 116.09 330.47 116.799 330.47C117.514 330.47 118.081 330.651 118.5 331.015C118.919 331.375 119.128 331.819 119.128 332.346V332.399H118.241V332.346C118.241 332.012 118.121 331.744 117.88 331.542C117.64 331.34 117.28 331.239 116.799 331.239C116.328 331.239 115.979 331.325 115.753 331.498C115.528 331.671 115.415 331.892 115.415 332.162C115.415 332.449 115.528 332.674 115.753 332.838C115.982 333 116.429 333.164 117.094 333.331C117.841 333.521 118.389 333.764 118.737 334.06C119.086 334.356 119.26 334.771 119.26 335.304C119.26 335.84 119.043 336.279 118.61 336.622C118.176 336.962 117.589 337.132 116.848 337.132C116.109 337.132 115.516 336.962 115.068 336.622C114.62 336.282 114.396 335.818 114.396 335.229ZM120.306 337V332.241H121.167V337H120.306ZM120.218 330.874C120.218 330.733 120.262 330.615 120.35 330.518C120.441 330.421 120.57 330.373 120.737 330.373C120.904 330.373 121.031 330.421 121.119 330.518C121.21 330.615 121.255 330.733 121.255 330.874C121.255 331.018 121.21 331.138 121.119 331.234C121.031 331.328 120.904 331.375 120.737 331.375C120.57 331.375 120.441 331.328 120.35 331.234C120.262 331.138 120.218 331.018 120.218 330.874ZM122.42 338.248L122.925 337.589C123.069 337.741 123.27 337.875 123.527 337.989C123.785 338.103 124.074 338.16 124.393 338.16C124.821 338.16 125.158 338.047 125.404 337.822C125.653 337.599 125.777 337.284 125.777 336.877V336.438C125.631 336.634 125.433 336.792 125.184 336.912C124.938 337.029 124.641 337.088 124.292 337.088C123.668 337.088 123.168 336.862 122.793 336.411C122.418 335.957 122.231 335.383 122.231 334.688V334.548C122.231 333.856 122.418 333.285 122.793 332.834C123.168 332.38 123.668 332.153 124.292 332.153C124.641 332.153 124.945 332.223 125.206 332.364C125.47 332.501 125.666 332.667 125.795 332.86H125.817L125.856 332.241H126.639V336.877C126.639 337.533 126.432 338.037 126.019 338.389C125.609 338.74 125.076 338.916 124.419 338.916C124.012 338.916 123.636 338.853 123.29 338.727C122.947 338.601 122.657 338.441 122.42 338.248ZM123.114 334.688C123.114 335.163 123.224 335.562 123.444 335.884C123.667 336.206 124.014 336.367 124.485 336.367C124.805 336.367 125.074 336.285 125.294 336.121C125.517 335.957 125.678 335.77 125.777 335.559V333.682C125.678 333.471 125.517 333.284 125.294 333.12C125.074 332.956 124.805 332.874 124.485 332.874C124.014 332.874 123.667 333.035 123.444 333.357C123.224 333.679 123.114 334.076 123.114 334.548V334.688ZM127.939 337V332.241H128.722L128.761 332.869H128.783C128.968 332.641 129.189 332.465 129.447 332.342C129.708 332.216 129.998 332.153 130.317 332.153C130.815 332.153 131.212 332.293 131.508 332.575C131.807 332.856 131.956 333.328 131.956 333.99V337H131.09V333.981C131.09 333.591 131 333.313 130.818 333.146C130.639 332.976 130.384 332.891 130.053 332.891C129.769 332.891 129.52 332.964 129.306 333.111C129.092 333.257 128.924 333.446 128.801 333.678V337H127.939ZM135.529 337V330.602H136.421V337H135.529ZM137.845 337V332.241H138.627L138.667 332.869H138.688C138.873 332.641 139.094 332.465 139.352 332.342C139.613 332.216 139.903 332.153 140.222 332.153C140.72 332.153 141.117 332.293 141.413 332.575C141.712 332.856 141.861 333.328 141.861 333.99V337H140.996V333.981C140.996 333.591 140.905 333.313 140.723 333.146C140.544 332.976 140.29 332.891 139.958 332.891C139.674 332.891 139.425 332.964 139.211 333.111C138.998 333.257 138.829 333.446 138.706 333.678V337H137.845Z" fill="white"/>
<path d="M230 252.6C230.682 252.6 231.261 252.396 231.739 251.988C232.216 251.579 232.455 251.083 232.455 250.5C232.455 249.917 232.216 249.421 231.739 249.013C231.261 248.604 230.682 248.4 230 248.4C229.318 248.4 228.739 248.604 228.261 249.013C227.784 249.421 227.545 249.917 227.545 250.5C227.545 251.083 227.784 251.579 228.261 251.988C228.739 252.396 229.318 252.6 230 252.6ZM230 251.76C229.591 251.76 229.243 251.638 228.957 251.393C228.67 251.148 228.527 250.85 228.527 250.5C228.527 250.15 228.67 249.852 228.957 249.608C229.243 249.362 229.591 249.24 230 249.24C230.409 249.24 230.757 249.362 231.043 249.608C231.33 249.852 231.473 250.15 231.473 250.5C231.473 250.85 231.33 251.148 231.043 251.393C230.757 251.638 230.409 251.76 230 251.76ZM230 254C228.673 254 227.464 253.683 226.373 253.049C225.282 252.415 224.491 251.566 224 250.5C224.491 249.434 225.282 248.585 226.373 247.951C227.464 247.317 228.673 247 230 247C231.327 247 232.536 247.317 233.627 247.951C234.718 248.585 235.509 249.434 236 250.5C235.509 251.566 234.718 252.415 233.627 253.049C232.536 253.683 231.327 254 230 254ZM230 253.067C231.027 253.067 231.97 252.835 232.83 252.372C233.689 251.91 234.345 251.286 234.8 250.5C234.345 249.714 233.689 249.09 232.83 248.627C231.97 248.165 231.027 247.933 230 247.933C228.973 247.933 228.03 248.165 227.17 248.627C226.311 249.09 225.655 249.714 225.2 250.5C225.655 251.286 226.311 251.91 227.17 252.372C228.03 252.835 228.973 253.067 230 253.067Z" fill="#CFCFCF"/>
<path d="M112.616 67.4952V53.0475H115.29L121.237 63.2435H119.82L125.667 53.0475H128.321L128.361 67.4952H125.328L125.308 57.8565H125.867L121.197 65.9678H119.74L114.971 57.8565H115.649V67.4952H112.616ZM129.838 67.4952L136.064 53.0475H139.257L145.503 67.4952H142.111L137.002 54.7399H138.279L133.15 67.4952H129.838ZM132.951 64.3992L133.809 61.8605H140.993L141.871 64.3992H132.951ZM150.432 67.4952V61.5924L151.17 63.6149L145.024 53.0475H148.456L153.166 61.1589H151.19L155.92 53.0475H159.093L152.947 63.6149L153.665 61.5924V67.4952H150.432ZM157.756 67.4952L163.982 53.0475H167.175L173.421 67.4952H170.029L164.92 54.7399H166.197L161.069 67.4952H157.756ZM160.869 64.3992L161.727 61.8605H168.911L169.789 64.3992H160.869Z" fill="#3B3535"/>
<path fill-rule="evenodd" clip-rule="evenodd" d="M95.7467 53L87.3027 67.5019H82.1929L90.6371 53H95.7467Z" fill="#FB1C2E"/>
<path fill-rule="evenodd" clip-rule="evenodd" d="M85.7987 53L77.3546 67.5019H72.2446L80.689 53H85.7987Z" fill="#FB1C2E"/>
<path fill-rule="evenodd" clip-rule="evenodd" d="M105.695 53L97.2511 67.5019H92.1411L100.585 53H105.695Z" fill="#FB1C2E"/>
<path d="M88.501 402.985V402.616C88.501 401.626 88.7705 400.854 89.3096 400.3C89.8516 399.747 90.5327 399.47 91.353 399.47C92.1733 399.47 92.8032 399.682 93.2427 400.107C93.6851 400.529 93.9297 401.044 93.9766 401.654L93.981 401.702H92.9614V401.649C92.9321 401.301 92.7886 400.989 92.5308 400.713C92.2759 400.438 91.8833 400.3 91.353 400.3C90.8198 400.3 90.3818 400.502 90.0391 400.907C89.6963 401.311 89.5249 401.878 89.5249 402.607V402.994C89.5249 403.718 89.6963 404.283 90.0391 404.69C90.3818 405.098 90.8198 405.301 91.353 405.301C91.8804 405.301 92.2715 405.164 92.5264 404.888C92.7842 404.61 92.9292 404.298 92.9614 403.952V403.899H93.981L93.9766 403.952C93.9238 404.559 93.6777 405.074 93.2383 405.499C92.8018 405.921 92.1733 406.132 91.353 406.132C90.5327 406.132 89.8516 405.855 89.3096 405.301C88.7705 404.748 88.501 403.976 88.501 402.985ZM94.7324 403.68V403.539C94.7324 402.818 94.9492 402.231 95.3828 401.777C95.8193 401.32 96.3994 401.091 97.123 401.091C97.8496 401.091 98.4297 401.32 98.8633 401.777C99.2998 402.231 99.5181 402.818 99.5181 403.539V403.68C99.5181 404.403 99.2998 404.994 98.8633 405.451C98.4297 405.905 97.8496 406.132 97.123 406.132C96.3994 406.132 95.8193 405.905 95.3828 405.451C94.9492 404.994 94.7324 404.403 94.7324 403.68ZM95.7344 403.535V403.684C95.7344 404.156 95.8516 404.553 96.0859 404.875C96.3203 405.194 96.666 405.354 97.123 405.354C97.583 405.354 97.9302 405.194 98.1646 404.875C98.3989 404.553 98.5161 404.156 98.5161 403.684V403.535C98.5161 403.066 98.3989 402.672 98.1646 402.353C97.9302 402.033 97.583 401.874 97.123 401.874C96.666 401.874 96.3203 402.033 96.0859 402.353C95.8516 402.672 95.7344 403.066 95.7344 403.535ZM100.538 406V401.223H101.438L101.474 401.834H101.496C101.674 401.611 101.893 401.44 102.15 401.32C102.408 401.197 102.694 401.135 103.007 401.135C103.517 401.135 103.923 401.279 104.225 401.566C104.529 401.85 104.682 402.331 104.682 403.007V406H103.702V402.994C103.702 402.613 103.615 402.341 103.442 402.177C103.27 402.013 103.026 401.931 102.713 401.931C102.443 401.931 102.206 402.002 102.001 402.146C101.796 402.29 101.633 402.474 101.513 402.7V406H100.538ZM105.288 401.961V401.223H108.149V401.961H105.288ZM106.136 404.765V401.654L106.141 401.522V400.234H107.116V404.765C107.116 404.97 107.159 405.117 107.244 405.205C107.329 405.29 107.459 405.332 107.635 405.332C107.72 405.332 107.802 405.323 107.881 405.306C107.963 405.288 108.045 405.265 108.127 405.235V406C108.048 406.035 107.945 406.066 107.819 406.092C107.693 406.119 107.557 406.132 107.411 406.132C107.024 406.132 106.715 406.022 106.483 405.802C106.252 405.583 106.136 405.237 106.136 404.765ZM109.045 406V401.223H110.025V406H109.045ZM108.953 399.887C108.953 399.732 109.003 399.603 109.103 399.5C109.205 399.395 109.349 399.342 109.533 399.342C109.721 399.342 109.864 399.395 109.964 399.5C110.063 399.603 110.113 399.732 110.113 399.887C110.113 400.042 110.063 400.173 109.964 400.278C109.864 400.381 109.721 400.432 109.533 400.432C109.349 400.432 109.205 400.381 109.103 400.278C109.003 400.173 108.953 400.042 108.953 399.887ZM111.357 406V401.223H112.258L112.293 401.834H112.315C112.494 401.611 112.712 401.44 112.97 401.32C113.228 401.197 113.513 401.135 113.827 401.135C114.336 401.135 114.742 401.279 115.044 401.566C115.349 401.85 115.501 402.331 115.501 403.007V406H114.521V402.994C114.521 402.613 114.435 402.341 114.262 402.177C114.089 402.013 113.846 401.931 113.532 401.931C113.263 401.931 113.025 402.002 112.82 402.146C112.615 402.29 112.453 402.474 112.333 402.7V406H111.357ZM116.709 404.211V401.223H117.685V404.225C117.685 404.608 117.771 404.882 117.944 405.046C118.117 405.21 118.362 405.292 118.678 405.292C118.945 405.292 119.181 405.221 119.386 405.077C119.591 404.934 119.753 404.749 119.874 404.523V401.223H120.854V406H119.948L119.913 405.385H119.891C119.712 405.61 119.493 405.785 119.232 405.908C118.974 406.028 118.688 406.088 118.375 406.088C117.868 406.088 117.464 405.944 117.162 405.657C116.86 405.367 116.709 404.885 116.709 404.211ZM121.873 403.68V403.539C121.873 402.818 122.083 402.231 122.501 401.777C122.923 401.32 123.479 401.091 124.167 401.091C124.858 401.091 125.392 401.305 125.767 401.733C126.142 402.158 126.329 402.733 126.329 403.46V403.855H122.51V403.122H125.34V403.1C125.34 402.76 125.25 402.467 125.068 402.221C124.886 401.975 124.584 401.852 124.163 401.852C123.741 401.852 123.418 402.014 123.196 402.339C122.973 402.662 122.862 403.06 122.862 403.535V403.684C122.862 404.159 122.979 404.559 123.213 404.884C123.448 405.206 123.81 405.367 124.299 405.367C124.606 405.367 124.87 405.303 125.09 405.174C125.31 405.045 125.488 404.893 125.626 404.717L126.263 405.227C126.111 405.455 125.865 405.663 125.525 405.851C125.188 406.038 124.779 406.132 124.299 406.132C123.52 406.132 122.92 405.905 122.501 405.451C122.083 404.994 121.873 404.403 121.873 403.68ZM128.957 401.223H129.937L130.763 404.216C130.795 404.333 130.826 404.449 130.855 404.563C130.885 404.674 130.907 404.787 130.921 404.901H130.948C130.965 404.787 130.987 404.674 131.014 404.563C131.043 404.449 131.077 404.333 131.115 404.216L132.099 401.223H133.022L134.015 404.216C134.053 404.333 134.085 404.449 134.112 404.563C134.141 404.674 134.165 404.789 134.182 404.906H134.208C134.226 404.789 134.248 404.674 134.274 404.563C134.304 404.449 134.336 404.333 134.371 404.216L135.193 401.223H136.072L134.617 406H133.734L132.741 402.946C132.7 402.829 132.662 402.713 132.626 402.599C132.594 402.481 132.563 402.366 132.534 402.251H132.508C132.479 402.369 132.446 402.484 132.411 402.599C132.376 402.713 132.339 402.829 132.301 402.946L131.308 406H130.412L128.957 401.223ZM136.863 406V401.223H137.843V406H136.863ZM136.771 399.887C136.771 399.732 136.82 399.603 136.92 399.5C137.022 399.395 137.166 399.342 137.351 399.342C137.538 399.342 137.682 399.395 137.781 399.5C137.881 399.603 137.931 399.732 137.931 399.887C137.931 400.042 137.881 400.173 137.781 400.278C137.682 400.381 137.538 400.432 137.351 400.432C137.166 400.432 137.022 400.381 136.92 400.278C136.82 400.173 136.771 400.042 136.771 399.887ZM138.528 401.961V401.223H141.389V401.961H138.528ZM139.376 404.765V401.654L139.381 401.522V400.234H140.356V404.765C140.356 404.97 140.399 405.117 140.484 405.205C140.569 405.29 140.699 405.332 140.875 405.332C140.96 405.332 141.042 405.323 141.121 405.306C141.203 405.288 141.285 405.265 141.367 405.235V406C141.288 406.035 141.186 406.066 141.06 406.092C140.934 406.119 140.797 406.132 140.651 406.132C140.264 406.132 139.955 406.022 139.724 405.802C139.492 405.583 139.376 405.237 139.376 404.765ZM142.25 406V399.25H143.226V401.83C143.402 401.613 143.617 401.443 143.872 401.32C144.127 401.197 144.414 401.135 144.733 401.135C145.237 401.135 145.64 401.279 145.942 401.566C146.244 401.85 146.395 402.329 146.395 403.003V406H145.41V402.999C145.41 402.615 145.324 402.341 145.151 402.177C144.981 402.013 144.738 401.931 144.421 401.931C144.152 401.931 143.915 402.002 143.709 402.146C143.507 402.29 143.346 402.476 143.226 402.704V406H142.25ZM149.699 402.985V402.616C149.699 401.626 149.969 400.854 150.508 400.3C151.05 399.747 151.731 399.47 152.551 399.47C153.369 399.47 153.999 399.666 154.441 400.059C154.886 400.451 155.132 400.918 155.179 401.46L155.184 401.504H154.164L154.16 401.46C154.139 401.179 153.997 400.916 153.733 400.669C153.473 400.42 153.079 400.296 152.551 400.296C152.018 400.296 151.58 400.501 151.237 400.911C150.895 401.321 150.723 401.887 150.723 402.607V402.994C150.723 403.718 150.895 404.285 151.237 404.695C151.58 405.102 152.063 405.306 152.688 405.306C153.01 405.306 153.288 405.273 153.522 405.209C153.76 405.145 153.984 405.042 154.195 404.901V403.543H152.595V402.744H155.184V405.257C154.964 405.474 154.642 405.675 154.217 405.859C153.795 406.041 153.285 406.132 152.688 406.132C151.776 406.132 151.05 405.855 150.508 405.301C149.969 404.748 149.699 403.976 149.699 402.985ZM155.931 403.68V403.539C155.931 402.818 156.147 402.231 156.581 401.777C157.018 401.32 157.598 401.091 158.321 401.091C159.048 401.091 159.628 401.32 160.062 401.777C160.498 402.231 160.716 402.818 160.716 403.539V403.68C160.716 404.403 160.498 404.994 160.062 405.451C159.628 405.905 159.048 406.132 158.321 406.132C157.598 406.132 157.018 405.905 156.581 405.451C156.147 404.994 155.931 404.403 155.931 403.68ZM156.933 403.535V403.684C156.933 404.156 157.05 404.553 157.284 404.875C157.519 405.194 157.864 405.354 158.321 405.354C158.781 405.354 159.128 405.194 159.363 404.875C159.597 404.553 159.714 404.156 159.714 403.684V403.535C159.714 403.066 159.597 402.672 159.363 402.353C159.128 402.033 158.781 401.874 158.321 401.874C157.864 401.874 157.519 402.033 157.284 402.353C157.05 402.672 156.933 403.066 156.933 403.535ZM161.459 403.68V403.539C161.459 402.818 161.676 402.231 162.109 401.777C162.546 401.32 163.126 401.091 163.85 401.091C164.576 401.091 165.156 401.32 165.59 401.777C166.026 402.231 166.245 402.818 166.245 403.539V403.68C166.245 404.403 166.026 404.994 165.59 405.451C165.156 405.905 164.576 406.132 163.85 406.132C163.126 406.132 162.546 405.905 162.109 405.451C161.676 404.994 161.459 404.403 161.459 403.68ZM162.461 403.535V403.684C162.461 404.156 162.578 404.553 162.812 404.875C163.047 405.194 163.393 405.354 163.85 405.354C164.31 405.354 164.657 405.194 164.891 404.875C165.125 404.553 165.243 404.156 165.243 403.684V403.535C165.243 403.066 165.125 402.672 164.891 402.353C164.657 402.033 164.31 401.874 163.85 401.874C163.393 401.874 163.047 402.033 162.812 402.353C162.578 402.672 162.461 403.066 162.461 403.535ZM167.203 407.248L167.712 406.545C167.859 406.694 168.064 406.826 168.328 406.94C168.591 407.055 168.886 407.112 169.211 407.112C169.621 407.112 169.945 407 170.182 406.778C170.422 406.555 170.542 406.242 170.542 405.837V405.451C170.399 405.647 170.204 405.802 169.958 405.917C169.715 406.031 169.42 406.088 169.075 406.088C168.442 406.088 167.935 405.861 167.554 405.407C167.176 404.953 166.987 404.377 166.987 403.68V403.539C166.987 402.842 167.176 402.268 167.554 401.816C167.935 401.362 168.442 401.135 169.075 401.135C169.42 401.135 169.724 401.203 169.984 401.337C170.245 401.472 170.437 401.636 170.56 401.83H170.582L170.617 401.223H171.518V405.837C171.518 406.505 171.306 407.018 170.881 407.375C170.459 407.736 169.913 407.916 169.242 407.916C168.823 407.916 168.438 407.853 168.086 407.727C167.734 407.601 167.44 407.441 167.203 407.248ZM167.989 403.684C167.989 404.144 168.095 404.531 168.306 404.844C168.52 405.155 168.854 405.31 169.308 405.31C169.612 405.31 169.87 405.229 170.081 405.068C170.295 404.907 170.449 404.726 170.542 404.523V402.704C170.446 402.496 170.291 402.313 170.077 402.155C169.866 401.997 169.609 401.917 169.308 401.917C168.854 401.917 168.52 402.073 168.306 402.383C168.095 402.694 167.989 403.078 167.989 403.535V403.684ZM172.841 406V399.25H173.821V406H172.841ZM174.871 403.68V403.539C174.871 402.818 175.081 402.231 175.5 401.777C175.921 401.32 176.477 401.091 177.165 401.091C177.856 401.091 178.39 401.305 178.765 401.733C179.14 402.158 179.327 402.733 179.327 403.46V403.855H175.508V403.122H178.338V403.1C178.338 402.76 178.248 402.467 178.066 402.221C177.884 401.975 177.583 401.852 177.161 401.852C176.739 401.852 176.417 402.014 176.194 402.339C175.971 402.662 175.86 403.06 175.86 403.535V403.684C175.86 404.159 175.977 404.559 176.211 404.884C176.446 405.206 176.808 405.367 177.297 405.367C177.604 405.367 177.868 405.303 178.088 405.174C178.308 405.045 178.486 404.893 178.624 404.717L179.261 405.227C179.109 405.455 178.863 405.663 178.523 405.851C178.186 406.038 177.777 406.132 177.297 406.132C176.518 406.132 175.918 405.905 175.5 405.451C175.081 404.994 174.871 404.403 174.871 403.68Z" fill="black" fill-opacity="0.7"/>
<path d="M88.501 442.985V442.616C88.501 441.626 88.7705 440.854 89.3096 440.3C89.8516 439.747 90.5327 439.47 91.353 439.47C92.1733 439.47 92.8032 439.682 93.2427 440.107C93.6851 440.529 93.9297 441.044 93.9766 441.654L93.981 441.702H92.9614V441.649C92.9321 441.301 92.7886 440.989 92.5308 440.713C92.2759 440.438 91.8833 440.3 91.353 440.3C90.8198 440.3 90.3818 440.502 90.0391 440.907C89.6963 441.311 89.5249 441.878 89.5249 442.607V442.994C89.5249 443.718 89.6963 444.283 90.0391 444.69C90.3818 445.098 90.8198 445.301 91.353 445.301C91.8804 445.301 92.2715 445.164 92.5264 444.888C92.7842 444.61 92.9292 444.298 92.9614 443.952V443.899H93.981L93.9766 443.952C93.9238 444.559 93.6777 445.074 93.2383 445.499C92.8018 445.921 92.1733 446.132 91.353 446.132C90.5327 446.132 89.8516 445.855 89.3096 445.301C88.7705 444.748 88.501 443.976 88.501 442.985ZM94.7324 443.68V443.539C94.7324 442.818 94.9492 442.231 95.3828 441.777C95.8193 441.32 96.3994 441.091 97.123 441.091C97.8496 441.091 98.4297 441.32 98.8633 441.777C99.2998 442.231 99.5181 442.818 99.5181 443.539V443.68C99.5181 444.403 99.2998 444.994 98.8633 445.451C98.4297 445.905 97.8496 446.132 97.123 446.132C96.3994 446.132 95.8193 445.905 95.3828 445.451C94.9492 444.994 94.7324 444.403 94.7324 443.68ZM95.7344 443.535V443.684C95.7344 444.156 95.8516 444.553 96.0859 444.875C96.3203 445.194 96.666 445.354 97.123 445.354C97.583 445.354 97.9302 445.194 98.1646 444.875C98.3989 444.553 98.5161 444.156 98.5161 443.684V443.535C98.5161 443.066 98.3989 442.672 98.1646 442.353C97.9302 442.033 97.583 441.874 97.123 441.874C96.666 441.874 96.3203 442.033 96.0859 442.353C95.8516 442.672 95.7344 443.066 95.7344 443.535ZM100.538 446V441.223H101.438L101.474 441.834H101.496C101.674 441.611 101.893 441.44 102.15 441.32C102.408 441.197 102.694 441.135 103.007 441.135C103.517 441.135 103.923 441.279 104.225 441.566C104.529 441.85 104.682 442.331 104.682 443.007V446H103.702V442.994C103.702 442.613 103.615 442.341 103.442 442.177C103.27 442.013 103.026 441.931 102.713 441.931C102.443 441.931 102.206 442.002 102.001 442.146C101.796 442.29 101.633 442.474 101.513 442.7V446H100.538ZM105.288 441.961V441.223H108.149V441.961H105.288ZM106.136 444.765V441.654L106.141 441.522V440.234H107.116V444.765C107.116 444.97 107.159 445.117 107.244 445.205C107.329 445.29 107.459 445.332 107.635 445.332C107.72 445.332 107.802 445.323 107.881 445.306C107.963 445.288 108.045 445.265 108.127 445.235V446C108.048 446.035 107.945 446.066 107.819 446.092C107.693 446.119 107.557 446.132 107.411 446.132C107.024 446.132 106.715 446.022 106.483 445.802C106.252 445.583 106.136 445.237 106.136 444.765ZM109.045 446V441.223H110.025V446H109.045ZM108.953 439.887C108.953 439.732 109.003 439.603 109.103 439.5C109.205 439.395 109.349 439.342 109.533 439.342C109.721 439.342 109.864 439.395 109.964 439.5C110.063 439.603 110.113 439.732 110.113 439.887C110.113 440.042 110.063 440.173 109.964 440.278C109.864 440.381 109.721 440.432 109.533 440.432C109.349 440.432 109.205 440.381 109.103 440.278C109.003 440.173 108.953 440.042 108.953 439.887ZM111.357 446V441.223H112.258L112.293 441.834H112.315C112.494 441.611 112.712 441.44 112.97 441.32C113.228 441.197 113.513 441.135 113.827 441.135C114.336 441.135 114.742 441.279 115.044 441.566C115.349 441.85 115.501 442.331 115.501 443.007V446H114.521V442.994C114.521 442.613 114.435 442.341 114.262 442.177C114.089 442.013 113.846 441.931 113.532 441.931C113.263 441.931 113.025 442.002 112.82 442.146C112.615 442.29 112.453 442.474 112.333 442.7V446H111.357ZM116.709 444.211V441.223H117.685V444.225C117.685 444.608 117.771 444.882 117.944 445.046C118.117 445.21 118.362 445.292 118.678 445.292C118.945 445.292 119.181 445.221 119.386 445.077C119.591 444.934 119.753 444.749 119.874 444.523V441.223H120.854V446H119.948L119.913 445.385H119.891C119.712 445.61 119.493 445.785 119.232 445.908C118.974 446.028 118.688 446.088 118.375 446.088C117.868 446.088 117.464 445.944 117.162 445.657C116.86 445.367 116.709 444.885 116.709 444.211ZM121.873 443.68V443.539C121.873 442.818 122.083 442.231 122.501 441.777C122.923 441.32 123.479 441.091 124.167 441.091C124.858 441.091 125.392 441.305 125.767 441.733C126.142 442.158 126.329 442.733 126.329 443.46V443.855H122.51V443.122H125.34V443.1C125.34 442.76 125.25 442.467 125.068 442.221C124.886 441.975 124.584 441.852 124.163 441.852C123.741 441.852 123.418 442.014 123.196 442.339C122.973 442.662 122.862 443.06 122.862 443.535V443.684C122.862 444.159 122.979 444.559 123.213 444.884C123.448 445.206 123.81 445.367 124.299 445.367C124.606 445.367 124.87 445.303 125.09 445.174C125.31 445.045 125.488 444.893 125.626 444.717L126.263 445.227C126.111 445.455 125.865 445.663 125.525 445.851C125.188 446.038 124.779 446.132 124.299 446.132C123.52 446.132 122.92 445.905 122.501 445.451C122.083 444.994 121.873 444.403 121.873 443.68ZM128.957 441.223H129.937L130.763 444.216C130.795 444.333 130.826 444.449 130.855 444.563C130.885 444.674 130.907 444.787 130.921 444.901H130.948C130.965 444.787 130.987 444.674 131.014 444.563C131.043 444.449 131.077 444.333 131.115 444.216L132.099 441.223H133.022L134.015 444.216C134.053 444.333 134.085 444.449 134.112 444.563C134.141 444.674 134.165 444.789 134.182 444.906H134.208C134.226 444.789 134.248 444.674 134.274 444.563C134.304 444.449 134.336 444.333 134.371 444.216L135.193 441.223H136.072L134.617 446H133.734L132.741 442.946C132.7 442.829 132.662 442.713 132.626 442.599C132.594 442.481 132.563 442.366 132.534 442.251H132.508C132.479 442.369 132.446 442.484 132.411 442.599C132.376 442.713 132.339 442.829 132.301 442.946L131.308 446H130.412L128.957 441.223ZM136.863 446V441.223H137.843V446H136.863ZM136.771 439.887C136.771 439.732 136.82 439.603 136.92 439.5C137.022 439.395 137.166 439.342 137.351 439.342C137.538 439.342 137.682 439.395 137.781 439.5C137.881 439.603 137.931 439.732 137.931 439.887C137.931 440.042 137.881 440.173 137.781 440.278C137.682 440.381 137.538 440.432 137.351 440.432C137.166 440.432 137.022 440.381 136.92 440.278C136.82 440.173 136.771 440.042 136.771 439.887ZM138.528 441.961V441.223H141.389V441.961H138.528ZM139.376 444.765V441.654L139.381 441.522V440.234H140.356V444.765C140.356 444.97 140.399 445.117 140.484 445.205C140.569 445.29 140.699 445.332 140.875 445.332C140.96 445.332 141.042 445.323 141.121 445.306C141.203 445.288 141.285 445.265 141.367 445.235V446C141.288 446.035 141.186 446.066 141.06 446.092C140.934 446.119 140.797 446.132 140.651 446.132C140.264 446.132 139.955 446.022 139.724 445.802C139.492 445.583 139.376 445.237 139.376 444.765ZM142.25 446V439.25H143.226V441.83C143.402 441.613 143.617 441.443 143.872 441.32C144.127 441.197 144.414 441.135 144.733 441.135C145.237 441.135 145.64 441.279 145.942 441.566C146.244 441.85 146.395 442.329 146.395 443.003V446H145.41V442.999C145.41 442.615 145.324 442.341 145.151 442.177C144.981 442.013 144.738 441.931 144.421 441.931C144.152 441.931 143.915 442.002 143.709 442.146C143.507 442.29 143.346 442.476 143.226 442.704V446H142.25ZM149.189 446L151.637 439.566H152.652L155.109 446H154.037L152.314 441.285C152.273 441.176 152.238 441.074 152.208 440.977C152.179 440.877 152.151 440.776 152.125 440.674H152.081C152.058 440.776 152.031 440.877 152.002 440.977C151.973 441.074 151.938 441.176 151.896 441.285L150.161 446H149.189ZM150.284 444.409L150.578 443.609L153.672 443.614L153.966 444.418L150.284 444.409ZM155.75 447.828V441.223H156.647L156.687 441.83H156.708C156.832 441.636 157.023 441.472 157.284 441.337C157.545 441.203 157.847 441.135 158.189 441.135C158.822 441.135 159.329 441.362 159.71 441.816C160.091 442.268 160.281 442.842 160.281 443.539V443.68C160.281 444.377 160.091 444.953 159.71 445.407C159.332 445.861 158.827 446.088 158.194 446.088C157.851 446.088 157.557 446.031 157.311 445.917C157.064 445.802 156.87 445.647 156.726 445.451V447.828H155.75ZM156.726 444.523C156.82 444.729 156.974 444.912 157.188 445.073C157.401 445.231 157.661 445.31 157.965 445.31C158.417 445.31 158.748 445.155 158.958 444.844C159.169 444.534 159.275 444.147 159.275 443.684V443.535C159.275 443.078 159.169 442.694 158.958 442.383C158.748 442.073 158.417 441.917 157.965 441.917C157.661 441.917 157.401 441.998 157.188 442.159C156.977 442.317 156.823 442.498 156.726 442.7V444.523ZM161.296 447.828V441.223H162.193L162.232 441.83H162.254C162.377 441.636 162.569 441.472 162.83 441.337C163.091 441.203 163.393 441.135 163.735 441.135C164.368 441.135 164.875 441.362 165.256 441.816C165.637 442.268 165.827 442.842 165.827 443.539V443.68C165.827 444.377 165.637 444.953 165.256 445.407C164.878 445.861 164.373 446.088 163.74 446.088C163.397 446.088 163.103 446.031 162.856 445.917C162.61 445.802 162.416 445.647 162.272 445.451V447.828H161.296ZM162.272 444.523C162.366 444.729 162.52 444.912 162.733 445.073C162.947 445.231 163.207 445.31 163.511 445.31C163.962 445.31 164.293 445.155 164.504 444.844C164.715 444.534 164.821 444.147 164.821 443.684V443.535C164.821 443.078 164.715 442.694 164.504 442.383C164.293 442.073 163.962 441.917 163.511 441.917C163.207 441.917 162.947 441.998 162.733 442.159C162.522 442.317 162.369 442.498 162.272 442.7V444.523ZM166.873 446V439.25H167.853V446H166.873ZM168.903 443.68V443.539C168.903 442.818 169.113 442.231 169.532 441.777C169.954 441.32 170.509 441.091 171.197 441.091C171.889 441.091 172.422 441.305 172.797 441.733C173.172 442.158 173.359 442.733 173.359 443.46V443.855H169.541V443.122H172.371V443.1C172.371 442.76 172.28 442.467 172.098 442.221C171.917 441.975 171.615 441.852 171.193 441.852C170.771 441.852 170.449 442.014 170.226 442.339C170.003 442.662 169.892 443.06 169.892 443.535V443.684C169.892 444.159 170.009 444.559 170.244 444.884C170.478 445.206 170.84 445.367 171.329 445.367C171.637 445.367 171.9 445.303 172.12 445.174C172.34 445.045 172.519 444.893 172.656 444.717L173.293 445.227C173.141 445.455 172.895 445.663 172.555 445.851C172.218 446.038 171.81 446.132 171.329 446.132C170.55 446.132 169.951 445.905 169.532 445.451C169.113 444.994 168.903 444.403 168.903 443.68Z" fill="black" fill-opacity="0.7"/>
<rect x="25.5" y="388.5" width="197" height="26" rx="13" stroke="#6F6F6F"/>
<rect x="25.5" y="428.5" width="198" height="26" rx="13" stroke="#6F6F6F"/>
<path d="M36.777 399.763C37.3328 398.039 38.9155 396.8 40.7901 396.8C41.7979 396.8 42.7081 397.166 43.4233 397.765L45.5038 395.635C44.236 394.504 42.6106 393.805 40.7901 393.805C37.9712 393.805 35.5442 395.451 34.3774 397.863L36.777 399.763Z" fill="#EA4335"/>
<path d="M43.1984 404.796C42.5489 405.225 41.7235 405.453 40.7902 405.453C38.9227 405.453 37.3449 404.225 36.7834 402.511L34.376 404.382C35.5413 406.797 37.9682 408.449 40.7902 408.449C42.5381 408.449 44.2083 407.813 45.4592 406.618L43.1984 404.796Z" fill="#34A853"/>
<path d="M45.459 406.618C46.7672 405.369 47.6167 403.509 47.6167 401.127C47.6167 400.694 47.5516 400.228 47.4541 399.796H40.79V402.625H44.626C44.4367 403.576 43.9286 404.313 43.1982 404.796L45.459 406.618Z" fill="#4A90E2"/>
<path d="M36.7831 402.511C36.6409 402.077 36.5639 401.611 36.5639 401.127C36.5639 400.65 36.6386 400.191 36.7767 399.763L34.3772 397.863C33.8984 398.845 33.6382 399.953 33.6382 401.127C33.6382 402.298 33.9033 403.403 34.3757 404.382L36.7831 402.511Z" fill="#FBBC05"/>
<path d="M44.5147 436.817C42.9768 436.817 42.3268 437.503 41.2558 437.503C40.1576 437.503 39.32 436.822 37.9872 436.822C36.6827 436.822 35.2917 437.566 34.4083 438.835C33.1678 440.624 33.3784 443.992 35.3874 446.862C36.106 447.89 37.0657 449.042 38.3244 449.054H38.3473C39.4413 449.054 39.7663 448.385 41.2718 448.377H41.2947C42.7777 448.377 43.0752 449.051 44.1646 449.051H44.1875C45.4462 449.038 46.4574 447.761 47.176 446.738C47.6932 446.002 47.8855 445.632 48.2821 444.8C45.376 443.768 44.9091 439.917 47.7832 438.44C46.9059 437.413 45.6731 436.818 44.5109 436.818L44.5147 436.817Z" fill="#020202"/>
<path d="M44.176 433.077C43.2606 433.136 42.1926 433.68 41.567 434.392C40.9995 435.037 40.5326 435.993 40.7157 436.921H40.7889C41.7638 436.921 42.7617 436.372 43.3445 435.669C43.906 434.999 44.3317 434.051 44.176 433.077Z" fill="#020202"/>
<rect x="15.15" y="281.15" width="7.7" height="7.7" rx="1.85" fill="white" stroke="black" stroke-width="0.3"/>
<path d="M244.6 333C244.6 332.116 243.884 331.4 243 331.4C242.116 331.4 241.4 332.116 241.4 333C241.4 333.884 242.116 334.6 243 334.6C243.884 334.6 244.6 333.884 244.6 333ZM285 332.7H243V333.3H285V332.7Z" fill="url(#paint1_linear_259_266)"/>
<path d="M285 23H327" stroke="url(#paint2_linear_259_266)" stroke-width="0.6" stroke-linecap="round"/>
<path d="M311 130H327" stroke="url(#paint3_linear_259_266)" stroke-width="0.6" stroke-linecap="round"/>
<path d="M186.6 478C186.6 477.116 185.884 476.4 185 476.4C184.116 476.4 183.4 477.116 183.4 478C183.4 478.884 184.116 479.6 185 479.6C185.884 479.6 186.6 478.884 186.6 478ZM311 477.7H185V478.3H311V477.7Z" fill="url(#paint4_linear_259_266)"/>
<path d="M285 333L285 23" stroke="url(#paint5_linear_259_266)" stroke-width="0.6"/>
<path d="M311 478L311 130" stroke="url(#paint6_linear_259_266)" stroke-width="0.6"/>
<circle cx="339.5" cy="23" r="12.15" stroke="url(#paint7_linear_259_266)" stroke-width="0.7"/>
<circle cx="339.5" cy="130" r="12.15" stroke="url(#paint8_linear_259_266)" stroke-width="0.7"/>
<path d="M333.051 24.1816V21.2871C333.051 20.3926 333.301 19.6699 333.801 19.1191C334.305 18.5684 335.012 18.293 335.922 18.293C336.824 18.293 337.527 18.5684 338.031 19.1191C338.539 19.6699 338.793 20.3926 338.793 21.2871V24.1816C338.793 25.0762 338.539 25.7988 338.031 26.3496C337.527 26.9004 336.824 27.1758 335.922 27.1758C335.012 27.1758 334.305 26.9004 333.801 26.3496C333.301 25.7988 333.051 25.0762 333.051 24.1816ZM334.428 24.2637C334.428 24.7988 334.547 25.2383 334.785 25.582C335.027 25.9258 335.406 26.0977 335.922 26.0977C336.441 26.0977 336.82 25.9258 337.059 25.582C337.301 25.2383 337.422 24.7988 337.422 24.2637V21.2109C337.422 20.6719 337.301 20.2305 337.059 19.8867C336.816 19.543 336.438 19.3711 335.922 19.3711C335.406 19.3711 335.027 19.543 334.785 19.8867C334.547 20.2305 334.428 20.6719 334.428 21.2109V24.2637ZM342.461 27V19.8691L340.305 20.7422V19.5117L343.398 18.3574H343.814V27H342.461Z" fill="#7D7D7D"/>
<path d="M333.051 131.182V128.287C333.051 127.393 333.301 126.67 333.801 126.119C334.305 125.568 335.012 125.293 335.922 125.293C336.824 125.293 337.527 125.568 338.031 126.119C338.539 126.67 338.793 127.393 338.793 128.287V131.182C338.793 132.076 338.539 132.799 338.031 133.35C337.527 133.9 336.824 134.176 335.922 134.176C335.012 134.176 334.305 133.9 333.801 133.35C333.301 132.799 333.051 132.076 333.051 131.182ZM334.428 131.264C334.428 131.799 334.547 132.238 334.785 132.582C335.027 132.926 335.406 133.098 335.922 133.098C336.441 133.098 336.82 132.926 337.059 132.582C337.301 132.238 337.422 131.799 337.422 131.264V128.211C337.422 127.672 337.301 127.23 337.059 126.887C336.816 126.543 336.438 126.371 335.922 126.371C335.406 126.371 335.027 126.543 334.785 126.887C334.547 127.23 334.428 127.672 334.428 128.211V131.264ZM339.895 134V133.074L342.994 129.799C343.381 129.396 343.676 129.037 343.879 128.721C344.082 128.4 344.184 128.057 344.184 127.689C344.184 127.326 344.061 127.016 343.814 126.758C343.572 126.5 343.23 126.371 342.789 126.371C342.344 126.371 341.975 126.514 341.682 126.799C341.389 127.084 341.24 127.486 341.236 128.006V128.088H339.883V127.994C339.883 127.201 340.156 126.553 340.703 126.049C341.254 125.545 341.949 125.293 342.789 125.293C343.637 125.293 344.307 125.521 344.799 125.979C345.295 126.436 345.543 126.986 345.543 127.631C345.543 128.186 345.389 128.688 345.08 129.137C344.771 129.582 344.391 130.037 343.938 130.502L341.617 132.887H345.76V134H339.895Z" fill="#7D7D7D"/>
<defs>
<filter id="filter0_d_259_266" x="9" y="311" width="238" height="45" filterUnits="userSpaceOnUse" color-interpolation-filters="sRGB">
<feFlood flood-opacity="0" result="BackgroundImageFix"/>
<feColorMatrix in="SourceAlpha" type="matrix" values="0 0 0 0 0 0 0 0 0 0 0 0 0 0 0 0 0 0 127 0" result="hardAlpha"/>
<feMorphology radius="1" operator="dilate" in="SourceAlpha" result="effect1_dropShadow_259_266"/>
<feOffset dy="1"/>
<feGaussianBlur stdDeviation="2.5"/>
<feComposite in2="hardAlpha" operator="out"/>
<feColorMatrix type="matrix" values="0 0 0 0 0 0 0 0 0 0 0 0 0 0 0 0 0 0 0.1 0"/>
<feBlend mode="normal" in2="BackgroundImageFix" result="effect1_dropShadow_259_266"/>
<feBlend mode="normal" in="SourceGraphic" in2="effect1_dropShadow_259_266" result="shape"/>
</filter>
<linearGradient id="paint0_linear_259_266" x1="128" y1="0" x2="128" y2="533" gradientUnits="userSpaceOnUse">
<stop stop-color="#D84896"/>
<stop offset="1" stop-color="#A733C3"/>
</linearGradient>
<linearGradient id="paint1_linear_259_266" x1="243" y1="332.2" x2="285" y2="332.2" gradientUnits="userSpaceOnUse">
<stop stop-color="#2F67FF"/>
<stop offset="1" stop-color="#C262B8"/>
</linearGradient>
<linearGradient id="paint2_linear_259_266" x1="327" y1="23.7998" x2="285" y2="23.7998" gradientUnits="userSpaceOnUse">
<stop stop-color="#2F67FF"/>
<stop offset="1" stop-color="#C262B8"/>
</linearGradient>
<linearGradient id="paint3_linear_259_266" x1="327" y1="130.8" x2="311" y2="130.8" gradientUnits="userSpaceOnUse">
<stop stop-color="#2F67FF"/>
<stop offset="1" stop-color="#C262B8"/>
</linearGradient>
<linearGradient id="paint4_linear_259_266" x1="185" y1="477.2" x2="311" y2="477.2" gradientUnits="userSpaceOnUse">
<stop stop-color="#2F67FF"/>
<stop offset="1" stop-color="#C262B8"/>
</linearGradient>
<linearGradient id="paint5_linear_259_266" x1="285.8" y1="23" x2="285.8" y2="333" gradientUnits="userSpaceOnUse">
<stop stop-color="#2F67FF"/>
<stop offset="1" stop-color="#C262B8"/>
</linearGradient>
<linearGradient id="paint6_linear_259_266" x1="311.8" y1="130" x2="311.8" y2="478" gradientUnits="userSpaceOnUse">
<stop stop-color="#2F67FF"/>
<stop offset="1" stop-color="#C262B8"/>
</linearGradient>
<linearGradient id="paint7_linear_259_266" x1="339.5" y1="10.5" x2="339.5" y2="35.5" gradientUnits="userSpaceOnUse">
<stop stop-color="#D84896"/>
<stop offset="1" stop-color="#A733C3"/>
</linearGradient>
<linearGradient id="paint8_linear_259_266" x1="339.5" y1="117.5" x2="339.5" y2="142.5" gradientUnits="userSpaceOnUse">
<stop stop-color="#D84896"/>
<stop offset="1" stop-color="#A733C3"/>
</linearGradient>
</defs>
</svg>
