<svg xmlns="http://www.w3.org/2000/svg" width="1011" height="909" fill="none" xmlns:v="https://vecta.io/nano"><style><![CDATA[.B{stroke-width:2}.C{fill:#1e1e1e}.D{stroke:#e6e6e6}]]></style><g clip-path="url(#A)"><path fill="#fff" d="M0 0h1011v909H0z"/><rect x="272.855" y="448.34" width="441.475" height="206.181" rx="17" stroke="#b3b3b3" class="B"/><g class="C"><use href="#B"/><use href="#B"/><path d="M784.677 305.792v-1.019l3.794-4.108c.508-.538.891-1.014 1.15-1.429s.388-.874.388-1.362-.166-.918-.498-1.274c-.327-.362-.783-.542-1.369-.542s-1.082.192-1.487.578-.601.916-.601 1.604v.073h-1.377v-.073c0-.976.332-1.775.996-2.395s1.487-.937 2.469-.937c.971 0 1.755.288 2.351.864s.893 1.248.893 2.029a3.25 3.25 0 0 1-.586 1.889 14.93 14.93 0 0 1-1.413 1.736l-2.989 3.164h5.281v1.202h-7.002zm8.797-.748a.92.92 0 0 1 .241-.644c.166-.176.401-.264.703-.264s.535.088.696.264.249.391.249.644a.92.92 0 0 1-.249.645c-.161.176-.393.264-.696.264s-.537-.088-.703-.264-.241-.396-.241-.645zm8.335.748v-2.916-.373-5.142h-.081l-3.245 4.776h3.699.557 1.875v1.15h-7.72v-.923l4.973-7.237h1.253v10.665h-1.311zm7.631-4.996v-.673c0-1.641.418-2.92 1.253-3.838s1.926-1.377 3.259-1.377c1.201 0 2.144.324 2.827.974.684.644 1.065 1.406 1.143 2.285v.081h-1.392v-.074c0-.493-.227-.962-.681-1.406s-1.086-.666-1.911-.666c-.933 0-1.68.356-2.242 1.069s-.842 1.697-.842 2.952v.673c0 1.255.281 2.239.842 2.952s1.355 1.069 2.381 1.069c.537 0 .998-.056 1.384-.168s.762-.291 1.113-.535v-2.505h-2.644v-1.142h3.992v4.153c-.327.341-.82.659-1.48.952-.654.293-1.442.439-2.365.439-1.411 0-2.537-.459-3.377-1.377s-1.26-2.197-1.26-3.838zm10.511 4.996v-11.236h1.355v4.505c.268-.332.612-.599 1.032-.799a3.16 3.16 0 0 1 1.377-.3c.713 0 1.299.22 1.758.659s.696 1.177.696 2.212v4.959h-1.355v-4.974c0-.615-.139-1.054-.418-1.318-.273-.269-.664-.403-1.171-.403-.435 0-.818.117-1.15.352s-.589.537-.769.908v5.435h-1.355zm7.734 0v-.989l4.409-5.589h-4.35v-1.106h5.976v.967l-4.424 5.611h4.637v1.106h-6.248zm-166.053-18.138V276.99h3.457c1.138 0 2.015.286 2.63.857s.93 1.331.93 2.278-.31 1.707-.93 2.292-1.492.879-2.63.879h-2.065v4.358h-1.392zm1.392-5.486h2.065c.811 0 1.372-.197 1.685-.593s.476-.884.476-1.45c0-.571-.159-1.047-.476-1.428s-.874-.572-1.685-.572h-2.065v4.043zm4.636 5.486l-2.607-4.922 1.384-.212 2.776 5.134h-1.553zm3.084 0V276.99h6.569v1.15h-5.178v3.648h4.453v1.15h-4.453v4.716h-1.391zm11.477-4.995v-.674c0-1.645.42-2.924 1.259-3.838s1.917-1.376 3.23-1.376 2.388.458 3.223 1.376 1.26 2.193 1.26 3.838v.674c0 1.646-.42 2.927-1.26 3.845s-1.909 1.37-3.223 1.37-2.39-.457-3.23-1.37-1.259-2.199-1.259-3.845zm1.413 0c0 1.26.281 2.246.843 2.959s1.306 1.062 2.233 1.062 1.673-.354 2.234-1.062.843-1.699.843-2.959v-.674c0-1.259-.281-2.243-.843-2.951s-1.306-1.07-2.234-1.07-1.672.357-2.233 1.07-.843 1.692-.843 2.951v.674zm9.405 2.271v-4.959h1.355v4.973c0 .62.136 1.062.41 1.326s.664.396 1.172.396c.434 0 .817-.118 1.149-.352a2.41 2.41 0 0 0 .777-.908v-5.435h1.355v7.683h-1.223l-.059-.988h-.044a3.07 3.07 0 0 1-1.018.834c-.4.201-.845.301-1.333.301-.771 0-1.389-.22-1.853-.659s-.688-1.177-.688-2.212zm7.302-3.926v-1.033h4.38v1.033h-4.38zm1.377 4.746v-5.156-.213-2.329h1.347v7.698c0 .347.069.593.206.74s.351.219.644.219a1.87 1.87 0 0 0 .403-.043c.132-.03.264-.069.395-.118v1.106c-.122.059-.285.11-.49.154s-.428.066-.667.066c-.561 0-1.008-.171-1.34-.513s-.498-.879-.498-1.611zm-35.144 288.767v-10.664h3.457c1.137 0 2.014.286 2.629.857s.93 1.331.93 2.278-.31 1.706-.93 2.292-1.492.879-2.629.879h-2.066v4.358h-1.391zm1.391-5.486h2.066c.81 0 1.372-.198 1.684-.593.318-.4.476-.884.476-1.45s-.158-1.048-.476-1.428c-.312-.381-.874-.572-1.684-.572h-2.066v4.043zm4.637 5.486l-2.608-4.922 1.384-.212 2.776 5.134h-1.552zm3.083 0v-10.664h6.57v1.15h-5.178v3.647h4.453v1.15h-4.453v4.717h-1.392zm6.995 3.032v-1.252h7.478v1.252h-7.478zm8.723-3.032v-10.664h3.515c1.167 0 2.063.295 2.688.886s.945 1.367.945 2.344-.315 1.758-.945 2.358-1.521.894-2.688.894h-2.124v4.182h-1.391zm1.391-5.325h2.124c.831 0 1.409-.205 1.736-.615s.498-.908.498-1.494-.166-1.084-.498-1.479c-.327-.401-.905-.601-1.736-.601h-2.124v4.189zm-28.031 39.761v-10.664h3.457c1.138 0 2.014.286 2.63.857s.93 1.331.93 2.278-.31 1.706-.93 2.292-1.492.879-2.63.879h-2.065v4.358h-1.392zm1.392-5.486h2.065c.811 0 1.372-.197 1.685-.593s.476-.884.476-1.45-.159-1.048-.476-1.428-.874-.572-1.685-.572h-2.065v4.043zm4.636 5.486l-2.607-4.922 1.384-.212 2.776 5.134h-1.553zm3.084 0v-10.664h6.569v1.15h-5.178v3.647h4.453v1.15h-4.453v4.717h-1.391zm6.994 3.032v-1.252h7.478v1.252h-7.478zm8.723-3.032v-10.664h1.45l4.82 7.493.271.439.22.41h.058l-.015-.49v-.506-7.346h1.363v10.664h-1.45l-4.82-7.5-.271-.439-.227-.403h-.051l.007.498.008.491v7.353h-1.363z"/></g><g class="B"><g stroke="#c3c3c3"><rect x="562.268" y="479.114" width="97.637" height="242.387" rx="5" transform="rotate(90 562.268 479.114)"/><rect x="609.334" y="232.994" width="137.821" height="277.274" rx="12" transform="rotate(90 609.334 232.994)"/></g></g><g class="C"><path d="M381.994 504.587v-.095h1.392v.095c0 .649.217 1.135.652 1.457s1.042.484 1.823.484 1.372-.166 1.787-.498a1.59 1.59 0 0 0 .623-1.304c0-.493-.2-.886-.601-1.179s-1.157-.603-2.27-.93c-1.157-.337-1.978-.73-2.461-1.179s-.725-1.089-.725-1.919a2.64 2.64 0 0 1 .945-2.073c.63-.552 1.511-.828 2.629-.828s2.007.291 2.666.872.989 1.316.989 2.219v.088h-1.392v-.088c0-.571-.19-1.03-.571-1.377s-.945-.52-1.692-.52-1.306.149-1.663.447-.534.705-.534 1.223a1.31 1.31 0 0 0 .549 1.106c.366.268 1.118.564 2.256.886s1.963.725 2.476 1.209.776 1.162.776 2.036-.339 1.599-1.018 2.16-1.602.843-2.769.843-2.104-.281-2.812-.843c-.703-.561-1.055-1.325-1.055-2.292zm8.423-6.599v-1.15h8.232v1.15h-3.42v9.514h-1.392v-9.514h-3.42zm9.646 9.514v-10.664h1.802l3.164 8.035.161.461.139.454h.059l.132-.454.168-.461 3.157-8.035h1.801v10.664h-1.347v-7.705l.007-.498.037-.498h-.059a4.7 4.7 0 0 1-.132.498l-.175.498-3.033 7.705h-1.208l-3.032-7.705-.176-.498-.132-.498h-.059c.02.146.032.312.037.498l.007.498v7.705h-1.318zm12.407-2.783v-.073h1.348v.073c0 .591.195 1.047.586 1.369s.913.484 1.553.484 1.159-.161 1.545-.484.586-.827.586-1.516c0-.683-.22-1.198-.659-1.545s-1.018-.527-1.751-.527h-.842v-1.114h.769c.674 0 1.194-.163 1.56-.49s.557-.787.557-1.377-.161-1.031-.484-1.319c-.317-.288-.744-.432-1.281-.432-.567 0-1.016.144-1.348.432s-.498.703-.498 1.245v.074h-1.348v-.074a2.63 2.63 0 0 1 .879-1.999c.591-.552 1.362-.828 2.315-.828.927 0 1.684.264 2.27.791.591.528.886 1.206.886 2.036a2.71 2.71 0 0 1-.403 1.414c-.268.444-.686.788-1.252 1.033v.029c.615.156 1.108.466 1.48.93s.556 1.035.556 1.714c0 .981-.334 1.753-1.003 2.314s-1.509.843-2.534.843c-1.08 0-1.932-.281-2.557-.843s-.93-1.281-.93-2.16zm8.643 2.783v-1.018l3.794-4.109c.508-.537.891-1.013 1.15-1.428s.388-.874.388-1.363a1.81 1.81 0 0 0-.498-1.274c-.332-.357-.784-.542-1.37-.542s-1.081.193-1.487.579c-.4.381-.6.915-.6 1.604v.073h-1.377v-.073c0-.977.332-1.775.996-2.395s1.487-.938 2.468-.938c.972 0 1.756.288 2.351.864s.894 1.248.894 2.029a3.26 3.26 0 0 1-.586 1.89c-.386.561-.857 1.14-1.414 1.736l-2.988 3.164h5.281v1.201h-7.002zm10.598.073l-2.615-10.737h1.392l1.824 7.917.08.396.059.395h.073l.051-.395.095-.396 1.985-7.917h1.414l2.058 7.917.088.396.058.395h.066l.059-.395.088-.396 1.743-7.917h1.377l-2.615 10.737h-1.355l-2.058-7.932-.117-.469-.081-.468h-.058l-.088.468-.11.469-2.058 7.932h-1.355zm11.506-.073v-10.664h1.392v9.514h5.039v1.15h-6.431zm8.057 0v-10.664h6.665v1.15h-5.273v3.442h4.599v1.143h-4.599v3.779h5.346v1.15h-6.738zm7.954-2.673v-.074h1.333v.074c0 .542.19.969.571 1.281s.889.462 1.524.462 1.155-.215 1.56-.645.608-1.045.608-1.831-.203-1.384-.608-1.794-.923-.615-1.553-.615c-.444 0-.835.08-1.172.241s-.649.388-.937.681l-.96-.454.535-5.317h5.522v1.23h-4.387l-.322 3.025c.244-.146.53-.276.857-.388s.686-.168 1.076-.168c.923 0 1.707.312 2.352.937s.974 1.499.974 2.622-.337 2.009-1.011 2.659c-.669.644-1.514.967-2.534.967-1.089 0-1.934-.274-2.534-.821s-.894-1.242-.894-2.072zm7.881-.257v-.073h1.391v.073c0 .64.174 1.126.521 1.458s.832.498 1.442.498 1.089-.183 1.436-.549c.347-.372.52-.904.52-1.597v-7.544h1.392v7.551c0 1.026-.311 1.839-.931 2.439s-1.421.894-2.417.894-1.811-.281-2.431-.843-.923-1.33-.923-2.307zm8.664-2.065v-.674c0-1.645.42-2.925 1.26-3.838s1.892-1.377 3.157-1.377 2.256.347 2.974 1.04a3.37 3.37 0 0 1 1.076 2.52v.073h-1.399v-.073c0-.684-.219-1.248-.659-1.692-.434-.449-1.099-.674-1.992-.674-.874 0-1.594.33-2.161.989-.561.659-.842 1.67-.842 3.032v.674c0 1.255.281 2.239.842 2.951s1.282 1.07 2.161 1.07c.84 0 1.475-.227 1.904-.681s.677-1.016.74-1.685l.007-.073h1.399l-.007.08c-.098.977-.481 1.814-1.15 2.513-.664.693-1.628 1.04-2.893 1.04s-2.324-.457-3.164-1.37-1.253-2.2-1.253-3.845zm10.225 1.545v-7.214h1.392v7.214c0 .84.224 1.463.673 1.868.455.405 1.048.608 1.78.608s1.324-.203 1.773-.608.674-1.028.674-1.868v-7.214h1.398v7.214c0 1.226-.373 2.144-1.12 2.754s-1.651.916-2.725.916-1.985-.305-2.732-.916-1.113-1.528-1.113-2.754zm9.456-1.047v-.22c0-1.855.5-3.347 1.501-4.475s2.432-1.692 4.277-1.692h.147v1.15h-.147c-1.367 0-2.443.398-3.23 1.194s-1.179 2.041-1.179 3.75v.366c0 1.27.222 2.171.667 2.703s1.015.791 1.699.791 1.213-.215 1.589-.645.564-1.037.564-1.823-.188-1.385-.564-1.81-.905-.637-1.589-.637c-.635 0-1.196.213-1.685.637-.483.425-.725 1.028-.725 1.81h-.512c0-1.075.29-1.941.871-2.601.586-.664 1.367-.996 2.344-.996s1.753.332 2.344.996.893 1.526.893 2.601-.334 1.945-1.003 2.614-1.507 1.004-2.527 1.004a3.57 3.57 0 0 1-2.637-1.114c-.732-.742-1.098-1.943-1.098-3.603zm-4.36-91.022v-7.214h1.391v7.214c0 .84.225 1.462.674 1.868s1.048.607 1.78.607 1.323-.202 1.772-.607.674-1.028.674-1.868v-7.214h1.399v7.214c0 1.225-.373 2.143-1.12 2.754s-1.651.915-2.725.915-1.985-.305-2.732-.915-1.113-1.529-1.113-2.754zm8.657 3.45l4.036-10.738h1.259l4.036 10.738h-1.45l-2.923-8.079-.153-.469-.118-.468h-.073l-.117.468-.154.469-2.951 8.079h-1.392zm1.728-2.791l.433-1.142h4.995l.425 1.142h-5.853zm8.841 2.791v-10.664h3.457c1.138 0 2.014.285 2.629.856s.93 1.331.93 2.278-.31 1.707-.93 2.293-1.491.879-2.629.879h-2.066v4.358h-1.391zm1.391-5.486h2.066c.81 0 1.372-.198 1.684-.593.318-.401.477-.884.477-1.451s-.159-1.047-.477-1.428c-.312-.381-.874-.571-1.684-.571h-2.066v4.043zm4.637 5.486l-2.608-4.922 1.385-.213 2.775 5.135h-1.552zm1.45-9.515v-1.149h8.232v1.149h-3.42v9.515h-1.392v-9.515h-3.42zm12.561 9.515v-1.018l3.794-4.109c.508-.537.891-1.014 1.15-1.429s.388-.874.388-1.362a1.81 1.81 0 0 0-.498-1.274c-.327-.362-.784-.542-1.37-.542s-1.081.193-1.487.578c-.4.381-.6.916-.6 1.604v.074h-1.377v-.074c0-.976.332-1.775.996-2.395s1.487-.937 2.468-.937c.972 0 1.756.288 2.351.864s.894 1.248.894 2.029c0 .693-.195 1.323-.586 1.89-.386.561-.857 1.14-1.414 1.735l-2.988 3.164h5.281v1.202h-7.002zm-312.252 3.62v-10.664h3.457c1.138 0 2.014.285 2.629.857s.931 1.33.931 2.277-.311 1.707-.931 2.293-1.491.879-2.629.879h-2.065v4.358h-1.392zm1.392-5.486h2.065c.811 0 1.372-.198 1.685-.593.317-.401.476-.884.476-1.451s-.159-1.047-.476-1.428-.874-.571-1.685-.571h-2.065v4.043zm4.636 5.486l-2.608-4.922 1.385-.213 2.775 5.135h-1.552zm3.083 0v-10.664h6.665v1.15h-5.273v3.442h4.599v1.143h-4.599v3.779h5.347v1.15h-6.739zm7.903-2.915v-.096h1.392v.096c0 .649.217 1.135.652 1.457s1.042.484 1.823.484 1.372-.166 1.787-.498a1.59 1.59 0 0 0 .623-1.304c0-.493-.2-.886-.601-1.179s-1.157-.603-2.27-.931c-1.157-.336-1.978-.729-2.461-1.179s-.725-1.089-.725-1.919.315-1.521.945-2.072 1.511-.828 2.629-.828 2.007.29 2.666.872a2.81 2.81 0 0 1 .989 2.219v.088h-1.392v-.088c0-.572-.19-1.031-.571-1.377s-.945-.52-1.692-.52-1.306.149-1.663.447-.534.705-.534 1.223a1.31 1.31 0 0 0 .549 1.106c.366.268 1.118.564 2.256.886s1.963.725 2.476 1.208.776 1.163.776 2.037a2.68 2.68 0 0 1-1.018 2.16c-.679.561-1.602.842-2.769.842s-2.104-.28-2.812-.842-1.055-1.326-1.055-2.292zm9.485 2.915v-10.664h6.665v1.15h-5.273v3.442h4.599v1.143h-4.599v3.779h5.346v1.15h-6.738zm7.566-9.514v-1.15h8.232v1.15h-3.42v9.514h-1.392v-9.514h-3.42zm66.136 5.894v-10.664h3.501c1.069 0 1.909.227 2.52.681s.922 1.169.922 2.146c0 .586-.148 1.062-.446 1.428s-.667.627-1.106.784v.029c.537.156.976.444 1.318.864s.513.974.513 1.663c0 .971-.32 1.726-.96 2.263s-1.487.806-2.541.806h-3.721zm1.362-1.15h2.359c.732 0 1.269-.174 1.611-.52s.513-.816.513-1.407c0-.585-.171-1.049-.513-1.391s-.879-.52-1.611-.52h-2.359v3.838zm0-4.966h2.139c.733 0 1.26-.151 1.582-.454s.484-.73.484-1.267-.162-.957-.484-1.245-.849-.433-1.582-.433h-2.139v3.399zm7.42 1.121v-.674c0-1.646.42-2.925 1.26-3.838s1.916-1.377 3.23-1.377 2.387.459 3.222 1.377 1.26 2.192 1.26 3.838v.674c0 1.645-.42 2.927-1.26 3.845s-1.909 1.369-3.222 1.369-2.391-.456-3.23-1.369-1.26-2.2-1.26-3.845zm1.413 0c0 1.259.281 2.246.843 2.958s1.306 1.062 2.234 1.062 1.672-.354 2.233-1.062.843-1.699.843-2.958v-.674c0-1.26-.281-2.244-.843-2.952-.561-.713-1.306-1.069-2.233-1.069s-1.673.356-2.234 1.069-.843 1.692-.843 2.952v.674zm9.236 0v-.674c0-1.646.42-2.925 1.26-3.838s1.917-1.377 3.23-1.377 2.388.459 3.223 1.377 1.259 2.192 1.259 3.838v.674c0 1.645-.419 2.927-1.259 3.845s-1.91 1.369-3.223 1.369-2.39-.456-3.23-1.369-1.26-2.2-1.26-3.845zm1.414 0c0 1.259.281 2.246.842 2.958s1.306 1.062 2.234 1.062 1.672-.354 2.234-1.062.842-1.699.842-2.958v-.674c0-1.26-.281-2.244-.842-2.952a2.7 2.7 0 0 0-2.234-1.069 2.7 2.7 0 0 0-2.234 1.069c-.561.708-.842 1.692-.842 2.952v.674zm8.371-4.52v-1.149h8.233v1.149h-3.421v9.515h-1.391v-9.515h-3.421z"/><path d="M364.51 545.125c-.996-.468-1.902-1.289-2.717-2.46s-1.223-2.674-1.223-4.505v-.073c0-1.914.408-3.435 1.223-4.563s1.721-1.934 2.717-2.402v1.303c-.61.371-1.184.996-1.721 1.875s-.806 2.124-.806 3.736v.175c0 1.543.269 2.771.806 3.685s1.111 1.555 1.721 1.926v1.303zm4.71-3.193v-1.018l3.794-4.109c.508-.537.891-1.013 1.15-1.428s.388-.874.388-1.362c0-.494-.166-.918-.498-1.275-.327-.361-.784-.542-1.37-.542s-1.081.193-1.487.579c-.4.381-.6.915-.6 1.604v.073h-1.377v-.073c0-.977.332-1.775.996-2.395s1.487-.938 2.468-.938c.972 0 1.756.288 2.351.865.596.571.894 1.247.894 2.028 0 .694-.196 1.324-.586 1.89a15.03 15.03 0 0 1-1.414 1.736l-2.988 3.164h5.281v1.201h-7.002zm8.349-2.673v-.073h1.333v.073c0 .542.191.969.572 1.282.381.307.888.461 1.523.461s1.155-.215 1.56-.645.608-1.045.608-1.831-.202-1.384-.608-1.794-.923-.615-1.553-.615c-.444 0-.834.08-1.171.241a3.35 3.35 0 0 0-.938.682l-.959-.455.534-5.317h5.523v1.231h-4.387l-.323 3.024a4.59 4.59 0 0 1 .857-.388c.327-.112.686-.168 1.077-.168a3.25 3.25 0 0 1 2.351.937c.649.625.974 1.499.974 2.622s-.337 2.01-1.011 2.659-1.513.967-2.534.967c-1.089 0-1.933-.274-2.534-.82-.596-.552-.894-1.243-.894-2.073zm8.335-1.824v-.22c0-1.855.501-3.347 1.502-4.475s2.432-1.692 4.277-1.692h.147v1.15h-.147c-1.367 0-2.444.398-3.23 1.194-.786.791-1.179 2.041-1.179 3.75v.366c0 1.27.222 2.171.667 2.703s1.015.791 1.699.791 1.213-.215 1.589-.645.564-1.037.564-1.823-.188-1.385-.564-1.809-.906-.638-1.589-.638a2.49 2.49 0 0 0-1.685.638c-.483.424-.725 1.027-.725 1.809h-.513c0-1.075.291-1.941.872-2.6s1.367-.996 2.344-.996c.971 0 1.753.332 2.343.996.596.659.894 1.525.894 2.6s-.334 1.945-1.003 2.614c-.664.669-1.507 1.004-2.527 1.004a3.57 3.57 0 0 1-2.637-1.113c-.732-.743-1.099-1.944-1.099-3.604zm8.328.505v-1.245h4.116v1.245h-4.116zm5.896 3.992v-10.664h1.392v5.244l4.738-5.244h1.678l-6.416 6.995v3.669h-1.392zm6.423 0l-4.123-5.537.901-.974 4.929 6.511h-1.707zm2.644 0v-11.235h1.355v4.46a2.42 2.42 0 0 1 .901-.761c.376-.196.833-.293 1.37-.293.976 0 1.755.366 2.336 1.098s.872 1.651.872 2.769v.234c0 1.123-.291 2.051-.872 2.783s-1.36 1.092-2.336 1.092c-.537 0-1.006-.113-1.406-.337s-.699-.496-.894-.813h-.044l-.058 1.003h-1.224zm1.355-2.278c.152.342.396.647.733.916s.759.403 1.252.403c.728 0 1.262-.266 1.604-.799s.513-1.189.513-1.97v-.234c0-.782-.171-1.436-.513-1.963s-.879-.799-1.611-.799c-.488 0-.903.135-1.245.403s-.581.574-.733.916v3.127zm6.387 5.325v-1.15c.122.039.261.071.418.095s.307.037.454.037a1.21 1.21 0 0 0 .893-.388c.254-.259.523-.816.806-1.67v-.007l-2.864-7.647h1.304l1.824 5.068.183.55.139.468h.044l.146-.468.183-.55 1.707-5.068h1.274l-3.12 8.709c-.249.683-.574 1.215-.974 1.596-.395.381-.886.571-1.472.571a3.35 3.35 0 0 1-.52-.036 2.3 2.3 0 0 1-.425-.11zm6.519-9.697v-1.033h4.38v1.033h-4.38zm1.377 4.746v-5.156-.213-2.329h1.347v7.698c0 .347.069.593.205.74s.352.219.645.219a1.81 1.81 0 0 0 .403-.044c.132-.029.263-.068.395-.117v1.106c-.122.059-.285.11-.49.154a3.19 3.19 0 0 1-.667.066c-.562 0-1.008-.171-1.34-.513s-.498-.879-.498-1.611zm3.984-1.817v-.234c0-1.162.317-2.109.952-2.842s1.475-1.106 2.52-1.106 1.848.345 2.409 1.033c.567.684.85 1.611.85 2.783v.55h-5.903v-1.077h4.548v-.169c0-.556-.159-1.03-.476-1.42-.313-.396-.769-.594-1.37-.594-.722 0-1.262.274-1.618.821s-.535 1.22-.535 2.021v.234c0 .796.188 1.468.564 2.015s.959.82 1.75.82c.489 0 .909-.108 1.26-.322a2.93 2.93 0 0 0 .85-.762l.871.696c-.239.361-.612.7-1.12 1.018s-1.128.476-1.861.476c-1.191 0-2.104-.366-2.739-1.099s-.952-1.684-.952-2.842zm12.209 3.721v-10.664h6.57v1.15h-5.178v3.647h4.453v1.15h-4.453v4.717h-1.392zm8.13 0v-11.235h1.348v11.235h-1.348zm3.15-2.263c0-.776.307-1.382.923-1.816s1.408-.652 2.365-.652h1.736v-.528c0-.464-.119-.84-.359-1.128s-.652-.439-1.238-.439-.998.122-1.252.366-.381.518-.381.835v.044h-1.34v-.044c0-.61.271-1.142.813-1.597s1.274-.681 2.197-.681 1.638.222 2.146.667c.513.439.769 1.098.769 1.977v3.501c0 .318.022.618.066.901.049.279.117.525.205.74v.117h-1.304c-.068-.122-.131-.281-.19-.476a3.08 3.08 0 0 1-.103-.586c-.18.318-.471.598-.871.842s-.918.367-1.553.367c-.732 0-1.355-.205-1.868-.616-.507-.415-.761-1.013-.761-1.794zm1.355-.073c0 .439.127.783.381 1.032s.647.374 1.179.374 1.023-.186 1.457-.557.652-.764.652-1.179v-1.106h-1.589c-.689 0-1.209.13-1.56.388s-.52.608-.52 1.048zm6.65.073h1.348v.037c0 .444.163.778.491 1.003s.759.337 1.296.337.959-.108 1.267-.322.469-.494.469-.835-.125-.603-.374-.784c-.249-.186-.788-.376-1.618-.571s-1.482-.469-1.971-.821c-.483-.356-.725-.849-.725-1.479s.261-1.16.784-1.575 1.221-.63 2.095-.63 1.577.21 2.109.63.806.977.806 1.685v.044h-1.341v-.074c0-.366-.129-.654-.388-.864s-.649-.315-1.186-.315-.923.098-1.172.293-.366.44-.366.733.139.525.417.695.837.354 1.663.55 1.469.476 1.919.842.673.889.673 1.567a2.11 2.11 0 0 1-.769 1.678c-.507.439-1.272.659-2.292.659s-1.799-.222-2.337-.667c-.532-.444-.798-1.037-.798-1.779v-.037zm7.859 2.263v-11.235h1.355v4.504c.269-.332.613-.598 1.033-.798a3.16 3.16 0 0 1 1.377-.3c.713 0 1.298.219 1.757.659s.696 1.176.696 2.212v4.958h-1.355v-4.973c0-.615-.139-1.055-.417-1.318-.274-.269-.664-.403-1.172-.403-.435 0-.818.117-1.15.351s-.588.537-.769.909v5.434h-1.355zm11.953 0v-7.683h1.223l.059.989h.044a3.02 3.02 0 0 1 .981-.828c.391-.205.823-.307 1.297-.307.517 0 .962.102 1.333.307s.661.537.857.996h.044c.317-.459.671-.791 1.062-.996s.839-.307 1.347-.307c.796 0 1.416.219 1.861.659s.673 1.176.673 2.212v4.958h-1.347v-4.973c0-.615-.132-1.055-.396-1.318-.263-.269-.637-.403-1.12-.403-.42 0-.787.117-1.099.351s-.562.537-.747.909v5.434h-1.355v-4.973c0-.615-.132-1.055-.396-1.318-.263-.269-.637-.403-1.12-.403-.42 0-.786.117-1.099.351s-.561.537-.747.909v5.434h-1.355zm12.415-3.721v-.234c0-1.162.317-2.109.952-2.842s1.474-1.106 2.519-1.106 1.849.345 2.41 1.033c.566.684.85 1.611.85 2.783v.55h-5.904v-1.077h4.549v-.169c0-.556-.159-1.03-.476-1.42-.313-.396-.769-.594-1.37-.594-.723 0-1.262.274-1.619.821s-.534 1.22-.534 2.021v.234c0 .796.188 1.468.564 2.015s.959.82 1.75.82c.488 0 .908-.108 1.26-.322s.635-.469.849-.762l.872.696c-.239.361-.613.7-1.121 1.018s-1.127.476-1.86.476c-1.191 0-2.104-.366-2.739-1.099s-.952-1.684-.952-2.842zm8.401 3.721v-7.683h1.223l.058.989h.044c.269-.347.596-.623.982-.828s.822-.307 1.296-.307c.518 0 .962.102 1.333.307s.662.537.857.996h.044c.317-.459.671-.791 1.062-.996s.84-.307 1.348-.307c.796 0 1.416.219 1.86.659s.674 1.176.674 2.212v4.958h-1.348v-4.973c0-.615-.132-1.055-.395-1.318-.264-.269-.638-.403-1.121-.403-.42 0-.786.117-1.099.351s-.561.537-.747.909v5.434h-1.355v-4.973c0-.615-.131-1.055-.395-1.318-.264-.269-.637-.403-1.121-.403-.42 0-.786.117-1.098.351s-.562.537-.747.909v5.434h-1.355zm12.414-3.721v-.234c0-1.162.327-2.109.982-2.842s1.538-1.106 2.636-1.106 1.975.369 2.63 1.106.988 1.68.988 2.842v.234c0 1.158-.329 2.105-.988 2.842s-1.531 1.099-2.63 1.099-1.977-.366-2.636-1.099-.982-1.684-.982-2.842zm1.384-.234v.234c0 .791.188 1.463.564 2.015.376.546.933.82 1.67.82s1.302-.274 1.678-.82c.376-.552.563-1.226.563-2.022v-.227c0-.796-.187-1.467-.563-2.014s-.936-.828-1.678-.828-1.294.276-1.67.828-.564 1.218-.564 2.014zm7.559 3.955v-7.683h1.223l.059.989h.044a3.04 3.04 0 0 1 .761-.842c.318-.245.699-.367 1.143-.367a1.66 1.66 0 0 1 .33.037c.117.024.2.046.249.066v1.252l-.308-.044-.352-.014c-.434 0-.805.114-1.113.344a2.07 2.07 0 0 0-.681.857v5.405h-1.355zm4.534 3.047v-1.15c.122.039.261.071.417.095s.308.037.454.037a1.21 1.21 0 0 0 .894-.388c.254-.259.522-.816.805-1.67v-.007l-2.863-7.647h1.303l1.824 5.068.183.55.139.468h.044l.147-.468.183-.55 1.706-5.068h1.275l-3.12 8.709c-.249.683-.574 1.215-.974 1.596s-.887.571-1.472.571c-.196 0-.369-.012-.521-.036a2.29 2.29 0 0 1-.424-.11zm-129.471 10.456v-.22c0-1.855.501-3.347 1.502-4.475 1.006-1.128 2.432-1.692 4.277-1.692h.147v1.15h-.147c-1.367 0-2.444.398-3.23 1.194-.786.791-1.179 2.041-1.179 3.75v.366c0 1.27.222 2.171.667 2.703s1.015.791 1.699.791 1.213-.215 1.589-.645.564-1.037.564-1.823-.188-1.385-.564-1.809-.906-.638-1.589-.638c-.635 0-1.196.213-1.685.638-.483.424-.725 1.027-.725 1.809h-.513c0-1.075.291-1.941.872-2.6.586-.664 1.367-.996 2.344-.996.971 0 1.753.332 2.344.996s.893 1.525.893 2.6-.334 1.945-1.003 2.614-1.507 1.004-2.527 1.004a3.57 3.57 0 0 1-2.637-1.113c-.732-.743-1.099-1.944-1.099-3.604zm13.06 4.497v-2.915-.373-5.142h-.081l-3.245 4.775h3.699.557 1.875v1.15h-7.72v-.923l4.973-7.236h1.253v10.664h-1.311zm3.691-3.992v-1.245h4.116v1.245h-4.116zm5.896 3.992v-10.664h1.392v5.244l4.738-5.244h1.678l-6.416 6.995v3.669h-1.392zm6.423 0l-4.123-5.537.901-.974 4.929 6.511h-1.707zm2.644 0v-11.235h1.355v4.46a2.42 2.42 0 0 1 .901-.761c.376-.196.833-.293 1.37-.293.976 0 1.755.366 2.336 1.098s.872 1.651.872 2.769v.234c0 1.123-.291 2.051-.872 2.783s-1.36 1.092-2.336 1.092c-.537 0-1.006-.113-1.406-.337s-.699-.496-.894-.813h-.044l-.059 1.003h-1.223zm1.355-2.278c.152.342.396.647.733.916s.759.403 1.252.403c.728 0 1.262-.266 1.604-.799s.513-1.189.513-1.97v-.234c0-.782-.171-1.436-.513-1.963s-.879-.799-1.611-.799c-.488 0-.903.135-1.245.403s-.581.574-.733.916v3.127zm6.387 5.325v-1.15c.122.039.261.071.418.095s.307.037.454.037a1.21 1.21 0 0 0 .893-.388c.254-.259.523-.816.806-1.67v-.007l-2.864-7.647h1.304l1.824 5.068.183.55.139.468h.044l.146-.468.183-.55 1.707-5.068h1.274l-3.12 8.709c-.249.683-.574 1.215-.974 1.596s-.886.571-1.472.571a3.35 3.35 0 0 1-.52-.036 2.28 2.28 0 0 1-.425-.11zm6.519-9.697v-1.033h4.379v1.033h-4.379zm1.377 4.746v-5.156-.213-2.329h1.347v7.698c0 .347.069.593.205.74s.352.219.645.219a1.81 1.81 0 0 0 .403-.044c.131-.029.263-.068.395-.117v1.106c-.122.059-.285.11-.491.154s-.427.066-.666.066c-.562 0-1.008-.171-1.34-.513s-.498-.879-.498-1.611zm3.984-1.817v-.234c0-1.162.317-2.109.952-2.842s1.475-1.106 2.52-1.106 1.848.345 2.409 1.033c.567.684.85 1.611.85 2.783v.55h-5.903v-1.077h4.548v-.169c0-.556-.159-1.03-.476-1.42-.313-.396-.769-.594-1.37-.594-.722 0-1.262.274-1.618.821s-.535 1.22-.535 2.021v.234c0 .796.188 1.468.564 2.015s.959.82 1.75.82c.489 0 .909-.108 1.26-.322a2.93 2.93 0 0 0 .85-.762l.871.696c-.239.361-.613.7-1.12 1.018s-1.128.476-1.861.476c-1.191 0-2.104-.366-2.739-1.099s-.952-1.684-.952-2.842zm12.209 3.721v-10.664h3.457c1.138 0 2.015.286 2.63.857s.93 1.331.93 2.278-.31 1.706-.93 2.292-1.492.879-2.63.879h-2.065v4.358h-1.392zm1.392-5.486h2.065c.811 0 1.372-.197 1.685-.593s.476-.884.476-1.45-.159-1.048-.476-1.428-.874-.572-1.685-.572h-2.065v4.043zm4.636 5.486l-2.607-4.922 1.384-.212 2.776 5.134h-1.553zm1.846 0l4.036-10.737h1.259l4.036 10.737h-1.45l-2.923-8.078-.153-.469-.118-.469h-.073l-.117.469-.154.469-2.951 8.078h-1.392zm1.728-2.79l.433-1.143h4.995l.424 1.143h-5.852zm8.841 2.79v-10.664h1.802l3.164 8.035.161.461.139.454h.058l.132-.454.169-.461 3.157-8.035h1.801v10.664h-1.347v-7.705l.007-.498.037-.498h-.059a4.7 4.7 0 0 1-.132.498l-.176.498-3.032 7.705h-1.208l-3.033-7.705-.175-.498-.132-.498h-.059c.02.146.032.312.037.498l.007.498v7.705h-1.318zm15.74 3.193v-1.303c.61-.371 1.184-1.013 1.721-1.926s.805-2.142.805-3.685v-.175c0-1.612-.268-2.857-.805-3.736s-1.111-1.504-1.721-1.875v-1.303c.996.468 1.901 1.269 2.717 2.402s1.223 2.649 1.223 4.563v.073c0 1.831-.408 3.333-1.223 4.505s-1.721 1.992-2.717 2.46z"/><path d="M388.703 321.507c-.996-.468-1.902-1.289-2.718-2.461s-1.223-2.673-1.223-4.504v-.073c0-1.914.408-3.435 1.223-4.563s1.722-1.934 2.718-2.403v1.304c-.611.371-1.184.996-1.721 1.875s-.806 2.124-.806 3.735v.176c0 1.543.268 2.771.806 3.684s1.11 1.556 1.721 1.927v1.303zm7.851-3.193v-9.133l-2.695 1.128v-1.348l3.86-1.458h.227v10.811h-1.392zm5.01-7.339c0-1.055.332-1.909.996-2.563s1.509-.982 2.534-.982 1.897.371 2.63 1.113 1.098 1.944 1.098 3.604v.22c0 1.728-.5 3.152-1.501 4.27s-2.417 1.677-4.263 1.677h-.154v-1.143h.147c1.362 0 2.436-.393 3.223-1.179s1.186-1.97 1.186-3.552v-.366c0-1.27-.225-2.168-.674-2.696a2.12 2.12 0 0 0-1.692-.798c-.683 0-1.213.21-1.589.63s-.564 1.003-.564 1.765.188 1.35.564 1.765c.376.41.906.615 1.589.615.63 0 1.189-.207 1.678-.622s.732-1.001.732-1.758h.513c0 1.055-.293 1.907-.879 2.556s-1.365.967-2.337.967c-.966 0-1.748-.322-2.343-.967s-.894-1.501-.894-2.556zm8.694 7.339v-1.018l3.794-4.109c.508-.537.891-1.013 1.15-1.428a2.55 2.55 0 0 0 .388-1.363c0-.493-.166-.917-.498-1.274s-.784-.542-1.37-.542-1.081.193-1.487.579c-.4.381-.6.915-.6 1.604v.073h-1.377v-.073c0-.977.332-1.775.996-2.395s1.487-.938 2.468-.938c.972 0 1.756.288 2.351.864s.894 1.248.894 2.029a3.25 3.25 0 0 1-.586 1.89c-.386.561-.857 1.14-1.414 1.736l-2.988 3.164h5.281v1.201h-7.002zm8.166-3.992v-1.245h4.117v1.245h-4.117zm5.896 3.992V307.65h1.392v5.244l4.739-5.244h1.677l-6.416 6.995v3.669h-1.392zm6.424 0l-4.124-5.537.901-.974 4.929 6.511h-1.706zm2.644 0v-11.235h1.355v4.46c.224-.317.525-.571.901-.762s.832-.293 1.369-.293c.977 0 1.756.367 2.337 1.099s.871 1.65.871 2.769v.234c0 1.123-.29 2.051-.871 2.783s-1.36 1.091-2.337 1.091c-.537 0-1.006-.112-1.406-.336s-.698-.496-.894-.813h-.043l-.059 1.003h-1.223zm1.355-2.278c.151.342.395.647.732.916s.759.402 1.253.402c.727 0 1.262-.266 1.604-.798s.512-1.189.512-1.97v-.234c0-.782-.171-1.436-.512-1.963-.342-.533-.879-.799-1.612-.799-.488 0-.903.135-1.245.403s-.581.574-.732.916v3.127zm6.386 5.325v-1.15a2.79 2.79 0 0 0 .418.095c.156.025.308.037.454.037.342 0 .64-.13.894-.388s.522-.816.805-1.67v-.008l-2.863-7.646h1.303l1.824 5.068.183.55.139.468h.044l.147-.468.183-.55 1.706-5.068h1.275l-3.12 8.708c-.249.684-.574 1.216-.975 1.597-.395.381-.886.571-1.472.571a3.36 3.36 0 0 1-.52-.036 2.3 2.3 0 0 1-.425-.11zm6.519-9.697v-1.033h4.38v1.033h-4.38zm1.377 4.746v-5.157-.212-2.329h1.348v7.698c0 .346.068.593.205.739s.351.22.644.22a1.87 1.87 0 0 0 .403-.044c.132-.029.264-.068.396-.117v1.106c-.122.059-.286.11-.491.154s-.427.066-.667.066c-.561 0-1.008-.171-1.34-.513s-.498-.879-.498-1.611zm3.984-1.817v-.234c0-1.162.318-2.109.953-2.842s1.474-1.106 2.519-1.106 1.848.344 2.41 1.033c.566.683.849 1.611.849 2.783v.549h-5.903V313.7h4.548v-.169c0-.556-.158-1.03-.476-1.421-.312-.395-.769-.593-1.369-.593-.723 0-1.263.274-1.619.82s-.535 1.221-.535 2.022v.234c0 .796.188 1.468.564 2.014s.96.821 1.751.821c.488 0 .908-.108 1.26-.323s.634-.468.849-.761l.872.696c-.24.361-.613.7-1.121 1.018s-1.128.476-1.86.476c-1.192 0-2.105-.367-2.739-1.099-.635-.737-.953-1.685-.953-2.842zm12.21 3.721V307.65h6.57v1.15h-5.179v3.647h4.454v1.15h-4.454v4.717h-1.391zm8.13 0v-11.235h1.347v11.235h-1.347zm3.149-2.263c0-.777.308-1.382.923-1.817s1.409-.651 2.366-.651h1.736v-.528c0-.464-.12-.84-.359-1.128-.24-.293-.652-.439-1.238-.439-.581 0-.999.122-1.253.366s-.38.518-.38.835v.044h-1.341v-.044c0-.61.271-1.143.813-1.597s1.275-.681 2.198-.681 1.638.222 2.145.667c.513.439.77 1.098.77 1.977v3.501c0 .318.022.618.065.901.049.278.118.525.206.74v.117h-1.304a2.39 2.39 0 0 1-.191-.476c-.053-.195-.087-.391-.102-.586-.181.317-.471.598-.872.842s-.918.366-1.552.366c-.733 0-1.355-.205-1.868-.615-.508-.415-.762-1.013-.762-1.794zm1.355-.073c0 .439.127.783.381 1.032s.647.374 1.179.374a2.19 2.19 0 0 0 1.458-.557c.434-.371.652-.764.652-1.179v-1.106h-1.59c-.688 0-1.208.129-1.56.388-.347.259-.52.608-.52 1.048zm6.651.073h1.347v.036c0 .445.164.779.491 1.004s.759.337 1.296.337.96-.108 1.267-.323c.313-.214.469-.493.469-.834s-.124-.604-.373-.784c-.249-.186-.789-.376-1.619-.571s-1.482-.469-1.97-.821-.725-.849-.725-1.479.261-1.16.783-1.575 1.221-.63 2.095-.63 1.577.21 2.109.63c.538.415.806.977.806 1.685v.044h-1.34v-.074c0-.366-.13-.654-.388-.864s-.65-.315-1.187-.315-.923.098-1.172.293a.9.9 0 0 0-.366.732c0 .293.139.525.417.696.284.171.838.354 1.663.55s1.47.476 1.919.842.674.889.674 1.567-.257 1.238-.769 1.678-1.272.659-2.293.659-1.799-.222-2.336-.667-.798-1.037-.798-1.78v-.036zm7.858 2.263v-11.235h1.355v4.504c.269-.332.613-.598 1.033-.798s.879-.301 1.377-.301c.713 0 1.299.22 1.758.66s.696 1.176.696 2.211v4.959h-1.355v-4.973c0-.615-.139-1.055-.418-1.319-.273-.268-.664-.402-1.172-.402-.434 0-.818.117-1.15.351a2.36 2.36 0 0 0-.769.908v5.435h-1.355zm11.954 0v-7.683h1.223l.058.989h.044c.269-.347.596-.623.982-.828s.822-.308 1.296-.308c.518 0 .962.103 1.333.308s.662.537.857.996h.044c.317-.459.671-.791 1.062-.996s.84-.308 1.348-.308c.795 0 1.416.22 1.86.66s.674 1.176.674 2.211v4.959h-1.348v-4.973c0-.615-.132-1.055-.395-1.319s-.638-.402-1.121-.402c-.42 0-.786.117-1.099.351s-.561.537-.747.908v5.435h-1.355v-4.973c0-.615-.132-1.055-.395-1.319s-.637-.402-1.121-.402c-.42 0-.786.117-1.098.351a2.52 2.52 0 0 0-.747.908v5.435h-1.355zm12.414-3.721v-.234c0-1.162.317-2.109.952-2.842s1.475-1.106 2.52-1.106 1.848.344 2.409 1.033c.567.683.85 1.611.85 2.783v.549h-5.903V313.7h4.548v-.169c0-.556-.159-1.03-.476-1.421s-.769-.593-1.37-.593c-.722 0-1.262.274-1.618.82s-.535 1.221-.535 2.022v.234c0 .796.188 1.468.564 2.014s.959.821 1.75.821c.489 0 .909-.108 1.26-.323s.635-.468.85-.761l.871.696c-.239.361-.612.7-1.12 1.018s-1.128.476-1.861.476c-1.191 0-2.104-.367-2.739-1.099-.635-.737-.952-1.685-.952-2.842zm8.401 3.721v-7.683h1.223l.059.989h.044a3.01 3.01 0 0 1 .981-.828c.391-.205.823-.308 1.296-.308.518 0 .962.103 1.333.308s.662.537.857.996h.044c.318-.459.672-.791 1.062-.996s.84-.308 1.348-.308c.796 0 1.416.22 1.86.66.45.439.674 1.176.674 2.211v4.959h-1.347v-4.973c0-.615-.132-1.055-.396-1.319s-.637-.402-1.121-.402a1.78 1.78 0 0 0-1.098.351 2.52 2.52 0 0 0-.747.908v5.435h-1.355v-4.973c0-.615-.132-1.055-.396-1.319s-.637-.402-1.12-.402c-.42 0-.786.117-1.099.351a2.53 2.53 0 0 0-.747.908v5.435h-1.355zm12.415-3.721v-.234c0-1.162.327-2.109.981-2.842s1.538-1.106 2.637-1.106 1.975.369 2.629 1.106.989 1.68.989 2.842v.234c0 1.157-.33 2.105-.989 2.842-.654.732-1.531 1.099-2.629 1.099s-1.978-.367-2.637-1.099c-.654-.737-.981-1.685-.981-2.842zm1.384-.234v.234c0 .791.188 1.463.564 2.014s.932.821 1.67.821 1.301-.274 1.677-.821.564-1.225.564-2.021v-.227c0-.796-.188-1.467-.564-2.014-.376-.552-.935-.828-1.677-.828s-1.294.276-1.67.828c-.376.547-.564 1.218-.564 2.014zm7.558 3.955v-7.683h1.224l.058.989h.044c.195-.323.449-.603.762-.843s.698-.366 1.142-.366a1.58 1.58 0 0 1 .33.037c.117.024.2.046.249.066v1.252l-.308-.044a3.81 3.81 0 0 0-.351-.014c-.435 0-.806.114-1.113.344s-.535.515-.682.857v5.405h-1.355zm4.534 3.047v-1.15c.122.039.261.071.418.095s.307.037.454.037c.341 0 .639-.13.893-.388s.523-.816.806-1.67v-.008l-2.864-7.646h1.304l1.824 5.068.183.55.139.468h.044l.146-.468.183-.55 1.707-5.068h1.274l-3.12 8.708c-.249.684-.574 1.216-.974 1.597-.395.381-.886.571-1.472.571a3.35 3.35 0 0 1-.52-.036 2.3 2.3 0 0 1-.425-.11zm-129.309 14.953v-1.018l3.794-4.109c.508-.537.891-1.013 1.15-1.428a2.55 2.55 0 0 0 .388-1.363c0-.493-.166-.917-.498-1.274s-.784-.542-1.37-.542-1.081.193-1.486.579-.601.915-.601 1.604v.073h-1.377v-.073c0-.977.332-1.775.996-2.395s1.487-.938 2.468-.938c.972 0 1.756.288 2.351.864s.894 1.248.894 2.029a3.25 3.25 0 0 1-.586 1.89c-.386.561-.857 1.14-1.414 1.736l-2.988 3.164h5.281v1.201h-7.002zm12.898 0v-2.915-.374-5.141h-.081l-3.244 4.775h3.698.557 1.875v1.15h-7.72v-.923l4.974-7.236h1.252v10.664h-1.311zm3.691-3.992v-1.245h4.117v1.245h-4.117zm5.896 3.992V325.65h1.392v5.244l4.739-5.244h1.677l-6.416 6.995v3.669h-1.392zm6.424 0l-4.124-5.537.901-.974 4.929 6.511h-1.706zm2.644 0v-11.235h1.355v4.46c.224-.317.525-.571.901-.762s.832-.293 1.369-.293c.977 0 1.756.367 2.337 1.099s.871 1.65.871 2.769v.234c0 1.123-.29 2.051-.871 2.783s-1.36 1.091-2.337 1.091c-.537 0-1.006-.112-1.406-.336s-.698-.496-.894-.813h-.044l-.058 1.003h-1.223zm1.355-2.278c.151.342.395.647.732.916s.759.402 1.253.402c.727 0 1.262-.266 1.604-.798s.512-1.189.512-1.97v-.234c0-.782-.171-1.436-.512-1.963-.342-.533-.879-.799-1.612-.799-.488 0-.903.135-1.245.403s-.581.574-.732.916v3.127zm6.386 5.325v-1.15a2.76 2.76 0 0 0 .418.095c.156.025.308.037.454.037.342 0 .64-.13.894-.388s.522-.816.805-1.67v-.008l-2.864-7.646h1.304l1.824 5.068.183.55.139.468h.044l.147-.468.183-.55 1.706-5.068h1.275l-3.12 8.708c-.249.684-.574 1.216-.975 1.597-.395.381-.886.571-1.472.571a3.36 3.36 0 0 1-.52-.036 2.3 2.3 0 0 1-.425-.11zm6.519-9.697v-1.033h4.38v1.033h-4.38zm1.377 4.746v-5.157-.212-2.329h1.348v7.698c0 .346.068.593.205.739s.351.22.644.22a1.87 1.87 0 0 0 .403-.044c.132-.029.264-.068.396-.117v1.106c-.123.059-.286.11-.491.154s-.427.066-.667.066c-.561 0-1.008-.171-1.34-.513s-.498-.879-.498-1.611zm3.984-1.817v-.234c0-1.162.318-2.109.952-2.842s1.475-1.106 2.52-1.106 1.848.344 2.41 1.033c.566.683.849 1.611.849 2.783v.549h-5.903V331.7h4.548v-.169c0-.556-.158-1.03-.476-1.421-.312-.395-.769-.593-1.369-.593-.723 0-1.263.274-1.619.82s-.535 1.221-.535 2.022v.234c0 .796.188 1.468.564 2.014s.96.821 1.751.821c.488 0 .908-.108 1.259-.323s.635-.468.85-.761l.872.696c-.24.361-.613.7-1.121 1.018s-1.128.476-1.86.476c-1.192 0-2.105-.367-2.74-1.099-.634-.737-.952-1.685-.952-2.842zm12.21 3.721V325.65h3.457c1.138 0 2.014.286 2.629.857s.93 1.33.93 2.278c0 .942-.31 1.706-.93 2.292s-1.491.879-2.629.879h-2.066v4.358h-1.391zm1.391-5.486h2.066c.81 0 1.372-.198 1.684-.593.318-.401.476-.884.476-1.45 0-.572-.158-1.048-.476-1.429-.312-.38-.874-.571-1.684-.571h-2.066v4.043zm4.637 5.486l-2.608-4.922 1.384-.212 2.776 5.134h-1.552zm1.845 0l4.036-10.737h1.26l4.035 10.737h-1.45l-2.922-8.079-.154-.468-.117-.469h-.073l-.118.469-.153.468-2.952 8.079h-1.392zm1.729-2.791l.432-1.142h4.995l.425 1.142h-5.852zm8.84 2.791V325.65h1.802l3.164 8.035.161.461.139.454h.059l.132-.454.168-.461 3.157-8.035h1.802v10.664h-1.348v-7.705l.007-.498.037-.498h-.059c-.029.146-.073.312-.131.498l-.176.498-3.032 7.705h-1.209l-3.032-7.705-.176-.498-.132-.498h-.058a4.92 4.92 0 0 1 .036.498l.008.498v7.705h-1.319zm15.74 3.193v-1.303c.61-.371 1.184-1.014 1.721-1.927s.806-2.141.806-3.684v-.176c0-1.611-.269-2.856-.806-3.735s-1.111-1.504-1.721-1.875v-1.304c.996.469 1.902 1.27 2.717 2.403s1.223 2.649 1.223 4.563v.073c0 1.831-.407 3.333-1.223 4.504s-1.721 1.993-2.717 2.461z"/><path d="M437.892 263.216v-7.683h1.223l.059.988h.044a2.91 2.91 0 0 1 1.011-.827c.405-.205.852-.308 1.34-.308.771 0 1.387.22 1.846.659s.695 1.177.695 2.212v4.959h-1.355v-4.973c0-.616-.139-1.055-.417-1.319s-.664-.403-1.172-.403c-.434 0-.818.118-1.15.352s-.583.537-.769.908v5.435h-1.355zm8.467 0v-10.664h3.457c1.138 0 2.014.285 2.629.857.621.571.931 1.33.931 2.278 0 .942-.31 1.706-.931 2.292-.615.586-1.491.879-2.629.879h-2.065v4.358h-1.392zm1.392-5.486h2.065c.811 0 1.372-.198 1.685-.593.317-.401.476-.884.476-1.45 0-.572-.159-1.048-.476-1.429s-.874-.571-1.685-.571h-2.065v4.043zm4.636 5.486l-2.608-4.922 1.385-.212 2.776 5.134h-1.553zm3.083 0v-10.664h6.57v1.15h-5.178v3.647h4.453v1.15h-4.453v4.717h-1.392zm7.72-2.674v-.073h1.333v.073c0 .542.19.97.571 1.282s.889.462 1.524.462 1.155-.215 1.56-.645.608-1.045.608-1.831-.203-1.384-.608-1.794-.923-.616-1.553-.616c-.444 0-.835.081-1.172.242s-.649.388-.937.681l-.96-.454.535-5.317h5.522v1.23h-4.387l-.322 3.025c.244-.146.53-.276.857-.388s.686-.169 1.077-.169c.922 0 1.706.313 2.351.938s.974 1.499.974 2.622-.337 2.009-1.011 2.659c-.669.644-1.514.967-2.534.967-1.089 0-1.934-.274-2.534-.821s-.894-1.242-.894-2.073zm8.496 2.674v-1.018l3.794-4.109c.508-.537.891-1.013 1.15-1.428a2.55 2.55 0 0 0 .388-1.363c0-.493-.166-.918-.498-1.274s-.784-.542-1.37-.542-1.081.193-1.486.579c-.401.38-.601.915-.601 1.604v.073h-1.377v-.073c0-.977.332-1.775.996-2.395s1.487-.938 2.468-.938c.972 0 1.756.288 2.352.864s.893 1.248.893 2.029c0 .693-.195 1.323-.586 1.89-.386.561-.857 1.14-1.413 1.736l-2.989 3.164h5.281v1.201h-7.002zm8.379-2.827c0-.635.173-1.177.52-1.626.352-.454.798-.791 1.34-1.011v-.029c-.42-.21-.781-.528-1.084-.952-.297-.425-.446-.931-.446-1.517 0-.879.302-1.584.908-2.116s1.347-.806 2.226-.806 1.617.266 2.212.798c.601.528.901 1.236.901 2.124 0 .591-.149 1.099-.447 1.524s-.656.735-1.076.945v.029a3.06 3.06 0 0 1 1.34 1.003c.347.454.52.999.52 1.634 0 .966-.332 1.716-.996 2.248s-1.482.799-2.454.799-1.792-.267-2.461-.799-1.003-1.282-1.003-2.248zm1.362-.074c0 .591.191 1.067.572 1.429s.896.542 1.53.542 1.141-.181 1.517-.542.571-.838.571-1.429-.191-1.069-.571-1.435-.882-.549-1.517-.549-1.145.183-1.53.549-.572.845-.572 1.435zm.308-4.987c0 .537.164.981.491 1.333s.766.527 1.303.527.967-.176 1.289-.527c.328-.352.491-.796.491-1.333s-.163-.984-.491-1.326c-.322-.347-.751-.52-1.289-.52s-.971.173-1.303.52-.491.784-.491 1.326zm9.939 7.888v-9.133l-2.695 1.127v-1.347l3.859-1.458h.228v10.811h-1.392zm5.281-3.362v-3.94c0-1.075.3-1.939.901-2.593s1.442-.989 2.512-.989c1.059 0 1.892.33 2.497.989.611.654.916 1.518.916 2.593v3.94c0 1.074-.305 1.941-.916 2.6-.605.654-1.438.982-2.497.982-1.07 0-1.907-.328-2.512-.982s-.901-1.526-.901-2.6zm1.406.073c0 .684.164 1.248.491 1.692s.832.667 1.516.667 1.189-.223 1.516-.667.491-1.008.491-1.692v-4.087c0-.683-.164-1.247-.491-1.692s-.833-.666-1.516-.666-1.189.222-1.516.666-.491 1.009-.491 1.692v4.087zm-419.827-8.785v-.096h1.392v.096c0 .649.217 1.135.652 1.457s1.043.484 1.824.484 1.372-.166 1.787-.499a1.59 1.59 0 0 0 .623-1.303c0-.493-.2-.886-.601-1.179s-1.157-.603-2.27-.931c-1.157-.337-1.978-.73-2.461-1.179s-.725-1.089-.725-1.919A2.64 2.64 0 0 1 79.7 244c.635-.551 1.511-.827 2.629-.827s2.007.29 2.666.871a2.82 2.82 0 0 1 .989 2.22v.088h-1.392v-.088c0-.572-.19-1.031-.571-1.377s-.945-.52-1.692-.52-1.306.149-1.663.446-.535.706-.535 1.224a1.31 1.31 0 0 0 .549 1.106c.366.268 1.118.564 2.256.886s1.963.725 2.476 1.208.776 1.162.776 2.036a2.68 2.68 0 0 1-1.018 2.161c-.679.561-1.602.842-2.769.842s-2.104-.28-2.812-.842-1.055-1.326-1.055-2.292zm9.485 2.915v-10.664h1.802l3.164 8.034.161.462.139.454h.059l.132-.454.168-.462 3.157-8.034h1.802v10.664h-1.348v-7.705l.007-.498.037-.499h-.059a4.65 4.65 0 0 1-.132.499l-.176.498-3.032 7.705h-1.209l-3.032-7.705-.176-.498-.132-.499h-.059a4.75 4.75 0 0 1 .037.499l.007.498v7.705h-1.318zm13.066 0v-10.664h3.516c1.167 0 2.063.295 2.688.886s.945 1.367.945 2.344c0 .971-.315 1.757-.945 2.358s-1.521.894-2.688.894h-2.124v4.182h-1.392zm1.392-5.325h2.124c.83 0 1.409-.205 1.736-.615s.498-.909.498-1.494c0-.591-.166-1.084-.498-1.48s-.906-.601-1.736-.601h-2.124v4.19zm6.775 2.41v-.096h1.391v.096c0 .649.218 1.135.652 1.457s1.043.484 1.824.484 1.372-.166 1.787-.499a1.59 1.59 0 0 0 .623-1.303c0-.493-.201-.886-.601-1.179s-1.157-.603-2.271-.931c-1.157-.337-1.977-.73-2.46-1.179s-.726-1.089-.726-1.919a2.64 2.64 0 0 1 .945-2.073c.635-.551 1.512-.827 2.63-.827s2.007.29 2.666.871.988 1.316.988 2.22v.088h-1.391v-.088c0-.572-.191-1.031-.571-1.377s-.945-.52-1.692-.52-1.306.149-1.663.446-.535.706-.535 1.224a1.31 1.31 0 0 0 .55 1.106c.366.268 1.118.564 2.256.886s1.962.725 2.475 1.208.777 1.162.777 2.036-.34 1.6-1.019 2.161-1.601.842-2.768.842-2.105-.28-2.813-.842-1.054-1.326-1.054-2.292zm13.132 2.915v-10.664h3.516c1.167 0 2.063.295 2.688.886s.944 1.367.944 2.344c0 .971-.314 1.757-.944 2.358s-1.521.894-2.688.894h-2.124v4.182h-1.392zm1.392-5.325h2.124c.83 0 1.408-.205 1.736-.615s.498-.909.498-1.494c0-.591-.166-1.084-.498-1.48s-.906-.601-1.736-.601h-2.124v4.19zm6.679 3.061c0-.776.308-1.381.923-1.816s1.409-.652 2.366-.652h1.736v-.527c0-.464-.12-.84-.359-1.128s-.652-.44-1.238-.44-.998.123-1.252.367-.381.517-.381.835v.044h-1.341v-.044c0-.611.271-1.143.813-1.597s1.275-.681 2.198-.681 1.638.222 2.146.666.769 1.099.769 1.978v3.501c0 .317.022.618.066.901s.117.525.205.739v.118h-1.304c-.068-.122-.132-.281-.19-.476s-.088-.391-.103-.586c-.181.317-.471.598-.872.842s-.917.366-1.552.366c-.733 0-1.355-.205-1.868-.615s-.762-1.013-.762-1.795zm1.355-.073c0 .44.127.784.381 1.033s.647.373 1.179.373a2.19 2.19 0 0 0 1.458-.556c.434-.371.652-.764.652-1.179v-1.106h-1.59c-.688 0-1.208.129-1.56.388a1.24 1.24 0 0 0-.52 1.047zm6.651.073h1.347v.037c0 .444.164.779.491 1.003s.759.337 1.296.337.96-.107 1.268-.322.468-.493.468-.835-.124-.603-.373-.784-.789-.375-1.619-.571c-.825-.195-1.482-.469-1.97-.82-.483-.357-.725-.85-.725-1.48s.261-1.159.784-1.574 1.22-.63 2.094-.63 1.577.21 2.11.63a2.03 2.03 0 0 1 .805 1.684v.044h-1.34v-.073c0-.366-.129-.654-.388-.864s-.65-.315-1.187-.315-.923.097-1.172.293a.9.9 0 0 0-.366.732c0 .293.139.525.418.696s.837.354 1.662.549 1.47.476 1.919.843.674.888.674 1.567-.256 1.238-.769 1.677-1.272.659-2.293.659-1.799-.222-2.336-.666-.798-1.038-.798-1.78v-.037zm7.368 0h1.348v.037c0 .444.163.779.49 1.003s.76.337 1.297.337.959-.107 1.267-.322.468-.493.468-.835-.124-.603-.373-.784-.789-.375-1.619-.571c-.825-.195-1.482-.469-1.97-.82-.483-.357-.725-.85-.725-1.48s.261-1.159.784-1.574 1.22-.63 2.094-.63 1.578.21 2.11.63.805.976.805 1.684v.044h-1.34v-.073c0-.366-.129-.654-.388-.864-.254-.21-.649-.315-1.187-.315-.532 0-.922.097-1.171.293s-.367.439-.367.732.139.525.418.696.837.354 1.662.549 1.47.476 1.919.843.674.888.674 1.567-.256 1.238-.769 1.677-1.272.659-2.292.659-1.8-.222-2.337-.666-.798-1.038-.798-1.78v-.037zm7.925 2.264v-7.683h1.347v7.683h-1.347zm-.169-10.02c0-.224.073-.415.22-.571s.354-.235.623-.235.48.079.622.235.22.347.22.571c0 .23-.073.422-.22.579s-.349.234-.622.234-.477-.078-.623-.234-.22-.349-.22-.579zm2.674 2.337h1.311l1.853 5.134.168.549.11.403h.037l.102-.403.176-.549 1.846-5.134h1.274l-2.922 7.683h-1.033l-2.922-7.683zm7.397 3.962v-.234c0-1.163.317-2.11.952-2.842.635-.738 1.475-1.106 2.52-1.106s1.848.344 2.409 1.033c.567.683.85 1.611.85 2.783v.549h-5.903v-1.077h4.548v-.168c0-.557-.159-1.03-.476-1.421s-.769-.593-1.37-.593c-.722 0-1.262.273-1.618.82s-.535 1.221-.535 2.022v.234c0 .796.188 1.467.564 2.014s.959.82 1.75.82c.489 0 .909-.107 1.26-.322a2.93 2.93 0 0 0 .85-.762l.871.696c-.239.362-.612.701-1.12 1.018s-1.128.476-1.861.476c-1.191 0-2.104-.366-2.739-1.098-.635-.738-.952-1.685-.952-2.842zm-79.05 16.726v-.674c0-1.646.42-2.925 1.26-3.838s1.892-1.377 3.157-1.377 2.256.347 2.974 1.04a3.37 3.37 0 0 1 1.077 2.519v.074h-1.399v-.074c0-.683-.22-1.247-.659-1.691-.434-.45-1.099-.674-1.992-.674a2.72 2.72 0 0 0-2.161.988c-.561.66-.842 1.67-.842 3.033v.674c0 1.254.281 2.238.842 2.951s1.282 1.07 2.161 1.07c.84 0 1.475-.228 1.904-.682s.676-1.015.74-1.684l.007-.073h1.399l-.007.08a4.12 4.12 0 0 1-1.15 2.512c-.664.694-1.628 1.04-2.893 1.04s-2.324-.456-3.164-1.369-1.252-2.2-1.252-3.845zm9.697 1.274v-.234c0-1.163.327-2.11.981-2.842.659-.738 1.538-1.106 2.637-1.106s1.975.368 2.63 1.106c.659.732.988 1.679.988 2.842v.234c0 1.157-.329 2.104-.988 2.842-.655.732-1.531 1.098-2.63 1.098s-1.978-.366-2.637-1.098c-.654-.738-.981-1.685-.981-2.842zm1.384-.234v.234c0 .791.188 1.462.564 2.014s.933.82 1.67.82 1.301-.273 1.677-.82c.376-.552.564-1.225.564-2.021v-.227c0-.796-.188-1.468-.564-2.015s-.935-.827-1.677-.827-1.294.276-1.67.827-.564 1.219-.564 2.015zm7.559 3.955v-7.683h1.223l.059.988h.044a3.02 3.02 0 0 1 .981-.827c.391-.205.823-.308 1.296-.308.518 0 .962.103 1.333.308.376.205.662.537.857.996h.044c.318-.459.672-.791 1.062-.996s.84-.308 1.348-.308c.796 0 1.416.22 1.86.659.45.44.674 1.177.674 2.212v4.959h-1.348v-4.974c0-.615-.131-1.054-.395-1.318s-.637-.403-1.121-.403c-.42 0-.786.117-1.098.352a2.53 2.53 0 0 0-.747.908v5.435h-1.355v-4.974c0-.615-.132-1.054-.396-1.318s-.637-.403-1.12-.403c-.42 0-.787.117-1.099.352a2.53 2.53 0 0 0-.747.908v5.435h-1.355zm12.876 3.054v-10.737h1.223l.059 1.003h.044c.19-.317.485-.588.886-.813s.876-.337 1.413-.337c.977 0 1.756.366 2.337 1.099.581.727.871 1.65.871 2.768v.235c0 1.123-.29 2.05-.871 2.783-.581.727-1.36 1.091-2.337 1.091-.537 0-.993-.095-1.369-.286a2.43 2.43 0 0 1-.901-.769v3.963h-1.355zm1.355-5.332c.151.342.395.647.732.915s.757.403 1.245.403c.733 0 1.27-.266 1.612-.798s.512-1.189.512-1.97v-.235c0-.781-.171-1.435-.512-1.963s-.879-.798-1.612-.798c-.488 0-.903.134-1.245.403a2.43 2.43 0 0 0-.732.915v3.128zm6.723-1.443v-.234c0-1.163.328-2.11.982-2.842.659-.738 1.538-1.106 2.637-1.106s1.975.368 2.629 1.106c.659.732.989 1.679.989 2.842v.234c0 1.157-.33 2.104-.989 2.842-.654.732-1.531 1.098-2.629 1.098s-1.978-.366-2.637-1.098c-.654-.738-.982-1.685-.982-2.842zm1.385-.234v.234c0 .791.188 1.462.564 2.014s.932.82 1.67.82 1.301-.273 1.677-.82c.376-.552.564-1.225.564-2.021v-.227c0-.796-.188-1.468-.564-2.015s-.935-.827-1.677-.827-1.294.276-1.67.827-.564 1.219-.564 2.015zm7.558 3.955v-7.683h1.223l.059.988h.044a2.91 2.91 0 0 1 1.011-.827c.405-.205.852-.308 1.34-.308.772 0 1.387.22 1.846.659s.696 1.177.696 2.212v4.959h-1.355v-4.974c0-.615-.14-1.054-.418-1.318s-.664-.403-1.172-.403a1.94 1.94 0 0 0-1.15.352c-.327.234-.583.537-.769.908v5.435h-1.355zm7.845-3.721v-.234c0-1.163.317-2.11.952-2.842.634-.738 1.474-1.106 2.519-1.106s1.848.344 2.41 1.033c.566.683.85 1.611.85 2.783v.549h-5.904v-1.077h4.549v-.168c0-.557-.159-1.03-.477-1.421-.312-.395-.769-.593-1.369-.593-.723 0-1.262.273-1.619.82s-.534 1.221-.534 2.022v.234c0 .796.188 1.467.563 2.014s.96.82 1.751.82c.488 0 .908-.107 1.26-.322s.635-.469.849-.762l.872.696c-.239.362-.613.701-1.121 1.018s-1.128.476-1.86.476c-1.191 0-2.105-.366-2.739-1.098-.635-.738-.952-1.685-.952-2.842zm8.4 3.721v-7.683h1.224l.058.988h.044a2.92 2.92 0 0 1 1.011-.827c.405-.205.852-.308 1.34-.308.772 0 1.387.22 1.846.659s.696 1.177.696 2.212v4.959h-1.355v-4.974c0-.615-.139-1.054-.418-1.318-.273-.268-.664-.403-1.172-.403-.434 0-.817.117-1.15.352-.327.234-.583.537-.769.908v5.435h-1.355zm7.229-6.651v-1.032h4.38v1.032h-4.38zm1.377 4.746v-5.156-.212-2.329h1.348v7.697c0 .347.068.594.205.74s.352.22.645.22a1.88 1.88 0 0 0 .403-.044c.131-.029.263-.068.395-.117v1.106a2.24 2.24 0 0 1-.491.153c-.205.044-.427.066-.666.066-.562 0-1.009-.171-1.341-.512s-.498-.879-.498-1.612zm3.955-.359h1.348v.037c0 .444.164.779.491 1.003s.759.337 1.296.337.96-.107 1.267-.322c.313-.215.469-.493.469-.835s-.124-.603-.373-.784-.789-.375-1.619-.571-1.482-.469-1.97-.82c-.484-.357-.725-.85-.725-1.48s.261-1.159.783-1.574 1.221-.63 2.095-.63 1.577.21 2.109.63c.538.415.806.976.806 1.684v.044h-1.34v-.073c0-.366-.13-.654-.388-.864s-.65-.315-1.187-.315-.923.097-1.172.293a.9.9 0 0 0-.366.732c0 .293.139.525.417.696.284.171.838.354 1.663.549s1.47.476 1.919.843.674.888.674 1.567a2.11 2.11 0 0 1-.769 1.677c-.508.44-1.272.659-2.293.659s-1.799-.222-2.336-.666-.799-1.038-.799-1.78v-.037z"/><path d="M82.54 153.695v-10.664h3.516c1.167 0 2.063.296 2.688.886s.945 1.368.945 2.344-.315 1.758-.945 2.359c-.625.595-1.521.893-2.688.893h-2.124v4.182H82.54zm1.392-5.324h2.124c.83 0 1.409-.205 1.736-.616s.498-.908.498-1.494-.166-1.084-.498-1.479c-.327-.401-.906-.601-1.736-.601h-2.124v4.19zm6.629 1.604v-.235c0-1.162.327-2.109.981-2.842s1.538-1.106 2.637-1.106 1.975.369 2.629 1.106.989 1.68.989 2.842v.235c0 1.157-.33 2.104-.989 2.841s-1.531 1.099-2.629 1.099-1.977-.366-2.637-1.099-.981-1.684-.981-2.841zm1.384-.235v.235c0 .791.188 1.462.564 2.014s.933.82 1.67.82 1.301-.273 1.677-.82.564-1.226.564-2.022v-.227c0-.796-.188-1.467-.564-2.014s-.935-.828-1.677-.828-1.294.276-1.67.828-.564 1.218-.564 2.014zm6.665-3.728h1.304l1.421 5.061.124.476.11.476h.044l.103-.476.146-.476 1.67-5.061h1.143l1.721 5.061.146.476.11.476h.044l.095-.476.125-.476 1.377-5.061h1.237l-2.373 7.683h-1.054l-1.677-4.98-.184-.579-.153-.586h-.044l-.154.586-.176.579-1.677 4.98h-1.062l-2.366-7.683zm11.712 3.963v-.235c0-1.162.317-2.109.952-2.842s1.474-1.106 2.519-1.106 1.848.345 2.41 1.033.849 1.612.849 2.783v.55h-5.903v-1.077h4.548v-.168c0-.557-.158-1.031-.476-1.421-.312-.396-.769-.594-1.369-.594-.723 0-1.262.274-1.619.821s-.535 1.22-.535 2.021v.235c0 .796.188 1.467.564 2.014s.96.82 1.751.82c.488 0 .908-.107 1.26-.322s.634-.469.849-.762l.872.696c-.239.361-.613.701-1.121 1.018s-1.128.476-1.86.476c-1.191 0-2.105-.366-2.739-1.099s-.952-1.684-.952-2.841zm8.4 3.72v-7.683h1.224l.058.989h.044a3.03 3.03 0 0 1 .762-.842c.317-.244.698-.367 1.142-.367a1.65 1.65 0 0 1 .33.037l.249.066v1.252c-.098-.019-.2-.034-.308-.043a3.79 3.79 0 0 0-.351-.015c-.435 0-.806.115-1.113.344a2.08 2.08 0 0 0-.682.857v5.405h-1.355zm8.328-2.915v-.095h1.392v.095c0 .65.217 1.136.651 1.458s1.043.483 1.824.483 1.372-.166 1.787-.498.623-.766.623-1.304c0-.493-.2-.886-.601-1.179s-1.157-.603-2.27-.93c-1.157-.337-1.978-.73-2.461-1.179s-.725-1.089-.725-1.919a2.64 2.64 0 0 1 .945-2.073c.634-.552 1.511-.827 2.629-.827s2.007.29 2.666.871.989 1.316.989 2.219v.088h-1.392v-.088c0-.571-.19-1.03-.571-1.377s-.945-.52-1.692-.52-1.306.149-1.663.447-.534.706-.534 1.223c0 .464.183.833.549 1.106s1.118.564 2.256.886 1.963.726 2.475 1.209c.518.483.777 1.162.777 2.036a2.68 2.68 0 0 1-1.018 2.161c-.679.561-1.602.842-2.769.842s-2.104-.281-2.812-.842-1.055-1.326-1.055-2.293zm9.251.191v-4.959h1.354v4.973c0 .62.137 1.062.411 1.326s.664.396 1.172.396c.434 0 .817-.118 1.149-.352s.591-.537.777-.908v-5.435h1.355v7.683h-1.223l-.059-.988h-.044c-.278.351-.618.629-1.018.835a2.94 2.94 0 0 1-1.333.3c-.771 0-1.389-.22-1.853-.659s-.688-1.177-.688-2.212zm8.378 5.779v-10.738h1.224l.058 1.004h.044c.191-.318.486-.589.886-.813.406-.225.877-.337 1.414-.337.976 0 1.755.366 2.336 1.098s.872 1.651.872 2.769v.234c0 1.123-.291 2.051-.872 2.783s-1.36 1.092-2.336 1.092c-.537 0-.994-.095-1.37-.286s-.676-.452-.901-.769v3.963h-1.355zm1.355-5.333c.152.342.396.647.733.916.342.269.757.403 1.245.403.732 0 1.269-.266 1.611-.798s.513-1.189.513-1.971v-.234c0-.781-.171-1.436-.513-1.963-.342-.532-.879-.798-1.611-.798-.488 0-.903.134-1.245.403-.337.268-.581.573-.733.915v3.127zm7.185 5.333v-10.738h1.224l.058 1.004h.044c.191-.318.486-.589.886-.813.406-.225.877-.337 1.414-.337.977 0 1.755.366 2.336 1.098s.872 1.651.872 2.769v.234c0 1.123-.291 2.051-.872 2.783s-1.359 1.092-2.336 1.092c-.537 0-.994-.095-1.37-.286s-.676-.452-.901-.769v3.963h-1.355zm1.355-5.333c.152.342.396.647.733.916s.757.403 1.245.403c.732 0 1.27-.266 1.611-.798s.513-1.189.513-1.971v-.234c0-.781-.171-1.436-.513-1.963-.341-.532-.879-.798-1.611-.798-.488 0-.903.134-1.245.403s-.581.573-.733.915v3.127zm7.244 2.278V142.46h1.348v11.235h-1.348zm2.864 3.047v-1.15c.122.039.261.071.417.096a3 3 0 0 0 .454.036 1.21 1.21 0 0 0 .894-.388c.254-.259.522-.815.806-1.67v-.007l-2.864-7.647h1.304l1.823 5.069.183.549.14.469h.044l.146-.469.183-.549 1.707-5.069h1.274l-3.12 8.709c-.249.683-.574 1.216-.974 1.596s-.886.572-1.472.572a3.33 3.33 0 0 1-.52-.037c-.152-.024-.293-.061-.425-.11zm-64.087 14.953v-10.664h6.57v1.15h-5.178v3.648h4.453v1.15h-4.453v4.716h-1.392zm8.137 0v-7.683h1.348v7.683h-1.348zm-.168-10.019c0-.225.073-.415.219-.572s.354-.234.623-.234.481.078.623.234.219.347.219.572-.073.422-.219.578-.35.235-.623.235-.476-.078-.623-.235-.219-.349-.219-.578zm3.808 10.019V160.46h1.348v11.235h-1.348zm2.498-6.65v-1.033h4.38v1.033h-4.38zm1.377 4.746v-5.156-.213-2.329h1.347v7.698c0 .347.069.593.206.74s.351.219.644.219a1.87 1.87 0 0 0 .403-.043c.132-.03.264-.069.395-.118v1.106c-.122.059-.285.11-.49.154s-.428.066-.667.066c-.561 0-1.008-.171-1.34-.513s-.498-.879-.498-1.611zm3.984-1.816v-.235c0-1.162.318-2.109.952-2.842s1.475-1.106 2.52-1.106 1.848.345 2.41 1.033.849 1.612.849 2.783v.55h-5.903v-1.077h4.548v-.168c0-.557-.159-1.031-.476-1.421-.312-.396-.769-.594-1.37-.594-.722 0-1.262.274-1.618.821s-.535 1.22-.535 2.021v.235c0 .796.188 1.467.564 2.014s.96.82 1.751.82c.488 0 .908-.107 1.259-.322a2.93 2.93 0 0 0 .85-.762l.872.696c-.24.361-.613.701-1.121 1.018s-1.128.476-1.86.476c-1.192 0-2.105-.366-2.74-1.099s-.952-1.684-.952-2.841zm8.401 3.72v-7.683h1.223l.059.989h.044a3.04 3.04 0 0 1 .761-.842c.318-.244.699-.367 1.143-.367a1.66 1.66 0 0 1 .33.037l.249.066v1.252c-.098-.019-.201-.034-.308-.043a3.81 3.81 0 0 0-.352-.015c-.434 0-.805.115-1.113.344s-.534.515-.681.857v5.405h-1.355zm5.164 0v-7.683h1.347v7.683h-1.347zm-.169-10.019c0-.225.073-.415.22-.572s.354-.234.622-.234c.274 0 .481.078.623.234a.81.81 0 0 1 .22.572c0 .229-.074.422-.22.578s-.349.235-.623.235c-.268 0-.476-.078-.622-.235a.81.81 0 0 1-.22-.578zm3.75 10.019v-7.683h1.223l.059.989h.044c.273-.352.61-.627 1.011-.828s.852-.307 1.34-.307c.771 0 1.387.219 1.846.659s.695 1.177.695 2.212v4.958h-1.355v-4.973c0-.615-.139-1.055-.417-1.318-.273-.269-.664-.403-1.172-.403a1.94 1.94 0 0 0-1.15.352c-.327.234-.583.537-.769.908v5.434h-1.355zm8.13 2.088l.85-1.018c.215.249.517.468.908.659s.83.285 1.318.285c.655 0 1.172-.188 1.553-.563s.571-.909.571-1.597v-.762a2.46 2.46 0 0 1-.908.769c-.376.191-.83.286-1.362.286-.977 0-1.758-.364-2.344-1.092s-.872-1.657-.872-2.775v-.235c0-1.123.291-2.048.872-2.776s1.367-1.098 2.344-1.098c.532 0 .998.112 1.399.337s.705.495.901.813h.043l.059-1.004h1.216v7.537c0 1.074-.317 1.899-.952 2.475s-1.465.865-2.49.865c-.63 0-1.214-.105-1.751-.315-.532-.21-.984-.474-1.355-.791zm1.099-5.808c0 .781.168 1.438.505 1.97s.879.791 1.611.791c.489 0 .904-.134 1.246-.403s.588-.574.739-.916v-3.127c-.151-.342-.398-.647-.739-.915s-.757-.403-1.246-.403c-.732 0-1.269.266-1.611.798s-.505 1.189-.505 1.97v.235z"/></g><g class="B"><g stroke="#c3c3c3"><rect x="804.575" y="488.539" width="125.784" height="59.461" rx="5" transform="rotate(90 804.575 488.539)"/><rect x="898.72" y="488.539" width="125.784" height="73.998" rx="5" transform="rotate(90 898.72 488.539)"/><rect x="200.881" y="222.432" width="67.833" height="149.262" rx="5" transform="rotate(90 200.881 222.432)"/><rect x="200.881" y="122.073" width="67.833" height="149.262" rx="5" transform="rotate(90 200.881 122.073)"/></g></g><g class="C"><path d="M756 560.205v-10.664h3.457c1.137 0 2.014.285 2.629.856s.93 1.331.93 2.278-.31 1.707-.93 2.293-1.492.879-2.629.879h-2.066v4.358H756zm1.391-5.486h2.066c.81 0 1.372-.198 1.684-.594s.476-.883.476-1.45-.159-1.047-.476-1.428-.874-.571-1.684-.571h-2.066v4.043zm4.636 5.486l-2.607-4.922 1.384-.213 2.776 5.135h-1.553zm3.084 0v-10.664h6.57v1.149h-5.179v3.648h4.454v1.15h-4.454v4.717h-1.391zm8.232 0v-10.664h1.802l3.164 8.034.161.462.139.454h.059l.132-.454.168-.462 3.157-8.034h1.802v10.664h-1.348V552.5l.007-.499.037-.498h-.059c-.029.147-.073.313-.131.498l-.176.499-3.032 7.705h-1.209l-3.032-7.705-.176-.499-.132-.498h-.058c.019.147.031.313.036.498l.008.499v7.705h-1.319zm13.067 0v-10.664h1.45l4.819 7.492.271.44a4.35 4.35 0 0 1 .22.41h.059l-.015-.491v-.505-7.346h1.362v10.664h-1.45l-4.819-7.5-.271-.44-.227-.403h-.052l.008.498.007.491v7.354h-1.362zm66.054-7.095v-10.664h3.457c1.137 0 2.014.286 2.629.857s.93 1.331.93 2.278-.31 1.707-.93 2.293-1.492.878-2.629.878h-2.066v4.358h-1.391zm1.391-5.485h2.066c.81 0 1.372-.198 1.684-.594.318-.4.476-.884.476-1.45s-.158-1.047-.476-1.428c-.312-.381-.874-.571-1.684-.571h-2.066v4.043zm4.637 5.485l-2.608-4.922 1.384-.212 2.776 5.134h-1.552zm3.083 0v-10.664h6.57v1.15h-5.178v3.648h4.453v1.15h-4.453v4.716h-1.392zm-21.533 15.085v-.095h1.391v.095c0 .65.218 1.136.652 1.458s1.043.483 1.824.483 1.372-.166 1.787-.498.623-.766.623-1.304c0-.493-.2-.886-.601-1.179s-1.157-.603-2.27-.93c-1.158-.337-1.978-.73-2.461-1.179s-.725-1.089-.725-1.919a2.64 2.64 0 0 1 .944-2.073c.635-.552 1.512-.827 2.63-.827s2.007.29 2.666.871.989 1.316.989 2.219v.088h-1.392v-.088c0-.571-.19-1.03-.571-1.377s-.945-.52-1.692-.52-1.306.149-1.663.447-.534.706-.534 1.223c0 .464.183.833.549 1.106s1.118.564 2.256.887 1.963.725 2.475 1.208c.518.483.777 1.162.777 2.036a2.68 2.68 0 0 1-1.018 2.161c-.679.561-1.602.842-2.769.842s-2.104-.281-2.812-.842-1.055-1.326-1.055-2.293zm8.43-4.768h1.304l1.421 5.061.124.476.11.476h.044l.103-.476.146-.476 1.67-5.061h1.142l1.722 5.061.146.476.11.476h.044l.095-.476.125-.476 1.377-5.061h1.237l-2.373 7.683h-1.054l-1.678-4.98-.183-.579-.153-.586h-.044l-.154.586-.176.579-1.677 4.98h-1.062l-2.366-7.683zm12.239 7.683v-7.683h1.347v7.683h-1.347zm-.169-10.019c0-.225.074-.415.22-.571s.354-.235.623-.235.481.078.622.235a.8.8 0 0 1 .22.571.81.81 0 0 1-.22.578c-.141.157-.349.235-.622.235s-.476-.078-.623-.235-.22-.349-.22-.578zm2.674 3.369v-1.033h4.38v1.033h-4.38zm1.377 4.746v-5.156-.213-2.329h1.347v7.698c0 .347.069.593.205.74s.352.22.645.22a1.87 1.87 0 0 0 .403-.044c.132-.03.263-.069.395-.118v1.106c-.122.059-.285.11-.49.154a3.19 3.19 0 0 1-.667.066c-.561 0-1.008-.171-1.34-.513s-.498-.879-.498-1.611zm3.984-1.816v-.235c0-1.162.315-2.109.945-2.842s1.496-1.105 2.6-1.105c1.02 0 1.797.275 2.329.827s.798 1.17.798 1.853v.044h-1.311v-.044c0-.415-.144-.781-.432-1.098s-.749-.477-1.384-.477c-.737 0-1.282.274-1.633.821s-.528 1.22-.528 2.021v.235c0 .796.176 1.467.528 2.014s.896.82 1.633.82c.635 0 1.096-.159 1.384-.476s.432-.684.432-1.099v-.044h1.311v.044c0 .684-.266 1.302-.798 1.853s-1.309.828-2.329.828c-1.104 0-1.97-.366-2.6-1.099s-.945-1.684-.945-2.841zm8.254 3.72v-11.235h1.355v4.504c.269-.332.613-.598 1.033-.798a3.16 3.16 0 0 1 1.377-.3c.713 0 1.299.219 1.758.659s.696 1.177.696 2.212v4.958h-1.355v-4.973c0-.615-.139-1.054-.418-1.318-.273-.269-.664-.403-1.172-.403a1.94 1.94 0 0 0-1.15.352c-.332.234-.588.537-.769.908v5.434h-1.355zm80.374-18v-10.664h3.457c1.138 0 2.014.286 2.629.857s.931 1.331.931 2.278-.311 1.707-.931 2.293-1.491.878-2.629.878h-2.065v4.358h-1.392zm1.392-5.485h2.065c.811 0 1.372-.198 1.685-.594s.476-.884.476-1.45-.159-1.047-.476-1.428-.874-.571-1.685-.571h-2.065v4.043zm4.636 5.485l-2.608-4.922 1.385-.212 2.776 5.134h-1.553zm3.083 0v-10.664h6.57v1.15h-5.178v3.648h4.453v1.15h-4.453v4.716h-1.392zm-10.869 13.005v-.674c0-1.645.42-2.924 1.26-3.837s1.916-1.377 3.23-1.377 2.388.459 3.223 1.377 1.259 2.192 1.259 3.837v.674c0 1.646-.42 2.927-1.259 3.845s-1.91 1.37-3.223 1.37-2.39-.456-3.23-1.37-1.26-2.199-1.26-3.845zm1.414 0c0 1.26.28 2.246.842 2.959s1.306 1.062 2.234 1.062 1.672-.354 2.234-1.062.842-1.699.842-2.959v-.674c0-1.259-.281-2.243-.842-2.951a2.7 2.7 0 0 0-2.234-1.07 2.7 2.7 0 0 0-2.234 1.07c-.562.708-.842 1.692-.842 2.951v.674zm9.404 2.271v-4.959h1.355v4.973c0 .621.137 1.062.41 1.326s.664.396 1.172.396c.435 0 .818-.118 1.15-.352s.591-.537.776-.908v-5.435h1.355v7.683h-1.223l-.058-.988h-.044c-.279.351-.618.629-1.018.835-.401.2-.845.3-1.333.3-.772 0-1.39-.22-1.854-.659-.458-.44-.688-1.177-.688-2.212zm7.302-3.926v-1.033h4.38v1.033h-4.38zm1.377 4.746v-5.156-.213-2.329h1.348v7.698c0 .347.068.593.205.74s.352.22.644.22a1.87 1.87 0 0 0 .403-.044 3.13 3.13 0 0 0 .396-.118v1.106c-.122.059-.286.11-.491.154s-.427.066-.666.066c-.562 0-1.009-.171-1.341-.513s-.498-.879-.498-1.611z"/></g><g class="B D"><use href="#C"/><use href="#D" transform="matrix(0 -1 -1 0 356.829 231.994)"/><path d="M375.999 655.521v121.696"/><use href="#D" transform="matrix(0 -1 -1 0 412.947 231.994)"/><path d="M503.623 655.521v121.696"/><use href="#D" transform="matrix(0 -1 -1 0 521.986 231.994)"/><path d="M559.742 655.521v121.696"/><use href="#D" transform="matrix(0 -1 -1 0 578.104 231.994)"/><path d="M330.742 762.299v29.05"/><path transform="matrix(0 -1 -1 0 367.69 125.216)" d="M0-1h29.05"/></g><g fill="#d9d9d9"><path d="M335.173 762.299h27.154v29.05h-27.154z"/><use href="#E"/></g><g class="B D"><path d="M366.947 762.299v29.05"/><path transform="matrix(0 -1 -1 0 403.896 125.216)" d="M0-1h29.05"/><path d="M514.485 762.299v29.05"/><path transform="matrix(0 -1 -1 0 532.848 125.216)" d="M0-1h29.05"/></g><g fill="#d9d9d9"><path d="M518.916 762.299h27.154v29.05h-27.154zm19.363-637.083h27.154v-29.05h-27.154z"/></g><g class="B D"><path d="M550.69 762.299v29.05"/><path transform="matrix(0 -1 -1 0 569.054 125.216)" d="M0-1h29.05"/><path d="M329.742 778.216h-10.861"/><use href="#F"/><path d="M376.81 778.216h-10.862m48.81-668.917h-10.862m109.589 668.917h-10.861m30.224-668.917h-10.862m38.566 668.917H549.69m30.225-668.917h-10.862"/></g><g class="C"><path d="M297.805 819.841v-.073h1.348v.073c0 .591.195 1.047.586 1.369s.913.484 1.553.484 1.159-.161 1.545-.484.586-.827.586-1.516c0-.683-.22-1.198-.659-1.545s-1.018-.527-1.751-.527h-.842v-1.114h.769c.674 0 1.194-.163 1.56-.49s.557-.787.557-1.377-.161-1.031-.484-1.319c-.317-.288-.744-.432-1.281-.432-.567 0-1.016.144-1.348.432s-.498.703-.498 1.245v.074h-1.348v-.074a2.63 2.63 0 0 1 .879-1.999c.591-.552 1.362-.828 2.315-.828.927 0 1.684.264 2.27.791s.886 1.206.886 2.036c0 .494-.134.965-.403 1.414s-.686.789-1.252 1.033v.029c.615.156 1.108.466 1.479.93s.557 1.035.557 1.714c0 .981-.334 1.753-1.003 2.314s-1.509.843-2.534.843c-1.08 0-1.932-.281-2.557-.843s-.93-1.281-.93-2.16zm8.643 2.783v-1.018l3.794-4.109c.508-.537.891-1.013 1.15-1.428s.388-.874.388-1.362c0-.494-.166-.918-.498-1.275s-.784-.542-1.37-.542-1.081.193-1.487.579c-.4.381-.6.915-.6 1.604v.073h-1.377v-.073c0-.977.332-1.775.996-2.395s1.487-.938 2.468-.938c.972 0 1.755.288 2.351.864s.894 1.248.894 2.029c0 .694-.196 1.324-.586 1.89s-.857 1.14-1.414 1.736l-2.988 3.164h5.281v1.201h-7.002zm8.796-.747a.92.92 0 0 1 .242-.645c.166-.175.4-.263.703-.263s.535.088.696.263.249.391.249.645a.91.91 0 0 1-.249.644c-.166.18-.393.264-.696.264s-.537-.088-.703-.264-.242-.395-.242-.644zm5.2.747l4.08-9.492h-5.654v-1.172h7.104v.762l-4.101 9.902h-1.429zm6.922-4.497v-.22c0-1.855.5-3.347 1.501-4.475s2.432-1.692 4.278-1.692h.146v1.15h-.146c-1.368 0-2.444.398-3.23 1.194s-1.18 2.041-1.18 3.75v.366c0 1.27.223 2.171.667 2.703.449.527 1.015.791 1.699.791s1.213-.215 1.589-.645.564-1.037.564-1.823-.188-1.385-.564-1.809-.905-.638-1.589-.638c-.635 0-1.196.213-1.684.638s-.726 1.027-.726 1.809h-.512c0-1.075.29-1.941.871-2.601s1.367-.996 2.344-.996 1.753.332 2.344.996.893 1.526.893 2.601-.334 1.945-1.003 2.614-1.506 1.004-2.527 1.004a3.57 3.57 0 0 1-2.637-1.114c-.732-.742-1.098-1.943-1.098-3.603zm8.54 1.67c0-.635.173-1.177.52-1.626s.798-.791 1.34-1.011v-.029c-.42-.21-.781-.527-1.084-.952s-.447-.93-.447-1.516c0-.879.303-1.585.909-2.117.605-.537 1.347-.806 2.226-.806s1.616.266 2.212.799c.601.527.901 1.235.901 2.124 0 .59-.149 1.098-.447 1.523-.298.42-.657.735-1.077.945v.029c.547.215.994.549 1.341 1.004s.52.998.52 1.633c0 .967-.332 1.716-.996 2.248s-1.482.799-2.454.799-1.792-.266-2.461-.799-1.003-1.281-1.003-2.248zm1.362-.073c0 .59.19 1.067.571 1.428s.896.542 1.531.542 1.14-.181 1.516-.542.572-.838.572-1.428-.191-1.07-.572-1.436-.881-.549-1.516-.549-1.145.183-1.531.549c-.381.366-.571.845-.571 1.436zm.308-4.988c0 .537.163.981.49 1.333s.767.527 1.304.527.967-.176 1.289-.527.491-.796.491-1.333-.164-.984-.491-1.326-.752-.52-1.289-.52-.972.173-1.304.52-.49.784-.49 1.326zm10.722 7.888v-11.235h1.355v7.09l3.282-3.538h1.538l-4.82 5.12v2.563h-1.355zm4.952 0l-2.996-3.977.842-.93 3.728 4.907h-1.574zm2.709 0V811.96h1.392v4.592h5.369v-4.592h1.391v10.664h-1.391v-4.929h-5.369v4.929h-1.392zm9.903 0v-.989l4.409-5.588h-4.351v-1.106h5.977v.967l-4.424 5.61h4.636v1.106h-6.247zm10.539 0l3.824-5.903h.102l2.901-4.761h1.538l-3.641 5.749h-.102l-3.084 4.915h-1.538zm.183-10.664h1.568l2.9 4.761h.073l3.824 5.903h-1.568l-3.083-4.915h-.073l-3.641-5.749zm9.192 5.669v-.674c0-1.645.42-2.925 1.26-3.838s1.917-1.377 3.23-1.377 2.388.459 3.223 1.377 1.26 2.193 1.26 3.838v.674c0 1.645-.42 2.927-1.26 3.845s-1.909 1.37-3.223 1.37-2.39-.457-3.23-1.37-1.26-2.2-1.26-3.845zm1.414 0c0 1.26.281 2.246.842 2.959s1.306 1.062 2.234 1.062 1.672-.354 2.234-1.062.842-1.699.842-2.959v-.674c0-1.26-.28-2.244-.842-2.952s-1.306-1.069-2.234-1.069-1.672.357-2.234 1.069-.842 1.692-.842 2.952v.674zM335.751 65.265v-.073h1.348v.073c0 .591.195 1.047.586 1.37s.913.483 1.553.483 1.159-.161 1.545-.483.586-.828.586-1.516-.22-1.199-.659-1.546-1.018-.527-1.751-.527h-.842v-1.113h.769c.674 0 1.194-.164 1.56-.491s.557-.786.557-1.377-.161-1.03-.483-1.318-.745-.432-1.282-.432c-.567 0-1.016.144-1.348.432s-.498.703-.498 1.245v.073h-1.348v-.073a2.63 2.63 0 0 1 .879-2c.591-.552 1.363-.828 2.315-.828.928 0 1.684.264 2.27.791.591.527.887 1.206.887 2.036a2.72 2.72 0 0 1-.403 1.414c-.269.444-.686.789-1.253 1.033v.029c.615.156 1.109.466 1.48.93s.556 1.035.556 1.714c0 .981-.334 1.753-1.003 2.314s-1.509.842-2.534.842c-1.079 0-1.931-.281-2.556-.842s-.931-1.282-.931-2.161zm8.643 2.783V67.03l3.794-4.109c.508-.537.891-1.013 1.15-1.428.259-.42.388-.874.388-1.362a1.81 1.81 0 0 0-.498-1.274c-.332-.356-.784-.542-1.37-.542s-1.081.193-1.486.579-.601.916-.601 1.604v.073h-1.377v-.073c0-.977.332-1.775.996-2.395s1.487-.937 2.468-.937c.972 0 1.756.288 2.351.864s.894 1.248.894 2.029a3.25 3.25 0 0 1-.586 1.89 15.12 15.12 0 0 1-1.413 1.736l-2.989 3.164h5.281v1.201h-7.002zm8.796-.747a.92.92 0 0 1 .242-.645c.166-.176.401-.264.703-.264s.535.088.696.264.249.391.249.645a.92.92 0 0 1-.249.645c-.161.176-.393.264-.696.264s-.537-.088-.703-.264-.242-.396-.242-.645zm7.002.747v-9.133l-2.695 1.128v-1.348l3.86-1.458h.227v10.81h-1.392zm5.12-4.497v-.22c0-1.855.5-3.347 1.501-4.475s2.432-1.692 4.278-1.692h.146v1.15h-.146c-1.367 0-2.444.398-3.23 1.194s-1.179 2.041-1.179 3.75v.366c0 1.27.222 2.17.666 2.703a2.11 2.11 0 0 0 1.699.791c.683 0 1.214-.215 1.59-.645s.564-1.038.564-1.824-.188-1.384-.564-1.809-.906-.637-1.59-.637a2.49 2.49 0 0 0-1.684.637c-.484.425-.725 1.028-.725 1.809h-.513c0-1.074.291-1.941.872-2.6s1.367-.996 2.343-.996 1.753.332 2.344.996.894 1.526.894 2.6-.335 1.946-1.004 2.615-1.506 1.004-2.527 1.004a3.57 3.57 0 0 1-2.636-1.113c-.733-.742-1.099-1.943-1.099-3.603zm8.54 1.67c0-.635.173-1.177.52-1.626a3.17 3.17 0 0 1 1.34-1.011v-.029a2.95 2.95 0 0 1-1.084-.952c-.297-.425-.446-.93-.446-1.516 0-.879.302-1.584.908-2.117s1.348-.806 2.226-.806 1.617.266 2.212.798c.601.527.901 1.235.901 2.124 0 .591-.149 1.099-.447 1.523s-.656.735-1.076.945v.029a3.06 3.06 0 0 1 1.34 1.003c.347.454.52.999.52 1.633 0 .967-.332 1.716-.996 2.249s-1.482.798-2.454.798-1.792-.266-2.461-.798-1.003-1.282-1.003-2.249zm1.362-.073c0 .591.191 1.067.572 1.428s.896.542 1.53.542 1.141-.181 1.517-.542.571-.837.571-1.428-.191-1.069-.571-1.436-.882-.549-1.517-.549-1.145.183-1.53.549-.572.845-.572 1.436zm.308-4.988c0 .537.164.981.491 1.333s.766.527 1.303.527.967-.176 1.289-.527c.328-.352.491-.796.491-1.333s-.163-.984-.491-1.326c-.322-.347-.751-.52-1.289-.52s-.971.173-1.303.52c-.327.342-.491.784-.491 1.326zm10.723 7.888V56.813h1.355v7.09l3.281-3.538h1.538l-4.819 5.12v2.563h-1.355zm4.951 0l-2.996-3.977.842-.93 3.729 4.907h-1.575zm2.71 0V57.384h1.391v4.592h5.369v-4.592h1.392v10.664h-1.392v-4.929h-5.369v4.929h-1.391zm9.902 0v-.989l4.409-5.588h-4.35v-1.106h5.976v.967l-4.424 5.61h4.637v1.106h-6.248zm10.54 0l3.823-5.903h.102l2.901-4.761h1.538l-3.64 5.749h-.103l-3.083 4.914h-1.538zm.183-10.664h1.567l2.901 4.761h.073l3.823 5.903h-1.567l-3.084-4.914h-.073l-3.64-5.749zm9.192 5.669v-.674c0-1.645.42-2.925 1.259-3.838s1.917-1.377 3.23-1.377 2.388.459 3.223 1.377 1.26 2.192 1.26 3.838v.674c0 1.646-.42 2.927-1.26 3.845s-1.909 1.37-3.223 1.37-2.39-.457-3.23-1.37-1.259-2.2-1.259-3.845zm1.413 0c0 1.26.281 2.246.843 2.959s1.306 1.062 2.233 1.062 1.673-.354 2.234-1.062.843-1.699.843-2.959v-.674c0-1.26-.281-2.244-.843-2.952s-1.306-1.069-2.234-1.069-1.672.356-2.233 1.069-.843 1.692-.843 2.952v.674zm60.93 756.788v-.073h1.348v.073c0 .591.195 1.047.586 1.369s.913.484 1.552.484c.645 0 1.16-.161 1.546-.484s.586-.827.586-1.516c0-.683-.22-1.198-.66-1.545-.434-.352-1.018-.527-1.75-.527h-.842v-1.114h.769c.674 0 1.194-.163 1.56-.49s.556-.787.556-1.377-.161-1.031-.483-1.319-.745-.432-1.282-.432c-.566 0-1.015.144-1.347.432s-.498.703-.498 1.245v.074h-1.348v-.074a2.63 2.63 0 0 1 .879-1.999c.591-.552 1.362-.828 2.314-.828.928 0 1.685.264 2.271.791s.886 1.206.886 2.036c0 .494-.134.965-.403 1.414s-.686.789-1.252 1.033v.029c.615.156 1.108.466 1.479.93s.557 1.035.557 1.714c0 .981-.335 1.753-1.004 2.314s-1.508.843-2.534.843c-1.079 0-1.931-.281-2.556-.843s-.93-1.281-.93-2.16zm8.642 2.783v-1.018l3.794-4.109c.508-.537.892-1.013 1.15-1.428a2.55 2.55 0 0 0 .389-1.362 1.8 1.8 0 0 0-.499-1.275c-.327-.361-.783-.542-1.369-.542s-1.082.193-1.487.579c-.4.381-.601.915-.601 1.604v.073h-1.377v-.073c0-.977.333-1.775.997-2.395s1.486-.938 2.468-.938c.972 0 1.755.288 2.351.864s.893 1.248.893 2.029c0 .694-.195 1.324-.585 1.89s-.857 1.14-1.414 1.736l-2.988 3.164h5.28v1.201h-7.002zm12.51 0V811.96h1.802l3.164 8.035.161.461.139.454h.059l.132-.454.168-.461L516 811.96h1.802v10.664h-1.348v-7.705l.007-.498.037-.498h-.059c-.029.146-.073.312-.131.498l-.176.498-3.032 7.705h-1.209l-3.032-7.705-.176-.498-.132-.498h-.058a4.92 4.92 0 0 1 .036.498l.008.498v7.705h-1.319zm13.067 0V811.96h1.391v4.592h5.369v-4.592h1.392v10.664h-1.392v-4.929h-5.369v4.929h-1.391zm9.902 0v-.989l4.409-5.588h-4.35v-1.106h5.976v.967l-4.424 5.61h4.637v1.106h-6.248zm10.247-9.514v-1.15h8.232v1.15h-3.42v9.514h-1.392v-9.514h-3.42zm9.038 4.519v-.674c0-1.645.42-2.925 1.259-3.838s1.893-1.377 3.157-1.377 2.256.347 2.974 1.04a3.37 3.37 0 0 1 1.076 2.52v.073h-1.398v-.073c0-.684-.22-1.248-.66-1.692-.434-.449-1.098-.674-1.992-.674a2.72 2.72 0 0 0-2.16.989c-.562.659-.843 1.67-.843 3.032v.674c0 1.255.281 2.239.843 2.952s1.281 1.069 2.16 1.069c.84 0 1.475-.227 1.904-.681s.677-1.016.74-1.685l.008-.073h1.398l-.007.081c-.098.976-.481 1.813-1.15 2.512-.664.693-1.628 1.04-2.893 1.04s-2.324-.457-3.164-1.37-1.252-2.2-1.252-3.845zm9.272 4.995l3.823-5.903h.103l2.9-4.761h1.538l-3.64 5.749h-.102l-3.084 4.915h-1.538zm.183-10.664h1.568l2.9 4.761h.073l3.824 5.903h-1.568l-3.083-4.915h-.074l-3.64-5.749zm9.192 5.669v-.674c0-1.645.42-2.925 1.26-3.838s1.916-1.377 3.23-1.377 2.388.459 3.223 1.377 1.259 2.193 1.259 3.838v.674c0 1.645-.42 2.927-1.259 3.845s-1.91 1.37-3.223 1.37-2.39-.457-3.23-1.37-1.26-2.2-1.26-3.845zm1.414 0c0 1.26.28 2.246.842 2.959s1.306 1.062 2.234 1.062 1.672-.354 2.234-1.062.842-1.699.842-2.959v-.674c0-1.26-.281-2.244-.842-2.952a2.71 2.71 0 0 0-2.234-1.069c-.928 0-1.672.357-2.234 1.069s-.842 1.692-.842 2.952v.674zM514.488 65.265v-.073h1.347v.073c0 .591.196 1.047.586 1.37.396.322.913.483 1.553.483s1.16-.161 1.546-.483.585-.828.585-1.516-.219-1.199-.659-1.546c-.434-.352-1.018-.527-1.75-.527h-.842v-1.113h.769c.673 0 1.193-.164 1.56-.491s.556-.786.556-1.377-.161-1.03-.483-1.318-.745-.432-1.282-.432c-.566 0-1.016.144-1.348.432s-.498.703-.498 1.245v.073h-1.347v-.073a2.63 2.63 0 0 1 .879-2c.59-.552 1.362-.828 2.314-.828.928 0 1.685.264 2.271.791s.886 1.206.886 2.036a2.71 2.71 0 0 1-.403 1.414c-.269.444-.686.789-1.252 1.033v.029c.615.156 1.108.466 1.479.93s.557 1.035.557 1.714c0 .981-.335 1.753-1.004 2.314s-1.508.842-2.534.842c-1.079 0-1.931-.281-2.556-.842s-.93-1.282-.93-2.161zm8.642 2.783V67.03l3.794-4.109c.508-.537.891-1.013 1.15-1.428.259-.42.388-.874.388-1.362a1.81 1.81 0 0 0-.498-1.274c-.332-.356-.783-.542-1.369-.542s-1.082.193-1.487.579c-.4.381-.601.916-.601 1.604v.073h-1.377v-.073c0-.977.332-1.775.996-2.395s1.487-.937 2.469-.937c.971 0 1.755.288 2.351.864s.893 1.248.893 2.029a3.25 3.25 0 0 1-.586 1.89 15.03 15.03 0 0 1-1.413 1.736l-2.988 3.164h5.28v1.201h-7.002zm12.51 0V57.384h1.802l3.164 8.035.161.462.139.454h.059l.132-.454.168-.462 3.157-8.035h1.802v10.664h-1.348v-7.705l.007-.498.037-.498h-.059a4.64 4.64 0 0 1-.132.498l-.175.498-3.033 7.705h-1.208l-3.032-7.705-.176-.498-.132-.498h-.058a4.94 4.94 0 0 1 .036.498l.007.498v7.705h-1.318zm13.067 0V57.384h1.391v4.592h5.369v-4.592h1.391v10.664h-1.391v-4.929h-5.369v4.929h-1.391zm9.902 0v-.989l4.409-5.588h-4.351v-1.106h5.977v.967l-4.424 5.61h4.636v1.106h-6.247zm10.539 0l3.824-5.903h.102l2.901-4.761h1.538l-3.64 5.749h-.103l-3.083 4.914h-1.539zm.184-10.664h1.567l2.9 4.761h.074l3.823 5.903h-1.568l-3.083-4.914h-.073l-3.64-5.749zm9.191 5.669v-.674c0-1.645.42-2.925 1.26-3.838s1.917-1.377 3.23-1.377 2.388.459 3.223 1.377 1.26 2.192 1.26 3.838v.674c0 1.646-.42 2.927-1.26 3.845s-1.909 1.37-3.223 1.37-2.39-.457-3.23-1.37-1.26-2.2-1.26-3.845zm1.414 0c0 1.26.281 2.246.842 2.959s1.306 1.062 2.234 1.062 1.673-.354 2.234-1.062.842-1.699.842-2.959v-.674c0-1.26-.28-2.244-.842-2.952s-1.306-1.069-2.234-1.069a2.7 2.7 0 0 0-2.234 1.069c-.561.708-.842 1.692-.842 2.952v.674z"/></g><g fill="#e6e6e6"><use href="#G"/><path d="M165.558 572.798l10 5.774v-11.547l-10 5.773zm106.298 0l-10-5.773v11.547l10-5.774zm-97.298 0v1h88.298v-1-1h-88.298v1zm291.319-94.684l5.773-10h-11.547l5.774 10zm0-106.298l-5.774 10h11.547l-5.773-10zm0 97.298h1v-88.298h-1-1v88.298h1zm-300.319 128.85l10 5.773V592.19l-10 5.774zm106.298 0l-10-5.774v11.547l10-5.773zm-97.298 0v1h88.298v-1-1h-88.298v1zm687.163-110.425l5.773-10h-11.547l5.774 10zm0-9h1v-17.042h-1-1v17.042h1z"/></g><g class="B D"><use href="#H"/><use href="#H"/><use href="#H"/><path d="M861.721 462.402h-146.39m41.394-162.465h-146.39m213.388 202.867h-18.146M331.061 257.381h-129.18m69.974 281.729H126.249"/><path d="M126.251 289.947V539.11m204.81-218.504H307.73m23.331-24.528h-44.846m0 151.262V296.078M307.73 447.34V320.607m-181.479-99.175v-30.526m617.863 377.758h-28.783m28.783 34.435h-28.783m108.392 0h-18.146"/><path d="M823.723 551.782h-18.146m122.886 0h-28.737"/></g><path d="M117.273 635.562v-.674c0-1.685.432-2.974 1.297-3.867s1.977-1.341 3.34-1.341c1.318 0 2.358.349 3.12 1.048s1.142 1.577 1.142 2.636v.154h-1.977v-.176c0-.654-.191-1.169-.572-1.545s-.957-.571-1.728-.571-1.399.278-1.882.835c-.484.551-.726 1.438-.726 2.658v1.011c0 1.133.237 1.999.711 2.6s1.118.894 1.919.894c.732 0 1.282-.198 1.648-.594.371-.395.578-.905.622-1.53l.008-.162h1.977l-.007.162c-.064 1.049-.459 1.923-1.187 2.622s-1.75 1.047-3.068 1.047c-1.368 0-2.483-.449-3.348-1.348-.859-.898-1.289-2.185-1.289-3.859zm9.917 1.259v-.234c0-1.191.354-2.146 1.062-2.864s1.646-1.084 2.798-1.084 2.083.361 2.791 1.084 1.062 1.673 1.062 2.864v.234c0 1.197-.354 2.156-1.062 2.879-.708.717-1.638 1.076-2.791 1.076s-2.085-.359-2.798-1.076c-.708-.723-1.062-1.682-1.062-2.879zm1.949-.315v.396c0 .742.163 1.328.49 1.758s.801.644 1.421.644c.615 0 1.087-.215 1.414-.644s.49-1.016.49-1.758v-.396c0-.737-.166-1.32-.498-1.75-.327-.43-.795-.645-1.406-.645s-1.089.215-1.421.645c-.327.43-.49 1.013-.49 1.75zm7.316 4.051v-7.698h1.788l.051.923h.044c.239-.337.552-.598.937-.784s.803-.286 1.253-.286c.532 0 .991.11 1.377.33.39.215.678.544.864.989h.037c.278-.445.632-.774 1.062-.989.434-.22.903-.33 1.406-.33.781 0 1.404.235 1.867.704.469.468.704 1.252.704 2.351v4.79h-1.912v-4.878c0-.513-.107-.887-.322-1.121s-.528-.351-.938-.351c-.356-.005-.669.092-.937.293s-.479.468-.63.805v5.252h-1.912v-4.864c0-.517-.11-.893-.329-1.128s-.53-.358-.945-.358c-.357 0-.667.097-.93.293s-.474.463-.63.805v5.252h-1.905zm13.301 0v-7.698h1.787l.052.923h.044c.239-.337.551-.598.937-.784s.803-.286 1.252-.286c.533 0 .992.11 1.377.33.391.215.679.544.865.989h.036c.279-.445.633-.774 1.062-.989.435-.22.904-.33 1.407-.33.781 0 1.403.235 1.867.704s.703 1.252.703 2.351v4.79h-1.911v-4.878c0-.513-.108-.887-.323-1.121s-.527-.351-.937-.351c-.356-.005-.669.092-.938.293s-.478.468-.629.805v5.252h-1.912v-4.864c0-.517-.11-.893-.33-1.128-.214-.239-.529-.358-.944-.358-.357 0-.667.097-.931.293a2.02 2.02 0 0 0-.629.805v5.252h-1.905zm13.228-2.901v-4.797h1.911v4.841c0 .562.118.955.352 1.179s.559.337.974.337c.366 0 .691-.102.974-.307a2.04 2.04 0 0 0 .645-.791v-5.259h1.911v7.698h-1.794l-.051-.909h-.037c-.244.328-.564.586-.959.777-.396.185-.838.278-1.326.278-.772 0-1.399-.232-1.882-.696s-.718-1.252-.718-2.351zm8.745 2.901v-7.698h1.787l.051.908h.044c.225-.317.535-.574.93-.769s.833-.293 1.311-.293c.787 0 1.421.225 1.905.674.488.444.732 1.213.732 2.307v4.871h-1.904v-4.915c0-.522-.115-.891-.344-1.106s-.555-.329-.975-.329a1.7 1.7 0 0 0-.966.293 1.91 1.91 0 0 0-.667.798v5.259h-1.904zm8.708 0v-7.698h1.912v7.698h-1.912zm-.175-9.91c0-.293.097-.54.293-.74.195-.205.476-.307.842-.307s.639.102.835.307c.2.2.3.447.3.74s-.1.549-.3.754-.476.301-.842.301-.64-.1-.835-.301-.293-.456-.293-.754zm3.676 6.174v-.234c0-1.196.345-2.153 1.033-2.871s1.609-1.077 2.761-1.077c1.089 0 1.917.278 2.483.835s.872 1.204.901 1.941l.007.103h-1.853v-.074a1.34 1.34 0 0 0-.38-.966c-.254-.264-.643-.396-1.165-.396-.615 0-1.077.225-1.384.674s-.454 1.033-.454 1.75v.396c0 .718.149 1.304.446 1.758.303.449.767.673 1.392.673.552 0 .947-.136 1.186-.41s.359-.598.359-.959v-.066h1.846v.073c0 .737-.293 1.389-.879 1.956-.581.566-1.416.849-2.505.849-1.152 0-2.072-.359-2.761-1.076-.688-.723-1.033-1.682-1.033-2.879zm8.182 1.472c0-.835.322-1.467.966-1.897.65-.429 1.468-.646 2.454-.651h1.582v-.469c0-.381-.1-.691-.3-.93s-.54-.359-1.033-.359-.852.1-1.062.3c-.205.195-.308.432-.308.711v.087h-1.882v-.087c0-.665.305-1.224.916-1.678s1.411-.681 2.402-.681c.996 0 1.772.217 2.329.652s.842 1.101.842 2v3.53a4.76 4.76 0 0 0 .081.893c.054.279.127.52.22.725v.118h-1.868c-.059-.118-.112-.269-.161-.454a3.79 3.79 0 0 1-.103-.55c-.156.298-.442.564-.857.799s-.94.351-1.574.351c-.743 0-1.37-.203-1.883-.608s-.761-1.006-.761-1.802zm1.904-.153c0 .371.107.666.322.886s.554.329 1.018.329c.479 0 .891-.156 1.238-.468.347-.318.52-.679.52-1.084v-.857h-1.326c-.591 0-1.035.105-1.333.315s-.439.503-.439.879zm6.013-3.875v-1.406h4.636v1.406h-4.636zm1.223 4.124v-4.783l.007-.212v-2.395h1.89v7.353c0 .352.066.596.198.732.137.137.332.206.586.206.117 0 .234-.013.351-.037s.242-.066.359-.11v1.406c-.117.059-.281.11-.49.154s-.433.066-.682.066c-.669 0-1.206-.19-1.611-.571s-.608-.984-.608-1.809zm4.754 2.168v-7.698h1.911v7.698h-1.911zm-.176-9.91c0-.293.097-.54.293-.74.195-.205.476-.307.842-.307.361 0 .64.102.835.307.2.2.3.447.3.74s-.1.549-.3.754c-.195.201-.476.301-.842.301s-.64-.1-.835-.301-.293-.456-.293-.754zm3.677 6.174v-.234c0-1.191.354-2.146 1.062-2.864s1.645-1.084 2.797-1.084 2.083.361 2.791 1.084 1.062 1.673 1.062 2.864v.234c0 1.197-.354 2.156-1.062 2.879-.708.717-1.638 1.076-2.791 1.076s-2.085-.359-2.797-1.076c-.708-.723-1.062-1.682-1.062-2.879zm1.948-.315v.396c0 .742.163 1.328.49 1.758s.801.644 1.421.644 1.087-.215 1.414-.644.491-1.016.491-1.758v-.396c0-.737-.166-1.32-.498-1.75s-.796-.645-1.407-.645-1.088.215-1.421.645c-.327.43-.49 1.013-.49 1.75zm7.317 4.051v-7.698h1.787l.051.908h.044c.225-.317.535-.574.93-.769s.833-.293 1.311-.293c.786 0 1.421.225 1.904.674.489.444.733 1.213.733 2.307v4.871h-1.904v-4.915c0-.522-.115-.891-.345-1.106s-.554-.329-.974-.329c-.351 0-.674.097-.967.293-.288.195-.51.461-.666.798v5.259h-1.904zm-74.883 18v-10.664h1.97v10.664h-1.97zm4.123 0v-7.698h1.787l.052.908h.044c.224-.317.534-.574.93-.769a2.92 2.92 0 0 1 1.311-.293c.786 0 1.421.225 1.904.674.488.444.733 1.213.733 2.307v4.871h-1.905v-4.915c0-.522-.114-.891-.344-1.106s-.554-.329-.974-.329a1.7 1.7 0 0 0-.967.293c-.288.195-.51.461-.666.798v5.259h-1.905zm7.683-6.292v-1.406h4.637v1.406h-4.637zm1.224 4.124v-4.783l.007-.212v-2.395h1.89v7.353c0 .352.066.596.197.732.137.137.332.206.586.206.117 0 .235-.013.352-.037s.242-.066.359-.11v1.406a2.07 2.07 0 0 1-.491.154 3.25 3.25 0 0 1-.681.066c-.669 0-1.206-.19-1.611-.571s-.608-.984-.608-1.809zm4.284-1.568v-.234c0-1.177.345-2.129 1.033-2.857.693-.727 1.587-1.091 2.681-1.091s1.955.342 2.57 1.026c.616.678.923 1.611.923 2.797v.704h-5.94v-1.26h4.051v-.169c0-.468-.137-.866-.41-1.194s-.667-.49-1.18-.49c-.6 0-1.054.227-1.362.681s-.454 1.045-.454 1.772v.389c0 .722.163 1.311.491 1.765s.818.673 1.472.673c.439 0 .818-.102 1.135-.307s.574-.452.769-.725l1.318.893c-.244.435-.644.808-1.201 1.121-.556.308-1.22.461-1.992.461-1.23 0-2.19-.363-2.878-1.091s-1.026-1.682-1.026-2.864zm8.68 3.736v-7.698h1.794l.051.893h.044a2.52 2.52 0 0 1 .681-.776c.288-.22.618-.33.989-.33.107 0 .215.013.322.037a1.37 1.37 0 0 1 .227.066v1.67c-.088-.02-.183-.034-.285-.044a2.2 2.2 0 0 0-.33-.022c-.366 0-.688.105-.967.315s-.483.471-.615.784v5.105h-1.911zm5.793 0v-8.489c0-.952.264-1.668.791-2.146.527-.484 1.211-.725 2.051-.725a4.58 4.58 0 0 1 .52.029 3.16 3.16 0 0 1 .469.088l-.074 1.428-.315-.051c-.107-.015-.222-.022-.344-.022-.381 0-.676.12-.886.359s-.315.6-.315 1.084v1.326l.007.161v6.958h-1.904zm-1.106-6.292v-1.406h1.824.293 2.365v1.406h-4.482zm5.01 4.028c0-.835.322-1.467.967-1.897s1.467-.646 2.453-.651h1.582v-.469c0-.381-.1-.691-.3-.93-.195-.24-.54-.359-1.033-.359-.498 0-.852.1-1.062.3-.205.195-.307.432-.307.711v.087h-1.883v-.087c0-.665.305-1.224.916-1.678s1.411-.681 2.402-.681 1.773.217 2.329.652c.562.435.843 1.101.843 2v3.53a4.76 4.76 0 0 0 .08.893c.054.279.127.52.22.725v.118h-1.868a2.49 2.49 0 0 1-.161-.454 3.79 3.79 0 0 1-.103-.55c-.156.298-.441.564-.856.799s-.94.351-1.575.351c-.742 0-1.37-.203-1.883-.608-.507-.405-.761-1.006-.761-1.802zm1.904-.153c0 .371.107.666.322.886s.555.329 1.018.329c.479 0 .892-.156 1.238-.468.347-.318.52-.679.52-1.084v-.857h-1.325c-.591 0-1.036.105-1.333.315a1.02 1.02 0 0 0-.44.879zm6.57-1.319v-.234c0-1.196.344-2.153 1.033-2.871s1.608-1.077 2.761-1.077c1.089 0 1.916.278 2.483.835s.871 1.204.901 1.941l.007.103h-1.853v-.074c0-.381-.127-.703-.381-.966s-.642-.396-1.164-.396c-.616 0-1.077.225-1.385.674s-.454 1.033-.454 1.75v.396c0 .718.149 1.304.447 1.758s.767.673 1.392.673c.551 0 .947-.136 1.186-.41a1.43 1.43 0 0 0 .359-.959v-.066h1.846v.073c0 .737-.293 1.389-.879 1.956-.581.566-1.416.849-2.505.849-1.153 0-2.073-.359-2.761-1.076-.689-.723-1.033-1.682-1.033-2.879zm8.144 0v-.234c0-1.177.345-2.129 1.033-2.857s1.587-1.091 2.681-1.091 1.955.342 2.571 1.026c.615.678.922 1.611.922 2.797v.704h-5.939v-1.26h4.05v-.169c0-.468-.137-.866-.41-1.194s-.667-.49-1.18-.49c-.6 0-1.054.227-1.362.681s-.454 1.045-.454 1.772v.389c0 .722.164 1.311.491 1.765s.818.673 1.472.673c.439 0 .818-.102 1.135-.307a2.88 2.88 0 0 0 .769-.725l1.319.893c-.245.435-.645.808-1.202 1.121-.556.308-1.22.461-1.992.461-1.23 0-2.19-.363-2.878-1.091s-1.026-1.682-1.026-2.864z" class="C"/></g><defs><clipPath id="A"><path fill="#fff" d="M0 0h1011v909H0z"/></clipPath><path id="B" d="M644.85 508.658v-10.664h3.457c1.138 0 2.014.285 2.63.857s.93 1.33.93 2.277-.31 1.707-.93 2.293-1.492.879-2.63.879h-2.065v4.358h-1.392zm1.392-5.486h2.065c.811 0 1.372-.198 1.685-.593.317-.401.476-.884.476-1.451s-.159-1.047-.476-1.428-.874-.571-1.685-.571h-2.065v4.043zm4.636 5.486l-2.607-4.922 1.384-.213 2.776 5.135h-1.553zm3.083 0v-10.664h6.57v1.15h-5.178v3.647h4.453v1.15h-4.453v4.717h-1.392zm7.83-4.995v-.674c0-1.646.42-2.925 1.26-3.838s1.916-1.377 3.23-1.377 2.387.459 3.222 1.377 1.26 2.192 1.26 3.838v.674c0 1.645-.42 2.927-1.26 3.845s-1.909 1.369-3.222 1.369-2.39-.456-3.23-1.369-1.26-2.2-1.26-3.845zm1.414 0c0 1.259.28 2.246.842 2.959.561.708 1.306 1.062 2.234 1.062s1.672-.354 2.234-1.062c.561-.713.842-1.7.842-2.959v-.674c0-1.26-.281-2.244-.842-2.952a2.7 2.7 0 0 0-2.234-1.069c-.928 0-1.673.356-2.234 1.069s-.842 1.692-.842 2.952v.674zm8.4 8.027v-1.252h7.478v1.252h-7.478zm8.724-3.032v-10.664h1.391v4.592h5.369v-4.592h1.391v10.664h-1.391v-4.929h-5.369v4.929h-1.391zm10.634 0v-10.664h3.516c1.167 0 2.063.295 2.688.886s.945 1.367.945 2.344c0 .971-.315 1.757-.945 2.358s-1.521.894-2.688.894h-2.124v4.182h-1.392zm1.392-5.325h2.124c.83 0 1.409-.205 1.736-.615s.498-.908.498-1.494-.166-1.084-.498-1.48-.906-.6-1.736-.6h-2.124v4.189z"/><path id="C" d="M319.881 655.521v121.696"/><path id="D" d="M0-1h121.696"/><path id="E" d="M373.121 125.216h27.154v-29.05h-27.154z"/><path id="F" d="M367.69 109.299h-10.862"/><path id="G" d="M440.712 478.114l5.773-10h-11.547l5.774 10zm0-106.298l-5.774 10h11.547l-5.773-10zm0 97.298h1v-88.298h-1-1v88.298h1z"/><path id="H" d="M744.114 502.804h-28.783"/></defs></svg>