<svg xmlns="http://www.w3.org/2000/svg" width="620" height="533" fill="none" xmlns:v="https://vecta.io/nano"><style><![CDATA[.B{fill:#b8b8b8}.C{stroke-width:.5}.D{fill:#0c0c0c}.E{stroke:#f2f2f2}.F{stroke:#e3e3e3}.G{fill:#575757}.H{color-interpolation-filters:sRGB}]]></style><rect x=".25" y=".25" width="255.5" height="532.5" rx="9.75" fill="#fff" stroke="url(#C)" class="C"/><g filter="url(#A)"><rect x="16" y="17" width="216" height="52" rx="10" fill="#fff"/></g><g stroke="#5a5c66" stroke-miterlimit="22.9256" class="C"><path d="M31.51 31h10.664a.51.51 0 0 1 .51.51v21.964l-1.219 3.725c-.068.138-.215.206-.42.221l-.18.095-3.869.017-4.04-.015c-.051-.027-.042-.048-.099-.053-.341-.029-.491-.133-.537-.274L31 53.436v-4.184V31.51a.51.51 0 0 1 .51-.51h0z"/><path d="M31.815 31l2.076 1.048 5.977.005L41.943 31l-1.75 1.325s-.272.261-.644.236h-5.187s-.432.079-.823-.293L31.815 31z" stroke-linejoin="round"/><path d="M33.131 33.078l7.604.002 1.763-1.963m-9.833 2.314c0-.065-1.665-1.75-1.665-1.75"/><path d="M33.158 33.105l-1.98-1.98m10.003 2.306c0-.065 1.502-1.75 1.502-1.75"/><path d="M32.662 53.474V33.513s-.081-.435.511-.435m8.004 20.396V33.513s.081-.435-.511-.435"/><path d="M31 49.309l1.662 4.08s.011.19.614.242 7.357 0 7.357 0 .481.005.592-.294l1.432-4.048v.152l-1.391 3.938s-.041.327-.467.352-7.363.026-7.363.026-.776.076-.852-.378L31 49.349m1.89 8.122l1.573-2.466c.046-.086.134-.177.208-.236.202-.16.45-.228.707-.232h2.986c.109-.008.247.011.351.037a1.18 1.18 0 0 1 .648.411l.004.005 1.594 2.475m-2.424.545h-.025m-3.218-.003h-.037"/><path d="M32.997 57.517l1.565-2.455s.206-.402.815-.41h2.991s.543-.046.905.405l1.583 2.458m-2.235.379h-.005m-3.439-.003h-.014m-2.501-4.417l-.356 3.677m.884-3.389l-.28 3.722m8.267-4.058l.332 3.639m-.768-3.331l.291 3.693m-7.901-24.349l.055 20.68m7.571-20.656l-.016 20.632"/><path d="M35.395 57.523h-.303v.208a.71.71 0 0 0 .281.368c.071.444.37.758 1.52.778 1.135.02 1.441-.31 1.517-.756.221-.156.303-.365.33-.598h-.349-2.997z"/><path d="M36.192 57.529v.799"/><use href="#G"/><use href="#G" x="0.209"/><use href="#G" x="0.418"/><use href="#G" x="0.628"/><use href="#G" x="0.837"/><use href="#G" x="1.046"/><use href="#G" x="1.255"/><path d="M38.758 57.524c-.07.479-.41.844-1.865.824s-1.793-.355-1.864-.823"/></g><path d="M155.733 44h-.881c-.052-.253-.143-.476-.273-.668a1.82 1.82 0 0 0-.469-.483c-.182-.133-.385-.232-.607-.298a2.43 2.43 0 0 0-.696-.099 2.22 2.22 0 0 0-1.197.334c-.355.223-.638.55-.849.984s-.312.965-.312 1.594.104 1.161.312 1.595.494.761.849.984a2.22 2.22 0 0 0 1.197.334 2.43 2.43 0 0 0 .696-.099 2.04 2.04 0 0 0 .607-.295 1.87 1.87 0 0 0 .469-.486c.13-.194.221-.417.273-.668h.881a2.93 2.93 0 0 1-.362.998c-.175.294-.393.543-.654.749s-.552.359-.877.465-.666.16-1.033.16c-.62 0-1.172-.152-1.655-.455s-.863-.734-1.14-1.293-.415-1.222-.415-1.989.138-1.43.415-1.989.657-.99 1.14-1.293 1.035-.455 1.655-.455c.367 0 .711.053 1.033.16a2.81 2.81 0 0 1 .877.469 2.67 2.67 0 0 1 .654.746c.175.291.296.624.362.998zm3.525 5.114c-.492 0-.924-.117-1.296-.352s-.658-.562-.866-.984-.309-.914-.309-1.477.103-1.064.309-1.488.497-.753.866-.987.804-.352 1.296-.352.924.117 1.293.352.66.563.866.987.313.92.313 1.488-.104 1.056-.313 1.477-.494.749-.866.984-.8.352-1.293.352zm0-.753c.374 0 .682-.096.924-.288a1.7 1.7 0 0 0 .536-.756c.116-.312.174-.651.174-1.016s-.058-.704-.174-1.019a1.72 1.72 0 0 0-.536-.763c-.242-.194-.55-.291-.924-.291s-.681.097-.923.291a1.72 1.72 0 0 0-.536.763c-.116.315-.174.655-.174 1.019s.058.703.174 1.016a1.7 1.7 0 0 0 .536.756c.242.192.549.288.923.288zm4.589-2.642V49h-.838v-5.455h.81v.852h.071a1.56 1.56 0 0 1 .582-.668c.261-.17.597-.256 1.009-.256.369 0 .692.076.969.227s.493.376.647.682.23.687.23 1.151V49h-.838v-3.409c0-.428-.111-.762-.333-1.001s-.528-.362-.917-.362c-.267 0-.506.058-.717.174a1.25 1.25 0 0 0-.494.508c-.12.222-.181.492-.181.81zm5.85 0V49h-.838v-5.455h.81v.852h.071c.127-.277.321-.499.582-.668s.597-.256 1.008-.256c.37 0 .693.076.97.227a1.53 1.53 0 0 1 .646.682c.154.303.231.687.231 1.151V49h-.838v-3.409c0-.428-.111-.762-.334-1.001s-.528-.362-.916-.362c-.268 0-.507.058-.717.174s-.373.285-.494.508-.181.492-.181.81zm7.298 3.395c-.525 0-.979-.116-1.36-.348a2.34 2.34 0 0 1-.877-.98c-.203-.421-.305-.911-.305-1.47s.102-1.051.305-1.477a2.41 2.41 0 0 1 .86-1.001c.369-.241.8-.362 1.292-.362a2.59 2.59 0 0 1 .842.142c.277.095.529.249.756.462a2.2 2.2 0 0 1 .543.838c.135.348.203.776.203 1.285v.355h-4.205v-.724h3.353a1.79 1.79 0 0 0-.185-.824 1.4 1.4 0 0 0-.518-.572c-.223-.14-.486-.209-.789-.209-.334 0-.622.083-.866.249a1.63 1.63 0 0 0-.558.639 1.88 1.88 0 0 0-.195.845v.483c0 .412.071.761.213 1.048a1.53 1.53 0 0 0 .6.65 1.76 1.76 0 0 0 .891.22c.221 0 .419-.031.597-.092s.335-.159.465-.284.231-.287.302-.476l.81.227c-.086.275-.229.516-.43.724s-.45.367-.746.483-.628.17-.998.17zm5.75 0c-.512 0-.952-.121-1.321-.362s-.654-.574-.853-.998-.298-.908-.298-1.453c0-.554.102-1.043.305-1.467s.493-.759.86-.998.8-.362 1.292-.362c.384 0 .73.071 1.037.213a1.99 1.99 0 0 1 .757.597c.196.256.318.554.366.895h-.839c-.063-.249-.205-.469-.426-.66s-.511-.291-.88-.291c-.327 0-.613.085-.86.256a1.66 1.66 0 0 0-.571.714c-.135.305-.203.664-.203 1.076 0 .421.066.788.199 1.101s.324.555.568.728a1.47 1.47 0 0 0 .867.259 1.5 1.5 0 0 0 .593-.114 1.23 1.23 0 0 0 .451-.327 1.25 1.25 0 0 0 .262-.511h.839a1.95 1.95 0 0 1-.352.87 1.97 1.97 0 0 1-.735.611c-.303.149-.656.224-1.058.224zm5.742-5.568v.71h-2.827v-.71h2.827zm-2.003-1.307h.838v5.199c0 .237.034.414.103.533s.161.194.27.234a1.08 1.08 0 0 0 .352.057 1.49 1.49 0 0 0 .227-.014l.142-.028.17.753c-.057.021-.136.043-.238.064a1.74 1.74 0 0 1-.387.035 1.69 1.69 0 0 1-.696-.153 1.38 1.38 0 0 1-.561-.465c-.147-.208-.22-.471-.22-.788v-5.426zm5.492 6.875c-.526 0-.979-.116-1.36-.348s-.671-.561-.877-.98-.306-.911-.306-1.47.102-1.051.306-1.477.492-.762.859-1.001.8-.362 1.293-.362c.284 0 .564.047.841.142s.529.249.757.462.408.49.543.838.202.776.202 1.285v.355h-4.204v-.724h3.352c0-.308-.061-.582-.185-.824s-.293-.432-.518-.572-.485-.209-.788-.209c-.334 0-.623.083-.867.249s-.427.376-.557.639-.196.544-.196.845v.483c0 .412.071.761.213 1.048a1.54 1.54 0 0 0 .601.65c.255.147.552.22.891.22a1.81 1.81 0 0 0 .596-.092 1.29 1.29 0 0 0 .466-.284c.13-.128.23-.287.301-.476l.81.227c-.085.275-.228.516-.43.724s-.449.367-.745.483-.629.17-.998.17zm5.593 0c-.455 0-.856-.115-1.204-.344a2.33 2.33 0 0 1-.817-.98c-.196-.424-.294-.924-.294-1.502s.098-1.07.294-1.491.47-.747.821-.977.755-.344 1.214-.344c.355 0 .636.059.842.178s.367.249.476.398l.259.362h.071v-2.685h.838V49h-.81v-.838h-.099a5.42 5.42 0 0 1-.263.377 1.57 1.57 0 0 1-.486.401c-.211.116-.492.174-.842.174zm.114-.753c.336 0 .62-.088.852-.263s.408-.423.529-.735.181-.678.181-1.09-.059-.764-.178-1.069-.293-.547-.525-.717-.519-.259-.859-.259c-.356 0-.652.091-.888.273a1.63 1.63 0 0 0-.529.735c-.116.308-.174.653-.174 1.037s.059.741.177 1.058.298.566.533.753.53.277.881.277z" class="B"/><path d="M56.799 40.727h1.332l2.315 5.653h.085l2.315-5.653h1.332V48h-1.044v-5.263h-.067l-2.145 5.252h-.867l-2.145-5.256h-.067V48h-1.044v-7.273zm9.738 0l1.74 2.844h.057l1.74-2.844h1.271l-2.266 3.636L71.36 48h-1.278l-1.747-2.805h-.057L66.53 48h-1.278l2.319-3.636-2.305-3.636h1.271zm5.645 5.852v-.888l3.143-4.965h.7v1.307h-.444l-2.248 3.558v.057h4.308v.93h-5.458zM75.63 48v-1.69l.007-.405v-5.178h1.041V48H75.63zm5.779.099c-.488 0-.923-.084-1.307-.252s-.683-.401-.906-.7-.338-.649-.355-1.044h1.115a.96.96 0 0 0 .217.561c.132.156.305.277.518.362s.45.128.71.128a1.83 1.83 0 0 0 .76-.149c.223-.099.397-.238.522-.415a1.06 1.06 0 0 0 .188-.621c0-.244-.063-.458-.188-.643s-.304-.334-.543-.44-.523-.16-.859-.16h-.614v-.895h.614c.27 0 .507-.049.71-.146s.367-.232.483-.405.174-.38.174-.614c0-.225-.051-.42-.153-.586s-.242-.3-.426-.394-.398-.142-.646-.142a1.68 1.68 0 0 0-.664.131c-.204.085-.369.208-.497.369a.95.95 0 0 0-.206.572h-1.062c.012-.393.128-.739.348-1.037a2.25 2.25 0 0 1 .881-.7c.365-.168.769-.252 1.215-.252.466 0 .869.091 1.207.273a1.99 1.99 0 0 1 .788.721 1.81 1.81 0 0 1 .277.987c.002.407-.111.753-.341 1.037s-.53.475-.909.572v.057c.483.073.857.265 1.122.575s.4.695.398 1.154c.002.4-.109.759-.334 1.076s-.527.567-.913.749-.827.27-1.325.27zm3.761-1.52v-.888l3.143-4.965h.7v1.307h-.444l-2.248 3.558v.057h4.308v.93H85.17zM88.618 48v-1.69l.007-.405v-5.178h1.04V48h-1.048zm5.779.099c-.488 0-.923-.084-1.307-.252s-.683-.401-.906-.7-.338-.649-.355-1.044h1.115a.96.96 0 0 0 .217.561c.133.156.305.277.518.362s.45.128.71.128a1.83 1.83 0 0 0 .76-.149c.222-.099.396-.238.522-.415a1.06 1.06 0 0 0 .188-.621c0-.244-.063-.458-.188-.643s-.304-.334-.543-.44-.523-.16-.859-.16h-.614v-.895h.614c.27 0 .507-.049.71-.146s.367-.232.483-.405.174-.38.174-.614c0-.225-.051-.42-.153-.586s-.242-.3-.426-.394-.398-.142-.646-.142a1.68 1.68 0 0 0-.664.131c-.204.085-.369.208-.497.369a.95.95 0 0 0-.206.572h-1.062c.012-.393.128-.739.348-1.037a2.25 2.25 0 0 1 .881-.7c.365-.168.769-.252 1.215-.252.466 0 .869.091 1.207.273a1.99 1.99 0 0 1 .788.721 1.81 1.81 0 0 1 .277.987c.002.407-.111.753-.341 1.037s-.53.475-.909.572v.057c.483.073.857.265 1.122.575s.4.695.398 1.154c.002.4-.109.759-.334 1.076s-.527.567-.913.749-.827.27-1.325.27z" fill="#f85550"/><circle cx="213.5" cy="45.5" r="1.5" fill="#72cf70"/><path d="M216 45.5a2.5 2.5 0 1 1-5 0 2.5 2.5 0 1 1 5 0z" fill="#53ee50" fill-opacity=".35"/><g class="B"><path d="M25.881 163.014v-7.273h2.457c.568 0 1.034.097 1.399.291a1.86 1.86 0 0 1 .81.792c.175.336.263.719.263 1.147a2.4 2.4 0 0 1-.263 1.14c-.175.331-.444.592-.806.781s-.825.281-1.389.281h-1.989v-.796h1.96c.388 0 .701-.057.938-.17a1.08 1.08 0 0 0 .518-.483c.109-.211.163-.462.163-.753s-.055-.546-.163-.763-.283-.386-.522-.505-.555-.181-.948-.181h-1.548v6.492h-.881zm3.423-3.267l1.79 3.267h-1.023l-1.761-3.267h.994zm6.95-2.188c-.043-.36-.215-.639-.518-.838s-.675-.298-1.115-.298c-.322 0-.604.052-.845.156s-.426.247-.561.43-.199.389-.199.621a.89.89 0 0 0 .139.501c.095.137.215.252.362.344a2.58 2.58 0 0 0 .462.224l.444.139.739.198c.189.05.4.119.632.206s.458.208.671.359a1.83 1.83 0 0 1 .533.575c.14.235.209.522.209.863 0 .393-.103.748-.309 1.066s-.502.569-.895.756-.865.281-1.424.281c-.521 0-.972-.085-1.353-.253s-.677-.402-.895-.703-.337-.65-.366-1.047h.909c.024.274.116.502.277.681a1.49 1.49 0 0 0 .618.398 2.51 2.51 0 0 0 .81.128 2.38 2.38 0 0 0 .906-.163c.268-.112.479-.265.636-.462s.234-.431.234-.696c0-.241-.068-.438-.202-.589s-.312-.275-.533-.37-.458-.177-.714-.248l-.895-.256c-.568-.163-1.018-.397-1.349-.7s-.497-.699-.497-1.189c0-.407.11-.763.33-1.066s.521-.542.895-.71.797-.255 1.261-.255.885.084 1.25.252a2.16 2.16 0 0 1 .867.681 1.7 1.7 0 0 1 .341.984h-.852zm2.101 3.963v-.724l3.196-5.057h.526v1.122h-.355l-2.415 3.821v.057h4.304v.781h-5.256zm3.423 1.492v-1.712-.337-5.224h.838v7.273h-.838zm5.493.099c-.488 0-.919-.086-1.293-.259s-.662-.416-.87-.721a1.81 1.81 0 0 1-.309-1.051 1.93 1.93 0 0 1 .181-.852c.123-.263.291-.482.504-.657a1.55 1.55 0 0 1 .721-.338v-.042c-.348-.09-.625-.286-.831-.586s-.308-.648-.305-1.034c-.002-.369.091-.699.281-.99a1.97 1.97 0 0 1 .781-.689c.334-.168.714-.252 1.14-.252s.798.084 1.129.252a1.97 1.97 0 0 1 .781.689 1.78 1.78 0 0 1 .291.99c-.002.386-.108.731-.316 1.034s-.479.496-.82.586v.042a1.5 1.5 0 0 1 .71.338 1.91 1.91 0 0 1 .504.657 1.97 1.97 0 0 1 .192.852c-.002.393-.109.743-.32 1.051s-.498.546-.87.721-.797.259-1.282.259zm0-.781c.329 0 .613-.053.852-.16s.424-.257.554-.451.197-.421.199-.682a1.31 1.31 0 0 0-.213-.728c-.14-.21-.33-.376-.572-.497s-.513-.181-.82-.181-.587.06-.831.181-.432.287-.572.497-.205.454-.202.728a1.19 1.19 0 0 0 .188.682c.13.194.316.345.558.451s.528.16.859.16zm0-3.452c.261 0 .491-.052.693-.156s.363-.25.479-.437.175-.406.178-.657-.06-.46-.174-.643-.271-.326-.472-.426-.436-.152-.703-.152-.51.05-.714.152a1.11 1.11 0 0 0-.472.426 1.19 1.19 0 0 0-.163.643c-.002.251.053.47.167.657s.276.333.479.437.438.156.703.156zm6.105 4.233c-.417 0-.792-.083-1.126-.248a2.09 2.09 0 0 1-.802-.682c-.201-.289-.311-.618-.33-.988h.852c.033.33.182.602.447.817s.587.32.959.32a1.51 1.51 0 0 0 .796-.21 1.47 1.47 0 0 0 .55-.575c.135-.246.202-.524.202-.834a1.7 1.7 0 0 0-.21-.849c-.137-.251-.327-.449-.568-.593s-.517-.218-.827-.22c-.223-.003-.451.032-.685.103s-.427.157-.579.266l-.824-.1.44-3.579h3.778v.781h-3.04l-.256 2.145h.043c.149-.118.336-.217.561-.295a2.13 2.13 0 0 1 .703-.117c.445 0 .842.107 1.19.32s.625.499.824.866.302.786.302 1.257c0 .464-.104.879-.312 1.243a2.29 2.29 0 0 1-.852.86c-.362.208-.774.312-1.236.312zm7.05-.099h-.923l2.67-7.273h.909l2.67 7.273h-.923l-2.173-6.122H62.6l-2.173 6.122zm.341-2.841h3.722v.781h-3.722v-.781zm8.065 2.954a2.14 2.14 0 0 1-1.204-.344c-.348-.232-.62-.559-.817-.98s-.295-.925-.295-1.502.098-1.07.295-1.492.47-.747.82-.976.755-.345 1.215-.345c.355 0 .636.059.842.178s.367.248.476.397l.259.363h.071v-2.685h.838v7.273h-.81v-.838h-.099c-.062.099-.149.225-.263.376s-.276.283-.487.401-.491.174-.842.174zm.114-.753c.336 0 .62-.087.852-.262a1.65 1.65 0 0 0 .529-.735c.121-.315.181-.679.181-1.091s-.059-.763-.178-1.068-.294-.547-.526-.718-.519-.259-.859-.259c-.355 0-.651.091-.888.273s-.411.425-.529.735-.174.654-.174 1.037c0 .389.059.741.177 1.059s.298.565.533.752.53.277.881.277zm6.097.753a2.14 2.14 0 0 1-1.204-.344c-.348-.232-.62-.559-.817-.98s-.295-.925-.295-1.502.098-1.07.295-1.492.47-.747.82-.976.755-.345 1.215-.345c.355 0 .636.059.842.178s.367.248.476.397l.259.363h.071v-2.685h.838v7.273h-.81v-.838h-.099c-.061.099-.149.225-.263.376s-.276.283-.487.401-.491.174-.842.174zm.114-.753c.336 0 .62-.087.852-.262a1.65 1.65 0 0 0 .529-.735c.121-.315.181-.679.181-1.091s-.059-.763-.177-1.068a1.56 1.56 0 0 0-.526-.718c-.232-.173-.518-.259-.859-.259-.355 0-.651.091-.888.273s-.411.425-.529.735-.174.654-.174 1.037a3.01 3.01 0 0 0 .178 1.059c.121.315.298.565.533.752s.53.277.881.277zm4.038.64v-5.455h.81v.824h.057c.099-.27.279-.489.54-.657a1.59 1.59 0 0 1 .881-.252l.231.003.21.011v.852a3.05 3.05 0 0 0-.195-.032 1.99 1.99 0 0 0-.316-.024c-.265 0-.502.055-.71.166a1.26 1.26 0 0 0-.49.455c-.118.192-.178.411-.178.657v3.452h-.838zm5.842.113c-.526 0-.979-.116-1.36-.348s-.671-.561-.877-.98-.305-.911-.305-1.47.102-1.051.305-1.477.492-.763.859-1.002.8-.362 1.293-.362c.284 0 .565.047.842.142a2.09 2.09 0 0 1 .756.462c.227.21.408.49.543.838s.202.776.202 1.285v.355H83.09v-.724h3.352a1.79 1.79 0 0 0-.185-.824c-.121-.241-.294-.432-.518-.572s-.485-.209-.788-.209c-.334 0-.623.083-.867.249a1.63 1.63 0 0 0-.558.639c-.13.263-.195.544-.195.845v.483c0 .412.071.761.213 1.047a1.53 1.53 0 0 0 .6.65c.256.147.553.22.891.22.22 0 .419-.03.597-.092a1.27 1.27 0 0 0 .465-.284c.13-.128.231-.286.302-.476l.81.227c-.085.275-.228.517-.43.725s-.45.367-.746.483a2.78 2.78 0 0 1-.998.17zm7.397-4.346l-.753.213c-.047-.126-.117-.248-.209-.366s-.213-.22-.369-.298-.356-.117-.6-.117c-.334 0-.612.076-.834.23s-.33.345-.33.579c0 .209.076.373.227.494s.388.221.71.302l.81.199c.488.118.851.299 1.09.543s.359.553.359.934c0 .312-.09.592-.27.838a1.79 1.79 0 0 1-.746.582c-.32.142-.691.213-1.115.213-.556 0-1.017-.12-1.381-.362s-.595-.594-.692-1.058l.796-.199c.076.294.219.514.43.661s.491.22.835.22c.391 0 .701-.083.93-.249s.348-.369.348-.604a.63.63 0 0 0-.199-.475c-.133-.131-.336-.228-.611-.292l-.909-.213c-.499-.118-.866-.302-1.101-.55s-.348-.565-.348-.941a1.35 1.35 0 0 1 .259-.817c.175-.237.413-.423.714-.557s.646-.203 1.03-.203c.54 0 .964.118 1.271.355s.53.549.66.938zm5.225 0l-.753.213c-.047-.126-.117-.248-.209-.366s-.213-.22-.369-.298-.356-.117-.6-.117c-.334 0-.612.076-.835.23s-.33.345-.33.579c0 .209.076.373.227.494s.388.221.71.302l.81.199c.488.118.851.299 1.09.543s.359.553.359.934c0 .312-.09.592-.27.838a1.79 1.79 0 0 1-.746.582c-.32.142-.691.213-1.115.213-.556 0-1.017-.12-1.381-.362s-.595-.594-.693-1.058l.796-.199c.076.294.219.514.43.661s.491.22.835.22c.391 0 .701-.083.93-.249s.348-.369.348-.604a.63.63 0 0 0-.199-.475c-.133-.131-.336-.228-.611-.292l-.909-.213c-.499-.118-.866-.302-1.101-.55s-.348-.565-.348-.941a1.35 1.35 0 0 1 .259-.817c.175-.237.413-.423.714-.557s.646-.203 1.03-.203c.54 0 .963.118 1.271.355s.53.549.66.938zm3.648 4.346c-.526 0-.979-.116-1.36-.348s-.671-.561-.877-.98-.305-.911-.305-1.47.102-1.051.305-1.477.492-.763.859-1.002a2.31 2.31 0 0 1 1.293-.362c.284 0 .564.047.841.142a2.1 2.1 0 0 1 .757.462c.227.21.408.49.543.838s.202.776.202 1.285v.355H99.36v-.724h3.352a1.79 1.79 0 0 0-.184-.824 1.4 1.4 0 0 0-.519-.572c-.222-.139-.485-.209-.788-.209-.334 0-.623.083-.867.249s-.427.376-.557.639-.195.544-.195.845v.483c0 .412.071.761.213 1.047a1.53 1.53 0 0 0 .601.65c.255.147.552.22.891.22.22 0 .419-.03.597-.092s.335-.158.465-.284a1.29 1.29 0 0 0 .302-.476l.809.227a1.79 1.79 0 0 1-.429.725 2.1 2.1 0 0 1-.746.483c-.296.113-.629.17-.998.17zm7.397-4.346l-.753.213c-.047-.126-.117-.248-.209-.366a1.01 1.01 0 0 0-.37-.298c-.156-.078-.356-.117-.6-.117-.334 0-.612.076-.834.23s-.331.345-.331.579c0 .209.076.373.228.494s.388.221.71.302l.81.199c.487.118.851.299 1.09.543s.358.553.358.934c0 .312-.09.592-.27.838s-.426.44-.745.582-.692.213-1.115.213c-.557 0-1.017-.12-1.382-.362s-.595-.594-.692-1.058l.795-.199c.076.294.219.514.43.661s.491.22.834.22c.391 0 .701-.083.931-.249s.348-.369.348-.604a.63.63 0 0 0-.199-.475c-.133-.131-.336-.228-.611-.292l-.909-.213c-.499-.118-.866-.302-1.101-.55s-.348-.565-.348-.941a1.35 1.35 0 0 1 .26-.817c.175-.237.413-.423.713-.557s.647-.203 1.03-.203c.54 0 .964.118 1.271.355s.531.549.661.938z"/><path d="M25.881 100.014v-7.273h2.457c.57 0 1.037.103 1.399.309s.634.479.81.827.263.736.263 1.165-.088.818-.263 1.168-.44.63-.803.838-.826.309-1.392.309h-1.761v-.781h1.733c.391 0 .704-.067.941-.202s.408-.317.515-.547.163-.494.163-.785-.055-.552-.163-.781-.279-.41-.518-.54-.556-.199-.952-.199h-1.548v6.492h-.881zm8.391.113c-.492 0-.925-.117-1.296-.351s-.658-.562-.867-.984-.309-.914-.309-1.477.103-1.064.309-1.488.497-.753.867-.987.804-.352 1.296-.352.923.117 1.293.352a2.35 2.35 0 0 1 .867.987c.208.424.313.92.313 1.488s-.104 1.056-.312 1.477-.495.749-.867.984-.8.351-1.293.351zm0-.752c.374 0 .682-.096.923-.288s.42-.444.536-.756.174-.651.174-1.016-.058-.704-.174-1.019-.295-.569-.536-.763-.549-.291-.923-.291-.682.097-.923.291-.42.449-.536.763-.174.655-.174 1.019.058.703.174 1.016.295.565.536.756.549.288.923.288zm4.801.639l-1.662-5.455h.881l1.179 4.176h.057l1.165-4.176h.895l1.151 4.162h.057l1.179-4.162h.881l-1.662 5.455h-.824l-1.193-4.191h-.085l-1.193 4.191h-.824zm8.99.113c-.525 0-.979-.116-1.36-.348s-.671-.561-.877-.98-.305-.912-.305-1.47.102-1.051.305-1.477a2.41 2.41 0 0 1 .859-1.001c.369-.242.8-.362 1.293-.362a2.59 2.59 0 0 1 .842.142c.277.095.529.249.756.462s.408.49.543.838.202.776.202 1.285v.355h-4.205v-.724h3.352c0-.308-.062-.582-.185-.824a1.39 1.39 0 0 0-.518-.572c-.223-.14-.485-.21-.788-.21-.334 0-.623.083-.866.249s-.427.376-.558.639a1.88 1.88 0 0 0-.195.845v.483c0 .412.071.761.213 1.047s.344.501.6.65.553.22.891.22c.22 0 .419-.031.597-.092s.335-.159.465-.284a1.29 1.29 0 0 0 .302-.476l.81.227c-.085.275-.228.516-.43.724s-.45.367-.746.483-.628.17-.998.17zm3.533-.113v-5.455h.81v.824h.057a1.31 1.31 0 0 1 .54-.657 1.59 1.59 0 0 1 .881-.252l.231.004.209.011v.852c-.028-.007-.093-.018-.195-.032a1.92 1.92 0 0 0-.316-.025c-.265 0-.502.056-.71.167a1.26 1.26 0 0 0-.49.454c-.118.192-.177.411-.177.657v3.452h-.838zm12.783-3.637c0 .767-.139 1.43-.416 1.989s-.657.99-1.14 1.293-1.035.454-1.655.454-1.172-.151-1.655-.454-.863-.734-1.14-1.293-.416-1.221-.416-1.989.139-1.43.416-1.989.657-.99 1.14-1.293 1.034-.455 1.655-.455 1.172.152 1.655.455.863.734 1.14 1.293.416 1.222.416 1.989zm-.852 0c0-.63-.105-1.161-.316-1.595s-.491-.761-.849-.984a2.2 2.2 0 0 0-1.193-.334c-.44 0-.839.111-1.197.334s-.638.55-.849.984-.312.965-.312 1.595.104 1.161.313 1.594.494.761.849.984.756.334 1.197.334a2.2 2.2 0 0 0 1.193-.334c.357-.222.64-.55.849-.984s.316-.965.316-1.594zm5.657 1.406v-3.225h.838v5.455h-.838v-.924h-.057a1.79 1.79 0 0 1-.597.707c-.27.192-.611.288-1.023.288-.341 0-.644-.075-.909-.224s-.474-.379-.625-.682-.227-.69-.227-1.154v-3.466h.838v3.409c0 .398.111.715.334.952s.511.355.859.355c.208 0 .42-.053.636-.16s.4-.27.547-.49.224-.501.224-.842zm4.745-3.225v.71h-2.827v-.71h2.827zm-2.003-1.307h.838v5.199c0 .237.034.414.103.533s.161.194.27.234.228.057.352.057c.092 0 .168-.005.227-.014l.142-.028.171.753a1.62 1.62 0 0 1-.238.064c-.102.024-.231.036-.387.036-.237 0-.469-.051-.696-.153s-.412-.257-.561-.465-.22-.471-.22-.788v-5.426zm3.263 8.807v-7.5h.81v.867h.099l.256-.362c.111-.149.27-.282.476-.398s.49-.178.845-.178c.459 0 .864.115 1.215.344s.624.555.82.977.295.919.295 1.492-.098 1.078-.295 1.502-.469.748-.817.98-.749.344-1.204.344c-.35 0-.631-.058-.842-.174a1.56 1.56 0 0 1-.487-.401l-.263-.376h-.071v2.883h-.838zm.824-4.773c0 .412.06.775.181 1.09s.297.558.529.735.516.263.852.263c.35 0 .643-.092.877-.277s.414-.438.533-.753.181-.67.181-1.058-.059-.729-.177-1.037-.292-.555-.529-.735-.529-.273-.884-.273c-.341 0-.627.087-.859.259s-.407.409-.526.717-.178.662-.178 1.069zm8.707.497v-3.225h.838v5.455h-.838v-.924h-.057a1.79 1.79 0 0 1-.597.707c-.27.192-.611.288-1.023.288-.341 0-.644-.075-.909-.224s-.474-.379-.625-.682-.227-.69-.227-1.154v-3.466h.838v3.409c0 .398.111.715.334.952s.511.355.859.355c.208 0 .42-.053.636-.16s.4-.27.547-.49.224-.501.224-.842zm4.745-3.225v.71h-2.827v-.71h2.827zm-2.003-1.307h.838v5.199c0 .237.034.414.103.533s.161.194.27.234.228.057.352.057c.092 0 .168-.005.227-.014l.142-.028.171.753a1.62 1.62 0 0 1-.238.064c-.102.024-.231.036-.387.036-.237 0-.469-.051-.696-.153s-.412-.257-.561-.465-.22-.471-.22-.788v-5.426z"/></g><g clip-path="url(#E)" class="G"><path d="M45.333 189.847c-.364 0-.436.287-.438.295-.135.4-1.253.955-2.999.955-1.819 0-2.979-.617-2.979-1.042v-.795c.752.387 1.869.587 2.979.587l.242-.003c.253-.006.452-.198.446-.428s-.208-.422-.47-.405l-.217.002c-1.928 0-2.979-.609-2.979-.922v-.914c.752.387 1.869.587 2.979.587l.242-.003c.253-.007.452-.198.446-.428s-.208-.421-.47-.405l-.217.002c-1.928 0-2.979-.609-2.979-.922v-.238c0-.313 1.051-.923 2.979-.923.294 0 .584.016.863.046.251.023.479-.136.509-.365s-.15-.436-.401-.463c-2.158-.233-4.867.355-4.867 1.704v6.489c0 1.153 1.96 1.756 3.896 1.756s3.896-.603 3.896-1.756v-1.994c0-.008-.023-.417-.458-.417zm-3.437 3.333c-1.928 0-2.979-.609-2.979-.922v-.97c.703.398 1.758.642 2.979.642 1.204 0 2.264-.236 2.979-.627v.955c0 .313-1.051.922-2.979.922zM49 184.522v1.275c0 .166-.148.3-.33.3h-.318-.001-1.084c-.133 0-.254-.073-.305-.185a.28.28 0 0 1 .072-.327l.386-.351c-.323-.244-.733-.387-1.17-.387-.729 0-1.389.392-1.681 1-.101.21-.369.307-.603.215s-.338-.338-.236-.549c.438-.911 1.428-1.5 2.521-1.5a2.91 2.91 0 0 1 1.822.628l.364-.332c.094-.086.236-.111.36-.065s.204.156.204.277l-.001.001zm-.229 2.992c-.438.911-1.427 1.5-2.521 1.5-.685 0-1.329-.231-1.822-.627l-.364.331c-.094.086-.236.111-.36.065s-.203-.156-.203-.277v-1.275c0-.166.148-.3.33-.3h1.403c.133 0 .254.073.305.185a.28.28 0 0 1-.072.327l-.386.351a1.95 1.95 0 0 0 1.17.387c.729 0 1.389-.393 1.681-1 .101-.21.369-.307.603-.215s.338.338.236.548h0z"/></g><path d="M60.881 194.014v-7.273h2.543c.507 0 .925.088 1.254.263a1.74 1.74 0 0 1 .735.699 1.97 1.97 0 0 1 .242.97c0 .312-.056.57-.167.774a1.3 1.3 0 0 1-.433.483c-.178.118-.37.206-.579.263v.071a1.42 1.42 0 0 1 .671.234c.225.142.413.346.565.611s.227.589.227.973c0 .364-.083.692-.249.984s-.427.522-.785.692-.823.256-1.396.256h-2.628zm.881-.782h1.747c.575 0 .984-.111 1.225-.333a1.07 1.07 0 0 0 .366-.817 1.3 1.3 0 0 0-.188-.682c-.125-.208-.304-.379-.536-.504a1.68 1.68 0 0 0-.824-.192h-1.79v2.528zm0-3.295h1.633c.265 0 .504-.052.717-.156a1.25 1.25 0 0 0 .511-.441c.128-.189.192-.412.192-.667 0-.32-.111-.591-.334-.813s-.575-.338-1.058-.338h-1.662v2.415zm7.115 4.205a2.22 2.22 0 0 1-.941-.196 1.61 1.61 0 0 1-.671-.572c-.166-.25-.249-.554-.249-.909 0-.312.062-.565.185-.76a1.31 1.31 0 0 1 .494-.461 2.62 2.62 0 0 1 .682-.249l.756-.135.806-.096c.208-.023.36-.062.454-.117s.146-.149.146-.284v-.028c0-.351-.096-.623-.288-.817s-.477-.291-.863-.291c-.4 0-.714.087-.941.263a1.55 1.55 0 0 0-.479.561l-.796-.284c.142-.332.332-.59.568-.775a2.12 2.12 0 0 1 .781-.39 3.23 3.23 0 0 1 .838-.114 3.3 3.3 0 0 1 .604.064 2 2 0 0 1 .664.252c.213.128.394.321.536.579s.213.604.213 1.037v3.594h-.838v-.739h-.043c-.057.118-.151.245-.284.38s-.309.25-.529.344a2.05 2.05 0 0 1-.806.143zm.128-.753c.331 0 .611-.065.838-.196a1.35 1.35 0 0 0 .518-.504c.116-.206.178-.422.178-.65v-.767c-.035.043-.114.082-.234.117a3.73 3.73 0 0 1-.412.089l-.451.064-.352.043c-.218.028-.421.074-.611.138s-.339.155-.455.281-.17.291-.17.504c0 .291.108.511.323.661s.494.22.827.22zm7.339-1.605v-3.225h.838v5.455h-.838v-.924h-.057a1.79 1.79 0 0 1-.597.707c-.27.192-.611.288-1.023.288-.341 0-.644-.075-.909-.224a1.55 1.55 0 0 1-.625-.682c-.151-.303-.227-.69-.227-1.154v-3.466h.838v3.409c0 .398.111.715.334.952s.511.355.859.355a1.42 1.42 0 0 0 .636-.16c.218-.106.4-.27.547-.49s.224-.501.224-.841zm4.433 2.343a2.14 2.14 0 0 1-1.204-.344c-.348-.232-.62-.559-.817-.98s-.295-.925-.295-1.502.098-1.07.295-1.492.47-.747.82-.976a2.17 2.17 0 0 1 1.215-.345c.355 0 .636.059.842.178s.367.248.476.397l.259.363h.071v-2.685h.838v7.273h-.81v-.838h-.1a5.08 5.08 0 0 1-.263.376c-.114.151-.276.283-.486.401s-.491.174-.842.174zm.114-.753c.336 0 .62-.087.852-.262s.408-.423.529-.735.181-.679.181-1.091a2.91 2.91 0 0 0-.178-1.068 1.56 1.56 0 0 0-.526-.718c-.232-.173-.518-.259-.859-.259-.355 0-.651.091-.888.273s-.411.425-.529.735a2.89 2.89 0 0 0-.174 1.037 3.01 3.01 0 0 0 .178 1.059c.121.315.298.565.533.752s.53.277.881.277zm6.964.64v-7.273h2.457c.568 0 1.035.097 1.399.291a1.86 1.86 0 0 1 .81.792c.175.336.263.719.263 1.147a2.4 2.4 0 0 1-.263 1.14c-.175.331-.444.592-.806.781s-.825.281-1.388.281h-1.989v-.796h1.96c.388 0 .701-.057.938-.17a1.08 1.08 0 0 0 .519-.483c.109-.211.163-.462.163-.753s-.054-.546-.163-.763-.283-.386-.522-.505-.555-.181-.948-.181h-1.548v6.492h-.881zm3.423-3.267l1.79 3.267h-1.023l-1.761-3.267h.994zm4.465 3.395a2.22 2.22 0 0 1-.941-.196 1.61 1.61 0 0 1-.671-.572c-.166-.25-.249-.554-.249-.909 0-.312.062-.565.185-.76a1.31 1.31 0 0 1 .494-.461 2.62 2.62 0 0 1 .682-.249l.756-.135.806-.096c.208-.023.36-.062.454-.117s.146-.149.146-.284v-.028c0-.351-.096-.623-.288-.817s-.477-.291-.863-.291c-.4 0-.714.087-.941.263a1.55 1.55 0 0 0-.479.561l-.795-.284c.142-.332.331-.59.568-.775a2.14 2.14 0 0 1 .781-.39c.281-.073.563-.114.838-.114a3.3 3.3 0 0 1 .604.064 2 2 0 0 1 .664.252c.213.128.394.321.536.579s.213.604.213 1.037v3.594h-.838v-.739h-.043c-.057.118-.151.245-.284.38s-.309.25-.529.344a2.05 2.05 0 0 1-.806.143zm.128-.753c.331 0 .611-.065.838-.196s.403-.298.519-.504.177-.422.177-.65v-.767c-.035.043-.114.082-.234.117a3.73 3.73 0 0 1-.412.089l-.451.064-.351.043c-.218.028-.421.074-.611.138s-.339.155-.455.281-.17.291-.17.504c0 .291.108.511.323.661s.494.22.827.22zm6.274-4.83v.71h-2.827v-.71h2.827zm-2.003-1.307h.838v5.199c0 .237.035.414.103.533a.53.53 0 0 0 .27.234 1.08 1.08 0 0 0 .352.057 1.55 1.55 0 0 0 .227-.014l.142-.029.171.753a1.61 1.61 0 0 1-.238.064 1.73 1.73 0 0 1-.387.036 1.68 1.68 0 0 1-.696-.153c-.225-.102-.412-.257-.562-.465s-.22-.471-.22-.789v-5.426zm5.492 6.875c-.525 0-.979-.116-1.36-.348s-.671-.561-.877-.98-.306-.911-.306-1.47.102-1.051.306-1.477a2.41 2.41 0 0 1 .859-1.002c.367-.239.8-.362 1.293-.362a2.57 2.57 0 0 1 .841.142 2.09 2.09 0 0 1 .757.462c.227.21.408.49.543.838s.203.776.203 1.285v.355h-4.205v-.724h3.352a1.79 1.79 0 0 0-.184-.824 1.4 1.4 0 0 0-.519-.572c-.222-.139-.485-.209-.788-.209-.334 0-.623.083-.867.249a1.63 1.63 0 0 0-.557.639 1.88 1.88 0 0 0-.195.845v.483c0 .412.071.761.213 1.047a1.51 1.51 0 0 0 .6.65c.256.149.553.22.891.22.22 0 .419-.03.597-.092s.335-.158.465-.284a1.29 1.29 0 0 0 .302-.476l.809.227a1.79 1.79 0 0 1-.429.725 2.1 2.1 0 0 1-.746.483c-.296.113-.629.17-.998.17zm-44.753-67.113v-7.273h2.457c.571 0 1.037.103 1.399.309a1.93 1.93 0 0 1 .81.827c.175.348.263.737.263 1.165s-.088.818-.263 1.168-.44.63-.803.838-.826.309-1.392.309h-1.761v-.781h1.733c.391 0 .704-.067.941-.202s.408-.317.515-.547.163-.494.163-.785a1.8 1.8 0 0 0-.163-.781 1.16 1.16 0 0 0-.518-.54c-.239-.13-.556-.199-.952-.199h-1.548v6.492h-.881zm8.391.113c-.492 0-.925-.117-1.296-.351s-.658-.563-.867-.984-.309-.914-.309-1.477.103-1.064.309-1.488a2.36 2.36 0 0 1 .867-.987c.37-.234.804-.352 1.296-.352s.923.117 1.293.352.66.563.867.987.313.92.313 1.488-.104 1.056-.312 1.477-.495.749-.867.984-.8.351-1.293.351zm0-.753c.374 0 .682-.095.923-.287a1.7 1.7 0 0 0 .536-.757c.116-.313.174-.651.174-1.015a2.92 2.92 0 0 0-.174-1.019 1.72 1.72 0 0 0-.536-.764c-.241-.194-.549-.291-.923-.291s-.682.097-.923.291a1.72 1.72 0 0 0-.536.764 2.92 2.92 0 0 0-.174 1.019c0 .364.058.703.174 1.015s.295.565.536.757.549.287.923.287zm4.801.64l-1.662-5.455h.881l1.179 4.176h.057l1.165-4.176h.895l1.15 4.162h.057l1.179-4.162h.881l-1.662 5.455h-.824l-1.193-4.191h-.085l-1.193 4.191h-.824zm8.99.113c-.525 0-.979-.116-1.36-.348s-.671-.561-.877-.98-.305-.911-.305-1.47.102-1.051.305-1.477a2.41 2.41 0 0 1 .859-1.002 2.32 2.32 0 0 1 1.293-.362 2.58 2.58 0 0 1 .842.142 2.09 2.09 0 0 1 .756.462c.227.21.408.49.543.838s.202.776.202 1.285v.355h-4.205v-.724h3.352a1.79 1.79 0 0 0-.185-.824c-.121-.241-.294-.432-.518-.572s-.485-.209-.788-.209c-.334 0-.623.083-.867.249a1.63 1.63 0 0 0-.557.639 1.88 1.88 0 0 0-.195.845v.483c0 .412.071.761.213 1.047a1.53 1.53 0 0 0 .6.65c.256.147.553.22.891.22.22 0 .419-.03.597-.092a1.27 1.27 0 0 0 .465-.284 1.29 1.29 0 0 0 .302-.476l.81.227a1.79 1.79 0 0 1-.43.725c-.201.206-.45.367-.746.483a2.78 2.78 0 0 1-.998.17zm3.533-.113v-5.455h.81v.824h.057a1.31 1.31 0 0 1 .54-.657 1.59 1.59 0 0 1 .881-.252l.231.003.209.011v.852a3.03 3.03 0 0 0-.195-.032 1.99 1.99 0 0 0-.316-.024c-.265 0-.502.055-.71.166a1.26 1.26 0 0 0-.49.455 1.23 1.23 0 0 0-.178.657v3.452h-.838z" class="D"/><path d="M200.753 196.014v-.64l2.4-2.627.696-.803c.183-.23.318-.445.405-.646s.135-.417.135-.639c0-.256-.061-.477-.184-.665a1.2 1.2 0 0 0-.498-.433c-.21-.102-.447-.152-.71-.152-.279 0-.523.058-.731.174a1.2 1.2 0 0 0-.48.479 1.47 1.47 0 0 0-.167.724h-.838c0-.426.098-.8.295-1.122a2.05 2.05 0 0 1 .803-.753c.339-.18.723-.269 1.147-.269s.803.089 1.132.269.588.423.775.728.28.646.28 1.02a2.17 2.17 0 0 1-.146.784c-.094.254-.26.537-.497.849a15.15 15.15 0 0 1-.976 1.136l-1.634 1.748v.056h3.381v.782h-4.588zm5.728-1.492v-.724l3.196-5.057h.525v1.122h-.355l-2.414 3.821v.057h4.304v.781h-5.256zm3.423 1.492v-1.712-.337-5.224h.838v7.273h-.838zm5.535.099c-.535 0-.99-.145-1.367-.437s-.664-.718-.863-1.275-.298-1.233-.298-2.024.099-1.457.298-2.013.49-.985.867-1.279.833-.443 1.363-.443.984.147 1.361.443.667.72.866 1.279.302 1.227.302 2.013-.1 1.466-.298 2.024-.487.982-.863 1.275-.833.437-1.368.437zm0-.781c.531 0 .943-.256 1.236-.767s.441-1.241.441-2.188c0-.629-.068-1.166-.203-1.608s-.324-.78-.575-1.012a1.27 1.27 0 0 0-.899-.348c-.525 0-.936.259-1.232.777s-.444 1.247-.444 2.191c0 .63.067 1.165.199 1.605s.323.776.572 1.005.553.345.905.345zm6.25.781c-.535 0-.99-.145-1.367-.437s-.664-.718-.863-1.275-.298-1.233-.298-2.024.099-1.457.298-2.013.49-.985.867-1.279.833-.443 1.363-.443.984.147 1.361.443.667.72.866 1.279.302 1.227.302 2.013-.1 1.466-.298 2.024-.487.982-.863 1.275-.833.437-1.368.437zm0-.781c.531 0 .943-.256 1.236-.767s.441-1.241.441-2.188c0-.629-.068-1.166-.203-1.608s-.324-.78-.575-1.012a1.27 1.27 0 0 0-.899-.348c-.525 0-.936.259-1.232.777s-.444 1.247-.444 2.191c0 .63.067 1.165.199 1.605s.323.776.572 1.005.553.345.905.345zm-18.379-73.591v7.273h-.881v-6.35h-.043l-1.775 1.179v-.895l1.818-1.207h.881zm2.091 7.273v-.64l2.401-2.627.696-.803c.182-.23.317-.445.405-.646a1.59 1.59 0 0 0 .135-.639c0-.256-.062-.477-.185-.665a1.2 1.2 0 0 0-.497-.433 1.61 1.61 0 0 0-.71-.152c-.28 0-.524.058-.732.174s-.366.273-.479.479a1.48 1.48 0 0 0-.167.724h-.838c0-.426.098-.8.294-1.122a2.05 2.05 0 0 1 .803-.753c.341-.18.723-.269 1.147-.269s.804.089 1.133.269.587.423.774.728.281.646.281 1.02a2.19 2.19 0 0 1-.146.784c-.095.254-.261.537-.497.849s-.56.689-.977 1.136l-1.633 1.748v.056h3.38v.782h-4.588zm9.294-7.273l2.159 6.122h.085l2.159-6.122h.923l-2.67 7.273h-.909l-2.671-7.273h.924z" class="B"/><path d="M30 203.764h226" class="C E"/><path d="M49.375 212.472h-9.75c-.896 0-1.625.785-1.625 1.75v8.75h13v-8.75c0-.965-.729-1.75-1.625-1.75zm-7.042 8.459H41.25v-3.863l-.696.769-.776-.814 1.741-1.926h.813v5.833.001z" class="G"/><path d="M60.881 224.014v-7.273h2.457c.571 0 1.037.103 1.399.309a1.93 1.93 0 0 1 .81.827c.175.348.263.737.263 1.165s-.088.818-.263 1.168-.44.63-.803.838-.826.309-1.392.309h-1.761v-.781h1.733c.391 0 .704-.067.941-.202s.408-.317.515-.547.163-.494.163-.785a1.8 1.8 0 0 0-.163-.781c-.106-.23-.279-.41-.518-.54s-.556-.199-.952-.199h-1.548v6.492h-.881zm7.839.128a2.22 2.22 0 0 1-.941-.196c-.282-.132-.505-.323-.671-.572s-.249-.554-.249-.909c0-.312.062-.565.185-.76s.288-.35.494-.461.433-.194.682-.249l.756-.135.806-.096c.208-.023.36-.062.455-.117s.145-.149.145-.284v-.028c0-.351-.096-.623-.288-.817s-.477-.291-.863-.291c-.4 0-.714.087-.941.263s-.387.362-.479.561l-.795-.284a1.91 1.91 0 0 1 .568-.775c.239-.187.499-.317.781-.39s.563-.114.838-.114c.175 0 .376.021.604.064s.451.124.664.252.394.321.536.579.213.604.213 1.037v3.594h-.838v-.739h-.043c-.057.118-.151.245-.284.38s-.309.25-.529.344-.489.143-.806.143zm.128-.753c.331 0 .611-.065.838-.196s.403-.298.519-.504.177-.422.177-.65v-.767c-.035.043-.114.082-.234.117a3.73 3.73 0 0 1-.412.089l-.451.064-.352.043c-.218.028-.421.074-.611.138s-.339.155-.455.281-.17.291-.17.504c0 .291.108.511.323.661s.494.22.828.22zm3.902.625v-5.455h.81v.824h.057a1.31 1.31 0 0 1 .54-.657 1.59 1.59 0 0 1 .881-.252l.231.003.209.011v.852a3.03 3.03 0 0 0-.195-.032 1.99 1.99 0 0 0-.316-.024c-.265 0-.502.055-.71.166a1.26 1.26 0 0 0-.49.455c-.118.192-.178.411-.178.657v3.452h-.838zm3.721 0v-5.455h.838v5.455h-.838zm.426-6.364c-.163 0-.304-.056-.423-.167s-.174-.245-.174-.401.058-.29.174-.401.259-.167.423-.167a.58.58 0 0 1 .419.167.53.53 0 0 1 .178.401.53.53 0 0 1-.178.401c-.116.111-.256.167-.419.167zm4.319.909v.71h-2.827v-.71h2.827zm-2.003-1.307h.838v5.199c0 .237.034.414.103.533a.53.53 0 0 0 .27.234 1.08 1.08 0 0 0 .352.057 1.55 1.55 0 0 0 .227-.014l.142-.029.17.753c-.057.022-.136.043-.238.064a1.73 1.73 0 0 1-.387.036c-.237 0-.469-.051-.696-.153s-.412-.257-.561-.465-.22-.471-.22-.789v-5.426zm3.803 8.807c-.142 0-.269-.012-.38-.035s-.188-.043-.231-.064l.213-.739a1.62 1.62 0 0 0 .54.057c.156-.014.295-.084.416-.21s.236-.323.337-.6l.156-.426-2.017-5.483h.909l1.506 4.347h.057l1.506-4.347h.909l-2.315 6.25c-.104.282-.233.515-.387.7a1.45 1.45 0 0 1-.536.415c-.201.09-.428.135-.682.135z" class="D"/><path d="M206.648 216.741v7.273h-.853l-3.963-5.711h-.071v5.711h-.88v-7.273h.852l3.977 5.724h.071v-5.724h.867zm3.864 7.386c-.492 0-.924-.117-1.296-.351s-.658-.563-.866-.984-.309-.914-.309-1.477.103-1.064.309-1.488.497-.753.866-.987.804-.352 1.296-.352.924.117 1.293.352a2.37 2.37 0 0 1 .866.987c.206.424.313.92.313 1.488s-.104 1.056-.313 1.477a2.36 2.36 0 0 1-.866.984c-.369.234-.8.351-1.293.351zm0-.753c.374 0 .682-.095.924-.287a1.7 1.7 0 0 0 .536-.757c.116-.312.174-.651.174-1.015a2.92 2.92 0 0 0-.174-1.019 1.72 1.72 0 0 0-.536-.764c-.242-.194-.55-.291-.924-.291s-.682.097-.923.291a1.72 1.72 0 0 0-.536.764 2.92 2.92 0 0 0-.174 1.019c0 .364.058.703.174 1.015s.294.565.536.757.549.287.923.287zm4.589-2.642v3.282h-.838v-5.455h.81v.852h.071a1.56 1.56 0 0 1 .582-.667c.261-.171.597-.256 1.009-.256.369 0 .692.076.969.227s.493.377.646.682.231.687.231 1.151v3.466h-.838v-3.409c0-.429-.111-.763-.334-1.002s-.527-.362-.916-.362c-.267 0-.506.058-.717.174a1.23 1.23 0 0 0-.494.508c-.121.223-.181.492-.181.809zm7.299 3.395c-.526 0-.979-.116-1.36-.348a2.31 2.31 0 0 1-.878-.98c-.206-.419-.305-.911-.305-1.47s.102-1.051.305-1.477.493-.763.86-1.002a2.31 2.31 0 0 1 1.292-.362c.285 0 .565.047.842.142s.529.249.756.462.409.49.544.838.202.776.202 1.285v.355h-4.204v-.724h3.352a1.79 1.79 0 0 0-.185-.824 1.39 1.39 0 0 0-.518-.572 1.46 1.46 0 0 0-.789-.209c-.333 0-.622.083-.866.249a1.64 1.64 0 0 0-.558.639 1.88 1.88 0 0 0-.195.845v.483c0 .412.071.761.213 1.047a1.54 1.54 0 0 0 .6.65c.256.147.553.22.892.22.22 0 .419-.03.596-.092s.335-.158.465-.284.231-.286.302-.476l.81.227a1.78 1.78 0 0 1-.43.725c-.201.206-.45.367-.745.483s-.629.17-.998.17zM28.881 263.014v-7.273h2.457c.568 0 1.034.097 1.399.291a1.86 1.86 0 0 1 .81.792c.175.336.263.719.263 1.147a2.4 2.4 0 0 1-.263 1.14c-.175.331-.444.592-.806.781s-.825.281-1.389.281h-1.989v-.796h1.96c.388 0 .701-.057.938-.17a1.08 1.08 0 0 0 .518-.483c.109-.211.163-.462.163-.753s-.054-.546-.163-.763-.283-.386-.522-.505-.555-.181-.948-.181h-1.548v6.492h-.881zm3.423-3.267l1.79 3.267h-1.023l-1.761-3.267h.994zm6.95-2.188c-.043-.36-.215-.639-.518-.838s-.675-.298-1.115-.298a2.12 2.12 0 0 0-.845.156 1.33 1.33 0 0 0-.561.43c-.135.183-.199.389-.199.621a.89.89 0 0 0 .139.501c.095.137.215.252.362.344a2.58 2.58 0 0 0 .462.224l.444.139.739.198a6.72 6.72 0 0 1 .632.206c.232.087.458.208.671.359a1.83 1.83 0 0 1 .533.575c.14.235.209.522.209.863 0 .393-.103.748-.309 1.066s-.502.569-.895.756-.865.281-1.424.281c-.521 0-.972-.085-1.353-.253a2.14 2.14 0 0 1-.895-.703 1.99 1.99 0 0 1-.366-1.047h.909c.024.274.116.502.277.681a1.49 1.49 0 0 0 .618.398 2.51 2.51 0 0 0 .81.128 2.38 2.38 0 0 0 .906-.163 1.56 1.56 0 0 0 .636-.462c.157-.197.234-.431.234-.696 0-.241-.068-.438-.202-.589s-.312-.275-.533-.37a5.58 5.58 0 0 0-.714-.248l-.895-.256c-.568-.163-1.018-.397-1.349-.7s-.497-.699-.497-1.189c0-.407.11-.763.33-1.066s.521-.542.895-.71.797-.255 1.261-.255.885.084 1.25.252a2.16 2.16 0 0 1 .867.681 1.7 1.7 0 0 1 .341.984h-.852zm2.101 3.963v-.724l3.196-5.057h.526v1.122h-.355l-2.415 3.821v.057h4.304v.781h-5.256zm3.423 1.492v-1.712-.337-5.224h.838v7.273h-.838zm5.493.099c-.488 0-.919-.086-1.293-.259s-.662-.416-.87-.721a1.81 1.81 0 0 1-.309-1.051 1.93 1.93 0 0 1 .181-.852 1.85 1.85 0 0 1 .504-.657 1.55 1.55 0 0 1 .721-.338v-.042c-.348-.09-.625-.286-.831-.586s-.308-.648-.305-1.034c-.002-.369.091-.699.281-.99a1.97 1.97 0 0 1 .781-.689c.334-.168.714-.252 1.14-.252s.798.084 1.129.252a1.97 1.97 0 0 1 .781.689 1.78 1.78 0 0 1 .291.99c-.002.386-.108.731-.316 1.034s-.479.496-.82.586v.042a1.5 1.5 0 0 1 .71.338 1.91 1.91 0 0 1 .504.657 1.97 1.97 0 0 1 .192.852c-.002.393-.109.743-.32 1.051s-.498.546-.87.721-.797.259-1.282.259zm0-.781c.329 0 .613-.053.852-.16s.424-.257.554-.451.197-.421.199-.682a1.31 1.31 0 0 0-.213-.728c-.14-.21-.33-.376-.572-.497a1.8 1.8 0 0 0-.82-.181c-.307 0-.587.06-.831.181a1.44 1.44 0 0 0-.572.497c-.14.21-.205.454-.202.728a1.19 1.19 0 0 0 .188.682 1.26 1.26 0 0 0 .558.451c.242.106.528.16.859.16zm0-3.452a1.49 1.49 0 0 0 .693-.156c.202-.104.363-.25.479-.437a1.25 1.25 0 0 0 .178-.657c.003-.251-.06-.46-.174-.643s-.271-.326-.472-.426-.436-.152-.703-.152-.51.05-.714.152a1.11 1.11 0 0 0-.472.426 1.19 1.19 0 0 0-.163.643c-.002.251.053.47.167.657s.276.333.479.437.438.156.703.156zm6.105 4.233c-.417 0-.792-.083-1.126-.248a2.09 2.09 0 0 1-.802-.682 1.86 1.86 0 0 1-.33-.988h.852c.033.33.182.602.447.817s.587.32.959.32a1.51 1.51 0 0 0 .796-.21 1.47 1.47 0 0 0 .55-.575c.135-.246.202-.524.202-.834a1.7 1.7 0 0 0-.21-.849c-.137-.251-.327-.449-.568-.593s-.517-.218-.827-.22c-.223-.003-.451.032-.685.103s-.427.157-.579.266l-.824-.1.44-3.579h3.778v.781h-3.04l-.256 2.145h.043a1.9 1.9 0 0 1 .561-.295 2.13 2.13 0 0 1 .703-.117c.445 0 .842.107 1.19.32s.625.499.824.866.302.786.302 1.257c0 .464-.104.879-.312 1.243a2.29 2.29 0 0 1-.852.86c-.362.208-.774.312-1.236.312zm7.05-.099h-.923l2.67-7.273h.909l2.67 7.273h-.923l-2.173-6.122H65.6l-2.173 6.122zm.341-2.841h3.722v.781h-3.722v-.781zm8.065 2.954a2.14 2.14 0 0 1-1.204-.344c-.348-.232-.62-.559-.817-.98s-.295-.925-.295-1.502.098-1.07.295-1.492.47-.747.82-.976a2.17 2.17 0 0 1 1.215-.345c.355 0 .636.059.842.178s.367.248.476.397l.259.363h.071v-2.685h.838v7.273h-.81v-.838h-.099c-.062.099-.149.225-.263.376s-.276.283-.487.401-.491.174-.842.174zm.114-.753c.336 0 .62-.087.852-.262a1.65 1.65 0 0 0 .529-.735c.121-.315.181-.679.181-1.091a2.91 2.91 0 0 0-.178-1.068 1.58 1.58 0 0 0-.526-.718 1.41 1.41 0 0 0-.859-.259c-.355 0-.651.091-.888.273s-.411.425-.529.735a2.89 2.89 0 0 0-.174 1.037 3.02 3.02 0 0 0 .177 1.059c.118.318.298.565.533.752s.53.277.881.277zm6.097.753a2.14 2.14 0 0 1-1.204-.344c-.348-.232-.62-.559-.817-.98s-.295-.925-.295-1.502.098-1.07.295-1.492.47-.747.82-.976a2.17 2.17 0 0 1 1.215-.345c.355 0 .636.059.842.178s.367.248.476.397l.259.363h.071v-2.685h.838v7.273h-.81v-.838h-.099a5.08 5.08 0 0 1-.263.376c-.114.151-.276.283-.487.401s-.491.174-.842.174zm.114-.753c.336 0 .62-.087.852-.262a1.65 1.65 0 0 0 .529-.735c.121-.315.181-.679.181-1.091s-.059-.763-.177-1.068a1.56 1.56 0 0 0-.526-.718c-.232-.173-.518-.259-.859-.259-.355 0-.651.091-.888.273s-.411.425-.529.735a2.89 2.89 0 0 0-.174 1.037 3.01 3.01 0 0 0 .178 1.059c.121.315.298.565.533.752s.53.277.881.277zm4.038.64v-5.455h.81v.824h.057c.099-.27.279-.489.54-.657a1.59 1.59 0 0 1 .881-.252l.231.003.21.011v.852a3.05 3.05 0 0 0-.195-.032 1.99 1.99 0 0 0-.316-.024c-.265 0-.502.055-.71.166a1.26 1.26 0 0 0-.49.455 1.23 1.23 0 0 0-.178.657v3.452h-.838zm5.842.113c-.526 0-.979-.116-1.36-.348s-.671-.561-.877-.98-.305-.911-.305-1.47.102-1.051.305-1.477.492-.763.859-1.002.8-.362 1.293-.362a2.58 2.58 0 0 1 .842.142 2.09 2.09 0 0 1 .756.462c.227.21.408.49.543.838s.202.776.202 1.285v.355H86.09v-.724h3.352a1.79 1.79 0 0 0-.185-.824c-.121-.241-.294-.432-.518-.572s-.485-.209-.788-.209c-.334 0-.623.083-.867.249a1.63 1.63 0 0 0-.558.639 1.88 1.88 0 0 0-.195.845v.483c0 .412.071.761.213 1.047a1.53 1.53 0 0 0 .6.65c.256.147.553.22.891.22.22 0 .419-.03.597-.092a1.27 1.27 0 0 0 .465-.284 1.29 1.29 0 0 0 .302-.476l.81.227a1.78 1.78 0 0 1-.43.725c-.202.208-.45.367-.746.483a2.78 2.78 0 0 1-.998.17zm7.397-4.346l-.753.213c-.047-.126-.117-.248-.209-.366s-.213-.22-.369-.298-.356-.117-.6-.117c-.334 0-.612.076-.834.23s-.33.345-.33.579c0 .209.076.373.227.494s.388.221.71.302l.81.199c.488.118.851.299 1.09.543s.359.553.359.934c0 .312-.09.592-.27.838a1.79 1.79 0 0 1-.746.582c-.32.142-.691.213-1.115.213-.556 0-1.017-.12-1.381-.362s-.595-.594-.692-1.058l.796-.199c.076.294.219.514.43.661s.491.22.835.22c.391 0 .701-.083.93-.249s.348-.369.348-.604a.63.63 0 0 0-.199-.475c-.133-.131-.336-.228-.611-.292l-.909-.213c-.499-.118-.866-.302-1.101-.55s-.348-.565-.348-.941a1.35 1.35 0 0 1 .259-.817 1.75 1.75 0 0 1 .714-.557c.301-.134.646-.203 1.03-.203.54 0 .964.118 1.271.355a1.93 1.93 0 0 1 .66.938zm5.225 0l-.753.213c-.047-.126-.117-.248-.209-.366s-.213-.22-.369-.298-.356-.117-.6-.117c-.334 0-.612.076-.835.23s-.33.345-.33.579c0 .209.076.373.227.494s.388.221.71.302l.81.199c.488.118.851.299 1.09.543s.358.553.358.934a1.39 1.39 0 0 1-.269.838c-.178.246-.427.44-.746.582s-.691.213-1.115.213c-.556 0-1.017-.12-1.381-.362s-.595-.594-.693-1.058l.796-.199c.076.294.219.514.43.661s.491.22.835.22c.391 0 .701-.083.93-.249s.348-.369.348-.604a.63.63 0 0 0-.199-.475c-.133-.131-.336-.228-.611-.292l-.909-.213c-.499-.118-.866-.302-1.101-.55s-.348-.565-.348-.941a1.35 1.35 0 0 1 .259-.817 1.75 1.75 0 0 1 .714-.557c.301-.134.646-.203 1.03-.203.54 0 .963.118 1.271.355a1.91 1.91 0 0 1 .66.938zm123.682 37.17l-.563-.562 3.319-3.291-3.319-3.29.563-.563 3.881 3.853-3.881 3.853z" class="B"/><path d="M28.881 296.014v-7.273h4.361v.781h-3.48v2.458h3.153v.781h-3.153v3.253h-.881zm5.756 0v-5.455h.838v5.455h-.838zm.426-6.364c-.163 0-.304-.056-.423-.167s-.174-.245-.174-.401.058-.29.174-.401.259-.167.423-.167a.58.58 0 0 1 .419.167.53.53 0 0 1 .178.401.53.53 0 0 1-.178.401c-.116.111-.256.167-.419.167zm4.234 6.477c-.526 0-.979-.116-1.36-.348s-.671-.561-.877-.98-.305-.911-.305-1.47.102-1.051.305-1.477.492-.763.859-1.002.8-.362 1.293-.362a2.58 2.58 0 0 1 .842.142 2.09 2.09 0 0 1 .756.462c.227.21.408.49.543.838s.202.776.202 1.285v.355H37.35v-.724h3.352a1.79 1.79 0 0 0-.185-.824c-.121-.241-.294-.432-.519-.572s-.485-.209-.788-.209c-.334 0-.623.083-.866.249a1.63 1.63 0 0 0-.558.639c-.13.263-.195.544-.195.845v.483c0 .412.071.761.213 1.047a1.53 1.53 0 0 0 .6.65c.256.147.553.22.891.22.22 0 .419-.03.597-.092a1.27 1.27 0 0 0 .465-.284c.13-.128.231-.286.302-.476l.81.227c-.085.275-.228.517-.43.725s-.45.367-.746.483a2.78 2.78 0 0 1-.998.17zm4.371-7.386v7.273h-.838v-7.273h.838zm3.595 7.386a2.14 2.14 0 0 1-1.204-.344c-.348-.232-.62-.559-.817-.98s-.295-.925-.295-1.502.098-1.07.295-1.492.47-.747.82-.976.755-.345 1.215-.345c.355 0 .636.059.842.178s.367.248.476.397l.259.363h.071v-2.685h.838v7.273h-.81v-.838h-.099c-.062.099-.149.225-.263.376s-.276.283-.486.401-.491.174-.842.174zm.114-.753c.336 0 .62-.087.852-.262s.408-.423.529-.735.181-.679.181-1.091-.059-.763-.178-1.068-.294-.547-.526-.718-.519-.259-.859-.259c-.355 0-.651.091-.888.273s-.411.425-.529.735-.174.654-.174 1.037c0 .389.059.741.178 1.059s.298.565.533.752.53.277.881.277zm9.393-6.633v7.273h-.881v-6.35h-.043l-1.776 1.179v-.895l1.818-1.207h.881z" class="D"/><path d="M177.179 288.741l2.159 6.122h.085l2.159-6.122h.924l-2.671 7.273h-.909l-2.67-7.273h.923zm8.054 7.386c-.492 0-.925-.117-1.296-.351s-.658-.563-.867-.984-.309-.914-.309-1.477.103-1.064.309-1.488a2.38 2.38 0 0 1 .867-.987c.371-.235.804-.352 1.296-.352s.923.117 1.293.352a2.35 2.35 0 0 1 .866.987c.208.424.313.92.313 1.488s-.105 1.056-.313 1.477-.495.749-.866.984-.801.351-1.293.351zm0-.753c.374 0 .682-.095.923-.287s.42-.444.536-.757.174-.651.174-1.015a2.92 2.92 0 0 0-.174-1.019c-.116-.315-.294-.57-.536-.764s-.549-.291-.923-.291-.682.097-.923.291-.421.449-.537.764a2.92 2.92 0 0 0-.174 1.019c0 .364.058.703.174 1.015s.295.565.537.757.549.287.923.287zm4.589-6.633v7.273h-.838v-7.273h.838zm3.907 1.818v.71h-2.827v-.71h2.827zm-2.003-1.307h.838v5.199c0 .237.035.414.103.533a.53.53 0 0 0 .27.234 1.08 1.08 0 0 0 .352.057 1.55 1.55 0 0 0 .227-.014l.142-.029.17.753c-.056.022-.136.043-.237.064s-.231.036-.388.036a1.69 1.69 0 0 1-.696-.153c-.224-.102-.411-.257-.561-.465s-.22-.471-.22-.789v-5.426zm4.869 6.89c-.346 0-.66-.066-.941-.196a1.6 1.6 0 0 1-.671-.572c-.166-.25-.249-.554-.249-.909 0-.312.062-.565.185-.76a1.3 1.3 0 0 1 .493-.461c.206-.111.434-.194.682-.249l.756-.135.807-.096c.208-.023.359-.062.454-.117s.146-.149.146-.284v-.028c0-.351-.096-.623-.288-.817s-.477-.291-.863-.291c-.4 0-.714.087-.941.263s-.387.362-.479.561l-.796-.284c.142-.332.332-.59.568-.775a2.13 2.13 0 0 1 .782-.39 3.23 3.23 0 0 1 .838-.114 3.28 3.28 0 0 1 .603.064c.23.04.451.124.665.252s.394.321.536.579.213.604.213 1.037v3.594h-.838v-.739h-.043c-.057.118-.151.245-.284.38s-.309.25-.529.344-.489.143-.806.143zm.128-.753c.331 0 .61-.065.838-.196a1.33 1.33 0 0 0 .518-.504c.119-.206.178-.422.178-.65v-.767c-.036.043-.114.082-.235.117s-.255.063-.412.089l-.451.064-.351.043c-.218.028-.422.074-.611.138a1.05 1.05 0 0 0-.454.281c-.114.123-.171.291-.171.504 0 .291.108.511.323.661s.494.22.828.22zm6.103 2.784c-.405 0-.753-.052-1.044-.156s-.534-.237-.728-.405a2.23 2.23 0 0 1-.458-.533l.668-.469c.075.1.171.213.287.341a1.47 1.47 0 0 0 .476.338c.204.097.47.145.799.145.441 0 .804-.106 1.09-.319s.43-.547.43-1.002v-1.108h-.071c-.062.1-.149.223-.263.369s-.272.274-.483.388-.49.166-.845.166c-.44 0-.836-.104-1.186-.312s-.624-.511-.827-.909-.302-.881-.302-1.449c0-.559.098-1.045.295-1.46s.469-.738.82-.965a2.16 2.16 0 0 1 1.214-.345c.355 0 .637.059.846.178a1.48 1.48 0 0 1 .482.397l.263.363h.085v-.867h.81v5.611c0 .469-.106.85-.319 1.143s-.495.513-.853.65-.75.21-1.186.21zm-.028-2.997c.336 0 .62-.077.852-.231s.408-.375.529-.664.181-.635.181-1.037c0-.393-.059-.74-.177-1.041s-.294-.536-.526-.706-.518-.256-.859-.256c-.355 0-.651.09-.888.27s-.411.421-.529.724a2.8 2.8 0 0 0-.174 1.009c0 .379.059.714.177 1.005s.299.516.533.682.53.245.881.245zm6.207.951c-.525 0-.979-.116-1.36-.348s-.671-.561-.877-.98-.305-.911-.305-1.47.101-1.051.305-1.477.492-.763.859-1.002.8-.362 1.293-.362a2.58 2.58 0 0 1 .842.142c.277.095.529.249.756.462s.408.49.543.838.203.776.203 1.285v.355h-4.205v-.724h3.352a1.79 1.79 0 0 0-.184-.824 1.4 1.4 0 0 0-.519-.572c-.222-.139-.485-.209-.788-.209-.334 0-.623.083-.867.249a1.63 1.63 0 0 0-.557.639 1.88 1.88 0 0 0-.195.845v.483c0 .412.071.761.213 1.047s.344.501.6.65.553.22.891.22c.22 0 .419-.03.597-.092s.335-.158.465-.284a1.29 1.29 0 0 0 .302-.476l.809.227a1.79 1.79 0 0 1-.429.725c-.201.206-.45.367-.746.483s-.629.17-.998.17z" class="B"/><g class="C E"><path d="M20 306.764h226"/><path d="M20 306.764h226"/></g><path d="M224.341 329.67l-.563-.594 3.319-3.473-3.319-3.474.563-.593 3.881 4.067-3.881 4.067z" class="B"/><path d="M28.881 328.014v-7.273h4.361v.781h-3.48v2.458h3.153v.781h-3.153v3.253h-.881zm5.756 0v-5.455h.838v5.455h-.838zm.426-6.364c-.163 0-.304-.056-.423-.167s-.174-.245-.174-.401.058-.29.174-.401.259-.167.423-.167a.58.58 0 0 1 .419.167.53.53 0 0 1 .178.401.53.53 0 0 1-.178.401c-.116.111-.256.167-.419.167zm4.234 6.477c-.526 0-.979-.116-1.36-.348s-.671-.561-.877-.98-.305-.911-.305-1.47.102-1.051.305-1.477.492-.763.859-1.002.8-.362 1.293-.362a2.58 2.58 0 0 1 .842.142 2.09 2.09 0 0 1 .756.462c.227.21.408.49.543.838s.202.776.202 1.285v.355H37.35v-.724h3.352a1.79 1.79 0 0 0-.185-.824c-.121-.241-.294-.432-.519-.572s-.485-.209-.788-.209c-.334 0-.623.083-.866.249a1.63 1.63 0 0 0-.558.639c-.13.263-.195.544-.195.845v.483c0 .412.071.761.213 1.047a1.53 1.53 0 0 0 .6.65c.256.147.553.22.891.22.22 0 .419-.03.597-.092a1.27 1.27 0 0 0 .465-.284c.13-.128.231-.286.302-.476l.81.227c-.085.275-.228.517-.43.725s-.45.367-.746.483a2.78 2.78 0 0 1-.998.17zm4.371-7.386v7.273h-.838v-7.273h.838zm3.595 7.386a2.14 2.14 0 0 1-1.204-.344c-.348-.232-.62-.559-.817-.98s-.295-.925-.295-1.502.098-1.07.295-1.492.47-.747.82-.976.755-.345 1.215-.345c.355 0 .636.059.842.178s.367.248.476.397l.259.363h.071v-2.685h.838v7.273h-.81v-.838h-.099c-.062.099-.149.225-.263.376s-.276.283-.486.401-.491.174-.842.174zm.114-.753c.336 0 .62-.087.852-.262s.408-.423.529-.735.181-.679.181-1.091-.059-.763-.178-1.068-.294-.547-.526-.718-.519-.259-.859-.259c-.355 0-.651.091-.888.273s-.411.425-.529.735-.174.654-.174 1.037c0 .389.059.741.178 1.059s.298.565.533.752.53.277.881.277zm6.836.64v-.64l2.401-2.627.696-.803a2.98 2.98 0 0 0 .405-.646c.09-.204.135-.417.135-.639 0-.256-.062-.477-.185-.665a1.2 1.2 0 0 0-.497-.433 1.61 1.61 0 0 0-.71-.152 1.48 1.48 0 0 0-.731.174 1.19 1.19 0 0 0-.479.479 1.5 1.5 0 0 0-.167.724h-.838a2.11 2.11 0 0 1 .295-1.122 2.05 2.05 0 0 1 .803-.753c.341-.18.723-.269 1.147-.269s.804.089 1.133.269.587.423.774.728.281.646.281 1.02a2.19 2.19 0 0 1-.146.784c-.095.254-.261.537-.497.849s-.56.689-.977 1.136l-1.634 1.748v.056H58.8v.782h-4.588z" class="D"/><path d="M182.733 323.014h-.881a1.83 1.83 0 0 0-.273-.668c-.128-.192-.284-.353-.469-.483s-.385-.232-.607-.298a2.44 2.44 0 0 0-.696-.1c-.441 0-.839.112-1.197.334s-.638.551-.849.984-.312.965-.312 1.594.104 1.162.312 1.595.494.761.849.983.756.334 1.197.334a2.44 2.44 0 0 0 .696-.099c.222-.066.425-.165.607-.295s.341-.295.469-.486.221-.417.273-.668h.881c-.066.372-.187.704-.362.998s-.393.543-.654.749a2.83 2.83 0 0 1-.877.465c-.322.107-.666.16-1.033.16-.62 0-1.172-.151-1.655-.454s-.863-.734-1.14-1.293-.415-1.222-.415-1.989.138-1.43.415-1.988.657-.99 1.14-1.293 1.035-.454 1.655-.454c.367 0 .711.053 1.033.159s.617.263.877.469a2.67 2.67 0 0 1 .654.746c.175.291.296.624.362.998zm4.747 2.77v-3.225h.838v5.455h-.838v-.924h-.057c-.128.277-.327.513-.596.707s-.611.288-1.023.288c-.341 0-.644-.075-.909-.224s-.474-.379-.625-.682-.228-.69-.228-1.154v-3.466h.839v3.409c0 .398.111.715.333.952s.512.355.86.355c.208 0 .42-.053.635-.16s.4-.27.547-.49.224-.501.224-.841zm2.373 2.23v-5.455h.81v.824h.056c.1-.27.28-.489.54-.657a1.59 1.59 0 0 1 .881-.252l.231.003.209.011v.852a2.93 2.93 0 0 0-.195-.032c-.099-.016-.205-.024-.316-.024-.265 0-.502.055-.71.166s-.37.261-.49.455a1.22 1.22 0 0 0-.178.657v3.452h-.838zm3.721 0v-5.455h.809v.824h.057c.1-.27.28-.489.54-.657a1.59 1.59 0 0 1 .881-.252l.23.003.21.011v.852a3.06 3.06 0 0 0-.195-.032c-.1-.016-.205-.024-.316-.024a1.49 1.49 0 0 0-.711.166c-.206.109-.369.261-.49.455a1.23 1.23 0 0 0-.177.657v3.452h-.838zm5.841.113c-.525 0-.979-.116-1.36-.348s-.671-.561-.877-.98-.305-.911-.305-1.47.101-1.051.305-1.477.493-.763.859-1.002.801-.362 1.293-.362a2.58 2.58 0 0 1 .842.142c.277.095.529.249.756.462s.408.49.543.838.203.776.203 1.285v.355h-4.205v-.724h3.353a1.79 1.79 0 0 0-.185-.824 1.4 1.4 0 0 0-.519-.572c-.222-.139-.485-.209-.788-.209-.334 0-.623.083-.866.249s-.428.376-.558.639a1.88 1.88 0 0 0-.195.845v.483c0 .412.071.761.213 1.047s.344.501.6.65.553.22.891.22c.22 0 .419-.03.597-.092s.335-.158.465-.284a1.29 1.29 0 0 0 .302-.476l.81.227c-.086.275-.229.517-.43.725s-.45.367-.746.483-.628.17-.998.17zm4.372-3.395v3.282h-.838v-5.455h.809v.852h.071c.128-.277.322-.499.583-.667s.596-.256 1.008-.256c.37 0 .693.076.97.227s.492.377.646.682.231.687.231 1.151v3.466h-.838v-3.409c0-.429-.111-.763-.334-1.002s-.528-.362-.916-.362c-.268 0-.507.058-.718.174s-.372.285-.493.508-.181.492-.181.809zm7.383-2.173v.71h-2.826v-.71h2.826zm-2.002-1.307h.838v5.199c0 .237.034.414.103.533a.53.53 0 0 0 .27.234c.111.038.228.057.351.057a1.55 1.55 0 0 0 .227-.014l.142-.029.171.753c-.057.022-.136.043-.238.064a1.73 1.73 0 0 1-.387.036 1.68 1.68 0 0 1-.696-.153c-.225-.102-.412-.257-.561-.465s-.22-.471-.22-.789v-5.426z" class="B"/><g class="C E"><path d="M20 342.764h226"/><path d="M20 342.764h226"/></g><use href="#H" class="B"/><path d="M28.881 362.014v-7.273h4.361v.781h-3.48v2.458h3.153v.781h-3.153v3.253h-.881zm5.756 0v-5.455h.838v5.455h-.838zm.426-6.364c-.163 0-.304-.056-.423-.167s-.174-.245-.174-.401.058-.29.174-.401.259-.167.423-.167a.58.58 0 0 1 .419.167.53.53 0 0 1 .178.401.53.53 0 0 1-.178.401c-.116.111-.256.167-.419.167zm4.234 6.477c-.526 0-.979-.116-1.36-.348s-.671-.561-.877-.98-.305-.911-.305-1.47.102-1.051.305-1.477.492-.763.859-1.002.8-.362 1.293-.362a2.58 2.58 0 0 1 .842.142 2.09 2.09 0 0 1 .756.462c.227.21.408.49.543.838s.202.776.202 1.285v.355H37.35v-.724h3.352a1.79 1.79 0 0 0-.185-.824c-.121-.241-.294-.432-.519-.572s-.485-.209-.788-.209c-.334 0-.623.083-.866.249a1.63 1.63 0 0 0-.558.639c-.13.263-.195.544-.195.845v.483c0 .412.071.761.213 1.047a1.53 1.53 0 0 0 .6.65c.256.147.553.22.891.22.22 0 .419-.03.597-.092a1.27 1.27 0 0 0 .465-.284c.13-.128.231-.286.302-.476l.81.227c-.085.275-.228.517-.43.725s-.45.367-.746.483a2.78 2.78 0 0 1-.998.17zm4.371-7.386v7.273h-.838v-7.273h.838zm3.595 7.386a2.14 2.14 0 0 1-1.204-.344c-.348-.232-.62-.559-.817-.98s-.295-.925-.295-1.502.098-1.07.295-1.492.47-.747.82-.976.755-.345 1.215-.345c.355 0 .636.059.842.178s.367.248.476.397l.259.363h.071v-2.685h.838v7.273h-.81v-.838h-.099c-.062.099-.149.225-.263.376s-.276.283-.486.401-.491.174-.842.174zm.114-.753c.336 0 .62-.087.852-.262s.408-.423.529-.735.181-.679.181-1.091-.059-.763-.178-1.068-.294-.547-.526-.718-.519-.259-.859-.259c-.355 0-.651.091-.888.273s-.411.425-.529.735-.174.654-.174 1.037c0 .389.059.741.178 1.059s.298.565.533.752.53.277.881.277zm9.293.739c-.469 0-.887-.08-1.253-.241s-.655-.385-.87-.672a1.8 1.8 0 0 1-.348-1.005h.895a1.06 1.06 0 0 0 .242.608 1.39 1.39 0 0 0 .557.39c.23.093.484.139.764.139.313 0 .59-.055.831-.163s.431-.261.568-.455a1.14 1.14 0 0 0 .206-.675c0-.267-.066-.503-.199-.706s-.327-.367-.582-.483-.568-.174-.937-.174h-.582v-.782h.582c.289 0 .542-.052.76-.156a1.22 1.22 0 0 0 .515-.44c.125-.19.188-.412.188-.668 0-.246-.054-.46-.163-.643a1.12 1.12 0 0 0-.462-.426c-.197-.102-.428-.152-.696-.152a1.84 1.84 0 0 0-.71.138 1.32 1.32 0 0 0-.54.394 1.03 1.03 0 0 0-.227.618h-.852a1.73 1.73 0 0 1 .344-1.001c.215-.289.497-.514.845-.675a2.73 2.73 0 0 1 1.154-.241c.45 0 .836.091 1.158.273s.569.418.742.714a1.87 1.87 0 0 1 .259.959c0 .409-.108.758-.323 1.047s-.503.489-.87.6v.057c.459.076.818.271 1.076.586s.387.7.387 1.161c0 .396-.108.751-.323 1.066s-.504.558-.873.738-.79.27-1.261.27z" class="D"/><use href="#I" class="B"/><path d="M20 375.764h226" class="C E"/><use href="#H" y="34" class="B"/><path d="M28.881 396.014v-7.273h4.361v.781h-3.48v2.458h3.153v.781h-3.153v3.253h-.881zm5.756 0v-5.455h.838v5.455h-.838zm.426-6.364c-.163 0-.304-.056-.423-.167s-.174-.245-.174-.401.058-.29.174-.401.259-.167.423-.167a.58.58 0 0 1 .419.167.53.53 0 0 1 .178.401.53.53 0 0 1-.178.401c-.116.111-.256.167-.419.167zm4.234 6.477c-.526 0-.979-.116-1.36-.348s-.671-.561-.877-.98-.305-.911-.305-1.47.102-1.051.305-1.477.492-.763.859-1.002.8-.362 1.293-.362a2.58 2.58 0 0 1 .842.142 2.09 2.09 0 0 1 .756.462c.227.21.408.49.543.838s.202.776.202 1.285v.355H37.35v-.724h3.352a1.79 1.79 0 0 0-.185-.824c-.121-.241-.294-.432-.519-.572s-.485-.209-.788-.209c-.334 0-.623.083-.866.249a1.63 1.63 0 0 0-.558.639c-.13.263-.195.544-.195.845v.483c0 .412.071.761.213 1.047a1.53 1.53 0 0 0 .6.65c.256.147.553.22.891.22.22 0 .419-.03.597-.092a1.27 1.27 0 0 0 .465-.284c.13-.128.231-.286.302-.476l.81.227c-.085.275-.228.517-.43.725s-.45.367-.746.483a2.78 2.78 0 0 1-.998.17zm4.371-7.386v7.273h-.838v-7.273h.838zm3.595 7.386a2.14 2.14 0 0 1-1.204-.344c-.348-.232-.62-.559-.817-.98s-.295-.925-.295-1.502.098-1.07.295-1.492.47-.747.82-.976.755-.345 1.215-.345c.355 0 .636.059.842.178s.367.248.476.397l.259.363h.071v-2.685h.838v7.273h-.81v-.838h-.099c-.062.099-.149.225-.263.376s-.276.283-.486.401-.491.174-.842.174zm.114-.753c.336 0 .62-.087.852-.262s.408-.423.529-.735.181-.679.181-1.091-.059-.763-.178-1.068-.294-.547-.526-.718-.519-.259-.859-.259c-.355 0-.651.091-.888.273s-.411.425-.529.735-.174.654-.174 1.037c0 .389.059.741.178 1.059s.298.565.533.752.53.277.881.277zm6.666-.852v-.724l3.196-5.057h.526v1.122h-.355l-2.415 3.821v.057h4.304v.781h-5.256zm3.423 1.492v-1.712-.337-5.224h.838v7.273h-.838z" class="D"/><use href="#J" class="B"/><g class="C E"><path d="M20 410.764h226"/><path d="M20 410.764h226"/></g><use href="#H" y="70" class="B"/><path d="M28.881 432.014v-7.273h4.361v.781h-3.48v2.458h3.153v.781h-3.153v3.253h-.881zm5.756 0v-5.455h.838v5.455h-.838zm.426-6.364c-.163 0-.304-.056-.423-.167s-.174-.245-.174-.401.058-.29.174-.401.259-.167.423-.167a.58.58 0 0 1 .419.167.53.53 0 0 1 .178.401.53.53 0 0 1-.178.401c-.116.111-.256.167-.419.167zm4.234 6.477c-.526 0-.979-.116-1.36-.348s-.671-.561-.877-.98-.305-.911-.305-1.47.102-1.051.305-1.477.492-.763.859-1.002.8-.362 1.293-.362a2.58 2.58 0 0 1 .842.142 2.09 2.09 0 0 1 .756.462c.227.21.408.49.543.838s.202.776.202 1.285v.355H37.35v-.724h3.352a1.79 1.79 0 0 0-.185-.824c-.121-.241-.294-.432-.519-.572s-.485-.209-.788-.209c-.334 0-.623.083-.866.249a1.63 1.63 0 0 0-.558.639c-.13.263-.195.544-.195.845v.483c0 .412.071.761.213 1.047a1.53 1.53 0 0 0 .6.65c.256.147.553.22.891.22.22 0 .419-.03.597-.092a1.27 1.27 0 0 0 .465-.284c.13-.128.231-.286.302-.476l.81.227c-.085.275-.228.517-.43.725s-.45.367-.746.483a2.78 2.78 0 0 1-.998.17zm4.371-7.386v7.273h-.838v-7.273h.838zm3.595 7.386a2.14 2.14 0 0 1-1.204-.344c-.348-.232-.62-.559-.817-.98s-.295-.925-.295-1.502.098-1.07.295-1.492.47-.747.82-.976.755-.345 1.215-.345c.355 0 .636.059.842.178s.367.248.476.397l.259.363h.071v-2.685h.838v7.273h-.81v-.838h-.099c-.062.099-.149.225-.263.376s-.276.283-.486.401-.491.174-.842.174zm.114-.753c.336 0 .62-.087.852-.262s.408-.423.529-.735.181-.679.181-1.091-.059-.763-.178-1.068-.294-.547-.526-.718-.519-.259-.859-.259c-.355 0-.651.091-.888.273s-.411.425-.529.735-.174.654-.174 1.037c0 .389.059.741.178 1.059s.298.565.533.752.53.277.881.277zm9.109.739c-.417 0-.792-.083-1.126-.248a2.09 2.09 0 0 1-.803-.682 1.86 1.86 0 0 1-.33-.988h.852c.033.33.182.602.447.817s.587.32.959.32a1.51 1.51 0 0 0 .795-.21 1.47 1.47 0 0 0 .55-.575c.135-.246.202-.524.202-.834a1.7 1.7 0 0 0-.209-.849c-.137-.251-.327-.449-.568-.593s-.517-.218-.827-.22c-.223-.003-.451.032-.685.103s-.427.157-.579.266l-.824-.1.44-3.579h3.778v.781h-3.04l-.256 2.145h.043a1.9 1.9 0 0 1 .561-.295 2.13 2.13 0 0 1 .703-.117c.445 0 .842.107 1.19.32s.625.499.824.866.302.786.302 1.257c0 .464-.104.879-.312 1.243a2.29 2.29 0 0 1-.852.86c-.362.208-.774.312-1.236.312z" class="D"/><use href="#I" y="70" class="B"/><g class="C E"><path d="M20 446.764h226"/><path d="M20 446.764h226"/></g><use href="#H" y="105" class="B"/><path d="M28.881 467.014v-7.273h4.361v.781h-3.48v2.458h3.153v.781h-3.153v3.253h-.881zm5.756 0v-5.455h.838v5.455h-.838zm.426-6.364c-.163 0-.304-.056-.423-.167s-.174-.245-.174-.401.058-.29.174-.401.259-.167.423-.167a.58.58 0 0 1 .419.167.53.53 0 0 1 .178.401.53.53 0 0 1-.178.401c-.116.111-.256.167-.419.167zm4.234 6.477c-.526 0-.979-.116-1.36-.348s-.671-.561-.877-.98-.305-.911-.305-1.47.102-1.051.305-1.477.492-.763.859-1.002.8-.362 1.293-.362a2.58 2.58 0 0 1 .842.142 2.09 2.09 0 0 1 .756.462c.227.21.408.49.543.838s.202.776.202 1.285v.355H37.35v-.724h3.352a1.79 1.79 0 0 0-.185-.824c-.121-.241-.294-.432-.519-.572s-.485-.209-.788-.209c-.334 0-.623.083-.866.249a1.63 1.63 0 0 0-.558.639c-.13.263-.195.544-.195.845v.483c0 .412.071.761.213 1.047a1.53 1.53 0 0 0 .6.65c.256.147.553.22.891.22.22 0 .419-.03.597-.092a1.27 1.27 0 0 0 .465-.284c.13-.128.231-.286.302-.476l.81.227c-.085.275-.228.517-.43.725s-.45.367-.746.483a2.78 2.78 0 0 1-.998.17zm4.371-7.386v7.273h-.838v-7.273h.838zm3.595 7.386a2.14 2.14 0 0 1-1.204-.344c-.348-.232-.62-.559-.817-.98s-.295-.925-.295-1.502.098-1.07.295-1.492.47-.747.82-.976.755-.345 1.215-.345c.355 0 .636.059.842.178s.367.248.476.397l.259.363h.071v-2.685h.838v7.273h-.81v-.838h-.099c-.062.099-.149.225-.263.376s-.276.283-.486.401-.491.174-.842.174zm.114-.753c.336 0 .62-.087.852-.262s.408-.423.529-.735.181-.679.181-1.091-.059-.763-.178-1.068-.294-.547-.526-.718-.519-.259-.859-.259c-.355 0-.651.091-.888.273s-.411.425-.529.735-.174.654-.174 1.037c0 .389.059.741.178 1.059s.298.565.533.752.53.277.881.277zm9.251.739c-.298-.005-.597-.061-.895-.17s-.57-.293-.817-.551-.444-.612-.593-1.054-.224-1.004-.224-1.677c0-.644.06-1.214.181-1.711s.296-.92.526-1.261.507-.604.831-.781a2.27 2.27 0 0 1 1.104-.266c.407 0 .769.081 1.087.245a2.07 2.07 0 0 1 .781.674c.201.289.331.622.391.998h-.867c-.081-.327-.237-.598-.469-.813s-.54-.323-.923-.323c-.563 0-1.007.245-1.332.735s-.484 1.178-.486 2.063h.057a2.14 2.14 0 0 1 .472-.515c.185-.144.388-.256.611-.334a2.12 2.12 0 0 1 .707-.117c.417 0 .798.104 1.144.313a2.31 2.31 0 0 1 .831.855c.208.363.313.778.313 1.247 0 .45-.101.862-.302 1.236a2.31 2.31 0 0 1-.849.888c-.362.217-.788.324-1.278.319zm0-.781c.298 0 .566-.075.803-.224s.427-.349.565-.6.209-.53.209-.838c0-.301-.067-.574-.202-.82s-.316-.447-.55-.593-.497-.221-.795-.221c-.225 0-.434.045-.629.135a1.63 1.63 0 0 0-.511.363c-.144.153-.258.33-.341.529a1.58 1.58 0 0 0-.124.621c0 .289.068.559.202.81s.324.453.561.607a1.47 1.47 0 0 0 .813.231z" class="D"/><use href="#J" y="72" class="B"/><g clip-path="url(#F)" class="G"><path d="M49.147 120.527c-.674.028-2.947.195-3.905 1.153-.781.787-.962 1.978-.45 2.965l.173.306c-.3.475-.465 1.023-.465 1.598v.965a1.5 1.5 0 1 1-3 0v-3h.25c.965 0 1.75-.785 1.75-1.75v-1.75h.5v-1h-1.5v-2h-1v2h-1v-2h-1v2H38v1h.5v1.75c0 .965.785 1.75 1.75 1.75h.25v3c0 1.378 1.121 2.5 2.5 2.5s2.5-1.122 2.5-2.5v-.965c0-.32.083-.624.224-.901.407.229.869.367 1.32.362a2.54 2.54 0 0 0 1.792-.74c1.274-1.586 1.08-3.558 1.181-4.777l-.87.034zm-8.897 2.987a.75.75 0 0 1-.75-.75v-1.75h3v1.75a.75.75 0 0 1-.75.75h-1.5zm7.88 1.048c-.465.46-1.161.576-1.752.297l1.475-1.492-.707-.707-1.485 1.485a1.54 1.54 0 0 1 .29-1.76c.552-.552 2.114-.786 3.026-.847-.054.905-.282 2.459-.847 3.023v.001z"/></g><path d="M249.297 218.746c0-2.062-1.671-3.734-3.733-3.734s-3.733 1.672-3.733 3.734 1.671 3.733 3.733 3.733 3.733-1.672 3.733-3.733zm56.908 0v-.7h-60.641v.7.7h60.641v-.7z" fill="url(#D)"/><path d="M306.205 280.292l303.732.001" class="C F"/><g filter="url(#B)"><rect x="305.393" y="51.526" width="303.731" height="339.465" rx="10" fill="#fff"/></g><path d="M340.075 117.065v10.182h-1.233v-8.89h-.06l-2.485 1.651v-1.253l2.545-1.69h1.233zm2.928 10.182v-.895l3.361-3.679.974-1.124a4.09 4.09 0 0 0 .567-.905 2.19 2.19 0 0 0 .189-.895c0-.358-.086-.667-.258-.929a1.68 1.68 0 0 0-.696-.607c-.295-.142-.627-.214-.995-.214-.391 0-.732.082-1.024.244a1.68 1.68 0 0 0-.671.671c-.156.289-.234.627-.234 1.014h-1.173c0-.596.138-1.12.413-1.571a2.87 2.87 0 0 1 1.123-1.054c.477-.251 1.013-.377 1.606-.377s1.125.126 1.586.377a2.84 2.84 0 0 1 1.084 1.02c.262.427.393.903.393 1.426a3.07 3.07 0 0 1-.204 1.099c-.133.355-.365.751-.696 1.188s-.784.965-1.368 1.591l-2.286 2.446v.08h4.732v1.094h-6.423zm11.798.139c-.749 0-1.387-.204-1.914-.612s-.93-1.006-1.208-1.785-.418-1.726-.418-2.833c0-1.101.139-2.04.418-2.819s.686-1.379 1.213-1.79 1.166-.621 1.909-.621 1.377.207 1.904.621.935 1.008 1.213 1.79.423 1.718.423 2.819c0 1.107-.14 2.051-.418 2.833s-.681 1.374-1.208 1.785-1.165.612-1.914.612zm0-1.094c.742 0 1.319-.358 1.73-1.074s.616-1.737.616-3.062c0-.882-.094-1.633-.283-2.252s-.454-1.093-.805-1.417-.768-.488-1.258-.488c-.736 0-1.311.363-1.725 1.089s-.622 1.745-.622 3.068c0 .881.093 1.63.279 2.247s.452 1.085.8 1.407.774.482 1.268.482zm8.75 1.094c-.749 0-1.387-.204-1.914-.612s-.93-1.006-1.208-1.785-.418-1.726-.418-2.833c0-1.101.139-2.04.418-2.819s.686-1.379 1.213-1.79 1.166-.621 1.909-.621 1.377.207 1.904.621.935 1.008 1.213 1.79.423 1.718.423 2.819c0 1.107-.14 2.051-.418 2.833s-.681 1.374-1.208 1.785-1.165.612-1.914.612zm0-1.094c.742 0 1.319-.358 1.73-1.074s.616-1.737.616-3.062c0-.882-.094-1.633-.283-2.252s-.454-1.093-.805-1.417-.768-.488-1.258-.488c-.736 0-1.311.363-1.725 1.089s-.622 1.745-.622 3.068c0 .881.093 1.63.279 2.247s.452 1.085.8 1.407.774.482 1.268.482zm53.141-46.772V68.145h3.891c1.177 0 2.099.242 2.766.727s1.007 1.245 1.007 2.281c0 .625-.153 1.135-.46 1.531a2.43 2.43 0 0 1-1.133.836v.031c.552.161 1.005.469 1.359.922.359.448.539 1.039.539 1.773 0 1.036-.351 1.841-1.055 2.414s-1.632.859-2.789.859h-4.125zm1.758-1.375h2.336c.724 0 1.255-.174 1.594-.523.338-.354.508-.828.508-1.422s-.17-1.057-.508-1.406-.87-.523-1.594-.523h-2.336v3.875zm0-5.203h2.11c.724 0 1.244-.151 1.562-.453s.477-.732.477-1.273-.159-.958-.477-1.25-.838-.437-1.562-.437h-2.11v3.414zm7.61 4.172c0-.854.336-1.51 1.007-1.969s1.526-.695 2.563-.695h1.766v-.539c0-.448-.118-.812-.352-1.094s-.633-.422-1.211-.422-.982.117-1.227.352-.367.51-.367.828v.07h-1.711v-.078c0-.677.305-1.255.914-1.734.615-.479 1.433-.719 2.454-.719s1.815.232 2.382.695.852 1.167.852 2.109v3.742c0 .333.026.651.078.953.057.297.133.557.227.781v.125h-1.688c-.068-.125-.13-.289-.187-.492a4.3 4.3 0 0 1-.11-.609c-.177.328-.484.62-.922.875s-.992.383-1.664.383c-.786 0-1.45-.216-1.992-.648s-.812-1.076-.812-1.914zm1.734-.117c0 .432.125.773.375 1.023s.638.367 1.164.367a2.1 2.1 0 0 0 1.438-.547c.416-.365.625-.766.625-1.203v-1.039h-1.547c-.683 0-1.196.125-1.539.375s-.516.586-.516 1.023zm7.437-.461V71.34h1.735v5.227c0 .625.135 1.068.406 1.328s.651.391 1.141.391a1.9 1.9 0 0 0 1.133-.352 2.41 2.41 0 0 0 .757-.906V71.34h1.735v8.18h-1.602l-.055-1.016h-.046a2.89 2.89 0 0 1-1.055.859 3.15 3.15 0 0 1-1.414.313c-.823 0-1.485-.24-1.985-.719s-.75-1.292-.75-2.422zm8.625-.977v-.25c0-1.203.316-2.19.946-2.961s1.474-1.164 2.515-1.164c.552 0 1.024.099 1.414.297.396.198.709.458.938.781v-4.703h1.727V79.52h-1.602l-.055-1.031h-.047c-.198.333-.505.615-.921.844s-.902.344-1.454.344c-1.062 0-1.906-.385-2.531-1.156s-.93-1.763-.93-2.961zm1.766.031c0 .781.169 1.43.508 1.945s.864.773 1.578.773c.479 0 .885-.13 1.219-.391s.583-.568.734-.906v-3.164a2.27 2.27 0 0 0-.719-.906c-.334-.26-.744-.391-1.234-.391-.708 0-1.234.258-1.578.773s-.508 1.164-.508 1.945v.32zm12.024 3.93V68.145h3.828c1.25 0 2.216.307 2.898.922s1.024 1.448 1.024 2.5-.344 1.896-1.032 2.531c-.682.63-1.646.945-2.89.945h-2.047v4.477h-1.781zm1.781-5.867h2.015c.802 0 1.362-.195 1.68-.586s.484-.893.484-1.492c0-.594-.161-1.081-.484-1.461s-.878-.57-1.68-.57h-2.015v4.109zm4.554 5.867l-2.734-5.242 1.813-.195 2.914 5.438h-1.993zm2.891-2.406c0-.854.336-1.51 1.008-1.969s1.526-.695 2.562-.695h1.766v-.539c0-.448-.117-.812-.352-1.094-.229-.281-.632-.422-1.21-.422s-.982.117-1.227.352-.367.51-.367.828v.07h-1.711v-.078c0-.677.305-1.255.914-1.734s1.432-.719 2.453-.719 1.815.232 2.383.695.851 1.167.851 2.109v3.742a5.51 5.51 0 0 0 .079.953 3.95 3.95 0 0 0 .226.781v.125h-1.687a2.41 2.41 0 0 1-.188-.492 4.44 4.44 0 0 1-.109-.609c-.177.328-.485.62-.922.875s-.992.383-1.664.383c-.787 0-1.451-.216-1.992-.648s-.813-1.076-.813-1.914zm1.734-.117c0 .432.125.773.375 1.023s.638.367 1.165.367a2.1 2.1 0 0 0 1.437-.547c.417-.365.625-.766.625-1.203v-1.039h-1.547c-.682 0-1.195.125-1.539.375s-.516.586-.516 1.023zm6.422-4.359V71.34h4.797v1.297h-4.797zm1.383 4.719v-5.289-.227-2.531h1.727v8.016c0 .38.07.646.211.797s.364.227.656.227a1.73 1.73 0 0 0 .406-.047 3.44 3.44 0 0 0 .399-.117v1.336a2.81 2.81 0 0 1-.524.156 3.44 3.44 0 0 1-.719.07c-.651 0-1.174-.19-1.57-.57-.391-.385-.586-.992-.586-1.82zm4.399-1.805v-.25c0-1.24.351-2.247 1.054-3.023.703-.781 1.625-1.172 2.766-1.172s2.023.365 2.648 1.094.938 1.713.938 2.969v.664h-6.305V74.59h4.578v-.18c.005-.542-.151-1.003-.468-1.383-.313-.385-.766-.578-1.36-.578-.703 0-1.232.266-1.586.797s-.523 1.203-.523 2.016v.328c0 .813.187 1.484.562 2.016s.946.797 1.711.797c.495 0 .919-.112 1.274-.336a3.06 3.06 0 0 0 .859-.789l1.172.836c-.261.427-.675.807-1.242 1.141s-1.245.5-2.047.5c-1.287 0-2.281-.388-2.985-1.164-.697-.781-1.046-1.794-1.046-3.039z" class="D"/><g class="C F"><use href="#K"/><use href="#K" y="-34.109"/></g><path d="M336.495 162.98v-.895l3.361-3.679.975-1.123c.255-.322.444-.624.566-.905a2.19 2.19 0 0 0 .189-.895c0-.358-.086-.668-.258-.93a1.67 1.67 0 0 0-.696-.606c-.295-.143-.627-.214-.995-.214-.391 0-.732.081-1.024.243a1.68 1.68 0 0 0-.671.672c-.156.288-.234.626-.234 1.014h-1.173c0-.597.138-1.12.413-1.571s.649-.802 1.123-1.054 1.013-.378 1.606-.378 1.125.126 1.586.378.822.591 1.084 1.019.393.903.393 1.427c0 .374-.068.741-.204 1.099s-.365.75-.696 1.188-.784.964-1.367 1.591l-2.287 2.446v.079h4.733v1.094h-6.424zm8.02-2.088v-1.014l4.474-7.08h.736v1.571h-.497l-3.381 5.35v.079h6.026v1.094h-7.358zm4.792 2.088v-2.396-.473-7.313h1.173v10.182h-1.173zm7.75.139c-.749 0-1.387-.204-1.914-.611s-.93-1.006-1.209-1.785-.417-1.727-.417-2.834c0-1.1.139-2.04.417-2.819s.687-1.379 1.214-1.79 1.166-.621 1.909-.621 1.377.207 1.904.621.934 1.008 1.213 1.79.422 1.719.422 2.819c0 1.107-.139 2.052-.417 2.834s-.681 1.374-1.208 1.785-1.165.611-1.914.611zm0-1.094c.742 0 1.319-.358 1.73-1.073s.616-1.737.616-3.063c0-.882-.094-1.632-.283-2.252s-.454-1.092-.806-1.417-.767-.487-1.257-.487c-.736 0-1.311.363-1.726 1.089s-.621 1.745-.621 3.067c0 .882.093 1.631.278 2.247s.453 1.086.801 1.407.774.482 1.268.482zm8.75 1.094c-.749 0-1.387-.204-1.914-.611s-.93-1.006-1.209-1.785-.417-1.727-.417-2.834c0-1.1.139-2.04.417-2.819s.687-1.379 1.214-1.79 1.166-.621 1.909-.621 1.377.207 1.904.621.934 1.008 1.213 1.79.422 1.719.422 2.819c0 1.107-.139 2.052-.417 2.834s-.681 1.374-1.208 1.785-1.165.611-1.914.611zm0-1.094c.742 0 1.319-.358 1.73-1.073s.616-1.737.616-3.063c0-.882-.094-1.632-.283-2.252s-.454-1.092-.806-1.417-.767-.487-1.257-.487c-.736 0-1.311.363-1.726 1.089s-.621 1.745-.621 3.067c0 .882.093 1.631.278 2.247s.453 1.086.801 1.407.774.482 1.268.482z" class="D"/><g class="C F"><use href="#K" y="79.588"/><use href="#K" y="37.358"/></g><path d="M336.257 201.498v-1.014l4.474-7.08h.736v1.571h-.497l-3.381 5.35v.079h6.026v1.094h-7.358zm4.792 2.088v-2.396-.473-7.313h1.174v10.182h-1.174zm7.69.139c-.683 0-1.286-.121-1.809-.363s-.927-.581-1.219-1.009-.435-.921-.432-1.472c-.003-.43.081-.828.253-1.193s.408-.674.706-.92.638-.406 1.01-.472v-.059c-.488-.126-.875-.4-1.164-.821a2.48 2.48 0 0 1-.427-1.447c-.004-.517.127-.979.393-1.387s.629-.729 1.093-.964 1-.353 1.596-.353c.59 0 1.117.118 1.581.353s.829.557 1.094.964.404.87.408 1.387c-.004.541-.151 1.023-.443 1.447s-.671.695-1.148.821v.059a2.1 2.1 0 0 1 .994.472 2.69 2.69 0 0 1 .706.92c.176.365.265.763.268 1.193-.003.551-.152 1.041-.447 1.472s-.698.764-1.218 1.009-1.115.363-1.795.363zm0-1.094c.461 0 .859-.074 1.193-.223s.594-.36.776-.632.275-.59.278-.954c-.003-.385-.102-.724-.298-1.019s-.462-.527-.8-.696-.718-.254-1.149-.254-.822.084-1.163.254-.605.401-.801.696-.286.634-.283 1.019a1.67 1.67 0 0 0 .264.954c.182.272.442.483.78.632s.739.223 1.203.223zm0-4.832c.365 0 .688-.073.97-.219s.508-.349.671-.611.245-.569.248-.92c-.003-.345-.084-.645-.243-.9s-.38-.457-.661-.596-.61-.214-.985-.214c-.381 0-.714.071-.999.214s-.506.338-.661.596-.232.555-.229.9a1.71 1.71 0 0 0 .234.92 1.66 1.66 0 0 0 .671.611c.285.146.613.219.984.219zm8.687 5.926c-.749 0-1.387-.204-1.914-.611s-.93-1.006-1.208-1.785-.418-1.727-.418-2.834c0-1.1.139-2.04.418-2.819s.686-1.379 1.213-1.79 1.166-.621 1.909-.621 1.377.207 1.904.621.935 1.008 1.213 1.79.423 1.719.423 2.819c0 1.107-.14 2.052-.418 2.834s-.681 1.374-1.208 1.785-1.165.611-1.914.611zm0-1.094c.742 0 1.319-.358 1.73-1.073s.616-1.737.616-3.063c0-.882-.094-1.632-.283-2.252s-.454-1.092-.805-1.417-.768-.487-1.258-.487c-.736 0-1.311.363-1.725 1.089s-.622 1.745-.622 3.067c0 .882.093 1.631.279 2.247s.452 1.086.8 1.407.774.482 1.268.482zm8.75 1.094c-.749 0-1.387-.204-1.914-.611s-.93-1.006-1.208-1.785-.418-1.727-.418-2.834c0-1.1.139-2.04.418-2.819s.686-1.379 1.213-1.79 1.166-.621 1.909-.621 1.377.207 1.904.621.935 1.008 1.213 1.79.423 1.719.423 2.819c0 1.107-.14 2.052-.418 2.834s-.681 1.374-1.208 1.785-1.165.611-1.914.611zm0-1.094c.742 0 1.319-.358 1.73-1.073s.616-1.737.616-3.063c0-.882-.094-1.632-.283-2.252s-.454-1.092-.805-1.417-.768-.487-1.258-.487c-.736 0-1.311.363-1.725 1.089s-.622 1.745-.622 3.067c0 .882.093 1.631.279 2.247s.452 1.086.8 1.407.774.482 1.268.482z" class="D"/><g class="C F"><use href="#K" y="116.945"/><use href="#K" y="159.175"/></g><path d="M339.737 230.622c.417.003.835.083 1.253.238s.798.415 1.143.776.622.847.83 1.467.314 1.397.314 2.331c0 .905-.087 1.709-.259 2.412s-.414 1.289-.736 1.769-.706.846-1.163 1.094a3.17 3.17 0 0 1-1.541.373c-.573 0-1.079-.113-1.527-.338a2.99 2.99 0 0 1-1.093-.95c-.282-.407-.463-.88-.542-1.416h1.213c.109.467.326.853.651 1.158s.761.452 1.298.452c.785 0 1.405-.343 1.859-1.029s.686-1.655.686-2.908h-.079a3.12 3.12 0 0 1-.662.721 2.9 2.9 0 0 1-.85.467c-.311.109-.643.164-.994.164a3.1 3.1 0 0 1-1.606-.432c-.484-.292-.872-.691-1.163-1.199s-.433-1.093-.433-1.75c0-.623.139-1.193.418-1.71a3.24 3.24 0 0 1 1.183-1.243c.511-.308 1.11-.457 1.8-.447zm0 1.094c-.418 0-.794.104-1.129.313a2.25 2.25 0 0 0-.79.835c-.192.348-.289.734-.289 1.158a2.42 2.42 0 0 0 .279 1.159 2.23 2.23 0 0 0 .77.825c.329.202.701.303 1.119.303a2.11 2.11 0 0 0 .88-.184c.272-.126.509-.296.711-.512a2.48 2.48 0 0 0 .482-.74c.116-.279.174-.569.174-.87a2.28 2.28 0 0 0-.288-1.119c-.189-.348-.451-.63-.786-.845s-.709-.323-1.133-.323zm8.875 9.366c-.417-.007-.835-.086-1.252-.239s-.799-.409-1.144-.77-.621-.857-.83-1.477-.313-1.405-.313-2.346c0-.902.084-1.701.253-2.397s.414-1.287.736-1.765a3.31 3.31 0 0 1 1.163-1.093c.458-.249.973-.373 1.546-.373s1.078.114 1.522.343.812.54 1.094.944a3.31 3.31 0 0 1 .546 1.398h-1.213c-.112-.458-.331-.837-.656-1.139s-.756-.452-1.293-.452c-.788 0-1.41.343-1.864 1.029s-.678 1.649-.681 2.888h.08a2.98 2.98 0 0 1 .661-.721c.258-.202.543-.358.855-.467a2.97 2.97 0 0 1 .989-.164c.584 0 1.117.146 1.601.437s.872.688 1.163 1.199.438 1.088.438 1.745c0 .629-.141 1.206-.423 1.73s-.677.934-1.188 1.243-1.104.454-1.79.447zm0-1.094a2.06 2.06 0 0 0 1.124-.313c.335-.209.598-.489.79-.84a2.41 2.41 0 0 0 .294-1.173c0-.421-.095-.804-.284-1.149a2.15 2.15 0 0 0-.77-.83c-.325-.206-.696-.308-1.114-.308-.315 0-.608.063-.88.189a2.32 2.32 0 0 0-.716.507 2.45 2.45 0 0 0-.477.74c-.116.276-.174.566-.174.871 0 .404.094.782.283 1.133a2.3 2.3 0 0 0 .786.85c.332.215.714.323 1.138.323zm8.677 1.094c-.749 0-1.387-.204-1.914-.611s-.93-1.006-1.208-1.785-.418-1.727-.418-2.834c0-1.1.139-2.04.418-2.819s.686-1.379 1.213-1.79 1.167-.621 1.909-.621 1.377.207 1.904.621.935 1.008 1.213 1.79.423 1.719.423 2.819c0 1.107-.139 2.052-.418 2.834s-.681 1.374-1.208 1.785-1.165.611-1.914.611zm0-1.094c.742 0 1.319-.358 1.73-1.074s.617-1.736.617-3.062c0-.882-.095-1.632-.284-2.252s-.454-1.092-.805-1.417a1.78 1.78 0 0 0-1.258-.487c-.736 0-1.311.363-1.725 1.088s-.622 1.746-.622 3.068c0 .882.093 1.631.279 2.247s.452 1.086.8 1.407a1.81 1.81 0 0 0 1.268.482zm8.75 1.094c-.749 0-1.387-.204-1.914-.611s-.93-1.006-1.208-1.785-.418-1.727-.418-2.834c0-1.1.139-2.04.418-2.819s.686-1.379 1.213-1.79 1.167-.621 1.909-.621 1.377.207 1.904.621.935 1.008 1.213 1.79.423 1.719.423 2.819c0 1.107-.139 2.052-.418 2.834s-.681 1.374-1.208 1.785-1.165.611-1.914.611zm0-1.094c.742 0 1.319-.358 1.73-1.074s.617-1.736.617-3.062c0-.882-.095-1.632-.284-2.252s-.454-1.092-.805-1.417a1.78 1.78 0 0 0-1.258-.487c-.736 0-1.311.363-1.725 1.088s-.622 1.746-.622 3.068c0 .882.093 1.631.279 2.247s.452 1.086.8 1.407a1.81 1.81 0 0 0 1.268.482zm-23.695 31.379v10.182h-1.232v-8.889h-.06l-2.486 1.651v-1.253l2.546-1.691h1.232zm6.17-.139a3.66 3.66 0 0 1 1.253.239c.418.156.799.414 1.144.775s.621.847.83 1.467.313 1.397.313 2.332c0 .905-.086 1.708-.259 2.411s-.414 1.289-.735 1.77-.706.845-1.164 1.094a3.16 3.16 0 0 1-1.541.373c-.57 0-1.079-.113-1.526-.339a2.95 2.95 0 0 1-1.094-.949 3.31 3.31 0 0 1-.542-1.417h1.213c.11.467.327.853.652 1.158s.76.453 1.297.453c.786 0 1.405-.343 1.859-1.029s.687-1.656.687-2.909h-.08a3.12 3.12 0 0 1-.661.721 2.91 2.91 0 0 1-.85.467c-.312.11-.643.165-.995.165-.583 0-1.118-.145-1.605-.433s-.872-.691-1.164-1.198-.432-1.094-.432-1.75c0-.623.139-1.193.417-1.71s.676-.935 1.183-1.243 1.111-.458 1.8-.448zm0 1.094c-.417 0-.794.104-1.128.313a2.26 2.26 0 0 0-.791.835 2.36 2.36 0 0 0-.288 1.159c0 .424.093.81.278 1.158s.446.62.771.826a2.09 2.09 0 0 0 1.118.303 2.12 2.12 0 0 0 .88-.184c.272-.126.509-.297.711-.512a2.48 2.48 0 0 0 .483-.741c.116-.278.174-.568.174-.87a2.28 2.28 0 0 0-.289-1.119 2.3 2.3 0 0 0-.785-.845 2.04 2.04 0 0 0-1.134-.323zm5.495 9.227v-.895l3.361-3.679.974-1.123a4.19 4.19 0 0 0 .567-.905 2.19 2.19 0 0 0 .189-.895c0-.358-.086-.668-.259-.93s-.401-.464-.696-.606-.626-.214-.994-.214c-.391 0-.732.081-1.024.244a1.68 1.68 0 0 0-.671.671c-.156.288-.234.626-.234 1.014h-1.173c0-.596.137-1.12.412-1.571s.65-.802 1.124-1.054 1.013-.378 1.606-.378 1.125.126 1.586.378.822.592 1.084 1.019.392.903.392 1.427a3.09 3.09 0 0 1-.203 1.099c-.133.355-.365.751-.696 1.188s-.784.965-1.368 1.591l-2.287 2.446v.08h4.733v1.093h-6.423zm11.798.14c-.749 0-1.387-.204-1.914-.612s-.93-1.006-1.209-1.785-.417-1.727-.417-2.834c0-1.1.139-2.04.417-2.818s.687-1.379 1.214-1.79 1.166-.622 1.909-.622 1.377.207 1.904.622.934 1.007 1.213 1.79.422 1.718.422 2.818c0 1.107-.139 2.052-.417 2.834s-.681 1.374-1.208 1.785-1.165.612-1.914.612zm0-1.094c.742 0 1.319-.358 1.73-1.074s.616-1.737.616-3.063c0-.881-.094-1.632-.283-2.252s-.454-1.092-.806-1.417a1.78 1.78 0 0 0-1.257-.487c-.736 0-1.311.363-1.726 1.089s-.621 1.745-.621 3.067c0 .882.093 1.631.278 2.248s.453 1.085.801 1.407.774.482 1.268.482zm8.75 1.094c-.749 0-1.387-.204-1.914-.612s-.93-1.006-1.209-1.785-.417-1.727-.417-2.834c0-1.1.139-2.04.417-2.818s.687-1.379 1.214-1.79 1.166-.622 1.909-.622 1.377.207 1.904.622.934 1.007 1.213 1.79.422 1.718.422 2.818c0 1.107-.139 2.052-.417 2.834s-.681 1.374-1.208 1.785-1.165.612-1.914.612zm0-1.094c.742 0 1.319-.358 1.73-1.074s.616-1.737.616-3.063c0-.881-.094-1.632-.283-2.252s-.454-1.092-.806-1.417a1.78 1.78 0 0 0-1.257-.487c-.736 0-1.311.363-1.726 1.089s-.621 1.745-.621 3.067c0 .882.093 1.631.278 2.248s.453 1.085.801 1.407.774.482 1.268.482zm-32.352 43.323c-.656 0-1.241-.113-1.755-.338s-.916-.539-1.218-.94a2.53 2.53 0 0 1-.487-1.407h1.253c.026.328.139.612.338.85s.459.418.78.547a2.83 2.83 0 0 0 1.069.194c.438 0 .826-.076 1.164-.228s.603-.365.795-.637.289-.586.289-.944a1.77 1.77 0 0 0-.279-.99c-.185-.288-.457-.513-.815-.676s-.796-.243-1.313-.243h-.815v-1.094h.815c.405 0 .759-.073 1.064-.219a1.71 1.71 0 0 0 .721-.616c.176-.266.264-.577.264-.935 0-.345-.077-.645-.229-.9s-.368-.454-.646-.597-.6-.213-.975-.213c-.351 0-.683.064-.994.194s-.56.309-.756.551-.301.527-.318.865h-1.193c.02-.533.18-1.001.482-1.402s.696-.719 1.183-.944 1.029-.338 1.616-.338c.63 0 1.17.127 1.621.383s.797.585 1.039.999.363.862.363 1.342c0 .574-.151 1.062-.453 1.467s-.704.684-1.218.84v.08c.643.106 1.145.379 1.507.82s.542.979.542 1.626c0 .553-.151 1.05-.453 1.491s-.706.782-1.223 1.034-1.105.378-1.765.378zm8.735 0c-.682 0-1.286-.121-1.809-.363s-.927-.582-1.218-1.009-.436-.922-.433-1.472c-.003-.431.081-.828.254-1.193s.407-.674.706-.92.638-.406 1.009-.472v-.06c-.487-.126-.875-.399-1.163-.82a2.48 2.48 0 0 1-.428-1.447c-.003-.517.128-.979.393-1.387s.629-.729 1.093-.964 1-.353 1.596-.353c.59 0 1.117.117 1.581.353s.829.557 1.094.964.404.87.408 1.387c-.004.541-.151 1.023-.443 1.447a1.96 1.96 0 0 1-1.148.82v.06a2.1 2.1 0 0 1 .994.472 2.69 2.69 0 0 1 .706.92c.176.365.265.762.269 1.193-.004.55-.153 1.041-.448 1.472s-.698.764-1.218 1.009-1.115.363-1.795.363zm0-1.094c.461 0 .859-.074 1.194-.223a1.77 1.77 0 0 0 .775-.632 1.71 1.71 0 0 0 .279-.954c-.004-.385-.103-.725-.299-1.02a2.02 2.02 0 0 0-.8-.696c-.335-.169-.718-.253-1.149-.253s-.822.084-1.163.253a2.02 2.02 0 0 0-.8.696c-.193.295-.287.635-.284 1.02a1.67 1.67 0 0 0 .264.954c.182.272.442.482.78.632s.739.223 1.203.223zm0-4.832c.365 0 .688-.073.97-.219s.509-.35.671-.611.245-.569.249-.92c-.004-.345-.085-.645-.244-.9s-.38-.457-.661-.597-.61-.213-.985-.213c-.381 0-.714.071-.999.213s-.505.338-.661.597a1.67 1.67 0 0 0-.229.9 1.71 1.71 0 0 0 .234.92c.162.261.386.465.671.611s.613.219.984.219zm5.127 3.699v-1.014l4.475-7.08h.736v1.571h-.498l-3.38 5.349v.08h6.025v1.094h-7.358zm4.793 2.088v-2.396-.473-7.313h1.173v10.182h-1.173zm7.749.139c-.749 0-1.387-.204-1.914-.611s-.929-1.006-1.208-1.785-.417-1.727-.417-2.834c0-1.1.139-2.04.417-2.819s.686-1.379 1.213-1.79 1.167-.621 1.909-.621 1.378.207 1.904.621.935 1.008 1.214 1.79.422 1.719.422 2.819c0 1.107-.139 2.052-.417 2.834s-.682 1.374-1.209 1.785-1.165.611-1.914.611zm0-1.094c.743 0 1.32-.358 1.73-1.074s.617-1.736.617-3.062c0-.882-.094-1.632-.283-2.252s-.454-1.092-.806-1.417-.767-.487-1.258-.487c-.735 0-1.31.363-1.725 1.088s-.621 1.745-.621 3.068c0 .882.093 1.631.278 2.247s.453 1.086.801 1.407.774.482 1.267.482zm8.75 1.094c-.749 0-1.387-.204-1.914-.611s-.929-1.006-1.208-1.785-.417-1.727-.417-2.834c0-1.1.139-2.04.417-2.819s.686-1.379 1.213-1.79 1.167-.621 1.909-.621 1.378.207 1.904.621.935 1.008 1.214 1.79.422 1.719.422 2.819c0 1.107-.139 2.052-.417 2.834s-.682 1.374-1.209 1.785-1.165.611-1.914.611zm0-1.094c.743 0 1.32-.358 1.73-1.074s.617-1.736.617-3.062c0-.882-.094-1.632-.283-2.252s-.454-1.092-.806-1.417-.767-.487-1.258-.487c-.735 0-1.31.363-1.725 1.088s-.621 1.745-.621 3.068c0 .882.093 1.631.278 2.247s.453 1.086.801 1.407.774.482 1.267.482z" class="D"/><circle cx="575.828" cy="157.101" r="3.248" fill="#fb1c2e"/><use href="#K" y="204.653" class="C F"/><path d="M514.893 368.468v-.629c0-1.531.392-2.725 1.176-3.582s1.798-1.285 3.028-1.285 2.238.429 3.022 1.285 1.182 2.051 1.182 3.582v.629c0 1.532-.394 2.726-1.182 3.582s-1.791 1.285-3.022 1.285-2.24-.428-3.028-1.285-1.176-2.05-1.176-3.582zm1.326 0c0 1.167.262 2.083.786 2.748s1.226.998 2.092.998 1.561-.332 2.085-.998.793-1.581.793-2.748v-.629c0-1.166-.264-2.082-.793-2.748a2.52 2.52 0 0 0-2.085-.998 2.54 2.54 0 0 0-2.092.998c-.524.666-.786 1.582-.786 2.748v.629zm8.88 4.662v-10.5h1.272v6.618l3.076-3.309h1.442l-4.518 4.799v2.392h-1.272zm4.635 0l-2.803-3.718.793-.875 3.5 4.593h-1.49zm1.996-2.119c0-.729.289-1.296.868-1.702s1.315-.608 2.208-.608h1.627v-.493c0-.432-.112-.783-.335-1.052s-.608-.41-1.155-.41-.939.114-1.176.341-.349.483-.349.78v.034h-1.264v-.034c0-.57.253-1.067.759-1.491s1.198-.642 2.064-.642 1.536.207 2.01.622.718 1.032.718 1.852v3.282c0 .296.022.576.068.841.046.259.109.489.191.69v.109h-1.23c-.064-.114-.123-.262-.178-.444s-.082-.365-.096-.547c-.168.296-.442.558-.82.786s-.857.342-1.449.342c-.684 0-1.265-.194-1.743-.581s-.718-.946-.718-1.675zm1.271-.068c0 .41.119.731.356.964s.606.348 1.107.348.955-.173 1.361-.519.608-.713.608-1.101v-1.032h-1.49c-.638 0-1.121.121-1.449.362s-.493.568-.493.978zm5.907 5.031v-1.08a2.77 2.77 0 0 0 .396.089 2.72 2.72 0 0 0 .424.034c.319 0 .597-.121.834-.362s.488-.754.752-1.552v-.007l-2.68-7.157h1.231l1.702 4.73.171.513.13.444h.041l.136-.444.171-.513 1.586-4.73h1.203l-2.919 8.148c-.227.638-.53 1.135-.909 1.491-.373.355-.834.533-1.381.533a3.17 3.17 0 0 1-.485-.034c-.141-.023-.276-.057-.403-.103z" fill="#fb1c2e"/><path d="M358.967 368.468v-.629c0-1.531.392-2.725 1.176-3.582s1.775-1.285 2.96-1.285 2.112.326 2.782.978 1.011 1.428 1.011 2.344v.069h-1.312v-.069c0-.633-.205-1.157-.615-1.572s-1.032-.629-1.866-.629a2.54 2.54 0 0 0-2.017.923c-.529.615-.793 1.556-.793 2.823v.629c0 1.167.262 2.083.786 2.748a2.47 2.47 0 0 0 2.024.998c.783 0 1.376-.212 1.777-.635s.633-.946.697-1.566l.007-.068h1.312l-.006.068c-.091.912-.449 1.693-1.074 2.345s-1.529.977-2.713.977a3.85 3.85 0 0 1-2.96-1.285c-.784-.856-1.176-2.05-1.176-3.582zm9.126 2.543c0-.729.289-1.296.868-1.702s1.315-.608 2.208-.608h1.627v-.493c0-.432-.112-.783-.335-1.052s-.608-.41-1.155-.41-.939.114-1.176.341-.349.483-.349.78v.034h-1.264v-.034c0-.57.253-1.067.758-1.491.511-.428 1.199-.642 2.065-.642s1.536.207 2.01.622.717 1.032.717 1.852v3.282a4.91 4.91 0 0 0 .069.841c.045.259.109.489.191.69v.109h-1.23c-.064-.114-.123-.262-.178-.444-.05-.182-.082-.365-.096-.547-.168.296-.442.558-.82.786s-.857.342-1.449.342c-.684 0-1.265-.194-1.743-.581s-.718-.946-.718-1.675zm1.271-.068c0 .41.119.731.356.964s.606.348 1.107.348.955-.173 1.361-.519.608-.713.608-1.101v-1.032h-1.49c-.638 0-1.121.121-1.45.362a1.15 1.15 0 0 0-.492.978zm6.686 2.187v-7.191h1.148l.055.923h.041a2.79 2.79 0 0 1 .95-.773c.378-.191.795-.287 1.251-.287.725 0 1.301.208 1.73.622s.649 1.099.649 2.065v4.641h-1.271v-4.655c0-.574-.13-.984-.39-1.23s-.62-.376-1.094-.376c-.405 0-.763.109-1.073.328s-.552.501-.725.847v5.086h-1.271zm7.348-3.486v-.219c0-1.084.294-1.971.882-2.659.593-.688 1.406-1.032 2.441-1.032.957 0 1.684.26 2.18.779s.745 1.092.745 1.73v.034h-1.23v-.034a1.48 1.48 0 0 0-.403-1.026c-.269-.296-.7-.444-1.292-.444-.693 0-1.203.257-1.532.772s-.492 1.137-.492 1.88v.219c0 .743.164 1.372.492 1.887s.839.765 1.532.765c.592 0 1.023-.148 1.292-.444s.403-.638.403-1.025v-.035h1.23v.035c0 .638-.248 1.216-.745 1.736s-1.223.772-2.18.772c-1.035 0-1.848-.344-2.441-1.032-.588-.688-.882-1.574-.882-2.659zm7.301 0v-.219c0-1.084.296-1.971.889-2.659s1.385-1.032 2.365-1.032 1.734.321 2.263.964.793 1.51.793 2.604v.52h-5.53v-1.012h4.251v-.164c0-.52-.148-.962-.444-1.326s-.722-.547-1.278-.547c-.675 0-1.178.257-1.511.772s-.499 1.137-.499 1.88v.219c0 .743.176 1.372.526 1.887s.896.765 1.634.765c.456 0 .848-.1 1.176-.3a2.84 2.84 0 0 0 .8-.711l.82.649c-.228.342-.581.661-1.059.957s-1.053.444-1.737.444c-1.116 0-1.973-.344-2.57-1.032s-.889-1.574-.889-2.659zm7.923 3.486v-10.5h1.272v10.5h-1.272z" fill="#797979"/><path d="M457.509 342.263v48.727" class="C F"/><defs><filter id="A" x="10" y="12" width="228" height="64" filterUnits="userSpaceOnUse" class="H"><feFlood flood-opacity="0" result="A"/><feColorMatrix in="SourceAlpha" values="0 0 0 0 0 0 0 0 0 0 0 0 0 0 0 0 0 0 127 0" result="B"/><feMorphology radius="1" operator="dilate" in="SourceAlpha"/><feOffset dy="1"/><feGaussianBlur stdDeviation="2.5"/><feComposite in2="B" operator="out"/><feColorMatrix values="0 0 0 0 0 0 0 0 0 0 0 0 0 0 0 0 0 0 0.1 0"/><feBlend in2="A"/><feBlend in="SourceGraphic"/></filter><filter id="B" x="295.393" y="45.526" width="323.731" height="359.464" filterUnits="userSpaceOnUse" class="H"><feFlood flood-opacity="0" result="A"/><feColorMatrix in="SourceAlpha" values="0 0 0 0 0 0 0 0 0 0 0 0 0 0 0 0 0 0 127 0" result="B"/><feOffset dy="4"/><feGaussianBlur stdDeviation="5"/><feComposite in2="B" operator="out"/><feColorMatrix values="0 0 0 0 0 0 0 0 0 0 0 0 0 0 0 0 0 0 0.25 0"/><feBlend in2="A"/><feBlend in="SourceGraphic"/></filter><linearGradient id="C" x1="128" y1="0" x2="128" y2="533" gradientUnits="userSpaceOnUse"><stop stop-color="#2f67ff"/><stop offset="1" stop-color="#ff5f9b"/></linearGradient><linearGradient id="D" x1="245.564" y1="217.946" x2="306.205" y2="217.946" gradientUnits="userSpaceOnUse"><stop stop-color="#2f67ff"/><stop offset="1" stop-color="#c262b8"/></linearGradient><clipPath id="E"><path fill="#fff" transform="translate(38 184.014)" d="M0 0h11v10H0z"/></clipPath><clipPath id="F"><path fill="#fff" transform="translate(38 118.014)" d="M0 0h12v12H0z"/></clipPath><path id="G" d="M36.372 57.525v.823"/><path id="H" d="M224.341 363.232l-.563-.531 3.319-3.108-3.319-3.108.563-.531 3.881 3.639-3.881 3.639z"/><path id="I" d="M176.881 362.014v-7.273h4.36v.781h-3.48v2.458h3.154v.781h-3.154v3.253h-.88zm5.697 0v-5.455h.809v.824h.057a1.31 1.31 0 0 1 .54-.657 1.59 1.59 0 0 1 .881-.252l.23.003.21.011v.852c-.029-.007-.094-.017-.195-.032s-.205-.024-.316-.024a1.49 1.49 0 0 0-.711.166c-.206.109-.369.261-.49.455a1.23 1.23 0 0 0-.177.657v3.452h-.838zm5.841.113c-.525 0-.979-.116-1.36-.348s-.671-.561-.877-.98-.305-.911-.305-1.47.101-1.051.305-1.477.492-.763.859-1.002.801-.362 1.293-.362a2.58 2.58 0 0 1 .842.142c.277.095.529.249.756.462s.408.49.543.838.203.776.203 1.285v.355h-4.205v-.724h3.352a1.79 1.79 0 0 0-.184-.824 1.4 1.4 0 0 0-.519-.572c-.222-.139-.485-.209-.788-.209-.334 0-.623.083-.866.249s-.428.376-.558.639a1.88 1.88 0 0 0-.195.845v.483c0 .412.071.761.213 1.047s.344.501.6.65.553.22.891.22c.22 0 .419-.03.597-.092s.335-.158.465-.284a1.29 1.29 0 0 0 .302-.476l.81.227c-.086.275-.229.517-.43.725s-.45.367-.746.483-.628.17-.998.17zm7.255 1.932v-2.883h-.071a5.08 5.08 0 0 1-.263.376c-.113.149-.275.283-.486.401s-.491.174-.842.174c-.454 0-.856-.115-1.204-.344s-.62-.559-.816-.98-.295-.925-.295-1.502.098-1.07.295-1.492.47-.747.82-.976a2.16 2.16 0 0 1 1.214-.345c.356 0 .636.059.842.178s.367.248.476.397l.259.363h.1v-.867h.809v7.5h-.838zm-1.548-2.685c.336 0 .62-.087.852-.262s.409-.423.529-.735.181-.679.181-1.091-.059-.763-.177-1.068-.294-.547-.526-.718-.518-.259-.859-.259c-.355 0-.651.091-.888.273s-.411.425-.529.735-.174.654-.174 1.037c0 .389.059.741.178 1.059s.298.565.532.752.531.277.881.277zm7.358-1.59v-3.225h.838v5.455h-.838v-.924h-.057a1.79 1.79 0 0 1-.597.707c-.269.192-.61.288-1.022.288-.341 0-.644-.075-.909-.224a1.56 1.56 0 0 1-.625-.682c-.152-.305-.228-.69-.228-1.154v-3.466h.838v3.409c0 .398.112.715.334.952s.512.355.86.355c.208 0 .42-.053.635-.16s.4-.27.547-.49.224-.501.224-.841zm4.66 2.343c-.526 0-.979-.116-1.36-.348s-.671-.561-.877-.98-.306-.911-.306-1.47.102-1.051.306-1.477.492-.763.859-1.002.8-.362 1.293-.362c.284 0 .564.047.841.142a2.1 2.1 0 0 1 .757.462c.227.21.408.49.543.838s.202.776.202 1.285v.355h-4.204v-.724h3.352c0-.308-.061-.582-.185-.824a1.39 1.39 0 0 0-.518-.572c-.223-.139-.485-.209-.788-.209-.334 0-.623.083-.867.249a1.63 1.63 0 0 0-.557.639c-.131.263-.196.544-.196.845v.483c0 .412.071.761.213 1.047a1.54 1.54 0 0 0 .6.65c.256.147.553.22.892.22.22 0 .419-.03.596-.092a1.28 1.28 0 0 0 .466-.284 1.29 1.29 0 0 0 .301-.476l.81.227a1.78 1.78 0 0 1-.43.725c-.201.206-.449.367-.745.483s-.629.17-.998.17zm4.144-.057a.61.61 0 0 1-.451-.188c-.125-.125-.188-.276-.188-.451s.063-.325.188-.451.276-.188.451-.188.326.063.451.188.188.276.188.451c0 .116-.029.223-.089.32s-.133.175-.23.234a.61.61 0 0 1-.32.085zm2.754 0a.61.61 0 0 1-.639-.639c0-.175.062-.325.188-.451s.276-.188.451-.188.325.063.451.188.188.276.188.451c0 .116-.029.223-.089.32s-.133.175-.23.234a.61.61 0 0 1-.32.085z"/><path id="J" d="M176.483 389.522v-.781h5.455v.781h-2.287v6.492h-.881v-6.492h-2.287zm8.196 6.605c-.526 0-.979-.116-1.36-.348s-.671-.561-.877-.98-.306-.911-.306-1.47.102-1.051.306-1.477.492-.763.859-1.002.8-.362 1.293-.362c.284 0 .564.047.841.142a2.1 2.1 0 0 1 .757.462c.227.21.408.49.543.838s.203.776.203 1.285v.355h-4.205v-.724h3.352a1.79 1.79 0 0 0-.184-.824 1.4 1.4 0 0 0-.519-.572c-.222-.139-.485-.209-.788-.209-.334 0-.623.083-.867.249a1.63 1.63 0 0 0-.557.639 1.88 1.88 0 0 0-.196.845v.483c0 .412.071.761.214 1.047s.344.501.6.65.552.22.891.22c.22 0 .419-.03.597-.092s.335-.158.465-.284a1.29 1.29 0 0 0 .302-.476l.809.227a1.79 1.79 0 0 1-.429.725 2.1 2.1 0 0 1-.746.483c-.296.113-.629.17-.998.17zm7.397-4.346l-.753.213c-.047-.126-.117-.248-.209-.366a1.01 1.01 0 0 0-.37-.298c-.156-.078-.356-.117-.6-.117-.334 0-.612.076-.834.23s-.331.345-.331.579c0 .209.076.373.228.494s.388.221.71.302l.81.199c.487.118.851.299 1.09.543s.358.553.358.934a1.39 1.39 0 0 1-.269.838c-.178.246-.427.44-.746.582s-.691.213-1.115.213c-.557 0-1.017-.12-1.382-.362s-.595-.594-.692-1.058l.795-.199c.076.294.219.514.43.661s.491.22.835.22c.39 0 .7-.083.93-.249s.348-.369.348-.604a.63.63 0 0 0-.199-.475c-.132-.131-.336-.228-.611-.292l-.909-.213c-.499-.118-.866-.302-1.101-.55s-.348-.565-.348-.941a1.35 1.35 0 0 1 .26-.817c.175-.237.413-.423.713-.557s.647-.203 1.03-.203c.54 0 .964.118 1.271.355s.531.549.661.938zm3.733-1.222v.71h-2.827v-.71h2.827zm-2.003-1.307h.838v5.199c0 .237.035.414.103.533a.53.53 0 0 0 .27.234 1.08 1.08 0 0 0 .352.057 1.55 1.55 0 0 0 .227-.014l.142-.029.171.753a1.61 1.61 0 0 1-.238.064 1.73 1.73 0 0 1-.387.036 1.68 1.68 0 0 1-.696-.153c-.225-.102-.412-.257-.562-.465s-.22-.471-.22-.789v-5.426z"/><path id="K" d="M306.205 137.36h303.732"/></defs></svg>