<svg xmlns="http://www.w3.org/2000/svg" width="359" height="533" fill="none" xmlns:v="https://vecta.io/nano"><style><![CDATA[.B{fill:#fff}.C{fill:#575757}.D{stroke-width:.5}.E{fill:#f85550}.F{fill:#b8b8b8}.G{stroke:#f2f2f2}]]></style><path d="M242.667 246a2.67 2.67 0 0 0-2.667-2.667 2.67 2.67 0 0 0-2.667 2.667 2.67 2.67 0 0 0 2.667 2.667 2.67 2.67 0 0 0 2.667-2.667zM324 246v-.5h-84v.5.5h84v-.5z" fill="url(#B)"/><rect x=".25" y=".25" width="255.5" height="532.5" rx="9.75" stroke="url(#C)" class="B D"/><g fill-rule="evenodd"><path d="M38.001 502.23v6.949a1.18 1.18 0 0 1-1.184 1.184h-4.955c-.624 0-1.184-.504-1.184-1.091v-7.136c0-.557.533-1.09 1.091-1.09h5.141a1.11 1.11 0 0 1 .766.355c.179.213.324.453.324.829h0zm8.631 6.543v7.136c0 .558-.533 1.091-1.091 1.091H40.4c-.563 0-1.09-.539-1.09-1.185v-6.948a1.18 1.18 0 0 1 1.184-1.184h4.955c.644 0 1.184.516 1.184 1.09h0zm-8.631 4.082v2.961a1.17 1.17 0 0 1-.093.468c-.171.379-.538.716-.997.716H31.77c-.558 0-1.091-.533-1.091-1.091v-3.147c0-.59.558-1.09 1.184-1.09h4.954a1.18 1.18 0 0 1 1.184 1.184v-.001zm8.631-10.719v3.148c0 .563-.538 1.09-1.184 1.09h-4.955a1.18 1.18 0 0 1-1.184-1.184v-2.96c0-.347.144-.623.306-.816a1.18 1.18 0 0 1 .785-.368h5.141c.558 0 1.091.533 1.091 1.09h0z" class="E"/><path d="M120.103 509.023c0-.315.256-.655.685-.655.824 0 .824 1.309 0 1.309-.219 0-.355-.067-.476-.178-.093-.086-.209-.312-.209-.476zm-1.994.467v4.332c0 1.643 1.539 3.178 3.178 3.178h4.331c.488 0 .96-.185 1.299-.353.286-.142.771-.477.95-.702l.351-.459c.372-.572.548-1.21.548-1.976v-3.646c0-1.146-.412-1.955-.99-2.532s-1.38-.989-2.532-.989h-3.646c-1.127 0-1.656.296-2.417.885-.533.413-1.073 1.517-1.073 2.262h.001zm7.977-7.821c0 1.072 1.063.479 2.653 1.055 2.202.799 3.757 2.748 3.956 5.112.042.505-.05 1.187.745 1.187.322 0 .623-.301.623-.623 0-1.183-.236-2.258-.685-3.148l-.301-.571c-1.106-2.034-3.677-3.635-6.025-3.635h-.343c-.322 0-.623.3-.623.623zm0 2.648c0 .391.21.659.536.71.411.065.466-.012 1.016.138.432.118.794.312 1.142.572.079.06.082.064.149.131.074.073.104.081.171.141s.062.082.126.154c.433.489.742 1.113.812 1.774.042.394-.051 1.086.753 1.086.343 0 .624-.308.624-.717 0-1.228-.474-2.234-1.223-3.077-.064-.072-.068-.101-.14-.173s-.087-.067-.155-.124c-.191-.161-.183-.188-.477-.396-.718-.509-1.688-.842-2.68-.842-.333 0-.654.286-.654.624v-.001zm79.24 4.706c0-.918.244-2.03.609-2.814.388-.833.8-1.437 1.41-2.047l.43-.401a6.78 6.78 0 0 1 2.869-1.453c.962-.235 2.124-.267 3.085-.026.924.231 1.644.511 2.413 1.044 2.809 1.946 3.827 5.663 2.291 8.733l-.324.606c-.054.088-.093.114-.119.214-.084-.023-.454-.375-.54-.457-.434-.414-1.269-.924-1.809-1.184-1.633-.784-3.524-.955-5.33-.52-.718.172-1.502.496-2.121.87l-.311.187a9.58 9.58 0 0 0-1.116.879c-.087.088-.146.19-.274.225-.025-.094-.158-.278-.219-.38-.082-.139-.144-.281-.213-.418-.294-.588-.509-1.23-.622-1.904-.057-.339-.109-.782-.109-1.154h0zm-1.064-.332c0 1.138.055 2.01.475 3.081l.128.338c.207.508.549 1.093.859 1.533l.407.524c.682.783 1.424 1.418 2.353 1.902l.149.083c.91.455 2.166.848 3.241.848h.665c1.438 0 2.666-.505 3.734-1.085a6.07 6.07 0 0 0 .586-.377c.692-.489 1.195-1.009 1.725-1.667l.208-.29c1.276-1.729 1.742-4.299 1.205-6.433-.142-.565-.288-.942-.492-1.435-.394-.948-1.119-1.82-1.823-2.532-.101-.102-.166-.138-.266-.232-.427-.408-1.245-.883-1.775-1.15-.734-.37-2.048-.753-3.136-.753-.963 0-1.285.001-2.254.239-1.569.385-3.072 1.347-4.104 2.576l-.422.541-.38.584c-.619 1.02-1.083 2.534-1.083 3.704v.001zm4.786-2.46c0 .596.044.98.299 1.496.141.287.398.678.624.905l.402.33c.166.122.285.185.481.283.83.415 1.922.419 2.748.011 1.042-.513 1.828-1.543 1.828-2.759 0-.832-.207-1.591-.74-2.185a3.01 3.01 0 0 0-1.065-.829c-.83-.415-1.922-.419-2.749-.011-.287.141-.678.397-.905.624-.064.064-.091.12-.167.199s-.113.134-.177.221c-.319.443-.579 1.102-.579 1.715h0z" fill="#545454"/></g><g filter="url(#A)" class="B"><rect x="16" y="17" width="216" height="52" rx="10"/></g><g stroke="#5a5c66" stroke-miterlimit="22.9256" class="D"><path d="M31.51 31h10.664a.51.51 0 0 1 .51.51v21.964l-1.219 3.725c-.068.138-.215.206-.42.221l-.18.095-3.869.017-4.04-.015c-.051-.027-.042-.048-.099-.053-.341-.029-.491-.133-.537-.274L31 53.436v-4.184V31.51a.51.51 0 0 1 .51-.51h0z"/><path d="M31.815 31l2.076 1.048 5.977.005L41.943 31l-1.75 1.325s-.272.261-.644.236h-5.187s-.432.079-.823-.293L31.815 31z" stroke-linejoin="round"/><path d="M33.131 33.078l7.604.002 1.763-1.963m-9.833 2.314c0-.065-1.665-1.75-1.665-1.75m2.157 1.424l-1.98-1.98m10.004 2.306c0-.065 1.503-1.75 1.503-1.75"/><path d="M32.662 53.474V33.513s-.081-.435.511-.435m8.003 20.396V33.513s.082-.435-.511-.435"/><path d="M31 49.309l1.662 4.08s.011.19.614.242 7.357 0 7.357 0 .481.005.592-.294l1.432-4.048v.152l-1.391 3.938s-.041.327-.467.352-7.363.026-7.363.026-.776.076-.852-.378L31 49.349m1.89 8.122l1.573-2.466c.046-.086.134-.177.208-.236.202-.16.45-.228.707-.232h2.986c.109-.008.247.011.351.037a1.18 1.18 0 0 1 .648.411l.004.005 1.594 2.475m-2.424.545h-.025m-3.218-.003h-.037"/><path d="M32.997 57.517l1.565-2.455s.207-.402.815-.41h2.991s.543-.046.905.405l1.583 2.458m-2.235.379h-.005m-3.439-.003h-.014m-2.501-4.417l-.356 3.677m.884-3.389l-.28 3.722m8.266-4.058l.332 3.639m-.767-3.331l.291 3.693m-7.901-24.349l.055 20.68m7.57-20.656l-.016 20.632"/><path d="M35.395 57.523h-.303v.208a.71.71 0 0 0 .281.368c.071.444.37.758 1.52.778 1.135.02 1.441-.31 1.517-.756.221-.156.303-.365.33-.598h-.349-2.997z"/><path d="M36.193 57.529v.799"/><use href="#K"/><use href="#K" x="0.209"/><use href="#K" x="0.419"/><use href="#K" x="0.628"/><use href="#K" x="0.837"/><use href="#K" x="1.046"/><use href="#K" x="1.255"/><path d="M38.758 57.524c-.07.479-.41.844-1.865.824s-1.793-.356-1.864-.823"/></g><path d="M155.733 44h-.881c-.052-.253-.143-.476-.273-.668a1.82 1.82 0 0 0-.469-.483c-.182-.133-.385-.232-.607-.298a2.43 2.43 0 0 0-.696-.099 2.22 2.22 0 0 0-1.197.334c-.355.223-.638.55-.849.984s-.312.965-.312 1.594.104 1.161.312 1.595.494.761.849.984a2.22 2.22 0 0 0 1.197.334 2.43 2.43 0 0 0 .696-.099 2.04 2.04 0 0 0 .607-.295 1.87 1.87 0 0 0 .469-.486c.13-.194.221-.417.273-.668h.881a2.93 2.93 0 0 1-.362.998c-.175.294-.393.543-.654.749s-.552.359-.877.465-.666.16-1.033.16c-.62 0-1.172-.152-1.655-.455s-.863-.734-1.14-1.293-.415-1.222-.415-1.989.138-1.43.415-1.989.657-.99 1.14-1.293 1.035-.455 1.655-.455c.367 0 .711.053 1.033.16a2.81 2.81 0 0 1 .877.469 2.67 2.67 0 0 1 .654.746c.175.291.296.624.362.998zm3.525 5.114c-.492 0-.924-.117-1.296-.352s-.658-.562-.866-.984-.309-.914-.309-1.477.103-1.064.309-1.488.497-.753.866-.987.804-.352 1.296-.352.924.117 1.293.352.66.563.866.987.313.92.313 1.488-.104 1.056-.313 1.477-.494.749-.866.984-.8.352-1.293.352zm0-.753c.374 0 .682-.096.924-.288a1.7 1.7 0 0 0 .536-.756c.116-.312.174-.651.174-1.016s-.058-.704-.174-1.019a1.72 1.72 0 0 0-.536-.763c-.242-.194-.55-.291-.924-.291s-.681.097-.923.291a1.72 1.72 0 0 0-.536.763c-.116.315-.174.655-.174 1.019s.058.703.174 1.016a1.7 1.7 0 0 0 .536.756c.242.192.549.288.923.288zm4.589-2.642V49h-.838v-5.455h.81v.852h.071a1.56 1.56 0 0 1 .582-.668c.261-.17.597-.256 1.009-.256.369 0 .692.076.969.227s.493.376.647.682.23.687.23 1.151V49h-.838v-3.409c0-.428-.111-.762-.333-1.001s-.528-.362-.917-.362c-.267 0-.506.058-.717.174a1.25 1.25 0 0 0-.494.508c-.12.222-.181.492-.181.81zm5.85 0V49h-.838v-5.455h.81v.852h.071c.127-.277.321-.499.582-.668s.597-.256 1.008-.256c.37 0 .693.076.97.227a1.53 1.53 0 0 1 .646.682c.154.303.231.687.231 1.151V49h-.838v-3.409c0-.428-.111-.762-.334-1.001s-.528-.362-.916-.362c-.268 0-.507.058-.717.174s-.373.285-.494.508-.181.492-.181.81zm7.298 3.395c-.525 0-.979-.116-1.36-.348a2.34 2.34 0 0 1-.877-.98c-.203-.421-.305-.911-.305-1.47s.102-1.051.305-1.477a2.41 2.41 0 0 1 .86-1.001c.369-.241.8-.362 1.292-.362a2.59 2.59 0 0 1 .842.142c.277.095.529.249.756.462a2.2 2.2 0 0 1 .543.838c.135.348.203.776.203 1.285v.355h-4.205v-.724h3.353a1.79 1.79 0 0 0-.185-.824 1.4 1.4 0 0 0-.518-.572c-.223-.14-.486-.209-.789-.209-.334 0-.622.083-.866.249a1.63 1.63 0 0 0-.558.639 1.88 1.88 0 0 0-.195.845v.483c0 .412.071.761.213 1.048a1.53 1.53 0 0 0 .6.65 1.76 1.76 0 0 0 .891.22c.221 0 .419-.031.597-.092s.335-.159.465-.284.231-.287.302-.476l.81.227c-.086.275-.229.516-.43.724s-.45.367-.746.483-.628.17-.998.17zm5.75 0c-.512 0-.952-.121-1.321-.362s-.654-.574-.853-.998-.298-.908-.298-1.453c0-.554.102-1.043.305-1.467s.493-.759.86-.998.8-.362 1.292-.362c.384 0 .73.071 1.037.213a1.99 1.99 0 0 1 .757.597c.196.256.318.554.366.895h-.839c-.063-.249-.205-.469-.426-.66s-.511-.291-.88-.291c-.327 0-.613.085-.86.256a1.66 1.66 0 0 0-.571.714c-.135.305-.203.664-.203 1.076 0 .421.066.788.199 1.101s.324.555.568.728a1.47 1.47 0 0 0 .867.259 1.5 1.5 0 0 0 .593-.114 1.23 1.23 0 0 0 .451-.327 1.25 1.25 0 0 0 .262-.511h.839a1.95 1.95 0 0 1-.352.87 1.97 1.97 0 0 1-.735.611c-.303.149-.656.224-1.058.224zm5.742-5.568v.71h-2.827v-.71h2.827zm-2.003-1.307h.838v5.199c0 .237.034.414.103.533s.161.194.27.234a1.08 1.08 0 0 0 .352.057 1.49 1.49 0 0 0 .227-.014l.142-.028.17.753c-.057.021-.136.043-.238.064a1.74 1.74 0 0 1-.387.035 1.69 1.69 0 0 1-.696-.153 1.38 1.38 0 0 1-.561-.465c-.147-.208-.22-.471-.22-.788v-5.426zm5.492 6.875c-.526 0-.979-.116-1.36-.348s-.671-.561-.877-.98-.306-.911-.306-1.47.102-1.051.306-1.477.492-.762.859-1.001.8-.362 1.293-.362c.284 0 .564.047.841.142s.529.249.757.462.408.49.543.838.202.776.202 1.285v.355h-4.204v-.724h3.352c0-.308-.061-.582-.185-.824s-.293-.432-.518-.572-.485-.209-.788-.209c-.334 0-.623.083-.867.249s-.427.376-.557.639-.196.544-.196.845v.483c0 .412.071.761.213 1.048a1.54 1.54 0 0 0 .601.65c.255.147.552.22.891.22a1.81 1.81 0 0 0 .596-.092 1.29 1.29 0 0 0 .466-.284c.13-.128.23-.287.301-.476l.81.227c-.085.275-.228.516-.43.724s-.449.367-.745.483-.629.17-.998.17zm5.593 0c-.455 0-.856-.115-1.204-.344a2.33 2.33 0 0 1-.817-.98c-.196-.424-.294-.924-.294-1.502s.098-1.07.294-1.491.47-.747.821-.977.755-.344 1.214-.344c.355 0 .636.059.842.178s.367.249.476.398l.259.362h.071v-2.685h.838V49h-.81v-.838h-.099a5.42 5.42 0 0 1-.263.377 1.57 1.57 0 0 1-.486.401c-.211.116-.492.174-.842.174zm.114-.753c.336 0 .62-.088.852-.263s.408-.423.529-.735.181-.678.181-1.09-.059-.764-.178-1.069-.293-.547-.525-.717-.519-.259-.859-.259c-.356 0-.652.091-.888.273a1.63 1.63 0 0 0-.529.735c-.116.308-.174.653-.174 1.037s.059.741.177 1.058.298.566.533.753.53.277.881.277z" class="F"/><path d="M56.799 40.727h1.332l2.315 5.653h.085l2.315-5.653h1.332V48h-1.044v-5.263h-.067l-2.145 5.252h-.867l-2.145-5.256h-.067V48h-1.044v-7.273zm9.738 0l1.74 2.844h.057l1.74-2.844h1.271l-2.266 3.636L71.36 48h-1.278l-1.747-2.805h-.057L66.53 48h-1.278l2.319-3.636-2.305-3.636h1.271zm5.645 5.852v-.888l3.143-4.965h.7v1.307h-.444l-2.248 3.558v.057h4.308v.93h-5.458zM75.63 48v-1.69l.007-.405v-5.178h1.041V48H75.63zm5.779.099c-.488 0-.923-.084-1.307-.252s-.683-.401-.906-.7-.338-.649-.355-1.044h1.115a.96.96 0 0 0 .217.561c.132.156.305.277.518.362s.45.128.71.128a1.83 1.83 0 0 0 .76-.149c.223-.099.397-.238.522-.415a1.06 1.06 0 0 0 .188-.621c0-.244-.063-.458-.188-.643s-.304-.334-.543-.44-.523-.16-.859-.16h-.614v-.895h.614c.27 0 .507-.049.71-.146s.367-.232.483-.405.174-.38.174-.614c0-.225-.051-.42-.153-.586s-.242-.3-.426-.394-.398-.142-.646-.142a1.68 1.68 0 0 0-.664.131c-.204.085-.369.208-.497.369a.95.95 0 0 0-.206.572h-1.062c.012-.393.128-.739.348-1.037a2.25 2.25 0 0 1 .881-.7c.365-.168.769-.252 1.215-.252.466 0 .869.091 1.207.273a1.99 1.99 0 0 1 .788.721 1.81 1.81 0 0 1 .277.987c.002.407-.111.753-.341 1.037s-.53.475-.909.572v.057c.483.073.857.265 1.122.575s.4.695.398 1.154c.002.4-.109.759-.334 1.076s-.527.567-.913.749-.827.27-1.325.27zm3.761-1.52v-.888l3.143-4.965h.7v1.307h-.444l-2.248 3.558v.057h4.308v.93H85.17zM88.618 48v-1.69l.007-.405v-5.178h1.04V48h-1.048zm5.779.099c-.488 0-.923-.084-1.307-.252s-.683-.401-.906-.7-.338-.649-.355-1.044h1.115a.96.96 0 0 0 .217.561c.133.156.305.277.518.362s.45.128.71.128a1.83 1.83 0 0 0 .76-.149c.222-.099.396-.238.522-.415a1.06 1.06 0 0 0 .188-.621c0-.244-.063-.458-.188-.643s-.304-.334-.543-.44-.523-.16-.859-.16h-.614v-.895h.614c.27 0 .507-.049.71-.146s.367-.232.483-.405.174-.38.174-.614c0-.225-.051-.42-.153-.586s-.242-.3-.426-.394-.398-.142-.646-.142a1.68 1.68 0 0 0-.664.131c-.204.085-.369.208-.497.369a.95.95 0 0 0-.206.572h-1.062c.012-.393.128-.739.348-1.037a2.25 2.25 0 0 1 .881-.7c.365-.168.769-.252 1.215-.252.466 0 .869.091 1.207.273a1.99 1.99 0 0 1 .788.721 1.81 1.81 0 0 1 .277.987c.002.407-.111.753-.341 1.037s-.53.475-.909.572v.057c.483.073.857.265 1.122.575s.4.695.398 1.154c.002.4-.109.759-.334 1.076s-.527.567-.913.749-.827.27-1.325.27z" class="E"/><circle cx="213.5" cy="45.5" r="1.5" fill="#72cf70"/><path d="M216 45.5a2.5 2.5 0 1 1-5 0 2.5 2.5 0 1 1 5 0z" fill="#53ee50" fill-opacity=".35"/><path d="M17.881 102v-7.273h.881v6.492h3.381V102h-4.261zm7.727.114a2.38 2.38 0 0 1-1.296-.352c-.371-.234-.658-.562-.867-.984s-.309-.913-.309-1.477.103-1.064.309-1.488a2.36 2.36 0 0 1 .867-.987c.37-.234.804-.352 1.296-.352s.923.117 1.293.352a2.35 2.35 0 0 1 .866.987c.208.424.313.92.313 1.488s-.104 1.056-.312 1.477a2.35 2.35 0 0 1-.866.984c-.369.234-.8.352-1.293.352zm0-.753c.374 0 .682-.096.923-.288s.42-.444.536-.756a2.9 2.9 0 0 0 .174-1.016c0-.365-.058-.704-.174-1.019s-.295-.569-.536-.763-.549-.291-.923-.291-.682.097-.923.291-.42.449-.536.763-.174.655-.174 1.019a2.9 2.9 0 0 0 .174 1.016c.116.312.295.564.536.756s.549.288.923.288zm3.864.639v-7.273h2.457c.568 0 1.034.097 1.399.291s.635.456.81.792.263.718.263 1.147-.088.808-.263 1.14-.444.592-.806.781-.825.28-1.389.28h-1.989v-.795h1.96c.388 0 .701-.057.938-.17s.412-.275.518-.483a1.62 1.62 0 0 0 .163-.753c0-.291-.054-.546-.163-.764a1.11 1.11 0 0 0-.522-.504c-.239-.118-.555-.181-.948-.181h-1.548V102h-.881zm3.423-3.267l1.79 3.267h-1.023l-1.761-3.267h.994zm4.465 3.395a2.22 2.22 0 0 1-.941-.195c-.282-.133-.506-.324-.671-.572s-.249-.554-.249-.909c0-.313.062-.566.185-.76a1.33 1.33 0 0 1 .494-.462c.206-.112.433-.194.682-.249l.756-.135.806-.096c.208-.024.36-.063.455-.117s.146-.149.146-.284v-.028c0-.35-.096-.623-.288-.817s-.477-.291-.863-.291c-.4 0-.714.088-.941.263s-.387.362-.479.561l-.795-.284c.142-.331.331-.589.568-.774a2.13 2.13 0 0 1 .781-.391c.284-.076.564-.114.838-.114a3.3 3.3 0 0 1 .604.064 1.93 1.93 0 0 1 .664.252c.215.128.394.321.536.579s.213.604.213 1.037V102h-.838v-.739h-.043a1.47 1.47 0 0 1-.284.38 1.65 1.65 0 0 1-.529.345c-.22.095-.489.142-.806.142zm.128-.753c.331 0 .611-.065.838-.195s.402-.299.518-.505.178-.422.178-.649v-.767c-.035.043-.114.082-.234.117a3.6 3.6 0 0 1-.412.089l-.451.064-.352.043c-.218.028-.421.075-.611.139s-.338.155-.454.281-.171.291-.171.504a.75.75 0 0 0 .323.661c.218.147.494.22.827.22zm4.829.625l-1.989-7.273h.895l1.52 5.924h.071l1.548-5.924h.994l1.548 5.924h.071l1.52-5.924h.895L47.402 102h-.909l-1.605-5.796h-.057L43.226 102h-.909zm7.903 0h-.923l2.67-7.273h.909L55.547 102h-.923l-2.173-6.122h-.057L50.22 102zm.341-2.841h3.722v.781h-3.722v-.781zm11.886-4.432V102h-.852l-3.963-5.71h-.071V102h-.881v-7.273h.852l3.977 5.725h.071v-5.725h.866zm8.552 1.818c-.043-.36-.215-.639-.519-.838s-.675-.298-1.115-.298a2.12 2.12 0 0 0-.845.156 1.35 1.35 0 0 0-.561.43 1.03 1.03 0 0 0-.199.621c0 .194.046.361.138.501a1.23 1.23 0 0 0 .362.344 2.59 2.59 0 0 0 .462.224l.444.138.739.199a6.44 6.44 0 0 1 .632.206c.232.088.458.207.671.359s.393.341.533.575.21.522.21.863c0 .393-.103.748-.309 1.065s-.502.569-.895.756-.865.281-1.424.281c-.521 0-.972-.084-1.353-.252a2.16 2.16 0 0 1-.895-.703c-.216-.301-.337-.65-.366-1.048h.909c.024.275.116.502.277.682a1.51 1.51 0 0 0 .618.398 2.51 2.51 0 0 0 .81.127c.336 0 .638-.054.906-.163s.479-.265.636-.462a1.09 1.09 0 0 0 .234-.696c0-.241-.067-.438-.202-.589s-.312-.275-.533-.369a5.59 5.59 0 0 0-.714-.249l-.895-.256c-.568-.163-1.018-.397-1.35-.7s-.497-.7-.497-1.19c0-.407.11-.762.33-1.065s.521-.542.895-.71.797-.256 1.261-.256.885.084 1.25.252.653.393.866.682a1.7 1.7 0 0 1 .341.984h-.852zm4.573 5.569c-.526 0-.979-.116-1.36-.348a2.34 2.34 0 0 1-.877-.98c-.204-.422-.305-.912-.305-1.471s.102-1.051.305-1.477a2.41 2.41 0 0 1 .859-1.001c.369-.241.8-.362 1.293-.362a2.58 2.58 0 0 1 .842.142c.277.095.529.249.756.462a2.23 2.23 0 0 1 .543.838c.135.348.202.776.202 1.285v.355h-4.205v-.724h3.352c0-.308-.061-.582-.185-.824a1.39 1.39 0 0 0-.518-.572 1.45 1.45 0 0 0-.788-.21c-.334 0-.623.083-.866.249s-.427.376-.558.639-.195.544-.195.845v.483c0 .412.071.761.213 1.048a1.51 1.51 0 0 0 .6.65c.256.15.553.22.891.22a1.8 1.8 0 0 0 .596-.093c.18-.063.335-.158.465-.284s.231-.286.302-.475l.81.227c-.085.274-.228.516-.43.724s-.45.367-.746.483-.629.171-.998.171zm5.905-5.568v.71H78.65v-.71h2.827zm-2.003-1.307h.838v5.199c0 .236.034.414.103.532a.52.52 0 0 0 .27.235c.109.041.228.056.352.056a1.42 1.42 0 0 0 .227-.014l.142-.028.17.753c-.057.021-.136.042-.238.064s-.231.035-.387.035a1.68 1.68 0 0 1-.696-.153 1.38 1.38 0 0 1-.561-.465c-.147-.208-.22-.471-.22-.788v-5.426zm5.636 1.307v.71h-2.827v-.71h2.827zm-2.003-1.307h.838v5.199c0 .236.034.414.103.532a.52.52 0 0 0 .27.235c.109.041.228.056.352.056a1.42 1.42 0 0 0 .227-.014l.142-.028.17.753c-.057.021-.136.042-.238.064s-.231.035-.387.035a1.68 1.68 0 0 1-.696-.153 1.38 1.38 0 0 1-.561-.465c-.147-.208-.22-.471-.22-.788v-5.426zM86.371 102v-5.454h.838V102h-.838zm.426-6.364a.6.6 0 0 1-.423-.167c-.119-.111-.174-.245-.174-.401s.058-.29.174-.401.259-.167.423-.167.303.056.419.167a.53.53 0 0 1 .178.401.53.53 0 0 1-.178.401c-.116.111-.256.167-.419.167zm2.785 3.082V102h-.838v-5.454h.81v.852h.071c.128-.277.322-.499.582-.668s.597-.256 1.008-.256c.369 0 .693.076.97.227a1.53 1.53 0 0 1 .646.682c.154.303.231.687.231 1.151V102h-.838v-3.409c0-.428-.111-.762-.334-1.001s-.528-.362-.916-.362a1.46 1.46 0 0 0-.717.174c-.21.116-.373.285-.494.508s-.181.492-.181.81zm7.213 5.44c-.405 0-.753-.052-1.044-.156a2.22 2.22 0 0 1-.728-.405 2.19 2.19 0 0 1-.458-.533l.668-.468.288.341c.116.13.275.242.476.337s.47.145.799.145c.44 0 .804-.106 1.09-.319s.43-.547.43-1.002v-1.108h-.071a4.47 4.47 0 0 1-.263.37 1.5 1.5 0 0 1-.483.387c-.208.111-.49.167-.845.167a2.27 2.27 0 0 1-1.186-.313c-.348-.208-.624-.511-.827-.909s-.302-.88-.302-1.449c0-.559.098-1.045.295-1.459s.47-.739.82-.966.755-.344 1.215-.344c.355 0 .637.059.845.178a1.48 1.48 0 0 1 .483.398l.263.362h.085v-.866h.81v5.611c0 .469-.107.85-.32 1.144a1.85 1.85 0 0 1-.852.65 3.23 3.23 0 0 1-1.186.209zm-.028-2.997c.336 0 .62-.077.852-.231s.408-.375.529-.664.181-.634.181-1.037c0-.393-.059-.74-.177-1.04a1.56 1.56 0 0 0-.526-.707c-.232-.171-.519-.256-.859-.256-.355 0-.651.09-.888.27a1.62 1.62 0 0 0-.529.724 2.8 2.8 0 0 0-.174 1.008c0 .379.059.714.178 1.005a1.54 1.54 0 0 0 .533.682c.237.163.53.245.881.245zm7.785-3.395l-.753.213a1.4 1.4 0 0 0-.21-.366c-.09-.121-.213-.22-.369-.298s-.356-.117-.6-.117c-.334 0-.612.077-.835.231s-.33.344-.33.579a.6.6 0 0 0 .227.494c.151.121.389.221.711.302l.809.199c.488.118.851.3 1.09.543s.359.553.359.934c0 .313-.09.592-.27.838s-.426.441-.746.583-.691.213-1.115.213c-.556 0-1.016-.121-1.381-.363s-.595-.594-.693-1.058l.796-.199c.076.294.219.514.43.661s.491.22.834.22c.391 0 .701-.083.931-.249s.348-.369.348-.603c0-.19-.067-.348-.199-.476s-.336-.227-.611-.291l-.909-.213c-.5-.118-.867-.302-1.101-.55s-.348-.565-.348-.941c0-.308.086-.58.259-.817s.413-.423.714-.558.646-.202 1.03-.202c.54 0 .963.118 1.271.355a1.92 1.92 0 0 1 .661.938zm102.53 94.333c-.487 0-.918-.086-1.292-.259a2.08 2.08 0 0 1-.87-.721 1.8 1.8 0 0 1-.309-1.051c-.003-.308.058-.592.181-.852a1.85 1.85 0 0 1 .504-.657 1.54 1.54 0 0 1 .721-.337v-.043c-.348-.09-.625-.285-.831-.586s-.308-.647-.305-1.033c-.003-.37.091-.7.28-.991s.45-.521.781-.689.714-.252 1.14-.252.798.084 1.13.252a1.97 1.97 0 0 1 .781.689 1.8 1.8 0 0 1 .291.991 1.8 1.8 0 0 1-.316 1.033 1.4 1.4 0 0 1-.82.586v.043a1.49 1.49 0 0 1 .71.337 1.9 1.9 0 0 1 .504.657c.126.26.19.544.192.852a1.83 1.83 0 0 1-.32 1.051c-.208.306-.498.546-.87.721s-.796.259-1.282.259zm0-.781c.329 0 .614-.053.853-.16a1.27 1.27 0 0 0 .554-.451 1.22 1.22 0 0 0 .199-.681 1.31 1.31 0 0 0-.214-.728c-.139-.211-.33-.377-.571-.498a1.8 1.8 0 0 0-.821-.181 1.86 1.86 0 0 0-.831.181c-.241.121-.432.287-.571.498s-.205.453-.203.728c-.002.26.061.487.188.681a1.25 1.25 0 0 0 .558.451c.241.106.528.16.859.16zm0-3.452c.261 0 .492-.052.693-.156a1.19 1.19 0 0 0 .479-.437 1.25 1.25 0 0 0 .178-.657 1.22 1.22 0 0 0-.174-.642c-.114-.185-.271-.327-.472-.426a1.54 1.54 0 0 0-.704-.153 1.57 1.57 0 0 0-.713.153 1.1 1.1 0 0 0-.473.426 1.19 1.19 0 0 0-.163.642c-.002.251.053.47.167.657a1.19 1.19 0 0 0 .479.437c.204.104.438.156.703.156zm6.148-3.238a2.6 2.6 0 0 1 .895.17 2.19 2.19 0 0 1 .817.554c.246.256.444.605.593 1.048s.224.998.224 1.665c0 .647-.062 1.221-.185 1.723s-.296.921-.526 1.264-.504.604-.83.781-.692.266-1.101.266-.771-.08-1.091-.241a2.14 2.14 0 0 1-.781-.678c-.201-.292-.33-.629-.387-1.012h.867a1.61 1.61 0 0 0 .465.827c.234.215.543.323.927.323.561 0 1.003-.245 1.328-.735s.49-1.182.49-2.077h-.057c-.133.199-.29.37-.472.515a2.09 2.09 0 0 1-.608.333c-.222.079-.459.118-.71.118a2.21 2.21 0 0 1-1.147-.309 2.36 2.36 0 0 1-.831-.856c-.206-.365-.309-.781-.309-1.25 0-.445.1-.852.299-1.222a2.31 2.31 0 0 1 .845-.888c.362-.221.793-.326 1.285-.319zm0 .781c-.298 0-.567.075-.806.224a1.6 1.6 0 0 0-.564.596 1.68 1.68 0 0 0-.206.828c0 .303.066.579.198.827s.319.443.551.59.501.216.799.216a1.5 1.5 0 0 0 .628-.131c.195-.09.364-.212.508-.366s.262-.332.345-.529a1.59 1.59 0 0 0 .124-.621 1.63 1.63 0 0 0-.206-.799c-.135-.249-.322-.45-.561-.604s-.507-.231-.81-.231zm10.445 5.227v-.383a1.63 1.63 0 0 1 .163-.728 1.32 1.32 0 0 1 .483-.533c.213-.135.471-.202.775-.202s.565.067.774.202a1.28 1.28 0 0 1 .472.533c.107.223.16.463.16.728v.383a1.64 1.64 0 0 1-.164.732 1.29 1.29 0 0 1-.475.533c-.209.132-.464.198-.767.198s-.567-.066-.778-.198a1.3 1.3 0 0 1-.48-.533 1.63 1.63 0 0 1-.163-.732zm.725-.383v.383c0 .221.052.418.156.593s.284.26.54.26c.248 0 .423-.087.525-.26a1.15 1.15 0 0 0 .156-.593v-.383c0-.22-.049-.417-.149-.59s-.277-.262-.532-.262c-.249 0-.428.087-.537.262s-.159.37-.159.59zm-4.347-3.779v-.383c0-.265.054-.508.163-.728a1.32 1.32 0 0 1 .483-.533c.213-.135.471-.202.774-.202s.566.067.775.202a1.28 1.28 0 0 1 .472.533c.107.223.16.463.16.728v.383a1.64 1.64 0 0 1-.164.732c-.106.22-.265.398-.476.533s-.464.199-.767.199-.567-.067-.777-.199-.371-.313-.48-.533a1.64 1.64 0 0 1-.163-.732zm.724-.383v.383c0 .221.052.418.157.593s.284.26.539.26c.249 0 .424-.087.526-.26a1.15 1.15 0 0 0 .156-.593v-.383c0-.22-.05-.417-.149-.59s-.277-.262-.533-.262c-.248 0-.427.087-.536.262s-.16.37-.16.59zm-.454 5.909l5-7.273h.809l-5 7.273h-.809zm-2.144-29h-.923l2.67-7.273h.909l2.671 7.273h-.924l-2.173-6.122h-.057L218.179 163zm.341-2.841h3.721v.781h-3.721v-.781zm-16.759 55.568V223h-.88v-7.273h.88zm7.533 0V223h-.852l-3.963-5.71h-.071V223h-.881v-7.273h.852l3.978 5.725h.071v-5.725h.866zm3.964 7.372c-.488 0-.918-.086-1.292-.259a2.08 2.08 0 0 1-.87-.721 1.8 1.8 0 0 1-.309-1.051c-.003-.308.058-.592.181-.852a1.85 1.85 0 0 1 .504-.657c.215-.178.456-.29.721-.337v-.043c-.348-.09-.625-.285-.831-.586s-.308-.647-.306-1.033a1.76 1.76 0 0 1 .281-.991c.189-.291.45-.521.781-.689s.714-.252 1.14-.252.798.084 1.129.252a1.98 1.98 0 0 1 .782.689c.191.291.289.621.291.991a1.8 1.8 0 0 1-.316 1.033c-.206.301-.48.496-.82.586v.043c.262.047.499.159.71.337a1.91 1.91 0 0 1 .504.657c.125.26.189.544.192.852-.003.393-.109.744-.32 1.051a2.12 2.12 0 0 1-.87.721c-.372.175-.797.259-1.282.259zm0-.781c.329 0 .613-.053.852-.16s.424-.256.554-.451.197-.421.199-.681a1.3 1.3 0 0 0-.213-.728 1.44 1.44 0 0 0-.572-.498c-.239-.12-.512-.181-.82-.181a1.86 1.86 0 0 0-.831.181c-.241.121-.432.287-.572.498s-.204.453-.202.728a1.19 1.19 0 0 0 .188.681c.13.195.316.345.558.451s.528.16.859.16zm0-3.452a1.49 1.49 0 0 0 .693-.156 1.19 1.19 0 0 0 .479-.437 1.25 1.25 0 0 0 .178-.657 1.22 1.22 0 0 0-.174-.642c-.114-.185-.271-.327-.473-.426s-.435-.153-.703-.153a1.59 1.59 0 0 0-.714.153 1.11 1.11 0 0 0-.472.426 1.18 1.18 0 0 0-.163.642c-.003.251.053.47.167.657a1.17 1.17 0 0 0 .479.437c.204.104.438.156.703.156zm6.248 4.233c-.299-.004-.597-.061-.895-.17s-.571-.292-.817-.55-.444-.612-.593-1.055-.224-1.004-.224-1.676c0-.644.06-1.215.181-1.712s.296-.92.526-1.261a2.39 2.39 0 0 1 .831-.781c.325-.178.695-.266 1.104-.266a2.34 2.34 0 0 1 1.087.245c.317.163.58.386.781.675a2.37 2.37 0 0 1 .391.997h-.867c-.08-.326-.237-.597-.469-.813s-.539-.323-.923-.323c-.563 0-1.007.245-1.332.735s-.484 1.178-.486 2.063h.057c.132-.201.29-.372.472-.515a2.12 2.12 0 0 1 1.318-.451c.416 0 .797.105 1.143.313a2.3 2.3 0 0 1 .831.856c.208.362.312.778.312 1.246 0 .45-.1.862-.301 1.236s-.485.668-.849.888-.788.324-1.278.319zm0-.781c.298 0 .565-.074.802-.224a1.63 1.63 0 0 0 .565-.6 1.7 1.7 0 0 0 .209-.838c0-.3-.067-.574-.202-.82a1.54 1.54 0 0 0-.551-.593c-.232-.147-.497-.22-.795-.22-.225 0-.435.045-.629.135a1.66 1.66 0 0 0-.511.362 1.76 1.76 0 0 0-.341.529c-.083.197-.124.404-.124.621 0 .289.067.559.202.81a1.68 1.68 0 0 0 .561.607 1.47 1.47 0 0 0 .814.231zm6.098.781c-.417 0-.792-.082-1.126-.248s-.601-.393-.803-.682a1.86 1.86 0 0 1-.33-.987h.852c.034.329.183.601.448.817a1.49 1.49 0 0 0 .959.319c.298 0 .563-.07.795-.209a1.48 1.48 0 0 0 .551-.576c.135-.246.202-.524.202-.834 0-.317-.07-.6-.21-.849a1.57 1.57 0 0 0-.568-.593c-.242-.145-.517-.218-.827-.22a2.28 2.28 0 0 0-.685.103 1.9 1.9 0 0 0-.579.266l-.824-.099.44-3.58h3.779v.782h-3.04l-.256 2.144h.043c.149-.118.336-.216.561-.294a2.13 2.13 0 0 1 .703-.118c.445 0 .842.107 1.19.32a2.23 2.23 0 0 1 .823.867c.202.367.302.786.302 1.257 0 .464-.104.878-.312 1.243s-.49.648-.853.859-.774.312-1.235.312z" class="F"/><path d="M21 173.75h219m-219-30h219" class="D G"/><g fill="#0c0c0c"><path d="M57.733 158h-.881c-.052-.253-.143-.476-.273-.668a1.86 1.86 0 0 0-.469-.483c-.185-.131-.385-.232-.607-.298s-.455-.099-.696-.099c-.44 0-.839.111-1.197.334s-.638.55-.849.983-.312.965-.312 1.595.104 1.161.313 1.594.494.761.849.984.756.334 1.197.334a2.44 2.44 0 0 0 .696-.1 2.01 2.01 0 0 0 .607-.295c.185-.132.341-.294.469-.486a1.89 1.89 0 0 0 .273-.668h.881c-.066.372-.187.705-.362.998a2.72 2.72 0 0 1-.653.749c-.26.204-.553.359-.877.466s-.666.159-1.033.159c-.62 0-1.172-.151-1.655-.454s-.863-.734-1.14-1.293-.415-1.221-.415-1.988.139-1.43.415-1.989a3.11 3.11 0 0 1 1.14-1.293c.483-.303 1.035-.454 1.655-.454.367 0 .711.053 1.033.16a2.85 2.85 0 0 1 .877.468c.26.206.478.453.653.746a2.91 2.91 0 0 1 .362.998zm2.148-2.273V163h-.838v-7.273h.838zm3.14 7.401a2.22 2.22 0 0 1-.941-.195c-.282-.133-.505-.324-.671-.572s-.249-.554-.249-.909c0-.313.062-.566.185-.76a1.3 1.3 0 0 1 .494-.462c.206-.111.433-.194.682-.248l.756-.135.806-.096c.208-.024.36-.063.454-.117s.146-.15.146-.285v-.028c0-.35-.096-.623-.288-.817s-.477-.291-.863-.291c-.4 0-.714.088-.941.263a1.55 1.55 0 0 0-.479.561l-.795-.284c.142-.332.331-.59.568-.774a2.16 2.16 0 0 1 .781-.391c.281-.073.563-.114.838-.114a3.39 3.39 0 0 1 .604.064 2 2 0 0 1 .664.252c.213.127.394.321.536.579s.213.604.213 1.037V163h-.838v-.739h-.043a1.46 1.46 0 0 1-.284.38 1.65 1.65 0 0 1-.529.345c-.22.095-.489.142-.806.142zm.128-.753c.331 0 .611-.065.838-.195s.402-.299.518-.505.178-.422.178-.649v-.767c-.035.042-.114.081-.234.117a3.41 3.41 0 0 1-.412.088l-.451.064-.352.043c-.218.028-.421.075-.611.139a1.05 1.05 0 0 0-.455.28c-.114.123-.17.291-.17.504a.75.75 0 0 0 .323.661c.218.147.494.22.827.22zm7.765-3.608l-.753.213a1.39 1.39 0 0 0-.21-.366 1.02 1.02 0 0 0-.369-.298c-.156-.078-.356-.117-.6-.117-.334 0-.612.077-.835.231s-.33.344-.33.579c0 .208.076.372.227.493s.388.221.71.302l.81.199c.488.118.851.299 1.09.543s.359.553.359.934a1.38 1.38 0 0 1-.27.838c-.177.246-.426.441-.746.583s-.691.213-1.115.213c-.556 0-1.017-.121-1.381-.363s-.595-.594-.692-1.058l.795-.199c.076.294.219.514.43.661s.491.22.834.22c.391 0 .701-.083.93-.249s.348-.369.348-.603a.63.63 0 0 0-.199-.476c-.133-.128-.336-.227-.611-.291l-.909-.213c-.499-.119-.867-.302-1.101-.551s-.348-.564-.348-.941a1.35 1.35 0 0 1 .259-.817 1.77 1.77 0 0 1 .714-.557c.303-.135.646-.203 1.03-.203.54 0 .963.119 1.271.356a1.91 1.91 0 0 1 .66.937zm5.225 0l-.753.213a1.39 1.39 0 0 0-.21-.366 1.02 1.02 0 0 0-.369-.298c-.156-.078-.356-.117-.6-.117-.334 0-.612.077-.834.231s-.33.344-.33.579c0 .208.076.372.227.493s.388.221.71.302l.81.199c.488.118.851.299 1.09.543s.359.553.359.934a1.38 1.38 0 0 1-.27.838c-.178.246-.426.441-.746.583s-.691.213-1.115.213c-.556 0-1.017-.121-1.381-.363s-.596-.594-.692-1.058l.795-.199c.076.294.219.514.43.661s.491.22.835.22c.391 0 .701-.083.93-.249s.348-.369.348-.603a.63.63 0 0 0-.199-.476c-.133-.128-.336-.227-.611-.291l-.909-.213c-.499-.119-.867-.302-1.101-.551s-.348-.564-.348-.941a1.35 1.35 0 0 1 .259-.817 1.77 1.77 0 0 1 .714-.557c.303-.135.646-.203 1.03-.203.54 0 .963.119 1.271.356a1.91 1.91 0 0 1 .66.937zM51.881 133v-7.273h.881v3.608h.085l3.267-3.608h1.151l-3.054 3.282L57.264 133h-1.065l-2.528-3.381-.909 1.023V133h-.881zm8.296.114c-.526 0-.979-.116-1.36-.348a2.34 2.34 0 0 1-.877-.98c-.204-.422-.305-.912-.305-1.471s.102-1.051.305-1.477a2.41 2.41 0 0 1 .859-1.001c.369-.242.8-.363 1.293-.363.284 0 .565.048.842.142a2.09 2.09 0 0 1 .756.462 2.21 2.21 0 0 1 .543.838c.135.348.202.777.202 1.286v.355h-4.204v-.725h3.352c0-.307-.062-.582-.185-.823s-.294-.433-.519-.572-.485-.21-.788-.21c-.334 0-.623.083-.867.249a1.63 1.63 0 0 0-.557.639 1.88 1.88 0 0 0-.195.845v.483c0 .412.071.761.213 1.048s.345.5.6.65.553.22.891.22a1.8 1.8 0 0 0 .597-.093c.18-.063.335-.158.465-.284s.231-.286.302-.475l.81.227c-.085.274-.228.516-.43.724s-.45.367-.746.483-.629.171-.998.171zm3.907 1.931c-.142 0-.269-.011-.38-.035a1 1 0 0 1-.231-.064l.213-.739c.204.052.384.071.54.057s.295-.084.415-.209.236-.323.337-.6l.156-.427-2.017-5.483h.909l1.506 4.347h.057l1.506-4.347h.909l-2.315 6.25a2.36 2.36 0 0 1-.387.7 1.48 1.48 0 0 1-.536.416 1.67 1.67 0 0 1-.682.134zm8.89-6.278l-.753.213a1.42 1.42 0 0 0-.209-.366c-.09-.12-.213-.22-.369-.298s-.356-.117-.6-.117c-.334 0-.612.077-.834.231s-.33.344-.33.579c0 .208.076.372.227.493s.388.221.71.302l.81.199c.488.118.851.299 1.09.543s.359.553.359.934c0 .313-.09.592-.27.838s-.426.441-.746.583-.691.213-1.115.213c-.556 0-1.017-.121-1.381-.363s-.595-.594-.693-1.058l.796-.199c.076.294.219.514.43.661s.491.22.835.22c.391 0 .701-.083.93-.249s.348-.369.348-.603a.63.63 0 0 0-.199-.476c-.133-.128-.336-.227-.611-.291l-.909-.213c-.5-.119-.866-.302-1.101-.551s-.348-.564-.348-.941a1.35 1.35 0 0 1 .259-.817 1.77 1.77 0 0 1 .714-.557c.303-.135.646-.203 1.03-.203.54 0 .964.119 1.271.356a1.91 1.91 0 0 1 .66.937zm6.233 4.332c-.478 0-.89-.087-1.236-.262s-.612-.416-.799-.721-.281-.655-.281-1.048c0-.303.064-.572.192-.806s.309-.456.536-.657a8.13 8.13 0 0 1 .792-.611l1.051-.781a2.11 2.11 0 0 0 .494-.433c.124-.154.188-.355.188-.604 0-.185-.082-.363-.245-.536a.83.83 0 0 0-.636-.259.86.86 0 0 0-.49.142 1 1 0 0 0-.33.355.9.9 0 0 0-.117.44c0 .171.046.343.139.519a3.85 3.85 0 0 0 .359.532l.455.554L82.617 133h-1.009l-2.756-3.324-.696-.838a3.98 3.98 0 0 1-.497-.742c-.123-.244-.185-.508-.185-.792 0-.327.072-.613.217-.859s.352-.442.614-.579a1.99 1.99 0 0 1 .93-.21c.365 0 .678.071.941.213s.465.326.607.558.213.479.213.749a1.58 1.58 0 0 1-.259.906 2.96 2.96 0 0 1-.707.713l-1.449 1.08c-.327.241-.548.476-.664.703s-.174.391-.174.49a1.21 1.21 0 0 0 .178.636c.119.197.285.355.501.476a1.53 1.53 0 0 0 .756.181c.275 0 .542-.058.803-.174a2.26 2.26 0 0 0 .707-.512c.213-.222.381-.49.504-.802a2.81 2.81 0 0 0 .188-1.055h.81c0 .483-.056.877-.167 1.183a2.52 2.52 0 0 1-.376.717l-.337.387-.078.107-.078.106a2.16 2.16 0 0 1-.888.59c-.358.128-.71.191-1.058.191zm7.149-.099v-5.455h.838V133h-.838zm.426-6.364c-.163 0-.304-.055-.423-.167s-.174-.245-.174-.401.058-.29.174-.401.259-.167.423-.167.303.056.419.167a.53.53 0 0 1 .177.401.53.53 0 0 1-.177.401.58.58 0 0 1-.419.167zm4.007 6.478c-.455 0-.856-.115-1.204-.345a2.32 2.32 0 0 1-.817-.98c-.197-.421-.295-.924-.295-1.502s.098-1.07.295-1.492.47-.746.82-.976.755-.345 1.215-.345c.355 0 .636.06.842.178a1.45 1.45 0 0 1 .476.398l.259.362h.071v-2.685h.838V133h-.81v-.838h-.099a5.08 5.08 0 0 1-.263.376c-.114.151-.276.283-.486.402s-.491.174-.842.174zm.114-.753c.336 0 .62-.088.852-.263a1.65 1.65 0 0 0 .529-.735 3.03 3.03 0 0 0 .181-1.09 2.95 2.95 0 0 0-.177-1.069c-.118-.308-.294-.547-.526-.717s-.519-.26-.859-.26c-.355 0-.651.091-.888.274s-.411.425-.529.735-.174.653-.174 1.037.059.741.178 1.058a1.73 1.73 0 0 0 .533.753c.237.184.53.277.881.277zm6.325.753c-.526 0-.979-.116-1.36-.348a2.34 2.34 0 0 1-.877-.98c-.204-.422-.305-.912-.305-1.471s.102-1.051.305-1.477a2.41 2.41 0 0 1 .859-1.001c.369-.242.8-.363 1.293-.363.284 0 .565.048.842.142a2.09 2.09 0 0 1 .756.462 2.21 2.21 0 0 1 .543.838c.135.348.202.777.202 1.286v.355h-4.204v-.725h3.352c0-.307-.062-.582-.185-.823s-.294-.433-.519-.572-.485-.21-.788-.21c-.334 0-.623.083-.867.249a1.63 1.63 0 0 0-.558.639 1.88 1.88 0 0 0-.195.845v.483c0 .412.071.761.213 1.048a1.51 1.51 0 0 0 .6.65c.256.15.553.22.891.22a1.8 1.8 0 0 0 .597-.093c.18-.063.335-.158.465-.284s.231-.286.302-.475l.81.227c-.085.274-.228.516-.43.724s-.45.367-.746.483-.629.171-.998.171zm4.371-3.395V133h-.838v-5.455h.81v.853h.071a1.56 1.56 0 0 1 .582-.668c.261-.17.597-.256 1.009-.256.369 0 .692.076.969.228a1.53 1.53 0 0 1 .647.682c.153.303.23.686.23 1.15V133h-.838v-3.409c0-.429-.111-.762-.334-1.002s-.527-.362-.916-.362c-.267 0-.506.058-.717.174s-.373.286-.494.508-.181.493-.181.81zm7.384-2.174v.711h-2.827v-.711h2.827zm-2.003-1.306h.838v5.199c0 .236.035.414.103.532s.161.194.27.235a1.11 1.11 0 0 0 .352.056 1.42 1.42 0 0 0 .227-.014l.142-.028.17.753c-.056.021-.136.042-.238.064a1.86 1.86 0 0 1-.387.035 1.69 1.69 0 0 1-.696-.153c-.225-.101-.412-.257-.561-.465s-.22-.471-.22-.788v-5.426zm3.264 6.761v-5.455h.838V133h-.838zm.426-6.364c-.164 0-.304-.055-.423-.167s-.174-.245-.174-.401.058-.29.174-.401a.6.6 0 0 1 .423-.167c.163 0 .303.056.419.167a.53.53 0 0 1 .177.401.53.53 0 0 1-.177.401.58.58 0 0 1-.419.167zm4.319.909v.711h-2.827v-.711h2.827zm-2.003-1.306h.838v5.199c0 .236.034.414.103.532a.52.52 0 0 0 .27.235c.109.041.228.056.351.056.093 0 .169-.004.228-.014l.142-.028.17.753c-.057.021-.136.042-.238.064s-.231.035-.387.035c-.236 0-.469-.051-.696-.153a1.37 1.37 0 0 1-.561-.465c-.149-.208-.22-.471-.22-.788v-5.426zm3.803 8.806a1.82 1.82 0 0 1-.38-.035c-.111-.021-.188-.043-.231-.064l.214-.739c.203.052.383.071.539.057a.65.65 0 0 0 .416-.209c.121-.125.235-.323.337-.6l.156-.427-2.017-5.483h.909l1.506 4.347h.057l1.506-4.347h.909l-2.316 6.25a2.36 2.36 0 0 1-.387.7 1.45 1.45 0 0 1-.536.416c-.201.089-.428.134-.682.134zM51.881 192v-7.273h2.543c.507 0 .925.088 1.254.263s.574.406.735.7.241.614.241.969c0 .313-.056.571-.167.774s-.253.365-.433.483a1.96 1.96 0 0 1-.579.263v.071a1.42 1.42 0 0 1 .671.234c.225.142.413.346.565.611s.227.59.227.973a1.95 1.95 0 0 1-.249.984c-.166.291-.427.522-.785.692s-.823.256-1.396.256H51.88zm.881-.781h1.747c.575 0 .984-.112 1.225-.334a1.07 1.07 0 0 0 .366-.817 1.3 1.3 0 0 0-.188-.682 1.37 1.37 0 0 0-.536-.504 1.68 1.68 0 0 0-.824-.192h-1.79v2.529zm0-3.296h1.633c.265 0 .504-.052.717-.156s.386-.251.511-.44.192-.412.192-.668c0-.32-.111-.591-.334-.813s-.575-.337-1.058-.337h-1.662v2.414zm7.115 4.205a2.22 2.22 0 0 1-.941-.195c-.282-.133-.505-.324-.671-.572s-.248-.554-.248-.909c0-.313.061-.566.185-.76a1.3 1.3 0 0 1 .494-.462c.206-.111.433-.194.682-.248l.756-.135.806-.096c.208-.024.36-.063.455-.117s.146-.15.146-.285v-.028c0-.35-.096-.623-.288-.817s-.477-.291-.863-.291c-.4 0-.714.088-.941.263a1.55 1.55 0 0 0-.479.561l-.795-.284c.142-.332.331-.59.568-.774a2.15 2.15 0 0 1 .781-.391c.282-.073.563-.114.838-.114a3.39 3.39 0 0 1 .604.064 2 2 0 0 1 .664.252c.213.127.394.321.536.579s.213.604.213 1.037V192h-.838v-.739h-.043a1.46 1.46 0 0 1-.284.38 1.65 1.65 0 0 1-.529.345c-.22.095-.489.142-.806.142zm.128-.753c.331 0 .611-.065.838-.195s.402-.299.518-.505.178-.422.178-.649v-.767c-.035.042-.114.081-.234.117a3.99 3.99 0 0 1-.412.088l-.451.064-.352.043c-.218.028-.421.075-.611.139a1.05 1.05 0 0 0-.454.28c-.114.123-.171.291-.171.504a.75.75 0 0 0 .323.661c.218.147.494.22.827.22zm6.274-4.83v.711h-2.827v-.711h2.827zm-2.003-1.306h.838v5.199c0 .236.034.414.103.532a.52.52 0 0 0 .27.235c.109.041.228.056.352.056a1.42 1.42 0 0 0 .227-.014l.142-.028.17.753c-.057.021-.136.042-.238.064s-.231.035-.387.035a1.68 1.68 0 0 1-.696-.153 1.38 1.38 0 0 1-.561-.465c-.147-.208-.22-.471-.22-.788v-5.426zm5.636 1.306v.711h-2.827v-.711h2.827zm-2.003-1.306h.838v5.199c0 .236.034.414.103.532a.52.52 0 0 0 .27.235c.109.041.228.056.352.056a1.42 1.42 0 0 0 .227-.014l.142-.028.17.753c-.057.021-.136.042-.238.064s-.231.035-.387.035a1.68 1.68 0 0 1-.696-.153 1.38 1.38 0 0 1-.561-.465c-.147-.208-.22-.471-.22-.788v-5.426zm5.492 6.875c-.526 0-.979-.116-1.36-.348a2.34 2.34 0 0 1-.877-.98c-.204-.422-.305-.912-.305-1.471s.102-1.051.305-1.477a2.41 2.41 0 0 1 .859-1.001c.369-.242.8-.363 1.293-.363.284 0 .565.048.842.142a2.09 2.09 0 0 1 .756.462c.227.211.408.49.543.838s.202.777.202 1.286v.355h-4.204v-.725h3.352c0-.307-.061-.582-.185-.823s-.294-.433-.519-.572-.485-.21-.788-.21c-.334 0-.623.083-.867.249a1.63 1.63 0 0 0-.558.639 1.88 1.88 0 0 0-.195.845v.483c0 .412.071.761.213 1.048s.345.5.6.65.553.22.891.22a1.8 1.8 0 0 0 .597-.093c.18-.063.335-.158.465-.284s.231-.286.302-.475l.81.227c-.085.274-.228.516-.43.724s-.45.367-.746.483-.628.171-.998.171zm3.533-.114v-5.455h.81v.824h.057a1.31 1.31 0 0 1 .54-.657 1.59 1.59 0 0 1 .881-.252l.231.004.21.01v.853a2.43 2.43 0 0 0-.195-.032c-.099-.017-.205-.025-.316-.025-.265 0-.502.056-.71.167a1.26 1.26 0 0 0-.49.454 1.23 1.23 0 0 0-.178.657V192h-.838zm4.427 2.045c-.142 0-.269-.011-.38-.035a1 1 0 0 1-.231-.064l.213-.739c.204.052.383.071.54.057s.295-.084.416-.209.236-.323.337-.6l.156-.427-2.017-5.483h.909l1.506 4.347h.057l1.506-4.347h.909l-2.315 6.25a2.36 2.36 0 0 1-.387.7 1.48 1.48 0 0 1-.536.416 1.67 1.67 0 0 1-.682.134z"/><path d="M52.881 222v-7.273h4.361v.782h-3.48v2.457h3.153v.781h-3.153V222h-.881zm5.697 0v-5.455h.81v.824h.057c.099-.27.279-.489.54-.657a1.59 1.59 0 0 1 .881-.252l.231.004.21.01v.853a2.43 2.43 0 0 0-.195-.032c-.099-.017-.205-.025-.316-.025-.265 0-.502.056-.71.167a1.26 1.26 0 0 0-.49.454c-.118.192-.178.411-.178.657V222h-.838zm5.842.114c-.526 0-.979-.116-1.36-.348a2.34 2.34 0 0 1-.877-.98c-.204-.422-.305-.912-.305-1.471s.102-1.051.305-1.477a2.41 2.41 0 0 1 .859-1.001c.369-.242.8-.363 1.293-.363.284 0 .565.048.842.142a2.09 2.09 0 0 1 .756.462 2.21 2.21 0 0 1 .543.838c.135.348.202.777.202 1.286v.355h-4.205v-.725h3.352c0-.307-.062-.582-.185-.823s-.294-.433-.519-.572-.485-.21-.788-.21c-.334 0-.623.083-.867.249a1.63 1.63 0 0 0-.558.639 1.88 1.88 0 0 0-.195.845v.483c0 .412.071.761.213 1.048s.344.5.6.65.553.22.891.22a1.8 1.8 0 0 0 .597-.093c.18-.063.335-.158.465-.284s.231-.286.302-.475l.81.227c-.085.274-.228.516-.43.724s-.45.367-.746.483-.629.171-.998.171zm7.255 1.931v-2.883h-.071c-.062.099-.149.225-.263.376s-.276.283-.487.402-.491.174-.842.174c-.455 0-.856-.115-1.204-.345s-.62-.559-.817-.98-.295-.924-.295-1.502.098-1.07.295-1.492.47-.746.82-.976.755-.345 1.215-.345c.355 0 .636.06.842.178a1.45 1.45 0 0 1 .476.398l.259.362h.099v-.867h.81v7.5h-.838zm-1.548-2.684c.336 0 .62-.088.852-.263s.408-.423.529-.735.181-.678.181-1.09c0-.407-.059-.764-.178-1.069a1.55 1.55 0 0 0-.526-.717c-.232-.173-.518-.26-.859-.26-.355 0-.651.091-.888.274s-.411.425-.529.735-.174.653-.174 1.037.059.741.178 1.058a1.73 1.73 0 0 0 .533.753c.237.184.53.277.881.277zm7.358-1.591v-3.225h.838V222h-.838v-.923h-.057c-.128.277-.327.512-.597.706s-.611.288-1.023.288c-.341 0-.644-.075-.909-.224s-.474-.378-.625-.682-.227-.69-.227-1.154v-3.466h.838v3.41c0 .397.111.715.334.951s.511.355.859.355c.208 0 .42-.053.636-.159a1.39 1.39 0 0 0 .547-.49c.149-.221.224-.501.224-.842zm4.66 2.344c-.525 0-.979-.116-1.36-.348a2.34 2.34 0 0 1-.877-.98c-.204-.422-.305-.912-.305-1.471s.102-1.051.305-1.477a2.41 2.41 0 0 1 .859-1.001c.369-.242.8-.363 1.293-.363.284 0 .565.048.842.142a2.09 2.09 0 0 1 .756.462 2.21 2.21 0 0 1 .543.838c.135.348.202.777.202 1.286v.355h-4.204v-.725h3.352c0-.307-.062-.582-.185-.823s-.293-.433-.518-.572-.485-.21-.788-.21c-.334 0-.623.083-.867.249a1.63 1.63 0 0 0-.557.639 1.88 1.88 0 0 0-.195.845v.483c0 .412.071.761.213 1.048s.344.5.6.65.553.22.891.22a1.8 1.8 0 0 0 .597-.093c.18-.063.335-.158.465-.284s.231-.286.302-.475l.81.227c-.085.274-.228.516-.43.724s-.45.367-.746.483-.629.171-.998.171zm4.371-3.395V222h-.838v-5.455h.81v.853h.071a1.56 1.56 0 0 1 .582-.668c.26-.17.597-.256 1.008-.256.369 0 .693.076.97.228s.492.376.646.682.231.686.231 1.15V222h-.838v-3.409c0-.429-.111-.762-.334-1.002s-.528-.362-.916-.362c-.268 0-.507.058-.717.174a1.25 1.25 0 0 0-.494.508c-.121.223-.181.493-.181.81zm7.227 3.395c-.511 0-.952-.121-1.321-.363a2.36 2.36 0 0 1-.852-.997c-.199-.424-.298-.908-.298-1.453 0-.554.102-1.043.305-1.466s.493-.759.859-.998.8-.363 1.293-.363c.383 0 .729.071 1.037.214a1.98 1.98 0 0 1 .756.596 1.86 1.86 0 0 1 .366.895h-.838a1.3 1.3 0 0 0-.426-.661c-.218-.194-.511-.291-.881-.291-.327 0-.613.085-.859.256s-.434.406-.572.714-.202.664-.202 1.076c0 .421.066.788.199 1.101s.324.555.568.728.535.259.867.259c.218 0 .415-.038.593-.114a1.23 1.23 0 0 0 .451-.327 1.25 1.25 0 0 0 .263-.511h.838a1.94 1.94 0 0 1-.352.87c-.185.256-.43.459-.735.611s-.656.224-1.058.224zm3.91 1.931c-.142 0-.269-.011-.38-.035s-.188-.043-.231-.064l.213-.739c.204.052.383.071.54.057s.295-.084.415-.209.236-.323.337-.6l.156-.427-2.017-5.483h.909l1.506 4.347h.057l1.506-4.347h.909l-2.315 6.25c-.104.282-.233.515-.387.7s-.333.326-.536.416a1.67 1.67 0 0 1-.682.134z"/></g><path d="M21 201.75h219" class="D G"/><g fill="#0c0c0c"><path d="M53.179 250h-.923l2.67-7.273h.909l2.67 7.273h-.923l-2.173-6.122h-.057L53.179 250zm.341-2.841h3.722v.781H53.52v-.781zm8.065 2.955c-.454 0-.856-.115-1.204-.345s-.62-.559-.817-.98-.295-.924-.295-1.502.098-1.07.295-1.492.47-.746.82-.976.755-.345 1.215-.345c.355 0 .636.06.842.178a1.45 1.45 0 0 1 .476.398l.259.362h.071v-2.685h.838V250h-.81v-.838h-.099c-.062.099-.149.225-.263.376s-.276.283-.486.402-.491.174-.842.174zm.114-.753c.336 0 .62-.088.852-.263a1.65 1.65 0 0 0 .529-.735 3.03 3.03 0 0 0 .181-1.09c0-.407-.059-.764-.178-1.069s-.294-.547-.526-.717-.518-.26-.859-.26c-.355 0-.651.091-.888.274s-.411.425-.529.735-.174.653-.174 1.037.059.741.178 1.058a1.73 1.73 0 0 0 .533.753c.237.184.53.277.881.277zm5.643.767a2.22 2.22 0 0 1-.941-.195c-.282-.133-.505-.324-.671-.572s-.249-.554-.249-.909c0-.313.062-.566.185-.76a1.3 1.3 0 0 1 .494-.462c.206-.111.433-.194.682-.248l.756-.135.806-.096c.208-.024.36-.063.455-.117s.146-.15.146-.285v-.028c0-.35-.096-.623-.288-.817s-.477-.291-.863-.291c-.4 0-.714.088-.941.263a1.55 1.55 0 0 0-.479.561l-.795-.284c.142-.332.331-.59.568-.774s.5-.318.781-.391.563-.114.838-.114c.175 0 .376.022.604.064s.451.125.664.252.394.321.536.579.213.604.213 1.037V250h-.838v-.739h-.043c-.057.119-.151.245-.284.38s-.309.25-.529.345-.489.142-.806.142zm.128-.753c.331 0 .611-.065.838-.195s.403-.299.519-.505.177-.422.177-.649v-.767c-.035.042-.114.081-.234.117s-.256.062-.412.088l-.451.064-.352.043c-.218.028-.421.075-.611.139a1.05 1.05 0 0 0-.455.28c-.114.123-.17.291-.17.504a.75.75 0 0 0 .323.661c.218.147.494.22.828.22zm3.902 2.67v-7.5h.81v.867h.1l.256-.362a1.5 1.5 0 0 1 .476-.398c.208-.118.49-.178.845-.178.459 0 .864.115 1.214.345s.624.555.82.976.295.919.295 1.492-.098 1.078-.295 1.502-.469.748-.817.98-.749.345-1.204.345c-.35 0-.631-.058-.842-.174s-.373-.253-.486-.402l-.263-.376h-.071v2.883h-.838zm.824-4.772c0 .412.06.775.181 1.09s.297.557.529.735.516.263.852.263c.35 0 .643-.093.877-.277s.414-.438.533-.753.181-.67.181-1.058a2.87 2.87 0 0 0-.178-1.037c-.116-.31-.292-.555-.529-.735s-.529-.274-.884-.274c-.341 0-.627.087-.859.26s-.407.409-.525.717-.178.662-.178 1.069zm7.642-2.728v.711H77.01v-.711h2.827zm-2.003-1.306h.838v5.199c0 .236.034.414.103.532s.161.194.27.235.228.056.352.056c.092 0 .168-.004.227-.014l.142-.028.171.753c-.057.021-.136.042-.238.064s-.231.035-.387.035c-.237 0-.469-.051-.696-.153a1.38 1.38 0 0 1-.561-.465c-.147-.208-.22-.471-.22-.788v-5.426zM81.097 250v-5.455h.838V250h-.838zm.426-6.364a.59.59 0 0 1-.423-.167c-.116-.111-.174-.245-.174-.401s.058-.29.174-.401.259-.167.423-.167.303.056.419.167a.53.53 0 0 1 .178.401.53.53 0 0 1-.178.401.58.58 0 0 1-.419.167zm6.407.909L85.913 250h-.852l-2.017-5.455h.909l1.506 4.347h.057l1.506-4.347h.909zm3.198 5.569c-.526 0-.979-.116-1.36-.348a2.34 2.34 0 0 1-.877-.98c-.204-.422-.305-.912-.305-1.471s.102-1.051.305-1.477a2.41 2.41 0 0 1 .859-1.001c.369-.242.8-.363 1.293-.363.284 0 .565.048.842.142a2.09 2.09 0 0 1 .756.462 2.21 2.21 0 0 1 .543.838c.135.348.202.777.202 1.286v.355h-4.205v-.725h3.352c0-.307-.062-.582-.185-.823s-.294-.433-.519-.572-.485-.21-.788-.21c-.334 0-.623.083-.867.249a1.63 1.63 0 0 0-.558.639 1.88 1.88 0 0 0-.195.845v.483c0 .412.071.761.213 1.048s.344.5.6.65.553.22.891.22a1.8 1.8 0 0 0 .597-.093c.18-.063.335-.158.465-.284s.231-.286.302-.475l.81.227c-.085.274-.229.516-.43.724s-.45.367-.746.483-.629.171-.998.171zm8.704-.114h-2.244v-7.273h2.344c.706 0 1.31.146 1.811.437s.886.704 1.154 1.247.401 1.186.401 1.938c0 .758-.135 1.41-.405 1.957a2.88 2.88 0 0 1-1.179 1.257c-.516.291-1.143.437-1.882.437zm-1.364-.781h1.307c.602 0 1.1-.116 1.495-.348s.69-.563.884-.991.292-.939.292-1.531c0-.587-.096-1.092-.288-1.516s-.478-.753-.859-.98-.856-.344-1.424-.344h-1.406v5.71zm7.799.909c-.346 0-.66-.065-.941-.195s-.506-.324-.672-.572-.248-.554-.248-.909c0-.313.061-.566.185-.76s.287-.351.493-.462.433-.194.682-.248l.756-.135.806-.096c.209-.024.36-.063.455-.117s.146-.15.146-.285v-.028c0-.35-.096-.623-.288-.817s-.477-.291-.863-.291c-.4 0-.714.088-.941.263s-.387.362-.479.561l-.796-.284c.142-.332.332-.59.568-.774s.5-.318.782-.391a3.23 3.23 0 0 1 .838-.114 3.37 3.37 0 0 1 .603.064 1.96 1.96 0 0 1 .664.252c.216.128.395.321.537.579s.213.604.213 1.037V250h-.838v-.739h-.043c-.057.119-.152.245-.284.38a1.65 1.65 0 0 1-.529.345c-.22.094-.489.142-.806.142zm.128-.753c.331 0 .61-.065.838-.195a1.34 1.34 0 0 0 .518-.505c.118-.206.178-.422.178-.649v-.767c-.036.042-.114.081-.235.117s-.255.062-.412.088l-.451.064-.351.043c-.218.028-.422.075-.611.139s-.339.155-.455.28-.17.291-.17.504c0 .292.108.512.323.661s.494.22.828.22zm6.274-4.83v.711h-2.827v-.711h2.827zm-2.003-1.306h.838v5.199c0 .236.034.414.103.532s.161.194.27.235.228.056.351.056a1.42 1.42 0 0 0 .227-.014l.142-.028.171.753c-.057.021-.136.042-.238.064a1.8 1.8 0 0 1-.387.035 1.68 1.68 0 0 1-.696-.153c-.225-.101-.412-.257-.561-.465s-.22-.471-.22-.788v-5.426zm4.868 6.889c-.345 0-.659-.065-.941-.195s-.505-.324-.671-.572-.249-.554-.249-.909c0-.313.062-.566.185-.76a1.3 1.3 0 0 1 .494-.462c.206-.111.433-.194.682-.248l.756-.135.806-.096c.208-.024.36-.063.455-.117s.145-.15.145-.285v-.028c0-.35-.096-.623-.287-.817s-.477-.291-.863-.291c-.4 0-.714.088-.941.263s-.387.362-.48.561l-.795-.284c.142-.332.331-.59.568-.774a2.12 2.12 0 0 1 .781-.391c.284-.076.564-.114.838-.114a3.38 3.38 0 0 1 .604.064 1.96 1.96 0 0 1 .664.252c.215.128.394.321.536.579s.213.604.213 1.037V250h-.838v-.739h-.042c-.057.119-.152.245-.285.38s-.308.25-.529.345-.488.142-.806.142zm.128-.753c.332 0 .611-.065.838-.195s.403-.299.519-.505.177-.422.177-.649v-.767c-.035.042-.113.081-.234.117s-.256.062-.412.088l-.451.064-.352.043c-.217.028-.421.075-.61.139s-.339.155-.455.28-.17.291-.17.504c0 .292.107.512.323.661s.493.22.827.22zm3.902.625v-5.455h.81v.824h.056c.1-.27.28-.489.54-.657a1.59 1.59 0 0 1 .881-.252l.231.004.209.01v.853c-.028-.007-.093-.018-.195-.032s-.205-.025-.316-.025c-.265 0-.502.056-.71.167s-.37.26-.49.454a1.22 1.22 0 0 0-.178.657V250h-.838zm5.326.128c-.346 0-.66-.065-.941-.195s-.506-.324-.671-.572-.249-.554-.249-.909c0-.313.061-.566.185-.76s.287-.351.493-.462.433-.194.682-.248l.756-.135.807-.096c.208-.024.359-.063.454-.117s.146-.15.146-.285v-.028c0-.35-.096-.623-.288-.817s-.477-.291-.863-.291c-.4 0-.714.088-.941.263s-.387.362-.479.561l-.796-.284c.142-.332.332-.59.568-.774s.5-.318.782-.391a3.23 3.23 0 0 1 .838-.114 3.37 3.37 0 0 1 .603.064 1.96 1.96 0 0 1 .664.252c.216.128.395.321.537.579s.213.604.213 1.037V250h-.838v-.739h-.043a1.46 1.46 0 0 1-.284.38 1.65 1.65 0 0 1-.529.345c-.22.094-.489.142-.806.142zm.128-.753c.331 0 .61-.065.838-.195a1.34 1.34 0 0 0 .518-.505c.118-.206.178-.422.178-.649v-.767c-.036.042-.114.081-.235.117s-.255.062-.412.088l-.451.064-.351.043c-.218.028-.422.075-.611.139s-.339.155-.455.28-.17.291-.17.504c0 .292.108.512.323.661s.494.22.828.22zm6.274-4.83v.711h-2.827v-.711h2.827zm-2.003-1.306h.838v5.199c0 .236.034.414.103.532s.161.194.27.235.228.056.351.056c.093 0 .168-.004.227-.014l.143-.028.17.753c-.057.021-.136.042-.238.064a1.8 1.8 0 0 1-.387.035 1.68 1.68 0 0 1-.696-.153c-.225-.101-.412-.257-.561-.465s-.22-.471-.22-.788v-5.426zm5.492 6.875c-.526 0-.979-.116-1.361-.348s-.671-.561-.877-.98-.305-.912-.305-1.471.102-1.051.305-1.477.493-.762.86-1.001.8-.363 1.292-.363c.284 0 .565.048.842.142s.529.249.756.462.409.49.544.838.202.777.202 1.286v.355h-4.204v-.725h3.352c0-.307-.062-.582-.185-.823s-.293-.433-.518-.572-.486-.21-.789-.21c-.333 0-.622.083-.866.249s-.427.376-.558.639a1.88 1.88 0 0 0-.195.845v.483c0 .412.071.761.213 1.048s.345.5.6.65.553.22.892.22c.22 0 .419-.031.596-.093s.335-.158.465-.284.231-.286.302-.475l.81.227c-.085.274-.229.516-.43.724s-.45.367-.746.483-.628.171-.997.171z"/><path d="M58.733 276h-.881c-.052-.253-.143-.476-.273-.668s-.284-.352-.469-.483-.385-.232-.607-.298-.455-.099-.696-.099c-.44 0-.839.111-1.197.334s-.638.55-.849.983-.312.965-.312 1.595.104 1.161.313 1.594.494.761.849.984.756.334 1.197.334c.241 0 .473-.034.696-.1a2.01 2.01 0 0 0 .607-.295c.185-.132.341-.294.469-.486s.221-.417.273-.668h.881c-.066.372-.187.705-.362.998a2.72 2.72 0 0 1-.653.749c-.26.204-.553.359-.877.466s-.666.159-1.033.159c-.62 0-1.172-.151-1.655-.454s-.863-.734-1.14-1.293-.415-1.221-.415-1.988.139-1.43.415-1.989.657-.99 1.14-1.293 1.035-.454 1.655-.454c.367 0 .711.053 1.033.16s.617.262.877.468.478.453.653.746.296.624.362.998zm3.525 5.114c-.492 0-.924-.118-1.296-.352s-.658-.562-.867-.984-.309-.913-.309-1.477.103-1.064.309-1.488a2.38 2.38 0 0 1 .867-.987c.372-.234.804-.352 1.296-.352s.923.118 1.293.352.66.563.866.987.313.92.313 1.488-.104 1.056-.312 1.477a2.35 2.35 0 0 1-.866.984c-.369.234-.8.352-1.293.352zm0-.753c.374 0 .682-.096.923-.288s.42-.444.536-.756a2.9 2.9 0 0 0 .174-1.016c0-.364-.058-.704-.174-1.019s-.295-.569-.536-.764-.549-.291-.923-.291-.682.097-.923.291-.42.449-.536.764-.174.655-.174 1.019a2.9 2.9 0 0 0 .174 1.016 1.7 1.7 0 0 0 .536.756c.242.192.549.288.923.288zm4.589-2.642V281h-.838v-5.455h.81v.853h.071a1.56 1.56 0 0 1 .582-.668c.26-.17.597-.256 1.008-.256.369 0 .692.076.969.228s.492.376.646.682.231.686.231 1.15V281h-.838v-3.409c0-.429-.111-.762-.334-1.002s-.528-.362-.916-.362c-.267 0-.507.058-.717.174a1.25 1.25 0 0 0-.494.508c-.121.223-.181.493-.181.81zm7.441-2.174v.711h-2.94v-.711h2.94zM72.228 281v-6.207c0-.313.073-.573.22-.782s.337-.364.572-.468.482-.157.742-.157c.206 0 .374.017.504.05s.227.064.291.092l-.242.725-.177-.053a1.05 1.05 0 0 0-.291-.032c-.277 0-.477.069-.6.209s-.181.345-.181.614V281h-.838zm3.234 0v-5.455h.838V281h-.838zm.426-6.364c-.163 0-.304-.055-.423-.167s-.174-.245-.174-.401.058-.29.174-.401.259-.167.423-.167.303.056.419.167a.53.53 0 0 1 .178.401.53.53 0 0 1-.178.401.58.58 0 0 1-.419.167zM77.835 281v-5.455h.81v.824h.057c.099-.27.279-.489.54-.657a1.59 1.59 0 0 1 .881-.252l.231.004.21.01v.853a2.43 2.43 0 0 0-.195-.032c-.1-.017-.205-.025-.316-.025-.265 0-.502.056-.71.167a1.26 1.26 0 0 0-.49.454c-.118.192-.177.411-.177.657V281h-.838zm3.721 0v-5.455h.81v.853h.071c.114-.291.297-.518.55-.679s.558-.245.913-.245.659.082.898.245.43.388.565.679h.057c.14-.282.349-.506.629-.671s.614-.253 1.005-.253c.488 0 .887.153 1.197.459s.465.775.465 1.416V281h-.838v-3.651c0-.402-.11-.69-.33-.862a1.22 1.22 0 0 0-.778-.26c-.383 0-.681.116-.891.348s-.316.521-.316.874V281h-.852v-3.736c0-.31-.101-.56-.302-.749a1.08 1.08 0 0 0-.778-.288 1.15 1.15 0 0 0-.611.174c-.187.116-.339.277-.455.483s-.17.439-.17.707V281h-.838zm10.978.114c-.526 0-.979-.116-1.36-.348a2.34 2.34 0 0 1-.877-.98c-.204-.422-.305-.912-.305-1.471s.102-1.051.305-1.477a2.41 2.41 0 0 1 .859-1.001c.369-.242.8-.363 1.293-.363.284 0 .565.048.842.142a2.09 2.09 0 0 1 .756.462c.227.211.408.49.543.838s.202.777.202 1.286v.355h-4.205v-.725h3.352c0-.307-.062-.582-.185-.823s-.293-.433-.518-.572a1.45 1.45 0 0 0-.788-.21c-.334 0-.623.083-.867.249a1.63 1.63 0 0 0-.558.639 1.88 1.88 0 0 0-.195.845v.483c0 .412.071.761.213 1.048s.344.5.6.65.553.22.891.22a1.8 1.8 0 0 0 .597-.093c.18-.063.335-.158.465-.284s.231-.286.302-.475l.81.227c-.085.274-.228.516-.43.724s-.45.367-.746.483-.629.171-.998.171zm5.593 0c-.455 0-.856-.115-1.204-.345s-.62-.559-.817-.98-.295-.924-.295-1.502c0-.573.098-1.07.295-1.492s.47-.746.82-.976.755-.345 1.215-.345c.355 0 .636.06.842.178a1.45 1.45 0 0 1 .476.398l.259.362h.071v-2.685h.838V281h-.809v-.838h-.099c-.062.099-.149.225-.263.376s-.276.283-.487.402-.491.174-.842.174zm.114-.753c.336 0 .62-.088.852-.263a1.65 1.65 0 0 0 .529-.735 3.03 3.03 0 0 0 .181-1.09 2.95 2.95 0 0 0-.178-1.069c-.118-.308-.294-.547-.526-.717s-.519-.26-.859-.26c-.355 0-.651.091-.888.274s-.411.425-.529.735-.174.653-.174 1.037.059.741.178 1.058a1.73 1.73 0 0 0 .533.753c.237.184.53.277.881.277zm6.964-6.634h1.051l2.472 6.037h.085l2.471-6.037h1.052V281h-.824v-5.526h-.071L109.168 281h-.795l-2.273-5.526h-.071V281h-.824v-7.273zm11.07 7.387c-.526 0-.979-.116-1.36-.348a2.34 2.34 0 0 1-.878-.98c-.203-.422-.305-.912-.305-1.471s.102-1.051.305-1.477.493-.762.86-1.001.8-.363 1.292-.363c.285 0 .565.048.842.142s.529.249.756.462.409.49.544.838.202.777.202 1.286v.355h-4.204v-.725h3.352c0-.307-.062-.582-.185-.823a1.38 1.38 0 0 0-.518-.572c-.223-.14-.486-.21-.789-.21-.333 0-.622.083-.866.249s-.427.376-.558.639a1.88 1.88 0 0 0-.195.845v.483c0 .412.071.761.213 1.048a1.55 1.55 0 0 0 .6.65c.256.146.553.22.892.22.22 0 .419-.031.596-.093s.335-.158.465-.284.231-.286.302-.475l.81.227c-.085.274-.228.516-.43.724s-.45.367-.745.483a2.76 2.76 0 0 1-.998.171zm7.397-4.347l-.753.213a1.39 1.39 0 0 0-.21-.366c-.09-.12-.213-.22-.369-.298s-.356-.117-.6-.117c-.334 0-.612.077-.835.231s-.33.344-.33.579c0 .208.076.372.227.493s.389.221.711.302l.809.199c.488.118.851.299 1.09.543s.359.553.359.934c0 .313-.09.592-.27.838a1.79 1.79 0 0 1-.745.583c-.32.142-.692.213-1.116.213-.556 0-1.016-.121-1.381-.363s-.595-.594-.692-1.058l.795-.199c.076.294.219.514.43.661s.491.22.834.22c.391 0 .701-.083.931-.249s.348-.369.348-.603c0-.19-.067-.348-.199-.476s-.336-.227-.611-.291l-.909-.213c-.5-.119-.867-.302-1.101-.551s-.348-.564-.348-.941c0-.308.086-.58.259-.817s.413-.422.714-.557.646-.203 1.03-.203c.54 0 .963.119 1.271.356s.53.549.661.937zm5.224 0l-.753.213c-.047-.125-.117-.247-.209-.366s-.213-.22-.369-.298-.357-.117-.601-.117c-.333 0-.611.077-.834.231s-.33.344-.33.579c0 .208.075.372.227.493s.388.221.71.302l.81.199c.488.118.851.299 1.09.543s.359.553.359.934c0 .313-.09.592-.27.838s-.426.441-.746.583-.691.213-1.115.213c-.556 0-1.017-.121-1.381-.363s-.596-.594-.693-1.058l.796-.199c.075.294.219.514.429.661s.492.22.835.22c.39 0 .701-.083.93-.249s.348-.369.348-.603a.63.63 0 0 0-.199-.476c-.132-.13-.336-.227-.61-.291l-.909-.213c-.5-.119-.867-.302-1.101-.551s-.348-.564-.348-.941c0-.308.086-.58.259-.817s.413-.422.714-.557.646-.203 1.029-.203c.54 0 .964.119 1.272.356a1.91 1.91 0 0 1 .66.937zm2.966 4.361c-.345 0-.659-.065-.941-.195a1.63 1.63 0 0 1-.671-.572c-.166-.251-.248-.554-.248-.909 0-.313.061-.566.184-.76a1.3 1.3 0 0 1 .494-.462c.206-.111.433-.194.682-.248l.756-.135.806-.096c.209-.024.36-.063.455-.117s.145-.15.145-.285v-.028c0-.35-.096-.623-.287-.817s-.477-.291-.863-.291c-.4 0-.714.088-.941.263s-.387.362-.48.561l-.795-.284c.142-.332.331-.59.568-.774a2.13 2.13 0 0 1 .781-.391c.284-.076.564-.114.838-.114a3.37 3.37 0 0 1 .604.064 1.96 1.96 0 0 1 .664.252c.216.128.394.321.536.579s.213.604.213 1.037V281h-.838v-.739h-.042c-.057.119-.152.245-.284.38a1.65 1.65 0 0 1-.529.345c-.221.094-.489.142-.807.142zm.128-.753c.332 0 .611-.065.838-.195s.403-.299.519-.505.177-.422.177-.649v-.767c-.035.042-.113.081-.234.117a3.99 3.99 0 0 1-.412.088l-.451.064-.352.043c-.217.028-.421.075-.61.139s-.339.155-.455.28-.17.291-.17.504c0 .292.107.512.323.661s.493.22.827.22zm6.104 2.784c-.405 0-.753-.052-1.044-.156s-.534-.237-.728-.405a2.19 2.19 0 0 1-.458-.533l.667-.468.288.341c.116.13.275.242.476.337s.47.145.799.145c.44 0 .803-.106 1.09-.319s.43-.547.43-1.002v-1.108h-.071c-.062.1-.15.223-.263.37s-.272.273-.483.387-.49.167-.845.167c-.441 0-.836-.104-1.186-.313s-.624-.511-.828-.909-.302-.881-.302-1.449c0-.558.099-1.045.295-1.459s.47-.739.82-.966.756-.345 1.215-.345c.355 0 .637.06.845.178s.372.249.483.398l.263.362h.085v-.867h.81v5.611c0 .469-.107.85-.32 1.144s-.495.512-.852.65a3.23 3.23 0 0 1-1.186.209zm-.029-2.997c.337 0 .621-.077.853-.231s.408-.375.529-.664.181-.634.181-1.037c0-.393-.059-.74-.178-1.04s-.293-.537-.525-.707-.519-.256-.86-.256c-.355 0-.651.09-.887.27s-.411.422-.53.725a2.8 2.8 0 0 0-.174 1.008c0 .379.06.714.178 1.005s.298.516.533.682.53.245.88.245zm6.208.952c-.526 0-.979-.116-1.36-.348a2.33 2.33 0 0 1-.877-.98c-.204-.422-.306-.912-.306-1.471s.102-1.051.306-1.477.492-.762.859-1.001.8-.363 1.293-.363a2.6 2.6 0 0 1 .841.142 2.1 2.1 0 0 1 .757.462c.227.211.408.49.543.838s.202.777.202 1.286v.355h-4.204v-.725h3.352c0-.307-.062-.582-.185-.823a1.38 1.38 0 0 0-.518-.572 1.45 1.45 0 0 0-.788-.21c-.334 0-.623.083-.867.249a1.64 1.64 0 0 0-.558.639 1.88 1.88 0 0 0-.195.845v.483c0 .412.071.761.213 1.048a1.55 1.55 0 0 0 .6.65c.256.146.553.22.892.22.22 0 .419-.031.596-.093s.335-.158.466-.284.23-.286.301-.475l.81.227c-.085.274-.228.516-.43.724s-.449.367-.745.483a2.76 2.76 0 0 1-.998.171z"/></g><g clip-path="url(#E)" class="C"><path d="M38.75 158.167c-1.149 0-2.083.934-2.083 2.083v1.25A1.67 1.67 0 0 1 35 163.167a1.67 1.67 0 0 1-1.667-1.667v-1.25c1.149 0 2.083-.935 2.083-2.083v-1.25h.417v-.834h-1.25V154h-.833v2.083h-1.667V154h-.833v2.083H30v.834h.417v1.25c0 1.148.934 2.083 2.083 2.083v1.25c0 1.379 1.121 2.5 2.5 2.5s2.5-1.121 2.5-2.5v-1.25a1.25 1.25 0 0 1 1.25-1.25H40v-.833h-1.25zm-6.25 1.25a1.25 1.25 0 0 1-1.25-1.25v-1.25h3.333v1.25a1.25 1.25 0 0 1-1.25 1.25H32.5z"/></g><g clip-path="url(#F)" class="C"><path d="M37.5 214.75h-4.477l5.645-1.86c.26-.086.395-.348.302-.587s-.38-.363-.639-.276l-8.605 2.836c-1 .299-1.726 1.163-1.726 2.179v3.666c0 1.264 1.122 2.292 2.5 2.292h7c1.379 0 2.5-1.028 2.5-2.292v-3.666c0-1.264-1.121-2.292-2.5-2.292zm1.5 5.958c0 .76-.672 1.375-1.5 1.375h-7c-.828 0-1.5-.615-1.5-1.375v-3.666c0-.76.672-1.375 1.5-1.375h7c.828 0 1.5.615 1.5 1.375v3.666zm-6.5-1.833c0 .253-.224.458-.5.458h-1.5c-.276 0-.5-.205-.5-.458s.224-.458.5-.458H32c.276 0 .5.205.5.458zm0 1.833c0 .253-.224.459-.5.459h-1.5c-.276 0-.5-.206-.5-.459s.224-.458.5-.458H32c.276 0 .5.205.5.458zm0-3.666c0 .253-.224.458-.5.458h-1.5c-.276 0-.5-.205-.5-.458s.224-.459.5-.459H32c.276 0 .5.206.5.459zm3.25-.23c-1.24 0-2.25.926-2.25 2.063s1.01 2.062 2.25 2.062 2.25-.925 2.25-2.062-1.01-2.063-2.25-2.063zm0 3.209c-.689 0-1.25-.514-1.25-1.146s.561-1.146 1.25-1.146 1.25.514 1.25 1.146-.561 1.146-1.25 1.146z"/></g><path d="M22 231.75h219m-219 29h219" class="D G"/><path d="M33.333 190.917c0 .23-.187.416-.417.416h-.833c-1.149 0-2.083-.934-2.083-2.083v-2.5c0-1.149.935-2.083 2.083-2.083h.833c.23 0 .417.186.417.416s-.187.417-.417.417h-.833a1.25 1.25 0 0 0-1.25 1.25v2.5a1.25 1.25 0 0 0 1.25 1.25h.833c.23 0 .417.187.417.417zm2.817-2.91a.79.79 0 0 0-.695-.424l-1.671.021 1.263-2.321c.11-.203.035-.456-.167-.565s-.455-.035-.565.166l-1.364 2.526c-.073.24-.031.49.115.686a.81.81 0 0 0 .651.321h1.684l-.005.01-1.143 2.304c-.102.207-.018.457.188.559a.42.42 0 0 0 .185.043c.153 0 .301-.085.374-.232l1.133-2.285c.148-.243.156-.551.017-.81v.001zm3.433-1.674h-.459c-.194-.949-1.035-1.666-2.041-1.666h-.833c-.23 0-.417.186-.417.416s.186.417.417.417h.833a1.25 1.25 0 0 1 1.25 1.25v2.5a1.25 1.25 0 0 1-1.25 1.25h-.833c-.23 0-.417.187-.417.417s.186.416.417.416h.833c1.006 0 1.848-.717 2.041-1.666h.459c.23 0 .417-.187.417-.417v-2.5c0-.23-.187-.417-.417-.417z" class="C"/><g clip-path="url(#G)" class="C"><path d="M37.708 127.159v-.534c0-.696-.338-1.364-.94-1.856S35.351 124 34.5 124s-1.667.277-2.269.769-.94 1.16-.94 1.856v.534c-.408.146-.756.386-1 .69s-.374.662-.375 1.026v2.25c.001.497.242.974.672 1.325s1.012.549 1.62.55h4.583c.608-.001 1.19-.198 1.62-.55s.671-.828.672-1.325v-2.25c-.001-.364-.131-.721-.375-1.026s-.592-.544-1-.69zm-5.5-.534c0-.497.241-.974.671-1.326s1.013-.549 1.62-.549 1.191.198 1.62.549.671.829.671 1.326V127h-4.583v-.375zm5.958 4.5c0 .298-.145.585-.403.795a1.55 1.55 0 0 1-.972.33h-4.583c-.365 0-.714-.119-.972-.33s-.403-.497-.403-.795v-2.25c0-.298.145-.585.403-.795a1.55 1.55 0 0 1 .972-.33h4.583c.365 0 .714.119.972.33s.403.497.403.795v2.25zM34.5 129.25c-.121 0-.238.04-.324.11s-.134.166-.134.265v.75c0 .099.048.195.134.265s.203.11.324.11.238-.04.324-.11.134-.166.134-.265v-.75c0-.099-.048-.195-.134-.265s-.203-.11-.324-.11z"/></g><g clip-path="url(#H)" class="C"><path d="M38.596 241.404a1.36 1.36 0 0 0-.594-.351c-.225-.065-.462-.07-.69-.015l-7.333 1.544c-.422.058-.82.233-1.149.504a2.29 2.29 0 0 0-.769 2.287c.097.415.309.795.61 1.096l.787.787a.46.46 0 0 1 .134.325v1.452a1.36 1.36 0 0 0 .137.589l-.004.003.012.012c.134.27.354.488.624.621l.012.012.003-.003c.183.089.385.136.589.137h1.452a.46.46 0 0 1 .324.134l.787.787c.211.213.462.383.739.499a2.28 2.28 0 0 0 .874.176 2.3 2.3 0 0 0 .736-.121c.4-.131.756-.372 1.027-.695s.446-.715.506-1.132l1.547-7.349c.057-.23.054-.47-.01-.698a1.37 1.37 0 0 0-.353-.601zm-8.488 5.205l-.788-.787a1.35 1.35 0 0 1-.331-1.409 1.36 1.36 0 0 1 .437-.632c.203-.165.449-.268.709-.296l7.26-1.529-6.886 6.887v-1.262c.001-.181-.034-.359-.103-.526a1.36 1.36 0 0 0-.298-.446zm6.403 3.286a1.38 1.38 0 0 1-.303.689c-.163.196-.378.344-.62.425a1.37 1.37 0 0 1-.751.036c-.249-.058-.477-.185-.658-.365l-.788-.788c-.127-.128-.279-.23-.445-.299s-.345-.104-.526-.104h-1.263l6.887-6.885-1.533 7.291z"/></g><g clip-path="url(#I)" class="C"><path d="M28.588 275.207a.39.39 0 0 1 .01-.589.49.49 0 0 1 .648.009l1.874 1.754c.141.129.334.202.539.203s.396-.072.54-.204l4.184-3.84a.49.49 0 0 1 .648-.003.39.39 0 0 1 .003.589l-4.185 3.842c-.319.29-.744.449-1.194.449a1.76 1.76 0 0 1-1.19-.452l-1.878-1.758zm10.277-.169a.49.49 0 0 0-.648.001l-5.998 5.467c-.173.157-.405.244-.65.244s-.476-.088-.652-.25l-2.138-1.923a.49.49 0 0 0-.649.003.39.39 0 0 0 .003.589l2.135 1.921c.346.317.807.492 1.298.493s.954-.173 1.3-.488l5.999-5.467a.39.39 0 0 0-.001-.59z"/></g><path d="M221.667 240.833h-5.334c-2.94 0-5.333 2.542-5.333 5.667s2.393 5.667 5.333 5.667h5.334c2.94 0 5.333-2.543 5.333-5.667s-2.393-5.667-5.333-5.667zm0 9.209c-1.838 0-3.334-1.588-3.334-3.542s1.496-3.542 3.334-3.542S225 244.546 225 246.5s-1.495 3.542-3.333 3.542zm-1.334 19.791h-5.666c-3.125 0-5.667 2.542-5.667 5.667s2.542 5.667 5.667 5.667h5.666c3.125 0 5.667-2.543 5.667-5.667s-2.542-5.667-5.667-5.667zm0 9.209c-1.953 0-3.541-1.588-3.541-3.542s1.588-3.542 3.541-3.542 3.542 1.588 3.542 3.542-1.589 3.542-3.542 3.542z" class="E"/><path d="M220.933 134.5l-.532-.5 3.135-2.925-3.135-2.925.532-.5 3.665 3.425-3.665 3.425z" class="F"/><g clip-path="url(#J)" class="C"><path d="M334.016 242.952c-.305-.281-.297-.729.017-1.002a.86.86 0 0 1 1.119.015l3.237 2.983c.243.219.578.343.931.344a1.39 1.39 0 0 0 .934-.346l7.226-6.528a.86.86 0 0 1 1.12-.005c.311.275.313.724.005 1.001l-7.229 6.53c-.551.493-1.285.764-2.061.764s-1.507-.274-2.055-.768l-3.244-2.988zm17.752-.287a.86.86 0 0 0-1.12.001l-10.36 9.294c-.299.267-.7.415-1.123.415s-.822-.15-1.126-.425l-3.693-3.27a.86.86 0 0 0-1.121.006c-.307.278-.304.726.006 1.001l3.688 3.266c.598.539 1.394.836 2.243.838s1.648-.294 2.246-.83l10.361-9.295c.309-.276.308-.725-.001-1.001z"/></g><circle cx="341.487" cy="246" r="16.987" stroke="url(#D)"/><defs><filter id="A" x="10" y="12" width="228" height="64" filterUnits="userSpaceOnUse" color-interpolation-filters="sRGB"><feFlood flood-opacity="0" result="A"/><feColorMatrix in="SourceAlpha" values="0 0 0 0 0 0 0 0 0 0 0 0 0 0 0 0 0 0 127 0" result="B"/><feMorphology radius="1" operator="dilate" in="SourceAlpha"/><feOffset dy="1"/><feGaussianBlur stdDeviation="2.5"/><feComposite in2="B" operator="out"/><feColorMatrix values="0 0 0 0 0 0 0 0 0 0 0 0 0 0 0 0 0 0 0.1 0"/><feBlend in2="A"/><feBlend in="SourceGraphic"/></filter><linearGradient id="B" x1="240" y1="245.2" x2="324" y2="245.2" gradientUnits="userSpaceOnUse"><stop stop-color="#2f67ff"/><stop offset="1" stop-color="#ff5f9b"/></linearGradient><linearGradient id="C" x1="128" y1="0" x2="128" y2="533" gradientUnits="userSpaceOnUse"><stop stop-color="#2f67ff"/><stop offset="1" stop-color="#ff5f9b"/></linearGradient><linearGradient id="D" x1="341.487" y1="228.513" x2="341.487" y2="263.487" gradientUnits="userSpaceOnUse"><stop stop-color="#2f67ff"/><stop offset="1" stop-color="#ff5f9b"/></linearGradient><clipPath id="E"><path transform="translate(30 154)" d="M0 0h10v10H0z" class="B"/></clipPath><clipPath id="F"><path transform="translate(28 212)" d="M0 0h12v11H0z" class="B"/></clipPath><clipPath id="G"><path transform="translate(29 124)" d="M0 0h11v9H0z" class="B"/></clipPath><clipPath id="H"><path transform="translate(28 241)" d="M0 0h11v11H0z" class="B"/></clipPath><clipPath id="I"><path transform="translate(28 272)" d="M0 0h11v10H0z" class="B"/></clipPath><clipPath id="J"><path transform="translate(333 237.5)" d="M0 0h19v17H0z" class="B"/></clipPath><path id="K" d="M36.372 57.525v.823"/></defs></svg>