<svg xmlns="http://www.w3.org/2000/svg" width="395" height="534" fill="none" xmlns:v="https://vecta.io/nano"><style><![CDATA[.B{stroke-width:.5}.C{stroke-linejoin:round}.D{stroke-width:.3}.E{stroke-miterlimit:22.9256}.F{fill-rule:evenodd}]]></style><g stroke-width=".7"><circle cx="382.204" cy="146.639" r="12.15" stroke="url(#A)"/><circle cx="12.51" cy="146.639" r="12.15" stroke="url(#B)"/></g><path d="M375.755 147.82v-2.894c0-.895.25-1.617.75-2.168s1.211-.826 2.121-.826c.902 0 1.605.275 2.109.826s.762 1.273.762 2.168v2.894c0 .895-.254 1.618-.762 2.168s-1.207.826-2.109.826c-.91 0-1.617-.275-2.121-.826s-.75-1.273-.75-2.168zm1.377.082c0 .536.119.975.357 1.319s.621.515 1.137.515.898-.172 1.137-.515.363-.783.363-1.319v-3.052c0-.539-.121-.981-.363-1.325s-.621-.515-1.137-.515-.895.172-1.137.515-.357.786-.357 1.325v3.052zm5.467 2.737v-.926l3.099-3.275c.387-.403.682-.762.885-1.079a1.89 1.89 0 0 0 .305-1.031 1.3 1.3 0 0 0-.369-.932c-.243-.257-.584-.386-1.026-.386s-.814.142-1.107.428-.442.687-.446 1.207v.082h-1.353v-.094c0-.793.273-1.442.82-1.945s1.246-.756 2.086-.756c.848 0 1.518.228 2.01.685s.744 1.008.744 1.653c0 .554-.154 1.056-.463 1.505s-.689.901-1.142 1.366l-2.321 2.384h4.143v1.114h-5.865zM6.061 147.82v-2.894c0-.895.25-1.617.75-2.168s1.211-.826 2.121-.826c.902 0 1.606.275 2.109.826s.762 1.273.762 2.168v2.894c0 .895-.254 1.618-.762 2.168s-1.207.826-2.109.826c-.91 0-1.617-.275-2.121-.826s-.75-1.273-.75-2.168zm1.377.082c0 .536.119.975.357 1.319s.621.515 1.137.515.898-.172 1.137-.515.363-.783.363-1.319v-3.052c0-.539-.121-.981-.363-1.325s-.621-.515-1.137-.515-.895.172-1.137.515-.357.786-.357 1.325v3.052zm8.033 2.737v-7.131l-2.156.873v-1.231l3.094-1.154h.416v8.643h-1.354z" fill="#7d7d7d"/><rect x="71.055" y=".75" width="255.5" height="532.5" rx="9.75" fill="#f85550" stroke="url(#C)" class="B"/><g class="F"><path d="M115.797 505.631v6.635a1.13 1.13 0 0 1-1.13 1.131h-4.732c-.596 0-1.13-.481-1.13-1.041v-6.814c0-.533.509-1.042 1.041-1.042h4.91c.269 0 .58.16.732.34.171.202.309.432.309.791h0zm8.243 6.249v6.814c0 .532-.509 1.041-1.041 1.041h-4.91c-.538 0-1.041-.514-1.041-1.13v-6.636a1.13 1.13 0 0 1 1.13-1.131h4.732c.614 0 1.13.493 1.13 1.041v.001zm-8.243 3.898v2.827a1.13 1.13 0 0 1-.088.447c-.164.362-.514.684-.953.684h-4.91c-.532 0-1.041-.509-1.041-1.042v-3.005c0-.564.532-1.042 1.131-1.042h4.731a1.13 1.13 0 0 1 1.131 1.131h-.001zm8.243-10.237v3.006c0 .538-.514 1.041-1.131 1.041h-4.731a1.13 1.13 0 0 1-1.131-1.13v-2.827c0-.332.138-.595.293-.779a1.12 1.12 0 0 1 .749-.352h4.909c.533 0 1.042.509 1.042 1.041h0z" fill="#ccc"/><path d="M194.201 512.118c0-.301.245-.625.654-.625.787 0 .787 1.25 0 1.25-.209 0-.339-.065-.454-.17-.09-.082-.2-.299-.2-.455zm-1.905.446v4.136c0 1.57 1.471 3.036 3.036 3.036h4.136c.465 0 .916-.177 1.24-.338.273-.135.736-.455.907-.67l.335-.438c.356-.547.523-1.155.523-1.887v-3.482c0-1.094-.393-1.866-.944-2.418s-1.318-.944-2.418-.944h-3.482c-1.076 0-1.582.283-2.309.845-.509.394-1.024 1.448-1.024 2.16h0zm7.618-7.469c0 1.024 1.015.458 2.533 1.008 2.104.763 3.589 2.624 3.778 4.882.041.482-.047 1.133.712 1.133.308 0 .595-.287.595-.595 0-1.13-.226-2.157-.654-3.006l-.288-.546c-1.056-1.942-3.511-3.471-5.753-3.471h-.328c-.308 0-.595.287-.595.595zm0 2.529c0 .374.201.629.513.678.392.063.444-.012.969.132.413.113.759.297 1.091.546.076.057.078.061.143.125.07.07.098.077.162.135s.06.078.121.147c.414.467.708 1.062.775 1.694.04.376-.049 1.037.72 1.037.327 0 .595-.294.595-.685 0-1.173-.452-2.133-1.168-2.938-.061-.069-.064-.096-.133-.165s-.083-.064-.148-.119c-.183-.154-.175-.179-.456-.378-.686-.486-1.611-.804-2.559-.804-.319 0-.625.274-.625.596v-.001z" fill="#fff"/><path d="M275.585 512.118c0-.877.232-1.939.581-2.688.371-.795.765-1.372 1.347-1.954l.411-.383a6.46 6.46 0 0 1 2.739-1.387c.919-.225 2.028-.255 2.946-.026.882.221 1.57.488 2.304.997 2.683 1.859 3.655 5.408 2.188 8.34l-.309.579c-.052.084-.089.109-.114.204-.08-.022-.433-.358-.516-.437-.414-.394-1.211-.882-1.727-1.13-1.56-.749-3.365-.912-5.09-.497a7.5 7.5 0 0 0-2.025.832l-.298.178c-.25.157-.867.638-1.065.839-.083.085-.139.182-.261.215-.024-.09-.151-.265-.209-.363-.079-.132-.139-.268-.204-.399-.281-.562-.486-1.174-.594-1.818-.054-.324-.104-.747-.104-1.102h0zm-1.016-.318c0 1.088.052 1.92.453 2.943l.122.323a8.03 8.03 0 0 0 .821 1.464l.388.501c.652.747 1.36 1.353 2.247 1.816l.143.079c.869.434 2.068.81 3.095.81h.634c1.374 0 2.547-.483 3.566-1.037.197-.107.388-.238.561-.36.66-.467 1.14-.963 1.646-1.591l.199-.277c1.218-1.651 1.664-4.105 1.151-6.144-.136-.539-.275-.899-.47-1.37-.376-.905-1.068-1.738-1.74-2.418-.097-.098-.16-.131-.255-.222-.408-.389-1.189-.843-1.695-1.098-.701-.353-1.956-.719-2.994-.719-.92 0-1.228.001-2.153.228-1.498.368-2.934 1.287-3.92 2.46l-.403.518-.362.557c-.591.974-1.034 2.42-1.034 3.537h0zm4.571-2.348c0 .569.042.935.285 1.428.135.274.38.648.596.864l.383.315c.159.117.272.177.46.271.792.396 1.835.4 2.625.011.994-.491 1.745-1.474 1.745-2.635 0-.795-.198-1.519-.707-2.087-.334-.374-.534-.55-1.017-.792-.793-.396-1.836-.399-2.625-.01-.274.135-.648.38-.864.596-.062.062-.087.114-.159.19s-.109.128-.169.211c-.305.423-.553 1.052-.553 1.638h0z" fill="#ccc"/></g><g fill="#fff"><path d="M110.663 40.046c-.043-.36-.216-.639-.519-.838s-.675-.298-1.115-.298a2.12 2.12 0 0 0-.845.156 1.35 1.35 0 0 0-.561.43 1.03 1.03 0 0 0-.199.622.89.89 0 0 0 .138.501 1.23 1.23 0 0 0 .363.344 2.56 2.56 0 0 0 .461.224l.444.139.739.199a6.44 6.44 0 0 1 .632.206 2.92 2.92 0 0 1 .671.359c.216.149.393.341.533.575s.209.522.209.863c0 .393-.103.748-.309 1.065s-.501.569-.894.756-.866.281-1.424.281c-.521 0-.972-.084-1.353-.252a2.15 2.15 0 0 1-.895-.703 2 2 0 0 1-.366-1.048h.909c.024.275.116.502.277.682s.369.31.618.398a2.5 2.5 0 0 0 .81.128 2.38 2.38 0 0 0 .905-.163 1.55 1.55 0 0 0 .636-.462c.157-.197.234-.431.234-.696 0-.242-.067-.438-.202-.59a1.49 1.49 0 0 0-.533-.369 5.57 5.57 0 0 0-.714-.249l-.895-.256c-.568-.163-1.018-.396-1.349-.7s-.497-.7-.497-1.19c0-.407.11-.762.33-1.065s.521-.542.895-.71.797-.256 1.261-.256.885.084 1.25.252.653.393.866.682a1.7 1.7 0 0 1 .341.984h-.852zm4.573 5.568c-.526 0-.979-.116-1.36-.348a2.31 2.31 0 0 1-.878-.98c-.206-.419-.305-.911-.305-1.47s.102-1.051.305-1.477a2.41 2.41 0 0 1 .86-1.001 2.31 2.31 0 0 1 1.292-.362 2.59 2.59 0 0 1 .842.142c.277.095.529.249.756.462s.409.49.544.838.202.776.202 1.285v.355h-4.204v-.724h3.352a1.79 1.79 0 0 0-.185-.824 1.39 1.39 0 0 0-.518-.572c-.223-.14-.486-.209-.789-.209-.333 0-.622.083-.866.249a1.64 1.64 0 0 0-.558.639 1.88 1.88 0 0 0-.195.845v.483c0 .412.071.761.213 1.048a1.51 1.51 0 0 0 .6.65 1.76 1.76 0 0 0 .892.22 1.81 1.81 0 0 0 .596-.092 1.28 1.28 0 0 0 .767-.76l.81.227a1.79 1.79 0 0 1-.43.724c-.201.208-.45.367-.746.483a2.76 2.76 0 0 1-.997.17zm5.138.014a2.22 2.22 0 0 1-.941-.195c-.282-.13-.505-.323-.671-.572s-.249-.554-.249-.909c0-.312.062-.566.185-.76a1.33 1.33 0 0 1 .494-.462 2.59 2.59 0 0 1 .681-.249l.757-.135.806-.096c.208-.024.36-.063.454-.117s.146-.149.146-.284v-.028c0-.35-.096-.623-.288-.817s-.477-.291-.863-.291c-.4 0-.713.088-.941.263s-.387.362-.479.561l-.795-.284c.142-.331.331-.589.568-.774a2.15 2.15 0 0 1 .781-.391 3.24 3.24 0 0 1 .838-.114 3.3 3.3 0 0 1 .604.064 2 2 0 0 1 .664.252c.213.128.394.321.536.579s.213.604.213 1.037V45.5h-.838v-.739h-.043c-.056.118-.151.245-.284.38s-.309.25-.529.344-.489.142-.806.142zm.128-.753c.331 0 .611-.065.838-.195s.402-.298.518-.504a1.28 1.28 0 0 0 .178-.65v-.767c-.035.043-.114.082-.234.117a3.6 3.6 0 0 1-.412.089l-.451.064-.352.043a3.21 3.21 0 0 0-.611.139 1.05 1.05 0 0 0-.454.281c-.114.123-.171.291-.171.504 0 .291.108.511.324.66s.493.22.827.22zm3.902.625v-5.455h.809v.824h.057c.1-.27.28-.489.54-.657a1.59 1.59 0 0 1 .881-.252l.231.004.209.011v.852a2.41 2.41 0 0 0-.195-.032c-.1-.017-.205-.025-.316-.025a1.49 1.49 0 0 0-.711.167 1.26 1.26 0 0 0-.49.455 1.23 1.23 0 0 0-.177.657V45.5h-.838zm5.77.114c-.511 0-.951-.121-1.321-.362s-.653-.574-.852-.998-.298-.908-.298-1.453c0-.554.102-1.043.305-1.467s.493-.759.86-.998.8-.362 1.292-.362c.384 0 .729.071 1.037.213s.56.341.756.597.319.554.366.895h-.838a1.3 1.3 0 0 0-.426-.66c-.218-.194-.511-.291-.881-.291-.326 0-.613.085-.859.256a1.67 1.67 0 0 0-.572.714c-.135.305-.202.664-.202 1.076 0 .421.066.788.199 1.101s.324.555.568.728.535.259.866.259a1.49 1.49 0 0 0 .593-.114 1.22 1.22 0 0 0 .451-.327 1.24 1.24 0 0 0 .263-.511h.838c-.047.322-.164.612-.351.87a1.97 1.97 0 0 1-.735.611c-.303.149-.656.224-1.059.224zm4.208-3.395V45.5h-.838v-7.273h.838v2.67h.071a1.54 1.54 0 0 1 .576-.671c.258-.168.601-.252 1.03-.252.371 0 .697.075.976.224a1.52 1.52 0 0 1 .65.678c.154.305.234.689.234 1.158V45.5h-.838v-3.409c0-.433-.112-.768-.337-1.005s-.532-.359-.927-.359c-.275 0-.521.058-.739.174s-.385.285-.511.508-.185.492-.185.81zm5.071 3.281v-5.455h.838V45.5h-.838zm.426-6.364a.6.6 0 0 1-.423-.167c-.119-.111-.174-.245-.174-.401s.058-.29.174-.401.259-.167.423-.167.303.056.419.167a.53.53 0 0 1 .177.401.53.53 0 0 1-.177.401c-.116.111-.256.167-.419.167zm2.785 3.082V45.5h-.838v-5.455h.809v.852h.071a1.56 1.56 0 0 1 .583-.668c.261-.169.596-.256 1.008-.256.37 0 .693.076.97.227a1.53 1.53 0 0 1 .646.682c.154.303.231.687.231 1.151V45.5h-.838v-3.409c0-.428-.112-.762-.334-1.001s-.528-.362-.916-.362c-.268 0-.507.058-.718.174s-.372.285-.493.508-.181.492-.181.81zm7.213 5.44c-.405 0-.753-.052-1.044-.156s-.534-.237-.728-.405-.345-.343-.458-.533l.667-.469.288.341c.116.13.275.243.476.337s.47.146.799.146c.44 0 .804-.107 1.09-.32s.43-.547.43-1.001V44.49h-.071c-.062.099-.149.222-.263.369s-.272.273-.483.387-.49.167-.845.167c-.44 0-.836-.104-1.186-.312s-.624-.511-.828-.909-.301-.881-.301-1.449c0-.559.098-1.045.294-1.46s.47-.739.821-.966.755-.344 1.214-.344c.355 0 .637.059.845.178s.372.249.483.398l.263.362h.085v-.866h.81v5.611c0 .469-.107.85-.32 1.144a1.84 1.84 0 0 1-.852.65 3.28 3.28 0 0 1-1.186.21zm-.028-2.997c.336 0 .62-.077.852-.231s.408-.375.529-.664.181-.634.181-1.037c0-.393-.059-.74-.178-1.041s-.293-.536-.525-.707-.519-.256-.859-.256c-.356 0-.651.09-.888.27a1.62 1.62 0 0 0-.529.724 2.8 2.8 0 0 0-.174 1.008 2.66 2.66 0 0 0 .177 1.005c.121.289.298.516.533.682s.53.245.881.245zm-6.428 271.748h.736l1.73 4.226h.06l1.73-4.226h.736v5.091h-.577v-3.868h-.05l-1.591 3.868h-.557l-1.59-3.868h-.05v3.868h-.577v-5.091zm6.437 5.091h-.647l1.87-5.091h.636l1.869 5.091h-.646l-1.521-4.286h-.04l-1.521 4.286zm.238-1.989h2.605v.547h-2.605v-.547zm8.141-1.511h-.617c-.036-.177-.1-.333-.191-.467a1.26 1.26 0 0 0-.329-.338 1.37 1.37 0 0 0-.425-.209 1.67 1.67 0 0 0-.487-.07c-.308 0-.587.078-.838.234s-.446.385-.594.688-.218.676-.218 1.117.073.812.218 1.116.346.532.594.688.53.234.838.234a1.67 1.67 0 0 0 .487-.07 1.41 1.41 0 0 0 .425-.206 1.3 1.3 0 0 0 .329-.341 1.29 1.29 0 0 0 .191-.467h.617c-.047.26-.131.493-.254.699a1.92 1.92 0 0 1-.457.524 2.01 2.01 0 0 1-.614.326 2.31 2.31 0 0 1-.724.112c-.434 0-.82-.106-1.158-.319s-.604-.513-.798-.904-.291-.856-.291-1.392.097-1.001.291-1.393.46-.692.798-.904.724-.319 1.158-.319a2.31 2.31 0 0 1 .724.112c.227.075.431.184.614.328a1.9 1.9 0 0 1 .457.522c.123.204.207.437.254.699zm5.033-1.591v5.091h-.597l-2.774-3.997h-.05v3.997h-.616v-5.091h.596l2.784 4.007h.05v-4.007h.607zm1.233 0h.736l1.73 4.226h.06l1.73-4.226h.736v5.091h-.577v-3.868h-.05l-1.591 3.868h-.556l-1.591-3.868h-.05v3.868h-.577v-5.091zm6.437 5.091h-.647l1.87-5.091h.636l1.869 5.091h-.646l-1.521-4.286h-.04l-1.521 4.286zm.238-1.989h2.605v.547h-2.605v-.547zm8.32-3.102v5.091h-.596l-2.775-3.997h-.049v3.997h-.617v-5.091h.597l2.784 4.007h.05v-4.007h.606zm3.342 2.272v.547h-2.228v-.547h2.228zm3.08-2.272h.736l1.73 4.226h.06l1.73-4.226h.736v5.091h-.577v-3.868h-.05l-1.591 3.868h-.556l-1.591-3.868h-.05v3.868h-.577v-5.091zm7.858 5.161c-.328 0-.62-.057-.877-.169a1.49 1.49 0 0 1-.609-.47 1.27 1.27 0 0 1-.244-.704h.627c.013.164.069.306.169.425a.97.97 0 0 0 .39.274c.161.065.339.097.534.097a1.39 1.39 0 0 0 .582-.115c.169-.076.302-.182.398-.318s.144-.293.144-.472c0-.187-.046-.352-.139-.495a.93.93 0 0 0-.408-.338c-.179-.081-.398-.122-.656-.122h-.408v-.547h.408a1.22 1.22 0 0 0 .532-.109c.154-.073.274-.176.36-.308a.84.84 0 0 0 .132-.467.86.86 0 0 0-.114-.45.79.79 0 0 0-.323-.299c-.138-.071-.3-.107-.488-.107a1.3 1.3 0 0 0-.497.097.93.93 0 0 0-.378.276.73.73 0 0 0-.159.433h-.596a1.21 1.21 0 0 1 .241-.701c.151-.202.348-.36.591-.472a1.91 1.91 0 0 1 .808-.17c.315 0 .585.064.811.192a1.35 1.35 0 0 1 .519.5 1.31 1.31 0 0 1 .182.671 1.19 1.19 0 0 1-.227.733c-.149.202-.352.342-.609.42v.04c.322.053.573.19.754.41s.271.49.271.813a1.29 1.29 0 0 1-.227.746c-.149.218-.353.391-.611.517s-.553.189-.883.189zm2.737-.07v-.447l1.681-1.84.487-.562c.127-.16.222-.311.283-.452a1.1 1.1 0 0 0 .095-.448c0-.179-.043-.334-.13-.464a.84.84 0 0 0-.348-.304 1.13 1.13 0 0 0-.497-.107 1.04 1.04 0 0 0-.512.122.84.84 0 0 0-.335.336 1.05 1.05 0 0 0-.117.507h-.587c0-.298.069-.56.206-.786a1.44 1.44 0 0 1 .562-.527c.239-.126.507-.189.803-.189a1.63 1.63 0 0 1 .793.189c.23.126.411.296.542.51a1.34 1.34 0 0 1 .196.713c0 .188-.034.371-.101.55s-.183.375-.348.594-.392.482-.684.795l-1.144 1.223v.04h2.367v.547h-3.212z"/><path d="M144.992 336.5h-1.571v-5.091h1.641c.494 0 .916.102 1.268.306a2 2 0 0 1 .807.872c.188.378.281.831.281 1.358s-.094.986-.283 1.369a2.02 2.02 0 0 1-.825.88c-.362.204-.801.306-1.318.306zm-.954-.547h.914c.421 0 .77-.081 1.047-.243s.483-.394.619-.694.204-.657.204-1.071-.067-.765-.202-1.062-.334-.527-.601-.686-.599-.241-.997-.241h-.984v3.997zm5.936.627c-.368 0-.686-.082-.952-.244s-.47-.393-.614-.686-.214-.638-.214-1.029.071-.736.214-1.034a1.68 1.68 0 0 1 .601-.701c.259-.169.56-.254.905-.254a1.79 1.79 0 0 1 .589.1c.194.066.371.174.53.323a1.54 1.54 0 0 1 .38.586c.094.244.142.544.142.9v.249h-2.943v-.507h2.346c0-.216-.043-.408-.129-.577a.98.98 0 0 0-.363-.4c-.156-.098-.34-.147-.552-.147-.234 0-.436.058-.606.174s-.3.264-.391.448a1.31 1.31 0 0 0-.136.591v.338c0 .289.049.533.149.734s.241.35.42.454a1.23 1.23 0 0 0 .624.155c.154 0 .293-.022.417-.065s.235-.111.326-.199a.89.89 0 0 0 .211-.333l.567.159a1.26 1.26 0 0 1-.301.507c-.141.144-.315.257-.522.338s-.44.12-.698.12zm5.479-3.898l-1.412 3.818h-.596l-1.412-3.818h.636l1.054 3.042h.04l1.054-3.042h.636zm.774 3.818v-3.818h.587v3.818h-.587zm.299-4.455c-.115 0-.213-.038-.296-.116s-.122-.172-.122-.281.041-.203.122-.281.181-.117.296-.117.212.039.293.117a.37.37 0 0 1 .124.281c0 .109-.041.203-.124.281s-.179.116-.293.116zm2.914 4.535c-.358 0-.667-.085-.925-.254s-.457-.402-.597-.699-.208-.635-.208-1.016c0-.388.071-.73.213-1.027s.345-.531.602-.698.56-.254.905-.254c.268 0 .51.05.726.149a1.4 1.4 0 0 1 .529.418c.138.179.223.388.256.626h-.587c-.044-.174-.144-.328-.298-.462s-.358-.204-.616-.204c-.229 0-.43.06-.602.179s-.304.284-.4.5a1.84 1.84 0 0 0-.142.753 1.98 1.98 0 0 0 .139.771c.095.218.227.388.398.509a1.03 1.03 0 0 0 .607.182 1.05 1.05 0 0 0 .415-.08.85.85 0 0 0 .315-.229c.087-.099.148-.218.184-.358h.587a1.35 1.35 0 0 1-.246.609c-.129.179-.301.322-.515.428s-.459.157-.74.157zm3.96 0c-.368 0-.686-.082-.953-.244s-.469-.393-.614-.686-.213-.638-.213-1.029.071-.736.213-1.034a1.69 1.69 0 0 1 .602-.701c.259-.169.56-.254.905-.254a1.79 1.79 0 0 1 .589.1c.194.066.37.174.529.323s.286.343.381.586.141.544.141.9v.249h-2.943v-.507h2.347c0-.216-.043-.408-.129-.577a.98.98 0 0 0-.363-.4c-.156-.098-.34-.147-.552-.147-.234 0-.436.058-.607.174a1.14 1.14 0 0 0-.39.448c-.091.183-.137.381-.137.591v.338c0 .289.05.533.149.734s.242.35.421.454a1.23 1.23 0 0 0 .624.155c.154 0 .293-.022.417-.065s.235-.111.326-.199a.9.9 0 0 0 .211-.333l.567.159a1.26 1.26 0 0 1-.301.507c-.141.144-.315.257-.522.338s-.44.12-.698.12zm6.49-.08v-5.091h3.072v.547h-2.456v1.72h2.297v.547h-2.297v1.73h2.496v.547h-3.112zm7.524-5.091h.617v3.371c0 .348-.082.659-.246.932a1.73 1.73 0 0 1-.689.644c-.296.156-.644.233-1.044.233s-.747-.077-1.044-.233-.527-.372-.691-.644-.243-.584-.243-.932v-3.371h.616v3.321a1.33 1.33 0 0 0 .164.664c.109.192.265.344.467.455s.448.164.731.164.527-.055.731-.164a1.15 1.15 0 0 0 .467-.455 1.32 1.32 0 0 0 .164-.664v-3.321zm2.464 0v5.091h-.616v-5.091h.616zm5.313 2.272v.547h-2.227v-.547h2.227zm2.991 2.819v-.447l1.681-1.84.487-.562c.127-.16.222-.311.283-.452a1.1 1.1 0 0 0 .095-.448c0-.179-.043-.334-.13-.464a.84.84 0 0 0-.348-.304 1.13 1.13 0 0 0-.497-.107 1.04 1.04 0 0 0-.512.122.84.84 0 0 0-.335.336 1.05 1.05 0 0 0-.117.507h-.587c0-.298.069-.56.206-.786a1.44 1.44 0 0 1 .562-.527c.239-.126.507-.189.803-.189s.563.063.793.189.411.296.542.51a1.34 1.34 0 0 1 .196.713c0 .188-.034.371-.101.55a2.46 2.46 0 0 1-.349.594c-.164.217-.391.482-.683.795l-1.144 1.223v.04h2.367v.547h-3.212zm5.859-5.161c.209.002.418.042.627.12s.399.207.571.388.311.423.416.733.156.698.156 1.166c0 .452-.043.854-.129 1.205s-.207.645-.368.885a1.62 1.62 0 0 1-.582.547 1.58 1.58 0 0 1-.77.187 1.68 1.68 0 0 1-.763-.169c-.222-.115-.405-.273-.547-.475s-.231-.44-.271-.709h.606c.055.234.164.427.326.58s.38.226.649.226c.392 0 .702-.172.929-.515s.343-.828.343-1.454h-.039a1.56 1.56 0 0 1-.331.36c-.128.102-.269.179-.425.234a1.48 1.48 0 0 1-.497.082 1.55 1.55 0 0 1-.803-.216c-.242-.146-.436-.346-.582-.599a1.75 1.75 0 0 1-.216-.875c0-.312.07-.597.209-.855s.338-.468.591-.622.556-.228.9-.224zm0 .547c-.209 0-.397.053-.564.157s-.297.242-.395.418a1.18 1.18 0 0 0-.144.579 1.21 1.21 0 0 0 .139.579c.094.172.223.31.385.413s.351.151.559.151c.158 0 .304-.03.44-.092s.255-.148.356-.256.183-.233.241-.37a1.12 1.12 0 0 0 .087-.435 1.14 1.14 0 0 0-.144-.559c-.095-.174-.226-.315-.393-.423s-.355-.162-.567-.162zm4.408 4.684c-.374 0-.693-.102-.957-.306s-.465-.503-.604-.893-.209-.863-.209-1.416.07-1.02.209-1.41.343-.689.607-.895.583-.311.954-.311.689.104.952.311.468.504.607.895.211.859.211 1.41-.069 1.025-.209 1.416-.34.687-.604.893-.582.306-.957.306zm0-.547c.371 0 .66-.179.865-.537s.309-.869.309-1.531c0-.441-.048-.817-.142-1.127s-.227-.546-.403-.708a.89.89 0 0 0-.629-.244c-.368 0-.655.182-.862.545s-.311.872-.311 1.534c0 .44.046.815.139 1.123s.226.543.4.704a.91.91 0 0 0 .634.241zm4.306.547c-.292 0-.555-.058-.788-.174s-.421-.275-.562-.478-.218-.432-.231-.691h.596a.82.82 0 0 0 .313.572c.188.149.411.224.672.224.208 0 .394-.049.556-.147a1.04 1.04 0 0 0 .386-.403 1.2 1.2 0 0 0 .141-.584 1.19 1.19 0 0 0-.146-.594c-.096-.176-.229-.314-.398-.415s-.362-.152-.579-.154a1.57 1.57 0 0 0-.48.072c-.164.048-.299.11-.405.186l-.577-.069.308-2.506h2.645v.547h-2.128l-.178 1.501h.029a1.37 1.37 0 0 1 .393-.206c.158-.055.322-.082.492-.082.312 0 .589.075.833.224s.438.349.577.606.211.55.211.88a1.72 1.72 0 0 1-.219.87 1.6 1.6 0 0 1-.596.602c-.254.146-.542.219-.865.219zm4.358 0c-.209-.004-.418-.043-.627-.12s-.399-.204-.571-.385-.311-.428-.415-.738-.157-.703-.157-1.174c0-.45.042-.85.127-1.198s.207-.644.368-.882a1.65 1.65 0 0 1 .581-.547c.229-.124.487-.187.773-.187s.539.058.761.172.406.27.547.472.232.435.273.699h-.606c-.057-.229-.166-.419-.328-.569s-.378-.227-.647-.227c-.394 0-.705.172-.932.515s-.339.824-.34 1.444h.039a1.48 1.48 0 0 1 .331-.36 1.5 1.5 0 0 1 .428-.234c.155-.055.32-.082.494-.082a1.52 1.52 0 0 1 .801.219c.242.144.436.344.581.599s.219.544.219.872a1.79 1.79 0 0 1-.211.865c-.141.261-.339.468-.594.622a1.68 1.68 0 0 1-.895.224zm0-.547c.209 0 .396-.052.562-.157s.299-.244.395-.42.147-.371.147-.587c0-.21-.048-.401-.142-.574s-.221-.312-.385-.415a1.02 1.02 0 0 0-.557-.154 1.03 1.03 0 0 0-.44.094c-.136.062-.255.146-.358.254a1.23 1.23 0 0 0-.239.37 1.11 1.11 0 0 0-.087.435c0 .202.047.391.142.567s.227.317.393.425.357.162.569.162zm4.467-4.614v5.091h-.616v-4.445h-.03l-1.243.826v-.627l1.273-.845h.616z"/><use href="#H"/><path d="M143.421 358.409h.736l1.73 4.226h.06l1.73-4.226h.736v5.091h-.577v-3.868h-.05l-1.591 3.868h-.557l-1.59-3.868h-.05v3.868h-.577v-5.091zm6.437 5.091h-.647l1.87-5.091h.636l1.869 5.091h-.646l-1.521-4.286h-.04l-1.521 4.286zm.238-1.989h2.605v.547h-2.605v-.547zm8.141-1.511h-.617c-.036-.177-.1-.333-.191-.467a1.26 1.26 0 0 0-.329-.338 1.37 1.37 0 0 0-.425-.209 1.67 1.67 0 0 0-.487-.07c-.308 0-.587.078-.838.234s-.446.385-.594.688-.218.676-.218 1.117.073.812.218 1.116.346.532.594.688.53.234.838.234a1.67 1.67 0 0 0 .487-.07 1.41 1.41 0 0 0 .425-.206 1.3 1.3 0 0 0 .329-.341 1.29 1.29 0 0 0 .191-.467h.617c-.047.26-.131.493-.254.699a1.92 1.92 0 0 1-.457.524 2.01 2.01 0 0 1-.614.326 2.31 2.31 0 0 1-.724.112c-.434 0-.82-.106-1.158-.319s-.604-.513-.798-.904-.291-.856-.291-1.392.097-1.001.291-1.393.46-.692.798-.904.724-.319 1.158-.319a2.31 2.31 0 0 1 .724.112c.227.075.431.184.614.328a1.9 1.9 0 0 1 .457.522c.123.204.207.437.254.699zm5.033-1.591v5.091h-.597l-2.774-3.997h-.05v3.997h-.616v-5.091h.596l2.784 4.007h.05v-4.007h.607zm1.233 0h.736l1.73 4.226h.06l1.73-4.226h.736v5.091h-.577v-3.868h-.05l-1.591 3.868h-.556l-1.591-3.868h-.05v3.868h-.577v-5.091zm6.437 5.091h-.647l1.87-5.091h.636l1.869 5.091h-.646l-1.521-4.286h-.04l-1.521 4.286zm.238-1.989h2.605v.547h-2.605v-.547zm8.32-3.102v5.091h-.596l-2.775-3.997h-.049v3.997h-.617v-5.091h.597l2.784 4.007h.05v-4.007h.606zm3.342 2.272v.547h-2.228v-.547h2.228zm3.08-2.272h.736l1.73 4.226h.06l1.73-4.226h.736v5.091h-.577v-3.868h-.05l-1.591 3.868h-.556l-1.591-3.868h-.05v3.868h-.577v-5.091zm6.138 5.091v-.447l1.681-1.84.487-.562c.127-.16.222-.311.283-.452a1.1 1.1 0 0 0 .095-.448c0-.179-.043-.334-.13-.464a.84.84 0 0 0-.348-.304 1.13 1.13 0 0 0-.497-.107 1.04 1.04 0 0 0-.512.122.84.84 0 0 0-.335.336 1.05 1.05 0 0 0-.117.507h-.587c0-.298.069-.56.206-.786a1.44 1.44 0 0 1 .562-.527c.239-.126.507-.189.803-.189a1.63 1.63 0 0 1 .793.189c.23.126.411.296.542.51a1.34 1.34 0 0 1 .196.713c0 .188-.034.371-.102.55s-.182.375-.348.594-.391.482-.683.795l-1.144 1.223v.04h2.367v.547h-3.212zm5.899.07c-.374 0-.694-.102-.957-.306s-.465-.503-.604-.893-.209-.863-.209-1.416.07-1.02.209-1.41.343-.689.606-.895.584-.311.955-.311.689.104.952.311.467.504.607.895.211.859.211 1.41-.07 1.025-.209 1.416-.34.687-.604.893-.582.306-.957.306zm0-.547c.371 0 .66-.179.865-.537s.308-.869.308-1.531c0-.441-.047-.817-.141-1.127s-.227-.546-.403-.708a.89.89 0 0 0-.629-.244c-.368 0-.655.182-.863.545s-.31.872-.31 1.534c0 .44.046.815.139 1.123s.226.543.4.704a.91.91 0 0 0 .634.241zM144.992 378.5h-1.571v-5.091h1.641c.494 0 .916.102 1.268.306a2 2 0 0 1 .807.872c.188.378.281.831.281 1.358s-.094.986-.283 1.369a2.02 2.02 0 0 1-.825.88c-.362.204-.801.306-1.318.306zm-.954-.547h.914c.421 0 .77-.081 1.047-.243a1.5 1.5 0 0 0 .619-.694c.136-.3.204-.657.204-1.071s-.067-.765-.202-1.062-.334-.527-.601-.686-.599-.241-.997-.241h-.984v3.997zm5.936.627c-.368 0-.686-.082-.952-.244s-.47-.393-.614-.686-.214-.638-.214-1.029.071-.736.214-1.034a1.68 1.68 0 0 1 .601-.701c.259-.169.56-.254.905-.254a1.79 1.79 0 0 1 .589.1c.194.066.371.174.53.323a1.54 1.54 0 0 1 .38.586c.094.244.142.544.142.9v.249h-2.943v-.507h2.346c0-.216-.043-.408-.129-.577a.98.98 0 0 0-.363-.4c-.156-.098-.34-.147-.552-.147-.234 0-.436.058-.606.174a1.15 1.15 0 0 0-.391.448 1.31 1.31 0 0 0-.136.591v.338c0 .289.049.533.149.734a1.05 1.05 0 0 0 .42.454 1.23 1.23 0 0 0 .624.155c.154 0 .293-.022.417-.065s.235-.111.326-.199a.89.89 0 0 0 .211-.333l.567.159a1.26 1.26 0 0 1-.301.507c-.141.144-.315.257-.522.338s-.44.12-.698.12zm5.479-3.898l-1.412 3.818h-.596l-1.412-3.818h.636l1.054 3.042h.04l1.054-3.042h.636zm.774 3.818v-3.818h.587v3.818h-.587zm.299-4.455c-.115 0-.213-.038-.296-.116a.37.37 0 0 1-.122-.281c0-.109.041-.203.122-.281s.181-.117.296-.117.212.039.293.117a.37.37 0 0 1 .124.281c0 .109-.041.203-.124.281a.41.41 0 0 1-.293.116zm2.914 4.535c-.358 0-.667-.085-.925-.254a1.66 1.66 0 0 1-.597-.699c-.14-.297-.208-.635-.208-1.016 0-.388.071-.73.213-1.027s.345-.531.602-.698.56-.254.905-.254c.268 0 .51.05.726.149a1.4 1.4 0 0 1 .529.418c.138.179.223.388.256.626h-.587c-.044-.174-.144-.328-.298-.462s-.358-.204-.616-.204c-.229 0-.43.06-.602.179a1.16 1.16 0 0 0-.4.5 1.84 1.84 0 0 0-.142.753 1.98 1.98 0 0 0 .139.771c.095.218.227.388.398.509a1.03 1.03 0 0 0 .607.182 1.05 1.05 0 0 0 .415-.08.85.85 0 0 0 .315-.229c.087-.099.148-.218.184-.358h.587a1.35 1.35 0 0 1-.246.609c-.129.179-.301.322-.515.428s-.459.157-.74.157zm3.96 0c-.368 0-.686-.082-.953-.244s-.469-.393-.614-.686-.213-.638-.213-1.029.071-.736.213-1.034a1.69 1.69 0 0 1 .602-.701c.259-.169.56-.254.905-.254a1.79 1.79 0 0 1 .589.1c.194.066.37.174.529.323s.286.343.381.586.141.544.141.9v.249h-2.943v-.507h2.347c0-.216-.043-.408-.129-.577a.98.98 0 0 0-.363-.4c-.156-.098-.34-.147-.552-.147-.234 0-.436.058-.607.174a1.14 1.14 0 0 0-.39.448c-.091.183-.137.381-.137.591v.338c0 .289.05.533.149.734a1.05 1.05 0 0 0 .421.454 1.23 1.23 0 0 0 .624.155c.154 0 .293-.022.417-.065s.235-.111.326-.199a.9.9 0 0 0 .211-.333l.567.159a1.26 1.26 0 0 1-.301.507c-.141.144-.315.257-.522.338s-.44.12-.698.12zm6.49-.08v-5.091h3.072v.547h-2.456v1.72h2.297v.547h-2.297v1.73h2.496v.547h-3.112zm7.524-5.091h.617v3.371c0 .348-.082.659-.246.932a1.73 1.73 0 0 1-.689.644c-.296.156-.644.233-1.044.233s-.747-.077-1.044-.233-.527-.372-.691-.644a1.77 1.77 0 0 1-.243-.932v-3.371h.616v3.321a1.33 1.33 0 0 0 .164.664c.109.192.265.344.467.455s.448.164.731.164.527-.055.731-.164a1.15 1.15 0 0 0 .467-.455 1.32 1.32 0 0 0 .164-.664v-3.321zm2.464 0v5.091h-.616v-5.091h.616zm5.313 2.272v.547h-2.227v-.547h2.227zm2.991 2.819v-.447l1.681-1.84.487-.562c.127-.16.222-.311.283-.452a1.1 1.1 0 0 0 .095-.448c0-.179-.043-.334-.13-.464a.84.84 0 0 0-.348-.304 1.13 1.13 0 0 0-.497-.107 1.04 1.04 0 0 0-.512.122.84.84 0 0 0-.335.336 1.05 1.05 0 0 0-.117.507h-.587c0-.298.069-.56.206-.786a1.44 1.44 0 0 1 .562-.527c.239-.126.507-.189.803-.189a1.63 1.63 0 0 1 .793.189c.23.126.411.296.542.51a1.34 1.34 0 0 1 .196.713c0 .188-.034.371-.101.55a2.46 2.46 0 0 1-.349.594c-.164.217-.391.482-.683.795l-1.144 1.223v.04h2.367v.547h-3.212zm5.829.07a1.75 1.75 0 0 1-.788-.174 1.46 1.46 0 0 1-.561-.478c-.141-.202-.218-.432-.232-.691h.597a.82.82 0 0 0 .313.572c.188.149.411.224.671.224.209 0 .395-.049.557-.147a1.04 1.04 0 0 0 .386-.403 1.2 1.2 0 0 0 .141-.584 1.2 1.2 0 0 0-.146-.594 1.08 1.08 0 0 0-.398-.415c-.169-.101-.362-.152-.579-.154a1.57 1.57 0 0 0-.48.072c-.164.048-.299.11-.405.186l-.577-.069.308-2.506h2.645v.547h-2.128l-.179 1.501h.03c.105-.082.235-.151.393-.206a1.48 1.48 0 0 1 .492-.082c.312 0 .589.075.833.224s.437.349.577.606a1.81 1.81 0 0 1 .211.88 1.72 1.72 0 0 1-.219.87 1.6 1.6 0 0 1-.596.602c-.254.146-.542.219-.866.219zm4.329 0c-.375 0-.694-.102-.957-.306s-.465-.503-.604-.893-.209-.863-.209-1.416.07-1.02.209-1.41.343-.689.606-.895.584-.311.955-.311.688.104.952.311.467.504.606.895.212.859.212 1.41-.07 1.025-.209 1.416-.341.687-.604.893-.583.306-.957.306zm0-.547c.371 0 .659-.179.865-.537s.308-.869.308-1.531c0-.441-.047-.817-.142-1.127s-.227-.546-.402-.708a.89.89 0 0 0-.629-.244c-.368 0-.656.182-.863.545s-.31.872-.31 1.534c0 .44.046.815.139 1.123s.226.543.4.704a.91.91 0 0 0 .634.241zm4.435.547c-.329 0-.621-.057-.878-.169a1.49 1.49 0 0 1-.609-.47 1.27 1.27 0 0 1-.244-.704h.627c.013.164.069.306.169.425a.97.97 0 0 0 .39.274c.161.065.339.097.535.097.218 0 .412-.038.581-.115a.96.96 0 0 0 .398-.318c.096-.136.144-.293.144-.472 0-.187-.046-.352-.139-.495a.93.93 0 0 0-.408-.338c-.179-.081-.397-.122-.656-.122h-.408v-.547h.408c.202 0 .38-.036.532-.109a.87.87 0 0 0 .36-.308.84.84 0 0 0 .132-.467.86.86 0 0 0-.114-.45c-.076-.128-.184-.227-.323-.299s-.3-.107-.488-.107a1.3 1.3 0 0 0-.497.097.93.93 0 0 0-.378.276.73.73 0 0 0-.159.433h-.596a1.21 1.21 0 0 1 .241-.701c.151-.202.348-.36.592-.472s.514-.17.807-.17c.315 0 .585.064.811.192a1.35 1.35 0 0 1 .519.5 1.31 1.31 0 0 1 .182.671c0 .286-.076.531-.226.733s-.353.342-.609.42v.04c.321.053.572.19.753.41s.271.49.271.813a1.29 1.29 0 0 1-.227.746c-.149.218-.353.391-.611.517a1.99 1.99 0 0 1-.882.189zm4.327 0a1.75 1.75 0 0 1-.788-.174c-.233-.116-.421-.275-.562-.478a1.31 1.31 0 0 1-.231-.691h.597a.82.82 0 0 0 .313.572c.187.149.411.224.671.224.209 0 .395-.049.557-.147a1.03 1.03 0 0 0 .385-.403c.095-.172.142-.367.142-.584a1.19 1.19 0 0 0-.147-.594 1.07 1.07 0 0 0-.397-.415c-.169-.101-.362-.152-.58-.154a1.57 1.57 0 0 0-.479.072c-.164.048-.299.11-.405.186l-.577-.069.308-2.506h2.645v.547h-2.128l-.179 1.501h.03c.104-.082.235-.151.393-.206a1.48 1.48 0 0 1 .492-.082c.311 0 .589.075.833.224s.437.349.576.606a1.82 1.82 0 0 1 .212.88 1.72 1.72 0 0 1-.219.87c-.144.254-.343.454-.597.602a1.7 1.7 0 0 1-.865.219zm4.458-5.161v5.091h-.617v-4.445h-.029l-1.243.826v-.627l1.272-.845h.617z"/><use href="#H" y="42"/><path d="M145.052 405.57a2.18 2.18 0 0 1-.878-.169c-.255-.113-.458-.27-.609-.47s-.23-.437-.243-.704h.626a.74.74 0 0 0 .169.425c.1.118.23.209.39.274s.339.097.535.097a1.39 1.39 0 0 0 .582-.115.95.95 0 0 0 .397-.318c.096-.136.144-.293.144-.472 0-.187-.046-.352-.139-.495a.92.92 0 0 0-.407-.338c-.179-.081-.398-.122-.657-.122h-.407v-.547h.407c.203 0 .38-.036.532-.109a.86.86 0 0 0 .361-.308c.088-.133.132-.288.132-.467a.86.86 0 0 0-.115-.45c-.076-.128-.184-.227-.323-.299a1.05 1.05 0 0 0-.487-.107 1.29 1.29 0 0 0-.497.097.93.93 0 0 0-.378.276c-.098.12-.151.264-.159.433h-.597a1.21 1.21 0 0 1 .241-.701c.151-.202.348-.36.592-.472s.514-.17.808-.17c.315 0 .585.064.81.192s.399.292.52.5.181.43.181.671a1.19 1.19 0 0 1-.226.733c-.149.202-.352.342-.609.42v.04c.321.053.572.19.753.41s.271.49.271.813a1.29 1.29 0 0 1-.226.746 1.54 1.54 0 0 1-.612.517c-.258.126-.552.189-.882.189zm4.397 0c-.374 0-.693-.102-.957-.306s-.465-.503-.604-.893-.209-.863-.209-1.416.07-1.02.209-1.41.343-.689.607-.895.583-.311.954-.311.689.104.952.311.468.504.607.895.211.859.211 1.41-.069 1.025-.209 1.416-.34.687-.604.893-.582.306-.957.306zm0-.547c.371 0 .66-.179.865-.537s.309-.869.309-1.531c0-.441-.048-.817-.142-1.127s-.227-.546-.403-.708a.89.89 0 0 0-.629-.244c-.368 0-.655.182-.862.545s-.311.872-.311 1.534c0 .44.046.815.139 1.123s.226.543.4.704a.91.91 0 0 0 .634.241zm2.595-.567v-.507l2.238-3.54h.368v.786h-.249l-1.69 2.674v.04h3.012v.547h-3.679zm2.397 1.044v-1.198-.236-3.657h.586v5.091h-.586zm2.214 0v-.447l1.68-1.84.488-.562c.127-.16.222-.311.283-.452a1.1 1.1 0 0 0 .094-.448c0-.179-.043-.334-.129-.464a.84.84 0 0 0-.348-.304 1.13 1.13 0 0 0-.497-.107c-.196 0-.366.041-.512.122a.85.85 0 0 0-.336.336 1.05 1.05 0 0 0-.117.507h-.586c0-.298.069-.56.206-.786a1.44 1.44 0 0 1 .562-.527c.239-.126.506-.189.803-.189s.562.063.793.189.411.296.542.51a1.34 1.34 0 0 1 .196.713c0 .188-.034.371-.102.55s-.182.375-.348.594-.392.482-.683.795l-1.144 1.223v.04h2.367v.547h-3.212zm7.082 0l-1.163-3.818h.616l.825 2.923h.04l.815-2.923h.627l.805 2.913h.04l.825-2.913h.617l-1.164 3.818h-.576l-.835-2.933h-.06l-.835 2.933h-.577zm5.946.089c-.242 0-.462-.045-.659-.136s-.354-.226-.47-.4a1.13 1.13 0 0 1-.174-.637c0-.219.044-.396.13-.532s.201-.245.345-.323.303-.136.477-.174l.53-.094.564-.068c.146-.016.252-.043.318-.082s.102-.104.102-.198v-.02c0-.246-.067-.436-.201-.572s-.334-.204-.604-.204c-.28 0-.5.061-.659.184s-.271.254-.335.393l-.557-.199a1.33 1.33 0 0 1 .398-.542c.167-.131.349-.222.546-.273s.395-.08.587-.08a2.31 2.31 0 0 1 .423.045 1.36 1.36 0 0 1 .464.176c.151.09.276.225.376.406s.149.422.149.725v2.516h-.587v-.517h-.03c-.039.083-.106.171-.198.266s-.217.175-.371.241a1.43 1.43 0 0 1-.564.099zm.089-.527c.232 0 .428-.045.587-.136s.282-.209.363-.353a.9.9 0 0 0 .124-.455v-.537c-.025.03-.079.057-.164.082s-.179.044-.288.062l-.316.045-.246.03c-.152.02-.295.052-.427.097a.74.74 0 0 0-.319.196c-.079.086-.119.204-.119.353 0 .204.075.358.226.462s.346.154.579.154zm4.392-3.38v.497h-1.978v-.497h1.978zm-1.402-.915h.587v3.639c0 .166.024.29.072.373s.113.136.189.164.16.04.246.04c.065 0 .118-.003.159-.01l.1-.02.119.527c-.04.015-.095.03-.167.045s-.161.025-.271.025c-.165 0-.328-.036-.487-.107s-.288-.18-.393-.326-.154-.33-.154-.552v-3.798zm3.845 4.813c-.368 0-.686-.082-.953-.244s-.469-.393-.614-.686-.213-.638-.213-1.029.071-.736.213-1.034a1.69 1.69 0 0 1 .602-.701c.259-.169.56-.254.905-.254a1.79 1.79 0 0 1 .589.1c.194.066.37.174.529.323s.286.343.381.586.142.544.142.9v.249h-2.944v-.507h2.347c0-.216-.043-.408-.129-.577a.98.98 0 0 0-.363-.4c-.156-.098-.34-.147-.552-.147-.234 0-.436.058-.607.174a1.14 1.14 0 0 0-.39.448c-.091.183-.137.381-.137.591v.338c0 .289.05.533.149.734s.242.35.421.454a1.23 1.23 0 0 0 .624.155c.154 0 .293-.022.417-.065s.235-.111.326-.199a.9.9 0 0 0 .211-.333l.567.159a1.26 1.26 0 0 1-.301.507c-.141.144-.315.257-.522.338s-.44.12-.698.12zm2.473-.08v-3.818h.567v.577h.039c.07-.189.196-.343.378-.46s.388-.177.617-.177l.161.003.147.007v.597a1.61 1.61 0 0 0-.137-.023c-.069-.011-.143-.017-.221-.017-.186 0-.351.039-.497.117s-.259.182-.343.318-.124.287-.124.46v2.416h-.587zm4.573 0v-3.818h.567v.596h.05c.079-.203.208-.362.385-.474s.39-.172.639-.172.461.057.629.172.3.271.395.474h.04c.097-.197.244-.353.44-.469s.43-.177.703-.177c.342 0 .621.107.838.321s.326.543.326.992v2.555h-.587v-2.555c0-.282-.077-.483-.231-.604s-.336-.182-.545-.182c-.268 0-.476.081-.624.244s-.221.364-.221.611v2.486h-.596v-2.615c0-.217-.071-.392-.212-.525s-.322-.201-.544-.201c-.153 0-.295.041-.428.122s-.237.194-.318.338a1 1 0 0 0-.119.495v2.386h-.587zm7.685.08c-.368 0-.685-.082-.952-.244s-.47-.393-.614-.686-.214-.638-.214-1.029.071-.736.214-1.034.345-.534.601-.701a1.62 1.62 0 0 1 .905-.254c.199 0 .396.033.589.1s.371.174.53.323a1.54 1.54 0 0 1 .38.586c.095.244.142.544.142.9v.249h-2.943v-.507h2.346c0-.216-.043-.408-.129-.577a.97.97 0 0 0-.363-.4c-.156-.098-.34-.147-.552-.147a1.05 1.05 0 0 0-.606.174 1.14 1.14 0 0 0-.39.448 1.3 1.3 0 0 0-.137.591v.338c0 .289.05.533.149.734s.241.35.42.454a1.23 1.23 0 0 0 .624.155c.154 0 .293-.022.418-.065a.89.89 0 0 0 .325-.199c.091-.089.162-.2.212-.333l.566.159a1.26 1.26 0 0 1-.3.507c-.141.144-.315.257-.523.338a1.92 1.92 0 0 1-.698.12zm4.134-3.898v.497h-1.979v-.497h1.979zm-1.402-.915h.587v3.639c0 .166.024.29.072.373s.112.136.189.164a.74.74 0 0 0 .246.04c.064 0 .117-.003.159-.01l.099-.02.119.527a1.16 1.16 0 0 1-.166.045c-.071.016-.162.025-.271.025-.166 0-.328-.036-.487-.107a.96.96 0 0 1-.393-.326c-.103-.146-.154-.33-.154-.552v-3.798zm3.844 4.813c-.368 0-.685-.082-.952-.244s-.47-.393-.614-.686-.214-.638-.214-1.029.072-.736.214-1.034.345-.534.602-.701.56-.254.904-.254c.199 0 .396.033.59.1s.37.174.529.323a1.54 1.54 0 0 1 .38.586c.095.244.142.544.142.9v.249h-2.943v-.507h2.347c0-.216-.044-.408-.13-.577a.97.97 0 0 0-.363-.4 1.01 1.01 0 0 0-.552-.147c-.233 0-.435.058-.606.174a1.14 1.14 0 0 0-.39.448c-.091.183-.137.381-.137.591v.338c0 .289.05.533.149.734s.241.35.42.454a1.23 1.23 0 0 0 .624.155c.154 0 .293-.022.418-.065a.89.89 0 0 0 .537-.532l.566.159a1.25 1.25 0 0 1-.3.507c-.141.144-.315.257-.522.338s-.44.12-.699.12zm2.474-.08v-3.818h.566v.577h.04c.07-.189.196-.343.378-.46a1.11 1.11 0 0 1 .616-.177l.162.003.147.007v.597c-.02-.005-.066-.013-.137-.023s-.143-.017-.221-.017a1.04 1.04 0 0 0-.498.117c-.144.076-.258.182-.343.318s-.124.287-.124.46v2.416h-.586z"/><path d="M143.992 420.5h-1.571v-5.091h1.641c.494 0 .916.102 1.268.306a2 2 0 0 1 .807.872c.188.378.281.831.281 1.358s-.094.986-.283 1.369a2.02 2.02 0 0 1-.825.88c-.362.204-.801.306-1.318.306zm-.954-.547h.914c.421 0 .77-.081 1.047-.243s.483-.394.619-.694.204-.657.204-1.071-.067-.765-.202-1.062-.334-.527-.601-.686-.599-.241-.997-.241h-.984v3.997zm5.936.627c-.368 0-.686-.082-.952-.244s-.47-.393-.614-.686-.214-.638-.214-1.029.071-.736.214-1.034a1.68 1.68 0 0 1 .601-.701c.259-.169.56-.254.905-.254a1.79 1.79 0 0 1 .589.1c.194.066.371.174.53.323a1.54 1.54 0 0 1 .38.586c.094.244.142.544.142.9v.249h-2.943v-.507h2.346c0-.216-.043-.408-.129-.577a.98.98 0 0 0-.363-.4c-.156-.098-.34-.147-.552-.147-.234 0-.436.058-.606.174s-.3.264-.391.448a1.31 1.31 0 0 0-.136.591v.338c0 .289.049.533.149.734s.241.35.42.454a1.23 1.23 0 0 0 .624.155c.154 0 .293-.022.417-.065s.235-.111.326-.199a.89.89 0 0 0 .211-.333l.567.159a1.26 1.26 0 0 1-.301.507c-.141.144-.315.257-.522.338s-.44.12-.698.12zm5.479-3.898l-1.412 3.818h-.596l-1.412-3.818h.636l1.054 3.042h.04l1.054-3.042h.636zm.774 3.818v-3.818h.587v3.818h-.587zm.299-4.455c-.115 0-.213-.038-.296-.116s-.122-.172-.122-.281.041-.203.122-.281.181-.117.296-.117.212.039.293.117a.37.37 0 0 1 .124.281c0 .109-.041.203-.124.281s-.179.116-.293.116zm2.914 4.535c-.358 0-.667-.085-.925-.254s-.457-.402-.597-.699-.208-.635-.208-1.016c0-.388.071-.73.213-1.027s.345-.531.602-.698.56-.254.905-.254c.268 0 .51.05.726.149a1.4 1.4 0 0 1 .529.418c.138.179.223.388.256.626h-.587c-.044-.174-.144-.328-.298-.462s-.358-.204-.616-.204c-.229 0-.43.06-.602.179s-.304.284-.4.5a1.84 1.84 0 0 0-.142.753 1.98 1.98 0 0 0 .139.771c.095.218.227.388.398.509a1.03 1.03 0 0 0 .607.182 1.05 1.05 0 0 0 .415-.08.85.85 0 0 0 .315-.229c.087-.099.148-.218.184-.358h.587a1.35 1.35 0 0 1-.246.609c-.129.179-.301.322-.515.428s-.459.157-.74.157zm3.96 0c-.368 0-.686-.082-.953-.244s-.469-.393-.614-.686-.213-.638-.213-1.029.071-.736.213-1.034a1.69 1.69 0 0 1 .602-.701c.259-.169.56-.254.905-.254a1.79 1.79 0 0 1 .589.1c.194.066.37.174.529.323s.286.343.381.586.141.544.141.9v.249h-2.943v-.507h2.347c0-.216-.043-.408-.129-.577a.98.98 0 0 0-.363-.4c-.156-.098-.34-.147-.552-.147-.234 0-.436.058-.607.174a1.14 1.14 0 0 0-.39.448c-.091.183-.137.381-.137.591v.338c0 .289.05.533.149.734s.242.35.421.454a1.23 1.23 0 0 0 .624.155c.154 0 .293-.022.417-.065s.235-.111.326-.199a.9.9 0 0 0 .211-.333l.567.159a1.26 1.26 0 0 1-.301.507c-.141.144-.315.257-.522.338s-.44.12-.698.12zm6.49-.08v-5.091h3.072v.547h-2.456v1.72h2.297v.547h-2.297v1.73h2.496v.547h-3.112zm7.524-5.091h.617v3.371c0 .348-.082.659-.246.932a1.73 1.73 0 0 1-.689.644c-.296.156-.644.233-1.044.233s-.747-.077-1.044-.233-.527-.372-.691-.644-.243-.584-.243-.932v-3.371h.616v3.321a1.33 1.33 0 0 0 .164.664c.109.192.265.344.467.455s.448.164.731.164.527-.055.731-.164a1.15 1.15 0 0 0 .467-.455 1.32 1.32 0 0 0 .164-.664v-3.321zm2.464 0v5.091h-.616v-5.091h.616zm5.313 2.272v.547h-2.227v-.547h2.227zm4.711 2.889c-.328 0-.62-.057-.877-.169s-.458-.27-.609-.47a1.27 1.27 0 0 1-.244-.704h.627c.013.164.069.306.169.425s.229.209.39.274.339.097.534.097a1.39 1.39 0 0 0 .582-.115c.169-.076.302-.182.398-.318s.144-.293.144-.472c0-.187-.046-.352-.139-.495s-.229-.257-.408-.338-.398-.122-.656-.122h-.408v-.547h.408a1.22 1.22 0 0 0 .532-.109c.154-.073.274-.176.36-.308s.132-.288.132-.467a.86.86 0 0 0-.114-.45c-.076-.128-.184-.227-.323-.299s-.3-.107-.488-.107a1.3 1.3 0 0 0-.497.097.93.93 0 0 0-.378.276.73.73 0 0 0-.159.433h-.596a1.21 1.21 0 0 1 .241-.701c.151-.202.348-.36.591-.472a1.91 1.91 0 0 1 .808-.17c.315 0 .585.064.811.192s.398.292.519.5.182.43.182.671a1.19 1.19 0 0 1-.227.733c-.149.202-.352.342-.609.42v.04c.322.053.573.19.754.41s.271.49.271.813a1.29 1.29 0 0 1-.227.746c-.149.218-.353.391-.611.517s-.553.189-.883.189zm4.398 0c-.375 0-.694-.102-.957-.306s-.465-.503-.604-.893-.209-.863-.209-1.416.07-1.02.209-1.41.343-.689.606-.895.584-.311.955-.311.688.104.952.311.467.504.606.895.212.859.212 1.41-.07 1.025-.209 1.416-.341.687-.604.893-.583.306-.957.306zm0-.547c.371 0 .659-.179.865-.537s.308-.869.308-1.531c0-.441-.047-.817-.142-1.127s-.227-.546-.402-.708a.89.89 0 0 0-.629-.244c-.368 0-.656.182-.863.545s-.31.872-.31 1.534c0 .44.046.815.139 1.123s.226.543.4.704a.91.91 0 0 0 .634.241zm4.305.547a1.75 1.75 0 0 1-.788-.174c-.233-.116-.421-.275-.562-.478s-.218-.432-.231-.691h.597c.023.231.127.421.313.572s.411.224.671.224c.209 0 .395-.049.557-.147a1.03 1.03 0 0 0 .385-.403c.095-.172.142-.367.142-.584a1.19 1.19 0 0 0-.147-.594 1.07 1.07 0 0 0-.397-.415c-.169-.101-.362-.152-.58-.154a1.57 1.57 0 0 0-.479.072c-.164.048-.299.11-.406.186l-.576-.069.308-2.506h2.645v.547h-2.128l-.179 1.501h.03c.104-.082.235-.151.393-.206s.321-.082.492-.082c.311 0 .589.075.833.224s.437.349.576.606.212.55.212.88a1.72 1.72 0 0 1-.219.87c-.144.254-.343.454-.597.602a1.7 1.7 0 0 1-.865.219zm4.299 0c-.342 0-.643-.061-.905-.182s-.463-.291-.609-.504-.218-.461-.216-.736a1.35 1.35 0 0 1 .126-.597c.087-.184.204-.337.353-.46s.319-.203.505-.236v-.03a.98.98 0 0 1-.582-.41 1.24 1.24 0 0 1-.213-.723c-.002-.259.063-.49.196-.694s.315-.364.547-.482.499-.177.798-.177.558.059.79.177a1.38 1.38 0 0 1 .547.482c.134.204.202.435.204.694a1.26 1.26 0 0 1-.221.723.98.98 0 0 1-.574.41v.03c.183.033.349.112.497.236a1.35 1.35 0 0 1 .353.46c.087.182.132.381.134.597-.002.275-.076.52-.224.736s-.349.382-.609.504-.558.182-.897.182zm0-.547c.23 0 .429-.038.596-.112s.297-.18.388-.316.138-.295.139-.477a.91.91 0 0 0-.149-.51 1.02 1.02 0 0 0-.4-.348c-.167-.084-.359-.126-.574-.126s-.411.042-.582.126a1.02 1.02 0 0 0-.4.348c-.096.148-.143.318-.142.51-.001.182.042.341.132.477s.221.241.39.316.37.112.602.112zm0-2.416c.182 0 .344-.037.484-.11a.83.83 0 0 0 .336-.306c.081-.131.123-.284.124-.459s-.042-.323-.121-.45-.19-.229-.331-.299a1.08 1.08 0 0 0-.492-.107 1.11 1.11 0 0 0-.5.107c-.142.07-.253.169-.33.299s-.116.277-.115.45.037.328.117.459a.83.83 0 0 0 .336.306 1.06 1.06 0 0 0 .492.11zm2.842 2.893l2.277-4.504v-.04h-2.625v-.547h3.261v.577l-2.267 4.514h-.646zm3.84 0v-.447l1.68-1.84.487-.562c.128-.16.222-.311.284-.452a1.1 1.1 0 0 0 .094-.448c0-.179-.043-.334-.129-.464a.85.85 0 0 0-.348-.304c-.148-.071-.313-.107-.497-.107-.196 0-.367.041-.512.122s-.257.192-.336.336a1.05 1.05 0 0 0-.117.507h-.587c0-.298.069-.56.207-.786s.325-.401.562-.527a1.69 1.69 0 0 1 .802-.189c.299 0 .563.063.793.189s.411.296.542.51a1.34 1.34 0 0 1 .197.713c0 .188-.034.371-.102.55s-.182.375-.348.594-.392.482-.684.795l-1.143 1.223v.04h2.366v.547h-3.211z"/><use href="#H" y="84"/><path d="M143.992 462.5h-1.571v-5.091h1.641c.494 0 .916.102 1.268.306a2 2 0 0 1 .807.872c.188.378.281.831.281 1.358s-.094.986-.283 1.369a2.02 2.02 0 0 1-.825.88c-.362.204-.801.306-1.318.306zm-.954-.547h.914c.421 0 .77-.081 1.047-.243s.483-.394.619-.694.204-.657.204-1.071-.067-.765-.202-1.062-.334-.527-.601-.686-.599-.241-.997-.241h-.984v3.997zm5.936.627c-.368 0-.686-.082-.952-.244s-.47-.393-.614-.686-.214-.638-.214-1.029.071-.736.214-1.034a1.68 1.68 0 0 1 .601-.701c.259-.169.56-.254.905-.254a1.79 1.79 0 0 1 .589.1c.194.066.371.174.53.323a1.54 1.54 0 0 1 .38.586c.094.244.142.544.142.9v.249h-2.943v-.507h2.346c0-.216-.043-.408-.129-.577a.98.98 0 0 0-.363-.4c-.156-.098-.34-.147-.552-.147-.234 0-.436.058-.606.174s-.3.264-.391.448a1.31 1.31 0 0 0-.136.591v.338c0 .289.049.533.149.734s.241.35.42.454a1.23 1.23 0 0 0 .624.155c.154 0 .293-.022.417-.065s.235-.111.326-.199a.89.89 0 0 0 .211-.333l.567.159a1.26 1.26 0 0 1-.301.507c-.141.144-.315.257-.522.338s-.44.12-.698.12zm5.479-3.898l-1.412 3.818h-.596l-1.412-3.818h.636l1.054 3.042h.04l1.054-3.042h.636zm.774 3.818v-3.818h.587v3.818h-.587zm.299-4.455c-.115 0-.213-.038-.296-.116s-.122-.172-.122-.281.041-.203.122-.281.181-.117.296-.117.212.039.293.117a.37.37 0 0 1 .124.281c0 .109-.041.203-.124.281s-.179.116-.293.116zm2.914 4.535c-.358 0-.667-.085-.925-.254s-.457-.402-.597-.699-.208-.635-.208-1.016c0-.388.071-.73.213-1.027s.345-.531.602-.698.56-.254.905-.254c.268 0 .51.05.726.149a1.4 1.4 0 0 1 .529.418c.138.179.223.388.256.626h-.587c-.044-.174-.144-.328-.298-.462s-.358-.204-.616-.204c-.229 0-.43.06-.602.179s-.304.284-.4.5a1.84 1.84 0 0 0-.142.753 1.98 1.98 0 0 0 .139.771c.095.218.227.388.398.509a1.03 1.03 0 0 0 .607.182 1.05 1.05 0 0 0 .415-.08.85.85 0 0 0 .315-.229c.087-.099.148-.218.184-.358h.587a1.35 1.35 0 0 1-.246.609c-.129.179-.301.322-.515.428s-.459.157-.74.157zm3.96 0c-.368 0-.686-.082-.953-.244s-.469-.393-.614-.686-.213-.638-.213-1.029.071-.736.213-1.034a1.69 1.69 0 0 1 .602-.701c.259-.169.56-.254.905-.254a1.79 1.79 0 0 1 .589.1c.194.066.37.174.529.323s.286.343.381.586.141.544.141.9v.249h-2.943v-.507h2.347c0-.216-.043-.408-.129-.577a.98.98 0 0 0-.363-.4c-.156-.098-.34-.147-.552-.147-.234 0-.436.058-.607.174a1.14 1.14 0 0 0-.39.448c-.091.183-.137.381-.137.591v.338c0 .289.05.533.149.734s.242.35.421.454a1.23 1.23 0 0 0 .624.155c.154 0 .293-.022.417-.065s.235-.111.326-.199a.9.9 0 0 0 .211-.333l.567.159a1.26 1.26 0 0 1-.301.507c-.141.144-.315.257-.522.338s-.44.12-.698.12zm6.49-.08v-5.091h3.072v.547h-2.456v1.72h2.297v.547h-2.297v1.73h2.496v.547h-3.112zm7.524-5.091h.617v3.371c0 .348-.082.659-.246.932a1.73 1.73 0 0 1-.689.644c-.296.156-.644.233-1.044.233s-.747-.077-1.044-.233-.527-.372-.691-.644-.243-.584-.243-.932v-3.371h.616v3.321a1.33 1.33 0 0 0 .164.664c.109.192.265.344.467.455s.448.164.731.164.527-.055.731-.164a1.15 1.15 0 0 0 .467-.455 1.32 1.32 0 0 0 .164-.664v-3.321zm2.464 0v5.091h-.616v-5.091h.616zm5.313 2.272v.547h-2.227v-.547h2.227zm4.582 2.889a1.75 1.75 0 0 1-.788-.174c-.233-.116-.421-.275-.562-.478s-.218-.432-.231-.691h.597c.023.231.127.421.313.572s.411.224.671.224c.209 0 .395-.049.557-.147s.292-.232.385-.403.142-.367.142-.584a1.19 1.19 0 0 0-.147-.594 1.07 1.07 0 0 0-.397-.415 1.13 1.13 0 0 0-.58-.154 1.57 1.57 0 0 0-.479.072c-.164.048-.299.11-.406.186l-.576-.069.308-2.506h2.645v.547h-2.128l-.179 1.501h.03c.104-.082.235-.151.393-.206s.321-.082.492-.082c.311 0 .589.075.833.224s.437.349.576.606.212.55.212.88a1.72 1.72 0 0 1-.219.87c-.144.254-.343.454-.597.602a1.7 1.7 0 0 1-.865.219zm2.549-1.114v-.507l2.237-3.54h.368v.786h-.249l-1.69 2.674v.04h3.013v.547h-3.679zm2.396 1.044v-1.198-.236-3.657h.587v5.091h-.587zm2.373 0l2.277-4.504v-.04h-2.625v-.547h3.262v.577l-2.267 4.514h-.647zm5.391.07c-.374 0-.693-.102-.957-.306s-.464-.503-.604-.893-.208-.863-.208-1.416.069-1.02.208-1.41.343-.689.607-.895.583-.311.954-.311.689.104.952.311.468.504.607.895.211.859.211 1.41-.069 1.025-.208 1.416-.341.687-.605.893-.582.306-.957.306zm0-.547c.372 0 .66-.179.865-.537s.309-.869.309-1.531c0-.441-.048-.817-.142-1.127s-.227-.546-.403-.708a.89.89 0 0 0-.629-.244c-.367 0-.655.182-.862.545s-.311.872-.311 1.534c0 .44.047.815.139 1.123s.227.543.401.704.386.241.633.241zm4.505-4.614v5.091h-.617v-4.445h-.03l-1.243.826v-.627l1.273-.845h.617zm1.464 5.091v-.447l1.68-1.84.487-.562c.128-.16.222-.311.284-.452a1.1 1.1 0 0 0 .094-.448c0-.179-.043-.334-.129-.464a.85.85 0 0 0-.348-.304 1.13 1.13 0 0 0-.497-.107c-.196 0-.366.041-.512.122a.85.85 0 0 0-.336.336 1.05 1.05 0 0 0-.117.507h-.586c0-.298.068-.56.206-.786a1.44 1.44 0 0 1 .562-.527 1.69 1.69 0 0 1 .803-.189c.298 0 .562.063.793.189s.411.296.542.51a1.34 1.34 0 0 1 .196.713c0 .188-.034.371-.102.55s-.182.375-.348.594-.392.482-.684.795l-1.143 1.223v.04h2.366v.547h-3.211z"/><use href="#H" y="126"/></g><g stroke="#fff"><path d="M105.805 346.25h196" class="B"/><g class="D E"><path d="M116.335 355.787h8.767a.42.42 0 0 1 .419.419v18.057l-1.002 3.062c-.056.114-.177.169-.346.182l-.148.077-3.18.014-3.321-.012c-.042-.022-.035-.039-.082-.043-.28-.024-.403-.11-.441-.225l-1.085-3.087v-3.44-14.585a.42.42 0 0 1 .419-.419h0z"/><use href="#I" class="C"/><use href="#J"/><use href="#K"/><path d="M117.69 357.517l-1.628-1.627"/><use href="#L"/><use href="#M"/><use href="#N"/><path d="M115.916 370.839l1.366 3.354s.01.156.505.199 6.049 0 6.049 0 .395.004.487-.241l1.177-3.328v.125l-1.144 3.237s-.033.269-.384.289-6.053.021-6.053.021-.637.063-.7-.31l-1.303-3.314m1.553 6.677l1.293-2.027c.038-.071.11-.146.171-.194.166-.131.371-.188.581-.191h2.455c.09-.007.204.009.289.03.212.053.396.168.533.339l.003.003 1.31 2.035m-1.993.448h-.021m-2.645-.002h-.031"/><use href="#O"/><use href="#P"/><path d="M117.717 374.499l-.231 3.06"/><use href="#Q"/><path d="M123.924 374.476l.239 3.036"/><use href="#R"/><path d="M117.668 357.495l.045 17.001"/><use href="#S"/><path d="M119.529 377.592h-.249v.17a.58.58 0 0 0 .231.303c.059.365.305.623 1.25.64.932.016 1.184-.255 1.247-.622.182-.128.249-.3.271-.491h-.286-2.464z"/><path d="M120.185 377.596v.657"/><use href="#T"/><use href="#T" x="0.172"/><use href="#T" x="0.344"/><use href="#T" x="0.516"/><use href="#T" x="0.688"/><use href="#T" x="0.86"/><use href="#T" x="1.032"/><use href="#U"/></g><path d="M105.805 388.25h196" class="B"/><g class="D E"><path d="M116.335 397.953h8.767a.42.42 0 0 1 .419.42v18.056l-1.002 3.062c-.056.114-.177.17-.346.182l-.148.078-3.18.014-3.321-.013c-.042-.022-.035-.039-.082-.043-.28-.024-.403-.11-.441-.225l-1.085-3.087v-3.439-14.585a.42.42 0 0 1 .419-.42h0z"/><use href="#I" y="42.166" class="C"/><use href="#J" y="42.166"/><use href="#K" y="42.166"/><path d="M117.69 399.684l-1.628-1.628"/><use href="#L" y="42.166"/><use href="#M" y="42.166"/><use href="#N" y="42.166"/><path d="M115.916 413.005l1.366 3.354s.01.157.505.199 6.049 0 6.049 0 .395.005.487-.241l1.177-3.328v.125l-1.144 3.237s-.033.269-.384.29-6.053.021-6.053.021-.637.062-.7-.311l-1.303-3.313m1.553 6.677l1.293-2.028c.038-.071.11-.145.171-.194a.94.94 0 0 1 .581-.19h2.455c.09-.007.204.008.289.03a.97.97 0 0 1 .533.338l.003.004 1.31 2.034m-1.993.448h-.021m-2.645-.002h-.031"/><use href="#O" y="42.166"/><use href="#P" y="42.166"/><path d="M117.717 416.665l-.231 3.06"/><use href="#Q" y="42.166"/><path d="M123.924 416.642l.239 3.036"/><use href="#R" y="42.166"/><path d="M117.668 399.661l.045 17.001"/><use href="#S" y="42.166"/><path d="M119.529 419.758h-.249v.17a.58.58 0 0 0 .231.303c.059.365.305.624 1.25.64.932.016 1.184-.255 1.247-.622.182-.128.249-.299.271-.491h-.286-2.464z"/><path d="M120.185 419.762v.658m.147-.661v.677m.172-.677v.677m.172-.677v.677m.172-.677v.677m.172-.677v.677m.172-.677v.677m.172-.677v.677"/><use href="#U" y="42.166"/></g><path d="M105.805 430.25h196" class="B"/><g class="D E"><path d="M116.335 313.621h8.767a.42.42 0 0 1 .419.419v18.056l-1.002 3.063c-.056.113-.177.169-.346.181l-.148.078-3.18.014-3.321-.012c-.042-.022-.035-.04-.082-.044-.28-.023-.403-.109-.441-.225l-1.085-3.086v-3.44-14.585a.42.42 0 0 1 .419-.419h0z"/><path d="M116.586 313.621l1.706.861 4.914.005 1.706-.866-1.438 1.089s-.224.215-.529.194h-4.264s-.355.065-.677-.241l-1.418-1.042z" class="C"/><path d="M117.668 315.329l6.251.001 1.449-1.614m-8.083 1.903c0-.054-1.369-1.438-1.369-1.438m1.774 1.17l-1.628-1.628m8.224 1.896c0-.054 1.235-1.438 1.235-1.438"/><path d="M117.282 332.096v-16.41s-.067-.357.42-.357m6.58 16.767v-16.41s.067-.357-.42-.357"/><path d="M115.916 328.672l1.366 3.355s.01.156.505.198 6.049 0 6.049 0 .395.005.487-.241l1.177-3.328v.125l-1.144 3.238s-.033.269-.384.289-6.053.021-6.053.021-.637.062-.7-.311l-1.303-3.313m1.553 6.677l1.293-2.028c.038-.071.11-.145.171-.194.166-.131.371-.187.581-.19h2.455c.09-.007.204.009.289.03.212.053.396.167.533.338l.003.004 1.31 2.034m-1.993.448h-.021m-2.645-.002h-.031"/><path d="M117.557 335.42l1.287-2.018s.17-.331.67-.337h2.459s.447-.038.744.332l1.302 2.021m-1.838.312h-.004m-2.827-.003h-.011"/><use href="#P" y="-42.167"/><path d="M117.717 332.333l-.231 3.059"/><use href="#Q" y="-42.166"/><path d="M123.924 332.31l.239 3.035m-3.375-4.779c.159 0 .287-.129.287-.287s-.128-.287-.287-.287-.287.128-.287.287.129.287.287.287zm-3.12-15.237l.045 17"/><use href="#S" y="-42.166"/><path d="M119.529 335.425h-.249v.171c.039.116.109.218.231.303.059.365.305.623 1.25.639.932.016 1.184-.255 1.247-.621.182-.128.249-.3.271-.492h-.286-2.464z"/><path d="M120.185 335.43v.657m.147-.661v.677m.172-.677v.677m.172-.677v.677m.172-.677v.677m.172-.677v.677m.172-.677v.677m.172-.677v.677"/><path d="M122.293 335.426c-.058.394-.337.693-1.533.677s-1.474-.293-1.532-.677m72.754-192.389H209.6c.463 0 .842.379.842.842v36.288l-2.013 6.155c-.113.228-.355.34-.695.365l-.298.156-6.391.028-6.675-.025c-.084-.044-.07-.079-.163-.087-.563-.047-.812-.22-.888-.452l-2.18-6.203v-6.913-29.312c0-.463.379-.843.843-.843v.001z"/><path d="M192.485 143.037l3.429 1.731 9.875.009 3.43-1.74-2.891 2.189s-.449.431-1.064.39h-8.569s-.713.131-1.36-.484l-2.85-2.095z" class="C"/><path d="M194.659 146.469l12.563.004 2.912-3.244m-16.244 3.824c0-.108-2.75-2.891-2.75-2.891"/><path d="M194.704 146.514l-3.272-3.272m16.528 3.811c0-.108 2.482-2.891 2.482-2.891"/><path d="M193.885 180.167v-32.979s-.135-.719.844-.719m13.224 33.698v-32.979s.134-.719-.844-.719"/><path d="M191.139 173.286l2.746 6.741s.018.314 1.015.4 12.155 0 12.155 0 .795.009.979-.485l2.365-6.688v.251l-2.298 6.506s-.067.541-.772.581-12.164.043-12.164.043-1.282.126-1.407-.624l-2.619-6.66m3.122 13.419l2.599-4.074c.076-.143.221-.293.344-.39.333-.264.744-.377 1.167-.383h4.934c.18-.014.409.018.58.06.426.106.796.336 1.071.68l.006.008 2.634 4.089m-4.006.9h-.042m-5.317-.005h-.061m-3.732-.808l2.586-4.056s.341-.664 1.347-.678h4.942s.898-.076 1.495.669l2.615 4.061m-3.692.626h-.008m-5.682-.004h-.023"/><path d="M193.885 180.167l-.588 6.075m1.461-5.6l-.463 6.15m13.657-6.704l.549 6.013m-1.268-5.505l.481 6.101m-6.783-9.605c.319 0 .577-.259.577-.577s-.258-.577-.577-.577-.577.258-.577.577a.58.58 0 0 0 .577.577z"/><path d="M194.659 146.469l.091 34.166m12.508-34.126l-.025 34.087m-8.833 6.261h-.5v.343c.079.233.219.439.465.609.117.734.611 1.253 2.511 1.286 1.874.032 2.38-.513 2.506-1.25.365-.257.5-.602.545-.988h-.576-4.951z"/><path d="M199.718 186.867v1.32"/><use href="#V"/><use href="#V" x="0.346"/><use href="#V" x="0.692"/><use href="#V" x="1.037"/><use href="#V" x="1.383"/><use href="#V" x="1.729"/><use href="#V" x="2.074"/><path d="M203.956 186.859c-.117.791-.678 1.394-3.081 1.36s-2.962-.587-3.081-1.36"/></g></g><g fill="#fff"><path d="M143.901 444a1.77 1.77 0 0 0-.216-.45 1.38 1.38 0 0 0-.316-.343c-.121-.094-.258-.167-.412-.216s-.323-.075-.507-.075a1.51 1.51 0 0 0-.823.234 1.61 1.61 0 0 0-.589.688c-.146.304-.219.676-.219 1.117s.074.812.221 1.116.347.532.599.688a1.58 1.58 0 0 0 .85.234c.292 0 .549-.062.771-.187s.398-.303.522-.531.189-.502.189-.813l.189.039h-1.531v-.546h1.938v.546c0 .42-.089.784-.268 1.094s-.423.55-.736.721-.669.254-1.074.254a2.2 2.2 0 0 1-1.188-.319c-.34-.212-.605-.513-.795-.904s-.284-.856-.284-1.392c0-.403.054-.765.162-1.087s.263-.598.462-.825a2.02 2.02 0 0 1 .706-.522c.272-.121.571-.182.898-.182a2.26 2.26 0 0 1 .75.122c.234.08.442.193.624.341a1.96 1.96 0 0 1 .46.524 2.01 2.01 0 0 1 .254.674h-.637zm2.766 3.589a1.55 1.55 0 0 1-.658-.136c-.198-.093-.354-.226-.47-.4a1.13 1.13 0 0 1-.174-.637c0-.219.043-.396.129-.532a.91.91 0 0 1 .346-.323c.144-.078.303-.136.477-.174l.529-.094.565-.068c.145-.016.251-.043.318-.082s.102-.104.102-.198v-.02c0-.246-.067-.436-.202-.572s-.334-.204-.604-.204c-.28 0-.499.061-.658.184s-.271.254-.336.393l-.557-.199c.1-.232.232-.413.398-.542a1.48 1.48 0 0 1 .547-.273 2.27 2.27 0 0 1 .586-.08 2.31 2.31 0 0 1 .423.045c.161.028.316.087.465.176s.276.225.375.406.149.422.149.725v2.516h-.586v-.517h-.03a1.04 1.04 0 0 1-.199.266 1.15 1.15 0 0 1-.37.241c-.154.066-.343.099-.565.099zm.09-.527c.232 0 .427-.045.586-.136s.282-.209.363-.353a.9.9 0 0 0 .125-.455v-.537c-.025.03-.08.057-.164.082a2.75 2.75 0 0 1-.289.062l-.315.045-.247.03a2.24 2.24 0 0 0-.427.097.73.73 0 0 0-.318.196c-.08.086-.12.204-.12.353 0 .204.076.358.227.462s.345.154.579.154zm4.392-3.38v.497h-1.979v-.497h1.979zm-1.402-.915h.586v3.639c0 .166.024.29.072.373s.113.136.189.164.16.04.246.04c.065 0 .118-.003.159-.01l.1-.02.119.527c-.04.015-.095.03-.166.045a1.27 1.27 0 0 1-.271.025c-.166 0-.328-.036-.487-.107a.96.96 0 0 1-.393-.326c-.103-.146-.154-.33-.154-.552v-3.798zm3.844 4.813c-.368 0-.685-.082-.952-.244s-.47-.393-.614-.686-.214-.638-.214-1.029.071-.736.214-1.034.345-.534.601-.701a1.62 1.62 0 0 1 .905-.254 1.79 1.79 0 0 1 .589.1c.194.066.371.174.53.323a1.54 1.54 0 0 1 .38.586c.095.244.142.544.142.9v.249h-2.943v-.507h2.346c0-.216-.043-.408-.129-.577a.97.97 0 0 0-.363-.4c-.156-.098-.34-.147-.552-.147a1.05 1.05 0 0 0-.606.174 1.15 1.15 0 0 0-.391.448 1.31 1.31 0 0 0-.136.591v.338c0 .289.049.533.149.734s.241.35.42.454a1.23 1.23 0 0 0 .624.155c.154 0 .293-.022.418-.065a.9.9 0 0 0 .325-.199.89.89 0 0 0 .211-.333l.567.159a1.25 1.25 0 0 1-.301.507 1.45 1.45 0 0 1-.522.338c-.207.08-.44.12-.698.12zm3.338-.08l-1.163-3.818h.616l.826 2.923h.04l.815-2.923h.626l.806 2.913h.039l.826-2.913h.616l-1.163 3.818h-.577l-.835-2.933h-.06l-.835 2.933h-.577zm5.946.089a1.55 1.55 0 0 1-.658-.136c-.198-.093-.354-.226-.47-.4a1.13 1.13 0 0 1-.174-.637c0-.219.043-.396.129-.532a.91.91 0 0 1 .346-.323c.144-.078.303-.136.477-.174l.529-.094.565-.068c.145-.016.252-.043.318-.082s.102-.104.102-.198v-.02c0-.246-.067-.436-.202-.572s-.334-.204-.604-.204c-.28 0-.499.061-.658.184s-.271.254-.336.393l-.557-.199c.1-.232.232-.413.398-.542a1.48 1.48 0 0 1 .547-.273 2.27 2.27 0 0 1 .586-.08 2.31 2.31 0 0 1 .423.045c.161.028.316.087.465.176s.276.225.375.406.149.422.149.725v2.516h-.586v-.517h-.03a1.04 1.04 0 0 1-.199.266 1.15 1.15 0 0 1-.37.241c-.154.066-.343.099-.565.099zm.09-.527c.232 0 .427-.045.586-.136s.282-.209.363-.353a.9.9 0 0 0 .125-.455v-.537c-.025.03-.08.057-.164.082a2.75 2.75 0 0 1-.289.062l-.315.045-.246.03c-.153.02-.295.052-.428.097a.73.73 0 0 0-.318.196c-.08.086-.12.204-.12.353 0 .204.076.358.227.462s.345.154.579.154zm2.972 1.87a1.26 1.26 0 0 1-.266-.025c-.078-.015-.131-.03-.161-.045l.149-.517c.142.037.268.05.378.04s.206-.059.291-.147.164-.226.236-.42l.109-.298-1.412-3.838h.636l1.054 3.042h.04l1.054-3.042h.637l-1.621 4.375c-.073.197-.163.36-.271.49a1.03 1.03 0 0 1-.375.29 1.16 1.16 0 0 1-.478.095zm5.488-1.432v-3.818h.566v.577h.04c.07-.189.196-.343.378-.46a1.11 1.11 0 0 1 .616-.177l.162.003.147.007v.597c-.02-.005-.066-.013-.137-.023s-.143-.017-.221-.017c-.186 0-.352.039-.497.117a.87.87 0 0 0-.343.318c-.083.134-.125.287-.125.46v2.416h-.586zm4.039.08c-.345 0-.647-.082-.907-.247s-.461-.393-.607-.688-.216-.64-.216-1.034.072-.745.216-1.042a1.67 1.67 0 0 1 .607-.691c.26-.164.562-.246.907-.246s.646.082.905.246.462.395.606.691.219.644.219 1.042-.073.739-.219 1.034-.346.524-.606.688-.56.247-.905.247zm0-.527c.262 0 .477-.068.646-.202a1.19 1.19 0 0 0 .376-.529c.081-.219.122-.456.122-.711a2.06 2.06 0 0 0-.122-.714c-.081-.22-.207-.398-.376-.534s-.384-.204-.646-.204-.477.068-.646.204a1.21 1.21 0 0 0-.376.534 2.06 2.06 0 0 0-.121.714c0 .255.04.492.121.711s.207.395.376.529.384.202.646.202zm4.177.527a1.66 1.66 0 0 1-.908-.247c-.258-.164-.46-.393-.606-.688s-.216-.64-.216-1.034.072-.745.216-1.042.348-.527.606-.691.563-.246.908-.246.646.082.905.246.462.395.606.691.219.644.219 1.042-.073.739-.219 1.034-.346.524-.606.688-.561.247-.905.247zm0-.527c.262 0 .477-.068.646-.202s.294-.311.375-.529a2.01 2.01 0 0 0 .122-.711c0-.255-.04-.493-.122-.714a1.2 1.2 0 0 0-.375-.534c-.169-.136-.384-.204-.646-.204s-.477.068-.647.204a1.2 1.2 0 0 0-.375.534 2.06 2.06 0 0 0-.122.714c0 .255.041.492.122.711s.206.395.375.529.385.202.647.202zm4.326-3.371v.497h-2.059v-.497h2.059zm-1.442 3.818v-4.345c0-.219.051-.401.154-.547s.236-.255.4-.328.338-.11.52-.11a1.48 1.48 0 0 1 .353.035c.091.023.159.045.204.065l-.169.507-.125-.037c-.051-.015-.119-.023-.204-.023-.193 0-.333.049-.42.147s-.126.241-.126.43v4.206h-.587zm3.924-3.818v.497h-1.978v-.497h1.978zm-1.402-.915h.587v3.639c0 .166.024.29.072.373s.113.136.189.164.16.04.246.04c.065 0 .118-.003.159-.01l.1-.02.119.527c-.04.015-.095.03-.167.045s-.161.025-.271.025c-.165 0-.328-.036-.487-.107s-.288-.18-.392-.326-.155-.33-.155-.552v-3.798zm3.795 4.813c-.345 0-.647-.082-.907-.247s-.461-.393-.607-.688-.216-.64-.216-1.034.072-.745.216-1.042a1.67 1.67 0 0 1 .607-.691c.26-.164.562-.246.907-.246s.646.082.905.246.462.395.606.691.219.644.219 1.042-.073.739-.219 1.034-.346.524-.606.688-.56.247-.905.247zm0-.527c.262 0 .477-.068.646-.202s.294-.311.376-.529.121-.456.121-.711a2.06 2.06 0 0 0-.121-.714 1.21 1.21 0 0 0-.376-.534c-.169-.136-.384-.204-.646-.204s-.477.068-.646.204a1.21 1.21 0 0 0-.376.534 2.06 2.06 0 0 0-.121.714c0 .255.04.492.121.711s.207.395.376.529.384.202.646.202zm2.626 1.879v-5.25h.566v.606h.07l.179-.253c.078-.105.189-.197.333-.279s.343-.124.592-.124c.321 0 .605.08.85.241a1.61 1.61 0 0 1 .574.684c.138.295.206.643.206 1.044s-.068.755-.206 1.051-.328.524-.572.686a1.49 1.49 0 0 1-.842.242c-.246 0-.442-.041-.59-.122s-.261-.177-.34-.281l-.184-.264h-.05v2.019h-.586zm.576-3.341c0 .288.043.543.127.763s.208.39.37.515.362.184.597.184c.245 0 .45-.065.614-.194s.29-.307.373-.527a2.08 2.08 0 0 0 .127-.741c0-.269-.042-.511-.125-.726a1.12 1.12 0 0 0-.37-.515.98.98 0 0 0-.619-.191.98.98 0 0 0-.602.182 1.08 1.08 0 0 0-.367.502c-.083.213-.125.463-.125.748z"/><path d="M127.127 451.773l-.637.75c-.111.128 0 .337.159.337.15 0 .511-.496.623-.615.551-.588 1.111-1.738 1.362-2.51.294-.903.348-1.682.348-2.625a6.5 6.5 0 0 0-.249-1.72l-.215-.694c-.09-.251-.202-.492-.319-.731a8.08 8.08 0 0 0-.749-1.22l-.67-.781-.004-.002c-.244-.163-.428.118-.277.287.935 1.038 1.527 1.99 1.866 3.368.422 1.722.193 3.35-.506 4.96-.049.113-.119.213-.174.323l-.007.014-.552.861.001-.002zm-13.587-4.01c.06 1.044.324 2.098.783 3.034.295.599.726 1.27 1.19 1.745.071.072.13.179.208.24.092.071.213.108.301.009.027-.03.061-.073.06-.116 0-.095-.127-.255-.187-.328l-.509-.585a5.31 5.31 0 0 1-.392-.58c-1.402-2.369-1.408-5.261.018-7.62l.003-.005.378-.567.009-.01.227-.265c.096-.106.446-.475.449-.606 0-.106-.1-.207-.204-.207-.125 0-.299.246-.382.338l-.446.54c-.623.846-.976 1.622-1.263 2.634-.136.477-.214.97-.243 1.467v.883-.001zm12.468-.398c0-.186-.023-.387-.05-.57-.13-.881-.383-1.516-.907-2.23-.094-.128-.283-.368-.407-.461-.191-.126-.394.077-.278.268.077.127.203.229.295.345.878 1.105 1.177 2.597.731 3.95-.115.349-.255.662-.444.976-.049.08-.104.154-.16.229l-.122.154-.203.239c-.034.04-.079.088-.104.134-.073.133.004.296.159.296.04 0 .079-.005.114-.025.1-.057.236-.243.32-.333a4.33 4.33 0 0 0 .58-.929c.298-.671.474-1.301.474-2.043h.002zm-9.084 0c0-.764.186-1.476.584-2.127.128-.21.274-.406.43-.594.07-.085.174-.188.226-.282.073-.133-.004-.295-.159-.295-.144 0-.174.086-.259.18-.557.62-.886 1.222-1.089 2.038-.138.555-.175 1.113-.091 1.682.052.353.122.682.242 1.019.107.302.262.575.413.854.144.267.368.472.551.709.245.317.511.048.386-.16-.077-.128-.203-.23-.296-.346-.602-.758-.938-1.703-.938-2.679v.001zm4.152 1.609v7.079c0 .103.084.188.185.188s.186-.085.186-.188v-7.079h.279.003c.338-.092.645-.338.851-.62.777-1.058.013-2.63-1.288-2.63-.838 0-1.554.59-1.647 1.451-.046.432.038.827.296 1.179.206.282.514.528.851.62h.004.279.001zm.217-2.834c.661 0 1.218.592 1.2 1.263-.018.659-.542 1.22-1.2 1.22-.719 0-1.268-.523-1.255-1.264a1.32 1.32 0 0 1 .052-.347c.162-.56.641-.872 1.204-.872h-.001z" class="F"/></g><g stroke="#e9e9eb" class="B"><path d="M199.804 108.575c29.789 0 53.941 24.365 53.941 54.425s-24.152 54.424-53.941 54.424-53.94-24.364-53.94-54.424 24.152-54.424 53.94-54.425z" stroke-opacity=".7"/><circle cx="198.805" cy="163" r="71.05"/><circle cx="200.305" cy="163" r="37.25" stroke-opacity=".5"/></g><path d="M305.405 367.5a1.6 1.6 0 0 0-3.2 0 1.6 1.6 0 0 0 3.2 0zm39.4 0v-.3h-41v.3.3h41v-.3z" fill="url(#D)"/><path d="M365.205 147.5a1.6 1.6 0 0 0 3.2 0 1.6 1.6 0 0 0-3.2 0zm-20.4 0v.3h22v-.3-.3h-22v.3z" fill="url(#E)"/><path d="M29.457 147.5a1.6 1.6 0 0 0-3.2 0 1.6 1.6 0 0 0 3.2 0zm90.348 0v-.3H27.857v.3.3h91.948v-.3z" fill="url(#F)"/><path d="M344.805 367.5L344.805 147.5" stroke="url(#G)" stroke-width=".6"/><defs><linearGradient id="A" x1="382.204" y1="134.139" x2="382.204" y2="159.139" href="#W"><stop stop-color="#2f67ff"/><stop offset="1" stop-color="#ff5f9b"/></linearGradient><linearGradient id="B" x1="12.51" y1="134.139" x2="12.51" y2="159.139" href="#W"><stop stop-color="#2f67ff"/><stop offset="1" stop-color="#ff5f9b"/></linearGradient><linearGradient id="C" x1="198.805" y1=".5" x2="198.805" y2="533.5" href="#W"><stop stop-color="#d84896"/><stop offset="1" stop-color="#a733c3"/></linearGradient><linearGradient id="D" x1="303.805" y1="366.7" x2="344.805" y2="366.7" href="#W"><stop stop-color="#fafafa"/><stop offset="1" stop-color="#2f67ff"/></linearGradient><linearGradient id="E" x1="366.805" y1="148.3" x2="344.805" y2="148.3" href="#W"><stop stop-color="#2f67ff"/><stop offset="1" stop-color="#ff5f9b"/></linearGradient><linearGradient id="F" x1="27.857" y1="146.7" x2="119.805" y2="146.7" href="#W"><stop stop-color="#2f67ff"/><stop offset="1" stop-color="#fff"/></linearGradient><linearGradient id="G" x1="345.605" y1="147.5" x2="345.604" y2="367.5" href="#W"><stop stop-color="#ff5f9b"/><stop offset="1" stop-color="#2f67ff"/></linearGradient><path id="H" d="M284.747 326.589l4.735-4.853c.161-.157.341-.236.541-.236s.38.079.54.236c.161.165.242.352.242.56a.78.78 0 0 1-.242.56l-5.264 5.408c-.153.157-.337.236-.552.236s-.398-.079-.551-.236l-2.161-2.215c-.154-.165-.23-.352-.23-.56a.78.78 0 0 1 .241-.56c.161-.157.343-.236.546-.236s.386.079.547.236l1.608 1.66z"/><path id="I" d="M116.586 355.787l1.706.862 4.914.004 1.706-.866-1.438 1.09s-.224.214-.529.194h-4.264s-.355.065-.677-.241l-1.418-1.043z"/><path id="J" d="M117.668 357.495l6.251.002 1.449-1.614"/><path id="K" d="M117.285 357.786c0-.054-1.369-1.439-1.369-1.439"/><path id="L" d="M124.286 357.786c0-.054 1.235-1.439 1.235-1.439"/><path id="M" d="M117.282 374.263v-16.41s-.067-.358.42-.358"/><path id="N" d="M124.282 374.263v-16.41s.067-.358-.42-.358"/><path id="O" d="M117.557 377.586l1.287-2.018s.17-.33.67-.337h2.459s.447-.038.744.333l1.302 2.021m-1.838.311h-.004m-2.827-.002h-.011"/><path id="P" d="M117.282 374.263l-.292 3.023"/><path id="Q" d="M124.282 374.223l.273 2.992"/><path id="R" d="M120.788 372.732c.159 0 .287-.128.287-.287s-.128-.287-.287-.287-.287.129-.287.287.129.287.287.287z"/><path id="S" d="M123.937 357.515l-.013 16.961"/><path id="T" d="M120.332 377.593v.676"/><path id="U" d="M122.293 377.592c-.058.394-.337.694-1.533.677s-1.474-.292-1.532-.676"/><path id="V" d="M200.014 186.859v1.36"/><linearGradient id="W" gradientUnits="userSpaceOnUse"/></defs></svg>