<svg xmlns="http://www.w3.org/2000/svg" width="613" height="533" fill="none" xmlns:v="https://vecta.io/nano"><style><![CDATA[.B{fill:#fff}.C{fill:#575757}.D{stroke-width:.5}.E{fill:#b8b8b8}.F{fill:#0c0c0c}.G{fill:#f85550}.H{color-interpolation-filters:sRGB}]]></style><rect x=".25" y=".25" width="255.5" height="532.5" rx="9.75" stroke="url(#C)" class="B D"/><g fill-rule="evenodd"><path d="M38.001 502.23v6.949a1.18 1.18 0 0 1-1.184 1.184h-4.954c-.625 0-1.184-.504-1.184-1.091v-7.136c0-.557.533-1.09 1.091-1.09h5.141a1.11 1.11 0 0 1 .766.355c.179.213.324.453.324.829h0zm8.632 6.543v7.136c0 .558-.533 1.091-1.09 1.091h-5.141c-.563 0-1.09-.539-1.09-1.185v-6.948a1.18 1.18 0 0 1 1.184-1.184h4.955c.644 0 1.184.516 1.184 1.09h0zm-8.632 4.083v2.96a1.17 1.17 0 0 1-.093.468c-.171.379-.538.716-.997.716H31.77c-.558 0-1.091-.533-1.091-1.09v-3.148c0-.59.558-1.09 1.184-1.09h4.954a1.18 1.18 0 0 1 1.184 1.184h0zm8.632-10.72v3.148c0 .563-.538 1.09-1.184 1.09h-4.955a1.18 1.18 0 0 1-1.184-1.184v-2.96c0-.347.144-.623.306-.816a1.18 1.18 0 0 1 .785-.368h5.141c.558 0 1.09.533 1.09 1.09h0z" class="G"/><path d="M120.103 509.023c0-.314.256-.654.685-.654.824 0 .824 1.309 0 1.309-.219 0-.355-.068-.476-.178-.093-.086-.209-.313-.209-.477zm-1.994.468v4.331c0 1.643 1.539 3.178 3.178 3.178h4.331c.488 0 .96-.184 1.299-.353.286-.142.771-.477.95-.701l.351-.46c.372-.572.548-1.209.548-1.976v-3.646c0-1.145-.412-1.954-.99-2.531s-1.38-.99-2.532-.99h-3.646c-1.127 0-1.656.297-2.417.886-.533.413-1.073 1.516-1.073 2.262h.001zm7.977-7.822c0 1.072 1.063.479 2.653 1.056 2.202.798 3.757 2.747 3.956 5.111.042.505-.05 1.187.745 1.187.322 0 .623-.3.623-.623 0-1.183-.236-2.258-.685-3.147l-.301-.572c-1.106-2.034-3.677-3.635-6.025-3.635h-.343c-.322 0-.623.301-.623.623zm0 2.649c0 .391.21.658.536.71.411.065.466-.013 1.016.137.432.119.794.312 1.142.573.079.059.082.064.149.13.074.074.104.081.171.141.072.066.062.082.126.155.433.489.742 1.112.812 1.774.042.394-.051 1.085.753 1.085.343 0 .624-.307.624-.716 0-1.229-.474-2.234-1.223-3.078-.064-.072-.068-.1-.14-.172s-.087-.068-.155-.125c-.191-.161-.183-.188-.477-.396-.718-.508-1.688-.841-2.68-.841-.333 0-.654.286-.654.623h0zm79.239 4.705a7.23 7.23 0 0 1 .61-2.814c.388-.833.8-1.437 1.41-2.047l.43-.401c.857-.72 1.753-1.18 2.868-1.452.963-.235 2.124-.268 3.086-.027.923.231 1.643.511 2.412 1.044 2.809 1.946 3.827 5.663 2.291 8.733l-.324.606c-.053.088-.092.115-.119.214-.083-.023-.453-.375-.54-.457-.434-.413-1.268-.924-1.808-1.183-1.634-.785-3.524-.956-5.33-.521a7.85 7.85 0 0 0-2.121.871l-.312.186a9.59 9.59 0 0 0-1.115.879c-.087.088-.146.19-.274.225-.025-.094-.158-.277-.219-.38-.082-.139-.145-.281-.213-.418-.295-.588-.509-1.229-.622-1.904a7.49 7.49 0 0 1-.11-1.154h0zm-1.063-.332c0 1.138.054 2.01.475 3.081l.127.338c.207.508.55 1.094.86 1.534l.406.524c.683.782 1.425 1.417 2.353 1.901l.15.083c.909.455 2.165.848 3.24.848h.665c1.438 0 2.667-.505 3.734-1.085a6.02 6.02 0 0 0 .587-.377c.692-.489 1.194-1.009 1.724-1.666l.209-.291c1.275-1.729 1.742-4.298 1.205-6.433-.142-.565-.288-.942-.493-1.435-.393-.948-1.118-1.82-1.822-2.532-.101-.102-.167-.137-.266-.232-.428-.407-1.246-.883-1.776-1.15-.734-.37-2.048-.753-3.135-.753-.963 0-1.286.001-2.254.239-1.569.385-3.073 1.347-4.105 2.576l-.422.542-.38.584c-.618 1.019-1.082 2.533-1.082 3.704h0zm4.786-2.46c0 .597.044.98.299 1.496.141.287.397.679.624.905l.401.33a2.94 2.94 0 0 0 .481.283c.83.415 1.922.419 2.749.011 1.041-.513 1.828-1.542 1.828-2.759 0-.832-.207-1.59-.74-2.185-.35-.391-.56-.576-1.066-.829-.83-.415-1.922-.419-2.749-.011-.286.141-.678.398-.904.624-.065.065-.092.12-.167.199s-.114.134-.177.222c-.32.442-.579 1.101-.579 1.714h0z" fill="#545454"/></g><g filter="url(#A)" class="B"><rect x="16" y="17" width="216" height="52" rx="10"/></g><g stroke="#5a5c66" stroke-miterlimit="22.9256" class="D"><path d="M31.51 31h10.664a.51.51 0 0 1 .51.51v21.964l-1.219 3.725c-.068.138-.215.206-.42.221l-.18.095-3.869.017-4.04-.015c-.051-.027-.042-.048-.099-.053-.341-.029-.491-.133-.537-.274L31 53.436v-4.184V31.51a.51.51 0 0 1 .51-.51h0z"/><path d="M31.815 31l2.076 1.048 5.977.005L41.943 31l-1.75 1.325s-.272.261-.644.236h-5.187s-.432.079-.823-.293L31.815 31z" stroke-linejoin="round"/><path d="M33.131 33.078l7.604.002 1.763-1.963m-9.833 2.314c0-.065-1.665-1.75-1.665-1.75"/><path d="M33.158 33.105l-1.98-1.98m10.003 2.306c0-.065 1.502-1.75 1.502-1.75"/><path d="M32.662 53.474V33.513s-.081-.435.511-.435m8.004 20.396V33.513s.081-.435-.511-.435"/><path d="M31 49.309l1.662 4.08s.011.19.614.242 7.357 0 7.357 0 .481.005.592-.294l1.432-4.048v.152l-1.391 3.938s-.041.327-.467.352-7.363.026-7.363.026-.776.076-.852-.378L31 49.349m1.89 8.122l1.573-2.466c.046-.086.134-.177.208-.236.202-.16.45-.228.707-.232h2.986c.109-.008.247.011.351.037a1.18 1.18 0 0 1 .648.411l.004.005 1.594 2.475m-2.424.545h-.025m-3.218-.003h-.037"/><path d="M32.997 57.517l1.565-2.455s.206-.402.815-.41h2.991s.543-.046.905.405l1.583 2.458m-2.235.379h-.005m-3.439-.003h-.014m-2.501-4.417l-.356 3.677m.884-3.389l-.28 3.722m8.267-4.058l.332 3.639m-.768-3.331l.291 3.693m-7.901-24.349l.055 20.68m7.571-20.656l-.016 20.632"/><path d="M35.395 57.523h-.303v.208a.71.71 0 0 0 .281.368c.071.444.37.758 1.52.778 1.135.02 1.441-.31 1.517-.756.221-.156.303-.365.33-.598h-.349-2.997z"/><path d="M36.192 57.529v.799"/><use href="#L"/><use href="#L" x="0.209"/><use href="#L" x="0.418"/><use href="#L" x="0.628"/><use href="#L" x="0.837"/><use href="#L" x="1.046"/><use href="#L" x="1.255"/><path d="M38.758 57.524c-.07.479-.41.844-1.865.824s-1.793-.355-1.864-.823"/></g><path d="M155.733 44h-.881c-.052-.253-.143-.476-.273-.668a1.82 1.82 0 0 0-.469-.483c-.182-.133-.385-.232-.607-.298a2.43 2.43 0 0 0-.696-.099 2.22 2.22 0 0 0-1.197.334c-.355.223-.638.55-.849.984s-.312.965-.312 1.594.104 1.161.312 1.595.494.761.849.984a2.22 2.22 0 0 0 1.197.334 2.43 2.43 0 0 0 .696-.099 2.04 2.04 0 0 0 .607-.295 1.87 1.87 0 0 0 .469-.486c.13-.194.221-.417.273-.668h.881a2.93 2.93 0 0 1-.362.998c-.175.294-.393.543-.654.749s-.552.359-.877.465-.666.16-1.033.16c-.62 0-1.172-.152-1.655-.455s-.863-.734-1.14-1.293-.415-1.222-.415-1.989.138-1.43.415-1.989.657-.99 1.14-1.293 1.035-.455 1.655-.455c.367 0 .711.053 1.033.16a2.81 2.81 0 0 1 .877.469 2.67 2.67 0 0 1 .654.746c.175.291.296.624.362.998zm3.525 5.114c-.492 0-.924-.117-1.296-.352s-.658-.562-.866-.984-.309-.914-.309-1.477.103-1.064.309-1.488.497-.753.866-.987.804-.352 1.296-.352.924.117 1.293.352.66.563.866.987.313.92.313 1.488-.104 1.056-.313 1.477-.494.749-.866.984-.8.352-1.293.352zm0-.753c.374 0 .682-.096.924-.288a1.7 1.7 0 0 0 .536-.756c.116-.312.174-.651.174-1.016s-.058-.704-.174-1.019a1.72 1.72 0 0 0-.536-.763c-.242-.194-.55-.291-.924-.291s-.681.097-.923.291a1.72 1.72 0 0 0-.536.763c-.116.315-.174.655-.174 1.019s.058.703.174 1.016a1.7 1.7 0 0 0 .536.756c.242.192.549.288.923.288zm4.589-2.642V49h-.838v-5.455h.81v.852h.071a1.56 1.56 0 0 1 .582-.668c.261-.17.597-.256 1.009-.256.369 0 .692.076.969.227s.493.376.647.682.23.687.23 1.151V49h-.838v-3.409c0-.428-.111-.762-.333-1.001s-.528-.362-.917-.362c-.267 0-.506.058-.717.174a1.25 1.25 0 0 0-.494.508c-.12.222-.181.492-.181.81zm5.85 0V49h-.838v-5.455h.81v.852h.071c.127-.277.321-.499.582-.668s.597-.256 1.008-.256c.37 0 .693.076.97.227a1.53 1.53 0 0 1 .646.682c.154.303.231.687.231 1.151V49h-.838v-3.409c0-.428-.111-.762-.334-1.001s-.528-.362-.916-.362c-.268 0-.507.058-.717.174s-.373.285-.494.508-.181.492-.181.81zm7.298 3.395c-.525 0-.979-.116-1.36-.348a2.34 2.34 0 0 1-.877-.98c-.203-.421-.305-.911-.305-1.47s.102-1.051.305-1.477a2.41 2.41 0 0 1 .86-1.001c.369-.241.8-.362 1.292-.362a2.59 2.59 0 0 1 .842.142c.277.095.529.249.756.462a2.2 2.2 0 0 1 .543.838c.135.348.203.776.203 1.285v.355h-4.205v-.724h3.353a1.79 1.79 0 0 0-.185-.824 1.4 1.4 0 0 0-.518-.572c-.223-.14-.486-.209-.789-.209-.334 0-.622.083-.866.249a1.63 1.63 0 0 0-.558.639 1.88 1.88 0 0 0-.195.845v.483c0 .412.071.761.213 1.048a1.53 1.53 0 0 0 .6.65 1.76 1.76 0 0 0 .891.22c.221 0 .419-.031.597-.092s.335-.159.465-.284.231-.287.302-.476l.81.227c-.086.275-.229.516-.43.724s-.45.367-.746.483-.628.17-.998.17zm5.75 0c-.512 0-.952-.121-1.321-.362s-.654-.574-.853-.998-.298-.908-.298-1.453c0-.554.102-1.043.305-1.467s.493-.759.86-.998.8-.362 1.292-.362c.384 0 .73.071 1.037.213a1.99 1.99 0 0 1 .757.597c.196.256.318.554.366.895h-.839c-.063-.249-.205-.469-.426-.66s-.511-.291-.88-.291c-.327 0-.613.085-.86.256a1.66 1.66 0 0 0-.571.714c-.135.305-.203.664-.203 1.076 0 .421.066.788.199 1.101s.324.555.568.728a1.47 1.47 0 0 0 .867.259 1.5 1.5 0 0 0 .593-.114 1.23 1.23 0 0 0 .451-.327 1.25 1.25 0 0 0 .262-.511h.839a1.95 1.95 0 0 1-.352.87 1.97 1.97 0 0 1-.735.611c-.303.149-.656.224-1.058.224zm5.742-5.568v.71h-2.827v-.71h2.827zm-2.003-1.307h.838v5.199c0 .237.034.414.103.533s.161.194.27.234a1.08 1.08 0 0 0 .352.057 1.49 1.49 0 0 0 .227-.014l.142-.028.17.753c-.057.021-.136.043-.238.064a1.74 1.74 0 0 1-.387.035 1.69 1.69 0 0 1-.696-.153 1.38 1.38 0 0 1-.561-.465c-.147-.208-.22-.471-.22-.788v-5.426zm5.492 6.875c-.526 0-.979-.116-1.36-.348s-.671-.561-.877-.98-.306-.911-.306-1.47.102-1.051.306-1.477.492-.762.859-1.001.8-.362 1.293-.362c.284 0 .564.047.841.142s.529.249.757.462.408.49.543.838.202.776.202 1.285v.355h-4.204v-.724h3.352c0-.308-.061-.582-.185-.824s-.293-.432-.518-.572-.485-.209-.788-.209c-.334 0-.623.083-.867.249s-.427.376-.557.639-.196.544-.196.845v.483c0 .412.071.761.213 1.048a1.54 1.54 0 0 0 .601.65c.255.147.552.22.891.22a1.81 1.81 0 0 0 .596-.092 1.29 1.29 0 0 0 .466-.284c.13-.128.23-.287.301-.476l.81.227c-.085.275-.228.516-.43.724s-.449.367-.745.483-.629.17-.998.17zm5.593 0c-.455 0-.856-.115-1.204-.344a2.33 2.33 0 0 1-.817-.98c-.196-.424-.294-.924-.294-1.502s.098-1.07.294-1.491.47-.747.821-.977.755-.344 1.214-.344c.355 0 .636.059.842.178s.367.249.476.398l.259.362h.071v-2.685h.838V49h-.81v-.838h-.099a5.42 5.42 0 0 1-.263.377 1.57 1.57 0 0 1-.486.401c-.211.116-.492.174-.842.174zm.114-.753c.336 0 .62-.088.852-.263s.408-.423.529-.735.181-.678.181-1.09-.059-.764-.178-1.069-.293-.547-.525-.717-.519-.259-.859-.259c-.356 0-.652.091-.888.273a1.63 1.63 0 0 0-.529.735c-.116.308-.174.653-.174 1.037s.059.741.177 1.058.298.566.533.753.53.277.881.277z" class="E"/><path d="M56.799 40.727h1.332l2.315 5.653h.085l2.315-5.653h1.332V48h-1.044v-5.263h-.067l-2.145 5.252h-.867l-2.145-5.256h-.067V48h-1.044v-7.273zm9.738 0l1.74 2.844h.057l1.74-2.844h1.271l-2.266 3.636L71.36 48h-1.278l-1.747-2.805h-.057L66.53 48h-1.278l2.319-3.636-2.305-3.636h1.271zm5.645 5.852v-.888l3.143-4.965h.7v1.307h-.444l-2.248 3.558v.057h4.308v.93h-5.458zM75.63 48v-1.69l.007-.405v-5.178h1.041V48H75.63zm5.779.099c-.488 0-.923-.084-1.307-.252s-.683-.401-.906-.7-.338-.649-.355-1.044h1.115a.96.96 0 0 0 .217.561c.132.156.305.277.518.362s.45.128.71.128a1.83 1.83 0 0 0 .76-.149c.223-.099.397-.238.522-.415a1.06 1.06 0 0 0 .188-.621c0-.244-.063-.458-.188-.643s-.304-.334-.543-.44-.523-.16-.859-.16h-.614v-.895h.614c.27 0 .507-.049.71-.146s.367-.232.483-.405.174-.38.174-.614c0-.225-.051-.42-.153-.586s-.242-.3-.426-.394-.398-.142-.646-.142a1.68 1.68 0 0 0-.664.131c-.204.085-.369.208-.497.369a.95.95 0 0 0-.206.572h-1.062c.012-.393.128-.739.348-1.037a2.25 2.25 0 0 1 .881-.7c.365-.168.769-.252 1.215-.252.466 0 .869.091 1.207.273a1.99 1.99 0 0 1 .788.721 1.81 1.81 0 0 1 .277.987c.002.407-.111.753-.341 1.037s-.53.475-.909.572v.057c.483.073.857.265 1.122.575s.4.695.398 1.154c.002.4-.109.759-.334 1.076s-.527.567-.913.749-.827.27-1.325.27zm3.761-1.52v-.888l3.143-4.965h.7v1.307h-.444l-2.248 3.558v.057h4.308v.93H85.17zM88.618 48v-1.69l.007-.405v-5.178h1.04V48h-1.048zm5.779.099c-.488 0-.923-.084-1.307-.252s-.683-.401-.906-.7-.338-.649-.355-1.044h1.115a.96.96 0 0 0 .217.561c.133.156.305.277.518.362s.45.128.71.128a1.83 1.83 0 0 0 .76-.149c.222-.099.396-.238.522-.415a1.06 1.06 0 0 0 .188-.621c0-.244-.063-.458-.188-.643s-.304-.334-.543-.44-.523-.16-.859-.16h-.614v-.895h.614c.27 0 .507-.049.71-.146s.367-.232.483-.405.174-.38.174-.614c0-.225-.051-.42-.153-.586s-.242-.3-.426-.394-.398-.142-.646-.142a1.68 1.68 0 0 0-.664.131c-.204.085-.369.208-.497.369a.95.95 0 0 0-.206.572h-1.062c.012-.393.128-.739.348-1.037a2.25 2.25 0 0 1 .881-.7c.365-.168.769-.252 1.215-.252.466 0 .869.091 1.207.273a1.99 1.99 0 0 1 .788.721 1.81 1.81 0 0 1 .277.987c.002.407-.111.753-.341 1.037s-.53.475-.909.572v.057c.483.073.857.265 1.122.575s.4.695.398 1.154c.002.4-.109.759-.334 1.076s-.527.567-.913.749-.827.27-1.325.27z" class="G"/><circle cx="213.5" cy="45.5" r="1.5" fill="#72cf70"/><path d="M216 45.5a2.5 2.5 0 1 1-5 0 2.5 2.5 0 1 1 5 0z" fill="#53ee50" fill-opacity=".35"/><path d="M242.297 127.002c0-2.061-1.671-3.733-3.733-3.733s-3.733 1.672-3.733 3.733 1.671 3.734 3.733 3.734 3.733-1.672 3.733-3.734zm56.908 0v-.7h-60.641v.7.7h60.641v-.7z" fill="url(#D)"/><g filter="url(#B)" class="B"><rect x="298.205" y="65.114" width="304" height="132.8" rx="7"/></g><path stroke="#e3e3e3" d="M298.205 148.063l302.4.001" class="D"/><path d="M389.402 126.114v-9.953h3.295c1.094 0 1.935.275 2.523.827s.882 1.276.882 2.187-.294 1.648-.882 2.208-1.429.834-2.523.834h-1.982v3.897h-1.313zm1.313-4.977h1.982c.775 0 1.317-.189 1.627-.567s.465-.848.465-1.395-.155-1.005-.465-1.374-.852-.56-1.627-.56h-1.982v3.896zm6.672 2.427v-4.642h1.271v4.656c0 .574.128.986.383 1.237s.627.369 1.101.369c.405 0 .763-.109 1.073-.328s.551-.501.724-.848v-5.086h1.272v7.192h-1.149l-.054-.923h-.041a2.84 2.84 0 0 1-.957.779c-.374.187-.789.28-1.244.28-.725 0-1.304-.205-1.737-.615s-.642-1.105-.642-2.071zm7.847 2.55v-7.192h1.149l.055.923h.041a2.89 2.89 0 0 1 .922-.772c.365-.192.768-.287 1.21-.287.483 0 .9.095 1.251.287s.618.501.8.929h.041c.301-.428.634-.738.998-.929a2.67 2.67 0 0 1 1.258-.287c.747 0 1.331.207 1.75.622.419.41.629 1.098.629 2.064v4.642h-1.272v-4.656c0-.574-.123-.984-.369-1.23s-.594-.376-1.046-.376c-.392 0-.736.109-1.032.328a2.35 2.35 0 0 0-.697.848v5.086h-1.272v-4.656c0-.574-.123-.984-.369-1.23s-.594-.376-1.046-.376c-.392 0-.736.109-1.032.328a2.35 2.35 0 0 0-.697.848v5.086h-1.272zm12.059 2.844v-10.036h1.148l.055.937h.041c.182-.296.46-.549.834-.759s.818-.314 1.319-.314c.912 0 1.641.341 2.188 1.025s.82 1.55.82 2.598v.218c0 1.049-.273 1.915-.82 2.598s-1.276 1.025-2.188 1.025c-.501 0-.929-.088-1.285-.266a2.32 2.32 0 0 1-.841-.718v3.692h-1.271zm1.271-4.977c.142.319.372.604.691.854s.706.376 1.162.376c.684 0 1.185-.248 1.504-.745s.478-1.109.478-1.839v-.218c0-.729-.159-1.342-.478-1.839s-.82-.745-1.504-.745c-.456 0-.843.125-1.162.376a2.26 2.26 0 0 0-.691.854v2.926zm6.501-1.586v-1.176h3.856v1.176h-3.856zm5.497.506v-6.74h1.312v6.74c0 .775.21 1.351.629 1.729s.977.568 1.661.568 1.235-.189 1.654-.568.636-.954.636-1.729v-6.74h1.313v6.74c0 1.139-.351 1.994-1.053 2.563s-1.547.855-2.55.855-1.855-.285-2.557-.855-1.045-1.424-1.045-2.563zm9.276 3.213v-7.192h1.148l.055.923h.041a2.8 2.8 0 0 1 .95-.772c.378-.192.795-.287 1.251-.287.725 0 1.301.207 1.73.622.433.41.649 1.098.649 2.064v4.642h-1.271v-4.656c0-.574-.13-.984-.39-1.23s-.62-.376-1.094-.376c-.405 0-.763.109-1.073.328a2.26 2.26 0 0 0-.725.848v5.086h-1.271zm7.349-3.487v-.218c0-1.048.273-1.914.82-2.598s1.276-1.025 2.187-1.025c.502 0 .928.091 1.279.273s.638.415.847.711v-4.156h1.272v10.5h-1.149l-.054-.937h-.041c-.183.296-.463.549-.841.759s-.811.314-1.313.314c-.911 0-1.64-.341-2.187-1.025s-.82-1.549-.82-2.598zm1.298 0c0 .73.16 1.343.479 1.839s.82.745 1.504.745c.456 0 .843-.125 1.162-.376a2.24 2.24 0 0 0 .69-.854v-2.926a2.24 2.24 0 0 0-.69-.854c-.319-.251-.706-.376-1.162-.376-.684 0-1.185.248-1.504.745s-.479 1.11-.479 1.839v.218zm6.7 0v-.218c0-1.085.296-1.971.888-2.659s1.386-1.033 2.365-1.033 1.735.322 2.263.964.793 1.511.793 2.605v.519h-5.53v-1.012h4.252v-.164c0-.519-.148-.961-.445-1.326s-.722-.547-1.278-.547c-.674 0-1.178.258-1.511.773s-.499 1.137-.499 1.88v.218c0 .743.176 1.372.527 1.887s.895.766 1.634.766c.455 0 .847-.1 1.175-.301s.595-.437.8-.711l.82.649c-.227.342-.581.661-1.059.958s-1.053.444-1.736.444c-1.117 0-1.974-.344-2.571-1.032-.592-.689-.888-1.575-.888-2.66zm7.868 3.487v-7.192h1.148l.055.923h.041c.182-.301.421-.563.718-.786s.649-.342 1.059-.342a1.61 1.61 0 0 1 .315.034c.109.023.187.044.232.062v1.176a2.75 2.75 0 0 0-.287-.041l-.328-.014c-.41 0-.759.107-1.046.321a1.94 1.94 0 0 0-.636.8v5.059h-1.271zm4.484 1.941l.8-.957c.2.233.483.438.848.615a2.7 2.7 0 0 0 1.23.274c.615 0 1.101-.176 1.456-.527s.533-.845.533-1.483v-.711c-.209.296-.492.536-.847.718s-.777.266-1.279.266c-.911 0-1.64-.341-2.187-1.025s-.82-1.549-.82-2.598v-.218c0-1.048.273-1.914.82-2.598s1.276-1.025 2.187-1.025c.502 0 .939.104 1.313.314s.658.463.841.759h.041l.054-.937h1.149v7.055c0 1.003-.299 1.773-.896 2.311s-1.374.806-2.331.806c-.592 0-1.139-.098-1.64-.294s-.926-.444-1.272-.745zm1.032-5.428c0 .73.16 1.343.479 1.839s.82.745 1.504.745c.455 0 .843-.125 1.162-.376a2.24 2.24 0 0 0 .69-.854v-2.926a2.24 2.24 0 0 0-.69-.854c-.319-.251-.707-.376-1.162-.376-.684 0-1.185.248-1.504.745s-.479 1.11-.479 1.839v.218zm7.13 3.487v-7.192h1.149l.054.923h.041a2.8 2.8 0 0 1 .718-.786c.296-.228.65-.342 1.06-.342.1 0 .205.012.314.034s.187.044.233.062v1.176a2.77 2.77 0 0 0-.288-.041l-.328-.014c-.41 0-.758.107-1.046.321a1.92 1.92 0 0 0-.635.8v5.059h-1.272zm4.218-3.487v-.218c0-1.085.308-1.971.923-2.659s1.438-1.033 2.468-1.033 1.852.344 2.467 1.033.923 1.574.923 2.659v.218c0 1.085-.307 1.971-.923 2.66s-1.437 1.032-2.467 1.032-1.853-.344-2.468-1.032-.923-1.575-.923-2.66zm1.299-.218v.218c0 .743.175 1.372.526 1.887s.873.766 1.566.766 1.214-.255 1.565-.766.526-1.144.526-1.887v-.218c0-.743-.175-1.37-.526-1.88s-.873-.773-1.565-.773-1.215.258-1.566.773-.526 1.137-.526 1.88zm7.007 1.155v-4.642h1.271v4.656c0 .574.128.986.383 1.237s.627.369 1.101.369c.405 0 .763-.109 1.073-.328s.551-.501.724-.848v-5.086h1.272v7.192h-1.149l-.054-.923h-.041a2.84 2.84 0 0 1-.957.779c-.374.187-.789.28-1.244.28-.725 0-1.304-.205-1.737-.615s-.642-1.105-.642-2.071zm7.847 2.55v-7.192h1.149l.054.923h.041a2.79 2.79 0 0 1 .951-.772c.378-.192.795-.287 1.251-.287.724 0 1.301.207 1.729.622.433.41.65 1.098.65 2.064v4.642h-1.272v-4.656c0-.574-.13-.984-.39-1.23s-.619-.376-1.093-.376c-.406 0-.764.109-1.074.328s-.551.501-.724.848v5.086h-1.272zm7.349-3.487v-.218c0-1.048.273-1.914.82-2.598s1.276-1.025 2.188-1.025c.501 0 .927.091 1.278.273a2.25 2.25 0 0 1 .848.711v-4.156h1.271v10.5h-1.148l-.055-.937h-.041c-.182.296-.462.549-.841.759-.373.21-.811.314-1.312.314-.912 0-1.641-.341-2.188-1.025s-.82-1.549-.82-2.598zm1.299 0c0 .73.159 1.343.478 1.839s.821.745 1.504.745c.456 0 .843-.125 1.162-.376a2.26 2.26 0 0 0 .691-.854v-2.926c-.142-.319-.372-.604-.691-.854s-.706-.376-1.162-.376c-.683 0-1.185.248-1.504.745s-.478 1.11-.478 1.839v.218zm-76.197-28.113V83.139h1.875l4.766 7.688.274.461c.083.151.153.3.21.445h.063l-.016-.523v-.516-7.555h1.657v11.375h-1.899l-4.75-7.672-.273-.461-.219-.445h-.055l.016.531.008.523v7.523h-1.657zm10.758-2.406c0-.854.336-1.51 1.008-1.969.672-.464 1.526-.695 2.563-.695h1.765v-.539c0-.448-.117-.812-.351-1.094s-.633-.422-1.211-.422-.982.117-1.227.352-.367.51-.367.828v.07h-1.711v-.078c0-.677.305-1.255.914-1.734.615-.479 1.432-.719 2.453-.719s1.815.232 2.383.695.852 1.167.852 2.109v3.742c0 .333.026.651.078.953a4.02 4.02 0 0 0 .226.781v.125h-1.687a2.47 2.47 0 0 1-.188-.492 4.47 4.47 0 0 1-.109-.609c-.177.328-.484.62-.922.875s-.992.383-1.664.383c-.786 0-1.451-.216-1.992-.648s-.813-1.076-.813-1.914zm1.735-.117c0 .432.125.773.375 1.023s.638.367 1.164.367c.547 0 1.026-.182 1.437-.547.417-.365.625-.766.625-1.203v-1.039h-1.547c-.682 0-1.195.125-1.539.375s-.515.586-.515 1.023zm7.515 2.523v-8.18h1.602l.055 1.023h.046a2.91 2.91 0 0 1 1.032-.867 2.95 2.95 0 0 1 1.351-.312c.558 0 1.039.115 1.446.344s.71.575.914 1.055h.039c.317-.479.695-.831 1.132-1.055a3.12 3.12 0 0 1 1.469-.344c.834 0 1.492.242 1.977.727.489.479.734 1.286.734 2.422v5.188h-1.734v-5.242c0-.599-.128-1.031-.383-1.297s-.62-.398-1.094-.398a1.79 1.79 0 0 0-1.086.344 2.42 2.42 0 0 0-.734.914v5.68h-1.734v-5.234c0-.604-.128-1.039-.383-1.305s-.623-.398-1.102-.398c-.411 0-.771.115-1.078.344a2.42 2.42 0 0 0-.734.914v5.68h-1.735zm13.438-3.969v-.25c0-1.24.351-2.247 1.054-3.023.704-.781 1.625-1.172 2.766-1.172s2.024.365 2.649 1.094.937 1.713.937 2.969v.664h-6.305v-1.242h4.578v-.18c.006-.542-.151-1.003-.468-1.383-.313-.385-.766-.578-1.36-.578-.703 0-1.231.266-1.586.797-.349.531-.523 1.203-.523 2.016v.328c0 .813.187 1.484.562 2.016s.946.797 1.711.797c.495 0 .92-.112 1.274-.336a3.07 3.07 0 0 0 .859-.789l1.172.836c-.26.427-.674.807-1.242 1.141s-1.245.5-2.047.5c-1.286 0-2.281-.388-2.984-1.164-.698-.781-1.047-1.794-1.047-3.039z" class="F"/><path d="M512.954 172.651v-.629c0-1.531.392-2.725 1.176-3.582s1.798-1.285 3.028-1.285 2.238.429 3.022 1.285 1.182 2.051 1.182 3.582v.629c0 1.532-.394 2.726-1.182 3.582s-1.791 1.286-3.022 1.286-2.24-.429-3.028-1.286-1.176-2.05-1.176-3.582zm1.326 0c0 1.167.262 2.083.786 2.748s1.226.998 2.092.998 1.561-.332 2.085-.998.793-1.581.793-2.748v-.629c0-1.166-.264-2.082-.793-2.748a2.52 2.52 0 0 0-2.085-.998 2.54 2.54 0 0 0-2.092.998c-.524.666-.786 1.582-.786 2.748v.629zm8.88 4.662v-10.5h1.272v6.618l3.076-3.309h1.442l-4.518 4.799v2.392h-1.272zm4.635 0l-2.803-3.718.793-.875 3.5 4.593h-1.49zm1.996-2.119c0-.729.289-1.296.868-1.702s1.315-.608 2.208-.608h1.627v-.492c0-.433-.112-.784-.335-1.053s-.608-.41-1.155-.41-.939.114-1.176.342a1.05 1.05 0 0 0-.349.779v.034h-1.264v-.034c0-.57.253-1.067.759-1.49.51-.429 1.198-.643 2.064-.643s1.536.207 2.01.622.718 1.032.718 1.853v3.281c0 .296.022.576.068.841a3.39 3.39 0 0 0 .191.69v.109h-1.23c-.064-.113-.123-.262-.178-.444a2.89 2.89 0 0 1-.096-.547c-.168.296-.442.559-.82.786s-.857.342-1.449.342c-.684 0-1.265-.193-1.743-.581s-.718-.945-.718-1.675zm1.271-.068c0 .41.119.731.356.964s.606.348 1.107.348.955-.173 1.361-.519.608-.713.608-1.101v-1.032h-1.49c-.638 0-1.121.121-1.449.362s-.493.568-.493.978zm5.907 5.031v-1.08a2.77 2.77 0 0 0 .396.089 2.72 2.72 0 0 0 .424.034c.319 0 .597-.121.834-.362s.488-.754.752-1.552v-.007l-2.68-7.157h1.231l1.702 4.731.171.512.13.445h.041l.136-.445.171-.512 1.586-4.731h1.203l-2.919 8.149c-.227.638-.53 1.134-.909 1.49-.373.355-.834.533-1.381.533-.182 0-.344-.011-.485-.034s-.276-.057-.403-.103z" fill="#3c3b3b"/><path d="M354.991 172.651v-.629c0-1.531.392-2.725 1.176-3.582s1.775-1.285 2.96-1.285 2.112.326 2.782.978c.675.647 1.012 1.429 1.012 2.345v.068h-1.313v-.068c0-.634-.205-1.158-.615-1.573s-1.032-.629-1.866-.629a2.54 2.54 0 0 0-2.017.923c-.528.615-.793 1.557-.793 2.823v.629c0 1.167.262 2.083.787 2.748s1.203.998 2.023.998c.784 0 1.376-.211 1.777-.635s.634-.946.698-1.566l.006-.068h1.313l-.007.068a3.85 3.85 0 0 1-1.073 2.345c-.625.652-1.529.978-2.714.978a3.85 3.85 0 0 1-2.96-1.286c-.784-.856-1.176-2.05-1.176-3.582zm9.126 2.543a1.96 1.96 0 0 1 .868-1.702c.579-.405 1.315-.608 2.208-.608h1.627v-.492c0-.433-.111-.784-.335-1.053s-.608-.41-1.155-.41-.939.114-1.176.342c-.232.223-.348.483-.348.779v.034h-1.265v-.034c0-.57.253-1.067.759-1.49.51-.429 1.198-.643 2.064-.643s1.536.207 2.01.622.718 1.032.718 1.853v3.281c0 .296.023.576.068.841.046.259.11.49.192.69v.109h-1.231c-.064-.113-.123-.262-.178-.444a2.81 2.81 0 0 1-.095-.547c-.169.296-.442.559-.821.786-.373.228-.856.342-1.449.342-.683 0-1.265-.193-1.743-.581s-.718-.945-.718-1.675zm1.272-.068c0 .41.118.731.355.964s.606.348 1.108.348.954-.173 1.36-.519.608-.713.608-1.101v-1.032h-1.49c-.638 0-1.121.121-1.449.362a1.15 1.15 0 0 0-.492.978zm6.685 2.187v-7.191h1.149l.054.923h.041c.26-.328.577-.586.951-.773s.795-.287 1.251-.287c.724 0 1.301.208 1.729.622s.649 1.099.649 2.065v4.641h-1.271v-4.655c0-.574-.13-.984-.39-1.23s-.619-.376-1.093-.376c-.406 0-.764.109-1.074.328s-.551.501-.724.848v5.085h-1.272zm7.349-3.486v-.219c0-1.084.294-1.971.882-2.659s1.406-1.032 2.44-1.032c.957 0 1.684.26 2.181.779s.745 1.092.745 1.73v.034h-1.231v-.034a1.48 1.48 0 0 0-.403-1.026c-.269-.296-.699-.444-1.292-.444-.693 0-1.203.258-1.531.773-.328.51-.492 1.137-.492 1.879v.219c0 .743.164 1.372.492 1.887s.838.765 1.531.765c.593 0 1.023-.148 1.292-.444s.403-.638.403-1.025v-.034h1.231v.034c0 .638-.248 1.217-.745 1.736s-1.224.773-2.181.773c-1.034 0-1.848-.345-2.44-1.033s-.882-1.574-.882-2.659zm7.301 0v-.219c0-1.084.296-1.971.888-2.659s1.386-1.032 2.366-1.032 1.734.321 2.262.964.793 1.511.793 2.604v.52h-5.53v-1.012h4.252v-.164c0-.519-.148-.961-.444-1.326s-.723-.547-1.279-.547c-.674 0-1.178.258-1.511.773-.332.51-.499 1.137-.499 1.879v.219c0 .743.176 1.372.527 1.887s.895.765 1.634.765c.455 0 .847-.1 1.175-.3s.595-.438.8-.711l.821.649c-.228.342-.582.661-1.06.957s-1.053.445-1.736.445c-1.117 0-1.974-.345-2.571-1.033s-.888-1.574-.888-2.659zm7.922 3.486v-10.5h1.272v10.5h-1.272z" fill-opacity=".81" class="G"/><path stroke="#e3e3e3" d="M450.455 148.313v49.6" class="D"/><g class="E"><path d="M28.416 94.514a2.57 2.57 0 0 0-.309-.643 2.07 2.07 0 0 0-.451-.49 1.89 1.89 0 0 0-.59-.309 2.35 2.35 0 0 0-.724-.106 2.15 2.15 0 0 0-1.175.334c-.352.223-.633.55-.842.984s-.312.965-.312 1.595.105 1.161.316 1.594.496.761.856.984a2.26 2.26 0 0 0 1.215.334c.417 0 .784-.089 1.101-.266a1.89 1.89 0 0 0 .746-.76c.18-.329.27-.716.27-1.161l.27.057H26.6v-.781h2.77v.781c0 .599-.128 1.12-.384 1.563a2.65 2.65 0 0 1-1.051 1.03c-.445.242-.956.362-1.534.362-.644 0-1.21-.151-1.697-.454s-.864-.734-1.136-1.293-.405-1.221-.405-1.989c0-.575.077-1.093.231-1.552s.376-.855.661-1.179a2.89 2.89 0 0 1 1.008-.746c.388-.173.816-.259 1.282-.259.384 0 .741.058 1.072.174a2.88 2.88 0 0 1 .891.487 2.77 2.77 0 0 1 .657.749c.175.289.296.61.362.962h-.909zm4.633 5.114c-.526 0-.979-.116-1.36-.348s-.671-.561-.877-.98-.305-.912-.305-1.47.102-1.051.305-1.477a2.4 2.4 0 0 1 .859-1.001c.367-.239.8-.362 1.293-.362a2.59 2.59 0 0 1 .842.142c.277.095.529.249.756.462a2.23 2.23 0 0 1 .543.838c.135.348.202.776.202 1.285v.355h-4.204v-.724h3.352a1.79 1.79 0 0 0-.185-.824 1.39 1.39 0 0 0-.518-.572 1.45 1.45 0 0 0-.788-.21c-.334 0-.623.083-.867.249a1.64 1.64 0 0 0-.558.639 1.88 1.88 0 0 0-.195.845v.483c0 .412.071.761.213 1.047s.345.501.6.65.553.22.891.22c.22 0 .419-.031.597-.092s.335-.159.465-.284a1.29 1.29 0 0 0 .302-.476l.81.227a1.79 1.79 0 0 1-.43.724c-.201.208-.45.367-.746.483s-.629.17-.998.17zm4.371-3.395v3.281h-.838v-5.455h.81v.852h.071c.128-.277.322-.499.582-.668s.597-.256 1.009-.256c.369 0 .692.076.969.227a1.53 1.53 0 0 1 .646.682c.154.303.231.686.231 1.151v3.466h-.838v-3.409c0-.428-.111-.762-.334-1.001s-.528-.362-.916-.362a1.46 1.46 0 0 0-.717.174c-.208.116-.373.285-.494.508s-.181.492-.181.81zm7.299 3.395c-.526 0-.979-.116-1.36-.348s-.671-.561-.877-.98-.305-.912-.305-1.47.102-1.051.305-1.477a2.4 2.4 0 0 1 .859-1.001c.367-.239.8-.362 1.293-.362a2.59 2.59 0 0 1 .842.142c.277.095.529.249.756.462a2.23 2.23 0 0 1 .543.838c.135.348.202.776.202 1.285v.355h-4.204v-.724h3.352a1.79 1.79 0 0 0-.185-.824 1.39 1.39 0 0 0-.519-.572 1.45 1.45 0 0 0-.788-.21c-.334 0-.623.083-.867.249a1.63 1.63 0 0 0-.557.639 1.88 1.88 0 0 0-.195.845v.483c0 .412.071.761.213 1.047s.345.501.6.65.553.22.891.22c.22 0 .419-.031.597-.092s.335-.159.465-.284a1.29 1.29 0 0 0 .302-.476l.81.227a1.78 1.78 0 0 1-.43.724c-.202.208-.45.367-.746.483s-.629.17-.998.17zm3.533-.114v-5.455h.81v.824h.057a1.31 1.31 0 0 1 .54-.657 1.59 1.59 0 0 1 .881-.252l.231.004.209.011v.852c-.028-.007-.093-.018-.195-.032a1.92 1.92 0 0 0-.316-.025c-.265 0-.502.056-.71.167a1.26 1.26 0 0 0-.49.454 1.23 1.23 0 0 0-.178.657v3.452h-.838zm5.326.128a2.22 2.22 0 0 1-.941-.195c-.282-.13-.505-.323-.671-.572s-.249-.554-.249-.909c0-.312.062-.566.185-.76a1.33 1.33 0 0 1 .494-.462c.206-.112.433-.194.682-.249l.756-.135.806-.096c.208-.024.36-.063.454-.117s.146-.149.146-.284v-.028c0-.35-.096-.623-.288-.817s-.477-.291-.863-.291c-.4 0-.714.088-.941.263s-.387.362-.479.561l-.795-.284c.142-.331.331-.589.568-.774a2.13 2.13 0 0 1 .781-.391 3.23 3.23 0 0 1 .838-.114 3.3 3.3 0 0 1 .604.064 1.93 1.93 0 0 1 .664.252 1.48 1.48 0 0 1 .536.579c.142.258.213.604.213 1.037v3.594h-.838v-.739h-.043c-.057.118-.151.245-.284.38s-.309.25-.529.344-.489.142-.806.142zm.128-.753c.331 0 .611-.065.838-.195a1.33 1.33 0 0 0 .519-.504 1.29 1.29 0 0 0 .177-.65v-.767c-.035.043-.114.082-.234.117a3.98 3.98 0 0 1-.412.089l-.451.064-.352.043c-.218.028-.421.075-.611.139s-.339.155-.455.28-.17.291-.17.504c0 .291.108.511.323.66s.494.22.828.22zm4.74-6.648v7.273h-.838v-7.273h.838zm-29.15 198.273h-.881a1.83 1.83 0 0 0-.273-.668c-.13-.192-.284-.353-.469-.483a2.08 2.08 0 0 0-.607-.298 2.43 2.43 0 0 0-.696-.1c-.44 0-.839.112-1.197.334s-.638.551-.849.984-.312.965-.312 1.594.104 1.162.313 1.595.494.761.849.983.756.334 1.197.334c.241 0 .474-.033.696-.099s.425-.165.607-.295a1.89 1.89 0 0 0 .469-.486c.13-.195.221-.417.273-.668h.881c-.066.372-.187.704-.362.998s-.393.543-.653.749a2.84 2.84 0 0 1-.877.465c-.322.107-.666.16-1.033.16-.62 0-1.172-.151-1.655-.454s-.863-.734-1.14-1.293-.416-1.222-.416-1.989.139-1.43.416-1.988.657-.99 1.14-1.293 1.035-.454 1.655-.454c.367 0 .711.053 1.033.159a2.83 2.83 0 0 1 .877.469 2.68 2.68 0 0 1 .653.746c.175.291.296.624.362.998zm3.525 5.113c-.492 0-.925-.117-1.296-.351s-.658-.563-.867-.984-.309-.914-.309-1.477.103-1.064.309-1.488a2.36 2.36 0 0 1 .867-.987c.37-.234.804-.352 1.296-.352s.923.117 1.293.352.66.563.866.987.313.92.313 1.488-.104 1.056-.312 1.477a2.38 2.38 0 0 1-.866.984c-.371.235-.8.351-1.293.351zm0-.753c.374 0 .682-.095.923-.287a1.7 1.7 0 0 0 .536-.757c.116-.313.174-.651.174-1.015a2.92 2.92 0 0 0-.174-1.019 1.72 1.72 0 0 0-.536-.764c-.241-.194-.549-.291-.923-.291s-.682.097-.923.291a1.72 1.72 0 0 0-.536.764 2.92 2.92 0 0 0-.174 1.019c0 .364.058.703.174 1.015s.295.565.536.757.549.287.923.287zm4.589-2.642v3.282h-.838v-5.455h.81v.852h.071a1.56 1.56 0 0 1 .582-.667c.26-.168.597-.256 1.008-.256.369 0 .693.076.97.227s.492.377.646.682.231.687.231 1.151v3.466h-.838v-3.409c0-.429-.111-.763-.334-1.002s-.528-.362-.916-.362a1.46 1.46 0 0 0-.717.174c-.21.116-.373.285-.494.508s-.181.492-.181.809zm7.441-2.173v.71h-2.94v-.71h2.94zm-2.06 5.455v-6.208c0-.312.073-.573.22-.781s.337-.365.572-.469a1.81 1.81 0 0 1 .742-.156c.206 0 .374.017.504.05s.227.064.291.092l-.242.725-.178-.054c-.073-.021-.17-.032-.291-.032-.277 0-.477.07-.6.21s-.181.344-.181.614v6.009h-.838zm3.234 0v-5.455h.838v5.455h-.838zm.426-6.364a.6.6 0 0 1-.423-.167c-.119-.111-.174-.245-.174-.401s.058-.29.174-.401.259-.167.423-.167a.58.58 0 0 1 .419.167.53.53 0 0 1 .178.401.53.53 0 0 1-.178.401c-.116.111-.256.167-.419.167zm4.149 8.523c-.405 0-.753-.052-1.044-.156a2.22 2.22 0 0 1-.728-.405 2.21 2.21 0 0 1-.458-.533l.668-.469a5.17 5.17 0 0 0 .288.341 1.47 1.47 0 0 0 .476.338c.201.095.47.145.799.145.44 0 .804-.106 1.09-.319s.43-.547.43-1.002v-1.108h-.071c-.061.1-.149.223-.263.369a1.49 1.49 0 0 1-.483.388c-.208.111-.49.166-.845.166-.44 0-.836-.104-1.186-.312s-.624-.511-.828-.909-.302-.881-.302-1.449c0-.559.098-1.045.295-1.46s.47-.738.82-.965.755-.345 1.214-.345c.355 0 .637.059.845.178a1.48 1.48 0 0 1 .483.397l.263.363h.085v-.867h.81v5.611c0 .469-.107.85-.32 1.143a1.85 1.85 0 0 1-.852.65 3.28 3.28 0 0 1-1.186.21zm-.028-2.997c.336 0 .62-.077.852-.231s.408-.375.529-.664.181-.635.181-1.037a2.83 2.83 0 0 0-.178-1.041 1.56 1.56 0 0 0-.525-.706c-.232-.171-.519-.256-.859-.256-.355 0-.651.09-.888.27a1.62 1.62 0 0 0-.529.724 2.8 2.8 0 0 0-.174 1.009c0 .379.059.714.178 1.005a1.54 1.54 0 0 0 .533.682c.237.163.53.245.881.245zm7.358-1.392v-3.225h.838v5.455h-.838v-.924h-.057a1.79 1.79 0 0 1-.597.707c-.27.192-.611.288-1.023.288-.341 0-.644-.075-.909-.224a1.55 1.55 0 0 1-.625-.682c-.151-.303-.227-.69-.227-1.154v-3.466h.838v3.409c0 .398.111.715.334.952s.511.355.859.355a1.42 1.42 0 0 0 .636-.16c.218-.106.4-.27.547-.49s.224-.501.224-.841zm2.373 2.23v-5.455h.81v.824h.057c.099-.27.279-.489.54-.657a1.59 1.59 0 0 1 .881-.252l.231.003.21.011v.852a3.05 3.05 0 0 0-.195-.032 1.99 1.99 0 0 0-.316-.024c-.265 0-.502.055-.71.166a1.26 1.26 0 0 0-.49.455 1.23 1.23 0 0 0-.178.657v3.452h-.838zm5.842.113c-.526 0-.979-.116-1.36-.348s-.671-.561-.877-.98-.305-.911-.305-1.47.102-1.051.305-1.477.492-.763.859-1.002.8-.362 1.293-.362a2.58 2.58 0 0 1 .842.142 2.09 2.09 0 0 1 .756.462c.227.21.408.49.543.838s.202.776.202 1.285v.355h-4.204v-.724h3.352a1.79 1.79 0 0 0-.185-.824 1.4 1.4 0 0 0-.519-.572c-.225-.14-.485-.209-.788-.209-.334 0-.623.083-.867.249a1.63 1.63 0 0 0-.558.639 1.88 1.88 0 0 0-.195.845v.483c0 .412.071.761.213 1.047a1.53 1.53 0 0 0 .6.65c.256.147.553.22.891.22.22 0 .419-.03.597-.092a1.27 1.27 0 0 0 .465-.284 1.29 1.29 0 0 0 .302-.476l.81.227a1.78 1.78 0 0 1-.43.725c-.202.208-.45.367-.746.483a2.78 2.78 0 0 1-.998.17zm-36.934 83.614v7.273h-.852l-3.963-5.711h-.071v5.711h-.881v-7.273h.852l3.977 5.724h.071v-5.724h.867zm3.936 7.386c-.526 0-.979-.116-1.36-.348s-.671-.561-.877-.98-.305-.911-.305-1.47.102-1.051.305-1.477.492-.763.859-1.002.8-.362 1.293-.362a2.58 2.58 0 0 1 .842.142 2.09 2.09 0 0 1 .756.462c.227.21.408.49.543.838s.202.776.202 1.285v.355H31.2v-.724h3.352a1.79 1.79 0 0 0-.185-.824c-.121-.241-.293-.432-.518-.572s-.485-.209-.788-.209c-.334 0-.623.083-.867.249a1.63 1.63 0 0 0-.558.639 1.88 1.88 0 0 0-.195.845v.483c0 .412.071.761.213 1.047a1.53 1.53 0 0 0 .6.65c.256.147.553.22.891.22a1.8 1.8 0 0 0 .596-.092 1.27 1.27 0 0 0 .465-.284 1.29 1.29 0 0 0 .302-.476l.81.227a1.79 1.79 0 0 1-.43.725c-.201.206-.45.367-.746.483a2.78 2.78 0 0 1-.998.17zm5.906-5.568v.71h-2.827v-.71h2.827zm-2.003-1.307h.838v5.199c0 .237.034.414.103.533a.53.53 0 0 0 .27.234 1.08 1.08 0 0 0 .352.057 1.55 1.55 0 0 0 .227-.014l.142-.029.17.753c-.057.022-.136.043-.238.064a1.73 1.73 0 0 1-.387.036 1.68 1.68 0 0 1-.696-.153 1.37 1.37 0 0 1-.561-.465c-.149-.208-.22-.471-.22-.789v-5.426zm4.499 6.762l-1.662-5.455h.881l1.179 4.176h.057l1.165-4.176h.895l1.151 4.162h.057l1.179-4.162h.881l-1.662 5.455h-.824l-1.193-4.191h-.085l-1.193 4.191h-.824zm8.92.113c-.492 0-.925-.117-1.296-.351s-.658-.563-.866-.984-.309-.914-.309-1.477.103-1.064.309-1.488.497-.753.866-.987.804-.352 1.296-.352.923.117 1.293.352.66.563.867.987.313.92.313 1.488-.104 1.056-.312 1.477-.495.749-.867.984-.8.351-1.293.351zm0-.753c.374 0 .682-.095.923-.287a1.7 1.7 0 0 0 .536-.757c.116-.313.174-.651.174-1.015a2.92 2.92 0 0 0-.174-1.019 1.72 1.72 0 0 0-.536-.764c-.241-.194-.549-.291-.923-.291s-.682.097-.923.291a1.72 1.72 0 0 0-.536.764 2.92 2.92 0 0 0-.174 1.019c0 .364.058.703.174 1.015s.295.565.536.757.549.287.923.287zm3.751.64v-5.455h.81v.824h.057c.099-.27.279-.489.54-.657a1.59 1.59 0 0 1 .881-.252l.231.003.21.011v.852a3.03 3.03 0 0 0-.195-.032 1.99 1.99 0 0 0-.316-.024c-.265 0-.502.055-.71.166a1.26 1.26 0 0 0-.49.455 1.23 1.23 0 0 0-.178.657v3.452h-.838zm4.502-1.989l-.014-1.037h.171l2.386-2.429h1.037l-2.543 2.571h-.071l-.966.895zm-.781 1.989v-7.273h.838v7.273h-.838zm3.466 0l-2.131-2.699.597-.583 2.599 3.282h-1.065z"/><path d="M23.743 225.514h-.923l2.67-7.273h.909l2.67 7.273h-.923l-2.173-6.122h-.057l-2.173 6.122zm.341-2.841h3.722v.781h-3.722v-.781zm8.065 2.954a2.14 2.14 0 0 1-1.204-.344c-.348-.232-.62-.559-.817-.98s-.295-.925-.295-1.502.098-1.07.295-1.492.47-.747.82-.976.755-.345 1.214-.345c.355 0 .636.059.842.178s.367.248.476.397l.259.363h.071v-2.685h.838v7.273h-.81v-.838h-.099a5.36 5.36 0 0 1-.263.376c-.114.149-.276.283-.486.401s-.491.174-.842.174zm.114-.753c.336 0 .62-.087.852-.262a1.65 1.65 0 0 0 .529-.735c.121-.315.181-.679.181-1.091a2.91 2.91 0 0 0-.178-1.068 1.56 1.56 0 0 0-.526-.718c-.232-.173-.519-.259-.859-.259-.355 0-.651.091-.888.273s-.411.425-.529.735a2.89 2.89 0 0 0-.174 1.037 3.01 3.01 0 0 0 .178 1.059c.121.315.298.565.533.752s.53.277.881.277zm8.498-4.815l-2.017 5.455h-.852l-2.017-5.455h.909l1.506 4.347h.057l1.506-4.347h.909zm2.545 5.583a2.22 2.22 0 0 1-.941-.196 1.61 1.61 0 0 1-.671-.572c-.166-.25-.249-.554-.249-.909 0-.312.061-.565.185-.76a1.32 1.32 0 0 1 .494-.461 2.62 2.62 0 0 1 .682-.249l.756-.135.806-.096c.208-.023.36-.062.455-.117s.146-.149.146-.284v-.028c0-.351-.096-.623-.288-.817s-.477-.291-.863-.291c-.4 0-.714.087-.941.263a1.55 1.55 0 0 0-.479.561l-.795-.284c.142-.332.331-.59.568-.775a2.12 2.12 0 0 1 .781-.39 3.23 3.23 0 0 1 .838-.114 3.29 3.29 0 0 1 .604.064c.227.043.451.124.664.252s.394.321.536.579.213.604.213 1.037v3.594h-.838v-.739h-.043a1.5 1.5 0 0 1-.284.38c-.132.135-.309.25-.529.344a2.05 2.05 0 0 1-.806.143zm.128-.753c.331 0 .611-.065.838-.196a1.36 1.36 0 0 0 .519-.504c.117-.206.178-.422.178-.65v-.767c-.036.043-.114.082-.234.117a3.6 3.6 0 0 1-.412.089l-.451.064-.352.043c-.218.028-.421.074-.611.138s-.338.155-.454.281-.171.291-.171.504c0 .291.108.511.323.661s.494.22.827.22zm4.74-2.657v3.282h-.838v-5.455h.81v.852h.071a1.56 1.56 0 0 1 .582-.667c.26-.168.597-.256 1.008-.256.369 0 .693.076.97.227s.492.377.646.682.231.687.231 1.151v3.466h-.838v-3.409c0-.429-.111-.763-.334-1.002s-.528-.362-.916-.362c-.268 0-.507.058-.717.174s-.373.285-.494.508-.181.492-.181.809zm7.227 3.395c-.511 0-.952-.12-1.321-.362s-.653-.574-.852-.998-.298-.908-.298-1.452c0-.554.102-1.043.305-1.467s.492-.759.859-.998.8-.362 1.293-.362c.384 0 .729.071 1.037.213s.56.341.756.597.318.554.366.895h-.838a1.3 1.3 0 0 0-.426-.661c-.218-.194-.511-.291-.881-.291-.327 0-.613.085-.859.256s-.434.406-.572.713-.202.664-.202 1.076a2.8 2.8 0 0 0 .199 1.101c.135.313.324.555.568.728s.535.259.866.259c.218 0 .415-.037.593-.113s.328-.185.451-.327a1.25 1.25 0 0 0 .263-.511h.838a1.94 1.94 0 0 1-.352.87 1.98 1.98 0 0 1-.735.611c-.305.152-.656.223-1.058.223zm5.657 0c-.526 0-.979-.116-1.36-.348s-.671-.561-.877-.98-.305-.911-.305-1.47.102-1.051.305-1.477.492-.763.859-1.002.8-.362 1.293-.362a2.58 2.58 0 0 1 .842.142 2.09 2.09 0 0 1 .756.462c.227.21.408.49.543.838s.202.776.202 1.285v.355h-4.204v-.724h3.352a1.79 1.79 0 0 0-.185-.824 1.4 1.4 0 0 0-.519-.572c-.225-.14-.485-.209-.788-.209-.334 0-.623.083-.866.249a1.63 1.63 0 0 0-.558.639 1.88 1.88 0 0 0-.195.845v.483c0 .412.071.761.213 1.047a1.53 1.53 0 0 0 .6.65c.256.147.553.22.891.22.22 0 .419-.03.597-.092a1.27 1.27 0 0 0 .465-.284 1.29 1.29 0 0 0 .302-.476l.81.227c-.085.275-.229.517-.43.725s-.45.367-.746.483a2.78 2.78 0 0 1-.998.17zm5.593 0a2.14 2.14 0 0 1-1.204-.344c-.348-.232-.62-.559-.817-.98s-.295-.925-.295-1.502.098-1.07.295-1.492.47-.747.82-.976.755-.345 1.214-.345c.355 0 .636.059.842.178s.367.248.476.397l.259.363h.071v-2.685h.838v7.273h-.81v-.838h-.099c-.062.099-.149.225-.263.376s-.276.283-.486.401-.491.174-.842.174zm.114-.753c.336 0 .62-.087.852-.262s.408-.423.529-.735.181-.679.181-1.091a2.91 2.91 0 0 0-.178-1.068c-.119-.305-.293-.547-.525-.718a1.41 1.41 0 0 0-.859-.259c-.355 0-.651.091-.888.273s-.411.425-.529.735a2.89 2.89 0 0 0-.174 1.037 3.02 3.02 0 0 0 .177 1.059c.118.318.298.565.533.752s.53.277.881.277zm116.679-100.633h1.051l2.472 6.037h.085l2.472-6.037h1.051v7.273h-.824v-5.526h-.071l-2.273 5.526h-.795l-2.273-5.526h-.071v5.526h-.824v-7.273zm9.195 7.273h-.923l2.67-7.273h.909l2.671 7.273h-.924l-2.173-6.122h-.057l-2.173 6.122zm.341-2.841h3.721v.781h-3.721v-.781zm6.545-4.432l1.875 3.026h.056l1.875-3.026h1.037l-2.287 3.636 2.287 3.637h-1.037l-1.875-2.969h-.056l-1.875 2.969h-1.037l2.343-3.637-2.343-3.636h1.037zm5.691 5.781v-.724l3.196-5.057h.526v1.122h-.355l-2.415 3.821v.057h4.304v.781h-5.256zm3.423 1.492v-1.712-.337-5.224h.839v7.273h-.839zm5.621.099c-.469 0-.887-.08-1.254-.241s-.654-.385-.87-.672a1.8 1.8 0 0 1-.348-1.005h.895a1.06 1.06 0 0 0 .242.608c.142.168.328.298.557.39s.484.139.764.139a2.02 2.02 0 0 0 .831-.163c.241-.109.431-.261.568-.455a1.14 1.14 0 0 0 .206-.675 1.26 1.26 0 0 0-.199-.706c-.132-.206-.327-.367-.582-.483s-.568-.174-.938-.174h-.582v-.782h.582c.289 0 .542-.052.76-.156a1.22 1.22 0 0 0 .515-.44c.126-.19.188-.412.188-.668 0-.246-.054-.46-.163-.643a1.12 1.12 0 0 0-.462-.426c-.196-.102-.428-.152-.696-.152a1.84 1.84 0 0 0-.71.138c-.22.09-.4.221-.54.394s-.215.377-.227.618h-.852a1.73 1.73 0 0 1 .344-1.001 2.17 2.17 0 0 1 .845-.675c.351-.161.735-.241 1.154-.241.45 0 .836.091 1.158.273a1.94 1.94 0 0 1 .742.714c.173.296.26.615.26.959 0 .409-.108.758-.324 1.047s-.503.489-.87.6v.057c.46.076.818.271 1.076.586s.387.7.387 1.161a1.84 1.84 0 0 1-.323 1.066c-.213.312-.504.558-.873.738s-.79.27-1.261.27zm3.739-1.591v-.724l3.196-5.057h.526v1.122h-.355l-2.415 3.821v.057h4.304v.781h-5.256zm3.424 1.492v-1.712-.337-5.224h.838v7.273h-.838zm5.62.099c-.469 0-.886-.08-1.253-.241s-.655-.385-.87-.672a1.8 1.8 0 0 1-.348-1.005h.895c.018.235.099.437.241.608a1.39 1.39 0 0 0 .558.39c.229.093.484.139.763.139.313 0 .59-.055.831-.163a1.36 1.36 0 0 0 .568-.455 1.14 1.14 0 0 0 .206-.675 1.26 1.26 0 0 0-.199-.706 1.31 1.31 0 0 0-.582-.483c-.256-.116-.568-.174-.938-.174h-.582v-.782h.582c.289 0 .543-.052.76-.156a1.24 1.24 0 0 0 .515-.44 1.2 1.2 0 0 0 .188-.668c0-.246-.054-.46-.163-.643a1.12 1.12 0 0 0-.462-.426c-.196-.102-.428-.152-.696-.152a1.84 1.84 0 0 0-.71.138c-.22.09-.4.221-.54.394s-.215.377-.227.618h-.852a1.73 1.73 0 0 1 .344-1.001c.216-.289.498-.514.846-.675a2.73 2.73 0 0 1 1.154-.241c.449 0 .835.091 1.157.273s.57.418.743.714.259.615.259.959c0 .409-.108.758-.323 1.047s-.503.489-.87.6v.057c.459.076.817.271 1.076.586s.387.7.387 1.161a1.84 1.84 0 0 1-.324 1.066c-.213.312-.504.558-.873.738s-.79.27-1.261.27zm-29.599 193.901v-7.273h2.458c.568 0 1.034.097 1.399.291a1.86 1.86 0 0 1 .809.792c.176.336.263.719.263 1.147s-.087.809-.263 1.14-.444.592-.806.781-.825.281-1.388.281h-1.989v-.796h1.96c.389 0 .701-.057.938-.17s.412-.275.518-.483a1.65 1.65 0 0 0 .164-.753c0-.291-.055-.546-.164-.763s-.283-.386-.522-.505-.555-.181-.948-.181h-1.548v6.492h-.881zm3.423-3.267l1.79 3.267h-1.023l-1.761-3.267h.994zm6.951-2.188c-.043-.36-.216-.639-.519-.838s-.674-.298-1.115-.298c-.322 0-.603.052-.845.156s-.426.247-.561.43a1.03 1.03 0 0 0-.199.621c0 .194.046.361.139.501s.215.252.362.344a2.59 2.59 0 0 0 .462.224l.444.139.738.198c.19.05.4.119.632.206a2.94 2.94 0 0 1 .671.359c.216.149.393.341.533.575s.21.522.21.863c0 .393-.103.748-.309 1.066s-.502.569-.895.756-.866.281-1.424.281c-.521 0-.972-.085-1.353-.253a2.14 2.14 0 0 1-.895-.703 1.99 1.99 0 0 1-.366-1.047h.909c.024.274.116.502.277.681a1.5 1.5 0 0 0 .618.398 2.51 2.51 0 0 0 .81.128c.336 0 .638-.054.905-.163s.48-.265.636-.462a1.09 1.09 0 0 0 .234-.696c0-.241-.067-.438-.202-.589a1.5 1.5 0 0 0-.533-.37 5.68 5.68 0 0 0-.714-.248l-.894-.256c-.569-.163-1.018-.397-1.35-.7s-.497-.699-.497-1.189c0-.407.11-.763.33-1.066a2.2 2.2 0 0 1 .895-.71c.377-.17.797-.255 1.261-.255s.885.084 1.25.252.653.393.866.681.329.617.341.984h-.852zm2.101 3.963v-.724l3.196-5.057h.526v1.122h-.355l-2.415 3.821v.057h4.304v.781h-5.256zm3.424 1.492v-1.712-.337-5.224h.838v7.273h-.838zm5.492.099c-.487 0-.918-.086-1.292-.259s-.662-.416-.87-.721a1.8 1.8 0 0 1-.309-1.051c-.003-.308.058-.592.181-.852a1.85 1.85 0 0 1 .504-.657 1.55 1.55 0 0 1 .721-.338v-.042c-.348-.09-.625-.286-.831-.586a1.77 1.77 0 0 1-.305-1.034 1.75 1.75 0 0 1 .28-.99c.19-.292.45-.521.781-.689s.714-.252 1.14-.252.798.084 1.13.252a1.97 1.97 0 0 1 .781.689c.19.292.289.621.291.99-.002.386-.108.731-.316 1.034s-.479.496-.82.586v.042c.262.048.499.16.71.338a1.9 1.9 0 0 1 .504.657c.126.26.19.544.192.852-.002.393-.109.743-.32 1.051s-.498.546-.87.721-.796.259-1.282.259zm0-.781c.329 0 .613-.053.853-.16a1.27 1.27 0 0 0 .554-.451c.13-.194.196-.421.198-.682-.002-.274-.073-.517-.213-.728a1.45 1.45 0 0 0-.571-.497c-.239-.121-.513-.181-.821-.181s-.587.06-.831.181a1.45 1.45 0 0 0-.571.497c-.138.211-.205.454-.203.728-.002.261.061.488.188.682s.316.345.558.451.528.16.859.16zm0-3.452c.261 0 .492-.052.693-.156a1.19 1.19 0 0 0 .479-.437 1.25 1.25 0 0 0 .178-.657c-.003-.246-.061-.46-.174-.643s-.271-.326-.473-.426-.435-.152-.703-.152a1.57 1.57 0 0 0-.713.152c-.204.1-.361.242-.473.426s-.165.397-.163.643.053.47.167.657a1.19 1.19 0 0 0 .479.437c.204.104.438.156.703.156zm6.106 4.233c-.417 0-.792-.083-1.126-.248a2.09 2.09 0 0 1-.803-.682 1.86 1.86 0 0 1-.33-.988h.852a1.17 1.17 0 0 0 .448.817 1.49 1.49 0 0 0 .959.32c.298 0 .563-.07.795-.21a1.47 1.47 0 0 0 .55-.575c.135-.246.203-.524.203-.834 0-.318-.07-.601-.21-.849a1.53 1.53 0 0 0-.568-.593c-.241-.145-.517-.218-.827-.22a2.26 2.26 0 0 0-.686.103 1.88 1.88 0 0 0-.578.266l-.824-.1.44-3.579h3.778v.781h-3.039l-.256 2.145h.043a1.9 1.9 0 0 1 .561-.295 2.13 2.13 0 0 1 .703-.117 2.23 2.23 0 0 1 1.189.32c.351.21.625.499.824.866s.302.786.302 1.257c0 .464-.104.879-.312 1.243s-.49.649-.853.86-.774.312-1.235.312zm-28.068-176.372v7.273h-.881v-6.35h-.042l-1.776 1.179v-.895l1.818-1.207h.881zm4.464 7.372c-.535 0-.991-.145-1.367-.437s-.664-.718-.863-1.275-.298-1.233-.298-2.024.099-1.457.298-2.013.49-.985.866-1.279.834-.443 1.364-.443.984.147 1.36.443.668.72.866 1.279.302 1.227.302 2.013-.099 1.466-.298 2.024-.486.982-.863 1.275-.832.437-1.367.437zm0-.781c.53 0 .942-.256 1.236-.767s.44-1.241.44-2.188c0-.629-.067-1.166-.202-1.608s-.325-.78-.576-1.012-.548-.348-.898-.348c-.526 0-.936.259-1.232.777s-.444 1.247-.444 2.191c0 .63.066 1.165.199 1.605s.323.776.571 1.005.553.345.906.345zm6.704.682v-5.455h.81v.852h.071a1.37 1.37 0 0 1 .551-.678c.253-.163.557-.245.912-.245s.66.082.899.245a1.63 1.63 0 0 1 .564.678h.057c.14-.281.349-.505.629-.671s.614-.252 1.005-.252c.487 0 .886.153 1.196.458s.466.776.466 1.417v3.651h-.839v-3.651c0-.402-.11-.69-.33-.863a1.22 1.22 0 0 0-.777-.259c-.384 0-.681.116-.892.348s-.316.521-.316.874v3.551h-.852v-3.736a.98.98 0 0 0-.302-.749c-.201-.192-.46-.288-.778-.288-.217 0-.421.058-.61.174a1.3 1.3 0 0 0-.455.483c-.116.206-.17.439-.17.707v3.409h-.839zm8.692 0v-5.455h.838v5.455h-.838zm.426-6.364a.6.6 0 0 1-.423-.167c-.116-.111-.174-.245-.174-.401s.058-.29.174-.401.26-.167.423-.167a.58.58 0 0 1 .419.167.53.53 0 0 1 .178.401.53.53 0 0 1-.178.401c-.116.111-.256.167-.419.167zm2.785 3.082v3.282h-.838v-5.455h.81v.852h.071a1.55 1.55 0 0 1 .582-.667c.26-.171.597-.256 1.009-.256.369 0 .692.076.969.227s.492.377.646.682.231.687.231 1.151v3.466h-.838v-3.409c0-.429-.111-.763-.334-1.002s-.528-.362-.916-.362a1.46 1.46 0 0 0-.717.174 1.24 1.24 0 0 0-.494.508c-.121.222-.181.492-.181.809zm8.875-.951l-.753.213c-.047-.126-.117-.248-.209-.366a1.01 1.01 0 0 0-.37-.298c-.156-.078-.356-.117-.6-.117-.333 0-.612.076-.834.23s-.33.345-.33.579c0 .209.075.373.227.494s.388.221.71.302l.81.199c.487.118.851.299 1.09.543s.359.553.359.934c0 .312-.09.592-.27.838s-.426.44-.746.582-.691.213-1.115.213c-.556 0-1.017-.12-1.381-.362s-.596-.594-.693-1.058l.795-.199c.076.294.219.514.43.661s.491.22.835.22c.39 0 .7-.083.93-.249s.348-.369.348-.604a.63.63 0 0 0-.199-.475c-.132-.131-.336-.228-.611-.292l-.909-.213c-.499-.118-.866-.302-1.1-.55s-.349-.565-.349-.941a1.35 1.35 0 0 1 .26-.817 1.75 1.75 0 0 1 .714-.557c.303-.135.646-.203 1.029-.203.54 0 .964.118 1.272.355s.53.549.66.938z"/></g><g stroke="#f2f2f2" class="D"><use href="#M"/><use href="#M" y="30.19"/><use href="#M" y="195"/><use href="#M" y="289.948"/></g><g class="F"><path d="M62.211 122.241v7.273h-.852l-3.963-5.711h-.071v5.711h-.881v-7.273h.852l3.977 5.724h.071v-5.724h.866zm3.254 7.401a2.22 2.22 0 0 1-.941-.196 1.61 1.61 0 0 1-.671-.572c-.166-.25-.249-.554-.249-.909 0-.312.062-.565.185-.76a1.31 1.31 0 0 1 .494-.461 2.62 2.62 0 0 1 .682-.249l.756-.135.806-.096c.208-.023.36-.062.455-.117s.146-.149.146-.284v-.028c0-.351-.096-.623-.288-.817s-.477-.291-.863-.291c-.4 0-.714.087-.941.263s-.387.362-.479.561l-.795-.284a1.91 1.91 0 0 1 .568-.775c.239-.187.5-.317.781-.39s.563-.114.838-.114a3.3 3.3 0 0 1 .604.064 2 2 0 0 1 .664.252c.213.128.394.321.536.579s.213.604.213 1.037v3.594h-.838v-.739h-.043a1.5 1.5 0 0 1-.284.38c-.132.135-.309.25-.529.344a2.05 2.05 0 0 1-.806.143zm.128-.753c.331 0 .611-.065.838-.196a1.35 1.35 0 0 0 .518-.504c.116-.206.178-.422.178-.65v-.767c-.036.043-.114.082-.234.117a3.6 3.6 0 0 1-.412.089l-.451.064-.352.043c-.218.028-.421.074-.611.138s-.338.155-.454.281-.171.291-.171.504c0 .291.108.511.323.661s.494.22.827.22zm3.902.625v-5.455h.81v.852h.071a1.37 1.37 0 0 1 .55-.678 1.65 1.65 0 0 1 .913-.245c.36 0 .659.082.898.245s.43.387.565.678h.057c.14-.281.349-.505.629-.671s.614-.252 1.005-.252c.488 0 .887.153 1.197.458s.465.776.465 1.417v3.651h-.838v-3.651c0-.402-.11-.69-.33-.863a1.22 1.22 0 0 0-.778-.259c-.384 0-.681.116-.891.348s-.316.521-.316.874v3.551h-.852v-3.736a.98.98 0 0 0-.302-.749c-.201-.189-.46-.288-.778-.288a1.15 1.15 0 0 0-.611.174c-.187.116-.339.277-.455.483s-.17.439-.17.707v3.409h-.838zm10.978.113c-.525 0-.979-.116-1.36-.348s-.671-.561-.877-.98-.305-.911-.305-1.47.102-1.051.305-1.477.492-.763.859-1.002.8-.362 1.293-.362a2.58 2.58 0 0 1 .842.142 2.09 2.09 0 0 1 .756.462c.227.21.408.49.543.838s.202.776.202 1.285v.355h-4.204v-.724h3.352a1.79 1.79 0 0 0-.185-.824 1.4 1.4 0 0 0-.519-.572c-.225-.14-.485-.209-.788-.209-.334 0-.623.083-.867.249a1.63 1.63 0 0 0-.557.639 1.88 1.88 0 0 0-.195.845v.483c0 .412.071.761.213 1.047s.345.501.6.65.553.22.891.22c.22 0 .419-.03.597-.092a1.27 1.27 0 0 0 .465-.284 1.29 1.29 0 0 0 .302-.476l.81.227a1.79 1.79 0 0 1-.43.725c-.201.206-.45.367-.746.483a2.78 2.78 0 0 1-.998.17zM57.325 317.241v7.273h-.881v-7.273h.881zm2.49 3.991v3.282h-.838v-5.455h.81v.852h.071a1.56 1.56 0 0 1 .582-.667c.26-.168.597-.256 1.008-.256.369 0 .693.076.97.227s.492.377.646.682.231.687.231 1.151v3.466h-.838v-3.409c0-.429-.111-.763-.334-1.002s-.528-.362-.916-.362a1.46 1.46 0 0 0-.717.174c-.21.116-.373.285-.494.508s-.181.492-.181.809zm5.011 5.327v-7.5h.81v.867h.099l.256-.363a1.5 1.5 0 0 1 .476-.397c.208-.119.49-.178.845-.178.459 0 .864.115 1.215.345s.624.555.82.976.295.919.295 1.492-.098 1.078-.295 1.502-.469.748-.817.98a2.14 2.14 0 0 1-1.204.344c-.35 0-.631-.058-.842-.174s-.373-.252-.486-.401l-.263-.376h-.071v2.883h-.838zm.824-4.773c0 .412.06.776.181 1.091a1.65 1.65 0 0 0 .529.735c.232.175.516.262.852.262.35 0 .643-.092.877-.277a1.69 1.69 0 0 0 .533-.752 2.96 2.96 0 0 0 .181-1.059 2.86 2.86 0 0 0-.178-1.037c-.119-.308-.292-.555-.529-.735s-.529-.273-.884-.273c-.341 0-.627.086-.859.259a1.56 1.56 0 0 0-.526.718 2.95 2.95 0 0 0-.178 1.068zm8.707.498v-3.225h.838v5.455h-.838v-.924H74.3a1.79 1.79 0 0 1-.597.707c-.27.192-.611.288-1.023.288-.341 0-.644-.075-.909-.224a1.57 1.57 0 0 1-.625-.682c-.151-.305-.227-.69-.227-1.154v-3.466h.838v3.409c0 .398.111.715.334.952s.511.355.859.355a1.42 1.42 0 0 0 .636-.16c.218-.106.4-.27.547-.49s.224-.501.224-.841zm4.745-3.225v.71h-2.827v-.71h2.827zm-2.003-1.307h.838v5.199c0 .237.034.414.103.533a.53.53 0 0 0 .27.234 1.08 1.08 0 0 0 .352.057 1.55 1.55 0 0 0 .227-.014l.142-.029.171.753c-.057.022-.136.043-.238.064a1.73 1.73 0 0 1-.387.036 1.68 1.68 0 0 1-.696-.153 1.37 1.37 0 0 1-.561-.465c-.149-.208-.22-.471-.22-.789v-5.426zm-20.655 97.762v-7.273h2.457c.571 0 1.037.103 1.399.309a1.93 1.93 0 0 1 .81.827c.175.348.263.737.263 1.165s-.088.818-.263 1.168-.44.63-.803.838-.826.309-1.392.309h-1.761v-.781h1.733c.391 0 .704-.067.941-.202s.408-.317.515-.547.163-.494.163-.785a1.8 1.8 0 0 0-.163-.781 1.16 1.16 0 0 0-.518-.54c-.239-.13-.556-.199-.952-.199h-1.548v6.492h-.881zm6.234 0v-5.455h.838v5.455h-.838zm.426-6.364a.6.6 0 0 1-.423-.167c-.119-.111-.174-.245-.174-.401s.058-.29.174-.401.259-.167.423-.167a.58.58 0 0 1 .419.167.53.53 0 0 1 .178.401.53.53 0 0 1-.178.401c-.116.111-.256.167-.419.167zm2.785 3.082v3.282h-.838v-5.455h.81v.852h.071a1.56 1.56 0 0 1 .582-.667c.26-.168.597-.256 1.008-.256.369 0 .692.076.969.227s.492.377.646.682.231.687.231 1.151v3.466h-.838v-3.409c0-.429-.111-.763-.334-1.002s-.528-.362-.916-.362a1.46 1.46 0 0 0-.717.174c-.21.116-.373.285-.494.508s-.181.492-.181.809zm7.213 5.441c-.405 0-.753-.052-1.044-.156s-.534-.237-.728-.405a2.23 2.23 0 0 1-.458-.533l.668-.469c.076.1.172.213.288.341a1.5 1.5 0 0 0 .476.338c.201.095.47.145.799.145.44 0 .804-.106 1.09-.319s.43-.547.43-1.002v-1.108h-.071a4.29 4.29 0 0 1-.263.369c-.111.145-.272.274-.483.388s-.49.166-.845.166a2.28 2.28 0 0 1-1.186-.312c-.348-.208-.624-.511-.827-.909s-.302-.881-.302-1.449c0-.559.098-1.045.295-1.46s.47-.738.82-.965.755-.345 1.215-.345c.355 0 .637.059.845.178s.372.248.483.397l.263.363h.085v-.867h.81v5.611c0 .469-.106.85-.32 1.143s-.495.513-.852.65a3.28 3.28 0 0 1-1.186.21zm-.028-2.997c.336 0 .62-.077.852-.231s.408-.375.529-.664.181-.635.181-1.037c0-.393-.059-.74-.177-1.041a1.56 1.56 0 0 0-.526-.706c-.232-.171-.518-.256-.859-.256-.355 0-.651.09-.888.27a1.62 1.62 0 0 0-.529.724 2.8 2.8 0 0 0-.174 1.009 2.65 2.65 0 0 0 .178 1.005 1.54 1.54 0 0 0 .533.682c.237.163.53.245.881.245z"/><path d="M56.444 254.514v-7.273h.881v6.491h3.381v.782h-4.261zm7.727.113c-.492 0-.924-.117-1.296-.351s-.658-.563-.867-.984-.309-.914-.309-1.477.103-1.064.309-1.488a2.36 2.36 0 0 1 .867-.987c.37-.234.804-.352 1.296-.352s.923.117 1.293.352.661.563.867.987.313.92.313 1.488-.104 1.056-.312 1.477-.495.749-.867.984-.8.351-1.293.351zm0-.753c.374 0 .682-.095.923-.287a1.7 1.7 0 0 0 .536-.757 2.89 2.89 0 0 0 .174-1.015 2.92 2.92 0 0 0-.174-1.019c-.116-.314-.295-.57-.536-.764s-.549-.291-.923-.291-.682.097-.923.291a1.72 1.72 0 0 0-.536.764 2.92 2.92 0 0 0-.174 1.019c0 .364.058.703.174 1.015s.295.565.536.757.549.287.923.287zm3.865.64v-7.273h2.457c.568 0 1.035.097 1.399.291s.635.456.81.792.263.719.263 1.147a2.4 2.4 0 0 1-.263 1.14 1.85 1.85 0 0 1-.806.781c-.362.187-.825.281-1.389.281h-1.989v-.796h1.96c.388 0 .701-.057.938-.17a1.08 1.08 0 0 0 .519-.483c.109-.211.163-.462.163-.753s-.055-.546-.163-.763-.283-.386-.522-.505-.555-.181-.948-.181h-1.548v6.492h-.881zm3.423-3.267l1.79 3.267h-1.023l-1.761-3.267h.994zm4.465 3.395a2.22 2.22 0 0 1-.941-.196c-.282-.132-.505-.323-.671-.572s-.249-.554-.249-.909c0-.312.062-.565.185-.76a1.31 1.31 0 0 1 .494-.461 2.62 2.62 0 0 1 .682-.249l.756-.135.806-.096c.208-.023.36-.062.455-.117s.146-.149.146-.284v-.028c0-.351-.096-.623-.288-.817s-.477-.291-.863-.291c-.4 0-.714.087-.941.263s-.387.362-.479.561l-.795-.284a1.91 1.91 0 0 1 .568-.775 2.12 2.12 0 0 1 .781-.39 3.36 3.36 0 0 1 .838-.114 3.3 3.3 0 0 1 .604.064 2 2 0 0 1 .664.252c.213.128.394.321.536.579s.213.604.213 1.037v3.594h-.838v-.739h-.043c-.057.118-.151.245-.284.38s-.309.25-.529.344a2.05 2.05 0 0 1-.806.143zm.128-.753c.331 0 .611-.065.838-.196s.403-.298.519-.504.178-.422.178-.65v-.767c-.036.043-.114.082-.234.117a3.73 3.73 0 0 1-.412.089l-.451.064-.352.043c-.218.028-.421.074-.611.138s-.339.155-.455.281-.17.291-.17.504c0 .291.108.511.323.661s.494.22.828.22zm4.829.625l-1.989-7.273h.895l1.52 5.923h.071l1.548-5.923h.994l1.548 5.923h.071l1.52-5.923h.895l-1.989 7.273h-.909l-1.605-5.796h-.057l-1.605 5.796h-.909zm7.903 0h-.923l2.67-7.273h.909l2.671 7.273h-.923l-2.173-6.122h-.057l-2.173 6.122zm.341-2.841h3.722v.781h-3.722v-.781zm11.886-4.432v7.273h-.852l-3.963-5.711h-.071v5.711h-.881v-7.273h.852l3.978 5.724h.071v-5.724h.866zm8.552 1.818c-.043-.36-.215-.639-.518-.838s-.675-.298-1.115-.298c-.322 0-.604.052-.846.156s-.426.247-.561.43a1.03 1.03 0 0 0-.199.621c0 .194.047.361.139.501s.215.252.362.344a2.59 2.59 0 0 0 .462.224l.444.139.738.198c.19.05.4.119.632.206a2.97 2.97 0 0 1 .672.359 1.87 1.87 0 0 1 .532.575c.139.234.21.522.21.863 0 .393-.103.748-.309 1.066s-.502.569-.895.756-.865.281-1.424.281c-.521 0-.972-.085-1.353-.253a2.14 2.14 0 0 1-.895-.703 1.99 1.99 0 0 1-.366-1.047h.909c.024.274.116.502.277.681a1.5 1.5 0 0 0 .618.398 2.51 2.51 0 0 0 .81.128c.336 0 .638-.054.905-.163s.48-.265.636-.462a1.09 1.09 0 0 0 .234-.696c0-.241-.067-.438-.202-.589a1.48 1.48 0 0 0-.533-.37 5.72 5.72 0 0 0-.713-.248l-.895-.256c-.568-.163-1.018-.397-1.35-.7s-.497-.699-.497-1.189c0-.407.11-.763.33-1.066a2.2 2.2 0 0 1 .895-.71c.377-.17.797-.255 1.261-.255s.885.084 1.25.252.653.393.866.681.329.617.341.984h-.852zm4.573 5.568c-.526 0-.979-.116-1.36-.348s-.671-.561-.877-.98-.306-.911-.306-1.47.102-1.051.306-1.477a2.41 2.41 0 0 1 .859-1.002c.367-.239.8-.362 1.293-.362.284 0 .564.047.841.142a2.09 2.09 0 0 1 .757.462c.227.21.408.49.543.838s.203.776.203 1.285v.355h-4.205v-.724h3.352a1.79 1.79 0 0 0-.184-.824 1.4 1.4 0 0 0-.519-.572c-.222-.139-.485-.209-.788-.209-.334 0-.623.083-.867.249a1.63 1.63 0 0 0-.557.639 1.88 1.88 0 0 0-.196.845v.483c0 .412.072.761.214 1.047a1.51 1.51 0 0 0 .6.65c.256.149.552.22.891.22.22 0 .419-.03.597-.092s.335-.158.465-.284a1.29 1.29 0 0 0 .302-.476l.809.227a1.79 1.79 0 0 1-.429.725 2.1 2.1 0 0 1-.746.483c-.296.113-.629.17-.998.17zm5.906-5.568v.71h-2.827v-.71h2.827zm-2.003-1.307h.838v5.199c0 .237.034.414.103.533a.53.53 0 0 0 .27.234c.111.038.228.057.351.057.093 0 .168-.005.228-.014l.142-.029.17.753c-.057.022-.136.043-.238.064a1.73 1.73 0 0 1-.387.036 1.68 1.68 0 0 1-.696-.153c-.225-.102-.412-.257-.561-.465s-.22-.471-.22-.789v-5.426zm5.635 1.307v.71h-2.826v-.71h2.826zm-2.002-1.307h.838v5.199c0 .237.034.414.103.533s.161.194.269.234a1.02 1.02 0 0 0 .352.057 1.55 1.55 0 0 0 .227-.014l.142-.029.171.753c-.057.022-.136.043-.238.064a1.73 1.73 0 0 1-.387.036 1.68 1.68 0 0 1-.696-.153c-.225-.102-.412-.257-.561-.465s-.22-.471-.22-.789v-5.426zm3.263 6.762v-5.455h.838v5.455h-.838zm.426-6.364c-.163 0-.304-.056-.422-.167a.53.53 0 0 1-.174-.401c0-.156.058-.29.174-.401a.59.59 0 0 1 .422-.167.58.58 0 0 1 .419.167.53.53 0 0 1 .178.401.53.53 0 0 1-.178.401c-.116.111-.255.167-.419.167zm2.785 3.082v3.282h-.838v-5.455h.81v.852h.071a1.56 1.56 0 0 1 .582-.667c.261-.171.597-.256 1.009-.256.369 0 .692.076.969.227s.493.377.646.682.231.687.231 1.151v3.466h-.838v-3.409c0-.429-.111-.763-.334-1.002s-.528-.362-.916-.362c-.267 0-.506.058-.717.174a1.23 1.23 0 0 0-.494.508c-.121.223-.181.492-.181.809zm7.213 5.441c-.404 0-.752-.052-1.044-.156s-.533-.237-.728-.405-.344-.344-.458-.533l.668-.469c.076.1.172.213.288.341s.274.243.475.338.47.145.799.145c.441 0 .804-.106 1.091-.319s.429-.547.429-1.002v-1.108h-.071c-.061.1-.149.223-.263.369s-.272.274-.482.388-.491.166-.846.166a2.28 2.28 0 0 1-1.186-.312c-.348-.208-.624-.511-.827-.909s-.302-.881-.302-1.449c0-.559.098-1.045.295-1.46s.47-.738.82-.965.755-.345 1.215-.345c.355 0 .636.059.845.178s.371.248.483.397l.262.363h.086v-.867h.809v5.611c0 .469-.106.85-.319 1.143s-.495.513-.853.65a3.28 3.28 0 0 1-1.186.21zm-.028-2.997c.336 0 .62-.077.852-.231a1.43 1.43 0 0 0 .529-.664c.121-.289.181-.635.181-1.037 0-.393-.059-.74-.177-1.041s-.294-.536-.526-.706-.518-.256-.859-.256c-.355 0-.651.09-.888.27a1.62 1.62 0 0 0-.529.724 2.8 2.8 0 0 0-.174 1.009c0 .379.059.714.178 1.005a1.52 1.52 0 0 0 .532.682c.234.166.531.245.881.245zm7.784-3.395l-.753.213c-.047-.126-.117-.248-.209-.366a1.01 1.01 0 0 0-.37-.298c-.156-.078-.356-.117-.6-.117-.334 0-.612.076-.834.23s-.331.345-.331.579c0 .209.076.373.228.494s.388.221.71.302l.81.199c.487.118.851.299 1.09.543s.359.553.359.934c0 .312-.09.592-.27.838a1.81 1.81 0 0 1-.746.582c-.319.142-.691.213-1.115.213-.557 0-1.017-.12-1.382-.362s-.595-.594-.692-1.058l.795-.199c.076.294.219.514.43.661s.491.22.835.22c.39 0 .7-.083.93-.249s.348-.369.348-.604a.63.63 0 0 0-.199-.475c-.132-.131-.336-.228-.611-.292l-.909-.213c-.499-.118-.866-.302-1.101-.55s-.348-.565-.348-.941a1.35 1.35 0 0 1 .26-.817c.175-.237.413-.423.713-.557s.647-.203 1.03-.203c.54 0 .964.118 1.272.355s.53.549.66.938zm-86.671-93.767v-7.273h.881v3.239h3.878v-3.239h.881v7.273h-.881v-3.253h-3.878v3.253h-.881zm9.576.113c-.526 0-.979-.116-1.36-.348s-.671-.561-.877-.98-.305-.911-.305-1.47.102-1.051.305-1.477.492-.763.859-1.002.8-.362 1.293-.362a2.58 2.58 0 0 1 .842.142 2.09 2.09 0 0 1 .756.462c.227.21.408.49.543.838s.202.776.202 1.285v.355h-4.204v-.724h3.352a1.79 1.79 0 0 0-.185-.824 1.4 1.4 0 0 0-.519-.572c-.225-.14-.485-.209-.788-.209-.334 0-.623.083-.867.249a1.63 1.63 0 0 0-.558.639 1.88 1.88 0 0 0-.195.845v.483c0 .412.071.761.213 1.047a1.53 1.53 0 0 0 .6.65c.256.147.553.22.891.22.22 0 .419-.03.597-.092a1.27 1.27 0 0 0 .465-.284 1.29 1.29 0 0 0 .302-.476l.81.227a1.78 1.78 0 0 1-.43.725c-.202.208-.45.367-.746.483a2.78 2.78 0 0 1-.998.17zm5.138.015a2.22 2.22 0 0 1-.941-.196 1.61 1.61 0 0 1-.671-.572c-.166-.25-.249-.554-.249-.909 0-.312.061-.565.185-.76a1.32 1.32 0 0 1 .494-.461 2.62 2.62 0 0 1 .682-.249l.756-.135.806-.096c.208-.023.36-.062.454-.117s.146-.149.146-.284v-.028c0-.351-.096-.623-.288-.817s-.477-.291-.863-.291c-.4 0-.714.087-.941.263a1.55 1.55 0 0 0-.479.561l-.796-.284c.142-.332.332-.59.568-.775s.5-.317.781-.39.563-.114.838-.114a3.29 3.29 0 0 1 .604.064c.227.043.451.124.664.252s.394.321.536.579.213.604.213 1.037v3.594h-.838v-.739h-.043a1.5 1.5 0 0 1-.284.38c-.132.135-.309.25-.529.344a2.05 2.05 0 0 1-.806.143zm.128-.753c.331 0 .611-.065.838-.196s.403-.298.519-.504.177-.422.177-.65v-.767c-.035.043-.114.082-.234.117a3.6 3.6 0 0 1-.412.089l-.451.064-.352.043c-.218.028-.421.074-.611.138s-.339.155-.455.281-.17.291-.17.504c0 .291.108.511.323.661s.494.22.827.22zm3.902.625v-5.455h.81v.824h.057a1.31 1.31 0 0 1 .54-.657 1.59 1.59 0 0 1 .881-.252l.231.003.21.011v.852a3.03 3.03 0 0 0-.195-.032 1.99 1.99 0 0 0-.316-.024c-.265 0-.502.055-.71.166a1.26 1.26 0 0 0-.49.455 1.23 1.23 0 0 0-.178.657v3.452h-.838zm6.435-5.455v.71h-2.827v-.71h2.827zm-2.003-1.307h.838v5.199c0 .237.034.414.103.533a.53.53 0 0 0 .27.234 1.08 1.08 0 0 0 .352.057 1.55 1.55 0 0 0 .227-.014l.142-.029.17.753c-.057.022-.136.043-.238.064a1.73 1.73 0 0 1-.387.036 1.68 1.68 0 0 1-.696-.153 1.37 1.37 0 0 1-.561-.465c-.149-.208-.22-.471-.22-.789v-5.426zm3.494 6.762v-7.273h.838v2.685h.071l.256-.363c.111-.149.27-.281.476-.397s.49-.178.845-.178c.459 0 .864.115 1.215.345s.624.555.82.976.295.919.295 1.492-.098 1.078-.295 1.502-.469.748-.817.98a2.14 2.14 0 0 1-1.204.344c-.35 0-.631-.058-.842-.174s-.373-.252-.486-.401l-.263-.376h-.1v.838h-.81zm.824-2.728c0 .412.06.776.181 1.091a1.65 1.65 0 0 0 .529.735c.232.175.516.262.852.262.35 0 .643-.092.877-.277a1.69 1.69 0 0 0 .533-.752c.121-.318.181-.67.181-1.059a2.86 2.86 0 0 0-.178-1.037c-.119-.308-.292-.555-.529-.735s-.529-.273-.884-.273c-.341 0-.627.086-.859.259a1.56 1.56 0 0 0-.526.718 2.95 2.95 0 0 0-.178 1.068zm7.56 2.841c-.526 0-.979-.116-1.36-.348s-.671-.561-.877-.98-.305-.911-.305-1.47.102-1.051.305-1.477.492-.763.859-1.002.8-.362 1.293-.362a2.58 2.58 0 0 1 .842.142 2.09 2.09 0 0 1 .756.462c.227.21.408.49.543.838s.202.776.202 1.285v.355h-4.204v-.724h3.352a1.79 1.79 0 0 0-.185-.824c-.121-.241-.294-.432-.518-.572s-.485-.209-.788-.209c-.334 0-.623.083-.867.249a1.63 1.63 0 0 0-.558.639 1.88 1.88 0 0 0-.195.845v.483c0 .412.071.761.213 1.047a1.53 1.53 0 0 0 .6.65c.256.147.553.22.891.22.22 0 .419-.03.597-.092a1.27 1.27 0 0 0 .465-.284 1.29 1.29 0 0 0 .302-.476l.81.227a1.79 1.79 0 0 1-.43.725c-.201.206-.45.367-.746.483a2.78 2.78 0 0 1-.998.17zm5.138.015a2.22 2.22 0 0 1-.941-.196 1.6 1.6 0 0 1-.671-.572c-.165-.249-.249-.554-.249-.909 0-.312.062-.565.185-.76a1.31 1.31 0 0 1 .494-.461 2.62 2.62 0 0 1 .682-.249l.756-.135.806-.096c.208-.023.36-.062.454-.117s.146-.149.146-.284v-.028c0-.351-.096-.623-.288-.817s-.477-.291-.863-.291c-.4 0-.714.087-.941.263a1.55 1.55 0 0 0-.479.561l-.795-.284c.142-.332.331-.59.568-.775a2.14 2.14 0 0 1 .781-.39c.281-.073.563-.114.838-.114a3.3 3.3 0 0 1 .604.064 2 2 0 0 1 .664.252c.213.128.394.321.536.579s.213.604.213 1.037v3.594h-.838v-.739h-.043c-.057.118-.151.245-.284.38s-.309.25-.529.344a2.05 2.05 0 0 1-.806.143zm.128-.753c.332 0 .611-.065.838-.196s.403-.298.519-.504.177-.422.177-.65v-.767c-.035.043-.114.082-.234.117a3.73 3.73 0 0 1-.412.089l-.451.064-.352.043c-.218.028-.421.074-.611.138s-.339.155-.455.281-.17.291-.17.504c0 .291.108.511.323.661s.494.22.827.22zm6.274-4.83v.71h-2.827v-.71h2.827zm-2.003-1.307h.838v5.199c0 .237.034.414.103.533a.53.53 0 0 0 .27.234c.111.038.228.057.351.057.093 0 .168-.005.228-.014l.142-.029.17.753c-.057.022-.136.043-.238.064a1.73 1.73 0 0 1-.387.036 1.68 1.68 0 0 1-.696-.153c-.225-.102-.412-.257-.561-.465s-.22-.471-.22-.789v-5.426z"/><path d="M56.444 351.514v-7.273h2.457c.568 0 1.035.097 1.399.291a1.86 1.86 0 0 1 .81.792c.175.336.263.719.263 1.147s-.088.809-.263 1.14a1.85 1.85 0 0 1-.806.781c-.362.187-.825.281-1.389.281h-1.989v-.796h1.96c.388 0 .701-.057.938-.17a1.08 1.08 0 0 0 .518-.483c.109-.211.163-.462.163-.753s-.055-.546-.163-.763-.283-.386-.522-.505-.555-.181-.948-.181h-1.548v6.492h-.881zm3.423-3.267l1.79 3.267h-1.023l-1.761-3.267h.994zm5.088 3.38c-.525 0-.979-.116-1.36-.348s-.671-.561-.877-.98-.305-.911-.305-1.47.102-1.051.305-1.477.492-.763.859-1.002.8-.362 1.293-.362c.284 0 .565.047.842.142a2.09 2.09 0 0 1 .756.462c.227.21.408.49.543.838s.202.776.202 1.285v.355h-4.205v-.724h3.352a1.79 1.79 0 0 0-.185-.824c-.121-.241-.294-.432-.518-.572s-.485-.209-.788-.209c-.334 0-.623.083-.866.249a1.63 1.63 0 0 0-.558.639c-.13.263-.195.544-.195.845v.483c0 .412.071.761.213 1.047a1.53 1.53 0 0 0 .6.65c.256.147.553.22.891.22.22 0 .419-.03.597-.092a1.27 1.27 0 0 0 .465-.284c.13-.128.231-.286.302-.476l.81.227a1.79 1.79 0 0 1-.43.725c-.201.206-.45.367-.746.483a2.78 2.78 0 0 1-.998.17zm5.735 2.046c-.405 0-.753-.052-1.044-.156a2.22 2.22 0 0 1-.728-.405 2.23 2.23 0 0 1-.458-.533l.668-.469c.076.1.172.213.288.341s.275.243.476.338.47.145.799.145c.44 0 .804-.106 1.09-.319s.43-.547.43-1.002v-1.108h-.071c-.062.1-.149.223-.263.369s-.272.274-.483.388-.49.166-.845.166c-.44 0-.836-.104-1.186-.312s-.624-.511-.827-.909-.302-.881-.302-1.449c0-.559.098-1.045.295-1.46s.47-.738.82-.965.755-.345 1.215-.345c.355 0 .637.059.845.178a1.48 1.48 0 0 1 .483.397l.263.363h.085v-.867h.81v5.611c0 .469-.106.85-.32 1.143s-.495.513-.852.65-.75.21-1.186.21zm-.028-2.997c.336 0 .62-.077.852-.231s.408-.375.529-.664.181-.635.181-1.037c0-.393-.059-.74-.178-1.041a1.56 1.56 0 0 0-.526-.706c-.232-.171-.519-.256-.859-.256-.355 0-.651.09-.888.27s-.411.421-.529.724a2.8 2.8 0 0 0-.174 1.009 2.65 2.65 0 0 0 .178 1.005 1.54 1.54 0 0 0 .533.682c.237.163.53.245.881.245zm3.92.838v-5.455h.838v5.455h-.838zm.426-6.364c-.163 0-.304-.056-.423-.167s-.174-.245-.174-.401.058-.29.174-.401.259-.167.423-.167a.58.58 0 0 1 .419.167.53.53 0 0 1 .178.401.53.53 0 0 1-.178.401c-.116.111-.256.167-.419.167zm5.811 2.131l-.753.213c-.047-.126-.117-.248-.209-.366s-.213-.22-.369-.298-.356-.117-.6-.117c-.334 0-.612.076-.834.23s-.33.345-.33.579c0 .209.076.373.227.494s.388.221.71.302l.81.199c.488.118.851.299 1.09.543s.359.553.359.934c0 .312-.09.592-.27.838a1.79 1.79 0 0 1-.746.582c-.32.142-.691.213-1.115.213-.556 0-1.017-.12-1.381-.362s-.595-.594-.692-1.058l.796-.199c.076.294.219.514.43.661s.491.22.835.22c.391 0 .701-.083.93-.249s.348-.369.348-.604a.63.63 0 0 0-.199-.475c-.133-.131-.336-.228-.611-.292l-.909-.213c-.5-.118-.867-.302-1.101-.55s-.348-.565-.348-.941a1.35 1.35 0 0 1 .259-.817c.175-.237.413-.423.714-.557s.646-.203 1.03-.203c.54 0 .964.118 1.271.355s.53.549.661.938zm3.733-1.222v.71h-2.827v-.71h2.827zm-2.003-1.307h.838v5.199c0 .237.034.414.103.533a.53.53 0 0 0 .27.234 1.08 1.08 0 0 0 .352.057 1.55 1.55 0 0 0 .227-.014l.142-.029.17.753c-.057.022-.136.043-.238.064a1.73 1.73 0 0 1-.387.036c-.237 0-.469-.051-.696-.153s-.412-.257-.561-.465-.22-.471-.22-.789v-5.426zm5.492 6.875c-.526 0-.979-.116-1.36-.348s-.671-.561-.877-.98-.305-.911-.305-1.47.102-1.051.305-1.477.492-.763.859-1.002.8-.362 1.293-.362a2.58 2.58 0 0 1 .842.142 2.09 2.09 0 0 1 .756.462c.227.21.408.49.543.838s.202.776.202 1.285v.355h-4.205v-.724h3.352a1.79 1.79 0 0 0-.185-.824c-.121-.241-.294-.432-.519-.572s-.485-.209-.788-.209c-.334 0-.623.083-.867.249a1.63 1.63 0 0 0-.558.639c-.13.263-.195.544-.195.845v.483c0 .412.071.761.213 1.047a1.53 1.53 0 0 0 .6.65c.256.147.553.22.891.22.22 0 .419-.03.597-.092a1.27 1.27 0 0 0 .465-.284c.13-.128.231-.286.302-.476l.81.227c-.085.275-.229.517-.43.725s-.45.367-.746.483a2.78 2.78 0 0 1-.998.17zm3.533-.113v-5.455h.81v.824h.057a1.31 1.31 0 0 1 .54-.657 1.59 1.59 0 0 1 .881-.252l.231.003.21.011v.852a3.03 3.03 0 0 0-.195-.032 1.99 1.99 0 0 0-.316-.024c-.265 0-.502.055-.71.166a1.26 1.26 0 0 0-.49.455c-.118.192-.178.411-.178.657v3.452h-.838zm7.584-4.233l-.753.213c-.047-.126-.117-.248-.21-.366a1.01 1.01 0 0 0-.369-.298c-.156-.078-.356-.117-.6-.117-.334 0-.612.076-.834.23s-.33.345-.33.579c0 .209.076.373.227.494s.388.221.71.302l.81.199c.488.118.851.299 1.09.543s.359.553.359.934c0 .312-.09.592-.27.838a1.79 1.79 0 0 1-.746.582c-.32.142-.691.213-1.115.213-.556 0-1.017-.12-1.381-.362s-.595-.594-.692-1.058l.795-.199c.076.294.219.514.43.661s.491.22.835.22c.391 0 .701-.083.93-.249s.348-.369.348-.604a.63.63 0 0 0-.199-.475c-.133-.131-.336-.228-.611-.292l-.909-.213c-.499-.118-.866-.302-1.101-.55s-.348-.565-.348-.941a1.35 1.35 0 0 1 .259-.817c.175-.237.413-.423.714-.557s.646-.203 1.03-.203c.54 0 .964.118 1.271.355s.53.549.66.938zm6.233 4.332c-.478 0-.89-.087-1.236-.263s-.612-.415-.799-.721-.28-.654-.28-1.047c0-.303.064-.572.192-.806s.309-.456.536-.657.493-.407.792-.611l1.051-.781c.206-.135.37-.28.493-.433s.189-.356.189-.604c0-.185-.082-.364-.245-.536s-.373-.26-.636-.26c-.185 0-.348.048-.49.142s-.25.211-.33.356a.9.9 0 0 0-.118.44 1.11 1.11 0 0 0 .139.518c.095.173.214.351.359.533l.454.554 3.338 4.077h-1.008l-2.756-3.324-.696-.838c-.208-.251-.374-.499-.497-.742s-.185-.508-.185-.792c0-.327.072-.614.217-.86s.351-.441.614-.579.575-.209.931-.209c.364 0 .678.071.941.213s.465.326.607.558.213.479.213.749a1.58 1.58 0 0 1-.259.905c-.173.256-.409.494-.707.714l-1.449 1.08c-.327.241-.548.476-.664.703s-.174.39-.174.49a1.21 1.21 0 0 0 .178.636c.118.196.285.355.5.475s.468.181.757.181a1.95 1.95 0 0 0 .802-.174 2.24 2.24 0 0 0 .707-.511c.213-.222.381-.49.504-.802s.188-.665.188-1.055h.81c0 .483-.056.877-.167 1.182s-.237.545-.376.718l-.338.387-.078.106c-.023.036-.049.071-.078.107-.234.263-.53.459-.888.589a3.12 3.12 0 0 1-1.058.192zm7.561-.099h-.923l2.671-7.273h.909l2.67 7.273h-.923l-2.173-6.122h-.057l-2.174 6.122zm.341-2.841h3.722v.781h-3.722v-.781zm8.065 2.954a2.14 2.14 0 0 1-1.204-.344c-.348-.232-.62-.559-.817-.98s-.294-.925-.294-1.502.098-1.07.294-1.492.47-.747.821-.976a2.16 2.16 0 0 1 1.214-.345c.355 0 .636.059.842.178s.367.248.476.397l.259.363h.071v-2.685h.838v7.273h-.81v-.838h-.099c-.062.099-.149.225-.263.376s-.276.283-.486.401-.492.174-.842.174zm.114-.753c.336 0 .62-.087.852-.262s.408-.423.529-.735.181-.679.181-1.091-.059-.763-.177-1.068-.294-.547-.526-.718-.519-.259-.859-.259c-.356 0-.651.091-.888.273a1.63 1.63 0 0 0-.529.735c-.116.308-.174.654-.174 1.037a3.02 3.02 0 0 0 .177 1.059c.121.315.299.565.533.752s.53.277.881.277zm6.097.753a2.14 2.14 0 0 1-1.204-.344c-.348-.232-.62-.559-.817-.98s-.294-.925-.294-1.502.098-1.07.294-1.492.47-.747.821-.976a2.16 2.16 0 0 1 1.214-.345c.355 0 .636.059.842.178s.367.248.476.397l.259.363h.071v-2.685h.838v7.273h-.81v-.838h-.099c-.062.099-.149.225-.263.376a1.56 1.56 0 0 1-.487.401c-.21.116-.491.174-.841.174zm.114-.753c.336 0 .62-.087.852-.262s.408-.423.529-.735.181-.679.181-1.091-.059-.763-.178-1.068-.293-.547-.525-.718-.519-.259-.859-.259c-.356 0-.652.091-.888.273a1.63 1.63 0 0 0-.529.735c-.116.308-.174.654-.174 1.037a3.02 3.02 0 0 0 .177 1.059c.121.315.298.565.533.752s.53.277.881.277zm4.037.64v-5.455h.81v.824h.057c.099-.27.279-.489.539-.657a1.59 1.59 0 0 1 .881-.252l.231.003.209.011v.852a2.93 2.93 0 0 0-.195-.032c-.099-.016-.205-.024-.316-.024-.265 0-.502.055-.71.166s-.369.261-.49.455a1.22 1.22 0 0 0-.178.657v3.452h-.838zm5.842.113c-.526 0-.979-.116-1.36-.348s-.671-.561-.877-.98-.306-.911-.306-1.47.102-1.051.306-1.477.492-.763.859-1.002.8-.362 1.293-.362c.284 0 .564.047.841.142a2.1 2.1 0 0 1 .757.462c.227.21.408.49.543.838s.202.776.202 1.285v.355h-4.204v-.724h3.352a1.79 1.79 0 0 0-.185-.824 1.39 1.39 0 0 0-.518-.572c-.223-.139-.485-.209-.788-.209-.334 0-.623.083-.867.249a1.63 1.63 0 0 0-.557.639c-.131.263-.196.544-.196.845v.483c0 .412.071.761.213 1.047a1.54 1.54 0 0 0 .6.65c.256.147.553.22.892.22.22 0 .419-.03.596-.092a1.28 1.28 0 0 0 .466-.284 1.29 1.29 0 0 0 .301-.476l.81.227a1.78 1.78 0 0 1-.43.725c-.201.206-.449.367-.745.483s-.629.17-.998.17zm7.397-4.346l-.753.213a1.36 1.36 0 0 0-.21-.366c-.09-.121-.213-.22-.369-.298s-.356-.117-.6-.117c-.334 0-.612.076-.835.23s-.33.345-.33.579c0 .209.076.373.227.494s.389.221.711.302l.809.199c.488.118.851.299 1.091.543s.358.553.358.934c0 .312-.09.592-.27.838s-.426.44-.745.582-.692.213-1.115.213c-.557 0-1.017-.12-1.382-.362s-.595-.594-.692-1.058l.795-.199c.076.294.219.514.43.661s.491.22.834.22c.391 0 .701-.083.931-.249s.348-.369.348-.604c0-.189-.067-.348-.199-.475s-.336-.228-.611-.292l-.909-.213c-.5-.118-.866-.302-1.101-.55s-.348-.565-.348-.941c0-.308.087-.58.259-.817s.413-.423.714-.557.646-.203 1.03-.203c.54 0 .964.118 1.271.355s.531.549.661.938zm5.224 0l-.752.213c-.048-.126-.118-.248-.21-.366s-.213-.22-.369-.298-.357-.117-.6-.117c-.334 0-.612.076-.835.23s-.33.345-.33.579c0 .209.076.373.227.494s.388.221.71.302l.81.199c.488.118.851.299 1.09.543s.359.553.359.934c0 .312-.09.592-.27.838s-.426.44-.746.582-.691.213-1.115.213c-.556 0-1.017-.12-1.381-.362s-.596-.594-.693-1.058l.796-.199c.075.294.219.514.429.661s.492.22.835.22c.391 0 .701-.083.93-.249s.348-.369.348-.604a.63.63 0 0 0-.199-.475c-.132-.131-.336-.228-.61-.292l-.909-.213c-.5-.118-.867-.302-1.101-.55s-.348-.565-.348-.941c0-.308.086-.58.259-.817a1.75 1.75 0 0 1 .714-.557c.303-.135.646-.203 1.03-.203.539 0 .963.118 1.271.355s.53.549.66.938z"/></g><g clip-path="url(#E)" class="C"><path d="M41.689 123.014h-1.5v-.375c0-.621-.505-1.125-1.125-1.125s-1.125.504-1.125 1.125v.375h-1.5a1.88 1.88 0 0 0-1.875 1.875v3.75a1.88 1.88 0 0 0 1.875 1.875h5.25a1.88 1.88 0 0 0 1.875-1.875v-3.75a1.88 1.88 0 0 0-1.875-1.875zm-3-.375c0-.207.168-.375.375-.375s.375.168.375.375v.748.377h-.75v-1.125h0zm4.125 6c0 .62-.505 1.125-1.125 1.125h-5.25c-.62 0-1.125-.505-1.125-1.125v-3.75c0-.621.505-1.125 1.125-1.125h1.5a.75.75 0 0 0 .75.75h.75a.75.75 0 0 0 .75-.75h1.5c.62 0 1.125.504 1.125 1.125v3.75zm-4.687-2.438c0-.518.42-.937.938-.937s.938.419.938.937a.94.94 0 0 1-.937.938.94.94 0 0 1-.937-.938zm2.8 2.719c.052.201-.069.405-.27.457s-.405-.069-.457-.27c-.124-.481-.613-.843-1.137-.843s-1.013.362-1.137.843c-.044.169-.196.282-.363.282a.38.38 0 0 1-.094-.012c-.201-.052-.321-.256-.27-.457.21-.815.993-1.406 1.863-1.406s1.653.591 1.863 1.406h.001z"/></g><path d="M41.007 157.514H37.12a1.6 1.6 0 0 1-.651-.138 1.57 1.57 0 0 1-.532-.387 1.46 1.46 0 0 1-.312-.555 1.43 1.43 0 0 1-.044-.63c.209-1.096.815-2.086 1.711-2.79-.896-.705-1.502-1.695-1.711-2.792-.032-.21-.017-.425.044-.629s.168-.393.312-.554a1.56 1.56 0 0 1 .532-.388c.204-.09.426-.137.651-.137h3.886c.225 0 .447.047.651.137a1.56 1.56 0 0 1 .532.388 1.46 1.46 0 0 1 .312.554c.062.204.077.418.045.629-.211 1.097-.818 2.086-1.715 2.792.896.705 1.503 1.695 1.713 2.793a1.43 1.43 0 0 1-.045.629c-.062.204-.168.393-.312.554s-.328.296-.532.386a1.63 1.63 0 0 1-.65.138zm0-8.25H37.12c-.113 0-.224.023-.327.068s-.194.112-.267.194a.71.71 0 0 0-.156.273.7.7 0 0 0-.022.311c.146.937.748 1.815 1.788 2.609.046.035.083.079.109.13s.039.107.039.164-.013.112-.039.163-.063.095-.109.131c-1.04.794-1.641 1.672-1.788 2.61-.017.104-.009.21.021.311s.084.194.156.273a.77.77 0 0 0 .267.194c.103.045.214.069.327.069h3.886c.113 0 .224-.024.327-.069a.77.77 0 0 0 .267-.194c.072-.079.125-.172.156-.272s.038-.207.022-.311c-.145-.932-.747-1.81-1.788-2.61-.046-.035-.083-.08-.108-.131s-.038-.106-.038-.163a.36.36 0 0 1 .038-.162c.025-.051.062-.096.108-.131 1.042-.8 1.644-1.678 1.788-2.611.016-.104.009-.21-.022-.311s-.084-.194-.157-.273a.78.78 0 0 0-.266-.193c-.102-.046-.213-.069-.326-.069zm-.513 6.75h-2.863c-.064 0-.126-.015-.182-.044s-.104-.071-.14-.122-.058-.109-.064-.17.002-.123.026-.18c.304-.634.768-1.184 1.35-1.602l.201-.154c.069-.053.154-.082.242-.082s.173.029.242.082l.198.152c.58.419 1.044.97 1.35 1.604a.36.36 0 0 1 .026.179.37.37 0 0 1-.064.171c-.035.051-.084.093-.14.122a.4.4 0 0 1-.183.044zm-2.196-.75h1.527a4.4 4.4 0 0 0-.763-.75 4.29 4.29 0 0 0-.764.75z" class="C"/><g class="E"><use href="#N"/><use href="#N" y="97"/><use href="#N" y="165"/></g><g clip-path="url(#F)" class="C"><path d="M40.064 247.514c-.363 0-.717.117-1.019.337a1.97 1.97 0 0 0-.675.897c-.139.366-.175.768-.104 1.156a2.06 2.06 0 0 0 .502 1.024 1.79 1.79 0 0 0 .939.547 1.69 1.69 0 0 0 1.059-.114c.335-.151.621-.407.823-.736s.309-.716.309-1.111a2.1 2.1 0 0 0-.537-1.415 1.76 1.76 0 0 0-1.296-.585zm0 3c-.181 0-.358-.059-.509-.169a.99.99 0 0 1-.338-.449 1.08 1.08 0 0 1-.052-.577c.035-.194.123-.373.251-.512a.89.89 0 0 1 .469-.274.84.84 0 0 1 .53.057c.167.075.311.204.411.368a1.07 1.07 0 0 1 .154.556 1.05 1.05 0 0 1-.268.707.88.88 0 0 1-.648.293zm4.26-.05l-.204-.128a4.96 4.96 0 0 0 0-1.645l.204-.128a1.44 1.44 0 0 0 .404-.386 1.57 1.57 0 0 0 .237-.525 1.64 1.64 0 0 0 .035-.585 1.59 1.59 0 0 0-.172-.554 1.47 1.47 0 0 0-.354-.441 1.33 1.33 0 0 0-.481-.259 1.26 1.26 0 0 0-.536-.038 1.28 1.28 0 0 0-.508.188l-.204.128a4.05 4.05 0 0 0-1.306-.821v-.256c0-.398-.145-.78-.403-1.061a1.32 1.32 0 0 0-.972-.439 1.32 1.32 0 0 0-.972.439c-.258.281-.403.663-.403 1.061v.256c-.478.184-.92.463-1.305.823l-.205-.129c-.316-.199-.692-.253-1.044-.15s-.653.355-.835.7a1.62 1.62 0 0 0-.137 1.139c.095.384.325.712.641.911l.203.128a4.96 4.96 0 0 0 0 1.645l-.203.128a1.49 1.49 0 0 0-.641.911c-.094.384-.045.794.137 1.139a1.4 1.4 0 0 0 .835.699c.352.103.728.05 1.044-.149l.204-.129c.385.359.828.638 1.306.821v.257a1.57 1.57 0 0 0 .403 1.06c.258.281.608.44.972.44s.714-.158.972-.44.403-.663.403-1.06v-.257c.478-.184.92-.463 1.305-.823l.205.129c.316.199.692.253 1.044.15s.653-.355.835-.7a1.62 1.62 0 0 0 .137-1.139c-.095-.384-.325-.712-.641-.911v.001zm-1.168-1.888a3.84 3.84 0 0 1 0 1.875.54.54 0 0 0 .018.323.49.49 0 0 0 .195.243l.497.313a.5.5 0 0 1 .214.304.54.54 0 0 1-.046.379.47.47 0 0 1-.278.234.43.43 0 0 1-.348-.05l-.498-.314c-.088-.056-.191-.078-.291-.063s-.194.066-.265.145c-.408.455-.922.779-1.486.938a.45.45 0 0 0-.248.178.53.53 0 0 0-.096.306v.627c0 .132-.048.259-.134.353a.44.44 0 0 1-.324.147.44.44 0 0 1-.324-.147c-.086-.094-.134-.221-.134-.353v-.626a.53.53 0 0 0-.096-.307.46.46 0 0 0-.248-.178c-.565-.159-1.078-.484-1.486-.939-.071-.08-.165-.131-.265-.146a.43.43 0 0 0-.291.063l-.497.314a.44.44 0 0 1-.17.064.42.42 0 0 1-.179-.012.45.45 0 0 1-.161-.086c-.048-.04-.088-.091-.119-.148a.53.53 0 0 1-.058-.185.54.54 0 0 1 .012-.196.52.52 0 0 1 .08-.175.46.46 0 0 1 .136-.128l.497-.313a.49.49 0 0 0 .195-.244c.038-.102.045-.216.018-.323a3.83 3.83 0 0 1 0-1.875c.027-.106.02-.22-.018-.322s-.107-.187-.195-.242l-.497-.313a.5.5 0 0 1-.214-.304.54.54 0 0 1 .046-.38.47.47 0 0 1 .278-.233.43.43 0 0 1 .348.05l.498.314a.43.43 0 0 0 .291.064.45.45 0 0 0 .266-.144c.408-.455.922-.779 1.486-.938.099-.028.186-.09.249-.179a.53.53 0 0 0 .096-.307v-.626c0-.133.048-.26.134-.354a.44.44 0 0 1 .324-.146.44.44 0 0 1 .324.146c.086.094.134.221.134.354v.626a.53.53 0 0 0 .096.306c.062.088.15.151.248.178a3.15 3.15 0 0 1 1.486.94c.071.079.165.13.265.145s.203-.007.291-.063l.497-.313c.052-.034.11-.055.17-.064a.42.42 0 0 1 .179.012.43.43 0 0 1 .161.086.49.49 0 0 1 .119.147.53.53 0 0 1 .057.186c.008.065.004.131-.012.195s-.043.123-.08.175-.083.096-.136.129l-.497.313a.48.48 0 0 0-.194.243.54.54 0 0 0-.018.321h0z"/></g><g clip-path="url(#G)" class="C"><path d="M40.932 415.898a.46.46 0 0 1-.273.588c-.052.019-.105.028-.158.028a.46.46 0 0 1-.43-.301l-3.007-8.219-1.608 4.395h2.066a.46.46 0 0 1 .458.458.46.46 0 0 1-.458.459H35.12l-.503 1.375h3.821a.46.46 0 0 1 .458.458.46.46 0 0 1-.458.458h-4.157l-.225.616a.46.46 0 0 1-.588.273.46.46 0 0 1-.273-.588l3.225-8.815c-.169-.167-.274-.397-.274-.652 0-.507.41-.917.917-.917s.917.41.917.917c0 .255-.105.486-.274.652l3.225 8.815zm-6.249-7.634c.342.009.578-.394.396-.688a2.29 2.29 0 0 1-.306-1.145 2.31 2.31 0 0 1 .032-.383.46.46 0 0 0-.376-.528c-.255-.041-.487.127-.528.376a3.25 3.25 0 0 0-.044.535 3.2 3.2 0 0 0 .43 1.604.46.46 0 0 0 .397.229zm4.534-.062a.46.46 0 0 0 .626-.167c.281-.485.43-1.04.43-1.604 0-.18-.015-.36-.044-.535-.042-.249-.275-.418-.528-.376a.46.46 0 0 0-.376.528 2.31 2.31 0 0 1 .032.383 2.29 2.29 0 0 1-.306 1.145.46.46 0 0 0 .167.626zm.529 1.363c-.193.165-.215.454-.05.646a.46.46 0 0 0 .646.05c1.121-.959 1.764-2.356 1.764-3.831a5.13 5.13 0 0 0-.025-.505c-.025-.251-.245-.434-.502-.41a.46.46 0 0 0-.41.503 4.09 4.09 0 0 1 .021.412 4.12 4.12 0 0 1-1.444 3.134v.001zm-5.958.697a.46.46 0 0 0 .646-.05.46.46 0 0 0-.05-.646c-.918-.786-1.444-1.929-1.444-3.135a4.06 4.06 0 0 1 .021-.412.46.46 0 0 0-.411-.503.46.46 0 0 0-.502.41l-.025.505c0 1.475.643 2.871 1.765 3.831h0z"/></g><g clip-path="url(#H)" class="C"><path d="M41.272 341.899v-.927c0-.122-.048-.238-.134-.324a.46.46 0 0 0-.648 0c-.086.086-.134.202-.134.324v.504a2.35 2.35 0 0 0-.458-.046h-.458v-.458c0-.122-.048-.238-.134-.324a.46.46 0 0 0-.324-.134c-.121 0-.238.048-.324.134s-.134.202-.134.324v.458h-.917v-.458c0-.122-.048-.238-.134-.324a.46.46 0 0 0-.648 0c-.086.086-.134.202-.134.324v.458h-.458a2.35 2.35 0 0 0-.458.046v-.504c0-.122-.048-.238-.134-.324a.46.46 0 0 0-.648 0c-.086.086-.134.202-.134.324v.917.01c-.284.212-.514.487-.673.803s-.242.666-.243 1.02v5.5c.001.608.242 1.19.672 1.62a2.3 2.3 0 0 0 1.62.672h3.667a2.3 2.3 0 0 0 1.62-.672c.43-.43.671-1.012.672-1.62v-5.5c-.001-.354-.084-.703-.243-1.02s-.39-.591-.674-.803zm0 7.323c0 .365-.145.714-.403.972s-.608.403-.972.403H36.23c-.365 0-.714-.145-.972-.403s-.403-.607-.403-.972v-5.5c0-.365.145-.714.403-.972s.608-.403.972-.403h3.667c.365 0 .714.145.972.403s.403.607.403.972v5.5zm-.917-5.042c0 .122-.048.238-.134.324a.46.46 0 0 1-.324.135H36.23a.46.46 0 0 1-.324-.135c-.086-.086-.134-.202-.134-.324a.46.46 0 0 1 .134-.324c.086-.086.203-.134.324-.134h3.667a.46.46 0 0 1 .458.458zm0 1.834a.46.46 0 0 1-.458.458H36.23c-.121 0-.238-.048-.324-.134a.46.46 0 0 1-.134-.324c0-.122.048-.238.134-.324a.46.46 0 0 1 .324-.135h3.667a.46.46 0 0 1 .324.135c.086.086.134.202.134.324zm-1.833 1.833c0 .122-.048.238-.134.324a.46.46 0 0 1-.324.134H36.23c-.121 0-.238-.048-.324-.134s-.134-.202-.134-.324.048-.238.134-.324.203-.134.324-.134h1.833a.46.46 0 0 1 .324.134c.086.086.134.202.134.324z"/></g><g clip-path="url(#I)" class="C"><path d="M37.48 324.764h-.833c-.69 0-1.25-.504-1.25-1.125v-5.25c0-.622.56-1.125 1.25-1.125h.833c.23 0 .417-.168.417-.375s-.187-.375-.417-.375h-.833c-1.15.001-2.082.84-2.083 1.875v5.25c.001 1.035.933 1.873 2.083 1.875h.833c.23 0 .417-.168.417-.375s-.187-.375-.417-.375zm6.667-4.125l-6.574.012a.77.77 0 0 1 .136-.167l1.616-1.455c.166-.144.17-.381.01-.53a.45.45 0 0 0-.589-.009l-1.627 1.463c-.651.586-.651 1.536 0 2.121l1.616 1.455a.45.45 0 0 0 .589.009c.166-.144.17-.381.01-.53l-1.626-1.464a.76.76 0 0 1-.121-.143l6.56-.012c.23 0 .417-.168.417-.375s-.187-.375-.417-.375z"/></g><path d="M55.483 442.022v-.781h5.455v.781h-2.287v6.492h-.881v-6.492h-2.287zm6.134 6.492v-5.455h.81v.824h.057a1.31 1.31 0 0 1 .54-.657 1.59 1.59 0 0 1 .881-.252l.231.003.21.011v.852a3.03 3.03 0 0 0-.195-.032 1.99 1.99 0 0 0-.316-.024c-.265 0-.502.055-.71.166a1.26 1.26 0 0 0-.49.455 1.23 1.23 0 0 0-.178.657v3.452h-.838zm3.721 0v-5.455h.838v5.455h-.838zm.426-6.364a.6.6 0 0 1-.423-.167c-.119-.111-.174-.245-.174-.401s.058-.29.174-.401.259-.167.423-.167a.58.58 0 0 1 .419.167.53.53 0 0 1 .178.401.53.53 0 0 1-.178.401c-.116.111-.256.167-.419.167zm4.149 8.523c-.405 0-.753-.052-1.044-.156a2.22 2.22 0 0 1-.728-.405 2.21 2.21 0 0 1-.458-.533l.668-.469c.076.1.172.213.288.341a1.5 1.5 0 0 0 .476.338c.201.095.47.145.799.145.44 0 .804-.106 1.09-.319s.43-.547.43-1.002v-1.108h-.071c-.062.1-.149.223-.263.369a1.49 1.49 0 0 1-.483.388c-.208.111-.49.166-.845.166-.44 0-.836-.104-1.186-.312a2.17 2.17 0 0 1-.827-.909c-.203-.398-.302-.881-.302-1.449 0-.559.098-1.045.295-1.46s.47-.738.82-.965.755-.345 1.215-.345c.355 0 .637.059.845.178a1.48 1.48 0 0 1 .483.397l.263.363h.085v-.867h.81v5.611c0 .469-.107.85-.32 1.143a1.85 1.85 0 0 1-.852.65 3.28 3.28 0 0 1-1.186.21zm-.028-2.997c.336 0 .62-.077.852-.231s.408-.375.529-.664.181-.635.181-1.037a2.83 2.83 0 0 0-.178-1.041 1.56 1.56 0 0 0-.526-.706c-.232-.171-.519-.256-.859-.256-.355 0-.651.09-.888.27a1.62 1.62 0 0 0-.529.724 2.8 2.8 0 0 0-.174 1.009c0 .379.059.714.177 1.005a1.54 1.54 0 0 0 .533.682c.237.163.53.245.881.245zm6.122 2.997c-.405 0-.753-.052-1.044-.156s-.534-.237-.728-.405a2.23 2.23 0 0 1-.458-.533l.668-.469a5.17 5.17 0 0 0 .288.341 1.47 1.47 0 0 0 .476.338c.201.095.47.145.799.145.44 0 .804-.106 1.09-.319s.43-.547.43-1.002v-1.108h-.071a4.27 4.27 0 0 1-.263.369c-.111.145-.272.274-.483.388s-.49.166-.845.166a2.28 2.28 0 0 1-1.186-.312c-.348-.208-.624-.511-.827-.909s-.302-.881-.302-1.449c0-.559.098-1.045.295-1.46s.47-.738.82-.965.755-.345 1.215-.345c.355 0 .637.059.845.178s.372.248.483.397l.263.363h.085v-.867h.81v5.611c0 .469-.106.85-.32 1.143s-.495.513-.852.65-.75.21-1.186.21zm-.028-2.997c.336 0 .62-.077.852-.231s.408-.375.529-.664.181-.635.181-1.037a2.83 2.83 0 0 0-.178-1.041 1.56 1.56 0 0 0-.526-.706c-.232-.171-.518-.256-.859-.256-.355 0-.651.09-.888.27a1.62 1.62 0 0 0-.529.724 2.8 2.8 0 0 0-.174 1.009 2.65 2.65 0 0 0 .178 1.005 1.54 1.54 0 0 0 .533.682c.237.163.53.245.881.245zm6.207.951c-.525 0-.979-.116-1.36-.348s-.671-.561-.877-.98-.305-.911-.305-1.47.102-1.051.305-1.477.492-.763.859-1.002.8-.362 1.293-.362a2.58 2.58 0 0 1 .842.142 2.09 2.09 0 0 1 .756.462c.227.21.408.49.543.838s.203.776.203 1.285v.355H80.24v-.724h3.352a1.79 1.79 0 0 0-.185-.824c-.121-.241-.294-.432-.518-.572s-.485-.209-.788-.209c-.334 0-.623.083-.867.249a1.63 1.63 0 0 0-.557.639 1.88 1.88 0 0 0-.195.845v.483c0 .412.071.761.213 1.047a1.53 1.53 0 0 0 .6.65c.256.147.553.22.891.22.22 0 .419-.03.597-.092a1.27 1.27 0 0 0 .465-.284 1.29 1.29 0 0 0 .302-.476l.81.227a1.79 1.79 0 0 1-.43.725c-.201.206-.45.367-.746.483a2.78 2.78 0 0 1-.998.17zm3.533-.113v-5.455h.81v.824h.057a1.31 1.31 0 0 1 .54-.657 1.59 1.59 0 0 1 .881-.252l.231.003.209.011v.852a3.03 3.03 0 0 0-.195-.032 1.99 1.99 0 0 0-.316-.024c-.265 0-.502.055-.71.166a1.26 1.26 0 0 0-.49.455 1.23 1.23 0 0 0-.178.657v3.452h-.838zm-25.861 29.545c-.043-.36-.215-.639-.518-.838s-.675-.298-1.115-.298a2.12 2.12 0 0 0-.845.156 1.33 1.33 0 0 0-.561.43c-.135.183-.199.389-.199.621a.89.89 0 0 0 .139.501c.095.137.215.252.362.344a2.58 2.58 0 0 0 .462.224l.444.139.739.198a6.72 6.72 0 0 1 .632.206c.232.087.458.208.671.359s.393.341.533.575.21.522.21.863c0 .393-.103.748-.309 1.066s-.502.569-.895.756-.865.281-1.424.281c-.521 0-.972-.085-1.353-.253a2.14 2.14 0 0 1-.895-.703 1.99 1.99 0 0 1-.366-1.047h.909c.024.274.116.502.277.681a1.49 1.49 0 0 0 .618.398 2.51 2.51 0 0 0 .81.128c.336 0 .638-.054.906-.163s.479-.265.636-.462.234-.431.234-.696c0-.241-.068-.438-.202-.589s-.312-.275-.533-.37a5.58 5.58 0 0 0-.714-.248l-.895-.256c-.568-.163-1.018-.397-1.349-.7s-.497-.699-.497-1.189c0-.407.11-.763.33-1.066s.521-.542.895-.71.797-.255 1.261-.255.886.084 1.25.252a2.16 2.16 0 0 1 .867.681 1.7 1.7 0 0 1 .341.984h-.852zm3.891 5.583a2.22 2.22 0 0 1-.941-.196 1.6 1.6 0 0 1-.671-.572c-.165-.249-.249-.554-.249-.909 0-.312.062-.565.185-.76a1.31 1.31 0 0 1 .494-.461 2.62 2.62 0 0 1 .682-.249l.756-.135.806-.096c.208-.023.36-.062.454-.117s.146-.149.146-.284v-.028c0-.351-.096-.623-.288-.817s-.477-.291-.863-.291c-.4 0-.714.087-.941.263s-.387.362-.479.561l-.795-.284c.142-.332.331-.59.568-.775a2.14 2.14 0 0 1 .781-.39c.281-.073.563-.114.838-.114a3.3 3.3 0 0 1 .604.064 2 2 0 0 1 .664.252c.213.128.394.321.536.579s.213.604.213 1.037v3.594h-.838v-.739h-.043c-.057.118-.151.245-.284.38s-.309.25-.529.344a2.05 2.05 0 0 1-.806.143zm.128-.753c.331 0 .611-.065.838-.196s.403-.298.519-.504.177-.422.177-.65v-.767c-.035.043-.114.082-.234.117a3.73 3.73 0 0 1-.412.089l-.451.064-.351.043c-.218.028-.421.074-.611.138s-.339.155-.455.281-.17.291-.17.504c0 .291.108.511.323.661s.494.22.828.22zm3.902.625v-5.455h.81v.852h.071a1.37 1.37 0 0 1 .55-.678 1.65 1.65 0 0 1 .913-.245c.36 0 .659.082.898.245s.43.387.565.678h.057c.14-.281.349-.505.629-.671s.614-.252 1.005-.252c.488 0 .887.153 1.197.458s.465.776.465 1.417v3.651H74.1v-3.651c0-.402-.11-.69-.33-.863a1.22 1.22 0 0 0-.778-.259c-.383 0-.681.116-.891.348s-.316.521-.316.874v3.551h-.852v-3.736a.98.98 0 0 0-.302-.749c-.201-.189-.46-.288-.778-.288a1.15 1.15 0 0 0-.611.174c-.187.116-.338.277-.454.483s-.171.439-.171.707v3.409h-.838zm8.691 2.045v-7.5h.81v.867h.1l.256-.363c.111-.149.27-.281.476-.397s.49-.178.845-.178c.459 0 .864.115 1.215.345s.624.555.82.976.295.919.295 1.492-.098 1.078-.295 1.502-.469.748-.817.98a2.14 2.14 0 0 1-1.204.344c-.35 0-.631-.058-.842-.174s-.373-.252-.487-.401l-.263-.376h-.071v2.883h-.838zm.824-4.773c0 .412.06.776.181 1.091s.297.557.529.735.516.262.852.262c.35 0 .643-.092.877-.277a1.69 1.69 0 0 0 .533-.752c.121-.318.181-.67.181-1.059a2.88 2.88 0 0 0-.177-1.037c-.118-.308-.292-.555-.529-.735s-.529-.273-.884-.273c-.341 0-.627.086-.859.259a1.56 1.56 0 0 0-.526.718 2.95 2.95 0 0 0-.178 1.068zm6.108-4.545v7.273h-.838v-7.273h.838zm1.535 7.273v-5.455h.838v5.455h-.838zm.426-6.364a.6.6 0 0 1-.423-.167c-.119-.111-.174-.245-.174-.401s.058-.29.174-.401.259-.167.423-.167a.58.58 0 0 1 .419.167.53.53 0 0 1 .178.401.53.53 0 0 1-.178.401c-.116.111-.256.167-.419.167zm2.785 3.082v3.282h-.838v-5.455h.81v.852h.071a1.56 1.56 0 0 1 .582-.667c.26-.168.597-.256 1.008-.256a1.99 1.99 0 0 1 .969.227c.276.151.492.377.646.682s.231.687.231 1.151v3.466h-.838v-3.409c0-.429-.111-.763-.334-1.002s-.528-.362-.916-.362a1.46 1.46 0 0 0-.717.174c-.21.116-.373.285-.494.508s-.181.492-.181.809zm7.213 5.441c-.405 0-.753-.052-1.044-.156a2.22 2.22 0 0 1-.728-.405 2.23 2.23 0 0 1-.458-.533l.668-.469c.076.1.172.213.288.341a1.5 1.5 0 0 0 .476.338c.201.095.47.145.799.145.44 0 .804-.106 1.09-.319s.43-.547.43-1.002v-1.108h-.071c-.062.1-.149.223-.263.369s-.272.274-.483.388-.49.166-.845.166c-.44 0-.836-.104-1.186-.312a2.17 2.17 0 0 1-.827-.909c-.203-.398-.302-.881-.302-1.449 0-.559.098-1.045.295-1.46s.47-.738.82-.965.755-.345 1.215-.345c.355 0 .637.059.845.178a1.48 1.48 0 0 1 .483.397l.263.363h.085v-.867h.81v5.611c0 .469-.107.85-.32 1.143a1.85 1.85 0 0 1-.852.65 3.28 3.28 0 0 1-1.186.21zm-.028-2.997c.336 0 .62-.077.852-.231s.408-.375.529-.664.181-.635.181-1.037c0-.393-.059-.74-.177-1.041a1.56 1.56 0 0 0-.526-.706c-.232-.171-.519-.256-.859-.256-.355 0-.651.09-.888.27a1.62 1.62 0 0 0-.529.724 2.8 2.8 0 0 0-.174 1.009 2.65 2.65 0 0 0 .178 1.005 1.54 1.54 0 0 0 .533.682c.237.163.53.245.881.245z" class="F"/><g class="E"><use href="#O"/><use href="#O" y="35"/></g><g clip-path="url(#J)" class="C"><path d="M40.5 449.514a2.19 2.19 0 0 1-1.5-.613 2.17 2.17 0 0 1-1.5.603c-.559 0-1.097-.216-1.5-.603a2.17 2.17 0 0 1-1.5.603c-.559 0-1.097-.216-1.5-.603a2.09 2.09 0 0 1-2.834.1.5.5 0 0 1 .307-.872c.132-.007.262.039.361.127.131.106.285.18.449.216a1.09 1.09 0 0 0 1.245-.624.51.51 0 0 1 .182-.244.5.5 0 0 1 .762.244 1.14 1.14 0 0 0 1.027.648c.215 0 .425-.061.607-.176s.328-.278.42-.472a.5.5 0 0 1 .184-.239c.085-.06.185-.091.288-.091s.204.031.288.091a.5.5 0 0 1 .184.239 1.14 1.14 0 0 0 1.027.648c.215 0 .425-.061.607-.176s.328-.278.42-.472a.51.51 0 0 1 .184-.239.5.5 0 0 1 .288-.09.5.5 0 0 1 .288.09c.084.059.149.143.184.239a1.09 1.09 0 0 0 .747.621 1.1 1.1 0 0 0 .498.004 1.11 1.11 0 0 0 .449-.216.49.49 0 0 1 .168-.102c.062-.023.128-.033.195-.03s.131.02.191.048a.49.49 0 0 1 .157.118.5.5 0 0 1 .077.554c-.029.059-.07.113-.12.156a2 2 0 0 1-1.334.513zm0-2.5a2.19 2.19 0 0 1-1.5-.613 2.17 2.17 0 0 1-1.5.603c-.559 0-1.097-.216-1.5-.603a2.17 2.17 0 0 1-1.5.603c-.559 0-1.097-.216-1.5-.603a2.09 2.09 0 0 1-2.834.1.5.5 0 0 1 .307-.872c.132-.007.262.039.361.127.131.106.285.18.449.216a1.09 1.09 0 0 0 1.245-.624.51.51 0 0 1 .184-.239.5.5 0 0 1 .288-.09.5.5 0 0 1 .288.09c.084.059.149.143.184.239a1.14 1.14 0 0 0 1.027.648c.215 0 .425-.061.607-.176s.328-.278.42-.472a.5.5 0 0 1 .184-.239c.085-.06.185-.091.288-.091s.204.031.288.091a.5.5 0 0 1 .184.239 1.14 1.14 0 0 0 1.027.648c.215 0 .425-.061.607-.176s.328-.278.42-.472a.51.51 0 0 1 .182-.244.5.5 0 0 1 .762.244 1.09 1.09 0 0 0 .747.621 1.1 1.1 0 0 0 .498.004 1.11 1.11 0 0 0 .449-.216.49.49 0 0 1 .168-.102c.062-.023.128-.033.195-.03s.131.02.191.048a.49.49 0 0 1 .157.118.5.5 0 0 1 .077.554c-.029.059-.07.113-.12.156a2 2 0 0 1-1.334.513zm-2.647-7.854l-1.5-1.5a.5.5 0 0 0-.707 0l-1.5 1.5a.5.5 0 0 0 .353.854c.133 0 .26-.053.354-.146l.648-.647v3.793a.5.5 0 1 0 1 0v-3.793l.65.647a.5.5 0 0 0 .701-.007.5.5 0 0 0 .006-.701h-.004z"/></g><path stroke="#f2f2f2" d="M27 464.264h211" class="D"/><g clip-path="url(#K)" class="C"><path d="M40.218 478.421a.46.46 0 0 0 .648 0c.179-.18.179-.469 0-.648l-4.125-4.125c-.179-.18-.469-.18-.648 0s-.179.468 0 .648l.442.442-5.863 5.863c-.433.433-.672 1.008-.672 1.621s.239 1.187.672 1.62 1.008.671 1.62.671 1.188-.238 1.62-.671l5.863-5.863.442.442h0zm-6.954 4.773a1.41 1.41 0 0 1-1.944 0c-.536-.536-.536-1.408 0-1.944l3.58-3.581 1.945 1.945-3.581 3.58h0zm4.229-4.228l-1.945-1.945 1.635-1.635 1.945 1.945-1.635 1.635zm2.386 1.713c-.392-.384-1.031-.384-1.424 0-.012.011-.584.705-.584.705a1.82 1.82 0 0 0-.537 1.296 1.82 1.82 0 0 0 .537 1.297c.346.346.807.537 1.296.537A1.82 1.82 0 0 0 41 482.68c0-.489-.191-.95-.508-1.264l-.613-.737h0zm-.064 2.65a.94.94 0 0 1-1.296 0c-.173-.174-.269-.404-.269-.649s.095-.474.297-.679l.559-.676c.037-.027.085-.026.12 0l.588.707c.173.174.269.404.269.648s-.095.475-.269.649z"/></g><path d="M54.346 189.514v-7.273h2.457c.568 0 1.035.097 1.399.291a1.86 1.86 0 0 1 .81.792c.175.336.263.719.263 1.147a2.4 2.4 0 0 1-.263 1.14c-.175.331-.444.592-.806.781s-.825.281-1.388.281h-1.989v-.796h1.96c.388 0 .701-.057.938-.17a1.08 1.08 0 0 0 .519-.483c.109-.211.163-.462.163-.753s-.054-.546-.163-.763-.283-.386-.522-.505-.555-.181-.948-.181h-1.548v6.492h-.881zm3.423-3.267l1.79 3.267h-1.023l-1.761-3.267h.994zm5.088 3.38c-.526 0-.979-.116-1.36-.348s-.671-.561-.877-.98-.305-.911-.305-1.47.102-1.051.305-1.477.492-.763.859-1.002.8-.362 1.293-.362c.284 0 .565.047.842.142a2.09 2.09 0 0 1 .756.462c.227.21.408.49.543.838s.202.776.202 1.285v.355h-4.205v-.724h3.352a1.79 1.79 0 0 0-.185-.824c-.121-.241-.294-.432-.518-.572s-.485-.209-.788-.209c-.334 0-.623.083-.867.249a1.63 1.63 0 0 0-.558.639c-.13.263-.195.544-.195.845v.483c0 .412.071.761.213 1.047a1.53 1.53 0 0 0 .6.65c.256.147.553.22.891.22.22 0 .419-.03.597-.092a1.27 1.27 0 0 0 .465-.284c.13-.128.231-.286.302-.476l.81.227a1.79 1.79 0 0 1-.43.725c-.201.206-.45.367-.746.483a2.78 2.78 0 0 1-.998.17zm3.533-.113v-5.455h.81v.852h.071a1.37 1.37 0 0 1 .55-.678 1.65 1.65 0 0 1 .913-.245c.36 0 .659.082.898.245a1.6 1.6 0 0 1 .565.678h.057c.14-.281.349-.505.629-.671s.614-.252 1.005-.252c.488 0 .887.153 1.197.458s.465.776.465 1.417v3.651h-.838v-3.651c0-.402-.11-.69-.33-.863a1.22 1.22 0 0 0-.778-.259c-.384 0-.681.116-.891.348s-.316.521-.316.874v3.551h-.852v-3.736c0-.31-.101-.56-.302-.749a1.08 1.08 0 0 0-.778-.288 1.15 1.15 0 0 0-.611.174c-.187.116-.339.277-.455.483s-.17.439-.17.707v3.409h-.838zm8.691 0v-5.455h.838v5.455h-.838zm.426-6.364c-.163 0-.304-.056-.423-.167s-.174-.245-.174-.401.058-.29.174-.401.259-.167.423-.167a.58.58 0 0 1 .419.167.53.53 0 0 1 .178.401.53.53 0 0 1-.178.401c-.116.111-.256.167-.419.167zm2.785 3.082v3.282h-.838v-5.455h.81v.852h.071c.128-.277.322-.499.582-.667s.597-.256 1.009-.256c.369 0 .692.076.969.227s.492.377.646.682.231.687.231 1.151v3.466h-.838v-3.409c0-.429-.111-.763-.334-1.002s-.528-.362-.916-.362c-.268 0-.507.058-.717.174s-.373.285-.494.508-.181.492-.181.809zm5.012 3.282v-5.455h.838v5.455h-.838zm.426-6.364c-.163 0-.304-.056-.423-.167s-.174-.245-.174-.401.058-.29.174-.401.259-.167.423-.167a.58.58 0 0 1 .419.167.53.53 0 0 1 .178.401.53.53 0 0 1-.178.401c-.116.111-.256.167-.419.167zm5.811 2.131l-.753.213c-.047-.126-.117-.248-.209-.366s-.213-.22-.369-.298-.356-.117-.6-.117c-.334 0-.612.076-.834.23s-.33.345-.33.579c0 .209.076.373.227.494s.388.221.71.302l.81.199c.488.118.851.299 1.09.543s.359.553.359.934c0 .312-.09.592-.27.838a1.79 1.79 0 0 1-.746.582c-.32.142-.691.213-1.115.213-.556 0-1.017-.12-1.381-.362s-.595-.594-.693-1.058l.796-.199c.076.294.219.514.43.661s.491.22.835.22c.391 0 .701-.083.93-.249s.348-.369.348-.604a.63.63 0 0 0-.199-.475c-.132-.131-.336-.228-.611-.292l-.909-.213c-.5-.118-.866-.302-1.101-.55s-.348-.565-.348-.941a1.35 1.35 0 0 1 .259-.817c.175-.237.413-.423.714-.557s.646-.203 1.03-.203c.54 0 .964.118 1.271.355s.53.549.66.938zm3.577 4.346c-.511 0-.952-.12-1.321-.362s-.653-.574-.852-.998-.298-.908-.298-1.452c0-.554.102-1.043.305-1.467s.493-.759.859-.998.8-.362 1.293-.362c.383 0 .729.071 1.037.213s.56.341.756.597.319.554.366.895h-.838a1.3 1.3 0 0 0-.426-.661c-.218-.194-.511-.291-.881-.291-.327 0-.613.085-.859.256s-.434.406-.572.713-.202.664-.202 1.076a2.8 2.8 0 0 0 .199 1.101c.135.313.324.555.568.728s.535.259.867.259c.218 0 .415-.037.593-.113a1.23 1.23 0 0 0 .451-.327 1.25 1.25 0 0 0 .263-.511h.838a1.94 1.94 0 0 1-.352.87c-.185.255-.43.459-.735.611s-.656.223-1.058.223zm5.657 0c-.526 0-.979-.116-1.36-.348s-.671-.561-.877-.98-.305-.911-.305-1.47.102-1.051.305-1.477.492-.763.859-1.002.8-.362 1.293-.362a2.58 2.58 0 0 1 .842.142c.277.095.529.249.756.462s.409.49.544.838.202.776.202 1.285v.355h-4.204v-.724h3.352c0-.308-.062-.582-.185-.824s-.294-.432-.519-.572-.485-.209-.788-.209c-.334 0-.623.083-.867.249a1.63 1.63 0 0 0-.558.639c-.13.263-.195.544-.195.845v.483c0 .412.071.761.213 1.047a1.53 1.53 0 0 0 .6.65c.256.147.553.22.891.22.22 0 .419-.03.597-.092a1.27 1.27 0 0 0 .465-.284c.13-.128.23-.286.302-.476l.81.227a1.78 1.78 0 0 1-.43.725c-.201.206-.45.367-.746.483a2.78 2.78 0 0 1-.998.17z" class="F"/><path d="M37.465 179.514a4.99 4.99 0 0 0-3.333 1.28v-.864c0-.11-.044-.216-.122-.294s-.184-.122-.295-.122-.216.044-.295.122-.122.184-.122.294v1.25a1.25 1.25 0 0 0 .366.884c.234.235.552.366.884.366h1.25c.111 0 .216-.044.295-.122s.122-.184.122-.294-.044-.217-.122-.295-.184-.122-.295-.122h-1.25c-.014-.002-.028-.005-.042-.009a4.16 4.16 0 0 1 5.257-.533 4.16 4.16 0 0 1 1.542 5.054 4.16 4.16 0 0 1-1.883 2.08c-.85.455-1.831.601-2.776.412s-1.795-.698-2.406-1.444a4.16 4.16 0 0 1-.942-2.643c0-.111-.044-.217-.122-.295s-.184-.122-.295-.122-.217.044-.295.122-.122.184-.122.295a5 5 0 0 0 3.087 4.619c.914.379 1.919.478 2.889.285s1.861-.67 2.56-1.369a5 5 0 0 0 1.084-5.449c-.378-.913-1.019-1.694-1.842-2.244s-1.789-.842-2.778-.842z" class="C"/><path d="M216.397 189.014l-.531-.5 3.135-2.925-3.135-2.925.531-.5 3.666 3.425-3.666 3.425z" class="E"/><defs><filter id="A" x="10" y="12" width="228" height="64" filterUnits="userSpaceOnUse" class="H"><feFlood flood-opacity="0" result="A"/><feColorMatrix in="SourceAlpha" values="0 0 0 0 0 0 0 0 0 0 0 0 0 0 0 0 0 0 127 0" result="B"/><feMorphology radius="1" operator="dilate" in="SourceAlpha"/><feOffset dy="1"/><feGaussianBlur stdDeviation="2.5"/><feComposite in2="B" operator="out"/><feColorMatrix values="0 0 0 0 0 0 0 0 0 0 0 0 0 0 0 0 0 0 0.1 0"/><feBlend in2="A"/><feBlend in="SourceGraphic"/></filter><filter id="B" x="288.205" y="59.114" width="324" height="152.8" filterUnits="userSpaceOnUse" class="H"><feFlood flood-opacity="0" result="A"/><feColorMatrix in="SourceAlpha" values="0 0 0 0 0 0 0 0 0 0 0 0 0 0 0 0 0 0 127 0" result="B"/><feOffset dy="4"/><feGaussianBlur stdDeviation="5"/><feComposite in2="B" operator="out"/><feColorMatrix values="0 0 0 0 0 0 0 0 0 0 0 0 0 0 0 0 0 0 0.25 0"/><feBlend in2="A"/><feBlend in="SourceGraphic"/></filter><linearGradient id="C" x1="128" y1="0" x2="128" y2="533" gradientUnits="userSpaceOnUse"><stop stop-color="#2f67ff"/><stop offset="1" stop-color="#ff5f9b"/></linearGradient><linearGradient id="D" x1="238.564" y1="126.203" x2="299.205" y2="126.203" gradientUnits="userSpaceOnUse"><stop stop-color="#2f67ff"/><stop offset="1" stop-color="#c262b8"/></linearGradient><clipPath id="E"><path transform="translate(34.564 121.514)" d="M0 0h9v9H0z" class="B"/></clipPath><clipPath id="F"><path transform="translate(34.564 243.514)" d="M0 0h11v12H0z" class="B"/></clipPath><clipPath id="G"><path transform="translate(31.564 405.514)" d="M0 0h11v11H0z" class="B"/></clipPath><clipPath id="H"><path transform="translate(32.563 340.514)" d="M0 0h11v11H0z" class="B"/></clipPath><clipPath id="I"><path transform="translate(34.564 316.514)" d="M0 0h10v9H0z" class="B"/></clipPath><clipPath id="J"><path transform="translate(30 437.514)" d="M0 0h12v12H0z" class="B"/></clipPath><clipPath id="K"><path transform="translate(30 473.514)" d="M0 0h11v11H0z" class="B"/></clipPath><path id="L" d="M36.372 57.525v.823"/><path id="M" d="M27.564 138.264h210.999"/><path id="N" d="M218.496 254.014l-.531-.5 3.134-2.925-3.134-2.925.531-.5 3.666 3.425-3.666 3.425z"/><path id="O" d="M217.933 449.014l-.532-.5 3.135-2.925-3.135-2.925.532-.5 3.665 3.425-3.665 3.425z"/></defs></svg>