<svg xmlns="http://www.w3.org/2000/svg" width="524" height="533" fill="none" xmlns:v="https://vecta.io/nano"><style><![CDATA[.B{fill:#b8b8b8}.C{stroke-width:.5}.D{fill:#0c0c0c}.E{stroke:#f2f2f2}.F{stroke:#e3e3e3}.G{fill:#575757}.H{fill:#fb1c2e}.I{fill-rule:evenodd}.J{color-interpolation-filters:sRGB}]]></style><rect x=".25" y=".25" width="255.5" height="532.5" rx="9.75" fill="#fff" stroke="url(#C)" class="C"/><g filter="url(#A)"><rect x="16" y="17" width="216" height="52" rx="10" fill="#fff"/></g><g stroke="#5a5c66" stroke-miterlimit="22.9256" class="C"><path d="M31.51 31h10.664a.51.51 0 0 1 .51.51v21.964l-1.219 3.725c-.068.138-.215.206-.42.221l-.18.095-3.869.017-4.04-.015c-.051-.027-.042-.048-.099-.053-.341-.029-.491-.133-.537-.274L31 53.436v-4.184V31.51a.51.51 0 0 1 .51-.51h0z"/><path d="M31.815 31l2.076 1.048 5.977.005L41.943 31l-1.75 1.325s-.272.261-.644.236h-5.187s-.432.079-.823-.293L31.815 31z" stroke-linejoin="round"/><path d="M33.131 33.078l7.604.002 1.763-1.963m-9.833 2.314c0-.065-1.665-1.75-1.665-1.75"/><path d="M33.158 33.105l-1.98-1.98m10.003 2.306c0-.065 1.502-1.75 1.502-1.75"/><path d="M32.662 53.474V33.513s-.081-.435.511-.435m8.004 20.396V33.513s.081-.435-.511-.435"/><path d="M31 49.309l1.662 4.08s.011.19.614.242 7.357 0 7.357 0 .481.005.592-.294l1.432-4.048v.152l-1.391 3.938s-.041.327-.467.352-7.363.026-7.363.026-.776.076-.852-.378L31 49.349m1.89 8.122l1.573-2.466c.046-.086.134-.177.208-.236.202-.16.45-.228.707-.232h2.986c.109-.008.247.011.351.037a1.18 1.18 0 0 1 .648.411l.004.005 1.594 2.475m-2.424.545h-.025m-3.218-.003h-.037"/><path d="M32.997 57.517l1.565-2.455s.206-.402.815-.41h2.991s.543-.046.905.405l1.583 2.458m-2.235.379h-.005m-3.439-.003h-.014m-2.501-4.417l-.356 3.677m.884-3.389l-.28 3.722m8.267-4.058l.332 3.639m-.768-3.331l.291 3.693m-7.901-24.349l.055 20.68m7.571-20.656l-.016 20.632"/><path d="M35.395 57.523h-.303v.208a.71.71 0 0 0 .281.368c.071.444.37.758 1.52.778 1.135.02 1.441-.31 1.517-.756.221-.156.303-.365.33-.598h-.349-2.997z"/><path d="M36.192 57.529v.799"/><use href="#G"/><use href="#G" x="0.209"/><use href="#G" x="0.418"/><use href="#G" x="0.628"/><use href="#G" x="0.837"/><use href="#G" x="1.046"/><use href="#G" x="1.255"/><path d="M38.758 57.524c-.07.479-.41.844-1.865.824s-1.793-.356-1.864-.823"/></g><path d="M56.799 40.727h1.332l2.315 5.653h.085l2.315-5.653h1.332V48h-1.044v-5.263h-.067l-2.145 5.252h-.867l-2.145-5.256h-.067V48h-1.044v-7.273zm9.738 0l1.74 2.844h.057l1.74-2.844h1.271l-2.266 3.636L71.36 48h-1.278l-1.747-2.805h-.057L66.53 48h-1.278l2.319-3.636-2.305-3.636h1.271zm5.645 5.852v-.888l3.143-4.965h.7v1.307h-.444l-2.248 3.558v.057h4.308v.93h-5.458zM75.63 48v-1.69l.007-.405v-5.178h1.041V48H75.63zm5.779.099c-.488 0-.923-.084-1.307-.252s-.683-.401-.906-.7-.338-.649-.355-1.044h1.115a.96.96 0 0 0 .217.561c.132.156.305.277.518.362s.45.128.71.128a1.83 1.83 0 0 0 .76-.149c.223-.099.397-.238.522-.415a1.06 1.06 0 0 0 .188-.621c0-.244-.063-.458-.188-.643s-.304-.334-.543-.44-.523-.16-.859-.16h-.614v-.895h.614c.27 0 .507-.049.71-.146s.367-.232.483-.405.174-.38.174-.614c0-.225-.051-.42-.153-.586s-.242-.3-.426-.394-.398-.142-.646-.142a1.68 1.68 0 0 0-.664.131c-.204.085-.369.208-.497.369a.95.95 0 0 0-.206.572h-1.062c.012-.393.128-.739.348-1.037a2.25 2.25 0 0 1 .881-.7c.365-.168.769-.252 1.215-.252.466 0 .869.091 1.207.273a1.99 1.99 0 0 1 .788.721 1.81 1.81 0 0 1 .277.987c.002.407-.111.753-.341 1.037s-.53.475-.909.572v.057c.483.073.857.265 1.122.575s.4.695.398 1.154c.002.4-.109.759-.334 1.076s-.527.567-.913.749-.827.27-1.325.27zm3.761-1.52v-.888l3.143-4.965h.7v1.307h-.444l-2.248 3.558v.057h4.308v.93H85.17zM88.618 48v-1.69l.007-.405v-5.178h1.04V48h-1.048zm5.779.099c-.488 0-.923-.084-1.307-.252s-.683-.401-.906-.7-.338-.649-.355-1.044h1.115a.96.96 0 0 0 .217.561c.133.156.305.277.518.362s.45.128.71.128a1.83 1.83 0 0 0 .76-.149c.222-.099.396-.238.522-.415a1.06 1.06 0 0 0 .188-.621c0-.244-.063-.458-.188-.643s-.304-.334-.543-.44-.523-.16-.859-.16h-.614v-.895h.614c.27 0 .507-.049.71-.146s.367-.232.483-.405.174-.38.174-.614c0-.225-.051-.42-.153-.586s-.242-.3-.426-.394-.398-.142-.646-.142a1.68 1.68 0 0 0-.664.131c-.204.085-.369.208-.497.369a.95.95 0 0 0-.206.572h-1.062c.012-.393.128-.739.348-1.037a2.25 2.25 0 0 1 .881-.7c.365-.168.769-.252 1.215-.252.466 0 .869.091 1.207.273a1.99 1.99 0 0 1 .788.721 1.81 1.81 0 0 1 .277.987c.002.407-.111.753-.341 1.037s-.53.475-.909.572v.057c.483.073.857.265 1.122.575s.4.695.398 1.154c.002.4-.109.759-.334 1.076s-.527.567-.913.749-.827.27-1.325.27z" fill="#f85550"/><path d="M155.733 44h-.881c-.052-.253-.143-.476-.273-.668a1.82 1.82 0 0 0-.469-.483c-.182-.133-.385-.232-.607-.298a2.43 2.43 0 0 0-.696-.099 2.22 2.22 0 0 0-1.197.334c-.355.223-.638.55-.849.984s-.312.965-.312 1.594.104 1.161.312 1.595.494.761.849.984a2.22 2.22 0 0 0 1.197.334 2.43 2.43 0 0 0 .696-.099 2.04 2.04 0 0 0 .607-.295 1.87 1.87 0 0 0 .469-.486c.13-.194.221-.417.273-.668h.881a2.93 2.93 0 0 1-.362.998c-.175.294-.393.543-.654.749s-.552.359-.877.465-.666.16-1.033.16c-.62 0-1.172-.152-1.655-.455s-.863-.734-1.14-1.293-.415-1.222-.415-1.989.138-1.43.415-1.989.657-.99 1.14-1.293 1.035-.455 1.655-.455c.367 0 .711.053 1.033.16a2.81 2.81 0 0 1 .877.469 2.67 2.67 0 0 1 .654.746c.175.291.296.624.362.998zm3.525 5.114c-.492 0-.924-.117-1.296-.352s-.658-.562-.866-.984-.309-.914-.309-1.477.103-1.064.309-1.488.497-.753.866-.987.804-.352 1.296-.352.924.117 1.293.352.66.563.866.987.313.92.313 1.488-.104 1.056-.313 1.477-.494.749-.866.984-.8.352-1.293.352zm0-.753c.374 0 .682-.096.924-.288a1.7 1.7 0 0 0 .536-.756c.116-.312.174-.651.174-1.016s-.058-.704-.174-1.019a1.72 1.72 0 0 0-.536-.763c-.242-.194-.55-.291-.924-.291s-.681.097-.923.291a1.72 1.72 0 0 0-.536.763c-.116.315-.174.655-.174 1.019s.058.703.174 1.016a1.7 1.7 0 0 0 .536.756c.242.192.549.288.923.288zm4.589-2.642V49h-.838v-5.455h.81v.852h.071a1.56 1.56 0 0 1 .582-.668c.261-.17.597-.256 1.009-.256.369 0 .692.076.969.227s.493.376.647.682.23.687.23 1.151V49h-.838v-3.409c0-.428-.111-.762-.333-1.001s-.528-.362-.917-.362c-.267 0-.506.058-.717.174a1.25 1.25 0 0 0-.494.508c-.12.222-.181.492-.181.81zm5.85 0V49h-.838v-5.455h.81v.852h.071c.127-.277.321-.499.582-.668s.597-.256 1.008-.256c.37 0 .693.076.97.227a1.53 1.53 0 0 1 .646.682c.154.303.231.687.231 1.151V49h-.838v-3.409c0-.428-.111-.762-.334-1.001s-.528-.362-.916-.362c-.268 0-.507.058-.717.174s-.373.285-.494.508-.181.492-.181.81zm7.298 3.395c-.525 0-.979-.116-1.36-.348a2.34 2.34 0 0 1-.877-.98c-.203-.421-.305-.911-.305-1.47s.102-1.051.305-1.477a2.41 2.41 0 0 1 .86-1.001c.369-.241.8-.362 1.292-.362a2.59 2.59 0 0 1 .842.142c.277.095.529.249.756.462a2.2 2.2 0 0 1 .543.838c.135.348.203.776.203 1.285v.355h-4.205v-.724h3.353a1.79 1.79 0 0 0-.185-.824 1.4 1.4 0 0 0-.518-.572c-.223-.14-.486-.209-.789-.209-.334 0-.622.083-.866.249a1.63 1.63 0 0 0-.558.639 1.88 1.88 0 0 0-.195.845v.483c0 .412.071.761.213 1.048a1.53 1.53 0 0 0 .6.65 1.76 1.76 0 0 0 .891.22c.221 0 .419-.031.597-.092s.335-.159.465-.284.231-.287.302-.476l.81.227c-.086.275-.229.516-.43.724s-.45.367-.746.483-.628.17-.998.17zm5.75 0c-.512 0-.952-.121-1.321-.362s-.654-.574-.853-.998-.298-.908-.298-1.453c0-.554.102-1.043.305-1.467s.493-.759.86-.998.8-.362 1.292-.362c.384 0 .73.071 1.037.213a1.99 1.99 0 0 1 .757.597c.196.256.318.554.366.895h-.839c-.063-.249-.205-.469-.426-.66s-.511-.291-.88-.291c-.327 0-.613.085-.86.256a1.66 1.66 0 0 0-.571.714c-.135.305-.203.664-.203 1.076 0 .421.066.788.199 1.101s.324.555.568.728a1.47 1.47 0 0 0 .867.259 1.5 1.5 0 0 0 .593-.114 1.23 1.23 0 0 0 .451-.327 1.25 1.25 0 0 0 .262-.511h.839a1.95 1.95 0 0 1-.352.87 1.97 1.97 0 0 1-.735.611c-.303.149-.656.224-1.058.224zm5.742-5.568v.71h-2.827v-.71h2.827zm-2.003-1.307h.838v5.199c0 .237.034.414.103.533s.161.194.27.234a1.08 1.08 0 0 0 .352.057 1.49 1.49 0 0 0 .227-.014l.142-.028.17.753c-.057.021-.136.043-.238.064a1.74 1.74 0 0 1-.387.035 1.69 1.69 0 0 1-.696-.153 1.38 1.38 0 0 1-.561-.465c-.147-.208-.22-.471-.22-.788v-5.426zm5.492 6.875c-.526 0-.979-.116-1.36-.348s-.671-.561-.877-.98-.306-.911-.306-1.47.102-1.051.306-1.477.492-.762.859-1.001.8-.362 1.293-.362c.284 0 .564.047.841.142s.529.249.757.462.408.49.543.838.202.776.202 1.285v.355h-4.204v-.724h3.352c0-.308-.061-.582-.185-.824s-.293-.432-.518-.572-.485-.209-.788-.209c-.334 0-.623.083-.867.249s-.427.376-.557.639-.196.544-.196.845v.483c0 .412.071.761.213 1.048a1.54 1.54 0 0 0 .601.65c.255.147.552.22.891.22a1.81 1.81 0 0 0 .596-.092 1.29 1.29 0 0 0 .466-.284c.13-.128.23-.287.301-.476l.81.227c-.085.275-.228.516-.43.724s-.449.367-.745.483-.629.17-.998.17zm5.593 0c-.455 0-.856-.115-1.204-.344a2.33 2.33 0 0 1-.817-.98c-.196-.424-.294-.924-.294-1.502s.098-1.07.294-1.491.47-.747.821-.977.755-.344 1.214-.344c.355 0 .636.059.842.178s.367.249.476.398l.259.362h.071v-2.685h.838V49h-.81v-.838h-.099a5.42 5.42 0 0 1-.263.377 1.57 1.57 0 0 1-.486.401c-.211.116-.492.174-.842.174zm.114-.753c.336 0 .62-.088.852-.263s.408-.423.529-.735.181-.678.181-1.09-.059-.764-.178-1.069-.293-.547-.525-.717-.519-.259-.859-.259c-.356 0-.652.091-.888.273a1.63 1.63 0 0 0-.529.735c-.116.308-.174.653-.174 1.037s.059.741.177 1.058.298.566.533.753.53.277.881.277z" class="B"/><path d="M216 45.5a2.5 2.5 0 1 1-5 0 2.5 2.5 0 1 1 5 0z" fill="#53ee50" fill-opacity=".35"/><circle cx="213.5" cy="45.5" r="1.5" fill="#72cf70"/><path d="M38.001 502.23v6.949a1.18 1.18 0 0 1-1.184 1.184h-4.954c-.625 0-1.184-.504-1.184-1.091v-7.136c0-.557.533-1.09 1.091-1.09h5.141a1.11 1.11 0 0 1 .766.355c.179.213.324.453.324.829h0zm8.632 6.543v7.136c0 .558-.533 1.091-1.09 1.091h-5.141c-.563 0-1.09-.539-1.09-1.185v-6.948a1.18 1.18 0 0 1 1.184-1.184h4.955c.644 0 1.184.516 1.184 1.09h0zm-8.632 4.082v2.961a1.17 1.17 0 0 1-.093.468c-.171.379-.538.716-.997.716H31.77c-.558 0-1.091-.533-1.091-1.091v-3.147c0-.59.558-1.09 1.184-1.09h4.954a1.18 1.18 0 0 1 1.184 1.184v-.001zm8.632-10.719v3.148c0 .563-.538 1.09-1.184 1.09h-4.955a1.18 1.18 0 0 1-1.184-1.184v-2.96c0-.347.144-.623.306-.816a1.18 1.18 0 0 1 .785-.368h5.141c.558 0 1.09.533 1.09 1.09h0z" fill="#f85550" class="I"/><path d="M120.103 509.023c0-.315.256-.655.685-.655.824 0 .824 1.309 0 1.309-.219 0-.355-.067-.476-.178-.093-.086-.209-.312-.209-.476zm-1.994.467v4.332c0 1.643 1.539 3.178 3.178 3.178h4.331c.488 0 .96-.185 1.299-.353.286-.142.771-.477.95-.702l.351-.459c.372-.572.548-1.21.548-1.976v-3.646c0-1.146-.412-1.955-.99-2.532s-1.38-.989-2.532-.989h-3.646c-1.127 0-1.656.296-2.417.885-.533.413-1.073 1.517-1.073 2.262h.001zm7.977-7.821c0 1.072 1.063.479 2.653 1.055 2.202.799 3.757 2.748 3.956 5.112.042.505-.05 1.187.745 1.187.322 0 .623-.301.623-.623 0-1.183-.236-2.258-.685-3.148l-.301-.571c-1.106-2.034-3.677-3.635-6.025-3.635h-.343c-.322 0-.623.3-.623.623zm0 2.648c0 .391.21.659.536.71.411.065.466-.012 1.016.138.432.118.794.312 1.142.572.079.06.082.064.149.131.074.073.104.081.171.141s.062.082.126.154c.433.489.742 1.113.812 1.774.042.394-.051 1.086.753 1.086.343 0 .624-.308.624-.717 0-1.228-.474-2.234-1.223-3.077-.064-.072-.068-.101-.14-.173s-.087-.067-.155-.124c-.191-.161-.183-.188-.477-.396-.718-.509-1.688-.842-2.68-.842-.333 0-.654.286-.654.624v-.001zm79.239 4.706a7.23 7.23 0 0 1 .61-2.814c.388-.833.8-1.437 1.41-2.047l.43-.401a6.78 6.78 0 0 1 2.868-1.453c.963-.235 2.124-.267 3.086-.026.923.231 1.643.511 2.412 1.044 2.809 1.946 3.827 5.663 2.291 8.733l-.324.606c-.053.088-.092.114-.119.214-.083-.023-.453-.375-.54-.457-.434-.414-1.268-.924-1.808-1.184-1.634-.784-3.524-.955-5.33-.52-.718.172-1.502.496-2.121.87l-.312.187c-.262.164-.908.668-1.115.879-.087.088-.146.19-.274.225-.025-.094-.158-.278-.219-.38-.082-.139-.145-.281-.213-.418-.295-.588-.509-1.23-.622-1.904a7.49 7.49 0 0 1-.11-1.154h0zm-1.063-.332c0 1.138.054 2.01.475 3.081l.127.338a8.39 8.39 0 0 0 .86 1.533l.406.524c.683.783 1.425 1.418 2.353 1.902l.15.083c.909.455 2.165.848 3.24.848h.665c1.438 0 2.667-.505 3.734-1.085.206-.112.406-.25.587-.377.692-.489 1.194-1.009 1.724-1.667l.209-.29c1.275-1.729 1.742-4.299 1.205-6.433-.142-.565-.288-.942-.493-1.435-.393-.948-1.118-1.82-1.822-2.532-.101-.102-.167-.138-.266-.232-.428-.408-1.246-.883-1.776-1.15-.734-.37-2.048-.753-3.135-.753-.963 0-1.286.001-2.254.239-1.569.385-3.073 1.347-4.105 2.576l-.422.541-.38.584c-.618 1.02-1.082 2.534-1.082 3.704v.001zm4.786-2.46c0 .596.044.98.299 1.496.141.287.397.678.624.905l.401.33a2.94 2.94 0 0 0 .481.283c.83.415 1.922.419 2.749.011 1.041-.513 1.828-1.543 1.828-2.759 0-.832-.207-1.591-.74-2.185-.35-.391-.56-.576-1.066-.829-.83-.415-1.922-.419-2.749-.011-.286.141-.678.397-.904.624-.065.064-.092.12-.167.199s-.114.134-.177.221c-.32.443-.579 1.102-.579 1.715h0z" fill="#545454" class="I"/><g class="B"><path d="M23.881 164v-7.273h2.457c.568 0 1.034.097 1.399.291a1.86 1.86 0 0 1 .81.792c.175.337.263.719.263 1.147a2.4 2.4 0 0 1-.263 1.14c-.175.332-.444.592-.806.782s-.825.28-1.389.28h-1.989v-.795h1.96c.388 0 .701-.057.938-.171a1.07 1.07 0 0 0 .518-.483c.109-.21.163-.461.163-.753s-.055-.545-.163-.763a1.11 1.11 0 0 0-.522-.504c-.239-.121-.555-.181-.948-.181h-1.548V164h-.881zm3.423-3.267l1.79 3.267h-1.023l-1.761-3.267h.994zm6.95-2.188c-.043-.359-.215-.639-.518-.838s-.675-.298-1.115-.298c-.322 0-.604.052-.845.156a1.36 1.36 0 0 0-.561.43c-.133.182-.199.389-.199.621 0 .195.046.362.139.501s.215.252.362.345.301.164.462.223l.444.139.739.199c.189.049.4.118.632.206s.458.207.671.358a1.83 1.83 0 0 1 .533.576c.14.234.209.522.209.863 0 .393-.103.748-.309 1.065s-.502.569-.895.756-.865.281-1.424.281c-.521 0-.972-.084-1.353-.252a2.16 2.16 0 0 1-.895-.703c-.215-.301-.337-.65-.366-1.048h.909c.024.275.116.502.277.682a1.51 1.51 0 0 0 .618.398 2.51 2.51 0 0 0 .81.127 2.38 2.38 0 0 0 .906-.163c.268-.111.479-.265.636-.462a1.09 1.09 0 0 0 .234-.696c0-.241-.068-.438-.202-.589a1.47 1.47 0 0 0-.533-.369 5.55 5.55 0 0 0-.714-.249l-.895-.256c-.568-.163-1.018-.396-1.349-.699s-.497-.7-.497-1.19c0-.407.11-.762.33-1.065s.521-.542.895-.71.797-.256 1.261-.256.885.084 1.25.252.653.393.867.682a1.7 1.7 0 0 1 .341.983h-.852zm2.101 3.964v-.725l3.196-5.057h.526v1.122h-.355l-2.415 3.821v.057h4.304v.782h-5.256zM39.779 164v-1.712-.337-5.224h.838V164h-.838zm5.493.099c-.488 0-.919-.086-1.293-.259s-.662-.415-.87-.721a1.81 1.81 0 0 1-.309-1.051 1.93 1.93 0 0 1 .181-.852c.123-.263.291-.482.504-.657s.456-.29.721-.337v-.043c-.348-.09-.625-.285-.831-.586s-.308-.647-.305-1.033c-.002-.37.091-.7.281-.991s.45-.521.781-.689.714-.252 1.14-.252.798.084 1.129.252.592.398.781.689a1.78 1.78 0 0 1 .291.991 1.8 1.8 0 0 1-.316 1.033 1.4 1.4 0 0 1-.82.586v.043a1.49 1.49 0 0 1 .71.337 1.91 1.91 0 0 1 .504.657 1.97 1.97 0 0 1 .192.852c-.002.393-.109.744-.32 1.051s-.498.546-.87.721-.797.259-1.282.259zm0-.781c.329 0 .613-.053.852-.16a1.26 1.26 0 0 0 .554-.451c.13-.194.197-.421.199-.681-.002-.275-.073-.518-.213-.728s-.33-.377-.572-.498-.513-.181-.82-.181-.587.061-.831.181-.432.287-.572.498a1.28 1.28 0 0 0-.202.728 1.19 1.19 0 0 0 .188.681c.13.195.316.345.558.451s.528.16.859.16zm0-3.452c.261 0 .491-.052.693-.156s.363-.25.479-.437.175-.406.178-.657a1.21 1.21 0 0 0-.174-.642c-.114-.185-.271-.327-.472-.426s-.436-.153-.703-.153-.51.051-.714.153-.361.241-.472.426-.166.396-.163.642.053.47.167.657.276.333.479.437.438.156.703.156zm6.105 4.233c-.417 0-.792-.082-1.126-.248a2.09 2.09 0 0 1-.802-.682c-.201-.289-.311-.618-.33-.987h.852a1.17 1.17 0 0 0 .447.817c.267.213.587.319.959.319.298 0 .564-.07.796-.209a1.48 1.48 0 0 0 .55-.576c.135-.246.202-.524.202-.834 0-.317-.07-.6-.21-.849a1.54 1.54 0 0 0-.568-.593c-.241-.144-.517-.218-.827-.22-.223-.002-.451.032-.685.103s-.427.157-.579.266l-.824-.099.44-3.58h3.778v.782h-3.04l-.256 2.144h.043a1.9 1.9 0 0 1 .561-.294 2.13 2.13 0 0 1 .703-.118c.445 0 .842.107 1.19.32s.625.5.824.867.302.786.302 1.257c0 .464-.104.878-.312 1.243s-.49.648-.852.859-.774.312-1.236.312zm7.05-.099h-.923l2.67-7.273h.909l2.67 7.273h-.923l-2.173-6.122H60.6L58.427 164zm.341-2.841h3.722v.781h-3.722v-.781zm8.065 2.955c-.455 0-.856-.115-1.204-.345s-.62-.559-.817-.98-.295-.924-.295-1.502.098-1.07.295-1.492.47-.746.82-.976.755-.345 1.215-.345c.355 0 .636.06.842.178a1.45 1.45 0 0 1 .476.398l.259.362h.071v-2.685h.838V164h-.81v-.838h-.099c-.062.099-.149.225-.263.376s-.276.283-.487.402-.491.174-.842.174zm.114-.753c.336 0 .62-.088.852-.263a1.65 1.65 0 0 0 .529-.735c.121-.315.181-.678.181-1.09 0-.407-.059-.764-.178-1.069a1.55 1.55 0 0 0-.526-.717c-.232-.173-.519-.26-.859-.26-.355 0-.651.091-.888.274s-.411.425-.529.735-.174.653-.174 1.037.059.741.177 1.058a1.73 1.73 0 0 0 .533.753c.237.184.53.277.881.277zm6.097.753c-.454 0-.856-.115-1.204-.345s-.62-.559-.817-.98-.295-.924-.295-1.502.098-1.07.295-1.492.47-.746.82-.976.755-.345 1.215-.345c.355 0 .636.06.842.178a1.45 1.45 0 0 1 .476.398l.259.362h.071v-2.685h.838V164h-.81v-.838h-.099c-.061.099-.149.225-.263.376s-.276.283-.487.402-.491.174-.842.174zm.114-.753c.336 0 .62-.088.852-.263a1.65 1.65 0 0 0 .529-.735 3.03 3.03 0 0 0 .181-1.09c0-.407-.059-.764-.177-1.069s-.294-.547-.526-.717-.518-.26-.859-.26c-.355 0-.651.091-.888.274s-.411.425-.529.735-.174.653-.174 1.037.059.741.178 1.058a1.73 1.73 0 0 0 .533.753c.237.184.53.277.881.277zm4.038.639v-5.455h.81v.824h.057c.099-.27.279-.489.54-.657a1.59 1.59 0 0 1 .881-.252l.231.004.21.01v.853c-.028-.007-.094-.018-.195-.032s-.205-.025-.316-.025c-.265 0-.502.056-.71.167a1.26 1.26 0 0 0-.49.454c-.118.192-.178.411-.178.657V164h-.838zm5.842.114c-.526 0-.979-.116-1.36-.348a2.34 2.34 0 0 1-.877-.98c-.204-.422-.305-.912-.305-1.471s.102-1.051.305-1.477a2.41 2.41 0 0 1 .859-1.001c.369-.242.8-.363 1.293-.363.284 0 .565.048.842.142a2.09 2.09 0 0 1 .756.462 2.21 2.21 0 0 1 .543.838c.135.348.202.777.202 1.286v.355H81.09v-.725h3.352c0-.307-.061-.582-.185-.823s-.294-.433-.518-.572-.485-.21-.788-.21c-.334 0-.623.083-.867.249a1.63 1.63 0 0 0-.558.639 1.88 1.88 0 0 0-.195.845v.483c0 .412.071.761.213 1.048s.344.5.6.65.553.22.891.22a1.8 1.8 0 0 0 .597-.093c.18-.063.335-.158.465-.284s.231-.286.302-.475l.81.227c-.085.274-.228.516-.43.724s-.45.367-.746.483-.629.171-.998.171zm7.397-4.347l-.753.213a1.42 1.42 0 0 0-.209-.366c-.09-.12-.213-.22-.369-.298s-.356-.117-.6-.117c-.334 0-.612.077-.834.231s-.33.344-.33.579c0 .208.076.372.227.493s.388.221.71.302l.81.199c.488.118.851.299 1.09.543s.359.553.359.934c0 .313-.09.592-.27.838s-.426.441-.746.583-.691.213-1.115.213c-.556 0-1.017-.121-1.381-.363s-.595-.594-.692-1.058l.796-.199c.076.294.219.514.43.661s.491.22.835.22c.391 0 .701-.083.93-.249s.348-.369.348-.603c0-.19-.066-.348-.199-.476s-.336-.227-.611-.291l-.909-.213c-.499-.119-.866-.302-1.101-.551s-.348-.564-.348-.941a1.35 1.35 0 0 1 .259-.817 1.77 1.77 0 0 1 .714-.557c.303-.135.646-.203 1.03-.203.54 0 .964.119 1.271.356a1.91 1.91 0 0 1 .66.937zm5.225 0l-.753.213a1.42 1.42 0 0 0-.209-.366c-.09-.12-.213-.22-.369-.298s-.356-.117-.6-.117c-.334 0-.612.077-.835.231s-.33.344-.33.579c0 .208.076.372.227.493s.388.221.71.302l.81.199c.488.118.851.299 1.09.543s.359.553.359.934c0 .313-.09.592-.27.838s-.426.441-.746.583-.691.213-1.115.213c-.556 0-1.017-.121-1.381-.363s-.595-.594-.693-1.058l.796-.199c.076.294.219.514.43.661s.491.22.835.22c.391 0 .701-.083.93-.249s.348-.369.348-.603c0-.19-.066-.348-.199-.476s-.336-.227-.611-.291l-.909-.213c-.499-.119-.866-.302-1.101-.551s-.348-.564-.348-.941a1.35 1.35 0 0 1 .259-.817 1.77 1.77 0 0 1 .714-.557c.303-.135.646-.203 1.03-.203.54 0 .963.119 1.271.356a1.91 1.91 0 0 1 .66.937zm3.648 4.347c-.525 0-.979-.116-1.36-.348a2.34 2.34 0 0 1-.877-.98c-.204-.422-.305-.912-.305-1.471s.102-1.051.305-1.477a2.41 2.41 0 0 1 .859-1.001c.369-.242.8-.363 1.293-.363a2.6 2.6 0 0 1 .841.142 2.1 2.1 0 0 1 .757.462c.227.211.408.49.543.838s.202.777.202 1.286v.355H97.36v-.725h3.352c0-.307-.061-.582-.184-.823s-.294-.433-.519-.572-.485-.21-.788-.21c-.334 0-.623.083-.866.249a1.63 1.63 0 0 0-.558.639 1.88 1.88 0 0 0-.195.845v.483c0 .412.071.761.213 1.048s.344.5.6.65.553.22.891.22a1.8 1.8 0 0 0 .597-.093 1.26 1.26 0 0 0 .465-.284c.13-.127.231-.286.302-.475l.809.227c-.085.274-.228.516-.429.724a2.1 2.1 0 0 1-.746.483 2.76 2.76 0 0 1-.998.171zm7.397-4.347l-.753.213c-.047-.125-.117-.247-.209-.366a1.02 1.02 0 0 0-.37-.298c-.156-.078-.356-.117-.6-.117-.334 0-.612.077-.834.231s-.331.344-.331.579c0 .208.076.372.228.493s.388.221.71.302l.81.199c.487.118.851.299 1.09.543s.358.553.358.934c0 .313-.09.592-.27.838a1.79 1.79 0 0 1-.745.583c-.32.142-.692.213-1.115.213-.557 0-1.017-.121-1.382-.363s-.595-.594-.692-1.058l.795-.199c.076.294.219.514.43.661s.491.22.834.22c.391 0 .701-.083.931-.249s.348-.369.348-.603a.63.63 0 0 0-.199-.476c-.133-.13-.336-.227-.611-.291l-.909-.213c-.499-.119-.866-.302-1.101-.551s-.348-.564-.348-.941a1.35 1.35 0 0 1 .26-.817 1.77 1.77 0 0 1 .713-.557c.303-.135.647-.203 1.03-.203.54 0 .964.119 1.271.356s.531.549.661.937z"/><path d="M23.881 101v-7.273h2.457c.57 0 1.037.103 1.399.309s.634.479.81.827.263.736.263 1.165-.088.818-.263 1.168-.44.63-.803.838-.826.309-1.392.309h-1.761v-.781h1.733c.391 0 .704-.067.941-.202s.408-.317.515-.547.163-.494.163-.785a1.8 1.8 0 0 0-.163-.781c-.107-.23-.279-.41-.518-.54s-.556-.199-.952-.199h-1.548V101h-.881zm8.391.114c-.492 0-.924-.118-1.296-.352s-.658-.562-.866-.984-.309-.914-.309-1.477.103-1.064.309-1.488.497-.753.866-.987.804-.352 1.296-.352.923.117 1.293.352a2.35 2.35 0 0 1 .867.987c.208.424.313.92.313 1.488s-.104 1.056-.312 1.477-.495.75-.867.984-.8.352-1.293.352zm0-.753c.374 0 .682-.096.923-.288s.42-.444.536-.756.174-.651.174-1.016-.058-.704-.174-1.019-.295-.569-.536-.763-.549-.291-.923-.291-.682.097-.923.291-.42.449-.536.763-.174.655-.174 1.019.058.703.174 1.016.295.565.536.756.549.288.923.288zm4.801.639l-1.662-5.454h.881l1.179 4.176h.057l1.165-4.176h.895l1.151 4.162h.057l1.179-4.162h.881L41.193 101h-.824l-1.193-4.19h-.085L37.897 101h-.824zm8.99.114c-.525 0-.979-.116-1.36-.348s-.671-.561-.877-.981-.305-.911-.305-1.47.102-1.051.305-1.477a2.41 2.41 0 0 1 .859-1.001c.369-.241.8-.362 1.293-.362.284 0 .565.047.842.142s.529.249.756.462.408.49.543.838.202.776.202 1.285v.355h-4.205v-.724h3.352c0-.308-.062-.582-.185-.824a1.39 1.39 0 0 0-.518-.572c-.223-.14-.485-.21-.788-.21-.334 0-.623.083-.866.249s-.427.376-.558.639-.195.544-.195.845v.483c0 .412.071.761.213 1.048a1.54 1.54 0 0 0 .6.65c.256.146.553.22.891.22a1.8 1.8 0 0 0 .597-.093 1.26 1.26 0 0 0 .465-.284 1.29 1.29 0 0 0 .302-.476l.81.227c-.085.274-.228.516-.43.724s-.45.367-.746.483-.628.171-.998.171zm3.533-.114v-5.454h.81v.824h.057a1.31 1.31 0 0 1 .54-.657 1.59 1.59 0 0 1 .881-.252l.231.004.209.011v.852c-.028-.007-.093-.018-.195-.032a1.93 1.93 0 0 0-.316-.025c-.265 0-.502.056-.71.167a1.26 1.26 0 0 0-.49.454c-.118.192-.177.411-.177.657V101h-.838zm12.783-3.636c0 .767-.139 1.43-.416 1.989s-.657.99-1.14 1.293-1.035.454-1.655.454-1.172-.151-1.655-.454-.863-.734-1.14-1.293-.416-1.222-.416-1.989.139-1.43.416-1.989.657-.99 1.14-1.293 1.034-.455 1.655-.455 1.172.152 1.655.455.863.734 1.14 1.293.416 1.222.416 1.989zm-.852 0c0-.63-.105-1.161-.316-1.594s-.491-.761-.849-.984a2.2 2.2 0 0 0-1.193-.334 2.22 2.22 0 0 0-1.197.334c-.355.222-.638.55-.849.984s-.312.965-.312 1.594.104 1.161.313 1.594.494.761.849.984a2.22 2.22 0 0 0 1.197.334c.44 0 .838-.112 1.193-.334s.64-.55.849-.984.316-.965.316-1.594zm5.657 1.406v-3.224h.838V101h-.838v-.923h-.057c-.128.277-.327.512-.597.706s-.611.288-1.023.288c-.341 0-.644-.075-.909-.224s-.474-.378-.625-.682-.227-.69-.227-1.154v-3.466h.838v3.409c0 .398.111.715.334.952s.511.355.859.355c.208 0 .42-.053.636-.159a1.39 1.39 0 0 0 .547-.49c.149-.22.224-.501.224-.842zm4.745-3.224v.71h-2.827v-.71h2.827zm-2.003-1.307h.838v5.199c0 .237.034.414.103.533a.54.54 0 0 0 .27.235c.111.037.228.056.352.056.092 0 .168-.004.227-.014l.142-.028.171.753a1.86 1.86 0 0 1-.238.064c-.102.023-.231.035-.387.035-.237 0-.469-.051-.696-.153a1.38 1.38 0 0 1-.561-.465c-.147-.208-.22-.471-.22-.788v-5.426zm3.263 8.806v-7.499h.81v.866h.099l.256-.362a1.5 1.5 0 0 1 .476-.398c.208-.118.49-.178.845-.178.459 0 .864.115 1.215.344s.624.555.82.977.295.918.295 1.491-.098 1.078-.295 1.502-.469.748-.817.98-.749.345-1.204.345c-.35 0-.631-.058-.842-.174s-.373-.253-.487-.402l-.263-.376h-.071v2.883h-.838zm.824-4.772c0 .412.06.775.181 1.09s.297.558.529.735.516.263.852.263c.35 0 .643-.093.877-.277s.414-.438.533-.753.181-.67.181-1.058a2.87 2.87 0 0 0-.177-1.037c-.116-.31-.292-.555-.529-.735s-.529-.273-.884-.273c-.341 0-.627.086-.859.259s-.407.41-.526.717-.178.662-.178 1.069zm8.707.497v-3.224h.838V101h-.838v-.923h-.057c-.128.277-.327.512-.597.706s-.611.288-1.023.288c-.341 0-.644-.075-.909-.224s-.474-.378-.625-.682-.227-.69-.227-1.154v-3.466h.838v3.409c0 .398.111.715.334.952s.511.355.859.355c.208 0 .42-.053.636-.159a1.39 1.39 0 0 0 .547-.49c.149-.22.224-.501.224-.842zm4.745-3.224v.71h-2.827v-.71h2.827zm-2.003-1.307h.838v5.199c0 .237.034.414.103.533a.54.54 0 0 0 .27.235c.111.037.228.056.352.056.092 0 .168-.004.227-.014l.142-.028.171.753a1.86 1.86 0 0 1-.238.064c-.102.023-.231.035-.387.035-.237 0-.469-.051-.696-.153s-.412-.257-.561-.465-.22-.471-.22-.788v-5.426z"/></g><g clip-path="url(#E)" class="G"><path d="M43.333 190.833c-.364 0-.436.288-.438.295-.135.4-1.253.955-2.999.955-1.819 0-2.979-.616-2.979-1.041v-.795c.752.387 1.869.586 2.979.586l.242-.003c.253-.006.452-.198.446-.428s-.208-.421-.47-.405l-.217.003c-1.928 0-2.979-.61-2.979-.923v-.914c.752.387 1.869.587 2.979.587l.242-.003c.253-.006.452-.197.446-.427a.43.43 0 0 0-.47-.406l-.217.003c-1.928 0-2.979-.61-2.979-.923v-.238c0-.313 1.051-.922 2.979-.922a8.08 8.08 0 0 1 .863.045c.251.023.479-.136.509-.364s-.15-.436-.401-.463c-2.158-.234-4.867.355-4.867 1.704v6.488c0 1.153 1.96 1.756 3.896 1.756s3.896-.603 3.896-1.756v-1.994c0-.008-.023-.417-.458-.417zm-3.437 3.334c-1.928 0-2.979-.61-2.979-.923v-.969c.703.397 1.758.642 2.979.642 1.204 0 2.264-.237 2.979-.627v.954c0 .313-1.051.923-2.979.923zM47 185.508v1.275c0 .166-.148.3-.33.3h-.318-.001-1.084c-.133 0-.254-.073-.305-.185a.28.28 0 0 1 .072-.327l.386-.351a1.95 1.95 0 0 0-1.17-.387c-.729 0-1.389.393-1.681 1-.101.211-.369.308-.603.215s-.338-.338-.236-.548c.438-.912 1.428-1.5 2.521-1.5.685 0 1.329.231 1.822.627l.364-.332c.094-.085.236-.111.36-.065s.204.156.204.277l-.001.001zm-.229 2.992c-.438.912-1.427 1.5-2.521 1.5-.685 0-1.329-.231-1.822-.627l-.364.331c-.094.086-.236.111-.36.065s-.203-.156-.203-.277v-1.275c0-.166.148-.3.33-.3h1.403c.133 0 .254.073.305.185a.28.28 0 0 1-.072.327l-.386.351c.323.244.733.387 1.17.387.729 0 1.389-.392 1.681-1 .101-.21.369-.306.603-.215s.338.338.236.549v-.001z"/></g><path d="M58.881 195v-7.273h2.543c.507 0 .925.088 1.254.263s.574.406.735.7.241.614.241.969c0 .313-.056.571-.167.774s-.253.365-.433.483a1.96 1.96 0 0 1-.579.263v.071a1.42 1.42 0 0 1 .671.234c.225.142.413.346.565.611s.227.59.227.973a1.95 1.95 0 0 1-.249.984c-.166.291-.427.522-.785.692s-.823.256-1.396.256H58.88zm.881-.781h1.747c.575 0 .984-.112 1.225-.334a1.07 1.07 0 0 0 .366-.817 1.3 1.3 0 0 0-.188-.682 1.37 1.37 0 0 0-.536-.504 1.68 1.68 0 0 0-.824-.192h-1.79v2.529zm0-3.296h1.633c.265 0 .504-.052.717-.156s.386-.251.511-.44.192-.412.192-.668c0-.32-.111-.591-.334-.813s-.575-.337-1.058-.337h-1.662v2.414zm7.115 4.205a2.22 2.22 0 0 1-.941-.195c-.282-.133-.505-.324-.671-.572s-.249-.554-.249-.909c0-.313.062-.566.185-.76a1.3 1.3 0 0 1 .494-.462c.206-.111.433-.194.682-.248l.756-.135.806-.096c.208-.024.36-.063.454-.117s.146-.15.146-.285v-.028c0-.35-.096-.623-.288-.817s-.477-.291-.863-.291c-.4 0-.714.088-.941.263a1.55 1.55 0 0 0-.479.561l-.796-.284c.142-.332.332-.59.568-.774s.499-.318.781-.391.563-.114.838-.114a3.39 3.39 0 0 1 .604.064 2 2 0 0 1 .664.252c.213.127.394.321.536.579s.213.604.213 1.037V195h-.838v-.739h-.043a1.46 1.46 0 0 1-.284.38 1.65 1.65 0 0 1-.529.345c-.22.095-.489.142-.806.142zm.128-.753c.331 0 .611-.065.838-.195s.402-.299.518-.505.178-.422.178-.649v-.767c-.035.042-.114.081-.234.117a3.99 3.99 0 0 1-.412.088l-.451.064-.352.043c-.218.028-.421.075-.611.139a1.05 1.05 0 0 0-.455.28c-.114.123-.17.291-.17.504a.75.75 0 0 0 .323.661c.218.147.494.22.827.22zm7.339-1.605v-3.225h.838V195h-.838v-.923h-.057c-.128.277-.327.512-.597.706s-.611.288-1.023.288c-.341 0-.644-.075-.909-.224s-.474-.378-.625-.682-.227-.69-.227-1.154v-3.466h.838v3.41c0 .397.111.715.334.951s.511.355.859.355c.208 0 .42-.053.636-.159a1.39 1.39 0 0 0 .547-.49c.149-.221.224-.501.224-.842zm4.433 2.344c-.454 0-.856-.115-1.204-.345a2.32 2.32 0 0 1-.817-.98c-.197-.421-.295-.924-.295-1.502s.098-1.07.295-1.492.47-.746.82-.976.755-.345 1.215-.345c.355 0 .636.06.842.178a1.45 1.45 0 0 1 .476.398l.259.362h.071v-2.685h.838V195h-.81v-.838h-.1a5.08 5.08 0 0 1-.263.376c-.114.151-.276.283-.486.402s-.491.174-.842.174zm.114-.753c.336 0 .62-.088.852-.263s.408-.423.529-.735.181-.678.181-1.09-.059-.764-.178-1.069-.294-.547-.526-.717-.518-.26-.859-.26c-.355 0-.651.091-.888.274s-.411.425-.529.735-.174.653-.174 1.037.059.741.178 1.058a1.73 1.73 0 0 0 .533.753c.237.184.53.277.881.277zm6.964.639v-7.273h2.457c.568 0 1.035.097 1.399.291a1.86 1.86 0 0 1 .81.792c.175.337.263.719.263 1.147a2.4 2.4 0 0 1-.263 1.14c-.175.332-.444.592-.806.782s-.825.28-1.388.28h-1.989v-.795h1.96c.388 0 .701-.057.938-.171a1.07 1.07 0 0 0 .519-.483c.109-.21.163-.461.163-.753s-.054-.545-.163-.763a1.11 1.11 0 0 0-.522-.504c-.239-.121-.555-.181-.948-.181h-1.548V195h-.881zm3.423-3.267l1.79 3.267h-1.023l-1.761-3.267h.994zm4.465 3.395a2.22 2.22 0 0 1-.941-.195c-.282-.133-.505-.324-.671-.572s-.249-.554-.249-.909c0-.313.062-.566.185-.76a1.3 1.3 0 0 1 .494-.462c.206-.111.433-.194.682-.248l.756-.135.806-.096c.208-.024.36-.063.454-.117s.146-.15.146-.285v-.028c0-.35-.096-.623-.288-.817s-.477-.291-.863-.291c-.4 0-.714.088-.941.263a1.55 1.55 0 0 0-.479.561l-.795-.284c.142-.332.331-.59.568-.774a2.16 2.16 0 0 1 .781-.391c.281-.073.563-.114.838-.114a3.39 3.39 0 0 1 .604.064 2 2 0 0 1 .664.252c.213.127.394.321.536.579s.213.604.213 1.037V195h-.838v-.739h-.043a1.46 1.46 0 0 1-.284.38 1.65 1.65 0 0 1-.529.345c-.22.095-.489.142-.806.142zm.128-.753c.331 0 .611-.065.838-.195a1.35 1.35 0 0 0 .519-.505c.116-.206.177-.422.177-.649v-.767c-.035.042-.114.081-.234.117a3.41 3.41 0 0 1-.412.088l-.451.064-.351.043c-.218.028-.421.075-.611.139a1.05 1.05 0 0 0-.455.28c-.114.123-.17.291-.17.504a.75.75 0 0 0 .323.661c.218.147.494.22.827.22zm6.274-4.83v.711h-2.827v-.711h2.827zm-2.003-1.306h.838v5.199c0 .236.034.414.103.532a.52.52 0 0 0 .27.235c.109.041.228.056.352.056a1.42 1.42 0 0 0 .227-.014l.142-.028.171.753c-.057.021-.137.042-.238.064a1.86 1.86 0 0 1-.387.035 1.68 1.68 0 0 1-.696-.153 1.38 1.38 0 0 1-.561-.465c-.147-.208-.22-.471-.22-.788v-5.426zm5.492 6.875c-.525 0-.979-.116-1.36-.348s-.671-.561-.877-.98-.306-.912-.306-1.471.102-1.051.306-1.477a2.41 2.41 0 0 1 .859-1.001c.37-.242.8-.363 1.293-.363.284 0 .565.048.841.142a2.09 2.09 0 0 1 .757.462c.227.211.408.49.543.838s.203.777.203 1.286v.355h-4.205v-.725h3.352c0-.307-.061-.582-.184-.823s-.294-.433-.519-.572-.485-.21-.788-.21c-.334 0-.623.083-.867.249a1.63 1.63 0 0 0-.557.639 1.88 1.88 0 0 0-.195.845v.483c0 .412.071.761.213 1.048a1.51 1.51 0 0 0 .6.65c.256.15.553.22.891.22.22 0 .419-.031.597-.093s.335-.158.465-.284.231-.286.302-.475l.809.227c-.085.274-.228.516-.429.724a2.1 2.1 0 0 1-.746.483 2.76 2.76 0 0 1-.998.171zM58.881 128v-7.273h2.457c.571 0 1.037.103 1.399.309s.634.48.81.828.263.736.263 1.164-.088.818-.263 1.169-.44.629-.803.838-.826.309-1.392.309h-1.761v-.782h1.733c.391 0 .704-.067.941-.202s.408-.317.515-.547.163-.493.163-.785-.054-.551-.163-.781a1.18 1.18 0 0 0-.518-.54c-.239-.131-.556-.198-.952-.198h-1.548V128h-.881zm8.391.114a2.38 2.38 0 0 1-1.296-.352c-.371-.234-.658-.562-.867-.984s-.309-.913-.309-1.477.103-1.064.309-1.488a2.36 2.36 0 0 1 .867-.987c.37-.234.804-.352 1.296-.352s.923.118 1.293.352.66.563.867.987.313.92.313 1.488-.104 1.056-.312 1.477a2.35 2.35 0 0 1-.867.984c-.369.234-.8.352-1.293.352zm0-.753c.374 0 .682-.096.923-.288s.42-.444.536-.756a2.9 2.9 0 0 0 .174-1.016c0-.364-.058-.704-.174-1.019s-.295-.569-.536-.764-.549-.291-.923-.291-.682.097-.923.291a1.72 1.72 0 0 0-.536.764c-.116.315-.174.655-.174 1.019a2.9 2.9 0 0 0 .174 1.016c.116.312.295.564.536.756s.549.288.923.288zm4.801.639l-1.662-5.455h.881l1.179 4.177h.057l1.165-4.177h.895l1.15 4.162h.057l1.179-4.162h.881L76.193 128h-.824l-1.193-4.19h-.085L72.897 128h-.824zm8.99.114c-.525 0-.979-.116-1.36-.348a2.34 2.34 0 0 1-.877-.98c-.204-.422-.305-.912-.305-1.471s.102-1.051.305-1.477a2.41 2.41 0 0 1 .859-1.001c.369-.242.8-.363 1.293-.363.284 0 .565.048.842.142a2.09 2.09 0 0 1 .756.462c.227.211.408.49.543.838s.202.777.202 1.286v.355h-4.205v-.725h3.352c0-.307-.062-.582-.185-.823a1.41 1.41 0 0 0-.518-.572 1.45 1.45 0 0 0-.788-.21c-.334 0-.623.083-.867.249a1.63 1.63 0 0 0-.557.639 1.88 1.88 0 0 0-.195.845v.483c0 .412.071.761.213 1.048a1.51 1.51 0 0 0 .6.65c.256.15.553.22.891.22a1.8 1.8 0 0 0 .597-.093c.18-.063.335-.158.465-.284s.231-.286.302-.475l.81.227c-.085.274-.228.516-.43.724s-.45.367-.746.483-.629.171-.998.171zm3.533-.114v-5.455h.81v.824h.057a1.31 1.31 0 0 1 .54-.657 1.59 1.59 0 0 1 .881-.252l.231.004.209.01v.853a2.43 2.43 0 0 0-.195-.032c-.099-.017-.205-.025-.316-.025-.265 0-.502.056-.71.167a1.26 1.26 0 0 0-.49.454 1.23 1.23 0 0 0-.178.657V128h-.838z" class="D"/><path d="M198.753 197v-.639l2.4-2.628.696-.803c.183-.229.318-.445.405-.646s.135-.417.135-.639a1.18 1.18 0 0 0-.184-.664c-.121-.187-.287-.332-.498-.433s-.447-.153-.71-.153c-.279 0-.523.058-.731.174a1.2 1.2 0 0 0-.48.479c-.111.206-.167.448-.167.725h-.838c0-.426.098-.8.295-1.122a2.05 2.05 0 0 1 .803-.753c.339-.18.723-.27 1.147-.27s.803.09 1.132.27a2.03 2.03 0 0 1 .775.728 1.91 1.91 0 0 1 .28 1.019 2.18 2.18 0 0 1-.146.785c-.094.253-.26.536-.497.848a15.66 15.66 0 0 1-.976 1.137l-1.634 1.747v.057h3.381V197h-4.588zm5.728-1.491v-.725l3.196-5.057h.525v1.122h-.355l-2.414 3.821v.057h4.304v.782h-5.256zm3.423 1.491v-1.712-.337-5.224h.838V197h-.838zm5.535.099c-.535 0-.99-.145-1.367-.436s-.664-.719-.863-1.275-.298-1.234-.298-2.024.099-1.458.298-2.014.49-.985.867-1.278a2.16 2.16 0 0 1 1.363-.444c.53 0 .984.148 1.361.444s.667.719.866 1.278.302 1.228.302 2.014-.1 1.465-.298 2.024-.487.981-.863 1.275-.833.436-1.368.436zm0-.781c.531 0 .943-.256 1.236-.767s.441-1.24.441-2.187c0-.63-.068-1.166-.203-1.609s-.324-.78-.575-1.012a1.27 1.27 0 0 0-.899-.348c-.525 0-.936.259-1.232.778s-.444 1.246-.444 2.191c0 .629.067 1.164.199 1.605s.323.775.572 1.005.553.344.905.344zm6.25.781c-.535 0-.99-.145-1.367-.436s-.664-.719-.863-1.275-.298-1.234-.298-2.024.099-1.458.298-2.014.49-.985.867-1.278a2.16 2.16 0 0 1 1.363-.444c.53 0 .984.148 1.361.444s.667.719.866 1.278.302 1.228.302 2.014-.1 1.465-.298 2.024-.487.981-.863 1.275-.833.436-1.368.436zm0-.781c.531 0 .943-.256 1.236-.767s.441-1.24.441-2.187c0-.63-.068-1.166-.203-1.609s-.324-.78-.575-1.012a1.27 1.27 0 0 0-.899-.348c-.525 0-.936.259-1.232.778s-.444 1.246-.444 2.191c0 .629.067 1.164.199 1.605s.323.775.572 1.005.553.344.905.344zm-18.379-73.591V130h-.881v-6.349h-.043l-1.775 1.179v-.895l1.818-1.208h.881zm2.091 7.273v-.639l2.401-2.628.696-.803c.182-.229.317-.445.405-.646a1.59 1.59 0 0 0 .135-.639 1.18 1.18 0 0 0-.185-.664 1.19 1.19 0 0 0-.497-.433 1.61 1.61 0 0 0-.71-.153c-.28 0-.524.058-.732.174s-.366.273-.479.479-.167.448-.167.725h-.838c0-.426.098-.8.294-1.122a2.05 2.05 0 0 1 .803-.753c.341-.18.723-.27 1.147-.27s.804.09 1.133.27.587.422.774.728.281.645.281 1.019a2.2 2.2 0 0 1-.146.785c-.095.253-.261.536-.497.848a15.22 15.22 0 0 1-.977 1.137l-1.633 1.747v.057h3.38V130h-4.588zm9.294-7.273l2.159 6.122h.085l2.159-6.122h.923l-2.67 7.273h-.909l-2.671-7.273h.924z" class="B"/><path d="M28 204.75h226" class="C E"/><path d="M47.375 213.458h-9.75c-.896 0-1.625.785-1.625 1.75v8.75h13v-8.75c0-.965-.729-1.75-1.625-1.75zm-7.042 8.459H39.25v-3.863l-.696.769-.776-.814 1.741-1.926h.813v5.833.001z" class="G"/><path d="M58.881 225v-7.273h2.457c.571 0 1.037.103 1.399.309s.634.48.81.828.263.736.263 1.164-.088.818-.263 1.169-.44.629-.803.838-.826.309-1.392.309h-1.761v-.782h1.733c.391 0 .704-.067.941-.202s.408-.317.515-.547.163-.493.163-.785-.054-.551-.163-.781-.279-.409-.518-.54-.556-.198-.952-.198h-1.548V225h-.881zm7.839.128a2.22 2.22 0 0 1-.941-.195c-.282-.133-.505-.324-.671-.572s-.249-.554-.249-.909c0-.313.062-.566.185-.76a1.3 1.3 0 0 1 .494-.462c.206-.111.433-.194.682-.248l.756-.135.806-.096c.208-.024.36-.063.455-.117s.145-.15.145-.285v-.028c0-.35-.096-.623-.288-.817s-.477-.291-.863-.291c-.4 0-.714.088-.941.263s-.387.362-.479.561l-.795-.284a1.9 1.9 0 0 1 .568-.774c.239-.187.499-.318.781-.391s.563-.114.838-.114c.175 0 .376.022.604.064s.451.125.664.252.394.321.536.579.213.604.213 1.037V225h-.838v-.739h-.043c-.057.119-.151.245-.284.38s-.309.25-.529.345-.489.142-.806.142zm.128-.753c.331 0 .611-.065.838-.195s.403-.299.519-.505.177-.422.177-.649v-.767c-.035.042-.114.081-.234.117s-.256.062-.412.088l-.451.064-.352.043c-.218.028-.421.075-.611.139a1.05 1.05 0 0 0-.455.28c-.114.123-.17.291-.17.504a.75.75 0 0 0 .323.661c.218.147.494.22.828.22zm3.902.625v-5.455h.81v.824h.057a1.31 1.31 0 0 1 .54-.657 1.59 1.59 0 0 1 .881-.252l.231.004.209.01v.853a2.43 2.43 0 0 0-.195-.032c-.099-.017-.205-.025-.316-.025-.265 0-.502.056-.71.167a1.26 1.26 0 0 0-.49.454c-.118.192-.178.411-.178.657V225h-.838zm3.721 0v-5.455h.838V225h-.838zm.426-6.364c-.163 0-.304-.055-.423-.167s-.174-.245-.174-.401.058-.29.174-.401.259-.167.423-.167.303.056.419.167a.53.53 0 0 1 .178.401.53.53 0 0 1-.178.401.58.58 0 0 1-.419.167zm4.319.909v.711h-2.827v-.711h2.827zm-2.003-1.306h.838v5.199c0 .236.034.414.103.532s.161.194.27.235.228.056.352.056c.092 0 .168-.004.227-.014l.142-.028.17.753c-.057.021-.136.042-.238.064s-.231.035-.387.035c-.237 0-.469-.051-.696-.153a1.38 1.38 0 0 1-.561-.465c-.147-.208-.22-.471-.22-.788v-5.426zm3.803 8.806c-.142 0-.269-.011-.38-.035s-.188-.043-.231-.064l.213-.739a1.62 1.62 0 0 0 .54.057c.156-.014.295-.084.416-.209s.236-.323.337-.6l.156-.427-2.017-5.483h.909l1.506 4.347h.057l1.506-4.347h.909l-2.315 6.25c-.104.282-.233.515-.387.7s-.333.326-.536.416a1.67 1.67 0 0 1-.682.134z" class="D"/><path d="M204.648 217.727V225h-.853l-3.963-5.71h-.071V225h-.88v-7.273h.852l3.977 5.725h.071v-5.725h.867zm3.864 7.387c-.492 0-.924-.118-1.296-.352s-.658-.562-.866-.984-.309-.913-.309-1.477.103-1.064.309-1.488.497-.753.866-.987.804-.352 1.296-.352.924.118 1.293.352.66.563.866.987.313.92.313 1.488-.104 1.056-.313 1.477-.494.75-.866.984a2.37 2.37 0 0 1-1.293.352zm0-.753c.374 0 .682-.096.924-.288s.42-.444.536-.756a2.9 2.9 0 0 0 .174-1.016c0-.364-.058-.704-.174-1.019s-.295-.569-.536-.764-.55-.291-.924-.291-.682.097-.923.291a1.72 1.72 0 0 0-.536.764c-.116.315-.174.655-.174 1.019a2.9 2.9 0 0 0 .174 1.016c.116.312.294.564.536.756s.549.288.923.288zm4.589-2.642V225h-.838v-5.455h.81v.853h.071a1.56 1.56 0 0 1 .582-.668c.261-.17.597-.256 1.009-.256.369 0 .692.076.969.228s.493.376.646.682.231.686.231 1.15V225h-.838v-3.409c0-.429-.111-.762-.334-1.002s-.527-.362-.916-.362c-.267 0-.506.058-.717.174s-.373.286-.494.508-.181.493-.181.81zm7.299 3.395c-.526 0-.979-.116-1.36-.348a2.34 2.34 0 0 1-.878-.98c-.203-.422-.305-.912-.305-1.471s.102-1.051.305-1.477.493-.762.86-1.001.8-.363 1.292-.363c.285 0 .565.048.842.142s.529.249.756.462.409.49.544.838.202.777.202 1.286v.355h-4.204v-.725h3.352c0-.307-.062-.582-.185-.823a1.38 1.38 0 0 0-.518-.572c-.223-.14-.486-.21-.789-.21-.333 0-.622.083-.866.249a1.64 1.64 0 0 0-.558.639 1.88 1.88 0 0 0-.195.845v.483c0 .412.071.761.213 1.048a1.55 1.55 0 0 0 .6.65c.256.146.553.22.892.22.22 0 .419-.031.596-.093s.335-.158.465-.284.231-.286.302-.475l.81.227c-.085.274-.228.516-.43.724a2.08 2.08 0 0 1-.745.483 2.76 2.76 0 0 1-.998.171zM26.881 264v-7.273h2.457c.568 0 1.034.097 1.399.291a1.86 1.86 0 0 1 .81.792c.175.337.263.719.263 1.147a2.4 2.4 0 0 1-.263 1.14c-.175.332-.444.592-.806.782s-.825.28-1.389.28h-1.989v-.795h1.96c.388 0 .701-.057.938-.171a1.07 1.07 0 0 0 .518-.483c.109-.21.163-.461.163-.753s-.055-.545-.163-.763a1.11 1.11 0 0 0-.522-.504c-.239-.121-.555-.181-.948-.181h-1.548V264h-.881zm3.423-3.267l1.79 3.267h-1.023l-1.761-3.267h.994zm6.95-2.188c-.043-.359-.215-.639-.518-.838s-.675-.298-1.115-.298a2.12 2.12 0 0 0-.845.156 1.36 1.36 0 0 0-.561.43c-.133.182-.199.389-.199.621a.88.88 0 0 0 .139.501c.093.139.215.252.362.345s.301.164.462.223l.444.139.739.199c.189.049.4.118.632.206a3 3 0 0 1 .671.358 1.83 1.83 0 0 1 .533.576c.14.234.209.522.209.863 0 .393-.103.748-.309 1.065s-.502.569-.895.756-.865.281-1.424.281c-.521 0-.972-.084-1.353-.252a2.16 2.16 0 0 1-.895-.703c-.215-.301-.337-.65-.366-1.048h.909c.024.275.116.502.277.682a1.51 1.51 0 0 0 .618.398 2.51 2.51 0 0 0 .81.127 2.38 2.38 0 0 0 .906-.163 1.55 1.55 0 0 0 .636-.462 1.09 1.09 0 0 0 .234-.696c0-.241-.068-.438-.202-.589a1.47 1.47 0 0 0-.533-.369 5.55 5.55 0 0 0-.714-.249l-.895-.256c-.568-.163-1.018-.396-1.349-.699s-.497-.7-.497-1.19c0-.407.11-.762.33-1.065s.521-.542.895-.71.797-.256 1.261-.256.885.084 1.25.252.653.393.867.682a1.7 1.7 0 0 1 .341.983h-.852zm2.101 3.964v-.725l3.196-5.057h.526v1.122h-.355l-2.415 3.821v.057h4.304v.782h-5.256zM42.779 264v-1.712-.337-5.224h.838V264h-.838zm5.493.099c-.488 0-.919-.086-1.293-.259a2.08 2.08 0 0 1-.87-.721 1.81 1.81 0 0 1-.309-1.051 1.93 1.93 0 0 1 .181-.852 1.85 1.85 0 0 1 .504-.657c.213-.175.456-.29.721-.337v-.043c-.348-.09-.625-.285-.831-.586s-.308-.647-.305-1.033c-.002-.37.091-.7.281-.991s.45-.521.781-.689.714-.252 1.14-.252.798.084 1.129.252.592.398.781.689a1.78 1.78 0 0 1 .291.991 1.8 1.8 0 0 1-.316 1.033 1.4 1.4 0 0 1-.82.586v.043a1.49 1.49 0 0 1 .71.337 1.91 1.91 0 0 1 .504.657 1.97 1.97 0 0 1 .192.852 1.83 1.83 0 0 1-.32 1.051 2.12 2.12 0 0 1-.87.721c-.372.175-.797.259-1.282.259zm0-.781c.329 0 .613-.053.852-.16a1.26 1.26 0 0 0 .554-.451c.13-.194.197-.421.199-.681a1.3 1.3 0 0 0-.213-.728c-.14-.21-.33-.377-.572-.498a1.8 1.8 0 0 0-.82-.181c-.307 0-.587.061-.831.181s-.432.287-.572.498a1.28 1.28 0 0 0-.202.728 1.19 1.19 0 0 0 .188.681c.13.195.316.345.558.451s.528.16.859.16zm0-3.452a1.49 1.49 0 0 0 .693-.156c.202-.104.363-.25.479-.437a1.25 1.25 0 0 0 .178-.657 1.21 1.21 0 0 0-.174-.642c-.114-.185-.271-.327-.472-.426s-.436-.153-.703-.153-.51.051-.714.153a1.11 1.11 0 0 0-.472.426c-.111.185-.166.396-.163.642-.002.251.053.47.167.657s.276.333.479.437.438.156.703.156zm6.105 4.233c-.417 0-.792-.082-1.126-.248a2.09 2.09 0 0 1-.802-.682 1.86 1.86 0 0 1-.33-.987h.852a1.17 1.17 0 0 0 .447.817 1.49 1.49 0 0 0 .959.319 1.52 1.52 0 0 0 .796-.209 1.48 1.48 0 0 0 .55-.576c.135-.246.202-.524.202-.834 0-.317-.07-.6-.21-.849a1.54 1.54 0 0 0-.568-.593c-.241-.144-.517-.218-.827-.22a2.28 2.28 0 0 0-.685.103c-.234.071-.427.157-.579.266l-.824-.099.44-3.58h3.778v.782h-3.04l-.256 2.144h.043a1.9 1.9 0 0 1 .561-.294 2.13 2.13 0 0 1 .703-.118c.445 0 .842.107 1.19.32s.625.5.824.867.302.786.302 1.257c0 .464-.104.878-.312 1.243a2.28 2.28 0 0 1-.852.859c-.362.211-.774.312-1.236.312zm7.05-.099h-.923l2.67-7.273h.909l2.67 7.273h-.923l-2.173-6.122H63.6L61.427 264zm.341-2.841h3.722v.781h-3.722v-.781zm8.065 2.955c-.455 0-.856-.115-1.204-.345a2.32 2.32 0 0 1-.817-.98c-.197-.421-.295-.924-.295-1.502 0-.573.098-1.07.295-1.492s.47-.746.82-.976.755-.345 1.215-.345c.355 0 .636.06.842.178a1.45 1.45 0 0 1 .476.398l.259.362h.071v-2.685h.838V264h-.81v-.838h-.099c-.062.099-.149.225-.263.376s-.276.283-.487.402-.491.174-.842.174zm.114-.753c.336 0 .62-.088.852-.263a1.65 1.65 0 0 0 .529-.735c.121-.315.181-.678.181-1.09s-.059-.764-.178-1.069a1.55 1.55 0 0 0-.526-.717c-.232-.173-.519-.26-.859-.26-.355 0-.651.091-.888.274s-.411.425-.529.735-.174.653-.174 1.037a3.03 3.03 0 0 0 .177 1.058 1.73 1.73 0 0 0 .533.753c.237.184.53.277.881.277zm6.097.753c-.454 0-.856-.115-1.204-.345a2.32 2.32 0 0 1-.817-.98c-.197-.421-.295-.924-.295-1.502 0-.573.098-1.07.295-1.492s.47-.746.82-.976.755-.345 1.215-.345c.355 0 .636.06.842.178a1.45 1.45 0 0 1 .476.398l.259.362h.071v-2.685h.838V264h-.81v-.838h-.099a5.08 5.08 0 0 1-.263.376c-.114.151-.276.283-.487.402s-.491.174-.842.174zm.114-.753c.336 0 .62-.088.852-.263a1.65 1.65 0 0 0 .529-.735 3.03 3.03 0 0 0 .181-1.09c0-.407-.059-.764-.177-1.069s-.294-.547-.526-.717-.518-.26-.859-.26c-.355 0-.651.091-.888.274s-.411.425-.529.735-.174.653-.174 1.037.059.741.178 1.058a1.73 1.73 0 0 0 .533.753c.237.184.53.277.881.277zm4.038.639v-5.455h.81v.824h.057c.099-.27.279-.489.54-.657a1.59 1.59 0 0 1 .881-.252l.231.004.21.01v.853c-.028-.007-.094-.018-.195-.032s-.205-.025-.316-.025c-.265 0-.502.056-.71.167a1.26 1.26 0 0 0-.49.454 1.23 1.23 0 0 0-.178.657V264h-.838zm5.842.114c-.526 0-.979-.116-1.36-.348a2.34 2.34 0 0 1-.877-.98c-.204-.422-.305-.912-.305-1.471s.102-1.051.305-1.477a2.41 2.41 0 0 1 .859-1.001c.369-.242.8-.363 1.293-.363.284 0 .565.048.842.142a2.09 2.09 0 0 1 .756.462 2.21 2.21 0 0 1 .543.838c.135.348.202.777.202 1.286v.355H84.09v-.725h3.352c0-.307-.061-.582-.185-.823a1.42 1.42 0 0 0-.518-.572 1.46 1.46 0 0 0-.788-.21c-.334 0-.623.083-.867.249a1.63 1.63 0 0 0-.558.639 1.88 1.88 0 0 0-.195.845v.483c0 .412.071.761.213 1.048a1.51 1.51 0 0 0 .6.65c.256.15.553.22.891.22a1.8 1.8 0 0 0 .597-.093c.18-.063.335-.158.465-.284s.231-.286.302-.475l.81.227c-.085.274-.228.516-.43.724s-.45.367-.746.483-.629.171-.998.171zm7.397-4.347l-.753.213a1.42 1.42 0 0 0-.209-.366c-.09-.12-.213-.22-.369-.298s-.356-.117-.6-.117c-.334 0-.612.077-.834.231s-.33.344-.33.579c0 .208.076.372.227.493s.388.221.71.302l.81.199c.488.118.851.299 1.09.543s.359.553.359.934c0 .313-.09.592-.27.838s-.426.441-.746.583-.691.213-1.115.213c-.556 0-1.017-.121-1.381-.363s-.595-.594-.692-1.058l.796-.199c.076.294.219.514.43.661s.491.22.835.22c.391 0 .701-.083.93-.249s.348-.369.348-.603a.63.63 0 0 0-.199-.476c-.133-.128-.336-.227-.611-.291l-.909-.213c-.499-.119-.866-.302-1.101-.551s-.348-.564-.348-.941a1.35 1.35 0 0 1 .259-.817 1.77 1.77 0 0 1 .714-.557c.303-.135.646-.203 1.03-.203.54 0 .964.119 1.271.356a1.91 1.91 0 0 1 .66.937zm5.225 0l-.753.213a1.42 1.42 0 0 0-.209-.366c-.09-.12-.213-.22-.369-.298s-.356-.117-.6-.117c-.334 0-.612.077-.835.231s-.33.344-.33.579c0 .208.076.372.227.493s.388.221.71.302l.81.199c.488.118.851.299 1.09.543s.359.553.359.934c0 .313-.09.592-.27.838s-.426.441-.746.583-.691.213-1.115.213c-.556 0-1.017-.121-1.381-.363s-.595-.594-.693-1.058l.796-.199c.076.294.219.514.43.661s.491.22.835.22c.391 0 .701-.083.93-.249s.348-.369.348-.603a.63.63 0 0 0-.199-.476c-.133-.128-.336-.227-.611-.291l-.909-.213c-.499-.119-.866-.302-1.101-.551s-.348-.564-.348-.941a1.35 1.35 0 0 1 .259-.817 1.77 1.77 0 0 1 .714-.557c.303-.135.646-.203 1.03-.203.54 0 .963.119 1.271.356a1.91 1.91 0 0 1 .66.937zm123.681 37.17l-.563-.562 3.319-3.291-3.319-3.29.563-.563 3.881 3.853-3.881 3.853z" class="B"/><path d="M26.881 297v-7.273h4.361v.782h-3.48v2.457h3.153v.781h-3.153V297h-.881zm5.756 0v-5.455h.838V297h-.838zm.426-6.364c-.163 0-.304-.055-.423-.167s-.174-.245-.174-.401.058-.29.174-.401.259-.167.423-.167.303.056.419.167a.53.53 0 0 1 .178.401.53.53 0 0 1-.178.401.58.58 0 0 1-.419.167zm4.234 6.478c-.526 0-.979-.116-1.36-.348a2.34 2.34 0 0 1-.877-.98c-.203-.422-.305-.912-.305-1.471s.102-1.051.305-1.477a2.41 2.41 0 0 1 .859-1.001c.369-.242.8-.363 1.293-.363.284 0 .565.048.842.142a2.09 2.09 0 0 1 .756.462c.227.211.408.49.543.838s.202.777.202 1.286v.355H35.35v-.725h3.352c0-.307-.061-.582-.185-.823s-.294-.433-.519-.572-.485-.21-.788-.21c-.334 0-.623.083-.866.249a1.63 1.63 0 0 0-.558.639 1.88 1.88 0 0 0-.195.845v.483c0 .412.071.761.213 1.048s.344.5.6.65.553.22.891.22c.22 0 .419-.031.597-.093a1.26 1.26 0 0 0 .465-.284c.13-.127.231-.286.302-.475l.81.227c-.085.274-.228.516-.43.724s-.45.367-.746.483-.628.171-.998.171zm4.371-7.387V297h-.838v-7.273h.838zm3.595 7.387c-.455 0-.856-.115-1.204-.345s-.62-.559-.817-.98-.295-.924-.295-1.502c0-.573.098-1.07.295-1.492s.47-.746.82-.976.755-.345 1.215-.345c.355 0 .636.06.842.178a1.45 1.45 0 0 1 .476.398l.259.362h.071v-2.685h.838V297h-.81v-.838h-.099c-.062.099-.149.225-.263.376s-.276.283-.486.402-.491.174-.842.174zm.114-.753c.336 0 .62-.088.852-.263s.408-.423.529-.735.181-.678.181-1.09-.059-.764-.178-1.069a1.55 1.55 0 0 0-.526-.717c-.232-.173-.519-.26-.859-.26-.355 0-.651.091-.888.274s-.411.425-.529.735-.174.653-.174 1.037.059.741.178 1.058a1.73 1.73 0 0 0 .533.753c.237.184.53.277.881.277zm9.393-6.634V297h-.881v-6.349h-.043l-1.776 1.179v-.895l1.818-1.208h.881z" class="D"/><path d="M175.179 289.727l2.159 6.122h.085l2.159-6.122h.924L177.835 297h-.909l-2.67-7.273h.923zm8.054 7.387a2.38 2.38 0 0 1-1.296-.352c-.37-.234-.658-.562-.867-.984s-.309-.913-.309-1.477.103-1.064.309-1.488a2.38 2.38 0 0 1 2.163-1.339c.492 0 .923.118 1.293.352a2.35 2.35 0 0 1 .866.987c.208.424.313.92.313 1.488s-.105 1.056-.313 1.477-.495.75-.866.984-.801.352-1.293.352zm0-.753c.374 0 .682-.096.923-.288s.42-.444.536-.756a2.9 2.9 0 0 0 .174-1.016c0-.364-.058-.704-.174-1.019a1.72 1.72 0 0 0-.536-.764c-.241-.194-.549-.291-.923-.291s-.682.097-.923.291a1.72 1.72 0 0 0-.537.764c-.116.315-.174.655-.174 1.019a2.9 2.9 0 0 0 .174 1.016c.116.312.295.564.537.756s.549.288.923.288zm4.589-6.634V297h-.838v-7.273h.838zm3.907 1.818v.711h-2.827v-.711h2.827zm-2.003-1.306h.838v5.199c0 .236.035.414.103.532s.161.194.27.235a1.11 1.11 0 0 0 .352.056 1.42 1.42 0 0 0 .227-.014l.142-.028.17.753c-.056.021-.136.042-.237.064s-.231.035-.388.035a1.69 1.69 0 0 1-.696-.153 1.39 1.39 0 0 1-.561-.465c-.146-.208-.22-.471-.22-.788v-5.426zm4.869 6.889c-.346 0-.66-.065-.941-.195s-.506-.324-.671-.572-.249-.554-.249-.909c0-.313.062-.566.185-.76s.287-.351.493-.462.434-.194.682-.248l.756-.135.807-.096c.208-.024.359-.063.454-.117s.146-.15.146-.285v-.028c0-.35-.096-.623-.288-.817s-.477-.291-.863-.291c-.4 0-.714.088-.941.263s-.387.362-.479.561l-.796-.284c.142-.332.332-.59.568-.774s.5-.318.782-.391a3.23 3.23 0 0 1 .838-.114 3.37 3.37 0 0 1 .603.064c.23.041.451.125.665.252s.394.321.536.579.213.604.213 1.037V297h-.838v-.739h-.043a1.46 1.46 0 0 1-.284.38 1.65 1.65 0 0 1-.529.345c-.22.094-.489.142-.806.142zm.128-.753c.331 0 .61-.065.838-.195a1.34 1.34 0 0 0 .518-.505c.119-.206.178-.422.178-.649v-.767c-.036.042-.114.081-.235.117s-.255.062-.412.088l-.451.064-.351.043c-.218.028-.422.075-.611.139a1.05 1.05 0 0 0-.454.28c-.114.123-.171.291-.171.504 0 .292.108.512.323.661s.494.22.828.22zm6.103 2.784c-.405 0-.753-.052-1.044-.156s-.534-.237-.728-.405-.344-.343-.458-.533l.668-.468c.075.099.171.213.287.341s.275.242.476.337.47.145.799.145c.441 0 .804-.106 1.09-.319s.43-.547.43-1.002v-1.108h-.071c-.062.1-.149.223-.263.37s-.272.273-.483.387-.49.167-.845.167a2.27 2.27 0 0 1-1.186-.313c-.348-.208-.624-.511-.827-.909s-.302-.881-.302-1.449c0-.558.098-1.045.295-1.459s.469-.739.82-.966a2.16 2.16 0 0 1 1.214-.345c.355 0 .637.06.846.178s.371.249.482.398l.263.362h.085v-.867h.81v5.611c0 .469-.106.85-.319 1.144s-.495.512-.853.65-.75.209-1.186.209zm-.028-2.997c.336 0 .62-.077.852-.231s.408-.375.529-.664.181-.634.181-1.037c0-.393-.059-.74-.177-1.04s-.294-.537-.526-.707-.518-.256-.859-.256c-.355 0-.651.09-.888.27s-.411.422-.529.725a2.8 2.8 0 0 0-.174 1.008c0 .379.059.714.177 1.005s.299.516.533.682.53.245.881.245zm6.207.952c-.525 0-.979-.116-1.36-.348s-.671-.561-.877-.98-.305-.912-.305-1.471.101-1.051.305-1.477a2.41 2.41 0 0 1 .859-1.001c.37-.242.8-.363 1.293-.363.284 0 .565.048.842.142s.529.249.756.462.408.49.543.838.203.777.203 1.286v.355h-4.205v-.725h3.352c0-.307-.061-.582-.184-.823s-.294-.433-.519-.572-.485-.21-.788-.21c-.334 0-.623.083-.867.249a1.63 1.63 0 0 0-.557.639 1.88 1.88 0 0 0-.195.845v.483c0 .412.071.761.213 1.048s.344.5.6.65.553.22.891.22c.22 0 .419-.031.597-.093s.335-.158.465-.284.231-.286.302-.475l.809.227c-.085.274-.228.516-.429.724s-.45.367-.746.483a2.76 2.76 0 0 1-.998.171z" class="B"/><g class="C E"><path d="M18 307.75h226"/><path d="M18 307.75h226"/></g><path d="M222.341 330.656l-.563-.593 3.319-3.474-3.319-3.473.563-.594 3.881 4.067-3.881 4.067z" class="B"/><path d="M26.881 329v-7.273h4.361v.782h-3.48v2.457h3.153v.781h-3.153V329h-.881zm5.756 0v-5.455h.838V329h-.838zm.426-6.364c-.163 0-.304-.055-.423-.167s-.174-.245-.174-.401.058-.29.174-.401.259-.167.423-.167.303.056.419.167a.53.53 0 0 1 .178.401.53.53 0 0 1-.178.401.58.58 0 0 1-.419.167zm4.234 6.478c-.526 0-.979-.116-1.36-.348a2.34 2.34 0 0 1-.877-.98c-.203-.422-.305-.912-.305-1.471s.102-1.051.305-1.477a2.41 2.41 0 0 1 .859-1.001c.369-.242.8-.363 1.293-.363.284 0 .565.048.842.142a2.09 2.09 0 0 1 .756.462c.227.211.408.49.543.838s.202.777.202 1.286v.355H35.35v-.725h3.352c0-.307-.061-.582-.185-.823s-.294-.433-.519-.572-.485-.21-.788-.21c-.334 0-.623.083-.866.249a1.63 1.63 0 0 0-.558.639 1.88 1.88 0 0 0-.195.845v.483c0 .412.071.761.213 1.048s.344.5.6.65.553.22.891.22c.22 0 .419-.031.597-.093a1.26 1.26 0 0 0 .465-.284c.13-.127.231-.286.302-.475l.81.227c-.085.274-.228.516-.43.724s-.45.367-.746.483-.628.171-.998.171zm4.371-7.387V329h-.838v-7.273h.838zm3.595 7.387c-.455 0-.856-.115-1.204-.345s-.62-.559-.817-.98-.295-.924-.295-1.502c0-.573.098-1.07.295-1.492s.47-.746.82-.976.755-.345 1.215-.345c.355 0 .636.06.842.178a1.45 1.45 0 0 1 .476.398l.259.362h.071v-2.685h.838V329h-.81v-.838h-.099c-.062.099-.149.225-.263.376s-.276.283-.486.402-.491.174-.842.174zm.114-.753c.336 0 .62-.088.852-.263s.408-.423.529-.735.181-.678.181-1.09-.059-.764-.178-1.069a1.55 1.55 0 0 0-.526-.717c-.232-.173-.519-.26-.859-.26-.355 0-.651.091-.888.274s-.411.425-.529.735-.174.653-.174 1.037.059.741.178 1.058a1.73 1.73 0 0 0 .533.753c.237.184.53.277.881.277zm6.836.639v-.639l2.401-2.628.696-.803c.182-.229.317-.445.405-.646s.135-.417.135-.639a1.18 1.18 0 0 0-.185-.664 1.19 1.19 0 0 0-.497-.433 1.61 1.61 0 0 0-.71-.153 1.48 1.48 0 0 0-.731.174 1.2 1.2 0 0 0-.479.479c-.111.206-.167.448-.167.725h-.838a2.11 2.11 0 0 1 .295-1.122 2.05 2.05 0 0 1 .803-.753c.341-.18.723-.27 1.147-.27s.804.09 1.133.27.587.422.774.728a1.91 1.91 0 0 1 .281 1.019 2.2 2.2 0 0 1-.146.785c-.095.253-.261.536-.497.848s-.56.689-.977 1.137l-1.634 1.747v.057H56.8V329h-4.588z" class="D"/><path d="M180.733 324h-.881c-.052-.253-.143-.476-.273-.668s-.284-.352-.469-.483-.385-.232-.607-.298a2.44 2.44 0 0 0-.696-.099c-.441 0-.839.111-1.197.334s-.638.55-.849.983-.312.965-.312 1.595.104 1.161.312 1.594.494.761.849.984.756.334 1.197.334a2.44 2.44 0 0 0 .696-.1c.222-.066.425-.164.607-.295s.341-.294.469-.486.221-.417.273-.668h.881c-.066.372-.187.705-.362.998a2.71 2.71 0 0 1-.654.749 2.85 2.85 0 0 1-.877.466c-.322.106-.666.159-1.033.159-.62 0-1.172-.151-1.655-.454s-.863-.734-1.14-1.293-.415-1.221-.415-1.988.138-1.43.415-1.989.657-.99 1.14-1.293 1.035-.454 1.655-.454c.367 0 .711.053 1.033.16s.617.262.877.468.479.453.654.746.296.624.362.998zm4.747 2.77v-3.225h.838V329h-.838v-.923h-.057c-.128.277-.327.512-.596.706s-.611.288-1.023.288c-.341 0-.644-.075-.909-.224s-.474-.378-.625-.682-.228-.69-.228-1.154v-3.466h.839v3.41c0 .397.111.715.333.951s.512.355.86.355a1.43 1.43 0 0 0 .635-.159 1.39 1.39 0 0 0 .547-.49c.149-.221.224-.501.224-.842zm2.373 2.23v-5.455h.81v.824h.056c.1-.27.28-.489.54-.657a1.59 1.59 0 0 1 .881-.252l.231.004.209.01v.853c-.028-.007-.093-.018-.195-.032s-.205-.025-.316-.025c-.265 0-.502.056-.71.167s-.37.26-.49.454a1.22 1.22 0 0 0-.178.657V329h-.838zm3.721 0v-5.455h.809v.824h.057c.1-.27.28-.489.54-.657a1.59 1.59 0 0 1 .881-.252l.23.004.21.01v.853c-.028-.007-.094-.018-.195-.032s-.205-.025-.316-.025a1.49 1.49 0 0 0-.711.167 1.26 1.26 0 0 0-.49.454 1.23 1.23 0 0 0-.177.657V329h-.838zm5.841.114c-.525 0-.979-.116-1.36-.348s-.671-.561-.877-.98-.305-.912-.305-1.471.101-1.051.305-1.477.493-.762.859-1.001.801-.363 1.293-.363c.284 0 .565.048.842.142s.529.249.756.462.408.49.543.838.203.777.203 1.286v.355h-4.205v-.725h3.353c0-.307-.062-.582-.185-.823s-.294-.433-.519-.572-.485-.21-.788-.21c-.334 0-.623.083-.866.249s-.428.376-.558.639a1.88 1.88 0 0 0-.195.845v.483c0 .412.071.761.213 1.048s.344.5.6.65.553.22.891.22c.22 0 .419-.031.597-.093s.335-.158.465-.284.231-.286.302-.475l.81.227c-.086.274-.229.516-.43.724s-.45.367-.746.483-.628.171-.998.171zm4.372-3.395V329h-.838v-5.455h.809v.853h.071c.128-.277.322-.5.583-.668s.596-.256 1.008-.256c.37 0 .693.076.97.228s.492.376.646.682.231.686.231 1.15V329h-.838v-3.409c0-.429-.111-.762-.334-1.002s-.528-.362-.916-.362c-.268 0-.507.058-.718.174a1.25 1.25 0 0 0-.493.508c-.121.223-.181.493-.181.81zm7.383-2.174v.711h-2.826v-.711h2.826zm-2.002-1.306h.838v5.199c0 .236.034.414.103.532s.161.194.27.235.228.056.351.056a1.42 1.42 0 0 0 .227-.014l.142-.028.171.753c-.057.021-.136.042-.238.064a1.8 1.8 0 0 1-.387.035 1.68 1.68 0 0 1-.696-.153c-.225-.101-.412-.257-.561-.465s-.22-.471-.22-.788v-5.426z" class="B"/><g class="C E"><path d="M18 343.75h226"/><path d="M18 343.75h226"/></g><use href="#H" class="B"/><path d="M26.881 363v-7.273h4.361v.782h-3.48v2.457h3.153v.781h-3.153V363h-.881zm5.756 0v-5.455h.838V363h-.838zm.426-6.364c-.163 0-.304-.055-.423-.167s-.174-.245-.174-.401.058-.29.174-.401.259-.167.423-.167.303.056.419.167a.53.53 0 0 1 .178.401.53.53 0 0 1-.178.401.58.58 0 0 1-.419.167zm4.234 6.478c-.526 0-.979-.116-1.36-.348a2.34 2.34 0 0 1-.877-.98c-.203-.422-.305-.912-.305-1.471s.102-1.051.305-1.477a2.41 2.41 0 0 1 .859-1.001c.369-.242.8-.363 1.293-.363.284 0 .565.048.842.142a2.09 2.09 0 0 1 .756.462c.227.211.408.49.543.838s.202.777.202 1.286v.355H35.35v-.725h3.352c0-.307-.061-.582-.185-.823s-.294-.433-.519-.572-.485-.21-.788-.21c-.334 0-.623.083-.866.249a1.63 1.63 0 0 0-.558.639 1.88 1.88 0 0 0-.195.845v.483c0 .412.071.761.213 1.048s.344.5.6.65.553.22.891.22c.22 0 .419-.031.597-.093a1.26 1.26 0 0 0 .465-.284c.13-.127.231-.286.302-.475l.81.227c-.085.274-.228.516-.43.724s-.45.367-.746.483-.628.171-.998.171zm4.371-7.387V363h-.838v-7.273h.838zm3.595 7.387c-.455 0-.856-.115-1.204-.345s-.62-.559-.817-.98-.295-.924-.295-1.502c0-.573.098-1.07.295-1.492s.47-.746.82-.976.755-.345 1.215-.345c.355 0 .636.06.842.178a1.45 1.45 0 0 1 .476.398l.259.362h.071v-2.685h.838V363h-.81v-.838h-.099c-.062.099-.149.225-.263.376s-.276.283-.486.402-.491.174-.842.174zm.114-.753c.336 0 .62-.088.852-.263s.408-.423.529-.735.181-.678.181-1.09-.059-.764-.178-1.069a1.55 1.55 0 0 0-.526-.717c-.232-.173-.519-.26-.859-.26-.355 0-.651.091-.888.274s-.411.425-.529.735-.174.653-.174 1.037.059.741.178 1.058a1.73 1.73 0 0 0 .533.753c.237.184.53.277.881.277zm9.293.738c-.469 0-.887-.08-1.253-.241s-.655-.385-.87-.671-.329-.624-.348-1.005h.895c.019.234.099.437.242.607s.328.298.557.391.484.138.764.138a2 2 0 0 0 .831-.163c.242-.109.431-.261.568-.455s.206-.419.206-.674c0-.268-.066-.504-.199-.707s-.327-.367-.582-.483-.568-.174-.937-.174h-.582v-.781h.582a1.73 1.73 0 0 0 .76-.157 1.22 1.22 0 0 0 .515-.44 1.18 1.18 0 0 0 .188-.668c0-.246-.054-.46-.163-.642s-.263-.325-.462-.426-.428-.153-.696-.153a1.84 1.84 0 0 0-.71.138c-.22.09-.4.222-.54.395s-.215.376-.227.617h-.852a1.73 1.73 0 0 1 .344-1.001c.215-.289.497-.514.845-.675a2.73 2.73 0 0 1 1.154-.241c.45 0 .836.091 1.158.273s.569.418.742.714a1.87 1.87 0 0 1 .259.959 1.7 1.7 0 0 1-.323 1.047c-.213.289-.503.489-.87.601v.056c.459.076.818.271 1.076.586s.387.7.387 1.162c0 .395-.108.75-.323 1.065a2.2 2.2 0 0 1-.873.739c-.369.179-.79.269-1.261.269z" class="D"/><path d="M174.881 363v-7.273h4.36v.782h-3.48v2.457h3.154v.781h-3.154V363h-.88zm5.697 0v-5.455h.809v.824h.057a1.31 1.31 0 0 1 .54-.657 1.59 1.59 0 0 1 .881-.252l.23.004.21.01v.853c-.029-.007-.094-.018-.195-.032s-.205-.025-.316-.025a1.49 1.49 0 0 0-.711.167 1.26 1.26 0 0 0-.49.454 1.23 1.23 0 0 0-.177.657V363h-.838zm5.841.114c-.525 0-.979-.116-1.36-.348s-.671-.561-.877-.98-.305-.912-.305-1.471.101-1.051.305-1.477a2.41 2.41 0 0 1 .859-1.001c.37-.242.801-.363 1.293-.363.284 0 .565.048.842.142s.529.249.756.462.408.49.543.838.203.777.203 1.286v.355h-4.205v-.725h3.352c0-.307-.061-.582-.184-.823s-.294-.433-.519-.572-.485-.21-.788-.21c-.334 0-.623.083-.866.249s-.428.376-.558.639a1.88 1.88 0 0 0-.195.845v.483c0 .412.071.761.213 1.048s.344.5.6.65.553.22.891.22c.22 0 .419-.031.597-.093s.335-.158.465-.284.231-.286.302-.475l.81.227c-.086.274-.229.516-.43.724s-.45.367-.746.483-.628.171-.998.171zm7.255 1.931v-2.883h-.071a5.08 5.08 0 0 1-.263.376c-.113.149-.275.283-.486.402s-.491.174-.842.174c-.454 0-.856-.115-1.204-.345s-.62-.559-.816-.98-.295-.924-.295-1.502c0-.573.098-1.07.295-1.492s.47-.746.82-.976a2.16 2.16 0 0 1 1.214-.345c.356 0 .636.06.842.178s.367.249.476.398l.259.362h.1v-.867h.809v7.5h-.838zm-1.548-2.684c.336 0 .62-.088.852-.263s.409-.423.529-.735.181-.678.181-1.09-.059-.764-.177-1.069-.294-.547-.526-.717-.518-.26-.859-.26c-.355 0-.651.091-.888.274s-.411.425-.529.735-.174.653-.174 1.037.059.741.178 1.058.298.566.532.753.531.277.881.277zm7.358-1.591v-3.225h.838V363h-.838v-.923h-.057c-.128.277-.327.512-.597.706s-.61.288-1.022.288c-.341 0-.644-.075-.909-.224a1.55 1.55 0 0 1-.625-.682c-.152-.305-.228-.69-.228-1.154v-3.466h.838v3.41c0 .397.112.715.334.951s.512.355.86.355a1.43 1.43 0 0 0 .635-.159 1.39 1.39 0 0 0 .547-.49c.149-.221.224-.501.224-.842zm4.66 2.344c-.526 0-.979-.116-1.36-.348s-.671-.561-.877-.98-.306-.912-.306-1.471.102-1.051.306-1.477a2.41 2.41 0 0 1 .859-1.001c.369-.242.8-.363 1.293-.363a2.6 2.6 0 0 1 .841.142 2.1 2.1 0 0 1 .757.462c.227.211.408.49.543.838s.202.777.202 1.286v.355h-4.204v-.725h3.352c0-.307-.061-.582-.185-.823a1.38 1.38 0 0 0-.518-.572 1.45 1.45 0 0 0-.788-.21c-.334 0-.623.083-.867.249a1.63 1.63 0 0 0-.557.639 1.87 1.87 0 0 0-.196.845v.483c0 .412.071.761.213 1.048a1.55 1.55 0 0 0 .6.65c.256.146.553.22.892.22.22 0 .419-.031.596-.093s.335-.158.466-.284.23-.286.301-.475l.81.227c-.085.274-.228.516-.43.724s-.449.367-.745.483a2.76 2.76 0 0 1-.998.171zm4.144-.057c-.175 0-.326-.063-.451-.188s-.188-.276-.188-.451.063-.326.188-.451.276-.189.451-.189.326.063.451.189.188.275.188.451c0 .116-.029.222-.089.319s-.133.175-.23.235a.62.62 0 0 1-.32.085zm2.754 0c-.175 0-.326-.063-.451-.188s-.188-.276-.188-.451a.61.61 0 0 1 .188-.451c.125-.126.276-.189.451-.189s.325.063.451.189.188.275.188.451c0 .116-.029.222-.089.319s-.133.175-.23.235a.62.62 0 0 1-.32.085z" class="B"/><path d="M18 376.75h226" class="C E"/><use href="#H" y="34" class="B"/><path d="M26.881 397v-7.273h4.361v.782h-3.48v2.457h3.153v.781h-3.153V397h-.881zm5.756 0v-5.455h.838V397h-.838zm.426-6.364c-.163 0-.304-.055-.423-.167s-.174-.245-.174-.401.058-.29.174-.401.259-.167.423-.167.303.056.419.167a.53.53 0 0 1 .178.401.53.53 0 0 1-.178.401.58.58 0 0 1-.419.167zm4.234 6.478c-.526 0-.979-.116-1.36-.348a2.34 2.34 0 0 1-.877-.98c-.203-.422-.305-.912-.305-1.471s.102-1.051.305-1.477a2.41 2.41 0 0 1 .859-1.001c.369-.242.8-.363 1.293-.363.284 0 .565.048.842.142a2.09 2.09 0 0 1 .756.462c.227.211.408.49.543.838s.202.777.202 1.286v.355H35.35v-.725h3.352c0-.307-.061-.582-.185-.823s-.294-.433-.519-.572-.485-.21-.788-.21c-.334 0-.623.083-.866.249a1.63 1.63 0 0 0-.558.639 1.88 1.88 0 0 0-.195.845v.483c0 .412.071.761.213 1.048s.344.5.6.65.553.22.891.22c.22 0 .419-.031.597-.093a1.26 1.26 0 0 0 .465-.284c.13-.127.231-.286.302-.475l.81.227c-.085.274-.228.516-.43.724s-.45.367-.746.483-.628.171-.998.171zm4.371-7.387V397h-.838v-7.273h.838zm3.595 7.387c-.455 0-.856-.115-1.204-.345s-.62-.559-.817-.98-.295-.924-.295-1.502c0-.573.098-1.07.295-1.492s.47-.746.82-.976.755-.345 1.215-.345c.355 0 .636.06.842.178a1.45 1.45 0 0 1 .476.398l.259.362h.071v-2.685h.838V397h-.81v-.838h-.099c-.062.099-.149.225-.263.376s-.276.283-.486.402-.491.174-.842.174zm.114-.753c.336 0 .62-.088.852-.263s.408-.423.529-.735.181-.678.181-1.09-.059-.764-.178-1.069a1.55 1.55 0 0 0-.526-.717c-.232-.173-.519-.26-.859-.26-.355 0-.651.091-.888.274s-.411.425-.529.735-.174.653-.174 1.037.059.741.178 1.058a1.73 1.73 0 0 0 .533.753c.237.184.53.277.881.277zm6.666-.852v-.725l3.196-5.057h.526v1.122h-.355l-2.415 3.821v.057h4.304v.782h-5.256zM55.465 397v-1.712-.337-5.224h.838V397h-.838z" class="D"/><path d="M174.483 390.509v-.782h5.455v.782h-2.287V397h-.881v-6.491h-2.287zm8.196 6.605c-.526 0-.979-.116-1.36-.348s-.671-.561-.877-.98-.306-.912-.306-1.471.102-1.051.306-1.477a2.41 2.41 0 0 1 .859-1.001c.369-.242.8-.363 1.293-.363a2.6 2.6 0 0 1 .841.142 2.1 2.1 0 0 1 .757.462c.227.211.408.49.543.838s.203.777.203 1.286v.355h-4.205v-.725h3.352c0-.307-.061-.582-.184-.823s-.294-.433-.519-.572-.485-.21-.788-.21c-.334 0-.623.083-.867.249a1.63 1.63 0 0 0-.557.639c-.13.263-.196.545-.196.845v.483c0 .412.071.761.214 1.048s.344.5.6.65.552.22.891.22c.22 0 .419-.031.597-.093s.335-.158.465-.284.231-.286.302-.475l.809.227c-.085.274-.228.516-.429.724a2.1 2.1 0 0 1-.746.483 2.76 2.76 0 0 1-.998.171zm7.397-4.347l-.753.213c-.047-.125-.117-.247-.209-.366a1.02 1.02 0 0 0-.37-.298c-.156-.078-.356-.117-.6-.117-.334 0-.612.077-.834.231s-.331.344-.331.579c0 .208.076.372.228.493s.388.221.71.302l.81.199c.487.118.851.299 1.09.543s.358.553.358.934c0 .313-.09.592-.269.838a1.8 1.8 0 0 1-.746.583c-.32.142-.691.213-1.115.213-.557 0-1.017-.121-1.382-.363s-.595-.594-.692-1.058l.795-.199c.076.294.219.514.43.661s.491.22.835.22c.39 0 .7-.083.93-.249s.348-.369.348-.603a.63.63 0 0 0-.199-.476c-.132-.13-.336-.227-.611-.291l-.909-.213c-.499-.119-.866-.302-1.101-.551s-.348-.564-.348-.941a1.35 1.35 0 0 1 .26-.817 1.77 1.77 0 0 1 .713-.557c.303-.135.647-.203 1.03-.203.54 0 .964.119 1.271.356s.531.549.661.937zm3.733-1.222v.711h-2.827v-.711h2.827zm-2.003-1.306h.838v5.199c0 .236.035.414.103.532s.161.194.27.235a1.11 1.11 0 0 0 .352.056 1.42 1.42 0 0 0 .227-.014l.142-.028.171.753c-.057.021-.137.042-.238.064a1.8 1.8 0 0 1-.387.035 1.68 1.68 0 0 1-.696-.153c-.225-.101-.412-.257-.562-.465s-.22-.471-.22-.788v-5.426z" class="B"/><g class="C E"><path d="M18 411.75h226"/><path d="M18 411.75h226"/></g><use href="#H" y="70" class="B"/><path d="M26.881 433v-7.273h4.361v.782h-3.48v2.457h3.153v.781h-3.153V433h-.881zm5.756 0v-5.455h.838V433h-.838zm.426-6.364c-.163 0-.304-.055-.423-.167s-.174-.245-.174-.401.058-.29.174-.401.259-.167.423-.167.303.056.419.167a.53.53 0 0 1 .178.401.53.53 0 0 1-.178.401.58.58 0 0 1-.419.167zm4.234 6.478c-.526 0-.979-.116-1.36-.348a2.34 2.34 0 0 1-.877-.98c-.203-.422-.305-.912-.305-1.471s.102-1.051.305-1.477a2.41 2.41 0 0 1 .859-1.001c.369-.242.8-.363 1.293-.363.284 0 .565.048.842.142a2.09 2.09 0 0 1 .756.462c.227.211.408.49.543.838s.202.777.202 1.286v.355H35.35v-.725h3.352c0-.307-.061-.582-.185-.823s-.294-.433-.519-.572-.485-.21-.788-.21c-.334 0-.623.083-.866.249a1.63 1.63 0 0 0-.558.639 1.88 1.88 0 0 0-.195.845v.483c0 .412.071.761.213 1.048s.344.5.6.65.553.22.891.22c.22 0 .419-.031.597-.093a1.26 1.26 0 0 0 .465-.284c.13-.127.231-.286.302-.475l.81.227c-.085.274-.228.516-.43.724s-.45.367-.746.483-.628.171-.998.171zm4.371-7.387V433h-.838v-7.273h.838zm3.595 7.387c-.455 0-.856-.115-1.204-.345s-.62-.559-.817-.98-.295-.924-.295-1.502c0-.573.098-1.07.295-1.492s.47-.746.82-.976.755-.345 1.215-.345c.355 0 .636.06.842.178a1.45 1.45 0 0 1 .476.398l.259.362h.071v-2.685h.838V433h-.81v-.838h-.099c-.062.099-.149.225-.263.376s-.276.283-.486.402-.491.174-.842.174zm.114-.753c.336 0 .62-.088.852-.263s.408-.423.529-.735.181-.678.181-1.09-.059-.764-.178-1.069a1.55 1.55 0 0 0-.526-.717c-.232-.173-.519-.26-.859-.26-.355 0-.651.091-.888.274s-.411.425-.529.735-.174.653-.174 1.037.059.741.178 1.058a1.73 1.73 0 0 0 .533.753c.237.184.53.277.881.277zm9.109.738c-.417 0-.792-.082-1.126-.248a2.09 2.09 0 0 1-.803-.682 1.86 1.86 0 0 1-.33-.987h.852a1.17 1.17 0 0 0 .447.817c.268.213.587.319.959.319.298 0 .563-.07.795-.209a1.48 1.48 0 0 0 .55-.576c.135-.246.202-.524.202-.834 0-.317-.07-.6-.209-.849a1.54 1.54 0 0 0-.568-.593c-.241-.144-.517-.218-.827-.22-.223-.002-.451.032-.685.103a1.91 1.91 0 0 0-.579.266l-.824-.099.44-3.58h3.778v.782h-3.04l-.256 2.144h.043a1.9 1.9 0 0 1 .561-.294 2.13 2.13 0 0 1 .703-.118c.445 0 .842.107 1.19.32s.625.5.824.867.302.786.302 1.257a2.46 2.46 0 0 1-.312 1.243c-.206.362-.49.648-.852.859s-.774.312-1.236.312z" class="D"/><path d="M174.881 433v-7.273h4.36v.782h-3.48v2.457h3.154v.781h-3.154V433h-.88zm5.697 0v-5.455h.809v.824h.057a1.31 1.31 0 0 1 .54-.657 1.59 1.59 0 0 1 .881-.252l.23.004.21.01v.853c-.029-.007-.094-.018-.195-.032s-.205-.025-.316-.025a1.49 1.49 0 0 0-.711.167 1.26 1.26 0 0 0-.49.454 1.23 1.23 0 0 0-.177.657V433h-.838zm5.841.114c-.525 0-.979-.116-1.36-.348s-.671-.561-.877-.98-.305-.912-.305-1.471.101-1.051.305-1.477a2.41 2.41 0 0 1 .859-1.001c.37-.242.801-.363 1.293-.363.284 0 .565.048.842.142s.529.249.756.462.408.49.543.838.203.777.203 1.286v.355h-4.205v-.725h3.352c0-.307-.061-.582-.184-.823s-.294-.433-.519-.572-.485-.21-.788-.21c-.334 0-.623.083-.866.249s-.428.376-.558.639a1.88 1.88 0 0 0-.195.845v.483c0 .412.071.761.213 1.048s.344.5.6.65.553.22.891.22c.22 0 .419-.031.597-.093s.335-.158.465-.284.231-.286.302-.475l.81.227c-.086.274-.229.516-.43.724s-.45.367-.746.483-.628.171-.998.171zm7.255 1.931v-2.883h-.071a5.08 5.08 0 0 1-.263.376c-.113.149-.275.283-.486.402s-.491.174-.842.174c-.454 0-.856-.115-1.204-.345s-.62-.559-.816-.98-.295-.924-.295-1.502c0-.573.098-1.07.295-1.492s.47-.746.82-.976a2.16 2.16 0 0 1 1.214-.345c.356 0 .636.06.842.178s.367.249.476.398l.259.362h.1v-.867h.809v7.5h-.838zm-1.548-2.684c.336 0 .62-.088.852-.263s.409-.423.529-.735.181-.678.181-1.09-.059-.764-.177-1.069-.294-.547-.526-.717-.518-.26-.859-.26c-.355 0-.651.091-.888.274s-.411.425-.529.735-.174.653-.174 1.037.059.741.178 1.058.298.566.532.753.531.277.881.277zm7.358-1.591v-3.225h.838V433h-.838v-.923h-.057c-.128.277-.327.512-.597.706s-.61.288-1.022.288c-.341 0-.644-.075-.909-.224a1.55 1.55 0 0 1-.625-.682c-.152-.305-.228-.69-.228-1.154v-3.466h.838v3.41c0 .397.112.715.334.951s.512.355.86.355a1.43 1.43 0 0 0 .635-.159 1.39 1.39 0 0 0 .547-.49c.149-.221.224-.501.224-.842zm4.66 2.344c-.526 0-.979-.116-1.36-.348s-.671-.561-.877-.98-.306-.912-.306-1.471.102-1.051.306-1.477a2.41 2.41 0 0 1 .859-1.001c.369-.242.8-.363 1.293-.363a2.6 2.6 0 0 1 .841.142 2.1 2.1 0 0 1 .757.462c.227.211.408.49.543.838s.202.777.202 1.286v.355h-4.204v-.725h3.352c0-.307-.061-.582-.185-.823a1.38 1.38 0 0 0-.518-.572 1.45 1.45 0 0 0-.788-.21c-.334 0-.623.083-.867.249a1.63 1.63 0 0 0-.557.639 1.87 1.87 0 0 0-.196.845v.483c0 .412.071.761.213 1.048a1.55 1.55 0 0 0 .6.65c.256.146.553.22.892.22.22 0 .419-.031.596-.093s.335-.158.466-.284.23-.286.301-.475l.81.227c-.085.274-.228.516-.43.724s-.449.367-.745.483a2.76 2.76 0 0 1-.998.171zm4.144-.057c-.175 0-.326-.063-.451-.188s-.188-.276-.188-.451.063-.326.188-.451.276-.189.451-.189.326.063.451.189.188.275.188.451c0 .116-.029.222-.089.319s-.133.175-.23.235a.62.62 0 0 1-.32.085zm2.754 0c-.175 0-.326-.063-.451-.188s-.188-.276-.188-.451a.61.61 0 0 1 .188-.451c.125-.126.276-.189.451-.189s.325.063.451.189.188.275.188.451c0 .116-.029.222-.089.319s-.133.175-.23.235a.62.62 0 0 1-.32.085z" class="B"/><g class="C E"><path d="M18 447.75h226"/><path d="M18 447.75h226"/></g><use href="#H" y="105" class="B"/><path d="M26.881 468v-7.273h4.361v.782h-3.48v2.457h3.153v.781h-3.153V468h-.881zm5.756 0v-5.455h.838V468h-.838zm.426-6.364c-.163 0-.304-.055-.423-.167s-.174-.245-.174-.401.058-.29.174-.401.259-.167.423-.167.303.056.419.167a.53.53 0 0 1 .178.401.53.53 0 0 1-.178.401.58.58 0 0 1-.419.167zm4.234 6.478c-.526 0-.979-.116-1.36-.348a2.34 2.34 0 0 1-.877-.98c-.203-.422-.305-.912-.305-1.471s.102-1.051.305-1.477a2.41 2.41 0 0 1 .859-1.001c.369-.242.8-.363 1.293-.363.284 0 .565.048.842.142a2.09 2.09 0 0 1 .756.462c.227.211.408.49.543.838s.202.777.202 1.286v.355H35.35v-.725h3.352c0-.307-.061-.582-.185-.823s-.294-.433-.519-.572-.485-.21-.788-.21c-.334 0-.623.083-.866.249a1.63 1.63 0 0 0-.558.639 1.88 1.88 0 0 0-.195.845v.483c0 .412.071.761.213 1.048s.344.5.6.65.553.22.891.22c.22 0 .419-.031.597-.093a1.26 1.26 0 0 0 .465-.284c.13-.127.231-.286.302-.475l.81.227c-.085.274-.228.516-.43.724s-.45.367-.746.483-.628.171-.998.171zm4.371-7.387V468h-.838v-7.273h.838zm3.595 7.387c-.455 0-.856-.115-1.204-.345s-.62-.559-.817-.98-.295-.924-.295-1.502c0-.573.098-1.07.295-1.492s.47-.746.82-.976.755-.345 1.215-.345c.355 0 .636.06.842.178a1.45 1.45 0 0 1 .476.398l.259.362h.071v-2.685h.838V468h-.81v-.838h-.099c-.062.099-.149.225-.263.376s-.276.283-.486.402-.491.174-.842.174zm.114-.753c.336 0 .62-.088.852-.263s.408-.423.529-.735.181-.678.181-1.09-.059-.764-.178-1.069a1.55 1.55 0 0 0-.526-.717c-.232-.173-.519-.26-.859-.26-.355 0-.651.091-.888.274s-.411.425-.529.735-.174.653-.174 1.037.059.741.178 1.058a1.73 1.73 0 0 0 .533.753c.237.184.53.277.881.277zm9.251.738a2.7 2.7 0 0 1-.895-.17c-.298-.109-.57-.292-.817-.55s-.444-.612-.593-1.055-.224-1.004-.224-1.676c0-.644.06-1.215.181-1.712s.296-.92.526-1.261.507-.603.831-.781a2.28 2.28 0 0 1 1.104-.266c.407 0 .769.082 1.087.245a2.07 2.07 0 0 1 .781.675c.201.288.331.621.391.997h-.867a1.61 1.61 0 0 0-.469-.813c-.232-.215-.54-.323-.923-.323-.563 0-1.007.245-1.332.735s-.484 1.178-.486 2.063h.057a2.16 2.16 0 0 1 .472-.515c.185-.144.388-.255.611-.333a2.12 2.12 0 0 1 .707-.118c.417 0 .798.105 1.144.313s.623.491.831.856.313.778.313 1.246c0 .45-.101.862-.302 1.236s-.484.668-.849.888-.788.324-1.278.319zm0-.781c.298 0 .566-.074.803-.224s.427-.349.565-.6.209-.53.209-.838a1.68 1.68 0 0 0-.202-.82c-.133-.249-.316-.446-.55-.593s-.497-.22-.795-.22c-.225 0-.434.045-.629.135a1.61 1.61 0 0 0-.511.362 1.75 1.75 0 0 0-.341.529c-.083.197-.124.404-.124.621 0 .289.068.559.202.81s.324.453.561.607a1.47 1.47 0 0 0 .813.231z" class="D"/><path d="M174.483 462.509v-.782h5.455v.782h-2.287V469h-.881v-6.491h-2.287zm8.196 6.605c-.526 0-.979-.116-1.36-.348s-.671-.561-.877-.98-.306-.912-.306-1.471.102-1.051.306-1.477a2.41 2.41 0 0 1 .859-1.001c.369-.242.8-.363 1.293-.363a2.6 2.6 0 0 1 .841.142 2.1 2.1 0 0 1 .757.462c.227.211.408.49.543.838s.203.777.203 1.286v.355h-4.205v-.725h3.352c0-.307-.061-.582-.184-.823s-.294-.433-.519-.572-.485-.21-.788-.21c-.334 0-.623.083-.867.249a1.63 1.63 0 0 0-.557.639c-.13.263-.196.545-.196.845v.483c0 .412.071.761.214 1.048s.344.5.6.65.552.22.891.22c.22 0 .419-.031.597-.093s.335-.158.465-.284.231-.286.302-.475l.809.227c-.085.274-.228.516-.429.724a2.1 2.1 0 0 1-.746.483 2.76 2.76 0 0 1-.998.171zm7.397-4.347l-.753.213c-.047-.125-.117-.247-.209-.366a1.02 1.02 0 0 0-.37-.298c-.156-.078-.356-.117-.6-.117-.334 0-.612.077-.834.231s-.331.344-.331.579c0 .208.076.372.228.493s.388.221.71.302l.81.199c.487.118.851.299 1.09.543s.358.553.358.934c0 .313-.09.592-.269.838a1.8 1.8 0 0 1-.746.583c-.32.142-.691.213-1.115.213-.557 0-1.017-.121-1.382-.363s-.595-.594-.692-1.058l.795-.199c.076.294.219.514.43.661s.491.22.835.22c.39 0 .7-.083.93-.249s.348-.369.348-.603a.63.63 0 0 0-.199-.476c-.132-.13-.336-.227-.611-.291l-.909-.213c-.499-.119-.866-.302-1.101-.551s-.348-.564-.348-.941a1.35 1.35 0 0 1 .26-.817 1.77 1.77 0 0 1 .713-.557c.303-.135.647-.203 1.03-.203.54 0 .964.119 1.271.356s.531.549.661.937zm3.733-1.222v.711h-2.827v-.711h2.827zm-2.003-1.306h.838v5.199c0 .236.035.414.103.532s.161.194.27.235a1.11 1.11 0 0 0 .352.056 1.42 1.42 0 0 0 .227-.014l.142-.028.171.753c-.057.021-.137.042-.238.064a1.8 1.8 0 0 1-.387.035 1.68 1.68 0 0 1-.696-.153c-.225-.101-.412-.257-.562-.465s-.22-.471-.22-.788v-5.426z" class="B"/><g clip-path="url(#F)" class="G"><path d="M47.147 121.513c-.674.028-2.947.195-3.905 1.153-.781.787-.962 1.979-.45 2.965l.173.307a2.97 2.97 0 0 0-.465 1.597v.965a1.5 1.5 0 1 1-3 0v-3h.25c.965 0 1.75-.785 1.75-1.75V122h.5v-1h-1.5v-2h-1v2h-1v-2h-1v2H36v1h.5v1.75c0 .965.785 1.75 1.75 1.75h.25v3c0 1.378 1.121 2.5 2.5 2.5s2.5-1.122 2.5-2.5v-.965c0-.32.083-.624.224-.901.407.229.869.367 1.32.362a2.54 2.54 0 0 0 1.792-.74c1.274-1.586 1.08-3.558 1.181-4.777l-.87.034zM38.25 124.5a.75.75 0 0 1-.75-.75V122h3v1.75a.75.75 0 0 1-.75.75h-1.5zm7.88 1.048c-.465.46-1.161.577-1.752.297l1.475-1.492-.707-.707-1.485 1.485a1.54 1.54 0 0 1 .29-1.759c.552-.552 2.114-.787 3.026-.848-.054.905-.282 2.459-.847 3.024h0z"/></g><circle cx="493" cy="214" r="2" class="H"/><path d="M345.705 288v-5.818h2.034c.405 0 .739.07 1.002.21s.46.325.589.56.193.491.193.775c0 .25-.045.457-.134.62s-.202.291-.346.386-.297.165-.463.21V285c.178.011.357.074.536.188a1.37 1.37 0 0 1 .452.488c.121.212.182.472.182.779 0 .291-.066.554-.199.786s-.342.418-.628.554-.658.205-1.116.205h-2.102zm.704-.625h1.398c.46 0 .787-.089.98-.267a.86.86 0 0 0 .293-.653c0-.197-.051-.379-.151-.546a1.09 1.09 0 0 0-.429-.403 1.37 1.37 0 0 0-.659-.154h-1.432v2.023zm0-2.636h1.307c.212 0 .403-.042.574-.125a1.01 1.01 0 0 0 .409-.353.93.93 0 0 0 .153-.534c0-.255-.089-.472-.267-.65s-.46-.27-.846-.27h-1.33v1.932zm5.692 3.363c-.277 0-.528-.052-.753-.156a1.28 1.28 0 0 1-.537-.457c-.133-.199-.199-.444-.199-.728 0-.25.049-.452.148-.608a1.04 1.04 0 0 1 .395-.369 2.09 2.09 0 0 1 .545-.199l.605-.108.645-.076c.167-.019.288-.051.364-.094s.116-.12.116-.227v-.023c0-.28-.076-.498-.23-.654s-.381-.233-.69-.233c-.32 0-.571.071-.753.211s-.31.289-.383.449l-.637-.228c.114-.265.265-.471.455-.619a1.72 1.72 0 0 1 .625-.313 2.62 2.62 0 0 1 .67-.09c.14 0 .301.017.483.051a1.54 1.54 0 0 1 .531.201c.173.103.316.257.429.463s.171.483.171.83V288h-.671v-.591h-.034c-.045.095-.121.196-.227.304s-.247.2-.423.276-.391.113-.645.113zm.102-.602c.265 0 .489-.052.671-.156a1.06 1.06 0 0 0 .414-.404c.095-.164.142-.338.142-.52v-.613c-.028.034-.091.065-.187.094a3.38 3.38 0 0 1-.33.071l-.36.051-.282.034c-.174.023-.337.059-.488.111s-.271.124-.364.224-.136.233-.136.403c0 .233.086.41.258.529s.395.176.662.176zm5.019-3.864v.569h-2.261v-.569h2.261zm-1.602-1.045h.67v4.159c0 .189.028.331.083.426s.129.155.216.188.183.045.281.045c.074 0 .134-.004.182-.011l.113-.023.137.602a1.4 1.4 0 0 1-.5.08c-.19 0-.375-.041-.557-.122s-.33-.206-.449-.373-.176-.376-.176-.63v-4.341zm4.509 1.045v.569h-2.262v-.569h2.262zm-1.603-1.045h.671v4.159c0 .189.027.331.082.426s.129.155.216.188.183.045.281.045c.074 0 .135-.004.182-.011l.114-.023.136.602a1.36 1.36 0 0 1-.19.051 1.4 1.4 0 0 1-.31.029 1.36 1.36 0 0 1-.557-.122c-.18-.082-.329-.206-.449-.373s-.176-.376-.176-.63v-4.341zm4.394 5.5c-.421 0-.783-.093-1.088-.279s-.537-.448-.702-.784-.244-.729-.244-1.176.081-.841.244-1.182a1.94 1.94 0 0 1 .687-.801c.296-.193.641-.289 1.035-.289.227 0 .451.037.673.113s.423.199.605.369.327.393.435.671.162.621.162 1.028v.284h-3.364v-.579h2.682c0-.246-.049-.466-.148-.659a1.12 1.12 0 0 0-.415-.458c-.178-.111-.388-.167-.63-.167-.267 0-.499.066-.694.199a1.31 1.31 0 0 0-.446.511c-.104.21-.156.436-.156.676v.387c0 .329.057.608.171.838a1.22 1.22 0 0 0 .48.519 1.4 1.4 0 0 0 .713.177c.176 0 .335-.025.477-.074a1.02 1.02 0 0 0 .372-.227 1.05 1.05 0 0 0 .242-.381l.647.182a1.43 1.43 0 0 1-.343.579c-.161.165-.36.294-.597.387a2.17 2.17 0 0 1-.798.136zm2.826-.091v-4.364h.648v.659h.046c.079-.215.223-.391.431-.525a1.27 1.27 0 0 1 .705-.202l.185.003.167.009v.681c-.022-.005-.075-.014-.156-.025a1.57 1.57 0 0 0-.253-.02c-.212 0-.401.044-.568.133a1.02 1.02 0 0 0-.392.364c-.095.153-.142.329-.142.526V288h-.671zm3.542 1.636c-.114 0-.215-.009-.304-.028s-.151-.034-.185-.051l.17-.591c.163.042.307.057.432.045a.52.52 0 0 0 .333-.167c.098-.099.188-.259.27-.48l.125-.341-1.614-4.387h.727l1.205 3.478h.045l1.205-3.478h.727l-1.852 5c-.084.226-.187.412-.31.56s-.266.26-.429.332a1.33 1.33 0 0 1-.545.108zM375.65 288v-5.818h1.966c.456 0 .829.082 1.119.247s.508.383.648.662.21.589.21.932-.07.654-.21.934-.352.504-.642.671-.661.247-1.114.247h-1.409v-.625h1.386c.313 0 .564-.054.753-.162a.97.97 0 0 0 .412-.437c.085-.183.131-.395.131-.628a1.44 1.44 0 0 0-.131-.625c-.085-.184-.223-.328-.415-.432s-.445-.159-.761-.159h-1.239V288h-.704zm6.713.091c-.394 0-.74-.094-1.037-.281s-.527-.45-.693-.787-.247-.731-.247-1.182.082-.851.247-1.19.398-.603.693-.79.643-.281 1.037-.281.739.093 1.034.281.528.451.693.79.25.735.25 1.19-.083.845-.25 1.182-.396.599-.693.787a1.89 1.89 0 0 1-1.034.281zm0-.602c.299 0 .545-.077.739-.23s.336-.356.429-.606a2.33 2.33 0 0 0 .139-.812c0-.292-.047-.564-.139-.815s-.236-.456-.429-.611-.44-.233-.739-.233-.546.077-.739.233a1.38 1.38 0 0 0-.429.611c-.093.252-.139.523-.139.815a2.33 2.33 0 0 0 .139.812c.093.25.236.452.429.606s.44.23.739.23zm3.841.511l-1.33-4.364h.705l.943 3.341h.045l.932-3.341h.716l.921 3.33h.045l.943-3.33h.705l-1.33 4.364h-.659l-.954-3.352h-.069l-.954 3.352h-.659zm7.192.091c-.42 0-.783-.093-1.088-.279s-.537-.448-.701-.784-.245-.729-.245-1.176.082-.841.245-1.182.393-.609.687-.801.64-.289 1.034-.289a2.06 2.06 0 0 1 .673.113 1.68 1.68 0 0 1 .606.369c.181.169.326.393.434.671s.162.621.162 1.028v.284h-3.364v-.579h2.682c0-.246-.049-.466-.147-.659a1.12 1.12 0 0 0-.415-.458c-.178-.111-.388-.167-.631-.167a1.2 1.2 0 0 0-.693.199c-.193.13-.342.301-.446.511s-.156.436-.156.676v.387c0 .329.056.608.17.838s.276.4.48.519a1.39 1.39 0 0 0 .713.177c.176 0 .336-.025.478-.074a1.02 1.02 0 0 0 .372-.227c.104-.103.184-.23.241-.381l.648.182c-.068.219-.183.413-.344.579a1.68 1.68 0 0 1-.596.387c-.237.09-.503.136-.799.136zm2.827-.091v-4.364h.648v.659h.045c.08-.215.224-.391.432-.525s.443-.202.705-.202l.184.003.168.009v.681c-.023-.005-.075-.014-.156-.025a1.57 1.57 0 0 0-.253-.02c-.212 0-.402.044-.568.133a1.01 1.01 0 0 0-.392.364.98.98 0 0 0-.143.526V288h-.67zm-4.584-28v-5.818h2.074c.453 0 .828.082 1.125.247a1.61 1.61 0 0 1 .668.676c.147.284.221.604.221.96a2.06 2.06 0 0 1-.224.966c-.148.284-.371.51-.671.676s-.671.248-1.122.248h-1.426v-.745h1.347c.286 0 .518-.049.696-.148a.92.92 0 0 0 .392-.409c.084-.173.125-.368.125-.588a1.32 1.32 0 0 0-.125-.585c-.083-.171-.215-.304-.395-.4s-.413-.145-.705-.145h-1.102V260h-.878zm6.833.088c-.409 0-.767-.094-1.071-.281s-.542-.45-.711-.787-.252-.731-.252-1.182.084-.848.252-1.187.406-.603.711-.79.662-.281 1.071-.281.766.093 1.071.281.541.451.71.79a2.64 2.64 0 0 1 .253 1.187c0 .451-.085.845-.253 1.182s-.405.599-.71.787-.662.281-1.071.281zm.002-.713c.266 0 .485-.07.66-.21a1.23 1.23 0 0 0 .386-.56 2.23 2.23 0 0 0 .128-.77c0-.278-.043-.534-.128-.767s-.212-.423-.386-.565-.394-.213-.66-.213-.488.071-.664.213a1.27 1.27 0 0 0-.39.565c-.083.233-.125.489-.125.767a2.29 2.29 0 0 0 .125.77 1.23 1.23 0 0 0 .39.56c.175.14.397.21.664.21zm3.793.625l-1.284-4.364h.878l.855 3.205h.043l.857-3.205h.878l.853 3.191h.042l.85-3.191h.877L405.835 260h-.866l-.887-3.151h-.065l-.886 3.151h-.864zm7.403.088c-.429 0-.8-.092-1.11-.276a1.86 1.86 0 0 1-.716-.781c-.167-.337-.25-.732-.25-1.184a2.64 2.64 0 0 1 .25-1.182c.167-.341.403-.607.704-.799a1.95 1.95 0 0 1 1.063-.286c.246 0 .485.04.716.122a1.73 1.73 0 0 1 .622.383c.184.174.328.401.435.679s.159.613.159 1.009v.301h-3.469v-.636h2.636a1.25 1.25 0 0 0-.136-.594 1.03 1.03 0 0 0-.384-.412c-.163-.101-.354-.151-.574-.151-.238 0-.446.059-.625.176a1.17 1.17 0 0 0-.409.455 1.32 1.32 0 0 0-.142.605v.497c0 .292.051.54.154.745a1.1 1.1 0 0 0 .434.468 1.27 1.27 0 0 0 .651.159c.161 0 .308-.022.44-.068a.94.94 0 0 0 .344-.21c.097-.093.171-.207.222-.344l.804.145c-.065.237-.18.444-.347.622a1.67 1.67 0 0 1-.622.412 2.32 2.32 0 0 1-.85.145zm2.815-.088v-4.364h.821v.694h.046c.079-.235.219-.42.42-.554a1.2 1.2 0 0 1 .688-.205l.187.006.173.014v.812c-.034-.009-.094-.019-.182-.031s-.174-.02-.261-.02a1.11 1.11 0 0 0-.537.128.95.95 0 0 0-.369.35.94.94 0 0 0-.136.505V260h-.85zm5.256-5.818h1.065l1.852 4.523h.069l1.852-4.523h1.065V260h-.835v-4.21h-.054l-1.716 4.201h-.693l-1.716-4.204h-.054V260h-.835v-5.818zm8.949 5.906c-.409 0-.766-.094-1.071-.281s-.541-.45-.71-.787-.253-.731-.253-1.182a2.64 2.64 0 0 1 .253-1.187c.169-.339.405-.603.71-.79s.662-.281 1.071-.281.766.093 1.071.281a1.9 1.9 0 0 1 .711.79c.169.339.252.734.252 1.187s-.084.845-.252 1.182-.406.599-.711.787-.662.281-1.071.281zm.003-.713c.265 0 .485-.07.659-.21a1.24 1.24 0 0 0 .387-.56 2.23 2.23 0 0 0 .127-.77c0-.278-.042-.534-.127-.767s-.212-.423-.387-.565a1.01 1.01 0 0 0-.659-.213c-.265 0-.488.071-.665.213s-.304.33-.389.565-.125.489-.125.767a2.29 2.29 0 0 0 .125.77 1.25 1.25 0 0 0 .389.56c.177.14.398.21.665.21zm4.613.71a1.69 1.69 0 0 1-.943-.27 1.83 1.83 0 0 1-.648-.775c-.155-.337-.233-.742-.233-1.213s.079-.875.236-1.211.377-.591.653-.769a1.7 1.7 0 0 1 .941-.267c.271 0 .488.045.653.136s.296.193.387.312a2.75 2.75 0 0 1 .215.316h.052v-2.162h.849V260h-.83v-.679h-.071c-.051.093-.125.199-.221.318s-.225.224-.392.313-.383.133-.648.133zm.188-.724c.244 0 .45-.065.619-.193a1.2 1.2 0 0 0 .386-.543c.089-.231.134-.5.134-.807a2.2 2.2 0 0 0-.131-.795 1.17 1.17 0 0 0-.383-.532c-.169-.126-.377-.19-.625-.19a1.01 1.01 0 0 0-.64.199c-.17.133-.299.313-.386.543s-.128.487-.128.775.044.554.131.787.216.418.386.554.385.202.637.202zm5.067.727c-.43 0-.8-.092-1.111-.276s-.547-.446-.716-.781-.25-.732-.25-1.184.084-.841.25-1.182a1.93 1.93 0 0 1 .705-.799c.301-.192.657-.286 1.062-.286a2.12 2.12 0 0 1 .716.122c.231.081.439.209.622.383a1.8 1.8 0 0 1 .435.679c.106.277.159.613.159 1.009v.301h-3.469v-.636h2.637a1.25 1.25 0 0 0-.137-.594 1.02 1.02 0 0 0-.383-.412c-.163-.101-.354-.151-.574-.151a1.11 1.11 0 0 0-.625.176c-.176.116-.312.267-.409.455a1.31 1.31 0 0 0-.142.605v.497c0 .292.051.54.153.745a1.09 1.09 0 0 0 .435.468 1.29 1.29 0 0 0 .651.159c.161 0 .307-.022.44-.068a.93.93 0 0 0 .344-.21c.097-.093.17-.207.221-.344l.804.145c-.064.237-.18.444-.346.622a1.66 1.66 0 0 1-.622.412 2.31 2.31 0 0 1-.85.145z" class="D"/><path d="M327 271.75h187" class="C F"/><g filter="url(#B)"><rect x="327" y="156" width="187" height="134" rx="10" fill="#fff"/></g><path d="M349.653 195.909V201h-.596l-2.774-3.997h-.05V201h-.617v-5.091h.597l2.784 4.007h.05v-4.007h.606zm5.529 2.546c0 .536-.097 1-.29 1.392s-.46.692-.798.904-.725.319-1.159.319-.82-.106-1.158-.319-.604-.513-.798-.904-.291-.856-.291-1.392.097-1.001.291-1.393.46-.692.798-.904.724-.319 1.158-.319.821.107 1.159.319.604.513.798.904.29.856.29 1.393zm-.596 0c0-.441-.074-.813-.221-1.117s-.344-.532-.594-.688a1.54 1.54 0 0 0-.836-.234 1.55 1.55 0 0 0-.837.234c-.249.156-.447.385-.595.688s-.218.676-.218 1.117.073.812.218 1.116.346.532.595.688a1.55 1.55 0 0 0 .837.234 1.54 1.54 0 0 0 .836-.234c.25-.156.448-.385.594-.688s.221-.676.221-1.116zm5.67-2.546V201h-.597l-2.774-3.997h-.05V201h-.616v-5.091h.597l2.784 4.007h.049v-4.007h.607zM361.49 201v-5.091h3.072v.547h-2.456v1.72h2.297v.547h-2.297v1.73h2.496V201h-3.112zm46.062-23v-6.545h2.333c.509 0 .931.092 1.266.278a1.81 1.81 0 0 1 .751.76c.166.32.249.68.249 1.081s-.084.764-.252 1.086-.418.573-.755.761-.755.278-1.262.278h-1.604v-.837h1.515c.321 0 .582-.056.783-.167a1.03 1.03 0 0 0 .441-.46 1.51 1.51 0 0 0 .14-.661 1.49 1.49 0 0 0-.14-.659 1.01 1.01 0 0 0-.445-.451c-.2-.108-.464-.163-.792-.163h-1.24V178h-.988zm7.065.109a2.01 2.01 0 0 1-.844-.173c-.251-.117-.45-.286-.597-.508s-.218-.493-.218-.815c0-.277.053-.505.16-.684a1.18 1.18 0 0 1 .431-.425c.182-.104.384-.183.608-.237s.451-.093.684-.121l.716-.083c.183-.024.316-.061.399-.112s.125-.134.125-.249v-.023c0-.279-.079-.495-.237-.648s-.388-.231-.697-.231c-.321 0-.575.072-.76.215s-.31.297-.381.469l-.898-.204c.107-.298.262-.539.467-.722a1.91 1.91 0 0 1 .713-.403 2.79 2.79 0 0 1 .847-.128 2.98 2.98 0 0 1 .623.07c.221.045.428.128.62.25a1.37 1.37 0 0 1 .476.521c.124.223.186.514.186.872V178h-.934v-.671h-.038a1.38 1.38 0 0 1-.278.364 1.47 1.47 0 0 1-.476.297c-.194.079-.426.119-.697.119zm.208-.767c.264 0 .49-.053.677-.157s.334-.241.432-.409.15-.353.15-.547v-.632c-.034.034-.1.066-.198.095s-.206.053-.329.074l-.362.054-.294.039a2.38 2.38 0 0 0-.508.118.86.86 0 0 0-.364.24c-.09.102-.134.238-.134.409 0 .236.087.415.262.537s.397.179.668.179zm3.487.658v-4.909h.924v.78h.051c.09-.264.247-.472.473-.623a1.35 1.35 0 0 1 .774-.231l.21.007.195.016v.914a1.49 1.49 0 0 0-.204-.035 1.94 1.94 0 0 0-.294-.023c-.226 0-.427.048-.604.144s-.313.225-.416.393a1.06 1.06 0 0 0-.153.569V178h-.956zm3.454 0v-4.909h.956V178h-.956zm.483-5.667c-.166 0-.309-.055-.428-.166a.54.54 0 0 1-.176-.402c0-.158.059-.292.176-.403a.6.6 0 0 1 .428-.17.59.59 0 0 1 .425.17.53.53 0 0 1 .179.403c0 .155-.06.289-.179.402a.59.59 0 0 1-.425.166zm4.05.758v.767h-2.681v-.767h2.681zm-1.962-1.176h.955v4.644c0 .185.028.325.084.418s.126.155.214.189.186.048.291.048c.076 0 .143-.006.201-.016l.134-.026.173.79a1.79 1.79 0 0 1-.237.064c-.102.023-.23.036-.383.038-.252.004-.486-.041-.703-.134s-.394-.239-.528-.435-.201-.442-.201-.738v-4.842zm3.623 7.926a2.04 2.04 0 0 1-.39-.035c-.117-.022-.204-.045-.262-.071l.23-.783c.175.047.331.068.467.061a.56.56 0 0 0 .361-.153c.104-.096.2-.253.281-.47l.119-.326-1.796-4.973h1.022l1.244 3.81h.051l1.243-3.81h1.026l-2.023 5.564c-.094.256-.213.472-.358.649a1.4 1.4 0 0 1-.518.403 1.7 1.7 0 0 1-.697.134z" class="D"/><path d="M327 208.75h187m-187-21h187" class="C F"/><path d="M345.825 223h-.646l1.869-5.091h.637l1.869 5.091h-.646l-1.522-4.286h-.039L345.825 223zm.239-1.989h2.605v.547h-2.605v-.547zm5.854 1.989h-1.571v-5.091h1.641c.493 0 .916.102 1.267.306s.621.493.808.872.281.831.281 1.358-.094.986-.283 1.369-.464.675-.826.88-.8.306-1.317.306zm-.955-.547h.915c.421 0 .77-.081 1.047-.243a1.51 1.51 0 0 0 .619-.694c.136-.3.204-.657.204-1.071s-.068-.765-.202-1.062-.335-.527-.601-.686-.599-.241-.997-.241h-.985v3.997zm5.986.547h-1.571v-5.091h1.641c.494 0 .916.102 1.268.306a2 2 0 0 1 .807.872c.188.378.281.831.281 1.358s-.094.986-.283 1.369a2.02 2.02 0 0 1-.825.88c-.362.204-.801.306-1.318.306zm-.954-.547h.914c.421 0 .77-.081 1.047-.243s.483-.394.619-.694.204-.657.204-1.071-.067-.765-.202-1.062-.334-.527-.601-.686-.599-.241-.997-.241h-.984v3.997z" class="D"/><path d="M327 231.75h187" class="C F"/><path d="M345.616 248v-5.091h3.073v.547h-2.456v1.72h2.297v.547h-2.297v1.73h2.496V248h-3.113zm4.393-5.091l1.511 4.286h.06l1.511-4.286h.647l-1.87 5.091h-.636l-1.869-5.091h.646zm4.522 5.091v-5.091h3.072v.547h-2.456v1.72h2.297v.547h-2.297v1.73h2.496V248h-3.112zm8.22-5.091V248h-.597l-2.774-3.997h-.049V248h-.617v-5.091h.597l2.784 4.007h.05v-4.007h.606z" class="D"/><circle cx="493" cy="199" r="2" class="H"/><path d="M327 259.75h187" class="C F"/><path d="M455.393 274.652v-.28c0-.771.209-1.371.626-1.802s.952-.649 1.606-.649 1.186.216 1.603.649.629 1.031.629 1.802v.28c0 .77-.21 1.372-.629 1.805s-.951.646-1.603.646-1.189-.216-1.606-.646-.626-1.035-.626-1.805zm.708 0c0 .574.139 1.025.417 1.353s.649.489 1.107.489.826-.163 1.104-.489.42-.779.42-1.353v-.28c0-.575-.14-1.025-.42-1.351s-.646-.492-1.104-.492-.827.164-1.107.492-.417.776-.417 1.351v.28zm4.655 2.348v-5.25h.677v3.213l1.62-1.685h.803l-2.423 2.44V277h-.677zm2.492 0l-1.521-1.965.447-.465 1.89 2.43h-.816zm1.069-1.094a1 1 0 0 1 .472-.882c.315-.212.713-.317 1.196-.317h.899v-.294c0-.205-.062-.372-.188-.499s-.336-.195-.639-.195-.516.058-.646.174-.195.247-.195.4v.017h-.676v-.017c0-.299.137-.559.413-.783s.653-.335 1.125-.335.834.104 1.093.311.39.516.39.927v1.767c0 .148.011.288.034.42s.059.245.103.345V277h-.656a1.04 1.04 0 0 1-.093-.232 1.45 1.45 0 0 1-.051-.284c-.093.153-.244.288-.451.407s-.475.177-.803.177c-.367 0-.681-.099-.94-.297s-.387-.489-.387-.865zm.677-.034c0 .205.065.366.195.482s.336.171.612.171a1.19 1.19 0 0 0 .748-.26c.224-.175.335-.36.335-.554v-.516h-.827c-.349 0-.613.062-.793.185s-.27.285-.27.492zm3.203 2.55v-.581a1.61 1.61 0 0 0 .212.044c.077.012.152.017.225.017.173 0 .316-.043.428-.13s.25-.354.41-.803v-.003l-1.436-3.688h.677l.909 2.416.096.277c.029.089.052.179.068.27h.021a1.84 1.84 0 0 1 .068-.27l.099-.277.855-2.416h.642l-1.569 4.201c-.123.319-.286.567-.488.745s-.448.266-.742.266c-.098 0-.185-.005-.26-.017s-.147-.028-.215-.051z" class="H"/><path d="M359.393 274.652v-.28c0-.771.209-1.371.626-1.802s.939-.649 1.568-.649 1.114.165 1.446.496a1.87 1.87 0 0 1 .571 1.186l.003.034h-.7l-.004-.034c-.027-.267-.144-.512-.352-.735s-.528-.339-.964-.339a1.34 1.34 0 0 0-1.069.492c-.278.326-.417.776-.417 1.351v.28c0 .574.139 1.025.417 1.353s.636.489 1.069.489.757-.112.964-.335a1.26 1.26 0 0 0 .352-.738l.004-.034h.7l-.003.034c-.046.462-.236.859-.571 1.189s-.814.493-1.446.493-1.151-.216-1.568-.646-.626-1.035-.626-1.805zm4.823 1.254a1 1 0 0 1 .472-.882c.314-.212.713-.317 1.196-.317h.899v-.294c0-.205-.063-.372-.188-.499s-.336-.195-.639-.195-.517.058-.646.174-.195.247-.195.4v.017h-.677v-.017c0-.299.138-.559.414-.783s.652-.335 1.124-.335.834.104 1.094.311.389.516.389.927v1.767c0 .148.012.288.035.42s.059.245.102.345V277h-.656c-.034-.059-.065-.137-.092-.232s-.045-.191-.052-.284c-.093.153-.243.288-.451.407s-.475.177-.803.177c-.367 0-.68-.099-.94-.297s-.386-.489-.386-.865zm.677-.034c0 .205.065.366.194.482s.337.171.612.171.525-.087.749-.26.335-.36.335-.554v-.516h-.827c-.349 0-.613.062-.793.185s-.27.285-.27.492zm3.575 1.128v-3.722h.615l.031.492h.017c.146-.18.321-.318.526-.414s.433-.147.684-.147c.394 0 .707.111.94.332s.352.592.352 1.114V277h-.68v-2.352c0-.307-.072-.527-.216-.659s-.343-.198-.605-.198c-.223 0-.419.058-.588.174s-.301.262-.399.444V277h-.677zm3.927-1.808v-.109c0-.561.16-1.019.479-1.375s.762-.533 1.322-.533c.52 0 .914.134 1.183.4s.407.564.407.892v.017h-.66v-.017a.69.69 0 0 0-.222-.506c-.146-.148-.382-.222-.708-.222-.38 0-.661.13-.841.39s-.266.578-.266.954v.109c0 .378.089.697.266.957s.461.39.841.39c.326 0 .562-.073.708-.219a.7.7 0 0 0 .222-.509v-.018h.66v.018c0 .328-.136.625-.407.892s-.663.4-1.183.4c-.56 0-1.001-.178-1.322-.534s-.479-.814-.479-1.377zm3.938 0v-.109c0-.561.16-1.019.481-1.375s.75-.533 1.279-.533.942.167 1.227.499.43.782.43 1.347v.287h-2.997v-.543h2.31v.01c0-.299-.074-.546-.222-.742s-.395-.297-.748-.297-.615.13-.8.389-.273.579-.273.958v.109c0 .378.095.698.287.96s.492.39.895.39a1.28 1.28 0 0 0 .639-.15 1.43 1.43 0 0 0 .434-.359l.438.369c-.121.173-.311.334-.571.482s-.571.219-.94.219c-.604 0-1.066-.178-1.388-.534s-.481-.814-.481-1.377zm4.214 1.808v-5.25h.677V277h-.677z" fill="#797979"/><path d="M420.25 260v30" class="C F"/><path d="M237.672 222a2.67 2.67 0 0 0-2.667-2.667 2.67 2.67 0 0 0-2.667 2.667 2.67 2.67 0 0 0 2.667 2.667 2.67 2.67 0 0 0 2.667-2.667zM327 222v-.5h-91.995v.5.5H327v-.5z" fill="url(#D)"/><defs><filter id="A" x="10" y="12" width="228" height="64" filterUnits="userSpaceOnUse" class="J"><feFlood flood-opacity="0" result="A"/><feColorMatrix in="SourceAlpha" values="0 0 0 0 0 0 0 0 0 0 0 0 0 0 0 0 0 0 127 0" result="B"/><feMorphology radius="1" operator="dilate" in="SourceAlpha"/><feOffset dy="1"/><feGaussianBlur stdDeviation="2.5"/><feComposite in2="B" operator="out"/><feColorMatrix values="0 0 0 0 0 0 0 0 0 0 0 0 0 0 0 0 0 0 0.1 0"/><feBlend in2="A"/><feBlend in="SourceGraphic"/></filter><filter id="B" x="317" y="150" width="207" height="154" filterUnits="userSpaceOnUse" class="J"><feFlood flood-opacity="0" result="A"/><feColorMatrix in="SourceAlpha" values="0 0 0 0 0 0 0 0 0 0 0 0 0 0 0 0 0 0 127 0" result="B"/><feOffset dy="4"/><feGaussianBlur stdDeviation="5"/><feComposite in2="B" operator="out"/><feColorMatrix values="0 0 0 0 0 0 0 0 0 0 0 0 0 0 0 0 0 0 0.25 0"/><feBlend in2="A"/><feBlend in="SourceGraphic"/></filter><linearGradient id="C" x1="128" y1="0" x2="128" y2="533" gradientUnits="userSpaceOnUse"><stop stop-color="#d84896"/><stop offset="1" stop-color="#a733c3"/></linearGradient><linearGradient id="D" x1="235.005" y1="221.2" x2="327" y2="221.2" gradientUnits="userSpaceOnUse"><stop stop-color="#2f67ff"/><stop offset="1" stop-color="#c262b8"/></linearGradient><clipPath id="E"><path fill="#fff" transform="translate(36 185)" d="M0 0h11v10H0z"/></clipPath><clipPath id="F"><path fill="#fff" transform="translate(36 119)" d="M0 0h12v12H0z"/></clipPath><path id="G" d="M36.372 57.525v.823"/><path id="H" d="M222.341 364.219l-.563-.531 3.319-3.108-3.319-3.108.563-.531 3.881 3.639-3.881 3.639z"/></defs></svg>