<svg xmlns="http://www.w3.org/2000/svg" width="556" height="876" fill="none" xmlns:v="https://vecta.io/nano"><style><![CDATA[.B{stroke-width:.5}.C{stroke-linejoin:round}.D{fill-rule:evenodd}.E{stroke-width:.3}.F{stroke-miterlimit:22.9256}]]></style><rect x="83.468" y=".912" width="389" height="873.933" rx="23.5" fill="#f85550" stroke="url(#A)"/><g fill="#fff"><path d="M345.85 47.666a7.49 7.49 0 0 1 7.487 7.487 7.49 7.49 0 0 1-7.487 7.487 7.49 7.49 0 0 1-7.486-7.487 7.49 7.49 0 0 1 7.486-7.487zm0 1.498a5.99 5.99 0 0 0-5.989 5.989 5.99 5.99 0 0 0 5.989 5.989 5.99 5.99 0 0 0 5.99-5.989 5.99 5.99 0 0 0-5.99-5.989zm0 1.497a.75.75 0 0 1 .749.749v3.343l1.913 1.274a.75.75 0 0 1 .207 1.039.75.75 0 0 1-1.038.207l-1.913-1.274a1.5 1.5 0 0 1-.666-1.246V51.41a.75.75 0 0 1 .748-.749zm-5.769-4.273a.75.75 0 0 1 1.058 0 .75.75 0 0 1 0 1.059l-2.246 2.246a.75.75 0 0 1-1.058 0 .75.75 0 0 1 0-1.059l2.246-2.246zm10.481 0a.75.75 0 0 1 1.059 0l2.246 2.246a.75.75 0 0 1 0 1.059.75.75 0 0 1-1.059 0l-2.246-2.246a.75.75 0 0 1 0-1.059zm58.978 10.323a.99.99 0 0 1 .988.988v2.195a.99.99 0 0 1-.988.988.99.99 0 0 1-.988-.988v-2.195a.99.99 0 0 1 .988-.988zm3.623-2.966a.99.99 0 0 1 .988.988v5.161a.99.99 0 0 1-.988.988.99.99 0 0 1-.988-.988v-5.161a.99.99 0 0 1 .988-.988zm3.734-2.855a.99.99 0 0 1 .989.988v8.016a.99.99 0 0 1-.989.988.99.99 0 0 1-.988-.988v-8.016a.99.99 0 0 1 .988-.988zm3.624-2.965a.99.99 0 0 1 .988.988v10.98a.99.99 0 0 1-.988.988.99.99 0 0 1-.989-.988v-10.98a.99.99 0 0 1 .989-.988zm-28.551 9.993a1.1 1.1 0 0 1 1.098 1.099 1.1 1.1 0 0 1-1.098 1.098 1.1 1.1 0 0 1-1.098-1.098 1.1 1.1 0 0 1 1.098-1.099zm.18-3.561c1.385.077 2.62.718 3.476 1.694a.88.88 0 0 1-.08 1.239.88.88 0 0 1-1.24-.08 3.23 3.23 0 0 0-2.436-1.104h-.001c-.461 0-.917.098-1.336.288a3.24 3.24 0 0 0-1.099.816.88.88 0 0 1-1.239.082.88.88 0 0 1-.083-1.239c.468-.536 1.047-.965 1.695-1.259s1.351-.445 2.063-.444v.878l.001-.878.279.008zm-.28-3.303a8.27 8.27 0 0 1 3.255.664c1.03.439 1.96 1.084 2.733 1.893a.88.88 0 0 1-.028 1.242.88.88 0 0 1-1.242-.028 6.51 6.51 0 0 0-2.152-1.491 6.5 6.5 0 0 0-2.565-.523h-.002c-.882-.001-1.754.177-2.565.523a6.51 6.51 0 0 0-2.152 1.491.88.88 0 0 1-1.242.028.88.88 0 0 1-.029-1.242c.774-.809 1.703-1.454 2.733-1.893a8.27 8.27 0 0 1 3.255-.664l.001.879v-.879zm.001-3.294a11.55 11.55 0 0 1 8.209 3.41.88.88 0 0 1-.003 1.242.88.88 0 0 1-1.243-.002c-1.78-1.788-4.243-2.893-6.964-2.893h-.001a9.8 9.8 0 0 0-3.771.75 9.78 9.78 0 0 0-3.191 2.143.88.88 0 0 1-1.243.004.88.88 0 0 1-.004-1.242 11.55 11.55 0 0 1 3.764-2.527c1.409-.585 2.92-.886 4.446-.884v.879l.001-.879z"/><path d="M368.58 46.794c.25-.122.55-.096.774.068l4.751 3.482a.72.72 0 0 1 .296.588c-.003.231-.119.446-.312.58l-4.179 2.893 4.179 2.893c.193.133.309.349.312.58a.72.72 0 0 1-.296.588l-4.751 3.482a.75.75 0 0 1-.774.068.72.72 0 0 1-.409-.646v-5.761l-3.585 2.482a.75.75 0 0 1-1.03-.172.71.71 0 0 1 .176-1.007l3.62-2.506-3.62-2.506a.71.71 0 0 1-.176-1.007.75.75 0 0 1 1.03-.172l3.585 2.481V47.44a.72.72 0 0 1 .409-.646zm1.069 9.201l2.758 1.909-2.758 2.021v-3.93zm0-3.18v-3.93l2.758 2.021-2.758 1.909zm60.929-3.452a2.47 2.47 0 0 1 1.747-.724h9.883a2.47 2.47 0 0 1 2.47 2.471v.141c.344.122.661.319.924.582a2.47 2.47 0 0 1 .723 1.747v1.647a2.47 2.47 0 0 1-.723 1.747c-.263.263-.58.461-.924.582v.141a2.47 2.47 0 0 1-.723 1.747c-.464.463-1.092.724-1.747.724h-9.883a2.47 2.47 0 0 1-2.471-2.471V51.11a2.47 2.47 0 0 1 .724-1.747zm1.747.923c-.219 0-.428.087-.583.241a.82.82 0 0 0-.241.582v6.589c0 .218.087.428.241.582s.364.241.583.241h9.883c.218 0 .427-.087.582-.241a.82.82 0 0 0 .241-.582v-.824c0-.455.369-.824.824-.824.218 0 .428-.087.582-.241s.241-.364.241-.582V53.58c0-.218-.087-.428-.241-.582s-.364-.241-.582-.241c-.455 0-.824-.369-.824-.823v-.824c0-.218-.087-.428-.241-.582s-.364-.241-.582-.241h-9.883zm1.647 1.647c.455 0 .823.369.823.823v3.294c0 .455-.368.824-.823.824s-.824-.369-.824-.824v-3.294c0-.455.369-.823.824-.823zm3.294 0c.455 0 .824.369.824.823v3.294c0 .455-.369.824-.824.824s-.823-.369-.823-.824v-3.294c0-.455.368-.823.823-.823zm3.294 0c.455 0 .824.369.824.823v3.294c0 .455-.369.824-.824.824s-.823-.369-.823-.824v-3.294c0-.455.369-.823.823-.823z" class="D"/><path d="M112.032 59.895a3.99 3.99 0 0 1-1.119-.165 4.02 4.02 0 0 1-1.074-.495c-.327-.23-.618-.52-.874-.87s-.444-.765-.567-1.245l1.533-.6c.133.53.374.965.721 1.305.358.33.813.495 1.365.495.276 0 .536-.045.782-.135.245-.1.454-.23.628-.39.174-.17.312-.37.414-.6s.154-.485.154-.765-.052-.535-.154-.765c-.092-.24-.225-.445-.398-.615a1.75 1.75 0 0 0-.629-.39 2.09 2.09 0 0 0-.797-.15c-.338 0-.644.075-.92.225a2.07 2.07 0 0 0-.69.555l-1.687-.735.629-5.16h5.719v1.515h-4.293l-.384 2.67.092.03c.225-.17.486-.315.782-.435s.66-.18 1.089-.18a3.17 3.17 0 0 1 1.257.255 3.16 3.16 0 0 1 1.073.69c.307.3.552.66.736 1.08a3.44 3.44 0 0 1 .276 1.395 3.51 3.51 0 0 1-.276 1.395c-.184.42-.439.785-.766 1.095s-.716.555-1.165.735c-.44.17-.926.255-1.457.255zm6.324-.15a1.19 1.19 0 0 1-.843-.33 1.14 1.14 0 0 1-.338-.825 1.14 1.14 0 0 1 .338-.825 1.16 1.16 0 0 1 .843-.345 1.16 1.16 0 0 1 .843.345c.235.23.353.505.353.825s-.118.595-.353.825a1.19 1.19 0 0 1-.843.33zm0-5.265a1.19 1.19 0 0 1-.843-.33 1.14 1.14 0 0 1-.338-.825 1.09 1.09 0 0 1 .338-.81 1.16 1.16 0 0 1 .843-.345 1.16 1.16 0 0 1 .843.345c.235.22.353.49.353.81s-.118.595-.353.825a1.19 1.19 0 0 1-.843.33zm5.136 5.175v-8.251l-1.947.825-.644-1.425 3.081-1.41h1.212v10.261h-1.702zm7.134.24c-.368 0-.736-.05-1.104-.15s-.715-.255-1.043-.465c-.316-.22-.603-.495-.858-.825s-.45-.725-.583-1.185l1.595-.645c.143.54.388.955.736 1.245s.766.435 1.257.435a2.09 2.09 0 0 0 .705-.12c.235-.08.44-.19.614-.33.173-.15.311-.32.414-.51a1.43 1.43 0 0 0 .153-.66 1.32 1.32 0 0 0-.169-.66 1.48 1.48 0 0 0-.429-.51 2.13 2.13 0 0 0-.659-.33c-.246-.08-.512-.12-.798-.12h-.904V53.52h.812a2.39 2.39 0 0 0 .675-.09c.215-.07.404-.165.567-.285a1.27 1.27 0 0 0 .384-.45 1.46 1.46 0 0 0 .138-.645c0-.41-.154-.73-.46-.96-.297-.24-.675-.36-1.135-.36a1.99 1.99 0 0 0-.675.105 1.49 1.49 0 0 0-.475.285c-.133.12-.245.255-.337.405-.082.14-.148.285-.2.435l-1.564-.645c.082-.24.21-.485.384-.735a3.08 3.08 0 0 1 .659-.705 3.34 3.34 0 0 1 .935-.51c.368-.14.793-.21 1.273-.21a4.14 4.14 0 0 1 1.349.21c.409.14.762.335 1.058.585a2.65 2.65 0 0 1 .69.885 2.52 2.52 0 0 1 .245 1.11c0 .29-.04.555-.122.795-.072.24-.174.455-.307.645-.133.18-.281.335-.445.465a3.13 3.13 0 0 1-.506.33v.09c.236.1.46.23.675.39a2.32 2.32 0 0 1 .552.54c.164.21.291.45.383.72.092.26.138.545.138.855 0 .45-.092.87-.276 1.26a3.03 3.03 0 0 1-.766.99 3.44 3.44 0 0 1-1.135.63c-.439.16-.92.24-1.441.24zm8.703-.24V48.914h3.802c.491 0 .951.08 1.38.24a3.53 3.53 0 0 1 1.15.675 3.06 3.06 0 0 1 .767 1.05c.194.4.291.845.291 1.335a3.08 3.08 0 0 1-.291 1.335 3.1 3.1 0 0 1-.767 1.035 3.53 3.53 0 0 1-1.15.675c-.429.16-.889.24-1.38.24h-2.069v4.155h-1.733zm3.848-5.776a2.05 2.05 0 0 0 .767-.135c.225-.1.414-.23.567-.39a1.72 1.72 0 0 0 .353-.54 1.57 1.57 0 0 0 .123-.6 1.61 1.61 0 0 0-.123-.615 1.54 1.54 0 0 0-.353-.525c-.153-.16-.342-.29-.567-.39s-.48-.15-.767-.15h-2.115v3.345h2.115zm5.016-4.965h1.733l3.587 6.105h.092l3.588-6.105h1.717v10.741h-1.717V53.82l.092-1.8h-.092l-3.128 5.355h-1.027l-3.112-5.355h-.092l.092 1.8v5.835h-1.733V48.914zm-31.481 52.612c-.077-.647-.388-1.15-.933-1.508s-1.215-.537-2.007-.537c-.58 0-1.087.094-1.522.281s-.767.445-1.01.774c-.238.328-.358.701-.358 1.118 0 .35.083.65.25.901s.387.454.652.62.541.297.831.403l.799.249 1.329.358c.341.09.72.213 1.138.371s.824.373 1.208.646.707.613.959 1.035.377.94.377 1.554c0 .707-.185 1.346-.556 1.917s-.904 1.025-1.611 1.362-1.558.505-2.563.505c-.938 0-1.749-.152-2.436-.454-.681-.303-1.218-.725-1.61-1.266s-.608-1.17-.659-1.886h1.637c.042.495.208.904.498 1.228s.665.558 1.112.716a4.52 4.52 0 0 0 1.458.23c.605 0 1.148-.098 1.63-.294s.863-.478 1.144-.831a1.97 1.97 0 0 0 .422-1.253c0-.435-.122-.788-.365-1.061s-.562-.494-.958-.665a10.07 10.07 0 0 0-1.285-.447l-1.611-.461c-1.023-.294-1.832-.713-2.429-1.259s-.895-1.259-.895-2.141c0-.733.198-1.372.595-1.918s.937-.976 1.61-1.278 1.434-.46 2.27-.46c.843 0 1.593.151 2.25.454s1.176.707 1.559 1.227a3.09 3.09 0 0 1 .614 1.77h-1.534zm8.231 10.023c-.946 0-1.762-.209-2.448-.626s-1.208-1.01-1.579-1.765-.55-1.64-.55-2.646.184-1.892.55-2.659.887-1.372 1.547-1.803c.665-.434 1.44-.652 2.327-.652a4.67 4.67 0 0 1 1.515.256 3.77 3.77 0 0 1 1.361.831c.409.379.735.882.978 1.509s.365 1.397.365 2.314v.639h-7.569v-1.304h6.034c0-.554-.11-1.049-.332-1.483s-.528-.778-.933-1.029-.874-.377-1.419-.377c-.601 0-1.121.149-1.56.447s-.769.678-1.003 1.151a3.37 3.37 0 0 0-.352 1.521v.869c0 .742.128 1.37.384 1.886s.62.901 1.08 1.17c.46.264.995.396 1.604.396.397 0 .754-.055 1.074-.166a2.29 2.29 0 0 0 .837-.512c.235-.23.416-.515.544-.856l1.457.409a3.23 3.23 0 0 1-.773 1.304c-.363.371-.81.66-1.343.869s-1.131.307-1.796.307zm9.249.026c-.622 0-1.186-.118-1.693-.352s-.91-.582-1.208-1.029-.448-.997-.448-1.636c0-.563.111-1.019.332-1.368s.518-.631.889-.831.78-.35 1.227-.448l1.362-.243 1.451-.172c.375-.043.647-.113.818-.211s.262-.269.262-.512v-.051c0-.63-.173-1.12-.518-1.47s-.858-.524-1.553-.524c-.72 0-1.285.158-1.694.473s-.697.652-.863 1.01l-1.432-.511c.256-.597.597-1.061 1.023-1.394s.899-.571 1.406-.703a5.86 5.86 0 0 1 1.509-.205c.315 0 .677.039 1.086.116a3.47 3.47 0 0 1 1.196.453c.388.23.709.578.965 1.042s.383 1.087.383 1.867v6.468h-1.508v-1.329h-.077c-.102.213-.272.441-.511.684s-.556.449-.953.62-.879.256-1.451.256zm.231-1.356c.596 0 1.099-.117 1.508-.351s.725-.537.933-.908a2.31 2.31 0 0 0 .32-1.169v-1.381c-.064.077-.205.147-.422.211a7.32 7.32 0 0 1-.741.16l-.812.115-.633.076c-.392.051-.759.135-1.099.25s-.61.279-.819.505-.306.524-.306.907c0 .524.193.921.581 1.189s.889.396 1.49.396zm7.023 1.125v-9.818h1.457v1.483h.103a2.35 2.35 0 0 1 .971-1.182c.469-.303.997-.454 1.585-.454l.416.006.377.019v1.535c-.051-.013-.168-.032-.352-.058a3.43 3.43 0 0 0-.568-.045c-.478 0-.904.1-1.279.301s-.665.468-.882.818a2.18 2.18 0 0 0-.32 1.182v6.213h-1.508zm10.387.205c-.921 0-1.713-.217-2.378-.652s-1.176-1.033-1.534-1.796-.537-1.634-.537-2.614c0-.998.183-1.878.55-2.64s.886-1.366 1.547-1.797 1.44-.652 2.326-.652c.691 0 1.313.128 1.867.384s1.008.614 1.361 1.074.574.997.659 1.611h-1.509c-.115-.448-.371-.844-.767-1.189s-.92-.524-1.585-.524c-.588 0-1.104.153-1.547.46s-.782.731-1.029 1.285-.364 1.195-.364 1.936c0 .759.119 1.419.358 1.982s.583.999 1.022 1.31.963.467 1.56.467c.392 0 .748-.068 1.067-.205s.591-.332.812-.588.379-.562.473-.92h1.509c-.085.579-.296 1.101-.633 1.566s-.774.827-1.323 1.099-1.181.403-1.905.403zm7.575-6.111v5.906h-1.509v-13.09h1.509v4.806h.127a2.78 2.78 0 0 1 1.036-1.208c.464-.302 1.082-.454 1.854-.454.669 0 1.255.135 1.757.403s.893.671 1.17 1.221.422 1.24.422 2.084v6.238h-1.509v-6.136c0-.78-.202-1.383-.607-1.809s-.956-.645-1.668-.645c-.494 0-.938.104-1.33.313a2.29 2.29 0 0 0-.92.914c-.222.4-.332.886-.332 1.457zm9.126 5.906v-9.818h1.508v9.818h-1.508zm.767-11.454c-.294 0-.548-.1-.761-.3a.95.95 0 0 1-.313-.722c0-.281.104-.522.313-.722s.467-.3.761-.3a1.05 1.05 0 0 1 .754.3c.213.2.32.441.32.722s-.107.522-.32.722a1.05 1.05 0 0 1-.754.3zm5.013 5.548v5.906h-1.509v-9.818h1.458v1.534h.127c.231-.498.58-.899 1.049-1.201s1.074-.461 1.815-.461c.665 0 1.247.137 1.745.41s.886.677 1.163 1.227.416 1.236.416 2.071v6.238h-1.509v-6.136c0-.771-.2-1.372-.6-1.802s-.951-.652-1.65-.652c-.481 0-.911.104-1.291.313s-.671.513-.888.914-.326.886-.326 1.457zm12.984 9.793c-.729 0-1.356-.094-1.88-.281s-.961-.427-1.31-.729-.62-.618-.825-.959l1.202-.844c.136.179.309.384.518.614s.494.437.856.607.846.262 1.439.262c.792 0 1.446-.191 1.962-.575s.773-.984.773-1.803v-1.994h-.127a8.27 8.27 0 0 1-.473.665c-.201.26-.491.492-.87.697s-.882.3-1.521.3c-.793 0-1.504-.187-2.135-.562s-1.123-.921-1.489-1.637-.544-1.585-.544-2.608c0-1.005.177-1.881.531-2.627s.846-1.329 1.476-1.739 1.36-.62 2.186-.62c.64 0 1.147.107 1.522.32s.669.448.869.716l.473.652h.154v-1.56h1.457v10.1c0 .843-.192 1.53-.575 2.058-.38.533-.891.923-1.534 1.17s-1.351.377-2.135.377zm-.052-5.395c.606 0 1.117-.139 1.535-.416s.735-.675.952-1.195.326-1.142.326-1.866c0-.708-.107-1.332-.32-1.873s-.528-.965-.946-1.272-.933-.46-1.547-.46c-.639 0-1.171.162-1.598.485-.421.324-.739.759-.952 1.304s-.313 1.151-.313 1.816c0 .682.106 1.284.319 1.809s.537.929.959 1.227.955.441 1.585.441zm-18.222 394.781h1.262l2.966 7.244h.102l2.966-7.244h1.261v8.727h-.988v-6.63h-.086l-2.727 6.63h-.955l-2.727-6.63h-.085v6.63h-.989v-8.727zm11.034 8.727h-1.108l3.205-8.727h1.091l3.204 8.727h-1.108l-2.608-7.346h-.068l-2.608 7.346zm.409-3.409h4.466v.938h-4.466v-.938zm13.955-2.591h-1.057a2.19 2.19 0 0 0-.328-.801 2.18 2.18 0 0 0-.562-.579 2.38 2.38 0 0 0-.729-.358c-.267-.08-.546-.12-.835-.12a2.66 2.66 0 0 0-1.436.401c-.427.267-.766.66-1.019 1.18s-.375 1.158-.375 1.914.125 1.393.375 1.913.592.913 1.019 1.18.907.401 1.436.401a2.93 2.93 0 0 0 .835-.119c.267-.08.51-.198.729-.354s.409-.354.562-.584.266-.5.328-.801h1.057c-.079.446-.224.845-.435 1.198a3.26 3.26 0 0 1-.784.899c-.312.244-.663.43-1.052.558a3.93 3.93 0 0 1-1.24.192c-.745 0-1.407-.182-1.986-.546s-1.036-.88-1.368-1.551-.499-1.466-.499-2.386.167-1.716.499-2.387.788-1.187 1.368-1.551 1.241-.545 1.986-.545c.44 0 .853.064 1.24.192s.74.315 1.052.562a3.26 3.26 0 0 1 .784.895c.21.352.356.748.435 1.197zm8.628-2.727v8.727h-1.022l-4.756-6.852h-.085v6.852h-1.057v-8.727h1.023l4.772 6.869h.085v-6.869h1.04zm2.115 0h1.261l2.966 7.244h.103l2.965-7.244h1.262v8.727h-.989v-6.63h-.085l-2.727 6.63h-.955l-2.727-6.63h-.085v6.63h-.989v-8.727zm11.034 8.727h-1.108l3.204-8.727h1.091l3.205 8.727h-1.108l-2.608-7.346h-.068l-2.608 7.346zm.409-3.409h4.466v.938h-4.466v-.938zm14.263-5.318v8.727h-1.023l-4.756-6.852h-.085v6.852h-1.057v-8.727h1.023l4.773 6.869h.085v-6.869h1.04zm5.728 3.895v.937h-3.818v-.937h3.818zm5.281-3.895h1.261l2.966 7.244h.102l2.966-7.244h1.262v8.727h-.989v-6.63h-.085l-2.728 6.63h-.954l-2.727-6.63h-.086v6.63h-.988v-8.727zm13.471 8.847c-.562 0-1.064-.097-1.504-.29a2.56 2.56 0 0 1-1.044-.805c-.258-.343-.395-.749-.418-1.206h1.074c.023.281.119.524.29.728s.393.358.669.469a2.43 2.43 0 0 0 .916.166c.375 0 .707-.065.997-.196a1.64 1.64 0 0 0 .682-.545c.165-.233.247-.503.247-.81 0-.321-.079-.604-.238-.848s-.393-.44-.699-.58-.682-.208-1.125-.208h-.699v-.938h.699c.346 0 .65-.062.912-.187s.47-.301.617-.529.226-.494.226-.801c0-.295-.065-.552-.196-.771a1.34 1.34 0 0 0-.554-.512c-.235-.122-.514-.183-.835-.183-.301 0-.585.056-.852.166s-.48.266-.648.473a1.24 1.24 0 0 0-.273.742h-1.022c.017-.457.154-.858.413-1.202a2.61 2.61 0 0 1 1.014-.809c.421-.194.882-.29 1.385-.29.54 0 1.003.109 1.389.328s.684.501.891.856a2.25 2.25 0 0 1 .311 1.151c0 .491-.129.911-.388 1.257s-.603.587-1.044.72v.068c.551.091.982.326 1.291.704s.465.839.465 1.393c0 .474-.129.901-.388 1.278s-.605.671-1.048.887-.948.324-1.513.324zm4.692-.12v-.767l2.88-3.153.836-.963a3.63 3.63 0 0 0 .486-.776 1.89 1.89 0 0 0 .161-.767c0-.307-.073-.572-.221-.797a1.46 1.46 0 0 0-.597-.52c-.253-.123-.537-.183-.852-.183-.335 0-.628.07-.878.209s-.439.328-.575.575-.2.537-.2.87h-1.006a2.53 2.53 0 0 1 .354-1.347 2.45 2.45 0 0 1 .963-.903c.409-.216.868-.324 1.376-.324s.965.108 1.359.324.705.507.929.873a2.29 2.29 0 0 1 .337 1.223c0 .321-.058.635-.175.942s-.312.643-.596 1.018-.672.827-1.172 1.364l-1.96 2.097v.068h4.056v.937h-5.505z"/><path d="M170.468 533.344h-1.796v-5.818h1.875c.564 0 1.047.117 1.449.35s.709.563.923.997.321.949.321 1.551-.108 1.128-.324 1.565-.53.771-.943 1.006-.915.349-1.505.349zm-1.091-.625h1.045c.481 0 .88-.092 1.196-.278s.552-.45.707-.793.233-.751.233-1.224-.076-.874-.23-1.213-.382-.602-.687-.784-.685-.276-1.139-.276h-1.125v4.568zm6.784.716c-.421 0-.783-.093-1.088-.278s-.537-.449-.702-.784-.244-.729-.244-1.176.081-.841.244-1.182.394-.61.687-.801.641-.29 1.035-.29c.227 0 .451.038.673.114s.423.198.605.369.327.392.435.67.162.622.162 1.029v.284h-3.364v-.58h2.682c0-.246-.05-.466-.148-.659s-.235-.345-.415-.457-.388-.168-.63-.168a1.2 1.2 0 0 0-.694.199 1.31 1.31 0 0 0-.446.511 1.51 1.51 0 0 0-.156.677v.386c0 .329.057.609.171.838s.275.401.48.52a1.41 1.41 0 0 0 .713.176c.176 0 .335-.025.477-.074a1.02 1.02 0 0 0 .372-.227c.104-.102.185-.229.242-.381l.647.182c-.068.22-.182.413-.343.58s-.36.293-.597.386-.503.136-.798.136zm6.262-4.454l-1.614 4.363h-.682l-1.613-4.363h.727l1.205 3.477h.045l1.205-3.477h.727zm.885 4.363v-4.363h.67v4.363h-.67zm.341-5.091c-.131 0-.244-.044-.338-.133a.43.43 0 0 1-.14-.321.43.43 0 0 1 .14-.321c.094-.089.207-.134.338-.134a.47.47 0 0 1 .335.134c.095.089.142.196.142.321s-.047.232-.142.321-.205.133-.335.133zm3.33 5.182c-.409 0-.761-.096-1.057-.29a1.89 1.89 0 0 1-.682-.798c-.159-.339-.238-.726-.238-1.162 0-.443.081-.834.244-1.173s.394-.607.687-.798.641-.29 1.035-.29c.306 0 .583.057.829.17a1.59 1.59 0 0 1 .605.478 1.49 1.49 0 0 1 .293.716h-.671c-.051-.199-.164-.375-.341-.529s-.409-.233-.704-.233c-.261 0-.491.068-.688.205s-.347.325-.457.571-.162.531-.162.861c0 .337.053.63.159.88s.26.444.455.583.428.207.693.207a1.19 1.19 0 0 0 .474-.091c.142-.061.263-.148.361-.261a.99.99 0 0 0 .21-.409h.671c-.038.257-.132.489-.281.696s-.344.367-.589.488-.524.179-.846.179zm4.525 0c-.42 0-.783-.093-1.088-.278s-.537-.449-.701-.784-.245-.729-.245-1.176.082-.841.245-1.182a1.92 1.92 0 0 1 .687-.801c.296-.194.64-.29 1.034-.29.228 0 .452.038.674.114s.423.198.605.369.326.392.434.67.162.622.162 1.029v.284h-3.363v-.58h2.681c0-.246-.049-.466-.147-.659s-.235-.345-.415-.457a1.16 1.16 0 0 0-.631-.168 1.2 1.2 0 0 0-.693.199 1.31 1.31 0 0 0-.446.511 1.51 1.51 0 0 0-.156.677v.386c0 .329.057.609.17.838s.276.401.48.52.443.176.713.176c.177 0 .336-.025.478-.074a1.02 1.02 0 0 0 .613-.608l.648.182c-.068.22-.183.413-.344.58s-.36.293-.596.386-.503.136-.799.136zm7.418-.091v-5.818h3.511v.625h-2.806v1.966h2.625v.625h-2.625v1.977h2.852v.625h-3.557zm8.6-5.818h.704v3.852c0 .398-.094.753-.281 1.066s-.448.556-.787.736-.737.267-1.193.267-.854-.089-1.193-.267-.603-.426-.79-.736-.279-.668-.279-1.066v-3.852h.705v3.796c0 .284.062.537.187.758s.303.393.534.52.512.188.836.188.602-.063.835-.188.411-.3.534-.52.188-.474.188-.758v-3.796zm2.816 0v5.818h-.705v-5.818h.705zm6.071 2.597v.625h-2.545v-.625h2.545zm3.419 3.221v-.511l1.92-2.102.557-.642c.146-.184.254-.356.324-.517s.108-.334.108-.512a.95.95 0 0 0-.148-.531.96.96 0 0 0-.398-.347c-.168-.081-.358-.122-.568-.122-.223 0-.418.047-.585.139a.96.96 0 0 0-.384.384c-.089.165-.133.358-.133.58h-.671a1.69 1.69 0 0 1 .236-.898c.157-.258.371-.459.642-.602s.579-.216.918-.216.643.072.906.216.47.338.619.582.225.516.225.815c0 .214-.039.424-.117.628s-.208.429-.397.679a12.16 12.16 0 0 1-.782.909l-1.306 1.398v.045h2.704v.625h-3.67zm6.696-5.897a2.09 2.09 0 0 1 .716.136c.238.089.456.237.653.443s.355.484.474.838.179.799.179 1.333c0 .517-.049.976-.147 1.377s-.237.737-.421 1.012-.403.483-.665.625-.553.213-.88.213-.617-.064-.872-.193-.463-.312-.625-.543-.265-.503-.31-.81h.693c.063.267.187.488.372.662s.435.259.742.259c.449 0 .803-.196 1.062-.588s.392-.946.392-1.662h-.045a1.79 1.79 0 0 1-.378.412 1.69 1.69 0 0 1-.486.267c-.178.062-.367.094-.568.094a1.77 1.77 0 0 1-.918-.248c-.276-.166-.498-.394-.664-.684s-.248-.625-.248-1c0-.356.08-.682.239-.977a1.84 1.84 0 0 1 .676-.711c.292-.176.635-.261 1.029-.255zm0 .625c-.239 0-.454.059-.645.179a1.28 1.28 0 0 0-.452.477c-.11.199-.165.419-.165.662s.053.463.159.662.255.354.441.471.4.174.639.174a1.21 1.21 0 0 0 .503-.105c.155-.072.29-.17.406-.293s.209-.266.276-.423.099-.325.099-.498a1.3 1.3 0 0 0-.614-1.122 1.16 1.16 0 0 0-.647-.184zm5.037 5.352c-.428 0-.792-.117-1.093-.35s-.532-.574-.691-1.019-.238-.987-.238-1.62.079-1.165.238-1.611.392-.787.693-1.022.667-.355 1.091-.355.787.118 1.088.355.534.576.694 1.022.241.982.241 1.611-.08 1.173-.239 1.62-.389.785-.69 1.019-.666.35-1.094.35zm0-.625c.425 0 .754-.205.989-.614s.352-.992.352-1.75c0-.504-.054-.932-.162-1.287s-.259-.624-.46-.809-.438-.279-.719-.279c-.42 0-.749.208-.986.622s-.355.998-.355 1.753c0 .504.053.932.159 1.284s.259.621.458.804.442.276.724.276zm4.921.625c-.334 0-.634-.066-.901-.199s-.481-.314-.642-.545-.249-.495-.264-.79h.682a.93.93 0 0 0 .358.653c.214.171.469.256.767.256a1.21 1.21 0 0 0 .636-.168c.188-.111.334-.265.44-.46s.162-.419.162-.668-.056-.48-.167-.679a1.24 1.24 0 0 0-.455-.474 1.29 1.29 0 0 0-.662-.176c-.178-.002-.361.025-.548.082a1.52 1.52 0 0 0-.463.213l-.659-.079.352-2.864h3.023v.625h-2.432l-.205 1.716h.035c.119-.095.268-.173.448-.236a1.72 1.72 0 0 1 .563-.093c.356 0 .673.085.952.255s.5.4.659.693.241.629.241 1.006c0 .371-.083.703-.25.994a1.83 1.83 0 0 1-.682.688 1.94 1.94 0 0 1-.988.25zm4.981 0a2.18 2.18 0 0 1-.716-.136 1.72 1.72 0 0 1-.654-.441c-.197-.208-.355-.489-.474-.844s-.179-.803-.179-1.34c0-.516.048-.972.145-1.37a3.07 3.07 0 0 1 .42-1.008 1.89 1.89 0 0 1 .665-.625 1.82 1.82 0 0 1 .883-.213 1.87 1.87 0 0 1 .87.196c.255.128.464.308.625.539s.265.498.312.799h-.693a1.28 1.28 0 0 0-.375-.651c-.186-.172-.432-.258-.739-.258-.45 0-.805.196-1.065.588s-.387.942-.389 1.65h.045c.106-.161.232-.298.378-.412s.311-.204.489-.267.366-.093.565-.093c.334 0 .638.083.915.25a1.85 1.85 0 0 1 .665.684 1.97 1.97 0 0 1 .25.997c0 .36-.081.69-.242.989s-.387.534-.679.71-.63.26-1.022.256zm0-.625c.238 0 .452-.06.642-.179s.341-.279.451-.48.168-.424.168-.671c0-.24-.054-.459-.162-.656a1.23 1.23 0 0 0-.44-.474c-.186-.118-.398-.176-.637-.176a1.2 1.2 0 0 0-.503.107c-.155.071-.291.167-.409.29s-.206.264-.272.424a1.25 1.25 0 0 0-.1.497 1.34 1.34 0 0 0 .162.647c.11.201.26.363.449.486s.408.185.651.185zm5.105-5.273v5.818h-.704v-5.079h-.034l-1.421.943v-.716l1.455-.966h.704z"/><use href="#F"/><path d="M169.024 575.617h1.262l2.966 7.244h.102l2.966-7.244h1.261v8.727h-.988v-6.63h-.086l-2.727 6.63h-.955l-2.727-6.63h-.085v6.63h-.989v-8.727zm11.034 8.727h-1.108l3.205-8.727h1.091l3.204 8.727h-1.108l-2.608-7.346h-.068l-2.608 7.346zm.409-3.409h4.466v.938h-4.466v-.938zm13.955-2.591h-1.057a2.19 2.19 0 0 0-.328-.801 2.18 2.18 0 0 0-.562-.579 2.38 2.38 0 0 0-.729-.358c-.267-.08-.546-.12-.835-.12a2.66 2.66 0 0 0-1.436.401c-.427.267-.766.66-1.019 1.18s-.375 1.158-.375 1.914.125 1.393.375 1.913.592.913 1.019 1.18.907.401 1.436.401a2.93 2.93 0 0 0 .835-.119c.267-.08.51-.198.729-.354s.409-.354.562-.584.266-.5.328-.801h1.057c-.079.446-.224.845-.435 1.198a3.26 3.26 0 0 1-.784.899c-.312.244-.663.43-1.052.558a3.93 3.93 0 0 1-1.24.192c-.745 0-1.407-.182-1.986-.546s-1.036-.88-1.368-1.551-.499-1.466-.499-2.386.167-1.716.499-2.387.788-1.187 1.368-1.551 1.241-.545 1.986-.545c.44 0 .853.064 1.24.192s.74.315 1.052.562a3.26 3.26 0 0 1 .784.895c.21.352.356.748.435 1.197zm8.628-2.727v8.727h-1.022l-4.756-6.852h-.085v6.852h-1.057v-8.727h1.023l4.772 6.869h.085v-6.869h1.04zm2.115 0h1.261l2.966 7.244h.103l2.965-7.244h1.262v8.727h-.989v-6.63h-.085l-2.727 6.63h-.955l-2.727-6.63h-.085v6.63h-.989v-8.727zm11.034 8.727h-1.108l3.204-8.727h1.091l3.205 8.727h-1.108l-2.608-7.346h-.068l-2.608 7.346zm.409-3.409h4.466v.938h-4.466v-.938zm14.263-5.318v8.727h-1.023l-4.756-6.852h-.085v6.852h-1.057v-8.727h1.023l4.773 6.869h.085v-6.869h1.04zm5.728 3.895v.937h-3.818v-.937h3.818zm5.281-3.895h1.261l2.966 7.244h.102l2.966-7.244h1.262v8.727h-.989v-6.63h-.085l-2.728 6.63h-.954l-2.727-6.63h-.086v6.63h-.988v-8.727zm10.522 8.727v-.767l2.881-3.153.835-.963c.219-.276.381-.534.486-.776a1.92 1.92 0 0 0 .162-.767c0-.307-.074-.572-.222-.797a1.45 1.45 0 0 0-.596-.52c-.253-.122-.537-.183-.853-.183-.335 0-.627.07-.877.209a1.44 1.44 0 0 0-.576.575c-.137.247-.2.537-.2.87h-1.006a2.53 2.53 0 0 1 .354-1.347c.236-.386.557-.687.963-.903s.868-.324 1.376-.324.965.108 1.36.324a2.44 2.44 0 0 1 .929.873 2.3 2.3 0 0 1 .336 1.223c0 .321-.058.635-.174.942s-.313.643-.597 1.018-.672.827-1.172 1.364l-1.96 2.097v.068h4.057v.937h-5.506zm10.112.12c-.642 0-1.189-.175-1.64-.524s-.797-.863-1.036-1.53-.358-1.48-.358-2.429c0-.943.12-1.749.358-2.416s.588-1.182 1.04-1.535 1-.532 1.636-.532 1.181.177 1.633.532.801.864 1.039 1.535.362 1.473.362 2.416c0 .949-.119 1.758-.357 2.429s-.584 1.177-1.036 1.53-.999.524-1.641.524zm0-.938c.637 0 1.131-.307 1.483-.92s.529-1.489.529-2.625c0-.756-.081-1.399-.243-1.931s-.389-.936-.69-1.214a1.53 1.53 0 0 0-1.079-.418c-.63 0-1.123.311-1.478.933s-.533 1.496-.533 2.63c0 .755.08 1.397.239 1.926s.387.93.686 1.206.663.413 1.086.413zm-92.046 20.818h-1.796v-5.818h1.875c.564 0 1.047.117 1.449.35s.709.563.923.997.321.949.321 1.551-.108 1.128-.324 1.565a2.3 2.3 0 0 1-.943 1.006c-.413.235-.915.349-1.505.349zm-1.091-.625h1.045c.481 0 .88-.092 1.196-.278s.552-.45.707-.793.233-.751.233-1.224-.076-.874-.23-1.213a1.71 1.71 0 0 0-.687-.784c-.305-.182-.685-.276-1.139-.276h-1.125v4.568zm6.784.716c-.421 0-.783-.093-1.088-.278s-.537-.449-.702-.784-.244-.729-.244-1.176.081-.841.244-1.182.394-.61.687-.801.641-.29 1.035-.29c.227 0 .451.038.673.114a1.66 1.66 0 0 1 .605.369c.182.171.327.392.435.67s.162.622.162 1.029v.284h-3.364v-.58h2.682c0-.246-.05-.466-.148-.659s-.235-.345-.415-.457-.388-.168-.63-.168a1.2 1.2 0 0 0-.694.199 1.31 1.31 0 0 0-.446.511 1.51 1.51 0 0 0-.156.677v.386c0 .329.057.609.171.838s.275.401.48.52a1.41 1.41 0 0 0 .713.176c.176 0 .335-.025.477-.074a1.02 1.02 0 0 0 .372-.227c.104-.102.185-.229.242-.381l.647.182c-.068.22-.182.413-.343.58s-.36.293-.597.386a2.17 2.17 0 0 1-.798.136zm6.262-4.454l-1.614 4.363h-.682l-1.613-4.363h.727l1.205 3.477h.045l1.205-3.477h.727zm.885 4.363v-4.363h.67v4.363h-.67zm.341-5.091c-.131 0-.244-.044-.338-.133a.43.43 0 0 1-.14-.321.43.43 0 0 1 .14-.321c.094-.089.207-.134.338-.134a.47.47 0 0 1 .335.134c.095.089.142.196.142.321s-.047.232-.142.321a.47.47 0 0 1-.335.133zm3.33 5.182c-.409 0-.761-.096-1.057-.29a1.89 1.89 0 0 1-.682-.798c-.159-.339-.238-.726-.238-1.162 0-.443.081-.834.244-1.173a1.93 1.93 0 0 1 .687-.798c.293-.191.641-.29 1.035-.29.306 0 .583.057.829.17a1.59 1.59 0 0 1 .605.478 1.49 1.49 0 0 1 .293.716h-.671c-.051-.199-.164-.375-.341-.529s-.409-.233-.704-.233c-.261 0-.491.068-.688.205s-.347.325-.457.571-.162.531-.162.861c0 .337.053.63.159.88a1.34 1.34 0 0 0 .455.583c.195.139.428.207.693.207a1.19 1.19 0 0 0 .474-.091c.142-.061.263-.148.361-.261a.99.99 0 0 0 .21-.409h.671c-.038.257-.132.489-.281.696s-.344.367-.589.488-.524.179-.846.179zm4.525 0c-.42 0-.783-.093-1.088-.278s-.537-.449-.701-.784-.245-.729-.245-1.176.082-.841.245-1.182a1.92 1.92 0 0 1 .687-.801c.296-.194.64-.29 1.034-.29.228 0 .452.038.674.114a1.66 1.66 0 0 1 .605.369c.182.171.326.392.434.67s.162.622.162 1.029v.284h-3.363v-.58h2.681c0-.246-.049-.466-.147-.659s-.235-.345-.415-.457a1.16 1.16 0 0 0-.631-.168 1.2 1.2 0 0 0-.693.199 1.31 1.31 0 0 0-.446.511 1.51 1.51 0 0 0-.156.677v.386c0 .329.057.609.17.838s.276.401.48.52.443.176.713.176c.177 0 .336-.025.478-.074a1.02 1.02 0 0 0 .613-.608l.648.182c-.068.22-.183.413-.344.58s-.36.293-.596.386-.503.136-.799.136zm7.418-.091v-5.818h3.511v.625h-2.806v1.966h2.625v.625h-2.625v1.977h2.852v.625h-3.557zm8.6-5.818h.704v3.852c0 .398-.094.753-.281 1.066s-.448.556-.787.736-.737.267-1.193.267-.854-.089-1.193-.267-.603-.426-.79-.736-.279-.668-.279-1.066v-3.852h.705v3.796c0 .284.062.537.187.758s.303.393.534.52.512.188.836.188.602-.063.835-.188.411-.3.534-.52.188-.474.188-.758v-3.796zm2.816 0v5.818h-.705v-5.818h.705zm6.071 2.597v.625h-2.545v-.625h2.545zm3.419 3.221v-.511l1.92-2.102.557-.642c.146-.184.254-.356.324-.517a1.28 1.28 0 0 0 .108-.512.95.95 0 0 0-.148-.531.96.96 0 0 0-.398-.347c-.168-.081-.358-.122-.568-.122-.223 0-.418.047-.585.139a.96.96 0 0 0-.384.384c-.089.165-.133.358-.133.58h-.671a1.69 1.69 0 0 1 .236-.898c.157-.258.371-.459.642-.602s.579-.216.918-.216.643.072.906.216.47.338.619.582.225.516.225.815c0 .214-.039.424-.117.628a2.83 2.83 0 0 1-.397.679 12.16 12.16 0 0 1-.782.909l-1.306 1.398v.045h2.704v.625h-3.67zm6.662.08c-.334 0-.634-.066-.901-.199s-.481-.314-.642-.545-.249-.495-.264-.79h.682a.93.93 0 0 0 .358.653c.214.171.469.256.767.256a1.21 1.21 0 0 0 .636-.168 1.18 1.18 0 0 0 .44-.46c.108-.197.162-.419.162-.668s-.056-.48-.167-.679a1.24 1.24 0 0 0-.455-.474 1.29 1.29 0 0 0-.662-.176c-.178-.002-.361.025-.548.082a1.52 1.52 0 0 0-.463.213l-.659-.079.352-2.864h3.023v.625h-2.432l-.205 1.716h.034a1.53 1.53 0 0 1 .449-.236 1.72 1.72 0 0 1 .563-.093c.356 0 .673.085.951.255s.5.4.66.693.241.629.241 1.006c0 .371-.083.703-.25.994a1.83 1.83 0 0 1-.682.688c-.29.167-.619.25-.988.25zm4.946 0c-.428 0-.792-.117-1.093-.35s-.532-.574-.691-1.019-.238-.987-.238-1.62.079-1.165.238-1.611.392-.787.693-1.022.667-.355 1.091-.355.787.118 1.088.355.534.576.694 1.022.241.982.241 1.611-.08 1.173-.239 1.62-.389.785-.69 1.019-.666.35-1.094.35zm0-.625c.425 0 .754-.205.989-.614s.352-.992.352-1.75c0-.504-.054-.932-.162-1.287s-.259-.624-.46-.809a1.02 1.02 0 0 0-.719-.279c-.42 0-.749.208-.986.622s-.355.998-.355 1.753c0 .504.053.932.159 1.284s.259.621.458.804.442.276.724.276zm5.068.625c-.375 0-.709-.064-1.002-.193a1.71 1.71 0 0 1-.696-.537c-.172-.229-.264-.499-.279-.804h.716c.015.187.08.349.193.486a1.13 1.13 0 0 0 .446.312c.184.074.388.111.611.111.25 0 .472-.044.665-.131s.345-.208.454-.363a.92.92 0 0 0 .165-.54c0-.214-.053-.403-.159-.566s-.261-.293-.466-.386-.454-.139-.75-.139h-.466v-.625h.466c.231 0 .434-.042.608-.125s.314-.201.412-.352a.95.95 0 0 0 .151-.534c0-.197-.044-.369-.131-.515a.9.9 0 0 0-.369-.341c-.158-.081-.343-.122-.557-.122-.201 0-.39.037-.568.111s-.32.177-.432.315a.82.82 0 0 0-.182.495h-.682c.012-.305.103-.572.276-.801a1.73 1.73 0 0 1 .676-.54 2.18 2.18 0 0 1 .923-.193c.36 0 .669.073.926.218a1.54 1.54 0 0 1 .594.571 1.5 1.5 0 0 1 .207.767c0 .328-.086.607-.258.839s-.403.391-.696.48v.045c.367.061.654.217.861.469s.309.559.309.929c0 .316-.086.6-.258.852s-.404.447-.699.591-.632.216-1.009.216zm4.946 0a1.99 1.99 0 0 1-.9-.199c-.267-.133-.481-.314-.642-.545s-.249-.495-.264-.79h.681c.027.263.146.481.358.653a1.19 1.19 0 0 0 .767.256 1.21 1.21 0 0 0 .637-.168 1.18 1.18 0 0 0 .44-.46c.108-.197.162-.419.162-.668s-.056-.48-.167-.679a1.24 1.24 0 0 0-.455-.474 1.29 1.29 0 0 0-.662-.176c-.178-.002-.361.025-.548.082a1.52 1.52 0 0 0-.463.213l-.659-.079.352-2.864h3.023v.625h-2.432l-.205 1.716h.034a1.53 1.53 0 0 1 .449-.236 1.72 1.72 0 0 1 .563-.093c.356 0 .673.085.951.255s.5.4.659.693a2.06 2.06 0 0 1 .242 1.006c0 .371-.083.703-.25.994a1.83 1.83 0 0 1-.682.688c-.29.167-.619.25-.989.25zm5.095-5.898v5.818h-.705v-5.079h-.034l-1.42.943v-.716l1.454-.966h.705z"/><use href="#F" y="71"/><path d="M172.462 656.484c-.656 0-1.241-.113-1.755-.339s-.917-.538-1.218-.939-.461-.873-.487-1.407h1.252c.027.328.14.611.339.85a1.95 1.95 0 0 0 .78.547 2.85 2.85 0 0 0 1.069.194c.437 0 .825-.076 1.163-.229s.604-.364.796-.636.288-.587.288-.945c0-.374-.093-.704-.278-.989a1.84 1.84 0 0 0-.816-.676c-.358-.163-.795-.244-1.312-.244h-.815v-1.094h.815c.404 0 .759-.073 1.064-.218s.548-.352.721-.617.263-.577.263-.935c0-.344-.076-.644-.229-.899a1.55 1.55 0 0 0-.646-.597c-.275-.143-.6-.214-.974-.214-.352 0-.683.065-.995.194s-.56.31-.755.552a1.43 1.43 0 0 0-.318.865h-1.194c.02-.534.181-1.001.483-1.402s.696-.719 1.183-.945 1.029-.338 1.616-.338c.629 0 1.17.128 1.62.383s.797.585 1.039.999a2.62 2.62 0 0 1 .363 1.343c0 .573-.15 1.062-.452 1.466s-.704.685-1.218.841v.079c.643.106 1.145.38 1.506.82s.542.98.542 1.626c0 .554-.151 1.051-.452 1.492s-.706.782-1.223 1.034-1.106.378-1.765.378zm8.795 0c-.749 0-1.387-.204-1.914-.612s-.93-1.006-1.209-1.785-.417-1.727-.417-2.834c0-1.1.139-2.04.417-2.818s.687-1.379 1.214-1.79 1.166-.622 1.909-.622 1.377.207 1.904.622.934 1.007 1.213 1.79.422 1.718.422 2.818c0 1.107-.139 2.052-.417 2.834s-.681 1.374-1.208 1.785-1.165.612-1.914.612zm0-1.094c.742 0 1.319-.358 1.73-1.074s.616-1.737.616-3.063c0-.881-.094-1.632-.283-2.252s-.454-1.092-.806-1.417a1.78 1.78 0 0 0-1.257-.487c-.736 0-1.311.363-1.726 1.089s-.621 1.745-.621 3.067c0 .882.093 1.631.278 2.248s.453 1.085.801 1.407.774.482 1.268.482zm5.19-1.134v-1.014l4.474-7.079h.736v1.571h-.497l-3.381 5.349v.08h6.026v1.093h-7.358zm4.793 2.088v-2.396-.472-7.313h1.173v10.181h-1.173zm4.428 0v-.895l3.361-3.679.974-1.123a4.19 4.19 0 0 0 .567-.905 2.19 2.19 0 0 0 .189-.895c0-.358-.086-.668-.259-.929s-.401-.465-.696-.607-.626-.214-.994-.214c-.391 0-.732.081-1.024.244a1.68 1.68 0 0 0-.671.671c-.156.288-.234.626-.234 1.014h-1.173c0-.596.137-1.12.412-1.571s.65-.802 1.124-1.054 1.013-.378 1.606-.378 1.125.126 1.586.378.822.592 1.084 1.019.392.904.392 1.427a3.07 3.07 0 0 1-.204 1.099c-.132.355-.364.751-.696 1.188a20.99 20.99 0 0 1-1.367 1.591l-2.287 2.446v.08h4.733v1.093h-6.423zm14.164 0l-2.327-7.636h1.233l1.651 5.847h.079l1.631-5.847h1.253l1.611 5.827h.079l1.651-5.827h1.233l-2.327 7.636h-1.153l-1.671-5.866h-.119l-1.671 5.866h-1.153zm11.892.179c-.484 0-.923-.091-1.317-.273s-.708-.453-.94-.801-.348-.775-.348-1.272c0-.438.086-.792.259-1.064a1.81 1.81 0 0 1 .691-.646c.288-.156.606-.272.954-.348l1.059-.189 1.129-.135c.291-.033.503-.087.636-.164s.204-.209.204-.397v-.04c0-.491-.134-.872-.403-1.144s-.668-.407-1.208-.407c-.56 0-.999.122-1.317.368s-.542.507-.672.785l-1.113-.398c.199-.464.464-.825.795-1.083s.7-.445 1.094-.547.789-.159 1.173-.159c.246 0 .527.029.845.089s.632.174.93.353.552.449.751.81.298.846.298 1.452v5.031h-1.173v-1.034h-.06c-.079.166-.212.343-.398.532s-.432.35-.74.482-.685.199-1.129.199zm.179-1.054c.464 0 .855-.091 1.173-.273s.564-.418.726-.706.249-.592.249-.91v-1.074c-.05.06-.159.115-.328.164s-.358.088-.577.125l-.631.089-.493.06c-.305.04-.59.104-.855.194s-.474.217-.636.392-.239.408-.239.706c0 .408.151.716.453.925s.691.308 1.158.308zm8.784-6.761v.994h-3.958v-.994h3.958zm-2.804-1.83h1.173v7.279c0 .331.048.58.144.746s.226.271.378.328a1.52 1.52 0 0 0 .492.079c.129 0 .235-.006.318-.02l.199-.039.239 1.054a2.59 2.59 0 0 1-.333.089 2.46 2.46 0 0 1-.542.05c-.332 0-.656-.071-.975-.214a1.95 1.95 0 0 1-.785-.651c-.206-.292-.308-.66-.308-1.104v-7.597zm7.688 9.625c-.736 0-1.37-.162-1.904-.487s-.94-.785-1.228-1.372-.427-1.276-.427-2.058.142-1.472.427-2.068a3.37 3.37 0 0 1 1.203-1.402c.517-.338 1.121-.507 1.81-.507.398 0 .79.066 1.178.198s.741.348 1.059.647.572.686.761 1.173.283 1.087.283 1.8v.497h-5.886v-1.014h4.693c0-.431-.086-.816-.259-1.154s-.411-.605-.725-.8-.68-.293-1.104-.293c-.467 0-.872.116-1.213.348s-.598.527-.781.894-.273.763-.273 1.184v.676c0 .577.099 1.065.298 1.466a2.15 2.15 0 0 0 .84.91c.358.206.774.308 1.248.308a2.54 2.54 0 0 0 .835-.129c.252-.089.469-.222.652-.398s.323-.401.422-.666l1.134.318a2.51 2.51 0 0 1-.602 1.015c-.281.288-.629.513-1.044.676s-.88.238-1.397.238zm4.947-.159v-7.636h1.133v1.153h.08c.139-.377.391-.684.756-.919s.775-.353 1.233-.353l.323.005.293.015v1.193c-.04-.01-.131-.025-.273-.045s-.287-.035-.443-.035c-.371 0-.702.078-.994.234a1.76 1.76 0 0 0-.686.636c-.166.269-.249.575-.249.92v4.832h-1.173zm9.146 0v-7.636h1.134v1.193h.099c.159-.407.416-.724.771-.949s.781-.343 1.278-.343c.503 0 .923.114 1.258.343s.601.542.79.949h.08c.195-.394.488-.707.88-.939s.86-.353 1.406-.353c.683 0 1.242.213 1.676.641s.651 1.085.651 1.984v5.11h-1.173v-5.11c0-.564-.154-.967-.462-1.209a1.72 1.72 0 0 0-1.089-.362c-.537 0-.953.162-1.248.487s-.443.729-.443 1.223v4.971h-1.193v-5.23c0-.434-.141-.784-.422-1.049s-.645-.402-1.089-.402a1.61 1.61 0 0 0-.855.243 1.85 1.85 0 0 0-.637.676c-.159.285-.238.615-.238.99v4.772h-1.174zm15.37.159c-.736 0-1.37-.162-1.904-.487s-.94-.785-1.228-1.372-.428-1.276-.428-2.058.143-1.472.428-2.068.689-1.068 1.203-1.402 1.12-.507 1.81-.507c.398 0 .79.066 1.178.198s.741.348 1.059.647.572.686.761 1.173.283 1.087.283 1.8v.497h-5.886v-1.014h4.693c0-.431-.086-.816-.259-1.154s-.411-.605-.726-.8-.679-.293-1.103-.293c-.468 0-.872.116-1.213.348s-.599.527-.781.894-.273.763-.273 1.184v.676c0 .577.099 1.065.298 1.466a2.15 2.15 0 0 0 .84.91c.358.206.774.308 1.248.308a2.54 2.54 0 0 0 .835-.129c.252-.089.469-.222.652-.398s.323-.401.422-.666l1.134.318a2.52 2.52 0 0 1-.602 1.015 2.95 2.95 0 0 1-1.044.676c-.414.159-.88.238-1.397.238zm8.268-7.795v.994h-3.958v-.994h3.958zm-2.804-1.83h1.173v7.279c0 .331.048.58.144.746s.226.271.378.328a1.52 1.52 0 0 0 .492.079c.13 0 .236-.006.319-.02l.198-.039.239 1.054c-.079.029-.191.059-.333.089a2.46 2.46 0 0 1-.542.05c-.331 0-.656-.071-.974-.214s-.577-.36-.786-.651-.308-.66-.308-1.104v-7.597zm7.688 9.625c-.735 0-1.37-.162-1.904-.487s-.939-.785-1.228-1.372-.427-1.276-.427-2.058.142-1.472.427-2.068.69-1.068 1.203-1.402 1.121-.507 1.81-.507a3.63 3.63 0 0 1 1.178.198c.388.133.741.348 1.059.647s.572.686.761 1.173.283 1.087.283 1.8v.497h-5.886v-1.014h4.693a2.51 2.51 0 0 0-.258-1.154c-.169-.338-.411-.605-.726-.8s-.68-.293-1.104-.293c-.467 0-.872.116-1.213.348s-.598.527-.78.894-.274.763-.274 1.184v.676c0 .577.1 1.065.298 1.466s.483.701.841.91.773.308 1.247.308c.309 0 .587-.043.836-.129s.469-.222.651-.398a1.81 1.81 0 0 0 .423-.666l1.133.318a2.52 2.52 0 0 1-.601 1.015c-.282.288-.63.513-1.045.676s-.879.238-1.397.238zm4.947-.159v-7.636h1.134v1.153h.079c.139-.377.391-.684.756-.919a2.22 2.22 0 0 1 1.233-.353l.323.005.293.015v1.193c-.039-.01-.131-.025-.273-.045s-.287-.035-.443-.035c-.371 0-.702.078-.994.234a1.76 1.76 0 0 0-.686.636c-.166.269-.249.575-.249.92v4.832h-1.173z"/><path d="M170.468 675.344h-1.796v-5.818h1.875c.564 0 1.047.117 1.449.35s.709.563.923.997.321.949.321 1.551-.108 1.128-.324 1.565-.53.771-.943 1.006-.915.349-1.505.349zm-1.091-.625h1.045c.481 0 .88-.092 1.196-.278s.552-.45.707-.793.233-.751.233-1.224-.076-.874-.23-1.213-.382-.602-.687-.784-.685-.276-1.139-.276h-1.125v4.568zm6.784.716c-.421 0-.783-.093-1.088-.278s-.537-.449-.702-.784-.244-.729-.244-1.176.081-.841.244-1.182.394-.61.687-.801.641-.29 1.035-.29c.227 0 .451.038.673.114s.423.198.605.369.327.392.435.67.162.622.162 1.029v.284h-3.364v-.58h2.682c0-.246-.05-.466-.148-.659s-.235-.345-.415-.457-.388-.168-.63-.168a1.2 1.2 0 0 0-.694.199 1.31 1.31 0 0 0-.446.511 1.51 1.51 0 0 0-.156.677v.386c0 .329.057.609.171.838s.275.401.48.52a1.41 1.41 0 0 0 .713.176c.176 0 .335-.025.477-.074a1.02 1.02 0 0 0 .372-.227c.104-.102.185-.229.242-.381l.647.182c-.068.22-.182.413-.343.58s-.36.293-.597.386-.503.136-.798.136zm6.262-4.454l-1.614 4.363h-.682l-1.613-4.363h.727l1.205 3.477h.045l1.205-3.477h.727zm.885 4.363v-4.363h.67v4.363h-.67zm.341-5.091c-.131 0-.244-.044-.338-.133a.43.43 0 0 1-.14-.321.43.43 0 0 1 .14-.321c.094-.089.207-.134.338-.134a.47.47 0 0 1 .335.134c.095.089.142.196.142.321s-.047.232-.142.321-.205.133-.335.133zm3.33 5.182c-.409 0-.761-.096-1.057-.29a1.89 1.89 0 0 1-.682-.798c-.159-.339-.238-.726-.238-1.162 0-.443.081-.834.244-1.173s.394-.607.687-.798.641-.29 1.035-.29c.306 0 .583.057.829.17a1.59 1.59 0 0 1 .605.478 1.49 1.49 0 0 1 .293.716h-.671c-.051-.199-.164-.375-.341-.529s-.409-.233-.704-.233c-.261 0-.491.068-.688.205s-.347.325-.457.571-.162.531-.162.861c0 .337.053.63.159.88s.26.444.455.583.428.207.693.207a1.19 1.19 0 0 0 .474-.091c.142-.061.263-.148.361-.261a.99.99 0 0 0 .21-.409h.671c-.038.257-.132.489-.281.696s-.344.367-.589.488-.524.179-.846.179zm4.525 0c-.42 0-.783-.093-1.088-.278s-.537-.449-.701-.784-.245-.729-.245-1.176.082-.841.245-1.182a1.92 1.92 0 0 1 .687-.801c.296-.194.64-.29 1.034-.29.228 0 .452.038.674.114s.423.198.605.369.326.392.434.67.162.622.162 1.029v.284h-3.363v-.58h2.681c0-.246-.049-.466-.147-.659s-.235-.345-.415-.457a1.16 1.16 0 0 0-.631-.168 1.2 1.2 0 0 0-.693.199 1.31 1.31 0 0 0-.446.511 1.51 1.51 0 0 0-.156.677v.386c0 .329.057.609.17.838s.276.401.48.52.443.176.713.176c.177 0 .336-.025.478-.074a1.02 1.02 0 0 0 .613-.608l.648.182c-.068.22-.183.413-.344.58s-.36.293-.596.386-.503.136-.799.136zm7.418-.091v-5.818h3.511v.625h-2.806v1.966h2.625v.625h-2.625v1.977h2.852v.625h-3.557zm8.6-5.818h.704v3.852c0 .398-.094.753-.281 1.066s-.448.556-.787.736-.737.267-1.193.267-.854-.089-1.193-.267-.603-.426-.79-.736-.279-.668-.279-1.066v-3.852h.705v3.796c0 .284.062.537.187.758s.303.393.534.52.512.188.836.188.602-.063.835-.188.411-.3.534-.52.188-.474.188-.758v-3.796zm2.816 0v5.818h-.705v-5.818h.705zm6.071 2.597v.625h-2.545v-.625h2.545zm5.385 3.301c-.375 0-.71-.064-1.003-.193s-.524-.308-.696-.537-.264-.499-.279-.804h.716c.015.187.08.349.193.486a1.13 1.13 0 0 0 .446.312c.184.074.388.111.611.111.25 0 .472-.044.665-.131s.345-.208.454-.363.165-.336.165-.54c0-.214-.053-.403-.159-.566s-.261-.293-.466-.386-.454-.139-.75-.139h-.466v-.625h.466c.231 0 .434-.042.608-.125s.314-.201.412-.352.151-.33.151-.534c0-.197-.044-.369-.131-.515a.9.9 0 0 0-.369-.341 1.2 1.2 0 0 0-.557-.122c-.201 0-.39.037-.568.111s-.32.177-.432.315-.172.302-.182.495h-.682c.012-.305.103-.572.276-.801s.398-.411.676-.54a2.18 2.18 0 0 1 .923-.193c.36 0 .669.073.926.218a1.54 1.54 0 0 1 .594.571 1.5 1.5 0 0 1 .208.767c0 .328-.087.607-.259.839s-.402.391-.696.48v.045c.367.061.654.217.861.469s.309.559.309.929c0 .316-.086.6-.258.852s-.403.447-.699.591-.632.216-1.008.216zm5.025 0c-.428 0-.793-.117-1.094-.35s-.531-.574-.69-1.019-.239-.987-.239-1.62.08-1.165.239-1.611.392-.787.693-1.022.667-.355 1.091-.355.787.118 1.088.355.534.576.693 1.022.242.982.242 1.611-.08 1.173-.239 1.62-.389.785-.69 1.019-.666.35-1.094.35zm0-.625c.424 0 .754-.205.989-.614s.352-.992.352-1.75c0-.504-.054-.932-.162-1.287s-.259-.624-.46-.809-.439-.279-.719-.279c-.42 0-.749.208-.986.622s-.355.998-.355 1.753c0 .504.053.932.159 1.284s.259.621.458.804.442.276.724.276zm4.921.625c-.334 0-.634-.066-.901-.199s-.481-.314-.642-.545-.249-.495-.264-.79h.682a.93.93 0 0 0 .358.653c.214.171.469.256.767.256a1.21 1.21 0 0 0 .636-.168 1.18 1.18 0 0 0 .44-.46c.108-.197.162-.419.162-.668s-.056-.48-.167-.679a1.24 1.24 0 0 0-.455-.474 1.29 1.29 0 0 0-.662-.176c-.178-.002-.361.025-.548.082a1.52 1.52 0 0 0-.463.213l-.659-.079.352-2.864h3.023v.625h-2.432l-.205 1.716h.034a1.53 1.53 0 0 1 .449-.236 1.72 1.72 0 0 1 .563-.093c.356 0 .673.085.951.255s.5.4.66.693.241.629.241 1.006c0 .371-.083.703-.25.994a1.83 1.83 0 0 1-.682.688c-.29.167-.619.25-.988.25zm4.912 0c-.39 0-.735-.069-1.034-.207s-.529-.333-.696-.577-.249-.527-.247-.841a1.54 1.54 0 0 1 .145-.682c.098-.21.233-.385.403-.525s.365-.232.577-.27v-.034a1.13 1.13 0 0 1-.665-.469 1.42 1.42 0 0 1-.244-.827 1.41 1.41 0 0 1 .224-.793c.152-.232.36-.416.625-.551s.571-.201.912-.201a1.98 1.98 0 0 1 .904.201c.265.135.473.319.625.551s.231.498.233.793c-.002.309-.087.584-.253.827s-.384.397-.657.469v.034c.211.038.4.127.569.27a1.53 1.53 0 0 1 .403.525 1.57 1.57 0 0 1 .153.682c-.001.314-.087.595-.255.841s-.399.436-.696.577-.638.207-1.026.207zm0-.625a1.67 1.67 0 0 0 .682-.128 1.01 1.01 0 0 0 .443-.361c.104-.155.157-.337.159-.545-.002-.22-.058-.414-.17-.583s-.264-.301-.458-.397a1.43 1.43 0 0 0-.656-.145c-.248 0-.47.048-.665.145s-.345.229-.457.397-.164.363-.162.583c-.002.208.048.39.151.545s.253.276.446.361.422.128.687.128zm0-2.761a1.19 1.19 0 0 0 .554-.125c.163-.084.291-.2.384-.35s.14-.325.142-.525-.049-.369-.139-.515a.91.91 0 0 0-.378-.341c-.161-.081-.349-.122-.563-.122s-.408.041-.571.122a.89.89 0 0 0-.378.341.95.95 0 0 0-.13.515c-.002.2.042.375.133.525s.221.266.384.35a1.22 1.22 0 0 0 .562.125zm3.248 3.306l2.602-5.147v-.046h-3v-.625h3.728v.659l-2.591 5.159h-.739zm4.389 0v-.511l1.92-2.102.557-.642c.146-.184.254-.356.324-.517s.108-.334.108-.512a.95.95 0 0 0-.148-.531.96.96 0 0 0-.398-.347c-.168-.081-.358-.122-.568-.122a1.19 1.19 0 0 0-.585.139.96.96 0 0 0-.384.384c-.089.165-.133.358-.133.58h-.671a1.69 1.69 0 0 1 .236-.898c.157-.258.371-.459.642-.602s.579-.216.918-.216.643.072.906.216.47.338.619.582.225.516.225.815c0 .214-.039.424-.117.628s-.208.429-.397.679a12.16 12.16 0 0 1-.782.909l-1.307 1.398v.045h2.705v.625h-3.67z"/><use href="#F" y="142"/><path d="M170.468 746.344h-1.796v-5.818h1.875c.564 0 1.047.117 1.449.35s.709.563.923.997.321.949.321 1.551-.108 1.128-.324 1.565-.53.771-.943 1.006-.915.349-1.505.349zm-1.091-.625h1.045c.481 0 .88-.092 1.196-.278s.552-.45.707-.793.233-.751.233-1.224-.076-.874-.23-1.213-.382-.602-.687-.784-.685-.276-1.139-.276h-1.125v4.568zm6.784.716c-.421 0-.783-.093-1.088-.278s-.537-.449-.702-.784-.244-.729-.244-1.176.081-.841.244-1.182.394-.61.687-.801.641-.29 1.035-.29c.227 0 .451.038.673.114s.423.198.605.369.327.392.435.67.162.622.162 1.029v.284h-3.364v-.58h2.682c0-.246-.05-.466-.148-.659s-.235-.345-.415-.457-.388-.168-.63-.168a1.2 1.2 0 0 0-.694.199 1.31 1.31 0 0 0-.446.511 1.51 1.51 0 0 0-.156.677v.386c0 .329.057.609.171.838s.275.401.48.52a1.41 1.41 0 0 0 .713.176c.176 0 .335-.025.477-.074a1.02 1.02 0 0 0 .372-.227c.104-.102.185-.229.242-.381l.647.182c-.068.22-.182.413-.343.58s-.36.293-.597.386-.503.136-.798.136zm6.262-4.454l-1.614 4.363h-.682l-1.613-4.363h.727l1.205 3.477h.045l1.205-3.477h.727zm.885 4.363v-4.363h.67v4.363h-.67zm.341-5.091c-.131 0-.244-.044-.338-.133a.43.43 0 0 1-.14-.321.43.43 0 0 1 .14-.321c.094-.089.207-.134.338-.134a.47.47 0 0 1 .335.134c.095.089.142.196.142.321s-.047.232-.142.321-.205.133-.335.133zm3.33 5.182c-.409 0-.761-.096-1.057-.29a1.89 1.89 0 0 1-.682-.798c-.159-.339-.238-.726-.238-1.162 0-.443.081-.834.244-1.173s.394-.607.687-.798.641-.29 1.035-.29c.306 0 .583.057.829.17a1.59 1.59 0 0 1 .605.478 1.49 1.49 0 0 1 .293.716h-.671c-.051-.199-.164-.375-.341-.529s-.409-.233-.704-.233c-.261 0-.491.068-.688.205s-.347.325-.457.571-.162.531-.162.861c0 .337.053.63.159.88s.26.444.455.583.428.207.693.207a1.19 1.19 0 0 0 .474-.091c.142-.061.263-.148.361-.261a.99.99 0 0 0 .21-.409h.671c-.038.257-.132.489-.281.696s-.344.367-.589.488-.524.179-.846.179zm4.525 0c-.42 0-.783-.093-1.088-.278s-.537-.449-.701-.784-.245-.729-.245-1.176.082-.841.245-1.182a1.92 1.92 0 0 1 .687-.801c.296-.194.64-.29 1.034-.29.228 0 .452.038.674.114s.423.198.605.369.326.392.434.67.162.622.162 1.029v.284h-3.363v-.58h2.681c0-.246-.049-.466-.147-.659s-.235-.345-.415-.457a1.16 1.16 0 0 0-.631-.168 1.2 1.2 0 0 0-.693.199 1.31 1.31 0 0 0-.446.511 1.51 1.51 0 0 0-.156.677v.386c0 .329.057.609.17.838s.276.401.48.52.443.176.713.176c.177 0 .336-.025.478-.074a1.02 1.02 0 0 0 .613-.608l.648.182c-.068.22-.183.413-.344.58s-.36.293-.596.386-.503.136-.799.136zm7.418-.091v-5.818h3.511v.625h-2.806v1.966h2.625v.625h-2.625v1.977h2.852v.625h-3.557zm8.6-5.818h.704v3.852c0 .398-.094.753-.281 1.066s-.448.556-.787.736-.737.267-1.193.267-.854-.089-1.193-.267-.603-.426-.79-.736-.279-.668-.279-1.066v-3.852h.705v3.796c0 .284.062.537.187.758s.303.393.534.52.512.188.836.188.602-.063.835-.188.411-.3.534-.52.188-.474.188-.758v-3.796zm2.816 0v5.818h-.705v-5.818h.705zm6.071 2.597v.625h-2.545v-.625h2.545zm5.237 3.301c-.334 0-.634-.066-.901-.199s-.481-.314-.642-.545-.249-.495-.264-.79h.682a.93.93 0 0 0 .358.653c.214.171.469.256.767.256.238 0 .451-.056.636-.168s.334-.265.441-.46.161-.419.161-.668a1.36 1.36 0 0 0-.167-.679 1.24 1.24 0 0 0-.455-.474 1.29 1.29 0 0 0-.662-.176 1.81 1.81 0 0 0-.548.082c-.187.055-.342.126-.463.213l-.659-.079.352-2.864h3.023v.625h-2.432l-.204 1.716h.034c.119-.095.269-.173.448-.236a1.72 1.72 0 0 1 .563-.093c.356 0 .673.085.952.255s.5.4.659.693.241.629.241 1.006c0 .371-.083.703-.25.994a1.83 1.83 0 0 1-.682.688 1.94 1.94 0 0 1-.988.25zm2.912-1.273v-.579l2.557-4.046h.421v.898h-.284l-1.932 3.057v.045h3.443v.625h-4.205zm2.739 1.193v-1.369-.27-4.179h.671v5.818h-.671zm2.712 0l2.603-5.147v-.046h-3v-.625h3.727v.659l-2.591 5.159h-.739zm6.162.08c-.428 0-.793-.117-1.094-.35s-.531-.574-.69-1.019-.239-.987-.239-1.62.079-1.165.239-1.611.392-.787.693-1.022.666-.355 1.091-.355.787.118 1.088.355.534.576.693 1.022.241.982.241 1.611-.079 1.173-.238 1.62-.389.785-.691 1.019-.665.35-1.093.35zm0-.625c.424 0 .753-.205.988-.614s.353-.992.353-1.75c0-.504-.054-.932-.162-1.287s-.26-.624-.461-.809a1.01 1.01 0 0 0-.718-.279c-.421 0-.749.208-.986.622s-.355.998-.355 1.753c0 .504.053.932.159 1.284s.258.621.457.804.442.276.725.276zm5.147-5.273v5.818h-.704v-5.079h-.034l-1.421.943v-.716l1.455-.966h.704zm1.674 5.818v-.511l1.92-2.102.557-.642c.146-.184.254-.356.324-.517s.108-.334.108-.512a.94.94 0 0 0-.148-.531.96.96 0 0 0-.398-.347c-.168-.081-.358-.122-.568-.122-.223 0-.418.047-.585.139a.96.96 0 0 0-.384.384c-.089.165-.133.358-.133.58h-.671a1.69 1.69 0 0 1 .236-.898c.157-.258.371-.459.642-.602s.579-.216.918-.216.643.072.906.216.47.338.619.582.225.516.225.815c0 .214-.039.424-.117.628s-.208.429-.397.679a12.16 12.16 0 0 1-.782.909l-1.306 1.398v.045h2.704v.625h-3.67z"/><use href="#F" y="213"/></g><g class="D"><path d="M140.442 819.2v10.888a1.85 1.85 0 0 1-1.855 1.856h-7.764c-.979 0-1.855-.79-1.855-1.709v-11.181c0-.874.835-1.709 1.708-1.709h8.057a1.74 1.74 0 0 1 1.2.557c.281.332.508.709.508 1.299l.001-.001zm13.525 10.253v11.182c0 .874-.835 1.709-1.709 1.709h-8.056c-.883 0-1.709-.844-1.709-1.856V829.6a1.85 1.85 0 0 1 1.856-1.856h7.763c1.009 0 1.856.81 1.856 1.709h-.001zm-13.525 6.397v4.639a1.82 1.82 0 0 1-.146.733c-.268.594-.843 1.122-1.563 1.122h-8.056c-.874 0-1.709-.835-1.709-1.708v-4.932c0-.925.874-1.709 1.855-1.709h7.764a1.85 1.85 0 0 1 1.855 1.855h0zm13.525-16.797v4.932c0 .883-.843 1.709-1.855 1.709h-7.764a1.85 1.85 0 0 1-1.855-1.856V819.2c0-.544.225-.977.479-1.278.246-.292.792-.578 1.23-.578h8.056c.874 0 1.709.836 1.709 1.709h0z" fill="#b5b5b5"/><path d="M269.093 829.844c0-.493.402-1.025 1.074-1.025 1.291 0 1.291 2.051 0 2.051a1.01 1.01 0 0 1-.746-.279c-.147-.135-.328-.49-.328-.747zm-3.125.733v6.787c0 2.575 2.413 4.98 4.98 4.98h6.787c.764 0 1.504-.289 2.035-.553.448-.223 1.208-.748 1.488-1.1l.55-.719c.584-.897.859-1.896.859-3.096v-5.713c0-1.796-.646-3.063-1.55-3.968-.91-.91-2.163-1.55-3.968-1.55h-5.713c-1.766 0-2.595.464-3.788 1.388-.835.646-1.68 2.376-1.68 3.544h0zm12.5-12.256c0 1.68 1.666.751 4.157 1.654 3.451 1.251 5.887 4.305 6.199 8.01.066.791-.079 1.859 1.167 1.859.506 0 .977-.471.977-.976 0-1.854-.37-3.538-1.074-4.932a30.8 30.8 0 0 0-.472-.895c-1.732-3.188-5.761-5.697-9.44-5.697h-.537c-.506 0-.977.471-.977.977zm0 4.15c0 .613.329 1.032.841 1.113.643.102.729-.02 1.591.215.677.185 1.245.489 1.789.897.124.093.129.1.234.205.116.115.163.126.268.221.113.102.097.128.197.242.679.766 1.163 1.743 1.273 2.78.065.617-.08 1.7 1.18 1.7.536 0 .977-.481.977-1.123 0-1.925-.742-3.5-1.916-4.822-.1-.113-.106-.157-.219-.27-.106-.106-.137-.106-.243-.196-.3-.251-.287-.294-.747-.62-1.126-.797-2.645-1.318-4.2-1.318-.523 0-1.025.448-1.025.976h0z" fill="#fff"/><path d="M402.634 829.844c0-1.439.382-3.181.955-4.41.608-1.305 1.254-2.251 2.209-3.207l.674-.628a10.61 10.61 0 0 1 4.495-2.276c1.509-.368 3.328-.419 4.835-.042 1.447.362 2.576.801 3.781 1.636 4.401 3.05 5.997 8.874 3.59 13.684l-.508.951c-.084.137-.145.179-.187.334-.131-.035-.71-.587-.846-.716-.68-.647-1.988-1.448-2.834-1.854-2.559-1.229-5.522-1.497-8.352-.816-1.125.271-2.353.778-3.323 1.364l-.488.293c-.411.257-1.423 1.047-1.748 1.377-.137.138-.229.298-.43.352-.039-.147-.247-.434-.342-.595-.129-.217-.227-.44-.335-.655a10.58 10.58 0 0 1-.974-2.983c-.09-.531-.171-1.226-.171-1.809h-.001zm-1.666-.52c0 1.783.085 3.15.744 4.828l.2.53c.325.796.861 1.713 1.347 2.402a9.72 9.72 0 0 0 .637.822c1.069 1.226 2.231 2.22 3.687 2.98.08.042.147.086.234.13 1.425.712 3.393 1.328 5.078 1.328h1.041c2.254 0 4.179-.791 5.852-1.7.323-.176.636-.391.919-.591 1.084-.767 1.871-1.581 2.702-2.611l.326-.455c1.999-2.709 2.731-6.736 1.889-10.08-.223-.886-.451-1.476-.772-2.249-.617-1.485-1.752-2.852-2.855-3.968-.159-.16-.261-.215-.417-.364-.67-.638-1.952-1.383-2.782-1.801-1.151-.58-3.21-1.181-4.914-1.181-1.508 0-2.014.002-3.531.375-2.459.603-4.815 2.111-6.433 4.036-.254.303-.437.532-.661.849l-.595.915c-.969 1.597-1.696 3.97-1.696 5.804v.001zm7.5-3.855c0 .935.069 1.536.468 2.345.221.449.623 1.063.978 1.418l.629.516a4.45 4.45 0 0 0 .754.444c1.3.65 3.012.656 4.307.018 1.631-.805 2.864-2.418 2.864-4.324 0-1.304-.325-2.492-1.159-3.424a4.71 4.71 0 0 0-1.67-1.299c-1.301-.65-3.012-.656-4.307-.017-.449.221-1.063.623-1.418.978-.102.101-.144.188-.261.311s-.179.21-.278.348c-.501.693-.907 1.726-.907 2.686h0z" fill="#b5b5b5"/></g><g stroke="#fff"><path d="M107.968 554.094h330" class="B"/><g class="E F"><use href="#G"/><use href="#H" class="C"/><use href="#I"/><use href="#J"/><use href="#K"/><use href="#L"/><use href="#M"/><use href="#N"/><use href="#O"/><use href="#P"/><use href="#Q"/><use href="#R"/><use href="#S"/><use href="#T"/><use href="#U"/><use href="#V"/><use href="#W"/><use href="#X"/><use href="#Y"/><path d="M132.155 607.067v1.106"/><use href="#Z"/><use href="#Z" x="0.29"/><use href="#Z" x="0.58"/><use href="#Z" x="0.869"/><use href="#Z" x="1.159"/><use href="#Z" x="1.449"/><use href="#Z" x="1.738"/><use href="#a"/></g><path d="M107.968 625.094h330" class="B"/><g class="E F"><use href="#G" y="71"/><use href="#H" y="71" class="C"/><use href="#I" y="71"/><use href="#J" y="71"/><use href="#K" y="71"/><use href="#L" y="71"/><use href="#M" y="71"/><use href="#N" y="71"/><use href="#O" y="71"/><use href="#P" y="71"/><use href="#Q" y="71"/><use href="#R" y="71"/><use href="#S" y="71"/><use href="#T" y="71"/><use href="#U" y="71"/><use href="#V" y="71"/><use href="#W" y="71"/><use href="#X" y="71"/><use href="#Y" y="71"/><path d="M132.155 678.067v1.106"/><use href="#b"/><use href="#b" x="0.29"/><use href="#b" x="0.58"/><use href="#b" x="0.869"/><use href="#b" x="1.159"/><use href="#b" x="1.449"/><use href="#b" x="1.738"/><use href="#a" y="71"/></g><path d="M107.968 696.094h330" class="B"/><g class="E F"><use href="#G" y="-71"/><use href="#H" y="-71" class="C"/><use href="#I" y="-71"/><use href="#J" y="-71"/><use href="#K" y="-71"/><use href="#L" y="-71"/><use href="#M" y="-71"/><use href="#N" y="-71"/><use href="#O" y="-71"/><use href="#P" y="-71"/><use href="#Q" y="-71"/><use href="#R" y="-71"/><use href="#S" y="-71"/><use href="#T" y="-71"/><use href="#U" y="-71"/><use href="#V" y="-71"/><use href="#W" y="-71"/><use href="#X" y="-71"/><use href="#Y" y="-71"/><path d="M132.155 536.067v1.106"/><use href="#c"/><use href="#c" x="0.29"/><use href="#c" x="0.58"/><use href="#c" x="0.869"/><use href="#c" x="1.159"/><use href="#c" x="1.449"/><use href="#c" x="1.738"/><use href="#a" y="-71"/><path d="M261.467 260.945h29.665c.78 0 1.418.638 1.418 1.418v61.102l-3.39 10.363c-.189.385-.598.573-1.17.615l-.501.263-10.763.047-11.238-.042c-.141-.074-.118-.133-.275-.146-.948-.08-1.367-.371-1.494-.761l-3.671-10.445v-11.641-49.355c0-.78.638-1.419 1.419-1.419v.001z"/><path d="M262.313 260.945l5.775 2.915 16.628.015 5.774-2.93-4.868 3.686s-.755.726-1.791.658h-14.428s-1.202.219-2.29-.817l-4.8-3.527z" class="C"/><path d="M265.975 266.725l21.153.005 4.904-5.462m-27.353 6.439c0-.181-4.631-4.867-4.631-4.867"/><path d="M266.049 266.799l-5.508-5.508m27.829 6.416c0-.181 4.18-4.867 4.18-4.867"/><path d="M264.671 323.465v-55.53s-.227-1.21 1.421-1.21m22.265 56.74v-55.53s.227-1.21-1.42-1.21"/><path d="M260.048 311.878l4.623 11.352s.031.529 1.709.672 20.467 0 20.467 0 1.338.015 1.648-.816l3.983-11.262v.423l-3.87 10.956s-.114.91-1.3.978-20.482.072-20.482.072-2.158.211-2.37-1.051l-4.408-11.213m5.256 22.595l4.375-6.862c.128-.239.373-.491.58-.656.56-.444 1.252-.635 1.965-.644h8.308a3.37 3.37 0 0 1 .977.101c.717.178 1.34.566 1.803 1.145l.011.013 4.434 6.884m-6.745 1.516h-.07m-8.953-.007h-.103m-6.284-1.362l4.355-6.829s.574-1.118 2.267-1.141h8.322s1.511-.129 2.517 1.126l4.403 6.838m-6.217 1.055h-.013m-9.567-.008h-.04"/><path d="M264.671 323.465l-.991 10.23m2.46-9.43l-.779 10.354m22.996-11.287l.925 10.124m-2.136-9.268l.81 10.273m-11.421-16.174a.971.971 0 1 0 0-1.943.971.971 0 1 0 0 1.943z"/><path d="M265.975 266.725l.153 57.528m21.061-57.461l-.043 57.396m-14.872 10.542h-.843v.578c.133.392.369.739.783 1.025.198 1.235 1.03 2.109 4.228 2.164 3.156.055 4.008-.863 4.22-2.103.615-.434.842-1.015.918-1.664h-.969-8.337z"/><path d="M274.493 334.746v2.224"/><use href="#d"/><use href="#d" x="0.582"/><use href="#d" x="1.164"/><use href="#d" x="1.746"/><use href="#d" x="2.328"/><use href="#d" x="2.91"/><use href="#d" x="3.492"/><path d="M281.628 334.732c-.196 1.333-1.141 2.348-5.188 2.291-4.037-.057-4.987-.989-5.186-2.29"/></g></g><g fill="#fff"><path d="M173.161 720.344a3.62 3.62 0 0 0-.433-.899c-.175-.269-.386-.498-.631-.687a2.66 2.66 0 0 0-.825-.432 3.28 3.28 0 0 0-1.015-.149c-.603 0-1.151.156-1.645.467s-.887.771-1.179 1.377-.437 1.351-.437 2.232.147 1.626.442 2.233.695 1.065 1.199 1.377 1.07.467 1.7.467c.583 0 1.097-.124 1.541-.373s.795-.606 1.044-1.064.378-1.002.378-1.625l.378.079h-3.063v-1.094h3.878v1.094c0 .839-.179 1.568-.537 2.188s-.845 1.1-1.471 1.441-1.339.508-2.148.508c-.902 0-1.694-.213-2.377-.637s-1.209-1.027-1.59-1.809-.567-1.711-.567-2.785c0-.805.107-1.529.323-2.172s.527-1.197.925-1.651.868-.802 1.412-1.044 1.141-.363 1.794-.363c.537 0 1.038.082 1.502.244s.883.386 1.248.681.674.641.919 1.049.415.854.507 1.347h-1.272zm5.532 7.179c-.484 0-.923-.091-1.318-.273s-.707-.453-.939-.801-.348-.775-.348-1.272c0-.438.086-.792.258-1.064s.403-.491.691-.646.607-.272.955-.348l1.059-.189 1.128-.135c.292-.033.504-.087.637-.164s.204-.209.204-.397v-.04c0-.491-.135-.872-.403-1.144s-.668-.407-1.208-.407c-.56 0-1 .122-1.318.368s-.542.507-.671.785l-1.114-.398c.199-.464.465-.825.796-1.083s.699-.445 1.094-.547a4.54 4.54 0 0 1 1.173-.159c.245 0 .527.029.845.089s.632.174.93.353.552.449.751.81.298.846.298 1.452v5.031h-1.173v-1.034h-.06c-.08.166-.212.343-.398.532a2.27 2.27 0 0 1-.741.482c-.308.133-.684.199-1.128.199zm.179-1.054c.464 0 .855-.091 1.173-.273s.564-.418.726-.706.249-.592.249-.91v-1.074c-.05.06-.16.115-.329.164s-.358.088-.576.125l-.632.089-.492.06c-.305.04-.59.104-.855.194s-.474.217-.636.392-.239.408-.239.706c0 .408.151.716.452.925s.691.308 1.159.308zm8.783-6.761v.994h-3.957v-.994h3.957zm-2.804-1.83h1.174v7.279c0 .331.048.58.144.746s.225.271.378.328.32.079.492.079c.129 0 .235-.006.318-.02l.199-.039.239 1.054c-.08.029-.191.059-.334.089s-.323.05-.541.05c-.332 0-.657-.071-.975-.214s-.577-.36-.785-.651-.309-.66-.309-1.104v-7.597zm7.689 9.625c-.736 0-1.371-.162-1.904-.487s-.94-.785-1.228-1.372-.428-1.276-.428-2.058.143-1.472.428-2.068.689-1.068 1.203-1.402 1.12-.507 1.81-.507c.397 0 .79.066 1.178.198s.741.348 1.059.647.572.686.761 1.173.283 1.087.283 1.8v.497h-5.886v-1.014h4.693c0-.431-.086-.816-.259-1.154s-.411-.605-.726-.8-.679-.293-1.103-.293c-.468 0-.872.116-1.213.348s-.599.527-.781.894-.273.763-.273 1.184v.676c0 .577.099 1.065.298 1.466a2.15 2.15 0 0 0 .84.91c.358.206.774.308 1.248.308a2.54 2.54 0 0 0 .835-.129c.252-.089.469-.222.651-.398s.324-.401.423-.666l1.134.318a2.52 2.52 0 0 1-.602 1.015 2.95 2.95 0 0 1-1.044.676c-.414.159-.88.238-1.397.238zm6.677-.159l-2.327-7.636h1.233l1.651 5.847h.079l1.631-5.847h1.253l1.611 5.827h.079l1.651-5.827h1.233l-2.327 7.636h-1.154l-1.67-5.866h-.119l-1.671 5.866h-1.153zm11.892.179c-.484 0-.923-.091-1.318-.273s-.707-.453-.939-.801-.348-.775-.348-1.272c0-.438.086-.792.258-1.064s.403-.491.691-.646.607-.272.955-.348l1.059-.189 1.128-.135c.292-.033.504-.087.637-.164s.204-.209.204-.397v-.04c0-.491-.135-.872-.403-1.144s-.668-.407-1.208-.407c-.56 0-1 .122-1.318.368s-.542.507-.671.785l-1.113-.398c.198-.464.464-.825.795-1.083s.699-.445 1.094-.547a4.54 4.54 0 0 1 1.173-.159c.245 0 .527.029.845.089s.632.174.93.353.552.449.751.81.298.846.298 1.452v5.031h-1.173v-1.034h-.06c-.08.166-.212.343-.398.532a2.27 2.27 0 0 1-.741.482c-.308.133-.684.199-1.128.199zm.179-1.054c.464 0 .855-.091 1.173-.273s.564-.418.726-.706.249-.592.249-.91v-1.074c-.05.06-.16.115-.329.164s-.358.088-.576.125l-.632.089-.492.06c-.305.04-.59.104-.855.194s-.474.217-.636.392-.239.408-.239.706c0 .408.151.716.452.925s.692.308 1.159.308zm5.945 3.739c-.199 0-.377-.017-.532-.05s-.264-.059-.323-.089l.298-1.034a2.25 2.25 0 0 0 .755.079c.219-.02.413-.117.582-.293s.33-.452.472-.84l.219-.597-2.824-7.676h1.273l2.108 6.085h.08l2.108-6.085h1.272l-3.241 8.75c-.146.394-.327.721-.542.979s-.466.456-.751.582-.6.189-.954.189zm10.974-2.864v-7.636h1.134v1.153h.079c.14-.377.392-.684.756-.919a2.22 2.22 0 0 1 1.233-.353l.323.005.294.015v1.193c-.04-.01-.131-.025-.274-.045a2.71 2.71 0 0 0-.442-.035c-.372 0-.703.078-.995.234a1.76 1.76 0 0 0-.686.636c-.165.269-.248.575-.248.92v4.832h-1.174zm8.079.159c-.689 0-1.294-.164-1.814-.492s-.922-.787-1.213-1.377-.433-1.279-.433-2.068c0-.796.144-1.49.433-2.083s.696-1.054 1.213-1.382 1.125-.492 1.814-.492 1.293.164 1.81.492.925.789 1.213 1.382.437 1.287.437 2.083c0 .789-.145 1.478-.437 2.068s-.693 1.049-1.213 1.377-1.12.492-1.81.492zm0-1.054c.524 0 .955-.134 1.293-.402s.588-.622.751-1.059.243-.912.243-1.422-.081-.986-.243-1.427a2.41 2.41 0 0 0-.751-1.069c-.338-.272-.769-.407-1.293-.407s-.954.135-1.292.407-.589.628-.751 1.069-.244.917-.244 1.427.082.984.244 1.422.413.79.751 1.059.769.402 1.292.402zm8.354 1.054c-.69 0-1.295-.164-1.815-.492s-.921-.787-1.213-1.377-.432-1.279-.432-2.068c0-.796.144-1.49.432-2.083a3.34 3.34 0 0 1 1.213-1.382c.52-.328 1.125-.492 1.815-.492s1.292.164 1.809.492.925.789 1.213 1.382.438 1.287.438 2.083c0 .789-.146 1.478-.438 2.068s-.692 1.049-1.213 1.377-1.12.492-1.809.492zm0-1.054c.523 0 .954-.134 1.292-.402s.589-.622.751-1.059.244-.912.244-1.422-.082-.986-.244-1.427-.413-.797-.751-1.069-.769-.407-1.292-.407-.955.135-1.293.407a2.41 2.41 0 0 0-.751 1.069c-.162.441-.243.917-.243 1.427s.081.984.243 1.422.413.79.751 1.059.769.402 1.293.402zm8.652-6.741v.994h-4.117v-.994h4.117zm-2.884 7.636v-8.69c0-.437.103-.802.308-1.094a1.92 1.92 0 0 1 .801-.656c.328-.146.674-.219 1.039-.219.288 0 .523.023.706.07a2.65 2.65 0 0 1 .407.129l-.338 1.014-.248-.074c-.103-.03-.239-.045-.408-.045-.388 0-.668.098-.84.293s-.254.483-.254.86v8.412h-1.173zm7.849-7.636v.994H254.3v-.994h3.957zm-2.804-1.83h1.173v7.279c0 .331.048.58.144.746s.226.271.378.328a1.52 1.52 0 0 0 .492.079c.13 0 .236-.006.319-.02l.199-.039.238 1.054a2.5 2.5 0 0 1-.333.089c-.142.033-.323.05-.542.05-.331 0-.656-.071-.974-.214s-.577-.36-.786-.651-.308-.66-.308-1.104v-7.597zm7.589 9.625c-.689 0-1.294-.164-1.815-.492s-.921-.787-1.213-1.377-.432-1.279-.432-2.068c0-.796.144-1.49.432-2.083a3.34 3.34 0 0 1 1.213-1.382c.521-.328 1.126-.492 1.815-.492s1.293.164 1.81.492.924.789 1.213 1.382.437 1.287.437 2.083c0 .789-.146 1.478-.437 2.068s-.693 1.049-1.213 1.377-1.121.492-1.81.492zm0-1.054c.524 0 .955-.134 1.293-.402s.588-.622.75-1.059.244-.912.244-1.422-.081-.986-.244-1.427a2.4 2.4 0 0 0-.75-1.069c-.338-.272-.769-.407-1.293-.407s-.954.135-1.293.407a2.4 2.4 0 0 0-.75 1.069c-.163.441-.244.917-.244 1.427s.081.984.244 1.422.412.79.75 1.059.769.402 1.293.402zm5.251 3.759v-10.5h1.134v1.213h.139l.358-.507c.156-.209.378-.394.666-.557s.686-.248 1.183-.248c.643 0 1.21.16 1.701.482s.873.777 1.148 1.367.413 1.286.413 2.088c0 .809-.138 1.51-.413 2.103s-.656 1.047-1.143 1.372-1.049.482-1.686.482c-.49 0-.883-.081-1.178-.243s-.522-.353-.681-.562l-.368-.527h-.099v4.037h-1.174zm1.154-6.682c0 .577.084 1.086.253 1.526s.416.781.741 1.03.723.367 1.193.367c.491 0 .9-.129 1.228-.387s.58-.613.746-1.054.254-.938.254-1.482c0-.537-.083-1.021-.249-1.452s-.409-.777-.741-1.029-.741-.382-1.238-.382c-.477 0-.878.121-1.203.362s-.57.574-.736 1.005-.248.926-.248 1.496z"/><path d="M143.845 731.966l-1.074 1.263c-.187.214.001.568.268.568.254 0 .861-.835 1.049-1.036.928-.99 1.872-2.926 2.294-4.226.495-1.521.587-2.832.587-4.42 0-.944-.162-1.991-.421-2.897l-.361-1.168c-.152-.423-.34-.829-.537-1.232a13.78 13.78 0 0 0-1.261-2.054l-1.129-1.315-.006-.003c-.412-.274-.722.199-.468.483 1.575 1.748 2.572 3.351 3.142 5.672.712 2.899.325 5.641-.851 8.352-.082.19-.201.358-.292.543l-.012.024-.93 1.449.002-.003zm-22.878-6.752c.1 1.757.545 3.533 1.318 5.108.496 1.009 1.222 2.139 2.004 2.938.119.122.219.303.35.404.154.12.359.182.507.017.046-.051.103-.124.101-.196-.001-.161-.214-.43-.315-.553l-.856-.985a8.94 8.94 0 0 1-.661-.976c-2.36-3.989-2.371-8.858.03-12.83l.006-.01.636-.954.014-.018a9 9 0 0 1 .384-.445c.161-.178.751-.8.755-1.02a.37.37 0 0 0-.343-.35c-.212 0-.503.416-.643.57l-.752.91c-1.048 1.424-1.643 2.731-2.127 4.434a11.38 11.38 0 0 0-.408 2.47v1.487-.001zm20.993-.671c0-.313-.038-.65-.084-.96-.219-1.482-.644-2.552-1.527-3.754-.159-.216-.477-.62-.685-.777-.322-.211-.663.13-.469.451.13.215.342.387.498.583 1.477 1.859 1.981 4.372 1.231 6.65-.194.587-.431 1.115-.749 1.644-.081.135-.175.259-.269.385-.065.088-.134.175-.205.258l-.342.403c-.057.069-.133.149-.176.227-.123.223.007.497.269.497.067 0 .133-.007.192-.041.168-.096.396-.409.538-.561.325-.353.779-1.117.978-1.564.501-1.13.797-2.19.797-3.44l.003-.001zm-15.295 0c0-1.286.314-2.485.982-3.581.216-.353.463-.683.725-1 .117-.143.294-.316.381-.475.123-.223-.007-.497-.268-.497-.243 0-.293.145-.436.304-.938 1.043-1.492 2.057-1.833 3.431-.232.935-.296 1.875-.155 2.831.089.596.207 1.149.408 1.717.18.508.441.969.695 1.439.243.448.621.794.929 1.194.413.533.861.08.649-.271-.13-.215-.342-.386-.498-.582a7.27 7.27 0 0 1-1.579-4.511v.001zm6.99 2.71v11.919c0 .173.142.317.313.317s.312-.144.312-.317v-11.919h.47l.006-.001c.568-.153 1.086-.569 1.433-1.043 1.308-1.781.022-4.429-2.169-4.429-1.411 0-2.617.993-2.773 2.443-.078.729.064 1.394.498 1.986.347.474.865.89 1.433 1.043l.006.001h.47.001zm.366-4.773c1.113 0 2.051.998 2.02 2.127-.03 1.11-.912 2.055-2.02 2.055-1.21 0-2.135-.88-2.113-2.128.003-.197.032-.395.088-.585.273-.942 1.079-1.469 2.026-1.469h-.001z" class="D"/><circle cx="25.219" cy="318.168" r="24.439" stroke="url(#B)"/><circle cx="24.939" cy="24.939" r="24.439" transform="matrix(-1 0 0 1 555.202 59.8948)" stroke="url(#C)"/></g><path d="M24.2217 343.107V521.564H118.682" stroke="url(#D)"/><path d="M531.261 109.772V292.721H419.968" stroke="url(#E)"/><path d="M23.073 315.984v3.37c0 1.614-.161 2.992-.482 4.135-.311 1.132-.765 2.053-1.359 2.761a5.33 5.33 0 0 1-2.138 1.557c-.821.331-1.742.496-2.761.496a7.91 7.91 0 0 1-2.266-.312c-.689-.207-1.312-.533-1.869-.977s-1.034-1.014-1.43-1.713c-.387-.708-.689-1.553-.906-2.535-.208-.981-.312-2.119-.312-3.412v-3.37c0-1.624.16-2.993.481-4.107.321-1.123.779-2.034 1.374-2.733a5.23 5.23 0 0 1 2.124-1.543c.831-.321 1.756-.482 2.775-.482.821 0 1.576.104 2.266.312a5.29 5.29 0 0 1 1.869.949c.557.434 1.029 1 1.416 1.699.396.689.698 1.524.906 2.506.208.973.312 2.105.312 3.399zm-3.413 3.851v-4.361c0-.821-.047-1.544-.142-2.167-.094-.632-.236-1.165-.425-1.6-.179-.443-.406-.802-.68-1.076a2.4 2.4 0 0 0-.935-.609c-.349-.132-.741-.198-1.175-.198a3.13 3.13 0 0 0-1.416.311c-.415.199-.765.52-1.048.963s-.5 1.029-.651 1.756c-.142.718-.212 1.591-.212 2.62v4.361c0 .831.047 1.563.142 2.195s.236 1.175.425 1.628c.189.444.415.812.68 1.105a2.54 2.54 0 0 0 .934.623 3.38 3.38 0 0 0 1.175.198c.538 0 1.015-.104 1.43-.311s.765-.538 1.048-.992c.283-.462.496-1.062.637-1.798s.212-1.619.212-2.648zm20.277 5.466v2.719h-13.82v-2.337l6.712-7.32 1.742-2.153c.425-.604.722-1.147.892-1.628.179-.491.269-.968.269-1.43 0-.652-.123-1.223-.368-1.714a2.69 2.69 0 0 0-1.048-1.175c-.462-.293-1.024-.439-1.685-.439-.765 0-1.407.165-1.926.496a3.1 3.1 0 0 0-1.175 1.373c-.264.576-.397 1.237-.397 1.983H25.72a6.69 6.69 0 0 1 .821-3.286c.547-1 1.34-1.793 2.379-2.379 1.038-.594 2.289-.892 3.752-.892 1.378 0 2.549.232 3.512.694s1.695 1.119 2.195 1.968c.51.85.765 1.855.765 3.017a6.08 6.08 0 0 1-.312 1.911c-.208.632-.505 1.265-.892 1.898-.378.623-.826 1.251-1.345 1.883l-1.713 1.897-4.46 4.914h9.516zM528.36 82.827v3.37c0 1.614-.161 2.992-.482 4.135-.311 1.133-.764 2.053-1.359 2.761a5.34 5.34 0 0 1-2.138 1.558c-.821.33-1.742.496-2.761.496-.812 0-1.567-.104-2.266-.311-.689-.208-1.312-.533-1.869-.977s-1.034-1.015-1.43-1.713c-.387-.708-.689-1.553-.907-2.535-.207-.982-.311-2.119-.311-3.413v-3.37c0-1.624.16-2.992.481-4.106.321-1.123.779-2.034 1.374-2.733.595-.708 1.303-1.222 2.124-1.543.831-.321 1.756-.482 2.775-.482.822 0 1.577.104 2.266.312.699.198 1.322.515 1.869.949.557.434 1.029 1.001 1.416 1.699.397.689.699 1.525.906 2.506.208.972.312 2.105.312 3.398zm-3.413 3.852v-4.361c0-.821-.047-1.543-.141-2.166-.095-.632-.236-1.166-.425-1.6-.18-.444-.406-.802-.68-1.076a2.4 2.4 0 0 0-.934-.609c-.35-.132-.741-.198-1.176-.198-.528 0-1 .104-1.416.312-.415.198-.764.519-1.048.963s-.5 1.029-.651 1.756c-.142.718-.212 1.591-.212 2.62v4.361c0 .831.047 1.562.141 2.195s.236 1.175.425 1.628c.189.444.415.812.68 1.105.274.283.585.491.934.623.359.132.751.198 1.176.198.538 0 1.014-.104 1.43-.311s.764-.538 1.048-.991c.283-.463.495-1.062.637-1.798s.212-1.619.212-2.648zm15.775-12.504v20.688h-3.413V78.225l-5.055 1.713V77.12l8.057-2.945h.411z" fill="#1e1e1e"/><g stroke="#c7c7c7" class="B"><circle cx="274.493" cy="299.658" r="72.506"/><circle cx="276.441" cy="301.582" r="117.85"/><circle cx="274.607" cy="301.582" r="145.111"/></g><defs><linearGradient id="A" x1="277.968" y1=".412" x2="277.968" y2="875.344" href="#e"><stop stop-color="#ff5f9b"/><stop offset="1" stop-color="#2f67ff"/></linearGradient><linearGradient id="B" x1="25.219" y1="293.229" x2="25.219" y2="343.107" href="#e"><stop stop-color="#ff5f9b"/><stop offset="1" stop-color="#2f67ff"/></linearGradient><linearGradient id="C" x1="24.939" y1="0" x2="24.939" y2="49.878" href="#e"><stop stop-color="#ff5f9b"/><stop offset="1" stop-color="#2f67ff"/></linearGradient><linearGradient id="D" x1="73.341" y1="533.55" x2="49.51" y2="341.534" href="#e"><stop stop-color="#ff5f9b"/><stop offset="1" stop-color="#2f67ff"/></linearGradient><linearGradient id="E" x1="473.388" y1="305.008" x2="494.724" y2="107.433" href="#e"><stop stop-color="#ff5f9b"/><stop offset="1" stop-color="#2f67ff"/></linearGradient><path id="F" d="M409.872 521.069l7.891-8.32c.268-.27.569-.405.901-.405s.634.135.902.405a1.36 1.36 0 0 1 .402.96c0 .357-.134.678-.402.96l-8.774 9.271a1.22 1.22 0 0 1-.92.404 1.22 1.22 0 0 1-.919-.404l-3.602-3.797c-.255-.283-.383-.603-.383-.961a1.36 1.36 0 0 1 .402-.96c.268-.269.571-.404.91-.404s.643.135.911.404l2.681 2.847z"/><path id="G" d="M125.674 570.344h14.76a.71.71 0 0 1 .706.706v30.403l-1.687 5.157c-.094.191-.297.285-.582.306l-.249.131-5.355.023-5.592-.021c-.071-.036-.059-.066-.137-.072-.472-.04-.68-.185-.744-.379l-1.826-5.197v-5.792-24.559a.71.71 0 0 1 .706-.706h0z"/><path id="H" d="M126.095 570.344l2.873 1.451 8.274.008 2.873-1.459-2.422 1.835s-.376.361-.891.327h-7.18s-.598.109-1.139-.406l-2.388-1.756z"/><path id="I" d="M127.917 573.221l10.525.002 2.44-2.717"/><path id="J" d="M127.272 573.709c0-.09-2.304-2.422-2.304-2.422"/><path id="K" d="M127.954 573.258l-2.741-2.741"/><path id="L" d="M139.06 573.709c0-.09 2.08-2.422 2.08-2.422"/><path id="M" d="M127.268 601.453v-27.63s-.113-.603.707-.603"/><path id="N" d="M139.054 601.453v-27.63s.113-.603-.707-.603"/><path id="O" d="M124.968 595.688l2.3 5.648s.015.264.85.335 10.184 0 10.184 0 .666.008.82-.406l1.982-5.604v.211l-1.925 5.451s-.057.453-.647.487-10.192.036-10.192.036-1.073.105-1.179-.523l-2.193-5.58"/><path id="P" d="M127.583 606.986l2.177-3.414c.064-.119.185-.245.289-.326.279-.222.623-.317.978-.321h4.133c.151-.012.343.015.486.05.357.089.667.282.898.57l.005.006 2.206 3.426m-3.356.754h-.035m-4.455-.004h-.051"/><path id="Q" d="M127.731 607.05l2.167-3.398s.286-.557 1.128-.568h4.141s.752-.064 1.252.56l2.192 3.403m-3.094.525h-.007m-4.76-.004h-.02"/><path id="R" d="M127.268 601.453l-.493 5.091"/><path id="S" d="M127.999 601.852l-.388 5.152"/><path id="T" d="M139.054 601.387l.46 5.038"/><path id="U" d="M138.451 601.813l.403 5.112"/><path id="V" d="M133.172 598.877c.267 0 .483-.217.483-.483s-.216-.484-.483-.484-.484.217-.484.484.217.483.484.483z"/><path id="W" d="M127.917 573.221l.076 28.625"/><path id="X" d="M138.472 573.254l-.021 28.559"/><path id="Y" d="M131.051 607.059h-.419v.287c.066.195.184.368.389.51.099.615.513 1.05 2.104 1.077 1.571.027 1.994-.43 2.1-1.046.306-.216.419-.505.457-.828h-.483-4.148z"/><path id="Z" d="M132.403 607.061V608.2"/><path id="a" d="M135.706 607.06c-.098.663-.568 1.168-2.582 1.14-2.009-.029-2.481-.492-2.581-1.14"/><path id="b" d="M132.403 678.061V679.2"/><path id="c" d="M132.403 536.061V537.2"/><path id="d" d="M274.992 334.734v2.29"/><linearGradient id="e" gradientUnits="userSpaceOnUse"/></defs></svg>