<svg xmlns="http://www.w3.org/2000/svg" width="879" height="284" fill="none" xmlns:v="https://vecta.io/nano"><g fill="#fff" stroke-width=".7"><rect x="3.307" y="1.012" width="250.756" height="69.071" rx="13.65" stroke="url(#A)"/><rect x="351.469" y="1.012" width="192.615" height="69.071" rx="13.65" stroke="url(#B)"/><rect x="748.338" y="1.012" width="129.05" height="69.071" rx="13.65" stroke="url(#C)"/></g><path d="M90.968 26.844h2.898v10.453c0 1.146-.271 2.154-.812 3.023-.536.87-1.292 1.549-2.266 2.039-.974.484-2.112.727-3.414.727-1.307 0-2.448-.242-3.422-.727-.974-.49-1.729-1.169-2.266-2.039s-.805-1.878-.805-3.023V26.844h2.898v10.211c0 .667.146 1.261.438 1.781a3.18 3.18 0 0 0 1.25 1.227c.536.292 1.172.438 1.906.438s1.37-.146 1.906-.437c.542-.297.958-.706 1.25-1.227s.438-1.115.438-1.781V26.844zm5.924 20.5v-16.5h2.781v1.984h.164a5.18 5.18 0 0 1 .617-.93c.266-.333.625-.617 1.078-.852.453-.24 1.031-.359 1.735-.359.927 0 1.763.237 2.507.711.75.469 1.344 1.164 1.782 2.086.442.917.664 2.042.664 3.375 0 1.318-.216 2.438-.649 3.359s-1.021 1.625-1.765 2.109-1.589.727-2.532.727c-.687 0-1.257-.114-1.711-.344s-.817-.505-1.093-.828c-.271-.328-.482-.638-.633-.93h-.117v6.391h-2.828zm2.773-10.5c0 .776.109 1.456.328 2.039s.544 1.039.961 1.367c.422.323.932.484 1.531.484.625 0 1.149-.167 1.571-.5.422-.338.739-.799.953-1.383.219-.589.328-1.258.328-2.008 0-.745-.107-1.406-.32-1.984s-.532-1.031-.954-1.359-.947-.492-1.578-.492c-.604 0-1.117.159-1.539.477s-.742.763-.961 1.336-.32 1.247-.32 2.023zm13.805-10v16h-2.828v-16h2.828zm2.908 16v-12h2.828v12h-2.828zM117.8 29.14c-.448 0-.834-.148-1.156-.445-.323-.302-.485-.664-.485-1.086a1.42 1.42 0 0 1 .485-1.086 1.63 1.63 0 0 1 1.156-.453c.453 0 .838.151 1.156.453.323.297.484.659.484 1.086 0 .422-.161.784-.484 1.086-.318.297-.703.445-1.156.445zm7.142 6.672v7.031h-2.828v-12h2.703v2.039h.141a3.43 3.43 0 0 1 1.32-1.602c.61-.396 1.362-.594 2.258-.594.828 0 1.55.177 2.164.531a3.58 3.58 0 0 1 1.438 1.539c.343.672.513 1.487.508 2.445v7.641h-2.829V35.64c0-.802-.208-1.43-.625-1.883-.411-.453-.981-.68-1.711-.68a2.63 2.63 0 0 0-1.32.328 2.27 2.27 0 0 0-.898.93c-.214.406-.321.898-.321 1.477zm13.157 3.266l-.008-3.414h.453l4.312-4.82h3.305l-5.305 5.906h-.585l-2.172 2.328zm-2.578 3.766v-16h2.828v16h-2.828zm7.531 0l-3.906-5.461 1.906-1.992 5.383 7.453h-3.383z" fill="url(#D)"/><path d="M403.768 43.007v-16h6c1.229 0 2.26.213 3.093.641.839.427 1.472 1.026 1.899 1.797.432.766.648 1.659.648 2.68 0 1.026-.219 1.917-.656 2.672-.432.75-1.07 1.331-1.914 1.742-.844.406-1.88.609-3.109.609h-4.274v-2.406h3.883c.719 0 1.307-.099 1.766-.297.458-.203.796-.497 1.015-.883.224-.391.336-.87.336-1.437s-.112-1.052-.336-1.453c-.224-.406-.565-.713-1.023-.922-.459-.214-1.05-.32-1.774-.32h-2.656v13.578h-2.898zm8.265-7.25l3.961 7.25h-3.234l-3.891-7.25h3.164zm11.059 7.484c-1.203 0-2.242-.25-3.117-.75a5.08 5.08 0 0 1-2.008-2.141c-.469-.927-.703-2.018-.703-3.273 0-1.234.234-2.318.703-3.25.474-.937 1.135-1.667 1.984-2.187.849-.526 1.847-.789 2.992-.789.74 0 1.438.12 2.094.359.662.234 1.245.599 1.75 1.094.511.495.912 1.125 1.203 1.891.292.76.438 1.667.438 2.719v.867h-9.836v-1.906h7.125c-.005-.542-.123-1.023-.352-1.445a2.55 2.55 0 0 0-.961-1.008c-.406-.245-.88-.367-1.422-.367-.578 0-1.086.141-1.523.422-.438.276-.779.641-1.023 1.094-.24.448-.362.94-.368 1.477v1.664c0 .698.128 1.297.383 1.797a2.73 2.73 0 0 0 1.07 1.141c.459.26.995.391 1.61.391.411 0 .784-.057 1.117-.172.333-.12.622-.294.867-.523s.43-.513.555-.852l2.641.297a4.12 4.12 0 0 1-.954 1.828c-.463.516-1.057.917-1.781 1.203-.724.281-1.552.422-2.484.422zm12.963 0c-1.198 0-2.227-.263-3.086-.789s-1.513-1.253-1.977-2.18c-.458-.932-.687-2.005-.687-3.219 0-1.219.234-2.294.703-3.227.469-.937 1.13-1.667 1.984-2.187.86-.526 1.875-.789 3.047-.789.974 0 1.836.18 2.586.539a4.42 4.42 0 0 1 1.805 1.508c.448.646.703 1.401.765 2.266h-2.703c-.109-.578-.37-1.06-.781-1.445-.406-.391-.951-.586-1.633-.586a2.55 2.55 0 0 0-1.523.469c-.438.307-.779.75-1.024 1.328-.239.578-.359 1.271-.359 2.078 0 .818.12 1.521.359 2.109.24.583.576 1.034 1.008 1.352a2.58 2.58 0 0 0 1.539.469c.417 0 .789-.078 1.117-.234a2.24 2.24 0 0 0 .836-.695c.224-.302.378-.669.461-1.102h2.703c-.067.849-.317 1.602-.75 2.258-.432.651-1.021 1.162-1.765 1.531-.745.365-1.62.547-2.625.547zm12.775 0c-1.203 0-2.242-.25-3.117-.75a5.08 5.08 0 0 1-2.008-2.141c-.469-.927-.703-2.018-.703-3.273 0-1.234.234-2.318.703-3.25.474-.937 1.135-1.667 1.984-2.187.849-.526 1.847-.789 2.993-.789.739 0 1.437.12 2.093.359.662.234 1.245.599 1.75 1.094.511.495.912 1.125 1.204 1.891.291.76.437 1.667.437 2.719v.867h-9.836v-1.906h7.125c-.005-.542-.122-1.023-.351-1.445-.23-.427-.55-.763-.961-1.008s-.881-.367-1.422-.367c-.578 0-1.086.141-1.524.422a2.91 2.91 0 0 0-1.023 1.094 3.14 3.14 0 0 0-.367 1.477v1.664c0 .698.127 1.297.382 1.797.256.495.612.875 1.071 1.141.458.26.995.391 1.609.391a3.42 3.42 0 0 0 1.117-.172 2.48 2.48 0 0 0 .868-.523c.244-.229.429-.513.554-.852l2.641.297c-.167.698-.485 1.307-.953 1.828-.464.516-1.058.917-1.782 1.203-.724.281-1.552.422-2.484.422zm7.729-.234v-12h2.828v12h-2.828zm1.421-13.703a1.65 1.65 0 0 1-1.156-.445c-.323-.302-.484-.664-.484-1.086 0-.427.161-.789.484-1.086.323-.302.709-.453 1.156-.453.454 0 .839.151 1.157.453.323.297.484.659.484 1.086 0 .422-.161.784-.484 1.086-.318.297-.703.445-1.157.445zm15.034 1.703l-4.274 12h-3.125l-4.273-12h3.015l2.758 8.914h.125l2.766-8.914h3.008zm6.861 12.234c-1.203 0-2.242-.25-3.117-.75a5.08 5.08 0 0 1-2.008-2.141c-.469-.927-.703-2.018-.703-3.273 0-1.234.234-2.318.703-3.25.474-.937 1.135-1.667 1.984-2.187.849-.526 1.847-.789 2.993-.789.739 0 1.437.12 2.093.359.662.234 1.245.599 1.75 1.094.511.495.912 1.125 1.203 1.891.292.76.438 1.667.438 2.719v.867h-9.836v-1.906h7.125c-.005-.542-.122-1.023-.352-1.445-.229-.427-.549-.763-.96-1.008s-.881-.367-1.422-.367c-.578 0-1.086.141-1.524.422a2.91 2.91 0 0 0-1.023 1.094 3.14 3.14 0 0 0-.367 1.477v1.664c0 .698.127 1.297.382 1.797.256.495.612.875 1.071 1.141.458.26.994.391 1.609.391a3.42 3.42 0 0 0 1.117-.172c.334-.12.623-.294.867-.523s.43-.513.555-.852l2.641.297c-.167.698-.485 1.307-.953 1.828-.464.516-1.058.917-1.782 1.203-.724.281-1.552.422-2.484.422zm12.182-.023c-.943 0-1.787-.242-2.532-.727s-1.333-1.187-1.765-2.109-.649-2.042-.649-3.359c0-1.333.219-2.458.657-3.375.442-.922 1.039-1.617 1.789-2.086.75-.474 1.586-.711 2.507-.711.704 0 1.282.12 1.735.359.453.234.812.518 1.078.852a5.19 5.19 0 0 1 .617.93h.117v-5.984h2.836v16h-2.781v-1.891h-.172c-.146.292-.357.602-.633.93-.276.323-.64.599-1.093.828s-1.024.344-1.711.344zm.789-2.32c.599 0 1.109-.162 1.531-.484.422-.328.742-.784.961-1.367s.328-1.263.328-2.039-.109-1.45-.328-2.023-.531-1.018-.953-1.336c-.417-.318-.93-.477-1.539-.477-.631 0-1.157.164-1.578.492s-.74.781-.954 1.359-.32 1.24-.32 1.984c0 .75.107 1.419.32 2.008.219.583.54 1.044.961 1.383.427.333.951.5 1.571.5z" fill="url(#E)"/><path d="M789.933 42.844v-16h6c1.23 0 2.261.213 3.094.641.839.427 1.471 1.026 1.899 1.797.432.766.648 1.659.648 2.68 0 1.026-.219 1.917-.656 2.672-.433.75-1.071 1.331-1.914 1.742-.844.406-1.881.609-3.11.609h-4.273v-2.406h3.883c.718 0 1.307-.099 1.765-.297.459-.203.797-.497 1.016-.883.224-.391.336-.87.336-1.438s-.112-1.052-.336-1.453c-.224-.406-.565-.714-1.024-.922-.458-.213-1.049-.32-1.773-.32h-2.656v13.578h-2.899zm8.266-7.25l3.961 7.25h-3.234l-3.891-7.25h3.164zm8.23-4.75l2.422 4.43 2.461-4.43h2.992l-3.617 6 3.68 6h-2.977l-2.539-4.32-2.515 4.32h-3l3.656-6-3.563-6h3zm15.489 12V40.75l5.554-5.445 1.329-1.43c.354-.417.619-.82.796-1.211s.266-.807.266-1.25c0-.505-.115-.937-.344-1.297-.229-.364-.544-.646-.945-.844s-.857-.297-1.367-.297c-.526 0-.987.109-1.383.328a2.26 2.26 0 0 0-.922.914c-.213.396-.32.867-.32 1.414h-2.758c0-1.016.232-1.898.695-2.648s1.102-1.331 1.914-1.742c.818-.411 1.756-.617 2.813-.617 1.073 0 2.015.2 2.828.601s1.443.951 1.891 1.649.679 1.495.679 2.391c0 .599-.114 1.188-.343 1.766s-.633 1.219-1.211 1.922-1.378 1.555-2.414 2.555l-2.758 2.805v.109h6.968v2.422h-10.968z" fill="url(#F)"/><path d="M167.897 27.706a2.29 2.29 0 0 0-1.602.675l-4.918 4.906c-.213.214-.332.504-.332.806s.119.592.332.806a1.15 1.15 0 0 0 .373.25 1.14 1.14 0 0 0 .879 0 1.15 1.15 0 0 0 .373-.25l3.751-3.763v11.437a1.14 1.14 0 0 0 1.144 1.144 1.14 1.14 0 0 0 1.143-1.144V31.137l3.763 3.763c.214.215.504.337.808.338s.595-.118.81-.332a1.14 1.14 0 0 0 .338-.808c.001-.303-.118-.595-.332-.81l-4.918-4.906a2.29 2.29 0 0 0-1.612-.675z" fill="url(#G)"/><path d="M254.812 63.425v220.441m288.21-220.441v220.441" stroke="#aeaeae" stroke-width=".8" stroke-dasharray="1.8 1.8"/><path stroke="#c8c8c8" stroke-width=".4" stroke-dasharray="1.8 1.8" d="M878.086 24.213v220.44"/><path d="M.713 184.078a.4.4 0 0 0 0 .565l2.546 2.546a.4.4 0 1 0 .566-.566l-2.263-2.263 2.263-2.262a.4.4 0 1 0-.566-.566l-2.546 2.546zm252.816.565a.4.4 0 0 0 0-.565l-2.545-2.546a.4.4 0 1 0-.566.566l2.263 2.262-2.263 2.263a.4.4 0 1 0 .566.566l2.545-2.546zM.996 184.36v.4h252.25v-.4-.4H.996v.4zm255.117-.282c-.157.156-.157.409 0 .565l2.545 2.546a.4.4 0 1 0 .566-.566l-2.263-2.263 2.263-2.262a.4.4 0 1 0-.566-.566l-2.545 2.546zm286.082.565c.157-.156.157-.409 0-.565l-2.545-2.546a.4.4 0 1 0-.566.566l2.263 2.262-2.263 2.263a.4.4 0 1 0 .566.566l2.545-2.546zm-285.799-.283v.4h285.517v-.4-.4H256.396v.4zm-.283 78.142a.4.4 0 0 0 0 .566l2.545 2.545a.4.4 0 1 0 .566-.566l-2.263-2.262 2.263-2.263a.4.4 0 1 0-.566-.566l-2.545 2.546zm622.056.566a.4.4 0 0 0 0-.566l-2.546-2.546a.4.4 0 0 0-.565 0 .4.4 0 0 0 0 .566l2.262 2.263-2.262 2.262a.4.4 0 0 0 0 .566.4.4 0 0 0 .565 0l2.546-2.545zm-621.773-.283v.4h621.49v-.4-.4h-621.49v.4z" fill="#fcacac"/><path d="M78.152 148.187c0 1.489-.279 2.764-.837 3.826-.553 1.057-1.309 1.866-2.267 2.429s-2.035.843-3.245.843-2.294-.281-3.252-.843c-.954-.567-1.709-1.379-2.267-2.436s-.83-2.335-.83-3.819c0-1.489.277-2.762.83-3.819s1.313-1.873 2.267-2.436 2.042-.843 3.252-.843 2.292.281 3.245.843 1.714 1.375 2.267 2.436.837 2.33.837 3.819zm-2.517 0c0-1.048-.164-1.932-.493-2.652s-.774-1.27-1.349-1.639-1.239-.56-1.99-.56-1.415.187-1.99.56-1.028.915-1.356 1.639-.486 1.604-.486 2.652.162 1.934.486 2.658.78 1.267 1.356 1.64 1.239.553 1.99.553 1.415-.184 1.99-.553 1.026-.92 1.349-1.64.493-1.61.493-2.658zm7.218.837v6.072h-2.442v-10.363h2.335v1.761h.121a2.96 2.96 0 0 1 1.14-1.384c.526-.341 1.176-.512 1.95-.512.715 0 1.338.153 1.869.458s.949.749 1.241 1.33.443 1.284.439 2.111v6.599h-2.442v-6.221c0-.692-.18-1.234-.54-1.626s-.848-.587-1.478-.587c-.427 0-.807.095-1.14.284s-.587.452-.776.803-.277.775-.277 1.275zm15.731 6.072h-2.672l4.865-13.818h3.09l4.872 13.818h-2.672l-3.691-10.984h-.108l-3.684 10.984zm.088-5.418h7.287v2.011h-7.287v-2.011zm11.853 5.418v-10.363h2.442v10.363h-2.442zm1.228-11.834c-.387 0-.72-.129-.999-.385a1.24 1.24 0 0 1-.418-.938 1.23 1.23 0 0 1 .418-.938 1.41 1.41 0 0 1 .999-.391c.391 0 .724.13.999.391a1.23 1.23 0 0 1 .418.938 1.24 1.24 0 0 1-.418.938c-.275.256-.608.385-.999.385zm3.726 11.834v-10.363h2.368v1.727h.108c.189-.598.513-1.059.972-1.383s.992-.493 1.585-.493l.453.02a2.98 2.98 0 0 1 .425.048v2.246a2.59 2.59 0 0 0-.493-.094 4.45 4.45 0 0 0-.641-.047c-.445 0-.846.096-1.201.29a2.13 2.13 0 0 0-.83.789c-.202.338-.303.727-.303 1.168v6.092h-2.443zm11.747-11.72v-2.098h11.025v2.098h-4.271v11.72h-2.483v-11.72h-4.271zm13.042 11.72v-10.363h2.443v10.363h-2.443zm1.228-11.834c-.387 0-.72-.129-.998-.385s-.419-.573-.419-.938.14-.681.419-.938.611-.391.998-.391.724.13.999.391.418.569.418.938a1.23 1.23 0 0 1-.418.938 1.4 1.4 0 0 1-.999.385zm3.726 11.834v-10.363h2.335v1.761h.121a2.75 2.75 0 0 1 1.073-1.39c.499-.338 1.095-.506 1.788-.506.702 0 1.293.171 1.775.512s.827.799 1.025 1.384h.108c.229-.576.616-1.035 1.161-1.377s1.198-.519 1.949-.519c.954 0 1.732.301 2.335.904s.904 1.482.904 2.638v6.956h-2.449v-6.578c0-.644-.171-1.114-.513-1.41-.342-.302-.76-.453-1.255-.453-.589 0-1.05.185-1.383.554s-.493.839-.493 1.423v6.464h-2.395v-6.679c0-.536-.162-.963-.486-1.282s-.737-.48-1.255-.48c-.35 0-.67.09-.958.27a1.91 1.91 0 0 0-.688.749c-.171.324-.256.693-.256 1.12v6.302h-2.443zm21.64.203c-1.039 0-1.936-.216-2.692-.648s-1.329-1.053-1.734-1.849-.607-1.743-.607-2.827c0-1.066.202-2.002.607-2.807s.981-1.439 1.714-1.889 1.594-.681 2.584-.681c.639 0 1.241.103 1.808.31a4.07 4.07 0 0 1 1.511.945c.441.427.788.971 1.04 1.632s.377 1.44.377 2.348v.749h-8.494v-1.646h6.153c-.004-.468-.106-.884-.303-1.248a2.24 2.24 0 0 0-.83-.871c-.355-.212-.761-.317-1.228-.317-.5 0-.938.122-1.316.365a2.54 2.54 0 0 0-.884.944 2.71 2.71 0 0 0-.317 1.275v1.438c0 .602.11 1.12.331 1.551s.528.756.924.986c.396.224.859.337 1.39.337.355 0 .677-.05.965-.149a2.08 2.08 0 0 0 .749-.452 1.89 1.89 0 0 0 .479-.735l2.28.256c-.144.603-.418 1.129-.823 1.579s-.913.792-1.538 1.039-1.341.365-2.146.365zm185.62 3.718v-13.818h5.182c1.061 0 1.952.185 2.672.553s1.27.887 1.639 1.552.56 1.433.56 2.315-.189 1.655-.567 2.307-.924 1.149-1.653 1.505-1.624.526-2.685.526h-3.691v-2.078h3.354c.62 0 1.129-.086 1.524-.257s.689-.429.878-.762.29-.751.29-1.241-.097-.909-.29-1.255-.489-.617-.884-.797-.907-.276-1.532-.276h-2.294v11.726h-2.503zm7.138-6.261l3.421 6.261h-2.793l-3.36-6.261h2.732zm7.108-4.102l2.092 3.825 2.125-3.825h2.585l-3.124 5.182 3.178 5.181h-2.571l-2.193-3.731-2.173 3.731h-2.59l3.157-5.181-3.076-5.182h2.59zm18.997-3.455v13.818h-2.503v-11.382h-.081l-3.232 2.065v-2.295l3.434-2.206h2.382zm13.039 13.818h-4.683v-13.818h4.777c1.372 0 2.551.277 3.536.83a5.54 5.54 0 0 1 2.28 2.368c.531 1.03.797 2.263.797 3.698s-.268 2.676-.803 3.711a5.55 5.55 0 0 1-2.301 2.381c-.999.554-2.2.83-3.603.83zm-2.179-2.166h2.058c.962 0 1.765-.175 2.408-.526s1.127-.884 1.451-1.585c.324-.707.486-1.588.486-2.645s-.162-1.934-.486-2.632-.803-1.225-1.437-1.572-1.413-.526-2.348-.526h-2.132v9.486zm15.744 2.369c-1.039 0-1.936-.216-2.692-.648s-1.329-1.053-1.734-1.849-.607-1.743-.607-2.827c0-1.066.202-2.001.607-2.807s.981-1.439 1.714-1.889 1.594-.681 2.584-.681c.639 0 1.241.103 1.808.31s1.075.517 1.512.945.787.971 1.039 1.633c.251.656.377 1.439.377 2.348v.748h-8.494v-1.646h6.153c-.004-.468-.106-.884-.303-1.248s-.475-.659-.83-.87a2.33 2.33 0 0 0-1.228-.318c-.5 0-.938.122-1.316.365a2.51 2.51 0 0 0-.884.944c-.207.387-.313.812-.317 1.276v1.437c0 .603.11 1.12.331 1.552a2.36 2.36 0 0 0 .924.985c.396.225.859.337 1.39.337.355 0 .677-.049.965-.148.288-.104.537-.255.749-.452s.371-.444.479-.736l2.28.257a3.55 3.55 0 0 1-.823 1.578c-.4.446-.913.792-1.538 1.039s-1.341.365-2.146.365zm9.117-14.021v13.818h-2.442v-13.818h2.442zm5.494 14.027c-.657 0-1.248-.116-1.774-.35s-.936-.59-1.242-1.053c-.301-.463-.452-1.034-.452-1.714 0-.584.108-1.068.324-1.45s.51-.689.884-.918a4.45 4.45 0 0 1 1.262-.519c.472-.122.96-.21 1.464-.264l1.477-.168c.378-.054.653-.135.823-.243.176-.113.264-.286.264-.52v-.04c0-.508-.151-.902-.452-1.181s-.736-.418-1.303-.418c-.598 0-1.072.13-1.423.391s-.581.569-.702.924l-2.281-.323c.18-.63.477-1.156.891-1.579a3.92 3.92 0 0 1 1.518-.958 5.93 5.93 0 0 1 1.984-.324 6.46 6.46 0 0 1 1.491.175 4.21 4.21 0 0 1 1.356.58 2.92 2.92 0 0 1 .985 1.087c.252.459.378 1.032.378 1.72v6.936h-2.348v-1.423h-.081c-.148.288-.358.557-.627.809s-.601.448-1.006.601-.87.222-1.41.222zm.634-1.794c.491 0 .916-.097 1.276-.29s.636-.459.829-.783.297-.677.297-1.059v-1.222c-.076.063-.207.122-.391.176a5.88 5.88 0 0 1-.607.142l-.668.107-.574.081a4.32 4.32 0 0 0-.978.243 1.63 1.63 0 0 0-.682.473c-.166.198-.249.454-.249.769 0 .45.164.789.492 1.019s.747.344 1.255.344zm8.441 5.472c-.333 0-.641-.027-.924-.081s-.502-.108-.668-.176l.566-1.902c.356.103.673.153.952.148a1.16 1.16 0 0 0 .735-.263c.216-.167.398-.445.547-.837l.209-.56-3.758-10.579h2.591l2.388 7.826h.108l2.395-7.826h2.598l-4.149 11.618c-.194.549-.45 1.019-.77 1.41a3.12 3.12 0 0 1-1.174.905c-.458.211-1.007.317-1.646.317zm-83.533 74.538v-13.819h5.182c1.061 0 1.952.185 2.672.554s1.27.886 1.639 1.552.56 1.432.56 2.314-.189 1.655-.567 2.307-.924 1.15-1.653 1.505-1.624.526-2.685.526h-3.691v-2.078h3.354c.62 0 1.129-.085 1.524-.256s.689-.43.878-.763.29-.751.29-1.241-.097-.909-.29-1.255-.489-.616-.884-.796-.907-.277-1.532-.277h-2.294v11.727h-2.503zm7.138-6.262l3.421 6.262h-2.793l-3.36-6.262h2.732zm7.108-4.102l2.092 3.826 2.125-3.826h2.585l-3.124 5.182 3.178 5.182h-2.571l-2.193-3.732-2.173 3.732h-2.59l3.157-5.182-3.076-5.182h2.59zm18.997-3.455v13.819h-2.503v-11.383h-.081l-3.232 2.065v-2.294l3.434-2.207h2.382zm13.039 13.819h-4.683v-13.819h4.777c1.372 0 2.551.277 3.536.83s1.75 1.339 2.28 2.369.797 2.262.797 3.697-.268 2.676-.803 3.711-1.298 1.828-2.301 2.382-2.2.83-3.603.83zm-2.179-2.166h2.058c.962 0 1.765-.176 2.408-.526.643-.356 1.127-.884 1.451-1.586s.486-1.588.486-2.645-.162-1.934-.486-2.631a3.31 3.31 0 0 0-1.437-1.572c-.63-.351-1.413-.527-2.348-.527h-2.132v9.487zm15.744 2.368c-1.039 0-1.936-.216-2.692-.648s-1.329-1.052-1.734-1.848-.607-1.743-.607-2.827c0-1.066.202-2.002.607-2.807.409-.81.981-1.44 1.714-1.889.733-.455 1.594-.682 2.584-.682a5.25 5.25 0 0 1 1.808.31 4.11 4.11 0 0 1 1.512.945c.44.427.787.972 1.039 1.633s.377 1.439.377 2.348v.749h-8.494v-1.647h6.153c-.004-.467-.106-.883-.303-1.248s-.475-.659-.83-.87-.761-.317-1.228-.317c-.5 0-.938.121-1.316.364s-.672.553-.884.945a2.71 2.71 0 0 0-.317 1.275v1.437c0 .603.11 1.12.331 1.552s.528.756.924.985.859.337 1.39.337c.355 0 .677-.049.965-.148a2.08 2.08 0 0 0 .749-.452c.212-.198.371-.443.479-.736l2.28.257c-.144.603-.418 1.129-.823 1.579-.4.445-.913.791-1.538 1.039s-1.341.364-2.146.364zm9.117-14.021v13.819h-2.442v-13.819h2.442zm5.494 14.028c-.657 0-1.248-.117-1.774-.351a2.89 2.89 0 0 1-1.242-1.053c-.301-.463-.452-1.034-.452-1.713 0-.585.108-1.069.324-1.451a2.51 2.51 0 0 1 .884-.918c.373-.229.794-.402 1.262-.519s.96-.209 1.464-.263l1.477-.169c.378-.054.653-.135.823-.243.176-.112.264-.286.264-.519v-.041c0-.508-.151-.902-.452-1.181s-.736-.418-1.303-.418c-.598 0-1.072.13-1.423.391s-.581.569-.702.925l-2.281-.324c.18-.63.477-1.156.891-1.579a3.92 3.92 0 0 1 1.518-.958 5.93 5.93 0 0 1 1.984-.324c.499 0 .996.059 1.491.175a4.19 4.19 0 0 1 1.356.581c.409.265.738.627.985 1.086s.378 1.032.378 1.721v6.936h-2.348v-1.424h-.081a2.99 2.99 0 0 1-.627.81c-.266.247-.601.447-1.006.6s-.87.223-1.41.223zm.634-1.795c.491 0 .916-.097 1.276-.29.359-.198.636-.459.829-.783s.297-.677.297-1.059v-1.221c-.076.063-.207.121-.391.175a5.88 5.88 0 0 1-.607.142l-.668.108-.574.081c-.364.049-.69.13-.978.243s-.515.27-.682.472-.249.454-.249.769c0 .45.164.79.492 1.019s.747.344 1.255.344zm8.441 5.472c-.333 0-.641-.027-.924-.081s-.502-.108-.668-.175l.566-1.903c.356.103.673.153.952.148a1.16 1.16 0 0 0 .735-.263c.216-.166.398-.445.547-.836l.209-.56-3.758-10.58h2.591l2.388 7.827h.108l2.395-7.827h2.598l-4.149 11.619a4.67 4.67 0 0 1-.77 1.41c-.319.396-.71.697-1.174.904-.458.211-1.007.317-1.646.317z" fill="#767676"/><defs><linearGradient id="A" x1="-1.024" y1="70.433" x2="258.889" y2="28.235" href="#H"><stop stop-color="#d84896"/><stop offset="1" stop-color="#2f67ff"/></linearGradient><linearGradient id="B" x1="348.059" y1="70.433" x2="549.997" y2="45.228" href="#H"><stop stop-color="#50c8a7"/><stop offset="1" stop-color="#1d9587"/></linearGradient><linearGradient id="C" x1="745.934" y1="70.433" x2="882.623" y2="58.982" href="#H"><stop stop-color="#50c8a7"/><stop offset="1" stop-color="#1d9587"/></linearGradient><linearGradient id="D" x1="151.846" y1="35.548" x2="79.304" y2="40.896" href="#H"><stop stop-color="#ff5f9b"/><stop offset="1" stop-color="#2f67ff"/></linearGradient><linearGradient id="E" x1="508.062" y1="35.712" x2="402.832" y2="47.033" href="#H"><stop stop-color="#50c8a7"/><stop offset="1" stop-color="#83db95"/></linearGradient><linearGradient id="F" x1="837.37" y1="35.548" x2="788.211" y2="37.997" href="#H"><stop stop-color="#50c8a7"/><stop offset="1" stop-color="#83db95"/></linearGradient><linearGradient id="G" x1="167.902" y1="27.706" x2="167.902" y2="43.717" href="#H"><stop stop-color="#d84896"/><stop offset="1" stop-color="#2f67ff"/></linearGradient><linearGradient id="H" gradientUnits="userSpaceOnUse"/></defs></svg>