<svg width="870" height="282" viewBox="0 0 870 282" fill="none" xmlns="http://www.w3.org/2000/svg">
<rect x="3.33652" y="1.24448" width="248.072" height="68.2541" rx="13.6" fill="white" stroke="url(#paint0_linear_242_7)" stroke-width="0.8"/>
<rect x="410.833" y="1.24448" width="127.616" height="68.2541" rx="13.6" fill="white" stroke="url(#paint1_linear_242_7)" stroke-width="0.8"/>
<rect x="740.712" y="1.24448" width="127.616" height="68.2541" rx="13.6" fill="white" stroke="url(#paint2_linear_242_7)" stroke-width="0.8"/>
<path d="M90.1633 26.8181H93.0618V37.2712C93.0618 38.4171 92.7909 39.4249 92.2493 40.2947C91.7128 41.1645 90.9576 41.8442 89.9836 42.3337C89.0097 42.8181 87.8717 43.0603 86.5696 43.0603C85.2623 43.0603 84.1217 42.8181 83.1477 42.3337C82.1737 41.8442 81.4185 41.1645 80.8821 40.2947C80.3456 39.4249 80.0774 38.4171 80.0774 37.2712V26.8181H82.9758V37.0291C82.9758 37.6957 83.1217 38.2895 83.4133 38.8103C83.7102 39.3311 84.1269 39.74 84.6633 40.0369C85.1998 40.3285 85.8352 40.4744 86.5696 40.4744C87.304 40.4744 87.9394 40.3285 88.4758 40.0369C89.0175 39.74 89.4342 39.3311 89.7258 38.8103C90.0175 38.2895 90.1633 37.6957 90.1633 37.0291V26.8181ZM96.0872 47.3181V30.8181H98.8684V32.8025H99.0325C99.1783 32.5108 99.384 32.2009 99.6497 31.8728C99.9153 31.5395 100.275 31.2556 100.728 31.0212C101.181 30.7817 101.759 30.6619 102.462 30.6619C103.389 30.6619 104.225 30.8988 104.97 31.3728C105.72 31.8416 106.314 32.5369 106.751 33.4587C107.194 34.3754 107.415 35.5004 107.415 36.8337C107.415 38.1514 107.199 39.2712 106.767 40.1931C106.335 41.115 105.746 41.8181 105.001 42.3025C104.256 42.7869 103.413 43.0291 102.47 43.0291C101.782 43.0291 101.212 42.9145 100.759 42.6853C100.306 42.4561 99.9413 42.1801 99.6653 41.8572C99.3945 41.5291 99.1835 41.2192 99.0325 40.9275H98.9153V47.3181H96.0872ZM98.8606 36.8181C98.8606 37.5942 98.97 38.2738 99.1887 38.8572C99.4127 39.4405 99.733 39.8962 100.15 40.2244C100.572 40.5473 101.082 40.7087 101.681 40.7087C102.306 40.7087 102.829 40.5421 103.251 40.2087C103.673 39.8702 103.991 39.4093 104.204 38.8259C104.423 38.2374 104.532 37.5681 104.532 36.8181C104.532 36.0733 104.426 35.4119 104.212 34.8337C103.999 34.2556 103.681 33.8025 103.259 33.4744C102.837 33.1462 102.311 32.9822 101.681 32.9822C101.077 32.9822 100.564 33.141 100.142 33.4587C99.72 33.7764 99.3997 34.2218 99.1809 34.7947C98.9674 35.3676 98.8606 36.0421 98.8606 36.8181ZM112.665 26.8181V42.8181H109.837V26.8181H112.665ZM115.573 42.8181V30.8181H118.402V42.8181H115.573ZM116.995 29.115C116.547 29.115 116.162 28.9666 115.839 28.6697C115.516 28.3676 115.355 28.0056 115.355 27.5837C115.355 27.1567 115.516 26.7947 115.839 26.4978C116.162 26.1957 116.547 26.0447 116.995 26.0447C117.448 26.0447 117.834 26.1957 118.152 26.4978C118.475 26.7947 118.636 27.1567 118.636 27.5837C118.636 28.0056 118.475 28.3676 118.152 28.6697C117.834 28.9666 117.448 29.115 116.995 29.115ZM124.138 35.7869V42.8181H121.31V30.8181H124.013V32.8572H124.154C124.43 32.1853 124.87 31.6514 125.474 31.2556C126.083 30.8598 126.836 30.6619 127.732 30.6619C128.56 30.6619 129.281 30.8389 129.896 31.1931C130.516 31.5473 130.995 32.0603 131.333 32.7322C131.677 33.4041 131.846 34.2192 131.841 35.1775V42.8181H129.013V35.615C129.013 34.8129 128.805 34.1853 128.388 33.7322C127.976 33.2791 127.406 33.0525 126.677 33.0525C126.182 33.0525 125.742 33.1619 125.357 33.3806C124.976 33.5942 124.677 33.9041 124.458 34.3103C124.245 34.7166 124.138 35.2087 124.138 35.7869ZM137.294 39.0525L137.286 35.6384H137.74L142.052 30.8181H145.357L140.052 36.7244H139.466L137.294 39.0525ZM134.716 42.8181V26.8181H137.544V42.8181H134.716ZM142.247 42.8181L138.341 37.3572L140.247 35.365L145.63 42.8181H142.247Z" fill="url(#paint3_linear_242_7)"/>
<path d="M452.934 42.98V26.98H458.934C460.163 26.98 461.194 27.1935 462.028 27.6206C462.866 28.0477 463.499 28.6466 463.926 29.4175C464.359 30.1831 464.575 31.0763 464.575 32.0972C464.575 33.1232 464.356 34.0138 463.918 34.769C463.486 35.519 462.848 36.0998 462.004 36.5112C461.161 36.9175 460.124 37.1206 458.895 37.1206H454.622V34.7144H458.504C459.223 34.7144 459.812 34.6154 460.27 34.4175C460.728 34.2144 461.067 33.9201 461.286 33.5347C461.51 33.144 461.622 32.6649 461.622 32.0972C461.622 31.5295 461.51 31.0451 461.286 30.644C461.062 30.2378 460.721 29.9305 460.262 29.7222C459.804 29.5086 459.213 29.4019 458.489 29.4019H455.833V42.98H452.934ZM461.2 35.73L465.161 42.98H461.926L458.036 35.73H461.2ZM469.43 30.98L471.852 35.4097L474.313 30.98H477.305L473.688 36.98L477.368 42.98H474.391L471.852 38.6597L469.336 42.98H466.336L469.993 36.98L466.43 30.98H469.43ZM491.426 26.98V42.98H488.528V29.8003H488.434L484.692 32.1909V29.5347L488.668 26.98H491.426Z" fill="url(#paint4_linear_242_7)"/>
<path d="M782.813 42.98V26.98H788.813C790.042 26.98 791.073 27.1935 791.906 27.6206C792.745 28.0477 793.378 28.6466 793.805 29.4175C794.237 30.1831 794.453 31.0763 794.453 32.0972C794.453 33.1232 794.235 34.0138 793.797 34.769C793.365 35.519 792.727 36.0998 791.883 36.5112C791.039 36.9175 790.003 37.1206 788.774 37.1206H784.5V34.7144H788.383C789.102 34.7144 789.69 34.6154 790.149 34.4175C790.607 34.2144 790.946 33.9201 791.164 33.5347C791.388 33.144 791.5 32.6649 791.5 32.0972C791.5 31.5295 791.388 31.0451 791.164 30.644C790.94 30.2378 790.599 29.9305 790.141 29.7222C789.683 29.5086 789.091 29.4019 788.367 29.4019H785.711V42.98H782.813ZM791.078 35.73L795.039 42.98H791.805L787.914 35.73H791.078ZM799.309 30.98L801.731 35.4097L804.192 30.98H807.184L803.567 36.98L807.246 42.98H804.27L801.731 38.6597L799.215 42.98H796.215L799.871 36.98L796.309 30.98H799.309ZM814.797 42.98V40.8862L820.352 35.4409C820.883 34.9045 821.326 34.4279 821.68 34.0112C822.034 33.5946 822.3 33.1909 822.477 32.8003C822.654 32.4097 822.742 31.993 822.742 31.5503C822.742 31.0451 822.628 30.6128 822.399 30.2534C822.17 29.8888 821.854 29.6076 821.453 29.4097C821.052 29.2118 820.597 29.1128 820.086 29.1128C819.56 29.1128 819.099 29.2222 818.703 29.4409C818.308 29.6545 818 29.9591 817.781 30.355C817.568 30.7508 817.461 31.2222 817.461 31.769H814.703C814.703 30.7534 814.935 29.8706 815.399 29.1206C815.862 28.3706 816.5 27.7899 817.313 27.3784C818.13 26.967 819.068 26.7612 820.125 26.7612C821.198 26.7612 822.141 26.9618 822.953 27.3628C823.766 27.7638 824.396 28.3133 824.844 29.0112C825.297 29.7091 825.524 30.506 825.524 31.4019C825.524 32.0008 825.409 32.5894 825.18 33.1675C824.951 33.7456 824.547 34.3862 823.969 35.0894C823.396 35.7925 822.591 36.644 821.555 37.644L818.797 40.4487V40.5581H825.766V42.98H814.797Z" fill="url(#paint5_linear_242_7)"/>
<path d="M166.182 27.6097C165.586 27.6152 165.017 27.8551 164.597 28.2775L159.73 33.1335C159.519 33.3456 159.4 33.6325 159.4 33.9315C159.4 34.2306 159.519 34.5175 159.73 34.7296C159.835 34.8357 159.96 34.9199 160.098 34.9773C160.236 35.0348 160.384 35.0644 160.533 35.0644C160.683 35.0644 160.831 35.0348 160.969 34.9773C161.106 34.9199 161.232 34.8357 161.337 34.7296L165.05 31.0055L165.05 42.3249C165.05 42.6251 165.169 42.913 165.381 43.1253C165.593 43.3375 165.881 43.4568 166.182 43.4568C166.482 43.4568 166.77 43.3375 166.982 43.1253C167.194 42.913 167.314 42.6251 167.314 42.3249L167.314 31.0055L171.038 34.7296C171.249 34.9427 171.537 35.063 171.837 35.0641C172.138 35.0652 172.426 34.9469 172.639 34.7352C172.852 34.5236 172.973 34.2359 172.974 33.9355C172.975 33.6352 172.857 33.3467 172.645 33.1335L167.778 28.2775C167.355 27.8524 166.781 27.6122 166.182 27.6097Z" fill="url(#paint6_linear_242_7)"/>
<line x1="252.208" y1="62.9624" x2="252.208" y2="281.137" stroke="#C8C8C8" stroke-width="0.8" stroke-dasharray="1.8 1.8"/>
<line x1="537.456" y1="62.9624" x2="537.456" y2="281.137" stroke="#C8C8C8" stroke-width="0.8" stroke-dasharray="1.8 1.8"/>
<line x1="869.275" y1="62.9624" x2="869.275" y2="281.137" stroke="#C8C8C8" stroke-width="0.8" stroke-dasharray="1.8 1.8"/>
<path d="M0.64254 182.301C0.447278 182.496 0.447278 182.813 0.64254 183.008L3.82452 186.19C4.01978 186.386 4.33637 186.386 4.53163 186.19C4.72689 185.995 4.72689 185.678 4.53163 185.483L1.7032 182.655L4.53163 179.826C4.72689 179.631 4.72689 179.315 4.53163 179.119C4.33637 178.924 4.01978 178.924 3.82452 179.119L0.64254 182.301ZM251.008 183.008C251.203 182.813 251.203 182.496 251.008 182.301L247.826 179.119C247.631 178.924 247.314 178.924 247.119 179.119C246.924 179.315 246.924 179.631 247.119 179.826L249.947 182.655L247.119 185.483C246.924 185.678 246.924 185.995 247.119 186.19C247.314 186.386 247.631 186.386 247.826 186.19L251.008 183.008ZM0.996094 182.655V183.155H250.654V182.655V182.155H0.996094V182.655Z" fill="#FCACAC"/>
<path d="M253.417 182.301C253.222 182.496 253.222 182.813 253.417 183.008L256.599 186.19C256.795 186.386 257.111 186.386 257.307 186.19C257.502 185.995 257.502 185.678 257.307 185.483L254.478 182.655L257.307 179.826C257.502 179.631 257.502 179.315 257.307 179.119C257.111 178.924 256.795 178.924 256.599 179.119L253.417 182.301ZM536.708 183.008C536.903 182.813 536.903 182.497 536.708 182.301L533.526 179.119C533.33 178.924 533.014 178.924 532.819 179.119C532.623 179.315 532.623 179.631 532.819 179.826L535.647 182.655L532.819 185.483C532.623 185.678 532.623 185.995 532.819 186.19C533.014 186.386 533.33 186.386 533.526 186.19L536.708 183.008ZM253.771 182.655L253.771 183.155L536.354 183.155L536.354 182.655L536.354 182.155L253.771 182.155L253.771 182.655Z" fill="#FCACAC"/>
<path d="M253.417 259.92C253.222 260.115 253.222 260.431 253.417 260.627L256.599 263.809C256.795 264.004 257.111 264.004 257.307 263.809C257.502 263.613 257.502 263.297 257.307 263.102L254.478 260.273L257.307 257.445C257.502 257.25 257.502 256.933 257.307 256.738C257.111 256.542 256.795 256.542 256.599 256.738L253.417 259.92ZM869.229 260.627C869.424 260.432 869.424 260.115 869.229 259.92L866.047 256.738C865.851 256.542 865.535 256.542 865.34 256.738C865.144 256.933 865.144 257.25 865.34 257.445L868.168 260.273L865.34 263.102C865.144 263.297 865.144 263.614 865.34 263.809C865.535 264.004 865.851 264.004 866.047 263.809L869.229 260.627ZM253.771 260.273L253.771 260.773L868.875 260.773L868.875 260.273L868.875 259.773L253.771 259.773L253.771 260.273Z" fill="#FCACAC"/>
<path d="M77.5003 146.967C77.5003 148.456 77.2214 149.731 76.6636 150.793C76.1104 151.85 75.3547 152.659 74.3966 153.222C73.443 153.784 72.3612 154.065 71.1512 154.065C69.9412 154.065 68.8572 153.784 67.8991 153.222C66.9455 152.655 66.1898 151.843 65.632 150.786C65.0787 149.724 64.8021 148.452 64.8021 146.967C64.8021 145.478 65.0787 144.205 65.632 143.148C66.1898 142.087 66.9455 141.275 67.8991 140.713C68.8572 140.15 69.9412 139.869 71.1512 139.869C72.3612 139.869 73.443 140.15 74.3966 140.713C75.3547 141.275 76.1104 142.087 76.6636 143.148C77.2214 144.205 77.5003 145.478 77.5003 146.967ZM74.9836 146.967C74.9836 145.919 74.8194 145.035 74.491 144.315C74.1672 143.591 73.7174 143.045 73.1416 142.676C72.5658 142.303 71.9024 142.116 71.1512 142.116C70.4 142.116 69.7365 142.303 69.1608 142.676C68.585 143.045 68.133 143.591 67.8046 144.315C67.4807 145.035 67.3188 145.919 67.3188 146.967C67.3188 148.015 67.4807 148.901 67.8046 149.626C68.133 150.345 68.585 150.892 69.1608 151.265C69.7365 151.634 70.4 151.818 71.1512 151.818C71.9024 151.818 72.5658 151.634 73.1416 151.265C73.7174 150.892 74.1672 150.345 74.491 149.626C74.8194 148.901 74.9836 148.015 74.9836 146.967ZM82.2013 147.804V153.876H79.7589V143.513H82.0934V145.274H82.2148C82.4532 144.693 82.8333 144.232 83.3551 143.89C83.8814 143.549 84.5314 143.378 85.305 143.378C86.0202 143.378 86.6432 143.531 87.174 143.836C87.7093 144.142 88.1231 144.585 88.4155 145.166C88.7124 145.746 88.8585 146.45 88.854 147.277V153.876H86.4116V147.655C86.4116 146.963 86.2317 146.421 85.8718 146.029C85.5165 145.638 85.0239 145.442 84.3942 145.442C83.9669 145.442 83.5868 145.537 83.2539 145.726C82.9255 145.91 82.6669 146.178 82.478 146.529C82.2936 146.879 82.2013 147.304 82.2013 147.804ZM97.9324 153.876H95.2605L100.125 140.058H103.215L108.087 153.876H105.415L101.724 142.892H101.616L97.9324 153.876ZM98.0201 148.458H105.307V150.469H98.0201V148.458ZM109.873 153.876V143.513H112.316V153.876H109.873ZM111.101 142.042C110.714 142.042 110.381 141.914 110.103 141.657C109.824 141.396 109.684 141.084 109.684 140.719C109.684 140.35 109.824 140.038 110.103 139.781C110.381 139.521 110.714 139.39 111.101 139.39C111.492 139.39 111.825 139.521 112.1 139.781C112.379 140.038 112.518 140.35 112.518 140.719C112.518 141.084 112.379 141.396 112.1 141.657C111.825 141.914 111.492 142.042 111.101 142.042ZM114.827 153.876V143.513H117.195V145.24H117.303C117.492 144.642 117.816 144.181 118.275 143.857C118.738 143.528 119.267 143.364 119.861 143.364C119.996 143.364 120.146 143.371 120.313 143.384C120.484 143.393 120.625 143.409 120.738 143.432V145.678C120.634 145.642 120.47 145.611 120.245 145.584C120.025 145.552 119.811 145.537 119.604 145.537C119.159 145.537 118.759 145.633 118.403 145.827C118.052 146.016 117.776 146.279 117.573 146.616C117.371 146.954 117.27 147.343 117.27 147.784V153.876H114.827ZM126.574 142.156V140.058H137.599V142.156H133.328V153.876H130.845V142.156H126.574ZM139.616 153.876V143.513H142.059V153.876H139.616ZM140.844 142.042C140.457 142.042 140.125 141.914 139.846 141.657C139.567 141.396 139.427 141.084 139.427 140.719C139.427 140.35 139.567 140.038 139.846 139.781C140.125 139.521 140.457 139.39 140.844 139.39C141.236 139.39 141.568 139.521 141.843 139.781C142.122 140.038 142.261 140.35 142.261 140.719C142.261 141.084 142.122 141.396 141.843 141.657C141.568 141.914 141.236 142.042 140.844 142.042ZM144.57 153.876V143.513H146.905V145.274H147.026C147.242 144.68 147.6 144.217 148.099 143.884C148.598 143.546 149.194 143.378 149.887 143.378C150.589 143.378 151.18 143.549 151.662 143.89C152.147 144.228 152.489 144.689 152.687 145.274H152.795C153.025 144.698 153.411 144.239 153.956 143.897C154.504 143.551 155.154 143.378 155.906 143.378C156.859 143.378 157.637 143.679 158.24 144.282C158.843 144.885 159.144 145.764 159.144 146.92V153.876H156.695V147.298C156.695 146.655 156.524 146.184 156.182 145.888C155.84 145.586 155.422 145.436 154.927 145.436C154.338 145.436 153.877 145.62 153.544 145.989C153.216 146.353 153.052 146.828 153.052 147.412V153.876H150.656V147.197C150.656 146.661 150.494 146.234 150.171 145.915C149.851 145.595 149.433 145.436 148.916 145.436C148.565 145.436 148.245 145.525 147.957 145.705C147.67 145.881 147.44 146.13 147.269 146.454C147.098 146.774 147.013 147.147 147.013 147.574V153.876H144.57ZM166.21 154.079C165.171 154.079 164.274 153.863 163.518 153.431C162.767 152.995 162.189 152.378 161.784 151.582C161.379 150.782 161.177 149.839 161.177 148.755C161.177 147.689 161.379 146.753 161.784 145.948C162.193 145.139 162.765 144.509 163.498 144.059C164.231 143.605 165.092 143.378 166.082 143.378C166.721 143.378 167.324 143.481 167.89 143.688C168.462 143.89 168.965 144.205 169.402 144.633C169.842 145.06 170.189 145.604 170.441 146.265C170.693 146.922 170.819 147.705 170.819 148.613V149.362H162.324V147.716H168.477C168.473 147.248 168.372 146.832 168.174 146.468C167.976 146.099 167.699 145.809 167.344 145.597C166.993 145.386 166.584 145.28 166.116 145.28C165.616 145.28 165.178 145.402 164.8 145.645C164.422 145.883 164.128 146.198 163.916 146.589C163.709 146.976 163.604 147.401 163.599 147.865V149.302C163.599 149.904 163.709 150.422 163.93 150.853C164.15 151.281 164.458 151.609 164.854 151.839C165.25 152.063 165.713 152.176 166.244 152.176C166.599 152.176 166.921 152.126 167.209 152.027C167.497 151.924 167.746 151.773 167.958 151.575C168.169 151.378 168.329 151.132 168.437 150.84L170.717 151.096C170.573 151.699 170.299 152.225 169.894 152.675C169.494 153.121 168.981 153.467 168.356 153.714C167.731 153.957 167.015 154.079 166.21 154.079Z" fill="#888888"/>
<path d="M348.884 157.757V143.939H354.066C355.127 143.939 356.018 144.123 356.738 144.492C357.462 144.861 358.008 145.378 358.377 146.044C358.751 146.705 358.937 147.477 358.937 148.358C358.937 149.244 358.748 150.014 358.37 150.666C357.997 151.314 357.446 151.815 356.717 152.17C355.989 152.521 355.094 152.697 354.032 152.697H350.341V150.619H353.695C354.315 150.619 354.824 150.533 355.22 150.362C355.615 150.187 355.908 149.933 356.097 149.6C356.29 149.262 356.387 148.849 356.387 148.358C356.387 147.868 356.29 147.45 356.097 147.103C355.903 146.752 355.609 146.487 355.213 146.307C354.817 146.123 354.306 146.031 353.681 146.031H351.387V157.757H348.884ZM356.022 151.496L359.443 157.757H356.65L353.29 151.496H356.022ZM363.131 147.393L365.222 151.219L367.348 147.393H369.932L366.808 152.575L369.986 157.757H367.415L365.222 154.026L363.05 157.757H360.459L363.616 152.575L360.54 147.393H363.131ZM382.127 143.939V157.757H379.624V146.375H379.543L376.311 148.439V146.145L379.745 143.939H382.127ZM395.166 157.757H390.484V143.939H395.261C396.632 143.939 397.811 144.216 398.796 144.769C399.786 145.318 400.546 146.107 401.077 147.137C401.607 148.167 401.873 149.4 401.873 150.834C401.873 152.274 401.605 153.511 401.07 154.545C400.539 155.58 399.772 156.374 398.769 156.927C397.77 157.48 396.569 157.757 395.166 157.757ZM392.987 155.591H395.045C396.007 155.591 396.81 155.416 397.453 155.065C398.097 154.71 398.58 154.181 398.904 153.479C399.228 152.773 399.39 151.892 399.39 150.834C399.39 149.777 399.228 148.9 398.904 148.203C398.58 147.501 398.101 146.977 397.467 146.631C396.837 146.28 396.054 146.105 395.119 146.105H392.987V155.591ZM408.731 157.959C407.692 157.959 406.795 157.744 406.039 157.312C405.288 156.875 404.71 156.259 404.305 155.463C403.9 154.662 403.698 153.72 403.698 152.636C403.698 151.57 403.9 150.634 404.305 149.829C404.714 149.02 405.286 148.39 406.019 147.94C406.752 147.486 407.613 147.259 408.603 147.259C409.242 147.259 409.845 147.362 410.411 147.569C410.983 147.771 411.486 148.086 411.923 148.513C412.363 148.941 412.71 149.485 412.962 150.146C413.214 150.803 413.34 151.586 413.34 152.494V153.243H404.845V151.597H410.998C410.994 151.129 410.893 150.713 410.695 150.349C410.497 149.98 410.22 149.69 409.865 149.478C409.514 149.267 409.105 149.161 408.637 149.161C408.137 149.161 407.699 149.283 407.321 149.526C406.943 149.764 406.649 150.079 406.437 150.47C406.23 150.857 406.125 151.282 406.12 151.745V153.183C406.12 153.785 406.23 154.303 406.451 154.734C406.671 155.162 406.979 155.49 407.375 155.719C407.771 155.944 408.234 156.057 408.765 156.057C409.12 156.057 409.442 156.007 409.73 155.908C410.018 155.805 410.267 155.654 410.479 155.456C410.69 155.258 410.85 155.013 410.958 154.721L413.238 154.977C413.094 155.58 412.82 156.106 412.415 156.556C412.015 157.001 411.502 157.348 410.877 157.595C410.252 157.838 409.536 157.959 408.731 157.959ZM417.848 143.939V157.757H415.406V143.939H417.848ZM423.342 157.966C422.685 157.966 422.094 157.849 421.568 157.615C421.046 157.377 420.632 157.026 420.326 156.563C420.025 156.1 419.874 155.528 419.874 154.849C419.874 154.264 419.982 153.781 420.198 153.398C420.414 153.016 420.709 152.71 421.082 152.481C421.455 152.251 421.876 152.078 422.344 151.961C422.816 151.84 423.304 151.752 423.808 151.698C424.415 151.635 424.908 151.579 425.285 151.529C425.663 151.475 425.938 151.395 426.109 151.287C426.284 151.174 426.372 151.001 426.372 150.767V150.727C426.372 150.218 426.221 149.825 425.92 149.546C425.618 149.267 425.184 149.127 424.617 149.127C424.019 149.127 423.545 149.258 423.194 149.519C422.847 149.78 422.614 150.088 422.492 150.443L420.212 150.119C420.391 149.49 420.688 148.963 421.102 148.54C421.516 148.113 422.022 147.794 422.62 147.582C423.218 147.366 423.88 147.259 424.604 147.259C425.103 147.259 425.6 147.317 426.095 147.434C426.59 147.551 427.042 147.744 427.451 148.014C427.861 148.28 428.189 148.642 428.436 149.1C428.688 149.559 428.814 150.133 428.814 150.821V157.757H426.466V156.333H426.385C426.237 156.621 426.028 156.891 425.758 157.143C425.492 157.39 425.157 157.591 424.752 157.744C424.352 157.892 423.882 157.966 423.342 157.966ZM423.976 156.171C424.467 156.171 424.892 156.075 425.252 155.881C425.611 155.683 425.888 155.423 426.082 155.099C426.279 154.775 426.378 154.422 426.378 154.039V152.818C426.302 152.881 426.172 152.94 425.987 152.994C425.807 153.048 425.605 153.095 425.38 153.135C425.155 153.176 424.932 153.212 424.712 153.243C424.491 153.275 424.3 153.302 424.138 153.324C423.774 153.374 423.448 153.455 423.16 153.567C422.872 153.68 422.645 153.837 422.479 154.039C422.312 154.237 422.229 154.494 422.229 154.809C422.229 155.258 422.393 155.598 422.721 155.827C423.05 156.057 423.468 156.171 423.976 156.171ZM432.417 161.643C432.084 161.643 431.776 161.616 431.493 161.562C431.214 161.513 430.991 161.455 430.825 161.387L431.392 159.484C431.747 159.588 432.064 159.637 432.343 159.633C432.622 159.628 432.867 159.541 433.078 159.37C433.294 159.203 433.476 158.924 433.625 158.533L433.834 157.973L430.076 147.393H432.667L435.055 155.22H435.163L437.558 147.393H440.156L436.007 159.012C435.813 159.561 435.557 160.031 435.237 160.422C434.918 160.818 434.527 161.119 434.063 161.326C433.605 161.538 433.056 161.643 432.417 161.643Z" fill="#888888"/>
<path d="M348.884 235.375V221.557H354.066C355.127 221.557 356.018 221.742 356.738 222.111C357.462 222.479 358.008 222.997 358.377 223.662C358.751 224.324 358.937 225.095 358.937 225.977C358.937 226.863 358.748 227.632 358.37 228.284C357.997 228.932 357.446 229.433 356.717 229.789C355.989 230.14 355.094 230.315 354.032 230.315H350.341V228.237H353.695C354.315 228.237 354.824 228.152 355.22 227.981C355.615 227.805 355.908 227.551 356.097 227.218C356.29 226.881 356.387 226.467 356.387 225.977C356.387 225.486 356.29 225.068 356.097 224.722C355.903 224.371 355.609 224.105 355.213 223.926C354.817 223.741 354.306 223.649 353.681 223.649H351.387V235.375H348.884ZM356.022 229.114L359.443 235.375H356.65L353.29 229.114H356.022ZM363.131 225.012L365.222 228.837L367.348 225.012H369.932L366.808 230.194L369.986 235.375H367.415L365.222 231.644L363.05 235.375H360.459L363.616 230.194L360.54 225.012H363.131ZM382.127 221.557V235.375H379.624V223.993H379.543L376.311 226.058V223.764L379.745 221.557H382.127ZM395.166 235.375H390.484V221.557H395.261C396.632 221.557 397.811 221.834 398.796 222.387C399.786 222.936 400.546 223.725 401.077 224.755C401.607 225.786 401.873 227.018 401.873 228.453C401.873 229.892 401.605 231.129 401.07 232.164C400.539 233.198 399.772 233.992 398.769 234.546C397.77 235.099 396.569 235.375 395.166 235.375ZM392.987 233.21H395.045C396.007 233.21 396.81 233.034 397.453 232.683C398.097 232.328 398.58 231.799 398.904 231.098C399.228 230.392 399.39 229.51 399.39 228.453C399.39 227.396 399.228 226.519 398.904 225.822C398.58 225.12 398.101 224.596 397.467 224.249C396.837 223.899 396.054 223.723 395.119 223.723H392.987V233.21ZM408.731 235.578C407.692 235.578 406.795 235.362 406.039 234.93C405.288 234.494 404.71 233.878 404.305 233.081C403.9 232.281 403.698 231.338 403.698 230.254C403.698 229.188 403.9 228.253 404.305 227.448C404.714 226.638 405.286 226.008 406.019 225.558C406.752 225.104 407.613 224.877 408.603 224.877C409.242 224.877 409.845 224.98 410.411 225.187C410.983 225.39 411.486 225.705 411.923 226.132C412.363 226.559 412.71 227.103 412.962 227.765C413.214 228.421 413.34 229.204 413.34 230.113V230.862H404.845V229.215H410.998C410.994 228.748 410.893 228.331 410.695 227.967C410.497 227.598 410.22 227.308 409.865 227.097C409.514 226.885 409.105 226.78 408.637 226.78C408.137 226.78 407.699 226.901 407.321 227.144C406.943 227.382 406.649 227.697 406.437 228.089C406.23 228.475 406.125 228.9 406.12 229.364V230.801C406.12 231.404 406.23 231.921 406.451 232.353C406.671 232.78 406.979 233.108 407.375 233.338C407.771 233.563 408.234 233.675 408.765 233.675C409.12 233.675 409.442 233.626 409.73 233.527C410.018 233.423 410.267 233.273 410.479 233.075C410.69 232.877 410.85 232.632 410.958 232.339L413.238 232.596C413.094 233.198 412.82 233.725 412.415 234.174C412.015 234.62 411.502 234.966 410.877 235.214C410.252 235.456 409.536 235.578 408.731 235.578ZM417.848 221.557V235.375H415.406V221.557H417.848ZM423.342 235.585C422.685 235.585 422.094 235.468 421.568 235.234C421.046 234.995 420.632 234.645 420.326 234.181C420.025 233.718 419.874 233.147 419.874 232.467C419.874 231.883 419.982 231.399 420.198 231.017C420.414 230.634 420.709 230.329 421.082 230.099C421.455 229.87 421.876 229.697 422.344 229.58C422.816 229.458 423.304 229.371 423.808 229.317C424.415 229.254 424.908 229.197 425.285 229.148C425.663 229.094 425.938 229.013 426.109 228.905C426.284 228.793 426.372 228.619 426.372 228.385V228.345C426.372 227.837 426.221 227.443 425.92 227.164C425.618 226.885 425.184 226.746 424.617 226.746C424.019 226.746 423.545 226.876 423.194 227.137C422.847 227.398 422.614 227.706 422.492 228.062L420.212 227.738C420.391 227.108 420.688 226.582 421.102 226.159C421.516 225.732 422.022 225.412 422.62 225.201C423.218 224.985 423.88 224.877 424.604 224.877C425.103 224.877 425.6 224.935 426.095 225.052C426.59 225.169 427.042 225.363 427.451 225.633C427.861 225.898 428.189 226.26 428.436 226.719C428.688 227.178 428.814 227.751 428.814 228.439V235.375H426.466V233.952H426.385C426.237 234.24 426.028 234.51 425.758 234.761C425.492 235.009 425.157 235.209 424.752 235.362C424.352 235.51 423.882 235.585 423.342 235.585ZM423.976 233.79C424.467 233.79 424.892 233.693 425.252 233.5C425.611 233.302 425.888 233.041 426.082 232.717C426.279 232.393 426.378 232.04 426.378 231.658V230.437C426.302 230.5 426.172 230.558 425.987 230.612C425.807 230.666 425.605 230.713 425.38 230.754C425.155 230.794 424.932 230.83 424.712 230.862C424.491 230.893 424.3 230.92 424.138 230.943C423.774 230.992 423.448 231.073 423.16 231.186C422.872 231.298 422.645 231.455 422.479 231.658C422.312 231.856 422.229 232.112 422.229 232.427C422.229 232.877 422.393 233.216 422.721 233.446C423.05 233.675 423.468 233.79 423.976 233.79ZM432.417 239.262C432.084 239.262 431.776 239.235 431.493 239.181C431.214 239.131 430.991 239.073 430.825 239.005L431.392 237.103C431.747 237.206 432.064 237.256 432.343 237.251C432.622 237.247 432.867 237.159 433.078 236.988C433.294 236.822 433.476 236.543 433.625 236.151L433.834 235.591L430.076 225.012H432.667L435.055 232.839H435.163L437.558 225.012H440.156L436.007 236.63C435.813 237.179 435.557 237.649 435.237 238.041C434.918 238.436 434.527 238.738 434.063 238.945C433.605 239.156 433.056 239.262 432.417 239.262Z" fill="#888888"/>
<defs>
<linearGradient id="paint0_linear_242_7" x1="-1.00334" y1="69.8986" x2="256.239" y2="28.1337" gradientUnits="userSpaceOnUse">
<stop stop-color="#D84896"/>
<stop offset="1" stop-color="#2F67FF"/>
</linearGradient>
<linearGradient id="paint1_linear_242_7" x1="408.4" y1="69.8986" x2="543.685" y2="58.5651" gradientUnits="userSpaceOnUse">
<stop stop-color="#50C8A7"/>
<stop offset="1" stop-color="#1D9587"/>
</linearGradient>
<linearGradient id="paint2_linear_242_7" x1="738.279" y1="69.8986" x2="873.564" y2="58.5651" gradientUnits="userSpaceOnUse">
<stop stop-color="#50C8A7"/>
<stop offset="1" stop-color="#1D9587"/>
</linearGradient>
<linearGradient id="paint3_linear_242_7" x1="150.296" y1="35.3716" x2="78.4993" y2="40.6641" gradientUnits="userSpaceOnUse">
<stop stop-color="#FF5F9B"/>
<stop offset="1" stop-color="#2F67FF"/>
</linearGradient>
<linearGradient id="paint4_linear_242_7" x1="497.927" y1="35.5334" x2="451.21" y2="37.7672" gradientUnits="userSpaceOnUse">
<stop stop-color="#50C8A7"/>
<stop offset="1" stop-color="#83DB95"/>
</linearGradient>
<linearGradient id="paint5_linear_242_7" x1="829.746" y1="35.5334" x2="781.092" y2="37.9568" gradientUnits="userSpaceOnUse">
<stop stop-color="#50C8A7"/>
<stop offset="1" stop-color="#83DB95"/>
</linearGradient>
<linearGradient id="paint6_linear_242_7" x1="166.187" y1="27.6097" x2="166.187" y2="43.4568" gradientUnits="userSpaceOnUse">
<stop stop-color="#D84896"/>
<stop offset="1" stop-color="#2F67FF"/>
</linearGradient>
</defs>
</svg>
