<svg xmlns="http://www.w3.org/2000/svg" width="874" height="244" fill="none" xmlns:v="https://vecta.io/nano"><g fill="#fff" stroke-width=".4"><rect x="135.092" y=".923" width="142.6" height="59.6" rx="13.8" stroke="url(#A)"/><rect x="622.092" y=".923" width="74.6" height="59.6" rx="13.8" stroke="url(#B)"/><rect x="400.092" y=".923" width="74.6" height="59.6" rx="13.8" stroke="url(#C)"/><rect x="1.092" y=".923" width="85.6" height="59.6" rx="13.8" stroke="url(#D)"/><rect x="760.092" y=".923" width="113.6" height="59.6" rx="13.8" stroke="url(#E)"/></g><path d="M176.559 23.723h2.899v10.453c0 1.146-.271 2.154-.813 3.023-.536.87-1.291 1.55-2.265 2.039-.974.484-2.112.727-3.414.727-1.308 0-2.448-.242-3.422-.727-.974-.49-1.729-1.169-2.266-2.039s-.805-1.878-.805-3.023V23.723h2.899v10.211c0 .667.146 1.26.437 1.781.297.521.714.93 1.25 1.227.537.292 1.172.438 1.907.438s1.369-.146 1.906-.437a3.12 3.12 0 0 0 1.25-1.227c.291-.521.437-1.115.437-1.781V23.723zm5.924 20.5v-16.5h2.781v1.984h.164c.146-.292.352-.601.618-.93.265-.333.625-.617 1.078-.851.453-.24 1.031-.359 1.734-.359.927 0 1.763.237 2.508.711.75.469 1.344 1.164 1.781 2.086.443.917.664 2.042.664 3.375 0 1.318-.216 2.438-.648 3.359s-1.021 1.625-1.766 2.109-1.588.727-2.531.727c-.688 0-1.258-.115-1.711-.344s-.818-.505-1.094-.828c-.271-.328-.481-.638-.633-.93h-.117v6.391h-2.828zm2.774-10.5c0 .776.109 1.456.328 2.039s.544 1.039.961 1.367c.422.323.932.484 1.531.484.625 0 1.148-.167 1.57-.5.422-.339.74-.799.953-1.383.219-.589.328-1.258.328-2.008 0-.745-.106-1.406-.32-1.984s-.531-1.031-.953-1.359-.948-.492-1.578-.492c-.604 0-1.117.159-1.539.477s-.742.763-.961 1.336-.32 1.247-.32 2.023zm13.804-10v16h-2.828v-16h2.828zm2.908 16v-12h2.829v12h-2.829zm1.422-13.703a1.65 1.65 0 0 1-1.156-.445c-.323-.302-.484-.664-.484-1.086 0-.427.161-.789.484-1.086.323-.302.708-.453 1.156-.453.453 0 .839.151 1.157.453.323.297.484.659.484 1.086 0 .422-.161.784-.484 1.086-.318.297-.704.445-1.157.445zm7.143 6.672v7.031h-2.828v-12h2.703v2.039h.141a3.43 3.43 0 0 1 1.32-1.602c.609-.396 1.362-.594 2.258-.594.828 0 1.549.177 2.164.531s1.099.867 1.437 1.539c.344.672.513 1.487.508 2.445v7.641h-2.828V32.52c0-.802-.208-1.43-.625-1.883-.412-.453-.982-.68-1.711-.68-.495 0-.935.109-1.32.328-.381.214-.68.524-.899.93-.213.406-.32.898-.32 1.477zm13.156 3.266l-.008-3.414h.453l4.313-4.82h3.305l-5.305 5.906h-.586l-2.172 2.328zm-2.578 3.766v-16h2.828v16h-2.828zm7.531 0l-3.906-5.461 1.906-1.992 5.383 7.453h-3.383z" fill="url(#F)"/><path d="M417.036 39.723v-16h6c1.229 0 2.26.214 3.094.641s1.471 1.026 1.898 1.797c.432.766.649 1.659.649 2.68 0 1.026-.219 1.917-.657 2.672-.432.75-1.07 1.331-1.914 1.742-.844.406-1.88.609-3.109.609h-4.274v-2.406h3.883c.719 0 1.307-.099 1.766-.297.458-.203.797-.497 1.015-.883.224-.391.336-.87.336-1.437s-.112-1.052-.336-1.453c-.224-.406-.565-.713-1.023-.922-.458-.213-1.049-.32-1.773-.32h-2.657v13.578h-2.898zm8.266-7.25l3.96 7.25h-3.234l-3.891-7.25h3.165zm8.23-4.75l2.422 4.43 2.461-4.43h2.992l-3.617 6 3.679 6h-2.976l-2.539-4.32-2.516 4.32h-3l3.656-6-3.562-6h3zm21.996-4v16h-2.898v-13.18h-.094l-3.742 2.391v-2.656l3.976-2.555h2.758z" fill="url(#G)"/><path d="M23.47 39.723v-16h6c1.229 0 2.26.229 3.094.688.839.458 1.471 1.089 1.898 1.891.432.797.648 1.703.648 2.719 0 1.026-.216 1.938-.648 2.734s-1.07 1.424-1.914 1.883c-.844.453-1.883.68-3.117.68h-3.977v-2.383h3.586c.719 0 1.307-.125 1.766-.375s.797-.594 1.016-1.031c.224-.437.336-.94.336-1.508s-.112-1.068-.336-1.5c-.219-.432-.56-.768-1.023-1.008-.458-.245-1.049-.367-1.773-.367h-2.656v13.578H23.47zm14.033 0v-12h2.828v12h-2.828zm1.422-13.703a1.65 1.65 0 0 1-1.156-.445c-.323-.302-.484-.664-.484-1.086a1.42 1.42 0 0 1 .484-1.086c.323-.302.708-.453 1.156-.453.453 0 .839.151 1.156.453a1.42 1.42 0 0 1 .484 1.086c0 .422-.161.784-.484 1.086a1.63 1.63 0 0 1-1.156.445zm7.143 6.672v7.031H43.24v-12h2.703v2.039h.141a3.43 3.43 0 0 1 1.32-1.602c.609-.396 1.362-.594 2.258-.594.828 0 1.55.177 2.164.531.62.354 1.099.867 1.438 1.539.344.672.513 1.487.508 2.445v7.641h-2.828V32.52c0-.802-.208-1.43-.625-1.883-.412-.453-.982-.68-1.711-.68-.495 0-.935.109-1.32.328-.38.214-.68.524-.898.93-.214.406-.32.898-.32 1.477zm15.797 11.781c-1.016 0-1.888-.138-2.617-.414-.729-.271-1.315-.635-1.758-1.094s-.75-.966-.922-1.523l2.547-.617a2.8 2.8 0 0 0 .5.695c.219.234.513.427.883.578.375.156.846.234 1.414.234.802 0 1.466-.195 1.992-.586.526-.385.789-1.021.789-1.906v-2.273h-.141c-.146.292-.359.591-.641.898-.276.307-.643.565-1.102.773-.453.208-1.023.313-1.711.313a4.93 4.93 0 0 1-2.508-.648c-.745-.437-1.338-1.088-1.781-1.953-.437-.87-.656-1.958-.656-3.266 0-1.318.219-2.43.656-3.336.443-.911 1.039-1.601 1.789-2.07.75-.474 1.586-.711 2.508-.711.703 0 1.281.12 1.734.359.458.234.823.518 1.094.851.271.328.477.638.617.93h.156v-1.984h2.789v12.195c0 1.026-.245 1.875-.734 2.547s-1.159 1.175-2.008 1.508-1.812.5-2.891.5zm.023-7.141c.599 0 1.109-.146 1.531-.437s.742-.711.961-1.258.328-1.203.328-1.969c0-.755-.109-1.417-.328-1.984-.214-.568-.531-1.008-.953-1.32-.417-.318-.93-.477-1.539-.477-.63 0-1.156.164-1.578.492s-.74.779-.953 1.352c-.214.568-.32 1.213-.32 1.938 0 .734.107 1.378.32 1.93.219.547.539.974.961 1.281.427.302.95.453 1.57.453z" fill="url(#H)"/><path d="M777.892 39.723v-16h6.125c1.156 0 2.117.182 2.882.547.771.359 1.347.852 1.727 1.477s.578 1.333.578 2.125c0 .651-.125 1.208-.375 1.672-.25.458-.586.831-1.008 1.117s-.893.492-1.414.617v.156c.568.031 1.112.206 1.633.523.526.313.956.755 1.289 1.328s.5 1.266.5 2.078c0 .828-.2 1.573-.601 2.234-.402.656-1.006 1.174-1.813 1.555s-1.823.57-3.047.57h-6.476zm2.898-2.422h3.117c1.052 0 1.81-.201 2.274-.602.468-.406.703-.927.703-1.562 0-.474-.117-.901-.352-1.281-.234-.386-.567-.687-1-.906-.432-.224-.948-.336-1.547-.336h-3.195v4.688zm0-6.773h2.867c.5 0 .951-.091 1.352-.273.401-.187.716-.451.945-.789.234-.344.352-.75.352-1.219 0-.62-.219-1.13-.657-1.531-.432-.401-1.075-.601-1.929-.601h-2.93v4.414zm16.748 9.43c-1.203 0-2.242-.25-3.117-.75a5.08 5.08 0 0 1-2.008-2.141c-.469-.927-.703-2.018-.703-3.273 0-1.234.234-2.318.703-3.25.474-.937 1.136-1.667 1.984-2.187.849-.526 1.847-.789 2.993-.789.739 0 1.437.12 2.093.359.662.234 1.245.599 1.75 1.094.511.495.912 1.125 1.204 1.891.291.761.437 1.667.437 2.719v.867h-9.836V32.59h7.125c-.005-.542-.122-1.023-.351-1.445-.23-.427-.55-.763-.961-1.008s-.881-.367-1.422-.367c-.578 0-1.086.141-1.524.422a2.91 2.91 0 0 0-1.023 1.094 3.14 3.14 0 0 0-.367 1.477v1.664c0 .698.127 1.297.382 1.797.256.495.612.875 1.071 1.141.458.26.995.391 1.609.391.412 0 .784-.057 1.117-.172a2.48 2.48 0 0 0 .868-.523c.244-.229.429-.513.554-.852l2.641.297c-.167.698-.485 1.307-.953 1.828-.464.516-1.058.917-1.782 1.203-.723.281-1.552.422-2.484.422zm11.182.008c-.761 0-1.446-.135-2.055-.406a3.35 3.35 0 0 1-1.437-1.219c-.349-.536-.524-1.198-.524-1.984 0-.677.125-1.237.375-1.68a2.9 2.9 0 0 1 1.024-1.062c.432-.266.919-.466 1.46-.602a11.88 11.88 0 0 1 1.696-.305l1.711-.195c.437-.062.755-.156.953-.281.203-.13.305-.331.305-.602v-.047c0-.588-.175-1.044-.524-1.367s-.851-.484-1.508-.484c-.692 0-1.242.151-1.648.453s-.672.659-.813 1.07l-2.64-.375c.208-.729.552-1.338 1.031-1.828.479-.495 1.065-.865 1.758-1.109.692-.25 1.458-.375 2.297-.375a7.48 7.48 0 0 1 1.726.203 4.86 4.86 0 0 1 1.571.672c.473.307.854.727 1.14 1.258.292.531.438 1.195.438 1.992v8.031h-2.719v-1.648h-.094c-.172.333-.414.646-.726.938-.308.286-.696.518-1.164.695-.464.172-1.008.258-1.633.258zm.734-2.078c.568 0 1.06-.112 1.477-.336.416-.229.737-.531.961-.906a2.31 2.31 0 0 0 .343-1.227v-1.414c-.088.073-.239.141-.453.203-.208.063-.442.117-.703.164l-.773.125-.664.094c-.422.057-.8.151-1.133.281s-.597.313-.789.547c-.193.229-.289.526-.289.891 0 .521.19.914.57 1.18s.865.398 1.453.398zm13.68 2.07c-1.198 0-2.227-.263-3.086-.789s-1.513-1.253-1.977-2.18c-.458-.932-.687-2.005-.687-3.219 0-1.219.234-2.294.703-3.227.469-.937 1.13-1.667 1.984-2.187.86-.526 1.875-.789 3.047-.789.974 0 1.836.18 2.586.539.755.354 1.357.857 1.805 1.508.448.646.703 1.401.765 2.266h-2.703c-.109-.578-.37-1.06-.781-1.445-.406-.391-.95-.586-1.633-.586-.578 0-1.086.156-1.523.469-.438.307-.779.75-1.024 1.328-.239.578-.359 1.271-.359 2.078 0 .818.12 1.521.359 2.109.24.583.576 1.034 1.008 1.352a2.58 2.58 0 0 0 1.539.469c.417 0 .789-.078 1.117-.234a2.24 2.24 0 0 0 .836-.695c.224-.302.378-.669.461-1.102h2.703c-.067.849-.317 1.602-.75 2.258-.432.651-1.02 1.162-1.765 1.531-.745.365-1.62.547-2.625.547zm12.697 0c-1.172 0-2.187-.258-3.047-.773s-1.526-1.237-2-2.164c-.469-.927-.703-2.01-.703-3.25s.234-2.326.703-3.258c.474-.932 1.141-1.656 2-2.172s1.875-.773 3.047-.773 2.188.258 3.047.773 1.523 1.24 1.992 2.172.711 2.018.711 3.258-.237 2.323-.711 3.25-1.133 1.648-1.992 2.164-1.875.773-3.047.773zm.016-2.266c.635 0 1.166-.174 1.593-.523.428-.354.745-.828.954-1.422s.32-1.255.32-1.984c0-.734-.107-1.398-.32-1.992-.209-.599-.526-1.075-.954-1.43s-.958-.531-1.593-.531c-.651 0-1.193.177-1.625.531s-.748.831-.961 1.43c-.209.594-.313 1.258-.313 1.992 0 .729.104 1.391.313 1.984s.534 1.068.961 1.422c.432.349.974.523 1.625.523zm10.963-5v7.031h-2.829v-12h2.704v2.039h.14c.276-.672.716-1.206 1.321-1.602s1.361-.594 2.257-.594c.828 0 1.55.177 2.164.531a3.58 3.58 0 0 1 1.438 1.539c.344.672.513 1.487.508 2.445v7.641h-2.828V32.52c0-.802-.209-1.43-.625-1.883s-.982-.68-1.711-.68c-.495 0-.935.109-1.321.328-.38.214-.679.524-.898.93-.214.406-.32.898-.32 1.477z" fill="url(#I)"/><path d="M640.109 39.723v-16h6c1.23 0 2.261.214 3.094.641.839.427 1.471 1.026 1.899 1.797.432.766.648 1.659.648 2.68 0 1.026-.219 1.917-.656 2.672-.433.75-1.071 1.331-1.914 1.742-.844.406-1.881.609-3.11.609h-4.273v-2.406h3.883c.718 0 1.307-.099 1.765-.297.459-.203.797-.497 1.016-.883.224-.391.336-.87.336-1.437s-.112-1.052-.336-1.453c-.224-.406-.565-.713-1.023-.922-.459-.213-1.05-.32-1.774-.32h-2.656v13.578h-2.899zm8.266-7.25l3.961 7.25h-3.234l-3.891-7.25h3.164zm8.23-4.75l2.422 4.43 2.461-4.43h2.992l-3.617 6 3.68 6h-2.977l-2.539-4.32-2.515 4.32h-3l3.656-6-3.563-6h3zm15.489 12v-2.094l5.554-5.445 1.329-1.43c.354-.417.619-.82.796-1.211a2.98 2.98 0 0 0 .266-1.25c0-.505-.115-.937-.344-1.297-.229-.365-.544-.646-.945-.844s-.857-.297-1.367-.297c-.526 0-.987.109-1.383.328a2.26 2.26 0 0 0-.922.914c-.213.396-.32.867-.32 1.414H672c0-1.016.232-1.898.695-2.648s1.102-1.331 1.914-1.742c.818-.412 1.756-.617 2.813-.617 1.073 0 2.016.2 2.828.602s1.443.95 1.891 1.648c.453.698.679 1.495.679 2.391 0 .599-.114 1.188-.343 1.766s-.633 1.219-1.211 1.922c-.573.703-1.378 1.555-2.414 2.555l-2.758 2.805v.109h6.969v2.422h-10.969z" fill="url(#J)"/><path d="M244.892 25.109a2 2 0 0 0-1.4.59l-4.3 4.29a1 1 0 0 0 0 1.41 1 1 0 0 0 .326.219c.121.051.252.077.384.077s.263-.026.385-.077a1 1 0 0 0 .325-.219l3.28-3.29v10a1 1 0 0 0 1 1 1 1 0 0 0 1-1v-10l3.29 3.29a1 1 0 0 0 1.415.005c.188-.187.295-.441.296-.707a1 1 0 0 0-.291-.708l-4.3-4.29a2 2 0 0 0-1.41-.59z" fill="url(#K)"/><g stroke="#b4b4b4" stroke-width=".8" stroke-dasharray="1.8 1.8"><use href="#L"/><use href="#L" x="-191"/><use href="#L" x="-277"/><use href="#L" x="197"/><use href="#L" x="417"/></g><path d="M87.609 157.44a.4.4 0 0 0 0 .566l2.546 2.546a.4.4 0 1 0 .566-.566l-2.263-2.263 2.263-2.263a.4.4 0 0 0 0-.565.4.4 0 0 0-.566 0l-2.546 2.545zm189.566.566a.4.4 0 0 0 0-.566l-2.546-2.545a.4.4 0 0 0-.565 0c-.157.156-.157.409 0 .565l2.262 2.263-2.262 2.263a.4.4 0 0 0 0 .566.4.4 0 0 0 .565 0l2.546-2.546zm-189.283-.283v.4h189v-.4-.4h-189v.4zM.609 157.44a.4.4 0 0 0 0 .566l2.546 2.546a.4.4 0 1 0 .566-.566l-2.263-2.263 2.263-2.263a.4.4 0 0 0 0-.565.4.4 0 0 0-.566 0L.609 157.44zm85.566.566a.4.4 0 0 0 0-.566l-2.545-2.545a.4.4 0 0 0-.566 0 .4.4 0 0 0 0 .565l2.263 2.263-2.263 2.263a.4.4 0 1 0 .566.566l2.545-2.546zm-85.283-.283v.4h85v-.4-.4h-85v.4zm278.717-.283a.4.4 0 0 0 0 .566l2.546 2.546a.4.4 0 0 0 .566-.566l-2.263-2.263 2.263-2.263a.4.4 0 0 0 0-.565.4.4 0 0 0-.566 0l-2.546 2.545zm194.566.566a.4.4 0 0 0 0-.566l-2.546-2.545a.4.4 0 0 0-.565 0c-.157.156-.157.409 0 .565l2.262 2.263-2.262 2.263a.4.4 0 0 0 0 .566.4.4 0 0 0 .565 0l2.546-2.546zm-194.283-.283v.4h194v-.4-.4h-194v.4zm-.283 67.717a.4.4 0 0 0 0 .566l2.546 2.546a.4.4 0 0 0 .566-.566l-2.263-2.263 2.263-2.263a.4.4 0 0 0 0-.565.4.4 0 0 0-.566 0l-2.546 2.545zm414.566.566a.4.4 0 0 0 0-.566l-2.546-2.545a.4.4 0 0 0-.565 0c-.157.156-.157.409 0 .565l2.262 2.263-2.262 2.263a.4.4 0 0 0 0 .566.4.4 0 0 0 .565 0l2.546-2.546zm-414.283-.283v.4h414v-.4-.4h-414v.4z" fill="#fcacac"/><path d="M148.108 127.087c0 .783-.147 1.455-.44 2.013s-.689.983-1.194 1.279-1.071.444-1.708.444-1.207-.148-1.711-.444-.9-.726-1.193-1.282-.437-1.229-.437-2.01.145-1.454.437-2.01a3.15 3.15 0 0 1 1.193-1.282c.502-.296 1.075-.444 1.711-.444s1.207.148 1.708.444a3.14 3.14 0 0 1 1.194 1.282c.292.559.44 1.226.44 2.01zm-1.325 0c0-.552-.086-1.017-.259-1.396s-.407-.669-.71-.863-.652-.294-1.048-.294-.744.098-1.047.294-.541.482-.714.863-.256.844-.256 1.396.086 1.018.256 1.399.411.666.714.863.652.291 1.047.291a1.9 1.9 0 0 0 1.048-.291c.303-.197.54-.484.71-.863s.259-.848.259-1.399zm3.799.44v3.196h-1.285v-5.454h1.228v.926h.064c.126-.305.326-.548.6-.728s.62-.269 1.027-.269c.376 0 .704.08.983.241s.5.394.654.7.233.676.231 1.111v3.473h-1.286v-3.274c0-.365-.095-.65-.284-.856s-.446-.309-.778-.309c-.225 0-.425.05-.6.149s-.309.238-.408.423-.146.408-.146.671zm8.28 3.196h-1.407l2.561-7.273h1.626l2.564 7.273H162.8l-1.943-5.781h-.056l-1.939 5.781zm.046-2.851h3.835v1.058h-3.835v-1.058zm6.238 2.851v-5.454h1.286v5.454h-1.286zm.647-6.229a.75.75 0 0 1-.526-.202.65.65 0 0 1-.22-.494c0-.194.073-.358.22-.493s.322-.206.526-.206.381.069.525.206.22.299.22.493a.65.65 0 0 1-.22.494.74.74 0 0 1-.525.202zm1.961 6.229v-5.454H169v.909h.057c.099-.315.27-.558.511-.728a1.42 1.42 0 0 1 .835-.26l.238.011c.09.005.164.013.224.025v1.183c-.055-.019-.141-.036-.26-.05a2.32 2.32 0 0 0-.337-.025 1.3 1.3 0 0 0-.632.153 1.12 1.12 0 0 0-.437.415c-.106.178-.16.382-.16.614v3.207h-1.285zm6.182-6.168v-1.105h5.803v1.105h-2.248v6.168h-1.307v-6.168h-2.248zm6.865 6.168v-5.454h1.285v5.454h-1.285zm.646-6.229a.75.75 0 0 1-.526-.202c-.146-.137-.22-.302-.22-.494a.65.65 0 0 1 .22-.493.75.75 0 0 1 .526-.206.74.74 0 0 1 .526.206c.145.137.22.299.22.493a.65.65 0 0 1-.22.494c-.146.137-.32.202-.526.202zm1.961 6.229v-5.454h1.229v.926h.064c.113-.312.302-.556.564-.731s.577-.266.941-.266c.37 0 .681.09.934.269s.436.421.54.728h.057a1.49 1.49 0 0 1 .611-.724c.289-.182.631-.273 1.026-.273.502 0 .911.158 1.229.475s.476.78.476 1.389v3.661h-1.29v-3.462c0-.339-.089-.586-.269-.742s-.401-.238-.661-.238c-.31 0-.553.097-.728.291s-.259.441-.259.749v3.402h-1.261v-3.515c0-.282-.085-.507-.255-.675s-.389-.252-.661-.252c-.185 0-.353.047-.504.142a1 1 0 0 0-.362.394c-.089.171-.135.364-.135.589v3.317h-1.286zm11.389.107c-.546 0-1.019-.114-1.416-.341s-.7-.554-.913-.973-.32-.918-.32-1.488c0-.561.107-1.054.32-1.477a2.41 2.41 0 0 1 .902-.995c.386-.239.839-.358 1.36-.358.336 0 .653.054.952.163a2.15 2.15 0 0 1 .795.497c.232.225.414.511.547.859s.199.758.199 1.236v.394h-4.471v-.866h3.239c-.003-.246-.056-.465-.16-.657a1.16 1.16 0 0 0-.437-.458 1.23 1.23 0 0 0-.646-.167c-.263 0-.494.064-.693.192s-.354.291-.465.497a1.42 1.42 0 0 0-.167.671v.756c0 .318.058.59.174.817a1.24 1.24 0 0 0 .487.519c.208.118.452.177.731.177.187 0 .357-.026.508-.078s.283-.134.394-.238.196-.233.252-.387l1.201.135a1.88 1.88 0 0 1-.434.831c-.21.234-.48.417-.809.547a3.06 3.06 0 0 1-1.13.192zm-185.188-.107v-7.273h2.727c.559 0 1.027.105 1.406.313s.669.495.863.859.295.774.295 1.236-.098.881-.295 1.243a2.11 2.11 0 0 1-.87.856c-.383.206-.856.309-1.417.309h-1.807v-1.083h1.63c.327 0 .594-.057.802-.171a1.07 1.07 0 0 0 .462-.469 1.48 1.48 0 0 0 .153-.685c0-.258-.051-.485-.153-.682a1.04 1.04 0 0 0-.465-.458c-.208-.111-.477-.167-.806-.167h-1.207v6.172H9.609zm6.379 0v-5.454h1.286v5.454h-1.286zm.646-6.229a.75.75 0 0 1-.526-.202.65.65 0 0 1-.22-.494c0-.194.073-.358.22-.493s.322-.206.526-.206a.74.74 0 0 1 .526.206c.145.137.22.299.22.493a.65.65 0 0 1-.22.494.74.74 0 0 1-.526.202zm3.247 3.033v3.196h-1.285v-5.454h1.229v.926h.064a1.56 1.56 0 0 1 .6-.728c.277-.179.619-.269 1.026-.269.376 0 .704.08.984.241a1.63 1.63 0 0 1 .653.7c.153.306.233.676.231 1.111v3.473h-1.285v-3.274c0-.365-.095-.65-.284-.856s-.446-.309-.778-.309c-.225 0-.425.05-.6.149a1.03 1.03 0 0 0-.408.423c-.097.185-.146.408-.146.671zm7.18 5.355c-.462 0-.858-.063-1.19-.188s-.598-.289-.799-.497-.341-.439-.419-.693l1.158-.28a1.28 1.28 0 0 0 .227.316c.099.106.233.194.401.263s.385.106.643.106c.365 0 .666-.089.906-.266s.359-.464.359-.867v-1.033h-.064a1.8 1.8 0 0 1-.291.408 1.49 1.49 0 0 1-.501.352c-.206.095-.465.142-.778.142-.419 0-.799-.098-1.14-.295s-.608-.495-.81-.888-.298-.89-.298-1.484.099-1.104.298-1.516.472-.728.813-.941a2.11 2.11 0 0 1 1.14-.323c.32 0 .582.054.788.163a1.57 1.57 0 0 1 .497.387 2.22 2.22 0 0 1 .281.423h.071v-.902h1.268v5.543c0 .466-.111.852-.334 1.158s-.527.533-.913.685-.824.227-1.314.227zm.011-3.246c.272 0 .504-.066.696-.198a1.23 1.23 0 0 0 .437-.572c.1-.249.149-.547.149-.895a2.5 2.5 0 0 0-.149-.902c-.097-.258-.241-.458-.433-.6s-.423-.217-.7-.217c-.286 0-.525.075-.717.224s-.336.354-.433.614a2.49 2.49 0 0 0-.146.881c0 .334.049.626.146.877s.245.443.437.583.432.205.714.205zm10.357-4.186a.97.97 0 0 0-.419-.725c-.244-.173-.561-.259-.952-.259-.275 0-.51.041-.707.124s-.347.196-.451.338a.82.82 0 0 0-.16.486.73.73 0 0 0 .103.394.93.93 0 0 0 .288.284 2.01 2.01 0 0 0 .401.192 4.5 4.5 0 0 0 .444.132l.682.17c.275.064.539.15.792.259a2.86 2.86 0 0 1 .685.412c.201.165.365.366.483.6a1.81 1.81 0 0 1 .178.824 1.97 1.97 0 0 1-.327 1.126c-.218.324-.533.574-.945.756s-.906.27-1.488.27c-.566 0-1.057-.087-1.474-.263s-.739-.43-.973-.767-.357-.745-.376-1.228h1.296c.019.253.097.464.234.632a1.24 1.24 0 0 0 .536.376 2.12 2.12 0 0 0 .746.125c.287 0 .537-.043.753-.128s.388-.209.511-.363a.87.87 0 0 0 .188-.546c-.002-.19-.058-.346-.167-.469a1.22 1.22 0 0 0-.458-.313 4.41 4.41 0 0 0-.682-.227l-.827-.213c-.599-.154-1.072-.387-1.42-.7s-.519-.732-.519-1.253c0-.429.116-.804.348-1.126s.553-.572.955-.749.858-.27 1.367-.27c.516 0 .968.09 1.357.27s.697.425.92.742.337.677.345 1.087h-1.268zm3.77-2v7.273h-1.285v-7.273h1.285zm3.701 7.38c-.533 0-.994-.118-1.385-.352a2.38 2.38 0 0 1-.909-.984c-.213-.421-.32-.913-.32-1.477s.107-1.057.32-1.481a2.39 2.39 0 0 1 .909-.987c.391-.234.852-.351 1.385-.351s.994.117 1.385.351.692.564.905.987.323.918.323 1.481-.108 1.056-.323 1.477a2.36 2.36 0 0 1-.905.984c-.391.234-.852.352-1.385.352zm.007-1.03c.289 0 .53-.079.724-.238s.339-.376.433-.646a2.73 2.73 0 0 0 .146-.902c0-.331-.049-.636-.146-.906s-.239-.489-.433-.65-.436-.241-.724-.241c-.296 0-.542.08-.739.241a1.46 1.46 0 0 0-.437.65c-.095.27-.142.572-.142.906s.047.632.142.902.243.485.437.646.443.238.739.238zm6.421-4.531v.994h-3.136v-.994h3.136zm-2.361-1.307h1.286v5.121c0 .172.026.305.078.397a.42.42 0 0 0 .213.185.82.82 0 0 0 .291.05 1.24 1.24 0 0 0 .22-.018l.156-.032.217 1.005c-.069.024-.167.05-.295.078a2.49 2.49 0 0 1-.462.05c-.322.009-.612-.039-.87-.146a1.34 1.34 0 0 1-.614-.504c-.151-.227-.222-.512-.22-.852v-5.334zm294.642 6.761v-7.273h2.728c.558 0 1.027.097 1.406.292s.669.466.863.816.295.754.295 1.218-.1.872-.299 1.215-.486.605-.87.792-.854.277-1.413.277h-1.943v-1.094h1.765c.327 0 .595-.045.803-.135s.362-.226.462-.401a1.31 1.31 0 0 0 .152-.654c0-.258-.051-.478-.152-.66a.97.97 0 0 0-.466-.419c-.208-.097-.477-.146-.806-.146h-1.207v6.172h-1.318zm3.758-3.295l1.8 3.295h-1.47l-1.769-3.295h1.439zm3.741-2.159l1.1 2.013 1.119-2.013h1.36l-1.644 2.727 1.673 2.727h-1.353l-1.155-1.964-1.143 1.964h-1.364l1.662-2.727-1.619-2.727h1.364zm9.998-1.819v7.273h-1.318v-5.991h-.042l-1.701 1.087v-1.207l1.807-1.162h1.254zm6.862 7.273h-2.464v-7.273h2.514c.722 0 1.342.146 1.861.437a2.92 2.92 0 0 1 1.2 1.247c.28.542.419 1.19.419 1.946s-.141 1.408-.422 1.953-.683.962-1.211 1.253-1.158.437-1.897.437zm-1.147-1.14h1.084c.506 0 .929-.092 1.267-.277a1.77 1.77 0 0 0 .764-.834c.171-.369.255-.836.255-1.392s-.085-1.018-.255-1.385-.423-.645-.757-.828-.743-.277-1.235-.277h-1.123v4.993zm8.287 1.247c-.547 0-1.019-.114-1.417-.341a2.32 2.32 0 0 1-.913-.973c-.213-.422-.319-.918-.319-1.488 0-.561.106-1.054.319-1.477a2.43 2.43 0 0 1 .902-.995c.385-.237.84-.358 1.361-.358.336 0 .653.054.951.163a2.21 2.21 0 0 1 .796.497c.23.225.414.511.547.859s.198.758.198 1.236v.394h-4.47v-.866h3.238a1.37 1.37 0 0 0-.16-.657 1.16 1.16 0 0 0-.436-.458c-.185-.111-.401-.167-.647-.167a1.25 1.25 0 0 0-.692.192c-.199.125-.354.291-.465.497s-.165.427-.167.671v.756c0 .318.058.59.174.817s.278.398.486.519.452.177.732.177a1.56 1.56 0 0 0 .508-.078c.151-.054.282-.134.394-.238s.195-.233.252-.387l1.2.135c-.076.317-.22.594-.433.831a2.1 2.1 0 0 1-.81.547c-.329.13-.705.192-1.129.192zm4.798-7.38v7.273h-1.285v-7.273h1.285zm2.892 7.383c-.346 0-.657-.061-.934-.184a1.53 1.53 0 0 1-.653-.554c-.159-.244-.238-.545-.238-.902 0-.308.057-.563.17-.764a1.33 1.33 0 0 1 .465-.483 2.33 2.33 0 0 1 .664-.273c.249-.064.506-.11.771-.139l.778-.089c.199-.028.343-.071.433-.127s.138-.151.138-.274v-.021c0-.268-.079-.475-.237-.622s-.388-.22-.686-.22c-.315 0-.564.069-.749.206s-.306.3-.369.487l-1.201-.171c.095-.331.251-.608.469-.831s.484-.393.799-.504.663-.17 1.044-.17a3.38 3.38 0 0 1 .785.092c.26.061.498.163.714.305a1.54 1.54 0 0 1 .518.572c.133.242.199.543.199.906v3.65h-1.236v-.749h-.042c-.079.151-.189.293-.331.426s-.316.236-.529.316-.458.117-.742.117zm.334-.944c.258 0 .482-.051.671-.153a1.12 1.12 0 0 0 .437-.412 1.05 1.05 0 0 0 .156-.558v-.642c-.04.033-.109.064-.206.092l-.32.075-.351.056-.302.043c-.192.026-.363.069-.515.128s-.271.142-.359.248a.61.61 0 0 0-.131.405c0 .237.086.416.259.537s.393.181.661.181zm4.442 2.88a2.63 2.63 0 0 1-.486-.043c-.147-.026-.264-.057-.352-.092l.298-1.002a1.68 1.68 0 0 0 .501.078.61.61 0 0 0 .387-.138c.114-.088.21-.235.288-.44l.11-.295-1.978-5.568h1.364l1.257 4.119h.057l1.26-4.119h1.367l-2.184 6.115c-.101.288-.236.536-.404.742a1.65 1.65 0 0 1-.618.476c-.242.111-.531.167-.867.167zm155.035 65.954v-7.273h2.728c.558 0 1.027.097 1.406.292s.669.466.863.816.295.754.295 1.218-.1.872-.299 1.215-.486.605-.87.792-.854.277-1.413.277h-1.943v-1.094h1.765c.327 0 .595-.045.803-.135s.362-.226.462-.401a1.31 1.31 0 0 0 .152-.654c0-.258-.051-.478-.152-.66a.97.97 0 0 0-.466-.419c-.208-.097-.477-.146-.806-.146h-1.207v6.172h-1.318zm3.758-3.295l1.8 3.295h-1.47l-1.769-3.295h1.439zm3.741-2.159l1.1 2.013 1.119-2.013h1.36l-1.644 2.727 1.673 2.727h-1.353l-1.155-1.964-1.143 1.964h-1.364l1.662-2.727-1.619-2.727h1.364zm7.04 5.454v-.952l2.525-2.475.603-.65c.161-.189.282-.372.363-.55a1.37 1.37 0 0 0 .12-.568c0-.23-.052-.426-.156-.59a1.04 1.04 0 0 0-.43-.383c-.182-.09-.389-.135-.621-.135-.239 0-.449.05-.629.149a1.03 1.03 0 0 0-.419.416c-.097.179-.145.394-.145.642h-1.254c0-.461.106-.863.316-1.204a2.14 2.14 0 0 1 .87-.791c.372-.188.798-.281 1.279-.281.487 0 .916.091 1.285.273s.656.432.86.75.308.679.308 1.086c0 .273-.052.54-.156.803s-.287.554-.55.873-.626.707-1.097 1.162l-1.254 1.275v.049h3.168v1.101h-4.986zm11.227 0h-2.465v-7.273h2.514c.722 0 1.343.146 1.861.437a2.92 2.92 0 0 1 1.2 1.247c.28.542.42 1.19.42 1.946s-.141 1.408-.423 1.953a2.92 2.92 0 0 1-1.211 1.253c-.526.292-1.158.437-1.896.437zm-1.147-1.14h1.083c.506 0 .929-.092 1.268-.277a1.77 1.77 0 0 0 .763-.834c.17-.372.256-.836.256-1.392s-.086-1.018-.256-1.385a1.76 1.76 0 0 0-.756-.828c-.333-.183-.744-.277-1.236-.277h-1.122v4.993zm8.286 1.247c-.547 0-1.019-.114-1.417-.341a2.31 2.31 0 0 1-.912-.973c-.213-.422-.32-.918-.32-1.488 0-.561.107-1.054.32-1.477a2.41 2.41 0 0 1 .902-.995c.386-.239.839-.358 1.36-.358.336 0 .653.054.951.163a2.21 2.21 0 0 1 .796.497c.23.225.414.511.547.859s.199.758.199 1.236v.394h-4.471v-.866h3.238a1.38 1.38 0 0 0-.159-.657c-.105-.194-.25-.347-.437-.458a1.23 1.23 0 0 0-.646-.167c-.263 0-.494.064-.693.192s-.354.291-.465.497-.165.427-.167.671v.756c0 .318.058.59.174.817s.278.398.486.519a1.43 1.43 0 0 0 .732.177 1.56 1.56 0 0 0 .508-.078c.151-.054.283-.134.394-.238s.195-.233.252-.387l1.2.135c-.075.317-.22.594-.433.831s-.48.417-.809.547a3.06 3.06 0 0 1-1.13.192zm4.799-7.38v7.273h-1.286v-7.273h1.286zm2.891 7.383a2.28 2.28 0 0 1-.934-.184c-.274-.126-.492-.311-.653-.554s-.238-.545-.238-.902c0-.308.057-.563.17-.764s.269-.362.466-.483a2.32 2.32 0 0 1 .664-.273 5.89 5.89 0 0 1 .77-.139l.778-.089c.199-.028.343-.071.433-.127s.139-.151.139-.274v-.021c0-.268-.08-.475-.238-.622s-.387-.22-.686-.22c-.314 0-.564.069-.749.206s-.305.3-.369.487l-1.2-.171c.094-.331.25-.608.468-.831s.484-.393.799-.504.663-.17 1.044-.17c.263 0 .525.03.785.092a2.23 2.23 0 0 1 .714.305 1.54 1.54 0 0 1 .518.572c.133.242.199.543.199.906v3.65h-1.236v-.749h-.042a1.58 1.58 0 0 1-.33.426c-.14.13-.317.236-.53.316s-.458.117-.742.117zm.334-.944c.258 0 .482-.051.671-.153a1.13 1.13 0 0 0 .437-.412 1.05 1.05 0 0 0 .156-.558v-.642c-.04.033-.109.064-.206.092l-.319.075-.352.056-.302.043a2.27 2.27 0 0 0-.515.128c-.151.059-.271.142-.358.248s-.132.24-.132.405c0 .237.087.416.26.537s.393.181.66.181zm4.443 2.88c-.176 0-.338-.015-.487-.043s-.264-.057-.352-.092l.299-1.002c.187.055.354.081.5.078s.276-.048.388-.138.209-.235.287-.44l.11-.295-1.978-5.568h1.364l1.257 4.119h.057l1.26-4.119h1.368l-2.184 6.115c-.102.288-.237.536-.405.742a1.65 1.65 0 0 1-.618.476c-.241.111-.53.167-.866.167z" fill="#888"/><defs><linearGradient id="A" x1="132.628" y1="60.723" x2="282.605" y2="44.621" href="#M"><stop stop-color="#d84896"/><stop offset="1" stop-color="#2f67ff"/></linearGradient><linearGradient id="B" x1="620.705" y1="60.723" x2="700.019" y2="56.257" href="#M"><stop stop-color="#50c8a7"/><stop offset="1" stop-color="#1d9587"/></linearGradient><linearGradient id="C" x1="398.705" y1="60.723" x2="478.019" y2="56.257" href="#M"><stop stop-color="#50c8a7"/><stop offset="1" stop-color="#1d9587"/></linearGradient><linearGradient id="D" x1="-.469" y1="60.723" x2="90.388" y2="54.857" href="#M"><stop stop-color="#2f67ff"/><stop offset="1" stop-color="#02e3fc"/></linearGradient><linearGradient id="E" x1="758.087" y1="60.723" x2="878.148" y2="50.447" href="#M"><stop stop-color="#fda50f"/><stop offset="1" stop-color="#ef230b"/></linearGradient><linearGradient id="F" x1="232.892" y1="30.223" x2="164.974" y2="35.744" href="#M"><stop stop-color="#ff5f9b"/><stop offset="1" stop-color="#2f67ff"/></linearGradient><linearGradient id="G" x1="459.327" y1="30.223" x2="415.34" y2="32.53" href="#M"><stop stop-color="#50c8a7"/><stop offset="1" stop-color="#83db95"/></linearGradient><linearGradient id="H" x1="70.148" y1="30.723" x2="21.779" y2="33.406" href="#M"><stop stop-color="#02e3fc"/><stop offset="1" stop-color="#2f67ff"/></linearGradient><linearGradient id="I" x1="857.471" y1="30.723" x2="776.576" y2="38.269" href="#M"><stop stop-color="#fda90f"/><stop offset="1" stop-color="#ef200b"/></linearGradient><linearGradient id="J" x1="684.594" y1="30.223" x2="638.421" y2="32.766" href="#M"><stop stop-color="#50c8a7"/><stop offset="1" stop-color="#83db95"/></linearGradient><linearGradient id="K" x1="244.897" y1="25.109" x2="244.897" y2="39.109" href="#M"><stop stop-color="#ff5f9b"/><stop offset="1" stop-color="#2f67ff"/></linearGradient><path id="L" d="M278.292 54.723v189"/><linearGradient id="M" gradientUnits="userSpaceOnUse"/></defs></svg>