<svg xmlns="http://www.w3.org/2000/svg" width="868" height="280" fill="none" xmlns:v="https://vecta.io/nano"><g fill="#fff" stroke-width=".8"><rect x="3.292" y=".4" width="247.467" height="68.086" rx="13.6" stroke="url(#A)"/><rect x="409.8" y=".4" width="127.304" height="68.086" rx="13.6" stroke="url(#B)"/><rect x="676.348" y=".4" width="189.833" height="68.086" rx="13.6" stroke="url(#C)"/></g><path d="M89.936 25.925h2.898v10.453c0 1.146-.271 2.154-.812 3.023-.536.87-1.292 1.549-2.266 2.039-.974.484-2.112.727-3.414.727-1.307 0-2.448-.242-3.422-.727-.974-.49-1.729-1.169-2.266-2.039s-.805-1.878-.805-3.023V25.925h2.898v10.211c0 .667.146 1.26.438 1.781a3.18 3.18 0 0 0 1.25 1.227c.536.292 1.172.438 1.906.438s1.37-.146 1.906-.437c.542-.297.958-.706 1.25-1.227s.438-1.115.438-1.781V25.925zm5.924 20.5v-16.5h2.781v1.984h.164c.146-.292.352-.602.617-.93.266-.333.625-.617 1.078-.852.453-.24 1.031-.359 1.734-.359.927 0 1.763.237 2.508.711.75.469 1.344 1.164 1.781 2.086.443.917.664 2.042.664 3.375 0 1.318-.216 2.438-.648 3.359s-1.021 1.625-1.766 2.109-1.588.727-2.531.727c-.688 0-1.258-.115-1.711-.344s-.818-.505-1.094-.828c-.271-.328-.482-.638-.633-.93h-.117v6.391H95.86zm2.773-10.5c0 .776.109 1.456.328 2.039.224.583.544 1.039.961 1.367.421.323.932.484 1.531.484.625 0 1.148-.167 1.57-.5.422-.338.74-.8.953-1.383.219-.589.328-1.258.328-2.008 0-.745-.106-1.406-.32-1.984s-.531-1.031-.953-1.359-.948-.492-1.578-.492c-.604 0-1.117.159-1.539.477s-.742.763-.961 1.336c-.214.573-.32 1.247-.32 2.023zm13.805-10v16h-2.828v-16h2.828zm2.908 16v-12h2.829v12h-2.829zm1.422-13.703a1.65 1.65 0 0 1-1.156-.445c-.323-.302-.484-.664-.484-1.086 0-.427.161-.789.484-1.086.323-.302.708-.453 1.156-.453s.839.151 1.157.453a1.42 1.42 0 0 1 .484 1.086c0 .422-.162.784-.484 1.086-.318.297-.704.445-1.157.445zm7.143 6.672v7.031h-2.828v-12h2.703v2.039h.141a3.43 3.43 0 0 1 1.32-1.602c.609-.396 1.362-.594 2.258-.594.828 0 1.549.177 2.164.531s1.099.867 1.437 1.539c.344.672.513 1.487.508 2.445v7.641h-2.828v-7.203c0-.802-.208-1.43-.625-1.883s-.982-.68-1.711-.68c-.495 0-.935.109-1.32.328-.381.214-.68.523-.899.93-.213.406-.32.898-.32 1.477zm13.156 3.266l-.008-3.414h.453l4.313-4.82h3.305l-5.305 5.906h-.586l-2.172 2.328zm-2.578 3.766v-16h2.828v16h-2.828zm7.531 0l-3.906-5.461 1.906-1.992 5.383 7.453h-3.383z" fill="url(#D)"/><path d="M451.801 42.087v-16h6c1.229 0 2.261.214 3.094.641.839.427 1.471 1.026 1.898 1.797.433.766.649 1.659.649 2.68 0 1.026-.219 1.917-.656 2.672-.433.75-1.071 1.331-1.914 1.742-.844.406-1.881.609-3.11.609h-4.273v-2.406h3.883c.718 0 1.307-.099 1.765-.297.459-.203.797-.497 1.016-.883.224-.391.336-.87.336-1.437s-.112-1.052-.336-1.453c-.224-.406-.565-.714-1.024-.922-.458-.213-1.049-.32-1.773-.32H454.7v13.578h-2.899zm8.266-7.25l3.961 7.25h-3.235l-3.89-7.25h3.164zm8.23-4.75l2.422 4.43 2.461-4.43h2.992l-3.617 6 3.68 6h-2.977l-2.539-4.32-2.515 4.32h-3l3.656-6-3.563-6h3zm21.996-4v16h-2.898v-13.18h-.094l-3.742 2.391v-2.656l3.977-2.555h2.757z" fill="url(#E)"/><path d="M165.741 26.7a2.26 2.26 0 0 0-1.581.666l-4.855 4.844c-.211.212-.329.498-.329.796s.118.584.329.796c.105.106.23.19.367.247a1.13 1.13 0 0 0 .434.087c.149 0 .297-.029.435-.087s.262-.141.367-.247l3.704-3.715V41.38a1.13 1.13 0 0 0 1.129 1.129 1.13 1.13 0 0 0 1.129-1.129V30.088l3.715 3.715a1.13 1.13 0 0 0 1.598.006 1.13 1.13 0 0 0 .006-1.598l-4.856-4.844c-.421-.424-.994-.664-1.592-.666z" fill="url(#F)"/><path d="M251.56 61.967v217.646M536.115 61.967v217.646M867.128 61.967v217.646" stroke-width=".8" stroke="#adadad" stroke-dasharray="1.8 1.8"/><path d="M.674 181.086a.4.4 0 0 0 0 .566l2.546 2.545a.4.4 0 0 0 .566 0 .4.4 0 0 0 0-.565l-2.263-2.263 2.263-2.263a.4.4 0 1 0-.566-.566l-2.546 2.546zm249.617.566a.4.4 0 0 0 0-.566l-2.545-2.546a.4.4 0 1 0-.566.566l2.263 2.263-2.263 2.263a.4.4 0 0 0 0 .565.4.4 0 0 0 .566 0l2.545-2.545zM.957 181.369v.4h249.052v-.4-.4H.957v.4zm251.878-.283a.4.4 0 0 0 0 .566l2.545 2.545a.4.4 0 0 0 .566 0 .4.4 0 0 0 0-.565l-2.263-2.263 2.263-2.263a.4.4 0 1 0-.566-.566l-2.545 2.546zm282.462.566a.4.4 0 0 0 0-.566l-2.545-2.546a.4.4 0 1 0-.566.566l2.263 2.263-2.263 2.263a.4.4 0 0 0 0 .565.4.4 0 0 0 .566 0l2.545-2.545zm-282.179-.283v.4h281.897v-.4-.4H253.118v.4zm-.283 77.147a.4.4 0 0 0 0 .566l2.545 2.545a.4.4 0 0 0 .566 0 .4.4 0 0 0 0-.565l-2.263-2.263 2.263-2.263a.4.4 0 1 0-.566-.566l-2.545 2.546zm614.176.566a.4.4 0 0 0 0-.566l-2.546-2.546a.4.4 0 0 0-.565 0 .4.4 0 0 0 0 .566l2.263 2.263-2.263 2.263a.4.4 0 0 0 0 .565c.156.157.409.157.565 0l2.546-2.545zm-613.893-.283v.4h613.61v-.4-.4h-613.61v.4z" fill="#fcacac"/><path d="M77.308 145.795c0 1.489-.279 2.764-.837 3.825s-1.309 1.867-2.267 2.429-2.035.844-3.245.844-2.294-.281-3.252-.844-1.709-1.378-2.267-2.435-.83-2.335-.83-3.819.277-2.762.83-3.819c.558-1.062 1.314-1.874 2.267-2.436s2.042-.843 3.252-.843 2.292.281 3.245.843 1.714 1.374 2.267 2.436c.558 1.057.837 2.33.837 3.819zm-2.517 0c0-1.048-.164-1.932-.493-2.652s-.774-1.271-1.349-1.639c-.576-.374-1.239-.56-1.99-.56s-1.415.186-1.99.56c-.576.368-1.028.915-1.356 1.639s-.486 1.604-.486 2.652.162 1.934.486 2.658.78 1.266 1.356 1.64 1.239.553 1.99.553 1.415-.184 1.99-.553 1.026-.92 1.349-1.64.493-1.61.493-2.658zm7.218.836v6.073h-2.443V142.34h2.335v1.761h.121a2.96 2.96 0 0 1 1.14-1.383c.522-.342 1.176-.513 1.95-.513.715 0 1.338.153 1.869.459s.949.749 1.242 1.329.443 1.284.439 2.112v6.599H86.22v-6.221c0-.693-.18-1.235-.54-1.626s-.848-.587-1.478-.587c-.427 0-.807.094-1.14.283s-.587.452-.776.803-.277.776-.277 1.275zm15.731 6.073h-2.672l4.865-13.818h3.09l4.872 13.818h-2.672l-3.691-10.985h-.108l-3.684 10.985zm.088-5.418h7.287v2.011h-7.287v-2.011zm11.853 5.418V142.34h2.443v10.364h-2.443zm1.228-11.835c-.387 0-.719-.128-.998-.384a1.24 1.24 0 0 1-.419-.938c0-.369.14-.682.419-.938a1.41 1.41 0 0 1 .998-.391c.392 0 .724.13.999.391s.418.569.418.938a1.24 1.24 0 0 1-.418.938 1.41 1.41 0 0 1-.999.384zm3.726 11.835V142.34h2.369v1.727h.108c.188-.598.512-1.059.971-1.383s.992-.492 1.586-.492l.452.02a3.13 3.13 0 0 1 .425.047v2.247a2.59 2.59 0 0 0-.493-.094c-.22-.032-.434-.048-.641-.048-.445 0-.845.097-1.201.29a2.13 2.13 0 0 0-.83.79c-.202.337-.303.726-.303 1.167v6.093h-2.443zm11.747-11.72v-2.098h11.025v2.098h-4.271v11.72h-2.483v-11.72h-4.271zm13.042 11.72V142.34h2.443v10.364h-2.443zm1.228-11.835c-.386 0-.719-.128-.998-.384a1.24 1.24 0 0 1-.419-.938c0-.369.14-.682.419-.938a1.41 1.41 0 0 1 .998-.391c.392 0 .725.13.999.391s.418.569.418.938a1.24 1.24 0 0 1-.418.938 1.41 1.41 0 0 1-.999.384zm3.727 11.835V142.34h2.334v1.761h.121a2.75 2.75 0 0 1 1.073-1.39c.5-.337 1.096-.506 1.788-.506.702 0 1.293.171 1.775.513a2.72 2.72 0 0 1 1.025 1.383h.108c.23-.576.617-1.034 1.161-1.376s1.199-.52 1.95-.52c.953 0 1.732.302 2.334.904s.904 1.483.904 2.639v6.956h-2.449v-6.579c0-.643-.171-1.113-.513-1.41a1.85 1.85 0 0 0-1.255-.452c-.589 0-1.05.185-1.383.553s-.492.839-.492 1.424v6.464h-2.396v-6.68c0-.535-.161-.962-.485-1.282s-.738-.479-1.255-.479c-.351 0-.671.09-.958.27a1.88 1.88 0 0 0-.689.749c-.171.319-.256.693-.256 1.12v6.302h-2.442zm21.639.202c-1.039 0-1.936-.216-2.692-.647-.751-.437-1.329-1.053-1.734-1.849s-.607-1.743-.607-2.827c0-1.066.202-2.002.607-2.807.41-.81.981-1.439 1.714-1.889s1.595-.682 2.584-.682c.639 0 1.242.104 1.808.311.572.202 1.075.517 1.512.944s.787.972 1.039 1.633.378 1.439.378 2.348v.749h-8.495v-1.646h6.153c-.004-.468-.105-.884-.303-1.249a2.22 2.22 0 0 0-.83-.87c-.351-.211-.76-.317-1.228-.317a2.38 2.38 0 0 0-1.316.364 2.52 2.52 0 0 0-.884.945c-.207.387-.312.812-.317 1.275v1.437c0 .603.11 1.12.331 1.552s.528.756.924.985.859.338 1.39.338c.355 0 .677-.05.965-.149a2.08 2.08 0 0 0 .749-.452 1.89 1.89 0 0 0 .479-.735l2.28.256c-.144.603-.418 1.129-.823 1.579a4.01 4.01 0 0 1-1.538 1.039c-.625.243-1.341.364-2.146.364zm181.985 3.669v-13.818h5.182c1.061 0 1.952.185 2.672.554s1.27.886 1.639 1.551.56 1.433.56 2.315-.189 1.655-.566 2.307-.925 1.149-1.653 1.505-1.624.526-2.686.526h-3.691v-2.078h3.354c.621 0 1.129-.086 1.525-.256.395-.176.688-.43.877-.763s.29-.751.29-1.241-.097-.909-.29-1.255-.488-.617-.884-.796c-.396-.185-.906-.277-1.532-.277h-2.294v11.726h-2.503zm7.139-6.261l3.42 6.261h-2.793l-3.36-6.261h2.733zm7.108-4.102l2.091 3.825 2.126-3.825h2.584l-3.124 5.182 3.178 5.181h-2.571l-2.193-3.731-2.172 3.731h-2.591l3.157-5.181-3.076-5.182h2.591zm18.996-3.455v13.818h-2.503v-11.382h-.081l-3.232 2.065v-2.294l3.435-2.207h2.381zm13.039 13.818h-4.682v-13.818h4.777c1.372 0 2.55.277 3.535.83a5.6 5.6 0 0 1 2.281 2.368c.531 1.03.796 2.263.796 3.698s-.268 2.676-.803 3.711-1.298 1.828-2.301 2.382-2.199.829-3.603.829zm-2.179-2.165h2.058c.962 0 1.765-.176 2.408-.527s1.127-.884 1.451-1.585.486-1.588.486-2.645-.162-1.934-.486-2.632-.803-1.225-1.437-1.572-1.412-.526-2.348-.526h-2.132v9.487zm15.744 2.368c-1.039 0-1.936-.216-2.692-.648s-1.329-1.052-1.734-1.849-.607-1.743-.607-2.827c0-1.066.202-2.001.607-2.806s.981-1.44 1.714-1.89 1.595-.681 2.584-.681c.639 0 1.242.103 1.808.31a4.1 4.1 0 0 1 1.512.945c.441.427.787.971 1.039 1.633.252.656.378 1.439.378 2.348v.749h-8.495v-1.647h6.153c-.004-.468-.105-.884-.303-1.248a2.24 2.24 0 0 0-.83-.87c-.355-.211-.76-.317-1.228-.317a2.38 2.38 0 0 0-1.316.364c-.378.238-.672.553-.884.945-.207.386-.312.811-.317 1.275v1.437c0 .603.11 1.12.331 1.552a2.36 2.36 0 0 0 .924.985c.396.225.859.337 1.39.337.355 0 .677-.049.965-.148.288-.104.537-.254.749-.452s.371-.443.479-.736l2.28.257a3.54 3.54 0 0 1-.823 1.578c-.4.446-.913.792-1.538 1.04-.625.242-1.34.364-2.146.364zm9.117-14.021v13.818h-2.442v-13.818h2.442zm5.494 14.028c-.656 0-1.248-.117-1.774-.351s-.936-.59-1.242-1.053-.452-1.034-.452-1.714c0-.584.108-1.068.324-1.45a2.51 2.51 0 0 1 .884-.918c.373-.229.794-.402 1.262-.519s.96-.21 1.464-.264l1.478-.168c.377-.054.652-.135.823-.243s.263-.286.263-.52v-.04c0-.508-.151-.902-.452-1.181s-.736-.418-1.302-.418c-.599 0-1.073.13-1.424.391s-.58.569-.702.925l-2.28-.324c.18-.63.476-1.156.89-1.579a3.92 3.92 0 0 1 1.518-.958c.599-.216 1.26-.324 1.984-.324a6.46 6.46 0 0 1 1.491.175 4.19 4.19 0 0 1 1.356.581 2.9 2.9 0 0 1 .985 1.086c.252.459.378 1.032.378 1.72v6.936h-2.348v-1.423h-.081a2.95 2.95 0 0 1-.627.809c-.266.248-.601.448-1.006.601s-.87.223-1.41.223zm.635-1.795c.49 0 .915-.097 1.275-.29s.636-.459.83-.783a2.03 2.03 0 0 0 .297-1.059v-1.221c-.077.062-.207.121-.392.175s-.382.101-.607.142l-.668.108-.573.081c-.365.049-.691.13-.979.242a1.62 1.62 0 0 0-.681.473c-.167.198-.25.454-.25.769 0 .45.164.789.493 1.019s.746.344 1.255.344zm8.44 5.472c-.333 0-.641-.027-.924-.081s-.502-.108-.668-.176l.567-1.902c.355.103.672.153.951.148a1.16 1.16 0 0 0 .735-.263c.216-.166.399-.445.547-.837l.209-.56-3.758-10.579h2.591l2.388 7.827h.108l2.396-7.827h2.597l-4.149 11.618c-.194.549-.45 1.019-.769 1.411s-.711.697-1.174.904-1.008.317-1.647.317zm238.206 72.28v-13.818h5.182c1.061 0 1.952.184 2.672.553s1.27.886 1.639 1.552.56 1.433.56 2.314c0 .887-.189 1.656-.566 2.308s-.925 1.149-1.653 1.505c-.729.35-1.624.526-2.686.526h-3.691v-2.078h3.354c.621 0 1.129-.086 1.525-.257a1.79 1.79 0 0 0 .877-.762c.189-.333.29-.751.29-1.242s-.097-.908-.29-1.255-.488-.616-.884-.796-.906-.276-1.532-.276h-2.294v11.726h-2.503zm7.139-6.261l3.42 6.261h-2.793l-3.36-6.261h2.733zm7.108-4.102l2.091 3.825 2.126-3.825h2.584l-3.124 5.181 3.178 5.182h-2.571l-2.193-3.731-2.172 3.731h-2.591l3.157-5.182-3.076-5.181h2.591zm13.376 10.363v-1.808l4.797-4.703 1.147-1.235c.306-.359.535-.708.688-1.045a2.59 2.59 0 0 0 .23-1.08c0-.436-.099-.81-.297-1.12a2.01 2.01 0 0 0-.816-.729c-.346-.171-.74-.256-1.181-.256-.455 0-.853.094-1.194.283s-.608.448-.797.79-.276.749-.276 1.221h-2.382c0-.877.2-1.64.6-2.287s.952-1.15 1.654-1.505 1.515-.533 2.429-.533c.926 0 1.74.173 2.442.52s1.246.821 1.633 1.423a3.74 3.74 0 0 1 .587 2.065 4.11 4.11 0 0 1-.297 1.525c-.198.499-.547 1.052-1.046 1.66s-1.19 1.342-2.085 2.206l-2.382 2.422v.095h6.019v2.091h-9.473zm21.331 0h-4.682v-13.818h4.777c1.371 0 2.55.277 3.535.83a5.6 5.6 0 0 1 2.281 2.368c.531 1.03.796 2.263.796 3.698s-.268 2.676-.803 3.711a5.55 5.55 0 0 1-2.301 2.381c-.999.554-2.2.83-3.603.83zm-2.179-2.166h2.058c.962 0 1.765-.175 2.408-.526s1.127-.884 1.451-1.586.486-1.587.486-2.644-.162-1.935-.486-2.632-.803-1.226-1.437-1.572-1.413-.526-2.348-.526h-2.132v9.486zm15.744 2.369c-1.039 0-1.936-.216-2.692-.648s-1.329-1.053-1.734-1.849-.607-1.743-.607-2.827c0-1.066.202-2.002.607-2.807s.981-1.439 1.714-1.889 1.594-.681 2.584-.681c.639 0 1.242.103 1.808.31.572.202 1.075.517 1.512.945s.787.971 1.039 1.632.378 1.44.378 2.348v.749h-8.495v-1.646h6.153c-.004-.468-.105-.884-.303-1.248a2.25 2.25 0 0 0-.83-.871c-.355-.212-.76-.317-1.228-.317-.499 0-.938.122-1.316.365a2.51 2.51 0 0 0-.884.944c-.207.387-.312.812-.317 1.275v1.438c0 .602.11 1.12.331 1.551s.528.756.924.986c.396.224.859.337 1.39.337.355 0 .677-.05.965-.149a2.08 2.08 0 0 0 .749-.452 1.89 1.89 0 0 0 .479-.735l2.28.256c-.144.603-.418 1.129-.823 1.579s-.913.792-1.538 1.039-1.341.365-2.146.365zm9.117-14.021v13.818h-2.442v-13.818h2.442zm5.494 14.027c-.656 0-1.248-.117-1.774-.351s-.936-.589-1.242-1.052-.452-1.035-.452-1.714c0-.585.108-1.068.324-1.45a2.51 2.51 0 0 1 .884-.918c.373-.229.794-.403 1.262-.52a10.31 10.31 0 0 1 1.464-.263l1.477-.168c.378-.054.653-.135.824-.243s.263-.286.263-.52v-.04c0-.509-.151-.902-.452-1.181s-.736-.418-1.303-.418c-.598 0-1.072.13-1.423.391s-.58.569-.702.924l-2.28-.324c.179-.629.476-1.156.89-1.578.414-.428.92-.747 1.518-.959s1.26-.323 1.984-.323a6.46 6.46 0 0 1 1.491.175c.495.117.947.31 1.356.58a2.91 2.91 0 0 1 .985 1.087c.252.458.378 1.032.378 1.72v6.936h-2.348v-1.423h-.081a2.98 2.98 0 0 1-.627.809c-.266.248-.601.448-1.006.601s-.87.222-1.41.222zm.634-1.794c.491 0 .916-.097 1.276-.291a2.14 2.14 0 0 0 .83-.782 2 2 0 0 0 .296-1.059v-1.222c-.076.063-.206.122-.391.176a5.7 5.7 0 0 1-.607.141l-.668.108-.574.081a4.32 4.32 0 0 0-.978.243 1.62 1.62 0 0 0-.681.473c-.167.197-.25.454-.25.769 0 .449.164.789.492 1.018s.747.345 1.255.345zm8.441 5.472c-.333 0-.641-.027-.924-.081s-.502-.108-.668-.176l.567-1.903c.355.104.672.153.951.149a1.16 1.16 0 0 0 .735-.263c.216-.167.398-.446.547-.837l.209-.56-3.758-10.579h2.591l2.388 7.826h.108l2.395-7.826h2.598l-4.149 11.618c-.194.549-.45 1.019-.77 1.41s-.71.698-1.174.904c-.458.212-1.007.318-1.646.318z" fill="#888"/><path d="M719.319 42.087v-16h6c1.229 0 2.26.214 3.094.641s1.471 1.026 1.898 1.797c.432.766.648 1.659.648 2.68 0 1.026-.218 1.917-.656 2.672-.432.75-1.07 1.331-1.914 1.742-.844.406-1.88.609-3.109.609h-4.274v-2.406h3.883c.719 0 1.307-.099 1.766-.297.458-.203.797-.497 1.015-.883.224-.391.336-.87.336-1.437s-.112-1.052-.336-1.453c-.224-.406-.565-.714-1.023-.922-.458-.213-1.05-.32-1.773-.32h-2.657v13.578h-2.898zm8.265-7.25l3.961 7.25h-3.234l-3.891-7.25h3.164zm11.059 7.484c-1.203 0-2.242-.25-3.117-.75a5.08 5.08 0 0 1-2.008-2.141c-.469-.927-.703-2.018-.703-3.273 0-1.234.234-2.318.703-3.25.474-.938 1.135-1.667 1.984-2.188.849-.526 1.847-.789 2.993-.789.739 0 1.437.12 2.093.359.662.234 1.245.599 1.75 1.094.511.495.912 1.125 1.204 1.891.291.76.437 1.667.437 2.719v.867h-9.836v-1.906h7.125c-.005-.542-.122-1.023-.351-1.445-.23-.427-.55-.763-.961-1.008s-.881-.367-1.422-.367c-.578 0-1.086.141-1.524.422a2.91 2.91 0 0 0-1.023 1.094 3.14 3.14 0 0 0-.367 1.477v1.664c0 .698.127 1.297.382 1.797.256.495.612.875 1.071 1.141.458.261.995.391 1.609.391.412 0 .784-.057 1.117-.172a2.48 2.48 0 0 0 .868-.523c.244-.229.429-.513.554-.852l2.641.297c-.167.698-.485 1.307-.953 1.828-.464.516-1.058.917-1.782 1.203-.724.281-1.552.422-2.484.422zm12.963 0c-1.198 0-2.227-.263-3.086-.789-.854-.526-1.513-1.253-1.977-2.18-.458-.932-.687-2.005-.687-3.219 0-1.219.234-2.294.703-3.227.469-.938 1.13-1.667 1.984-2.188.86-.526 1.875-.789 3.047-.789.974 0 1.836.18 2.586.539a4.42 4.42 0 0 1 1.805 1.508c.448.646.703 1.401.766 2.266h-2.704c-.109-.578-.369-1.06-.781-1.445-.406-.391-.95-.586-1.633-.586-.578 0-1.086.156-1.523.469-.438.307-.779.75-1.023 1.328s-.36 1.271-.36 2.078c0 .818.12 1.521.36 2.109.239.583.575 1.034 1.007 1.352a2.58 2.58 0 0 0 1.539.469c.417 0 .789-.078 1.118-.234a2.25 2.25 0 0 0 .836-.695c.223-.302.377-.669.46-1.102h2.704c-.068.849-.318 1.602-.75 2.258-.433.651-1.021 1.161-1.766 1.531-.745.365-1.62.547-2.625.547zm12.775 0c-1.203 0-2.242-.25-3.117-.75a5.08 5.08 0 0 1-2.008-2.141c-.468-.927-.703-2.018-.703-3.273 0-1.234.235-2.318.703-3.25.474-.938 1.136-1.667 1.985-2.188.849-.526 1.846-.789 2.992-.789.739 0 1.437.12 2.094.359a4.74 4.74 0 0 1 1.75 1.094c.51.495.911 1.125 1.203 1.891.291.76.437 1.667.437 2.719v.867h-9.836v-1.906h7.125c-.005-.542-.122-1.023-.351-1.445a2.56 2.56 0 0 0-.961-1.008c-.406-.245-.88-.367-1.422-.367-.578 0-1.086.141-1.523.422-.438.276-.779.641-1.024 1.094a3.15 3.15 0 0 0-.367 1.477v1.664c0 .698.128 1.297.383 1.797a2.73 2.73 0 0 0 1.07 1.141c.458.261.995.391 1.609.391.412 0 .784-.057 1.118-.172.333-.12.622-.294.867-.523s.429-.513.554-.852l2.641.297c-.167.698-.484 1.307-.953 1.828-.464.516-1.057.917-1.781 1.203-.724.281-1.552.422-2.485.422zm7.729-.234v-12h2.828v12h-2.828zm1.422-13.703a1.65 1.65 0 0 1-1.157-.445c-.322-.302-.484-.664-.484-1.086a1.42 1.42 0 0 1 .484-1.086c.323-.302.709-.453 1.157-.453s.838.151 1.156.453c.323.297.484.659.484 1.086 0 .422-.161.784-.484 1.086a1.63 1.63 0 0 1-1.156.445zm15.033 1.703l-4.273 12h-3.125l-4.274-12h3.016l2.758 8.914h.125l2.765-8.914h3.008zm6.861 12.234c-1.203 0-2.242-.25-3.117-.75a5.08 5.08 0 0 1-2.008-2.141c-.468-.927-.703-2.018-.703-3.273 0-1.234.235-2.318.703-3.25.474-.938 1.136-1.667 1.985-2.188.849-.526 1.846-.789 2.992-.789.739 0 1.437.12 2.094.359a4.74 4.74 0 0 1 1.75 1.094c.51.495.911 1.125 1.203 1.891.291.76.437 1.667.437 2.719v.867h-9.836v-1.906h7.125c-.005-.542-.122-1.023-.351-1.445a2.56 2.56 0 0 0-.961-1.008c-.406-.245-.88-.367-1.422-.367-.578 0-1.086.141-1.524.422a2.91 2.91 0 0 0-1.023 1.094 3.14 3.14 0 0 0-.367 1.477v1.664c0 .698.127 1.297.383 1.797a2.73 2.73 0 0 0 1.07 1.141c.458.261.995.391 1.609.391.412 0 .784-.057 1.118-.172.333-.12.622-.294.867-.523s.429-.513.554-.852l2.641.297c-.167.698-.484 1.307-.953 1.828-.464.516-1.057.917-1.781 1.203-.724.281-1.552.422-2.485.422zm12.182-.023c-.943 0-1.787-.242-2.531-.727s-1.334-1.187-1.766-2.109-.648-2.042-.648-3.359c0-1.333.218-2.458.656-3.375.443-.922 1.039-1.617 1.789-2.086.75-.474 1.586-.711 2.508-.711.703 0 1.281.12 1.734.359.453.234.813.518 1.078.852.266.328.472.638.617.93h.118v-5.984h2.836v16h-2.782v-1.891h-.172c-.145.292-.356.602-.632.93-.276.323-.641.599-1.094.828s-1.024.344-1.711.344zm.789-2.32c.599 0 1.109-.161 1.531-.484.422-.328.742-.784.961-1.367s.328-1.263.328-2.039-.109-1.45-.328-2.023c-.213-.573-.531-1.018-.953-1.336s-.93-.477-1.539-.477c-.63 0-1.156.164-1.578.492s-.74.781-.953 1.359-.321 1.24-.321 1.984c0 .75.107 1.419.321 2.008.218.583.539 1.044.961 1.383.427.333.95.5 1.57.5z" fill="url(#G)"/><defs><linearGradient id="A" x1="-1.038" y1="68.886" x2="255.579" y2="27.223" href="#H"><stop stop-color="#d84896"/><stop offset="1" stop-color="#2f67ff"/></linearGradient><linearGradient id="B" x1="407.372" y1="68.886" x2="542.328" y2="57.581" href="#H"><stop stop-color="#50c8a7"/><stop offset="1" stop-color="#1d9587"/></linearGradient><linearGradient id="C" x1="672.93" y1="68.886" x2="872.074" y2="44.06" href="#H"><stop stop-color="#50c8a7"/><stop offset="1" stop-color="#1d9587"/></linearGradient><linearGradient id="D" x1="149.895" y1="34.443" x2="78.272" y2="39.723" href="#H"><stop stop-color="#ff5f9b"/><stop offset="1" stop-color="#2f67ff"/></linearGradient><linearGradient id="E" x1="496.681" y1="34.605" x2="450.077" y2="36.833" href="#H"><stop stop-color="#50c8a7"/><stop offset="1" stop-color="#83db95"/></linearGradient><linearGradient id="F" x1="165.747" y1="26.7" x2="165.747" y2="42.509" href="#H"><stop stop-color="#d84896"/><stop offset="1" stop-color="#2f67ff"/></linearGradient><linearGradient id="G" x1="822.271" y1="34.605" x2="718.375" y2="45.783" href="#H"><stop stop-color="#35c0b0"/><stop offset="1" stop-color="#83db95"/></linearGradient><linearGradient id="H" gradientUnits="userSpaceOnUse"/></defs></svg>