<svg xmlns="http://www.w3.org/2000/svg" width="865" height="374" fill="none" xmlns:v="https://vecta.io/nano"><g fill="#fff" stroke-width=".4"><rect x="1.092" y=".4" width="219.6" height="91.6" rx="13.8" stroke="url(#A)"/><rect x="748.092" y=".4" width="116.6" height="91.6" rx="7.8" stroke="url(#B)"/><rect x="522.092" y=".4" width="342.6" height="91.6" rx="13.8" stroke="url(#C)"/><rect x="221.092" y="1.4" width="185.6" height="90.6" rx="13.8" stroke="url(#D)"/><rect x="407.092" y="90.4" width="115.6" height="90.6" rx="13.8" stroke="url(#E)"/></g><path d="M685.47 54.2v-16h6c1.229 0 2.261.214 3.094.641.839.427 1.471 1.026 1.898 1.797.433.766.649 1.659.649 2.68 0 1.026-.219 1.917-.656 2.672-.433.75-1.071 1.331-1.914 1.742-.844.406-1.881.609-3.11.609h-4.273v-2.406h3.883c.718 0 1.307-.099 1.765-.297.458-.203.797-.497 1.016-.883.224-.391.336-.87.336-1.437s-.112-1.052-.336-1.453c-.224-.406-.565-.714-1.024-.922-.458-.214-1.049-.32-1.773-.32h-2.656V54.2h-2.899zm8.266-7.25l3.961 7.25h-3.235l-3.89-7.25h3.164zm8.23-4.75l2.422 4.43 2.461-4.43h2.992l-3.617 6 3.68 6h-2.977l-2.539-4.32-2.515 4.32h-3l3.656-6-3.563-6h3zm15.489 12v-2.094l5.554-5.445 1.328-1.43c.355-.417.62-.82.797-1.211s.266-.807.266-1.25c0-.505-.115-.937-.344-1.297-.229-.365-.544-.646-.945-.844s-.857-.297-1.367-.297c-.526 0-.987.109-1.383.328a2.26 2.26 0 0 0-.922.914c-.214.396-.32.867-.32 1.414h-2.758c0-1.016.232-1.898.695-2.648s1.102-1.331 1.914-1.742c.818-.412 1.755-.617 2.813-.617 1.073 0 2.015.201 2.828.602s1.443.951 1.89 1.648c.454.698.68 1.495.68 2.391 0 .599-.114 1.188-.344 1.766s-.632 1.219-1.211 1.922c-.572.703-1.377 1.555-2.414 2.555l-2.757 2.805v.109h6.968V54.2h-10.968z" fill="url(#F)"/><path d="M448.629 143.352v-16h6c1.229 0 2.26.213 3.094.64s1.471 1.026 1.898 1.797c.432.766.649 1.659.649 2.68 0 1.026-.219 1.916-.657 2.672-.432.75-1.07 1.33-1.914 1.742-.844.406-1.88.609-3.109.609h-4.274v-2.406h3.883c.719 0 1.308-.099 1.766-.297s.797-.497 1.015-.883c.224-.39.336-.87.336-1.437s-.112-1.052-.336-1.453c-.223-.407-.565-.714-1.023-.922-.458-.214-1.049-.321-1.773-.321h-2.657v13.579h-2.898zm8.266-7.25l3.96 7.25h-3.234l-3.891-7.25h3.165zm8.23-4.75l2.422 4.429 2.461-4.429H473l-3.617 6 3.68 6h-2.977l-2.539-4.321-2.516 4.321h-3l3.656-6-3.562-6h3zm21.996-4v16h-2.898v-13.18h-.094l-3.742 2.39v-2.656l3.976-2.554h2.758z" fill="url(#G)"/><path d="M293.919 51.7v-16h6c1.229 0 2.26.214 3.093.641.839.427 1.472 1.026 1.899 1.797.432.766.648 1.659.648 2.68 0 1.026-.218 1.917-.656 2.672-.432.75-1.07 1.331-1.914 1.742-.844.406-1.88.609-3.109.609h-4.274v-2.406h3.883c.719 0 1.307-.099 1.766-.297.458-.203.797-.497 1.015-.883.224-.391.336-.87.336-1.437s-.112-1.052-.336-1.453c-.224-.406-.565-.714-1.023-.922-.459-.214-1.05-.32-1.774-.32h-2.656V51.7h-2.898zm8.265-7.25l3.961 7.25h-3.234l-3.891-7.25h3.164zm8.231-4.75l2.422 4.43 2.461-4.43h2.992l-3.617 6 3.679 6h-2.976l-2.539-4.32-2.516 4.32h-3l3.656-6-3.562-6h3zm15.488 12v-2.094l5.555-5.445 1.328-1.43c.354-.417.62-.82.797-1.211s.265-.807.265-1.25c0-.505-.114-.937-.343-1.297-.23-.365-.545-.646-.946-.844s-.856-.297-1.367-.297c-.526 0-.987.109-1.383.328a2.26 2.26 0 0 0-.922.914c-.213.396-.32.867-.32 1.414h-2.758c0-1.016.232-1.898.696-2.648s1.101-1.331 1.914-1.742 1.755-.617 2.812-.617c1.073 0 2.016.201 2.828.602s1.443.951 1.891 1.648c.453.698.68 1.495.68 2.391 0 .599-.115 1.188-.344 1.766s-.633 1.219-1.211 1.922c-.573.703-1.378 1.555-2.414 2.555l-2.758 2.805v.109h6.969V51.7h-10.969z" fill="url(#H)"/><path d="M74.556 38.7h2.898v10.453c0 1.146-.271 2.154-.812 3.023-.537.87-1.292 1.55-2.266 2.039-.974.484-2.112.727-3.414.727-1.307 0-2.448-.242-3.422-.727-.974-.49-1.729-1.169-2.266-2.039s-.805-1.878-.805-3.023V38.7h2.898v10.211c0 .667.146 1.26.438 1.781a3.18 3.18 0 0 0 1.25 1.227c.536.292 1.172.438 1.906.438s1.37-.146 1.906-.437c.542-.297.958-.706 1.25-1.227s.438-1.115.438-1.781V38.7zm5.924 20.5V42.7h2.781v1.984h.164c.146-.292.352-.602.617-.93.266-.333.625-.617 1.078-.852.453-.24 1.031-.359 1.734-.359.927 0 1.763.237 2.508.711.75.469 1.344 1.164 1.781 2.086.443.917.664 2.042.664 3.375 0 1.318-.216 2.438-.648 3.359s-1.021 1.625-1.766 2.109-1.589.727-2.531.727c-.687 0-1.258-.115-1.711-.344s-.818-.505-1.094-.828a5.36 5.36 0 0 1-.633-.93h-.117V59.2H80.48zm2.773-10.5c0 .776.109 1.456.328 2.039.224.583.544 1.039.961 1.367.422.323.932.484 1.531.484.625 0 1.148-.167 1.57-.5.422-.339.74-.8.953-1.383.219-.588.328-1.258.328-2.008 0-.745-.107-1.406-.32-1.984s-.531-1.031-.953-1.359-.948-.492-1.578-.492c-.604 0-1.117.159-1.539.477s-.742.763-.961 1.336c-.213.573-.32 1.247-.32 2.023zm13.805-10v16H94.23v-16h2.828zm2.908 16v-12h2.828v12h-2.828zm1.422-13.703a1.65 1.65 0 0 1-1.156-.445c-.323-.302-.484-.664-.484-1.086a1.42 1.42 0 0 1 .484-1.086c.323-.302.708-.453 1.156-.453s.839.151 1.156.453a1.42 1.42 0 0 1 .485 1.086c0 .422-.162.784-.485 1.086a1.63 1.63 0 0 1-1.156.445zm7.143 6.672V54.7h-2.828v-12h2.703v2.039h.14a3.43 3.43 0 0 1 1.321-1.602c.609-.396 1.362-.594 2.258-.594.828 0 1.549.177 2.164.531s1.099.867 1.437 1.539c.344.672.513 1.487.508 2.445V54.7h-2.828v-7.203c0-.802-.209-1.43-.625-1.883s-.982-.68-1.711-.68c-.495 0-.935.109-1.32.328-.381.214-.68.523-.899.93-.213.406-.32.898-.32 1.477zm13.156 3.266l-.008-3.414h.453l4.313-4.82h3.305l-5.305 5.906h-.586l-2.172 2.328zm-2.578 3.766v-16h2.828v16h-2.828zm7.531 0l-3.906-5.461 1.906-1.992 5.383 7.453h-3.383z" fill="url(#I)"/><path d="M149.891 35.7a3 3 0 0 0-2.1.885l-6.45 6.435a1.5 1.5 0 0 0 0 2.115c.14.141.306.252.488.328a1.5 1.5 0 0 0 1.154 0c.183-.076.349-.188.488-.328l4.92-4.935v15a1.5 1.5 0 0 0 1.5 1.5 1.5 1.5 0 0 0 1.5-1.5v-15l4.935 4.935a1.5 1.5 0 0 0 2.123.008 1.5 1.5 0 0 0 .007-2.123l-6.45-6.435a3 3 0 0 0-2.115-.885z" fill="url(#J)"/><path d="M221.292 83.2v290m186-290v290m116-290v290m338-290v290" stroke="#8c8c8c" stroke-width=".8" stroke-dasharray="1.8 1.8"/><path d="M.609 241.917a.4.4 0 0 0 0 .566l2.546 2.545a.4.4 0 1 0 .566-.566L1.458 242.2l2.263-2.263a.4.4 0 1 0-.566-.566l-2.546 2.546zm218.566.566a.4.4 0 0 0 0-.566l-2.546-2.546a.4.4 0 0 0-.565 0 .4.4 0 0 0 0 .566l2.262 2.263-2.262 2.262a.4.4 0 0 0 0 .566.4.4 0 0 0 .565 0l2.546-2.545zM.892 242.2v.4h218v-.4-.4h-218v.4zm222.717-.283a.4.4 0 0 0 0 .566l2.546 2.545a.4.4 0 1 0 .566-.566l-2.263-2.262 2.263-2.263a.4.4 0 1 0-.566-.566l-2.546 2.546zm183.566.566a.4.4 0 0 0 0-.566l-2.546-2.546a.4.4 0 0 0-.565 0 .4.4 0 0 0 0 .566l2.262 2.263-2.262 2.262a.4.4 0 0 0 0 .566.4.4 0 0 0 .565 0l2.546-2.545zm-183.283-.283v.4h183v-.4-.4h-183v.4zm300.717 102.717a.4.4 0 0 0 0 .566l2.546 2.545a.4.4 0 1 0 .566-.566l-2.263-2.262 2.263-2.263a.4.4 0 1 0-.566-.566l-2.546 2.546zm335.566.566a.4.4 0 0 0 0-.566l-2.546-2.546a.4.4 0 0 0-.565 0 .4.4 0 0 0 0 .566l2.262 2.263-2.262 2.262a.4.4 0 0 0 0 .566.4.4 0 0 0 .565 0l2.546-2.545zm-335.283-.283v.4h335v-.4-.4h-335v.4z" fill="#fcacac"/><g fill="#888"><path d="M55.602 196.291c0 1.488-.279 2.764-.837 3.825s-1.309 1.867-2.267 2.429-2.035.844-3.245.844-2.294-.282-3.252-.844-1.709-1.378-2.267-2.435c-.553-1.062-.83-2.335-.83-3.819s.277-2.762.83-3.819c.558-1.062 1.313-1.874 2.267-2.436s2.042-.843 3.252-.843 2.292.281 3.245.843 1.714 1.374 2.267 2.436c.558 1.057.837 2.33.837 3.819zm-2.517 0c0-1.048-.164-1.932-.492-2.652s-.774-1.271-1.349-1.64-1.239-.56-1.99-.56-1.415.187-1.99.56-1.028.916-1.356 1.64-.486 1.604-.486 2.652.162 1.934.486 2.658.781 1.266 1.356 1.64c.576.368 1.239.553 1.99.553s1.415-.185 1.99-.553c.576-.374 1.026-.92 1.349-1.64s.492-1.61.492-2.658zm7.218.836v6.073H57.86v-10.364h2.334v1.761h.121c.238-.58.619-1.041 1.14-1.383s1.176-.513 1.95-.513c.715 0 1.338.153 1.869.459s.949.749 1.241 1.329.443 1.284.439 2.112v6.599h-2.443v-6.221c0-.693-.18-1.235-.54-1.626s-.848-.587-1.478-.587c-.427 0-.807.094-1.14.283s-.587.452-.776.803-.277.776-.277 1.275zm15.731 6.073h-2.672l4.865-13.818h3.09l4.871 13.818h-2.672l-3.691-10.985h-.108L76.034 203.2zm.088-5.418h7.287v2.01h-7.287v-2.01zm11.853 5.418v-10.364h2.442V203.2h-2.442zm1.228-11.835c-.387 0-.72-.128-.999-.384a1.24 1.24 0 0 1-.418-.938c0-.369.139-.682.418-.938a1.41 1.41 0 0 1 .999-.391c.391 0 .724.13.999.391s.418.569.418.938a1.24 1.24 0 0 1-.418.938 1.41 1.41 0 0 1-.999.384zm3.726 11.835v-10.364h2.368v1.727h.108c.189-.598.513-1.059.972-1.383s.992-.492 1.586-.492l.452.02c.171.009.313.025.425.047v2.247a2.56 2.56 0 0 0-.492-.095 4.61 4.61 0 0 0-.641-.047c-.445 0-.846.097-1.201.29a2.12 2.12 0 0 0-.83.79c-.202.337-.304.726-.304 1.167v6.093H92.93zm11.747-11.72v-2.098h11.025v2.098h-4.271v11.72h-2.483v-11.72h-4.271zm13.042 11.72v-10.364h2.443V203.2h-2.443zm1.228-11.835c-.387 0-.719-.128-.998-.384a1.24 1.24 0 0 1-.419-.938c0-.369.14-.682.419-.938a1.41 1.41 0 0 1 .998-.391c.392 0 .725.13.999.391s.418.569.418.938a1.24 1.24 0 0 1-.418.938 1.41 1.41 0 0 1-.999.384zm3.726 11.835v-10.364h2.335v1.761h.121a2.75 2.75 0 0 1 1.073-1.39c.5-.337 1.096-.506 1.788-.506.702 0 1.293.171 1.775.513a2.72 2.72 0 0 1 1.025 1.383h.108a2.83 2.83 0 0 1 1.161-1.376c.549-.347 1.198-.52 1.95-.52.953 0 1.731.302 2.334.904s.904 1.482.904 2.638v6.957h-2.449v-6.579c0-.643-.171-1.113-.513-1.41a1.85 1.85 0 0 0-1.255-.452c-.589 0-1.05.184-1.383.553s-.492.839-.492 1.424v6.464h-2.396v-6.68c0-.535-.162-.963-.485-1.282s-.738-.479-1.255-.479c-.351 0-.671.09-.958.27a1.88 1.88 0 0 0-.689.749c-.171.319-.256.693-.256 1.12v6.302h-2.443zm21.64.202c-1.039 0-1.936-.216-2.692-.648s-1.329-1.052-1.734-1.848-.607-1.743-.607-2.827c0-1.066.202-2.002.607-2.807s.981-1.44 1.714-1.889c.733-.455 1.594-.682 2.584-.682.639 0 1.242.104 1.808.31a4.1 4.1 0 0 1 1.512.945c.44.427.787.972 1.039 1.633s.378 1.439.378 2.348v.749h-8.495v-1.646h6.153c-.004-.468-.105-.884-.303-1.249s-.475-.659-.83-.87-.76-.317-1.228-.317a2.38 2.38 0 0 0-1.316.364c-.378.239-.672.553-.884.945s-.312.812-.317 1.275v1.437c0 .603.11 1.12.331 1.552a2.33 2.33 0 0 0 .924.985c.396.229.859.337 1.39.337.355 0 .677-.049.965-.148a2.08 2.08 0 0 0 .749-.452c.212-.198.371-.443.479-.736l2.28.257c-.144.603-.418 1.129-.823 1.579s-.913.791-1.538 1.039-1.341.364-2.146.364zm109.943-.202v-13.818h5.182c1.061 0 1.952.184 2.672.553s1.27.886 1.639 1.552.56 1.432.56 2.314-.189 1.655-.566 2.307-.925 1.15-1.654 1.505-1.623.526-2.685.526h-3.691v-2.078h3.354c.62 0 1.129-.085 1.525-.256s.688-.43.877-.763.29-.751.29-1.241-.097-.909-.29-1.255-.488-.616-.884-.796-.907-.277-1.532-.277h-2.294V203.2h-2.503zm7.139-6.262l3.42 6.262h-2.793l-3.36-6.262h2.733zm7.108-4.102l2.091 3.826 2.126-3.826h2.584l-3.124 5.182 3.178 5.182h-2.571l-2.193-3.731-2.172 3.731h-2.591l3.157-5.182-3.076-5.182h2.591zm13.376 10.364v-1.809l4.797-4.702 1.147-1.235c.306-.36.535-.708.688-1.046a2.58 2.58 0 0 0 .23-1.079c0-.437-.099-.81-.297-1.12s-.47-.558-.817-.729a2.63 2.63 0 0 0-1.18-.257 2.43 2.43 0 0 0-1.195.284 1.95 1.95 0 0 0-.796.789c-.184.342-.276.749-.276 1.222h-2.382c0-.878.2-1.64.6-2.288a4.06 4.06 0 0 1 1.653-1.504c.707-.356 1.516-.533 2.429-.533.927 0 1.741.173 2.443.519s1.246.821 1.633 1.424.587 1.291.587 2.064a4.1 4.1 0 0 1-.297 1.525c-.198.5-.547 1.053-1.046 1.66s-1.19 1.343-2.085 2.206l-2.382 2.423v.094h6.019v2.092h-9.473zm21.331 0h-4.682v-13.818h4.776c1.372 0 2.551.276 3.536.829a5.55 5.55 0 0 1 2.281 2.369c.53 1.03.796 2.262.796 3.697s-.268 2.676-.803 3.711a5.57 5.57 0 0 1-2.301 2.382c-1.003.553-2.2.83-3.603.83zm-2.179-2.166h2.058c.962 0 1.765-.176 2.408-.526.644-.356 1.127-.884 1.451-1.586s.486-1.588.486-2.645-.162-1.934-.486-2.631a3.31 3.31 0 0 0-1.437-1.572c-.63-.351-1.413-.527-2.348-.527h-2.132v9.487zm15.744 2.368c-1.039 0-1.936-.216-2.692-.648-.751-.436-1.329-1.052-1.734-1.848s-.607-1.743-.607-2.827c0-1.066.202-2.002.607-2.807s.981-1.44 1.714-1.889c.733-.455 1.594-.682 2.584-.682a5.25 5.25 0 0 1 1.808.31 4.11 4.11 0 0 1 1.512.945c.44.427.787.972 1.039 1.633s.378 1.439.378 2.348v.749h-8.495v-1.646h6.153c-.004-.468-.105-.884-.303-1.249s-.475-.659-.83-.87-.76-.317-1.228-.317c-.5 0-.938.121-1.316.364s-.672.553-.884.945-.312.812-.317 1.275v1.437c0 .603.11 1.12.331 1.552a2.33 2.33 0 0 0 .924.985c.396.229.859.337 1.39.337.355 0 .677-.049.965-.148a2.08 2.08 0 0 0 .749-.452c.212-.198.371-.443.479-.736l2.28.257c-.144.603-.418 1.129-.823 1.579s-.913.791-1.538 1.039-1.341.364-2.146.364zm9.117-14.02V203.2h-2.442v-13.818h2.442zm5.494 14.027c-.657 0-1.248-.117-1.774-.351a2.89 2.89 0 0 1-1.242-1.053c-.301-.463-.452-1.034-.452-1.713 0-.585.108-1.069.324-1.451a2.52 2.52 0 0 1 .884-.918c.373-.229.794-.402 1.262-.519s.96-.209 1.464-.263l1.477-.169c.378-.054.653-.135.824-.243s.263-.285.263-.519v-.041c0-.508-.151-.902-.452-1.181s-.736-.418-1.303-.418c-.598 0-1.072.131-1.423.391s-.581.569-.702.925l-2.281-.324c.18-.63.477-1.156.891-1.579a3.92 3.92 0 0 1 1.518-.958c.598-.216 1.26-.324 1.984-.324a6.46 6.46 0 0 1 1.491.176c.495.117.947.31 1.356.58a2.9 2.9 0 0 1 .985 1.086c.252.459.378 1.032.378 1.721v6.936h-2.348v-1.424h-.081a2.97 2.97 0 0 1-.627.81c-.266.247-.601.447-1.006.6s-.87.223-1.41.223zm.634-1.795c.491 0 .916-.097 1.276-.29.359-.198.636-.459.83-.783a2 2 0 0 0 .296-1.059v-1.221c-.076.063-.207.121-.391.175a5.88 5.88 0 0 1-.607.142l-.668.108-.574.081c-.364.049-.69.13-.978.243s-.515.27-.681.472-.25.454-.25.769c0 .45.164.79.492 1.019s.747.344 1.255.344zm8.441 5.472c-.333 0-.641-.027-.924-.081s-.502-.108-.668-.175l.567-1.903c.355.103.672.153.951.148a1.16 1.16 0 0 0 .735-.263c.216-.166.398-.445.547-.836l.209-.56-3.758-10.58h2.591l2.388 7.827h.108l2.395-7.827h2.598l-4.149 11.619a4.67 4.67 0 0 1-.77 1.41c-.319.396-.71.697-1.174.904-.458.211-1.007.317-1.646.317z"/><path d="M582.602 302.291c0 1.488-.279 2.764-.836 3.825s-1.309 1.867-2.267 2.429-2.036.844-3.246.844-2.294-.282-3.252-.844-1.709-1.378-2.267-2.435c-.553-1.062-.83-2.335-.83-3.819s.277-2.762.83-3.819 1.314-1.874 2.267-2.436 2.042-.843 3.252-.843 2.292.281 3.246.843 1.713 1.374 2.267 2.436.836 2.33.836 3.819zm-2.516 0c0-1.048-.165-1.932-.493-2.652s-.774-1.271-1.349-1.64-1.24-.56-1.991-.56-1.414.187-1.99.56-1.028.916-1.356 1.64-.486 1.604-.486 2.652.162 1.934.486 2.658.78 1.266 1.356 1.64c.576.368 1.239.553 1.99.553s1.415-.185 1.991-.553c.575-.374 1.025-.92 1.349-1.64s.493-1.61.493-2.658zm4.775 10.795v-14.25h2.402v1.714h.142a4.45 4.45 0 0 1 .533-.803c.229-.288.539-.533.931-.736s.89-.31 1.498-.31a3.95 3.95 0 0 1 2.165.614c.648.405 1.161 1.005 1.539 1.802.382.791.573 1.763.573 2.914 0 1.138-.186 2.105-.56 2.902s-.881 1.403-1.525 1.821-1.371.628-2.186.628c-.593 0-1.086-.099-1.477-.297s-.706-.436-.945-.715-.416-.551-.546-.803h-.102v5.519h-2.442zm2.395-9.068c0 .67.095 1.257.284 1.761s.47.897.829 1.181c.365.279.806.418 1.323.418.54 0 .992-.144 1.356-.432s.639-.69.823-1.194.284-1.086.284-1.734c0-.643-.093-1.215-.277-1.714s-.459-.891-.823-1.174-.819-.425-1.363-.425c-.522 0-.965.137-1.329.412s-.641.659-.83 1.153-.277 1.078-.277 1.748zm14.068 5.384c-1.039 0-1.936-.216-2.692-.648-.751-.436-1.329-1.052-1.734-1.848s-.607-1.743-.607-2.827c0-1.066.202-2.002.607-2.807s.98-1.44 1.714-1.889c.733-.455 1.594-.682 2.584-.682a5.25 5.25 0 0 1 1.808.31c.571.203 1.075.518 1.511.945s.788.972 1.039 1.633.378 1.439.378 2.348v.749h-8.494v-1.646h6.153c-.004-.468-.106-.884-.304-1.249s-.474-.659-.829-.87-.761-.317-1.228-.317c-.5 0-.938.121-1.316.364s-.673.553-.884.945a2.71 2.71 0 0 0-.317 1.275v1.437c0 .603.11 1.12.33 1.552.221.427.529.756.925.985s.859.337 1.39.337c.355 0 .677-.049.965-.148s.537-.254.749-.452.371-.443.479-.736l2.28.257c-.144.603-.418 1.129-.823 1.579-.4.445-.913.791-1.538 1.039s-1.341.364-2.146.364zm9.117-6.275v6.073h-2.442v-10.364h2.334v1.761h.122a2.96 2.96 0 0 1 1.14-1.383c.526-.342 1.176-.513 1.95-.513.715 0 1.338.153 1.869.459a3.09 3.09 0 0 1 1.241 1.329c.297.58.443 1.284.439 2.112v6.599h-2.443v-6.221c0-.693-.18-1.235-.539-1.626s-.848-.587-1.478-.587c-.427 0-.807.094-1.14.283s-.587.452-.776.803-.277.776-.277 1.275zm19.024-4.291v1.889h-5.958v-1.889h5.958zm-4.487-2.483h2.442v9.73c0 .328.05.58.149.755s.238.288.405.351.35.095.553.095a2.43 2.43 0 0 0 .418-.034l.297-.061.412 1.909a5.46 5.46 0 0 1-.56.149c-.239.054-.531.085-.878.094-.611.018-1.162-.074-1.653-.276s-.879-.527-1.167-.958c-.283-.432-.423-.972-.418-1.62v-10.134zm6.529 12.847v-10.364h2.443V309.2h-2.443zm1.228-11.835c-.386 0-.719-.128-.998-.384a1.24 1.24 0 0 1-.419-.938c0-.369.14-.682.419-.938a1.41 1.41 0 0 1 .998-.391c.392 0 .725.13.999.391.279.256.418.569.418.938a1.24 1.24 0 0 1-.418.938 1.41 1.41 0 0 1-.999.384zm6.169-1.983V309.2h-2.442v-13.818h2.442zm4.954 0V309.2h-2.442v-13.818h2.442zm9.667 7.745v6.073h-2.442v-10.364h2.334v1.761h.122a2.96 2.96 0 0 1 1.14-1.383c.526-.342 1.176-.513 1.95-.513.715 0 1.338.153 1.869.459a3.09 3.09 0 0 1 1.241 1.329c.297.58.443 1.284.439 2.112v6.599h-2.443v-6.221c0-.693-.18-1.235-.539-1.626s-.848-.587-1.478-.587c-.427 0-.808.094-1.14.283s-.587.452-.776.803-.277.776-.277 1.275zm13.724 6.275c-1.039 0-1.937-.216-2.692-.648a4.38 4.38 0 0 1-1.734-1.848c-.405-.801-.608-1.743-.608-2.827 0-1.066.203-2.002.608-2.807s.98-1.44 1.713-1.889c.734-.455 1.595-.682 2.585-.682.638 0 1.241.104 1.808.31s1.075.518 1.511.945.787.972 1.039 1.633.378 1.439.378 2.348v.749h-8.495v-1.646h6.154c-.005-.468-.106-.884-.304-1.249a2.2 2.2 0 0 0-.83-.87c-.351-.211-.76-.317-1.228-.317-.499 0-.938.121-1.315.364s-.673.553-.884.945a2.71 2.71 0 0 0-.317 1.275v1.437c0 .603.11 1.12.33 1.552.221.427.529.756.925.985s.859.337 1.39.337c.355 0 .677-.049.964-.148a2.13 2.13 0 0 0 .749-.452c.212-.198.371-.443.479-.736l2.281.257c-.144.603-.418 1.129-.823 1.579-.401.445-.913.791-1.539 1.039s-1.34.364-2.145.364zm8.449-10.566l2.092 3.826 2.125-3.826h2.584l-3.124 5.182 3.178 5.182h-2.571l-2.192-3.731-2.173 3.731h-2.591l3.158-5.182-3.077-5.182h2.591zm13.865 0v1.889h-5.957v-1.889h5.957zm-4.487-2.483h2.443v9.73c0 .328.049.58.148.755s.239.288.405.351.351.095.553.095c.153 0 .293-.012.419-.034l.297-.061.411 1.909c-.13.045-.317.095-.56.149s-.531.085-.877.094c-.612.018-1.163-.074-1.653-.276s-.879-.527-1.167-.958-.423-.972-.419-1.62v-10.134zm17.848 8.488v-6.005h2.443V309.2h-2.368v-1.842h-.108c-.234.58-.619 1.055-1.154 1.423s-1.185.554-1.964.554c-.679 0-1.279-.151-1.801-.452-.517-.306-.922-.749-1.214-1.33s-.439-1.291-.439-2.118v-6.599h2.442v6.221c0 .657.18 1.178.54 1.565s.832.581 1.417.581c.36 0 .709-.088 1.046-.264s.614-.436.83-.782.33-.79.33-1.316zm4.955 8.245v-14.25h2.401v1.714h.142c.126-.252.304-.52.533-.803.23-.288.54-.533.931-.736s.891-.31 1.498-.31a3.95 3.95 0 0 1 2.166.614c.648.405 1.161 1.005 1.538 1.802.383.791.574 1.763.574 2.914 0 1.138-.187 2.105-.56 2.902s-.882 1.403-1.525 1.821-1.372.628-2.186.628c-.594 0-1.086-.099-1.478-.297s-.706-.436-.944-.715-.416-.551-.547-.803h-.101v5.519h-2.442zm2.395-9.068c0 .67.094 1.257.283 1.761s.47.897.83 1.181.805.418 1.322.418c.54 0 .992-.144 1.357-.432s.638-.69.823-1.194.283-1.086.283-1.734c0-.643-.092-1.215-.276-1.714s-.459-.891-.824-1.174-.818-.425-1.363-.425c-.521 0-.964.137-1.329.412s-.641.659-.83 1.153c-.184.495-.276 1.078-.276 1.748zm11.922-8.636V309.2h-2.442v-13.818h2.442zm2.512 13.818v-10.364h2.442V309.2h-2.442zm1.228-11.835c-.387 0-.72-.128-.999-.384a1.24 1.24 0 0 1-.418-.938c0-.369.139-.682.418-.938a1.41 1.41 0 0 1 .999-.391c.391 0 .724.13.998.391.279.256.418.569.418.938a1.24 1.24 0 0 1-.418.938 1.41 1.41 0 0 1-.998.384zm6.168 5.762v6.073h-2.442v-10.364h2.334v1.761h.122a2.96 2.96 0 0 1 1.14-1.383c.526-.342 1.176-.513 1.95-.513.715 0 1.338.153 1.869.459a3.09 3.09 0 0 1 1.241 1.329c.297.58.443 1.284.439 2.112v6.599h-2.443v-6.221c0-.693-.18-1.235-.539-1.626s-.848-.587-1.478-.587c-.427 0-.807.094-1.14.283s-.587.452-.776.803-.277.776-.277 1.275zm11.362 2.821l-.006-2.949h.391l3.724-4.163h2.854l-4.581 5.101h-.506l-1.876 2.011zm-2.226 3.252v-13.818h2.442V309.2h-2.442zm6.504 0l-3.373-4.717 1.646-1.72 4.649 6.437h-2.922z"/></g><defs><linearGradient id="A" x1="-2.591" y1="92.2" x2="228.125" y2="67.346" href="#K"><stop stop-color="#d84896"/><stop offset="1" stop-color="#2f67ff"/></linearGradient><linearGradient id="B" x1="746.04" y1="92.2" x2="869.757" y2="85.112" href="#K"><stop stop-color="#50c8a7"/><stop offset="1" stop-color="#1d9587"/></linearGradient><linearGradient id="C" x1="516.462" y1="92.2" x2="870.361" y2="32.761" href="#K"><stop stop-color="#50c8a7"/><stop offset="1" stop-color="#1d9587"/></linearGradient><linearGradient id="D" x1="217.948" y1="92.2" x2="413.612" y2="74.184" href="#K"><stop stop-color="#50c8a7"/><stop offset="1" stop-color="#1d9587"/></linearGradient><linearGradient id="E" x1="405.056" y1="181.2" x2="527.713" y2="174.156" href="#K"><stop stop-color="#50c8a7"/><stop offset="1" stop-color="#1d9587"/></linearGradient><linearGradient id="F" x1="747.892" y1="51.7" x2="683.699" y2="54.848" href="#K"><stop stop-color="#50c8a7"/><stop offset="1" stop-color="#83db95"/></linearGradient><linearGradient id="G" x1="509.051" y1="140.852" x2="446.854" y2="143.806" href="#K"><stop stop-color="#50c8a7"/><stop offset="1" stop-color="#83db95"/></linearGradient><linearGradient id="H" x1="395.341" y1="49.2" x2="292.422" y2="57.323" href="#K"><stop stop-color="#50c8a7"/><stop offset="1" stop-color="#83db95"/></linearGradient><linearGradient id="I" x1="158.892" y1="46.2" x2="63.448" y2="56.341" href="#K"><stop stop-color="#ff5f9b"/><stop offset="1" stop-color="#2f67ff"/></linearGradient><linearGradient id="J" x1="149.899" y1="35.7" x2="149.899" y2="56.7" href="#K"><stop stop-color="#d84896"/><stop offset="1" stop-color="#2f67ff"/></linearGradient><linearGradient id="K" gradientUnits="userSpaceOnUse"/></defs></svg>