<svg xmlns="http://www.w3.org/2000/svg" width="871" height="337" fill="none" xmlns:v="https://vecta.io/nano"><g fill="#a8a8a8"><path d="M213.77 82.181v7.273h-.881v-6.349h-.042l-1.776 1.179v-.895l1.818-1.207h.881zm5.032 7.273v-7.273h.838v2.685h.071l.256-.362c.111-.149.27-.282.476-.398s.49-.178.845-.178a2.16 2.16 0 0 1 1.214.345c.35.23.624.555.821.977s.294.919.294 1.491-.098 1.078-.294 1.502a2.33 2.33 0 0 1-.817.98c-.348.23-.749.344-1.204.344-.35 0-.631-.058-.842-.174s-.372-.252-.486-.401l-.263-.376h-.099v.838h-.81zm.824-2.727c0 .412.06.775.181 1.09a1.63 1.63 0 0 0 .529.735c.232.177.516.263.852.263.351 0 .643-.092.878-.277s.414-.438.532-.753a2.95 2.95 0 0 0 .181-1.058c0-.384-.059-.729-.177-1.037s-.293-.555-.529-.735-.529-.273-.885-.273c-.34 0-.627.086-.859.259s-.407.41-.526.717-.177.662-.177 1.069zm5.618 4.773a1.81 1.81 0 0 1-.38-.036c-.111-.024-.188-.043-.231-.064l.213-.739c.204.052.384.071.54.057s.295-.084.415-.209.236-.323.338-.6l.156-.426L224.278 84h.909l1.506 4.347h.057L228.255 84h.909l-2.315 6.25a2.36 2.36 0 0 1-.387.7 1.48 1.48 0 0 1-.536.416 1.66 1.66 0 0 1-.682.135zm7.399-7.5v.71h-2.827V84h2.827zm-2.003-1.307h.838v5.199c0 .237.034.414.103.533a.51.51 0 0 0 .27.234 1.08 1.08 0 0 0 .351.057c.093 0 .168-.005.228-.014l.142-.028.17.753c-.057.021-.136.043-.238.064s-.231.035-.387.035a1.68 1.68 0 0 1-.696-.153 1.38 1.38 0 0 1-.561-.465c-.147-.208-.22-.471-.22-.788v-5.426zm5.492 6.875c-.526 0-.979-.116-1.36-.348a2.31 2.31 0 0 1-.878-.98c-.206-.419-.305-.912-.305-1.47s.102-1.051.305-1.477a2.41 2.41 0 0 1 .86-1.002 2.31 2.31 0 0 1 1.292-.362 2.59 2.59 0 0 1 .842.142 2.08 2.08 0 0 1 .756.462c.228.211.409.49.544.838s.202.776.202 1.285v.355h-4.204v-.724h3.352a1.79 1.79 0 0 0-.185-.824 1.39 1.39 0 0 0-.518-.572c-.223-.14-.486-.209-.789-.209a1.51 1.51 0 0 0-.866.248 1.64 1.64 0 0 0-.558.639 1.88 1.88 0 0 0-.195.845v.483c0 .412.071.761.213 1.048a1.51 1.51 0 0 0 .6.65 1.76 1.76 0 0 0 .892.22 1.81 1.81 0 0 0 .596-.092 1.28 1.28 0 0 0 .767-.76l.81.227a1.79 1.79 0 0 1-.43.724c-.201.208-.45.367-.746.483a2.76 2.76 0 0 1-.997.17zm373.309 92.395c-.535 0-.99-.145-1.367-.437s-.664-.718-.863-1.274-.298-1.234-.298-2.025.099-1.457.298-2.013.49-.985.867-1.278a2.16 2.16 0 0 1 1.363-.444c.53 0 .984.148 1.36.444s.668.719.867 1.278.302 1.227.302 2.013-.1 1.466-.298 2.025-.487.981-.863 1.274-.833.437-1.368.437zm0-.781c.531 0 .943-.256 1.236-.767s.441-1.241.441-2.188c0-.629-.068-1.166-.203-1.608s-.324-.78-.575-1.012a1.27 1.27 0 0 0-.899-.348c-.525 0-.936.259-1.232.777s-.444 1.247-.444 2.191c0 .63.067 1.165.199 1.606s.323.775.572 1.004.553.345.905.345zm4.249.739c-.175 0-.325-.063-.451-.189a.61.61 0 0 1-.188-.451c0-.176.063-.325.188-.451a.61.61 0 0 1 .451-.188c.175 0 .326.063.451.188s.189.276.189.451c0 .116-.03.223-.089.32a.68.68 0 0 1-.231.234.61.61 0 0 1-.32.086zm3.817-7.33v7.273h-.881v-6.35h-.042l-1.776 1.179v-.895l1.818-1.207h.881zm5.032 7.273v-7.273h.838v2.685h.071l.256-.363c.111-.149.27-.281.476-.397s.49-.178.845-.178a2.16 2.16 0 0 1 1.214.345 2.28 2.28 0 0 1 .82.976c.197.422.295.919.295 1.492s-.098 1.078-.295 1.502-.468.748-.816.98-.75.344-1.204.344c-.35 0-.631-.058-.842-.174s-.373-.252-.486-.401l-.263-.376h-.099v.838h-.81zm.824-2.728c0 .412.06.776.181 1.091s.297.557.529.735.516.263.852.263c.351 0 .643-.093.877-.277s.415-.438.533-.753a2.95 2.95 0 0 0 .181-1.059c0-.383-.059-.729-.177-1.036a1.6 1.6 0 0 0-.53-.736c-.234-.182-.529-.273-.884-.273-.341 0-.627.086-.859.259s-.407.41-.526.718-.177.661-.177 1.068zm5.618 4.773c-.142 0-.269-.012-.38-.035s-.189-.043-.231-.064l.213-.739c.204.052.383.071.54.057s.294-.084.415-.21.236-.323.338-.6l.156-.426-2.017-5.483h.909l1.506 4.347h.056l1.506-4.347h.909l-2.315 6.25a2.36 2.36 0 0 1-.387.7 1.45 1.45 0 0 1-.537.415 1.65 1.65 0 0 1-.681.135zm7.398-7.5v.71h-2.826v-.71h2.826zm-2.002-1.307h.838v5.199c0 .237.034.415.103.533a.53.53 0 0 0 .27.234c.111.038.228.057.351.057a1.55 1.55 0 0 0 .227-.014l.142-.028.171.752c-.057.022-.136.043-.238.064a1.73 1.73 0 0 1-.387.036 1.68 1.68 0 0 1-.696-.153c-.225-.102-.412-.257-.561-.465s-.22-.471-.22-.788v-5.427zm5.491 6.875c-.525 0-.978-.116-1.36-.348a2.3 2.3 0 0 1-.877-.98c-.206-.419-.305-.911-.305-1.47s.102-1.051.305-1.477.493-.762.86-1.002a2.31 2.31 0 0 1 1.292-.362c.284 0 .565.048.842.142s.529.249.756.462.409.49.544.838.202.776.202 1.285v.356h-4.205v-.725h3.353a1.79 1.79 0 0 0-.185-.824c-.121-.241-.294-.432-.518-.571s-.486-.21-.789-.21a1.5 1.5 0 0 0-.866.249c-.242.163-.428.376-.558.639a1.88 1.88 0 0 0-.195.845v.483c0 .412.071.761.213 1.048a1.53 1.53 0 0 0 .6.649c.256.147.553.221.891.221.221 0 .419-.031.597-.093s.335-.158.465-.284a1.29 1.29 0 0 0 .302-.476l.81.228c-.086.274-.229.516-.43.724s-.45.367-.746.483-.628.17-.998.17zM280.51 276.345v-.724l3.196-5.057h.525v1.122h-.355l-2.415 3.821v.057h4.304v.781h-5.255zm3.423 1.491v-1.711-.338-5.223h.838v7.272h-.838zm6.103 0v-7.272h.839v2.684h.071l.255-.362c.111-.149.27-.282.476-.398s.49-.177.845-.177c.46 0 .864.115 1.215.344a2.29 2.29 0 0 1 .82.977c.197.421.295.918.295 1.491s-.098 1.079-.295 1.502-.469.749-.817.981a2.14 2.14 0 0 1-1.204.344c-.35 0-.63-.058-.841-.174a1.56 1.56 0 0 1-.487-.401l-.262-.377h-.1v.838h-.81zm.824-2.727c0 .412.061.775.181 1.09s.298.558.53.735.516.263.852.263c.35 0 .643-.092.877-.277s.414-.438.533-.753a2.97 2.97 0 0 0 .181-1.058 2.86 2.86 0 0 0-.178-1.037 1.6 1.6 0 0 0-.529-.735c-.234-.182-.529-.273-.884-.273-.341 0-.628.086-.86.259s-.407.409-.525.717-.178.662-.178 1.069zm5.618 4.773c-.142 0-.268-.012-.38-.036s-.188-.042-.231-.064l.213-.738c.204.052.384.071.54.057a.65.65 0 0 0 .416-.21c.123-.123.235-.323.337-.6l.156-.426-2.017-5.483h.909l1.506 4.346h.057l1.506-4.346h.909l-2.316 6.25c-.104.282-.233.515-.387.699a1.45 1.45 0 0 1-.536.416 1.65 1.65 0 0 1-.682.135zm7.399-7.5v.71h-2.827v-.71h2.827zm-2.003-1.307h.838v5.199c0 .237.035.414.103.533a.53.53 0 0 0 .27.234 1.08 1.08 0 0 0 .352.057 1.55 1.55 0 0 0 .227-.014l.142-.029.17.753c-.056.021-.136.043-.237.064a1.74 1.74 0 0 1-.388.035c-.236 0-.468-.05-.696-.152a1.39 1.39 0 0 1-.561-.465c-.146-.209-.22-.472-.22-.789v-5.426zm5.492 6.875c-.526 0-.979-.116-1.36-.348s-.671-.561-.877-.98-.306-.912-.306-1.47.102-1.051.306-1.478a2.41 2.41 0 0 1 .859-1.001c.369-.241.8-.362 1.293-.362.284 0 .564.047.841.142s.53.248.757.462.408.49.543.838.203.776.203 1.285v.355h-4.205v-.724h3.352c0-.308-.061-.583-.184-.824s-.294-.432-.519-.572-.485-.209-.788-.209a1.51 1.51 0 0 0-.867.248c-.241.164-.427.377-.557.639a1.88 1.88 0 0 0-.196.846v.483c0 .412.071.761.214 1.047s.344.501.6.65.552.22.891.22c.22 0 .419-.031.597-.092a1.28 1.28 0 0 0 .465-.284 1.3 1.3 0 0 0 .302-.476l.809.227c-.085.275-.228.516-.429.725a2.1 2.1 0 0 1-.746.483c-.296.113-.629.17-.998.17zm63.526-7.386v7.272h-.881v-6.349h-.042l-1.776 1.179v-.895l1.818-1.207h.881zm5.032 7.272v-7.272h.838v2.684h.071l.256-.362c.111-.149.27-.282.476-.398s.49-.177.845-.177c.459 0 .864.115 1.214.344s.624.555.821.977.294.918.294 1.491-.098 1.079-.294 1.502-.469.749-.817.981a2.14 2.14 0 0 1-1.204.344c-.35 0-.631-.058-.841-.174a1.56 1.56 0 0 1-.487-.401l-.263-.377h-.099v.838h-.81zm.824-2.727c0 .412.06.775.181 1.09a1.63 1.63 0 0 0 .529.735c.232.177.516.263.853.263.35 0 .642-.092.877-.277s.414-.438.532-.753.181-.67.181-1.058a2.88 2.88 0 0 0-.177-1.037c-.116-.31-.293-.555-.529-.735s-.529-.273-.884-.273c-.341 0-.628.086-.86.259s-.407.409-.525.717-.178.662-.178 1.069zm5.618 4.773a1.81 1.81 0 0 1-.38-.036c-.111-.021-.188-.042-.231-.064l.213-.738c.204.052.384.071.54.057s.295-.084.415-.21.236-.323.338-.6l.156-.426-2.017-5.483h.909l1.506 4.346h.057l1.505-4.346h.909l-2.315 6.25c-.104.282-.233.515-.387.699a1.49 1.49 0 0 1-.536.416 1.66 1.66 0 0 1-.682.135zm7.399-7.5v.71h-2.827v-.71h2.827zm-2.003-1.307h.838v5.199c0 .237.034.414.103.533a.53.53 0 0 0 .27.234c.111.038.228.057.351.057.093 0 .168-.005.228-.014l.142-.029.17.753c-.057.021-.136.043-.238.064s-.231.035-.387.035a1.68 1.68 0 0 1-.696-.152c-.225-.102-.412-.257-.561-.465s-.22-.472-.22-.789v-5.426zm5.492 6.875c-.526 0-.979-.116-1.36-.348a2.31 2.31 0 0 1-.878-.98c-.206-.419-.305-.912-.305-1.47s.102-1.051.305-1.478.493-.762.86-1.001a2.31 2.31 0 0 1 1.292-.362c.285 0 .565.047.842.142s.529.248.756.462a2.24 2.24 0 0 1 .544.838c.135.348.202.776.202 1.285v.355h-4.204v-.724h3.352c0-.308-.062-.583-.185-.824a1.41 1.41 0 0 0-.518-.572 1.46 1.46 0 0 0-.789-.209 1.51 1.51 0 0 0-.866.248c-.241.164-.427.377-.558.639s-.195.545-.195.846v.483c0 .412.071.761.213 1.047s.345.501.6.65.553.22.892.22c.22 0 .419-.031.596-.092a1.28 1.28 0 0 0 .465-.284c.131-.128.231-.287.302-.476l.81.227a1.79 1.79 0 0 1-.43.725c-.201.206-.45.367-.745.483s-.629.17-.998.17zm62.395-.114v-.639l2.4-2.628.696-.802c.183-.23.318-.445.405-.646a1.57 1.57 0 0 0 .135-.64c0-.255-.061-.477-.184-.664a1.2 1.2 0 0 0-.498-.433c-.21-.102-.447-.153-.71-.153-.279 0-.523.058-.731.174s-.366.274-.48.48a1.47 1.47 0 0 0-.167.724h-.838c0-.426.098-.8.295-1.122a2.05 2.05 0 0 1 .803-.753c.339-.18.723-.27 1.147-.27s.803.09 1.132.27.587.423.775.728.28.645.28 1.019c0 .268-.048.529-.146.785s-.26.536-.497.849a15.15 15.15 0 0 1-.976 1.136l-1.634 1.747v.057h3.381v.781h-4.588zm8.995 0v-7.272h.838v2.684h.071l.256-.362c.111-.149.27-.282.475-.398s.491-.177.846-.177c.459 0 .864.115 1.214.344s.624.555.82.977.295.918.295 1.491-.098 1.079-.295 1.502a2.32 2.32 0 0 1-.816.981c-.348.229-.75.344-1.204.344-.351 0-.631-.058-.842-.174s-.373-.252-.486-.401l-.263-.377h-.099v.838h-.81zm.824-2.727c0 .412.06.775.181 1.09a1.63 1.63 0 0 0 .529.735c.232.177.516.263.852.263.351 0 .643-.092.877-.277a1.7 1.7 0 0 0 .533-.753c.118-.315.181-.67.181-1.058a2.88 2.88 0 0 0-.177-1.037c-.116-.31-.293-.555-.53-.735s-.529-.273-.884-.273c-.341 0-.627.086-.859.259s-.407.409-.526.717a2.96 2.96 0 0 0-.177 1.069zm5.618 4.773a1.81 1.81 0 0 1-.38-.036c-.112-.021-.189-.042-.231-.064l.213-.738a1.62 1.62 0 0 0 .54.057.65.65 0 0 0 .415-.21c.123-.123.236-.323.338-.6l.156-.426-2.017-5.483h.909l1.505 4.346h.057l1.506-4.346h.909l-2.315 6.25c-.104.282-.233.515-.387.699s-.333.326-.537.416a1.65 1.65 0 0 1-.681.135zm7.398-7.5v.71h-2.826v-.71h2.826zm-2.002-1.307h.838v5.199c0 .237.034.414.103.533a.53.53 0 0 0 .27.234c.111.038.228.057.351.057a1.55 1.55 0 0 0 .227-.014l.142-.029.171.753c-.057.021-.136.043-.238.064s-.231.035-.387.035a1.68 1.68 0 0 1-.696-.152c-.225-.102-.412-.257-.561-.465s-.22-.472-.22-.789v-5.426zm5.491 6.875c-.525 0-.979-.116-1.36-.348s-.671-.561-.877-.98-.305-.912-.305-1.47.102-1.051.305-1.478.493-.762.86-1.001a2.31 2.31 0 0 1 1.292-.362 2.58 2.58 0 0 1 .842.142c.277.095.529.248.756.462a2.24 2.24 0 0 1 .544.838c.135.348.202.776.202 1.285v.355h-4.205v-.724h3.353c0-.308-.062-.583-.185-.824s-.294-.432-.518-.572a1.46 1.46 0 0 0-.789-.209c-.334 0-.622.083-.866.248a1.64 1.64 0 0 0-.558.639c-.13.263-.195.545-.195.846v.483c0 .412.071.761.213 1.047a1.51 1.51 0 0 0 .6.65c.256.149.553.22.891.22a1.83 1.83 0 0 0 .597-.092 1.28 1.28 0 0 0 .465-.284 1.3 1.3 0 0 0 .302-.476l.81.227a1.81 1.81 0 0 1-.43.725c-.201.206-.45.367-.746.483s-.628.17-.998.17z"/><path d="M538.938 277.936c-.536 0-.991-.146-1.368-.437s-.664-.718-.863-1.275-.298-1.233-.298-2.024.1-1.457.298-2.013.49-.985.867-1.279.833-.444 1.364-.444.983.148 1.36.444.667.72.866 1.279.302 1.227.302 2.013-.1 1.465-.298 2.024-.487.982-.863 1.275-.832.437-1.367.437zm0-.781c.53 0 .942-.256 1.235-.767s.441-1.241.441-2.188c0-.63-.068-1.166-.203-1.609s-.324-.78-.575-1.012a1.27 1.27 0 0 0-.898-.348c-.526 0-.937.26-1.233.778s-.444 1.246-.444 2.191c0 .63.067 1.165.199 1.605s.323.776.572 1.005.553.345.906.345zm4.248.738c-.175 0-.325-.062-.451-.188s-.188-.276-.188-.451.063-.325.188-.451a.61.61 0 0 1 .451-.188c.175 0 .326.063.451.188s.189.276.189.451c0 .116-.03.223-.089.32a.68.68 0 0 1-.231.234c-.097.059-.201.085-.32.085zm3.817-7.329v7.272h-.881v-6.349h-.042l-1.776 1.179v-.895l1.818-1.207h.881zm4.364 7.372a2.49 2.49 0 0 1-1.125-.249 2.08 2.08 0 0 1-.803-.682c-.201-.288-.311-.617-.33-.987h.852c.033.329.182.602.448.817a1.49 1.49 0 0 0 .958.32 1.51 1.51 0 0 0 .796-.21c.234-.14.418-.331.55-.575a1.71 1.71 0 0 0 .203-.835c0-.317-.07-.6-.21-.848a1.58 1.58 0 0 0-.568-.593c-.241-.144-.517-.218-.827-.221a2.29 2.29 0 0 0-.686.103c-.234.069-.427.158-.579.267l-.824-.1.441-3.579h3.778v.781h-3.04l-.255 2.145h.042a1.9 1.9 0 0 1 .561-.295c.225-.078.46-.117.704-.117.445 0 .841.106 1.189.32a2.27 2.27 0 0 1 .824.866c.199.367.302.786.302 1.257 0 .464-.104.878-.313 1.243a2.28 2.28 0 0 1-.852.859c-.362.209-.774.313-1.236.313zm6.752-.1v-7.272h.838v2.684h.071l.256-.362c.111-.149.27-.282.476-.398s.49-.177.845-.177c.459 0 .864.115 1.214.344s.624.555.821.977.294.918.294 1.491-.098 1.079-.294 1.502-.469.749-.817.981a2.14 2.14 0 0 1-1.204.344c-.35 0-.631-.058-.842-.174s-.373-.252-.486-.401l-.263-.377h-.099v.838h-.81zm.824-2.727c0 .412.06.775.181 1.09a1.63 1.63 0 0 0 .529.735c.232.177.516.263.852.263.351 0 .643-.092.877-.277a1.7 1.7 0 0 0 .533-.753c.118-.315.181-.67.181-1.058a2.88 2.88 0 0 0-.177-1.037c-.116-.31-.293-.555-.529-.735s-.53-.273-.885-.273c-.341 0-.627.086-.859.259s-.407.409-.526.717a2.96 2.96 0 0 0-.177 1.069zm5.618 4.773a1.81 1.81 0 0 1-.38-.036.95.95 0 0 1-.231-.064l.213-.738c.204.052.384.071.54.057s.295-.084.415-.21.236-.323.338-.6l.156-.426-2.017-5.483h.909l1.506 4.346h.056l1.506-4.346h.909l-2.315 6.25c-.104.282-.233.515-.387.699a1.49 1.49 0 0 1-.536.416 1.66 1.66 0 0 1-.682.135zm7.399-7.5v.71h-2.827v-.71h2.827zm-2.003-1.307h.838v5.199c0 .237.034.414.103.533a.53.53 0 0 0 .27.234c.111.038.228.057.351.057a1.54 1.54 0 0 0 .227-.014l.142-.029.171.753c-.057.021-.136.043-.238.064s-.231.035-.387.035a1.68 1.68 0 0 1-.696-.152c-.225-.102-.412-.257-.561-.465s-.22-.472-.22-.789v-5.426zm5.492 6.875c-.526 0-.979-.116-1.361-.348a2.3 2.3 0 0 1-.877-.98c-.206-.419-.305-.912-.305-1.47s.102-1.051.305-1.478.493-.762.86-1.001a2.31 2.31 0 0 1 1.292-.362 2.58 2.58 0 0 1 .842.142c.277.095.529.248.756.462a2.24 2.24 0 0 1 .544.838c.135.348.202.776.202 1.285v.355h-4.205v-.724h3.353c0-.308-.062-.583-.185-.824a1.39 1.39 0 0 0-.518-.572 1.46 1.46 0 0 0-.789-.209c-.334 0-.622.083-.866.248a1.64 1.64 0 0 0-.558.639c-.13.263-.195.545-.195.846v.483c0 .412.071.761.213 1.047a1.51 1.51 0 0 0 .6.65c.256.149.553.22.892.22.22 0 .419-.031.596-.092a1.28 1.28 0 0 0 .465-.284c.131-.128.231-.287.302-.476l.81.227a1.8 1.8 0 0 1-.43.725c-.201.206-.45.367-.746.483s-.628.17-.997.17zM745.05 87.962v-.724l3.196-5.057h.526v1.122h-.355l-2.415 3.821v.057h4.304v.781h-5.256zm3.424 1.492v-1.712-.337-5.224h.838v7.273h-.838zm6.103 0v-7.273h.838v2.685h.071l.256-.362c.111-.149.27-.282.476-.398s.49-.178.845-.178a2.16 2.16 0 0 1 1.214.345c.35.23.624.555.821.977s.295.919.295 1.491-.099 1.078-.295 1.502a2.33 2.33 0 0 1-.817.98c-.348.23-.749.344-1.204.344-.35 0-.631-.058-.841-.174s-.373-.252-.487-.401l-.263-.376h-.099v.838h-.81zm.824-2.727c0 .412.06.775.181 1.09a1.63 1.63 0 0 0 .529.735c.232.177.516.263.853.263.35 0 .642-.092.877-.277s.414-.438.532-.753a2.95 2.95 0 0 0 .181-1.058c0-.384-.059-.729-.177-1.037a1.6 1.6 0 0 0-.529-.735c-.235-.182-.529-.273-.884-.273-.341 0-.628.086-.86.259s-.407.41-.525.717-.178.662-.178 1.069zm5.618 4.773a1.81 1.81 0 0 1-.38-.036c-.111-.024-.188-.043-.231-.064l.213-.739c.204.052.384.071.54.057a.65.65 0 0 0 .416-.209c.123-.123.235-.323.337-.6l.156-.426L760.053 84h.909l1.506 4.347h.057L764.03 84h.909l-2.315 6.25a2.36 2.36 0 0 1-.387.7 1.48 1.48 0 0 1-.536.416 1.66 1.66 0 0 1-.682.135zm7.399-7.5v.71h-2.827V84h2.827zm-2.003-1.307h.838v5.199c0 .237.034.414.103.533a.51.51 0 0 0 .27.234 1.08 1.08 0 0 0 .351.057c.093 0 .169-.005.228-.014l.142-.028.17.753c-.057.021-.136.043-.238.064s-.231.035-.387.035a1.68 1.68 0 0 1-.696-.153 1.38 1.38 0 0 1-.561-.465c-.147-.208-.22-.471-.22-.788v-5.426zm5.492 6.875c-.526 0-.979-.116-1.36-.348s-.671-.561-.877-.98-.306-.912-.306-1.47.102-1.051.306-1.477.492-.762.859-1.002.8-.362 1.293-.362c.284 0 .564.047.841.142a2.1 2.1 0 0 1 .757.462c.228.213.408.49.543.838s.202.776.202 1.285v.355h-4.204v-.724h3.352a1.79 1.79 0 0 0-.185-.824c-.12-.242-.293-.432-.518-.572s-.485-.209-.788-.209a1.51 1.51 0 0 0-.867.248 1.63 1.63 0 0 0-.557.639 1.87 1.87 0 0 0-.196.845v.483c0 .412.071.761.213 1.048a1.51 1.51 0 0 0 .6.65 1.76 1.76 0 0 0 .892.22 1.81 1.81 0 0 0 .596-.092 1.29 1.29 0 0 0 .466-.284c.13-.128.23-.287.301-.476l.81.227a1.78 1.78 0 0 1-.43.724 2.07 2.07 0 0 1-.745.483c-.296.116-.629.17-.998.17zm-291.945-7.387v7.273h-.88v-6.349h-.043l-1.776 1.179v-.895l1.819-1.207h.88zm5.032 0h1.051l2.472 6.037h.085l2.472-6.037h1.051v7.273h-.824v-5.526h-.071l-2.273 5.526h-.795l-2.273-5.526h-.071v5.526h-.824v-7.273zm8.897 7.273v-7.273h.838v2.685h.071l.255-.362a1.51 1.51 0 0 1 .476-.398c.206-.116.49-.178.845-.178.46 0 .865.115 1.215.345a2.29 2.29 0 0 1 .82.977c.197.421.295.919.295 1.491s-.098 1.078-.295 1.502a2.32 2.32 0 0 1-.816.98c-.348.23-.75.344-1.204.344-.351 0-.631-.058-.842-.174s-.373-.252-.486-.401l-.263-.376h-.1v.838h-.809zm.824-2.727c0 .412.06.775.181 1.09a1.64 1.64 0 0 0 .529.735c.232.175.516.263.852.263.35 0 .643-.092.877-.277s.414-.438.533-.753a2.95 2.95 0 0 0 .181-1.058c0-.384-.059-.729-.178-1.037a1.6 1.6 0 0 0-.529-.735c-.234-.182-.529-.273-.884-.273-.341 0-.627.086-.859.259a1.57 1.57 0 0 0-.526.717c-.118.307-.177.662-.177 1.069zm5.617 4.773a1.84 1.84 0 0 1-.38-.036c-.111-.021-.188-.043-.23-.064l.213-.739c.203.052.383.071.539.057a.65.65 0 0 0 .416-.209c.121-.125.236-.323.337-.6l.157-.426L499.367 84h.909l1.505 4.347h.057L503.344 84h.909l-2.315 6.25a2.38 2.38 0 0 1-.388.7 1.44 1.44 0 0 1-.536.416 1.65 1.65 0 0 1-.682.135zm7.399-7.5v.71h-2.826V84h2.826zm-2.003-1.307h.838v5.199c0 .237.035.414.103.533s.161.194.27.234a1.09 1.09 0 0 0 .352.057 1.49 1.49 0 0 0 .227-.014l.142-.028.171.753c-.057.021-.136.043-.238.064s-.231.035-.387.035a1.68 1.68 0 0 1-.696-.153 1.38 1.38 0 0 1-.561-.465c-.147-.208-.221-.471-.221-.788v-5.426zm5.492 6.875c-.525 0-.979-.116-1.36-.348s-.671-.561-.877-.98-.305-.912-.305-1.47.101-1.051.305-1.477.492-.762.859-1.002.801-.362 1.293-.362a2.59 2.59 0 0 1 .842.142 2.08 2.08 0 0 1 .756.462c.227.211.408.49.543.838s.203.776.203 1.285v.355h-4.205v-.724h3.352a1.79 1.79 0 0 0-.184-.824c-.121-.242-.294-.432-.519-.572s-.485-.209-.788-.209a1.5 1.5 0 0 0-.866.248 1.63 1.63 0 0 0-.558.639 1.88 1.88 0 0 0-.195.845v.483c0 .412.071.761.213 1.048s.344.501.6.65a1.76 1.76 0 0 0 .891.22 1.82 1.82 0 0 0 .597-.092 1.28 1.28 0 0 0 .465-.284c.13-.125.231-.287.302-.476l.81.227a1.8 1.8 0 0 1-.43.724c-.201.208-.45.367-.746.483s-.628.17-.998.17z"/></g><path d="M26.795 126.312v-13.091h4.666c1.019 0 1.862.186 2.531.556s1.17.878 1.502 1.522c.332.639.499 1.359.499 2.16s-.168 1.53-.505 2.174-.835 1.146-1.508 1.521-1.511.556-2.525.556h-3.209v-1.675h3.03c.643 0 1.166-.111 1.566-.332s.695-.533.882-.921.281-.828.281-1.323-.094-.933-.281-1.316-.484-.684-.889-.902-.929-.326-1.585-.326h-2.48v11.397h-1.975zm11.514 0v-13.091h1.975v5.689h6.526v-5.689h1.982v13.091H46.81v-5.708h-6.526v5.708h-1.975zm12.349-13.091h2.244l3.42 5.951h.141l3.42-5.951h2.244l-4.749 7.952v5.139h-1.969v-5.139l-4.749-7.952zm13.332 0h2.397l4.168 10.176h.153l4.168-10.176h2.397v13.091h-1.879v-9.473h-.121l-3.861 9.454h-1.56l-3.861-9.46h-.121v9.479h-1.88v-13.091zm18.858 13.309c-.622 0-1.185-.115-1.687-.346a2.84 2.84 0 0 1-1.195-1.016c-.29-.443-.435-.986-.435-1.63 0-.554.107-1.01.32-1.368a2.36 2.36 0 0 1 .863-.85c.362-.209.767-.366 1.214-.473a12.34 12.34 0 0 1 1.368-.243l1.432-.166c.366-.047.633-.121.799-.224s.249-.268.249-.498v-.045c0-.558-.158-.991-.473-1.298s-.775-.46-1.393-.46c-.644 0-1.151.143-1.521.428s-.62.595-.761.94l-1.796-.409c.213-.597.524-1.078.933-1.445a3.79 3.79 0 0 1 1.425-.805 5.55 5.55 0 0 1 1.694-.256 5.96 5.96 0 0 1 1.246.141 3.66 3.66 0 0 1 1.24.498c.384.242.705.591.952 1.042s.371 1.029.371 1.745v6.52h-1.866v-1.342h-.077a2.73 2.73 0 0 1-.556.729c-.247.238-.565.436-.952.594s-.852.237-1.394.237zm.415-1.535c.528 0 .98-.104 1.355-.313a2.22 2.22 0 0 0 .863-.818 2.12 2.12 0 0 0 .3-1.093v-1.266c-.068.069-.2.133-.396.192a5.88 5.88 0 0 1-.658.147l-.722.109-.588.077c-.371.046-.71.125-1.016.236s-.546.271-.729.479-.269.478-.269.819c0 .473.175.831.524 1.074s.795.357 1.336.357zm11.111 1.515c-.95 0-1.769-.215-2.455-.645a4.28 4.28 0 0 1-1.572-1.796c-.367-.763-.55-1.637-.55-2.621 0-.997.188-1.877.563-2.64s.903-1.366 1.585-1.796 1.485-.646 2.41-.646c.746 0 1.41.139 1.994.416s1.055.656 1.413 1.15.578 1.072.646 1.733h-1.86c-.102-.461-.337-.857-.703-1.189s-.848-.499-1.457-.499c-.533 0-.999.141-1.4.422s-.705.673-.927 1.189-.332 1.116-.332 1.815c0 .716.109 1.334.326 1.854s.524.922.921 1.208.871.428 1.413.428c.362 0 .69-.066.984-.198a2 2 0 0 0 .748-.582c.204-.251.347-.554.428-.907h1.86c-.068.635-.275 1.201-.62 1.7a3.56 3.56 0 0 1-1.387 1.176c-.575.286-1.251.428-2.026.428zm6.23-.198v-13.091h1.975v11.391h5.932v1.7h-7.907zm12.864.218c-.622 0-1.184-.115-1.687-.346a2.84 2.84 0 0 1-1.196-1.016c-.289-.443-.434-.986-.434-1.63 0-.554.106-1.01.319-1.368a2.36 2.36 0 0 1 .863-.85 4.51 4.51 0 0 1 1.215-.473c.447-.106.903-.187 1.368-.243l1.431-.166c.367-.047.633-.121.799-.224s.25-.268.25-.498v-.045c0-.558-.158-.991-.473-1.298s-.776-.46-1.394-.46c-.643 0-1.15.143-1.521.428s-.62.595-.761.94l-1.796-.409c.213-.597.524-1.078.933-1.445a3.8 3.8 0 0 1 1.426-.805c.537-.171 1.101-.256 1.694-.256.392 0 .807.047 1.246.141.443.089.857.256 1.24.498.388.243.705.591.953 1.042s.37 1.029.37 1.745v6.52h-1.866v-1.342h-.077a2.72 2.72 0 0 1-.556.729c-.247.238-.565.436-.952.594s-.853.237-1.394.237zm.416-1.535c.528 0 .98-.104 1.355-.313a2.22 2.22 0 0 0 .863-.818c.196-.337.3-.705.3-1.093v-1.266c-.068.069-.2.133-.396.192s-.411.105-.659.147l-.722.109-.588.077a4.67 4.67 0 0 0-1.016.236 1.75 1.75 0 0 0-.729.479c-.179.205-.268.478-.268.819 0 .473.174.831.524 1.074s.794.357 1.336.357zm7.832 4.999c-.286 0-.546-.023-.78-.07s-.409-.09-.524-.141l.46-1.566c.349.094.66.134.933.122a1.12 1.12 0 0 0 .722-.307c.213-.192.401-.505.563-.94l.236-.652-3.592-9.946h2.045l2.487 7.619h.102l2.487-7.619h2.052l-4.047 11.129c-.187.511-.426.944-.715 1.297a2.78 2.78 0 0 1-1.036.806c-.401.179-.865.268-1.393.268zm12.884-3.484c-.967 0-1.8-.206-2.499-.62s-1.232-1.003-1.611-1.757-.562-1.647-.562-2.666c0-1.006.187-1.892.562-2.659s.908-1.366 1.585-1.796 1.479-.646 2.391-.646a4.82 4.82 0 0 1 1.611.275c.52.183.986.471 1.4.863s.739.901.978 1.528.358 1.378.358 2.269v.677h-7.805v-1.431h5.932c0-.503-.102-.949-.307-1.336s-.492-.701-.863-.927-.797-.339-1.291-.339c-.537 0-1.006.132-1.406.396a2.66 2.66 0 0 0-.921 1.023c-.217.422-.319.872-.319 1.362v1.118c0 .656.115 1.215.345 1.675a2.47 2.47 0 0 0 .978 1.055c.418.243.905.358 1.463.358.363 0 .693-.052.991-.154a2.13 2.13 0 0 0 .774-.473c.217-.209.383-.466.498-.773l1.809.326c-.145.532-.405.999-.78 1.4s-.837.705-1.399.926-1.196.326-1.912.326zm6.333-.198v-9.818h1.848v1.56h.102c.179-.529.494-.944.946-1.247s.971-.46 1.547-.46l.422.013.389.032v1.828a3.36 3.36 0 0 0-.409-.07 3.88 3.88 0 0 0-.588-.045c-.451 0-.854.096-1.208.288s-.626.449-.831.786c-.204.332-.307.711-.307 1.138v5.995h-1.911zM26.795 208.986h2.397l4.168 10.176h.153l4.168-10.176h2.397v13.091h-1.879v-9.473h-.121l-3.861 9.453h-1.56l-3.861-9.46h-.122v9.48h-1.879v-13.091zm18.858 13.308a4.01 4.01 0 0 1-1.687-.345 2.84 2.84 0 0 1-1.195-1.017c-.294-.444-.435-.986-.435-1.63 0-.554.107-1.01.32-1.368a2.36 2.36 0 0 1 .863-.85 4.55 4.55 0 0 1 1.215-.473c.447-.106.903-.187 1.368-.243l1.432-.166c.367-.047.633-.121.799-.223s.249-.269.249-.499v-.045c0-.558-.158-.991-.473-1.297s-.776-.461-1.393-.461c-.644 0-1.151.143-1.521.429s-.62.594-.761.939l-1.796-.409c.213-.596.524-1.078.933-1.444a3.78 3.78 0 0 1 1.425-.806 5.58 5.58 0 0 1 1.694-.255c.392 0 .808.046 1.246.14a3.66 3.66 0 0 1 1.24.499c.388.243.705.59.952 1.042s.371 1.029.371 1.745v6.52h-1.866v-1.343h-.077a2.73 2.73 0 0 1-.556.729c-.247.239-.565.437-.952.594s-.852.237-1.394.237zm.416-1.534c.528 0 .98-.105 1.355-.313s.667-.482.863-.819a2.12 2.12 0 0 0 .3-1.093v-1.265c-.068.068-.2.132-.396.191a5.46 5.46 0 0 1-.658.147l-.722.109-.588.077a4.79 4.79 0 0 0-1.016.236c-.307.11-.545.271-.729.48s-.269.477-.269.818c0 .473.175.831.524 1.074s.795.358 1.336.358zm11.111 1.515c-.95 0-1.768-.216-2.455-.646s-1.206-1.033-1.572-1.796-.55-1.636-.55-2.621c0-.997.188-1.877.563-2.64s.903-1.365 1.585-1.796 1.485-.645 2.41-.645c.746 0 1.41.138 1.994.415s1.055.656 1.413 1.151.577 1.071.646 1.732h-1.86a2.23 2.23 0 0 0-.703-1.189c-.366-.332-.848-.499-1.457-.499-.533 0-.999.141-1.4.422s-.705.673-.927 1.189-.332 1.117-.332 1.815c0 .716.109 1.334.326 1.854s.524.923.921 1.208.871.429 1.413.429c.362 0 .69-.067.984-.199a2.01 2.01 0 0 0 .748-.581 2.19 2.19 0 0 0 .428-.908h1.86a3.61 3.61 0 0 1-.62 1.7 3.56 3.56 0 0 1-1.387 1.176c-.575.286-1.251.429-2.026.429zm6.231-.198v-13.091h4.666c1.018 0 1.862.185 2.531.556a3.61 3.61 0 0 1 1.502 1.521c.332.639.499 1.359.499 2.161s-.168 1.529-.505 2.173-.835 1.146-1.509 1.521-1.511.556-2.525.556h-3.209V215.8h3.03c.644 0 1.166-.111 1.566-.333a2.09 2.09 0 0 0 .882-.92c.188-.388.281-.829.281-1.323s-.094-.934-.281-1.317-.484-.684-.888-.901-.929-.326-1.585-.326h-2.48v11.397H63.41zm14.13.217a4.01 4.01 0 0 1-1.687-.345 2.84 2.84 0 0 1-1.195-1.017c-.294-.444-.435-.986-.435-1.63 0-.554.107-1.01.32-1.368a2.36 2.36 0 0 1 .863-.85 4.51 4.51 0 0 1 1.215-.473 12.11 12.11 0 0 1 1.368-.243l1.432-.166c.366-.047.633-.121.799-.223s.249-.269.249-.499v-.045c0-.558-.158-.991-.473-1.297s-.776-.461-1.394-.461c-.644 0-1.151.143-1.521.429s-.62.594-.761.939l-1.796-.409c.213-.596.524-1.078.933-1.444a3.78 3.78 0 0 1 1.425-.806 5.58 5.58 0 0 1 1.694-.255c.392 0 .807.046 1.246.14a3.66 3.66 0 0 1 1.24.499c.388.243.705.59.952 1.042s.371 1.029.371 1.745v6.52h-1.867v-1.343h-.077a2.73 2.73 0 0 1-.556.729c-.247.239-.565.437-.952.594s-.852.237-1.394.237zm.415-1.534c.528 0 .98-.105 1.355-.313s.667-.482.863-.819a2.12 2.12 0 0 0 .3-1.093v-1.265c-.068.068-.2.132-.396.191a5.88 5.88 0 0 1-.658.147l-.722.109-.588.077c-.371.047-.71.126-1.016.236s-.546.271-.729.48-.269.477-.269.818c0 .473.175.831.524 1.074s.795.358 1.336.358zm7.832 4.998a3.98 3.98 0 0 1-.78-.07 2.42 2.42 0 0 1-.524-.141l.46-1.566c.349.094.66.135.933.122s.513-.115.722-.307.401-.505.563-.94l.236-.652-3.592-9.946h2.046l2.486 7.62h.102l2.487-7.62h2.052l-4.046 11.129c-.187.511-.426.944-.716 1.297a2.78 2.78 0 0 1-1.035.806c-.401.179-.865.268-1.394.268zm10.898-16.772v13.091h-1.911v-13.091h1.911zm6.707 13.289c-.92 0-1.724-.211-2.41-.633s-1.218-1.012-1.598-1.771-.569-1.645-.569-2.659.19-1.909.569-2.672.912-1.355 1.598-1.777 1.49-.632 2.41-.632 1.724.21 2.41.632 1.219 1.015 1.598 1.777.569 1.654.569 2.672-.19 1.901-.569 2.659a4.27 4.27 0 0 1-1.598 1.771c-.686.422-1.489.633-2.41.633zm.007-1.605c.596 0 1.09-.157 1.482-.473a2.78 2.78 0 0 0 .87-1.259 5.1 5.1 0 0 0 .287-1.732c0-.63-.095-1.202-.287-1.726s-.477-.952-.87-1.272-.886-.479-1.482-.479-1.1.159-1.496.479-.684.744-.876 1.272-.281 1.099-.281 1.726.094 1.208.281 1.732.484.944.876 1.259.895.473 1.496.473zm9.56 1.624c-.622 0-1.184-.115-1.687-.345a2.84 2.84 0 0 1-1.195-1.017c-.29-.443-.435-.986-.435-1.63 0-.554.106-1.01.32-1.368s.5-.641.862-.85a4.57 4.57 0 0 1 1.215-.473c.447-.106.903-.187 1.368-.243l1.432-.166c.366-.047.633-.121.799-.223s.249-.269.249-.499v-.045c0-.558-.158-.991-.473-1.297s-.776-.461-1.393-.461c-.644 0-1.151.143-1.522.429-.366.281-.62.594-.76.939l-1.797-.409c.213-.596.525-1.078.934-1.444.413-.371.888-.64 1.425-.806a5.58 5.58 0 0 1 1.694-.255c.392 0 .807.046 1.246.14.444.09.857.256 1.24.499.388.243.706.59.953 1.042s.371 1.029.371 1.745v6.52h-1.867v-1.343h-.077a2.72 2.72 0 0 1-.556.729 2.93 2.93 0 0 1-.952.594c-.388.158-.852.237-1.394.237zm.416-1.534c.528 0 .98-.105 1.355-.313s.667-.482.863-.819.3-.705.3-1.093v-1.265c-.068.068-.2.132-.396.191a5.46 5.46 0 0 1-.658.147l-.723.109-.588.077c-.37.047-.709.126-1.016.236s-.545.271-.729.48-.268.477-.268.818c0 .473.175.831.524 1.074s.795.358 1.336.358zm10.651 1.508c-.793 0-1.5-.202-2.123-.607-.617-.409-1.103-.991-1.457-1.745s-.524-1.668-.524-2.729.177-1.969.531-2.723.848-1.332 1.47-1.733 1.327-.6 2.115-.6c.61 0 1.1.102 1.471.306s.664.435.869.703.371.505.486.71h.115v-4.864h1.911v13.091h-1.866v-1.528h-.16c-.115.209-.282.447-.499.716s-.507.503-.882.703-.861.3-1.457.3zm.422-1.63c.549 0 1.014-.145 1.393-.434.384-.294.673-.701.869-1.221s.301-1.125.301-1.816c0-.681-.098-1.278-.294-1.789s-.484-.91-.863-1.196-.848-.428-1.406-.428c-.576 0-1.055.149-1.439.448s-.673.705-.869 1.22-.288 1.098-.288 1.745c0 .657.098 1.247.294 1.771s.486.94.87 1.246.865.454 1.432.454zM26.795 323.61v-13.091h8.118v1.7H28.77v3.989h5.561v1.694H28.77v5.708h-1.975zm10.547 0v-13.091h1.975v5.689h6.526v-5.689h1.981v13.091h-1.981v-5.708h-6.526v5.708h-1.975zm17.597 0h-4.238v-13.091h4.372c1.283 0 2.384.262 3.305.786a5.2 5.2 0 0 1 2.116 2.244c.49.976.742 2.137.742 3.496s-.249 2.536-.748 3.516-1.21 1.734-2.148 2.263-2.071.786-3.401.786zm-2.263-1.726h2.154c.997 0 1.826-.188 2.486-.563a3.54 3.54 0 0 0 1.483-1.642c.328-.721.492-1.598.492-2.634 0-1.027-.164-1.898-.492-2.614s-.807-1.259-1.451-1.63-1.442-.556-2.397-.556h-2.276v9.639zm11.015 1.726v-13.091h4.666c1.014 0 1.856.175 2.525.524s1.176.833 1.508 1.451.499 1.323.499 2.129-.168 1.506-.505 2.115-.835 1.076-1.508 1.413-1.511.505-2.525.505h-3.535v-1.7h3.356c.639 0 1.159-.092 1.56-.275s.701-.45.888-.799.281-.769.281-1.259-.096-.923-.288-1.285-.484-.639-.888-.831-.927-.294-1.579-.294h-2.48v11.397h-1.975zm6.462-5.907l3.234 5.907h-2.25l-3.171-5.907h2.186z" fill="#3c3b3b"/><g fill="#fff" stroke-width=".4"><rect x="199.482" y=".946" width="581.246" height="45.074" rx="9.8" stroke="url(#A)"/><rect x="199.482" y="100.383" width="51.908" height="45.074" rx="9.8" stroke="url(#B)"/><rect x="251.79" y="100.383" width="488.519" height="45.074" rx="9.8" stroke="url(#C)"/><rect x="251.79" y="196.148" width="348.765" height="45.074" rx="9.8" stroke="url(#D)"/><rect x="740.709" y="100.383" width="40.019" height="45.074" rx="9.8" stroke="url(#E)"/><rect x="649.033" y="195.011" width="91.276" height="45.074" rx="9.8" stroke="url(#F)"/><rect x="251.79" y="291.191" width="86.891" height="45.074" rx="9.8" stroke="url(#G)"/><rect x="426.373" y="291.191" width="86.891" height="45.074" rx="9.8" stroke="url(#H)"/><rect x="339.081" y="291.191" width="86.891" height="45.074" rx="9.8" stroke="url(#I)"/><rect x="513.664" y="291.191" width="86.891" height="45.074" rx="9.8" stroke="url(#J)"/><rect x="600.955" y="195.01" width="47.677" height="46.212" rx="9.8" stroke="url(#K)"/><rect x=".196" y=".926" width="71.25" height="45.094" rx="9.8" stroke="url(#L)"/><rect x="71.614" y=".926" width="47.926" height="45.094" rx="9.8" stroke="url(#M)"/><rect x="119.94" y=".926" width="79.143" height="45.094" rx="9.8" stroke="url(#N)"/><rect x="781.128" y=".926" width="79.143" height="45.094" rx="9.8" stroke="url(#O)"/></g><path d="M486.019 30.358V18.721h4.148c.905 0 1.655.165 2.25.494s1.039.78 1.335 1.352.443 1.208.443 1.92-.15 1.36-.449 1.932-.742 1.019-1.341 1.352c-.594.33-1.343.494-2.244.494h-2.852v-1.489h2.693c.572 0 1.036-.098 1.392-.295s.617-.473.784-.818.25-.737.25-1.176-.083-.829-.25-1.17-.43-.608-.79-.801-.826-.29-1.409-.29h-2.204v10.131h-1.756zm10.098 0V21.63h1.642v1.386h.091c.159-.47.439-.839.841-1.108s.863-.409 1.375-.409l.375.011.346.028v1.625c-.068-.019-.189-.04-.363-.062a3.47 3.47 0 0 0-.523-.04c-.402 0-.759.085-1.074.256s-.557.4-.739.699-.272.633-.272 1.011v5.33h-1.699zm9.589.176c-.859 0-1.6-.184-2.221-.551s-1.095-.892-1.432-1.562-.5-1.464-.5-2.369c0-.894.167-1.682.5-2.364s.807-1.214 1.409-1.597 1.314-.574 2.125-.574a4.28 4.28 0 0 1 1.432.244c.462.163.877.419 1.244.767s.657.801.87 1.358.318 1.225.318 2.017v.602h-6.938v-1.273h5.273c0-.447-.091-.843-.273-1.187a2.06 2.06 0 0 0-.767-.824c-.326-.201-.708-.301-1.148-.301-.477 0-.894.117-1.25.352s-.625.534-.818.909a2.63 2.63 0 0 0-.284 1.21v.994c0 .583.102 1.079.307 1.489s.498.722.869.938.805.318 1.301.318c.322 0 .616-.045.881-.136s.494-.235.688-.42.341-.415.443-.687l1.608.29c-.129.474-.36.888-.693 1.244s-.745.627-1.245.824-1.062.29-1.699.29zm8.169.017c-.553 0-1.053-.102-1.5-.307s-.801-.509-1.062-.903-.386-.877-.386-1.449c0-.492.094-.898.284-1.216s.445-.57.767-.756.682-.326 1.079-.42a10.73 10.73 0 0 1 1.216-.216l1.273-.148c.326-.042.562-.108.71-.199s.222-.239.222-.443v-.04c0-.496-.14-.881-.421-1.153s-.689-.409-1.238-.409c-.572 0-1.023.127-1.353.381s-.551.528-.676.835l-1.596-.364c.189-.53.466-.958.829-1.284a3.37 3.37 0 0 1 1.267-.716c.477-.151.979-.227 1.506-.227.348 0 .718.042 1.108.125s.761.227 1.102.443.627.525.847.926.329.915.329 1.551v5.795h-1.659v-1.193h-.068c-.11.22-.275.436-.494.648a2.63 2.63 0 0 1-.847.528c-.345.14-.758.21-1.239.21zm.37-1.364c.469 0 .871-.093 1.204-.278s.593-.428.767-.727.267-.627.267-.972v-1.125c-.06.061-.178.117-.352.17s-.365.093-.585.131l-.642.097-.523.068c-.329.042-.631.112-.903.21s-.485.241-.648.426-.239.424-.239.727c0 .42.156.739.466.954s.707.318 1.188.318zm6.2 1.17V21.63h1.631v1.42h.108a2.25 2.25 0 0 1 .892-1.125c.413-.273.907-.409 1.483-.409.583 0 1.072.136 1.466.409a2.4 2.4 0 0 1 .88 1.125h.091c.208-.466.54-.837.994-1.114s.997-.421 1.625-.421c.792 0 1.438.248 1.938.744s.756 1.244.756 2.244v5.852h-1.699v-5.693c0-.591-.161-1.019-.483-1.284s-.707-.398-1.154-.398c-.553 0-.983.17-1.289.511s-.461.771-.461 1.301v5.563h-1.693v-5.801c0-.474-.147-.854-.443-1.142s-.68-.432-1.153-.432a1.65 1.65 0 0 0-.892.256 1.88 1.88 0 0 0-.654.699c-.163.299-.244.646-.244 1.04v5.381h-1.699zm14.277 0V18.721h1.699v4.324h.102c.099-.182.241-.392.426-.631a2.41 2.41 0 0 1 .773-.625c.33-.182.765-.273 1.307-.273.704 0 1.333.178 1.886.534s.987.869 1.301 1.54.478 1.477.478 2.421-.158 1.752-.472 2.426-.746 1.188-1.295 1.551-1.177.54-1.881.54c-.53 0-.964-.089-1.301-.267s-.595-.386-.784-.625-.336-.451-.438-.636h-.142v1.358h-1.659zm1.665-4.364c0 .614.089 1.151.267 1.614s.435.824.773 1.085.75.386 1.238.386c.508 0 .932-.134 1.273-.403s.598-.642.773-1.108.267-.991.267-1.574c0-.576-.087-1.093-.262-1.551s-.428-.82-.772-1.085-.767-.398-1.279-.398c-.492 0-.909.127-1.25.381s-.593.608-.767 1.063-.261.985-.261 1.591zm9.913-7.273v11.636h-1.699V18.721h1.699zm6.047 11.813c-.86 0-1.6-.184-2.222-.551s-1.094-.892-1.431-1.562-.5-1.464-.5-2.369c0-.894.166-1.682.5-2.364s.806-1.214 1.409-1.597 1.314-.574 2.125-.574c.492 0 .969.081 1.432.244a3.47 3.47 0 0 1 1.244.767c.367.349.657.801.869 1.358s.318 1.225.318 2.017v.602h-6.937v-1.273h5.273c0-.447-.091-.843-.273-1.187s-.438-.623-.767-.824-.709-.301-1.148-.301c-.477 0-.894.117-1.25.352s-.625.534-.818.909-.284.775-.284 1.21v.994c0 .583.102 1.079.307 1.489s.498.722.869.938.805.318 1.301.318c.322 0 .616-.045.881-.136a1.9 1.9 0 0 0 .687-.42c.193-.186.341-.415.443-.687l1.608.29c-.128.474-.359.888-.693 1.244-.329.352-.744.627-1.244.824s-1.063.29-1.699.29z" fill="url(#P)"/><path d="M254.059 118.168h2.13l3.705 9.046h.136l3.705-9.046h2.131v11.637h-1.671v-8.421h-.108l-3.432 8.404h-1.386l-3.432-8.409h-.108v8.426h-1.67v-11.637zm14.359 11.637v-11.637h1.756v5.057h5.801v-5.057h1.761v11.637h-1.761v-5.074h-5.801v5.074h-1.756zm15.642 0h-3.767v-11.637h3.886c1.141 0 2.12.233 2.938.699s1.445 1.127 1.881 1.995.659 1.899.659 3.108-.222 2.253-.665 3.125-1.076 1.541-1.909 2.011-1.841.699-3.023.699zm-2.011-1.534h1.915c.886 0 1.623-.167 2.21-.5a3.15 3.15 0 0 0 1.318-1.461c.292-.64.437-1.42.437-2.34 0-.913-.145-1.688-.437-2.324s-.718-1.12-1.29-1.449-1.282-.494-2.131-.494h-2.022v8.568zm9.791 1.534v-11.637h4.148c.901 0 1.649.156 2.244.466s1.045.741 1.341 1.29.443 1.176.443 1.892-.15 1.339-.449 1.881-.742.956-1.341 1.256-1.343.448-2.244.448h-3.142v-1.511h2.983c.568 0 1.03-.081 1.386-.244s.623-.4.79-.711.25-.683.25-1.119-.085-.82-.256-1.142-.43-.568-.789-.739-.824-.261-1.404-.261h-2.204v10.131h-1.756zm5.744-5.25l2.875 5.25h-2l-2.818-5.25h1.943z" fill="url(#Q)"/><path d="M564.313 119.581h2.131l3.705 9.045h.136l3.704-9.045h2.131v11.636h-1.67v-8.42h-.108l-3.432 8.403h-1.386l-3.432-8.409h-.108v8.426h-1.671v-11.636zm16.763 11.829c-.553 0-1.053-.102-1.5-.307a2.52 2.52 0 0 1-1.062-.903c-.258-.394-.387-.877-.387-1.449 0-.492.095-.898.284-1.216s.445-.57.767-.755.682-.326 1.08-.421a10.62 10.62 0 0 1 1.216-.216l1.273-.148c.325-.041.562-.108.71-.198s.221-.239.221-.444v-.039c0-.497-.14-.881-.42-1.154s-.689-.409-1.239-.409c-.572 0-1.022.127-1.352.381s-.551.528-.676.835l-1.597-.364c.19-.53.466-.958.83-1.284s.79-.568 1.267-.716a4.96 4.96 0 0 1 1.506-.227c.348 0 .717.042 1.108.125s.761.227 1.102.443.627.525.846.926.33.915.33 1.552v5.795h-1.659v-1.193h-.068c-.11.22-.275.435-.495.648s-.502.388-.846.528-.758.21-1.239.21zm.369-1.363c.47 0 .872-.093 1.205-.279s.593-.428.767-.727.267-.627.267-.972v-1.125c-.061.061-.178.118-.352.171s-.366.093-.585.13l-.642.097-.523.068c-.33.042-.631.112-.904.21s-.484.241-.647.427-.239.424-.239.727c0 .42.155.738.466.954s.706.319 1.187.319zm9.877 1.346c-.845 0-1.572-.191-2.182-.574s-1.072-.918-1.398-1.596-.488-1.455-.488-2.33c0-.886.166-1.668.5-2.346a3.83 3.83 0 0 1 1.409-1.597c.606-.383 1.32-.574 2.142-.574.663 0 1.254.123 1.773.369s.937.584 1.255 1.023.513.953.574 1.54h-1.653a1.99 1.99 0 0 0-.625-1.057c-.322-.295-.754-.443-1.296-.443a2.11 2.11 0 0 0-1.244.375c-.352.246-.627.598-.824 1.057s-.295.992-.295 1.613c0 .637.096 1.186.289 1.648s.466.82.819 1.074.774.381 1.255.381c.322 0 .614-.059.875-.176.265-.122.487-.294.665-.518a1.94 1.94 0 0 0 .381-.806h1.653c-.061.564-.244 1.068-.551 1.511s-.718.792-1.233 1.045-1.112.381-1.801.381zm9.773-.176v-11.636h4.147c.906 0 1.656.164 2.25.494s1.04.78 1.336 1.352.443 1.209.443 1.921-.15 1.36-.449 1.932-.743 1.018-1.341 1.352c-.595.329-1.343.494-2.244.494h-2.853v-1.489h2.694c.571 0 1.036-.098 1.392-.295s.617-.473.784-.818.25-.737.25-1.176-.084-.83-.25-1.171-.43-.608-.79-.801-.826-.29-1.409-.29h-2.205v10.131h-1.755zm12.559.193c-.553 0-1.053-.102-1.5-.307a2.52 2.52 0 0 1-1.062-.903c-.258-.394-.387-.877-.387-1.449 0-.492.095-.898.284-1.216a2.1 2.1 0 0 1 .768-.755c.321-.186.681-.326 1.079-.421a10.62 10.62 0 0 1 1.216-.216l1.273-.148c.325-.041.562-.108.71-.198s.222-.239.222-.444v-.039c0-.497-.141-.881-.421-1.154s-.689-.409-1.239-.409c-.572 0-1.022.127-1.352.381s-.551.528-.676.835l-1.597-.364c.19-.53.466-.958.83-1.284s.79-.568 1.267-.716a4.96 4.96 0 0 1 1.506-.227c.348 0 .717.042 1.108.125a3.25 3.25 0 0 1 1.102.443c.345.216.627.525.847.926s.329.915.329 1.552v5.795h-1.659v-1.193h-.068c-.11.22-.275.435-.495.648s-.501.388-.846.528-.758.21-1.239.21zm.37-1.363c.469 0 .871-.093 1.204-.279s.593-.428.767-.727.267-.627.267-.972v-1.125c-.06.061-.178.118-.352.171s-.366.093-.585.13l-.642.097-.523.068a4.24 4.24 0 0 0-.903.21c-.269.099-.485.241-.648.427s-.239.424-.239.727c0 .42.155.738.466.954s.706.319 1.188.319zm6.961 4.443a3.51 3.51 0 0 1-.693-.063c-.208-.038-.364-.079-.466-.125l.409-1.392c.311.084.587.12.83.108a.99.99 0 0 0 .642-.273c.189-.17.356-.448.5-.835l.21-.579-3.193-8.841h1.818l2.21 6.772h.091l2.21-6.772h1.824l-3.596 9.892c-.167.454-.379.839-.637 1.153s-.564.557-.92.716-.769.239-1.239.239zm9.688-14.909v11.636h-1.699v-11.636h1.699zm5.961 11.812c-.818 0-1.532-.187-2.142-.562s-1.083-.9-1.42-1.574-.506-1.462-.506-2.364.169-1.697.506-2.375a3.78 3.78 0 0 1 1.42-1.579c.61-.375 1.324-.563 2.142-.563s1.533.188 2.142.563 1.084.901 1.421 1.579.506 1.47.506 2.375-.169 1.69-.506 2.364-.811 1.199-1.421 1.574-1.323.562-2.142.562zm.006-1.426c.53 0 .97-.14 1.318-.42s.606-.654.773-1.12.256-.979.256-1.54-.086-1.068-.256-1.534-.424-.846-.773-1.13-.788-.426-1.318-.426-.977.142-1.33.426c-.348.284-.607.661-.778 1.13a4.52 4.52 0 0 0-.25 1.534c0 .561.083 1.074.25 1.54s.43.839.778 1.12c.353.28.796.42 1.33.42zm8.499 1.443c-.553 0-1.053-.102-1.5-.307s-.802-.509-1.063-.903-.386-.877-.386-1.449c0-.492.094-.898.284-1.216a2.09 2.09 0 0 1 .767-.755 4.01 4.01 0 0 1 1.079-.421 10.62 10.62 0 0 1 1.216-.216l1.273-.148c.326-.041.563-.108.71-.198s.222-.239.222-.444v-.039c0-.497-.14-.881-.421-1.154s-.689-.409-1.238-.409c-.572 0-1.023.127-1.352.381s-.552.528-.677.835l-1.596-.364c.189-.53.466-.958.829-1.284a3.38 3.38 0 0 1 1.267-.716 4.97 4.97 0 0 1 1.506-.227 5.33 5.33 0 0 1 1.108.125 3.25 3.25 0 0 1 1.102.443c.345.216.627.525.847.926s.329.915.329 1.552v5.795h-1.659v-1.193h-.068c-.11.22-.274.435-.494.648s-.502.388-.847.528-.757.21-1.238.21zm.369-1.363c.47 0 .871-.093 1.204-.279s.593-.428.768-.727.267-.627.267-.972v-1.125c-.061.061-.178.118-.353.171s-.365.093-.585.13l-.642.097-.523.068a4.27 4.27 0 0 0-.903.21c-.269.099-.485.241-.648.427s-.238.424-.238.727c0 .42.155.738.465.954s.707.319 1.188.319zm9.467 1.34a3.38 3.38 0 0 1-1.886-.539c-.549-.364-.981-.881-1.296-1.551s-.465-1.483-.465-2.427.157-1.75.471-2.42.754-1.184 1.307-1.54 1.18-.534 1.881-.534c.541 0 .977.091 1.306.273s.591.386.773.625.33.449.432.631h.102v-4.324h1.699v11.636h-1.659v-1.358h-.142c-.102.186-.25.398-.443.636s-.451.447-.784.625-.765.267-1.296.267zm.375-1.448c.489 0 .902-.129 1.239-.387s.598-.623.773-1.085.267-1 .267-1.614c0-.606-.087-1.136-.262-1.591s-.43-.808-.767-1.062-.754-.381-1.25-.381c-.511 0-.937.133-1.278.398s-.599.627-.773 1.085-.256.976-.256 1.551c0 .584.088 1.108.262 1.574s.432.835.773 1.108.768.404 1.272.404z" fill="url(#R)"/><path d="M411.73 225.569v-11.636h7.215v1.511h-5.46v3.546h4.943v1.505h-4.943v5.074h-1.755zm9.375 0v-11.636h1.755v5.057h5.801v-5.057h1.762v11.636h-1.762v-5.074h-5.801v5.074h-1.755zm15.642 0h-3.767v-11.636h3.886c1.14 0 2.119.233 2.937.699s1.446 1.126 1.881 1.994.659 1.9.659 3.108-.221 2.254-.665 3.125-1.075 1.542-1.909 2.011-1.841.699-3.022.699zm-2.012-1.534h1.915c.886 0 1.623-.167 2.21-.5s1.027-.824 1.318-1.46.438-1.421.438-2.341c0-.913-.146-1.688-.438-2.324-.287-.636-.717-1.119-1.289-1.449s-1.283-.494-2.131-.494h-2.023v8.568zm9.791 1.534v-11.636h4.148c.902 0 1.65.155 2.245.466s1.045.74 1.34 1.289.444 1.177.444 1.892-.15 1.339-.449 1.881-.743.957-1.341 1.256-1.343.449-2.244.449h-3.143v-1.512h2.983c.569 0 1.031-.081 1.387-.244s.623-.4.79-.71.25-.684.25-1.12-.086-.82-.256-1.142-.43-.568-.79-.738-.824-.262-1.403-.262h-2.205v10.131h-1.756zm5.745-5.25l2.875 5.25h-2l-2.818-5.25h1.943z" fill="url(#S)"/><path d="M746.623 118.168h2.131l3.704 9.046h.136l3.705-9.046h2.131v11.637h-1.671v-8.421h-.108l-3.432 8.404h-1.386l-3.432-8.409h-.108v8.426h-1.67v-11.637zm16.115 0v11.637h-1.756v-11.637h1.756zm12.222 3.785h-1.773c-.068-.379-.195-.713-.381-1s-.413-.533-.682-.733a2.93 2.93 0 0 0-.903-.455 3.54 3.54 0 0 0-1.051-.153c-.671 0-1.271.168-1.801.505s-.944.832-1.25 1.483-.455 1.447-.455 2.387c0 .947.152 1.746.455 2.397s.725 1.144 1.255 1.478 1.127.5 1.79.5c.368 0 .716-.05 1.046-.148s.634-.252.903-.449.496-.437.682-.722a2.72 2.72 0 0 0 .392-.988l1.773.005a4.75 4.75 0 0 1-.552 1.58c-.269.477-.615.89-1.039 1.239s-.902.611-1.444.801a5.34 5.34 0 0 1-1.772.284c-1.008 0-1.906-.239-2.693-.716s-1.41-1.169-1.864-2.063-.676-1.96-.676-3.198.227-2.309.682-3.199 1.075-1.58 1.863-2.057 1.684-.722 2.688-.722a5.43 5.43 0 0 1 1.727.267 4.57 4.57 0 0 1 1.449.773 4.24 4.24 0 0 1 1.062 1.239c.281.485.47 1.04.569 1.665z" fill="url(#T)"/><path d="M654.979 223.432V213.25h6.314v1.322h-4.778v3.103h4.325v1.317h-4.325v4.44h-1.536zm8.203 0V213.25h3.629c.789 0 1.444.136 1.964.408s.915.648 1.173 1.128.388 1.029.388 1.656-.131 1.171-.393 1.645-.649.837-1.173 1.099-1.175.393-1.964.393h-2.749v-1.323h2.61c.497 0 .902-.071 1.213-.213s.545-.35.691-.622.219-.598.219-.979-.075-.718-.224-1-.376-.497-.691-.646-.721-.229-1.228-.229h-1.929v8.865h-1.536zm5.026-4.594l2.516 4.594h-1.75l-2.466-4.594h1.7zm3.998-5.588h1.864l3.241 7.915h.12l3.241-7.915h1.864v10.182h-1.461v-7.368h-.095l-3.002 7.353h-1.214l-3.002-7.358h-.095v7.373h-1.461V213.25zm12.564 10.182V213.25h3.629c.792 0 1.449.144 1.969.432a2.81 2.81 0 0 1 1.168 1.184 3.58 3.58 0 0 1 .388 1.68c0 .627-.131 1.19-.393 1.69s-.649.892-1.173 1.184-1.175.432-1.964.432h-2.495v-1.302h2.356c.501 0 .907-.087 1.218-.259a1.62 1.62 0 0 0 .686-.716c.146-.301.219-.644.219-1.029a2.3 2.3 0 0 0-.219-1.024 1.57 1.57 0 0 0-.691-.701c-.311-.169-.722-.254-1.233-.254h-1.929v8.865h-1.536zm10.99.169a3.12 3.12 0 0 1-1.313-.269 2.21 2.21 0 0 1-.93-.79c-.225-.345-.338-.767-.338-1.268 0-.431.083-.785.249-1.064s.389-.499.671-.661a3.53 3.53 0 0 1 .945-.368c.348-.083.702-.146 1.064-.189l1.113-.129c.285-.037.493-.095.622-.174s.194-.209.194-.388v-.035c0-.434-.123-.77-.368-1.009s-.603-.358-1.084-.358c-.501 0-.895.111-1.183.333s-.483.463-.592.731l-1.397-.318c.166-.464.408-.839.726-1.124a2.94 2.94 0 0 1 1.109-.626c.417-.133.856-.199 1.317-.199a4.65 4.65 0 0 1 .97.109c.344.07.666.199.964.388s.549.459.741.81.288.801.288 1.358v5.071h-1.452v-1.044h-.059c-.096.192-.241.381-.433.566s-.439.34-.741.463-.662.184-1.083.184zm.323-1.193c.411 0 .762-.082 1.054-.244s.519-.375.671-.636a1.65 1.65 0 0 0 .234-.85v-.985c-.053.053-.156.103-.309.149a4.97 4.97 0 0 1-.512.115l-.561.084-.458.06a3.66 3.66 0 0 0-.79.184c-.236.086-.425.21-.567.373s-.209.371-.209.636c0 .368.136.646.408.835s.618.279 1.039.279zm6.091 3.887a3.13 3.13 0 0 1-.606-.054c-.183-.033-.318-.07-.408-.11l.358-1.218a2.4 2.4 0 0 0 .726.095c.212-.01.399-.09.562-.239s.311-.393.437-.731l.184-.507-2.794-7.736h1.591l1.934 5.927h.079l1.934-5.927h1.596l-3.147 8.656c-.146.398-.331.734-.557 1.009s-.493.487-.805.627-.673.208-1.084.208zm8.477-13.045v10.182h-1.487V213.25h1.487zm5.216 10.336c-.716 0-1.34-.164-1.874-.492s-.948-.787-1.243-1.377-.442-1.28-.442-2.069.147-1.484.442-2.078a3.31 3.31 0 0 1 1.243-1.382c.534-.328 1.158-.492 1.874-.492s1.341.164 1.875.492.947.789 1.242 1.382.443 1.286.443 2.078-.148 1.479-.443 2.069a3.32 3.32 0 0 1-1.242 1.377c-.534.328-1.159.492-1.875.492zm.005-1.248c.464 0 .849-.123 1.154-.368s.53-.572.676-.979.224-.857.224-1.348-.075-.934-.224-1.342-.371-.741-.676-.989-.69-.373-1.154-.373-.855.124-1.163.373-.532.578-.681.989-.219.855-.219 1.342.073.94.219 1.348.376.734.681.979.696.368 1.163.368zm7.437 1.263a3.12 3.12 0 0 1-1.313-.269 2.21 2.21 0 0 1-.93-.79c-.225-.345-.338-.767-.338-1.268 0-.431.083-.785.249-1.064s.389-.499.671-.661a3.53 3.53 0 0 1 .945-.368c.348-.083.702-.146 1.064-.189l1.113-.129c.285-.037.492-.095.622-.174s.193-.209.193-.388v-.035c0-.434-.122-.77-.367-1.009s-.604-.358-1.084-.358c-.501 0-.895.111-1.183.333s-.483.463-.592.731l-1.397-.318c.166-.464.408-.839.726-1.124s.691-.497 1.108-.626a4.32 4.32 0 0 1 1.318-.199c.305 0 .628.036.969.109a2.84 2.84 0 0 1 .965.388c.301.189.548.459.741.81s.288.801.288 1.358v5.071h-1.452v-1.044h-.059c-.097.192-.241.381-.433.566s-.439.34-.741.463-.663.184-1.083.184zm.323-1.193c.411 0 .762-.082 1.054-.244a1.71 1.71 0 0 0 .671-.636 1.65 1.65 0 0 0 .233-.85v-.985c-.053.053-.155.103-.308.149a5.03 5.03 0 0 1-.512.115l-.562.084-.457.06c-.288.036-.552.098-.791.184s-.424.21-.566.373-.209.371-.209.636c0 .368.136.646.408.835s.618.279 1.039.279zm8.284 1.173c-.617 0-1.167-.158-1.651-.472-.481-.319-.858-.771-1.134-1.358-.271-.59-.407-1.297-.407-2.123s.137-1.531.412-2.117.66-1.036 1.144-1.348 1.032-.467 1.646-.467c.473 0 .855.08 1.143.239s.517.338.676.546a4.63 4.63 0 0 1 .378.552h.089v-3.783h1.487v10.182h-1.452v-1.188h-.124c-.09.162-.219.348-.388.556s-.394.391-.686.547-.669.234-1.133.234zm.328-1.268c.427 0 .789-.113 1.084-.338s.523-.545.676-.949.233-.875.233-1.412c0-.531-.076-.995-.228-1.392s-.377-.708-.672-.93-.659-.333-1.093-.333c-.448 0-.821.116-1.119.348s-.524.548-.676.949-.224.854-.224 1.358c0 .51.076.969.229 1.377s.378.731.676.969.673.353 1.114.353z" fill="url(#U)"/><path d="M267.209 320.613h-3.767v-11.636h3.886c1.14 0 2.12.233 2.938.698s1.445 1.127 1.881 1.995.659 1.899.659 3.108-.222 2.253-.665 3.125a4.67 4.67 0 0 1-1.909 2.011c-.834.466-1.841.699-3.023.699zm-2.011-1.534h1.914c.887 0 1.624-.167 2.211-.5s1.026-.824 1.318-1.46c.292-.641.437-1.421.437-2.341 0-.913-.145-1.688-.437-2.324a3.09 3.09 0 0 0-1.29-1.449c-.572-.33-1.282-.494-2.131-.494h-2.022v8.568zm13.416 1.71c-.86 0-1.601-.184-2.222-.551s-1.094-.892-1.432-1.563c-.333-.674-.5-1.464-.5-2.369 0-.894.167-1.682.5-2.364.338-.681.807-1.214 1.41-1.596s1.314-.574 2.125-.574a4.27 4.27 0 0 1 1.431.244c.462.163.877.419 1.245.767s.657.802.869 1.358.318 1.226.318 2.017v.603h-6.937v-1.273h5.272c0-.447-.091-.843-.272-1.188s-.438-.623-.767-.823-.709-.302-1.148-.302c-.477 0-.894.118-1.25.353s-.625.534-.818.909-.284.774-.284 1.21v.994c0 .584.102 1.08.306 1.489a2.22 2.22 0 0 0 .87.937c.371.213.805.319 1.301.319.322 0 .615-.046.881-.137s.494-.235.687-.42.341-.415.443-.688l1.608.29a2.91 2.91 0 0 1-.693 1.244c-.33.353-.744.627-1.244.824s-1.063.29-1.699.29zm12.845-8.903l-3.165 8.727h-1.818l-3.17-8.727h1.823l2.211 6.716h.091l2.204-6.716h1.824zm1.622 8.727h-1.863l4.187-11.636h2.028l4.188 11.636h-1.864l-3.289-9.523h-.091l-3.296 9.523zm.313-4.557h6.045v1.477h-6.045v-1.477zm12.897 4.727c-.704 0-1.333-.18-1.886-.539-.549-.364-.981-.881-1.295-1.552s-.466-1.482-.466-2.426.157-1.75.471-2.42.754-1.184 1.307-1.54 1.18-.534 1.881-.534c.541 0 .977.091 1.307.273s.591.386.772.625.33.449.432.63h.102v-4.323h1.699v11.636h-1.659v-1.358h-.142c-.102.186-.25.398-.443.636s-.451.447-.784.625-.765.267-1.296.267zm.375-1.448c.489 0 .902-.129 1.239-.387s.599-.623.773-1.085.267-1 .267-1.614c0-.606-.087-1.136-.262-1.591s-.429-.808-.767-1.062-.753-.381-1.25-.381c-.511 0-.937.133-1.278.398s-.598.627-.773 1.085-.255.976-.255 1.551c0 .584.087 1.108.261 1.574s.432.835.773 1.108.769.404 1.272.404zm9.641 1.448c-.705 0-1.333-.18-1.886-.539-.55-.364-.981-.881-1.296-1.552s-.466-1.482-.466-2.426.158-1.75.472-2.42.754-1.184 1.307-1.54 1.18-.534 1.88-.534c.542 0 .978.091 1.307.273s.591.386.773.625.329.449.432.63h.102v-4.323h1.699v11.636h-1.659v-1.358h-.142c-.103.186-.25.398-.443.636s-.451.447-.785.625-.765.267-1.295.267zm.375-1.448c.489 0 .902-.129 1.239-.387s.598-.623.772-1.085.267-1 .267-1.614c0-.606-.087-1.136-.261-1.591s-.43-.808-.767-1.062-.754-.381-1.25-.381c-.511 0-.937.133-1.278.398s-.599.627-.773 1.085-.256.976-.256 1.551c0 .584.087 1.108.262 1.574s.431.835.772 1.108.769.404 1.273.404zm6.374 1.278v-8.727h1.642v1.386h.091a2.11 2.11 0 0 1 .84-1.108c.406-.273.864-.409 1.375-.409l.375.011.347.029v1.625c-.068-.019-.189-.04-.364-.063a3.53 3.53 0 0 0-.522-.04 2.22 2.22 0 0 0-1.074.256c-.311.167-.557.4-.739.699s-.273.633-.273 1.011v5.33h-1.698z" fill="url(#V)"/><path d="M454.064 320.613v-11.636h7.216v1.511h-5.461v3.545h4.944v1.506h-4.944v5.074h-1.755zm19.04-7.852h-1.773a2.7 2.7 0 0 0-.381-1c-.185-.288-.413-.533-.682-.733a2.93 2.93 0 0 0-.903-.455 3.54 3.54 0 0 0-1.051-.153c-.671 0-1.271.168-1.801.505s-.944.832-1.25 1.483-.455 1.447-.455 2.387c0 .947.152 1.746.455 2.397s.725 1.144 1.255 1.478 1.127.5 1.79.5c.368 0 .716-.05 1.046-.148s.634-.252.903-.449.496-.437.682-.721.32-.618.392-.989l1.773.006c-.095.572-.279 1.098-.552 1.579s-.615.89-1.039 1.239-.902.612-1.444.801a5.34 5.34 0 0 1-1.772.284c-1.008 0-1.906-.239-2.693-.716s-1.41-1.168-1.864-2.062-.676-1.961-.676-3.199.227-2.309.682-3.199 1.075-1.58 1.863-2.057 1.684-.722 2.688-.722c.617 0 1.193.089 1.727.268a4.55 4.55 0 0 1 1.449.772 4.24 4.24 0 0 1 1.062 1.239c.281.485.47 1.04.569 1.665zm3.663 2.67v5.182h-1.699v-8.727h1.631v1.42h.108c.2-.462.515-.833.943-1.114s.975-.42 1.631-.42c.594 0 1.115.125 1.562.375s.794.614 1.04 1.102.369 1.093.369 1.813v5.551h-1.699v-5.347c0-.632-.164-1.127-.494-1.483s-.782-.539-1.358-.539c-.394 0-.744.085-1.051.255s-.544.421-.722.75-.261.72-.261 1.182zm11.937-3.545v1.363h-4.767v-1.363h4.767zm-3.488-2.091h1.699v8.255c0 .33.049.578.147.745s.226.274.381.335.332.085.517.085c.136 0 .256-.009.358-.028l.239-.046.307 1.404c-.099.038-.239.075-.421.113s-.409.065-.682.069c-.447.007-.863-.072-1.25-.239a2.14 2.14 0 0 1-.937-.773c-.239-.348-.358-.786-.358-1.312v-8.608z" fill="url(#W)"/><path d="M367.47 320.613v-11.636h7.216v1.511h-5.461v3.545h4.944v1.506h-4.944v5.074h-1.755zm19.04-7.852h-1.773a2.7 2.7 0 0 0-.381-1c-.185-.288-.413-.533-.682-.733a2.93 2.93 0 0 0-.903-.455 3.54 3.54 0 0 0-1.051-.153c-.671 0-1.271.168-1.801.505s-.944.832-1.25 1.483-.455 1.447-.455 2.387c0 .947.152 1.746.455 2.397s.725 1.144 1.255 1.478 1.127.5 1.79.5c.368 0 .716-.05 1.046-.148s.634-.252.903-.449.496-.437.682-.721.32-.618.392-.989l1.773.006c-.095.572-.279 1.098-.552 1.579s-.615.89-1.039 1.239-.902.612-1.444.801a5.34 5.34 0 0 1-1.772.284c-1.008 0-1.906-.239-2.693-.716s-1.41-1.168-1.864-2.062-.676-1.961-.676-3.199.227-2.309.682-3.199 1.075-1.58 1.863-2.057 1.684-.722 2.688-.722c.617 0 1.193.089 1.727.268a4.55 4.55 0 0 1 1.449.772 4.24 4.24 0 0 1 1.062 1.239c.281.485.47 1.04.569 1.665zm6.038-.875v1.363h-4.767v-1.363h4.767zm-3.489-2.091h1.699v8.255c0 .33.049.578.148.745s.225.274.381.335a1.52 1.52 0 0 0 .517.085c.136 0 .255-.009.358-.028l.238-.046.307 1.404c-.098.038-.239.075-.42.113s-.41.065-.682.069c-.447.007-.864-.072-1.25-.239s-.699-.424-.938-.773-.358-.786-.358-1.312v-8.608zm5.368 10.818v-8.727h1.642v1.386h.091a2.11 2.11 0 0 1 .841-1.108c.405-.273.864-.409 1.375-.409l.375.011.347.029v1.625c-.069-.019-.19-.04-.364-.063a3.53 3.53 0 0 0-.523-.04c-.401 0-.759.086-1.074.256s-.556.4-.738.699-.273.633-.273 1.011v5.33h-1.699zm7.84-11.636v11.636h-1.699v-11.636h1.699z" fill="url(#X)"/><path d="M538.074 320.613v-11.636h7.216v1.511h-5.46v3.545h4.943v1.506h-4.943v5.074h-1.756zm19.483-5.818c0 1.242-.227 2.31-.682 3.204s-1.077 1.576-1.869 2.057-1.684.716-2.687.716-1.908-.239-2.699-.716-1.409-1.168-1.864-2.062-.682-1.961-.682-3.199.228-2.309.682-3.199 1.076-1.58 1.864-2.057 1.691-.722 2.699-.722 1.899.241 2.687.722 1.415 1.163 1.869 2.057.682 1.956.682 3.199zm-1.738 0c0-.947-.154-1.745-.461-2.392-.303-.652-.719-1.144-1.25-1.478-.526-.337-1.123-.505-1.789-.505s-1.269.168-1.796.505-.943.826-1.25 1.478c-.303.647-.454 1.445-.454 2.392s.151 1.746.454 2.397.724 1.141 1.25 1.478 1.125.5 1.796.5 1.263-.167 1.789-.5c.531-.337.947-.83 1.25-1.478s.461-1.45.461-2.397zm3.791 9.091v-12h1.659v1.414h.142a4.67 4.67 0 0 1 .426-.63c.186-.239.443-.447.773-.625s.765-.273 1.307-.273c.704 0 1.333.178 1.886.534s.987.869 1.301 1.54.477 1.477.477 2.42-.157 1.752-.471 2.426-.746 1.188-1.296 1.552c-.549.359-1.176.539-1.88.539-.531 0-.964-.089-1.301-.267s-.595-.386-.785-.625-.335-.45-.437-.636h-.102v4.631h-1.699zm1.665-7.637c0 .614.089 1.152.267 1.614s.435.824.772 1.085.75.387 1.239.387c.508 0 .932-.135 1.273-.404s.598-.642.772-1.108.268-.99.268-1.574c0-.575-.088-1.093-.262-1.551s-.428-.82-.773-1.085-.767-.398-1.278-.398c-.492 0-.909.127-1.25.381s-.593.608-.767 1.062-.261.985-.261 1.591zm12.284-4.363v1.363h-4.767v-1.363h4.767zm-3.489-2.091h1.699v8.255c0 .33.049.578.148.745a.77.77 0 0 0 .38.335c.159.057.332.085.517.085.137 0 .256-.009.358-.028l.239-.046.307 1.404c-.099.038-.239.075-.421.113s-.409.065-.681.069c-.447.007-.864-.072-1.25-.239s-.699-.424-.938-.773-.358-.786-.358-1.312v-8.608zm11.767 4.221l-1.54.273c-.064-.197-.166-.384-.306-.562s-.322-.324-.557-.438-.529-.17-.881-.17c-.481 0-.883.108-1.205.323s-.482.487-.482.824c0 .292.107.527.323.705s.565.324 1.046.437l1.386.319c.803.185 1.402.471 1.796.858s.591.888.591 1.505c0 .523-.152.989-.455 1.398s-.718.723-1.256.954-1.153.347-1.858.347c-.977 0-1.774-.208-2.392-.625a2.64 2.64 0 0 1-1.136-1.79l1.642-.25c.102.428.313.752.631.972s.733.324 1.244.324c.557 0 1.002-.116 1.335-.347s.5-.521.5-.858c0-.273-.102-.502-.307-.687s-.509-.326-.926-.421l-1.477-.324c-.814-.185-1.417-.481-1.807-.886s-.579-.919-.579-1.54c0-.515.144-.966.431-1.352s.686-.688 1.194-.903 1.089-.33 1.744-.33c.943 0 1.686.205 2.227.614a2.85 2.85 0 0 1 1.074 1.63z" fill="url(#Y)"/><path d="M605.506 224.432v-11.637h7.216v1.512h-5.461v3.545h4.944v1.506h-4.944v5.074h-1.755zm9.129 3.272v-12h1.659v1.415h.142a4.8 4.8 0 0 1 .426-.63c.186-.239.443-.447.773-.625s.765-.273 1.307-.273c.704 0 1.333.178 1.886.534s.987.869 1.301 1.54.478 1.477.478 2.42-.158 1.752-.472 2.426-.746 1.188-1.295 1.551-1.177.54-1.881.54c-.53 0-.964-.089-1.301-.267s-.595-.386-.784-.625-.336-.451-.438-.636h-.102v4.63h-1.699zm1.665-7.636c0 .614.089 1.152.267 1.614s.435.824.773 1.085.75.386 1.238.386c.508 0 .932-.134 1.273-.403s.598-.642.773-1.108.267-.991.267-1.574c0-.576-.087-1.093-.262-1.551s-.428-.82-.772-1.085-.767-.398-1.279-.398c-.492 0-.909.127-1.25.381s-.593.608-.767 1.062-.261.985-.261 1.591zm11.886 4.54c-.818 0-1.532-.188-2.142-.563s-1.083-.899-1.42-1.573-.506-1.463-.506-2.364.168-1.697.506-2.375.81-1.205 1.42-1.58 1.324-.562 2.142-.562 1.532.187 2.142.562 1.083.902 1.421 1.58.505 1.47.505 2.375-.168 1.689-.505 2.364-.811 1.198-1.421 1.573-1.324.563-2.142.563zm.006-1.426c.53 0 .969-.14 1.318-.421s.606-.653.773-1.119.255-.979.255-1.54-.085-1.068-.255-1.534a2.51 2.51 0 0 0-.773-1.131c-.349-.284-.788-.426-1.318-.426s-.977.142-1.33.426c-.348.285-.608.661-.778 1.131s-.25.977-.25 1.534.083 1.074.25 1.54.43.839.778 1.119c.353.281.796.421 1.33.421zm5.959 1.25v-8.728h1.642v1.387h.091a2.11 2.11 0 0 1 .84-1.108c.406-.273.864-.409 1.375-.409l.375.011.347.029v1.625c-.068-.019-.189-.04-.364-.063a3.53 3.53 0 0 0-.522-.04 2.22 2.22 0 0 0-1.074.256c-.311.167-.557.4-.739.699s-.273.632-.273 1.011v5.33h-1.698zm10.73-8.728v1.364h-4.767v-1.364h4.767zm-3.489-2.09h1.699v8.255c0 .33.049.578.148.745s.225.274.38.335.332.085.517.085c.137 0 .256-.009.358-.028l.239-.046.307 1.404c-.099.037-.239.075-.421.113s-.409.065-.681.068c-.447.008-.864-.072-1.25-.238s-.699-.424-.938-.773-.358-.786-.358-1.312v-8.608z" fill="url(#Z)"/><path d="M5.999 29.358V19.176h3.629c.792 0 1.448.144 1.969.433a2.81 2.81 0 0 1 1.168 1.183c.258.497.388 1.057.388 1.68s-.131 1.19-.393 1.69a2.84 2.84 0 0 1-1.173 1.183c-.52.288-1.175.432-1.964.432H7.128v-1.303h2.357c.5 0 .907-.086 1.218-.259s.54-.414.686-.716.219-.645.219-1.029-.073-.726-.219-1.024-.376-.532-.691-.701-.723-.253-1.233-.253H7.535v8.864H5.999zm8.836 0v-7.636h1.437v1.213h.08c.139-.411.384-.734.736-.969s.756-.358 1.203-.358l.328.01.303.025v1.422c-.06-.017-.166-.035-.318-.055s-.305-.035-.457-.035a1.94 1.94 0 0 0-.94.224c-.272.146-.487.35-.646.611s-.239.554-.239.885v4.663h-1.487zm8.391.154c-.752 0-1.4-.161-1.944-.482a3.27 3.27 0 0 1-1.253-1.367c-.292-.59-.437-1.281-.437-2.073 0-.782.146-1.472.438-2.068s.706-1.062 1.233-1.397 1.15-.502 1.859-.502c.431 0 .849.071 1.253.214s.767.366 1.089.671.575.701.761 1.188.278 1.072.278 1.765v.527h-6.07v-1.114h4.614c0-.391-.08-.738-.239-1.039s-.383-.545-.671-.721-.62-.264-1.004-.264a1.94 1.94 0 0 0-1.094.308 2.07 2.07 0 0 0-.716.795c-.166.325-.249.678-.249 1.059v.87c0 .51.089.945.268 1.303s.436.631.761.82.704.278 1.139.278c.282 0 .538-.04.771-.119s.433-.206.602-.368a1.6 1.6 0 0 0 .388-.602l1.407.254c-.113.414-.315.777-.607 1.089s-.651.549-1.089.721-.93.254-1.486.254zm7.148.015c-.484 0-.921-.089-1.312-.268a2.21 2.21 0 0 1-.93-.79c-.225-.345-.338-.767-.338-1.268 0-.431.083-.785.249-1.064s.389-.499.671-.661.597-.285.945-.368.703-.146 1.064-.189l1.114-.129c.285-.037.492-.095.621-.174s.194-.209.194-.388v-.035c0-.434-.123-.771-.368-1.009s-.603-.358-1.084-.358c-.5 0-.895.111-1.183.333s-.482.462-.592.731l-1.397-.318c.166-.464.408-.838.726-1.124s.691-.497 1.109-.626.857-.199 1.317-.199a4.65 4.65 0 0 1 .97.109 2.84 2.84 0 0 1 .965.388c.302.189.548.459.741.81s.288.8.288 1.357v5.071H32.69v-1.044h-.06c-.096.192-.24.381-.432.567s-.439.34-.741.462-.663.184-1.084.184zm.323-1.193c.411 0 .762-.081 1.054-.244s.519-.375.671-.636a1.65 1.65 0 0 0 .234-.85v-.984c-.053.053-.156.103-.308.149a4.81 4.81 0 0 1-.512.114l-.562.084-.457.06a3.69 3.69 0 0 0-.79.184c-.235.086-.424.21-.567.373s-.209.371-.209.636c0 .368.136.646.408.835s.618.278 1.039.278zm5.425 1.024v-7.636h1.427v1.243h.095a1.97 1.97 0 0 1 .78-.984c.361-.239.794-.358 1.298-.358.51 0 .938.119 1.283.358s.605.567.771.984h.08a2.15 2.15 0 0 1 .87-.974c.398-.245.872-.368 1.422-.368.693 0 1.258.217 1.695.651s.661 1.089.661 1.964v5.121h-1.486v-4.982c0-.517-.141-.892-.423-1.124s-.618-.348-1.009-.348c-.484 0-.86.149-1.129.448s-.403.674-.403 1.139v4.867h-1.482v-5.076c0-.414-.129-.747-.388-.999s-.595-.378-1.009-.378c-.282 0-.542.075-.78.224s-.426.35-.572.611-.214.565-.214.91v4.708h-1.487zm12.492 0V19.176h1.487v3.783h.089c.086-.159.211-.343.373-.552a2.11 2.11 0 0 1 .676-.547c.288-.159.67-.239 1.144-.239.617 0 1.167.156 1.651.467s.863.761 1.139 1.347.418 1.293.418 2.118-.138 1.533-.413 2.123-.653 1.039-1.133 1.357-1.029.472-1.646.472c-.464 0-.843-.078-1.139-.234s-.52-.338-.686-.547-.293-.394-.383-.557h-.124v1.188h-1.452zm1.457-3.818c0 .537.078 1.008.234 1.412s.381.721.676.95.656.338 1.084.338c.444 0 .815-.118 1.114-.353s.524-.562.676-.969.234-.867.234-1.377c0-.504-.076-.956-.229-1.357s-.375-.717-.676-.95-.671-.348-1.119-.348c-.431 0-.796.111-1.094.333s-.519.532-.671.93-.229.862-.229 1.392zm8.674-6.364v10.182h-1.486V19.176h1.486zm5.291 10.336c-.752 0-1.4-.161-1.944-.482a3.27 3.27 0 0 1-1.253-1.367c-.292-.59-.437-1.281-.437-2.073 0-.782.146-1.472.438-2.068s.706-1.062 1.233-1.397 1.15-.502 1.859-.502a3.74 3.74 0 0 1 1.253.214c.404.143.767.366 1.089.671s.575.701.761 1.188.278 1.072.278 1.765v.527h-6.07v-1.114h4.614c0-.391-.08-.738-.239-1.039s-.383-.545-.671-.721-.62-.264-1.004-.264a1.94 1.94 0 0 0-1.094.308c-.308.202-.547.467-.716.795s-.249.678-.249 1.059v.87c0 .51.09.945.268 1.303a1.94 1.94 0 0 0 .761.82c.325.186.704.278 1.139.278.282 0 .539-.04.771-.119s.432-.206.602-.368.298-.363.388-.602l1.407.254a2.55 2.55 0 0 1-.606 1.089c-.288.308-.651.549-1.089.721s-.93.254-1.486.254z" fill="url(#a)"/><path d="M78.341 29.358V19.176h3.629c.792 0 1.448.144 1.969.433a2.81 2.81 0 0 1 1.168 1.183c.258.497.388 1.057.388 1.68s-.131 1.19-.393 1.69a2.84 2.84 0 0 1-1.173 1.183c-.52.288-1.175.432-1.964.432h-2.496v-1.303h2.356c.501 0 .907-.086 1.218-.259s.54-.414.686-.716.219-.645.219-1.029-.073-.726-.219-1.024-.376-.532-.691-.701-.723-.253-1.233-.253h-1.929v8.864h-1.536zm8.955 0V19.176h1.536V23.6h5.076v-4.425h1.541v10.182h-1.541v-4.44h-5.076v4.44h-1.536zm13.686 0h-3.296V19.176h3.401c.997 0 1.854.204 2.57.611a4.03 4.03 0 0 1 1.646 1.745c.384.756.576 1.662.576 2.719s-.193 1.972-.581 2.734-.942 1.349-1.671 1.76-1.611.612-2.645.612zm-1.76-1.342h1.675c.775 0 1.42-.146 1.934-.437s.898-.721 1.153-1.278.383-1.243.383-2.048c0-.799-.128-1.476-.383-2.033s-.628-.979-1.128-1.268-1.122-.433-1.865-.433h-1.77v7.497zm8.568 1.342V19.176h3.629c.789 0 1.443.136 1.964.408s.915.648 1.173 1.128.388 1.029.388 1.656-.131 1.172-.393 1.646-.65.837-1.173 1.099-1.175.393-1.964.393h-2.749v-1.323h2.61c.497 0 .901-.071 1.213-.214s.545-.35.691-.621.219-.598.219-.979-.075-.718-.224-.999-.376-.497-.691-.646-.721-.229-1.228-.229h-1.929v8.864h-1.536zm5.026-4.594l2.516 4.594h-1.75l-2.466-4.594h1.7z" fill="url(#b)"/><path d="M128.068 28.358v-9.455h3.37c.735 0 1.344.134 1.828.402s.844.634 1.085 1.099.36.982.36 1.56-.122 1.105-.365 1.57-.603.828-1.09 1.099-1.091.402-1.823.402h-2.318v-1.209h2.189c.464 0 .841-.08 1.131-.24a1.51 1.51 0 0 0 .637-.665c.135-.28.203-.599.203-.956s-.068-.674-.203-.951-.35-.494-.642-.651-.671-.235-1.145-.235h-1.791v8.231h-1.426zm8.315 0v-9.455h1.426v4.109h4.714v-4.109h1.431v9.455h-1.431v-4.123h-4.714v4.123h-1.426zm12.709 0h-3.061v-9.455h3.158c.926 0 1.722.189 2.387.568a3.74 3.74 0 0 1 1.528 1.62c.357.702.535 1.543.535 2.525s-.18 1.831-.54 2.539a3.79 3.79 0 0 1-1.551 1.634c-.677.379-1.496.568-2.456.568zm-1.634-1.246h1.556c.72 0 1.318-.135 1.795-.406a2.56 2.56 0 0 0 1.071-1.186c.237-.52.356-1.154.356-1.902 0-.742-.119-1.371-.356-1.888s-.583-.91-1.047-1.177-1.042-.402-1.732-.402h-1.643v6.962zm7.955 1.246v-9.455h3.37c.733 0 1.341.126 1.824.379a2.51 2.51 0 0 1 1.089 1.048c.24.443.36.956.36 1.537s-.121 1.088-.364 1.528-.604.777-1.09 1.02-1.091.365-1.823.365h-2.553v-1.228h2.423c.462 0 .837-.066 1.127-.198s.506-.325.641-.577.204-.555.204-.909-.07-.666-.208-.928-.349-.462-.642-.6-.669-.212-1.14-.212h-1.791v8.231h-1.427zm4.667-4.266l2.336 4.266h-1.625l-2.289-4.266h1.578zm8.666 4.266v1.173h-6.006v-1.173h6.006zm8.358-6.38h-1.441a2.19 2.19 0 0 0-.309-.812 2.27 2.27 0 0 0-.554-.596 2.38 2.38 0 0 0-.734-.369c-.268-.083-.552-.125-.854-.125-.545 0-1.033.137-1.463.411s-.767.675-1.016 1.205-.369 1.176-.369 1.939c0 .769.123 1.419.369 1.948s.589.93 1.02 1.2.916.406 1.454.406c.299 0 .582-.04.85-.12a2.45 2.45 0 0 0 .734-.365c.218-.16.403-.355.554-.586a2.2 2.2 0 0 0 .318-.803l1.441.005a3.85 3.85 0 0 1-.448 1.283c-.219.388-.5.723-.845 1.006s-.732.497-1.172.651-.921.231-1.441.231c-.818 0-1.548-.194-2.188-.582s-1.145-.949-1.514-1.676-.55-1.593-.55-2.599.185-1.876.554-2.599.874-1.283 1.515-1.671 1.368-.586 2.183-.586c.502 0 .97.072 1.404.217s.829.351 1.177.628.635.609.863 1.006a3.88 3.88 0 0 1 .462 1.353zm1.707 6.38v-9.455h3.37c.732 0 1.34.126 1.823.379s.85.602 1.09 1.048.36.956.36 1.537-.122 1.088-.365 1.528-.603.777-1.089 1.02-1.091.365-1.824.365h-2.553v-1.228h2.424c.461 0 .837-.066 1.126-.198a1.31 1.31 0 0 0 .642-.577c.135-.252.203-.555.203-.909s-.069-.666-.208-.928a1.34 1.34 0 0 0-.641-.6c-.29-.142-.67-.212-1.141-.212h-1.791v8.231h-1.426zm4.667-4.266l2.336 4.266h-1.625l-2.29-4.266h1.579zm11.564-2.114h-1.44c-.056-.308-.159-.579-.309-.812s-.336-.432-.554-.596a2.4 2.4 0 0 0-.734-.369 2.87 2.87 0 0 0-.854-.125 2.67 2.67 0 0 0-1.464.411c-.428.274-.766.675-1.016 1.205s-.369 1.176-.369 1.939c0 .769.123 1.419.369 1.948s.59.93 1.021 1.2.915.406 1.454.406a2.95 2.95 0 0 0 .849-.12c.271-.083.516-.205.734-.365s.404-.355.554-.586.26-.502.319-.803l1.44.005a3.85 3.85 0 0 1-.448 1.283 3.54 3.54 0 0 1-.844 1.006 3.83 3.83 0 0 1-1.173.651c-.44.154-.92.231-1.44.231-.819 0-1.548-.194-2.189-.582s-1.144-.949-1.514-1.676-.549-1.593-.549-2.599.185-1.876.554-2.599.874-1.283 1.514-1.671 1.368-.586 2.184-.586c.501 0 .969.072 1.403.217s.83.351 1.177.628.636.609.864 1.006a3.9 3.9 0 0 1 .461 1.353z" fill="url(#c)"/><path d="M784.807 29.358V19.176h3.629c.792 0 1.449.144 1.969.433s.91.683 1.168 1.183.388 1.057.388 1.68-.131 1.19-.393 1.69-.649.892-1.173 1.183-1.175.432-1.964.432h-2.495v-1.303h2.356c.501 0 .907-.086 1.218-.259a1.62 1.62 0 0 0 .686-.716c.146-.302.219-.645.219-1.029a2.3 2.3 0 0 0-.219-1.024 1.57 1.57 0 0 0-.691-.701c-.311-.169-.722-.253-1.233-.253h-1.929v8.864h-1.536zm8.955 0V19.176h1.536V23.6h5.076v-4.425h1.542v10.182h-1.542v-4.44h-5.076v4.44h-1.536zm13.687 0h-3.296V19.176h3.4c.998 0 1.855.204 2.571.611s1.264.986 1.645 1.745.577 1.662.577 2.719-.194 1.972-.582 2.734-.941 1.349-1.67 1.76-1.611.612-2.645.612zm-1.76-1.342h1.675c.776 0 1.421-.146 1.934-.437s.899-.721 1.154-1.278.383-1.243.383-2.048c0-.799-.128-1.476-.383-2.033s-.628-.979-1.129-1.268-1.122-.433-1.864-.433h-1.77v7.497zm8.567 1.342V19.176h3.63c.788 0 1.443.136 1.963.408s.915.648 1.174 1.128.387 1.029.387 1.656-.13 1.172-.392 1.646-.65.837-1.174 1.099-1.175.393-1.963.393h-2.75v-1.323h2.61c.498 0 .902-.071 1.213-.214s.546-.35.692-.621.218-.598.218-.979-.074-.718-.223-.999-.377-.497-.692-.646-.72-.229-1.227-.229h-1.929v8.864h-1.537zm5.027-4.594l2.515 4.594h-1.75l-2.466-4.594h1.701zm9.331 4.594v1.263h-6.468v-1.263h6.468zm9.001-6.871h-1.551c-.059-.331-.171-.623-.333-.875a2.43 2.43 0 0 0-.597-.641 2.56 2.56 0 0 0-.79-.398 3.09 3.09 0 0 0-.92-.134c-.586 0-1.112.147-1.576.442s-.825.727-1.093 1.298-.398 1.266-.398 2.088c0 .829.132 1.528.398 2.098s.634 1.001 1.098 1.293.986.438 1.566.438c.322 0 .627-.043.915-.129a2.64 2.64 0 0 0 .791-.393c.235-.172.434-.383.596-.631s.28-.54.343-.865l1.551.005a4.15 4.15 0 0 1-.482 1.382c-.235.418-.539.779-.91 1.084s-.789.535-1.263.701-.991.248-1.551.248c-.881 0-1.667-.209-2.356-.626s-1.233-1.023-1.631-1.805-.591-1.715-.591-2.799.198-2.02.596-2.799.941-1.382 1.631-1.8 1.473-.631 2.351-.631c.541 0 1.044.078 1.512.234s.893.378 1.267.676a3.71 3.71 0 0 1 .93 1.084c.245.424.411.91.497 1.457zm1.839 6.871V19.176h3.629c.789 0 1.443.136 1.964.408a2.71 2.71 0 0 1 1.173 1.128c.258.477.388 1.029.388 1.656s-.131 1.172-.393 1.646-.65.837-1.173 1.099-1.175.393-1.964.393h-2.749v-1.323h2.61c.497 0 .901-.071 1.213-.214s.545-.35.691-.621.219-.598.219-.979-.075-.718-.224-.999-.376-.497-.691-.646-.721-.229-1.228-.229h-1.929v8.864h-1.536zm5.026-4.594l2.515 4.594h-1.75l-2.465-4.594h1.7zm12.454-2.277h-1.551c-.06-.331-.171-.623-.334-.875s-.361-.466-.596-.641-.499-.308-.791-.398-.595-.134-.919-.134c-.587 0-1.112.147-1.576.442s-.826.727-1.094 1.298-.398 1.266-.398 2.088c0 .829.133 1.528.398 2.098s.635 1.001 1.099 1.293.986.438 1.566.438c.321 0 .626-.043.914-.129a2.63 2.63 0 0 0 .791-.393c.235-.172.434-.383.597-.631s.28-.54.343-.865l1.551.005a4.15 4.15 0 0 1-.483 1.382 3.81 3.81 0 0 1-.909 1.084c-.368.302-.789.535-1.263.701a4.67 4.67 0 0 1-1.551.248c-.882 0-1.667-.209-2.357-.626s-1.233-1.023-1.63-1.805-.592-1.715-.592-2.799.199-2.02.596-2.799.942-1.382 1.631-1.8 1.473-.631 2.352-.631c.54 0 1.044.078 1.511.234a3.99 3.99 0 0 1 1.268.676 3.74 3.74 0 0 1 .93 1.084c.245.424.411.91.497 1.457z" fill="url(#d)"/><path d="M781.328 46.22v53.963m-40.578 41.801v53.963m-139.757 41.801v53.964M200.25 46.22v53.963m51.793 40.178v53.963m0 43.424v53.964" stroke="#a4a4a4" stroke-width=".8" stroke-dasharray="1.8 1.8"/><defs><linearGradient id="A" x1="190.074" y1="46.221" x2="653.327" y2="-220.706" href="#e"><stop stop-color="#d84896"/><stop offset="1" stop-color="#2f67ff"/></linearGradient><linearGradient id="B" x1="198.454" y1="145.658" x2="253.798" y2="142.79" href="#e"><stop stop-color="#d84896"/><stop offset="1" stop-color="#2f67ff"/></linearGradient><linearGradient id="C" x1="243.85" y1="145.658" x2="663.977" y2="-57.828" href="#e"><stop stop-color="#d84896"/><stop offset="1" stop-color="#2f67ff"/></linearGradient><linearGradient id="D" x1="246.062" y1="241.422" x2="576.901" y2="126.986" href="#e"><stop stop-color="#d84896"/><stop offset="1" stop-color="#2f67ff"/></linearGradient><linearGradient id="E" x1="739.869" y1="145.658" x2="782.68" y2="143.943" href="#e"><stop stop-color="#d84896"/><stop offset="1" stop-color="#2f67ff"/></linearGradient><linearGradient id="F" x1="647.381" y1="240.285" x2="743.843" y2="231.525" href="#e"><stop stop-color="#d84896"/><stop offset="1" stop-color="#2f67ff"/></linearGradient><linearGradient id="G" x1="250.208" y1="336.466" x2="342.126" y2="328.517" href="#e"><stop stop-color="#d84896"/><stop offset="1" stop-color="#2f67ff"/></linearGradient><linearGradient id="H" x1="424.791" y1="336.466" x2="516.709" y2="328.517" href="#e"><stop stop-color="#d84896"/><stop offset="1" stop-color="#2f67ff"/></linearGradient><linearGradient id="I" x1="337.499" y1="336.466" x2="429.417" y2="328.517" href="#e"><stop stop-color="#d84896"/><stop offset="1" stop-color="#2f67ff"/></linearGradient><linearGradient id="J" x1="512.082" y1="336.466" x2="604" y2="328.517" href="#e"><stop stop-color="#d84896"/><stop offset="1" stop-color="#2f67ff"/></linearGradient><linearGradient id="K" x1="599.994" y1="241.422" x2="650.888" y2="239.057" href="#e"><stop stop-color="#d84896"/><stop offset="1" stop-color="#2f67ff"/></linearGradient><linearGradient id="L" x1="-1.138" y1="46.221" x2="74.494" y2="40.855" href="#e"><stop stop-color="#2f67ff"/><stop offset="1" stop-color="#02e3fc"/></linearGradient><linearGradient id="M" x1="70.649" y1="46.221" x2="121.799" y2="43.773" href="#e"><stop stop-color="#2f67ff"/><stop offset="1" stop-color="#02e3fc"/></linearGradient><linearGradient id="N" x1="118.48" y1="46.22" x2="202.345" y2="39.614" href="#e"><stop stop-color="#2f67ff"/><stop offset="1" stop-color="#02e3fc"/></linearGradient><linearGradient id="O" x1="779.669" y1="46.22" x2="863.534" y2="39.614" href="#e"><stop stop-color="#2f67ff"/><stop offset="1" stop-color="#02e3fc"/></linearGradient><linearGradient id="P" x1="559.131" y1="23.473" x2="485.714" y2="33.529" href="#e"><stop stop-color="#ff5f9b"/><stop offset="1" stop-color="#2f67ff"/></linearGradient><linearGradient id="Q" x1="303.044" y1="122.92" x2="252.936" y2="127.558" href="#e"><stop stop-color="#ff5f9b"/><stop offset="1" stop-color="#2f67ff"/></linearGradient><linearGradient id="R" x1="661.552" y1="124.333" x2="565.655" y2="141.727" href="#e"><stop stop-color="#ff5f9b"/><stop offset="1" stop-color="#2f67ff"/></linearGradient><linearGradient id="S" x1="454.683" y1="218.685" x2="410.504" y2="222.283" href="#e"><stop stop-color="#ff5f9b"/><stop offset="1" stop-color="#2f67ff"/></linearGradient><linearGradient id="T" x1="777.513" y1="122.92" x2="745.283" y2="124.829" href="#e"><stop stop-color="#ff5f9b"/><stop offset="1" stop-color="#2f67ff"/></linearGradient><linearGradient id="U" x1="750.367" y1="217.547" x2="656.306" y2="234.261" href="#e"><stop stop-color="#ff5f9b"/><stop offset="1" stop-color="#2f67ff"/></linearGradient><linearGradient id="V" x1="328.307" y1="313.729" x2="262.776" y2="321.709" href="#e"><stop stop-color="#ff5f9b"/><stop offset="1" stop-color="#2f67ff"/></linearGradient><linearGradient id="W" x1="508.257" y1="313.729" x2="453.06" y2="319.366" href="#e"><stop stop-color="#ff5f9b"/><stop offset="1" stop-color="#2f67ff"/></linearGradient><linearGradient id="X" x1="410.451" y1="313.729" x2="366.244" y2="317.331" href="#e"><stop stop-color="#ff5f9b"/><stop offset="1" stop-color="#2f67ff"/></linearGradient><linearGradient id="Y" x1="589.274" y1="313.729" x2="536.999" y2="318.779" href="#e"><stop stop-color="#ff5f9b"/><stop offset="1" stop-color="#2f67ff"/></linearGradient><linearGradient id="Z" x1="646.449" y1="217.547" x2="604.253" y2="220.828" href="#e"><stop stop-color="#ff5f9b"/><stop offset="1" stop-color="#2f67ff"/></linearGradient><linearGradient id="a" x1="79.271" y1="23.473" x2="5.853" y2="33.529" href="#e"><stop stop-color="#02e3fc"/><stop offset="1" stop-color="#2f67ff"/></linearGradient><linearGradient id="b" x1="121.454" y1="23.473" x2="77.275" y2="27.071" href="#e"><stop stop-color="#02e3fc"/><stop offset="1" stop-color="#2f67ff"/></linearGradient><linearGradient id="c" x1="213.482" y1="23.473" x2="128.707" y2="36.967" href="#e"><stop stop-color="#02e3fc"/><stop offset="1" stop-color="#2f67ff"/></linearGradient><linearGradient id="d" x1="870.142" y1="23.473" x2="785.367" y2="36.967" href="#e"><stop stop-color="#02e3fc"/><stop offset="1" stop-color="#2f67ff"/></linearGradient><linearGradient id="e" gradientUnits="userSpaceOnUse"/></defs></svg>