<svg width="23" height="24" viewBox="0 0 23 24" fill="none" xmlns="http://www.w3.org/2000/svg">
<g clip-path="url(#clip0_1_23)">
<path d="M20.125 6H17.25C17.25 4.4087 16.6442 2.88258 15.5659 1.75736C14.4875 0.632141 13.025 0 11.5 0C9.97501 0 8.51247 0.632141 7.43414 1.75736C6.3558 2.88258 5.75 4.4087 5.75 6H2.875C2.1125 6 1.38124 6.31607 0.842068 6.87868C0.302901 7.44129 0 8.20435 0 9L0 19C0.0015217 20.3256 0.506845 21.5964 1.40513 22.5338C2.30341 23.4711 3.5213 23.9984 4.79167 24H18.2083C19.4787 23.9984 20.6966 23.4711 21.5949 22.5338C22.4932 21.5964 22.9985 20.3256 23 19V9C23 8.20435 22.6971 7.44129 22.1579 6.87868C21.6188 6.31607 20.8875 6 20.125 6ZM11.5 2C12.5167 2 13.4917 2.42143 14.2106 3.17157C14.9295 3.92172 15.3333 4.93913 15.3333 6H7.66667C7.66667 4.93913 8.07053 3.92172 8.78942 3.17157C9.50831 2.42143 10.4833 2 11.5 2ZM21.0833 19C21.0833 19.7956 20.7804 20.5587 20.2413 21.1213C19.7021 21.6839 18.9708 22 18.2083 22H4.79167C4.02917 22 3.2979 21.6839 2.75873 21.1213C2.21957 20.5587 1.91667 19.7956 1.91667 19V9C1.91667 8.73478 2.01763 8.48043 2.19736 8.29289C2.37708 8.10536 2.62083 8 2.875 8H5.75V10C5.75 10.2652 5.85097 10.5196 6.03069 10.7071C6.21041 10.8946 6.45417 11 6.70833 11C6.9625 11 7.20625 10.8946 7.38598 10.7071C7.5657 10.5196 7.66667 10.2652 7.66667 10V8H15.3333V10C15.3333 10.2652 15.4343 10.5196 15.614 10.7071C15.7937 10.8946 16.0375 11 16.2917 11C16.5458 11 16.7896 10.8946 16.9693 10.7071C17.149 10.5196 17.25 10.2652 17.25 10V8H20.125C20.3792 8 20.6229 8.10536 20.8026 8.29289C20.9824 8.48043 21.0833 8.73478 21.0833 9V19Z" fill="url(#paint0_linear_1_23)"/>
</g>
<defs>
<linearGradient id="paint0_linear_1_23" x1="11.5" y1="0" x2="11.5" y2="24" gradientUnits="userSpaceOnUse">
<stop stop-color="#F75B9E"/>
<stop offset="1" stop-color="#2F67FF"/>
</linearGradient>
<clipPath id="clip0_1_23">
<rect width="23" height="24" fill="white"/>
</clipPath>
</defs>
</svg>
