<svg width="900" height="900" viewBox="0 0 900 900" fill="none" xmlns="http://www.w3.org/2000/svg">
<rect width="900" height="900" rx="51" fill="white"/>
<path d="M728.799 285.211H795.521C798.144 285.212 800.271 287.338 800.271 289.961V578.256C800.271 580.327 798.591 582.006 796.521 582.006H726.049V287.961C726.049 286.443 727.28 285.211 728.799 285.211Z" stroke="#888888" stroke-width="2.5"/>
<path d="M627.475 509L656.566 509L656.566 514.27L632.603 514.27L632.603 514.441L636.95 521.245L632.12 521.245L627.475 514.015L627.475 509ZM627.475 489.782L656.566 489.782L656.566 495.051L632.603 495.051L632.603 495.222L636.95 502.026L632.12 502.026L627.475 494.796L627.475 489.782ZM657.12 471.642C657.12 473.981 656.529 475.989 655.345 477.665C654.152 479.332 652.433 480.615 650.189 481.515C647.935 482.405 645.222 482.85 642.049 482.85C638.877 482.84 636.178 482.391 633.953 481.5C631.718 480.601 630.013 479.318 628.839 477.651C627.665 475.975 627.078 473.972 627.078 471.642C627.078 469.313 627.665 467.31 628.839 465.634C630.013 463.958 631.718 462.675 633.953 461.784C636.188 460.885 638.886 460.435 642.049 460.435C645.231 460.435 647.949 460.885 650.203 461.784C652.447 462.675 654.161 463.958 655.345 465.634C656.529 467.301 657.12 469.303 657.12 471.642ZM652.674 471.642C652.674 469.824 651.779 468.39 649.99 467.338C648.19 466.278 645.544 465.748 642.049 465.748C639.739 465.748 637.797 465.989 636.225 466.472C634.654 466.955 633.47 467.637 632.674 468.517C631.869 469.398 631.467 470.44 631.467 471.642C631.467 473.451 632.367 474.881 634.166 475.932C635.956 476.983 638.583 477.514 642.049 477.523C644.369 477.533 646.32 477.301 647.902 476.827C649.483 476.344 650.676 475.662 651.481 474.782C652.277 473.901 652.674 472.855 652.674 471.642ZM656.566 445.737L634.748 445.737L634.748 440.822L638.456 440.822L638.456 440.566C637.206 440.112 636.23 439.359 635.529 438.308C634.819 437.257 634.464 436.002 634.464 434.544C634.464 433.066 634.824 431.821 635.544 430.808C636.254 429.785 637.225 429.065 638.456 428.649L638.456 428.422C637.243 427.939 636.278 427.124 635.558 425.978C634.829 424.823 634.464 423.455 634.464 421.873C634.464 419.866 635.099 418.227 636.368 416.958C637.636 415.69 639.488 415.055 641.922 415.055L656.566 415.055L656.566 420.211L642.717 420.211C641.363 420.211 640.373 420.571 639.748 421.291C639.114 422.011 638.797 422.891 638.797 423.933C638.797 425.173 639.185 426.144 639.961 426.845C640.728 427.536 641.727 427.882 642.958 427.882L656.566 427.882L656.566 432.924L642.504 432.924C641.377 432.924 640.477 433.265 639.805 433.947C639.133 434.619 638.797 435.5 638.797 436.589C638.797 437.328 638.986 438 639.365 438.606C639.734 439.212 640.26 439.695 640.941 440.055C641.614 440.415 642.4 440.595 643.299 440.595L656.566 440.595L656.566 445.737ZM656.566 409.838L634.748 409.838L634.748 404.924L638.456 404.924L638.456 404.668C637.206 404.213 636.23 403.461 635.529 402.409C634.819 401.358 634.464 400.104 634.464 398.645C634.464 397.168 634.824 395.923 635.544 394.909C636.254 393.887 637.225 393.167 638.456 392.75L638.456 392.523C637.243 392.04 636.278 391.226 635.558 390.08C634.829 388.925 634.464 387.556 634.464 385.975C634.464 383.967 635.099 382.329 636.368 381.06C637.636 379.791 639.488 379.157 641.922 379.157L656.566 379.157L656.566 384.313L642.717 384.313C641.363 384.313 640.373 384.673 639.748 385.392C639.114 386.112 638.797 386.993 638.797 388.034C638.797 389.275 639.185 390.246 639.961 390.946C640.728 391.638 641.727 391.983 642.958 391.983L656.566 391.983L656.566 397.026L642.504 397.026C641.377 397.026 640.477 397.367 639.805 398.049C639.133 398.721 638.797 399.602 638.797 400.691C638.797 401.429 638.986 402.102 639.365 402.708C639.734 403.314 640.26 403.797 640.941 404.157C641.614 404.516 642.4 404.696 643.299 404.696L656.566 404.696L656.566 409.838Z" fill="#3C3B3B"/>
<path d="M270.265 684.836L270.265 713.927L264.995 713.927L264.995 689.964L264.825 689.964L258.021 694.311L258.021 689.481L265.251 684.836L270.265 684.836ZM277.126 708.53L277.126 704.339L289.47 684.836L292.964 684.836L292.964 690.802L290.833 690.802L282.524 703.97L282.524 704.197L299.754 704.197L299.754 708.53L277.126 708.53ZM291.004 713.927L291.004 707.251L291.061 705.376L291.061 684.836L296.032 684.836L296.032 713.927L291.004 713.927ZM314.406 714.325C312.512 714.325 310.817 713.97 309.321 713.26C307.824 712.54 306.636 711.555 305.755 710.305C304.884 709.055 304.42 707.625 304.363 706.015L309.477 706.015C309.572 707.209 310.088 708.184 311.025 708.941C311.963 709.69 313.09 710.064 314.406 710.064C315.438 710.064 316.357 709.827 317.162 709.353C317.966 708.88 318.601 708.222 319.065 707.379C319.529 706.536 319.756 705.575 319.747 704.495C319.756 703.397 319.524 702.422 319.051 701.569C318.577 700.717 317.929 700.049 317.105 699.566C316.281 699.074 315.334 698.828 314.264 698.828C313.393 698.818 312.536 698.979 311.693 699.311C310.85 699.642 310.182 700.078 309.69 700.618L304.931 699.836L306.451 684.836L323.326 684.836L323.326 689.24L310.812 689.24L309.974 696.953L310.145 696.953C310.684 696.318 311.447 695.793 312.431 695.376C313.416 694.95 314.496 694.737 315.67 694.737C317.431 694.737 319.003 695.154 320.386 695.987C321.769 696.811 322.858 697.947 323.653 699.396C324.449 700.845 324.846 702.502 324.846 704.368C324.846 706.29 324.401 708.004 323.511 709.51C322.63 711.006 321.404 712.185 319.832 713.047C318.27 713.899 316.461 714.325 314.406 714.325ZM339.583 713.927L339.583 692.109L344.498 692.109L344.498 695.816L344.754 695.816C345.208 694.566 345.961 693.591 347.012 692.89C348.064 692.18 349.318 691.825 350.777 691.825C352.254 691.825 353.499 692.185 354.512 692.905C355.535 693.615 356.255 694.585 356.672 695.816L356.899 695.816C357.382 694.604 358.196 693.638 359.342 692.919C360.497 692.19 361.866 691.825 363.447 691.825C365.455 691.825 367.093 692.459 368.362 693.728C369.631 694.997 370.265 696.849 370.265 699.282L370.265 713.927L365.109 713.927L365.109 700.078C365.109 698.724 364.749 697.734 364.029 697.109C363.31 696.475 362.429 696.157 361.387 696.157C360.147 696.157 359.176 696.546 358.475 697.322C357.784 698.089 357.439 699.088 357.439 700.319L357.439 713.927L352.396 713.927L352.396 699.865C352.396 698.738 352.055 697.838 351.373 697.166C350.701 696.494 349.82 696.157 348.731 696.157C347.993 696.157 347.32 696.347 346.714 696.726C346.108 697.095 345.625 697.62 345.265 698.302C344.905 698.975 344.725 699.761 344.725 700.66L344.725 713.927L339.583 713.927ZM375.482 713.927L375.482 692.109L380.397 692.109L380.397 695.816L380.652 695.816C381.107 694.566 381.86 693.591 382.911 692.89C383.962 692.18 385.217 691.825 386.675 691.825C388.152 691.825 389.398 692.185 390.411 692.905C391.434 693.615 392.153 694.585 392.57 695.816L392.797 695.816C393.28 694.604 394.095 693.638 395.24 692.919C396.396 692.19 397.764 691.825 399.346 691.825C401.353 691.825 402.991 692.459 404.26 693.728C405.529 694.997 406.164 696.849 406.164 699.282L406.164 713.927L401.007 713.927L401.007 700.078C401.007 698.724 400.648 697.734 399.928 697.109C399.208 696.475 398.328 696.157 397.286 696.157C396.045 696.157 395.075 696.546 394.374 697.322C393.683 698.089 393.337 699.088 393.337 700.319L393.337 713.927L388.294 713.927L388.294 699.865C388.294 698.738 387.953 697.838 387.272 697.166C386.599 696.494 385.719 696.157 384.63 696.157C383.891 696.157 383.219 696.347 382.613 696.726C382.007 697.095 381.524 697.62 381.164 698.302C380.804 698.975 380.624 699.761 380.624 700.66L380.624 713.927L375.482 713.927Z" fill="#3C3B3B"/>
<path d="M713.32 792.798C711.275 792.798 709.457 792.447 707.866 791.746C706.284 791.046 705.034 790.07 704.116 788.82C703.197 787.57 702.71 786.126 702.653 784.488L707.994 784.488C708.041 785.274 708.302 785.961 708.775 786.548C709.249 787.125 709.878 787.575 710.664 787.897C711.45 788.219 712.331 788.38 713.306 788.38C714.348 788.38 715.271 788.2 716.076 787.84C716.881 787.471 717.511 786.96 717.965 786.306C718.42 785.653 718.642 784.9 718.633 784.048C718.642 783.167 718.415 782.39 717.951 781.718C717.487 781.046 716.815 780.52 715.934 780.141C715.063 779.763 714.012 779.573 712.781 779.573L710.21 779.573L710.21 775.511L712.781 775.511C713.794 775.511 714.679 775.336 715.437 774.985C716.204 774.635 716.805 774.142 717.241 773.508C717.677 772.864 717.89 772.121 717.88 771.278C717.89 770.454 717.705 769.739 717.326 769.133C716.957 768.517 716.431 768.039 715.749 767.698C715.077 767.357 714.286 767.187 713.377 767.187C712.487 767.187 711.663 767.348 710.906 767.67C710.148 767.992 709.537 768.451 709.073 769.048C708.609 769.635 708.363 770.336 708.335 771.15L703.264 771.15C703.302 769.521 703.77 768.091 704.67 766.86C705.579 765.62 706.791 764.654 708.306 763.962C709.821 763.262 711.521 762.911 713.406 762.911C715.347 762.911 717.033 763.276 718.463 764.005C719.902 764.725 721.015 765.695 721.801 766.917C722.587 768.139 722.98 769.488 722.98 770.965C722.989 772.604 722.506 773.977 721.531 775.085C720.565 776.193 719.296 776.917 717.724 777.258L717.724 777.485C719.769 777.769 721.337 778.527 722.426 779.758C723.524 780.979 724.069 782.499 724.059 784.318C724.059 785.946 723.595 787.405 722.667 788.693C721.749 789.971 720.48 790.975 718.86 791.704C717.25 792.433 715.404 792.798 713.32 792.798ZM728.935 792.4L728.935 788.593L739.034 778.693C740 777.717 740.805 776.851 741.449 776.093C742.093 775.336 742.576 774.602 742.898 773.891C743.22 773.181 743.381 772.424 743.381 771.619C743.381 770.7 743.173 769.914 742.756 769.261C742.339 768.598 741.766 768.086 741.037 767.727C740.308 767.367 739.479 767.187 738.551 767.187C737.595 767.187 736.757 767.386 736.037 767.783C735.317 768.172 734.759 768.726 734.361 769.445C733.973 770.165 733.779 771.022 733.779 772.016L728.764 772.016C728.764 770.17 729.186 768.565 730.029 767.201C730.871 765.837 732.031 764.782 733.509 764.033C734.995 763.285 736.7 762.911 738.622 762.911C740.573 762.911 742.287 763.276 743.764 764.005C745.242 764.734 746.387 765.733 747.202 767.002C748.026 768.271 748.438 769.72 748.438 771.349C748.438 772.438 748.229 773.508 747.813 774.559C747.396 775.61 746.662 776.775 745.611 778.053C744.569 779.332 743.106 780.88 741.222 782.698L736.208 787.798L736.208 787.997L748.878 787.997L748.878 792.4L728.935 792.4ZM763.757 792.4L763.757 770.582L768.672 770.582L768.672 774.289L768.928 774.289C769.382 773.039 770.135 772.064 771.186 771.363C772.237 770.653 773.492 770.298 774.95 770.298C776.428 770.298 777.673 770.657 778.686 771.377C779.709 772.087 780.429 773.058 780.845 774.289L781.073 774.289C781.556 773.077 782.37 772.111 783.516 771.391C784.671 770.662 786.039 770.298 787.621 770.298C789.628 770.298 791.267 770.932 792.536 772.201C793.805 773.47 794.439 775.321 794.439 777.755L794.439 792.4L789.283 792.4L789.283 778.55C789.283 777.196 788.923 776.207 788.203 775.582C787.484 774.947 786.603 774.63 785.561 774.63C784.321 774.63 783.35 775.018 782.649 775.795C781.958 776.562 781.612 777.561 781.612 778.792L781.612 792.4L776.57 792.4L776.57 778.337C776.57 777.211 776.229 776.311 775.547 775.639C774.875 774.966 773.994 774.63 772.905 774.63C772.166 774.63 771.494 774.819 770.888 775.198C770.282 775.568 769.799 776.093 769.439 776.775C769.079 777.447 768.899 778.233 768.899 779.133L768.899 792.4L763.757 792.4ZM799.656 792.4L799.656 770.582L804.57 770.582L804.57 774.289L804.826 774.289C805.281 773.039 806.034 772.064 807.085 771.363C808.136 770.653 809.391 770.298 810.849 770.298C812.326 770.298 813.571 770.658 814.585 771.377C815.607 772.087 816.327 773.058 816.744 774.289L816.971 774.289C817.454 773.077 818.268 772.111 819.414 771.391C820.57 770.662 821.938 770.298 823.519 770.298C825.527 770.298 827.165 770.932 828.434 772.201C829.703 773.47 830.338 775.321 830.338 777.755L830.338 792.4L825.181 792.4L825.181 778.55C825.181 777.196 824.821 776.207 824.102 775.582C823.382 774.947 822.501 774.63 821.46 774.63C820.219 774.63 819.249 775.018 818.548 775.795C817.856 776.562 817.511 777.561 817.511 778.792L817.511 792.4L812.468 792.4L812.468 778.337C812.468 777.211 812.127 776.311 811.445 775.639C810.773 774.966 809.892 774.63 808.803 774.63C808.065 774.63 807.392 774.819 806.786 775.198C806.18 775.568 805.697 776.093 805.338 776.775C804.978 777.447 804.798 778.233 804.798 779.133L804.798 792.4L799.656 792.4Z" fill="#3C3B3B"/>
<line x1="679.752" y1="583.556" x2="613.659" y2="583.556" stroke="#3C3B3B" stroke-width="0.6"/>
<line x1="581.974" y1="601.04" x2="581.974" y2="728.357" stroke="#3C3B3B" stroke-width="0.6"/>
<line x1="801.82" y1="601.04" x2="801.82" y2="728.357" stroke="#3C3B3B" stroke-width="0.6"/>
<line x1="725.099" y1="601.04" x2="725.099" y2="728.357" stroke="#3C3B3B" stroke-width="0.6"/>
<line x1="681.381" y1="275.259" x2="613.659" y2="275.259" stroke="#3C3B3B" stroke-width="0.6"/>
<line x1="77.093" y1="601.04" x2="77.093" y2="728.357" stroke="#3C3B3B" stroke-width="0.6"/>
<line x1="642.714" y1="583.256" x2="642.714" y2="537.189" stroke="#3C3B3B" stroke-width="0.6"/>
<line x1="581.674" y1="699.302" x2="435.551" y2="699.302" stroke="#3C3B3B" stroke-width="0.6"/>
<line x1="801.52" y1="699.302" x2="724.799" y2="699.302" stroke="#3C3B3B" stroke-width="0.6"/>
<line x1="642.714" y1="362.75" x2="642.714" y2="274.959" stroke="#3C3B3B" stroke-width="0.6"/>
<line x1="229.043" y1="699.302" x2="76.7935" y2="699.302" stroke="#3C3B3B" stroke-width="0.6"/>
<path d="M430.702 326.091L425.312 336.116H420.949L426.565 326.087L430.702 326.091Z" fill="#303031"/>
<path d="M423.153 326.091L417.763 336.116H413.4L419.017 326.087L423.153 326.091Z" fill="#303031"/>
<path d="M415.602 326.091L410.213 336.116H405.85L411.466 326.087L415.602 326.091Z" fill="#303031"/>
<path d="M437.262 336.126V325.94H439.218L443.569 333.129H442.532L446.81 325.94H448.752L448.781 336.126H446.562L446.547 329.331H446.956L443.54 335.049H442.474L438.985 329.331H439.481V336.126H437.262ZM449.862 336.126L454.417 325.94H456.753L461.323 336.126H458.841L455.103 327.133H456.037L452.285 336.126H449.862ZM452.139 333.943L452.767 332.154H458.023L458.665 333.943H452.139ZM467.131 336.301C466.342 336.301 465.608 336.175 464.926 335.922C464.255 335.66 463.671 335.292 463.174 334.816C462.678 334.341 462.289 333.783 462.006 333.143C461.734 332.503 461.598 331.8 461.598 331.033C461.598 330.267 461.734 329.563 462.006 328.923C462.289 328.283 462.678 327.725 463.174 327.25C463.68 326.775 464.269 326.411 464.941 326.159C465.612 325.897 466.347 325.766 467.146 325.766C468.031 325.766 468.829 325.921 469.54 326.231C470.26 326.532 470.864 326.978 471.35 327.57L469.832 328.967C469.481 328.569 469.092 328.273 468.664 328.079C468.236 327.876 467.768 327.774 467.262 327.774C466.785 327.774 466.347 327.851 465.948 328.007C465.549 328.162 465.204 328.385 464.912 328.676C464.62 328.967 464.391 329.311 464.225 329.709C464.07 330.107 463.992 330.548 463.992 331.033C463.992 331.518 464.07 331.96 464.225 332.357C464.391 332.755 464.62 333.099 464.912 333.39C465.204 333.681 465.549 333.905 465.948 334.06C466.347 334.215 466.785 334.293 467.262 334.293C467.768 334.293 468.236 334.196 468.664 334.002C469.092 333.798 469.481 333.492 469.832 333.085L471.35 334.482C470.864 335.074 470.26 335.525 469.54 335.835C468.829 336.145 468.026 336.301 467.131 336.301ZM472.949 336.126V325.94H474.905L480.935 333.274H479.986V325.94H482.322V336.126H480.38L474.336 328.792H475.285V336.126H472.949ZM483.395 336.126L487.95 325.94H490.286L494.856 336.126H492.374L488.637 327.133H489.571L485.819 336.126H483.395ZM485.673 333.943L486.301 332.154H491.557L492.199 333.943H485.673ZM495.917 336.126V325.94H497.874L502.224 333.129H501.188L505.466 325.94H507.407L507.437 336.126H505.217L505.203 329.331H505.612L502.195 335.049H501.129L497.64 329.331H498.136V336.126H495.917ZM509.863 336.126V325.94H511.819L517.849 333.274H516.9V325.94H519.236V336.126H517.294L511.25 328.792H512.199V336.126H509.863Z" fill="#303031"/>
<path d="M144.191 276.172H165.197C167.213 276.172 168.847 277.801 168.847 279.81V291.737H140.541V279.81C140.541 277.801 142.175 276.172 144.191 276.172Z" stroke="black"/>
<path d="M189.654 276.172H210.661C212.676 276.172 214.311 277.801 214.311 279.81V291.737H186.004V279.81C186.004 277.801 187.639 276.172 189.654 276.172Z" stroke="black"/>
<path d="M567.091 332.487C577.17 332.487 585.341 340.631 585.341 350.676V522.23C585.341 532.275 577.17 540.419 567.091 540.419H554.496V332.487H567.091Z" stroke="black"/>
<path d="M96.2598 332.487C86.1811 332.487 78.0098 340.631 78.0098 350.676V522.23C78.0098 532.275 86.1811 540.419 96.2598 540.419H108.854V332.487H96.2598Z" stroke="black"/>
<path d="M569.917 380.82C573.108 380.82 575.694 378.242 575.694 375.063C575.694 371.883 573.108 369.305 569.917 369.305C566.727 369.305 564.141 371.883 564.141 375.063C564.141 378.242 566.727 380.82 569.917 380.82Z" stroke="black"/>
<path d="M94.2467 380.82C91.0562 380.82 88.4699 378.242 88.4699 375.063C88.4699 371.883 91.0562 369.305 94.2467 369.305C97.4371 369.305 100.023 371.883 100.023 375.063C100.023 378.242 97.4371 380.82 94.2467 380.82Z" stroke="black"/>
<path d="M569.917 503.932C573.108 503.932 575.694 501.354 575.694 498.174C575.694 494.995 573.108 492.417 569.917 492.417C566.727 492.417 564.141 494.995 564.141 498.174C564.141 501.354 566.727 503.932 569.917 503.932Z" stroke="black"/>
<path d="M94.2467 503.932C91.0562 503.932 88.4699 501.354 88.4699 498.174C88.4699 494.995 91.0562 492.417 94.2467 492.417C97.4371 492.417 100.023 494.995 100.023 498.174C100.023 501.354 97.4371 503.932 94.2467 503.932Z" stroke="black"/>
<rect x="174.482" y="574.619" width="39.3281" height="5.99561" stroke="black"/>
<rect x="255.043" y="275.459" width="266.064" height="16.6807" stroke="black"/>
<rect x="255.043" y="574.619" width="266.064" height="16.6807" stroke="black"/>
<rect x="108.588" y="292.225" width="445.234" height="282.559" stroke="black"/>
</svg>
