<svg xmlns="http://www.w3.org/2000/svg" width="641" height="576" fill="none" xmlns:v="https://vecta.io/nano"><style><![CDATA[.B{fill:#fff}.C{fill:#575757}.D{stroke-width:.5}.E{fill:#f85550}.F{color-interpolation-filters:sRGB}]]></style><rect x=".25" y=".25" width="255.5" height="532.5" rx="9.75" stroke="url(#C)" class="B D"/><g fill-rule="evenodd"><path d="M38.001 502.23v6.949a1.18 1.18 0 0 1-1.184 1.184h-4.954c-.625 0-1.184-.504-1.184-1.091v-7.136c0-.557.533-1.09 1.091-1.09h5.141a1.11 1.11 0 0 1 .766.355c.179.213.324.453.324.829h0zm8.632 6.543v7.136c0 .558-.533 1.091-1.09 1.091h-5.141c-.563 0-1.09-.539-1.09-1.185v-6.948a1.18 1.18 0 0 1 1.184-1.184h4.955c.644 0 1.184.516 1.184 1.09h0zm-8.632 4.083v2.96a1.17 1.17 0 0 1-.093.468c-.171.379-.538.716-.997.716H31.77c-.558 0-1.091-.533-1.091-1.09v-3.148c0-.59.558-1.09 1.184-1.09h4.954a1.18 1.18 0 0 1 1.184 1.184h0zm8.632-10.72v3.148c0 .563-.538 1.09-1.184 1.09h-4.955a1.18 1.18 0 0 1-1.184-1.184v-2.96c0-.347.144-.623.306-.816a1.18 1.18 0 0 1 .785-.368h5.141c.558 0 1.09.533 1.09 1.09h0z" class="E"/><path d="M120.103 509.023c0-.315.256-.655.685-.655.824 0 .824 1.309 0 1.309-.219 0-.355-.067-.476-.178-.093-.086-.209-.312-.209-.476zm-1.994.467v4.332c0 1.643 1.539 3.178 3.178 3.178h4.331c.488 0 .96-.185 1.299-.353.286-.142.771-.477.95-.702l.351-.459c.372-.572.548-1.21.548-1.976v-3.646c0-1.146-.412-1.955-.99-2.532s-1.38-.989-2.532-.989h-3.646c-1.127 0-1.656.296-2.417.885-.533.413-1.073 1.517-1.073 2.262h.001zm7.977-7.821c0 1.072 1.063.479 2.653 1.056 2.202.798 3.757 2.747 3.956 5.111.042.505-.05 1.187.745 1.187.322 0 .623-.3.623-.623 0-1.183-.236-2.258-.685-3.147l-.301-.572c-1.106-2.034-3.677-3.635-6.025-3.635h-.343c-.322 0-.623.301-.623.623zm0 2.648c0 .391.21.659.536.71.411.065.466-.012 1.016.138.432.118.794.312 1.142.572.079.06.082.064.149.131.074.073.104.081.171.141s.062.082.126.154c.433.489.742 1.113.812 1.774.042.394-.051 1.086.753 1.086.343 0 .624-.308.624-.717 0-1.228-.474-2.234-1.223-3.077-.064-.072-.068-.101-.14-.173s-.087-.067-.155-.124c-.191-.161-.183-.188-.477-.396-.718-.509-1.688-.842-2.68-.842-.333 0-.654.286-.654.624v-.001zm79.239 4.706a7.23 7.23 0 0 1 .61-2.814c.388-.833.8-1.437 1.41-2.047l.43-.401c.857-.72 1.753-1.18 2.868-1.452.963-.235 2.124-.268 3.086-.027.923.231 1.643.511 2.412 1.044 2.809 1.946 3.827 5.663 2.291 8.733l-.324.606c-.053.088-.092.115-.119.214-.083-.023-.453-.375-.54-.457-.434-.413-1.268-.924-1.808-1.183-1.634-.785-3.524-.956-5.33-.521a7.85 7.85 0 0 0-2.121.871l-.312.186a9.59 9.59 0 0 0-1.115.879c-.087.088-.146.19-.274.225-.025-.094-.158-.277-.219-.38-.082-.139-.145-.281-.213-.418-.295-.588-.509-1.229-.622-1.904a7.49 7.49 0 0 1-.11-1.154h0zm-1.063-.332c0 1.138.054 2.01.475 3.081l.127.338c.207.508.55 1.094.86 1.534l.406.524c.683.782 1.425 1.417 2.353 1.901l.15.083c.909.455 2.165.848 3.24.848h.665c1.438 0 2.667-.505 3.734-1.085a6.02 6.02 0 0 0 .587-.377c.692-.489 1.194-1.009 1.724-1.666l.209-.291c1.275-1.729 1.742-4.298 1.205-6.433-.142-.565-.288-.942-.493-1.435-.393-.948-1.118-1.82-1.822-2.532-.101-.102-.167-.137-.266-.232-.428-.407-1.246-.883-1.776-1.15-.734-.37-2.048-.753-3.135-.753-.963 0-1.286.001-2.254.239-1.569.385-3.073 1.347-4.105 2.576l-.422.542-.38.584c-.618 1.019-1.082 2.533-1.082 3.704h0zm4.786-2.46c0 .597.044.98.299 1.496.141.287.397.679.624.905l.401.33a2.94 2.94 0 0 0 .481.283c.83.415 1.922.419 2.749.011 1.041-.513 1.828-1.542 1.828-2.759 0-.832-.207-1.59-.74-2.185-.35-.391-.56-.576-1.066-.829-.83-.415-1.922-.419-2.749-.011-.286.141-.678.398-.904.624-.065.065-.092.12-.167.199s-.114.134-.177.222c-.32.442-.579 1.101-.579 1.714h0z" fill="#545454"/></g><path d="M160.281 451.746c0-2.062-1.671-3.733-3.733-3.733s-3.733 1.671-3.733 3.733 1.671 3.733 3.733 3.733 3.733-1.671 3.733-3.733zm145.923 0v-.7H156.548v.7.7h149.656v-.7z" fill="url(#D)"/><g filter="url(#A)" class="B"><rect x="21.564" y="21" width="216" height="52" rx="10"/></g><g stroke="#5a5c66" stroke-miterlimit="22.9256" class="D"><path d="M37.074 35h10.664a.51.51 0 0 1 .51.51v21.964l-1.219 3.725c-.068.138-.215.206-.42.221l-.18.095-3.869.017-4.04-.015c-.051-.027-.042-.048-.099-.053-.341-.029-.491-.133-.537-.274l-1.32-3.755v-4.184V35.51a.51.51 0 0 1 .51-.51h0z"/><path d="M37.378 35l2.076 1.048 5.977.005L47.507 35l-1.75 1.325s-.272.261-.644.236h-5.187s-.432.079-.823-.293L37.378 35z" stroke-linejoin="round"/><path d="M38.694 37.078l7.604.002 1.763-1.963m-9.833 2.314c0-.065-1.665-1.75-1.665-1.75"/><path d="M38.721 37.104l-1.98-1.98m10.003 2.307c0-.065 1.503-1.75 1.503-1.75"/><path d="M38.226 57.474V37.513s-.082-.435.511-.435m8.003 20.396V37.513s.082-.435-.511-.435"/><path d="M36.564 53.31l1.662 4.08s.011.19.614.242 7.357 0 7.357 0 .481.005.592-.293l1.432-4.048v.152L46.83 57.38s-.041.327-.467.352-7.363.026-7.363.026-.776.076-.852-.378l-1.585-4.031m1.89 8.122l1.573-2.466c.046-.086.134-.177.208-.236.202-.16.45-.228.707-.232h2.986c.109-.008.247.011.351.037a1.18 1.18 0 0 1 .648.411l.004.005 1.594 2.475m-2.424.545h-.025m-3.218-.003h-.037"/><path d="M38.561 61.517l1.566-2.455s.207-.402.815-.41h2.991s.543-.046.905.405l1.583 2.458m-2.235.379h-.005m-3.439-.003h-.014m-2.503-4.417l-.356 3.677m.885-3.389l-.28 3.722m8.266-4.057l.332 3.639m-.767-3.332l.291 3.693m-7.902-24.349l.055 20.68m7.571-20.656l-.016 20.632"/><path d="M40.958 61.523h-.303v.208a.71.71 0 0 0 .281.368c.071.444.37.758 1.52.778 1.134.02 1.441-.31 1.517-.756.221-.156.303-.365.33-.598h-.348-2.997z"/><path d="M41.756 61.529v.799"/><use href="#M"/><use href="#M" x="0.209"/><use href="#M" x="0.418"/><use href="#M" x="0.628"/><use href="#M" x="0.837"/><use href="#M" x="1.045"/><use href="#M" x="1.254"/><path d="M44.321 61.524c-.07.479-.41.844-1.865.824s-1.793-.355-1.864-.823"/></g><path d="M161.296 48h-.88c-.052-.253-.143-.476-.274-.668a1.83 1.83 0 0 0-.468-.483 2 2 0 0 0-.608-.298 2.42 2.42 0 0 0-.696-.099c-.44 0-.839.111-1.196.334s-.638.55-.849.984-.313.965-.313 1.594.105 1.161.313 1.595.493.761.849.984.756.334 1.196.334a2.42 2.42 0 0 0 .696-.099c.223-.066.425-.164.608-.295s.34-.295.468-.486a1.85 1.85 0 0 0 .274-.668h.88a2.93 2.93 0 0 1-.362.998 2.73 2.73 0 0 1-.653.749 2.87 2.87 0 0 1-.877.465 3.27 3.27 0 0 1-1.034.16c-.62 0-1.172-.152-1.655-.455s-.862-.734-1.139-1.293-.416-1.222-.416-1.989.139-1.43.416-1.989.657-.99 1.139-1.293 1.035-.455 1.655-.455c.367 0 .712.053 1.034.16a2.83 2.83 0 0 1 .877.469 2.68 2.68 0 0 1 .653.746c.175.291.296.624.362.998zm3.526 5.114c-.493 0-.925-.117-1.296-.352a2.39 2.39 0 0 1-.867-.984c-.206-.421-.309-.914-.309-1.477s.103-1.064.309-1.488.497-.753.867-.987.803-.352 1.296-.352.923.117 1.292.352a2.35 2.35 0 0 1 .867.987c.208.424.312.92.312 1.488s-.104 1.056-.312 1.477-.495.749-.867.984-.8.352-1.292.352zm0-.753c.374 0 .682-.096.923-.288a1.69 1.69 0 0 0 .536-.756c.116-.312.174-.651.174-1.016s-.058-.704-.174-1.019-.294-.569-.536-.763-.549-.291-.923-.291-.682.097-.923.291-.421.449-.537.763-.174.655-.174 1.019.058.703.174 1.016.295.565.537.756.549.288.923.288zm4.589-2.642V53h-.838v-5.455h.809v.852h.071c.128-.277.322-.499.583-.668s.596-.256 1.008-.256c.37 0 .693.076.97.227a1.53 1.53 0 0 1 .646.682c.154.303.231.687.231 1.151V53h-.838v-3.409c0-.428-.111-.762-.334-1.001s-.528-.362-.916-.362c-.268 0-.507.058-.718.174s-.372.285-.493.508-.181.492-.181.81zm5.849 0V53h-.838v-5.455h.81v.852h.071a1.56 1.56 0 0 1 .582-.668c.261-.17.597-.256 1.009-.256.369 0 .692.076.969.227s.493.376.647.682.231.687.231 1.151V53h-.839v-3.409c0-.428-.111-.762-.333-1.001s-.528-.362-.917-.362c-.267 0-.506.058-.717.174a1.25 1.25 0 0 0-.494.508c-.12.222-.181.492-.181.81zm7.299 3.395c-.526 0-.979-.116-1.36-.348s-.671-.561-.877-.98-.306-.911-.306-1.47.102-1.051.306-1.477.492-.762.859-1.001.8-.362 1.293-.362c.284 0 .564.047.841.142s.529.249.757.462.408.49.543.838.202.776.202 1.285v.355h-4.204v-.724h3.352c0-.308-.061-.582-.185-.824s-.293-.432-.518-.572-.485-.209-.788-.209c-.334 0-.623.083-.867.249s-.427.376-.557.639-.196.544-.196.845v.483c0 .412.071.761.213 1.048a1.54 1.54 0 0 0 .601.65c.255.147.552.22.891.22a1.81 1.81 0 0 0 .596-.092 1.29 1.29 0 0 0 .466-.284c.13-.128.23-.287.301-.476l.81.227c-.085.275-.228.516-.43.724s-.449.367-.745.483-.629.17-.998.17zm5.749 0c-.511 0-.952-.121-1.321-.362s-.653-.574-.852-.998-.298-.908-.298-1.453c0-.554.101-1.043.305-1.467s.492-.759.859-.998.801-.362 1.293-.362a2.45 2.45 0 0 1 1.037.213c.308.142.56.341.756.597s.319.554.366.895h-.838a1.3 1.3 0 0 0-.426-.66c-.218-.194-.512-.291-.881-.291a1.47 1.47 0 0 0-.859.256c-.244.168-.435.406-.572.714s-.202.664-.202 1.076c0 .421.066.788.198 1.101s.325.555.569.728.535.259.866.259c.218 0 .416-.038.593-.114a1.22 1.22 0 0 0 .451-.327c.123-.142.211-.312.263-.511h.838c-.047.322-.164.612-.352.87s-.429.459-.735.611-.655.224-1.058.224zm5.742-5.568v.71h-2.826v-.71h2.826zm-2.003-1.307h.839v5.199c0 .237.034.414.103.533s.161.194.269.234a1.09 1.09 0 0 0 .352.057 1.49 1.49 0 0 0 .227-.014l.142-.028.171.753c-.057.021-.136.043-.238.064s-.231.035-.387.035c-.237 0-.469-.051-.696-.153a1.38 1.38 0 0 1-.561-.465c-.147-.208-.221-.471-.221-.788v-5.426zm5.492 6.875c-.525 0-.979-.116-1.36-.348s-.671-.561-.877-.98-.305-.911-.305-1.47.102-1.051.305-1.477.493-.762.859-1.001.801-.362 1.293-.362a2.59 2.59 0 0 1 .842.142c.277.095.529.249.756.462s.408.49.543.838.203.776.203 1.285v.355h-4.205v-.724h3.353a1.79 1.79 0 0 0-.185-.824c-.121-.241-.294-.432-.519-.572s-.485-.209-.788-.209a1.5 1.5 0 0 0-.866.249 1.63 1.63 0 0 0-.558.639 1.88 1.88 0 0 0-.195.845v.483c0 .412.071.761.213 1.048a1.53 1.53 0 0 0 .6.65 1.76 1.76 0 0 0 .891.22 1.82 1.82 0 0 0 .597-.092c.18-.064.335-.159.465-.284s.231-.287.302-.476l.81.227c-.086.275-.229.516-.43.724s-.45.367-.746.483-.628.17-.998.17zm5.593 0c-.454 0-.855-.115-1.203-.344s-.621-.559-.817-.98-.295-.924-.295-1.502.098-1.07.295-1.491a2.29 2.29 0 0 1 .82-.977c.35-.23.755-.344 1.215-.344.355 0 .635.059.841.178s.367.249.476.398l.259.362h.071v-2.685h.838V53h-.809v-.838h-.1c-.061.099-.149.225-.263.377s-.275.283-.486.401-.491.174-.842.174zm.114-.753c.336 0 .62-.088.852-.263a1.64 1.64 0 0 0 .529-.735c.121-.315.182-.678.182-1.09s-.06-.764-.178-1.069-.294-.547-.526-.717-.518-.259-.859-.259c-.355 0-.651.091-.888.273s-.411.425-.529.735-.174.653-.174 1.037.059.741.178 1.058.298.566.532.753.531.277.881.277z" fill="#b8b8b8"/><path d="M62.363 44.727h1.332l2.315 5.653h.085l2.315-5.653h1.332V52h-1.044v-5.263h-.067l-2.145 5.252h-.867l-2.145-5.256h-.067V52h-1.044v-7.273zm9.738 0l1.74 2.844h.057l1.74-2.844h1.271l-2.266 3.636L76.923 52h-1.278l-1.747-2.805h-.057L72.094 52h-1.278l2.319-3.636-2.305-3.636h1.271zm5.644 5.852v-.888l3.143-4.965h.7v1.307h-.444l-2.248 3.558v.057h4.307v.93h-5.458zM81.193 52v-1.69l.007-.405v-5.178h1.04V52h-1.048zm5.779.099c-.488 0-.923-.084-1.307-.252s-.683-.401-.905-.7-.339-.649-.355-1.044h1.115a.96.96 0 0 0 .217.561c.133.156.305.277.518.362s.45.128.71.128a1.83 1.83 0 0 0 .76-.149c.222-.099.397-.238.522-.415a1.06 1.06 0 0 0 .188-.621c0-.244-.063-.458-.188-.643s-.304-.334-.543-.44-.523-.16-.859-.16h-.614v-.895h.614c.27 0 .507-.049.71-.146s.367-.232.483-.405.174-.38.174-.614c0-.225-.051-.42-.153-.586s-.242-.3-.426-.394-.398-.142-.646-.142a1.68 1.68 0 0 0-.664.131c-.204.085-.369.208-.497.369a.95.95 0 0 0-.206.572h-1.062c.012-.393.128-.739.348-1.037a2.25 2.25 0 0 1 .881-.7c.365-.168.769-.252 1.215-.252.466 0 .869.091 1.207.273a1.99 1.99 0 0 1 .788.721 1.81 1.81 0 0 1 .277.987c.002.407-.111.753-.341 1.037s-.53.475-.909.572v.057c.483.073.857.265 1.122.575s.4.695.398 1.154c.002.4-.109.759-.334 1.076s-.527.567-.913.749-.827.27-1.325.27zm3.761-1.52v-.888l3.143-4.965h.7v1.307h-.444l-2.248 3.558v.057h4.308v.93h-5.458zM94.182 52v-1.69l.007-.405v-5.178h1.04V52h-1.047zm5.779.099c-.488 0-.923-.084-1.307-.252s-.683-.401-.906-.7-.339-.649-.355-1.044h1.115a.96.96 0 0 0 .217.561c.133.156.305.277.519.362s.45.128.71.128a1.83 1.83 0 0 0 .76-.149 1.25 1.25 0 0 0 .522-.415c.125-.18.188-.387.188-.621a1.12 1.12 0 0 0-.188-.643c-.123-.187-.304-.334-.543-.44s-.524-.16-.86-.16h-.614v-.895h.614a1.63 1.63 0 0 0 .71-.146c.206-.097.367-.232.483-.405s.174-.38.174-.614c0-.225-.051-.42-.152-.586s-.242-.3-.426-.394-.398-.142-.647-.142a1.68 1.68 0 0 0-.664.131c-.204.085-.369.208-.497.369a.95.95 0 0 0-.206.572h-1.062c.012-.393.128-.739.348-1.037a2.25 2.25 0 0 1 .881-.7c.365-.168.769-.252 1.215-.252.467 0 .869.091 1.208.273s.604.42.788.721.28.63.277.987c.003.407-.111.753-.341 1.037a1.65 1.65 0 0 1-.909.572v.057c.483.073.857.265 1.122.575s.4.695.398 1.154c.002.4-.109.759-.334 1.076s-.527.567-.912.749-.828.27-1.325.27z" class="E"/><circle cx="219.063" cy="49.5" r="1.5" fill="#72cf70"/><path d="M221.563 49.5a2.5 2.5 0 1 1-5 0 2.5 2.5 0 1 1 5 0z" fill="#53ee50" fill-opacity=".35"/><g fill="#b8b8b8"><path d="M24.765 121l-1.989-7.273h.895l1.52 5.924h.071l1.548-5.924h.994l1.548 5.924h.071l1.52-5.924h.895L29.85 121h-.909l-1.605-5.795h-.057L25.674 121h-.909zm8.057 0v-5.455h.838V121h-.838zm.426-6.364a.59.59 0 0 1-.422-.167c-.116-.111-.174-.245-.174-.401s.058-.29.174-.401a.59.59 0 0 1 .422-.167c.163 0 .303.056.419.167a.53.53 0 0 1 .177.401.53.53 0 0 1-.177.401.58.58 0 0 1-.419.167zM35.309 121v-7.273h4.361v.782h-3.48v2.457h3.153v.781H36.19V121h-.881zm5.756 0v-5.455h.838V121h-.838zm.426-6.364c-.163 0-.304-.055-.423-.167s-.174-.245-.174-.401.058-.29.174-.401.259-.167.423-.167.303.056.419.167a.53.53 0 0 1 .178.401.53.53 0 0 1-.178.401.58.58 0 0 1-.419.167zm8.85.909c-.043-.359-.215-.639-.519-.838s-.675-.298-1.115-.298a2.12 2.12 0 0 0-.845.156 1.36 1.36 0 0 0-.561.43c-.133.182-.199.389-.199.621a.88.88 0 0 0 .139.501c.093.139.215.252.362.345s.301.164.462.223l.444.139.739.199c.189.049.4.118.632.206a3 3 0 0 1 .671.358 1.83 1.83 0 0 1 .533.576c.14.234.21.522.21.863 0 .393-.103.748-.309 1.065s-.502.569-.895.756-.865.281-1.424.281c-.521 0-.972-.084-1.353-.252a2.16 2.16 0 0 1-.895-.703c-.215-.301-.337-.65-.366-1.048h.909c.024.275.116.502.277.682a1.51 1.51 0 0 0 .618.398 2.51 2.51 0 0 0 .81.127c.336 0 .638-.054.906-.163s.479-.265.636-.462a1.09 1.09 0 0 0 .234-.696c0-.241-.068-.438-.202-.589a1.47 1.47 0 0 0-.533-.369 5.55 5.55 0 0 0-.714-.249l-.895-.256c-.568-.163-1.018-.396-1.349-.699s-.497-.7-.497-1.19c0-.407.11-.762.33-1.065s.521-.542.895-.71.797-.256 1.261-.256.886.084 1.25.252.653.393.867.682a1.7 1.7 0 0 1 .341.983h-.852zm4.573 5.569c-.525 0-.979-.116-1.36-.348a2.34 2.34 0 0 1-.877-.98c-.204-.422-.305-.912-.305-1.471s.102-1.051.305-1.477a2.41 2.41 0 0 1 .859-1.001c.369-.242.8-.363 1.293-.363.284 0 .565.048.842.142a2.09 2.09 0 0 1 .756.462 2.21 2.21 0 0 1 .543.838c.135.348.203.777.203 1.286v.355h-4.205v-.725h3.352c0-.307-.062-.582-.185-.823a1.41 1.41 0 0 0-.518-.572 1.45 1.45 0 0 0-.788-.21c-.334 0-.623.083-.866.249a1.63 1.63 0 0 0-.558.639 1.88 1.88 0 0 0-.195.845v.483c0 .412.071.761.213 1.048a1.51 1.51 0 0 0 .6.65c.256.15.553.22.891.22a1.8 1.8 0 0 0 .597-.093c.18-.063.335-.158.465-.284s.231-.286.302-.475l.81.227c-.085.274-.228.516-.43.724s-.45.367-.746.483-.629.171-.998.171zm5.906-5.569v.711h-2.827v-.711h2.827zm-2.003-1.306h.838v5.199c0 .236.034.414.103.532a.52.52 0 0 0 .27.235c.109.041.228.056.352.056a1.42 1.42 0 0 0 .227-.014l.142-.028.17.753c-.057.021-.136.042-.238.064s-.231.035-.387.035a1.68 1.68 0 0 1-.696-.153 1.38 1.38 0 0 1-.561-.465c-.147-.208-.22-.471-.22-.788v-5.426zm5.636 1.306v.711h-2.827v-.711h2.827zm-2.003-1.306h.838v5.199c0 .236.034.414.103.532a.52.52 0 0 0 .27.235c.109.041.228.056.351.056a1.42 1.42 0 0 0 .227-.014l.142-.028.17.753c-.057.021-.136.042-.238.064s-.231.035-.387.035a1.68 1.68 0 0 1-.696-.153 1.38 1.38 0 0 1-.561-.465c-.147-.208-.22-.471-.22-.788v-5.426zM65.713 121v-5.455h.838V121h-.838zm.426-6.364c-.163 0-.304-.055-.423-.167s-.174-.245-.174-.401.058-.29.174-.401.259-.167.423-.167.303.056.419.167a.53.53 0 0 1 .178.401.53.53 0 0 1-.178.401.58.58 0 0 1-.419.167zm2.785 3.083V121h-.838v-5.455h.81v.853h.071a1.56 1.56 0 0 1 .582-.668c.26-.168.597-.256 1.009-.256.369 0 .692.076.969.228s.493.376.646.682.231.686.231 1.15V121h-.838v-3.409c0-.429-.111-.762-.334-1.002s-.528-.362-.916-.362a1.46 1.46 0 0 0-.717.174 1.24 1.24 0 0 0-.494.508c-.121.222-.181.493-.181.81zm7.213 5.44c-.405 0-.753-.052-1.044-.156a2.22 2.22 0 0 1-.728-.405 2.19 2.19 0 0 1-.458-.533l.668-.468.288.341c.116.13.275.242.476.337s.47.145.799.145c.44 0 .804-.106 1.09-.319s.43-.547.43-1.002v-1.108h-.071a4.47 4.47 0 0 1-.263.37 1.5 1.5 0 0 1-.483.387c-.208.111-.49.167-.845.167a2.27 2.27 0 0 1-1.186-.313c-.348-.208-.624-.511-.827-.909s-.302-.881-.302-1.449c0-.558.098-1.045.295-1.459a2.27 2.27 0 0 1 .82-.966c.35-.23.755-.345 1.215-.345.355 0 .637.06.845.178s.372.249.483.398l.263.362h.085v-.867h.81v5.611c0 .469-.107.85-.32 1.144a1.85 1.85 0 0 1-.852.65 3.23 3.23 0 0 1-1.186.209zm-.028-2.997c.336 0 .62-.077.852-.231s.408-.375.529-.664.181-.634.181-1.037c0-.393-.059-.74-.178-1.04s-.294-.537-.526-.707-.519-.256-.859-.256c-.355 0-.651.09-.888.27s-.411.422-.529.725a2.8 2.8 0 0 0-.174 1.008c0 .379.059.714.177 1.005a1.54 1.54 0 0 0 .533.682c.237.163.53.245.881.245zm7.784-3.395l-.753.213a1.39 1.39 0 0 0-.21-.366 1.02 1.02 0 0 0-.369-.298c-.156-.078-.356-.117-.6-.117-.334 0-.612.077-.835.231s-.33.344-.33.579c0 .208.076.372.227.493s.388.221.71.302l.81.199c.488.118.851.299 1.09.543s.359.553.359.934c0 .313-.09.592-.27.838s-.426.441-.746.583-.691.213-1.115.213c-.556 0-1.017-.121-1.381-.363s-.595-.594-.692-1.058l.795-.199c.076.294.219.514.43.661s.491.22.834.22c.391 0 .701-.083.93-.249s.348-.369.348-.603a.63.63 0 0 0-.199-.476c-.133-.128-.336-.227-.611-.291l-.909-.213c-.499-.119-.867-.302-1.101-.551s-.348-.564-.348-.941a1.35 1.35 0 0 1 .259-.817 1.77 1.77 0 0 1 .714-.557c.303-.135.646-.203 1.03-.203.54 0 .963.119 1.271.356a1.91 1.91 0 0 1 .66.937zM23.743 228h-.923l2.67-7.273h.909l2.67 7.273h-.923l-2.173-6.122h-.057L23.743 228zm.341-2.841h3.722v.781h-3.722v-.781zm9.782-2.614L31.848 228h-.852l-2.017-5.455h.909l1.506 4.347h.057l1.506-4.347h.909zm2.545 5.583a2.22 2.22 0 0 1-.941-.195c-.282-.133-.505-.324-.671-.572s-.249-.554-.249-.909c0-.313.062-.566.185-.76a1.3 1.3 0 0 1 .494-.462 2.59 2.59 0 0 1 .682-.248l.756-.135.806-.096c.208-.024.36-.063.455-.117s.146-.15.146-.285v-.028c0-.35-.096-.623-.288-.817s-.477-.291-.863-.291c-.4 0-.714.088-.941.263a1.55 1.55 0 0 0-.479.561l-.795-.284a1.9 1.9 0 0 1 .568-.774 2.13 2.13 0 0 1 .781-.391c.281-.073.563-.114.838-.114a3.39 3.39 0 0 1 .604.064 2 2 0 0 1 .664.252c.213.127.394.321.536.579s.213.604.213 1.037V228h-.838v-.739h-.043a1.47 1.47 0 0 1-.284.38 1.65 1.65 0 0 1-.529.345c-.22.095-.489.142-.806.142zm.128-.753c.331 0 .611-.065.838-.195s.402-.299.518-.505.178-.422.178-.649v-.767c-.035.042-.114.081-.234.117a4 4 0 0 1-.412.088l-.451.064-.352.043c-.218.028-.421.075-.611.139a1.05 1.05 0 0 0-.455.28c-.114.123-.17.291-.17.504a.75.75 0 0 0 .323.661c.218.147.494.22.827.22zm3.902.625v-5.455h.838V228h-.838zm.426-6.364c-.163 0-.304-.055-.423-.167s-.174-.245-.174-.401.058-.29.174-.401.259-.167.423-.167.303.056.419.167a.53.53 0 0 1 .178.401.53.53 0 0 1-.178.401.58.58 0 0 1-.419.167zm2.785-.909V228h-.838v-7.273h.838zm3.14 7.401a2.22 2.22 0 0 1-.941-.195c-.282-.133-.505-.324-.671-.572s-.249-.554-.249-.909c0-.313.062-.566.185-.76a1.3 1.3 0 0 1 .494-.462c.206-.111.433-.194.682-.248l.756-.135.806-.096c.208-.024.36-.063.455-.117s.146-.15.146-.285v-.028c0-.35-.096-.623-.288-.817s-.477-.291-.863-.291c-.4 0-.714.088-.941.263a1.55 1.55 0 0 0-.479.561l-.795-.284c.142-.332.331-.59.568-.774a2.16 2.16 0 0 1 .781-.391c.281-.073.563-.114.838-.114a3.39 3.39 0 0 1 .604.064 2 2 0 0 1 .664.252c.213.127.394.321.536.579s.213.604.213 1.037V228h-.838v-.739h-.043c-.057.119-.152.245-.284.38a1.64 1.64 0 0 1-.529.345c-.22.095-.489.142-.806.142zm.128-.753c.331 0 .611-.065.838-.195a1.35 1.35 0 0 0 .519-.505c.116-.206.178-.422.178-.649v-.767c-.036.042-.114.081-.234.117a3.41 3.41 0 0 1-.412.088l-.451.064-.352.043c-.218.028-.421.075-.611.139a1.05 1.05 0 0 0-.455.28c-.114.123-.17.291-.17.504a.75.75 0 0 0 .323.661c.218.147.494.22.827.22zm4.015.625v-7.273h.838v2.685h.071l.256-.362a1.5 1.5 0 0 1 .476-.398c.208-.118.49-.178.845-.178.459 0 .864.115 1.215.345s.624.555.82.976.295.919.295 1.492-.098 1.078-.295 1.502-.469.748-.817.98-.749.345-1.204.345c-.35 0-.631-.058-.842-.174a1.52 1.52 0 0 1-.486-.402l-.263-.376h-.099V228h-.81zm.824-2.727a3.03 3.03 0 0 0 .181 1.09 1.65 1.65 0 0 0 .529.735c.232.175.516.263.852.263.35 0 .643-.093.877-.277s.414-.438.533-.753.181-.67.181-1.058a2.84 2.84 0 0 0-.178-1.037c-.119-.308-.292-.555-.529-.735s-.529-.274-.884-.274c-.341 0-.627.087-.859.26s-.407.409-.526.717-.178.662-.178 1.069zm6.111-4.546V228h-.838v-7.273h.838zm3.822 7.387c-.526 0-.979-.116-1.36-.348a2.34 2.34 0 0 1-.877-.98c-.204-.422-.305-.912-.305-1.471s.102-1.051.305-1.477a2.41 2.41 0 0 1 .859-1.001c.369-.242.8-.363 1.293-.363.284 0 .565.048.842.142a2.09 2.09 0 0 1 .756.462c.227.211.408.49.543.838s.202.777.202 1.286v.355h-4.205v-.725h3.352c0-.307-.062-.582-.185-.823s-.294-.433-.519-.572-.485-.21-.788-.21c-.334 0-.623.083-.866.249a1.63 1.63 0 0 0-.558.639 1.88 1.88 0 0 0-.195.845v.483c0 .412.071.761.213 1.048a1.51 1.51 0 0 0 .6.65c.256.15.553.22.891.22.22 0 .419-.031.597-.093s.335-.158.465-.284.231-.286.302-.475l.81.227c-.085.274-.229.516-.43.724s-.45.367-.746.483-.629.171-.998.171zm12.227-7.387V228h-.852l-3.963-5.71h-.071V228h-.881v-7.273h.852l3.977 5.725h.071v-5.725h.866zm3.936 7.387c-.526 0-.979-.116-1.36-.348a2.34 2.34 0 0 1-.877-.98c-.204-.422-.305-.912-.305-1.471s.102-1.051.305-1.477a2.41 2.41 0 0 1 .859-1.001c.369-.242.8-.363 1.293-.363.284 0 .565.048.842.142a2.09 2.09 0 0 1 .756.462c.227.211.408.49.543.838s.202.777.202 1.286v.355h-4.205v-.725h3.352c0-.307-.062-.582-.185-.823s-.294-.433-.519-.572-.485-.21-.788-.21c-.334 0-.623.083-.867.249a1.63 1.63 0 0 0-.558.639 1.88 1.88 0 0 0-.195.845v.483c0 .412.071.761.213 1.048a1.51 1.51 0 0 0 .6.65c.256.15.553.22.891.22a1.8 1.8 0 0 0 .597-.093c.18-.063.335-.158.465-.284s.231-.286.302-.475l.81.227c-.085.274-.229.516-.43.724s-.45.367-.746.483-.629.171-.998.171zm5.905-5.569v.711h-2.827v-.711h2.827zm-2.003-1.306h.838v5.199c0 .236.034.414.103.532a.54.54 0 0 0 .27.235c.111.037.228.056.352.056a1.42 1.42 0 0 0 .227-.014l.142-.028.171.753a1.86 1.86 0 0 1-.238.064 1.8 1.8 0 0 1-.387.035 1.68 1.68 0 0 1-.696-.153 1.37 1.37 0 0 1-.561-.465c-.149-.208-.22-.471-.22-.788v-5.426zM86.256 228l-1.662-5.455h.881l1.179 4.177h.057l1.165-4.177h.895l1.151 4.162h.057l1.179-4.162h.881L90.375 228h-.824l-1.193-4.19h-.085L87.08 228h-.824zm8.92.114c-.492 0-.924-.118-1.296-.352a2.37 2.37 0 0 1-.867-.984c-.209-.422-.309-.913-.309-1.477s.103-1.064.309-1.488a2.38 2.38 0 0 1 .867-.987c.372-.234.804-.352 1.296-.352s.923.118 1.293.352.66.563.866.987.313.92.313 1.488-.104 1.056-.312 1.477a2.35 2.35 0 0 1-.866.984c-.369.234-.8.352-1.293.352zm0-.753c.374 0 .682-.096.923-.288s.42-.444.536-.756a2.9 2.9 0 0 0 .174-1.016c0-.364-.058-.704-.174-1.019s-.295-.569-.536-.764-.549-.291-.923-.291-.682.097-.923.291a1.72 1.72 0 0 0-.536.764c-.116.315-.174.655-.174 1.019a2.9 2.9 0 0 0 .174 1.016 1.7 1.7 0 0 0 .536.756c.242.192.549.288.923.288zm3.751.639v-5.455h.81v.824h.057a1.31 1.31 0 0 1 .539-.657 1.59 1.59 0 0 1 .881-.252l.231.004.209.01v.853c-.028-.007-.093-.018-.195-.032s-.205-.025-.316-.025c-.265 0-.502.056-.71.167a1.26 1.26 0 0 0-.49.454 1.23 1.23 0 0 0-.178.657V228h-.838zm4.502-1.989l-.014-1.037h.17l2.387-2.429h1.037l-2.543 2.571h-.071l-.966.895zm-.781 1.989v-7.273h.838V228h-.838zm3.466 0l-2.131-2.699.597-.582 2.599 3.281h-1.065zm5.837-4.233l-.753.213c-.047-.125-.117-.247-.209-.366a1.02 1.02 0 0 0-.37-.298c-.156-.078-.356-.117-.6-.117-.334 0-.612.077-.834.231s-.331.344-.331.579c0 .208.076.372.228.493s.388.221.71.302l.81.199c.487.118.851.299 1.09.543s.358.553.358.934c0 .313-.09.592-.269.838a1.8 1.8 0 0 1-.746.583c-.32.142-.691.213-1.115.213-.557 0-1.017-.121-1.382-.363s-.595-.594-.692-1.058l.795-.199c.076.294.219.514.43.661s.491.22.835.22c.39 0 .7-.083.93-.249s.348-.369.348-.603a.63.63 0 0 0-.199-.476c-.132-.13-.336-.227-.611-.291l-.909-.213c-.499-.119-.866-.302-1.101-.551s-.348-.564-.348-.941a1.35 1.35 0 0 1 .26-.817 1.77 1.77 0 0 1 .713-.557c.303-.135.647-.203 1.03-.203.54 0 .964.119 1.272.356a1.91 1.91 0 0 1 .66.937z"/><path d="M23.743 420h-.923l2.67-7.273h.909l2.67 7.273h-.923l-2.173-6.122h-.057L23.743 420zm.341-2.841h3.722v.781h-3.722v-.781zm8.065 2.955c-.455 0-.856-.115-1.204-.345s-.62-.559-.817-.98-.295-.924-.295-1.502c0-.573.098-1.07.295-1.492s.47-.746.82-.976.755-.345 1.214-.345c.355 0 .636.06.842.178a1.45 1.45 0 0 1 .476.398l.259.362h.071v-2.685h.838V420h-.81v-.838h-.099a5.36 5.36 0 0 1-.263.376c-.114.149-.276.283-.486.402s-.491.174-.842.174zm.114-.753c.336 0 .62-.088.852-.263a1.65 1.65 0 0 0 .529-.735 3.03 3.03 0 0 0 .181-1.09 2.95 2.95 0 0 0-.178-1.069c-.118-.308-.294-.547-.526-.717s-.519-.26-.859-.26c-.355 0-.651.091-.888.274s-.411.425-.529.735-.174.653-.174 1.037.059.741.178 1.058a1.73 1.73 0 0 0 .533.753c.237.184.53.277.881.277zm8.498-4.816L38.743 420h-.852l-2.017-5.455h.909l1.506 4.347h.057l1.506-4.347h.909zm2.545 5.583a2.22 2.22 0 0 1-.941-.195c-.282-.133-.505-.324-.671-.572s-.249-.554-.249-.909c0-.313.061-.566.185-.76a1.3 1.3 0 0 1 .494-.462c.206-.111.433-.194.682-.248l.756-.135.806-.096c.208-.024.36-.063.455-.117s.146-.15.146-.285v-.028c0-.35-.096-.623-.288-.817s-.477-.291-.863-.291c-.4 0-.714.088-.941.263a1.55 1.55 0 0 0-.479.561l-.795-.284c.142-.332.331-.59.568-.774s.5-.318.781-.391.563-.114.838-.114c.175 0 .377.022.604.064s.451.125.664.252.394.321.536.579.213.604.213 1.037V420h-.838v-.739h-.043c-.057.119-.152.245-.284.38s-.309.25-.529.345-.489.142-.806.142zm.128-.753c.331 0 .611-.065.838-.195s.402-.299.519-.505.178-.422.178-.649v-.767c-.036.042-.114.081-.234.117s-.256.062-.412.088l-.451.064-.352.043c-.218.028-.421.075-.611.139a1.05 1.05 0 0 0-.454.28c-.114.123-.171.291-.171.504a.75.75 0 0 0 .323.661c.218.147.494.22.827.22zm4.74-2.656V420h-.838v-5.455h.81v.853h.071a1.56 1.56 0 0 1 .582-.668c.26-.17.597-.256 1.008-.256.369 0 .693.076.97.228s.492.376.646.682.231.686.231 1.15V420h-.838v-3.409c0-.429-.111-.762-.334-1.002s-.528-.362-.916-.362c-.268 0-.507.058-.717.174a1.25 1.25 0 0 0-.494.508c-.121.223-.181.493-.181.81zm7.227 3.395c-.511 0-.952-.121-1.321-.363a2.36 2.36 0 0 1-.852-.997c-.199-.424-.298-.908-.298-1.453 0-.554.102-1.043.305-1.466s.492-.759.859-.998.8-.363 1.293-.363c.384 0 .729.071 1.037.214a1.98 1.98 0 0 1 .756.596 1.86 1.86 0 0 1 .366.895h-.838a1.3 1.3 0 0 0-.426-.661c-.218-.194-.511-.291-.881-.291-.327 0-.613.085-.859.256s-.434.406-.572.714-.202.664-.202 1.076c0 .421.066.788.199 1.101s.324.555.568.728.535.259.866.259c.218 0 .415-.038.593-.114s.328-.185.451-.327a1.25 1.25 0 0 0 .263-.511h.838a1.94 1.94 0 0 1-.352.87c-.185.256-.43.459-.735.611s-.656.224-1.058.224zm5.657 0c-.526 0-.979-.116-1.36-.348a2.34 2.34 0 0 1-.877-.98c-.204-.422-.305-.912-.305-1.471s.102-1.051.305-1.477a2.41 2.41 0 0 1 .859-1.001c.369-.242.8-.363 1.293-.363.284 0 .565.048.842.142a2.09 2.09 0 0 1 .756.462 2.21 2.21 0 0 1 .543.838c.135.348.202.777.202 1.286v.355h-4.204v-.725h3.352c0-.307-.062-.582-.185-.823s-.294-.433-.519-.572-.485-.21-.788-.21c-.334 0-.623.083-.866.249a1.63 1.63 0 0 0-.558.639 1.88 1.88 0 0 0-.195.845v.483c0 .412.071.761.213 1.048s.345.5.6.65.553.22.891.22a1.8 1.8 0 0 0 .597-.093c.18-.063.335-.158.465-.284s.231-.286.302-.475l.81.227c-.085.274-.229.516-.43.724s-.45.367-.746.483-.629.171-.998.171zm5.593 0c-.454 0-.856-.115-1.204-.345s-.62-.559-.817-.98-.295-.924-.295-1.502c0-.573.098-1.07.295-1.492s.47-.746.82-.976.755-.345 1.214-.345c.355 0 .636.06.842.178a1.45 1.45 0 0 1 .476.398l.259.362h.071v-2.685h.838V420h-.81v-.838h-.099c-.062.099-.149.225-.263.376s-.276.283-.486.402-.491.174-.842.174zm.114-.753c.336 0 .62-.088.852-.263s.408-.423.529-.735.181-.678.181-1.09-.059-.764-.178-1.069a1.55 1.55 0 0 0-.525-.717c-.232-.173-.519-.26-.859-.26-.355 0-.651.091-.888.274s-.411.425-.529.735-.174.653-.174 1.037.059.741.177 1.058a1.73 1.73 0 0 0 .533.753c.237.184.53.277.881.277zm13.1-2.997c0 .767-.138 1.43-.415 1.988s-.657.99-1.14 1.293-1.035.454-1.655.454-1.172-.151-1.655-.454-.863-.734-1.14-1.293-.416-1.221-.416-1.988.139-1.43.416-1.989.657-.99 1.14-1.293 1.034-.454 1.655-.454 1.172.151 1.655.454.863.734 1.14 1.293.415 1.222.415 1.989zm-.852 0c0-.63-.105-1.162-.316-1.595s-.491-.761-.849-.983-.753-.334-1.193-.334-.839.111-1.197.334-.638.55-.849.983-.312.965-.312 1.595.104 1.161.313 1.594.494.761.849.984.756.334 1.197.334.838-.112 1.193-.334.64-.551.849-.984.316-.965.316-1.594zm2.219 5.681v-7.5h.81v.867h.099l.256-.362c.111-.149.27-.282.476-.398s.49-.178.845-.178c.459 0 .864.115 1.215.345s.624.555.82.976.295.919.295 1.492c0 .578-.098 1.078-.295 1.502s-.469.748-.817.98-.749.345-1.204.345c-.35 0-.631-.058-.842-.174s-.373-.253-.487-.402l-.263-.376h-.071v2.883h-.838zm.824-4.772a3.03 3.03 0 0 0 .181 1.09 1.65 1.65 0 0 0 .529.735c.232.175.516.263.852.263.35 0 .643-.093.877-.277s.414-.438.533-.753.181-.67.181-1.058-.059-.729-.178-1.037-.292-.555-.529-.735-.529-.274-.884-.274c-.341 0-.627.087-.859.26s-.407.409-.526.717a2.95 2.95 0 0 0-.177 1.069zm7.642-2.728v.711H86.87v-.711h2.827zm-2.003-1.306h.838v5.199c0 .236.034.414.103.532a.54.54 0 0 0 .27.235c.111.037.228.056.352.056.092 0 .168-.004.227-.014l.142-.028.171.753a1.86 1.86 0 0 1-.238.064c-.102.023-.231.035-.387.035-.237 0-.469-.051-.696-.153s-.412-.257-.561-.465-.22-.471-.22-.788v-5.426zM90.958 420v-5.455h.838V420h-.838zm.426-6.364c-.163 0-.304-.055-.423-.167s-.174-.245-.174-.401.058-.29.174-.401.259-.167.423-.167.303.056.419.167a.53.53 0 0 1 .178.401.53.53 0 0 1-.178.401.58.58 0 0 1-.419.167zm4.163 6.478c-.492 0-.924-.118-1.296-.352s-.658-.562-.867-.984-.309-.913-.309-1.477.103-1.064.309-1.488.497-.753.867-.987.804-.352 1.296-.352.923.118 1.293.352.661.563.867.987.313.92.313 1.488-.104 1.056-.312 1.477a2.35 2.35 0 0 1-.867.984c-.369.234-.8.352-1.293.352zm0-.753c.374 0 .682-.096.923-.288s.42-.444.536-.756.174-.651.174-1.016-.058-.704-.174-1.019-.295-.569-.536-.764-.549-.291-.923-.291-.682.097-.923.291-.42.449-.536.764-.174.655-.174 1.019a2.9 2.9 0 0 0 .174 1.016 1.7 1.7 0 0 0 .536.756c.242.192.549.288.923.288zm4.589-2.642V420h-.838v-5.455h.81v.853h.071a1.56 1.56 0 0 1 .582-.668c.261-.17.597-.256 1.009-.256.369 0 .692.076.969.228a1.53 1.53 0 0 1 .647.682c.154.303.231.686.231 1.15V420h-.839v-3.409c0-.429-.111-.762-.333-1.002s-.528-.362-.917-.362c-.267 0-.506.058-.717.174s-.373.286-.494.508-.181.493-.181.81zm8.876-.952l-.753.213a1.42 1.42 0 0 0-.21-.366c-.09-.12-.213-.22-.369-.298s-.356-.117-.6-.117c-.334 0-.612.077-.835.231s-.33.344-.33.579c0 .208.076.372.227.493s.389.221.71.302l.81.199c.488.118.851.299 1.09.543s.359.553.359.934c0 .313-.09.592-.27.838s-.426.441-.746.583-.691.213-1.115.213c-.556 0-1.016-.121-1.381-.363s-.595-.594-.693-1.058l.796-.199c.076.294.219.514.43.661s.491.22.834.22c.391 0 .701-.083.931-.249s.348-.369.348-.603c0-.19-.067-.348-.199-.476s-.337-.227-.611-.291l-.909-.213c-.5-.119-.867-.302-1.101-.551s-.348-.564-.348-.941c0-.308.086-.58.259-.817s.413-.422.714-.557.646-.203 1.03-.203c.54 0 .963.119 1.271.356s.53.549.661.937z"/></g><g fill="#0c0c0c"><path d="M58.444 250.727h1.051l2.472 6.037h.085l2.472-6.037h1.051V258h-.824v-5.526h-.071L62.407 258h-.795l-2.273-5.526h-.071V258h-.824v-7.273zm10.388 7.401a2.22 2.22 0 0 1-.941-.195c-.282-.133-.505-.324-.671-.572s-.249-.554-.249-.909c0-.313.062-.566.185-.76a1.3 1.3 0 0 1 .494-.462c.206-.111.433-.194.682-.248l.756-.135.806-.096c.208-.024.36-.063.455-.117s.146-.15.146-.285v-.028c0-.35-.096-.623-.288-.817s-.477-.291-.863-.291c-.4 0-.714.088-.941.263s-.387.362-.479.561l-.795-.284a1.9 1.9 0 0 1 .568-.774 2.12 2.12 0 0 1 .781-.391c.282-.073.563-.114.838-.114a3.39 3.39 0 0 1 .604.064 2 2 0 0 1 .664.252c.213.127.394.321.536.579s.213.604.213 1.037V258h-.838v-.739h-.043c-.057.119-.152.245-.284.38a1.64 1.64 0 0 1-.529.345c-.22.095-.489.142-.806.142zm.128-.753c.331 0 .611-.065.838-.195a1.35 1.35 0 0 0 .519-.505c.116-.206.178-.422.178-.649v-.767c-.036.042-.114.081-.234.117a3.41 3.41 0 0 1-.412.088l-.451.064-.352.043c-.218.028-.421.075-.611.139a1.07 1.07 0 0 0-.455.28c-.117.125-.17.291-.17.504a.75.75 0 0 0 .323.661c.218.147.494.22.828.22zm6.118.739c-.511 0-.952-.121-1.321-.363s-.653-.574-.852-.997-.298-.908-.298-1.453c0-.554.102-1.043.305-1.466a2.41 2.41 0 0 1 .859-.998c.367-.239.8-.363 1.293-.363.383 0 .729.071 1.037.214a1.98 1.98 0 0 1 .756.596c.196.256.318.554.366.895h-.838a1.3 1.3 0 0 0-.426-.661c-.218-.194-.511-.291-.881-.291-.327 0-.613.085-.859.256s-.434.406-.572.714-.202.664-.202 1.076c0 .421.066.788.199 1.101a1.69 1.69 0 0 0 .568.728c.246.172.535.259.866.259a1.49 1.49 0 0 0 .593-.114 1.23 1.23 0 0 0 .451-.327 1.25 1.25 0 0 0 .263-.511h.838a1.94 1.94 0 0 1-.352.87c-.185.256-.43.459-.735.611s-.656.224-1.058.224zm4.208-3.395V258h-.838v-5.455h.81v.853h.071a1.56 1.56 0 0 1 .582-.668c.26-.17.597-.256 1.009-.256.369 0 .692.076.969.228s.492.376.646.682.231.686.231 1.15V258h-.838v-3.409c0-.429-.111-.762-.334-1.002s-.528-.362-.916-.362a1.46 1.46 0 0 0-.717.174 1.25 1.25 0 0 0-.494.508c-.121.223-.181.493-.181.81zM84.297 258v-5.455h.81v.853h.071c.114-.291.297-.518.55-.679s.558-.245.913-.245.659.082.898.245.43.388.565.679h.057a1.58 1.58 0 0 1 .629-.671c.28-.165.614-.253 1.005-.253.488 0 .887.153 1.197.459s.465.775.465 1.416V258h-.838v-3.651c0-.402-.11-.69-.33-.862a1.22 1.22 0 0 0-.778-.26c-.383 0-.681.116-.891.348s-.316.521-.316.874V258h-.852v-3.736a.98.98 0 0 0-.302-.749 1.08 1.08 0 0 0-.778-.288 1.15 1.15 0 0 0-.611.174c-.187.116-.339.277-.455.483s-.17.439-.17.707V258h-.838zm10.296.128a2.22 2.22 0 0 1-.941-.195c-.282-.133-.505-.324-.671-.572s-.249-.554-.249-.909c0-.313.062-.566.185-.76a1.3 1.3 0 0 1 .494-.462c.206-.111.433-.194.682-.248l.756-.135.806-.096c.208-.024.36-.063.455-.117s.146-.15.146-.285v-.028c0-.35-.096-.623-.288-.817s-.477-.291-.863-.291c-.4 0-.714.088-.941.263s-.387.362-.479.561l-.795-.284a1.9 1.9 0 0 1 .568-.774 2.12 2.12 0 0 1 .781-.391 3.36 3.36 0 0 1 .838-.114 3.39 3.39 0 0 1 .604.064 2 2 0 0 1 .664.252c.213.127.394.321.536.579s.213.604.213 1.037V258h-.838v-.739h-.043a1.47 1.47 0 0 1-.284.38 1.65 1.65 0 0 1-.529.345c-.22.095-.489.142-.806.142zm.128-.753c.331 0 .611-.065.838-.195s.402-.299.518-.505.178-.422.178-.649v-.767c-.035.042-.114.081-.234.117a4 4 0 0 1-.412.088l-.451.064-.352.043c-.218.028-.421.075-.611.139a1.05 1.05 0 0 0-.454.28c-.114.123-.171.291-.171.504a.75.75 0 0 0 .323.661c.218.147.494.22.827.22zm4.74-2.656V258h-.838v-5.455h.81v.853h.071c.128-.277.322-.5.583-.668s.596-.256 1.008-.256c.369 0 .693.076.97.228s.492.376.646.682.231.686.231 1.15V258h-.838v-3.409c0-.429-.112-.762-.334-1.002s-.528-.362-.916-.362c-.268 0-.507.058-.718.174a1.25 1.25 0 0 0-.493.508c-.121.223-.181.493-.181.81zm7.937 3.281v-7.273h.881v3.239h3.878v-3.239h.88V258h-.88v-3.253h-3.878V258h-.881zm13.539-3.636c0 .767-.139 1.43-.416 1.988s-.656.99-1.139 1.293-1.035.454-1.655.454-1.172-.151-1.655-.454-.863-.734-1.14-1.293-.416-1.221-.416-1.988.139-1.43.416-1.989.657-.99 1.14-1.293 1.034-.454 1.655-.454 1.172.151 1.655.454.862.734 1.139 1.293.416 1.222.416 1.989zm-.852 0c0-.63-.106-1.162-.316-1.595s-.492-.761-.849-.983a2.21 2.21 0 0 0-1.193-.334c-.44 0-.84.111-1.197.334s-.638.55-.849.983-.312.965-.312 1.595.104 1.161.312 1.594.494.761.849.984a2.22 2.22 0 0 0 1.197.334c.44 0 .838-.112 1.193-.334a2.31 2.31 0 0 0 .849-.984c.209-.433.316-.965.316-1.594zM58.444 289v-7.273h2.457c.568 0 1.035.097 1.399.291a1.86 1.86 0 0 1 .81.792 2.45 2.45 0 0 1 .263 1.147c0 .429-.088.809-.263 1.14s-.444.592-.806.782-.825.28-1.389.28h-1.989v-.795h1.96c.388 0 .701-.057.938-.171a1.07 1.07 0 0 0 .518-.483c.109-.21.163-.461.163-.753s-.055-.545-.163-.763a1.11 1.11 0 0 0-.522-.504c-.239-.121-.555-.181-.948-.181h-1.548V289h-.881zm3.423-3.267l1.79 3.267h-1.023l-1.761-3.267h.994zM64.841 289v-7.273h.881v3.239H69.6v-3.239h.881V289H69.6v-3.253h-3.878V289h-.881zm7.104-1.491v-.725l3.196-5.057h.526v1.122h-.355l-2.415 3.821v.057H77.2v.782h-5.256zM75.368 289v-1.712-.337-5.224h.838V289h-.838zm3.446.057c-.175 0-.326-.063-.451-.188s-.188-.276-.188-.451.063-.326.188-.451.276-.189.451-.189.325.063.451.189a.61.61 0 0 1 .188.451.6.6 0 0 1-.089.319c-.057.097-.134.175-.231.235s-.201.085-.32.085zm2.129-.057v-.639l2.401-2.628.696-.803a2.96 2.96 0 0 0 .405-.646c.09-.204.135-.417.135-.639a1.18 1.18 0 0 0-.185-.664 1.19 1.19 0 0 0-.497-.433 1.61 1.61 0 0 0-.71-.153 1.48 1.48 0 0 0-.731.174 1.2 1.2 0 0 0-.479.479c-.111.206-.167.448-.167.725h-.838a2.11 2.11 0 0 1 .295-1.122 2.05 2.05 0 0 1 .803-.753c.341-.18.723-.27 1.147-.27s.804.09 1.133.27.587.422.774.728a1.91 1.91 0 0 1 .28 1.019 2.2 2.2 0 0 1-.146.785c-.095.253-.26.536-.497.848a15.09 15.09 0 0 1-.977 1.137l-1.633 1.747v.057h3.381V289h-4.588zm8.512.099c-.469 0-.887-.08-1.253-.241a2.15 2.15 0 0 1-.87-.671c-.213-.289-.329-.624-.348-1.005h.895c.019.234.099.437.241.607s.328.298.558.391.484.138.764.138a2 2 0 0 0 .831-.163 1.36 1.36 0 0 0 .568-.455 1.14 1.14 0 0 0 .206-.674 1.26 1.26 0 0 0-.199-.707c-.133-.203-.327-.367-.582-.483s-.568-.174-.937-.174h-.582v-.781h.582a1.73 1.73 0 0 0 .76-.157 1.22 1.22 0 0 0 .515-.44 1.18 1.18 0 0 0 .188-.668c0-.246-.055-.46-.163-.642a1.11 1.11 0 0 0-.462-.426 1.51 1.51 0 0 0-.696-.153 1.84 1.84 0 0 0-.71.138c-.22.09-.4.222-.54.395a1.03 1.03 0 0 0-.227.617h-.852a1.73 1.73 0 0 1 .344-1.001c.215-.289.497-.514.845-.675a2.73 2.73 0 0 1 1.154-.241c.45 0 .836.091 1.158.273a1.94 1.94 0 0 1 .742.714 1.87 1.87 0 0 1 .259.959 1.7 1.7 0 0 1-.323 1.047 1.64 1.64 0 0 1-.87.601v.056c.459.076.818.271 1.076.586s.387.7.387 1.162c0 .395-.108.75-.323 1.065a2.2 2.2 0 0 1-.874.739c-.369.179-.789.269-1.261.269zm5.984.015c-.454 0-.856-.115-1.204-.345a2.32 2.32 0 0 1-.817-.98c-.197-.421-.295-.924-.295-1.502 0-.573.098-1.07.295-1.492s.47-.746.82-.976.755-.345 1.215-.345c.355 0 .636.06.842.178a1.45 1.45 0 0 1 .476.398l.259.362h.071v-2.685h.838V289h-.81v-.838h-.1a5.08 5.08 0 0 1-.263.376c-.114.151-.276.283-.486.402s-.491.174-.842.174zm.114-.753c.336 0 .62-.088.852-.263a1.65 1.65 0 0 0 .529-.735 3.03 3.03 0 0 0 .181-1.09c0-.407-.059-.764-.177-1.069s-.294-.547-.526-.717-.518-.26-.859-.26c-.355 0-.651.091-.888.274s-.411.425-.529.735-.174.653-.174 1.037.059.741.178 1.058a1.73 1.73 0 0 0 .533.753c.237.184.53.277.881.277zm7.901-3.594l-.753.213c-.047-.125-.117-.247-.209-.366s-.214-.22-.37-.298-.356-.117-.6-.117c-.334 0-.612.077-.834.231s-.331.344-.331.579c0 .208.076.372.228.493s.388.221.71.302l.809.199c.488.118.852.299 1.091.543s.358.553.358.934c0 .313-.09.592-.27.838a1.79 1.79 0 0 1-.745.583c-.32.142-.692.213-1.115.213-.557 0-1.017-.121-1.382-.363s-.595-.594-.692-1.058l.795-.199c.076.294.219.514.43.661s.491.22.834.22c.391 0 .701-.083.931-.249s.348-.369.348-.603a.63.63 0 0 0-.199-.476c-.133-.13-.336-.227-.611-.291l-.909-.213c-.499-.119-.866-.302-1.101-.551s-.348-.564-.348-.941a1.35 1.35 0 0 1 .259-.817c.175-.236.413-.422.714-.557s.647-.203 1.03-.203c.54 0 .964.119 1.271.356s.531.549.661.937zM58.444 320v-7.273h.881v6.492h3.381V320h-4.261zm5.511 0v-5.455h.838V320h-.838zm.426-6.364a.59.59 0 0 1-.423-.167c-.116-.111-.174-.245-.174-.401s.058-.29.174-.401.259-.167.423-.167.303.056.419.167a.53.53 0 0 1 .177.401.53.53 0 0 1-.177.401.58.58 0 0 1-.419.167zm5.811 2.131l-.753.213a1.39 1.39 0 0 0-.21-.366 1.02 1.02 0 0 0-.369-.298c-.156-.078-.356-.117-.6-.117-.334 0-.612.077-.835.231s-.33.344-.33.579c0 .208.076.372.227.493s.388.221.71.302l.81.199c.488.118.851.299 1.09.543s.359.553.359.934c0 .313-.09.592-.27.838s-.426.441-.746.583-.691.213-1.115.213c-.556 0-1.017-.121-1.381-.363s-.595-.594-.692-1.058l.795-.199c.076.294.219.514.43.661s.491.22.835.22c.391 0 .701-.083.93-.249s.348-.369.348-.603a.63.63 0 0 0-.199-.476c-.133-.128-.336-.227-.611-.291l-.909-.213c-.499-.119-.867-.302-1.101-.551s-.348-.564-.348-.941a1.35 1.35 0 0 1 .259-.817 1.77 1.77 0 0 1 .714-.557c.303-.135.646-.203 1.03-.203.54 0 .963.119 1.271.356a1.91 1.91 0 0 1 .66.937zm3.733-1.222v.711h-2.827v-.711h2.827zm-2.003-1.306h.838v5.199c0 .236.034.414.103.532a.54.54 0 0 0 .27.235 1.11 1.11 0 0 0 .352.056 1.42 1.42 0 0 0 .227-.014l.142-.028.171.753c-.057.021-.136.042-.238.064s-.231.035-.387.035a1.68 1.68 0 0 1-.696-.153 1.37 1.37 0 0 1-.561-.465c-.149-.208-.22-.471-.22-.788v-5.426zm5.806-.512V320h-.881v-6.349h-.043l-1.776 1.179v-.895l1.818-1.208h.881zM79.82 320v-.639l2.401-2.628.696-.803a2.96 2.96 0 0 0 .405-.646c.09-.204.135-.417.135-.639a1.18 1.18 0 0 0-.185-.664 1.19 1.19 0 0 0-.497-.433 1.61 1.61 0 0 0-.71-.153 1.48 1.48 0 0 0-.731.174 1.2 1.2 0 0 0-.479.479c-.111.206-.167.448-.167.725h-.838a2.11 2.11 0 0 1 .295-1.122 2.05 2.05 0 0 1 .802-.753c.341-.18.723-.27 1.147-.27s.804.09 1.133.27.587.422.774.728a1.91 1.91 0 0 1 .281 1.019 2.2 2.2 0 0 1-.146.785c-.095.253-.261.536-.497.848a15.22 15.22 0 0 1-.977 1.137l-1.633 1.747v.057h3.381V320h-4.59z"/><path d="M58.046 344.509v-.782h5.455v.782h-2.287V351h-.881v-6.491h-2.287zm8.125 6.605c-.492 0-.924-.118-1.296-.352a2.37 2.37 0 0 1-.867-.984c-.209-.422-.309-.913-.309-1.477s.103-1.064.309-1.488a2.36 2.36 0 0 1 .867-.987c.37-.234.804-.352 1.296-.352s.923.118 1.293.352a2.36 2.36 0 0 1 .867.987c.206.424.313.92.313 1.488s-.104 1.056-.312 1.477a2.35 2.35 0 0 1-.867.984c-.369.234-.8.352-1.293.352zm0-.753c.374 0 .682-.096.923-.288s.42-.444.536-.756.174-.651.174-1.016-.058-.704-.174-1.019-.295-.569-.536-.764-.549-.291-.923-.291-.682.097-.923.291a1.72 1.72 0 0 0-.536.764c-.116.315-.174.655-.174 1.019a2.9 2.9 0 0 0 .174 1.016 1.7 1.7 0 0 0 .536.756c.242.192.549.288.923.288zm3.751.639v-5.455h.81v.824h.057a1.31 1.31 0 0 1 .54-.657 1.59 1.59 0 0 1 .881-.252l.231.004.21.01v.853a2.43 2.43 0 0 0-.195-.032c-.1-.017-.205-.025-.316-.025-.265 0-.502.056-.71.167a1.26 1.26 0 0 0-.49.454 1.23 1.23 0 0 0-.177.657V351h-.838zm3.721 0v-5.455h.81v.824h.057a1.31 1.31 0 0 1 .54-.657 1.59 1.59 0 0 1 .881-.252l.231.004.21.01v.853a2.43 2.43 0 0 0-.195-.032c-.099-.017-.205-.025-.316-.025-.265 0-.502.056-.71.167a1.26 1.26 0 0 0-.49.454 1.23 1.23 0 0 0-.178.657V351h-.838zm5.842.114c-.525 0-.979-.116-1.36-.348a2.34 2.34 0 0 1-.877-.98c-.204-.422-.305-.912-.305-1.471s.102-1.051.305-1.477a2.41 2.41 0 0 1 .859-1.001c.369-.242.8-.363 1.293-.363.284 0 .565.048.842.142a2.09 2.09 0 0 1 .756.462 2.21 2.21 0 0 1 .543.838c.135.348.203.777.203 1.286v.355h-4.205v-.725h3.352c0-.307-.062-.582-.185-.823s-.293-.433-.518-.572a1.45 1.45 0 0 0-.788-.21c-.334 0-.623.083-.867.249a1.63 1.63 0 0 0-.558.639 1.88 1.88 0 0 0-.195.845v.483c0 .412.071.761.213 1.048a1.51 1.51 0 0 0 .6.65c.256.15.553.22.891.22a1.8 1.8 0 0 0 .597-.093c.18-.063.335-.158.465-.284s.231-.286.302-.475l.81.227c-.085.274-.228.516-.43.724s-.45.367-.746.483-.629.171-.998.171zm4.371-3.395V351h-.838v-5.455h.81v.853h.071a1.56 1.56 0 0 1 .582-.668c.26-.17.597-.256 1.008-.256.369 0 .693.076.97.228s.492.376.646.682.231.686.231 1.15V351h-.838v-3.409c0-.429-.111-.762-.334-1.002s-.528-.362-.916-.362a1.46 1.46 0 0 0-.717.174 1.25 1.25 0 0 0-.494.508c-.121.223-.181.493-.181.81zm7.384-2.174v.711h-2.827v-.711h2.827zm-2.003-1.306h.838v5.199c0 .236.034.414.103.532a.52.52 0 0 0 .27.235c.109.041.228.056.352.056a1.42 1.42 0 0 0 .227-.014l.142-.028.17.753c-.057.021-.136.042-.238.064s-.231.035-.387.035a1.68 1.68 0 0 1-.696-.153 1.38 1.38 0 0 1-.561-.465c-.147-.208-.22-.471-.22-.788v-5.426zm5.806-.512V351h-.881v-6.349h-.043l-1.776 1.179v-.895l1.818-1.208h.881zM97.135 351v-.639l2.401-2.628.696-.803c.183-.229.318-.445.405-.646s.135-.417.135-.639a1.18 1.18 0 0 0-.185-.664c-.12-.187-.286-.332-.497-.433s-.447-.153-.71-.153a1.48 1.48 0 0 0-.732.174 1.2 1.2 0 0 0-.479.479c-.111.206-.167.448-.167.725h-.838a2.11 2.11 0 0 1 .295-1.122 2.05 2.05 0 0 1 .803-.753c.341-.18.723-.27 1.147-.27s.804.09 1.133.27.587.422.774.728.281.645.281 1.019a2.2 2.2 0 0 1-.146.785c-.094.253-.26.536-.497.848a15.66 15.66 0 0 1-.976 1.137l-1.633 1.747v.057h3.381V351h-4.588zm8.512.099c-.469 0-.887-.08-1.254-.241s-.654-.385-.87-.671-.329-.624-.348-1.005h.895a1.05 1.05 0 0 0 .242.607 1.4 1.4 0 0 0 .557.391c.23.092.484.138.764.138.312 0 .589-.054.831-.163s.43-.261.568-.455a1.14 1.14 0 0 0 .206-.674 1.27 1.27 0 0 0-.199-.707c-.133-.206-.327-.367-.583-.483s-.568-.174-.937-.174h-.582v-.781h.582c.289 0 .542-.052.76-.157a1.22 1.22 0 0 0 .515-.44c.125-.189.188-.412.188-.668 0-.246-.054-.46-.163-.642s-.263-.325-.462-.426-.429-.153-.696-.153c-.251 0-.488.046-.71.138s-.4.222-.54.395a1.03 1.03 0 0 0-.227.617h-.853c.015-.381.129-.715.345-1.001a2.2 2.2 0 0 1 .845-.675 2.73 2.73 0 0 1 1.154-.241c.45 0 .836.091 1.158.273a1.94 1.94 0 0 1 .742.714 1.87 1.87 0 0 1 .259.959c0 .409-.107.759-.323 1.047a1.64 1.64 0 0 1-.87.601v.056c.459.076.818.271 1.076.586s.387.7.387 1.162c0 .395-.108.75-.323 1.065s-.504.559-.874.739a2.84 2.84 0 0 1-1.26.269zm-47.203 24.628h1.051l2.472 6.037h.085l2.472-6.037h1.051V383h-.824v-5.526h-.071L62.407 383h-.795l-2.273-5.526h-.071V383h-.824v-7.273zm10.388 7.401a2.22 2.22 0 0 1-.941-.195c-.282-.133-.505-.324-.671-.572s-.249-.554-.249-.909c0-.313.062-.566.185-.76a1.3 1.3 0 0 1 .494-.462c.206-.111.433-.194.682-.248l.756-.135.806-.096c.208-.024.36-.063.455-.117s.146-.15.146-.285v-.028c0-.35-.096-.623-.288-.817s-.477-.291-.863-.291c-.4 0-.714.088-.941.263s-.387.362-.479.561l-.795-.284a1.9 1.9 0 0 1 .568-.774 2.12 2.12 0 0 1 .781-.391c.282-.073.563-.114.838-.114a3.39 3.39 0 0 1 .604.064 2 2 0 0 1 .664.252c.213.127.394.321.536.579s.213.604.213 1.037V383h-.838v-.739h-.043c-.057.119-.152.245-.284.38a1.64 1.64 0 0 1-.529.345c-.22.095-.489.142-.806.142zm.128-.753c.331 0 .611-.065.838-.195a1.35 1.35 0 0 0 .519-.505c.116-.206.178-.422.178-.649v-.767c-.036.042-.114.081-.234.117a3.41 3.41 0 0 1-.412.088l-.451.064-.352.043c-.218.028-.421.075-.611.139a1.07 1.07 0 0 0-.455.28c-.117.125-.17.291-.17.504a.75.75 0 0 0 .323.661c.218.147.494.22.828.22zm6.118.739c-.511 0-.952-.121-1.321-.363s-.653-.574-.852-.997-.298-.908-.298-1.453c0-.554.102-1.043.305-1.466a2.41 2.41 0 0 1 .859-.998c.367-.239.8-.363 1.293-.363.383 0 .729.071 1.037.214a1.98 1.98 0 0 1 .756.596c.196.256.318.554.366.895h-.838a1.3 1.3 0 0 0-.426-.661c-.218-.194-.511-.291-.881-.291-.327 0-.613.085-.859.256s-.434.406-.572.714-.202.664-.202 1.076c0 .421.066.788.199 1.101a1.69 1.69 0 0 0 .568.728c.246.172.535.259.866.259a1.49 1.49 0 0 0 .593-.114 1.23 1.23 0 0 0 .451-.327 1.25 1.25 0 0 0 .263-.511h.838a1.94 1.94 0 0 1-.352.87c-.185.256-.43.459-.735.611s-.656.224-1.058.224zm4.208-3.395V383h-.838v-5.455h.81v.853h.071a1.56 1.56 0 0 1 .582-.668c.26-.17.597-.256 1.009-.256.369 0 .692.076.969.228s.492.376.646.682.231.686.231 1.15V383h-.838v-3.409c0-.429-.111-.762-.334-1.002s-.528-.362-.916-.362a1.46 1.46 0 0 0-.717.174 1.25 1.25 0 0 0-.494.508c-.121.223-.181.493-.181.81zM84.297 383v-5.455h.81v.853h.071c.114-.291.297-.518.55-.679s.558-.245.913-.245.659.082.898.245.43.388.565.679h.057a1.58 1.58 0 0 1 .629-.671c.28-.165.614-.253 1.005-.253.488 0 .887.153 1.197.459s.465.775.465 1.416V383h-.838v-3.651c0-.402-.11-.69-.33-.862a1.22 1.22 0 0 0-.778-.26c-.383 0-.681.116-.891.348s-.316.521-.316.874V383h-.852v-3.736a.98.98 0 0 0-.302-.749 1.08 1.08 0 0 0-.778-.288 1.15 1.15 0 0 0-.611.174c-.187.116-.339.277-.455.483s-.17.439-.17.707V383h-.838zm10.296.128a2.22 2.22 0 0 1-.941-.195c-.282-.133-.505-.324-.671-.572s-.249-.554-.249-.909c0-.313.062-.566.185-.76a1.3 1.3 0 0 1 .494-.462c.206-.111.433-.194.682-.248l.756-.135.806-.096c.208-.024.36-.063.455-.117s.146-.15.146-.285v-.028c0-.35-.096-.623-.288-.817s-.477-.291-.863-.291c-.4 0-.714.088-.941.263s-.387.362-.479.561l-.795-.284a1.9 1.9 0 0 1 .568-.774 2.12 2.12 0 0 1 .781-.391 3.36 3.36 0 0 1 .838-.114 3.39 3.39 0 0 1 .604.064 2 2 0 0 1 .664.252c.213.127.394.321.536.579s.213.604.213 1.037V383h-.838v-.739h-.043a1.47 1.47 0 0 1-.284.38 1.65 1.65 0 0 1-.529.345c-.22.095-.489.142-.806.142zm.128-.753c.331 0 .611-.065.838-.195s.402-.299.518-.505.178-.422.178-.649v-.767c-.035.042-.114.081-.234.117a4 4 0 0 1-.412.088l-.451.064-.352.043c-.218.028-.421.075-.611.139a1.05 1.05 0 0 0-.454.28c-.114.123-.171.291-.171.504a.75.75 0 0 0 .323.661c.218.147.494.22.827.22zm4.74-2.656V383h-.838v-5.455h.81v.853h.071c.128-.277.322-.5.583-.668s.596-.256 1.008-.256c.369 0 .693.076.97.228s.492.376.646.682.231.686.231 1.15V383h-.838v-3.409c0-.429-.112-.762-.334-1.002s-.528-.362-.916-.362c-.268 0-.507.058-.718.174a1.25 1.25 0 0 0-.493.508c-.121.223-.181.493-.181.81zm7.937 3.281v-7.273h.881v3.239h3.878v-3.239h.88V383h-.88v-3.253h-3.878V383h-.881zm13.539-3.636c0 .767-.139 1.43-.416 1.988s-.656.99-1.139 1.293-1.035.454-1.655.454-1.172-.151-1.655-.454-.863-.734-1.14-1.293-.416-1.221-.416-1.988.139-1.43.416-1.989.657-.99 1.14-1.293 1.034-.454 1.655-.454 1.172.151 1.655.454.862.734 1.139 1.293.416 1.222.416 1.989zm-.852 0c0-.63-.106-1.162-.316-1.595s-.492-.761-.849-.983a2.21 2.21 0 0 0-1.193-.334c-.44 0-.84.111-1.197.334s-.638.55-.849.983-.312.965-.312 1.595.104 1.161.312 1.594.494.761.849.984a2.22 2.22 0 0 0 1.197.334c.44 0 .838-.112 1.193-.334a2.31 2.31 0 0 0 .849-.984c.209-.433.316-.965.316-1.594zM122.29 383v-.639l2.4-2.628.697-.803c.182-.229.317-.445.404-.646s.135-.417.135-.639a1.18 1.18 0 0 0-.184-.664c-.121-.187-.287-.332-.498-.433s-.447-.153-.71-.153c-.279 0-.523.058-.731.174a1.2 1.2 0 0 0-.48.479c-.111.206-.167.448-.167.725h-.838c0-.426.099-.8.295-1.122a2.05 2.05 0 0 1 .803-.753c.341-.18.723-.27 1.147-.27s.803.09 1.132.27a2.02 2.02 0 0 1 .775.728 1.91 1.91 0 0 1 .28 1.019 2.2 2.2 0 0 1-.145.785c-.095.253-.261.536-.498.848s-.559.689-.976 1.137l-1.634 1.747v.057h3.381V383h-4.588z"/><path d="M58.743 451h-.923l2.67-7.273h.909l2.67 7.273h-.923l-2.173-6.122h-.057L58.743 451zm.341-2.841h3.722v.781h-3.722v-.781zm8.065 2.955c-.455 0-.856-.115-1.204-.345s-.62-.559-.817-.98-.295-.924-.295-1.502c0-.573.098-1.07.295-1.492s.47-.746.82-.976.755-.345 1.215-.345c.355 0 .636.06.842.178a1.45 1.45 0 0 1 .476.398l.259.362h.071v-2.685h.838V451h-.81v-.838h-.099a5.36 5.36 0 0 1-.263.376c-.114.149-.276.283-.487.402s-.491.174-.842.174zm.114-.753c.336 0 .62-.088.852-.263a1.65 1.65 0 0 0 .529-.735 3.03 3.03 0 0 0 .181-1.09 2.95 2.95 0 0 0-.177-1.069c-.118-.308-.294-.547-.526-.717s-.518-.26-.859-.26c-.355 0-.651.091-.888.274s-.411.425-.529.735-.174.653-.174 1.037.059.741.178 1.058a1.73 1.73 0 0 0 .533.753c.237.184.53.277.881.277zm6.097.753c-.455 0-.856-.115-1.204-.345s-.62-.559-.817-.98-.295-.924-.295-1.502c0-.573.098-1.07.295-1.492s.47-.746.82-.976.755-.345 1.214-.345c.355 0 .636.06.842.178a1.45 1.45 0 0 1 .476.398l.259.362h.071v-2.685h.838V451h-.81v-.838h-.1a5.35 5.35 0 0 1-.263.376c-.114.149-.276.283-.487.402s-.491.174-.842.174zm.114-.753c.336 0 .62-.088.852-.263s.408-.423.529-.735.181-.678.181-1.09-.059-.764-.178-1.069a1.55 1.55 0 0 0-.526-.717c-.232-.173-.518-.26-.859-.26-.355 0-.651.091-.888.274s-.411.425-.529.735-.174.653-.174 1.037.059.741.178 1.058a1.73 1.73 0 0 0 .533.753c.237.184.53.277.881.277zm12.731-6.634V451h-.852l-3.963-5.71h-.071V451h-.881v-7.273h.852l3.977 5.725h.071v-5.725h.867zm3.936 7.387c-.526 0-.979-.116-1.36-.348a2.34 2.34 0 0 1-.877-.98c-.204-.422-.305-.912-.305-1.471s.102-1.051.305-1.477a2.41 2.41 0 0 1 .859-1.001c.369-.242.8-.363 1.293-.363.284 0 .565.048.842.142a2.09 2.09 0 0 1 .756.462 2.21 2.21 0 0 1 .543.838c.135.348.203.777.203 1.286v.355h-4.205v-.725h3.352c0-.307-.062-.582-.185-.823s-.294-.433-.518-.572a1.45 1.45 0 0 0-.788-.21c-.334 0-.623.083-.867.249a1.63 1.63 0 0 0-.558.639 1.88 1.88 0 0 0-.195.845v.483c0 .412.071.761.213 1.048s.344.5.6.65.553.22.891.22a1.8 1.8 0 0 0 .597-.093c.18-.063.335-.158.465-.284s.231-.286.302-.475l.81.227c-.085.274-.228.516-.43.724s-.45.367-.746.483-.628.171-.998.171zm5.906-5.569v.711h-2.827v-.711h2.827zm-2.003-1.306h.838v5.199c0 .236.034.414.103.532s.161.194.27.235.228.056.352.056c.092 0 .168-.004.227-.014l.142-.028.17.753c-.057.021-.136.042-.238.064s-.231.035-.387.035c-.237 0-.469-.051-.696-.153a1.38 1.38 0 0 1-.561-.465c-.147-.208-.22-.471-.22-.788v-5.426zM98.541 451l-1.662-5.455h.881l1.179 4.177h.057l1.164-4.177h.895l1.151 4.162h.057l1.178-4.162h.881L102.66 451h-.824l-1.193-4.19h-.085L99.365 451h-.824zm8.919.114c-.492 0-.924-.118-1.296-.352s-.658-.562-.866-.984-.309-.913-.309-1.477.103-1.064.309-1.488.497-.753.866-.987.804-.352 1.296-.352.924.118 1.293.352.661.563.867.987.312.92.312 1.488-.104 1.056-.312 1.477a2.35 2.35 0 0 1-.867.984c-.369.234-.8.352-1.293.352zm0-.753c.375 0 .682-.096.924-.288s.42-.444.536-.756a2.9 2.9 0 0 0 .174-1.016c0-.364-.058-.704-.174-1.019s-.295-.569-.536-.764-.549-.291-.924-.291-.681.097-.923.291-.42.449-.536.764-.174.655-.174 1.019a2.9 2.9 0 0 0 .174 1.016c.116.312.295.564.536.756s.549.288.923.288zm3.751.639v-5.455h.81v.824h.057c.099-.27.279-.489.54-.657s.554-.252.88-.252l.231.004.21.01v.853c-.029-.007-.094-.018-.196-.032s-.204-.025-.316-.025c-.265 0-.502.056-.71.167a1.26 1.26 0 0 0-.49.454 1.23 1.23 0 0 0-.178.657V451h-.838zm4.502-1.989l-.014-1.037h.171l2.386-2.429h1.037l-2.543 2.571h-.071l-.966.895zm-.781 1.989v-7.273h.838V451h-.838zm3.466 0l-2.131-2.699.597-.582 2.599 3.281h-1.065z"/></g><rect x="21.564" y="135" width="224" height="54" rx="10" class="E"/><g clip-path="url(#E)" class="B"><path d="M38.814 165.875c0-.688.563-1.25 1.25-1.25s1.25.562 1.25 1.25-.562 1.25-1.25 1.25-1.25-.562-1.25-1.25zm5.225-2.65a.93.93 0 0 0 0-1.325c-2.194-2.194-5.762-2.194-7.956 0-.369.369-.369.963 0 1.325s.962.369 1.325 0a3.76 3.76 0 0 1 5.306 0c.181.181.425.275.662.275s.481-.094.663-.275zm3.231-2.919c.375-.356.387-.95.031-1.325l-.169-.175a9.94 9.94 0 0 0-7.069-2.931 9.93 9.93 0 0 0-7.069 2.925l-.169.175a.94.94 0 0 0 .031 1.325.94.94 0 0 0 1.325-.031l.138-.144c1.538-1.537 3.575-2.381 5.744-2.381a8.08 8.08 0 0 1 5.75 2.381l.138.138c.181.193.431.287.675.287.231 0 .469-.088.65-.256l-.006.012z"/></g><g clip-path="url(#F)" class="C"><use href="#N"/></g><g clip-path="url(#G)" class="C"><path d="M37.98 288.292c0-.596.487-1.084 1.083-1.084s1.083.488 1.083 1.084-.487 1.083-1.083 1.083-1.083-.487-1.083-1.083zm4.528-2.297c.32-.32.32-.834 0-1.148a4.88 4.88 0 0 0-6.895 0c-.32.319-.32.834 0 1.148s.834.32 1.148 0a3.26 3.26 0 0 1 4.599 0c.157.157.368.238.574.238s.417-.081.574-.238zm2.8-2.53c.325-.308.336-.823.027-1.148l-.146-.152c-1.636-1.635-3.813-2.54-6.126-2.54s-4.49.899-6.126 2.535l-.146.152c-.309.325-.298.839.027 1.148s.84.298 1.148-.027l.119-.125a6.99 6.99 0 0 1 4.978-2.063c1.88 0 3.651.731 4.983 2.063l.119.12c.157.167.374.249.585.249.2 0 .406-.076.563-.222l-.005.01z"/></g><g clip-path="url(#H)" class="C"><path d="M37.98 319.292c0-.596.487-1.084 1.083-1.084s1.083.488 1.083 1.084-.487 1.083-1.083 1.083-1.083-.487-1.083-1.083zm4.528-2.297c.32-.32.32-.834 0-1.148a4.88 4.88 0 0 0-6.895 0c-.32.319-.32.834 0 1.148s.834.32 1.148 0a3.26 3.26 0 0 1 4.599 0c.157.157.368.238.574.238s.417-.081.574-.238zm2.8-2.53c.325-.308.336-.823.027-1.148l-.146-.152c-1.636-1.635-3.813-2.54-6.126-2.54s-4.49.899-6.126 2.535l-.146.152c-.309.325-.298.839.027 1.148s.84.298 1.148-.027l.119-.125a6.99 6.99 0 0 1 4.978-2.063c1.88 0 3.651.731 4.983 2.063l.119.12c.157.167.374.249.585.249.2 0 .406-.076.563-.222l-.005.01z"/></g><g clip-path="url(#I)" class="C"><path d="M37.98 350.292c0-.596.487-1.084 1.083-1.084s1.083.488 1.083 1.084-.487 1.083-1.083 1.083-1.083-.487-1.083-1.083zm4.528-2.297c.32-.32.32-.834 0-1.148a4.88 4.88 0 0 0-6.895 0c-.32.319-.32.834 0 1.148s.834.32 1.148 0a3.26 3.26 0 0 1 4.599 0c.157.157.368.238.574.238s.417-.081.574-.238zm2.8-2.53c.325-.308.336-.823.027-1.148l-.146-.152c-1.636-1.635-3.813-2.54-6.126-2.54s-4.49.899-6.126 2.535l-.146.152c-.309.325-.298.839.027 1.148s.84.298 1.148-.027l.119-.125a6.99 6.99 0 0 1 4.978-2.063c1.88 0 3.651.731 4.983 2.063l.119.12c.157.167.374.249.585.249.2 0 .406-.076.563-.222l-.005.01z"/></g><g clip-path="url(#J)" class="C"><path d="M37.98 382.292c0-.596.487-1.084 1.083-1.084s1.083.488 1.083 1.084-.487 1.083-1.083 1.083-1.083-.487-1.083-1.083zm4.528-2.297c.32-.32.32-.834 0-1.148a4.88 4.88 0 0 0-6.895 0c-.32.319-.32.834 0 1.148s.834.32 1.148 0a3.26 3.26 0 0 1 4.599 0c.157.157.368.238.574.238s.417-.081.574-.238zm2.8-2.53c.325-.308.336-.823.027-1.148l-.146-.152c-1.636-1.635-3.813-2.54-6.126-2.54s-4.49.899-6.126 2.535l-.146.152c-.309.325-.298.839.027 1.148s.84.298 1.148-.027l.119-.125a6.99 6.99 0 0 1 4.978-2.063c1.88 0 3.651.731 4.983 2.063l.119.12c.157.167.374.249.585.249.2 0 .406-.076.563-.222l-.005.01z"/></g><g class="B"><path d="M60.444 153.727h1.051l2.472 6.037h.085l2.472-6.037h1.051V161h-.824v-5.526h-.071L64.407 161h-.795l-2.273-5.526h-.071V161h-.824v-7.273zm10.388 7.401a2.22 2.22 0 0 1-.941-.195c-.282-.133-.505-.324-.671-.572s-.249-.554-.249-.909c0-.313.062-.566.185-.76a1.3 1.3 0 0 1 .494-.462c.206-.111.433-.194.682-.248l.756-.135.806-.096c.208-.024.36-.063.455-.117s.146-.15.146-.285v-.028c0-.35-.096-.623-.288-.817s-.477-.291-.863-.291c-.4 0-.714.088-.941.263s-.387.362-.479.561l-.795-.284a1.9 1.9 0 0 1 .568-.774c.239-.187.499-.318.781-.391s.563-.114.838-.114c.175 0 .376.022.604.064s.451.125.664.252.394.321.536.579.213.604.213 1.037V161h-.838v-.739h-.043c-.057.119-.152.245-.284.38s-.309.25-.529.345-.489.142-.806.142zm.128-.753c.331 0 .611-.065.838-.195s.403-.299.519-.505.178-.422.178-.649v-.767c-.036.042-.114.081-.234.117s-.256.062-.412.088l-.451.064-.352.043c-.218.028-.421.075-.611.139s-.338.155-.455.28-.17.291-.17.504a.75.75 0 0 0 .323.661c.218.147.494.22.828.22zm6.118.739c-.511 0-.952-.121-1.321-.363s-.653-.574-.852-.997-.298-.908-.298-1.453c0-.554.102-1.043.305-1.466s.492-.759.859-.998.8-.363 1.293-.363c.383 0 .729.071 1.037.214a1.98 1.98 0 0 1 .756.596c.196.256.318.554.366.895h-.838a1.3 1.3 0 0 0-.426-.661c-.218-.194-.511-.291-.881-.291-.327 0-.613.085-.859.256s-.434.406-.572.714-.202.664-.202 1.076c0 .421.066.788.199 1.101a1.69 1.69 0 0 0 .568.728c.246.172.535.259.866.259.218 0 .416-.038.593-.114s.328-.185.451-.327a1.25 1.25 0 0 0 .263-.511h.838a1.94 1.94 0 0 1-.352.87c-.185.256-.43.459-.735.611s-.656.224-1.058.224zm4.208-3.395V161h-.838v-5.455h.81v.853h.071a1.56 1.56 0 0 1 .582-.668c.26-.17.597-.256 1.009-.256.369 0 .692.076.969.228s.492.376.646.682.231.686.231 1.15V161h-.838v-3.409c0-.429-.111-.762-.334-1.002s-.528-.362-.916-.362c-.267 0-.507.058-.717.174a1.25 1.25 0 0 0-.494.508c-.121.223-.181.493-.181.81zM86.297 161v-5.455h.81v.853h.071c.114-.291.297-.518.55-.679s.558-.245.913-.245.659.082.898.245.43.388.565.679h.057c.14-.282.349-.506.629-.671s.614-.253 1.005-.253c.488 0 .887.153 1.197.459s.465.775.465 1.416V161h-.838v-3.651c0-.402-.11-.69-.33-.862a1.22 1.22 0 0 0-.778-.26c-.383 0-.681.116-.891.348s-.316.521-.316.874V161h-.852v-3.736c0-.31-.101-.56-.302-.749a1.08 1.08 0 0 0-.778-.288 1.15 1.15 0 0 0-.611.174c-.187.116-.339.277-.455.483s-.17.439-.17.707V161h-.838zm10.296.128a2.22 2.22 0 0 1-.941-.195c-.282-.133-.505-.324-.671-.572s-.249-.554-.249-.909c0-.313.062-.566.185-.76a1.3 1.3 0 0 1 .494-.462c.206-.111.433-.194.682-.248l.756-.135.806-.096c.208-.024.36-.063.455-.117s.146-.15.146-.285v-.028c0-.35-.096-.623-.288-.817s-.477-.291-.863-.291c-.4 0-.714.088-.941.263s-.387.362-.479.561l-.795-.284a1.9 1.9 0 0 1 .568-.774c.239-.187.499-.318.781-.391s.564-.114.838-.114c.175 0 .376.022.604.064s.451.125.664.252.394.321.536.579.213.604.213 1.037V161h-.838v-.739h-.043a1.47 1.47 0 0 1-.284.38c-.133.135-.309.25-.529.345s-.489.142-.806.142zm.128-.753c.331 0 .611-.065.838-.195s.402-.299.518-.505.178-.422.178-.649v-.767c-.035.042-.114.081-.234.117a4 4 0 0 1-.412.088l-.451.064-.352.043c-.218.028-.421.075-.611.139a1.05 1.05 0 0 0-.454.28c-.114.123-.171.291-.171.504a.75.75 0 0 0 .323.661c.218.147.494.22.827.22zm4.74-2.656V161h-.839v-5.455h.81v.853h.071c.128-.277.322-.5.583-.668s.596-.256 1.008-.256c.369 0 .693.076.97.228s.492.376.646.682.231.686.231 1.15V161h-.838v-3.409c0-.429-.112-.762-.334-1.002s-.528-.362-.916-.362c-.268 0-.507.058-.718.174s-.373.286-.493.508-.181.493-.181.81zM110.72 161l-1.988-7.273h.895l1.519 5.924h.071l1.549-5.924h.994l1.548 5.924h.071l1.52-5.924h.895L115.805 161h-.909l-1.605-5.795h-.057L111.629 161h-.909zm8.058 0v-5.455h.838V161h-.838zm.426-6.364c-.163 0-.304-.055-.423-.167s-.174-.245-.174-.401.058-.29.174-.401a.6.6 0 0 1 .423-.167c.163 0 .303.056.419.167a.53.53 0 0 1 .178.401.53.53 0 0 1-.178.401.58.58 0 0 1-.419.167zm4.376.909v.711h-2.941v-.711h2.941zM121.52 161v-6.207c0-.313.074-.573.22-.782a1.37 1.37 0 0 1 .572-.468c.234-.105.482-.157.742-.157.206 0 .374.017.505.05s.227.064.291.092l-.242.725-.177-.053c-.074-.022-.171-.032-.292-.032-.277 0-.477.069-.6.209s-.181.345-.181.614V161h-.838zm3.234 0v-5.455h.838V161h-.838zm.426-6.364a.59.59 0 0 1-.422-.167c-.116-.111-.174-.245-.174-.401s.058-.29.174-.401.259-.167.422-.167.304.056.42.167a.53.53 0 0 1 .177.401.53.53 0 0 1-.177.401.58.58 0 0 1-.42.167zm4.746 6.364v-.639l2.4-2.628.696-.803c.183-.229.318-.445.405-.646s.135-.417.135-.639c0-.256-.061-.477-.185-.664s-.286-.332-.497-.433-.447-.153-.71-.153c-.279 0-.523.058-.732.174s-.365.273-.479.479-.167.448-.167.725h-.838c0-.426.098-.8.295-1.122s.464-.573.802-.753a2.42 2.42 0 0 1 1.147-.27 2.32 2.32 0 0 1 1.133.27c.329.18.587.422.774.728s.281.645.281 1.019a2.2 2.2 0 0 1-.146.785c-.094.253-.26.536-.497.848s-.56.689-.976 1.137l-1.634 1.747v.057h3.381V161h-4.588z"/><path d="M64.217 168.909V174h-.597l-2.774-3.997h-.05V174h-.616v-5.091h.596l2.784 4.007h.05v-4.007h.606zm2.705 5.171c-.345 0-.647-.082-.907-.247a1.67 1.67 0 0 1-.607-.688c-.144-.295-.216-.64-.216-1.034s.072-.745.216-1.042a1.65 1.65 0 0 1 .607-.691c.259-.164.563-.246.907-.246s.646.082.905.246a1.65 1.65 0 0 1 .607.691c.146.297.219.644.219 1.042s-.073.739-.219 1.034-.346.524-.607.688-.56.247-.905.247zm0-.527c.262 0 .477-.068.646-.202a1.19 1.19 0 0 0 .375-.529 2.03 2.03 0 0 0 .122-.711 2.06 2.06 0 0 0-.122-.714c-.081-.221-.206-.398-.375-.534s-.385-.204-.646-.204-.477.068-.646.204a1.2 1.2 0 0 0-.375.534c-.081.22-.122.459-.122.714a2.03 2.03 0 0 0 .122.711 1.19 1.19 0 0 0 .375.529c.169.134.385.202.646.202zm5.29-4.644V174h-.616v-5.091h.616zm1.743 2.794V174h-.587v-3.818h.567v.596h.05c.09-.193.225-.349.408-.467s.418-.179.706-.179c.258 0 .485.053.679.159s.345.264.452.477.162.481.162.806V174h-.587v-2.386c0-.3-.078-.534-.234-.701s-.37-.254-.641-.254c-.187 0-.355.041-.502.122s-.261.2-.345.355-.127.345-.127.567zm5.169-1.521v.497h-1.979v-.497h1.979zm-1.402-.915h.587v3.639c0 .166.024.29.072.373a.36.36 0 0 0 .189.164c.076.028.16.04.246.04.065 0 .118-.003.159-.01l.099-.02.119.527a1.19 1.19 0 0 1-.166.045 1.26 1.26 0 0 1-.271.025c-.166 0-.328-.036-.487-.107a.96.96 0 0 1-.393-.326.92.92 0 0 1-.154-.552v-3.798zm3.844 4.813c-.368 0-.685-.082-.952-.244a1.61 1.61 0 0 1-.614-.686 2.34 2.34 0 0 1-.214-1.029c0-.391.071-.736.214-1.034s.345-.534.602-.701.56-.254.905-.254a1.79 1.79 0 0 1 .589.1c.194.066.37.174.529.323s.286.343.38.586a2.51 2.51 0 0 1 .142.9v.249h-2.943v-.507h2.347a1.25 1.25 0 0 0-.129-.577c-.084-.169-.206-.302-.363-.4s-.34-.147-.552-.147c-.234 0-.436.058-.606.174a1.15 1.15 0 0 0-.39.448 1.31 1.31 0 0 0-.137.591v.338a1.64 1.64 0 0 0 .149.734c.101.198.241.35.42.454a1.22 1.22 0 0 0 .624.155 1.27 1.27 0 0 0 .418-.065c.126-.045.234-.111.326-.199a.87.87 0 0 0 .211-.333l.567.159a1.26 1.26 0 0 1-.301.507c-.141.144-.315.257-.522.338s-.44.12-.698.12zm2.473-.08v-3.818h.567v.577h.04c.07-.189.195-.343.378-.46a1.11 1.11 0 0 1 .617-.177l.162.003.147.007v.597a1.65 1.65 0 0 0-.137-.023c-.07-.011-.143-.017-.221-.017-.186 0-.351.039-.497.117a.88.88 0 0 0-.343.318c-.083.134-.124.287-.124.46V174h-.587zm3.191-2.297V174h-.587v-3.818h.567v.596h.05c.09-.193.225-.349.408-.467s.418-.179.706-.179c.258 0 .485.053.679.159s.345.264.452.477.162.481.162.806V174h-.587v-2.386c0-.3-.078-.534-.234-.701s-.37-.254-.641-.254c-.187 0-.355.041-.502.122a.87.87 0 0 0-.346.355c-.085.155-.127.345-.127.567zm5.109 2.377c-.368 0-.685-.082-.952-.244a1.61 1.61 0 0 1-.614-.686 2.34 2.34 0 0 1-.214-1.029c0-.391.071-.736.214-1.034s.345-.534.602-.701.56-.254.905-.254a1.79 1.79 0 0 1 .589.1c.194.066.37.174.529.323s.286.343.38.586a2.51 2.51 0 0 1 .142.9v.249h-2.943v-.507h2.347a1.25 1.25 0 0 0-.129-.577.97.97 0 0 0-.363-.4 1.02 1.02 0 0 0-.552-.147c-.234 0-.436.058-.607.174a1.14 1.14 0 0 0-.39.448 1.31 1.31 0 0 0-.137.591v.338c0 .289.05.533.149.734s.241.35.42.454a1.23 1.23 0 0 0 .624.155 1.27 1.27 0 0 0 .418-.065c.126-.045.235-.111.326-.199a.88.88 0 0 0 .211-.333l.567.159a1.26 1.26 0 0 1-.301.507c-.141.144-.315.257-.522.338s-.44.12-.698.12zm4.134-3.898v.497h-1.979v-.497h1.979zm-1.402-.915h.587v3.639c0 .166.024.29.072.373a.36.36 0 0 0 .189.164c.076.028.16.04.246.04.065 0 .118-.003.159-.01l.099-.02.119.527a1.19 1.19 0 0 1-.166.045 1.26 1.26 0 0 1-.271.025c-.166 0-.328-.036-.487-.107a.96.96 0 0 1-.393-.326.92.92 0 0 1-.154-.552v-3.798zM99.613 174h-.646l1.869-5.091h.637l1.869 5.091h-.646l-1.522-4.286h-.039L99.613 174zm.239-1.989h2.605v.547h-2.605v-.547zm5.755 2.069c-.358 0-.667-.085-.925-.254a1.66 1.66 0 0 1-.597-.699c-.14-.297-.208-.635-.208-1.016 0-.388.071-.73.213-1.027s.345-.531.602-.698.56-.254.905-.254c.268 0 .51.05.726.149a1.4 1.4 0 0 1 .529.418c.138.179.223.388.256.626h-.587c-.044-.174-.144-.328-.298-.462s-.358-.204-.616-.204c-.229 0-.43.06-.602.179a1.16 1.16 0 0 0-.4.5 1.84 1.84 0 0 0-.142.753 1.98 1.98 0 0 0 .139.771c.095.218.227.388.398.509a1.03 1.03 0 0 0 .607.182 1.05 1.05 0 0 0 .415-.08.85.85 0 0 0 .315-.229c.087-.099.148-.218.184-.358h.587a1.35 1.35 0 0 1-.246.609c-.129.179-.301.322-.515.428s-.459.157-.74.157zm3.91 0c-.358 0-.666-.085-.925-.254a1.66 1.66 0 0 1-.597-.699c-.139-.296-.208-.635-.208-1.016 0-.388.071-.73.213-1.027s.345-.531.602-.698.56-.254.905-.254c.268 0 .51.05.726.149s.392.239.529.418.223.388.256.626h-.586c-.045-.174-.145-.328-.299-.462s-.358-.204-.616-.204c-.229 0-.429.06-.602.179a1.17 1.17 0 0 0-.4.5c-.094.213-.142.465-.142.753 0 .295.047.552.14.771a1.17 1.17 0 0 0 .397.509c.17.121.375.182.607.182a1.05 1.05 0 0 0 .415-.08.86.86 0 0 0 .316-.229c.086-.099.147-.218.184-.358h.586a1.35 1.35 0 0 1-.246.609c-.129.179-.301.322-.514.428a1.64 1.64 0 0 1-.741.157zm3.96 0c-.368 0-.686-.082-.952-.244a1.63 1.63 0 0 1-.614-.686c-.143-.295-.214-.638-.214-1.029s.071-.736.214-1.034a1.68 1.68 0 0 1 .601-.701c.259-.169.56-.254.905-.254a1.79 1.79 0 0 1 .589.1c.194.066.371.174.53.323s.285.343.38.586.142.544.142.9v.249h-2.944v-.507h2.347c0-.216-.043-.408-.129-.577a.98.98 0 0 0-.363-.4c-.156-.098-.34-.147-.552-.147-.234 0-.436.058-.607.174a1.14 1.14 0 0 0-.39.448c-.091.183-.137.381-.137.591v.338c0 .289.05.533.15.734a1.05 1.05 0 0 0 .42.454 1.23 1.23 0 0 0 .624.155c.154 0 .293-.022.417-.065s.235-.111.326-.199a.9.9 0 0 0 .211-.333l.567.159a1.26 1.26 0 0 1-.301.507c-.141.144-.315.257-.522.338s-.44.12-.698.12zm5.178-3.043l-.527.149c-.034-.088-.082-.173-.147-.256s-.149-.154-.259-.209-.249-.082-.42-.082c-.233 0-.428.054-.584.162s-.231.241-.231.405c0 .146.053.261.159.345s.272.155.497.212l.567.139c.341.083.596.21.763.38a.89.89 0 0 1 .251.654.97.97 0 0 1-.189.587c-.124.172-.298.308-.522.407s-.484.15-.78.15c-.39 0-.712-.085-.967-.254s-.417-.416-.485-.741l.557-.139c.053.206.153.36.301.462s.343.154.584.154c.273 0 .49-.058.651-.174s.244-.258.244-.422c0-.133-.047-.244-.14-.333s-.235-.159-.427-.204l-.636-.149c-.35-.083-.607-.211-.771-.385s-.244-.396-.244-.659c0-.216.061-.406.182-.572s.289-.296.499-.39a1.75 1.75 0 0 1 .721-.142c.378 0 .675.083.89.249a1.36 1.36 0 0 1 .463.656zm3.657 0l-.527.149c-.033-.088-.082-.173-.147-.256a.75.75 0 0 0-.258-.209c-.109-.055-.25-.082-.42-.082-.234 0-.429.054-.585.162s-.231.241-.231.405c0 .146.053.261.159.345s.272.155.497.212l.567.139c.342.083.596.21.763.38s.251.387.251.654a.97.97 0 0 1-.189.587c-.124.172-.298.308-.522.407a1.91 1.91 0 0 1-.78.15c-.39 0-.712-.085-.967-.254s-.417-.416-.485-.741l.557-.139c.053.206.153.36.301.462s.344.154.584.154c.273 0 .491-.058.651-.174s.244-.258.244-.422c0-.133-.047-.244-.139-.333s-.236-.159-.428-.204l-.636-.149c-.35-.083-.607-.211-.771-.385s-.243-.396-.243-.659c0-.216.06-.406.181-.572s.289-.296.5-.39.452-.142.721-.142c.377 0 .674.083.889.249a1.33 1.33 0 0 1 .463.656zm67.965-7.537h-.617c-.036-.177-.1-.333-.191-.467a1.27 1.27 0 0 0-.328-.338c-.128-.093-.27-.163-.426-.209a1.67 1.67 0 0 0-.487-.07 1.55 1.55 0 0 0-.837.234c-.249.156-.447.385-.595.688s-.218.676-.218 1.117.073.812.218 1.116.346.532.595.688a1.55 1.55 0 0 0 .837.234 1.67 1.67 0 0 0 .487-.07c.156-.046.298-.115.426-.206a1.3 1.3 0 0 0 .328-.341 1.29 1.29 0 0 0 .191-.467h.617c-.047.26-.131.493-.254.699a1.92 1.92 0 0 1-.457.524 2.01 2.01 0 0 1-.614.326 2.31 2.31 0 0 1-.724.112c-.434 0-.82-.106-1.158-.319s-.604-.513-.798-.904-.291-.856-.291-1.392.097-1.001.291-1.393.46-.692.798-.904.724-.319 1.158-.319a2.31 2.31 0 0 1 .724.112c.227.075.431.184.614.328a1.9 1.9 0 0 1 .457.522c.123.204.207.437.254.699zm2.467 3.58c-.344 0-.647-.082-.907-.247s-.461-.393-.607-.688-.216-.64-.216-1.034.072-.745.216-1.042a1.67 1.67 0 0 1 .607-.691c.26-.164.563-.246.907-.246s.647.082.905.246a1.65 1.65 0 0 1 .607.691c.146.297.218.644.218 1.042s-.072.739-.218 1.034a1.66 1.66 0 0 1-.607.688c-.26.164-.56.247-.905.247zm0-.527a1.01 1.01 0 0 0 .647-.202c.169-.134.294-.311.375-.529a2.03 2.03 0 0 0 .122-.711 2.06 2.06 0 0 0-.122-.714 1.2 1.2 0 0 0-.375-.534c-.169-.136-.385-.204-.647-.204s-.477.068-.646.204a1.2 1.2 0 0 0-.375.534c-.082.221-.122.459-.122.714a2.01 2.01 0 0 0 .122.711c.081.218.206.395.375.529s.384.202.646.202zm3.213-1.85V167h-.587v-3.818h.567v.596h.049c.09-.193.226-.349.408-.467s.418-.179.706-.179c.259 0 .485.053.679.159s.344.264.452.477.162.481.162.806V167h-.587v-2.386c0-.3-.078-.534-.234-.701s-.369-.254-.641-.254c-.187 0-.355.041-.502.122a.87.87 0 0 0-.346.355c-.085.155-.126.345-.126.567zm4.094 0V167h-.586v-3.818h.566v.596h.05c.09-.193.226-.349.408-.467s.417-.179.706-.179a1.39 1.39 0 0 1 .678.159 1.08 1.08 0 0 1 .453.477c.108.213.161.481.161.806V167h-.586v-2.386c0-.3-.078-.534-.234-.701s-.369-.254-.641-.254c-.188 0-.355.041-.502.122a.87.87 0 0 0-.346.355c-.085.155-.127.345-.127.567zm5.109 2.377c-.368 0-.685-.082-.952-.244a1.61 1.61 0 0 1-.614-.686c-.144-.293-.214-.638-.214-1.029s.072-.736.214-1.034a1.68 1.68 0 0 1 .602-.701c.257-.167.56-.254.905-.254.198 0 .395.033.589.1s.37.174.529.323.286.343.381.586.141.544.141.9v.249h-2.943v-.507h2.347a1.24 1.24 0 0 0-.13-.577.97.97 0 0 0-.363-.4 1.01 1.01 0 0 0-.551-.147c-.234 0-.436.058-.607.174a1.14 1.14 0 0 0-.39.448c-.091.183-.137.381-.137.591v.338c0 .289.05.533.149.734s.241.35.42.454a1.23 1.23 0 0 0 .624.155c.154 0 .294-.022.418-.065a.89.89 0 0 0 .537-.532l.567.159a1.26 1.26 0 0 1-.301.507c-.141.144-.315.257-.522.338s-.44.12-.699.12zm4.025 0c-.358 0-.666-.085-.925-.254a1.66 1.66 0 0 1-.597-.699c-.139-.296-.208-.635-.208-1.016 0-.388.071-.73.213-1.027s.345-.531.602-.698.56-.254.905-.254c.268 0 .51.05.726.149s.392.239.529.418.223.388.256.626h-.586c-.045-.174-.145-.328-.299-.462s-.358-.204-.616-.204c-.229 0-.429.06-.602.179s-.304.284-.4.5-.142.465-.142.753a1.98 1.98 0 0 0 .139.771c.095.218.228.388.398.509s.375.182.607.182a1.05 1.05 0 0 0 .415-.08.86.86 0 0 0 .316-.229c.086-.099.147-.218.184-.358h.586a1.35 1.35 0 0 1-.246.609c-.129.179-.301.322-.514.428a1.67 1.67 0 0 1-.741.157zm4.019-3.898v.497h-1.978v-.497h1.978zm-1.402-.915h.587v3.639c0 .166.024.29.072.373a.36.36 0 0 0 .189.164c.076.028.16.04.246.04.065 0 .118-.003.159-.01l.1-.02.119.527c-.04.015-.095.03-.167.045a1.33 1.33 0 0 1-.271.025c-.165 0-.328-.036-.487-.107a.96.96 0 0 1-.393-.326.92.92 0 0 1-.154-.552v-3.798zm3.845 4.813c-.368 0-.686-.082-.952-.244a1.63 1.63 0 0 1-.614-.686c-.143-.295-.214-.638-.214-1.029s.071-.736.214-1.034a1.68 1.68 0 0 1 .601-.701c.259-.169.56-.254.905-.254a1.79 1.79 0 0 1 .589.1c.194.066.37.174.53.323s.285.343.38.586.142.544.142.9v.249h-2.944v-.507h2.347c0-.216-.043-.408-.129-.577a.98.98 0 0 0-.363-.4c-.156-.098-.34-.147-.552-.147-.234 0-.436.058-.607.174a1.14 1.14 0 0 0-.39.448c-.091.183-.137.381-.137.591v.338c0 .289.05.533.15.734a1.05 1.05 0 0 0 .42.454 1.23 1.23 0 0 0 .624.155c.154 0 .293-.022.417-.065s.235-.111.326-.199a.9.9 0 0 0 .211-.333l.567.159a1.26 1.26 0 0 1-.301.507c-.141.144-.315.257-.522.338s-.44.12-.698.12zm3.915 0c-.318 0-.599-.081-.843-.242a1.62 1.62 0 0 1-.572-.686c-.138-.295-.206-.647-.206-1.051s.069-.749.206-1.044a1.6 1.6 0 0 1 .575-.684 1.51 1.51 0 0 1 .85-.241c.248 0 .445.042.589.124s.257.174.333.279l.181.253h.05v-1.879h.587V167h-.567v-.587h-.07c-.043.07-.104.158-.184.264a1.08 1.08 0 0 1-.34.281c-.147.083-.344.122-.589.122zm.079-.527c.236 0 .434-.062.597-.184a1.13 1.13 0 0 0 .37-.515 2.13 2.13 0 0 0 .127-.763c0-.288-.041-.535-.124-.748s-.206-.383-.368-.502a.98.98 0 0 0-.602-.182c-.248 0-.455.064-.621.191a1.15 1.15 0 0 0-.371.515c-.081.215-.121.457-.121.726s.041.519.124.741a1.21 1.21 0 0 0 .373.527c.165.129.371.194.616.194z"/><use href="#O"/></g><g class="C"><use href="#O" y="90"/><use href="#O" y="121"/><use href="#O" y="152"/><use href="#O" y="184"/><use href="#O" y="216"/><path d="M210.48 253.159v-.534c0-1.45-1.306-2.625-2.917-2.625s-2.917 1.175-2.917 2.625v.534c-.758.298-1.248.971-1.25 1.716v2.25c.002 1.035.934 1.874 2.084 1.875h4.166c1.15-.001 2.082-.84 2.084-1.875v-2.25c-.001-.745-.492-1.418-1.25-1.716zm-2.5 3.216c0 .207-.187.375-.417.375s-.417-.168-.417-.375v-.75c0-.207.187-.375.417-.375s.417.168.417.375v.75zm1.666-3.375h-4.166v-.375c0-1.036.933-1.875 2.083-1.875s2.083.839 2.083 1.875V253zm.834 31.159v-.534c0-1.45-1.306-2.625-2.917-2.625s-2.917 1.175-2.917 2.625v.534c-.758.298-1.248.971-1.25 1.716v2.25c.002 1.035.934 1.874 2.084 1.875h4.166c1.15-.001 2.082-.84 2.084-1.875v-2.25c-.001-.745-.492-1.418-1.25-1.716zm-2.5 3.216c0 .207-.187.375-.417.375s-.417-.168-.417-.375v-.75c0-.207.187-.375.417-.375s.417.168.417.375v.75zm1.666-3.375h-4.166v-.375c0-1.036.933-1.875 2.083-1.875s2.083.839 2.083 1.875V284zm.834 31.159v-.534c0-1.45-1.306-2.625-2.917-2.625s-2.917 1.175-2.917 2.625v.534c-.758.298-1.248.971-1.25 1.716v2.25c.002 1.035.934 1.874 2.084 1.875h4.166c1.15-.001 2.082-.84 2.084-1.875v-2.25c-.001-.745-.492-1.418-1.25-1.716zm-2.5 3.216c0 .207-.187.375-.417.375s-.417-.168-.417-.375v-.75c0-.207.187-.375.417-.375s.417.168.417.375v.75zm1.666-3.375h-4.166v-.375c0-1.036.933-1.875 2.083-1.875s2.083.839 2.083 1.875V315zm.834 62.159v-.534c0-1.45-1.306-2.625-2.917-2.625s-2.917 1.175-2.917 2.625v.534c-.758.298-1.248.971-1.25 1.716v2.25c.002 1.035.934 1.874 2.084 1.875h4.166c1.15-.001 2.082-.84 2.084-1.875v-2.25c-.001-.745-.492-1.418-1.25-1.716zm-2.5 3.216c0 .207-.187.375-.417.375s-.417-.168-.417-.375v-.75c0-.207.187-.375.417-.375s.417.168.417.375v.75zm1.666-3.375h-4.166v-.375c0-1.036.933-1.875 2.083-1.875s2.083.839 2.083 1.875V377z"/></g><g clip-path="url(#K)" class="C"><path d="M37.411 448.223c-.183.183-.423.275-.663.275s-.48-.092-.663-.275c-.366-.365-.366-.96 0-1.325a5.62 5.62 0 0 1 4.352-1.635.94.94 0 0 1 .874.997c-.034.517-.482.908-.997.873a3.76 3.76 0 0 0-2.902 1.09zm6.014-4.747c.472.215 1.028.005 1.241-.466a.94.94 0 0 0-.466-1.242 10.05 10.05 0 0 0-11.208 2.037l-.17.173a.94.94 0 0 0 .031 1.326c.182.173.415.259.648.259.248 0 .494-.097.678-.29l.139-.142c2.382-2.383 6.043-3.046 9.108-1.654v-.001zm3.863.174c-.366-.367-.959-.367-1.326 0l-5.42 5.42a1.85 1.85 0 0 0-.479-.07c-1.036 0-1.875.839-1.875 1.875s.839 1.875 1.875 1.875 1.875-.84 1.875-1.875c0-.167-.029-.326-.07-.48l5.42-5.42c.366-.365.366-.96 0-1.325z"/></g><g clip-path="url(#L)" class="C"><path d="M233.979 224.496c-.283.002-.522.213-.558.495-.271 1.848-1.988 3.126-3.836 2.856a3.38 3.38 0 0 1-2.856-3.835c.271-1.848 1.988-3.127 3.836-2.856.629.092 1.22.36 1.705.773l-.424.424c-.147.147-.147.385 0 .531.07.071.166.11.266.11h1.721c.208 0 .376-.168.376-.375v-1.722c0-.207-.168-.375-.376-.375-.099 0-.195.039-.265.11l-.5.5a4.5 4.5 0 0 0-5.968 6.736 4.5 4.5 0 0 0 7.436-2.714c.05-.31-.161-.602-.471-.651a.49.49 0 0 0-.086-.007z"/></g><g filter="url(#B)" class="B"><rect x="306.204" y="357" width="307" height="205" rx="7"/></g><path stroke="#e3e3e3" d="M306.204 511.75h306" class="D"/><path d="M332.819 425.279v-.082h1.313v.082c0 .602.203 1.053.608 1.354s.973.451 1.702.451 1.288-.155 1.675-.465a1.48 1.48 0 0 0 .581-1.217c0-.455-.189-.82-.567-1.093s-1.082-.561-2.126-.862c-1.085-.314-1.853-.681-2.304-1.1s-.677-1.023-.677-1.798.297-1.42.889-1.935 1.413-.772 2.461-.772 1.882.271 2.502.813a2.63 2.63 0 0 1 .93 2.072v.082h-1.313v-.082c0-.529-.178-.955-.533-1.279s-.884-.485-1.586-.485-1.219.139-1.552.417-.499.656-.499 1.135a1.2 1.2 0 0 0 .513 1.025c.342.251 1.046.526 2.112.827s1.841.677 2.324 1.128.725 1.087.725 1.907a2.49 2.49 0 0 1-.957 2.017c-.638.524-1.504.786-2.598.786s-1.971-.262-2.631-.786-.992-1.237-.992-2.14zm8.34 0v-.082h1.313v.082c0 .602.202 1.053.608 1.354s.973.451 1.702.451 1.288-.155 1.675-.465.581-.715.581-1.217c0-.455-.189-.82-.567-1.093s-1.083-.561-2.126-.862c-1.085-.314-1.853-.681-2.304-1.1s-.677-1.023-.677-1.798.296-1.42.889-1.935 1.413-.772 2.461-.772 1.882.271 2.502.813a2.63 2.63 0 0 1 .93 2.072v.082h-1.313v-.082c0-.529-.178-.955-.533-1.279s-.884-.485-1.586-.485-1.219.139-1.552.417-.499.656-.499 1.135a1.2 1.2 0 0 0 .513 1.025c.342.251 1.046.526 2.112.827s1.841.677 2.324 1.128.725 1.087.725 1.907a2.49 2.49 0 0 1-.957 2.017c-.638.524-1.504.786-2.598.786s-1.971-.262-2.632-.786-.991-1.237-.991-2.14zM350.08 428v-9.953h1.313V428h-1.313zm3.671 0v-9.953h2.953c1.276 0 2.338.421 3.186 1.265s1.278 1.975 1.278 3.397v.629c0 1.422-.426 2.554-1.278 3.397S357.98 428 356.704 428h-2.953zm1.312-1.08h1.641c.957 0 1.718-.317 2.283-.95s.855-1.511.855-2.632v-.629c0-1.121-.285-1.998-.855-2.632s-1.326-.95-2.283-.95h-1.641v7.793zM333.366 459v-9.953h3.295c1.094 0 1.935.276 2.523.827s.881 1.276.881 2.188-.294 1.647-.881 2.208-1.429.834-2.523.834h-1.982V459h-1.313zm1.313-4.977h1.982c.775 0 1.317-.189 1.627-.567s.465-.848.465-1.394-.155-1.005-.465-1.374-.852-.561-1.627-.561h-1.982v3.896zm6.261 2.858c0-.729.29-1.297.869-1.702s1.314-.609 2.208-.609h1.627v-.492c0-.433-.112-.784-.335-1.053s-.609-.41-1.156-.41-.938.114-1.175.342-.349.483-.349.779v.035h-1.265v-.035c0-.569.253-1.066.759-1.49s1.199-.642 2.065-.642 1.535.207 2.009.622.718 1.032.718 1.852v3.281a5 5 0 0 0 .068.841c.046.26.11.49.192.691V459h-1.231c-.063-.114-.123-.262-.177-.444a2.84 2.84 0 0 1-.096-.547c-.169.296-.442.558-.82.786s-.857.342-1.45.342c-.683 0-1.264-.194-1.743-.581s-.718-.946-.718-1.675zm1.272-.069c0 .411.118.732.355.964s.607.349 1.108.349.955-.173 1.36-.52.609-.713.609-1.1v-1.032h-1.491c-.638 0-1.121.12-1.449.362a1.15 1.15 0 0 0-.492.977zm6.221.069h1.271v.034c0 .415.153.727.458.937s.709.314 1.21.314.896-.1 1.183-.301.437-.46.437-.779-.116-.563-.348-.732-.736-.35-1.511-.533-1.39-.437-1.846-.765-.683-.796-.683-1.388.243-1.085.731-1.477 1.148-.587 1.969-.587 1.481.195 1.982.587.752.914.752 1.58v.034h-1.265v-.062c0-.342-.12-.611-.362-.806s-.606-.294-1.107-.294-.868.091-1.101.273a.84.84 0 0 0-.342.684c0 .273.132.49.397.649s.784.33 1.558.513 1.372.444 1.791.786.636.832.636 1.47-.239 1.162-.718 1.572-1.196.615-2.153.615-1.686-.207-2.187-.622-.752-.975-.752-1.668v-.034zm6.904 0h1.271v.034c0 .415.153.727.458.937s.709.314 1.21.314.896-.1 1.183-.301.437-.46.437-.779-.116-.563-.348-.732-.736-.35-1.511-.533-1.39-.437-1.846-.765-.683-.796-.683-1.388.244-1.085.731-1.477c.492-.392 1.149-.587 1.969-.587s1.481.195 1.982.587.752.914.752 1.58v.034h-1.264v-.062c0-.342-.121-.611-.363-.806s-.606-.294-1.107-.294-.868.091-1.101.273c-.227.182-.341.41-.341.684s.132.49.396.649.784.33 1.559.513 1.371.444 1.791.786.635.832.635 1.47-.239 1.162-.717 1.572-1.197.615-2.154.615-1.686-.207-2.187-.622-.752-.975-.752-1.668v-.034zm6.528-5.072h1.231l1.326 4.73.116.444.103.445h.041l.095-.445.137-.444 1.565-4.73h1.067l1.613 4.73.137.444.102.445h.041l.089-.445.117-.444 1.285-4.73h1.162L369.87 459h-.991l-1.566-4.648-.17-.547-.144-.547h-.041l-.15.547-.164.547-1.566 4.648h-.991l-2.222-7.191zm10.979 3.705v-.219c0-1.085.307-1.971.923-2.659s1.437-1.032 2.467-1.032 1.853.344 2.468 1.032.923 1.574.923 2.659v.219c0 1.084-.308 1.971-.923 2.659s-1.438 1.032-2.468 1.032-1.852-.344-2.467-1.032-.923-1.575-.923-2.659zm1.299-.219v.219c0 .743.175 1.371.526 1.886s.873.766 1.565.766 1.215-.255 1.566-.766.526-1.143.526-1.886v-.219c0-.743-.175-1.37-.526-1.88s-.873-.772-1.566-.772-1.214.257-1.565.772-.526 1.137-.526 1.88zm7.075 3.705v-7.191h1.148l.055.922h.041a2.8 2.8 0 0 1 .718-.786c.296-.228.649-.341 1.059-.341a1.53 1.53 0 0 1 .315.034 1.49 1.49 0 0 1 .232.061v1.176a2.75 2.75 0 0 0-.287-.041l-.328-.014c-.41 0-.759.107-1.046.322s-.499.48-.636.799V459h-1.271zm4.218-3.486v-.219c0-1.048.273-1.914.82-2.598s1.276-1.025 2.187-1.025c.502 0 .928.091 1.279.273s.638.415.847.711V448.5h1.272V459h-1.149l-.054-.937h-.041c-.183.297-.463.55-.841.759s-.811.315-1.313.315c-.911 0-1.64-.342-2.187-1.026s-.82-1.549-.82-2.597zm1.298 0c0 .729.16 1.342.479 1.839s.82.745 1.504.745c.456 0 .843-.126 1.162-.376s.549-.536.69-.855v-2.926c-.141-.319-.371-.603-.69-.854s-.706-.376-1.162-.376c-.684 0-1.185.248-1.504.745s-.479 1.11-.479 1.839v.219zM333.366 491v-9.953h6.166v1.08h-4.853v3.397h4.176v1.08h-4.176V491h-1.313zm7.397 0v-7.191h1.148l.055.922h.041a2.8 2.8 0 0 1 .718-.786c.296-.228.649-.341 1.059-.341a1.54 1.54 0 0 1 .315.034 1.52 1.52 0 0 1 .232.061v1.176a2.75 2.75 0 0 0-.287-.041l-.328-.014c-.41 0-.759.107-1.046.322s-.499.48-.636.799V491h-1.271zm4.217-3.486v-.219c0-1.085.297-1.971.889-2.659s1.386-1.032 2.365-1.032 1.734.321 2.263.963.793 1.511.793 2.605v.519h-5.53v-1.011h4.252v-.164c0-.52-.148-.962-.445-1.327s-.722-.546-1.278-.546c-.674 0-1.178.257-1.511.772s-.499 1.137-.499 1.88v.219c0 .743.176 1.371.527 1.886s.895.766 1.633.766c.456 0 .848-.1 1.176-.301a2.81 2.81 0 0 0 .8-.711l.82.65c-.228.342-.581.661-1.059.957s-1.053.444-1.737.444c-1.116 0-1.973-.344-2.57-1.032s-.889-1.575-.889-2.659zm7.438 0v-.219c0-1.048.273-1.914.82-2.598s1.276-1.025 2.188-1.025c.501 0 .939.105 1.312.314.379.21.659.463.841.759h.041l.055-.936h1.148v10.035h-1.271v-3.692c-.21.297-.492.536-.848.718s-.777.267-1.278.267c-.912 0-1.641-.342-2.188-1.026s-.82-1.549-.82-2.597zm1.299 0c0 .729.159 1.342.478 1.839s.821.745 1.504.745c.456 0 .843-.126 1.162-.376s.549-.536.691-.855v-2.926a2.26 2.26 0 0 0-.691-.854c-.319-.251-.706-.376-1.162-.376-.683 0-1.185.248-1.504.745s-.478 1.11-.478 1.839v.219zm7.061.936v-4.641h1.272v4.655c0 .574.127.987.383 1.237s.626.369 1.1.369c.406 0 .764-.109 1.073-.328s.552-.501.725-.847v-5.086h1.272V491h-1.149l-.055-.923h-.041c-.259.328-.578.588-.957.779-.373.187-.788.281-1.244.281-.724 0-1.303-.205-1.736-.616s-.643-1.105-.643-2.071zm7.417-.936v-.219c0-1.085.297-1.971.889-2.659s1.385-1.032 2.365-1.032 1.734.321 2.263.963.793 1.511.793 2.605v.519h-5.53v-1.011h4.252v-.164c0-.52-.149-.962-.445-1.327s-.722-.546-1.278-.546c-.675 0-1.178.257-1.511.772s-.499 1.137-.499 1.88v.219c0 .743.176 1.371.527 1.886s.895.766 1.633.766c.456 0 .848-.1 1.176-.301a2.81 2.81 0 0 0 .8-.711l.82.65c-.228.342-.581.661-1.059.957s-1.053.444-1.737.444c-1.116 0-1.973-.344-2.57-1.032s-.889-1.575-.889-2.659zm7.868 3.486v-7.191h1.149l.055.922h.041a2.78 2.78 0 0 1 .95-.772c.378-.191.795-.287 1.251-.287.724 0 1.301.207 1.729.622s.65 1.098.65 2.064V491h-1.272v-4.655c0-.574-.13-.985-.389-1.231s-.62-.376-1.094-.376c-.406 0-.764.11-1.073.328a2.26 2.26 0 0 0-.725.848V491h-1.272zm7.349-3.486v-.219c0-1.085.294-1.971.882-2.659s1.406-1.032 2.44-1.032c.957 0 1.684.259 2.181.779s.745 1.091.745 1.729v.034h-1.23v-.034a1.48 1.48 0 0 0-.404-1.025c-.269-.296-.699-.444-1.292-.444-.692 0-1.203.257-1.531.772s-.492 1.137-.492 1.88v.219c0 .743.164 1.371.492 1.886s.839.766 1.531.766c.593 0 1.023-.148 1.292-.444a1.48 1.48 0 0 0 .404-1.026v-.034h1.23v.034c0 .638-.248 1.217-.745 1.737s-1.224.772-2.181.772c-1.034 0-1.848-.344-2.44-1.032s-.882-1.575-.882-2.659zm7.062 6.33v-1.08c.118.036.25.066.396.089a2.72 2.72 0 0 0 .424.034 1.13 1.13 0 0 0 .834-.363c.237-.237.488-.754.752-1.551v-.007l-2.68-7.157h1.231l1.702 4.73.171.513.13.444h.041l.136-.444.171-.513 1.586-4.73h1.203l-2.919 8.148c-.228.638-.531 1.135-.909 1.49s-.834.533-1.381.533c-.182 0-.344-.011-.485-.034a2.33 2.33 0 0 1-.403-.102zm137.982-6.201v-.957l3.555-3.829c.474-.501.831-.945 1.073-1.333a2.34 2.34 0 0 0 .362-1.264 1.7 1.7 0 0 0-.465-1.19c-.305-.337-.731-.506-1.278-.506s-1.009.18-1.388.54c-.373.361-.56.86-.56 1.498v.068h-1.299v-.068c0-.912.31-1.659.93-2.243s1.397-.875 2.317-.875c.912 0 1.645.269 2.201.807s.841 1.171.841 1.9c0 .648-.182 1.235-.547 1.764a13.48 13.48 0 0 1-1.333 1.62l-2.782 2.933h4.936v1.135h-6.563zm8.244-.705c0-.237.075-.437.226-.601s.376-.253.663-.253.506.084.656.253a.84.84 0 0 1 .233.601.87.87 0 0 1-.233.609c-.15.164-.369.246-.656.246s-.508-.082-.663-.246a.88.88 0 0 1-.226-.609zm7.821.705v-2.721-.356-4.778h-.083l-3.028 4.437h3.459.527 1.75v1.08h-7.233v-.862l4.662-6.754h1.176v9.954h-1.23zm7.157-4.663v-.628c0-1.532.392-2.726 1.176-3.582s1.804-1.286 3.048-1.286c1.126 0 2.008.303 2.646.91.642.601 1 1.312 1.073 2.132l.007.076h-1.313v-.069c0-.456-.211-.891-.635-1.305s-1.021-.623-1.791-.623c-.871 0-1.57.333-2.099.999s-.786 1.581-.786 2.748v.628c0 1.167.262 2.083.786 2.749s1.272.998 2.229.998c.501 0 .934-.053 1.298-.158a3.49 3.49 0 0 0 1.039-.499v-2.324h-2.474v-1.08h3.746v3.883c-.31.319-.773.615-1.388.889s-1.356.41-2.221.41c-1.322 0-2.377-.429-3.165-1.286s-1.176-2.05-1.176-3.582zm9.85 4.663v-10.5h1.272v4.197c.255-.31.579-.558.971-.745s.82-.281 1.285-.281c.67 0 1.219.208 1.647.623s.65 1.098.65 2.064v4.642h-1.272v-4.656c0-.574-.13-.984-.39-1.23s-.619-.376-1.093-.376c-.406 0-.764.109-1.074.328s-.551.501-.724.848v5.086h-1.272zm7.246 0v-.93l4.129-5.223h-4.074v-1.039h5.606v.909l-4.143 5.244h4.348v1.039h-5.866z" fill="#dbdbdb"/><path d="M414.62 389l3.78-10.015h1.525L423.732 389h-1.668l-2.672-7.355-.144-.445-.102-.43h-.062l-.109.437-.137.438-2.693 7.355h-1.525zm1.798-2.461l.431-1.244h4.587l.423 1.244h-5.441zm7.813-1.032v-.219c0-1.057.278-1.925.834-2.604s1.299-1.019 2.215-1.019c.483 0 .898.087 1.244.26s.62.401.821.683v-4.094h1.517V389h-1.408l-.048-.902h-.041c-.168.291-.437.537-.806.738s-.789.301-1.272.301c-.934 0-1.677-.34-2.228-1.019s-.828-1.554-.828-2.611zm1.559.034c0 .684.148 1.253.444 1.709.301.456.764.684 1.388.684.424 0 .782-.114 1.073-.342a2.07 2.07 0 0 0 .643-.807v-2.775a2.05 2.05 0 0 0-.636-.793c-.287-.233-.645-.349-1.073-.349-.624 0-1.087.228-1.388.684s-.451 1.025-.451 1.709v.28zm6.604-.034v-.219c0-1.057.278-1.925.834-2.604s1.298-1.019 2.214-1.019c.483 0 .898.087 1.245.26s.619.401.82.683v-4.094h1.517V389h-1.408l-.048-.902h-.041c-.168.291-.437.537-.806.738s-.789.301-1.272.301c-.934 0-1.677-.34-2.228-1.019s-.827-1.554-.827-2.611zm1.558.034c0 .684.148 1.253.444 1.709s.764.684 1.388.684c.424 0 .782-.114 1.073-.342a2.07 2.07 0 0 0 .643-.807v-2.775a2.05 2.05 0 0 0-.636-.793c-.287-.233-.645-.349-1.073-.349-.624 0-1.087.228-1.388.684s-.451 1.025-.451 1.709v.28zM444.548 389v-9.953h1.654l4.197 6.706.24.403c.073.132.134.26.184.383h.055l-.014-.451v-.458-6.583h1.463V389h-1.675l-4.176-6.686-.24-.41-.191-.383h-.048l.007.465.007.458V389h-1.463zm9.461-3.493v-.219c0-1.094.31-1.982.929-2.666s1.431-1.025 2.434-1.025 1.78.321 2.331.964.827 1.506.827 2.604v.595h-5.537v-1.101h4.02v-.157c0-.479-.139-.884-.417-1.217s-.675-.506-1.19-.506c-.62 0-1.084.235-1.394.704s-.465 1.055-.465 1.771v.294c0 .706.164 1.294.492 1.764.333.464.836.697 1.511.697.433 0 .804-.098 1.114-.294a2.73 2.73 0 0 0 .766-.691l1.025.746c-.228.373-.592.706-1.094.998-.496.291-1.096.437-1.798.437-1.134 0-2.012-.342-2.631-1.025s-.923-1.575-.923-2.673zm7.02-2.564v-1.141h4.211v1.141h-4.211zm1.217 4.157v-4.649-.205-2.194h1.518v7.034c0 .319.063.547.191.684s.317.198.567.198c.124 0 .242-.014.356-.041a2.68 2.68 0 0 0 .355-.11V389c-.114.055-.266.103-.458.144s-.401.061-.629.061c-.578 0-1.041-.169-1.387-.506s-.513-.875-.513-1.599zm3.473-5.298h1.504l1.237 4.498.116.465.096.458h.041l.089-.458a4.47 4.47 0 0 1 .13-.465l1.435-4.498h1.367l1.484 4.498c.064.182.109.337.136.465l.096.458h.041l.089-.458.109-.465 1.21-4.498h1.368L474.065 389h-1.305l-1.47-4.443-.157-.54-.13-.54h-.041l-.137.54-.15.54-1.443 4.443h-1.312l-2.201-7.198zm11.259 3.705v-.219c0-1.098.319-1.987.957-2.666.642-.684 1.49-1.025 2.543-1.025s1.898.341 2.536 1.025c.638.679.957 1.568.957 2.666v.219c0 1.103-.319 1.996-.957 2.68-.638.679-1.484 1.018-2.536 1.018s-1.901-.339-2.543-1.018c-.638-.684-.957-1.577-.957-2.68zm1.558-.253v.294c0 .72.164 1.308.492 1.764s.812.683 1.45.683c.633 0 1.114-.228 1.442-.683s.492-1.044.492-1.764v-.294c0-.72-.166-1.308-.499-1.764s-.807-.69-1.435-.69c-.634 0-1.117.23-1.45.69s-.492 1.044-.492 1.764zm6.966 3.746v-7.198h1.408l.055.875h.041c.168-.287.394-.538.677-.752a1.57 1.57 0 0 1 .991-.328c.096 0 .196.011.301.034s.184.043.225.061v1.374c-.086-.018-.178-.031-.273-.041s-.203-.02-.322-.02a1.57 1.57 0 0 0-.97.307 1.89 1.89 0 0 0-.609.766V389h-1.524zm4.881 0v-10.486h1.524v6.35l2.844-3.062h1.709l-4.553 4.846V389h-1.524zm4.6 0l-2.693-3.603.964-1.059 3.527 4.662h-1.798z" fill="#0c0c0c"/><path d="M521.99 536.338v-.629c0-1.531.392-2.725 1.176-3.582s1.798-1.285 3.028-1.285 2.238.428 3.022 1.285 1.182 2.051 1.182 3.582v.629c0 1.531-.394 2.725-1.182 3.582s-1.791 1.285-3.022 1.285-2.24-.428-3.028-1.285-1.176-2.051-1.176-3.582zm1.326 0c0 1.167.262 2.083.787 2.748s1.225.998 2.091.998a2.52 2.52 0 0 0 2.085-.998c.529-.665.793-1.581.793-2.748v-.629c0-1.167-.264-2.083-.793-2.748a2.52 2.52 0 0 0-2.085-.998c-.866 0-1.563.333-2.091.998s-.787 1.581-.787 2.748v.629zm8.88 4.662v-10.5h1.272v6.617l3.076-3.308h1.442l-4.518 4.798V541h-1.272zm4.635 0l-2.803-3.719.793-.875 3.5 4.594h-1.49zm1.996-2.119c0-.729.29-1.297.868-1.702s1.315-.609 2.208-.609h1.627v-.492c0-.433-.111-.784-.335-1.053s-.608-.41-1.155-.41-.939.114-1.176.342-.348.483-.348.779v.035h-1.265v-.035c0-.569.253-1.066.759-1.49s1.198-.642 2.064-.642 1.536.207 2.01.622.718 1.032.718 1.852v3.281a5 5 0 0 0 .068.841c.046.26.109.49.192.691V541h-1.231c-.064-.114-.123-.262-.178-.444a2.84 2.84 0 0 1-.095-.547c-.169.296-.442.558-.821.786-.373.228-.856.342-1.449.342-.684 0-1.265-.194-1.743-.581s-.718-.946-.718-1.675zm1.272-.069c0 .411.118.732.355.964s.606.349 1.108.349a2.04 2.04 0 0 0 1.36-.52c.405-.346.608-.713.608-1.1v-1.032h-1.49c-.638 0-1.121.12-1.449.362a1.15 1.15 0 0 0-.492.977zm5.906 5.032v-1.08a2.95 2.95 0 0 0 .396.089c.146.022.287.034.424.034a1.13 1.13 0 0 0 .834-.363c.237-.237.488-.754.752-1.551v-.007l-2.68-7.157h1.231l1.702 4.73.171.513.13.444h.041l.137-.444.17-.513 1.586-4.73h1.204l-2.919 8.148c-.228.638-.531 1.135-.91 1.49-.373.356-.834.533-1.38.533a3.05 3.05 0 0 1-.486-.034c-.141-.022-.276-.057-.403-.102z" fill="#3c3b3b"/><path d="M363.99 536.338v-.629c0-1.531.392-2.725 1.176-3.582a3.85 3.85 0 0 1 2.96-1.285c1.185 0 2.112.326 2.782.977s1.012 1.429 1.012 2.345v.068h-1.313v-.068c0-.633-.205-1.157-.615-1.572s-1.032-.629-1.866-.629a2.54 2.54 0 0 0-2.017.923c-.528.615-.793 1.556-.793 2.823v.629c0 1.167.262 2.083.787 2.748s1.203.998 2.023.998c.784 0 1.376-.212 1.777-.636s.634-.945.698-1.565l.006-.069h1.313l-.007.069a3.85 3.85 0 0 1-1.073 2.345c-.625.651-1.529.977-2.714.977a3.85 3.85 0 0 1-2.96-1.285c-.784-.857-1.176-2.051-1.176-3.582zm9.126 2.543c0-.729.29-1.297.868-1.702s1.315-.609 2.208-.609h1.627v-.492c0-.433-.111-.784-.335-1.053s-.608-.41-1.155-.41-.939.114-1.176.342-.348.483-.348.779v.035h-1.265v-.035c0-.569.253-1.066.759-1.49s1.198-.642 2.064-.642 1.536.207 2.01.622.718 1.032.718 1.852v3.281a5 5 0 0 0 .068.841c.046.26.11.49.192.691V541h-1.231c-.064-.114-.123-.262-.178-.444a2.84 2.84 0 0 1-.095-.547c-.169.296-.442.558-.821.786-.373.228-.856.342-1.449.342-.683 0-1.265-.194-1.743-.581s-.718-.946-.718-1.675zm1.272-.069c0 .411.118.732.355.964s.606.349 1.108.349a2.04 2.04 0 0 0 1.36-.52c.406-.346.608-.713.608-1.1v-1.032h-1.49c-.638 0-1.121.12-1.449.362a1.15 1.15 0 0 0-.492.977zm6.685 2.188v-7.191h1.149l.054.922h.041a2.79 2.79 0 0 1 .951-.772c.378-.191.795-.287 1.251-.287.724 0 1.301.207 1.729.622s.649 1.098.649 2.064V541h-1.271v-4.655c0-.574-.13-.985-.39-1.231s-.619-.376-1.093-.376a1.82 1.82 0 0 0-1.074.328c-.31.219-.551.502-.724.848V541h-1.272zm7.349-3.486v-.219c0-1.085.294-1.971.882-2.659s1.406-1.032 2.44-1.032c.957 0 1.684.259 2.181.779s.745 1.091.745 1.729v.034h-1.231v-.034c0-.387-.134-.729-.403-1.025s-.699-.444-1.292-.444c-.693 0-1.203.257-1.531.772s-.492 1.137-.492 1.88v.219c0 .743.164 1.371.492 1.886s.838.766 1.531.766c.593 0 1.023-.148 1.292-.444a1.48 1.48 0 0 0 .403-1.026v-.034h1.231v.034c0 .638-.248 1.217-.745 1.737s-1.224.772-2.181.772c-1.034 0-1.848-.344-2.44-1.032s-.882-1.575-.882-2.659zm7.301 0v-.219c0-1.085.296-1.971.888-2.659.597-.688 1.386-1.032 2.366-1.032s1.734.321 2.262.963.793 1.511.793 2.605v.519h-5.53v-1.011h4.252v-.164c0-.52-.148-.962-.444-1.327s-.723-.546-1.279-.546c-.674 0-1.178.257-1.51.772s-.5 1.137-.5 1.88v.219c0 .743.176 1.371.527 1.886s.895.766 1.634.766c.455 0 .847-.1 1.175-.301s.595-.437.8-.711l.821.65c-.228.342-.582.661-1.06.957s-1.053.444-1.736.444c-1.117 0-1.974-.344-2.571-1.032-.592-.688-.888-1.575-.888-2.659zm7.923 3.486v-10.5h1.271V541h-1.271z" fill-opacity=".81" class="E"/><path stroke="#e3e3e3" d="M460.454 512v50" class="D"/><path d="M587.297 482.486l.344-.343 2.011 2.028 2.011-2.028.344.343-2.355 2.372-2.355-2.372z" class="C"/><defs><filter id="A" x="15.564" y="16" width="228" height="64" filterUnits="userSpaceOnUse" class="F"><feFlood flood-opacity="0" result="A"/><feColorMatrix in="SourceAlpha" values="0 0 0 0 0 0 0 0 0 0 0 0 0 0 0 0 0 0 127 0" result="B"/><feMorphology radius="1" operator="dilate" in="SourceAlpha"/><feOffset dy="1"/><feGaussianBlur stdDeviation="2.5"/><feComposite in2="B" operator="out"/><feColorMatrix values="0 0 0 0 0 0 0 0 0 0 0 0 0 0 0 0 0 0 0.1 0"/><feBlend in2="A"/><feBlend in="SourceGraphic"/></filter><filter id="B" x="296.204" y="351" width="327" height="225" filterUnits="userSpaceOnUse" class="F"><feFlood flood-opacity="0" result="A"/><feColorMatrix in="SourceAlpha" values="0 0 0 0 0 0 0 0 0 0 0 0 0 0 0 0 0 0 127 0" result="B"/><feOffset dy="4"/><feGaussianBlur stdDeviation="5"/><feComposite in2="B" operator="out"/><feColorMatrix values="0 0 0 0 0 0 0 0 0 0 0 0 0 0 0 0 0 0 0.25 0"/><feBlend in2="A"/><feBlend in="SourceGraphic"/></filter><linearGradient id="C" x1="128" y1="0" x2="128" y2="533" gradientUnits="userSpaceOnUse"><stop stop-color="#2f67ff"/><stop offset="1" stop-color="#ff5f9b"/></linearGradient><linearGradient id="D" x1="156.548" y1="450.946" x2="306.204" y2="450.946" gradientUnits="userSpaceOnUse"><stop stop-color="#2f67ff"/><stop offset="1" stop-color="#c262b8"/></linearGradient><clipPath id="E"><path transform="translate(32.563 154)" d="M0 0h15v15H0z" class="B"/></clipPath><clipPath id="F"><path transform="translate(32.563 247)" d="M0 0h13v13H0z" class="B"/></clipPath><clipPath id="G"><path transform="translate(32.563 278)" d="M0 0h13v13H0z" class="B"/></clipPath><clipPath id="H"><path transform="translate(32.563 309)" d="M0 0h13v13H0z" class="B"/></clipPath><clipPath id="I"><path transform="translate(32.563 340)" d="M0 0h13v13H0z" class="B"/></clipPath><clipPath id="J"><path transform="translate(32.563 372)" d="M0 0h13v13H0z" class="B"/></clipPath><clipPath id="K"><path transform="translate(32.563 439)" d="M0 0h15v15H0z" class="B"/></clipPath><clipPath id="L"><path transform="translate(225.563 220)" d="M0 0h9v9H0z" class="B"/></clipPath><path id="M" d="M41.936 61.525v.823"/><path id="N" d="M37.98 257.292c0-.596.487-1.084 1.083-1.084s1.083.488 1.083 1.084-.487 1.083-1.083 1.083-1.083-.487-1.083-1.083zm4.528-2.297c.32-.32.32-.834 0-1.148a4.88 4.88 0 0 0-6.895 0c-.32.319-.32.834 0 1.148s.834.32 1.148 0a3.26 3.26 0 0 1 4.599 0c.157.157.368.238.574.238s.417-.081.574-.238zm2.8-2.53c.325-.308.336-.823.027-1.148l-.146-.152c-1.636-1.635-3.813-2.54-6.126-2.54s-4.49.899-6.126 2.535l-.146.152c-.309.325-.298.839.027 1.148s.84.298 1.148-.027l.119-.125a6.99 6.99 0 0 1 4.978-2.063c1.88 0 3.651.731 4.983 2.063l.119.12c.157.167.374.249.585.249.2 0 .406-.076.563-.222l-.005.01z"/><path id="O" d="M229.496 168.219l-.531-.532 3.134-3.108-3.134-3.107.531-.532 3.666 3.639-3.666 3.64z"/></defs></svg>