<svg xmlns="http://www.w3.org/2000/svg" width="530" height="533" fill="none" xmlns:v="https://vecta.io/nano"><style><![CDATA[.B{fill:#fff}.C{fill:#575757}.D{stroke-width:.5}.E{fill:#b8b8b8}.F{fill:#0c0c0c}.G{fill:#f85550}.H{stroke:#f2f2f2}.I{fill-rule:evenodd}.J{color-interpolation-filters:sRGB}]]></style><g filter="url(#A)" class="B"><rect x="329.143" y="92.023" width="190" height="83" rx="7"/></g><path stroke="#e3e3e3" d="M329.143 143.773h189" class="D"/><path d="M388.724 128.023v-4.977h1.757c.583 0 1.031.139 1.343.417s.468.649.468 1.111-.156.835-.468 1.118-.76.424-1.343.424h-1.056v1.907h-.701zm.701-2.492h1.056c.412 0 .701-.092.865-.277s.249-.413.249-.68a.95.95 0 0 0-.249-.67c-.166-.18-.453-.273-.865-.273h-1.056v1.9zm3.51 1.115v-2.345h.677v2.351c0 .308.07.528.212.66s.347.198.612.198c.221 0 .415-.057.584-.171a1.24 1.24 0 0 0 .4-.447v-2.591h.68v3.722h-.619l-.027-.496h-.017c-.146.18-.322.319-.53.417s-.433.147-.683.147c-.392 0-.706-.11-.94-.331s-.349-.595-.349-1.114zm4.177 1.377v-3.722h.615l.031.492h.017c.143-.178.314-.316.513-.414s.419-.147.663-.147c.262 0 .487.052.676.154a.98.98 0 0 1 .435.482h.017c.166-.225.352-.387.557-.485a1.57 1.57 0 0 1 .697-.151c.403 0 .719.112.947.335s.345.592.345 1.111v2.345h-.677v-2.352c-.002-.307-.072-.527-.208-.659s-.327-.199-.578-.199a.95.95 0 0 0-.567.175 1.28 1.28 0 0 0-.387.444v2.591h-.68v-2.352c0-.307-.068-.527-.205-.659s-.33-.199-.581-.199a.95.95 0 0 0-.567.175 1.28 1.28 0 0 0-.386.444v2.591h-.677zm6.494 1.422v-5.144h.615l.031.485h.017c.1-.153.254-.282.461-.39s.449-.164.725-.164c.492 0 .885.177 1.179.53s.445.801.445 1.343v.11c0 .542-.148.991-.445 1.347s-.687.529-1.179.529c-.276 0-.511-.045-.707-.136s-.349-.218-.465-.373v1.863h-.677zm.677-2.553c.077.164.204.311.379.441s.389.191.639.191c.374 0 .647-.125.821-.376s.263-.564.263-.933v-.11c0-.366-.088-.675-.263-.926s-.447-.379-.821-.379c-.25 0-.463.065-.639.195a1.15 1.15 0 0 0-.379.437v1.46zm3.329-.711v-.622h2.027v.622h-2.027zm2.799.16v-3.295h.701v3.295c0 .397.111.692.335.886s.517.29.882.29.655-.097.878-.29.338-.489.338-.886v-3.295h.701v3.295c0 .595-.187 1.042-.56 1.34s-.824.444-1.357.444-.987-.148-1.361-.444-.557-.745-.557-1.34zm4.871 1.682v-3.722h.615l.031.492h.017c.146-.18.321-.318.526-.414s.433-.147.684-.147c.394 0 .707.111.94.332s.352.592.352 1.114v2.345h-.68v-2.352c0-.307-.072-.527-.216-.659s-.343-.199-.605-.199c-.223 0-.419.059-.588.175a1.24 1.24 0 0 0-.4.444v2.591h-.676zm3.927-1.808v-.11c0-.542.147-.99.441-1.343s.69-.53 1.183-.53c.275 0 .51.047.704.141s.352.214.468.369v-1.969h.677v5.25h-.616l-.03-.485h-.017c-.101.152-.255.283-.462.393s-.449.16-.724.16c-.493 0-.887-.176-1.183-.529s-.441-.805-.441-1.347zm.694 0c0 .369.086.68.26.933s.45.376.823.376c.251 0 .464-.064.639-.191s.302-.277.38-.441v-1.46c-.078-.164-.204-.31-.38-.437s-.388-.195-.639-.195c-.373 0-.648.126-.823.379s-.26.56-.26.926v.11zm3.578 0v-.11c0-.56.161-1.018.482-1.374s.75-.533 1.279-.533.942.167 1.227.499.43.782.43 1.347v.287h-2.997v-.543h2.31v.01c0-.299-.074-.546-.222-.742s-.395-.297-.748-.297-.616.13-.8.389-.274.579-.274.957v.11c0 .378.096.698.288.96s.492.39.895.39c.248 0 .461-.05.639-.15a1.43 1.43 0 0 0 .434-.359l.438.369c-.121.173-.311.334-.571.482s-.571.218-.94.218c-.604 0-1.066-.177-1.388-.533s-.482-.814-.482-1.377zm4.187 1.808v-3.722h.616l.03.482h.018a1.5 1.5 0 0 1 .393-.407c.164-.119.358-.178.584-.178a.87.87 0 0 1 .164.017l.123.031v.646a1.39 1.39 0 0 0-.15-.02 1.88 1.88 0 0 0-.175-.007.97.97 0 0 0-.574.167c-.157.112-.274.25-.352.414v2.577h-.677zm2.396.971l.394-.52a1.45 1.45 0 0 0 .475.311c.205.089.434.133.687.133.337 0 .602-.087.796-.263s.294-.418.294-.735v-.338a1.24 1.24 0 0 1-.468.373c-.194.091-.429.136-.704.136-.493 0-.887-.176-1.183-.529s-.441-.805-.441-1.347v-.11c0-.542.147-.99.441-1.343s.69-.53 1.183-.53c.275 0 .517.055.724.164s.361.237.462.39h.017l.03-.485h.616v3.619c0 .513-.162.906-.486 1.18s-.744.413-1.261.413c-.321 0-.617-.049-.889-.147a2.37 2.37 0 0 1-.687-.372zm.544-2.779c0 .369.086.68.26.933s.45.376.823.376c.251 0 .464-.064.64-.191a1.16 1.16 0 0 0 .379-.441v-1.46a1.16 1.16 0 0 0-.379-.437c-.176-.13-.389-.195-.64-.195-.373 0-.648.126-.823.379s-.26.56-.26.926v.11zm3.794 1.808v-3.722h.615l.031.482h.017a1.5 1.5 0 0 1 .393-.407c.164-.119.359-.178.584-.178a.87.87 0 0 1 .165.017l.123.031v.646a1.38 1.38 0 0 0-.151-.02 1.84 1.84 0 0 0-.174-.007c-.226 0-.417.056-.574.167a1.05 1.05 0 0 0-.352.414v2.577h-.677zm2.245-1.808v-.11c0-.56.167-1.018.499-1.374s.781-.533 1.337-.533 1.004.178 1.336.533.503.814.503 1.374v.11c0 .563-.168 1.022-.503 1.377s-.778.533-1.336.533-1.002-.177-1.337-.533-.499-.814-.499-1.377zm.694-.11v.11c0 .376.096.694.287.953s.477.39.855.39.666-.13.858-.39.287-.577.287-.953v-.11c0-.373-.096-.69-.287-.95s-.478-.389-.858-.389-.663.13-.855.389-.287.577-.287.95zm3.746.541v-2.345h.677v2.351c0 .308.071.528.212.66s.348.198.612.198c.221 0 .416-.057.584-.171a1.25 1.25 0 0 0 .4-.447v-2.591h.68v3.722h-.618l-.028-.496h-.017a1.49 1.49 0 0 1-.529.417 1.57 1.57 0 0 1-.684.147c-.392 0-.705-.11-.94-.331s-.349-.595-.349-1.114zm4.177 1.377v-3.722h.615l.031.492h.017a1.48 1.48 0 0 1 .527-.414c.205-.098.433-.147.683-.147.394 0 .708.111.94.332s.352.592.352 1.114v2.345h-.68v-2.352c0-.307-.072-.527-.215-.659s-.343-.199-.605-.199a1.01 1.01 0 0 0-.588.175 1.23 1.23 0 0 0-.4.444v2.591h-.677zm3.927-1.808v-.11c0-.542.147-.99.441-1.343s.691-.53 1.183-.53c.276 0 .51.047.704.141s.352.214.468.369v-1.969h.677v5.25h-.615l-.031-.485h-.017a1.22 1.22 0 0 1-.461.393c-.208.107-.449.16-.725.16-.492 0-.886-.176-1.183-.529s-.441-.805-.441-1.347zm.694 0c0 .369.087.68.26.933s.45.376.824.376c.25 0 .463-.064.639-.191s.302-.277.379-.441v-1.46a1.15 1.15 0 0 0-.379-.437c-.176-.13-.389-.195-.639-.195-.374 0-.649.126-.824.379s-.26.56-.26.926v.11zm-36.078-18.192v-5.688h.965l2.559 3.903a2.1 2.1 0 0 1 .148.265l.121.25h.039l-.019-.324-.008-.328v-3.766h.828v5.688h-.969l-2.578-3.922-.144-.234-.11-.219h-.035l.016.266.007.265v3.844h-.82zm5.649-1.254a1.15 1.15 0 0 1 .554-1.019c.37-.245.839-.368 1.407-.368h.984v-.336c0-.224-.069-.405-.207-.543s-.369-.211-.699-.211-.564.064-.707.192-.215.272-.215.441v.02h-.871v-.02c0-.346.164-.648.492-.906s.769-.387 1.324-.387.986.119 1.293.356.461.59.461 1.058v2.039a2.83 2.83 0 0 0 .039.481 2.1 2.1 0 0 0 .113.394v.063h-.843c-.039-.068-.075-.155-.106-.262a1.7 1.7 0 0 1-.055-.32c-.104.172-.274.325-.511.461s-.542.199-.914.199c-.425 0-.788-.115-1.09-.344s-.449-.558-.449-.988zm.867-.039c0 .224.07.4.211.527s.364.188.664.188a1.32 1.32 0 0 0 .828-.289c.25-.193.375-.397.375-.614v-.57h-.906c-.383 0-.675.069-.875.207s-.297.319-.297.551zm4.113 1.293v-4.273h.805l.031.554h.02a1.67 1.67 0 0 1 .578-.469c.226-.109.476-.164.75-.164.307 0 .57.06.789.18s.388.302.5.555h.015c.185-.258.397-.444.637-.559s.512-.176.809-.176c.463 0 .829.131 1.097.391s.403.69.403 1.297v2.664h-.871v-2.672c-.003-.349-.079-.598-.227-.746s-.359-.223-.633-.223c-.237 0-.444.065-.621.196a1.47 1.47 0 0 0-.43.5v2.945h-.871v-2.672c0-.349-.075-.598-.226-.746s-.361-.223-.637-.223c-.237 0-.444.065-.621.196a1.46 1.46 0 0 0-.426.5v2.945h-.871zm7.305-2.074v-.125c0-.643.189-1.17.566-1.578s.875-.614 1.492-.614c.625 0 1.106.192 1.442.575s.508.898.508 1.546v.352h-3.442v-.656h2.563l-.004-.004c0-.31-.081-.576-.242-.797s-.438-.336-.829-.336c-.38 0-.671.146-.875.438s-.304.649-.304 1.074v.125c0 .424.106.782.32 1.074s.543.437.988.437c.276 0 .515-.057.715-.171s.361-.252.481-.411l.566.461c-.138.201-.359.384-.664.551s-.668.25-1.098.25c-.705 0-1.246-.203-1.621-.609s-.562-.936-.562-1.582z" class="F"/><path d="M462.536 157.675v-.28c0-.771.209-1.371.626-1.802s.952-.649 1.606-.649 1.186.216 1.603.649.629 1.031.629 1.802v.28c0 .77-.21 1.372-.629 1.804s-.951.646-1.603.646-1.189-.215-1.606-.646-.626-1.034-.626-1.804zm.708 0c0 .574.139 1.025.417 1.353s.649.489 1.107.489.826-.163 1.104-.489.42-.779.42-1.353v-.28c0-.575-.14-1.025-.42-1.351s-.646-.492-1.104-.492-.827.164-1.107.492-.417.776-.417 1.351v.28zm4.655 2.348v-5.25h.677v3.213l1.62-1.685h.803l-2.423 2.44v1.282h-.677zm2.492 0l-1.521-1.965.447-.465 1.891 2.43h-.817zm1.069-1.094a1 1 0 0 1 .472-.882c.315-.212.713-.318 1.196-.318h.899v-.293c0-.206-.062-.372-.188-.499s-.336-.195-.639-.195-.516.058-.646.174-.195.247-.195.4v.017h-.676v-.017c0-.299.137-.559.413-.783s.653-.335 1.125-.335.834.104 1.093.311.39.516.39.927v1.767c0 .148.011.288.034.42s.06.245.103.345v.055h-.656a1.04 1.04 0 0 1-.093-.232 1.45 1.45 0 0 1-.051-.284c-.093.153-.244.288-.451.407s-.475.177-.803.177c-.367 0-.681-.099-.94-.297s-.387-.489-.387-.865zm.677-.034c0 .205.065.366.195.482s.336.171.612.171a1.19 1.19 0 0 0 .748-.26c.224-.175.335-.36.335-.554v-.516h-.827c-.348 0-.613.062-.793.185s-.27.285-.27.492zm3.203 2.55v-.581a1.61 1.61 0 0 0 .212.044c.077.012.152.017.225.017.174 0 .316-.043.428-.13s.25-.354.41-.803v-.003l-1.436-3.688h.677l.909 2.416.096.277c.029.089.052.179.068.27h.021a1.84 1.84 0 0 1 .068-.27l.099-.277.855-2.416h.642l-1.569 4.2c-.123.319-.286.568-.488.746s-.448.266-.742.266a1.81 1.81 0 0 1-.26-.017c-.075-.011-.147-.028-.215-.051z" fill="#3c3b3b"/><path d="M364.536 157.675v-.28c0-.771.209-1.371.626-1.802s.94-.649 1.568-.649 1.114.165 1.446.495.525.724.571 1.186l.003.035h-.7l-.004-.035c-.027-.266-.144-.511-.352-.734s-.528-.339-.964-.339-.789.164-1.069.492-.417.776-.417 1.351v.28c0 .574.139 1.025.417 1.353s.637.489 1.069.489.757-.112.964-.335.325-.472.352-.738l.004-.034h.7l-.003.034c-.046.462-.236.859-.571 1.189s-.814.492-1.446.492a2.09 2.09 0 0 1-1.568-.646c-.417-.432-.626-1.034-.626-1.804zm4.823 1.254a1 1 0 0 1 .472-.882c.314-.212.713-.318 1.196-.318h.899v-.293a.68.68 0 0 0-.188-.499c-.123-.13-.336-.195-.639-.195s-.516.058-.646.174-.195.247-.195.4v.017h-.677v-.017c0-.299.138-.559.414-.783s.652-.335 1.124-.335.834.104 1.094.311.39.516.39.927v1.767c0 .148.011.288.034.42s.059.245.102.345v.055h-.656c-.034-.059-.065-.137-.092-.232s-.045-.191-.052-.284c-.093.153-.243.288-.451.407s-.475.177-.803.177c-.367 0-.68-.099-.94-.297s-.386-.489-.386-.865zm.677-.034c0 .205.065.366.194.482s.337.171.612.171.526-.087.749-.26.335-.36.335-.554v-.516h-.827c-.349 0-.613.062-.793.185s-.27.285-.27.492zm3.575 1.128v-3.722h.615l.031.492h.017c.146-.18.321-.318.526-.414s.433-.147.684-.147c.394 0 .707.111.94.332s.352.592.352 1.114v2.345h-.68v-2.352c0-.307-.072-.527-.216-.659s-.343-.199-.605-.199a1.01 1.01 0 0 0-.587.175 1.23 1.23 0 0 0-.4.444v2.591h-.677zm3.927-1.808v-.11c0-.56.16-1.018.479-1.374s.762-.533 1.322-.533c.52 0 .914.134 1.183.4s.407.564.407.892v.017h-.66v-.017a.69.69 0 0 0-.222-.506c-.146-.148-.382-.222-.708-.222-.38 0-.66.13-.84.39s-.267.577-.267.953v.11c0 .378.089.697.267.957s.46.39.84.39c.326 0 .562-.073.708-.219a.7.7 0 0 0 .222-.51v-.017h.66v.017c0 .329-.136.626-.407.893s-.663.399-1.183.399c-.56 0-1.001-.177-1.322-.533s-.479-.814-.479-1.377zm3.938 0v-.11c0-.56.16-1.018.482-1.374s.749-.533 1.278-.533.942.167 1.227.499.431.782.431 1.347v.287h-2.998v-.543h2.311v.01c0-.299-.075-.546-.223-.742s-.395-.297-.748-.297-.615.13-.8.389-.273.579-.273.957v.11c0 .378.095.698.287.96s.492.39.895.39a1.28 1.28 0 0 0 .639-.15 1.43 1.43 0 0 0 .434-.359l.438.369c-.121.173-.311.334-.571.482s-.571.218-.94.218c-.604 0-1.066-.177-1.387-.533s-.482-.814-.482-1.377zm4.214 1.808v-5.25h.677v5.25h-.677z" fill-opacity=".81" class="G"/><g class="D"><path stroke="#e3e3e3" d="M424.393 144.023v31"/><rect x=".25" y=".25" width="255.5" height="532.5" rx="9.75" stroke="url(#C)" class="B"/></g><path d="M38.001 502.23v6.949a1.18 1.18 0 0 1-1.184 1.184h-4.955c-.624 0-1.184-.504-1.184-1.091v-7.136c0-.557.533-1.09 1.091-1.09h5.141a1.11 1.11 0 0 1 .766.355c.179.213.324.453.324.829h0zm8.631 6.543v7.136c0 .558-.533 1.091-1.091 1.091H40.4c-.563 0-1.09-.539-1.09-1.185v-6.948a1.18 1.18 0 0 1 1.184-1.184h4.955c.644 0 1.184.516 1.184 1.09h0zm-8.631 4.082v2.961a1.17 1.17 0 0 1-.093.468c-.171.379-.538.716-.998.716h-5.141c-.558 0-1.09-.533-1.09-1.091v-3.147c0-.59.558-1.09 1.184-1.09h4.955a1.18 1.18 0 0 1 1.184 1.184v-.001zm8.631-10.719v3.148c0 .563-.538 1.09-1.184 1.09h-4.955a1.18 1.18 0 0 1-1.184-1.184v-2.96c0-.347.144-.623.306-.816a1.18 1.18 0 0 1 .785-.368h5.141c.558 0 1.09.533 1.09 1.09h0z" class="G I"/><path d="M120.103 509.023c0-.315.256-.655.685-.655.824 0 .824 1.309 0 1.309-.219 0-.355-.067-.476-.178-.093-.086-.209-.312-.209-.476zm-1.994.467v4.332c0 1.643 1.539 3.178 3.178 3.178h4.331c.488 0 .96-.185 1.299-.353.286-.142.771-.477.95-.702l.351-.459c.372-.572.548-1.21.548-1.976v-3.646c0-1.146-.412-1.955-.99-2.532s-1.38-.989-2.532-.989h-3.646c-1.127 0-1.656.296-2.417.885-.533.413-1.073 1.517-1.073 2.262h.001zm7.977-7.821c0 1.072 1.063.479 2.653 1.055 2.202.799 3.757 2.748 3.956 5.112.042.505-.05 1.187.745 1.187.322 0 .623-.301.623-.623 0-1.183-.236-2.258-.685-3.148l-.301-.571c-1.106-2.034-3.677-3.635-6.025-3.635h-.343c-.322 0-.623.3-.623.623zm0 2.648c0 .391.21.659.536.71.411.065.466-.012 1.016.138.432.118.794.312 1.142.572.079.06.082.064.149.131.074.073.104.081.171.141s.062.082.126.154c.433.489.742 1.113.812 1.774.042.394-.051 1.086.753 1.086.343 0 .624-.308.624-.717 0-1.228-.474-2.234-1.223-3.077-.064-.072-.068-.101-.14-.173s-.087-.067-.155-.124c-.191-.161-.183-.188-.477-.396-.718-.509-1.688-.842-2.68-.842-.333 0-.654.286-.654.624v-.001zm79.24 4.706c0-.918.244-2.03.609-2.814.388-.833.8-1.437 1.41-2.047l.43-.401a6.78 6.78 0 0 1 2.869-1.453c.962-.235 2.124-.267 3.085-.026.924.231 1.644.511 2.413 1.044 2.809 1.946 3.827 5.663 2.291 8.733l-.324.606c-.054.088-.093.114-.119.214-.084-.023-.454-.375-.54-.457-.434-.414-1.269-.924-1.809-1.184-1.633-.784-3.524-.955-5.33-.52-.718.172-1.502.496-2.121.87l-.311.187a9.58 9.58 0 0 0-1.116.879c-.087.088-.146.19-.274.225-.025-.094-.158-.278-.219-.38-.082-.139-.144-.281-.213-.418-.294-.588-.509-1.23-.622-1.904-.057-.339-.109-.782-.109-1.154h0zm-1.064-.332c0 1.138.055 2.01.475 3.081l.128.338c.207.508.549 1.093.859 1.533l.407.524c.682.783 1.424 1.418 2.353 1.902l.149.083c.91.455 2.166.848 3.241.848h.665c1.438 0 2.666-.505 3.734-1.085a6.07 6.07 0 0 0 .586-.377c.692-.489 1.195-1.009 1.725-1.667l.208-.29c1.276-1.729 1.742-4.299 1.205-6.433-.142-.565-.288-.942-.492-1.435-.394-.948-1.119-1.82-1.823-2.532-.101-.102-.166-.138-.266-.232-.427-.408-1.245-.883-1.775-1.15-.734-.37-2.048-.753-3.136-.753-.963 0-1.285.001-2.254.239-1.569.385-3.072 1.347-4.104 2.576l-.422.541-.38.584c-.619 1.02-1.083 2.534-1.083 3.704v.001zm4.787-2.46c0 .596.044.98.298 1.496.142.287.398.678.624.905l.402.33c.166.122.285.185.481.283.83.415 1.922.419 2.749.011 1.041-.513 1.827-1.543 1.827-2.759 0-.832-.207-1.591-.739-2.185-.351-.391-.56-.576-1.066-.829-.83-.415-1.922-.419-2.749-.011-.286.141-.678.397-.905.624-.064.064-.091.12-.166.199s-.114.134-.177.221c-.32.443-.579 1.102-.579 1.715h0z" fill="#545454" class="I"/><g filter="url(#B)" class="B"><rect x="16" y="17" width="216" height="52" rx="10"/></g><g stroke="#5a5c66" stroke-miterlimit="22.9256" class="D"><path d="M31.51 31h10.664a.51.51 0 0 1 .51.51v21.964l-1.219 3.725c-.068.138-.215.206-.42.221l-.18.095-3.869.017-4.04-.015c-.051-.027-.042-.048-.099-.053-.341-.029-.491-.133-.537-.274L31 53.436v-4.184V31.51a.51.51 0 0 1 .51-.51h0z"/><path d="M31.815 31l2.076 1.048 5.977.005L41.943 31l-1.75 1.325s-.272.261-.644.236h-5.187s-.432.079-.823-.293L31.815 31z" stroke-linejoin="round"/><path d="M33.131 33.078l7.604.002 1.763-1.963m-9.833 2.314c0-.065-1.665-1.75-1.665-1.75m2.157 1.424l-1.98-1.98m10.004 2.306c0-.065 1.503-1.75 1.503-1.75"/><path d="M32.662 53.474V33.513s-.082-.435.511-.435m8.004 20.396V33.513s.081-.435-.511-.435"/><path d="M31 49.309l1.662 4.08s.011.19.614.242 7.357 0 7.357 0 .481.005.592-.294l1.432-4.048v.152l-1.391 3.938s-.041.327-.467.352-7.363.026-7.363.026-.776.076-.852-.378L31 49.349m1.889 8.122l1.573-2.466c.046-.086.134-.177.208-.236.202-.16.45-.228.706-.232h2.986c.109-.008.247.011.351.037a1.18 1.18 0 0 1 .648.411l.004.005 1.594 2.475m-2.425.545h-.025m-3.218-.003h-.037"/><path d="M32.997 57.517l1.565-2.455s.207-.402.815-.41h2.991s.543-.046.905.405l1.583 2.458m-2.235.379h-.005m-3.439-.003h-.014m-2.501-4.417l-.356 3.677m.884-3.389l-.28 3.722m8.267-4.058l.332 3.639m-.768-3.331l.291 3.693m-7.901-24.349l.055 20.68m7.57-20.656l-.015 20.632"/><path d="M35.395 57.523h-.303v.208a.71.71 0 0 0 .281.368c.071.444.37.758 1.52.778 1.134.02 1.441-.31 1.517-.756.221-.156.303-.365.33-.598h-.348-2.997z"/><path d="M36.193 57.529v.799"/><use href="#O"/><use href="#O" x="0.209"/><use href="#O" x="0.418"/><use href="#O" x="0.628"/><use href="#O" x="0.837"/><use href="#O" x="1.046"/><use href="#O" x="1.255"/><path d="M38.757 57.524c-.07.479-.41.844-1.865.824s-1.793-.356-1.864-.823"/></g><path d="M155.733 44h-.881c-.052-.253-.143-.476-.273-.668a1.82 1.82 0 0 0-.469-.483c-.182-.133-.385-.232-.607-.298a2.43 2.43 0 0 0-.696-.099 2.22 2.22 0 0 0-1.197.334c-.355.223-.638.55-.849.984s-.312.965-.312 1.594.104 1.161.312 1.595.494.761.849.984a2.22 2.22 0 0 0 1.197.334 2.43 2.43 0 0 0 .696-.099 2.04 2.04 0 0 0 .607-.295 1.87 1.87 0 0 0 .469-.486c.13-.194.221-.417.273-.668h.881a2.93 2.93 0 0 1-.362.998c-.175.294-.393.543-.654.749s-.552.359-.877.465-.666.16-1.033.16c-.62 0-1.172-.152-1.655-.455s-.863-.734-1.14-1.293-.415-1.222-.415-1.989.138-1.43.415-1.989.657-.99 1.14-1.293 1.035-.455 1.655-.455c.367 0 .711.053 1.033.16a2.81 2.81 0 0 1 .877.469 2.67 2.67 0 0 1 .654.746c.175.291.296.624.362.998zm3.525 5.114c-.492 0-.924-.117-1.296-.352s-.658-.562-.866-.984-.309-.914-.309-1.477.103-1.064.309-1.488.497-.753.866-.987.804-.352 1.296-.352.924.117 1.293.352.66.563.866.987.313.92.313 1.488-.104 1.056-.313 1.477-.494.749-.866.984-.8.352-1.293.352zm0-.753c.374 0 .682-.096.924-.288a1.7 1.7 0 0 0 .536-.756c.116-.312.174-.651.174-1.016s-.058-.704-.174-1.019a1.72 1.72 0 0 0-.536-.763c-.242-.194-.55-.291-.924-.291s-.681.097-.923.291a1.72 1.72 0 0 0-.536.763c-.116.315-.174.655-.174 1.019s.058.703.174 1.016a1.7 1.7 0 0 0 .536.756c.242.192.549.288.923.288zm4.589-2.642V49h-.838v-5.455h.81v.852h.071a1.56 1.56 0 0 1 .582-.668c.261-.17.597-.256 1.009-.256.369 0 .692.076.969.227s.493.376.647.682.23.687.23 1.151V49h-.838v-3.409c0-.428-.111-.762-.333-1.001s-.528-.362-.917-.362c-.267 0-.506.058-.717.174a1.25 1.25 0 0 0-.494.508c-.12.222-.181.492-.181.81zm5.85 0V49h-.838v-5.455h.81v.852h.071c.127-.277.321-.499.582-.668s.597-.256 1.008-.256c.37 0 .693.076.97.227a1.53 1.53 0 0 1 .646.682c.154.303.231.687.231 1.151V49h-.838v-3.409c0-.428-.111-.762-.334-1.001s-.528-.362-.916-.362c-.268 0-.507.058-.717.174s-.373.285-.494.508-.181.492-.181.81zm7.298 3.395c-.525 0-.979-.116-1.36-.348a2.34 2.34 0 0 1-.877-.98c-.203-.421-.305-.911-.305-1.47s.102-1.051.305-1.477a2.41 2.41 0 0 1 .86-1.001c.369-.241.8-.362 1.292-.362a2.59 2.59 0 0 1 .842.142c.277.095.529.249.756.462a2.2 2.2 0 0 1 .543.838c.135.348.203.776.203 1.285v.355h-4.205v-.724h3.353a1.79 1.79 0 0 0-.185-.824 1.4 1.4 0 0 0-.518-.572c-.223-.14-.486-.209-.789-.209-.334 0-.622.083-.866.249a1.63 1.63 0 0 0-.558.639 1.88 1.88 0 0 0-.195.845v.483c0 .412.071.761.213 1.048a1.53 1.53 0 0 0 .6.65 1.76 1.76 0 0 0 .891.22c.221 0 .419-.031.597-.092s.335-.159.465-.284.231-.287.302-.476l.81.227c-.086.275-.229.516-.43.724s-.45.367-.746.483-.628.17-.998.17zm5.75 0c-.512 0-.952-.121-1.321-.362s-.654-.574-.853-.998-.298-.908-.298-1.453c0-.554.102-1.043.305-1.467s.493-.759.86-.998.8-.362 1.292-.362c.384 0 .73.071 1.037.213a1.99 1.99 0 0 1 .757.597c.196.256.318.554.366.895h-.839c-.063-.249-.205-.469-.426-.66s-.511-.291-.88-.291c-.327 0-.613.085-.86.256a1.66 1.66 0 0 0-.571.714c-.135.305-.203.664-.203 1.076 0 .421.066.788.199 1.101s.324.555.568.728a1.47 1.47 0 0 0 .867.259 1.5 1.5 0 0 0 .593-.114 1.23 1.23 0 0 0 .451-.327 1.25 1.25 0 0 0 .262-.511h.839a1.95 1.95 0 0 1-.352.87 1.97 1.97 0 0 1-.735.611c-.303.149-.656.224-1.058.224zm5.742-5.568v.71h-2.827v-.71h2.827zm-2.003-1.307h.838v5.199c0 .237.034.414.103.533s.161.194.27.234a1.08 1.08 0 0 0 .352.057 1.49 1.49 0 0 0 .227-.014l.142-.028.17.753c-.057.021-.136.043-.238.064a1.74 1.74 0 0 1-.387.035 1.69 1.69 0 0 1-.696-.153 1.38 1.38 0 0 1-.561-.465c-.147-.208-.22-.471-.22-.788v-5.426zm5.492 6.875c-.526 0-.979-.116-1.36-.348s-.671-.561-.877-.98-.306-.911-.306-1.47.102-1.051.306-1.477.492-.762.859-1.001.8-.362 1.293-.362c.284 0 .564.047.841.142s.529.249.757.462.408.49.543.838.202.776.202 1.285v.355h-4.204v-.724h3.352c0-.308-.061-.582-.185-.824s-.293-.432-.518-.572-.485-.209-.788-.209c-.334 0-.623.083-.867.249s-.427.376-.557.639-.196.544-.196.845v.483c0 .412.071.761.213 1.048a1.54 1.54 0 0 0 .601.65c.255.147.552.22.891.22a1.81 1.81 0 0 0 .596-.092 1.29 1.29 0 0 0 .466-.284c.13-.128.23-.287.301-.476l.81.227c-.085.275-.228.516-.43.724s-.449.367-.745.483-.629.17-.998.17zm5.593 0c-.455 0-.856-.115-1.204-.344a2.33 2.33 0 0 1-.817-.98c-.196-.424-.294-.924-.294-1.502s.098-1.07.294-1.491.47-.747.821-.977.755-.344 1.214-.344c.355 0 .636.059.842.178s.367.249.476.398l.259.362h.071v-2.685h.838V49h-.81v-.838h-.099a5.42 5.42 0 0 1-.263.377 1.57 1.57 0 0 1-.486.401c-.211.116-.492.174-.842.174zm.114-.753c.336 0 .62-.088.852-.263s.408-.423.529-.735.181-.678.181-1.09-.059-.764-.178-1.069-.293-.547-.525-.717-.519-.259-.859-.259c-.356 0-.652.091-.888.273a1.63 1.63 0 0 0-.529.735c-.116.308-.174.653-.174 1.037s.059.741.177 1.058.298.566.533.753.53.277.881.277z" class="E"/><path d="M56.799 40.727h1.332l2.315 5.653h.085l2.315-5.653h1.332V48h-1.044v-5.263h-.067l-2.145 5.252h-.867l-2.145-5.256h-.067V48h-1.044v-7.273zm9.738 0l1.74 2.844h.057l1.74-2.844h1.271l-2.266 3.636L71.36 48h-1.278l-1.747-2.805h-.057L66.53 48h-1.278l2.319-3.636-2.305-3.636h1.271zm5.645 5.852v-.888l3.143-4.965h.7v1.307h-.444l-2.248 3.558v.057h4.308v.93h-5.458zM75.63 48v-1.69l.007-.405v-5.178h1.041V48H75.63zm5.779.099c-.488 0-.923-.084-1.307-.252s-.683-.401-.906-.7-.338-.649-.355-1.044h1.115a.96.96 0 0 0 .217.561c.132.156.305.277.518.362s.45.128.71.128a1.83 1.83 0 0 0 .76-.149c.223-.099.397-.238.522-.415a1.06 1.06 0 0 0 .188-.621c0-.244-.063-.458-.188-.643s-.304-.334-.543-.44-.523-.16-.859-.16h-.614v-.895h.614c.27 0 .507-.049.71-.146s.367-.232.483-.405.174-.38.174-.614c0-.225-.051-.42-.153-.586s-.242-.3-.426-.394-.398-.142-.646-.142a1.68 1.68 0 0 0-.664.131c-.204.085-.369.208-.497.369a.95.95 0 0 0-.206.572h-1.062c.012-.393.128-.739.348-1.037a2.25 2.25 0 0 1 .881-.7c.365-.168.769-.252 1.215-.252.466 0 .869.091 1.207.273a1.99 1.99 0 0 1 .788.721 1.81 1.81 0 0 1 .277.987c.002.407-.111.753-.341 1.037s-.53.475-.909.572v.057c.483.073.857.265 1.122.575s.4.695.398 1.154c.002.4-.109.759-.334 1.076s-.527.567-.913.749-.827.27-1.325.27zm3.761-1.52v-.888l3.143-4.965h.7v1.307h-.444l-2.248 3.558v.057h4.308v.93H85.17zM88.618 48v-1.69l.007-.405v-5.178h1.04V48h-1.048zm5.779.099c-.488 0-.923-.084-1.307-.252s-.683-.401-.906-.7-.338-.649-.355-1.044h1.115a.96.96 0 0 0 .217.561c.133.156.305.277.518.362s.45.128.71.128a1.83 1.83 0 0 0 .76-.149c.222-.099.396-.238.522-.415a1.06 1.06 0 0 0 .188-.621c0-.244-.063-.458-.188-.643s-.304-.334-.543-.44-.523-.16-.859-.16h-.614v-.895h.614c.27 0 .507-.049.71-.146s.367-.232.483-.405.174-.38.174-.614c0-.225-.051-.42-.153-.586s-.242-.3-.426-.394-.398-.142-.646-.142a1.68 1.68 0 0 0-.664.131c-.204.085-.369.208-.497.369a.95.95 0 0 0-.206.572h-1.062c.012-.393.128-.739.348-1.037a2.25 2.25 0 0 1 .881-.7c.365-.168.769-.252 1.215-.252.466 0 .869.091 1.207.273a1.99 1.99 0 0 1 .788.721 1.81 1.81 0 0 1 .277.987c.002.407-.111.753-.341 1.037s-.53.475-.909.572v.057c.483.073.857.265 1.122.575s.4.695.398 1.154c.002.4-.109.759-.334 1.076s-.527.567-.913.749-.827.27-1.325.27z" class="G"/><circle cx="213.5" cy="45.5" r="1.5" fill="#72cf70"/><path d="M216 45.5a2.5 2.5 0 1 1-5 0 2.5 2.5 0 1 1 5 0z" fill="#53ee50" fill-opacity=".35"/><path d="M244.936 127.979c0-1.473-1.194-2.667-2.666-2.667a2.67 2.67 0 0 0-2.667 2.667c0 1.472 1.194 2.666 2.667 2.666s2.666-1.194 2.666-2.666zm84.207 0v-.5H242.27v.5.5h86.873v-.5z" fill="url(#D)"/><g class="E"><path d="M28.916 96.023a2.57 2.57 0 0 0-.309-.643 2.07 2.07 0 0 0-.451-.49 1.91 1.91 0 0 0-.59-.309 2.35 2.35 0 0 0-.724-.106 2.15 2.15 0 0 0-1.175.334c-.352.223-.633.55-.842.984s-.312.965-.312 1.594.105 1.161.316 1.594.496.761.856.984.765.334 1.214.334a2.21 2.21 0 0 0 1.101-.267c.317-.178.568-.433.746-.76s.27-.716.27-1.161l.27.057h-2.187v-.781h2.77v.781c0 .599-.128 1.12-.384 1.563a2.65 2.65 0 0 1-1.051 1.03c-.445.242-.957.362-1.534.362-.644 0-1.21-.151-1.697-.454s-.864-.734-1.136-1.293-.405-1.222-.405-1.989c0-.575.077-1.093.231-1.552s.377-.855.661-1.179.62-.573 1.008-.746.816-.259 1.282-.259c.384 0 .741.058 1.073.174s.631.276.891.487a2.77 2.77 0 0 1 .657.749c.175.289.296.61.362.962h-.909zm4.633 5.114c-.526 0-.979-.116-1.36-.348a2.31 2.31 0 0 1-.877-.981c-.206-.419-.305-.911-.305-1.47s.102-1.051.305-1.477a2.41 2.41 0 0 1 .859-1.001c.369-.242.8-.362 1.293-.362a2.58 2.58 0 0 1 .842.142c.277.095.529.249.756.462a2.23 2.23 0 0 1 .543.838c.135.348.202.777.202 1.286v.355h-4.205v-.725h3.352a1.79 1.79 0 0 0-.185-.824 1.39 1.39 0 0 0-.518-.572c-.223-.14-.485-.209-.788-.209-.334 0-.623.083-.867.249a1.63 1.63 0 0 0-.557.639 1.88 1.88 0 0 0-.195.845v.483c0 .412.071.761.213 1.048a1.51 1.51 0 0 0 .6.65c.256.15.553.22.891.22a1.8 1.8 0 0 0 .596-.093 1.27 1.27 0 0 0 .465-.284 1.29 1.29 0 0 0 .302-.476l.81.227c-.085.274-.228.516-.43.724s-.45.367-.746.483-.629.171-.998.171zm4.371-3.395v3.281h-.838v-5.455h.81v.852h.071a1.56 1.56 0 0 1 .582-.668c.26-.171.597-.256 1.009-.256.369 0 .692.076.969.227a1.53 1.53 0 0 1 .646.682c.154.303.231.687.231 1.151v3.466h-.838v-3.409c0-.428-.111-.762-.334-1.002s-.528-.362-.916-.362a1.46 1.46 0 0 0-.717.174c-.21.116-.373.285-.494.508s-.181.492-.181.81zm7.299 3.395c-.526 0-.979-.116-1.36-.348a2.31 2.31 0 0 1-.877-.981c-.206-.419-.305-.911-.305-1.47s.102-1.051.305-1.477a2.4 2.4 0 0 1 .859-1.001c.367-.239.8-.362 1.293-.362a2.58 2.58 0 0 1 .842.142c.277.095.529.249.756.462a2.21 2.21 0 0 1 .543.838c.135.348.202.777.202 1.286v.355h-4.205v-.725h3.352a1.79 1.79 0 0 0-.185-.824 1.39 1.39 0 0 0-.518-.572c-.223-.14-.485-.209-.788-.209-.334 0-.623.083-.866.249s-.427.376-.558.639a1.88 1.88 0 0 0-.195.845v.483c0 .412.071.761.213 1.048s.345.5.6.65.553.22.891.22c.22 0 .419-.031.597-.093a1.27 1.27 0 0 0 .465-.284 1.29 1.29 0 0 0 .302-.476l.81.227c-.085.274-.228.516-.43.724s-.45.367-.746.483-.629.171-.998.171zm3.533-.114v-5.455h.81v.824h.057a1.31 1.31 0 0 1 .54-.657 1.59 1.59 0 0 1 .881-.252l.231.004.209.011v.852c-.028-.007-.093-.018-.195-.032a1.92 1.92 0 0 0-.316-.025c-.265 0-.502.056-.71.167a1.26 1.26 0 0 0-.49.455 1.23 1.23 0 0 0-.178.657v3.452h-.838zm5.326.128c-.346 0-.659-.065-.941-.196s-.505-.323-.671-.571-.249-.554-.249-.909c0-.312.062-.566.185-.76a1.33 1.33 0 0 1 .494-.462 2.59 2.59 0 0 1 .682-.249l.756-.135.806-.096c.208-.024.36-.063.454-.117s.146-.149.146-.284v-.028c0-.35-.096-.623-.288-.817s-.477-.291-.863-.291c-.4 0-.714.088-.941.263s-.387.362-.479.561l-.796-.284c.142-.331.332-.59.568-.774a2.13 2.13 0 0 1 .781-.391 3.23 3.23 0 0 1 .838-.114 3.3 3.3 0 0 1 .604.064 1.93 1.93 0 0 1 .664.252c.215.128.394.321.536.579s.213.604.213 1.037v3.594h-.838v-.739h-.043a1.46 1.46 0 0 1-.284.38 1.65 1.65 0 0 1-.529.345c-.22.095-.489.142-.806.142zm.128-.753c.331 0 .611-.065.838-.195s.402-.299.518-.505a1.31 1.31 0 0 0 .178-.65v-.767c-.035.043-.114.082-.234.117a3.6 3.6 0 0 1-.412.089l-.451.064-.352.043c-.218.028-.421.075-.611.139s-.338.155-.454.281-.171.291-.171.504c0 .291.108.512.323.661s.494.22.827.22zm4.74-6.648v7.273h-.838V93.75h.838zM23.944 324.023v-7.273h2.457c.571 0 1.037.103 1.399.309s.634.48.81.828.263.736.263 1.164-.088.818-.263 1.169-.44.629-.802.838-.826.309-1.392.309h-1.761v-.782h1.733c.391 0 .704-.067.941-.202s.408-.317.515-.547.163-.493.163-.785-.054-.551-.163-.781a1.18 1.18 0 0 0-.518-.54c-.239-.131-.556-.199-.952-.199h-1.548v6.492h-.881zm8.391.114c-.492 0-.924-.118-1.296-.352a2.37 2.37 0 0 1-.867-.984c-.209-.422-.309-.913-.309-1.477s.103-1.064.309-1.488a2.38 2.38 0 0 1 .867-.987c.372-.234.804-.352 1.296-.352s.923.118 1.293.352a2.35 2.35 0 0 1 .866.987c.205.424.313.92.313 1.488s-.104 1.056-.312 1.477a2.35 2.35 0 0 1-.866.984c-.369.234-.8.352-1.293.352zm0-.753c.374 0 .682-.096.923-.288s.42-.444.536-.756a2.9 2.9 0 0 0 .174-1.016c0-.364-.058-.704-.174-1.019s-.295-.569-.536-.764-.549-.291-.923-.291-.682.097-.923.291a1.72 1.72 0 0 0-.536.764c-.116.315-.174.655-.174 1.019a2.9 2.9 0 0 0 .174 1.016c.116.312.295.564.536.756s.549.288.923.288zm4.801.639l-1.662-5.455h.881l1.179 4.177h.057l1.165-4.177h.895l1.151 4.162h.057l1.179-4.162h.881l-1.662 5.455h-.824l-1.193-4.19h-.085l-1.193 4.19h-.824zm8.991.114c-.526 0-.979-.116-1.36-.348a2.34 2.34 0 0 1-.877-.981c-.204-.421-.305-.911-.305-1.47s.102-1.051.305-1.477a2.41 2.41 0 0 1 .859-1.001c.369-.242.8-.363 1.293-.363.284 0 .565.048.842.142a2.09 2.09 0 0 1 .756.462c.227.211.408.49.543.838s.202.777.202 1.286v.355H44.18v-.725h3.352c0-.307-.062-.582-.185-.824a1.39 1.39 0 0 0-.518-.571 1.45 1.45 0 0 0-.788-.21c-.334 0-.623.083-.866.249a1.63 1.63 0 0 0-.558.639 1.88 1.88 0 0 0-.195.845v.483c0 .412.071.761.213 1.048a1.51 1.51 0 0 0 .6.65c.256.15.553.22.891.22.22 0 .419-.031.597-.093a1.27 1.27 0 0 0 .465-.284 1.29 1.29 0 0 0 .302-.476l.81.228c-.085.274-.228.516-.43.724s-.45.367-.746.483-.629.171-.998.171zm3.533-.114v-5.455h.81v.824h.057a1.31 1.31 0 0 1 .54-.657 1.59 1.59 0 0 1 .881-.252l.231.004.209.01v.853a2.43 2.43 0 0 0-.195-.032c-.099-.017-.205-.025-.316-.025-.265 0-.502.055-.71.167a1.26 1.26 0 0 0-.49.454 1.23 1.23 0 0 0-.178.657v3.452h-.838zm10.624-5.455c-.043-.359-.215-.639-.519-.838s-.675-.298-1.115-.298a2.12 2.12 0 0 0-.845.156 1.35 1.35 0 0 0-.561.43c-.133.182-.199.389-.199.621 0 .195.046.361.139.501s.215.252.362.345.301.164.462.223l.444.139.739.199c.189.049.4.118.632.206a3 3 0 0 1 .671.358 1.82 1.82 0 0 1 .533.576c.14.234.209.522.209.863 0 .393-.103.748-.309 1.065s-.502.569-.895.756-.865.281-1.424.281c-.521 0-.972-.084-1.353-.252a2.16 2.16 0 0 1-.895-.703c-.215-.301-.337-.65-.366-1.048h.909c.024.275.116.502.277.682s.369.31.618.397a2.48 2.48 0 0 0 .81.128c.336 0 .638-.054.906-.163s.479-.265.636-.462.234-.431.234-.696c0-.241-.067-.438-.202-.589a1.47 1.47 0 0 0-.533-.369 5.55 5.55 0 0 0-.714-.249l-.895-.256c-.568-.163-1.018-.396-1.349-.699s-.497-.7-.497-1.19c0-.407.11-.762.33-1.065s.521-.542.895-.711.797-.255 1.261-.255.885.084 1.25.252.653.393.866.682.329.616.341.983h-.852zm3.891 5.583c-.346 0-.659-.065-.941-.196s-.505-.323-.671-.571-.249-.554-.249-.909c0-.313.062-.566.185-.76a1.3 1.3 0 0 1 .494-.462 2.62 2.62 0 0 1 .682-.249l.756-.134.806-.096c.208-.024.36-.063.455-.118s.146-.149.146-.284v-.028c0-.35-.096-.623-.288-.817s-.477-.291-.863-.291c-.4 0-.714.088-.941.263s-.387.362-.479.561l-.795-.284a1.9 1.9 0 0 1 .568-.774 2.13 2.13 0 0 1 .781-.391c.281-.073.563-.114.838-.114a3.39 3.39 0 0 1 .604.064 2 2 0 0 1 .664.252c.213.127.394.321.536.579s.213.604.213 1.037v3.594h-.838v-.739h-.043a1.46 1.46 0 0 1-.284.38 1.65 1.65 0 0 1-.529.345c-.22.095-.489.142-.806.142zm.128-.753c.331 0 .611-.065.838-.195a1.35 1.35 0 0 0 .519-.505c.116-.206.178-.422.178-.649v-.768c-.036.043-.114.082-.234.118a4 4 0 0 1-.412.088l-.451.064-.352.043a3.24 3.24 0 0 0-.611.138c-.187.062-.339.156-.455.281s-.17.291-.17.504c0 .291.108.512.323.661s.494.22.827.22zm8.167-4.83l-2.017 5.455h-.852l-2.017-5.455h.909l1.506 4.347h.057l1.506-4.347h.909zm1.106 5.455v-5.455h.838v5.455h-.838zm.426-6.364c-.163 0-.304-.055-.423-.167s-.174-.245-.174-.401.058-.29.174-.401.259-.167.423-.167.303.056.419.167a.53.53 0 0 1 .178.401.53.53 0 0 1-.178.401.58.58 0 0 1-.419.167zm2.785 3.083v3.281h-.838v-5.455h.81v.853h.071a1.56 1.56 0 0 1 .582-.668c.26-.17.597-.256 1.009-.256.369 0 .692.076.969.228a1.53 1.53 0 0 1 .646.681c.154.304.231.687.231 1.151v3.466h-.838v-3.409c0-.429-.111-.762-.334-1.002s-.528-.362-.916-.362a1.46 1.46 0 0 0-.717.174 1.25 1.25 0 0 0-.494.508c-.121.223-.181.492-.181.81zm7.213 5.44c-.405 0-.753-.052-1.044-.156a2.22 2.22 0 0 1-.728-.405c-.192-.166-.344-.343-.458-.533l.668-.468.288.34c.116.131.275.243.476.338s.47.145.799.145c.44 0 .804-.106 1.09-.319s.43-.547.43-1.002v-1.108h-.071a4.47 4.47 0 0 1-.263.37 1.5 1.5 0 0 1-.483.387c-.208.111-.49.167-.845.167a2.27 2.27 0 0 1-1.186-.313c-.348-.208-.624-.511-.827-.909s-.302-.881-.302-1.449c0-.558.098-1.045.295-1.459s.47-.739.82-.966.755-.345 1.215-.345c.355 0 .637.06.845.178s.372.249.483.398l.263.362h.085v-.867h.81v5.611c0 .469-.106.85-.32 1.144s-.495.512-.852.65a3.23 3.23 0 0 1-1.186.209zm-.028-2.997c.336 0 .62-.077.852-.231s.408-.375.529-.664.181-.634.181-1.037c0-.393-.059-.74-.178-1.04s-.294-.537-.526-.707-.519-.256-.859-.256c-.355 0-.651.09-.888.27s-.411.422-.529.725a2.8 2.8 0 0 0-.174 1.008 2.65 2.65 0 0 0 .178 1.005 1.54 1.54 0 0 0 .533.682c.237.163.53.245.881.245z"/><path d="M25.265 225.023l-1.989-7.273h.895l1.52 5.924h.071l1.548-5.924h.994l1.548 5.924h.071l1.52-5.924h.895l-1.989 7.273h-.909l-1.605-5.796h-.057l-1.605 5.796h-.909zm8.058 0v-5.455h.838v5.455h-.838zm.426-6.364c-.163 0-.304-.055-.423-.167s-.174-.245-.174-.401.058-.29.174-.401.259-.167.423-.167.303.056.419.167a.53.53 0 0 1 .178.401.53.53 0 0 1-.178.401.58.58 0 0 1-.419.167zm2.06 6.364v-7.273h4.361v.781h-3.48v2.458h3.153v.781H36.69v3.253h-.881zm5.756 0v-5.455h.838v5.455h-.838zm.426-6.364c-.163 0-.304-.055-.423-.167s-.174-.245-.174-.401.058-.29.174-.401.259-.167.423-.167.303.056.419.167a.53.53 0 0 1 .178.401.53.53 0 0 1-.178.401.58.58 0 0 1-.419.167zm6.819 6.463c-.478 0-.89-.087-1.236-.262s-.612-.416-.799-.721-.281-.655-.281-1.048c0-.303.064-.572.192-.806s.309-.456.536-.657a7.94 7.94 0 0 1 .792-.611l1.051-.781a2.09 2.09 0 0 0 .494-.433c.126-.154.188-.355.188-.604 0-.185-.082-.363-.245-.536a.83.83 0 0 0-.636-.259.86.86 0 0 0-.49.142 1 1 0 0 0-.33.355.9.9 0 0 0-.117.44c0 .171.046.343.139.519a3.85 3.85 0 0 0 .359.532l.455.554 3.338 4.077h-1.01l-2.756-3.324-.696-.838a3.98 3.98 0 0 1-.497-.742c-.123-.244-.185-.508-.185-.792 0-.327.072-.613.217-.859s.352-.442.614-.579a1.99 1.99 0 0 1 .93-.21c.365 0 .678.071.941.213s.465.326.607.558.213.479.213.749a1.58 1.58 0 0 1-.259.906 2.96 2.96 0 0 1-.707.713l-1.449 1.08c-.327.241-.548.476-.664.703s-.174.391-.174.49c0 .227.059.439.177.636a1.32 1.32 0 0 0 .501.476 1.53 1.53 0 0 0 .756.181c.275 0 .542-.058.803-.174a2.26 2.26 0 0 0 .707-.512c.213-.222.381-.49.504-.802a2.81 2.81 0 0 0 .188-1.055h.81c0 .483-.056.877-.167 1.183a2.52 2.52 0 0 1-.376.717l-.337.387-.078.107-.078.106a2.16 2.16 0 0 1-.888.59 3.15 3.15 0 0 1-1.058.191zm11.24-5.554c-.043-.359-.215-.639-.519-.838s-.675-.298-1.115-.298a2.12 2.12 0 0 0-.845.156 1.34 1.34 0 0 0-.561.43c-.135.182-.199.389-.199.621 0 .195.046.361.139.501a1.24 1.24 0 0 0 .362.345c.147.09.301.164.462.223l.444.139.739.199c.189.049.4.118.632.206a3 3 0 0 1 .671.358 1.82 1.82 0 0 1 .533.576c.14.234.21.522.21.863 0 .393-.103.748-.309 1.065s-.502.569-.895.756-.865.281-1.424.281c-.521 0-.972-.084-1.353-.252a2.16 2.16 0 0 1-.895-.703c-.215-.301-.337-.65-.366-1.048h.909c.024.275.116.502.277.682a1.5 1.5 0 0 0 .618.397 2.48 2.48 0 0 0 .81.128c.336 0 .638-.054.905-.163a1.54 1.54 0 0 0 .636-.462c.157-.197.234-.431.234-.696 0-.241-.067-.438-.202-.589a1.47 1.47 0 0 0-.533-.369c-.22-.095-.458-.178-.714-.249l-.895-.256c-.568-.163-1.018-.396-1.349-.699s-.497-.7-.497-1.19c0-.407.11-.762.33-1.065s.521-.542.895-.711.797-.255 1.261-.255.885.084 1.25.252.653.393.867.682a1.71 1.71 0 0 1 .341.983h-.852zm4.573 5.569c-.526 0-.979-.116-1.36-.348a2.34 2.34 0 0 1-.877-.981c-.204-.421-.305-.911-.305-1.47s.102-1.051.305-1.477a2.41 2.41 0 0 1 .859-1.001c.369-.242.8-.363 1.293-.363.284 0 .565.048.842.142s.529.249.756.462a2.23 2.23 0 0 1 .543.838c.135.348.202.777.202 1.286v.355h-4.205v-.725h3.352c0-.307-.062-.582-.185-.824a1.39 1.39 0 0 0-.519-.571c-.222-.14-.485-.21-.788-.21-.334 0-.623.083-.866.249a1.63 1.63 0 0 0-.558.639 1.88 1.88 0 0 0-.195.845v.483c0 .412.071.761.213 1.048s.345.5.6.65.553.22.891.22c.22 0 .419-.031.597-.093a1.27 1.27 0 0 0 .465-.284 1.29 1.29 0 0 0 .302-.476l.81.228c-.085.274-.229.516-.43.724s-.45.367-.746.483-.629.171-.998.171zm3.533-.114v-5.455h.81v.824h.057a1.31 1.31 0 0 1 .54-.657 1.59 1.59 0 0 1 .881-.252l.231.004.21.01v.853a2.43 2.43 0 0 0-.195-.032c-.099-.017-.205-.025-.316-.025-.265 0-.502.055-.71.167a1.26 1.26 0 0 0-.49.454 1.23 1.23 0 0 0-.178.657v3.452h-.838zm8.347-5.455l-2.017 5.455h-.852l-2.017-5.455h.909l1.506 4.347h.057l1.506-4.347h.909zm3.198 5.569c-.526 0-.979-.116-1.36-.348a2.34 2.34 0 0 1-.877-.981c-.204-.421-.305-.911-.305-1.47s.102-1.051.305-1.477a2.41 2.41 0 0 1 .859-1.001c.369-.242.8-.363 1.293-.363.284 0 .565.048.842.142a2.09 2.09 0 0 1 .756.462 2.21 2.21 0 0 1 .543.838c.135.348.202.777.202 1.286v.355h-4.204v-.725h3.352c0-.307-.061-.582-.185-.824a1.39 1.39 0 0 0-.518-.571 1.45 1.45 0 0 0-.788-.21c-.334 0-.623.083-.867.249a1.63 1.63 0 0 0-.558.639 1.88 1.88 0 0 0-.195.845v.483c0 .412.071.761.213 1.048a1.51 1.51 0 0 0 .6.65c.256.15.553.22.891.22a1.8 1.8 0 0 0 .597-.093 1.27 1.27 0 0 0 .465-.284 1.29 1.29 0 0 0 .302-.476l.81.228c-.085.274-.228.516-.43.724s-.45.367-.746.483-.629.171-.998.171zm3.533-.114v-5.455h.81v.824h.057c.099-.27.279-.489.54-.657a1.59 1.59 0 0 1 .881-.252l.231.004.209.01v.853a2.43 2.43 0 0 0-.195-.032c-.099-.017-.205-.025-.316-.025-.265 0-.502.055-.71.167a1.26 1.26 0 0 0-.49.454 1.23 1.23 0 0 0-.178.657v3.452h-.838zm7.584-4.233l-.753.213a1.42 1.42 0 0 0-.21-.366c-.09-.12-.213-.22-.369-.298s-.356-.117-.6-.117c-.334 0-.612.077-.835.231s-.33.344-.33.578c0 .209.076.373.227.494s.388.221.71.302l.81.199c.488.118.851.299 1.09.543s.359.553.359.934c0 .313-.09.592-.27.838a1.8 1.8 0 0 1-.746.583c-.32.142-.691.213-1.115.213-.556 0-1.017-.121-1.381-.363s-.595-.594-.692-1.058l.795-.199c.076.294.219.514.43.661s.491.22.835.22c.391 0 .701-.083.93-.249s.348-.369.348-.603a.63.63 0 0 0-.199-.476c-.133-.128-.336-.227-.611-.291l-.909-.213c-.499-.119-.867-.302-1.101-.551s-.348-.564-.348-.941a1.35 1.35 0 0 1 .259-.817 1.77 1.77 0 0 1 .714-.557c.303-.135.646-.203 1.03-.203.54 0 .963.119 1.271.355s.53.55.66.938zm93.126-96.04h1.051l2.472 6.037h.085l2.471-6.037h1.052v7.273h-.824v-5.526h-.071l-2.273 5.526h-.795l-2.273-5.526h-.071v5.526h-.824v-7.273zm9.195 7.273h-.924l2.671-7.273h.909l2.67 7.273h-.923l-2.173-6.122h-.057l-2.173 6.122zm.341-2.841h3.721v.781h-3.721v-.781zm6.544-4.432l1.875 3.026h.057l1.875-3.026h1.037l-2.287 3.637 2.287 3.636h-1.037l-1.875-2.969h-.057l-1.875 2.969h-1.037l2.344-3.636-2.344-3.637h1.037zm5.692 5.781v-.724l3.196-5.057h.526v1.122h-.356l-2.414 3.821v.057h4.304v.781h-5.256zm3.423 1.492v-1.712-.337-5.224h.838v7.273h-.838zm5.621.099c-.469 0-.887-.08-1.254-.241s-.654-.385-.87-.671-.329-.624-.348-1.005h.895c.019.234.1.437.242.607a1.4 1.4 0 0 0 .557.391c.23.092.484.138.764.138.312 0 .589-.054.831-.163s.43-.261.568-.455a1.14 1.14 0 0 0 .206-.674 1.27 1.27 0 0 0-.199-.707c-.133-.206-.327-.367-.583-.483s-.568-.174-.937-.174h-.582v-.781h.582c.289 0 .542-.052.76-.157a1.22 1.22 0 0 0 .515-.44c.125-.189.188-.412.188-.668 0-.246-.054-.46-.163-.642s-.263-.325-.462-.426a1.51 1.51 0 0 0-.696-.153c-.251 0-.488.046-.71.138s-.4.222-.54.395a1.03 1.03 0 0 0-.227.617h-.853c.015-.381.129-.715.345-1.001a2.2 2.2 0 0 1 .845-.675 2.73 2.73 0 0 1 1.154-.241c.45 0 .836.091 1.158.273a1.94 1.94 0 0 1 .742.714 1.87 1.87 0 0 1 .259.959c0 .409-.107.759-.323 1.047a1.64 1.64 0 0 1-.87.601v.056c.459.076.818.271 1.076.586s.387.7.387 1.162c0 .395-.108.75-.323 1.065s-.504.559-.874.738-.789.27-1.26.27zm3.739-1.591v-.724l3.196-5.057h.526v1.122h-.355l-2.415 3.821v.057h4.304v.781h-5.256zm3.423 1.492v-1.712-.337-5.224h.838v7.273h-.838zm5.621.099c-.469 0-.887-.08-1.254-.241s-.654-.385-.87-.671-.329-.624-.348-1.005h.895c.019.234.1.437.242.607s.328.298.557.391.484.138.764.138c.312 0 .589-.054.831-.163a1.36 1.36 0 0 0 .568-.455 1.14 1.14 0 0 0 .206-.674 1.26 1.26 0 0 0-.199-.707c-.133-.206-.327-.367-.582-.483s-.569-.174-.938-.174h-.582v-.781h.582c.289 0 .542-.052.76-.157a1.22 1.22 0 0 0 .515-.44c.125-.189.188-.412.188-.668 0-.246-.054-.46-.163-.642s-.263-.325-.462-.426a1.51 1.51 0 0 0-.696-.153 1.84 1.84 0 0 0-.71.138c-.22.09-.4.222-.54.395a1.03 1.03 0 0 0-.227.617h-.852a1.73 1.73 0 0 1 .344-1.001 2.17 2.17 0 0 1 .845-.675c.351-.161.735-.241 1.154-.241.45 0 .836.091 1.158.273a1.94 1.94 0 0 1 .742.714 1.87 1.87 0 0 1 .259.959c0 .409-.107.759-.323 1.047a1.64 1.64 0 0 1-.87.601v.056c.46.076.818.271 1.076.586s.387.7.387 1.162a1.84 1.84 0 0 1-.323 1.065 2.19 2.19 0 0 1-.873.738c-.37.18-.79.27-1.261.27zm-31.17 18.628v7.273h-.881v-6.349h-.042l-1.776 1.178v-.894l1.818-1.208h.881zm4.464 7.372c-.535 0-.991-.145-1.368-.436s-.664-.719-.862-1.275-.299-1.234-.299-2.024.1-1.458.299-2.014.49-.985.866-1.278.833-.444 1.364-.444.983.148 1.36.444.667.719.866 1.278.302 1.228.302 2.014-.099 1.465-.298 2.024-.487.981-.863 1.275-.832.436-1.367.436zm0-.781c.53 0 .942-.256 1.235-.767s.441-1.24.441-2.187c0-.63-.068-1.166-.203-1.609s-.324-.78-.575-1.012-.548-.348-.898-.348c-.526 0-.937.259-1.233.778s-.443 1.246-.443 2.191c0 .629.066 1.164.198 1.605s.324.775.572 1.005.553.344.906.344zm6.704.682v-5.455h.81v.853h.071a1.37 1.37 0 0 1 .55-.679c.254-.163.558-.245.913-.245s.659.082.898.245a1.63 1.63 0 0 1 .565.679h.057c.14-.282.349-.506.628-.671s.615-.253 1.005-.253c.488 0 .887.153 1.197.458s.465.776.465 1.417v3.651h-.838v-3.651c0-.402-.11-.69-.33-.863a1.22 1.22 0 0 0-.778-.259c-.383 0-.68.116-.891.348s-.316.521-.316.874v3.551h-.852v-3.736a.98.98 0 0 0-.302-.749c-.201-.192-.461-.288-.778-.288a1.15 1.15 0 0 0-.611.174c-.187.116-.338.277-.454.483s-.171.439-.171.707v3.409h-.838zm8.692 0v-5.455h.838v5.455h-.838zm.426-6.364c-.164 0-.304-.055-.423-.167s-.174-.245-.174-.401.058-.29.174-.401a.6.6 0 0 1 .423-.167c.163 0 .303.056.419.167a.53.53 0 0 1 .177.401.53.53 0 0 1-.177.401.58.58 0 0 1-.419.167zm2.785 3.083v3.281h-.838v-5.455h.809v.853h.071c.128-.277.322-.5.583-.668s.596-.256 1.008-.256c.37 0 .693.076.97.228a1.53 1.53 0 0 1 .646.681c.154.304.231.687.231 1.151v3.466h-.838v-3.409c0-.429-.111-.762-.334-1.002s-.528-.362-.916-.362c-.268 0-.507.058-.718.174a1.25 1.25 0 0 0-.493.508c-.121.223-.181.492-.181.81zm8.875-.952l-.753.213c-.047-.125-.117-.247-.209-.366s-.214-.22-.37-.298-.356-.117-.6-.117c-.334 0-.612.077-.834.231s-.331.344-.331.578c0 .209.076.373.228.494s.388.221.71.302l.809.199c.488.118.852.299 1.091.543s.358.553.358.934c0 .313-.09.592-.27.838s-.426.44-.745.583-.692.213-1.115.213c-.557 0-1.017-.121-1.382-.363s-.595-.594-.692-1.058l.795-.199c.076.294.219.514.43.661s.491.22.834.22c.391 0 .701-.083.931-.249s.348-.369.348-.603a.63.63 0 0 0-.199-.476c-.133-.13-.336-.227-.611-.291l-.909-.213c-.499-.119-.866-.302-1.101-.551s-.348-.564-.348-.941c0-.308.087-.58.259-.817a1.78 1.78 0 0 1 .714-.557c.303-.135.647-.203 1.03-.203.54 0 .964.119 1.271.355s.531.55.661.938z"/></g><path d="M27.063 138.773h211m-211 224h211" class="D H"/><path d="M62.711 122.75v7.273h-.852l-3.963-5.71h-.071v5.71h-.881v-7.273h.852l3.977 5.725h.071v-5.725h.867zm3.254 7.401c-.346 0-.659-.065-.941-.196s-.505-.323-.671-.571-.249-.554-.249-.909c0-.313.062-.566.185-.76a1.3 1.3 0 0 1 .494-.462 2.62 2.62 0 0 1 .682-.249l.756-.134.806-.096c.208-.024.36-.063.454-.118s.146-.149.146-.284v-.028c0-.35-.096-.623-.288-.817s-.477-.291-.863-.291c-.4 0-.714.088-.941.263a1.55 1.55 0 0 0-.479.561l-.796-.284c.142-.332.332-.59.568-.774a2.15 2.15 0 0 1 .781-.391c.281-.073.563-.114.838-.114a3.38 3.38 0 0 1 .604.064c.227.042.451.125.664.252s.394.321.536.579.213.604.213 1.037v3.594h-.838v-.739h-.043a1.46 1.46 0 0 1-.284.38 1.65 1.65 0 0 1-.529.345c-.22.095-.489.142-.806.142zm.128-.753c.332 0 .611-.065.838-.195a1.35 1.35 0 0 0 .519-.505c.116-.206.177-.422.177-.649v-.768c-.035.043-.114.082-.234.118a3.41 3.41 0 0 1-.412.088l-.451.064-.352.043a3.24 3.24 0 0 0-.611.138c-.187.062-.339.156-.455.281s-.17.291-.17.504c0 .291.108.512.323.661s.494.22.827.22zm3.902.625v-5.455h.81v.853h.071a1.37 1.37 0 0 1 .55-.679c.253-.163.558-.245.913-.245s.659.082.898.245a1.6 1.6 0 0 1 .565.679h.057a1.58 1.58 0 0 1 .629-.671c.28-.165.614-.253 1.005-.253.488 0 .887.153 1.197.458s.465.776.465 1.417v3.651h-.838v-3.651c0-.402-.11-.69-.33-.863a1.22 1.22 0 0 0-.778-.259c-.384 0-.681.116-.891.348s-.316.521-.316.874v3.551h-.852v-3.736a.98.98 0 0 0-.302-.749 1.08 1.08 0 0 0-.778-.288 1.15 1.15 0 0 0-.611.174c-.187.116-.339.277-.455.483s-.17.439-.17.707v3.409h-.838zm10.978.114c-.526 0-.979-.116-1.36-.348a2.34 2.34 0 0 1-.877-.981c-.204-.421-.305-.911-.305-1.47s.102-1.051.305-1.477a2.41 2.41 0 0 1 .859-1.001c.369-.242.8-.363 1.293-.363.284 0 .565.048.842.142a2.09 2.09 0 0 1 .756.462c.227.211.408.49.543.838s.202.777.202 1.286v.355h-4.204v-.725h3.352c0-.307-.061-.582-.185-.824a1.39 1.39 0 0 0-.519-.571c-.222-.14-.485-.21-.788-.21-.334 0-.623.083-.867.249a1.63 1.63 0 0 0-.558.639 1.88 1.88 0 0 0-.195.845v.483c0 .412.071.761.213 1.048a1.51 1.51 0 0 0 .6.65c.256.15.553.22.891.22.22 0 .419-.031.597-.093a1.27 1.27 0 0 0 .465-.284 1.29 1.29 0 0 0 .302-.476l.81.228c-.085.274-.228.516-.43.724s-.45.367-.746.483-.629.171-.998.171zM56.944 352.023v-7.273h2.457c.571 0 1.037.103 1.399.309s.634.48.81.828.263.736.263 1.164-.088.818-.263 1.169-.44.629-.803.838-.826.309-1.392.309h-1.761v-.782h1.733c.391 0 .704-.067.941-.202s.408-.317.515-.547.163-.493.163-.785-.054-.551-.163-.781-.279-.409-.519-.54-.556-.199-.952-.199h-1.548v6.492h-.881zm8.391.114c-.492 0-.924-.118-1.296-.352a2.37 2.37 0 0 1-.867-.984c-.209-.422-.309-.913-.309-1.477s.103-1.064.309-1.488a2.38 2.38 0 0 1 .867-.987c.372-.234.804-.352 1.296-.352s.923.118 1.293.352.66.563.866.987.313.92.313 1.488-.104 1.056-.312 1.477a2.35 2.35 0 0 1-.866.984c-.369.234-.8.352-1.293.352zm0-.753c.374 0 .682-.096.923-.288s.42-.444.536-.756a2.9 2.9 0 0 0 .174-1.016c0-.364-.058-.704-.174-1.019s-.295-.569-.536-.764-.549-.291-.923-.291-.682.097-.923.291a1.72 1.72 0 0 0-.536.764c-.116.315-.174.655-.174 1.019a2.9 2.9 0 0 0 .174 1.016c.116.312.295.564.536.756s.549.288.923.288zm4.801.639l-1.662-5.455h.881l1.179 4.177h.057l1.165-4.177h.895l1.151 4.162h.057l1.179-4.162h.881l-1.662 5.455h-.824l-1.193-4.19h-.085l-1.193 4.19h-.824zm8.991.114c-.526 0-.979-.116-1.36-.348a2.34 2.34 0 0 1-.877-.981c-.204-.421-.305-.911-.305-1.47s.102-1.051.305-1.477a2.41 2.41 0 0 1 .859-1.001c.369-.242.8-.363 1.293-.363.284 0 .565.048.842.142a2.09 2.09 0 0 1 .756.462c.227.211.408.49.543.838s.202.777.202 1.286v.355h-4.204v-.725h3.352c0-.307-.061-.582-.185-.824a1.39 1.39 0 0 0-.519-.571c-.222-.14-.485-.21-.788-.21-.334 0-.623.083-.866.249a1.63 1.63 0 0 0-.558.639 1.88 1.88 0 0 0-.195.845v.483c0 .412.071.761.213 1.048s.345.5.6.65.553.22.891.22c.22 0 .419-.031.597-.093a1.27 1.27 0 0 0 .465-.284 1.29 1.29 0 0 0 .302-.476l.81.228c-.085.274-.228.516-.43.724s-.45.367-.746.483-.628.171-.998.171zm3.533-.114v-5.455h.81v.824h.057a1.31 1.31 0 0 1 .54-.657 1.59 1.59 0 0 1 .881-.252l.231.004.21.01v.853a2.43 2.43 0 0 0-.195-.032c-.099-.017-.205-.025-.316-.025-.265 0-.502.055-.71.167a1.26 1.26 0 0 0-.49.454 1.23 1.23 0 0 0-.178.657v3.452h-.838zm10.624-5.455c-.043-.359-.215-.639-.518-.838s-.675-.298-1.115-.298a2.12 2.12 0 0 0-.845.156 1.35 1.35 0 0 0-.561.43c-.133.182-.199.389-.199.621a.89.89 0 0 0 .138.501c.092.14.216.252.362.345a2.37 2.37 0 0 0 .462.223l.444.139.739.199c.189.049.4.118.632.206a3 3 0 0 1 .671.358 1.82 1.82 0 0 1 .533.576c.14.234.209.522.209.863 0 .393-.103.748-.309 1.065s-.502.569-.895.756-.865.281-1.424.281c-.521 0-.972-.084-1.353-.252a2.16 2.16 0 0 1-.895-.703c-.216-.301-.337-.65-.366-1.048h.909c.024.275.116.502.277.682s.369.31.618.397a2.48 2.48 0 0 0 .81.128c.336 0 .638-.054.906-.163s.479-.265.636-.462.234-.431.234-.696c0-.241-.067-.438-.202-.589a1.47 1.47 0 0 0-.533-.369 5.55 5.55 0 0 0-.714-.249l-.895-.256c-.568-.163-1.018-.396-1.349-.699s-.497-.7-.497-1.19c0-.407.11-.762.33-1.065s.521-.542.895-.711.797-.255 1.261-.255.885.084 1.25.252.653.393.866.682.329.616.341.983h-.852zm3.891 5.583c-.346 0-.659-.065-.941-.196s-.505-.323-.671-.571-.249-.554-.249-.909c0-.313.062-.566.185-.76a1.3 1.3 0 0 1 .494-.462 2.62 2.62 0 0 1 .682-.249l.756-.134.806-.096c.208-.024.36-.063.455-.118s.146-.149.146-.284v-.028c0-.35-.096-.623-.288-.817s-.477-.291-.863-.291c-.4 0-.714.088-.941.263s-.387.362-.479.561l-.795-.284a1.9 1.9 0 0 1 .568-.774 2.12 2.12 0 0 1 .781-.391 3.36 3.36 0 0 1 .838-.114 3.39 3.39 0 0 1 .604.064 2 2 0 0 1 .664.252c.213.127.394.321.536.579s.213.604.213 1.037v3.594h-.838v-.739h-.043a1.46 1.46 0 0 1-.284.38 1.65 1.65 0 0 1-.529.345c-.22.095-.489.142-.806.142zm.128-.753c.331 0 .611-.065.838-.195a1.35 1.35 0 0 0 .519-.505c.116-.206.178-.422.178-.649v-.768c-.036.043-.114.082-.234.118a4 4 0 0 1-.412.088l-.451.064-.352.043a3.24 3.24 0 0 0-.611.138 1.06 1.06 0 0 0-.454.281c-.116.125-.171.291-.171.504 0 .291.108.512.323.661s.494.22.827.22zm8.166-4.83l-2.017 5.455h-.852l-2.017-5.455h.909l1.506 4.347h.056l1.506-4.347h.909zm1.106 5.455v-5.455h.838v5.455h-.838zm.427-6.364a.59.59 0 0 1-.423-.167c-.116-.111-.174-.245-.174-.401s.058-.29.174-.401.259-.167.423-.167.303.056.419.167a.53.53 0 0 1 .177.401.53.53 0 0 1-.177.401.58.58 0 0 1-.419.167zm2.784 3.083v3.281h-.838v-5.455h.81v.853h.071a1.56 1.56 0 0 1 .582-.668c.261-.17.597-.256 1.009-.256.369 0 .692.076.969.228s.493.376.647.681.231.687.231 1.151v3.466h-.838v-3.409c0-.429-.112-.762-.334-1.002s-.528-.362-.916-.362c-.268 0-.507.058-.718.174s-.373.286-.493.508-.182.492-.182.81zm7.214 5.44c-.405 0-.753-.052-1.044-.156s-.534-.237-.728-.405a2.19 2.19 0 0 1-.458-.533l.667-.468.288.34c.116.131.274.243.476.338s.47.145.799.145c.44 0 .803-.106 1.09-.319s.43-.547.43-1.002v-1.108h-.071c-.062.1-.15.223-.263.37s-.272.273-.483.387-.49.167-.845.167c-.441 0-.836-.104-1.186-.313s-.624-.511-.828-.909-.302-.881-.302-1.449c0-.558.099-1.045.295-1.459s.47-.739.82-.966.756-.345 1.215-.345c.355 0 .637.06.845.178s.372.249.483.398l.263.362h.085v-.867h.81v5.611c0 .469-.107.85-.32 1.144a1.85 1.85 0 0 1-.852.65 3.23 3.23 0 0 1-1.186.209zm-.029-2.997c.336 0 .621-.077.853-.231s.408-.375.529-.664.181-.634.181-1.037c0-.393-.059-.74-.178-1.04s-.293-.537-.525-.707-.519-.256-.86-.256c-.355 0-.651.09-.887.27a1.64 1.64 0 0 0-.53.725 2.8 2.8 0 0 0-.174 1.008c0 .379.06.714.178 1.005s.298.516.533.682.53.245.88.245zm6.847-6.435h1.051l2.472 6.037h.085l2.471-6.037h1.052v7.273h-.824v-5.526h-.071l-2.273 5.526h-.795l-2.273-5.526h-.071v5.526h-.824v-7.273zm10.999 7.387c-.493 0-.925-.118-1.296-.352a2.37 2.37 0 0 1-.867-.984c-.208-.422-.309-.913-.309-1.477s.103-1.064.309-1.488a2.36 2.36 0 0 1 .867-.987c.37-.234.803-.352 1.296-.352s.923.118 1.292.352.661.563.867.987.312.92.312 1.488-.104 1.056-.312 1.477a2.35 2.35 0 0 1-.867.984c-.369.234-.8.352-1.292.352zm0-.753c.374 0 .681-.096.923-.288s.42-.444.536-.756a2.9 2.9 0 0 0 .174-1.016c0-.364-.058-.704-.174-1.019s-.295-.569-.536-.764-.549-.291-.923-.291-.682.097-.924.291-.42.449-.536.764-.174.655-.174 1.019a2.9 2.9 0 0 0 .174 1.016c.116.312.295.564.536.756s.55.288.924.288zm5.81.753c-.454 0-.856-.115-1.204-.345s-.62-.559-.816-.98-.295-.924-.295-1.502.098-1.07.295-1.492.47-.747.82-.976a2.16 2.16 0 0 1 1.214-.345c.356 0 .636.06.842.178s.367.249.476.398l.259.362h.071v-2.685h.838v7.273h-.809v-.838h-.1a5.08 5.08 0 0 1-.263.376c-.113.149-.275.283-.486.402s-.491.174-.842.174zm.114-.753c.336 0 .62-.088.852-.263s.409-.423.529-.735.181-.678.181-1.09-.059-.764-.177-1.069-.294-.547-.526-.718-.518-.259-.859-.259c-.355 0-.651.091-.888.274s-.411.425-.529.735-.174.653-.174 1.037.059.741.178 1.058.298.566.532.753.53.277.881.277zm6.324.753c-.525 0-.979-.116-1.36-.348a2.31 2.31 0 0 1-.877-.981c-.206-.419-.305-.911-.305-1.47s.102-1.051.305-1.477.493-.762.86-1.001.8-.363 1.292-.363c.284 0 .565.048.842.142s.529.249.756.462.409.49.544.838.202.777.202 1.286v.355h-4.205v-.725h3.353c0-.307-.062-.582-.185-.824s-.294-.432-.518-.571-.486-.21-.789-.21a1.5 1.5 0 0 0-.866.249c-.242.163-.428.376-.558.639a1.88 1.88 0 0 0-.195.845v.483c0 .412.071.761.213 1.048a1.51 1.51 0 0 0 .6.65c.256.15.553.22.891.22.221 0 .419-.031.597-.093s.335-.158.465-.284a1.29 1.29 0 0 0 .302-.476l.81.228c-.086.274-.229.516-.43.724s-.45.367-.746.483-.628.171-.998.171zm-88.8-101.114l-1.989-7.273h.895l1.52 5.924h.071l1.548-5.924h.994l1.548 5.924h.071l1.52-5.924h.895l-1.989 7.273h-.909l-1.605-5.796h-.057l-1.605 5.796h-.909zm8.058 0v-5.455h.838v5.455h-.838zm.426-6.364c-.163 0-.304-.055-.423-.167s-.174-.245-.174-.401.058-.29.174-.401.259-.167.423-.167.303.056.419.167a.53.53 0 0 1 .178.401.53.53 0 0 1-.178.401.58.58 0 0 1-.419.167zm2.061 6.364v-7.273h4.361v.781h-3.48v2.458h3.153v.781H69.69v3.253h-.881zm5.756 0v-5.455h.838v5.455h-.838zm.426-6.364c-.163 0-.304-.055-.423-.167s-.174-.245-.174-.401.058-.29.174-.401.259-.167.423-.167.303.056.419.167a.53.53 0 0 1 .178.401.53.53 0 0 1-.178.401.58.58 0 0 1-.419.167z" class="F"/><path d="M27.063 166.773h212m-212 98h212" class="D H"/><g class="F"><path d="M56.944 157.023v-7.273h.881v3.239h3.878v-3.239h.881v7.273h-.881v-3.253h-3.878v3.253h-.881zm9.576.114c-.526 0-.979-.116-1.36-.348s-.671-.562-.877-.981-.305-.911-.305-1.47.102-1.051.305-1.477a2.41 2.41 0 0 1 .859-1.001c.369-.242.8-.363 1.293-.363.284 0 .565.048.842.142a2.09 2.09 0 0 1 .756.462c.227.211.408.49.543.838s.202.777.202 1.286v.355h-4.205v-.725h3.352c0-.307-.061-.582-.185-.824s-.294-.432-.518-.571a1.45 1.45 0 0 0-.788-.21c-.334 0-.623.083-.866.249a1.63 1.63 0 0 0-.558.639 1.88 1.88 0 0 0-.195.845v.483c0 .412.071.761.213 1.048s.344.5.6.65.553.22.891.22a1.8 1.8 0 0 0 .597-.093 1.27 1.27 0 0 0 .465-.284c.13-.128.231-.286.302-.476l.81.228c-.085.274-.228.516-.43.724s-.45.367-.746.483-.628.171-.998.171zm5.138.014c-.346 0-.659-.065-.941-.196s-.505-.323-.671-.571-.248-.554-.248-.909c0-.313.061-.566.185-.76a1.3 1.3 0 0 1 .494-.462c.206-.111.433-.194.682-.249l.756-.134.806-.096c.208-.024.36-.063.455-.118s.146-.149.146-.284v-.028c0-.35-.096-.623-.288-.817s-.477-.291-.863-.291c-.4 0-.714.088-.941.263a1.55 1.55 0 0 0-.479.561l-.795-.284a1.9 1.9 0 0 1 .568-.774c.239-.187.499-.318.781-.391s.564-.114.838-.114c.175 0 .376.022.604.064s.451.125.664.252.394.321.536.579.213.604.213 1.037v3.594h-.838v-.739h-.043c-.057.119-.151.245-.284.38s-.309.25-.529.345-.489.142-.806.142zm.128-.753c.331 0 .611-.065.838-.195s.402-.299.518-.505.178-.422.178-.649v-.768c-.035.043-.114.082-.234.118a4 4 0 0 1-.412.088l-.451.064-.352.043a3.24 3.24 0 0 0-.611.138c-.187.062-.338.156-.454.281s-.171.291-.171.504c0 .291.108.512.323.661s.494.22.827.22zm3.902.625v-5.455h.81v.824h.057c.099-.27.279-.489.54-.657a1.59 1.59 0 0 1 .881-.252l.231.004.21.01v.853a2.43 2.43 0 0 0-.195-.032c-.1-.017-.205-.025-.316-.025-.265 0-.502.055-.71.167a1.26 1.26 0 0 0-.49.454c-.118.192-.177.411-.177.657v3.452h-.838zm6.435-5.455v.711h-2.827v-.711h2.827zm-2.003-1.306h.838v5.198c0 .237.034.415.103.533a.53.53 0 0 0 .27.234 1.08 1.08 0 0 0 .352.057c.092 0 .168-.004.227-.014l.142-.028.171.753c-.057.021-.136.042-.238.063a1.73 1.73 0 0 1-.387.036c-.237 0-.469-.051-.696-.153s-.412-.257-.561-.465-.22-.471-.22-.788v-5.426zm3.494 6.761v-7.273h.838v2.685h.071l.256-.362a1.5 1.5 0 0 1 .476-.398c.208-.118.49-.178.845-.178.459 0 .864.115 1.215.345s.624.555.82.976.295.919.295 1.492-.098 1.078-.295 1.502-.469.748-.817.98-.749.345-1.204.345c-.35 0-.631-.058-.842-.174s-.373-.253-.486-.402l-.263-.376h-.099v.838h-.81zm.824-2.727c0 .412.06.775.181 1.09a1.65 1.65 0 0 0 .529.735c.232.175.516.263.852.263.35 0 .643-.093.877-.277s.414-.438.533-.753.181-.67.181-1.058a2.87 2.87 0 0 0-.177-1.037c-.116-.31-.292-.555-.529-.735s-.529-.274-.884-.274c-.341 0-.627.087-.859.259s-.407.41-.525.718-.178.661-.178 1.069zm7.56 2.841c-.526 0-.979-.116-1.36-.348a2.34 2.34 0 0 1-.877-.981c-.204-.421-.305-.911-.305-1.47s.102-1.051.305-1.477a2.41 2.41 0 0 1 .859-1.001c.369-.242.8-.363 1.293-.363.284 0 .565.048.842.142s.529.249.756.462.408.49.543.838.202.777.202 1.286v.355h-4.205v-.725h3.352c0-.307-.062-.582-.185-.824a1.39 1.39 0 0 0-.519-.571c-.222-.14-.485-.21-.788-.21-.334 0-.623.083-.866.249a1.63 1.63 0 0 0-.558.639 1.88 1.88 0 0 0-.195.845v.483c0 .412.071.761.213 1.048s.344.5.6.65.553.22.891.22c.22 0 .419-.031.597-.093a1.27 1.27 0 0 0 .465-.284c.13-.128.231-.286.302-.476l.81.228c-.085.274-.229.516-.43.724s-.45.367-.746.483-.629.171-.998.171zm5.139.014c-.346 0-.659-.065-.941-.196s-.505-.323-.671-.571-.248-.554-.248-.909c0-.313.061-.566.185-.76a1.3 1.3 0 0 1 .494-.462c.206-.111.433-.194.682-.249l.756-.134.806-.096c.208-.024.36-.063.454-.118s.146-.149.146-.284v-.028c0-.35-.096-.623-.288-.817s-.477-.291-.863-.291c-.4 0-.714.088-.941.263a1.55 1.55 0 0 0-.479.561l-.796-.284c.142-.332.331-.59.568-.774s.499-.318.781-.391.563-.114.838-.114c.175 0 .376.022.604.064s.451.125.664.252.394.321.536.579.213.604.213 1.037v3.594h-.838v-.739h-.043c-.057.119-.151.245-.284.38s-.309.25-.529.345-.489.142-.806.142zm.128-.753c.331 0 .611-.065.838-.195s.402-.299.518-.505.178-.422.178-.649v-.768c-.035.043-.114.082-.234.118a4 4 0 0 1-.412.088l-.451.064-.352.043a3.24 3.24 0 0 0-.611.138c-.187.062-.338.156-.454.281s-.171.291-.171.504c0 .291.108.512.323.661s.494.22.827.22zm6.274-4.83v.711h-2.826v-.711h2.826zm-2.002-1.306h.838v5.198c0 .237.034.415.103.533s.161.194.269.234.229.057.352.057a1.42 1.42 0 0 0 .227-.014l.142-.028.171.753c-.057.021-.136.042-.238.063a1.73 1.73 0 0 1-.387.036 1.68 1.68 0 0 1-.696-.153c-.225-.102-.412-.257-.561-.465s-.22-.471-.22-.788v-5.426z"/><path d="M56.546 377.531v-.781h5.455v.781h-2.287v6.492h-.881v-6.492h-2.287zm8.135 6.492l-1.989-7.273h.895l1.52 5.924h.071l1.548-5.924h.994l1.548 5.924h.071l1.52-5.924h.895l-1.989 7.273h-.909l-1.605-5.796h-.057l-1.605 5.796h-.909zm7.773-6.492v-.781h5.454v.781h-2.287v6.492h-.881v-6.492h-2.287zm9.811 2.856c0-.895.116-1.718.348-2.468a7.7 7.7 0 0 1 1.001-2.078h.739c-.17.235-.33.523-.479.867a8.27 8.27 0 0 0-.387 1.125 10.69 10.69 0 0 0-.263 1.265 9.19 9.19 0 0 0-.092 1.289 9.28 9.28 0 0 0 .163 1.715c.109.58.256 1.118.44 1.616s.391.902.618 1.214h-.739c-.433-.632-.767-1.323-1.001-2.074s-.348-1.577-.348-2.471zm3.041-2.856v-.781h5.454v.781h-2.287v6.492h-.881v-6.492h-2.287zm7.563 6.62c-.346 0-.659-.065-.941-.196s-.505-.323-.671-.571-.249-.554-.249-.909c0-.313.061-.566.185-.76a1.3 1.3 0 0 1 .494-.462 2.62 2.62 0 0 1 .682-.249l.756-.134.806-.096c.208-.024.36-.063.454-.118s.146-.149.146-.284v-.028c0-.35-.096-.623-.288-.817s-.477-.291-.863-.291c-.4 0-.714.088-.941.263a1.55 1.55 0 0 0-.479.561l-.796-.284c.142-.332.332-.59.568-.774s.499-.318.781-.391.563-.114.838-.114a3.39 3.39 0 0 1 .604.064 2 2 0 0 1 .664.252c.213.127.394.321.536.579s.213.604.213 1.037v3.594h-.838v-.739h-.043a1.46 1.46 0 0 1-.284.38 1.65 1.65 0 0 1-.529.345c-.22.095-.489.142-.806.142zm.128-.753c.332 0 .611-.065.838-.195s.402-.299.518-.505.178-.422.178-.649v-.768c-.035.043-.114.082-.234.118a3.41 3.41 0 0 1-.412.088l-.451.064-.352.043a3.24 3.24 0 0 0-.611.138c-.187.062-.339.156-.455.281s-.17.291-.17.504c0 .291.108.512.323.661s.494.22.827.22zm3.902.625v-5.455h.81v.824h.057a1.31 1.31 0 0 1 .54-.657 1.59 1.59 0 0 1 .881-.252l.231.004.21.01v.853a2.43 2.43 0 0 0-.195-.032c-.099-.017-.205-.025-.316-.025-.265 0-.502.055-.71.167a1.26 1.26 0 0 0-.49.454 1.23 1.23 0 0 0-.178.657v3.452h-.838zm5.756 2.159c-.405 0-.753-.052-1.044-.156s-.534-.237-.728-.405-.344-.343-.458-.533l.668-.468c.075.099.171.213.287.34s.275.243.476.338.47.145.799.145c.44 0 .804-.106 1.09-.319s.43-.547.43-1.002v-1.108h-.071c-.062.1-.149.223-.263.37s-.272.273-.483.387-.49.167-.845.167a2.27 2.27 0 0 1-1.186-.313c-.348-.208-.624-.511-.828-.909s-.301-.881-.301-1.449c0-.558.098-1.045.294-1.459s.47-.739.821-.966a2.16 2.16 0 0 1 1.214-.345c.355 0 .637.06.845.178s.372.249.483.398l.263.362h.085v-.867h.81v5.611c0 .469-.107.85-.32 1.144s-.494.512-.852.65a3.26 3.26 0 0 1-1.186.209zm-.028-2.997c.336 0 .62-.077.852-.231s.408-.375.529-.664.181-.634.181-1.037c0-.393-.059-.74-.177-1.04s-.294-.537-.526-.707-.518-.256-.859-.256c-.355 0-.651.09-.888.27s-.411.422-.529.725a2.8 2.8 0 0 0-.174 1.008c0 .379.059.714.177 1.005s.299.516.533.682.53.245.881.245zm6.207.952c-.526 0-.979-.116-1.36-.348a2.34 2.34 0 0 1-.877-.981c-.204-.421-.306-.911-.306-1.47s.102-1.051.306-1.477a2.41 2.41 0 0 1 .859-1.001c.369-.242.8-.363 1.293-.363a2.6 2.6 0 0 1 .841.142 2.09 2.09 0 0 1 .757.462c.227.211.408.49.543.838s.203.777.203 1.286v.355h-4.205v-.725h3.352c0-.307-.061-.582-.184-.824a1.39 1.39 0 0 0-.519-.571c-.222-.14-.485-.21-.788-.21-.334 0-.623.083-.867.249a1.63 1.63 0 0 0-.557.639c-.13.263-.196.545-.196.845v.483c0 .412.071.761.214 1.048s.344.5.6.65.552.22.891.22c.22 0 .419-.031.597-.093s.335-.158.465-.284a1.29 1.29 0 0 0 .302-.476l.809.228c-.085.274-.228.516-.429.724a2.1 2.1 0 0 1-.746.483 2.76 2.76 0 0 1-.998.171zm5.906-5.569v.711h-2.827v-.711h2.827zm-2.003-1.306h.838v5.198c0 .237.034.415.103.533a.53.53 0 0 0 .27.234c.111.038.228.057.351.057.093 0 .168-.004.227-.014l.143-.028.17.753c-.057.021-.136.042-.238.063a1.73 1.73 0 0 1-.387.036 1.68 1.68 0 0 1-.696-.153c-.225-.102-.412-.257-.561-.465s-.22-.471-.22-.788v-5.426zm7.51 6.761l-1.988-7.273h.895l1.519 5.924h.072l1.548-5.924h.994l1.548 5.924h.071l1.52-5.924h.895l-1.988 7.273h-.91l-1.605-5.796h-.056l-1.606 5.796h-.909zm9.155.128c-.345 0-.659-.065-.941-.196s-.505-.323-.671-.571-.249-.554-.249-.909c0-.313.062-.566.185-.76a1.3 1.3 0 0 1 .494-.462c.206-.111.433-.194.681-.249l.757-.134.806-.096c.208-.024.36-.063.455-.118s.145-.149.145-.284v-.028c0-.35-.096-.623-.288-.817s-.477-.291-.862-.291c-.401 0-.714.088-.941.263s-.388.362-.48.561l-.795-.284c.142-.332.331-.59.568-.774a2.12 2.12 0 0 1 .781-.391c.284-.076.564-.114.838-.114a3.38 3.38 0 0 1 .604.064 1.97 1.97 0 0 1 .664.252c.215.128.394.321.536.579s.213.604.213 1.037v3.594h-.838v-.739h-.042c-.057.119-.152.245-.285.38a1.64 1.64 0 0 1-.529.345c-.22.094-.489.142-.806.142zm.128-.753c.331 0 .611-.065.838-.195a1.35 1.35 0 0 0 .519-.505c.116-.206.177-.422.177-.649v-.768c-.035.043-.114.082-.234.118a3.41 3.41 0 0 1-.412.088l-.451.064-.352.043a3.25 3.25 0 0 0-.611.138 1.06 1.06 0 0 0-.454.281c-.114.123-.171.291-.171.504 0 .291.108.512.324.661s.493.22.827.22zm4.683-1.364l-.014-1.037h.17l2.387-2.429h1.037l-2.543 2.571h-.071l-.966.895zm-.781 1.989v-7.273h.838v7.273h-.838zm3.466 0l-2.131-2.699.597-.582 2.599 3.281h-1.065zm4.036.114c-.526 0-.979-.116-1.36-.348s-.672-.562-.878-.981-.305-.911-.305-1.47.102-1.051.305-1.477.493-.762.86-1.001.8-.363 1.292-.363c.284 0 .565.048.842.142s.529.249.756.462.409.49.544.838.202.777.202 1.286v.355h-4.204v-.725h3.352c0-.307-.062-.582-.185-.824a1.39 1.39 0 0 0-.518-.571c-.223-.14-.486-.21-.789-.21-.333 0-.622.083-.866.249a1.64 1.64 0 0 0-.558.639 1.88 1.88 0 0 0-.195.845v.483c0 .412.071.761.213 1.048a1.55 1.55 0 0 0 .6.65c.256.146.553.22.892.22.22 0 .419-.031.596-.093s.335-.158.465-.284.231-.286.302-.476l.81.228c-.085.274-.229.516-.43.724s-.45.367-.746.483a2.75 2.75 0 0 1-.997.171zm6.061-6.606v-.781h5.455v.781h-2.287v6.492h-.881v-6.492h-2.287zm6.701 6.492v-5.455h.838v5.455h-.838zm.426-6.364a.59.59 0 0 1-.423-.167c-.116-.111-.174-.245-.174-.401s.058-.29.174-.401.259-.167.423-.167.303.056.419.167a.53.53 0 0 1 .177.401.53.53 0 0 1-.177.401.58.58 0 0 1-.419.167zm1.947 6.364v-5.455h.809v.853h.071c.114-.292.297-.518.551-.679s.557-.245.912-.245.66.082.899.245.429.387.564.679h.057a1.58 1.58 0 0 1 .629-.671c.279-.169.614-.253 1.005-.253.487 0 .886.153 1.196.458s.466.776.466 1.417v3.651h-.838v-3.651c0-.402-.111-.69-.331-.863a1.22 1.22 0 0 0-.777-.259c-.384 0-.681.116-.892.348s-.316.521-.316.874v3.551h-.852v-3.736a.98.98 0 0 0-.302-.749c-.201-.192-.46-.288-.778-.288-.217 0-.421.058-.61.174a1.3 1.3 0 0 0-.455.483c-.116.206-.17.439-.17.707v3.409h-.838zm10.978.114c-.526 0-.979-.116-1.36-.348a2.34 2.34 0 0 1-.877-.981c-.204-.421-.306-.911-.306-1.47s.102-1.051.306-1.477a2.41 2.41 0 0 1 .859-1.001c.369-.242.8-.363 1.293-.363a2.6 2.6 0 0 1 .841.142 2.1 2.1 0 0 1 .757.462c.227.211.408.49.543.838s.202.777.202 1.286v.355h-4.204v-.725h3.352c0-.307-.061-.582-.185-.824a1.38 1.38 0 0 0-.518-.571 1.45 1.45 0 0 0-.788-.21c-.334 0-.623.083-.867.249a1.63 1.63 0 0 0-.557.639 1.87 1.87 0 0 0-.196.845v.483c0 .412.071.761.213 1.048a1.51 1.51 0 0 0 .601.65c.256.15.552.22.891.22.22 0 .419-.031.596-.093a1.28 1.28 0 0 0 .466-.284 1.29 1.29 0 0 0 .302-.476l.809.228c-.085.274-.228.516-.429.724a2.1 2.1 0 0 1-.746.483 2.76 2.76 0 0 1-.998.171zm5.323-3.182c0 .895-.117 1.719-.352 2.471a7.63 7.63 0 0 1-.997 2.074h-.739c.17-.234.329-.523.476-.866a8.55 8.55 0 0 0 .39-1.122 10.35 10.35 0 0 0 .26-1.268 8.91 8.91 0 0 0 .096-1.289c0-.564-.055-1.135-.164-1.715a9.84 9.84 0 0 0-.44-1.616c-.185-.497-.391-.902-.618-1.215h.739c.433.632.765 1.325.997 2.078s.352 1.573.352 2.468zM56.944 184.023v-7.273h2.457c.568 0 1.035.097 1.399.291a1.86 1.86 0 0 1 .81.792c.175.336.263.719.263 1.147a2.4 2.4 0 0 1-.263 1.14c-.175.332-.444.592-.806.782s-.825.28-1.389.28h-1.989v-.795h1.96c.388 0 .701-.057.938-.171s.412-.274.519-.483a1.62 1.62 0 0 0 .163-.753c0-.291-.054-.545-.163-.763a1.11 1.11 0 0 0-.522-.504c-.239-.121-.555-.182-.948-.182h-1.548v6.492h-.881zm3.423-3.267l1.79 3.267h-1.023l-1.761-3.267h.994zm5.088 3.381c-.526 0-.979-.116-1.36-.348a2.31 2.31 0 0 1-.877-.981c-.206-.419-.305-.911-.305-1.47s.102-1.051.305-1.477a2.41 2.41 0 0 1 .859-1.001c.369-.242.8-.363 1.293-.363.284 0 .565.048.842.142a2.09 2.09 0 0 1 .756.462 2.21 2.21 0 0 1 .543.838c.135.348.202.777.202 1.286v.355h-4.205v-.725h3.352c0-.307-.062-.582-.185-.824a1.39 1.39 0 0 0-.519-.571c-.222-.14-.485-.21-.788-.21-.334 0-.623.083-.867.249a1.63 1.63 0 0 0-.557.639 1.88 1.88 0 0 0-.195.845v.483c0 .412.071.761.213 1.048a1.51 1.51 0 0 0 .6.65c.256.15.553.22.891.22a1.8 1.8 0 0 0 .597-.093 1.27 1.27 0 0 0 .465-.284 1.29 1.29 0 0 0 .302-.476l.81.228c-.085.274-.228.516-.43.724s-.45.367-.746.483-.629.171-.998.171zm3.533-.114v-5.455h.81v.853h.071a1.37 1.37 0 0 1 .55-.679 1.65 1.65 0 0 1 .913-.245c.36 0 .659.082.898.245a1.6 1.6 0 0 1 .565.679h.057a1.58 1.58 0 0 1 .629-.671c.28-.165.614-.253 1.005-.253.488 0 .887.153 1.197.458s.465.776.465 1.417v3.651h-.838v-3.651c0-.402-.11-.69-.33-.863a1.22 1.22 0 0 0-.778-.259c-.383 0-.681.116-.891.348s-.316.521-.316.874v3.551h-.852v-3.736a.98.98 0 0 0-.302-.749c-.201-.189-.46-.288-.778-.288a1.15 1.15 0 0 0-.611.174c-.187.116-.338.277-.454.483s-.171.439-.171.707v3.409h-.838zm8.691 0v-5.455h.838v5.455h-.838zm.426-6.364c-.163 0-.304-.055-.423-.167s-.174-.245-.174-.401.058-.29.174-.401.259-.167.423-.167.303.056.419.167a.53.53 0 0 1 .178.401.53.53 0 0 1-.178.401.58.58 0 0 1-.419.167zm2.785 3.083v3.281h-.838v-5.455h.81v.853h.071a1.56 1.56 0 0 1 .582-.668c.26-.17.597-.256 1.008-.256.369 0 .692.076.969.228a1.53 1.53 0 0 1 .646.681c.154.304.231.687.231 1.151v3.466h-.838v-3.409c0-.429-.111-.762-.334-1.002s-.528-.362-.916-.362a1.46 1.46 0 0 0-.717.174 1.25 1.25 0 0 0-.494.508c-.121.223-.181.492-.181.81zm5.011 3.281v-5.455h.838v5.455h-.838zm.426-6.364c-.163 0-.304-.055-.423-.167s-.174-.245-.174-.401.058-.29.174-.401.259-.167.423-.167.303.056.419.167a.53.53 0 0 1 .178.401.53.53 0 0 1-.178.401.58.58 0 0 1-.419.167zm5.811 2.131l-.753.213a1.42 1.42 0 0 0-.209-.366c-.09-.12-.213-.22-.369-.298s-.356-.117-.6-.117c-.334 0-.612.077-.835.231s-.33.344-.33.578c0 .209.076.373.227.494s.388.221.71.302l.81.199c.488.118.851.299 1.09.543s.359.553.359.934c0 .313-.09.592-.27.838a1.8 1.8 0 0 1-.746.583c-.32.142-.691.213-1.115.213-.556 0-1.017-.121-1.381-.363s-.595-.594-.693-1.058l.796-.199c.076.294.219.514.43.661s.491.22.835.22c.391 0 .701-.083.93-.249s.348-.369.348-.603a.63.63 0 0 0-.199-.476c-.133-.128-.336-.227-.611-.291l-.909-.213c-.5-.119-.866-.302-1.101-.551s-.348-.564-.348-.941a1.35 1.35 0 0 1 .259-.817 1.77 1.77 0 0 1 .714-.557c.303-.135.646-.203 1.03-.203.54 0 .964.119 1.271.355a1.93 1.93 0 0 1 .66.938zm3.577 4.347c-.511 0-.952-.121-1.321-.363a2.36 2.36 0 0 1-.852-.997c-.199-.424-.298-.908-.298-1.453 0-.554.102-1.043.305-1.467a2.41 2.41 0 0 1 .859-.997c.369-.242.8-.363 1.293-.363.384 0 .729.071 1.037.213s.56.341.756.597.318.554.366.895h-.838a1.3 1.3 0 0 0-.426-.661c-.218-.194-.511-.291-.881-.291-.327 0-.613.085-.859.256s-.434.406-.572.714-.202.664-.202 1.076c0 .421.066.788.199 1.101a1.69 1.69 0 0 0 .568.728c.246.172.535.259.867.259a1.49 1.49 0 0 0 .593-.114 1.23 1.23 0 0 0 .451-.327 1.25 1.25 0 0 0 .263-.511h.838a1.94 1.94 0 0 1-.352.87c-.185.256-.43.459-.735.611a2.37 2.37 0 0 1-1.058.224zm5.657 0c-.525 0-.979-.116-1.36-.348a2.34 2.34 0 0 1-.877-.981c-.204-.421-.305-.911-.305-1.47s.102-1.051.305-1.477a2.41 2.41 0 0 1 .859-1.001c.37-.242.8-.363 1.293-.363a2.6 2.6 0 0 1 .841.142 2.09 2.09 0 0 1 .757.462c.227.211.408.49.543.838s.203.777.203 1.286v.355h-4.205v-.725h3.352c0-.307-.061-.582-.184-.824a1.39 1.39 0 0 0-.519-.571c-.222-.14-.485-.21-.788-.21-.334 0-.623.083-.867.249a1.63 1.63 0 0 0-.557.639 1.88 1.88 0 0 0-.195.845v.483c0 .412.071.761.213 1.048a1.54 1.54 0 0 0 .6.65c.255.146.553.22.891.22.22 0 .419-.031.597-.093s.335-.158.465-.284a1.29 1.29 0 0 0 .302-.476l.809.228c-.085.274-.228.516-.429.724a2.1 2.1 0 0 1-.746.483 2.76 2.76 0 0 1-.998.171zM56.944 276.75h1.051l2.471 6.037h.085l2.472-6.037h1.051v7.273h-.824v-5.526h-.071l-2.273 5.526h-.795l-2.273-5.526h-.071v5.526h-.824v-7.273zm11.539 5h.966l.81 1.066.213.284 1.207 1.605h-.966l-.795-1.066-.199-.269-1.236-1.62zm3.494-1.363c0 .767-.138 1.43-.415 1.988s-.657.99-1.14 1.293-1.035.454-1.655.454-1.172-.151-1.655-.454-.863-.734-1.14-1.293-.416-1.221-.416-1.988.139-1.43.416-1.989.657-.99 1.14-1.293 1.035-.454 1.655-.454 1.172.151 1.655.454.863.734 1.14 1.293.415 1.222.415 1.989zm-.852 0c0-.63-.105-1.162-.316-1.595s-.491-.761-.849-.984-.753-.333-1.193-.333-.839.111-1.197.333-.638.551-.849.984-.312.965-.312 1.595.104 1.161.313 1.594.494.761.849.984.756.334 1.197.334.838-.112 1.193-.334a2.31 2.31 0 0 0 .849-.984c.209-.433.316-.965.316-1.594zm1.633-2.856v-.781h5.455v.781h-2.287v6.492h-.881v-6.492h-2.287zm6.416 0v-.781h5.455v.781h-2.287v6.492h-.881v-6.492h-2.287z"/></g><g clip-path="url(#E)" class="C"><path d="M41.98 121.69h-1.667v-.417a1.25 1.25 0 1 0-2.5 0v.417h-1.667c-1.149 0-2.083.934-2.083 2.083v4.167c0 1.148.935 2.083 2.083 2.083h5.833c1.149 0 2.083-.935 2.083-2.083v-4.167c0-1.149-.935-2.083-2.083-2.083zm-3.333-.417c0-.23.187-.417.417-.417s.417.187.417.417v.831.419h-.834v-1.25h.001zm4.583 6.667a1.25 1.25 0 0 1-1.25 1.25h-5.833a1.25 1.25 0 0 1-1.25-1.25v-4.167a1.25 1.25 0 0 1 1.25-1.25h1.667c0 .46.374.833.833.833h.833c.46 0 .833-.373.833-.833h1.667a1.25 1.25 0 0 1 1.25 1.25v4.167zm-5.208-2.709a1.04 1.04 0 1 1 2.083 0 1.04 1.04 0 1 1-2.083 0zm3.112 3.022c.057.222-.077.45-.3.507s-.45-.077-.508-.3c-.138-.534-.681-.937-1.263-.937s-1.126.403-1.263.937c-.048.188-.218.313-.403.313-.034 0-.069-.004-.104-.013-.223-.057-.357-.285-.3-.507.233-.906 1.103-1.563 2.07-1.563s1.837.657 2.07 1.563h.001z"/></g><path d="M41.506 156.023H37.62a1.6 1.6 0 0 1-.651-.138 1.54 1.54 0 0 1-.532-.387 1.46 1.46 0 0 1-.312-.555c-.062-.204-.077-.419-.044-.629.209-1.097.815-2.086 1.711-2.791-.896-.705-1.502-1.695-1.711-2.792-.032-.21-.017-.425.044-.629s.168-.393.312-.554a1.54 1.54 0 0 1 .532-.387 1.6 1.6 0 0 1 .651-.138h3.886a1.6 1.6 0 0 1 .651.138 1.54 1.54 0 0 1 .532.387c.144.161.251.35.312.554a1.43 1.43 0 0 1 .045.629 4.68 4.68 0 0 1-1.715 2.792 4.68 4.68 0 0 1 1.713 2.793c.032.21.017.425-.044.629a1.45 1.45 0 0 1-.312.554c-.146.164-.328.296-.532.386s-.426.138-.65.138zm0-8.25H37.62a.8.8 0 0 0-.327.069.78.78 0 0 0-.267.193c-.072.079-.125.172-.156.273a.7.7 0 0 0-.022.311c.146.937.748 1.815 1.789 2.609.046.035.083.08.109.131a.36.36 0 0 1 .039.163c0 .056-.013.112-.039.163s-.063.096-.109.131c-1.041.794-1.641 1.673-1.789 2.61-.017.104-.009.21.022.311a.71.71 0 0 0 .156.273.77.77 0 0 0 .267.194.8.8 0 0 0 .327.069h3.886a.8.8 0 0 0 .327-.069.77.77 0 0 0 .267-.194.7.7 0 0 0 .156-.272c.031-.101.038-.207.022-.31-.145-.933-.747-1.811-1.789-2.611-.046-.035-.083-.08-.108-.131a.36.36 0 0 1-.038-.162c0-.057.013-.112.038-.163s.062-.095.108-.131c1.042-.799 1.644-1.678 1.789-2.611.016-.104.009-.21-.022-.311s-.085-.194-.157-.273a.78.78 0 0 0-.267-.193.81.81 0 0 0-.326-.069zm-.513 6.75h-2.863c-.064 0-.126-.015-.182-.044s-.104-.07-.14-.121a.37.37 0 0 1-.064-.171.36.36 0 0 1 .026-.179c.304-.634.768-1.185 1.35-1.602l.201-.155c.069-.053.154-.081.242-.081s.173.028.242.081l.198.152c.58.419 1.044.97 1.35 1.604.024.057.033.119.026.18s-.029.119-.064.17-.084.093-.14.122a.4.4 0 0 1-.183.044zm-2.196-.75h1.527c-.222-.279-.478-.531-.763-.75a4.29 4.29 0 0 0-.764.75z" class="C"/><g clip-path="url(#F)" class="C"><path d="M39.563 174.023a5.49 5.49 0 0 0-3.667 1.408v-.95a.46.46 0 0 0-.458-.458.46.46 0 0 0-.458.458v1.375c0 .365.145.715.403.973a1.38 1.38 0 0 0 .972.402h1.375a.46.46 0 0 0 .324-.134c.086-.086.134-.202.134-.324s-.048-.238-.134-.324a.46.46 0 0 0-.324-.134h-1.375l-.046-.01a4.58 4.58 0 0 1 2.786-1.329c1.055-.107 2.114.155 2.996.742a4.58 4.58 0 0 1-3.429 8.301c-1.04-.207-1.975-.768-2.647-1.588a4.58 4.58 0 0 1-1.036-2.908c0-.122-.048-.238-.134-.324a.46.46 0 0 0-.648 0c-.086.086-.134.202-.134.324a5.5 5.5 0 0 0 3.395 5.081c1.005.417 2.111.525 3.178.313a5.5 5.5 0 0 0 1.982-9.967 5.5 5.5 0 0 0-3.056-.927zm0 2.75a.46.46 0 0 0-.458.458v2.292a.46.46 0 0 0 .134.324l1.375 1.375a.46.46 0 0 0 .776-.326c.001-.12-.045-.236-.129-.322l-1.241-1.241v-2.102a.46.46 0 0 0-.458-.458z"/></g><g class="E"><use href="#P"/><use href="#P" y="-64"/><use href="#Q"/></g><g clip-path="url(#G)" class="C"><path d="M39.48 249.315c0-.596.487-1.084 1.083-1.084s1.083.488 1.083 1.084-.487 1.083-1.083 1.083-1.083-.488-1.083-1.083zm4.528-2.297c.32-.32.32-.834 0-1.148a4.88 4.88 0 0 0-6.895 0c-.32.319-.32.834 0 1.148s.834.32 1.148 0c1.267-1.268 3.331-1.268 4.599 0 .157.157.368.238.574.238s.417-.081.574-.238zm2.8-2.53c.325-.308.336-.823.027-1.148l-.146-.152c-1.636-1.635-3.813-2.54-6.126-2.54s-4.49.899-6.126 2.535l-.146.152c-.309.325-.298.839.027 1.148s.84.298 1.148-.027l.119-.125a6.99 6.99 0 0 1 4.978-2.063c1.88 0 3.651.731 4.983 2.063l.119.119a.8.8 0 0 0 .585.25c.2 0 .406-.076.563-.222l-.005.01z"/></g><g clip-path="url(#H)"><path d="M220.063 342.523h-5c-2.757 0-5 2.243-5 5s2.243 5 5 5h5c2.757 0 5-2.243 5-5s-2.243-5-5-5zm0 9.375h-5a4.38 4.38 0 0 1-4.375-4.375 4.38 4.38 0 0 1 4.375-4.375h5a4.38 4.38 0 0 1 4.375 4.375 4.38 4.38 0 0 1-4.375 4.375zm-5-6.875c-1.379 0-2.5 1.121-2.5 2.5s1.121 2.5 2.5 2.5 2.5-1.121 2.5-2.5-1.121-2.5-2.5-2.5zm0 4.375a1.88 1.88 0 0 1-1.875-1.875 1.88 1.88 0 0 1 1.875-1.875 1.88 1.88 0 0 1 1.875 1.875 1.88 1.88 0 0 1-1.875 1.875z" fill="#5a5c66"/></g><g clip-path="url(#I)" class="G"><path d="M220.063 374.523h-5c-2.757 0-5 2.243-5 5s2.243 5 5 5h5c2.757 0 5-2.243 5-5s-2.243-5-5-5zm0 8.125a3.13 3.13 0 0 1-3.125-3.125 3.13 3.13 0 0 1 3.125-3.125 3.13 3.13 0 0 1 3.125 3.125 3.13 3.13 0 0 1-3.125 3.125z"/></g><path d="M29.796 414.023h-.881c-.052-.253-.143-.476-.273-.668a1.86 1.86 0 0 0-.469-.483c-.185-.131-.385-.232-.607-.298s-.455-.099-.696-.099c-.44 0-.839.111-1.197.333s-.638.551-.849.984-.312.965-.312 1.595.104 1.161.313 1.594.494.761.849.984.756.334 1.197.334a2.44 2.44 0 0 0 .696-.1 2.01 2.01 0 0 0 .607-.295c.185-.132.341-.294.469-.486a1.89 1.89 0 0 0 .273-.668h.881c-.066.372-.187.705-.362.998a2.72 2.72 0 0 1-.653.749c-.261.204-.553.359-.877.466s-.666.159-1.033.159c-.62 0-1.172-.151-1.655-.454s-.863-.734-1.14-1.293-.415-1.221-.415-1.988.139-1.43.415-1.989a3.11 3.11 0 0 1 1.14-1.293c.483-.303 1.035-.454 1.655-.454.367 0 .711.053 1.033.16a2.85 2.85 0 0 1 .877.468c.26.206.478.453.653.746a2.91 2.91 0 0 1 .362.998zm3.525 5.114c-.492 0-.924-.118-1.296-.352s-.658-.562-.866-.984-.309-.913-.309-1.477.103-1.064.309-1.488a2.38 2.38 0 0 1 .866-.987c.372-.234.804-.352 1.296-.352s.923.118 1.293.352a2.36 2.36 0 0 1 .867.987c.206.424.313.92.313 1.488s-.104 1.056-.312 1.477a2.35 2.35 0 0 1-.867.984c-.369.234-.8.352-1.293.352zm0-.753c.374 0 .682-.096.923-.288s.42-.444.536-.756a2.9 2.9 0 0 0 .174-1.016c0-.364-.058-.704-.174-1.019s-.295-.569-.536-.764-.549-.291-.923-.291-.682.097-.923.291a1.72 1.72 0 0 0-.536.764c-.116.315-.174.655-.174 1.019a2.9 2.9 0 0 0 .174 1.016c.116.312.295.564.536.756s.549.288.923.288zm4.589-2.642v3.281h-.838v-5.455h.81v.853h.071a1.56 1.56 0 0 1 .582-.668c.261-.17.597-.256 1.009-.256.369 0 .692.076.969.228a1.53 1.53 0 0 1 .646.681c.154.304.231.687.231 1.151v3.466h-.838v-3.409c0-.429-.111-.762-.334-1.002s-.528-.362-.916-.362a1.46 1.46 0 0 0-.717.174 1.25 1.25 0 0 0-.494.508c-.121.223-.181.492-.181.81zm7.441-2.174v.711h-2.94v-.711h2.94zm-2.06 5.455v-6.207c0-.313.073-.573.22-.782s.337-.364.572-.468.482-.157.742-.157c.206 0 .374.017.504.05a1.99 1.99 0 0 1 .291.092l-.241.725-.178-.053a1.05 1.05 0 0 0-.291-.032c-.277 0-.477.069-.6.209s-.181.345-.181.614v6.009h-.838zm3.234 0v-5.455h.838v5.455h-.838zm.426-6.364c-.163 0-.304-.055-.423-.167s-.174-.245-.174-.401.058-.29.174-.401.259-.167.423-.167.303.056.419.167a.53.53 0 0 1 .177.401.53.53 0 0 1-.177.401.58.58 0 0 1-.419.167zm4.149 8.523c-.405 0-.753-.052-1.044-.156s-.534-.237-.728-.405-.344-.343-.458-.533l.668-.468.288.34c.116.131.275.243.476.338s.47.145.799.145c.44 0 .804-.106 1.09-.319s.43-.547.43-1.002v-1.108h-.071a4.42 4.42 0 0 1-.263.37 1.5 1.5 0 0 1-.483.387c-.208.111-.49.167-.845.167a2.27 2.27 0 0 1-1.186-.313c-.348-.208-.624-.511-.827-.909s-.302-.881-.302-1.449c0-.558.098-1.045.295-1.459s.47-.739.82-.966.755-.345 1.214-.345c.355 0 .637.06.845.178s.372.249.483.398l.263.362h.085v-.867h.81v5.611c0 .469-.107.85-.32 1.144a1.85 1.85 0 0 1-.852.65 3.23 3.23 0 0 1-1.186.209zm-.028-2.997c.336 0 .62-.077.852-.231s.408-.375.529-.664.181-.634.181-1.037c0-.393-.059-.74-.178-1.04s-.294-.537-.526-.707-.519-.256-.859-.256c-.355 0-.651.09-.888.27s-.411.422-.529.725a2.8 2.8 0 0 0-.174 1.008 2.65 2.65 0 0 0 .178 1.005 1.54 1.54 0 0 0 .533.682c.237.163.53.245.881.245zm7.358-1.392v-3.225h.838v5.455h-.838v-.923h-.057c-.128.277-.327.512-.597.706s-.611.288-1.023.288c-.341 0-.644-.075-.909-.224a1.55 1.55 0 0 1-.625-.682c-.151-.303-.227-.69-.227-1.154v-3.466h.838v3.409c0 .398.111.715.334.952s.511.355.859.355c.208 0 .42-.053.636-.159a1.39 1.39 0 0 0 .547-.491c.147-.221.224-.5.224-.841zm2.373 2.23v-5.455h.81v.824h.057a1.31 1.31 0 0 1 .54-.657 1.59 1.59 0 0 1 .881-.252l.231.004.209.01v.853a2.43 2.43 0 0 0-.195-.032c-.099-.017-.205-.025-.316-.025-.265 0-.502.055-.71.167a1.26 1.26 0 0 0-.49.454 1.23 1.23 0 0 0-.178.657v3.452h-.838zm5.842.114c-.526 0-.979-.116-1.36-.348a2.31 2.31 0 0 1-.877-.981c-.206-.419-.305-.911-.305-1.47s.102-1.051.305-1.477a2.41 2.41 0 0 1 .859-1.001c.369-.242.8-.363 1.293-.363.284 0 .565.048.842.142a2.09 2.09 0 0 1 .756.462c.227.211.408.49.543.838s.202.777.202 1.286v.355h-4.205v-.725h3.352c0-.307-.061-.582-.185-.824a1.41 1.41 0 0 0-.518-.571 1.45 1.45 0 0 0-.788-.21c-.334 0-.623.083-.866.249a1.63 1.63 0 0 0-.558.639 1.88 1.88 0 0 0-.195.845v.483c0 .412.071.761.213 1.048a1.51 1.51 0 0 0 .6.65c.256.15.553.22.891.22a1.8 1.8 0 0 0 .597-.093 1.27 1.27 0 0 0 .465-.284 1.29 1.29 0 0 0 .302-.476l.81.228c-.085.274-.228.516-.43.724s-.45.367-.746.483-.628.171-.998.171zm130.299 29.886v-7.273h2.457c.568 0 1.035.097 1.399.291s.635.456.81.792.263.719.263 1.147-.088.809-.263 1.14-.444.592-.806.782-.825.28-1.388.28h-1.989v-.795h1.96c.388 0 .701-.057.938-.171s.412-.274.518-.483a1.65 1.65 0 0 0 .163-.753c0-.292-.054-.545-.163-.763a1.11 1.11 0 0 0-.522-.504c-.239-.121-.555-.182-.948-.182h-1.548v6.492h-.881zm3.423-3.267l1.79 3.267h-1.023l-1.761-3.267h.994zm6.951-2.188c-.043-.359-.216-.639-.519-.838s-.675-.298-1.115-.298a2.12 2.12 0 0 0-.845.156c-.239.104-.426.248-.561.43s-.199.389-.199.621c0 .195.046.361.139.501a1.23 1.23 0 0 0 .362.345c.147.09.3.164.461.223l.444.139.739.199c.189.049.4.118.632.206a2.92 2.92 0 0 1 .671.358 1.82 1.82 0 0 1 .533.576c.14.234.209.522.209.863 0 .393-.103.748-.309 1.065s-.501.569-.894.756-.866.281-1.424.281c-.521 0-.972-.084-1.353-.252s-.678-.403-.895-.703a2 2 0 0 1-.366-1.048h.909c.024.275.116.502.277.682s.369.31.618.397.521.128.81.128c.336 0 .638-.054.905-.163a1.55 1.55 0 0 0 .636-.462c.156-.199.234-.431.234-.696 0-.241-.067-.438-.202-.589s-.313-.275-.533-.369a5.68 5.68 0 0 0-.714-.249l-.895-.256c-.568-.163-1.018-.396-1.349-.699s-.497-.7-.497-1.19c0-.407.11-.762.33-1.065a2.2 2.2 0 0 1 .895-.711c.376-.17.797-.255 1.261-.255s.885.084 1.25.252.653.393.866.682a1.7 1.7 0 0 1 .341.983h-.852zm2.101 3.963v-.724l3.196-5.057h.526v1.122h-.355l-2.415 3.821v.057h4.304v.781h-5.256zm3.423 1.492v-1.712-.337-5.224h.838v7.273h-.838zm5.493.099c-.488 0-.918-.086-1.293-.259a2.12 2.12 0 0 1-.87-.721c-.208-.307-.311-.658-.309-1.051-.002-.308.058-.592.182-.852a1.85 1.85 0 0 1 .504-.657c.215-.178.456-.29.721-.337v-.043c-.348-.09-.625-.285-.831-.586s-.308-.648-.306-1.033a1.76 1.76 0 0 1 .281-.991c.189-.291.45-.521.781-.689s.714-.252 1.14-.252.798.084 1.129.252a1.98 1.98 0 0 1 .782.689c.191.291.288.621.291.991a1.81 1.81 0 0 1-.316 1.033 1.4 1.4 0 0 1-.821.586v.043c.263.047.5.159.711.337a1.94 1.94 0 0 1 .504.657 1.98 1.98 0 0 1 .192.852c-.003.393-.109.744-.32 1.051a2.12 2.12 0 0 1-.87.721c-.372.175-.797.259-1.282.259zm0-.781c.329 0 .613-.053.852-.16s.424-.257.554-.451.197-.421.199-.681a1.3 1.3 0 0 0-.213-.728c-.14-.211-.33-.377-.572-.498s-.512-.181-.82-.181a1.86 1.86 0 0 0-.831.181c-.241.121-.432.287-.572.498s-.204.453-.202.728a1.19 1.19 0 0 0 .188.681 1.26 1.26 0 0 0 .558.451c.241.107.528.16.859.16zm0-3.452c.26 0 .491-.052.693-.156a1.19 1.19 0 0 0 .479-.437 1.25 1.25 0 0 0 .178-.657c-.003-.246-.061-.46-.175-.642a1.12 1.12 0 0 0-.472-.426c-.201-.102-.435-.153-.703-.153a1.59 1.59 0 0 0-.714.153 1.11 1.11 0 0 0-.472.426 1.18 1.18 0 0 0-.163.642c-.003.251.053.47.167.657a1.17 1.17 0 0 0 .479.437c.204.104.438.156.703.156zm6.105 4.233a2.49 2.49 0 0 1-1.125-.248 2.09 2.09 0 0 1-.803-.682 1.86 1.86 0 0 1-.33-.987h.852c.033.329.182.601.448.817a1.49 1.49 0 0 0 .958.319c.299 0 .564-.07.796-.209a1.48 1.48 0 0 0 .55-.576c.135-.246.203-.524.203-.834 0-.317-.07-.6-.21-.849a1.57 1.57 0 0 0-.568-.593c-.241-.144-.517-.218-.827-.22a2.29 2.29 0 0 0-.686.103c-.234.069-.427.157-.579.266l-.824-.099.441-3.58h3.778v.781h-3.04l-.255 2.145h.042c.15-.118.337-.216.561-.294a2.11 2.11 0 0 1 .704-.118 2.23 2.23 0 0 1 2.013 1.187c.201.366.302.785.302 1.257 0 .464-.104.878-.313 1.243a2.29 2.29 0 0 1-.852.859c-.362.208-.774.312-1.236.312z" class="E"/><path d="M27.063 456.773h211" class="D H"/><path d="M57.825 440.75v7.273h-.881v-7.273h.881zm2.49 3.992v3.281h-.838v-5.455h.81v.853h.071a1.56 1.56 0 0 1 .582-.668c.26-.17.597-.256 1.009-.256.369 0 .692.076.969.228a1.53 1.53 0 0 1 .646.681c.154.304.231.687.231 1.151v3.466h-.838v-3.409c0-.429-.111-.762-.334-1.002s-.528-.362-.916-.362a1.46 1.46 0 0 0-.717.174 1.25 1.25 0 0 0-.494.508c-.121.223-.181.492-.181.81zm5.012 5.326v-7.5h.81v.867h.1l.256-.362a1.5 1.5 0 0 1 .476-.398c.208-.118.49-.178.845-.178.459 0 .864.115 1.215.345s.624.555.82.976.295.919.295 1.492-.098 1.078-.295 1.502-.469.748-.817.98-.749.345-1.204.345c-.35 0-.631-.058-.842-.174s-.373-.253-.487-.402l-.263-.376h-.071v2.883h-.838zm.824-4.772c0 .412.06.775.181 1.09s.297.557.529.735.516.263.852.263c.35 0 .643-.093.877-.277s.414-.438.533-.753.181-.67.181-1.058a2.84 2.84 0 0 0-.178-1.037c-.119-.308-.292-.555-.529-.735s-.529-.274-.884-.274c-.341 0-.627.087-.859.259a1.56 1.56 0 0 0-.526.718c-.118.305-.178.661-.178 1.069zm8.707.497v-3.225h.838v5.455h-.838v-.923h-.057c-.128.277-.327.512-.597.706s-.611.288-1.023.288c-.341 0-.644-.075-.909-.224a1.55 1.55 0 0 1-.625-.682c-.151-.303-.227-.69-.227-1.154v-3.466h.838v3.409c0 .398.111.715.334.952s.511.355.859.355c.208 0 .42-.053.636-.159a1.39 1.39 0 0 0 .547-.491c.147-.221.224-.5.224-.841zm4.745-3.225v.711h-2.827v-.711h2.827zm-2.003-1.306h.838v5.198c0 .237.034.415.103.533s.161.194.27.234a1.08 1.08 0 0 0 .352.057 1.42 1.42 0 0 0 .227-.014l.142-.028.17.753a1.73 1.73 0 0 1-.625.099 1.68 1.68 0 0 1-.696-.153 1.37 1.37 0 0 1-.561-.465c-.149-.208-.22-.471-.22-.788v-5.426zm-20.656 33.761v-7.273h2.457c.568 0 1.035.097 1.399.291a1.86 1.86 0 0 1 .81.792c.175.336.263.719.263 1.147a2.4 2.4 0 0 1-.263 1.14c-.175.332-.444.592-.806.782s-.825.28-1.389.28h-1.989v-.795h1.96c.388 0 .701-.057.938-.171s.412-.274.519-.483a1.62 1.62 0 0 0 .163-.753c0-.291-.054-.545-.163-.763a1.11 1.11 0 0 0-.522-.504c-.239-.121-.555-.182-.948-.182h-1.548v6.492h-.881zm3.423-3.267l1.79 3.267h-1.023l-1.761-3.267h.994zm5.088 3.381c-.526 0-.979-.116-1.36-.348a2.31 2.31 0 0 1-.877-.981c-.206-.419-.305-.911-.305-1.47s.102-1.051.305-1.477a2.41 2.41 0 0 1 .859-1.001c.369-.242.8-.363 1.293-.363.284 0 .565.048.842.142a2.09 2.09 0 0 1 .756.462 2.21 2.21 0 0 1 .543.838c.135.348.202.777.202 1.286v.355h-4.205v-.725h3.352c0-.307-.062-.582-.185-.824a1.39 1.39 0 0 0-.519-.571c-.222-.14-.485-.21-.788-.21-.334 0-.623.083-.867.249a1.63 1.63 0 0 0-.557.639 1.88 1.88 0 0 0-.195.845v.483c0 .412.071.761.213 1.048a1.51 1.51 0 0 0 .6.65c.256.15.553.22.891.22a1.8 1.8 0 0 0 .597-.093 1.27 1.27 0 0 0 .465-.284 1.29 1.29 0 0 0 .302-.476l.81.228c-.085.274-.228.516-.43.724s-.45.367-.746.483-.629.171-.998.171zm5.735 2.045c-.405 0-.753-.052-1.044-.156a2.22 2.22 0 0 1-.728-.405c-.192-.166-.344-.343-.458-.533l.668-.468.288.34c.116.131.275.243.476.338s.47.145.799.145c.44 0 .804-.106 1.09-.319s.43-.547.43-1.002v-1.108h-.071a4.44 4.44 0 0 1-.263.37 1.5 1.5 0 0 1-.483.387c-.208.111-.49.167-.845.167a2.27 2.27 0 0 1-1.186-.313c-.348-.208-.624-.511-.828-.909s-.302-.881-.302-1.449c0-.558.098-1.045.295-1.459s.47-.739.82-.966.755-.345 1.214-.345c.355 0 .637.06.845.178s.372.249.483.398l.263.362h.085v-.867h.81v5.611c0 .469-.107.85-.32 1.144a1.85 1.85 0 0 1-.852.65 3.23 3.23 0 0 1-1.186.209zm-.028-2.997c.336 0 .62-.077.852-.231s.408-.375.529-.664.181-.634.181-1.037c0-.393-.059-.74-.178-1.04s-.293-.537-.526-.707-.518-.256-.859-.256c-.355 0-.651.09-.888.27s-.411.422-.529.725a2.8 2.8 0 0 0-.174 1.008c0 .379.059.714.178 1.005a1.54 1.54 0 0 0 .533.682c.237.163.53.245.881.245zm3.92.838v-5.455h.838v5.455h-.838zm.426-6.364c-.163 0-.304-.055-.423-.167s-.174-.245-.174-.401.058-.29.174-.401.259-.167.423-.167.303.056.419.167a.53.53 0 0 1 .178.401.53.53 0 0 1-.178.401.58.58 0 0 1-.419.167zm5.811 2.131l-.753.213a1.42 1.42 0 0 0-.21-.366c-.09-.12-.213-.22-.369-.298s-.356-.117-.6-.117c-.334 0-.612.077-.835.231s-.33.344-.33.578c0 .209.076.373.227.494s.388.221.71.302l.81.199c.488.118.851.299 1.09.543s.359.553.359.934c0 .313-.09.592-.27.838a1.8 1.8 0 0 1-.746.583c-.32.142-.691.213-1.115.213-.556 0-1.017-.121-1.381-.363s-.595-.594-.692-1.058l.795-.199c.076.294.219.514.43.661s.491.22.835.22c.391 0 .701-.083.93-.249s.348-.369.348-.603a.63.63 0 0 0-.199-.476c-.133-.128-.336-.227-.611-.291l-.909-.213c-.499-.119-.867-.302-1.101-.551s-.348-.564-.348-.941a1.35 1.35 0 0 1 .259-.817 1.77 1.77 0 0 1 .714-.557c.303-.135.646-.203 1.03-.203.54 0 .963.119 1.271.355s.53.55.66.938zm3.733-1.222v.711h-2.827v-.711h2.827zm-2.003-1.306h.838v5.198c0 .237.034.415.103.533a.53.53 0 0 0 .27.234 1.08 1.08 0 0 0 .352.057 1.42 1.42 0 0 0 .227-.014l.142-.028.171.753c-.057.021-.136.042-.238.063a1.73 1.73 0 0 1-.387.036 1.68 1.68 0 0 1-.696-.153 1.37 1.37 0 0 1-.561-.465c-.149-.208-.22-.471-.22-.788v-5.426zm5.492 6.875c-.525 0-.979-.116-1.36-.348a2.31 2.31 0 0 1-.877-.981c-.206-.419-.305-.911-.305-1.47s.102-1.051.305-1.477a2.41 2.41 0 0 1 .859-1.001c.369-.242.8-.363 1.293-.363.284 0 .565.048.842.142a2.09 2.09 0 0 1 .756.462 2.21 2.21 0 0 1 .543.838c.135.348.203.777.203 1.286v.355h-4.205v-.725h3.352c0-.307-.062-.582-.185-.824s-.294-.432-.518-.571a1.45 1.45 0 0 0-.788-.21c-.334 0-.623.083-.867.249a1.63 1.63 0 0 0-.557.639 1.88 1.88 0 0 0-.195.845v.483c0 .412.071.761.213 1.048a1.51 1.51 0 0 0 .6.65c.256.15.553.22.891.22a1.8 1.8 0 0 0 .597-.093 1.27 1.27 0 0 0 .465-.284 1.29 1.29 0 0 0 .302-.476l.81.228c-.085.274-.228.516-.43.724s-.45.367-.746.483-.629.171-.998.171zm3.533-.114v-5.455h.81v.824h.057a1.31 1.31 0 0 1 .54-.657 1.59 1.59 0 0 1 .881-.252l.231.004.209.01v.853a2.43 2.43 0 0 0-.195-.032c-.099-.017-.205-.025-.316-.025-.265 0-.502.055-.71.167a1.26 1.26 0 0 0-.49.454 1.23 1.23 0 0 0-.178.657v3.452h-.838zm7.584-4.233l-.753.213a1.39 1.39 0 0 0-.21-.366 1.06 1.06 0 0 0-.369-.298c-.156-.078-.356-.117-.6-.117-.334 0-.612.077-.835.231s-.33.344-.33.578c0 .209.076.373.227.494s.388.221.71.302l.81.199c.488.118.851.299 1.09.543s.359.553.359.934c0 .313-.09.592-.27.838a1.8 1.8 0 0 1-.746.583c-.32.142-.691.213-1.115.213-.556 0-1.017-.121-1.381-.363s-.595-.594-.692-1.058l.796-.199c.076.294.219.514.43.661s.491.22.834.22c.391 0 .701-.083.93-.249s.348-.369.348-.603a.63.63 0 0 0-.199-.476c-.133-.128-.336-.227-.611-.291l-.909-.213c-.5-.119-.867-.302-1.101-.551s-.348-.564-.348-.941a1.35 1.35 0 0 1 .259-.817 1.77 1.77 0 0 1 .714-.557c.303-.135.646-.203 1.03-.203.54 0 .964.119 1.271.355a1.94 1.94 0 0 1 .661.938zm6.233 4.332c-.478 0-.89-.087-1.236-.262s-.612-.416-.799-.721-.28-.655-.28-1.048c0-.303.063-.572.191-.806s.309-.456.537-.657a7.89 7.89 0 0 1 .791-.611l1.052-.781c.206-.135.37-.279.493-.433s.188-.355.188-.604c0-.185-.081-.363-.245-.536a.83.83 0 0 0-.635-.259.86.86 0 0 0-.49.142c-.14.092-.25.21-.331.355a.88.88 0 0 0-.117.44c0 .171.046.343.139.519a3.52 3.52 0 0 0 .358.532l.455.554 3.338 4.077h-1.009l-2.755-3.324-.696-.838a3.94 3.94 0 0 1-.497-.742c-.124-.244-.185-.508-.185-.792 0-.327.072-.613.217-.859a1.51 1.51 0 0 1 .614-.579c.263-.137.575-.21.93-.21.365 0 .679.071.941.213s.466.326.608.558.213.479.213.749a1.58 1.58 0 0 1-.26.906c-.172.255-.408.493-.706.713l-1.449 1.08c-.327.241-.548.476-.664.703s-.174.391-.174.49c0 .227.059.439.177.636s.286.355.501.476.468.181.756.181c.275 0 .543-.058.803-.174a2.27 2.27 0 0 0 .707-.512c.213-.222.381-.49.504-.802a2.82 2.82 0 0 0 .188-1.055h.81c0 .483-.056.877-.167 1.183s-.237.544-.376.717l-.338.387-.078.107-.078.106c-.234.263-.53.459-.888.59s-.71.191-1.058.191zm7.561-.099h-.923l2.67-7.273h.909l2.671 7.273h-.923l-2.174-6.122h-.057l-2.173 6.122zm.341-2.841h3.722v.781h-3.722v-.781zm8.065 2.955c-.455 0-.856-.115-1.204-.345a2.32 2.32 0 0 1-.817-.98c-.197-.421-.295-.924-.295-1.502s.099-1.07.295-1.492.47-.747.82-.976.756-.345 1.215-.345c.355 0 .636.06.842.178a1.45 1.45 0 0 1 .475.398l.26.362h.071v-2.685h.838v7.273h-.81v-.838h-.099c-.062.099-.15.225-.263.376s-.276.283-.487.402-.491.174-.841.174zm.113-.753c.336 0 .621-.088.853-.263s.408-.423.529-.735.181-.678.181-1.09-.059-.764-.178-1.069-.293-.547-.525-.718-.519-.259-.86-.259c-.355 0-.651.091-.887.274s-.411.425-.53.735-.174.653-.174 1.037a3.03 3.03 0 0 0 .178 1.058c.118.317.298.566.533.753s.53.277.88.277zm6.098.753c-.455 0-.856-.115-1.204-.345a2.32 2.32 0 0 1-.817-.98c-.197-.421-.295-.924-.295-1.502s.099-1.07.295-1.492.47-.747.82-.976.756-.345 1.215-.345c.355 0 .635.06.841.178s.367.249.476.398l.26.362h.071v-2.685h.838v7.273h-.81v-.838h-.099c-.062.099-.15.225-.263.376s-.276.283-.487.402-.491.174-.841.174zm.113-.753c.336 0 .621-.088.853-.263s.408-.423.529-.735.181-.678.181-1.09-.059-.764-.178-1.069-.293-.547-.525-.718-.519-.259-.86-.259c-.355 0-.651.091-.888.274s-.41.425-.529.735-.174.653-.174 1.037a3.03 3.03 0 0 0 .178 1.058c.118.317.298.566.533.753s.53.277.88.277zm4.038.639v-5.455h.81v.824h.056c.1-.27.28-.489.54-.657a1.59 1.59 0 0 1 .881-.252l.231.004.209.01v.853c-.028-.007-.093-.018-.195-.032s-.205-.025-.316-.025c-.265 0-.502.055-.71.167s-.37.26-.49.454a1.22 1.22 0 0 0-.178.657v3.452h-.838zm5.842.114c-.526 0-.979-.116-1.361-.348s-.671-.562-.877-.981-.305-.911-.305-1.47.102-1.051.305-1.477.493-.762.86-1.001.8-.363 1.292-.363c.284 0 .565.048.842.142s.529.249.756.462.409.49.544.838.202.777.202 1.286v.355h-4.205v-.725h3.353c0-.307-.062-.582-.185-.824a1.39 1.39 0 0 0-.518-.571c-.223-.14-.486-.21-.789-.21a1.5 1.5 0 0 0-.866.249c-.242.163-.428.376-.558.639a1.88 1.88 0 0 0-.195.845v.483c0 .412.071.761.213 1.048s.345.5.6.65.553.22.892.22c.22 0 .419-.031.596-.093s.335-.158.465-.284.231-.286.302-.476l.81.228c-.085.274-.229.516-.43.724s-.45.367-.746.483-.628.171-.997.171zm7.397-4.347l-.753.213a1.42 1.42 0 0 0-.21-.366c-.09-.12-.213-.22-.369-.298s-.356-.117-.6-.117c-.334 0-.612.077-.835.231s-.33.344-.33.578c0 .209.076.373.227.494s.388.221.71.302l.81.199c.488.118.851.299 1.09.543s.359.553.359.934c0 .313-.09.592-.27.838s-.426.44-.746.583-.691.213-1.115.213c-.556 0-1.017-.121-1.381-.363s-.596-.594-.693-1.058l.796-.199c.076.294.219.514.43.661s.491.22.834.22c.391 0 .701-.083.93-.249s.348-.369.348-.603c0-.19-.066-.348-.198-.476s-.337-.227-.611-.291l-.909-.213c-.5-.119-.867-.302-1.101-.551s-.348-.564-.348-.941c0-.308.086-.58.259-.817s.413-.422.714-.557.646-.203 1.03-.203c.539 0 .963.119 1.271.355s.53.55.661.938zm5.224 0l-.753.213c-.047-.125-.117-.247-.209-.366a1.02 1.02 0 0 0-.37-.298c-.156-.078-.356-.117-.6-.117-.333 0-.612.077-.834.231s-.33.344-.33.578c0 .209.075.373.227.494s.388.221.71.302l.81.199c.487.118.851.299 1.09.543s.359.553.359.934c0 .313-.09.592-.27.838s-.426.44-.746.583-.691.213-1.115.213c-.556 0-1.017-.121-1.381-.363s-.596-.594-.693-1.058l.795-.199c.076.294.219.514.43.661s.491.22.835.22c.39 0 .7-.083.93-.249s.348-.369.348-.603a.63.63 0 0 0-.199-.476c-.132-.13-.336-.227-.611-.291l-.909-.213c-.499-.119-.866-.302-1.1-.551a1.32 1.32 0 0 1-.349-.941 1.35 1.35 0 0 1 .26-.817c.175-.236.413-.422.714-.557s.646-.203 1.029-.203c.54 0 .964.119 1.272.355s.53.55.66.938z" class="F"/><use href="#Q" y="192" class="E"/><g clip-path="url(#J)" class="C"><path d="M42.772 465.408v-.927a.46.46 0 0 0-.458-.458.46.46 0 0 0-.458.458v.504c-.151-.03-.304-.046-.458-.045h-.458v-.459a.46.46 0 0 0-.458-.458.46.46 0 0 0-.458.458v.459h-.917v-.459a.46.46 0 0 0-.458-.458.46.46 0 0 0-.458.458v.459h-.458c-.154-.001-.307.015-.458.045v-.504a.46.46 0 0 0-.458-.458.46.46 0 0 0-.458.458v.917.01c-.284.212-.514.487-.674.803s-.242.666-.243 1.02v5.5c.001.608.242 1.19.672 1.62s1.012.671 1.62.672h3.667c.608-.001 1.19-.242 1.62-.672s.671-1.012.672-1.62v-5.5c-.001-.354-.084-.703-.243-1.02s-.39-.591-.673-.803zm0 7.323c0 .365-.145.715-.403.973a1.38 1.38 0 0 1-.972.402H37.73a1.38 1.38 0 0 1-.972-.402c-.258-.258-.403-.608-.403-.973v-5.5c0-.364.145-.714.403-.972s.608-.403.972-.403h3.667c.365 0 .714.145.972.403s.403.608.403.972v5.5zm-.917-5.041a.46.46 0 0 1-.458.458H37.73a.46.46 0 0 1-.458-.458c0-.122.048-.239.134-.324a.46.46 0 0 1 .324-.135h3.667a.46.46 0 0 1 .324.135c.086.085.134.202.134.324zm0 1.833c0 .122-.048.238-.134.324a.46.46 0 0 1-.324.134H37.73a.46.46 0 0 1-.324-.134c-.086-.086-.134-.202-.134-.324s.048-.238.134-.324a.46.46 0 0 1 .324-.134h3.667a.46.46 0 0 1 .324.134c.086.086.134.202.134.324zm-1.833 1.833c0 .122-.048.238-.134.324a.46.46 0 0 1-.324.135H37.73a.46.46 0 0 1-.324-.135c-.086-.086-.134-.202-.134-.324a.46.46 0 0 1 .458-.458h1.833a.46.46 0 0 1 .458.458z"/></g><g clip-path="url(#K)" class="C"><path d="M37.98 448.273h-.833c-.69 0-1.25-.504-1.25-1.125v-5.25c0-.621.56-1.125 1.25-1.125h.833c.23 0 .417-.168.417-.375s-.187-.375-.417-.375h-.833c-1.15.001-2.082.84-2.083 1.875v5.25c.001 1.035.933 1.874 2.083 1.875h.833c.23 0 .417-.168.417-.375s-.187-.375-.417-.375zm6.667-4.125l-6.574.012a.77.77 0 0 1 .136-.167l1.616-1.455c.166-.144.17-.381.01-.53a.45.45 0 0 0-.589-.009l-1.627 1.463c-.651.586-.651 1.536 0 2.121l1.616 1.455a.45.45 0 0 0 .589.009c.166-.144.17-.381.01-.53l-1.626-1.464c-.047-.043-.087-.091-.121-.143l6.56-.012c.23 0 .417-.168.417-.375s-.187-.375-.417-.375z"/></g><g clip-path="url(#L)" class="C"><path d="M45.063 278.294c-.001-.309-.072-.614-.207-.892s-.332-.521-.575-.712c.336-.265.581-.628.7-1.039a2.05 2.05 0 0 0-.033-1.251c-.141-.404-.405-.754-.754-1.001a2.06 2.06 0 0 0-1.194-.376h-6.875a2.06 2.06 0 0 0-1.194.376c-.349.247-.613.597-.754 1.001a2.05 2.05 0 0 0-.033 1.251c.12.411.365.774.7 1.039a2.04 2.04 0 0 0-.782 1.604c0 .309.07.614.206.892a2.04 2.04 0 0 0 .576.712c-.336.265-.581.628-.7 1.038s-.108.848.033 1.252.404.753.754 1a2.05 2.05 0 0 0 1.194.377h6.875a2.05 2.05 0 0 0 1.194-.377c.349-.247.613-.596.754-1s.152-.841.033-1.252-.364-.773-.7-1.038a2.05 2.05 0 0 0 .575-.713c.135-.277.206-.582.207-.891zm-10.083-3.209c0-.303.121-.595.336-.81s.506-.335.81-.335h.229v.458c0 .122.048.238.134.324a.46.46 0 0 0 .324.134c.121 0 .238-.048.324-.134s.134-.202.134-.324v-.458h.917v.458c0 .122.048.238.134.324a.46.46 0 0 0 .648 0c.086-.086.134-.202.134-.324v-.458h3.896c.304 0 .595.12.81.335s.336.507.336.81a1.15 1.15 0 0 1-.336.811c-.215.215-.506.335-.81.335h-6.875c-.304 0-.595-.12-.81-.335a1.15 1.15 0 0 1-.336-.811zm9.167 6.417c0 .304-.121.595-.336.81s-.506.336-.81.336h-6.875c-.304 0-.595-.121-.81-.336s-.336-.506-.336-.81.121-.595.336-.81.506-.336.81-.336h.229v.459a.46.46 0 0 0 .458.458c.121 0 .238-.048.324-.134a.46.46 0 0 0 .134-.324v-.459h.917v.459a.46.46 0 0 0 .458.458.46.46 0 0 0 .458-.458v-.459h3.896c.304 0 .595.121.81.336s.336.506.336.81zm-8.021-2.062c-.304 0-.595-.121-.81-.336s-.336-.506-.336-.81.121-.596.336-.81.506-.336.81-.336h.229v.458c0 .122.048.238.134.324a.46.46 0 0 0 .324.135.46.46 0 0 0 .324-.135c.086-.086.134-.202.134-.324v-.458h.917v.458c0 .122.048.238.134.324a.46.46 0 0 0 .324.135.46.46 0 0 0 .324-.135c.086-.086.134-.202.134-.324v-.458h3.896c.304 0 .595.121.81.336s.336.506.336.81-.121.595-.336.81-.506.336-.81.336h-6.875z"/></g><g clip-path="url(#M)" class="C"><path d="M43.03 346.513a.5.5 0 0 0-.401-.201h-2.085l.552-2.459a.5.5 0 0 0-.172-.497c-.042-.034-1.036-.834-2.23-.834-1.221 0-2.21.801-2.251.835-.084.068-.142.161-.168.266l-1.263 5.09a.5.5 0 0 0 .486.62h2.011l-.432 3.631c-.02.167.041.339.175.441.201.155.418.111.465.097 3.739-1.118 5.327-6.327 5.393-6.548a.5.5 0 0 0-.079-.441zm-4.861 5.729l.399-3.35a.5.5 0 0 0-.497-.559h-1.935l1.066-4.293c.25-.169.843-.518 1.493-.518.546 0 1.061.26 1.352.44l-.615 2.739a.5.5 0 0 0 .488.61h2.002c-.473 1.224-1.695 3.86-3.753 4.931z"/></g><g clip-path="url(#N)" class="C"><path d="M41.261 377.285c-.197-.368-.578-.595-.994-.595h-1.742l.927-3.667H37.93l-3.702 5.581a1.12 1.12 0 0 0-.052 1.15c.199.372.584.602 1.004.602h1.73l-.927 3.667h1.522l3.702-5.581c.23-.347.251-.791.054-1.157zm-.818.65l-3.192 4.813.837-3.308h-2.908c-.12 0-.177-.084-.197-.119-.022-.041-.05-.123.008-.21l3.192-4.813-.837 3.308h2.92c.11 0 .164.07.187.112.018.034.053.122-.01.217zm3.703 6.088h.917l-1.293-4.467c-.17-.343-.529-.569-.936-.575a1.05 1.05 0 0 0-.916.575l-1.291 4.467h.98l.259-.917h2.008l.271.917h.001zm-2.02-1.833l.638-2.258c.02-.018.046-.03.072-.033.048.004.083.025.102.049l.007.016.659 2.226h-1.478z"/></g><defs><filter id="A" x="319.143" y="86.023" width="210" height="103" filterUnits="userSpaceOnUse" class="J"><feFlood flood-opacity="0" result="A"/><feColorMatrix in="SourceAlpha" values="0 0 0 0 0 0 0 0 0 0 0 0 0 0 0 0 0 0 127 0" result="B"/><feOffset dy="4"/><feGaussianBlur stdDeviation="5"/><feComposite in2="B" operator="out"/><feColorMatrix values="0 0 0 0 0 0 0 0 0 0 0 0 0 0 0 0 0 0 0.25 0"/><feBlend in2="A"/><feBlend in="SourceGraphic"/></filter><filter id="B" x="10" y="12" width="228" height="64" filterUnits="userSpaceOnUse" class="J"><feFlood flood-opacity="0" result="A"/><feColorMatrix in="SourceAlpha" values="0 0 0 0 0 0 0 0 0 0 0 0 0 0 0 0 0 0 127 0" result="B"/><feMorphology radius="1" operator="dilate" in="SourceAlpha"/><feOffset dy="1"/><feGaussianBlur stdDeviation="2.5"/><feComposite in2="B" operator="out"/><feColorMatrix values="0 0 0 0 0 0 0 0 0 0 0 0 0 0 0 0 0 0 0.1 0"/><feBlend in2="A"/><feBlend in="SourceGraphic"/></filter><linearGradient id="C" x1="128" y1="0" x2="128" y2="533" gradientUnits="userSpaceOnUse"><stop stop-color="#2f67ff"/><stop offset="1" stop-color="#ff5f9b"/></linearGradient><linearGradient id="D" x1="242.27" y1="127.179" x2="329.143" y2="127.179" gradientUnits="userSpaceOnUse"><stop stop-color="#2f67ff"/><stop offset="1" stop-color="#ff5f9b"/></linearGradient><clipPath id="E"><path transform="translate(34.063 120.023)" d="M0 0h10v10H0z" class="B"/></clipPath><clipPath id="F"><path transform="translate(34.063 174.023)" d="M0 0h11v11H0z" class="B"/></clipPath><clipPath id="G"><path transform="translate(34.063 239.023)" d="M0 0h13v13H0z" class="B"/></clipPath><clipPath id="H"><path transform="translate(210.063 340.023)" d="M0 0h15v15H0z" class="B"/></clipPath><clipPath id="I"><path transform="translate(210.063 372.023)" d="M0 0h15v15H0z" class="B"/></clipPath><clipPath id="J"><path transform="translate(34.063 464.023)" d="M0 0h11v11H0z" class="B"/></clipPath><clipPath id="K"><path transform="translate(35.063 440.023)" d="M0 0h10v9H0z" class="B"/></clipPath><clipPath id="L"><path transform="translate(34.063 273.023)" d="M0 0h11v11H0z" class="B"/></clipPath><clipPath id="M"><path transform="translate(33.063 342.023)" d="M0 0h12v12H0z" class="B"/></clipPath><clipPath id="N"><path transform="translate(34.063 373.023)" d="M0 0h11v11H0z" class="B"/></clipPath><path id="O" d="M36.372 57.525v.823"/><path id="P" d="M217.996 250.523l-.531-.5 3.134-2.925-3.134-2.925.531-.5 3.666 3.425-3.666 3.425z"/><path id="Q" d="M217.996 282.242l-.531-.532 3.134-3.107-3.134-3.108.531-.531 3.666 3.639-3.666 3.639z"/></defs></svg>