<svg xmlns="http://www.w3.org/2000/svg" width="407" height="533" fill="none" xmlns:v="https://vecta.io/nano"><style><![CDATA[.B{fill:#575757}.C{fill:#fff}.D{stroke-width:.5}.E{fill:#b8b8b8}.F{stroke:#f2f2f2}.G{fill:#0c0c0c}]]></style><rect x=".25" y=".25" width="255.5" height="532.5" rx="9.75" stroke="url(#B)" class="C D"/><path d="M253.297 355.497c0-2.062-1.672-3.733-3.734-3.733s-3.733 1.671-3.733 3.733 1.672 3.733 3.733 3.733 3.734-1.671 3.734-3.733zm52.907 0v-.7h-56.641v.7.7h56.641v-.7z" fill="url(#C)"/><g filter="url(#A)" class="C"><rect x="17" y="21.5" width="216" height="52" rx="10"/></g><g stroke="#5a5c66" stroke-miterlimit="22.9256" class="D"><path d="M32.51 35.5h10.664a.51.51 0 0 1 .51.51v21.964l-1.219 3.725c-.068.138-.215.206-.42.221l-.18.095-3.869.017-4.04-.015c-.051-.027-.042-.048-.099-.053-.341-.029-.491-.133-.537-.274L32 57.936v-4.184V36.01a.51.51 0 0 1 .51-.51h0z"/><path d="M32.815 35.5l2.076 1.048 5.977.005 2.076-1.053-1.75 1.325s-.272.261-.644.236h-5.187s-.432.079-.823-.293L32.815 35.5z" stroke-linejoin="round"/><path d="M34.131 37.578l7.604.002 1.763-1.963m-9.833 2.314c0-.065-1.665-1.75-1.665-1.75"/><path d="M34.158 37.604l-1.98-1.98m10.003 2.307c0-.065 1.502-1.75 1.502-1.75"/><path d="M33.662 57.974V38.013s-.081-.435.511-.435m8.004 20.396V38.013s.081-.435-.511-.435"/><path d="M32 53.81l1.662 4.08s.011.19.614.242 7.357 0 7.357 0 .481.005.592-.293l1.432-4.048v.152l-1.391 3.938s-.041.327-.467.352-7.363.026-7.363.026-.776.076-.852-.378L32 53.849m1.89 8.122l1.573-2.466c.046-.086.134-.177.208-.236.202-.16.45-.228.707-.232h2.986c.109-.008.247.011.351.037a1.18 1.18 0 0 1 .648.411l.004.005 1.594 2.475m-2.424.545h-.025m-3.218-.003h-.037"/><path d="M33.997 62.017l1.565-2.455s.206-.402.815-.41h2.991s.543-.046.905.405l1.583 2.458m-2.235.379h-.005m-3.439-.003h-.014m-2.501-4.417l-.356 3.677m.884-3.389l-.28 3.722m8.267-4.057l.332 3.639m-.768-3.332l.291 3.693m-7.901-24.349l.055 20.68m7.571-20.656l-.016 20.632"/><path d="M36.395 62.023h-.303v.208a.71.71 0 0 0 .281.368c.071.444.37.758 1.52.778 1.135.02 1.441-.31 1.517-.756.221-.156.303-.365.33-.598h-.349-2.997z"/><path d="M37.192 62.029v.799"/><use href="#K"/><use href="#K" x="0.209"/><use href="#K" x="0.418"/><use href="#K" x="0.628"/><use href="#K" x="0.837"/><use href="#K" x="1.046"/><use href="#K" x="1.255"/><path d="M39.758 62.024c-.07.479-.41.844-1.865.824s-1.793-.355-1.864-.823"/></g><path d="M156.733 48.5h-.881c-.052-.253-.143-.476-.273-.668a1.82 1.82 0 0 0-.469-.483c-.182-.133-.385-.232-.607-.298a2.43 2.43 0 0 0-.696-.099 2.22 2.22 0 0 0-1.197.334c-.355.223-.638.55-.849.984s-.312.965-.312 1.594.104 1.161.312 1.595.494.761.849.984a2.22 2.22 0 0 0 1.197.334 2.43 2.43 0 0 0 .696-.099 2.04 2.04 0 0 0 .607-.295 1.87 1.87 0 0 0 .469-.486c.13-.194.221-.417.273-.668h.881a2.93 2.93 0 0 1-.362.998c-.175.294-.393.543-.654.749s-.552.359-.877.465-.666.16-1.033.16c-.62 0-1.172-.152-1.655-.455s-.863-.734-1.14-1.293-.415-1.222-.415-1.989.138-1.43.415-1.989.657-.99 1.14-1.293 1.035-.455 1.655-.455c.367 0 .711.053 1.033.16a2.81 2.81 0 0 1 .877.469 2.67 2.67 0 0 1 .654.746c.175.291.296.624.362.998zm3.525 5.114c-.492 0-.924-.117-1.296-.352s-.658-.562-.866-.984-.309-.914-.309-1.477.103-1.064.309-1.488.497-.753.866-.987.804-.352 1.296-.352.924.117 1.293.352.66.563.866.987.313.92.313 1.488-.104 1.056-.313 1.477-.494.749-.866.984-.8.352-1.293.352zm0-.753c.374 0 .682-.096.924-.288a1.7 1.7 0 0 0 .536-.756c.116-.312.174-.651.174-1.016s-.058-.704-.174-1.019a1.72 1.72 0 0 0-.536-.763c-.242-.194-.55-.291-.924-.291s-.681.097-.923.291a1.72 1.72 0 0 0-.536.763c-.116.315-.174.655-.174 1.019s.058.703.174 1.016a1.7 1.7 0 0 0 .536.756c.242.192.549.288.923.288zm4.589-2.642V53.5h-.838v-5.455h.81v.852h.071a1.56 1.56 0 0 1 .582-.668c.261-.17.597-.256 1.009-.256.369 0 .692.076.969.227s.493.376.647.682.23.687.23 1.151V53.5h-.838v-3.409c0-.428-.111-.762-.333-1.001s-.528-.362-.917-.362c-.267 0-.506.058-.717.174a1.25 1.25 0 0 0-.494.508c-.12.222-.181.492-.181.81zm5.85 0V53.5h-.838v-5.455h.81v.852h.071c.127-.277.321-.499.582-.668s.597-.256 1.008-.256c.37 0 .693.076.97.227a1.53 1.53 0 0 1 .646.682c.154.303.231.687.231 1.151V53.5h-.838v-3.409c0-.428-.111-.762-.334-1.001s-.528-.362-.916-.362c-.268 0-.507.058-.717.174s-.373.285-.494.508-.181.492-.181.81zm7.298 3.395c-.525 0-.979-.116-1.36-.348a2.34 2.34 0 0 1-.877-.98c-.203-.421-.305-.911-.305-1.47s.102-1.051.305-1.477a2.41 2.41 0 0 1 .86-1.001c.369-.241.8-.362 1.292-.362a2.59 2.59 0 0 1 .842.142c.277.095.529.249.756.462a2.2 2.2 0 0 1 .543.838c.135.348.203.776.203 1.285v.355h-4.205v-.724h3.353a1.79 1.79 0 0 0-.185-.824 1.4 1.4 0 0 0-.518-.572c-.223-.14-.486-.209-.789-.209-.334 0-.622.083-.866.249a1.63 1.63 0 0 0-.558.639 1.88 1.88 0 0 0-.195.845v.483c0 .412.071.761.213 1.048a1.53 1.53 0 0 0 .6.65 1.76 1.76 0 0 0 .891.22c.221 0 .419-.031.597-.092s.335-.159.465-.284.231-.287.302-.476l.81.227c-.086.275-.229.516-.43.724s-.45.367-.746.483-.628.17-.998.17zm5.75 0c-.512 0-.952-.121-1.321-.362s-.654-.574-.853-.998-.298-.908-.298-1.453c0-.554.102-1.043.305-1.467s.493-.759.86-.998.8-.362 1.292-.362c.384 0 .73.071 1.037.213a1.99 1.99 0 0 1 .757.597c.196.256.318.554.366.895h-.839c-.063-.249-.205-.469-.426-.66s-.511-.291-.88-.291c-.327 0-.613.085-.86.256a1.66 1.66 0 0 0-.571.714c-.135.305-.203.664-.203 1.076 0 .421.066.788.199 1.101s.324.555.568.728a1.47 1.47 0 0 0 .867.259 1.5 1.5 0 0 0 .593-.114 1.23 1.23 0 0 0 .451-.327 1.25 1.25 0 0 0 .262-.511h.839a1.95 1.95 0 0 1-.352.87 1.97 1.97 0 0 1-.735.611c-.303.149-.656.224-1.058.224zm5.742-5.568v.71h-2.827v-.71h2.827zm-2.003-1.307h.838v5.199c0 .237.034.414.103.533s.161.194.27.234a1.08 1.08 0 0 0 .352.057 1.49 1.49 0 0 0 .227-.014l.142-.028.17.753c-.057.021-.136.043-.238.064a1.74 1.74 0 0 1-.387.035 1.69 1.69 0 0 1-.696-.153 1.38 1.38 0 0 1-.561-.465c-.147-.208-.22-.471-.22-.788v-5.426zm5.492 6.875c-.526 0-.979-.116-1.36-.348s-.671-.561-.877-.98-.306-.911-.306-1.47.102-1.051.306-1.477.492-.762.859-1.001.8-.362 1.293-.362c.284 0 .564.047.841.142s.529.249.757.462.408.49.543.838.202.776.202 1.285v.355h-4.204v-.724h3.352c0-.308-.061-.582-.185-.824s-.293-.432-.518-.572-.485-.209-.788-.209c-.334 0-.623.083-.867.249s-.427.376-.557.639-.196.544-.196.845v.483c0 .412.071.761.213 1.048a1.54 1.54 0 0 0 .601.65c.255.147.552.22.891.22a1.81 1.81 0 0 0 .596-.092 1.29 1.29 0 0 0 .466-.284c.13-.128.23-.287.301-.476l.81.227c-.085.275-.228.516-.43.724s-.449.367-.745.483-.629.17-.998.17zm5.593 0c-.455 0-.856-.115-1.204-.344a2.33 2.33 0 0 1-.817-.98c-.196-.424-.294-.924-.294-1.502s.098-1.07.294-1.491.47-.747.821-.977.755-.344 1.214-.344c.355 0 .636.059.842.178s.367.249.476.398l.259.362h.071v-2.685h.838V53.5h-.81v-.838h-.099a5.42 5.42 0 0 1-.263.377 1.57 1.57 0 0 1-.486.401c-.211.116-.492.174-.842.174zm.114-.753c.336 0 .62-.088.852-.263s.408-.423.529-.735.181-.678.181-1.09-.059-.764-.178-1.069-.293-.547-.525-.717-.519-.259-.859-.259c-.356 0-.652.091-.888.273a1.63 1.63 0 0 0-.529.735c-.116.308-.174.653-.174 1.037s.059.741.177 1.058.298.566.533.753.53.277.881.277z" class="E"/><path d="M57.799 45.227h1.332l2.315 5.653h.085l2.315-5.653h1.332V52.5h-1.044v-5.263h-.067l-2.145 5.252h-.867l-2.145-5.256h-.067V52.5h-1.044v-7.273zm9.738 0l1.74 2.844h.057l1.74-2.844h1.271l-2.266 3.636 2.28 3.636h-1.278l-1.747-2.805h-.057L67.53 52.5h-1.278l2.319-3.636-2.305-3.636h1.271zm5.645 5.852v-.888l3.143-4.965h.7v1.307h-.444l-2.248 3.558v.057h4.308v.93h-5.458zm3.448 1.42v-1.69l.007-.405v-5.178h1.041V52.5H76.63zm5.779.099c-.488 0-.923-.084-1.307-.252s-.683-.401-.906-.7-.338-.649-.355-1.044h1.115a.96.96 0 0 0 .217.561c.132.156.305.277.518.362s.45.128.71.128a1.83 1.83 0 0 0 .76-.149c.223-.099.397-.238.522-.415a1.06 1.06 0 0 0 .188-.621c0-.244-.063-.458-.188-.643s-.304-.334-.543-.44-.523-.16-.859-.16h-.614v-.895h.614c.27 0 .507-.049.71-.146s.367-.232.483-.405.174-.38.174-.614c0-.225-.051-.42-.153-.586s-.242-.3-.426-.394-.398-.142-.646-.142a1.68 1.68 0 0 0-.664.131c-.204.085-.369.208-.497.369a.95.95 0 0 0-.206.572h-1.062c.012-.393.128-.739.348-1.037a2.25 2.25 0 0 1 .881-.7c.365-.168.769-.252 1.215-.252.466 0 .869.091 1.207.273a1.99 1.99 0 0 1 .788.721 1.81 1.81 0 0 1 .277.987c.002.407-.111.753-.341 1.037s-.53.475-.909.572v.057c.483.073.857.265 1.122.575s.4.695.398 1.154c.002.4-.109.759-.334 1.076s-.527.567-.913.749-.827.27-1.325.27zm3.761-1.52v-.888l3.143-4.965h.7v1.307h-.444l-2.248 3.558v.057h4.308v.93H86.17zm3.448 1.42v-1.69l.007-.405v-5.178h1.04V52.5h-1.048zm5.779.099c-.488 0-.923-.084-1.307-.252s-.683-.401-.906-.7-.338-.649-.355-1.044h1.115a.96.96 0 0 0 .217.561c.133.156.305.277.518.362s.45.128.71.128a1.83 1.83 0 0 0 .76-.149c.222-.099.396-.238.522-.415a1.06 1.06 0 0 0 .188-.621c0-.244-.063-.458-.188-.643s-.304-.334-.543-.44-.523-.16-.859-.16h-.614v-.895h.614c.27 0 .507-.049.71-.146s.367-.232.483-.405.174-.38.174-.614c0-.225-.051-.42-.153-.586s-.242-.3-.426-.394-.398-.142-.646-.142a1.68 1.68 0 0 0-.664.131c-.204.085-.369.208-.497.369a.95.95 0 0 0-.206.572h-1.062c.012-.393.128-.739.348-1.037a2.25 2.25 0 0 1 .881-.7c.365-.168.769-.252 1.215-.252.466 0 .869.091 1.207.273a1.99 1.99 0 0 1 .788.721 1.81 1.81 0 0 1 .277.987c.002.407-.111.753-.341 1.037s-.53.475-.909.572v.057c.483.073.857.265 1.122.575s.4.695.398 1.154c.002.4-.109.759-.334 1.076s-.527.567-.913.749-.827.27-1.325.27z" fill="#f85550"/><circle cx="214.5" cy="50" r="1.5" fill="#72cf70"/><path d="M217 50a2.5 2.5 0 1 1-5 0 2.5 2.5 0 1 1 5 0z" fill="#53ee50" fill-opacity=".35"/><g class="E"><path d="M24.852 103.5a2.58 2.58 0 0 0-.309-.643 1.98 1.98 0 0 0-.451-.49 1.89 1.89 0 0 0-.59-.309 2.35 2.35 0 0 0-.724-.106 2.15 2.15 0 0 0-1.175.334c-.352.223-.633.55-.842.983s-.312.965-.312 1.595.105 1.161.316 1.594.496.761.856.984a2.26 2.26 0 0 0 1.215.334 2.21 2.21 0 0 0 1.101-.267c.317-.178.568-.433.746-.76s.27-.716.27-1.161l.27.057h-2.187v-.781h2.77v.781c0 .599-.128 1.12-.383 1.562a2.65 2.65 0 0 1-1.051 1.03c-.445.242-.956.362-1.534.362-.644 0-1.21-.151-1.697-.454s-.864-.734-1.136-1.293-.405-1.221-.405-1.988c0-.576.077-1.093.231-1.552s.376-.855.66-1.179a2.89 2.89 0 0 1 1.009-.746c.389-.173.816-.259 1.282-.259.383 0 .741.058 1.072.174s.631.276.891.486a2.77 2.77 0 0 1 .657.75c.175.288.296.609.362.962h-.909zm4.633 5.114c-.526 0-.979-.116-1.36-.348a2.34 2.34 0 0 1-.877-.98c-.204-.422-.305-.912-.305-1.471s.102-1.051.305-1.477a2.41 2.41 0 0 1 .859-1.001c.369-.242.8-.363 1.293-.363.284 0 .565.048.842.142a2.09 2.09 0 0 1 .756.462 2.21 2.21 0 0 1 .543.838c.135.348.202.777.202 1.286v.355H27.54v-.725h3.352c0-.307-.062-.582-.185-.823a1.41 1.41 0 0 0-.518-.572 1.46 1.46 0 0 0-.788-.21c-.334 0-.623.083-.867.249a1.63 1.63 0 0 0-.557.639 1.88 1.88 0 0 0-.195.845v.483c0 .412.071.761.213 1.048s.345.5.6.65.553.22.891.22a1.8 1.8 0 0 0 .597-.093c.18-.063.335-.158.465-.284s.231-.286.302-.475l.81.227c-.085.274-.228.516-.43.724s-.45.367-.746.483-.629.171-.998.171zm4.372-3.395v3.281h-.838v-5.455h.81v.853h.071a1.56 1.56 0 0 1 .582-.668c.26-.17.597-.256 1.008-.256a1.98 1.98 0 0 1 .969.228c.276.152.492.376.646.682s.231.686.231 1.15v3.466h-.838v-3.409c0-.429-.111-.762-.334-1.002s-.528-.362-.916-.362a1.46 1.46 0 0 0-.717.174 1.24 1.24 0 0 0-.494.508c-.121.222-.181.493-.181.81zm7.298 3.395c-.526 0-.979-.116-1.36-.348a2.34 2.34 0 0 1-.877-.98c-.204-.422-.305-.912-.305-1.471s.102-1.051.305-1.477a2.41 2.41 0 0 1 .859-1.001c.369-.242.8-.363 1.293-.363.284 0 .565.048.842.142a2.09 2.09 0 0 1 .756.462 2.21 2.21 0 0 1 .543.838c.135.348.203.777.203 1.286v.355H39.21v-.725h3.352c0-.307-.062-.582-.185-.823a1.41 1.41 0 0 0-.518-.572 1.45 1.45 0 0 0-.788-.21c-.334 0-.623.083-.867.249a1.63 1.63 0 0 0-.558.639 1.88 1.88 0 0 0-.195.845v.483c0 .412.071.761.213 1.048a1.51 1.51 0 0 0 .6.65c.256.15.553.22.891.22a1.8 1.8 0 0 0 .597-.093c.18-.063.335-.158.465-.284s.231-.286.302-.475l.81.227c-.085.274-.228.516-.43.724s-.45.367-.746.483-.628.171-.998.171zm3.533-.114v-5.455h.81v.824h.057a1.31 1.31 0 0 1 .54-.657 1.59 1.59 0 0 1 .881-.252l.231.004.21.01v.853a2.43 2.43 0 0 0-.195-.032c-.099-.017-.205-.025-.316-.025-.265 0-.502.056-.71.167a1.26 1.26 0 0 0-.49.454 1.23 1.23 0 0 0-.178.657v3.452h-.838zm5.326.128a2.22 2.22 0 0 1-.941-.195c-.282-.133-.506-.324-.671-.572s-.249-.554-.249-.909c0-.313.062-.566.185-.76a1.3 1.3 0 0 1 .494-.462c.206-.111.433-.194.682-.248l.756-.135.806-.096c.208-.024.36-.063.455-.117s.146-.15.146-.285v-.028c0-.35-.096-.623-.288-.817s-.477-.291-.863-.291c-.4 0-.714.088-.941.263s-.387.362-.479.561l-.795-.284a1.9 1.9 0 0 1 .568-.774 2.12 2.12 0 0 1 .781-.391 3.36 3.36 0 0 1 .838-.114 3.39 3.39 0 0 1 .604.064 2 2 0 0 1 .664.252c.213.127.394.321.536.579s.213.604.213 1.037v3.594h-.838v-.739h-.043a1.47 1.47 0 0 1-.284.38 1.65 1.65 0 0 1-.529.345c-.22.095-.489.142-.806.142zm.128-.753c.331 0 .611-.065.838-.195s.402-.299.518-.505.178-.422.178-.649v-.767c-.035.042-.114.081-.234.117a4 4 0 0 1-.412.088l-.451.064-.352.043c-.218.028-.421.075-.611.139a1.05 1.05 0 0 0-.454.28c-.114.123-.171.291-.171.504a.75.75 0 0 0 .323.661c.218.147.494.22.827.22zm4.74-6.648v7.273h-.838v-7.273h.838zM19.881 331.5v-7.273h2.457c.57 0 1.037.103 1.399.309s.634.48.81.828.263.736.263 1.164-.088.818-.263 1.169-.44.629-.803.838-.826.309-1.392.309h-1.761v-.782h1.733c.391 0 .704-.067.941-.202s.408-.317.515-.547.163-.493.163-.785-.055-.551-.163-.781-.279-.409-.518-.54-.556-.198-.952-.198h-1.548v6.491h-.881zm8.391.114c-.492 0-.924-.118-1.296-.352s-.658-.562-.866-.984-.309-.913-.309-1.477.103-1.064.309-1.488.497-.753.866-.987.804-.352 1.296-.352.923.118 1.293.352a2.36 2.36 0 0 1 .867.987c.206.424.313.92.313 1.488s-.104 1.056-.312 1.477a2.35 2.35 0 0 1-.867.984c-.369.234-.8.352-1.293.352zm0-.753c.374 0 .682-.096.923-.288s.42-.444.536-.756a2.9 2.9 0 0 0 .174-1.016c0-.364-.058-.704-.174-1.019s-.295-.569-.536-.764-.549-.291-.923-.291-.682.097-.923.291a1.72 1.72 0 0 0-.536.764c-.116.315-.174.655-.174 1.019a2.9 2.9 0 0 0 .174 1.016c.116.312.295.564.536.756s.549.288.923.288zm4.801.639l-1.662-5.455h.881l1.179 4.177h.057l1.165-4.177h.895l1.151 4.162h.057l1.179-4.162h.881l-1.662 5.455h-.824l-1.193-4.19h-.085l-1.193 4.19h-.824zm8.99.114c-.525 0-.979-.116-1.36-.348a2.34 2.34 0 0 1-.877-.98c-.204-.422-.305-.912-.305-1.471s.102-1.051.305-1.477a2.41 2.41 0 0 1 .859-1.001c.369-.242.8-.363 1.293-.363.284 0 .565.048.842.142a2.09 2.09 0 0 1 .756.462c.227.211.408.49.543.838s.202.777.202 1.286v.355h-4.205v-.725h3.352c0-.307-.062-.582-.185-.823a1.41 1.41 0 0 0-.518-.572 1.45 1.45 0 0 0-.788-.21c-.334 0-.623.083-.866.249a1.63 1.63 0 0 0-.558.639 1.88 1.88 0 0 0-.195.845v.483c0 .412.071.761.213 1.048a1.51 1.51 0 0 0 .6.65c.256.15.553.22.891.22a1.8 1.8 0 0 0 .597-.093c.18-.063.335-.158.465-.284s.231-.286.302-.475l.81.227c-.085.274-.228.516-.43.724s-.45.367-.746.483-.628.171-.998.171zm3.533-.114v-5.455h.81v.824h.057a1.31 1.31 0 0 1 .54-.657 1.59 1.59 0 0 1 .881-.252l.231.004.209.01v.853a2.43 2.43 0 0 0-.195-.032c-.099-.017-.205-.025-.316-.025-.265 0-.502.056-.71.167a1.26 1.26 0 0 0-.49.454 1.23 1.23 0 0 0-.177.657v3.452h-.838zm10.624-5.455c-.043-.359-.215-.639-.518-.838s-.675-.298-1.115-.298a2.12 2.12 0 0 0-.845.156 1.36 1.36 0 0 0-.561.43c-.133.182-.199.389-.199.621a.88.88 0 0 0 .139.501c.093.139.215.252.362.345s.301.164.462.223l.444.139.739.199c.189.049.4.118.632.206a3 3 0 0 1 .671.358 1.83 1.83 0 0 1 .533.576c.14.234.209.522.209.863 0 .393-.103.748-.309 1.065s-.502.569-.895.756-.865.281-1.424.281c-.521 0-.972-.084-1.353-.252a2.16 2.16 0 0 1-.895-.703c-.215-.301-.337-.65-.366-1.048h.909c.024.275.116.502.277.682a1.51 1.51 0 0 0 .618.398 2.51 2.51 0 0 0 .81.127 2.38 2.38 0 0 0 .906-.163 1.55 1.55 0 0 0 .636-.462 1.09 1.09 0 0 0 .234-.696c0-.241-.068-.438-.202-.589a1.47 1.47 0 0 0-.533-.369 5.55 5.55 0 0 0-.714-.249l-.895-.256c-.568-.163-1.018-.396-1.349-.699s-.497-.7-.497-1.19c0-.407.11-.762.33-1.065s.521-.542.895-.71.797-.256 1.261-.256.885.084 1.25.252.653.393.866.682a1.7 1.7 0 0 1 .341.983h-.852zm3.891 5.583a2.22 2.22 0 0 1-.941-.195c-.282-.133-.505-.324-.671-.572s-.249-.554-.249-.909c0-.313.062-.566.185-.76a1.3 1.3 0 0 1 .494-.462c.206-.111.433-.194.682-.248l.756-.135.806-.096c.208-.024.36-.063.455-.117s.146-.15.146-.285v-.028c0-.35-.096-.623-.288-.817s-.477-.291-.863-.291c-.4 0-.714.088-.941.263a1.55 1.55 0 0 0-.479.561l-.795-.284c.142-.332.331-.59.568-.774a2.16 2.16 0 0 1 .781-.391c.281-.073.563-.114.838-.114a3.38 3.38 0 0 1 .604.064c.227.042.451.125.664.252s.394.321.536.579.213.604.213 1.037v3.594h-.838v-.739h-.043a1.46 1.46 0 0 1-.284.38 1.65 1.65 0 0 1-.529.345c-.22.095-.489.142-.806.142zm.128-.753c.331 0 .611-.065.838-.195a1.35 1.35 0 0 0 .519-.505c.116-.206.177-.422.177-.649v-.767c-.035.042-.114.081-.234.117a3.41 3.41 0 0 1-.412.088l-.451.064-.352.043c-.218.028-.421.075-.611.139a1.05 1.05 0 0 0-.455.28c-.114.123-.17.291-.17.504a.75.75 0 0 0 .323.661c.218.147.494.22.827.22zm8.167-4.83L66.39 331.5h-.852l-2.017-5.455h.909l1.506 4.347h.057l1.506-4.347h.909zm1.106 5.455v-5.455h.838v5.455h-.838zm.426-6.364c-.163 0-.304-.055-.423-.167s-.174-.245-.174-.401.058-.29.174-.401.259-.167.423-.167.303.056.419.167a.53.53 0 0 1 .178.401.53.53 0 0 1-.178.401.58.58 0 0 1-.419.167zm2.785 3.083v3.281h-.838v-5.455h.81v.853h.071a1.56 1.56 0 0 1 .582-.668c.26-.168.597-.256 1.008-.256.369 0 .692.076.969.228s.492.376.646.682.231.686.231 1.15v3.466h-.838v-3.409c0-.429-.111-.762-.334-1.002s-.528-.362-.916-.362a1.46 1.46 0 0 0-.717.174 1.24 1.24 0 0 0-.494.508c-.121.222-.181.493-.181.81zm7.213 5.44c-.405 0-.753-.052-1.044-.156a2.22 2.22 0 0 1-.728-.405c-.192-.166-.344-.343-.458-.533l.668-.468.288.341c.116.13.275.242.476.337s.47.145.799.145c.44 0 .804-.106 1.09-.319s.43-.547.43-1.002v-1.108h-.071a4.47 4.47 0 0 1-.263.37 1.5 1.5 0 0 1-.483.387c-.208.111-.49.167-.845.167a2.27 2.27 0 0 1-1.186-.313c-.348-.208-.624-.511-.827-.909s-.302-.881-.302-1.449c0-.558.098-1.045.295-1.459s.47-.739.82-.966.755-.345 1.215-.345c.355 0 .637.06.845.178s.372.249.483.398l.263.362h.085v-.867h.81v5.611c0 .469-.107.85-.32 1.144a1.85 1.85 0 0 1-.852.65 3.23 3.23 0 0 1-1.186.209zm-.028-2.997c.336 0 .62-.077.852-.231s.408-.375.529-.664.181-.634.181-1.037c0-.393-.059-.74-.178-1.04s-.293-.537-.525-.707-.519-.256-.859-.256c-.355 0-.651.09-.888.27s-.411.422-.529.725a2.8 2.8 0 0 0-.174 1.008c0 .379.059.714.177 1.005a1.54 1.54 0 0 0 .533.682c.237.163.53.245.881.245z"/><path d="M21.202 232.5l-1.989-7.273h.895l1.52 5.924h.071l1.548-5.924h.994l1.548 5.924h.071l1.52-5.924h.895l-1.989 7.273h-.909l-1.605-5.795h-.057L22.11 232.5h-.909zm8.058 0v-5.455h.838v5.455h-.838zm.426-6.364c-.163 0-.304-.055-.423-.167s-.174-.245-.174-.401.058-.29.174-.401.259-.167.423-.167.303.056.419.167a.53.53 0 0 1 .178.401.53.53 0 0 1-.178.401.58.58 0 0 1-.419.167zm2.06 6.364v-7.273h4.361v.782h-3.48v2.457h3.153v.781h-3.153v3.253h-.881zm5.755 0v-5.455h.838v5.455h-.838zm.426-6.364a.59.59 0 0 1-.423-.167c-.116-.111-.174-.245-.174-.401s.058-.29.174-.401.259-.167.423-.167.303.056.419.167a.53.53 0 0 1 .177.401.53.53 0 0 1-.177.401.58.58 0 0 1-.419.167zm6.819 6.463c-.478 0-.89-.087-1.236-.262s-.612-.416-.799-.721-.28-.655-.28-1.048c0-.303.064-.572.192-.806s.309-.456.536-.657a8.13 8.13 0 0 1 .792-.611l1.051-.781a2.09 2.09 0 0 0 .494-.433c.126-.154.188-.355.188-.604 0-.185-.082-.363-.245-.536a.83.83 0 0 0-.636-.259.86.86 0 0 0-.49.142 1 1 0 0 0-.33.355c-.078.142-.117.289-.117.44a1.11 1.11 0 0 0 .138.519 3.83 3.83 0 0 0 .359.532l.454.554 3.338 4.077h-1.009l-2.756-3.324-.696-.838a3.98 3.98 0 0 1-.497-.742c-.123-.244-.185-.508-.185-.792 0-.327.072-.613.217-.859s.352-.442.614-.579a1.99 1.99 0 0 1 .93-.21c.365 0 .678.071.941.213s.465.326.607.558.213.479.213.749a1.58 1.58 0 0 1-.259.906 2.97 2.97 0 0 1-.707.713l-1.449 1.08c-.327.241-.548.476-.664.703s-.174.391-.174.49a1.21 1.21 0 0 0 .178.636c.119.197.285.355.501.476a1.53 1.53 0 0 0 .756.181c.275 0 .542-.058.803-.174a2.26 2.26 0 0 0 .707-.512c.213-.222.381-.49.504-.802a2.81 2.81 0 0 0 .188-1.055h.81c0 .483-.056.877-.167 1.183s-.237.544-.376.717l-.337.387-.078.107-.078.106a2.16 2.16 0 0 1-.888.59c-.358.128-.71.191-1.058.191zm11.24-5.554c-.043-.359-.215-.639-.518-.838s-.675-.298-1.115-.298a2.12 2.12 0 0 0-.845.156 1.36 1.36 0 0 0-.561.43c-.133.182-.199.389-.199.621a.88.88 0 0 0 .139.501c.093.139.216.252.362.345a2.37 2.37 0 0 0 .462.223l.444.139.739.199c.189.049.4.118.632.206a3 3 0 0 1 .671.358 1.83 1.83 0 0 1 .533.576c.14.234.21.522.21.863 0 .393-.103.748-.309 1.065s-.502.569-.895.756-.865.281-1.424.281c-.521 0-.972-.084-1.353-.252a2.16 2.16 0 0 1-.895-.703c-.215-.301-.337-.65-.366-1.048h.909c.024.275.116.502.277.682a1.51 1.51 0 0 0 .618.398 2.51 2.51 0 0 0 .81.127c.336 0 .638-.054.906-.163s.479-.265.636-.462a1.09 1.09 0 0 0 .234-.696c0-.241-.068-.438-.202-.589a1.47 1.47 0 0 0-.533-.369 5.55 5.55 0 0 0-.714-.249l-.895-.256c-.568-.163-1.018-.396-1.349-.699s-.497-.7-.497-1.19c0-.407.11-.762.33-1.065s.521-.542.895-.71.797-.256 1.261-.256.886.084 1.25.252.654.393.866.682a1.7 1.7 0 0 1 .341.983h-.852zm4.573 5.569c-.526 0-.979-.116-1.36-.348a2.34 2.34 0 0 1-.877-.98c-.204-.422-.305-.912-.305-1.471s.102-1.051.305-1.477a2.41 2.41 0 0 1 .859-1.001c.369-.242.8-.363 1.293-.363.284 0 .565.048.842.142a2.09 2.09 0 0 1 .756.462 2.21 2.21 0 0 1 .543.838c.135.348.202.777.202 1.286v.355h-4.205v-.725h3.352c0-.307-.062-.582-.185-.823s-.293-.433-.518-.572a1.45 1.45 0 0 0-.788-.21c-.334 0-.623.083-.867.249a1.63 1.63 0 0 0-.557.639 1.88 1.88 0 0 0-.195.845v.483c0 .412.071.761.213 1.048a1.51 1.51 0 0 0 .6.65c.256.15.553.22.891.22a1.8 1.8 0 0 0 .597-.093c.18-.063.335-.158.465-.284s.231-.286.302-.475l.81.227c-.085.274-.228.516-.43.724s-.45.367-.746.483-.628.171-.998.171zm3.533-.114v-5.455h.81v.824h.057a1.31 1.31 0 0 1 .54-.657 1.59 1.59 0 0 1 .881-.252l.231.004.209.01v.853a2.43 2.43 0 0 0-.195-.032c-.1-.017-.205-.025-.316-.025-.265 0-.502.056-.71.167a1.26 1.26 0 0 0-.49.454 1.23 1.23 0 0 0-.178.657v3.452h-.838zm8.347-5.455l-2.017 5.455h-.852l-2.017-5.455h.909l1.506 4.347h.057l1.506-4.347h.909zm3.198 5.569c-.526 0-.979-.116-1.36-.348a2.34 2.34 0 0 1-.877-.98c-.204-.422-.305-.912-.305-1.471s.102-1.051.305-1.477a2.41 2.41 0 0 1 .859-1.001c.369-.242.8-.363 1.293-.363.284 0 .565.048.842.142a2.09 2.09 0 0 1 .756.462c.227.211.408.49.543.838s.202.777.202 1.286v.355H73.69v-.725h3.352c0-.307-.062-.582-.185-.823s-.294-.433-.519-.572a1.45 1.45 0 0 0-.788-.21c-.334 0-.623.083-.866.249a1.63 1.63 0 0 0-.558.639 1.88 1.88 0 0 0-.195.845v.483c0 .412.071.761.213 1.048a1.51 1.51 0 0 0 .6.65c.256.15.553.22.891.22.22 0 .419-.031.597-.093a1.26 1.26 0 0 0 .465-.284c.13-.127.231-.286.302-.475l.81.227c-.085.274-.228.516-.43.724s-.45.367-.746.483-.629.171-.998.171zm3.533-.114v-5.455h.81v.824h.057a1.31 1.31 0 0 1 .54-.657 1.59 1.59 0 0 1 .881-.252l.231.004.21.01v.853a2.43 2.43 0 0 0-.195-.032c-.099-.017-.205-.025-.316-.025-.265 0-.502.056-.71.167a1.26 1.26 0 0 0-.49.454 1.23 1.23 0 0 0-.178.657v3.452h-.838zm7.584-4.233l-.753.213c-.047-.125-.117-.247-.209-.366a1.02 1.02 0 0 0-.369-.298c-.156-.078-.356-.117-.6-.117-.334 0-.612.077-.835.231s-.33.344-.33.579c0 .208.076.372.227.493s.388.221.71.302l.81.199c.488.118.851.299 1.09.543s.359.553.359.934a1.38 1.38 0 0 1-.27.838c-.177.246-.426.441-.746.583s-.691.213-1.115.213c-.556 0-1.017-.121-1.381-.363s-.595-.594-.692-1.058l.795-.199c.076.294.219.514.43.661s.491.22.835.22c.391 0 .701-.083.93-.249s.348-.369.348-.603a.63.63 0 0 0-.199-.476c-.133-.128-.336-.227-.611-.291l-.909-.213c-.5-.119-.867-.302-1.101-.551s-.348-.564-.348-.941a1.35 1.35 0 0 1 .259-.817 1.77 1.77 0 0 1 .714-.557c.303-.135.646-.203 1.03-.203.54 0 .964.119 1.271.356a1.91 1.91 0 0 1 .66.937zm93.127-96.04h1.051l2.471 6.037h.086l2.471-6.037h1.051v7.273h-.823v-5.526h-.072l-2.272 5.526h-.796l-2.272-5.526h-.071v5.526h-.824v-7.273zm9.194 7.273h-.923l2.671-7.273h.909l2.67 7.273h-.923l-2.173-6.122h-.057l-2.174 6.122zm.341-2.841h3.722v.781h-3.722v-.781zm6.545-4.432l1.875 3.026h.057l1.875-3.026h1.037l-2.287 3.637 2.287 3.636h-1.037l-1.875-2.969h-.057l-1.875 2.969h-1.037l2.344-3.636-2.344-3.637h1.037zm5.692 5.782v-.725l3.196-5.057h.525v1.122h-.355l-2.415 3.821v.057h4.304v.782h-5.255zm3.423 1.491v-1.712-.337-5.224h.838v7.273h-.838zm5.621.099c-.469 0-.887-.08-1.254-.241s-.655-.385-.87-.671-.329-.624-.348-1.005h.895c.019.234.099.437.241.607s.328.298.558.391.484.138.763.138c.313 0 .59-.054.831-.163a1.36 1.36 0 0 0 .568-.455c.138-.194.206-.419.206-.674 0-.268-.066-.504-.198-.707s-.327-.367-.583-.483-.568-.174-.937-.174h-.583v-.781h.583c.289 0 .542-.052.76-.157s.391-.251.515-.44.188-.412.188-.668c0-.246-.055-.46-.164-.642a1.1 1.1 0 0 0-.461-.426c-.197-.102-.429-.153-.696-.153-.251 0-.488.046-.71.138s-.401.222-.54.395-.216.376-.228.617h-.852c.014-.381.129-.715.345-1.001a2.2 2.2 0 0 1 .845-.675 2.73 2.73 0 0 1 1.154-.241c.45 0 .836.091 1.158.273a1.94 1.94 0 0 1 .742.714 1.87 1.87 0 0 1 .259.959c0 .409-.108.759-.323 1.047a1.64 1.64 0 0 1-.87.601v.056c.459.076.818.271 1.076.586s.387.7.387 1.162c0 .395-.108.75-.323 1.065s-.504.559-.874.739a2.84 2.84 0 0 1-1.26.269zm3.739-1.59v-.725l3.196-5.057h.525v1.122h-.355l-2.414 3.821v.057h4.304v.782h-5.256zm3.423 1.491v-1.712-.337-5.224h.838v7.273h-.838zm5.621.099c-.469 0-.887-.08-1.254-.241s-.654-.385-.87-.671-.329-.624-.348-1.005h.895a1.05 1.05 0 0 0 .242.607 1.4 1.4 0 0 0 .557.391c.23.092.484.138.764.138.312 0 .589-.054.831-.163s.43-.261.568-.455a1.14 1.14 0 0 0 .206-.674 1.27 1.27 0 0 0-.199-.707c-.133-.206-.327-.367-.583-.483s-.568-.174-.937-.174h-.582v-.781h.582c.289 0 .542-.052.76-.157a1.22 1.22 0 0 0 .515-.44c.125-.189.188-.412.188-.668 0-.246-.054-.46-.163-.642s-.263-.325-.462-.426-.429-.153-.696-.153c-.251 0-.488.046-.71.138s-.4.222-.54.395a1.03 1.03 0 0 0-.227.617h-.853c.015-.381.129-.715.345-1.001a2.2 2.2 0 0 1 .845-.675 2.73 2.73 0 0 1 1.154-.241c.45 0 .836.091 1.158.273a1.94 1.94 0 0 1 .742.714 1.87 1.87 0 0 1 .259.959c0 .409-.107.759-.323 1.047a1.64 1.64 0 0 1-.87.601v.056c.459.076.818.271 1.076.586s.387.7.387 1.162c0 .395-.108.75-.323 1.065s-.504.559-.874.739a2.84 2.84 0 0 1-1.26.269zm-31.17 18.628v7.273h-.881v-6.349h-.043l-1.775 1.179v-.895l1.818-1.208h.881zm4.463 7.372c-.535 0-.99-.145-1.367-.436s-.664-.719-.863-1.275-.298-1.234-.298-2.024.099-1.458.298-2.014.49-.985.867-1.278a2.16 2.16 0 0 1 1.363-.444c.53 0 .984.148 1.361.444s.667.719.866 1.278.302 1.228.302 2.014-.1 1.465-.298 2.024-.487.981-.863 1.275-.833.436-1.368.436zm0-.781c.531 0 .943-.256 1.236-.767s.441-1.24.441-2.187c0-.63-.068-1.166-.203-1.609s-.324-.78-.575-1.012a1.27 1.27 0 0 0-.899-.348c-.525 0-.936.259-1.232.778s-.444 1.246-.444 2.191c0 .629.067 1.164.199 1.605s.323.775.572 1.005.553.344.905.344zm6.705.682v-5.455h.81v.853h.071a1.37 1.37 0 0 1 .55-.679c.253-.163.558-.245.913-.245s.659.082.898.245.43.388.565.679h.057a1.58 1.58 0 0 1 .628-.671c.28-.169.615-.253 1.005-.253.488 0 .887.153 1.197.459s.465.775.465 1.416v3.651h-.838v-3.651c0-.402-.11-.69-.33-.862a1.23 1.23 0 0 0-.778-.26c-.383 0-.681.116-.891.348s-.316.521-.316.874v3.551h-.853v-3.736c0-.31-.1-.56-.301-.749s-.461-.288-.778-.288a1.15 1.15 0 0 0-.611.174c-.187.116-.338.277-.454.483s-.171.439-.171.707v3.409h-.838zm8.691 0v-5.455h.838v5.455h-.838zm.427-6.364a.59.59 0 0 1-.423-.167c-.116-.111-.174-.245-.174-.401s.058-.29.174-.401.259-.167.423-.167.303.056.419.167a.53.53 0 0 1 .177.401.53.53 0 0 1-.177.401.58.58 0 0 1-.419.167zm2.785 3.083v3.281h-.839v-5.455h.81v.853h.071c.128-.277.322-.5.583-.668s.596-.256 1.008-.256c.369 0 .692.076.969.228a1.53 1.53 0 0 1 .647.682c.154.303.231.686.231 1.15v3.466h-.838v-3.409c0-.429-.112-.762-.334-1.002s-.528-.362-.916-.362c-.268 0-.507.058-.718.174s-.373.286-.493.508-.181.493-.181.81zm8.875-.952l-.753.213a1.42 1.42 0 0 0-.21-.366c-.09-.12-.213-.22-.369-.298s-.356-.117-.6-.117c-.334 0-.612.077-.835.231s-.33.344-.33.579c0 .208.076.372.227.493s.389.221.711.302l.809.199c.488.118.851.299 1.09.543s.359.553.359.934c0 .313-.09.592-.27.838s-.426.441-.746.583-.691.213-1.115.213c-.556 0-1.016-.121-1.381-.363s-.595-.594-.692-1.058l.795-.199c.076.294.219.514.43.661s.491.22.834.22c.391 0 .701-.083.931-.249s.348-.369.348-.603c0-.19-.067-.348-.199-.476s-.336-.227-.611-.291l-.909-.213c-.5-.119-.867-.302-1.101-.551s-.348-.564-.348-.941c0-.308.086-.58.259-.817s.413-.422.714-.557.646-.203 1.03-.203c.54 0 .963.119 1.271.356s.53.549.661.937z"/></g><path d="M23 146.25h211m-211 224h211" class="D F"/><path d="M58.648 130.227v7.273h-.852l-3.963-5.71h-.071v5.71h-.881v-7.273h.852l3.977 5.725h.071v-5.725h.867zm3.254 7.401a2.22 2.22 0 0 1-.941-.195c-.282-.133-.505-.324-.671-.572s-.248-.554-.248-.909c0-.313.062-.566.185-.76a1.3 1.3 0 0 1 .494-.462 2.59 2.59 0 0 1 .682-.248l.756-.135.806-.096c.208-.024.36-.063.455-.117s.146-.15.146-.285v-.028c0-.35-.096-.623-.288-.817s-.477-.291-.863-.291c-.4 0-.714.088-.941.263a1.55 1.55 0 0 0-.479.561l-.796-.284c.142-.332.331-.59.568-.774a2.16 2.16 0 0 1 .781-.391c.281-.073.563-.114.838-.114a3.39 3.39 0 0 1 .604.064 2 2 0 0 1 .664.252c.213.127.394.321.536.579s.213.604.213 1.037v3.594h-.838v-.739h-.043a1.46 1.46 0 0 1-.284.38 1.65 1.65 0 0 1-.529.345c-.22.095-.489.142-.806.142zm.128-.753c.331 0 .611-.065.838-.195s.402-.299.518-.505.178-.422.178-.649v-.767c-.035.042-.114.081-.234.117a4 4 0 0 1-.412.088l-.451.064-.352.043c-.218.028-.421.075-.611.139a1.05 1.05 0 0 0-.455.28c-.114.123-.17.291-.17.504a.75.75 0 0 0 .323.661c.218.147.494.22.827.22zm3.902.625v-5.455h.81v.853h.071c.114-.291.297-.518.55-.679s.558-.245.913-.245.659.082.898.245.43.388.565.679h.057a1.58 1.58 0 0 1 .629-.671c.28-.165.614-.253 1.005-.253.488 0 .887.153 1.197.459s.465.775.465 1.416v3.651h-.838v-3.651c0-.402-.11-.69-.33-.862a1.22 1.22 0 0 0-.778-.26c-.383 0-.681.116-.891.348s-.316.521-.316.874v3.551h-.852v-3.736a.98.98 0 0 0-.302-.749 1.08 1.08 0 0 0-.778-.288 1.15 1.15 0 0 0-.611.174c-.187.116-.339.277-.455.483s-.17.439-.17.707v3.409h-.838zm10.978.114c-.526 0-.979-.116-1.36-.348a2.34 2.34 0 0 1-.877-.98c-.204-.422-.305-.912-.305-1.471s.102-1.051.305-1.477a2.41 2.41 0 0 1 .859-1.001c.369-.242.8-.363 1.293-.363.284 0 .565.048.842.142a2.09 2.09 0 0 1 .756.462c.227.211.408.49.543.838s.202.777.202 1.286v.355h-4.205v-.725h3.352c0-.307-.062-.582-.185-.823s-.293-.433-.518-.572a1.45 1.45 0 0 0-.788-.21c-.334 0-.623.083-.867.249a1.63 1.63 0 0 0-.558.639 1.88 1.88 0 0 0-.195.845v.483c0 .412.071.761.213 1.048a1.51 1.51 0 0 0 .6.65c.256.15.553.22.891.22a1.8 1.8 0 0 0 .597-.093c.18-.063.335-.158.465-.284s.231-.286.302-.475l.81.227c-.085.274-.228.516-.43.724s-.45.367-.746.483-.629.171-.998.171zM52.881 359.5v-7.273h2.457c.571 0 1.037.103 1.399.309s.634.48.81.828.263.736.263 1.164-.088.818-.263 1.169-.44.629-.803.838-.826.309-1.392.309h-1.761v-.782h1.733c.391 0 .704-.067.941-.202s.408-.317.515-.547.163-.493.163-.785-.054-.551-.163-.781a1.18 1.18 0 0 0-.518-.54c-.239-.131-.556-.198-.952-.198h-1.548v6.491h-.881zm8.391.114a2.38 2.38 0 0 1-1.296-.352c-.371-.234-.658-.562-.867-.984s-.309-.913-.309-1.477.103-1.064.309-1.488a2.36 2.36 0 0 1 .867-.987c.37-.234.804-.352 1.296-.352s.923.118 1.293.352.66.563.867.987.313.92.313 1.488-.104 1.056-.312 1.477a2.35 2.35 0 0 1-.867.984c-.369.234-.8.352-1.293.352zm0-.753c.374 0 .682-.096.923-.288s.42-.444.536-.756a2.9 2.9 0 0 0 .174-1.016c0-.364-.058-.704-.174-1.019s-.295-.569-.536-.764-.549-.291-.923-.291-.682.097-.923.291a1.72 1.72 0 0 0-.536.764c-.116.315-.174.655-.174 1.019a2.9 2.9 0 0 0 .174 1.016c.116.312.295.564.536.756s.549.288.923.288zm4.801.639l-1.662-5.455h.881l1.179 4.177h.057l1.165-4.177h.895l1.15 4.162h.057l1.179-4.162h.881l-1.662 5.455h-.824l-1.193-4.19h-.085l-1.193 4.19h-.824zm8.99.114c-.525 0-.979-.116-1.36-.348a2.34 2.34 0 0 1-.877-.98c-.204-.422-.305-.912-.305-1.471s.102-1.051.305-1.477a2.41 2.41 0 0 1 .859-1.001c.369-.242.8-.363 1.293-.363.284 0 .565.048.842.142a2.09 2.09 0 0 1 .756.462c.227.211.408.49.543.838s.202.777.202 1.286v.355h-4.205v-.725h3.352c0-.307-.062-.582-.185-.823a1.41 1.41 0 0 0-.518-.572 1.45 1.45 0 0 0-.788-.21c-.334 0-.623.083-.867.249a1.63 1.63 0 0 0-.557.639 1.88 1.88 0 0 0-.195.845v.483c0 .412.071.761.213 1.048a1.51 1.51 0 0 0 .6.65c.256.15.553.22.891.22a1.8 1.8 0 0 0 .597-.093c.18-.063.335-.158.465-.284s.231-.286.302-.475l.81.227c-.085.274-.228.516-.43.724s-.45.367-.746.483-.629.171-.998.171zm3.533-.114v-5.455h.81v.824h.057a1.31 1.31 0 0 1 .54-.657 1.59 1.59 0 0 1 .881-.252l.231.004.209.01v.853a2.43 2.43 0 0 0-.195-.032c-.099-.017-.205-.025-.316-.025-.265 0-.502.056-.71.167a1.26 1.26 0 0 0-.49.454 1.23 1.23 0 0 0-.178.657v3.452h-.838zm10.624-5.455c-.043-.359-.215-.639-.518-.838s-.675-.298-1.115-.298a2.12 2.12 0 0 0-.845.156 1.36 1.36 0 0 0-.561.43c-.133.182-.199.389-.199.621 0 .195.046.362.138.501s.215.252.362.345.301.164.462.223l.444.139.739.199c.189.049.4.118.632.206a3 3 0 0 1 .671.358 1.83 1.83 0 0 1 .533.576c.14.234.21.522.21.863 0 .393-.103.748-.309 1.065s-.502.569-.895.756-.865.281-1.424.281c-.521 0-.972-.084-1.353-.252a2.16 2.16 0 0 1-.895-.703c-.215-.301-.337-.65-.366-1.048h.909c.024.275.116.502.277.682a1.51 1.51 0 0 0 .618.398 2.51 2.51 0 0 0 .81.127 2.38 2.38 0 0 0 .905-.163 1.55 1.55 0 0 0 .636-.462 1.09 1.09 0 0 0 .234-.696c0-.241-.067-.438-.202-.589a1.47 1.47 0 0 0-.533-.369 5.55 5.55 0 0 0-.714-.249l-.895-.256c-.568-.163-1.018-.396-1.349-.699s-.497-.7-.497-1.19c0-.407.11-.762.33-1.065s.521-.542.895-.71.797-.256 1.261-.256.885.084 1.25.252.653.393.867.682a1.7 1.7 0 0 1 .341.983h-.852zm3.891 5.583a2.22 2.22 0 0 1-.941-.195c-.282-.133-.505-.324-.671-.572s-.249-.554-.249-.909c0-.313.062-.566.185-.76a1.3 1.3 0 0 1 .494-.462c.206-.111.433-.194.682-.248l.756-.135.806-.096c.208-.024.36-.063.454-.117s.146-.15.146-.285v-.028c0-.35-.096-.623-.288-.817s-.477-.291-.863-.291c-.4 0-.714.088-.941.263a1.55 1.55 0 0 0-.479.561l-.796-.284c.142-.332.332-.59.568-.774a2.15 2.15 0 0 1 .781-.391c.281-.073.563-.114.838-.114a3.38 3.38 0 0 1 .604.064c.227.042.451.125.664.252s.394.321.536.579.213.604.213 1.037v3.594h-.838v-.739h-.043a1.46 1.46 0 0 1-.284.38 1.65 1.65 0 0 1-.529.345c-.22.095-.489.142-.806.142zm.128-.753c.332 0 .611-.065.838-.195a1.35 1.35 0 0 0 .519-.505c.116-.206.177-.422.177-.649v-.767c-.035.042-.114.081-.234.117a3.41 3.41 0 0 1-.412.088l-.451.064-.352.043c-.218.028-.421.075-.611.139a1.05 1.05 0 0 0-.455.28c-.114.123-.17.291-.17.504a.75.75 0 0 0 .323.661c.218.147.494.22.827.22zm8.167-4.83L99.39 359.5h-.852l-2.017-5.455h.909l1.506 4.347h.057l1.506-4.347h.909zm1.106 5.455v-5.455h.838v5.455h-.838zm.426-6.364a.59.59 0 0 1-.422-.167c-.116-.111-.174-.245-.174-.401s.058-.29.174-.401a.59.59 0 0 1 .422-.167c.163 0 .303.056.419.167a.53.53 0 0 1 .178.401.53.53 0 0 1-.178.401.58.58 0 0 1-.419.167zm2.785 3.083v3.281h-.838v-5.455h.81v.853h.071a1.56 1.56 0 0 1 .582-.668c.261-.17.597-.256 1.009-.256.369 0 .692.076.969.228a1.53 1.53 0 0 1 .647.682c.153.303.23.686.23 1.15v3.466h-.838v-3.409c0-.429-.111-.762-.334-1.002s-.527-.362-.916-.362c-.267 0-.506.058-.717.174s-.373.286-.494.508-.181.493-.181.81zm7.214 5.44c-.405 0-.753-.052-1.045-.156s-.533-.237-.728-.405-.344-.343-.458-.533l.668-.468.288.341c.116.13.274.242.475.337s.47.145.8.145c.44 0 .803-.106 1.09-.319s.429-.547.429-1.002v-1.108h-.071a4.43 4.43 0 0 1-.262.37c-.112.144-.273.273-.483.387s-.49.167-.846.167c-.44 0-.835-.104-1.186-.313a2.19 2.19 0 0 1-.827-.909c-.201-.398-.302-.881-.302-1.449 0-.558.098-1.045.295-1.459a2.27 2.27 0 0 1 .82-.966c.351-.23.755-.345 1.215-.345.355 0 .636.06.845.178s.372.249.483.398l.263.362h.085v-.867h.809v5.611c0 .469-.106.85-.319 1.144a1.85 1.85 0 0 1-.852.65 3.26 3.26 0 0 1-1.186.209zm-.029-2.997c.336 0 .62-.077.852-.231a1.43 1.43 0 0 0 .529-.664c.121-.289.182-.634.182-1.037 0-.393-.06-.74-.178-1.04s-.294-.537-.526-.707-.518-.256-.859-.256c-.355 0-.651.09-.888.27a1.63 1.63 0 0 0-.529.725 2.8 2.8 0 0 0-.174 1.008c0 .379.059.714.178 1.005a1.52 1.52 0 0 0 .532.682c.234.166.531.245.881.245zm6.847-6.435h1.051l2.471 6.037h.086l2.471-6.037h1.051v7.273h-.824v-5.526h-.071l-2.272 5.526h-.796l-2.272-5.526h-.071v5.526h-.824v-7.273zm10.998 7.387c-.492 0-.924-.118-1.296-.352s-.658-.562-.866-.984-.309-.913-.309-1.477.103-1.064.309-1.488.497-.753.866-.987.804-.352 1.296-.352.924.118 1.293.352.661.563.867.987.312.92.312 1.488-.104 1.056-.312 1.477a2.35 2.35 0 0 1-.867.984c-.369.234-.8.352-1.293.352zm0-.753c.374 0 .682-.096.924-.288s.42-.444.536-.756a2.9 2.9 0 0 0 .174-1.016c0-.364-.058-.704-.174-1.019s-.295-.569-.536-.764-.55-.291-.924-.291-.681.097-.923.291-.42.449-.536.764-.174.655-.174 1.019a2.9 2.9 0 0 0 .174 1.016c.116.312.295.564.536.756s.549.288.923.288zm5.811.753c-.455 0-.856-.115-1.204-.345a2.32 2.32 0 0 1-.817-.98c-.197-.421-.294-.924-.294-1.502 0-.573.098-1.07.294-1.492s.47-.746.821-.976a2.16 2.16 0 0 1 1.214-.345c.355 0 .636.06.842.178s.367.249.476.398l.259.362h.071v-2.685h.838v7.273h-.81v-.838h-.099c-.062.099-.149.225-.263.376s-.276.283-.486.402-.492.174-.842.174zm.114-.753c.336 0 .62-.088.852-.263s.408-.423.529-.735.181-.678.181-1.09-.059-.764-.177-1.069-.294-.547-.526-.717-.518-.26-.859-.26c-.355 0-.651.091-.888.274a1.63 1.63 0 0 0-.529.735c-.116.308-.174.653-.174 1.037a3.03 3.03 0 0 0 .177 1.058 1.7 1.7 0 0 0 .533.753c.234.187.53.277.881.277zm6.324.753c-.525 0-.979-.116-1.36-.348s-.671-.561-.877-.98-.305-.912-.305-1.471.101-1.051.305-1.477a2.41 2.41 0 0 1 .859-1.001c.37-.242.801-.363 1.293-.363.284 0 .565.048.842.142s.529.249.756.462a2.23 2.23 0 0 1 .543.838c.135.348.203.777.203 1.286v.355h-4.205v-.725h3.352c0-.307-.061-.582-.184-.823s-.294-.433-.519-.572-.485-.21-.788-.21c-.334 0-.623.083-.867.249a1.63 1.63 0 0 0-.557.639 1.88 1.88 0 0 0-.195.845v.483c0 .412.071.761.213 1.048a1.51 1.51 0 0 0 .6.65c.256.15.553.22.891.22.22 0 .419-.031.597-.093s.335-.158.465-.284.231-.286.302-.475l.809.227c-.085.274-.228.516-.429.724s-.45.367-.746.483-.628.171-.998.171zM54.202 258.5l-1.989-7.273h.895l1.52 5.924h.071l1.548-5.924h.994l1.548 5.924h.071l1.52-5.924h.895l-1.989 7.273h-.909l-1.605-5.795h-.057L55.11 258.5h-.909zm8.057 0v-5.455h.838v5.455h-.838zm.426-6.364c-.163 0-.304-.055-.423-.167s-.174-.245-.174-.401.058-.29.174-.401.259-.167.423-.167.303.056.419.167a.53.53 0 0 1 .178.401.53.53 0 0 1-.178.401.58.58 0 0 1-.419.167zm2.061 6.364v-7.273h4.361v.782h-3.48v2.457h3.153v.781h-3.153v3.253h-.881zm5.755 0v-5.455h.838v5.455h-.838zm.426-6.364a.59.59 0 0 1-.423-.167c-.116-.111-.174-.245-.174-.401s.058-.29.174-.401.259-.167.423-.167.303.056.419.167a.53.53 0 0 1 .178.401.53.53 0 0 1-.178.401.58.58 0 0 1-.419.167z" class="G"/><path d="M23 174.25h212m-212 98h212" class="D F"/><g class="G"><path d="M52.881 164.5v-7.273h.881v3.239h3.878v-3.239h.881v7.273h-.881v-3.253h-3.878v3.253h-.881zm9.576.114c-.526 0-.979-.116-1.36-.348a2.34 2.34 0 0 1-.877-.98c-.204-.422-.305-.912-.305-1.471s.102-1.051.305-1.477a2.41 2.41 0 0 1 .859-1.001c.369-.242.8-.363 1.293-.363.284 0 .565.048.842.142a2.09 2.09 0 0 1 .756.462 2.21 2.21 0 0 1 .543.838c.135.348.202.777.202 1.286v.355H60.51v-.725h3.352c0-.307-.062-.582-.185-.823s-.294-.433-.519-.572-.485-.21-.788-.21c-.334 0-.623.083-.866.249a1.63 1.63 0 0 0-.558.639 1.88 1.88 0 0 0-.195.845v.483c0 .412.071.761.213 1.048s.345.5.6.65.553.22.891.22a1.8 1.8 0 0 0 .597-.093c.18-.063.335-.158.465-.284s.231-.286.302-.475l.81.227c-.085.274-.228.516-.43.724s-.45.367-.746.483-.629.171-.998.171zm5.139.014a2.22 2.22 0 0 1-.941-.195c-.282-.133-.505-.324-.671-.572s-.249-.554-.249-.909c0-.313.062-.566.185-.76a1.3 1.3 0 0 1 .494-.462c.206-.111.433-.194.682-.248l.756-.135.806-.096c.208-.024.36-.063.455-.117s.145-.15.145-.285v-.028c0-.35-.096-.623-.288-.817s-.477-.291-.863-.291c-.4 0-.714.088-.941.263s-.387.362-.479.561l-.795-.284a1.9 1.9 0 0 1 .568-.774c.239-.187.499-.318.781-.391s.563-.114.838-.114c.175 0 .376.022.604.064s.451.125.664.252.394.321.536.579.213.604.213 1.037v3.594h-.838v-.739h-.043c-.057.119-.151.245-.284.38s-.309.25-.529.345-.489.142-.806.142zm.128-.753c.331 0 .611-.065.838-.195s.403-.299.519-.505.177-.422.177-.649v-.767c-.035.042-.114.081-.234.117s-.256.062-.412.088l-.451.064-.352.043c-.218.028-.421.075-.611.139a1.05 1.05 0 0 0-.455.28c-.114.123-.17.291-.17.504a.75.75 0 0 0 .323.661c.218.147.494.22.828.22zm3.902.625v-5.455h.81v.824h.057a1.31 1.31 0 0 1 .54-.657 1.59 1.59 0 0 1 .881-.252l.231.004.209.01v.853a2.43 2.43 0 0 0-.195-.032c-.099-.017-.205-.025-.316-.025-.265 0-.502.056-.71.167a1.26 1.26 0 0 0-.49.454c-.118.192-.178.411-.178.657v3.452h-.838zm6.435-5.455v.711h-2.827v-.711h2.827zm-2.003-1.306h.838v5.199c0 .236.034.414.103.532a.54.54 0 0 0 .27.235c.111.037.228.056.352.056.092 0 .168-.004.227-.014l.142-.028.171.753a1.86 1.86 0 0 1-.238.064c-.102.023-.231.035-.387.035-.237 0-.469-.051-.696-.153s-.412-.257-.561-.465-.22-.471-.22-.788v-5.426zm3.494 6.761v-7.273h.838v2.685h.071l.256-.362a1.5 1.5 0 0 1 .476-.398c.208-.118.49-.178.845-.178.459 0 .864.115 1.215.345s.624.555.82.976.295.919.295 1.492-.098 1.078-.295 1.502-.469.748-.817.98-.749.345-1.204.345c-.35 0-.631-.058-.842-.174s-.373-.253-.487-.402l-.263-.376h-.099v.838h-.81zm.824-2.727a3.03 3.03 0 0 0 .181 1.09 1.65 1.65 0 0 0 .529.735c.232.175.516.263.852.263.35 0 .643-.093.877-.277s.414-.438.533-.753.181-.67.181-1.058-.059-.729-.178-1.037-.292-.555-.529-.735-.529-.274-.884-.274c-.341 0-.627.087-.859.26s-.407.409-.526.717a2.95 2.95 0 0 0-.178 1.069zm7.56 2.841c-.525 0-.979-.116-1.36-.348a2.34 2.34 0 0 1-.877-.98c-.204-.422-.305-.912-.305-1.471s.102-1.051.305-1.477a2.41 2.41 0 0 1 .859-1.001c.369-.242.8-.363 1.293-.363.284 0 .565.048.842.142a2.09 2.09 0 0 1 .756.462 2.21 2.21 0 0 1 .543.838c.135.348.203.777.203 1.286v.355h-4.205v-.725h3.352c0-.307-.062-.582-.185-.823s-.294-.433-.518-.572a1.45 1.45 0 0 0-.788-.21c-.334 0-.623.083-.867.249a1.63 1.63 0 0 0-.557.639 1.88 1.88 0 0 0-.195.845v.483c0 .412.071.761.213 1.048s.344.5.6.65.553.22.891.22a1.8 1.8 0 0 0 .597-.093c.18-.063.335-.158.465-.284s.231-.286.302-.475l.81.227c-.085.274-.228.516-.43.724s-.45.367-.746.483-.629.171-.998.171zm5.139.014a2.22 2.22 0 0 1-.941-.195c-.282-.133-.505-.324-.671-.572s-.249-.554-.249-.909c0-.313.062-.566.185-.76a1.3 1.3 0 0 1 .494-.462c.206-.111.433-.194.682-.248l.756-.135.806-.096c.208-.024.36-.063.455-.117s.146-.15.146-.285v-.028c0-.35-.096-.623-.288-.817s-.477-.291-.863-.291c-.4 0-.714.088-.941.263s-.387.362-.479.561l-.795-.284a1.9 1.9 0 0 1 .568-.774c.239-.187.499-.318.781-.391s.564-.114.838-.114c.175 0 .376.022.604.064s.451.125.664.252.394.321.536.579.213.604.213 1.037v3.594h-.838v-.739h-.043c-.057.119-.151.245-.284.38s-.309.25-.529.345-.489.142-.806.142zm.128-.753c.331 0 .611-.065.838-.195s.403-.299.519-.505.178-.422.178-.649v-.767c-.035.042-.114.081-.234.117a4 4 0 0 1-.412.088l-.451.064-.352.043c-.218.028-.421.075-.611.139a1.05 1.05 0 0 0-.454.28c-.114.123-.171.291-.171.504a.75.75 0 0 0 .323.661c.218.147.494.22.827.22zm6.274-4.83v.711h-2.827v-.711h2.827zm-2.003-1.306h.838v5.199c0 .236.034.414.103.532s.161.194.27.235.228.056.352.056c.092 0 .168-.004.227-.014l.142-.028.171.753c-.057.021-.136.042-.238.064s-.231.035-.387.035c-.237 0-.469-.051-.696-.153s-.412-.257-.561-.465-.22-.471-.22-.788v-5.426z"/><path d="M52.483 385.009v-.782h5.455v.782h-2.287v6.491h-.881v-6.491h-2.287zm8.135 6.491l-1.989-7.273h.895l1.52 5.924h.071l1.548-5.924h.994l1.548 5.924h.071l1.52-5.924h.895l-1.989 7.273h-.909l-1.605-5.795h-.057l-1.605 5.795h-.909zm7.773-6.491v-.782h5.454v.782h-2.287v6.491h-.881v-6.491H68.39zm9.811 2.855c0-.895.116-1.718.348-2.468s.568-1.446 1.001-2.078h.739c-.17.235-.33.523-.479.867a8.46 8.46 0 0 0-.387 1.125 10.69 10.69 0 0 0-.263 1.265 9.19 9.19 0 0 0-.092 1.289 9.36 9.36 0 0 0 .163 1.715c.108.58.256 1.118.44 1.616s.391.902.618 1.214h-.739a7.7 7.7 0 0 1-1.001-2.074c-.232-.753-.348-1.576-.348-2.471zm3.041-2.855v-.782h5.455v.782H84.41v6.491h-.881v-6.491h-2.287zm7.563 6.619a2.22 2.22 0 0 1-.941-.195c-.282-.133-.505-.324-.671-.572s-.249-.554-.249-.909c0-.313.062-.566.185-.76a1.3 1.3 0 0 1 .494-.462 2.59 2.59 0 0 1 .682-.248l.756-.135.806-.096c.208-.024.36-.063.455-.117s.146-.15.146-.285v-.028c0-.35-.096-.623-.288-.817s-.477-.291-.863-.291c-.4 0-.714.088-.941.263a1.55 1.55 0 0 0-.479.561l-.795-.284c.142-.332.331-.59.568-.774a2.15 2.15 0 0 1 .781-.391 3.36 3.36 0 0 1 .838-.114 3.39 3.39 0 0 1 .604.064 2 2 0 0 1 .664.252c.213.127.394.321.536.579s.213.604.213 1.037v3.594h-.838v-.739h-.043a1.46 1.46 0 0 1-.284.38 1.65 1.65 0 0 1-.529.345c-.22.095-.489.142-.806.142zm.128-.753c.331 0 .611-.065.838-.195s.402-.299.518-.505.178-.422.178-.649v-.767c-.035.042-.114.081-.234.117a4 4 0 0 1-.412.088l-.451.064-.352.043c-.218.028-.421.075-.611.139a1.05 1.05 0 0 0-.454.28c-.114.123-.171.291-.171.504a.75.75 0 0 0 .323.661c.218.147.494.22.827.22zm3.902.625v-5.455h.81v.824h.057c.099-.27.279-.489.54-.657a1.59 1.59 0 0 1 .881-.252l.231.004.21.01v.853a2.43 2.43 0 0 0-.195-.032c-.1-.017-.205-.025-.316-.025-.265 0-.502.056-.71.167a1.26 1.26 0 0 0-.49.454 1.23 1.23 0 0 0-.177.657v3.452h-.838zm5.756 2.159c-.405 0-.753-.052-1.044-.156a2.22 2.22 0 0 1-.728-.405c-.192-.166-.344-.343-.458-.533l.668-.468.288.341c.116.13.275.242.476.337s.47.145.799.145c.44 0 .804-.106 1.09-.319s.43-.547.43-1.002v-1.108h-.071c-.062.1-.15.223-.263.37a1.5 1.5 0 0 1-.483.387c-.208.111-.49.167-.845.167a2.27 2.27 0 0 1-1.186-.313c-.348-.208-.624-.511-.827-.909s-.302-.881-.302-1.449c0-.558.098-1.045.295-1.459s.47-.739.82-.966.755-.345 1.215-.345c.355 0 .637.06.845.178s.372.249.483.398l.263.362h.085v-.867h.81v5.611c0 .469-.107.85-.32 1.144a1.85 1.85 0 0 1-.852.65 3.23 3.23 0 0 1-1.186.209zm-.028-2.997c.336 0 .62-.077.852-.231s.408-.375.529-.664.181-.634.181-1.037c0-.393-.059-.74-.178-1.04s-.294-.537-.526-.707-.518-.256-.859-.256c-.355 0-.651.09-.888.27s-.411.422-.529.725a2.8 2.8 0 0 0-.174 1.008c0 .379.059.714.178 1.005a1.54 1.54 0 0 0 .533.682c.237.163.53.245.881.245zm6.208.952c-.526 0-.979-.116-1.36-.348s-.671-.561-.877-.98-.306-.912-.306-1.471.102-1.051.306-1.477a2.41 2.41 0 0 1 .859-1.001c.369-.242.8-.363 1.293-.363a2.6 2.6 0 0 1 .841.142 2.1 2.1 0 0 1 .757.462c.227.211.408.49.543.838s.202.777.202 1.286v.355h-4.204v-.725h3.352c0-.307-.062-.582-.185-.823a1.38 1.38 0 0 0-.518-.572 1.45 1.45 0 0 0-.788-.21c-.334 0-.623.083-.867.249a1.63 1.63 0 0 0-.557.639 1.87 1.87 0 0 0-.196.845v.483c0 .412.071.761.213 1.048a1.55 1.55 0 0 0 .6.65c.256.146.553.22.892.22.22 0 .419-.031.596-.093a1.28 1.28 0 0 0 .466-.284c.131-.126.23-.286.301-.475l.81.227c-.085.274-.228.516-.43.724a2.07 2.07 0 0 1-.745.483 2.76 2.76 0 0 1-.998.171zm5.905-5.569v.711h-2.826v-.711h2.826zm-2.003-1.306h.839v5.199c0 .236.034.414.103.532a.54.54 0 0 0 .269.235c.112.037.229.056.352.056a1.42 1.42 0 0 0 .227-.014l.142-.028.171.753c-.057.021-.136.042-.238.064a1.8 1.8 0 0 1-.387.035 1.68 1.68 0 0 1-.696-.153c-.225-.101-.412-.257-.561-.465s-.221-.471-.221-.788v-5.426zm7.511 6.761l-1.989-7.273h.895l1.52 5.924h.071l1.549-5.924h.994l1.548 5.924h.071l1.52-5.924h.895l-1.989 7.273h-.909l-1.605-5.795h-.057l-1.605 5.795h-.909zm9.155.128a2.22 2.22 0 0 1-.941-.195c-.282-.133-.506-.324-.671-.572s-.249-.554-.249-.909c0-.313.062-.566.185-.76a1.32 1.32 0 0 1 .493-.462c.206-.111.434-.194.682-.248l.757-.135.806-.096c.208-.024.36-.063.454-.117s.146-.15.146-.285v-.028c0-.35-.096-.623-.288-.817s-.477-.291-.863-.291c-.4 0-.713.088-.941.263s-.387.362-.479.561l-.796-.284c.142-.332.332-.59.569-.774a2.12 2.12 0 0 1 .781-.391 3.23 3.23 0 0 1 .838-.114 3.39 3.39 0 0 1 .604.064 1.97 1.97 0 0 1 .664.252c.215.128.394.321.536.579s.213.604.213 1.037v3.594h-.838v-.739h-.043a1.46 1.46 0 0 1-.284.38 1.64 1.64 0 0 1-.529.345c-.22.094-.489.142-.806.142zm.128-.753c.331 0 .611-.065.838-.195s.402-.299.518-.505.178-.422.178-.649v-.767c-.036.042-.114.081-.234.117a3.41 3.41 0 0 1-.412.088l-.451.064-.352.043c-.218.028-.421.075-.611.139a1.05 1.05 0 0 0-.454.28c-.114.123-.171.291-.171.504 0 .292.108.512.323.661s.494.22.828.22zm4.683-1.364l-.014-1.037h.17l2.386-2.429h1.037l-2.542 2.571h-.071l-.966.895zm-.781 1.989v-7.273h.838v7.273h-.838zm3.466 0l-2.131-2.699.596-.582 2.6 3.281h-1.065zm4.035.114c-.525 0-.979-.116-1.36-.348s-.671-.561-.877-.98-.305-.912-.305-1.471.102-1.051.305-1.477.493-.762.86-1.001.8-.363 1.292-.363c.284 0 .565.048.842.142s.529.249.756.462.409.49.543.838.203.777.203 1.286v.355h-4.205v-.725h3.353c0-.307-.062-.582-.185-.823a1.39 1.39 0 0 0-.518-.572c-.223-.14-.486-.21-.789-.21a1.5 1.5 0 0 0-.866.249c-.242.163-.428.376-.558.639a1.88 1.88 0 0 0-.195.845v.483c0 .412.071.761.213 1.048a1.51 1.51 0 0 0 .6.65c.256.15.553.22.891.22.221 0 .419-.031.597-.093s.335-.158.465-.284.231-.286.302-.475l.81.227c-.086.274-.229.516-.43.724s-.45.367-.746.483-.628.171-.998.171zm6.062-6.605v-.782h5.455v.782H146.1v6.491h-.881v-6.491h-2.287zm6.7 6.491v-5.455h.838v5.455h-.838zm.426-6.364a.59.59 0 0 1-.422-.167c-.116-.111-.174-.245-.174-.401s.058-.29.174-.401a.59.59 0 0 1 .422-.167c.163 0 .303.056.419.167a.53.53 0 0 1 .178.401.53.53 0 0 1-.178.401.58.58 0 0 1-.419.167zm1.947 6.364v-5.455h.81v.853h.071c.114-.291.297-.518.55-.679s.558-.245.913-.245.659.082.899.245.429.388.564.679h.057a1.58 1.58 0 0 1 .629-.671c.279-.169.614-.253 1.004-.253.488 0 .887.153 1.197.459s.465.775.465 1.416v3.651h-.838v-3.651c0-.402-.11-.69-.33-.862a1.22 1.22 0 0 0-.778-.26c-.383 0-.68.116-.891.348s-.316.521-.316.874v3.551h-.852v-3.736a.98.98 0 0 0-.302-.749c-.201-.192-.461-.288-.778-.288a1.15 1.15 0 0 0-.611.174c-.187.116-.338.277-.454.483s-.171.439-.171.707v3.409h-.838zm10.979.114c-.526 0-.979-.116-1.36-.348a2.34 2.34 0 0 1-.878-.98c-.203-.422-.305-.912-.305-1.471s.102-1.051.305-1.477.493-.762.86-1.001.8-.363 1.292-.363c.285 0 .565.048.842.142s.529.249.756.462.409.49.544.838.202.777.202 1.286v.355h-4.204v-.725h3.352c0-.307-.062-.582-.185-.823a1.38 1.38 0 0 0-.518-.572c-.223-.14-.486-.21-.789-.21-.333 0-.622.083-.866.249a1.64 1.64 0 0 0-.558.639 1.88 1.88 0 0 0-.195.845v.483c0 .412.071.761.213 1.048a1.55 1.55 0 0 0 .6.65c.256.146.553.22.892.22.22 0 .419-.031.596-.093s.335-.158.465-.284.231-.286.302-.475l.81.227c-.085.274-.228.516-.43.724a2.08 2.08 0 0 1-.745.483 2.76 2.76 0 0 1-.998.171zm5.323-3.182c0 .895-.117 1.719-.352 2.471a7.6 7.6 0 0 1-.998 2.074h-.738c.17-.234.329-.523.476-.866a8.55 8.55 0 0 0 .39-1.122 10.35 10.35 0 0 0 .259-1.268 8.91 8.91 0 0 0 .096-1.289c0-.564-.054-1.135-.163-1.715a9.94 9.94 0 0 0-.44-1.616c-.185-.497-.391-.902-.618-1.215h.738a7.6 7.6 0 0 1 .998 2.078c.235.75.352 1.573.352 2.468zM52.881 191.5v-7.273h2.457c.568 0 1.035.097 1.399.291a1.86 1.86 0 0 1 .81.792c.175.337.263.719.263 1.147a2.4 2.4 0 0 1-.263 1.14c-.175.332-.444.592-.806.782s-.825.28-1.389.28h-1.989v-.795h1.96c.388 0 .701-.057.938-.171a1.07 1.07 0 0 0 .518-.483c.109-.21.163-.461.163-.753s-.054-.545-.163-.763a1.11 1.11 0 0 0-.522-.504c-.239-.121-.555-.181-.948-.181h-1.548v6.491h-.881zm3.423-3.267l1.79 3.267h-1.023l-1.761-3.267h.994zm5.088 3.381c-.526 0-.979-.116-1.36-.348a2.34 2.34 0 0 1-.877-.98c-.204-.422-.305-.912-.305-1.471s.102-1.051.305-1.477a2.41 2.41 0 0 1 .859-1.001c.369-.242.8-.363 1.293-.363.284 0 .565.048.842.142s.529.249.756.462a2.23 2.23 0 0 1 .543.838c.135.348.202.777.202 1.286v.355h-4.205v-.725h3.352c0-.307-.061-.582-.185-.823s-.294-.433-.519-.572-.485-.21-.788-.21c-.334 0-.623.083-.866.249a1.63 1.63 0 0 0-.558.639 1.88 1.88 0 0 0-.195.845v.483c0 .412.071.761.213 1.048s.345.5.6.65.553.22.891.22c.22 0 .419-.031.597-.093a1.26 1.26 0 0 0 .465-.284c.13-.127.231-.286.302-.475l.81.227c-.085.274-.228.516-.43.724s-.45.367-.746.483-.628.171-.998.171zm3.533-.114v-5.455h.81v.853h.071c.114-.291.297-.518.55-.679a1.65 1.65 0 0 1 .913-.245c.36 0 .659.082.898.245s.43.388.565.679h.057a1.58 1.58 0 0 1 .629-.671c.28-.165.614-.253 1.005-.253.488 0 .887.153 1.197.459s.465.775.465 1.416v3.651h-.838v-3.651c0-.402-.11-.69-.33-.862a1.22 1.22 0 0 0-.778-.26c-.383 0-.681.116-.891.348s-.316.521-.316.874v3.551h-.852v-3.736a.98.98 0 0 0-.302-.749 1.08 1.08 0 0 0-.778-.288 1.15 1.15 0 0 0-.611.174c-.187.116-.338.277-.454.483s-.171.439-.171.707v3.409h-.838zm8.691 0v-5.455h.838v5.455h-.838zm.426-6.364c-.163 0-.304-.055-.423-.167s-.174-.245-.174-.401.058-.29.174-.401.259-.167.423-.167.303.056.419.167a.53.53 0 0 1 .178.401.53.53 0 0 1-.178.401.58.58 0 0 1-.419.167zm2.785 3.083v3.281h-.838v-5.455h.81v.853h.071a1.56 1.56 0 0 1 .582-.668c.26-.17.597-.256 1.008-.256.369 0 .693.076.97.228s.492.376.646.682.231.686.231 1.15v3.466h-.838v-3.409c0-.429-.111-.762-.334-1.002s-.528-.362-.916-.362c-.268 0-.507.058-.717.174a1.25 1.25 0 0 0-.494.508c-.121.223-.181.493-.181.81zm5.011 3.281v-5.455h.838v5.455h-.838zm.426-6.364a.59.59 0 0 1-.422-.167c-.116-.111-.174-.245-.174-.401s.058-.29.174-.401a.59.59 0 0 1 .422-.167c.163 0 .303.056.419.167a.53.53 0 0 1 .177.401.53.53 0 0 1-.177.401.58.58 0 0 1-.419.167zm5.811 2.131l-.753.213a1.39 1.39 0 0 0-.21-.366 1.02 1.02 0 0 0-.369-.298c-.156-.078-.356-.117-.6-.117-.334 0-.612.077-.834.231s-.33.344-.33.579c0 .208.076.372.227.493s.388.221.71.302l.81.199c.488.118.851.299 1.09.543s.359.553.359.934a1.38 1.38 0 0 1-.27.838c-.178.246-.426.441-.746.583s-.691.213-1.115.213c-.556 0-1.017-.121-1.381-.363s-.596-.594-.692-1.058l.795-.199c.076.294.219.514.43.661s.491.22.835.22c.391 0 .701-.083.93-.249s.348-.369.348-.603a.63.63 0 0 0-.199-.476c-.133-.128-.336-.227-.611-.291l-.909-.213c-.499-.119-.867-.302-1.101-.551s-.348-.564-.348-.941a1.35 1.35 0 0 1 .259-.817 1.77 1.77 0 0 1 .714-.557c.303-.135.646-.203 1.03-.203.54 0 .963.119 1.271.356a1.91 1.91 0 0 1 .66.937zm3.577 4.347c-.511 0-.952-.121-1.321-.363a2.36 2.36 0 0 1-.852-.997c-.198-.423-.298-.908-.298-1.453 0-.554.102-1.043.305-1.466a2.41 2.41 0 0 1 .859-.998c.367-.239.8-.363 1.293-.363.383 0 .729.071 1.037.214a1.98 1.98 0 0 1 .756.596c.197.256.318.554.366.895h-.838a1.3 1.3 0 0 0-.426-.661c-.218-.194-.511-.291-.881-.291-.327 0-.613.085-.859.256s-.434.406-.572.714-.202.664-.202 1.076c0 .421.066.788.199 1.101a1.69 1.69 0 0 0 .568.728c.246.172.535.259.867.259.218 0 .415-.038.593-.114s.328-.185.451-.327a1.25 1.25 0 0 0 .263-.511h.838a1.94 1.94 0 0 1-.352.87c-.185.256-.43.459-.735.611s-.656.224-1.058.224zm5.657 0c-.525 0-.979-.116-1.36-.348a2.34 2.34 0 0 1-.877-.98c-.204-.422-.305-.912-.305-1.471s.102-1.051.305-1.477a2.41 2.41 0 0 1 .859-1.001c.369-.242.8-.363 1.293-.363.284 0 .565.048.842.142a2.09 2.09 0 0 1 .756.462 2.21 2.21 0 0 1 .543.838c.135.348.203.777.203 1.286v.355h-4.205v-.725h3.352c0-.307-.062-.582-.185-.823a1.41 1.41 0 0 0-.518-.572 1.45 1.45 0 0 0-.788-.21c-.334 0-.623.083-.867.249a1.63 1.63 0 0 0-.557.639 1.88 1.88 0 0 0-.195.845v.483c0 .412.071.761.213 1.048a1.51 1.51 0 0 0 .6.65c.256.15.553.22.891.22a1.8 1.8 0 0 0 .597-.093c.18-.063.335-.158.465-.284s.231-.286.302-.475l.81.227c-.085.274-.228.516-.43.724s-.45.367-.746.483-.629.171-.998.171zm-44.428 92.613h1.051l2.472 6.037h.085l2.472-6.037h1.051v7.273h-.824v-5.526h-.071l-2.273 5.526h-.796l-2.273-5.526h-.071v5.526h-.824v-7.273zm11.539 5h.966l.81 1.066.213.284 1.207 1.605h-.966l-.795-1.066-.199-.269-1.236-1.62zm3.494-1.363c0 .767-.138 1.43-.415 1.988s-.657.99-1.14 1.293-1.034.454-1.655.454-1.172-.151-1.655-.454-.863-.734-1.14-1.293-.416-1.221-.416-1.988.139-1.43.416-1.989.657-.99 1.14-1.293 1.035-.454 1.655-.454 1.172.151 1.655.454.863.734 1.14 1.293.415 1.222.415 1.989zm-.852 0c0-.63-.105-1.162-.316-1.595s-.491-.761-.849-.983-.753-.334-1.193-.334-.839.111-1.197.334-.638.55-.849.983-.312.965-.312 1.595.104 1.161.313 1.594.494.761.849.984.756.334 1.197.334.838-.112 1.193-.334a2.31 2.31 0 0 0 .849-.984c.209-.433.316-.965.316-1.594zm1.633-2.855v-.782h5.454v.782h-2.287v6.491h-.881v-6.491h-2.287zm6.416 0v-.782h5.455v.782h-2.287v6.491h-.881v-6.491H75.11z"/></g><g clip-path="url(#E)" class="B"><path d="M37.917 129.167H36.25v-.417a1.25 1.25 0 1 0-2.5 0v.417h-1.667c-1.149 0-2.083.934-2.083 2.083v4.167c0 1.148.935 2.083 2.083 2.083h5.833c1.149 0 2.083-.935 2.083-2.083v-4.167c0-1.149-.935-2.083-2.083-2.083zm-3.333-.417c0-.23.187-.417.417-.417s.417.187.417.417v.831.419h-.834v-1.25h0zm4.583 6.667a1.25 1.25 0 0 1-1.25 1.25h-5.833a1.25 1.25 0 0 1-1.25-1.25v-4.167a1.25 1.25 0 0 1 1.25-1.25h1.667c0 .46.374.833.833.833h.833c.459 0 .833-.373.833-.833h1.667a1.25 1.25 0 0 1 1.25 1.25v4.167zm-5.208-2.709a1.04 1.04 0 1 1 2.083 0 1.04 1.04 0 1 1-2.083 0zm3.112 3.022c.057.222-.077.45-.3.507s-.45-.077-.508-.3c-.138-.534-.681-.937-1.263-.937s-1.126.403-1.263.937c-.048.188-.217.313-.403.313-.034 0-.069-.004-.104-.013-.223-.057-.357-.285-.3-.507.233-.906 1.103-1.563 2.07-1.563s1.837.657 2.07 1.563h.001z"/></g><path d="M37.443 163.5h-3.886a1.6 1.6 0 0 1-.651-.138c-.204-.09-.386-.222-.532-.387a1.46 1.46 0 0 1-.312-.555c-.062-.204-.077-.419-.044-.629.209-1.097.815-2.086 1.711-2.791-.896-.705-1.502-1.695-1.711-2.791a1.43 1.43 0 0 1 .044-.63c.061-.204.168-.393.312-.554s.328-.297.532-.387a1.6 1.6 0 0 1 .651-.138h3.886a1.6 1.6 0 0 1 .651.138c.204.09.386.222.532.387s.251.35.312.554.077.419.044.629A4.68 4.68 0 0 1 37.269 159a4.68 4.68 0 0 1 1.713 2.793 1.43 1.43 0 0 1-.044.629c-.062.205-.168.394-.312.555s-.328.295-.532.385-.426.138-.65.138zm0-8.25h-3.886a.8.8 0 0 0-.327.069.77.77 0 0 0-.267.194.71.71 0 0 0-.156.272.7.7 0 0 0-.022.311c.146.938.748 1.815 1.789 2.609.046.035.083.08.109.131s.039.106.039.163-.013.112-.039.163-.063.096-.109.131c-1.041.795-1.641 1.673-1.789 2.61-.017.104-.009.21.021.311s.084.194.156.273a.77.77 0 0 0 .267.194.8.8 0 0 0 .327.069h3.886a.8.8 0 0 0 .327-.069.77.77 0 0 0 .267-.194c.072-.078.125-.171.156-.272s.038-.207.022-.31c-.145-.933-.747-1.811-1.789-2.611a.38.38 0 0 1-.108-.13c-.025-.051-.039-.107-.039-.163s.013-.112.039-.163.062-.095.108-.13c1.042-.8 1.644-1.679 1.789-2.612.016-.104.009-.21-.022-.311s-.085-.194-.157-.272-.164-.149-.266-.194a.81.81 0 0 0-.326-.069zM36.93 162h-2.863c-.064 0-.126-.015-.182-.044s-.104-.07-.14-.121a.37.37 0 0 1-.064-.171.36.36 0 0 1 .026-.179c.305-.634.768-1.185 1.35-1.602l.201-.155c.069-.053.154-.081.242-.081s.173.028.242.081l.198.152c.58.419 1.044.97 1.35 1.604.024.057.033.119.026.18s-.029.119-.064.17-.084.093-.14.122a.4.4 0 0 1-.183.044zm-2.196-.75h1.527c-.222-.279-.478-.531-.763-.75a4.29 4.29 0 0 0-.764.75z" class="B"/><g clip-path="url(#F)" class="B"><path d="M35.5 181.5a5.49 5.49 0 0 0-3.667 1.408v-.95a.46.46 0 0 0-.458-.458.46.46 0 0 0-.458.458v1.375c0 .365.145.715.403.973a1.38 1.38 0 0 0 .972.402h1.375a.46.46 0 0 0 .324-.134c.086-.086.134-.202.134-.324s-.048-.238-.134-.324a.46.46 0 0 0-.324-.134h-1.375l-.046-.01a4.58 4.58 0 0 1 7.627 1.889 4.58 4.58 0 0 1-5.272 5.825A4.58 4.58 0 0 1 30.917 187c0-.122-.048-.238-.134-.324a.46.46 0 0 0-.648 0c-.086.086-.134.202-.134.324a5.5 5.5 0 0 0 3.395 5.081 5.49 5.49 0 0 0 3.178.313 5.5 5.5 0 0 0 4.008-7.499c-.416-1.005-1.121-1.864-2.026-2.468s-1.968-.927-3.056-.927zm0 2.75a.46.46 0 0 0-.458.458V187c0 .122.048.238.134.324l1.375 1.375c.086.084.202.13.322.129a.46.46 0 0 0 .32-.135c.085-.085.133-.199.134-.32s-.045-.236-.129-.322l-1.241-1.241v-2.102a.46.46 0 0 0-.458-.458z"/></g><g class="E"><use href="#L"/><use href="#L" y="-64"/><use href="#M"/></g><path d="M35.416 256.792c0-.596.487-1.084 1.083-1.084s1.083.488 1.083 1.084-.488 1.083-1.083 1.083-1.083-.487-1.083-1.083zm4.528-2.297c.319-.32.319-.834 0-1.148a4.88 4.88 0 0 0-6.895 0c-.32.319-.32.834 0 1.148s.834.32 1.148 0a3.26 3.26 0 0 1 4.599 0c.157.157.368.238.574.238s.417-.081.574-.238zm2.8-2.53c.325-.308.336-.823.027-1.148l-.146-.152c-1.636-1.635-3.813-2.54-6.126-2.54s-4.49.899-6.126 2.535l-.146.152c-.309.325-.298.839.027 1.148s.84.298 1.148-.027l.119-.125a6.99 6.99 0 0 1 4.978-2.063c1.88 0 3.651.731 4.983 2.063l.119.12c.157.167.374.249.585.249.2 0 .406-.076.563-.222l-.005.01z" class="B"/><path d="M216 350h-5c-2.757 0-5 2.243-5 5s2.243 5 5 5h5c2.757 0 5-2.243 5-5s-2.243-5-5-5zm0 9.375h-5a4.38 4.38 0 0 1-4.375-4.375 4.38 4.38 0 0 1 4.375-4.375h5a4.38 4.38 0 0 1 4.375 4.375 4.38 4.38 0 0 1-4.375 4.375zm-5-6.875c-1.379 0-2.5 1.121-2.5 2.5s1.121 2.5 2.5 2.5 2.5-1.121 2.5-2.5-1.121-2.5-2.5-2.5zm0 4.375a1.88 1.88 0 0 1-1.875-1.875 1.88 1.88 0 0 1 1.875-1.875 1.88 1.88 0 0 1 1.875 1.875 1.88 1.88 0 0 1-1.875 1.875z" fill="#5a5c66"/><path d="M216 382h-5c-2.757 0-5 2.243-5 5s2.243 5 5 5h5c2.757 0 5-2.243 5-5s-2.243-5-5-5zm0 8.125a3.13 3.13 0 0 1-3.125-3.125 3.13 3.13 0 0 1 3.125-3.125 3.13 3.13 0 0 1 3.125 3.125 3.13 3.13 0 0 1-3.125 3.125z" fill="#f85550"/><path d="M25.733 421.5h-.881c-.052-.253-.143-.476-.273-.668a1.86 1.86 0 0 0-.469-.483c-.185-.131-.385-.232-.607-.298a2.43 2.43 0 0 0-.696-.099c-.44 0-.839.111-1.197.334s-.638.55-.849.983-.312.965-.312 1.595.104 1.161.313 1.594.494.761.849.984.756.334 1.197.334a2.43 2.43 0 0 0 .696-.1 2.01 2.01 0 0 0 .607-.295c.185-.132.341-.294.469-.486a1.89 1.89 0 0 0 .273-.668h.881c-.066.372-.187.705-.362.998a2.72 2.72 0 0 1-.653.749c-.26.204-.553.359-.877.466s-.666.159-1.033.159c-.62 0-1.172-.151-1.655-.454s-.863-.734-1.14-1.293-.416-1.221-.416-1.988.139-1.43.416-1.989.657-.99 1.14-1.293 1.035-.454 1.655-.454c.367 0 .711.053 1.033.16a2.85 2.85 0 0 1 .877.468c.26.206.478.453.653.746a2.91 2.91 0 0 1 .362.998zm3.525 5.114c-.492 0-.924-.118-1.296-.352s-.658-.562-.866-.984-.309-.913-.309-1.477.103-1.064.309-1.488a2.38 2.38 0 0 1 .866-.987c.372-.234.804-.352 1.296-.352s.923.118 1.293.352a2.35 2.35 0 0 1 .866.987c.205.424.313.92.313 1.488s-.104 1.056-.312 1.477a2.35 2.35 0 0 1-.866.984c-.369.234-.8.352-1.293.352zm0-.753c.374 0 .682-.096.923-.288s.42-.444.536-.756a2.9 2.9 0 0 0 .174-1.016c0-.364-.058-.704-.174-1.019s-.295-.569-.536-.764-.549-.291-.923-.291-.682.097-.923.291a1.72 1.72 0 0 0-.536.764c-.116.315-.174.655-.174 1.019a2.9 2.9 0 0 0 .174 1.016 1.7 1.7 0 0 0 .536.756c.241.192.549.288.923.288zm4.589-2.642v3.281h-.838v-5.455h.81v.853h.071a1.56 1.56 0 0 1 .582-.668c.26-.17.597-.256 1.009-.256.369 0 .692.076.969.228s.492.376.646.682.231.686.231 1.15v3.466h-.838v-3.409c0-.429-.111-.762-.334-1.002s-.528-.362-.916-.362a1.46 1.46 0 0 0-.717.174 1.25 1.25 0 0 0-.494.508c-.121.223-.181.493-.181.81zm7.441-2.174v.711h-2.94v-.711h2.94zm-2.06 5.455v-6.207c0-.313.073-.573.22-.782s.337-.364.572-.468.482-.157.742-.157c.206 0 .374.017.504.05s.227.064.291.092l-.241.725-.178-.053a1.05 1.05 0 0 0-.291-.032c-.277 0-.477.069-.6.209s-.181.345-.181.614v6.009h-.838zm3.234 0v-5.455h.838v5.455h-.838zm.426-6.364c-.163 0-.304-.055-.423-.167s-.174-.245-.174-.401.058-.29.174-.401.259-.167.423-.167.303.056.419.167a.53.53 0 0 1 .178.401.53.53 0 0 1-.178.401.58.58 0 0 1-.419.167zm4.149 8.523c-.405 0-.753-.052-1.044-.156a2.22 2.22 0 0 1-.728-.405c-.192-.166-.344-.343-.458-.533l.668-.468.288.341c.116.13.275.242.476.337s.47.145.799.145c.44 0 .804-.106 1.09-.319s.43-.547.43-1.002v-1.108h-.071a4.47 4.47 0 0 1-.263.37 1.5 1.5 0 0 1-.483.387c-.208.111-.49.167-.845.167a2.27 2.27 0 0 1-1.186-.313c-.348-.208-.624-.511-.827-.909s-.302-.881-.302-1.449c0-.558.098-1.045.295-1.459s.47-.739.82-.966.755-.345 1.215-.345c.355 0 .637.06.845.178s.372.249.483.398l.263.362h.085v-.867h.81v5.611c0 .469-.107.85-.32 1.144a1.85 1.85 0 0 1-.852.65 3.23 3.23 0 0 1-1.186.209zm-.028-2.997c.336 0 .62-.077.852-.231s.408-.375.529-.664.181-.634.181-1.037c0-.393-.059-.74-.178-1.04s-.294-.537-.526-.707-.518-.256-.859-.256c-.355 0-.651.09-.888.27s-.411.422-.529.725a2.8 2.8 0 0 0-.174 1.008c0 .379.059.714.178 1.005a1.54 1.54 0 0 0 .533.682c.237.163.53.245.881.245zm7.358-1.392v-3.225h.838v5.455h-.838v-.923h-.057c-.128.277-.327.512-.597.706s-.611.288-1.023.288c-.341 0-.644-.075-.909-.224s-.474-.378-.625-.682-.227-.69-.227-1.154v-3.466h.838v3.41c0 .397.111.715.334.951s.511.355.859.355c.208 0 .42-.053.636-.159a1.39 1.39 0 0 0 .547-.49c.149-.221.224-.501.224-.842zm2.373 2.23v-5.455h.81v.824h.057c.099-.27.279-.489.54-.657a1.59 1.59 0 0 1 .881-.252l.231.004.209.01v.853a2.43 2.43 0 0 0-.195-.032c-.1-.017-.205-.025-.316-.025-.265 0-.502.056-.71.167a1.26 1.26 0 0 0-.49.454 1.23 1.23 0 0 0-.177.657v3.452h-.838zm5.842.114c-.526 0-.979-.116-1.36-.348a2.34 2.34 0 0 1-.877-.98c-.204-.422-.305-.912-.305-1.471s.102-1.051.305-1.477a2.41 2.41 0 0 1 .859-1.001c.369-.242.8-.363 1.293-.363.284 0 .565.048.842.142a2.09 2.09 0 0 1 .756.462 2.21 2.21 0 0 1 .543.838c.135.348.202.777.202 1.286v.355h-4.204v-.725h3.352c0-.307-.062-.582-.185-.823s-.294-.433-.519-.572-.485-.21-.788-.21c-.334 0-.623.083-.866.249a1.63 1.63 0 0 0-.558.639 1.88 1.88 0 0 0-.195.845v.483c0 .412.071.761.213 1.048s.345.5.6.65.553.22.891.22a1.8 1.8 0 0 0 .597-.093c.18-.063.335-.158.465-.284s.231-.286.302-.475l.81.227c-.085.274-.228.516-.43.724s-.45.367-.746.483-.629.171-.998.171zM192.881 456.5v-7.273h2.457c.568 0 1.035.097 1.399.291s.635.456.81.792.263.719.263 1.147-.088.809-.263 1.14-.444.592-.806.782-.825.28-1.389.28h-1.988v-.795h1.96c.388 0 .701-.057.937-.171s.412-.274.519-.483.163-.461.163-.753-.054-.545-.163-.763a1.11 1.11 0 0 0-.522-.504c-.239-.121-.555-.181-.948-.181h-1.549v6.491h-.88zm3.423-3.267l1.79 3.267h-1.023l-1.761-3.267h.994zm6.95-2.188c-.042-.359-.215-.639-.518-.838s-.675-.298-1.115-.298a2.12 2.12 0 0 0-.845.156 1.36 1.36 0 0 0-.561.43c-.133.182-.199.389-.199.621 0 .195.046.362.138.501s.216.252.363.345a2.39 2.39 0 0 0 .461.223l.444.139.739.199c.189.049.4.118.632.206a2.92 2.92 0 0 1 .671.358 1.84 1.84 0 0 1 .533.576c.139.234.209.522.209.863 0 .393-.103.748-.309 1.065s-.502.569-.895.756-.865.281-1.424.281c-.521 0-.972-.084-1.353-.252s-.677-.403-.895-.703-.337-.65-.365-1.048h.909c.023.275.116.502.277.682s.369.31.618.398.52.127.809.127c.336 0 .638-.054.906-.163s.479-.265.635-.462a1.09 1.09 0 0 0 .235-.696c0-.241-.068-.438-.203-.589a1.46 1.46 0 0 0-.532-.369c-.22-.095-.458-.178-.714-.249l-.895-.256c-.568-.163-1.018-.396-1.349-.699s-.497-.7-.497-1.19c0-.407.11-.762.33-1.065s.521-.542.895-.71a3.05 3.05 0 0 1 1.26-.256c.464 0 .886.084 1.25.252s.654.393.867.682.329.617.341.983h-.853zm2.102 3.964v-.725l3.196-5.057h.525v1.122h-.355l-2.414 3.821v.057h4.304v.782h-5.256zm3.423 1.491v-1.712-.337-5.224h.838v7.273h-.838zm5.493.099c-.488 0-.919-.086-1.293-.259a2.12 2.12 0 0 1-.87-.721c-.208-.307-.311-.658-.309-1.051-.002-.308.058-.592.181-.852a1.88 1.88 0 0 1 .505-.657c.213-.175.455-.29.72-.337v-.043c-.348-.09-.625-.285-.83-.586a1.78 1.78 0 0 1-.306-1.033c-.002-.37.091-.7.281-.991a1.97 1.97 0 0 1 .781-.689c.334-.168.714-.252 1.14-.252s.798.084 1.129.252a1.97 1.97 0 0 1 .781.689c.192.291.289.621.292.991a1.8 1.8 0 0 1-.317 1.033c-.205.301-.479.496-.82.586v.043c.263.047.5.159.71.337s.379.394.505.657a1.97 1.97 0 0 1 .191.852 1.83 1.83 0 0 1-.319 1.051 2.12 2.12 0 0 1-.87.721c-.37.173-.797.259-1.282.259zm0-.781c.329 0 .613-.053.852-.16a1.26 1.26 0 0 0 .554-.451c.13-.194.197-.421.199-.681a1.3 1.3 0 0 0-.213-.728c-.14-.211-.33-.377-.572-.498s-.512-.181-.82-.181a1.86 1.86 0 0 0-.831.181c-.242.121-.432.287-.572.498s-.205.453-.202.728c-.003.26.06.487.188.681s.316.345.557.451.528.16.86.16zm0-3.452c.26 0 .491-.052.692-.156s.364-.25.48-.437a1.24 1.24 0 0 0 .177-.657c-.002-.246-.06-.46-.174-.642a1.12 1.12 0 0 0-.472-.426c-.201-.102-.436-.153-.703-.153s-.51.051-.714.153a1.09 1.09 0 0 0-.472.426 1.18 1.18 0 0 0-.164.642c-.002.251.054.47.167.657s.276.333.48.437.438.156.703.156zm6.105 4.233c-.417 0-.792-.082-1.126-.248s-.601-.393-.802-.682a1.86 1.86 0 0 1-.33-.987h.852a1.17 1.17 0 0 0 .447.817c.268.213.587.319.959.319a1.52 1.52 0 0 0 .796-.209c.234-.14.417-.332.55-.576a1.72 1.72 0 0 0 .202-.834c0-.317-.069-.6-.209-.849a1.54 1.54 0 0 0-.568-.593 1.61 1.61 0 0 0-.828-.22c-.222-.002-.451.032-.685.103s-.427.157-.579.266l-.824-.099.441-3.58h3.778v.782h-3.04l-.255 2.144h.042c.149-.118.336-.216.561-.294s.46-.118.703-.118c.445 0 .842.107 1.19.32a2.24 2.24 0 0 1 .824.867c.201.367.302.786.302 1.257 0 .464-.104.878-.313 1.243a2.29 2.29 0 0 1-.852.859c-.362.208-.774.312-1.236.312z" class="E"/><path d="M23 464.25h211" class="D F"/><path d="M53.761 448.227v7.273h-.881v-7.273h.881zm2.49 3.992v3.281h-.838v-5.455h.81v.853h.071a1.56 1.56 0 0 1 .582-.668c.26-.17.597-.256 1.008-.256.369 0 .692.076.969.228s.492.376.646.682.231.686.231 1.15v3.466h-.838v-3.409c0-.429-.111-.762-.334-1.002s-.528-.362-.916-.362a1.46 1.46 0 0 0-.717.174 1.25 1.25 0 0 0-.494.508c-.121.223-.181.493-.181.81zm5.011 5.326v-7.5h.81v.867h.099l.256-.362a1.5 1.5 0 0 1 .476-.398c.208-.118.49-.178.845-.178a2.16 2.16 0 0 1 1.214.345c.35.23.624.555.82.976s.295.919.295 1.492-.098 1.078-.295 1.502-.469.748-.817.98-.749.345-1.204.345c-.35 0-.631-.058-.842-.174a1.52 1.52 0 0 1-.486-.402l-.263-.376h-.071v2.883h-.838zm.824-4.772c0 .412.06.775.181 1.09a1.65 1.65 0 0 0 .529.735c.232.175.516.263.852.263.35 0 .643-.093.877-.277s.414-.438.533-.753.181-.67.181-1.058a2.87 2.87 0 0 0-.177-1.037 1.6 1.6 0 0 0-.529-.735c-.237-.18-.529-.274-.884-.274-.341 0-.627.087-.859.26a1.55 1.55 0 0 0-.526.717c-.118.305-.178.662-.178 1.069zm8.707.497v-3.225h.838v5.455h-.838v-.923h-.057c-.128.277-.327.512-.597.706s-.611.288-1.023.288c-.341 0-.644-.075-.909-.224s-.474-.378-.625-.682-.227-.69-.227-1.154v-3.466h.838v3.41c0 .397.111.715.334.951s.511.355.859.355c.208 0 .42-.053.636-.159a1.39 1.39 0 0 0 .547-.49c.149-.221.224-.501.224-.842zm4.745-3.225v.711h-2.827v-.711h2.827zm-2.003-1.306h.838v5.199c0 .236.034.414.103.532a.52.52 0 0 0 .27.235c.109.041.228.056.352.056a1.42 1.42 0 0 0 .227-.014l.142-.028.17.753c-.057.021-.136.042-.238.064s-.231.035-.387.035a1.68 1.68 0 0 1-.696-.153 1.38 1.38 0 0 1-.561-.465c-.147-.208-.22-.471-.22-.788v-5.426zM52.881 482.5v-7.273h2.457c.568 0 1.035.097 1.399.291a1.86 1.86 0 0 1 .81.792c.175.337.263.719.263 1.147a2.4 2.4 0 0 1-.263 1.14c-.175.332-.444.592-.806.782s-.825.28-1.389.28h-1.989v-.795h1.96c.388 0 .701-.057.938-.171a1.07 1.07 0 0 0 .518-.483c.109-.21.163-.461.163-.753s-.054-.545-.163-.763a1.11 1.11 0 0 0-.522-.504c-.239-.121-.555-.181-.948-.181h-1.548v6.491h-.881zm3.423-3.267l1.79 3.267h-1.023l-1.761-3.267h.994zm5.088 3.381c-.526 0-.979-.116-1.36-.348a2.34 2.34 0 0 1-.877-.98c-.204-.422-.305-.912-.305-1.471s.102-1.051.305-1.477a2.41 2.41 0 0 1 .859-1.001c.369-.242.8-.363 1.293-.363.284 0 .565.048.842.142s.529.249.756.462a2.23 2.23 0 0 1 .543.838c.135.348.202.777.202 1.286v.355h-4.205v-.725h3.352c0-.307-.061-.582-.185-.823s-.294-.433-.519-.572-.485-.21-.788-.21c-.334 0-.623.083-.866.249a1.63 1.63 0 0 0-.558.639 1.88 1.88 0 0 0-.195.845v.483c0 .412.071.761.213 1.048s.345.5.6.65.553.22.891.22c.22 0 .419-.031.597-.093a1.26 1.26 0 0 0 .465-.284c.13-.127.231-.286.302-.475l.81.227c-.085.274-.228.516-.43.724s-.45.367-.746.483-.628.171-.998.171zm5.735 2.045c-.405 0-.753-.052-1.044-.156s-.534-.237-.728-.405-.344-.343-.458-.533l.668-.468.288.341c.116.13.275.242.476.337s.47.145.799.145c.44 0 .804-.106 1.09-.319s.43-.547.43-1.002v-1.108h-.071a4.42 4.42 0 0 1-.263.37 1.5 1.5 0 0 1-.483.387c-.208.111-.49.167-.845.167a2.27 2.27 0 0 1-1.186-.313c-.348-.208-.624-.511-.827-.909s-.302-.881-.302-1.449c0-.558.098-1.045.295-1.459s.47-.739.82-.966.755-.345 1.215-.345c.355 0 .637.06.845.178s.372.249.483.398l.263.362h.085v-.867h.81v5.611c0 .469-.106.85-.32 1.144s-.495.512-.852.65a3.23 3.23 0 0 1-1.186.209zm-.028-2.997c.336 0 .62-.077.852-.231s.408-.375.529-.664.181-.634.181-1.037c0-.393-.059-.74-.177-1.04s-.294-.537-.526-.707-.518-.256-.859-.256c-.355 0-.651.09-.888.27s-.411.422-.529.725a2.8 2.8 0 0 0-.174 1.008 2.65 2.65 0 0 0 .178 1.005 1.54 1.54 0 0 0 .533.682c.237.163.53.245.881.245zm3.921.838v-5.455h.838v5.455h-.838zm.426-6.364c-.163 0-.304-.055-.423-.167s-.174-.245-.174-.401.058-.29.174-.401.259-.167.423-.167.303.056.419.167a.53.53 0 0 1 .178.401.53.53 0 0 1-.178.401.58.58 0 0 1-.419.167zm5.811 2.131l-.753.213c-.047-.125-.117-.247-.209-.366a1.02 1.02 0 0 0-.369-.298c-.156-.078-.356-.117-.6-.117-.334 0-.612.077-.835.231s-.33.344-.33.579c0 .208.076.372.227.493s.388.221.71.302l.81.199c.488.118.851.299 1.09.543s.359.553.359.934a1.38 1.38 0 0 1-.27.838c-.177.246-.426.441-.746.583s-.691.213-1.115.213c-.556 0-1.017-.121-1.381-.363s-.595-.594-.692-1.058l.795-.199c.076.294.219.514.43.661s.491.22.835.22c.391 0 .701-.083.93-.249s.348-.369.348-.603a.63.63 0 0 0-.199-.476c-.133-.128-.336-.227-.611-.291l-.909-.213c-.5-.119-.867-.302-1.101-.551s-.348-.564-.348-.941a1.35 1.35 0 0 1 .259-.817 1.77 1.77 0 0 1 .714-.557c.303-.135.646-.203 1.03-.203.54 0 .964.119 1.271.356a1.91 1.91 0 0 1 .66.937zm3.733-1.222v.711h-2.827v-.711h2.827zm-2.003-1.306h.838v5.199c0 .236.034.414.103.532a.52.52 0 0 0 .27.235c.109.041.228.056.352.056a1.42 1.42 0 0 0 .227-.014l.142-.028.17.753c-.057.021-.136.042-.238.064s-.231.035-.387.035a1.68 1.68 0 0 1-.696-.153 1.38 1.38 0 0 1-.561-.465c-.147-.208-.22-.471-.22-.788v-5.426zm5.492 6.875c-.526 0-.979-.116-1.36-.348a2.34 2.34 0 0 1-.877-.98c-.204-.422-.305-.912-.305-1.471s.102-1.051.305-1.477a2.41 2.41 0 0 1 .859-1.001c.369-.242.8-.363 1.293-.363.284 0 .565.048.842.142a2.09 2.09 0 0 1 .756.462 2.21 2.21 0 0 1 .543.838c.135.348.202.777.202 1.286v.355h-4.204v-.725h3.352c0-.307-.062-.582-.185-.823s-.294-.433-.519-.572-.485-.21-.788-.21c-.334 0-.623.083-.867.249a1.63 1.63 0 0 0-.558.639 1.88 1.88 0 0 0-.195.845v.483c0 .412.071.761.213 1.048a1.51 1.51 0 0 0 .6.65c.256.15.553.22.891.22a1.8 1.8 0 0 0 .597-.093c.18-.063.335-.158.465-.284s.231-.286.302-.475l.81.227c-.085.274-.228.516-.43.724s-.45.367-.746.483-.629.171-.998.171zm3.533-.114v-5.455h.81v.824h.057c.099-.27.279-.489.54-.657a1.59 1.59 0 0 1 .881-.252l.231.004.21.01v.853c-.029-.007-.094-.018-.195-.032s-.205-.025-.316-.025c-.265 0-.502.056-.71.167a1.26 1.26 0 0 0-.49.454 1.23 1.23 0 0 0-.177.657v3.452h-.838zm7.584-4.233l-.753.213a1.42 1.42 0 0 0-.209-.366c-.09-.12-.213-.22-.369-.298s-.356-.117-.6-.117c-.334 0-.612.077-.835.231s-.33.344-.33.579c0 .208.076.372.227.493s.388.221.71.302l.81.199c.488.118.851.299 1.09.543s.359.553.359.934c0 .313-.09.592-.27.838s-.426.441-.746.583-.691.213-1.115.213c-.556 0-1.017-.121-1.381-.363s-.595-.594-.693-1.058l.796-.199c.076.294.219.514.43.661s.491.22.835.22c.391 0 .701-.083.93-.249s.348-.369.348-.603a.63.63 0 0 0-.199-.476c-.133-.128-.336-.227-.611-.291l-.909-.213c-.499-.119-.866-.302-1.101-.551s-.348-.564-.348-.941a1.35 1.35 0 0 1 .259-.817 1.77 1.77 0 0 1 .714-.557c.303-.135.646-.203 1.03-.203.54 0 .963.119 1.271.356a1.91 1.91 0 0 1 .66.937zm6.233 4.332c-.479 0-.89-.087-1.236-.262s-.612-.416-.799-.721-.281-.655-.281-1.048c0-.303.064-.572.192-.806s.309-.456.536-.657a8.18 8.18 0 0 1 .792-.611l1.051-.781a2.09 2.09 0 0 0 .494-.433c.125-.154.188-.355.188-.604 0-.185-.082-.363-.245-.536a.83.83 0 0 0-.636-.259.86.86 0 0 0-.49.142 1.01 1.01 0 0 0-.33.355c-.078.142-.117.289-.117.44 0 .171.046.343.138.519a3.92 3.92 0 0 0 .359.532l.455.554 3.338 4.077h-1.009l-2.755-3.324-.696-.838c-.209-.251-.375-.498-.498-.742s-.184-.508-.184-.792c0-.327.072-.613.216-.859s.352-.442.615-.579.575-.21.93-.21c.365 0 .678.071.941.213s.465.326.607.558.213.479.213.749c0 .348-.086.65-.259.906s-.408.493-.706.713l-1.449 1.08c-.327.241-.548.476-.664.703s-.174.391-.174.49c0 .227.059.439.177.636a1.32 1.32 0 0 0 .501.476c.216.121.467.181.756.181.275 0 .542-.058.803-.174s.496-.289.706-.512.382-.49.505-.802a2.82 2.82 0 0 0 .188-1.055h.81c0 .483-.056.877-.167 1.183s-.237.544-.377.717l-.337.387-.078.107-.078.106c-.235.263-.531.459-.888.59a3.05 3.05 0 0 1-1.058.191zm7.561-.099h-.923l2.67-7.273h.909l2.671 7.273h-.924l-2.173-6.122h-.057l-2.173 6.122zm.341-2.841h3.721v.781h-3.721v-.781zm8.064 2.955c-.454 0-.855-.115-1.203-.345s-.621-.559-.817-.98-.295-.924-.295-1.502c0-.573.098-1.07.295-1.492s.47-.746.82-.976.755-.345 1.215-.345c.355 0 .635.06.841.178s.367.249.476.398l.259.362h.071v-2.685h.838v7.273h-.809v-.838h-.1a5.34 5.34 0 0 1-.262.376c-.114.149-.276.283-.487.402s-.491.174-.842.174zm.114-.753c.336 0 .62-.088.852-.263s.409-.423.529-.735.182-.678.182-1.09-.06-.764-.178-1.069-.294-.547-.526-.717-.518-.26-.859-.26c-.355 0-.651.091-.888.274s-.41.425-.529.735-.174.653-.174 1.037.059.741.178 1.058.298.566.532.753.531.277.881.277zm6.097.753c-.454 0-.855-.115-1.203-.345s-.621-.559-.817-.98-.295-.924-.295-1.502c0-.573.098-1.07.295-1.492s.47-.746.82-.976.755-.345 1.215-.345c.355 0 .635.06.841.178s.367.249.476.398l.259.362h.071v-2.685h.838v7.273h-.809v-.838h-.1a5.34 5.34 0 0 1-.262.376c-.114.149-.276.283-.487.402s-.491.174-.842.174zm.114-.753c.336 0 .62-.088.852-.263s.409-.423.529-.735.182-.678.182-1.09-.06-.764-.178-1.069-.294-.547-.526-.717-.518-.26-.859-.26c-.355 0-.651.091-.888.274s-.411.425-.529.735-.174.653-.174 1.037.059.741.178 1.058.298.566.532.753.531.277.881.277zm4.038.639v-5.455h.809v.824h.057c.1-.27.28-.489.54-.657a1.59 1.59 0 0 1 .881-.252l.23.004.21.01v.853c-.028-.007-.094-.018-.195-.032s-.205-.025-.316-.025a1.49 1.49 0 0 0-.711.167 1.26 1.26 0 0 0-.49.454 1.23 1.23 0 0 0-.177.657v3.452h-.838zm5.841.114c-.525 0-.979-.116-1.36-.348s-.671-.561-.877-.98-.305-.912-.305-1.471.101-1.051.305-1.477a2.41 2.41 0 0 1 .859-1.001c.37-.242.801-.363 1.293-.363.284 0 .565.048.842.142s.529.249.756.462a2.23 2.23 0 0 1 .543.838c.135.348.203.777.203 1.286v.355h-4.205v-.725h3.353c0-.307-.062-.582-.185-.823s-.294-.433-.519-.572-.485-.21-.788-.21c-.334 0-.623.083-.866.249a1.64 1.64 0 0 0-.558.639 1.88 1.88 0 0 0-.195.845v.483c0 .412.071.761.213 1.048a1.51 1.51 0 0 0 .6.65c.256.15.553.22.891.22.22 0 .419-.031.597-.093s.335-.158.465-.284.231-.286.302-.475l.81.227c-.086.274-.229.516-.43.724s-.45.367-.746.483-.628.171-.998.171zm7.397-4.347l-.753.213c-.047-.125-.117-.247-.209-.366a1.05 1.05 0 0 0-.369-.298c-.156-.078-.357-.117-.601-.117-.333 0-.611.077-.834.231s-.33.344-.33.579c0 .208.075.372.227.493s.388.221.71.302l.81.199c.488.118.851.299 1.09.543s.359.553.359.934c0 .313-.09.592-.27.838s-.426.441-.746.583-.691.213-1.115.213c-.556 0-1.017-.121-1.381-.363s-.596-.594-.693-1.058l.796-.199c.075.294.219.514.429.661s.492.22.835.22c.39 0 .701-.083.93-.249s.348-.369.348-.603a.63.63 0 0 0-.199-.476c-.132-.13-.336-.227-.61-.291l-.909-.213c-.5-.119-.867-.302-1.101-.551s-.348-.564-.348-.941c0-.308.086-.58.259-.817s.413-.422.714-.557.646-.203 1.029-.203c.54 0 .964.119 1.272.356a1.91 1.91 0 0 1 .66.937zm5.225 0l-.753.213c-.047-.125-.117-.247-.209-.366s-.214-.22-.37-.298-.356-.117-.6-.117c-.334 0-.612.077-.834.231s-.331.344-.331.579c0 .208.076.372.228.493s.388.221.71.302l.809.199c.488.118.852.299 1.091.543s.358.553.358.934c0 .313-.09.592-.27.838a1.79 1.79 0 0 1-.745.583c-.32.142-.692.213-1.115.213-.557 0-1.017-.121-1.382-.363s-.595-.594-.692-1.058l.795-.199c.076.294.219.514.43.661s.491.22.834.22c.391 0 .701-.083.931-.249s.348-.369.348-.603a.63.63 0 0 0-.199-.476c-.133-.13-.336-.227-.611-.291l-.909-.213c-.499-.119-.866-.302-1.101-.551s-.348-.564-.348-.941c0-.308.087-.58.259-.817a1.78 1.78 0 0 1 .714-.557c.303-.135.647-.203 1.03-.203.54 0 .964.119 1.271.356s.531.549.661.937z" class="G"/><use href="#M" y="192" class="E"/><g clip-path="url(#G)" class="B"><path d="M38.708 472.885v-.927a.46.46 0 0 0-.458-.458.46.46 0 0 0-.458.458v.504a2.35 2.35 0 0 0-.458-.045h-.458v-.459a.46.46 0 0 0-.458-.458.46.46 0 0 0-.458.458v.459h-.917v-.459a.46.46 0 0 0-.458-.458.46.46 0 0 0-.458.458v.459h-.458a2.35 2.35 0 0 0-.458.045v-.504a.46.46 0 0 0-.458-.458.46.46 0 0 0-.458.458v.917.01a2.28 2.28 0 0 0-.917 1.823v5.5c.001.608.242 1.19.672 1.62s1.012.671 1.62.672h3.667c.608-.001 1.19-.242 1.62-.672s.671-1.012.672-1.62v-5.5a2.28 2.28 0 0 0-.917-1.823zm0 7.323c0 .365-.145.715-.403.973a1.38 1.38 0 0 1-.972.402h-3.667a1.38 1.38 0 0 1-.972-.402c-.258-.258-.403-.608-.403-.973v-5.5c0-.364.145-.714.403-.972s.608-.403.972-.403h3.667c.365 0 .714.145.972.403s.403.608.403.972v5.5zm-.917-5.041a.46.46 0 0 1-.458.458h-3.667a.46.46 0 0 1-.458-.458c0-.122.048-.238.134-.324a.46.46 0 0 1 .324-.135h3.667a.46.46 0 0 1 .324.135c.086.086.134.202.134.324zm0 1.833c0 .122-.048.238-.134.324a.46.46 0 0 1-.324.134h-3.667a.46.46 0 0 1-.324-.134c-.086-.086-.134-.202-.134-.324s.048-.238.134-.324a.46.46 0 0 1 .324-.134h3.667a.46.46 0 0 1 .324.134c.086.086.134.202.134.324zm-1.833 1.833c0 .122-.048.238-.134.324a.46.46 0 0 1-.324.135h-1.833a.46.46 0 0 1-.324-.135c-.086-.086-.134-.202-.134-.324a.46.46 0 0 1 .458-.458H35.5a.46.46 0 0 1 .458.458z"/></g><g clip-path="url(#H)" class="B"><path d="M33.917 455.75h-.833c-.69 0-1.25-.504-1.25-1.125v-5.25c0-.621.56-1.125 1.25-1.125h.833c.23 0 .417-.168.417-.375s-.187-.375-.417-.375h-.833c-1.15.001-2.082.84-2.083 1.875v5.25c.001 1.035.933 1.874 2.083 1.875h.833c.23 0 .417-.168.417-.375s-.187-.375-.417-.375zm6.666-4.125l-6.574.012c.037-.061.082-.118.136-.168l1.616-1.454c.166-.144.17-.381.01-.53a.45.45 0 0 0-.589-.01l-1.627 1.464c-.651.586-.651 1.535 0 2.121l1.616 1.455a.45.45 0 0 0 .589.009.35.35 0 0 0 .01-.53l-1.626-1.464a.76.76 0 0 1-.121-.143l6.56-.012c.23 0 .417-.168.417-.375s-.186-.375-.417-.375z"/></g><g clip-path="url(#I)" class="B"><path d="M41 285.771c-.001-.309-.072-.614-.207-.892s-.332-.521-.575-.712c.336-.265.581-.628.7-1.039a2.05 2.05 0 0 0-.786-2.251 2.05 2.05 0 0 0-1.194-.377h-6.875a2.05 2.05 0 0 0-1.948 1.377 2.05 2.05 0 0 0-.033 1.251c.12.411.364.774.7 1.039a2.03 2.03 0 0 0-.576.712c-.136.277-.206.583-.206.892s.07.614.206.892a2.03 2.03 0 0 0 .576.712c-.336.265-.581.628-.7 1.038s-.108.848.033 1.252.404.753.754 1a2.05 2.05 0 0 0 1.194.377h6.875a2.05 2.05 0 0 0 1.194-.377c.349-.247.613-.596.754-1s.152-.841.033-1.252-.364-.773-.7-1.038a2.05 2.05 0 0 0 .575-.713c.135-.277.206-.582.207-.891zm-10.083-3.208a1.15 1.15 0 0 1 .336-.811c.215-.215.506-.335.81-.335h.229v.458c0 .122.048.238.134.324a.46.46 0 0 0 .648 0c.086-.086.134-.202.134-.324v-.458h.917v.458c0 .122.048.238.134.324s.203.134.324.134a.46.46 0 0 0 .324-.134c.086-.086.134-.202.134-.324v-.458h3.896c.304 0 .595.12.81.335a1.15 1.15 0 0 1 .336.811c0 .303-.121.595-.336.81s-.506.335-.81.335h-6.875c-.304 0-.595-.12-.81-.335s-.336-.507-.336-.81zm9.167 6.416c0 .304-.121.596-.336.81s-.506.336-.81.336h-6.875c-.304 0-.595-.121-.81-.336s-.336-.506-.336-.81.121-.595.336-.81.506-.336.81-.336h.229v.459a.46.46 0 0 0 .458.458.46.46 0 0 0 .458-.458v-.459h.917v.459a.46.46 0 0 0 .134.324c.086.086.203.134.324.134a.46.46 0 0 0 .458-.458v-.459h3.896c.304 0 .595.121.81.336s.336.506.336.81zm-8.021-2.062c-.304 0-.595-.121-.81-.336s-.336-.506-.336-.81.121-.595.336-.81.506-.336.81-.336h.229v.458c0 .122.048.238.134.324a.46.46 0 0 0 .324.135.46.46 0 0 0 .324-.135c.086-.086.134-.202.134-.324v-.458h.917v.458c0 .122.048.238.134.324a.46.46 0 0 0 .324.135.46.46 0 0 0 .324-.135c.086-.086.134-.202.134-.324v-.458h3.896c.304 0 .595.121.81.336s.336.506.336.81-.121.595-.336.81-.506.336-.81.336h-6.875z"/></g><path d="M38.967 353.99a.5.5 0 0 0-.401-.201h-2.085l.552-2.459a.5.5 0 0 0-.172-.497c-.042-.034-1.037-.834-2.23-.834-1.22 0-2.21.801-2.251.835-.084.068-.142.161-.168.266l-1.263 5.09a.5.5 0 0 0 .486.62h2.011l-.432 3.631c-.02.167.041.339.175.441.201.155.418.111.465.097 3.738-1.118 5.327-6.327 5.393-6.548a.5.5 0 0 0-.079-.441zm-4.861 5.729l.399-3.35a.5.5 0 0 0-.497-.559h-1.935l1.066-4.293c.25-.169.843-.518 1.493-.518.546 0 1.061.26 1.352.44l-.615 2.739a.5.5 0 0 0 .488.61h2.002c-.474 1.224-1.695 3.86-3.753 4.931z" class="B"/><path d="M373.394 346.456c-.407-.548-1.053-.871-1.737-.871h-9.035l2.392-10.653a2.17 2.17 0 0 0-.746-2.156c-.182-.147-4.491-3.612-9.663-3.612-5.289 0-9.577 3.469-9.757 3.616-.361.295-.615.7-.728 1.153l-5.473 22.057a2.17 2.17 0 0 0 .397 1.856c.409.525 1.04.832 1.707.832h8.717l-1.874 15.733c-.087.723.179 1.469.758 1.913a2.36 2.36 0 0 0 2.015.418c16.2-4.843 23.084-27.415 23.37-28.373a2.17 2.17 0 0 0-.343-1.913zm-21.064 24.826l1.729-14.517a2.16 2.16 0 0 0-2.154-2.422h-8.387l4.617-18.601c1.084-.732 3.655-2.245 6.47-2.245 2.366 0 4.598 1.127 5.861 1.907l-2.665 11.869c-.145.641.011 1.315.422 1.829a2.17 2.17 0 0 0 1.692.812h8.678c-2.052 5.304-7.347 16.729-16.263 21.368z" fill="#949494"/><g clip-path="url(#J)" class="B"><path d="M37.198 384.762c-.197-.368-.578-.595-.994-.595h-1.742l.927-3.667h-1.522l-3.702 5.581a1.12 1.12 0 0 0-.052 1.151 1.14 1.14 0 0 0 1.004.601h1.73l-.927 3.667h1.522l3.702-5.581c.23-.347.251-.791.054-1.157zm-.818.65l-3.192 4.813.837-3.308h-2.908a.22.22 0 0 1-.197-.119c-.022-.041-.05-.123.008-.21l3.192-4.813-.837 3.308h2.92c.11 0 .164.07.187.112.018.034.053.122-.01.217zm3.703 6.088H41l-1.293-4.466c-.17-.344-.529-.57-.936-.576a1.05 1.05 0 0 0-.916.576l-1.291 4.466h.98l.259-.917h2.008l.271.917h.001zm-2.02-1.833l.638-2.258a.14.14 0 0 1 .072-.033c.048.005.083.025.102.049l.006.016.659 2.226h-1.478z"/></g><circle cx="356.204" cy="353" r="49.25" transform="rotate(90 356.204 353)" stroke="url(#D)" stroke-width="1.5"/><defs><filter id="A" x="11" y="16.5" width="228" height="64" filterUnits="userSpaceOnUse" color-interpolation-filters="sRGB"><feFlood flood-opacity="0" result="A"/><feColorMatrix in="SourceAlpha" values="0 0 0 0 0 0 0 0 0 0 0 0 0 0 0 0 0 0 127 0" result="B"/><feMorphology radius="1" operator="dilate" in="SourceAlpha"/><feOffset dy="1"/><feGaussianBlur stdDeviation="2.5"/><feComposite in2="B" operator="out"/><feColorMatrix values="0 0 0 0 0 0 0 0 0 0 0 0 0 0 0 0 0 0 0.1 0"/><feBlend in2="A"/><feBlend in="SourceGraphic"/></filter><linearGradient id="B" x1="128" y1="0" x2="128" y2="533" gradientUnits="userSpaceOnUse"><stop stop-color="#2f67ff"/><stop offset="1" stop-color="#ff5f9b"/></linearGradient><linearGradient id="C" x1="249.563" y1="354.697" x2="306.204" y2="354.697" gradientUnits="userSpaceOnUse"><stop stop-color="#2f67ff"/><stop offset="1" stop-color="#c262b8"/></linearGradient><linearGradient id="D" x1="356.204" y1="303" x2="356.204" y2="403" gradientUnits="userSpaceOnUse"><stop stop-color="#2f67ff"/><stop offset="1" stop-color="#ff5f9b"/></linearGradient><clipPath id="E"><path transform="translate(30 127.5)" d="M0 0h10v10H0z" class="C"/></clipPath><clipPath id="F"><path transform="translate(30 181.5)" d="M0 0h11v11H0z" class="C"/></clipPath><clipPath id="G"><path transform="translate(30 471.5)" d="M0 0h11v11H0z" class="C"/></clipPath><clipPath id="H"><path transform="translate(31 447.5)" d="M0 0h10v9H0z" class="C"/></clipPath><clipPath id="I"><path transform="translate(30 280.5)" d="M0 0h11v11H0z" class="C"/></clipPath><clipPath id="J"><path transform="translate(30 380.5)" d="M0 0h11v11H0z" class="C"/></clipPath><path id="K" d="M37.372 62.025v.823"/><path id="L" d="M213.933 258l-.532-.5 3.135-2.925-3.135-2.925.532-.5 3.665 3.425-3.665 3.425z"/><path id="M" d="M213.933 289.719l-.532-.532 3.135-3.108-3.135-3.107.532-.532 3.665 3.639-3.665 3.64z"/></defs></svg>