<svg width="900" height="900" viewBox="0 0 900 900" fill="none" xmlns="http://www.w3.org/2000/svg">
<rect width="900" height="900" rx="51" fill="white"/>
<path d="M287.134 160.148H308.141C310.157 160.148 311.791 161.777 311.791 163.786V175.713H283.484V163.786C283.484 161.777 285.119 160.148 287.134 160.148Z" stroke="black"/>
<path d="M411.609 160.148H432.616C434.631 160.148 436.266 161.777 436.266 163.786V175.713H407.959V163.786C407.959 161.777 409.594 160.148 411.609 160.148Z" stroke="black"/>
<path d="M695.31 160.148H716.317C718.332 160.148 719.967 161.777 719.967 163.786V175.713H691.66V163.786C691.66 161.777 693.295 160.148 695.31 160.148Z" stroke="black"/>
<path d="M244.553 176.963H473.65C482.901 176.963 490.4 184.462 490.4 193.713V574.292C490.4 582.438 483.797 589.042 475.65 589.042H243.553C234.854 589.042 227.803 581.99 227.803 573.292V193.713C227.803 184.462 235.302 176.963 244.553 176.963Z" stroke="#888888" stroke-width="2.5"/>
<path d="M671.23 176.963H740.512C743.135 176.963 745.262 179.09 745.262 181.713V567.509C745.262 569.58 743.583 571.259 741.512 571.259H668.48V179.713C668.48 178.194 669.712 176.963 671.23 176.963Z" stroke="#888888" stroke-width="2.5"/>
<path d="M317.12 540.5L310.135 554.133H304.48L311.759 540.496L317.12 540.5Z" fill="#3C3B3B"/>
<path d="M307.337 540.5L300.351 554.133H294.697L301.976 540.496L307.337 540.5Z" fill="#3C3B3B"/>
<path d="M297.555 540.5L290.57 554.133H284.916L292.194 540.496L297.555 540.5Z" fill="#3C3B3B"/>
<path d="M325.631 554.534V540.496H328.2L333.914 550.403H332.553L338.171 540.496H340.721L340.76 554.534H337.845L337.826 545.168H338.363L333.876 553.05H332.476L327.893 545.168H328.545V554.534H325.631ZM342.18 554.534L348.162 540.496H351.23L357.232 554.534H353.972L349.064 542.14H350.291L345.363 554.534H342.18ZM345.171 551.526L345.996 549.059H352.899L353.742 551.526H345.171ZM364.861 554.775C363.825 554.775 362.86 554.601 361.965 554.253C361.083 553.892 360.316 553.384 359.664 552.729C359.013 552.074 358.501 551.305 358.131 550.423C357.772 549.54 357.594 548.571 357.594 547.515C357.594 546.459 357.772 545.489 358.131 544.607C358.501 543.724 359.013 542.956 359.664 542.3C360.329 541.645 361.103 541.144 361.985 540.796C362.867 540.435 363.831 540.255 364.88 540.255C366.043 540.255 367.091 540.469 368.025 540.897C368.97 541.311 369.763 541.926 370.402 542.742L368.408 544.667C367.948 544.119 367.436 543.711 366.874 543.444C366.311 543.163 365.698 543.022 365.033 543.022C364.407 543.022 363.831 543.129 363.308 543.343C362.783 543.557 362.33 543.865 361.946 544.266C361.563 544.667 361.262 545.142 361.045 545.69C360.84 546.238 360.738 546.846 360.738 547.515C360.738 548.183 360.84 548.792 361.045 549.34C361.262 549.888 361.563 550.363 361.946 550.764C362.33 551.165 362.783 551.472 363.308 551.686C363.831 551.9 364.407 552.007 365.033 552.007C365.698 552.007 366.311 551.873 366.874 551.606C367.436 551.325 367.948 550.904 368.408 550.343L370.402 552.268C369.763 553.083 368.97 553.705 368.025 554.133C367.091 554.561 366.037 554.775 364.861 554.775ZM372.499 554.534V540.496H375.069L382.988 550.603H381.742V540.496H384.81V554.534H382.259L374.321 544.426H375.567V554.534H372.499ZM386.221 554.534L392.204 540.496H395.272L401.273 554.534H398.013L393.105 542.14H394.332L389.404 554.534H386.221ZM389.212 551.526L390.037 549.059H396.94L397.783 551.526H389.212ZM402.666 554.534V540.496H405.235L410.949 550.403H409.588L415.206 540.496H417.756L417.795 554.534H414.88L414.861 545.168H415.398L410.911 553.05H409.511L404.929 545.168H405.581V554.534H402.666ZM420.979 554.534V540.496H423.548L431.468 550.603H430.221V540.496H433.289V554.534H430.739L422.8 544.426H424.047V554.534H420.979Z" fill="#3C3B3B"/>
<path d="M68.8349 426.999L97.9258 426.999L97.9258 432.269L73.9627 432.269L73.9627 432.439L78.3093 439.243L73.4798 439.243L68.8349 432.013L68.8349 426.999ZM97.9258 419.613L94.119 419.613L84.2184 409.513C83.243 408.547 82.3765 407.742 81.619 407.098C80.8614 406.454 80.1275 405.971 79.4173 405.649C78.707 405.327 77.9495 405.167 77.1445 405.167C76.226 405.167 75.44 405.375 74.7866 405.792C74.1237 406.208 73.6123 406.781 73.2525 407.51C72.8926 408.239 72.7127 409.068 72.7127 409.996C72.7127 410.952 72.9116 411.791 73.3093 412.51C73.6976 413.23 74.2515 413.789 74.9712 414.186C75.6909 414.575 76.5479 414.769 77.5423 414.769L77.5423 419.783C75.6957 419.783 74.0906 419.362 72.7269 418.519C71.3633 417.676 70.3074 416.516 69.5593 415.039C68.8112 413.552 68.4371 411.847 68.4371 409.925C68.4371 407.974 68.8017 406.26 69.5309 404.783C70.2601 403.306 71.2591 402.16 72.5281 401.345C73.797 400.522 75.2459 400.11 76.8746 400.11C77.9637 400.11 79.0337 400.318 80.0849 400.735C81.136 401.151 82.3008 401.885 83.5792 402.936C84.8576 403.978 86.4059 405.441 88.2241 407.326L93.3235 412.34L93.5224 412.34L93.5224 399.669L97.9258 399.669L97.9258 419.613ZM98.4798 384.016C98.4798 386.355 97.8879 388.363 96.7042 390.039C95.511 391.705 93.7923 392.988 91.5479 393.888C89.2941 394.778 86.5811 395.223 83.4087 395.223C80.2364 395.214 77.5375 394.764 75.3121 393.874C73.0773 392.974 71.3727 391.691 70.1985 390.024C69.0243 388.348 68.4371 386.345 68.4371 384.016C68.4371 381.686 69.0243 379.684 70.1985 378.007C71.3727 376.331 73.0773 375.048 75.3121 374.158C77.547 373.258 80.2459 372.809 83.4087 372.809C86.5905 372.809 89.3084 373.258 91.5621 374.158C93.8065 375.048 95.5205 376.331 96.7042 378.007C97.8879 379.674 98.4798 381.677 98.4798 384.016ZM94.0337 384.016C94.0337 382.198 93.1388 380.763 91.3491 379.712C89.5498 378.651 86.903 378.121 83.4087 378.121C81.0981 378.121 79.1568 378.363 77.5849 378.845C76.0129 379.328 74.8292 380.01 74.0337 380.891C73.2288 381.772 72.8263 382.813 72.8263 384.016C72.8263 385.825 73.726 387.255 75.5252 388.306C77.315 389.357 79.9428 389.887 83.4087 389.897C85.7288 389.906 87.6796 389.674 89.261 389.201C90.8424 388.718 92.0356 388.036 92.8406 387.155C93.636 386.274 94.0337 385.228 94.0337 384.016ZM97.9258 358.11L76.1076 358.11L76.1076 353.196L79.815 353.196L79.815 352.94C78.565 352.485 77.5896 351.733 76.8888 350.681C76.1786 349.63 75.8235 348.376 75.8235 346.917C75.8235 345.44 76.1834 344.195 76.903 343.181C77.6133 342.159 78.5839 341.439 79.815 341.022L79.815 340.795C78.6029 340.312 77.6369 339.498 76.9173 338.352C76.1881 337.197 75.8235 335.828 75.8235 334.247C75.8235 332.239 76.458 330.601 77.7269 329.332C78.9959 328.063 80.8472 327.429 83.2809 327.429L97.9258 327.429L97.9258 332.585L84.0763 332.585C82.7222 332.585 81.7326 332.945 81.1076 333.664C80.4731 334.384 80.1559 335.265 80.1559 336.306C80.1559 337.547 80.5441 338.518 81.3207 339.218C82.0877 339.91 83.0868 340.255 84.3178 340.255L97.9258 340.255L97.9258 345.298L83.8633 345.298C82.7364 345.298 81.8368 345.639 81.1644 346.321C80.4921 346.993 80.1559 347.874 80.1559 348.963C80.1559 349.701 80.3453 350.374 80.7241 350.98C81.0934 351.586 81.619 352.069 82.3008 352.429C82.9731 352.788 83.7591 352.968 84.6587 352.968L97.9258 352.968L97.9258 358.11ZM97.9258 322.212L76.1076 322.212L76.1076 317.297L79.815 317.297L79.815 317.042C78.565 316.587 77.5896 315.834 76.8888 314.783C76.1786 313.732 75.8235 312.477 75.8235 311.019C75.8235 309.542 76.1834 308.296 76.903 307.283C77.6133 306.26 78.5839 305.541 79.815 305.124L79.815 304.897C78.6029 304.414 77.6369 303.599 76.9173 302.453C76.1881 301.298 75.8235 299.93 75.8235 298.348C75.8235 296.341 76.458 294.702 77.7269 293.434C78.9958 292.165 80.8472 291.53 83.2809 291.53L97.9258 291.53L97.9258 296.686L84.0763 296.686C82.7222 296.686 81.7326 297.046 81.1076 297.766C80.4731 298.486 80.1559 299.366 80.1559 300.408C80.1559 301.649 80.5441 302.619 81.3207 303.32C82.0877 304.011 83.0868 304.357 84.3178 304.357L97.9258 304.357L97.9258 309.399L83.8633 309.399C82.7364 309.399 81.8368 309.74 81.1644 310.422C80.4921 311.095 80.1559 311.975 80.1559 313.064C80.1559 313.803 80.3453 314.475 80.7241 315.081C81.0934 315.687 81.619 316.17 82.3008 316.53C82.9731 316.89 83.7591 317.07 84.6587 317.07L97.9258 317.07L97.9258 322.212Z" fill="#3C3B3B"/>
<path d="M312.565 703.18L324.937 678.691L324.937 678.492L310.576 678.492L310.576 674.089L330.391 674.089L330.391 678.592L318.033 703.18L312.565 703.18ZM344.699 703.577C342.805 703.577 341.11 703.222 339.614 702.512C338.117 701.792 336.929 700.808 336.048 699.558C335.177 698.308 334.713 696.878 334.656 695.268L339.77 695.268C339.865 696.461 340.381 697.436 341.318 698.194C342.256 698.942 343.383 699.316 344.699 699.316C345.731 699.316 346.65 699.079 347.455 698.606C348.259 698.132 348.894 697.474 349.358 696.631C349.822 695.789 350.049 694.827 350.04 693.748C350.049 692.649 349.817 691.674 349.344 690.822C348.87 689.969 348.222 689.302 347.398 688.819C346.574 688.326 345.627 688.08 344.557 688.08C343.686 688.071 342.829 688.232 341.986 688.563C341.143 688.895 340.475 689.33 339.983 689.87L335.224 689.089L336.744 674.089L353.619 674.089L353.619 678.492L341.105 678.492L340.267 686.205L340.437 686.205C340.977 685.571 341.74 685.045 342.724 684.629C343.709 684.202 344.789 683.989 345.963 683.989C347.724 683.989 349.296 684.406 350.679 685.239C352.062 686.063 353.151 687.2 353.946 688.648C354.741 690.097 355.139 691.755 355.139 693.62C355.139 695.542 354.694 697.256 353.804 698.762C352.923 700.258 351.697 701.437 350.125 702.299C348.562 703.151 346.754 703.577 344.699 703.577ZM369.876 703.18L369.876 681.362L374.791 681.362L374.791 685.069L375.047 685.069C375.501 683.819 376.254 682.844 377.305 682.143C378.357 681.433 379.611 681.077 381.07 681.077C382.547 681.077 383.792 681.437 384.805 682.157C385.828 682.867 386.548 683.838 386.964 685.069L387.192 685.069C387.675 683.857 388.489 682.891 389.635 682.171C390.79 681.442 392.159 681.077 393.74 681.077C395.748 681.077 397.386 681.712 398.655 682.981C399.924 684.25 400.558 686.101 400.558 688.535L400.558 703.18L395.402 703.18L395.402 689.33C395.402 687.976 395.042 686.987 394.322 686.362C393.603 685.727 392.722 685.41 391.68 685.41C390.44 685.41 389.469 685.798 388.768 686.575C388.077 687.342 387.732 688.341 387.732 689.572L387.732 703.18L382.689 703.18L382.689 689.117C382.689 687.99 382.348 687.091 381.666 686.418C380.994 685.746 380.113 685.41 379.024 685.41C378.286 685.41 377.613 685.599 377.007 685.978C376.401 686.347 375.918 686.873 375.558 687.555C375.198 688.227 375.018 689.013 375.018 689.913L375.018 703.18L369.876 703.18ZM405.775 703.18L405.775 681.362L410.69 681.362L410.69 685.069L410.945 685.069C411.4 683.819 412.153 682.844 413.204 682.143C414.255 681.433 415.51 681.077 416.968 681.077C418.445 681.077 419.691 681.437 420.704 682.157C421.727 682.867 422.446 683.838 422.863 685.069L423.09 685.069C423.573 683.857 424.388 682.891 425.533 682.171C426.689 681.442 428.057 681.077 429.638 681.077C431.646 681.077 433.284 681.712 434.553 682.981C435.822 684.25 436.457 686.101 436.457 688.535L436.457 703.18L431.3 703.18L431.3 689.33C431.3 687.976 430.941 686.987 430.221 686.362C429.501 685.727 428.62 685.41 427.579 685.41C426.338 685.41 425.368 685.798 424.667 686.575C423.976 687.342 423.63 688.341 423.63 689.572L423.63 703.18L418.587 703.18L418.587 689.117C418.587 687.99 418.246 687.091 417.565 686.418C416.892 685.746 416.012 685.41 414.923 685.41C414.184 685.41 413.512 685.599 412.906 685.978C412.299 686.347 411.817 686.873 411.457 687.555C411.097 688.227 410.917 689.013 410.917 689.913L410.917 703.18L405.775 703.18Z" fill="#3C3B3B"/>
<path d="M657.507 774.393L657.507 770.586L667.607 760.685C668.572 759.71 669.377 758.843 670.021 758.086C670.665 757.328 671.148 756.594 671.47 755.884C671.792 755.174 671.953 754.416 671.953 753.611C671.953 752.693 671.745 751.907 671.328 751.253C670.911 750.591 670.339 750.079 669.609 749.719C668.88 749.359 668.052 749.18 667.124 749.18C666.167 749.18 665.329 749.378 664.609 749.776C663.89 750.164 663.331 750.718 662.933 751.438C662.545 752.158 662.351 753.015 662.351 754.009L657.337 754.009C657.337 752.162 657.758 750.557 658.601 749.194C659.444 747.83 660.604 746.774 662.081 746.026C663.568 745.278 665.272 744.904 667.195 744.904C669.145 744.904 670.859 745.269 672.337 745.998C673.814 746.727 674.96 747.726 675.774 748.995C676.598 750.264 677.01 751.713 677.01 753.341C677.01 754.43 676.802 755.501 676.385 756.552C675.968 757.603 675.234 758.768 674.183 760.046C673.142 761.324 671.678 762.873 669.794 764.691L664.78 769.79L664.78 769.989L677.45 769.989L677.45 774.393L657.507 774.393ZM694.183 745.302L694.183 774.393L688.913 774.393L688.913 750.43L688.743 750.43L681.939 754.776L681.939 749.947L689.169 745.302L694.183 745.302ZM711.548 774.393L711.548 752.574L716.463 752.574L716.463 756.282L716.719 756.282C717.173 755.032 717.926 754.056 718.977 753.356C720.028 752.645 721.283 752.29 722.741 752.29C724.219 752.29 725.464 752.65 726.477 753.37C727.5 754.08 728.22 755.051 728.636 756.282L728.864 756.282C729.347 755.07 730.161 754.104 731.307 753.384C732.462 752.655 733.83 752.29 735.412 752.29C737.42 752.29 739.058 752.925 740.327 754.194C741.596 755.463 742.23 757.314 742.23 759.748L742.23 774.393L737.074 774.393L737.074 760.543C737.074 759.189 736.714 758.199 735.994 757.574C735.275 756.94 734.394 756.623 733.352 756.623C732.112 756.623 731.141 757.011 730.44 757.787C729.749 758.555 729.403 759.554 729.403 760.785L729.403 774.393L724.361 774.393L724.361 760.33C724.361 759.203 724.02 758.304 723.338 757.631C722.666 756.959 721.785 756.623 720.696 756.623C719.957 756.623 719.285 756.812 718.679 757.191C718.073 757.56 717.59 758.086 717.23 758.768C716.87 759.44 716.69 760.226 716.69 761.126L716.69 774.393L711.548 774.393ZM747.447 774.393L747.447 752.574L752.362 752.574L752.362 756.282L752.617 756.282C753.072 755.032 753.825 754.056 754.876 753.356C755.927 752.645 757.182 752.29 758.64 752.29C760.117 752.29 761.362 752.65 762.376 753.37C763.398 754.08 764.118 755.051 764.535 756.282L764.762 756.282C765.245 755.07 766.059 754.104 767.205 753.384C768.361 752.655 769.729 752.29 771.31 752.29C773.318 752.29 774.956 752.925 776.225 754.194C777.494 755.463 778.129 757.314 778.129 759.748L778.129 774.393L772.972 774.393L772.972 760.543C772.972 759.189 772.612 758.199 771.893 757.574C771.173 756.94 770.292 756.623 769.251 756.623C768.01 756.623 767.04 757.011 766.339 757.787C765.647 758.555 765.302 759.554 765.302 760.785L765.302 774.393L760.259 774.393L760.259 760.33C760.259 759.203 759.918 758.304 759.237 757.631C758.564 756.959 757.683 756.623 756.594 756.623C755.856 756.623 755.183 756.812 754.577 757.191C753.971 757.56 753.488 758.086 753.129 758.768C752.769 759.44 752.589 760.226 752.589 761.126L752.589 774.393L747.447 774.393Z" fill="#3C3B3B"/>
<line x1="182.336" y1="572.809" x2="55.0183" y2="572.809" stroke="#3C3B3B" stroke-width="0.6"/>
<line x1="491.95" y1="611.896" x2="491.95" y2="739.213" stroke="#3C3B3B" stroke-width="0.6"/>
<line x1="746.812" y1="590.292" x2="746.812" y2="717.61" stroke="#3C3B3B" stroke-width="0.6"/>
<line x1="667.53" y1="590.292" x2="667.53" y2="717.61" stroke="#3C3B3B" stroke-width="0.6"/>
<line x1="182.336" y1="176.013" x2="55.0183" y2="176.013" stroke="#3C3B3B" stroke-width="0.6"/>
<line x1="226.853" y1="611.896" x2="226.853" y2="739.213" stroke="#3C3B3B" stroke-width="0.6"/>
<line x1="84.073" y1="572.509" x2="84.0731" y2="467.731" stroke="#3C3B3B" stroke-width="0.6"/>
<line x1="491.65" y1="688.555" x2="468.639" y2="688.555" stroke="#3C3B3B" stroke-width="0.6"/>
<line x1="746.512" y1="688.555" x2="667.23" y2="688.555" stroke="#3C3B3B" stroke-width="0.6"/>
<line x1="84.073" y1="263.503" x2="84.0731" y2="175.712" stroke="#3C3B3B" stroke-width="0.6"/>
<line x1="279.811" y1="688.555" x2="226.553" y2="688.555" stroke="#3C3B3B" stroke-width="0.6"/>
</svg>
