<svg width="529" height="529" viewBox="0 0 529 529" fill="none" xmlns="http://www.w3.org/2000/svg">
<rect width="528.405" height="528.405" rx="51" fill="white"/>
<rect x="122.82" y="203.063" width="107.464" height="185.952" rx="8.6" stroke="black" stroke-width="0.8"/>
<path d="M148.395 403.763H161.749C164.842 403.762 167.349 401.256 167.349 398.163V388.919H142.795V398.163C142.795 401.256 145.302 403.763 148.395 403.763Z" stroke="black" stroke-width="0.8"/>
<path d="M210.72 202.982V197.351H193.699V202.982H210.72Z" stroke="black" stroke-width="0.8"/>
<path d="M211.968 192.004V197.431H192.457V192.004H211.968Z" stroke="black" stroke-width="0.8"/>
<path d="M211.968 185.877V192.139H192.457V185.877H211.968Z" stroke="black" stroke-width="0.8"/>
<path d="M195.533 41.9805H208.488C208.82 41.9805 209.089 42.2487 209.089 42.5801V46.8408C209.089 47.1722 208.82 47.4414 208.488 47.4414H195.533C195.202 47.4414 194.934 47.1722 194.934 46.8408V42.5801C194.934 42.2487 195.202 41.9805 195.533 41.9805Z" stroke="black" stroke-width="0.8"/>
<path d="M207.491 47.3789V185.97H196.535V47.3789H207.491Z" stroke="black" stroke-width="0.8"/>
<path d="M172.641 334.221L182.652 339.586L182.652 343.929L172.637 338.338L172.641 334.221Z" fill="#303031"/>
<path d="M172.641 341.731L182.652 347.097L182.652 351.439L172.637 345.849L172.641 341.731Z" fill="#303031"/>
<path d="M172.641 349.247L182.652 354.612L182.652 358.955L172.637 353.365L172.641 349.247Z" fill="#303031"/>
<path d="M180.748 329.282L171.648 329.282L171.648 327.54L178.07 323.666L178.07 324.589L171.648 320.78L171.648 319.051L180.748 319.025L180.748 321.001L174.677 321.014L174.677 320.65L179.786 323.692L179.786 324.641L174.677 327.748L174.677 327.306L180.748 327.306L180.748 329.282ZM180.748 318.062L171.648 314.006L171.648 311.926L180.748 307.857L180.748 310.067L172.714 313.395L172.714 312.563L180.748 315.904L180.748 318.062ZM178.798 316.034L177.199 315.475L177.199 310.795L178.798 310.223L178.798 316.034ZM180.904 302.685C180.904 303.387 180.791 304.041 180.566 304.648C180.332 305.246 180.003 305.766 179.578 306.208C179.153 306.65 178.655 306.997 178.083 307.248C177.511 307.491 176.883 307.612 176.198 307.612C175.513 307.612 174.885 307.491 174.313 307.248C173.741 306.997 173.243 306.65 172.818 306.208C172.393 305.757 172.068 305.233 171.843 304.635C171.609 304.037 171.492 303.383 171.492 302.672C171.492 301.883 171.631 301.173 171.908 300.54C172.177 299.899 172.575 299.361 173.104 298.928L174.352 300.28C173.997 300.592 173.732 300.939 173.559 301.32C173.377 301.701 173.286 302.117 173.286 302.568C173.286 302.993 173.355 303.383 173.494 303.738C173.633 304.093 173.832 304.401 174.092 304.661C174.352 304.921 174.66 305.125 175.015 305.272C175.37 305.411 175.765 305.48 176.198 305.48C176.631 305.48 177.026 305.411 177.381 305.272C177.736 305.125 178.044 304.921 178.304 304.661C178.564 304.401 178.763 304.093 178.902 303.738C179.041 303.383 179.11 302.993 179.11 302.568C179.11 302.117 179.023 301.701 178.85 301.32C178.668 300.939 178.395 300.592 178.031 300.28L179.279 298.928C179.808 299.361 180.211 299.899 180.488 300.54C180.765 301.173 180.904 301.888 180.904 302.685ZM180.748 297.506L171.648 297.506L171.648 295.764L178.2 290.395L178.2 291.24L171.648 291.24L171.648 289.16L180.748 289.16L180.748 290.889L174.196 296.271L174.196 295.426L180.748 295.426L180.748 297.506ZM180.748 287.007L171.648 287.007L171.648 285.265L178.07 281.391L178.07 282.314L171.648 278.505L171.648 276.776L180.748 276.75L180.748 278.726L174.677 278.739L174.677 278.375L179.786 281.417L179.786 282.366L174.677 285.473L174.677 285.031L180.748 285.031L180.748 287.007ZM180.748 275.787L171.648 271.731L171.648 269.651L180.748 265.582L180.748 267.792L172.714 271.12L172.714 270.288L180.748 273.629L180.748 275.787ZM178.798 273.759L177.199 273.2L177.199 268.52L178.798 267.948L178.798 273.759ZM180.748 264.638L171.648 264.638L171.648 262.896L178.2 257.527L178.2 258.372L171.648 258.372L171.648 256.292L180.748 256.292L180.748 258.021L174.196 263.403L174.196 262.558L180.748 262.558L180.748 264.638Z" fill="url(#paint0_linear_37_946)"/>
<rect x="350.414" y="203.063" width="57.5254" height="185.952" rx="5.6" stroke="black" stroke-width="0.8"/>
<rect x="-0.4" y="0.4" width="15.1141" height="138.742" transform="matrix(-1 0 0 1 350.104 229.374)" stroke="black" stroke-width="0.8"/>
<path d="M386.666 403.763H392.084C395.177 403.763 397.684 401.256 397.684 398.163V388.919H381.066V398.163C381.066 401.256 383.573 403.763 386.666 403.763Z" stroke="black" stroke-width="0.8"/>
<path d="M388.376 202.982V197.351H371.355V202.982H388.376Z" stroke="black" stroke-width="0.8"/>
<path d="M389.624 192.004V197.431H370.113V192.004H389.624Z" stroke="black" stroke-width="0.8"/>
<path d="M389.624 185.877V192.139H370.113V185.877H389.624Z" stroke="black" stroke-width="0.8"/>
<path d="M373.189 41.9805H386.145C386.476 41.9805 386.745 42.2487 386.745 42.5801V46.8408C386.745 47.1722 386.476 47.4414 386.145 47.4414H373.189C372.858 47.4414 372.59 47.1722 372.59 46.8408V42.5801C372.59 42.2487 372.858 41.9805 373.189 41.9805Z" stroke="black" stroke-width="0.8"/>
<path d="M385.147 47.3789V185.97H374.191V47.3789H385.147Z" stroke="black" stroke-width="0.8"/>
<path d="M247.225 280.772L248.557 280.772L252.022 284.307C252.364 284.645 252.667 284.927 252.932 285.152C253.197 285.377 253.454 285.546 253.703 285.659C253.951 285.772 254.216 285.828 254.498 285.828C254.82 285.828 255.095 285.755 255.323 285.609C255.555 285.464 255.734 285.263 255.86 285.008C255.986 284.753 256.049 284.463 256.049 284.138C256.049 283.803 255.98 283.51 255.84 283.258C255.704 283.006 255.511 282.81 255.259 282.671C255.007 282.535 254.707 282.467 254.359 282.467L254.359 280.712C255.005 280.712 255.567 280.86 256.044 281.155C256.521 281.45 256.891 281.856 257.153 282.373C257.415 282.893 257.546 283.49 257.546 284.163C257.546 284.845 257.418 285.445 257.163 285.962C256.908 286.479 256.558 286.88 256.114 287.165C255.67 287.454 255.163 287.598 254.593 287.598C254.211 287.598 253.837 287.525 253.469 287.379C253.101 287.233 252.693 286.977 252.246 286.609C251.798 286.244 251.257 285.732 250.62 285.072L248.835 283.317L248.766 283.317L248.766 287.752L247.225 287.752L247.225 280.772ZM247.225 289.467L248.557 289.467L252.022 293.002C252.364 293.34 252.667 293.622 252.932 293.847C253.197 294.073 253.454 294.242 253.703 294.354C253.951 294.467 254.216 294.523 254.498 294.523C254.82 294.523 255.095 294.451 255.323 294.305C255.555 294.159 255.734 293.958 255.86 293.703C255.986 293.448 256.049 293.158 256.049 292.833C256.049 292.498 255.98 292.205 255.84 291.953C255.704 291.701 255.511 291.506 255.259 291.366C255.007 291.231 254.707 291.163 254.359 291.163L254.359 289.408C255.005 289.408 255.567 289.555 256.044 289.85C256.521 290.145 256.891 290.551 257.153 291.068C257.415 291.589 257.546 292.185 257.546 292.858C257.546 293.541 257.418 294.141 257.163 294.658C256.908 295.175 256.558 295.576 256.114 295.861C255.67 296.149 255.163 296.293 254.593 296.293C254.211 296.293 253.837 296.22 253.469 296.075C253.101 295.929 252.693 295.672 252.246 295.304C251.798 294.939 251.257 294.427 250.62 293.768L248.835 292.013L248.766 292.013L248.766 296.447L247.225 296.447L247.225 289.467ZM247.031 301.926C247.031 301.107 247.238 300.405 247.652 299.818C248.07 299.235 248.671 298.786 249.457 298.471C250.246 298.159 251.195 298.004 252.306 298.004C253.416 298.007 254.36 298.164 255.139 298.476C255.922 298.791 256.518 299.24 256.929 299.823C257.34 300.41 257.546 301.111 257.546 301.926C257.546 302.741 257.34 303.442 256.929 304.029C256.518 304.616 255.922 305.065 255.139 305.376C254.357 305.691 253.413 305.849 252.306 305.849C251.192 305.849 250.241 305.691 249.452 305.376C248.666 305.065 248.066 304.616 247.652 304.029C247.238 303.446 247.031 302.745 247.031 301.926ZM248.587 301.926C248.587 302.562 248.9 303.065 249.526 303.433C250.156 303.804 251.083 303.989 252.306 303.989C253.114 303.989 253.794 303.905 254.344 303.736C254.894 303.567 255.308 303.328 255.587 303.02C255.869 302.712 256.009 302.347 256.009 301.926C256.009 301.293 255.695 300.793 255.065 300.425C254.438 300.057 253.519 299.871 252.306 299.868C251.494 299.865 250.811 299.946 250.257 300.112C249.704 300.281 249.286 300.519 249.004 300.827C248.726 301.136 248.587 301.502 248.587 301.926ZM247.225 310.993L254.861 310.993L254.861 312.713L253.563 312.713L253.563 312.803C254.001 312.962 254.342 313.225 254.588 313.593C254.836 313.961 254.96 314.4 254.96 314.911C254.96 315.428 254.834 315.864 254.583 316.218C254.334 316.576 253.994 316.828 253.563 316.974L253.563 317.053C253.988 317.222 254.326 317.508 254.578 317.909C254.833 318.313 254.96 318.792 254.96 319.345C254.96 320.048 254.738 320.621 254.294 321.066C253.85 321.51 253.202 321.732 252.35 321.732L247.225 321.732L247.225 319.927L252.072 319.927C252.546 319.927 252.892 319.801 253.111 319.549C253.333 319.297 253.444 318.989 253.444 318.624C253.444 318.19 253.308 317.851 253.036 317.605C252.768 317.363 252.418 317.242 251.987 317.242L247.225 317.242L247.225 315.477L252.146 315.477C252.541 315.477 252.856 315.358 253.091 315.119C253.326 314.884 253.444 314.576 253.444 314.195C253.444 313.936 253.378 313.701 253.245 313.489C253.116 313.277 252.932 313.108 252.693 312.982C252.458 312.856 252.183 312.793 251.868 312.793L247.225 312.793L247.225 310.993ZM247.225 323.558L254.861 323.558L254.861 325.278L253.563 325.278L253.563 325.367C254.001 325.526 254.342 325.79 254.588 326.158C254.836 326.526 254.96 326.965 254.96 327.475C254.96 327.992 254.834 328.428 254.583 328.783C254.334 329.141 253.994 329.393 253.563 329.538L253.563 329.618C253.988 329.787 254.326 330.072 254.578 330.473C254.833 330.877 254.96 331.356 254.96 331.91C254.96 332.612 254.738 333.186 254.294 333.63C253.85 334.074 253.202 334.296 252.35 334.296L247.225 334.296L247.225 332.491L252.072 332.491C252.546 332.491 252.892 332.366 253.111 332.114C253.333 331.862 253.444 331.554 253.444 331.189C253.444 330.755 253.308 330.415 253.036 330.17C252.768 329.928 252.418 329.807 251.987 329.807L247.225 329.807L247.225 328.042L252.146 328.042C252.541 328.042 252.856 327.923 253.091 327.684C253.326 327.449 253.444 327.14 253.444 326.759C253.444 326.501 253.378 326.265 253.245 326.053C253.116 325.841 252.932 325.672 252.693 325.546C252.458 325.42 252.183 325.357 251.868 325.357L247.225 325.357L247.225 323.558Z" fill="#3C3B3B"/>
<path d="M151.613 431.715L151.613 441.896L149.768 441.896L149.768 433.509L149.708 433.509L147.327 435.031L147.327 433.34L149.858 431.715L151.613 431.715ZM154.198 441.896L154.198 440.564L157.733 437.099C158.071 436.758 158.352 436.454 158.578 436.189C158.803 435.924 158.972 435.667 159.085 435.419C159.198 435.17 159.254 434.905 159.254 434.623C159.254 434.302 159.181 434.026 159.035 433.798C158.889 433.566 158.689 433.387 158.434 433.261C158.178 433.135 157.888 433.072 157.564 433.072C157.229 433.072 156.935 433.142 156.684 433.281C156.432 433.417 156.236 433.61 156.097 433.862C155.961 434.114 155.893 434.414 155.893 434.762L154.138 434.762C154.138 434.116 154.286 433.554 154.581 433.077C154.876 432.6 155.282 432.23 155.799 431.968C156.319 431.706 156.916 431.575 157.588 431.575C158.271 431.575 158.871 431.703 159.388 431.958C159.905 432.213 160.306 432.563 160.591 433.007C160.88 433.451 161.024 433.959 161.024 434.529C161.024 434.91 160.951 435.284 160.805 435.652C160.659 436.02 160.402 436.428 160.034 436.875C159.67 437.323 159.158 437.865 158.498 438.501L156.743 440.286L156.743 440.355L161.178 440.355L161.178 441.896L154.198 441.896ZM166.657 442.09C165.838 442.09 165.135 441.883 164.549 441.469C163.965 441.051 163.516 440.45 163.201 439.664C162.89 438.875 162.734 437.926 162.734 436.816C162.737 435.705 162.895 434.761 163.206 433.982C163.521 433.2 163.97 432.603 164.554 432.192C165.14 431.781 165.841 431.575 166.657 431.575C167.472 431.575 168.173 431.781 168.76 432.192C169.346 432.603 169.795 433.2 170.107 433.982C170.422 434.764 170.579 435.709 170.579 436.816C170.579 437.929 170.422 438.88 170.107 439.669C169.795 440.455 169.346 441.055 168.76 441.469C168.176 441.883 167.475 442.09 166.657 442.09ZM166.657 440.534C167.293 440.534 167.795 440.221 168.163 439.595C168.534 438.965 168.72 438.039 168.72 436.816C168.72 436.007 168.635 435.327 168.466 434.777C168.297 434.227 168.059 433.813 167.75 433.534C167.442 433.253 167.078 433.112 166.657 433.112C166.024 433.112 165.523 433.427 165.155 434.056C164.787 434.683 164.602 435.602 164.598 436.816C164.595 437.628 164.676 438.31 164.842 438.864C165.011 439.417 165.25 439.835 165.558 440.117C165.866 440.395 166.232 440.534 166.657 440.534ZM175.724 441.896L175.724 434.26L177.444 434.26L177.444 435.558L177.533 435.558C177.692 435.12 177.956 434.779 178.324 434.534C178.692 434.285 179.131 434.161 179.641 434.161C180.158 434.161 180.594 434.287 180.949 434.539C181.307 434.787 181.559 435.127 181.704 435.558L181.784 435.558C181.953 435.133 182.238 434.795 182.639 434.544C183.043 434.288 183.522 434.161 184.076 434.161C184.778 434.161 185.352 434.383 185.796 434.827C186.24 435.271 186.462 435.919 186.462 436.771L186.462 441.896L184.657 441.896L184.657 437.049C184.657 436.575 184.532 436.229 184.28 436.01C184.028 435.788 183.72 435.677 183.355 435.677C182.921 435.677 182.581 435.813 182.336 436.085C182.094 436.353 181.973 436.703 181.973 437.134L181.973 441.896L180.208 441.896L180.208 436.975C180.208 436.58 180.089 436.265 179.85 436.03C179.615 435.795 179.306 435.677 178.925 435.677C178.667 435.677 178.431 435.743 178.219 435.876C178.007 436.005 177.838 436.189 177.712 436.428C177.586 436.663 177.523 436.938 177.523 437.253L177.523 441.896L175.724 441.896ZM188.288 441.896L188.288 434.26L190.008 434.26L190.008 435.558L190.098 435.558C190.257 435.12 190.52 434.779 190.888 434.534C191.256 434.285 191.695 434.161 192.206 434.161C192.723 434.161 193.158 434.287 193.513 434.539C193.871 434.787 194.123 435.127 194.269 435.558L194.348 435.558C194.517 435.133 194.802 434.795 195.203 434.544C195.608 434.288 196.087 434.161 196.64 434.161C197.343 434.161 197.916 434.383 198.36 434.827C198.805 435.271 199.027 435.919 199.027 436.771L199.027 441.896L197.222 441.896L197.222 437.049C197.222 436.575 197.096 436.229 196.844 436.01C196.592 435.788 196.284 435.677 195.919 435.677C195.485 435.677 195.145 435.813 194.9 436.085C194.658 436.353 194.537 436.703 194.537 437.134L194.537 441.896L192.772 441.896L192.772 436.975C192.772 436.58 192.653 436.265 192.414 436.03C192.179 435.795 191.871 435.677 191.49 435.677C191.231 435.677 190.996 435.743 190.784 435.876C190.572 436.005 190.403 436.189 190.277 436.428C190.151 436.663 190.088 436.938 190.088 437.253L190.088 441.896L188.288 441.896Z" fill="#3C3B3B"/>
<path d="M352.334 443.338L356.665 434.767L356.665 434.697L351.638 434.697L351.638 433.156L358.574 433.156L358.574 434.732L354.248 443.338L352.334 443.338ZM363.723 443.532C362.904 443.532 362.202 443.325 361.615 442.91C361.032 442.493 360.583 441.891 360.268 441.106C359.956 440.317 359.8 439.367 359.8 438.257C359.804 437.147 359.961 436.202 360.273 435.423C360.588 434.641 361.037 434.044 361.62 433.633C362.207 433.222 362.908 433.017 363.723 433.017C364.538 433.017 365.239 433.222 365.826 433.633C366.413 434.044 366.862 434.641 367.173 435.423C367.488 436.205 367.646 437.15 367.646 438.257C367.646 439.371 367.488 440.322 367.173 441.111C366.862 441.896 366.413 442.496 365.826 442.91C365.243 443.325 364.542 443.532 363.723 443.532ZM363.723 441.976C364.359 441.976 364.862 441.662 365.229 441.036C365.601 440.406 365.786 439.48 365.786 438.257C365.786 437.448 365.702 436.769 365.533 436.219C365.364 435.668 365.125 435.254 364.817 434.976C364.509 434.694 364.144 434.553 363.723 434.553C363.09 434.553 362.589 434.868 362.222 435.498C361.854 436.124 361.668 437.044 361.665 438.257C361.661 439.069 361.743 439.752 361.908 440.305C362.077 440.859 362.316 441.276 362.624 441.558C362.933 441.836 363.299 441.976 363.723 441.976ZM372.79 443.338L372.79 435.702L374.51 435.702L374.51 436.999L374.6 436.999C374.759 436.562 375.022 436.22 375.39 435.975C375.758 435.726 376.197 435.602 376.708 435.602C377.225 435.602 377.66 435.728 378.015 435.98C378.373 436.229 378.625 436.568 378.771 436.999L378.85 436.999C379.019 436.575 379.304 436.237 379.705 435.985C380.11 435.73 380.589 435.602 381.142 435.602C381.845 435.602 382.418 435.824 382.862 436.268C383.307 436.712 383.529 437.36 383.529 438.212L383.529 443.338L381.724 443.338L381.724 438.491C381.724 438.017 381.598 437.67 381.346 437.452C381.094 437.229 380.786 437.118 380.421 437.118C379.987 437.118 379.647 437.254 379.402 437.526C379.16 437.795 379.039 438.144 379.039 438.575L379.039 443.338L377.274 443.338L377.274 438.416C377.274 438.022 377.155 437.707 376.916 437.471C376.681 437.236 376.373 437.118 375.992 437.118C375.733 437.118 375.498 437.185 375.286 437.317C375.074 437.447 374.905 437.631 374.779 437.869C374.653 438.104 374.59 438.38 374.59 438.694L374.59 443.338L372.79 443.338ZM385.354 443.338L385.354 435.702L387.075 435.702L387.075 436.999L387.164 436.999C387.323 436.562 387.587 436.22 387.955 435.975C388.322 435.726 388.762 435.602 389.272 435.602C389.789 435.602 390.225 435.728 390.58 435.98C390.937 436.229 391.189 436.568 391.335 436.999L391.415 436.999C391.584 436.575 391.869 436.237 392.27 435.985C392.674 435.73 393.153 435.602 393.707 435.602C394.409 435.602 394.983 435.824 395.427 436.268C395.871 436.712 396.093 437.36 396.093 438.212L396.093 443.338L394.288 443.338L394.288 438.491C394.288 438.017 394.162 437.67 393.911 437.452C393.659 437.229 393.35 437.118 392.986 437.118C392.552 437.118 392.212 437.254 391.967 437.526C391.725 437.795 391.604 438.144 391.604 438.575L391.604 443.338L389.839 443.338L389.839 438.416C389.839 438.022 389.719 437.707 389.481 437.471C389.246 437.236 388.937 437.118 388.556 437.118C388.298 437.118 388.062 437.185 387.85 437.317C387.638 437.447 387.469 437.631 387.343 437.869C387.217 438.104 387.154 438.38 387.154 438.694L387.154 443.338L385.354 443.338Z" fill="#3C3B3B"/>
<line x1="262.666" y1="203.683" x2="241.141" y2="203.683" stroke="#D1D1D1" stroke-width="0.6"/>
<line x1="118.802" y1="426.455" x2="118.802" y2="447.98" stroke="#D1D1D1" stroke-width="0.6"/>
<line x1="336.193" y1="427.896" x2="336.193" y2="449.422" stroke="#D1D1D1" stroke-width="0.6"/>
<line x1="262.666" y1="411.549" x2="241.141" y2="411.549" stroke="#D1D1D1" stroke-width="0.6"/>
<line x1="227.066" y1="426.455" x2="227.066" y2="447.98" stroke="#D1D1D1" stroke-width="0.6"/>
<line x1="410.204" y1="427.896" x2="410.204" y2="449.422" stroke="#D1D1D1" stroke-width="0.6"/>
<line x1="251.602" y1="264.951" x2="251.602" y2="203.382" stroke="#D1D1D1" stroke-width="0.6"/>
<line x1="138.477" y1="437.519" x2="118.502" y2="437.519" stroke="#D1D1D1" stroke-width="0.6"/>
<line x1="344.865" y1="438.96" x2="335.893" y2="438.96" stroke="#D1D1D1" stroke-width="0.6"/>
<line x1="251.602" y1="411.249" x2="251.602" y2="346.585" stroke="#D1D1D1" stroke-width="0.6"/>
<line x1="226.766" y1="437.519" x2="206.236" y2="437.519" stroke="#D1D1D1" stroke-width="0.6"/>
<line x1="409.904" y1="438.96" x2="400.496" y2="438.96" stroke="#D1D1D1" stroke-width="0.6"/>
<defs>
<linearGradient id="paint0_linear_37_946" x1="175.451" y1="330.361" x2="175.451" y2="229.375" gradientUnits="userSpaceOnUse">
<stop offset="1" stop-color="#303031"/>
</linearGradient>
</defs>
</svg>
