<svg width="900" height="900" viewBox="0 0 900 900" fill="none" xmlns="http://www.w3.org/2000/svg">
<rect width="900" height="900" rx="51" fill="white"/>
<path d="M215.672 176.963H532.27C553.67 176.963 571.02 194.312 571.02 215.713V373.524H176.922V215.713C176.922 194.312 194.271 176.963 215.672 176.963Z" stroke="#888888" stroke-width="2.5"/>
<path d="M532.271 571.259L215.674 571.259C194.273 571.259 176.924 553.91 176.924 532.509L176.924 373.604L571.022 373.604L571.021 532.509C571.021 553.91 553.673 571.259 532.271 571.259Z" stroke="#888888" stroke-width="2.5"/>
<path d="M671.23 176.963H783.937C786.56 176.963 788.687 179.09 788.687 181.713V567.509C788.687 569.58 787.007 571.259 784.937 571.259H668.48V179.713C668.48 178.194 669.712 176.963 671.23 176.963Z" stroke="#888888" stroke-width="2.5"/>
<g clip-path="url(#clip0_39_1146)">
<path d="M329.84 227.516L322.855 241.149H317.201L324.479 227.512L329.84 227.516Z" fill="#3C3B3B"/>
<path d="M320.057 227.516L313.072 241.149H307.418L314.696 227.512L320.057 227.516Z" fill="#3C3B3B"/>
<path d="M310.276 227.516L303.291 241.149H297.637L304.915 227.512L310.276 227.516Z" fill="#3C3B3B"/>
<path d="M338.352 241.55V227.511H340.921L346.635 237.418H345.274L350.892 227.511H353.442L353.48 241.55H350.566L350.547 232.184H351.083L346.597 240.066H345.197L340.614 232.184H341.266V241.55H338.352ZM354.901 241.55L360.883 227.511H363.951L369.953 241.55H366.693L361.784 229.156H363.012L358.084 241.55H354.901ZM357.892 238.541L358.716 236.075H365.619L366.463 238.541H357.892ZM377.581 241.79C376.546 241.79 375.581 241.617 374.686 241.269C373.804 240.908 373.037 240.4 372.385 239.745C371.733 239.09 371.222 238.321 370.851 237.438C370.493 236.556 370.314 235.587 370.314 234.53C370.314 233.474 370.493 232.505 370.851 231.622C371.222 230.74 371.733 229.971 372.385 229.316C373.05 228.661 373.823 228.16 374.705 227.812C375.587 227.451 376.552 227.271 377.601 227.271C378.764 227.271 379.812 227.484 380.745 227.912C381.691 228.327 382.484 228.942 383.123 229.757L381.129 231.683C380.669 231.134 380.157 230.727 379.595 230.459C379.032 230.178 378.419 230.038 377.754 230.038C377.127 230.038 376.552 230.145 376.028 230.359C375.504 230.573 375.05 230.88 374.667 231.282C374.283 231.683 373.983 232.157 373.766 232.705C373.561 233.254 373.459 233.862 373.459 234.53C373.459 235.199 373.561 235.807 373.766 236.355C373.983 236.904 374.283 237.378 374.667 237.779C375.05 238.18 375.504 238.488 376.028 238.702C376.552 238.916 377.127 239.023 377.754 239.023C378.419 239.023 379.032 238.889 379.595 238.622C380.157 238.341 380.669 237.92 381.129 237.358L383.123 239.283C382.484 240.099 381.691 240.721 380.745 241.149C379.812 241.576 378.757 241.79 377.581 241.79ZM385.22 241.55V227.511H387.79L395.709 237.619H394.462V227.511H397.53V241.55H394.98L387.042 231.442H388.288V241.55H385.22ZM398.942 241.55L404.924 227.511H407.992L413.994 241.55H410.734L405.826 229.156H407.053L402.125 241.55H398.942ZM401.933 238.541L402.758 236.075H409.66L410.504 238.541H401.933ZM415.387 241.55V227.511H417.956L423.67 237.418H422.309L427.927 227.511H430.477L430.515 241.55H427.601L427.582 232.184H428.119L423.632 240.066H422.232L417.649 232.184H418.301V241.55H415.387ZM433.699 241.55V227.511H436.269L444.188 237.619H442.942V227.511H446.01V241.55H443.459L435.521 231.442H436.767V241.55H433.699Z" fill="#3C3B3B"/>
</g>
<path d="M68.4371 418.834C68.4466 417.442 68.6928 416.088 69.1758 414.772C69.6493 413.446 70.4258 412.253 71.5053 411.192C72.5754 410.132 74.0101 409.289 75.8093 408.664C77.6085 408.039 79.8339 407.726 82.4854 407.726C84.9854 407.717 87.2203 407.982 89.19 408.522C91.1502 409.052 92.8074 409.814 94.1616 410.809C95.5157 411.803 96.5479 413.001 97.2582 414.403C97.9684 415.804 98.3235 417.381 98.3235 419.133C98.3235 420.97 97.9637 422.599 97.244 424.019C96.5243 425.43 95.5394 426.571 94.2894 427.442C93.0394 428.314 91.6095 428.849 89.9996 429.047L89.9996 423.863C91.1549 423.598 92.0735 423.058 92.7553 422.243C93.4277 421.42 93.7638 420.383 93.7638 419.133C93.7638 417.116 92.8879 415.563 91.136 414.474C89.3841 413.385 86.9504 412.84 83.8349 412.84L83.8349 413.039C84.6682 413.503 85.3879 414.104 85.994 414.843C86.5906 415.582 87.0498 416.42 87.3718 417.357C87.6938 418.285 87.8548 419.27 87.8548 420.312C87.8548 422.016 87.4476 423.55 86.6332 424.914C85.8188 426.268 84.7013 427.343 83.2809 428.138C81.8604 428.924 80.2364 429.322 78.4087 429.332C76.5148 429.332 74.815 428.896 73.3093 428.025C71.7942 427.144 70.601 425.918 69.7298 424.346C68.8491 422.774 68.4182 420.937 68.4371 418.834ZM72.6985 418.82C72.6985 419.843 72.9495 420.766 73.4513 421.59C73.9438 422.404 74.6161 423.048 75.4684 423.522C76.3112 423.986 77.2534 424.218 78.2951 424.218C79.3273 424.208 80.2648 423.976 81.1076 423.522C81.9504 423.058 82.618 422.428 83.1104 421.633C83.6029 420.828 83.8491 419.909 83.8491 418.877C83.8491 418.11 83.7023 417.395 83.4087 416.732C83.1152 416.069 82.708 415.492 82.1871 414.999C81.6568 414.497 81.0555 414.109 80.3832 413.834C79.7108 413.55 79.0006 413.413 78.2525 413.422C77.2582 413.422 76.3396 413.659 75.4968 414.133C74.654 414.597 73.9769 415.236 73.4656 416.05C72.9542 416.855 72.6985 417.779 72.6985 418.82ZM98.3235 392.343C98.314 393.735 98.0726 395.094 97.5991 396.42C97.1161 397.745 96.3349 398.939 95.2553 399.999C94.1663 401.06 92.7222 401.903 90.9229 402.528C89.1142 403.153 86.8746 403.46 84.2042 403.451C81.7137 403.451 79.493 403.186 77.5423 402.655C75.5915 402.125 73.9438 401.363 72.5991 400.368C71.2449 399.374 70.2127 398.176 69.5025 396.775C68.7923 395.364 68.4371 393.787 68.4371 392.045C68.4371 390.217 68.797 388.598 69.5167 387.187C70.2364 385.766 71.2212 384.62 72.4712 383.749C73.7118 382.878 75.1133 382.338 76.6758 382.13L76.6758 387.314C75.5584 387.58 74.6682 388.124 74.0053 388.948C73.333 389.762 72.9968 390.795 72.9968 392.045C72.9968 394.062 73.8727 395.615 75.6246 396.704C77.3765 397.783 79.7818 398.328 82.8406 398.337L82.8406 398.138C82.0072 397.674 81.2923 397.073 80.6957 396.334C80.0991 395.596 79.6398 394.762 79.3178 393.834C78.9864 392.897 78.8207 391.907 78.8207 390.866C78.8207 389.161 79.2279 387.632 80.0423 386.278C80.8566 384.914 81.9788 383.834 83.4087 383.039C84.8292 382.243 86.458 381.85 88.2951 381.86C90.208 381.85 91.9267 382.286 93.4513 383.167C94.9665 384.047 96.1597 385.274 97.0309 386.846C97.9021 388.418 98.333 390.25 98.3235 392.343ZM94.0621 392.371C94.0621 391.339 93.8112 390.416 93.3093 389.601C92.8074 388.787 92.1303 388.143 91.2781 387.67C90.4258 387.196 89.4693 386.964 88.4087 386.974C87.3671 386.964 86.4248 387.191 85.582 387.655C84.7392 388.11 84.0716 388.74 83.5792 389.545C83.0868 390.35 82.8406 391.268 82.8406 392.3C82.8406 393.067 82.9873 393.782 83.2809 394.445C83.5745 395.108 83.9816 395.686 84.5025 396.178C85.0138 396.671 85.6104 397.059 86.2923 397.343C86.9646 397.618 87.6843 397.76 88.4513 397.769C89.4646 397.76 90.3974 397.523 91.2496 397.059C92.1019 396.595 92.7837 395.956 93.2951 395.141C93.8065 394.327 94.0621 393.404 94.0621 392.371ZM97.9258 367.08L76.1076 367.08L76.1076 362.165L79.815 362.165L79.815 361.91C78.565 361.455 77.5896 360.702 76.8888 359.651C76.1786 358.6 75.8235 357.345 75.8235 355.887C75.8235 354.41 76.1834 353.164 76.903 352.151C77.6133 351.128 78.5839 350.409 79.815 349.992L79.815 349.765C78.6029 349.282 77.637 348.467 76.9173 347.322C76.1881 346.166 75.8235 344.798 75.8235 343.216C75.8235 341.209 76.458 339.571 77.7269 338.302C78.9959 337.033 80.8472 336.398 83.2809 336.398L97.9258 336.398L97.9258 341.555L84.0763 341.555C82.7222 341.555 81.7326 341.914 81.1076 342.634C80.4731 343.354 80.1559 344.234 80.1559 345.276C80.1559 346.517 80.5441 347.487 81.3207 348.188C82.0877 348.879 83.0868 349.225 84.3178 349.225L97.9258 349.225L97.9258 354.268L83.8633 354.268C82.7364 354.268 81.8368 354.609 81.1644 355.29C80.4921 355.963 80.1559 356.843 80.1559 357.932C80.1559 358.671 80.3453 359.343 80.7241 359.949C81.0934 360.555 81.619 361.038 82.3008 361.398C82.9731 361.758 83.7591 361.938 84.6587 361.938L97.9258 361.938L97.9258 367.08ZM97.9258 331.182L76.1076 331.182L76.1076 326.267L79.815 326.267L79.815 326.011C78.565 325.557 77.5896 324.804 76.8888 323.753C76.1786 322.702 75.8235 321.447 75.8235 319.989C75.8235 318.511 76.1834 317.266 76.903 316.253C77.6133 315.23 78.5839 314.51 79.815 314.094L79.815 313.866C78.6029 313.383 77.6369 312.569 76.9173 311.423C76.1881 310.268 75.8235 308.899 75.8235 307.318C75.8235 305.31 76.458 303.672 77.7269 302.403C78.9959 301.134 80.8472 300.5 83.2809 300.5L97.9258 300.5L97.9258 305.656L84.0763 305.656C82.7222 305.656 81.7326 306.016 81.1076 306.736C80.4731 307.455 80.1559 308.336 80.1559 309.378C80.1559 310.618 80.5441 311.589 81.3207 312.29C82.0877 312.981 83.0868 313.327 84.3178 313.327L97.9258 313.327L97.9258 318.369L83.8633 318.369C82.7364 318.369 81.8368 318.71 81.1644 319.392C80.4921 320.064 80.1559 320.945 80.1559 322.034C80.1559 322.773 80.3453 323.445 80.7241 324.051C81.0934 324.657 81.619 325.14 82.3008 325.5C82.9731 325.86 83.7591 326.04 84.6587 326.04L97.9258 326.04L97.9258 331.182Z" fill="#3C3B3B"/>
<path d="M319.86 673.691C321.252 673.701 322.607 673.947 323.923 674.43C325.249 674.903 326.442 675.68 327.502 676.759C328.563 677.829 329.406 679.264 330.031 681.063C330.656 682.862 330.968 685.088 330.968 687.739C330.978 690.239 330.713 692.474 330.173 694.444C329.643 696.404 328.88 698.061 327.886 699.415C326.892 700.77 325.694 701.802 324.292 702.512C322.891 703.222 321.314 703.577 319.562 703.577C317.725 703.577 316.096 703.218 314.676 702.498C313.265 701.778 312.124 700.793 311.252 699.543C310.381 698.293 309.846 696.863 309.647 695.254L314.832 695.254C315.097 696.409 315.637 697.327 316.451 698.009C317.275 698.682 318.312 699.018 319.562 699.018C321.579 699.018 323.132 698.142 324.221 696.39C325.31 694.638 325.855 692.204 325.855 689.089L325.656 689.089C325.192 689.922 324.591 690.642 323.852 691.248C323.113 691.844 322.275 692.304 321.338 692.626C320.41 692.948 319.425 693.109 318.383 693.109C316.679 693.109 315.145 692.701 313.781 691.887C312.427 691.073 311.352 689.955 310.556 688.535C309.77 687.114 309.373 685.49 309.363 683.663C309.363 681.769 309.799 680.069 310.67 678.563C311.551 677.048 312.777 675.855 314.349 674.984C315.921 674.103 317.758 673.672 319.86 673.691ZM319.875 677.952C318.852 677.952 317.929 678.203 317.105 678.705C316.29 679.198 315.646 679.87 315.173 680.722C314.709 681.565 314.477 682.507 314.477 683.549C314.486 684.581 314.718 685.519 315.173 686.362C315.637 687.204 316.267 687.872 317.062 688.364C317.867 688.857 318.786 689.103 319.818 689.103C320.585 689.103 321.3 688.956 321.963 688.663C322.626 688.369 323.203 687.962 323.696 687.441C324.198 686.911 324.586 686.309 324.86 685.637C325.145 684.965 325.282 684.255 325.272 683.506C325.272 682.512 325.036 681.594 324.562 680.751C324.098 679.908 323.459 679.231 322.645 678.719C321.84 678.208 320.916 677.952 319.875 677.952ZM346.352 703.577C344.96 703.568 343.601 703.326 342.275 702.853C340.949 702.37 339.756 701.589 338.696 700.509C337.635 699.42 336.792 697.976 336.167 696.177C335.542 694.368 335.234 692.129 335.244 689.458C335.244 686.968 335.509 684.747 336.039 682.796C336.57 680.845 337.332 679.198 338.326 677.853C339.321 676.499 340.519 675.467 341.92 674.756C343.331 674.046 344.908 673.691 346.65 673.691C348.478 673.691 350.097 674.051 351.508 674.771C352.929 675.49 354.074 676.475 354.946 677.725C355.817 678.966 356.357 680.367 356.565 681.93L351.38 681.93C351.115 680.812 350.571 679.922 349.747 679.259C348.932 678.587 347.9 678.251 346.65 678.251C344.633 678.251 343.08 679.127 341.991 680.879C340.912 682.63 340.367 685.036 340.358 688.094L340.556 688.094C341.02 687.261 341.622 686.546 342.36 685.95C343.099 685.353 343.932 684.894 344.86 684.572C345.798 684.24 346.788 684.075 347.829 684.075C349.534 684.075 351.063 684.482 352.417 685.296C353.781 686.111 354.86 687.233 355.656 688.663C356.451 690.083 356.844 691.712 356.835 693.549C356.844 695.462 356.409 697.181 355.528 698.705C354.647 700.22 353.421 701.414 351.849 702.285C350.277 703.156 348.445 703.587 346.352 703.577ZM346.324 699.316C347.356 699.316 348.279 699.065 349.093 698.563C349.908 698.061 350.552 697.384 351.025 696.532C351.499 695.68 351.731 694.723 351.721 693.663C351.731 692.621 351.503 691.679 351.039 690.836C350.585 689.993 349.955 689.326 349.15 688.833C348.345 688.341 347.427 688.094 346.395 688.094C345.627 688.094 344.913 688.241 344.25 688.535C343.587 688.828 343.009 689.236 342.517 689.756C342.024 690.268 341.636 690.864 341.352 691.546C341.077 692.219 340.935 692.938 340.926 693.705C340.935 694.719 341.172 695.651 341.636 696.504C342.1 697.356 342.739 698.038 343.554 698.549C344.368 699.06 345.291 699.316 346.324 699.316ZM371.615 703.18L371.615 681.362L376.529 681.362L376.529 685.069L376.785 685.069C377.24 683.819 377.993 682.844 379.044 682.143C380.095 681.433 381.35 681.077 382.808 681.077C384.285 681.077 385.53 681.437 386.544 682.157C387.566 682.867 388.286 683.838 388.703 685.069L388.93 685.069C389.413 683.857 390.227 682.891 391.373 682.171C392.529 681.442 393.897 681.077 395.478 681.077C397.486 681.077 399.124 681.712 400.393 682.981C401.662 684.25 402.297 686.101 402.297 688.535L402.297 703.18L397.14 703.18L397.14 689.33C397.14 687.976 396.78 686.987 396.061 686.362C395.341 685.727 394.46 685.41 393.419 685.41C392.178 685.41 391.208 685.798 390.507 686.575C389.815 687.342 389.47 688.341 389.47 689.572L389.47 703.18L384.427 703.18L384.427 689.117C384.427 687.99 384.086 687.091 383.404 686.418C382.732 685.746 381.851 685.41 380.762 685.41C380.024 685.41 379.351 685.599 378.745 685.978C378.139 686.347 377.656 686.873 377.297 687.555C376.937 688.227 376.757 689.013 376.757 689.913L376.757 703.18L371.615 703.18ZM407.513 703.18L407.513 681.362L412.428 681.362L412.428 685.069L412.684 685.069C413.138 683.819 413.891 682.844 414.942 682.143C415.993 681.433 417.248 681.077 418.706 681.077C420.184 681.077 421.429 681.437 422.442 682.157C423.465 682.867 424.185 683.838 424.601 685.069L424.828 685.069C425.311 683.857 426.126 682.891 427.272 682.171C428.427 681.442 429.795 681.077 431.377 681.077C433.384 681.077 435.023 681.712 436.292 682.981C437.56 684.25 438.195 686.101 438.195 688.535L438.195 703.18L433.039 703.18L433.039 689.33C433.039 687.976 432.679 686.987 431.959 686.362C431.239 685.727 430.359 685.41 429.317 685.41C428.077 685.41 427.106 685.798 426.405 686.575C425.714 687.342 425.368 688.341 425.368 689.572L425.368 703.18L420.326 703.18L420.326 689.117C420.326 687.99 419.985 687.091 419.303 686.418C418.631 685.746 417.75 685.41 416.661 685.41C415.922 685.41 415.25 685.599 414.644 685.978C414.038 686.347 413.555 686.873 413.195 687.555C412.835 688.227 412.655 689.013 412.655 689.913L412.655 703.18L407.513 703.18Z" fill="#3C3B3B"/>
<path d="M664.978 774.393L664.978 770.586L675.077 760.685C676.043 759.71 676.848 758.843 677.492 758.086C678.136 757.328 678.619 756.594 678.941 755.884C679.263 755.174 679.424 754.416 679.424 753.611C679.424 752.693 679.215 751.907 678.799 751.253C678.382 750.59 677.809 750.079 677.08 749.719C676.351 749.359 675.522 749.18 674.594 749.18C673.638 749.18 672.8 749.378 672.08 749.776C671.36 750.164 670.802 750.718 670.404 751.438C670.016 752.158 669.822 753.015 669.822 754.009L664.807 754.009C664.807 752.162 665.229 750.557 666.072 749.194C666.914 747.83 668.074 746.774 669.552 746.026C671.038 745.278 672.743 744.904 674.665 744.904C676.616 744.904 678.33 745.269 679.807 745.998C681.285 746.727 682.43 747.726 683.245 748.995C684.069 750.264 684.481 751.713 684.481 753.341C684.481 754.43 684.272 755.501 683.856 756.552C683.439 757.603 682.705 758.768 681.654 760.046C680.612 761.324 679.149 762.873 677.265 764.691L672.251 769.79L672.251 769.989L684.921 769.989L684.921 774.393L664.978 774.393ZM700.162 774.79C698.051 774.79 696.176 774.435 694.537 773.725C692.909 773.015 691.63 772.044 690.702 770.813C689.784 769.573 689.329 768.166 689.339 766.594C689.329 765.373 689.594 764.251 690.134 763.228C690.674 762.205 691.403 761.353 692.322 760.671C693.25 759.98 694.282 759.539 695.418 759.35L695.418 759.151C693.922 758.82 692.71 758.057 691.782 756.864C690.863 755.662 690.409 754.274 690.418 752.702C690.409 751.206 690.825 749.871 691.668 748.697C692.511 747.522 693.666 746.599 695.134 745.927C696.602 745.245 698.278 744.904 700.162 744.904C702.028 744.904 703.69 745.245 705.148 745.927C706.616 746.599 707.771 747.522 708.614 748.697C709.466 749.871 709.893 751.206 709.893 752.702C709.893 754.274 709.424 755.662 708.486 756.864C707.558 758.057 706.36 758.82 704.893 759.151L704.893 759.35C706.029 759.539 707.052 759.98 707.961 760.671C708.879 761.353 709.608 762.205 710.148 763.228C710.697 764.251 710.972 765.373 710.972 766.594C710.972 768.166 710.508 769.573 709.58 770.813C708.652 772.044 707.374 773.015 705.745 773.725C704.126 774.435 702.265 774.79 700.162 774.79ZM700.162 770.728C701.251 770.728 702.198 770.543 703.003 770.174C703.808 769.795 704.433 769.265 704.878 768.583C705.323 767.901 705.551 767.115 705.56 766.225C705.551 765.297 705.309 764.478 704.836 763.768C704.372 763.048 703.733 762.484 702.918 762.077C702.113 761.67 701.195 761.466 700.162 761.466C699.121 761.466 698.193 761.67 697.378 762.077C696.564 762.484 695.92 763.048 695.447 763.768C694.983 764.478 694.755 765.297 694.765 766.225C694.755 767.115 694.973 767.901 695.418 768.583C695.863 769.255 696.488 769.781 697.293 770.16C698.108 770.538 699.064 770.728 700.162 770.728ZM700.162 757.475C701.053 757.475 701.839 757.295 702.52 756.935C703.212 756.575 703.756 756.073 704.154 755.43C704.552 754.786 704.755 754.042 704.765 753.199C704.755 752.366 704.556 751.637 704.168 751.012C703.78 750.377 703.24 749.89 702.549 749.549C701.858 749.198 701.062 749.023 700.162 749.023C699.244 749.023 698.434 749.198 697.733 749.549C697.042 749.89 696.502 750.377 696.114 751.012C695.735 751.637 695.551 752.366 695.56 753.199C695.551 754.042 695.74 754.786 696.128 755.43C696.526 756.064 697.071 756.566 697.762 756.935C698.463 757.295 699.263 757.475 700.162 757.475ZM725.621 774.393L725.621 752.574L730.535 752.574L730.535 756.282L730.791 756.282C731.246 755.032 731.998 754.056 733.05 753.356C734.101 752.645 735.355 752.29 736.814 752.29C738.291 752.29 739.536 752.65 740.55 753.37C741.572 754.08 742.292 755.051 742.709 756.282L742.936 756.282C743.419 755.07 744.233 754.104 745.379 753.384C746.534 752.655 747.903 752.29 749.484 752.29C751.492 752.29 753.13 752.925 754.399 754.194C755.668 755.463 756.302 757.314 756.302 759.748L756.302 774.393L751.146 774.393L751.146 760.543C751.146 759.189 750.786 758.199 750.067 757.574C749.347 756.94 748.466 756.623 747.425 756.623C746.184 756.623 745.213 757.011 744.513 757.787C743.821 758.555 743.476 759.554 743.476 760.785L743.476 774.393L738.433 774.393L738.433 760.33C738.433 759.203 738.092 758.304 737.41 757.631C736.738 756.959 735.857 756.623 734.768 756.623C734.03 756.623 733.357 756.812 732.751 757.191C732.145 757.56 731.662 758.086 731.302 758.768C730.943 759.44 730.763 760.226 730.763 761.126L730.763 774.393L725.621 774.393ZM761.519 774.393L761.519 752.574L766.434 752.574L766.434 756.282L766.689 756.282C767.144 755.032 767.897 754.056 768.948 753.356C769.999 752.645 771.254 752.29 772.712 752.29C774.189 752.29 775.435 752.65 776.448 753.37C777.471 754.08 778.19 755.051 778.607 756.282L778.834 756.282C779.317 755.07 780.132 754.104 781.278 753.384C782.433 752.655 783.801 752.29 785.383 752.29C787.39 752.29 789.028 752.925 790.297 754.194C791.566 755.463 792.201 757.314 792.201 759.748L792.201 774.393L787.045 774.393L787.045 760.543C787.045 759.189 786.685 758.199 785.965 757.574C785.245 756.94 784.365 756.623 783.323 756.623C782.082 756.623 781.112 757.011 780.411 757.787C779.72 758.555 779.374 759.554 779.374 760.785L779.374 774.393L774.331 774.393L774.331 760.33C774.331 759.203 773.991 758.304 773.309 757.631C772.636 756.959 771.756 756.623 770.667 756.623C769.928 756.623 769.256 756.812 768.65 757.191C768.044 757.56 767.561 758.086 767.201 758.768C766.841 759.44 766.661 760.226 766.661 761.126L766.661 774.393L761.519 774.393Z" fill="#3C3B3B"/>
<line x1="182.336" y1="572.809" x2="55.0183" y2="572.809" stroke="#3C3B3B" stroke-width="0.6"/>
<line x1="570.39" y1="590.292" x2="570.39" y2="717.61" stroke="#3C3B3B" stroke-width="0.6"/>
<line x1="790.236" y1="590.292" x2="790.236" y2="717.61" stroke="#3C3B3B" stroke-width="0.6"/>
<line x1="667.53" y1="590.292" x2="667.53" y2="717.61" stroke="#3C3B3B" stroke-width="0.6"/>
<line x1="182.336" y1="176.013" x2="55.0183" y2="176.013" stroke="#3C3B3B" stroke-width="0.6"/>
<line x1="173.591" y1="590.292" x2="173.591" y2="717.61" stroke="#3C3B3B" stroke-width="0.6"/>
<line x1="84.073" y1="572.509" x2="84.0731" y2="467.731" stroke="#3C3B3B" stroke-width="0.6"/>
<line x1="570.09" y1="688.555" x2="468.639" y2="688.555" stroke="#3C3B3B" stroke-width="0.6"/>
<line x1="789.936" y1="688.555" x2="667.23" y2="688.555" stroke="#3C3B3B" stroke-width="0.6"/>
<line x1="84.073" y1="263.503" x2="84.0731" y2="175.712" stroke="#3C3B3B" stroke-width="0.6"/>
<line x1="279.811" y1="688.555" x2="173.294" y2="688.555" stroke="#3C3B3B" stroke-width="0.6"/>
<rect x="178.23" y="329.269" width="391.5" height="100" fill="white"/>
<defs>
<clipPath id="clip0_39_1146">
<rect width="157.231" height="28.077" fill="white" transform="translate(297.637 221.495)"/>
</clipPath>
</defs>
</svg>
