<svg width="900" height="900" viewBox="0 0 900 900" fill="none" xmlns="http://www.w3.org/2000/svg">
<rect width="900" height="900" rx="51" fill="white"/>
<path d="M728.799 285.212H795.521C798.144 285.212 800.271 287.339 800.271 289.962V578.257C800.271 580.328 798.591 582.007 796.521 582.007H726.049V287.962C726.049 286.443 727.28 285.212 728.799 285.212Z" stroke="#888888" stroke-width="2.5"/>
<path d="M627.078 504.113C627.087 502.721 627.333 501.366 627.816 500.05C628.29 498.724 629.066 497.531 630.146 496.471C631.216 495.41 632.651 494.567 634.45 493.942C636.249 493.317 638.475 493.005 641.126 493.005C643.626 492.995 645.861 493.26 647.831 493.8C649.791 494.331 651.448 495.093 652.802 496.087C654.156 497.081 655.189 498.279 655.899 499.681C656.609 501.082 656.964 502.659 656.964 504.411C656.964 506.248 656.604 507.877 655.885 509.297C655.165 510.708 654.18 511.849 652.93 512.721C651.68 513.592 650.25 514.127 648.64 514.326L648.64 509.141C649.796 508.876 650.714 508.336 651.396 507.522C652.068 506.698 652.404 505.661 652.404 504.411C652.404 502.394 651.529 500.841 649.777 499.752C648.025 498.663 645.591 498.118 642.475 498.118L642.475 498.317C643.309 498.781 644.029 499.383 644.635 500.121C645.231 500.86 645.69 501.698 646.012 502.635C646.334 503.563 646.495 504.548 646.495 505.59C646.495 507.295 646.088 508.829 645.274 510.192C644.459 511.546 643.342 512.621 641.922 513.417C640.501 514.203 638.877 514.6 637.049 514.61C635.155 514.61 633.456 514.174 631.95 513.303C630.435 512.422 629.242 511.196 628.37 509.624C627.49 508.052 627.059 506.215 627.078 504.113ZM631.339 504.098C631.339 505.121 631.59 506.045 632.092 506.868C632.584 507.683 633.257 508.327 634.109 508.8C634.952 509.264 635.894 509.496 636.936 509.496C637.968 509.487 638.905 509.255 639.748 508.8C640.591 508.336 641.259 507.706 641.751 506.911C642.243 506.106 642.49 505.188 642.49 504.155C642.49 503.388 642.343 502.673 642.049 502.01C641.756 501.348 641.349 500.77 640.828 500.277C640.297 499.776 639.696 499.387 639.024 499.113C638.351 498.829 637.641 498.691 636.893 498.701C635.899 498.701 634.98 498.938 634.137 499.411C633.295 499.875 632.618 500.514 632.106 501.329C631.595 502.134 631.339 503.057 631.339 504.098ZM656.964 477.621C656.955 479.013 656.713 480.372 656.24 481.698C655.757 483.024 654.975 484.217 653.896 485.277C652.807 486.338 651.363 487.181 649.564 487.806C647.755 488.431 645.515 488.739 642.845 488.729C640.354 488.729 638.134 488.464 636.183 487.934C634.232 487.403 632.584 486.641 631.24 485.647C629.886 484.652 628.853 483.455 628.143 482.053C627.433 480.642 627.078 479.065 627.078 477.323C627.078 475.495 627.438 473.876 628.157 472.465C628.877 471.045 629.862 469.899 631.112 469.027C632.352 468.156 633.754 467.616 635.316 467.408L635.316 472.593C634.199 472.858 633.309 473.402 632.646 474.226C631.974 475.041 631.637 476.073 631.637 477.323C631.637 479.34 632.513 480.893 634.265 481.982C636.017 483.062 638.422 483.606 641.481 483.616L641.481 483.417C640.648 482.953 639.933 482.351 639.336 481.613C638.74 480.874 638.28 480.041 637.958 479.113C637.627 478.175 637.461 477.186 637.461 476.144C637.461 474.439 637.868 472.91 638.683 471.556C639.497 470.192 640.619 469.113 642.049 468.317C643.47 467.522 645.099 467.129 646.936 467.138C648.849 467.129 650.567 467.564 652.092 468.445C653.607 469.326 654.8 470.552 655.672 472.124C656.543 473.696 656.974 475.528 656.964 477.621ZM652.703 477.65C652.703 476.617 652.452 475.694 651.95 474.88C651.448 474.065 650.771 473.421 649.919 472.948C649.066 472.474 648.11 472.242 647.049 472.252C646.008 472.242 645.065 472.47 644.223 472.934C643.38 473.388 642.712 474.018 642.22 474.823C641.727 475.628 641.481 476.546 641.481 477.579C641.481 478.346 641.628 479.061 641.922 479.723C642.215 480.386 642.622 480.964 643.143 481.456C643.654 481.949 644.251 482.337 644.933 482.621C645.605 482.896 646.325 483.038 647.092 483.047C648.105 483.038 649.038 482.801 649.89 482.337C650.743 481.873 651.424 481.234 651.936 480.42C652.447 479.605 652.703 478.682 652.703 477.65ZM656.566 452.358L634.748 452.358L634.748 447.444L638.456 447.444L638.456 447.188C637.206 446.733 636.23 445.981 635.529 444.929C634.819 443.878 634.464 442.624 634.464 441.165C634.464 439.688 634.824 438.443 635.544 437.429C636.254 436.407 637.225 435.687 638.456 435.27L638.456 435.043C637.243 434.56 636.278 433.746 635.558 432.6C634.829 431.445 634.464 430.076 634.464 428.495C634.464 426.487 635.099 424.849 636.368 423.58C637.636 422.311 639.488 421.677 641.922 421.677L656.566 421.677L656.566 426.833L642.717 426.833C641.363 426.833 640.373 427.193 639.748 427.912C639.114 428.632 638.797 429.513 638.797 430.554C638.797 431.795 639.185 432.766 639.961 433.466C640.728 434.158 641.727 434.503 642.958 434.503L656.566 434.503L656.566 439.546L642.504 439.546C641.377 439.546 640.477 439.887 639.805 440.569C639.133 441.241 638.797 442.122 638.797 443.211C638.797 443.949 638.986 444.622 639.365 445.228C639.734 445.834 640.26 446.317 640.941 446.677C641.614 447.036 642.4 447.216 643.299 447.216L656.566 447.216L656.566 452.358ZM656.566 416.46L634.748 416.46L634.748 411.545L638.456 411.545L638.456 411.29C637.206 410.835 636.23 410.082 635.529 409.031C634.819 407.98 634.464 406.725 634.464 405.267C634.464 403.79 634.824 402.544 635.544 401.531C636.254 400.508 637.225 399.789 638.456 399.372L638.456 399.145C637.243 398.662 636.278 397.847 635.558 396.701C634.829 395.546 634.464 394.178 634.464 392.596C634.464 390.589 635.099 388.951 636.368 387.682C637.636 386.413 639.488 385.778 641.922 385.778L656.566 385.778L656.566 390.934L642.717 390.934C641.363 390.934 640.373 391.294 639.748 392.014C639.114 392.734 638.797 393.614 638.797 394.656C638.797 395.897 639.185 396.867 639.961 397.568C640.728 398.259 641.727 398.605 642.958 398.605L656.566 398.605L656.566 403.648L642.504 403.648C641.377 403.648 640.477 403.988 639.805 404.67C639.133 405.343 638.797 406.223 638.797 407.312C638.797 408.051 638.986 408.723 639.365 409.329C639.734 409.935 640.26 410.418 640.941 410.778C641.614 411.138 642.4 411.318 643.299 411.318L656.566 411.318L656.566 416.46Z" fill="#3C3B3B"/>
<path d="M271.164 684.837L271.164 713.928L265.894 713.928L265.894 689.965L265.723 689.965L258.919 694.311L258.919 689.482L266.15 684.837L271.164 684.837ZM278.55 713.928L278.55 710.121L288.649 700.22C289.615 699.245 290.42 698.378 291.064 697.621C291.708 696.863 292.191 696.129 292.513 695.419C292.835 694.709 292.996 693.951 292.996 693.146C292.996 692.228 292.788 691.442 292.371 690.789C291.954 690.126 291.382 689.614 290.652 689.254C289.923 688.895 289.095 688.715 288.167 688.715C287.21 688.715 286.372 688.914 285.652 689.311C284.933 689.7 284.374 690.253 283.976 690.973C283.588 691.693 283.394 692.55 283.394 693.544L278.38 693.544C278.38 691.698 278.801 690.093 279.644 688.729C280.487 687.365 281.647 686.309 283.124 685.561C284.611 684.813 286.315 684.439 288.238 684.439C290.188 684.439 291.902 684.804 293.38 685.533C294.857 686.262 296.003 687.261 296.817 688.53C297.641 689.799 298.053 691.248 298.053 692.877C298.053 693.966 297.845 695.036 297.428 696.087C297.011 697.138 296.277 698.303 295.226 699.581C294.185 700.86 292.721 702.408 290.837 704.226L285.823 709.325L285.823 709.524L298.493 709.524L298.493 713.928L278.55 713.928ZM313.507 714.325C311.614 714.325 309.918 713.97 308.422 713.26C306.926 712.54 305.738 711.556 304.857 710.306C303.986 709.056 303.522 707.626 303.465 706.016L308.578 706.016C308.673 707.209 309.189 708.184 310.127 708.942C311.064 709.69 312.191 710.064 313.507 710.064C314.54 710.064 315.458 709.827 316.263 709.354C317.068 708.88 317.703 708.222 318.167 707.379C318.631 706.537 318.858 705.575 318.848 704.496C318.858 703.397 318.626 702.422 318.152 701.57C317.679 700.718 317.03 700.05 316.206 699.567C315.382 699.075 314.435 698.828 313.365 698.828C312.494 698.819 311.637 698.98 310.794 699.311C309.952 699.643 309.284 700.078 308.792 700.618L304.033 699.837L305.553 684.837L322.428 684.837L322.428 689.24L309.914 689.24L309.076 696.953L309.246 696.953C309.786 696.319 310.548 695.793 311.533 695.377C312.518 694.95 313.597 694.737 314.772 694.737C316.533 694.737 318.105 695.154 319.488 695.987C320.87 696.811 321.959 697.948 322.755 699.396C323.55 700.845 323.948 702.503 323.948 704.368C323.948 706.29 323.503 708.004 322.613 709.51C321.732 711.006 320.506 712.185 318.934 713.047C317.371 713.899 315.562 714.325 313.507 714.325ZM338.685 713.928L338.685 692.11L343.6 692.11L343.6 695.817L343.855 695.817C344.31 694.567 345.063 693.592 346.114 692.891C347.165 692.181 348.42 691.825 349.878 691.825C351.355 691.825 352.601 692.185 353.614 692.905C354.637 693.615 355.356 694.586 355.773 695.817L356 695.817C356.483 694.605 357.298 693.639 358.444 692.919C359.599 692.19 360.967 691.825 362.549 691.825C364.556 691.825 366.194 692.46 367.463 693.729C368.732 694.998 369.367 696.849 369.367 699.283L369.367 713.928L364.211 713.928L364.211 700.078C364.211 698.724 363.851 697.735 363.131 697.11C362.411 696.475 361.531 696.158 360.489 696.158C359.248 696.158 358.278 696.546 357.577 697.323C356.886 698.09 356.54 699.089 356.54 700.32L356.54 713.928L351.498 713.928L351.498 699.865C351.498 698.738 351.157 697.839 350.475 697.166C349.802 696.494 348.922 696.158 347.833 696.158C347.094 696.158 346.422 696.347 345.816 696.726C345.21 697.095 344.727 697.621 344.367 698.303C344.007 698.975 343.827 699.761 343.827 700.661L343.827 713.928L338.685 713.928ZM374.583 713.928L374.583 692.11L379.498 692.11L379.498 695.817L379.754 695.817C380.208 694.567 380.961 693.592 382.012 692.891C383.064 692.181 384.318 691.825 385.777 691.825C387.254 691.825 388.499 692.185 389.512 692.905C390.535 693.615 391.255 694.586 391.672 695.817L391.899 695.817C392.382 694.605 393.196 693.639 394.342 692.919C395.497 692.19 396.866 691.825 398.447 691.825C400.455 691.825 402.093 692.46 403.362 693.729C404.631 694.998 405.265 696.849 405.265 699.283L405.265 713.928L400.109 713.928L400.109 700.078C400.109 698.724 399.749 697.735 399.029 697.11C398.31 696.475 397.429 696.158 396.387 696.158C395.147 696.158 394.176 696.546 393.475 697.323C392.784 698.09 392.439 699.089 392.439 700.32L392.439 713.928L387.396 713.928L387.396 699.865C387.396 698.738 387.055 697.839 386.373 697.166C385.701 696.494 384.82 696.158 383.731 696.158C382.993 696.158 382.32 696.347 381.714 696.726C381.108 697.095 380.625 697.621 380.265 698.303C379.905 698.975 379.725 699.761 379.725 700.661L379.725 713.928L374.583 713.928Z" fill="#3C3B3B"/>
<path d="M713.32 792.798C711.275 792.798 709.457 792.448 707.866 791.747C706.284 791.046 705.034 790.071 704.116 788.821C703.197 787.571 702.71 786.127 702.653 784.488L707.994 784.488C708.041 785.274 708.302 785.961 708.775 786.548C709.249 787.126 709.878 787.576 710.664 787.898C711.45 788.22 712.331 788.381 713.306 788.381C714.348 788.381 715.271 788.201 716.076 787.841C716.881 787.471 717.511 786.96 717.965 786.307C718.42 785.653 718.642 784.9 718.633 784.048C718.642 783.167 718.415 782.391 717.951 781.719C717.487 781.046 716.815 780.521 715.934 780.142C715.063 779.763 714.012 779.574 712.781 779.574L710.21 779.574L710.21 775.511L712.781 775.511C713.794 775.511 714.679 775.336 715.437 774.986C716.204 774.635 716.805 774.143 717.241 773.508C717.677 772.864 717.89 772.121 717.88 771.278C717.89 770.454 717.705 769.739 717.326 769.133C716.957 768.518 716.431 768.04 715.749 767.699C715.077 767.358 714.286 767.187 713.377 767.187C712.487 767.187 711.663 767.348 710.906 767.67C710.148 767.992 709.537 768.452 709.073 769.048C708.609 769.635 708.363 770.336 708.335 771.15L703.264 771.15C703.302 769.522 703.77 768.092 704.67 766.861C705.579 765.62 706.791 764.654 708.306 763.963C709.821 763.262 711.521 762.912 713.406 762.912C715.347 762.912 717.033 763.276 718.463 764.006C719.902 764.725 721.015 765.696 721.801 766.917C722.587 768.139 722.98 769.488 722.98 770.966C722.989 772.604 722.506 773.977 721.531 775.085C720.565 776.193 719.296 776.917 717.724 777.258L717.724 777.486C719.769 777.77 721.337 778.527 722.426 779.758C723.524 780.98 724.069 782.5 724.059 784.318C724.059 785.947 723.595 787.405 722.667 788.693C721.749 789.971 720.48 790.975 718.86 791.704C717.25 792.434 715.404 792.798 713.32 792.798ZM728.935 792.4L728.935 788.594L739.034 778.693C740 777.718 740.805 776.851 741.449 776.094C742.093 775.336 742.576 774.602 742.898 773.892C743.22 773.182 743.381 772.424 743.381 771.619C743.381 770.701 743.173 769.915 742.756 769.261C742.339 768.598 741.766 768.087 741.037 767.727C740.308 767.367 739.479 767.187 738.551 767.187C737.595 767.187 736.757 767.386 736.037 767.784C735.317 768.172 734.759 768.726 734.361 769.446C733.973 770.166 733.779 771.023 733.779 772.017L728.764 772.017C728.764 770.17 729.186 768.565 730.029 767.202C730.871 765.838 732.031 764.782 733.509 764.034C734.995 763.286 736.7 762.912 738.622 762.912C740.573 762.912 742.287 763.276 743.764 764.006C745.242 764.735 746.387 765.734 747.202 767.003C748.026 768.272 748.438 769.72 748.438 771.349C748.438 772.438 748.229 773.508 747.813 774.559C747.396 775.611 746.662 776.775 745.611 778.054C744.569 779.332 743.106 780.881 741.222 782.699L736.208 787.798L736.208 787.997L748.878 787.997L748.878 792.4L728.935 792.4ZM763.757 792.4L763.757 770.582L768.672 770.582L768.672 774.29L768.928 774.29C769.382 773.04 770.135 772.064 771.186 771.363C772.237 770.653 773.492 770.298 774.95 770.298C776.428 770.298 777.673 770.658 778.686 771.378C779.709 772.088 780.429 773.059 780.845 774.29L781.073 774.29C781.556 773.077 782.37 772.112 783.516 771.392C784.671 770.663 786.039 770.298 787.621 770.298C789.628 770.298 791.267 770.933 792.536 772.202C793.805 773.47 794.439 775.322 794.439 777.756L794.439 792.4L789.283 792.4L789.283 778.551C789.283 777.197 788.923 776.207 788.203 775.582C787.484 774.948 786.603 774.631 785.561 774.631C784.321 774.631 783.35 775.019 782.649 775.795C781.958 776.562 781.612 777.561 781.612 778.792L781.612 792.4L776.57 792.4L776.57 778.338C776.57 777.211 776.229 776.311 775.547 775.639C774.875 774.967 773.994 774.631 772.905 774.631C772.166 774.631 771.494 774.82 770.888 775.199C770.282 775.568 769.799 776.094 769.439 776.775C769.079 777.448 768.899 778.234 768.899 779.133L768.899 792.4L763.757 792.4ZM799.656 792.4L799.656 770.582L804.57 770.582L804.57 774.29L804.826 774.29C805.281 773.04 806.034 772.064 807.085 771.363C808.136 770.653 809.391 770.298 810.849 770.298C812.326 770.298 813.571 770.658 814.585 771.378C815.607 772.088 816.327 773.059 816.744 774.29L816.971 774.29C817.454 773.077 818.268 772.112 819.414 771.392C820.57 770.663 821.938 770.298 823.519 770.298C825.527 770.298 827.165 770.933 828.434 772.202C829.703 773.47 830.338 775.322 830.338 777.756L830.338 792.4L825.181 792.4L825.181 778.551C825.181 777.197 824.821 776.207 824.102 775.582C823.382 774.948 822.501 774.631 821.46 774.631C820.219 774.631 819.249 775.019 818.548 775.795C817.856 776.562 817.511 777.561 817.511 778.792L817.511 792.4L812.468 792.4L812.468 778.338C812.468 777.211 812.127 776.311 811.445 775.639C810.773 774.967 809.892 774.631 808.803 774.631C808.065 774.631 807.392 774.82 806.786 775.199C806.18 775.568 805.697 776.094 805.338 776.775C804.978 777.448 804.798 778.234 804.798 779.133L804.798 792.4L799.656 792.4Z" fill="#3C3B3B"/>
<line x1="679.752" y1="583.557" x2="613.659" y2="583.557" stroke="#3C3B3B" stroke-width="0.6"/>
<line x1="581.974" y1="601.04" x2="581.974" y2="728.358" stroke="#3C3B3B" stroke-width="0.6"/>
<line x1="801.82" y1="601.04" x2="801.82" y2="728.358" stroke="#3C3B3B" stroke-width="0.6"/>
<line x1="725.099" y1="601.04" x2="725.099" y2="728.358" stroke="#3C3B3B" stroke-width="0.6"/>
<line x1="681.381" y1="275.26" x2="613.659" y2="275.26" stroke="#3C3B3B" stroke-width="0.6"/>
<line x1="77.093" y1="601.04" x2="77.093" y2="728.358" stroke="#3C3B3B" stroke-width="0.6"/>
<line x1="642.714" y1="583.257" x2="642.714" y2="537.189" stroke="#3C3B3B" stroke-width="0.6"/>
<line x1="581.674" y1="699.303" x2="435.551" y2="699.303" stroke="#3C3B3B" stroke-width="0.6"/>
<line x1="801.52" y1="699.303" x2="724.799" y2="699.303" stroke="#3C3B3B" stroke-width="0.6"/>
<line x1="642.714" y1="362.75" x2="642.714" y2="274.96" stroke="#3C3B3B" stroke-width="0.6"/>
<line x1="229.043" y1="699.303" x2="76.7935" y2="699.303" stroke="#3C3B3B" stroke-width="0.6"/>
<path d="M430.702 326.091L425.312 336.116H420.949L426.565 326.088L430.702 326.091Z" fill="#303031"/>
<path d="M423.153 326.091L417.763 336.116H413.4L419.017 326.088L423.153 326.091Z" fill="#303031"/>
<path d="M415.602 326.091L410.213 336.116H405.85L411.466 326.088L415.602 326.091Z" fill="#303031"/>
<path d="M437.262 336.126V325.94H439.218L443.569 333.129H442.532L446.81 325.94H448.752L448.781 336.126H446.562L446.547 329.331H446.956L443.54 335.049H442.474L438.985 329.331H439.481V336.126H437.262ZM449.862 336.126L454.417 325.94H456.753L461.323 336.126H458.841L455.103 327.133H456.037L452.285 336.126H449.862ZM452.139 333.943L452.767 332.154H458.023L458.665 333.943H452.139ZM467.131 336.301C466.342 336.301 465.608 336.175 464.926 335.922C464.255 335.66 463.671 335.292 463.174 334.816C462.678 334.341 462.289 333.783 462.006 333.143C461.734 332.503 461.598 331.8 461.598 331.033C461.598 330.267 461.734 329.563 462.006 328.923C462.289 328.283 462.678 327.725 463.174 327.25C463.68 326.775 464.269 326.411 464.941 326.159C465.612 325.897 466.347 325.766 467.146 325.766C468.031 325.766 468.829 325.921 469.54 326.231C470.26 326.532 470.864 326.978 471.35 327.57L469.832 328.967C469.481 328.569 469.092 328.273 468.664 328.079C468.236 327.876 467.768 327.774 467.262 327.774C466.785 327.774 466.347 327.851 465.948 328.007C465.549 328.162 465.204 328.385 464.912 328.676C464.62 328.967 464.391 329.311 464.225 329.709C464.07 330.107 463.992 330.548 463.992 331.033C463.992 331.518 464.07 331.96 464.225 332.357C464.391 332.755 464.62 333.099 464.912 333.39C465.204 333.681 465.549 333.905 465.948 334.06C466.347 334.215 466.785 334.293 467.262 334.293C467.768 334.293 468.236 334.196 468.664 334.002C469.092 333.798 469.481 333.492 469.832 333.085L471.35 334.482C470.864 335.074 470.26 335.525 469.54 335.835C468.829 336.145 468.026 336.301 467.131 336.301ZM472.949 336.126V325.94H474.905L480.935 333.274H479.986V325.94H482.322V336.126H480.38L474.336 328.792H475.285V336.126H472.949ZM483.395 336.126L487.95 325.94H490.286L494.856 336.126H492.374L488.637 327.133H489.571L485.819 336.126H483.395ZM485.673 333.943L486.301 332.154H491.557L492.199 333.943H485.673ZM495.917 336.126V325.94H497.874L502.224 333.129H501.188L505.466 325.94H507.407L507.437 336.126H505.217L505.203 329.331H505.612L502.195 335.049H501.129L497.64 329.331H498.136V336.126H495.917ZM509.863 336.126V325.94H511.819L517.849 333.274H516.9V325.94H519.236V336.126H517.294L511.25 328.792H512.199V336.126H509.863Z" fill="#303031"/>
<path d="M531.623 291.728H131.812C119.045 291.728 108.695 302.043 108.695 314.767V558.135C108.695 570.86 119.045 581.175 131.812 581.175H531.623C544.39 581.175 554.74 570.86 554.74 558.135V314.767C554.74 302.043 544.39 291.728 531.623 291.728Z" stroke="black"/>
<path d="M215.838 276.173H236.844C238.86 276.173 240.494 277.802 240.494 279.811V291.738H212.188V279.811C212.188 277.802 213.822 276.173 215.838 276.173Z" stroke="black"/>
<path d="M421.093 276.173H442.1C444.115 276.173 445.75 277.802 445.75 279.811V291.738H417.443V279.811C417.443 277.802 419.079 276.173 421.093 276.173Z" stroke="black"/>
<path d="M567.091 332.487C577.17 332.488 585.341 340.631 585.341 350.676V522.231C585.341 532.276 577.17 540.42 567.091 540.42H554.496V332.487H567.091Z" stroke="black"/>
<path d="M96.2598 332.487C86.1811 332.488 78.0098 340.631 78.0098 350.676V522.231C78.0098 532.276 86.1811 540.42 96.2598 540.42H108.854V332.487H96.2598Z" stroke="black"/>
<path d="M569.917 380.821C573.108 380.821 575.694 378.243 575.694 375.063C575.694 371.883 573.108 369.306 569.917 369.306C566.727 369.306 564.141 371.883 564.141 375.063C564.141 378.243 566.727 380.821 569.917 380.821Z" stroke="black"/>
<path d="M94.2467 380.821C91.0562 380.821 88.4699 378.243 88.4699 375.063C88.4699 371.883 91.0562 369.306 94.2467 369.306C97.4371 369.306 100.023 371.883 100.023 375.063C100.023 378.243 97.4371 380.821 94.2467 380.821Z" stroke="black"/>
<path d="M569.917 503.933C573.108 503.933 575.694 501.355 575.694 498.175C575.694 494.996 573.108 492.418 569.917 492.418C566.727 492.418 564.141 494.996 564.141 498.175C564.141 501.355 566.727 503.933 569.917 503.933Z" stroke="black"/>
<path d="M94.2467 503.933C91.0562 503.933 88.4699 501.355 88.4699 498.175C88.4699 494.996 91.0562 492.418 94.2467 492.418C97.4371 492.418 100.023 494.996 100.023 498.175C100.023 501.355 97.4371 503.933 94.2467 503.933Z" stroke="black"/>
</svg>
