<svg xmlns="http://www.w3.org/2000/svg" width="1904" height="631" fill="none" xmlns:v="https://vecta.io/nano"><rect x=".099" y=".811" width="1903" height="629.667" rx="51" fill="#fff"/><rect x="1064.21" y="201.844" width="70.781" height="116.934" rx="4" stroke="#000" stroke-width="2"/><mask id="A" fill="#fff"><rect width="19.527" height="24.852" rx="1" transform="matrix(1 0 0 -1 1089.84 342.854)"/></mask><rect width="19.527" height="24.852" rx="1" transform="matrix(1 0 0 -1 1089.84 342.854)" stroke="#000" stroke-width="4" mask="url(#A)"/><mask id="B" fill="#fff"><rect width="19.527" height="24.852" rx="1" transform="matrix(1 0 0 -1 1089.84 202.619)"/></mask><g stroke="#000"><rect width="19.527" height="24.852" rx="1" transform="matrix(1 0 0 -1 1089.84 202.619)" stroke-width="4" mask="url(#B)"/><g stroke-width="2"><circle cx="1122.68" cy="215.932" r="3.438"/><circle cx="1074.75" cy="308.239" r="3.438"/><g stroke-miterlimit="22.9256"><path d="M235.247 147.136h66.426a3.19 3.19 0 0 1 3.177 3.176v136.819l-7.592 23.206c-.424.861-1.339 1.282-2.62 1.376l-1.122.589-24.099.106-25.165-.094c-.316-.165-.263-.297-.616-.327-2.123-.179-3.06-.831-3.346-1.705l-8.22-23.389v-26.065-110.516a3.19 3.19 0 0 1 3.177-3.177v.001z"/><path d="M237.143 147.136l12.931 6.528 37.233.034 12.929-6.562-10.899 8.255s-1.692 1.624-4.01 1.472h-32.309s-2.691.491-5.128-1.828l-10.747-7.899z" stroke-linejoin="round"/><path d="M245.341 160.079l47.365.012 10.981-12.23m-61.247 14.418c0-.406-10.369-10.899-10.369-10.899"/><path d="M245.509 160.245l-12.335-12.334m62.316 14.368c0-.406 9.36-10.899 9.36-10.899"/><path d="M242.421 287.131V162.789s-.508-2.711 3.182-2.711m49.858 127.053V162.789s.508-2.711-3.182-2.711"/><path d="M232.07 261.186l10.351 25.418s.07 1.185 3.827 1.507 45.83 0 45.83 0 2.996.033 3.69-1.828l8.919-25.218v.948l-8.666 24.531s-.253 2.039-2.911 2.191-45.863.161-45.863.161-4.831.473-5.305-2.353l-9.872-25.109m11.769 50.595l9.798-15.364c.286-.537.834-1.102 1.297-1.469 1.256-.995 2.805-1.422 4.401-1.444h18.604c.679-.053 1.54.067 2.186.228 1.607.399 3 1.266 4.039 2.562l.023.029 9.928 15.417m-15.102 3.393h-.158m-20.047-.016h-.229m-14.072-3.049l9.752-15.291s1.286-2.505 5.077-2.555h18.633s3.385-.289 5.636 2.521l9.861 15.312m-13.921 2.361h-.031m-21.423-.017h-.087"/><path d="M242.422 287.131l-2.217 22.907m5.508-21.114l-1.745 23.184m51.495-25.275l2.069 22.671m-4.783-20.755l1.814 23.004m-25.574-36.217c1.201 0 2.175-.974 2.175-2.175s-.974-2.174-2.175-2.174-2.174.973-2.174 2.174.973 2.175 2.174 2.175z"/><path d="M245.341 160.079l.342 128.817m47.162-128.667l-.096 128.52m-33.303 23.607h-1.886v1.294c.297.878.827 1.655 1.753 2.295.444 2.765 2.306 4.723 9.468 4.846 7.067.123 8.974-1.933 9.449-4.709 1.378-.971 1.885-2.273 2.055-3.726h-2.17-18.669z"/><path d="M264.416 312.391v4.98"/><use href="#M"/><use href="#M" x="1.304"/><use href="#M" x="2.607"/><use href="#M" x="3.911"/><use href="#M" x="5.214"/><use href="#M" x="6.52"/><use href="#M" x="7.821"/><path d="M280.393 312.361c-.439 2.985-2.555 5.258-11.617 5.13-9.041-.128-11.168-2.215-11.614-5.128"/></g></g></g><g clip-path="url(#J)"><path d="M816.329 218.478H782.87c-7.546 0-13.687 6.057-13.687 13.5v48c0 5.79 4.775 10.5 10.646 10.5h36.5c7.546 0 13.687-6.057 13.687-13.5v-45c0-7.443-6.141-13.5-13.687-13.5zm10.645 13.5v37.5h-42.583v-48h15.208v26.544c0 1.506.934 2.79 2.379 3.273s2.978.021 3.905-1.176l2.841-3.669 2.841 3.669c.931 1.206 2.494 1.653 3.906 1.176 1.445-.483 2.378-1.767 2.378-3.273v-26.436c5.153.729 9.125 5.112 9.125 10.392zm-24.333-10.5h12.167v26.544c0 .27-.171.381-.314.432-.139.045-.346.06-.511-.153l-4.048-5.229c-.575-.744-1.84-.744-2.418 0l-4.049 5.229c-.17.216-.374.201-.511.156-.143-.048-.313-.162-.313-.432v-26.547h-.003zm-30.417 10.5c0-5.28 3.973-9.663 9.125-10.392v47.892h-1.52c-2.975 0-5.67 1.212-7.605 3.159v-40.659zm44.105 55.5h-36.5c-9.995-.177-9.989-14.826 0-15h47.145v4.5c0 5.79-4.775 10.5-10.645 10.5z" fill="#000"/></g><mask id="C" fill="#fff"><rect width="34.023" height="90.236" rx="1" transform="matrix(1 0 0 -1 517.57 283.229)"/></mask><g stroke="#000"><rect width="34.023" height="90.236" rx="1" transform="matrix(1 0 0 -1 517.57 283.229)" stroke-width="4" mask="url(#C)"/><g stroke-width="2"><path d="M551.114 282.652V193.59l17.23-9.278v108.28l-17.23-9.94zm-33.064.647v-89.621l-18.71-9.417v109.127l18.71-10.089z"/><path d="M499.818 183.379h68.047m-68.047 109.465h68.047" stroke-linecap="round"/><g fill="#fff"><circle cx="535.321" cy="212.225" r="3.438"/><circle cx="535.321" cy="268.437" r="3.438"/></g></g></g><g clip-path="url(#K)"><path d="M1675.91 273.693c-.84-.835-2-1.257-3.17-1.16-2.9.228-12.65 1.279-16.68 5.311-3.97 3.993-4.49 10.62-.52 14.849-1.74 2.151-2.73 4.779-2.73 7.588v4.26c0 4.262-3.47 7.729-7.73 7.729s-7.73-3.467-7.73-7.729v-16.675c4.95-.557 8.83-4.724 8.83-9.825v-5.521h1.11a1.1 1.1 0 1 0 0-2.208h-5.52v-7.73a1.11 1.11 0 0 0-1.11-1.104 1.1 1.1 0 0 0-1.1 1.104v7.73h-6.63v-7.73a1.1 1.1 0 0 0-1.1-1.104 1.11 1.11 0 0 0-1.11 1.104v7.73h-5.52a1.1 1.1 0 1 0 0 2.208h1.11v5.521c0 5.101 3.88 9.268 8.83 9.825v16.675c0 5.479 4.46 9.937 9.94 9.937s9.94-4.458 9.94-9.937v-4.26c0-2.228.76-4.32 2.1-6.051 4.19 3.829 10.71 3.231 14.66-.669 4.08-4.083 5.1-13.815 5.31-16.735a4.03 4.03 0 0 0-1.18-3.133zm-47.39 4.348v-5.521h15.45v5.521c0 4.262-3.46 7.729-7.72 7.729-4.27 0-7.73-3.467-7.73-7.729zm41.7 13.954c-2.73 2.705-10.29 1.643-10.29 1.643-.26-.234-.68-.563-1.33-1.06l9.34-9.341c.43-.431.43-1.131 0-1.561s-1.13-.431-1.56 0l-9.34 9.341c-.49-.634-.82-1.049-1.05-1.312a8.91 8.91 0 0 1 1.63-10.304c2.78-2.78 9.98-4.253 15.29-4.668.65-.071 2.27.821 1.97 1.961-.14 1.917-1.03 11.666-4.66 15.299v.002z" fill="#000"/></g><g clip-path="url(#L)"><path d="M1376.02 286.478c-2.99 0-5.42 2.385-5.42 5.313s2.43 5.312 5.42 5.312c2.98 0 5.41-2.384 5.41-5.312s-2.43-5.313-5.41-5.313zm0 8.5c-1.8 0-3.25-1.43-3.25-3.187s1.45-3.188 3.25-3.188c1.79 0 3.25 1.43 3.25 3.188s-1.46 3.187-3.25 3.187zm6.86-14.875h-13.76l-6.88 11.688 6.88 11.687h13.76l6.88-11.687-6.88-11.688zm-1.25 21.25h-11.26l-5.63-9.562 5.63-9.563h11.26l5.63 9.563-5.63 9.562zm-17.53-43.122v-5.753h-26v5.753l6.5 6.375v32.446l6.5 6.375 6.5-6.375v-32.446l6.5-6.375zm-9.51 6.997l-7.82 7.674v-7.674h7.82zm.84 5.521l-8.66 8.81v-3.653l8.66-8.5v3.343zm-8.66 11.87l8.66-8.81v3.315l-8.66 8.81v-3.315zm0 6.375l8.66-8.81v3.353l-8.66 8.811v-3.354zm-6.5-34.391h21.66v2.748l-5.86 5.752h-9.94l-5.86-5.752v-2.748zm10.83 45.82l-4.33-4.25v-.765l8.66-8.811v3.313l-5 5.066h3.01l1.99-2.014v3.208l-4.33 4.253z" fill="#000"/></g><g stroke-linecap="round" stroke-width=".5"><path stroke="url(#D)" d="M 150.66301 363.45201 L 378.774 363.452"/><path stroke="url(#E)" d="M 974.70701 371.00701 L 1202.82 371.007"/><path stroke="url(#F)" d="M 418.70801 363.45201 L 646.819 363.452"/><path stroke="url(#G)" d="M 1249.8500099999999 371.00701 L 1477.96 371.007"/><path stroke="url(#H)" d="M 686.75401 363.45201 L 914.864 363.452"/><path stroke="url(#I)" d="M 1517.90001 371.00701 L 1746.01 371.007"/></g><path d="M1651.1 218.478h76v76.652l-49.49 5.348-26.51-5.348v-76.652z" fill="#fff"/><g fill="#1e1e1e"><path d="M199.522 400.66h4.837l6.477 15.81h.256l6.477-15.81h4.837v21.818h-3.793v-14.989h-.203l-6.029 14.925h-2.834l-6.03-14.957h-.202v15.021h-3.793V400.66zm31.726 22.149c-1.037 0-1.971-.185-2.802-.554-.824-.377-1.477-.931-1.96-1.662-.476-.732-.714-1.634-.714-2.706 0-.924.17-1.687.511-2.291a3.96 3.96 0 0 1 1.396-1.449c.589-.362 1.253-.635 1.992-.82a16.13 16.13 0 0 1 2.312-.415l2.333-.267c.597-.085 1.03-.213 1.3-.383.277-.178.415-.451.415-.821v-.064c0-.802-.238-1.424-.714-1.864s-1.161-.66-2.056-.66c-.944 0-1.694.206-2.248.617-.546.412-.916.899-1.107 1.46l-3.601-.511c.284-.995.752-1.826 1.406-2.493a6.11 6.11 0 0 1 2.397-1.513c.945-.341 1.989-.511 3.132-.511a10.18 10.18 0 0 1 2.354.277c.782.184 1.495.49 2.142.916a4.6 4.6 0 0 1 1.555 1.715c.398.724.597 1.63.597 2.717v10.951h-3.708v-2.248h-.127c-.235.455-.565.881-.991 1.279-.419.39-.948.706-1.588.948-.632.234-1.374.352-2.226.352zm1.001-2.834c.774 0 1.446-.153 2.014-.458.568-.313 1.005-.725 1.31-1.236.313-.512.469-1.069.469-1.673v-1.928c-.121.099-.327.192-.618.277a8.82 8.82 0 0 1-.959.224l-1.055.17-.905.128c-.575.078-1.09.206-1.545.384s-.813.426-1.076.745c-.263.313-.394.718-.394 1.215 0 .71.259 1.246.778 1.608s1.179.544 1.981.544zm18.654 2.823c-1.633 0-3.036-.359-4.208-1.076-1.164-.717-2.063-1.708-2.695-2.972-.625-1.272-.938-2.735-.938-4.39 0-1.662.32-3.128.959-4.399.639-1.279 1.541-2.273 2.706-2.983 1.172-.718 2.557-1.076 4.155-1.076 1.328 0 2.504.245 3.526.735 1.03.483 1.85 1.168 2.461 2.056.611.88.959 1.91 1.044 3.089h-3.686c-.149-.788-.504-1.445-1.065-1.971-.554-.532-1.296-.799-2.227-.799-.788 0-1.48.213-2.077.64-.597.419-1.062 1.022-1.396 1.811-.326.788-.49 1.733-.49 2.833 0 1.116.164 2.074.49 2.877.327.795.785 1.41 1.375 1.843.596.426 1.296.639 2.098.639.569 0 1.076-.106 1.524-.319a3.08 3.08 0 0 0 1.14-.949c.305-.412.515-.912.628-1.502h3.686c-.092 1.158-.433 2.184-1.022 3.079-.59.888-1.392 1.584-2.408 2.088-1.016.497-2.209.746-3.58.746zm22.205-16.14c-.1-.93-.519-1.655-1.257-2.173-.732-.519-1.684-.778-2.855-.778-.824 0-1.531.124-2.121.373s-1.04.586-1.352 1.012-.473.913-.48 1.459c0 .455.103.849.309 1.183a2.82 2.82 0 0 0 .863.852 6.12 6.12 0 0 0 1.204.576c.44.156.884.287 1.331.394l2.046.511c.824.192 1.616.451 2.376.778a8.33 8.33 0 0 1 2.056 1.236 5.48 5.48 0 0 1 1.449 1.8c.355.703.532 1.527.532 2.472 0 1.278-.326 2.404-.98 3.377-.653.966-1.598 1.722-2.834 2.269-1.228.54-2.716.81-4.463.81-1.698 0-3.172-.263-4.422-.789-1.242-.525-2.215-1.292-2.919-2.301-.696-1.008-1.072-2.237-1.129-3.686h3.889c.056.76.291 1.392.703 1.896a3.73 3.73 0 0 0 1.608 1.13c.668.248 1.414.372 2.238.372.859 0 1.612-.127 2.258-.383.654-.263 1.165-.625 1.534-1.087.37-.469.558-1.015.565-1.64-.007-.569-.174-1.037-.501-1.407-.327-.376-.785-.689-1.374-.937a13.19 13.19 0 0 0-2.046-.682l-2.482-.639c-1.797-.462-3.217-1.161-4.261-2.099-1.037-.944-1.556-2.198-1.556-3.761 0-1.285.348-2.411 1.044-3.377.704-.966 1.659-1.715 2.866-2.248 1.208-.539 2.575-.809 4.102-.809 1.548 0 2.905.27 4.069.809 1.172.533 2.092 1.275 2.76 2.227.667.945 1.012 2.031 1.033 3.26h-3.803zm9.851 21.957c-.525 0-1.012-.043-1.459-.128-.44-.078-.792-.171-1.055-.277l.895-3.004c.561.163 1.062.241 1.502.234s.828-.146 1.162-.416c.34-.262.628-.703.862-1.321l.331-.884-5.934-16.704h4.091l3.771 12.358h.17l3.782-12.358h4.102l-6.552 18.345c-.305.866-.71 1.608-1.214 2.226a4.95 4.95 0 0 1-1.854 1.428c-.725.334-1.591.501-2.6.501zm18.745-15.725v9.588h-3.856v-16.363h3.686v2.78h.191a4.68 4.68 0 0 1 1.801-2.184c.831-.54 1.857-.809 3.079-.809 1.129 0 2.113.241 2.951.724.845.483 1.498 1.183 1.96 2.099.469.916.7 2.027.692 3.334v10.419h-3.856v-9.822c0-1.094-.284-1.95-.852-2.568-.561-.618-1.339-.926-2.333-.926-.675 0-1.275.149-1.801.447-.518.291-.927.714-1.225 1.268-.291.554-.437 1.225-.437 2.013zm21.563 9.908c-1.634 0-3.037-.359-4.208-1.076-1.165-.717-2.064-1.708-2.696-2.972-.625-1.272-.937-2.735-.937-4.39 0-1.662.319-3.128.959-4.399.639-1.279 1.541-2.273 2.706-2.983 1.171-.718 2.556-1.076 4.154-1.076 1.328 0 2.504.245 3.527.735 1.029.483 1.85 1.168 2.461 2.056.61.88.958 1.91 1.044 3.089h-3.686c-.15-.788-.505-1.445-1.066-1.971-.554-.532-1.296-.799-2.226-.799-.789 0-1.481.213-2.078.64-.596.419-1.062 1.022-1.395 1.811-.327.788-.49 1.733-.49 2.833 0 1.116.163 2.074.49 2.877.326.795.784 1.41 1.374 1.843.596.426 1.296.639 2.099.639.568 0 1.076-.106 1.523-.319.455-.221.835-.537 1.14-.949s.515-.912.629-1.502h3.686c-.093 1.158-.434 2.184-1.023 3.079-.59.888-1.392 1.584-2.408 2.088-1.015.497-2.209.746-3.579.746zm716.143-14.138h3.92v15.341c0 1.406-.3 2.617-.89 3.633-.59 1.008-1.42 1.786-2.47 2.333-1.06.54-2.28.81-3.68.81-1.28 0-2.43-.228-3.45-.682-1.02-.462-1.82-1.144-2.42-2.046s-.89-2.024-.89-3.366h3.93c0 .589.13 1.097.38 1.523.26.426.61.753 1.05.98.45.228.97.341 1.55.341.63 0 1.17-.131 1.61-.394.44-.27.77-.668 1-1.193s.35-1.172.36-1.939V408.66zm18.47 14.936v-9.481h3.86v16.363H1058v-2.908h-.17c-.37.916-.98 1.665-1.83 2.248-.83.582-1.87.873-3.1.873-1.07 0-2.02-.238-2.84-.713-.82-.483-1.46-1.183-1.92-2.099-.46-.923-.69-2.039-.69-3.345v-10.419h3.86v9.822c0 1.037.28 1.861.85 2.472s1.31.916 2.24.916c.56 0 1.11-.139 1.65-.416.53-.277.97-.689 1.31-1.235.35-.554.52-1.247.52-2.078zm11.68-2.706v9.588h-3.86v-16.363h3.69v2.78h.19a4.72 4.72 0 0 1 1.8-2.184c.83-.54 1.86-.809 3.08-.809 1.13 0 2.11.241 2.95.724.85.483 1.5 1.183 1.96 2.099.47.916.7 2.027.69 3.334v10.419h-3.85v-9.822c0-1.094-.29-1.95-.86-2.568-.56-.618-1.34-.926-2.33-.926-.67 0-1.27.149-1.8.447a3.03 3.03 0 0 0-1.22 1.268c-.3.554-.44 1.225-.44 2.013zm21.56 9.908c-1.63 0-3.04-.359-4.21-1.076-1.16-.717-2.06-1.708-2.69-2.972-.63-1.272-.94-2.735-.94-4.39 0-1.662.32-3.128.96-4.399.64-1.279 1.54-2.273 2.7-2.983 1.18-.718 2.56-1.076 4.16-1.076 1.33 0 2.5.245 3.53.735 1.03.483 1.85 1.168 2.46 2.056.61.88.96 1.91 1.04 3.089h-3.69a3.47 3.47 0 0 0-1.06-1.971c-.55-.532-1.3-.799-2.23-.799-.79 0-1.48.213-2.07.64-.6.419-1.07 1.022-1.4 1.811s-.49 1.733-.49 2.833c0 1.116.16 2.074.49 2.877.33.795.78 1.41 1.37 1.843.6.426 1.3.639 2.1.639.57 0 1.08-.106 1.53-.319.45-.221.83-.537 1.14-.949.3-.412.51-.912.62-1.502h3.69c-.09 1.158-.43 2.184-1.02 3.079-.59.888-1.39 1.584-2.41 2.088-1.02.497-2.21.746-3.58.746zm18.35-16.683v2.983h-9.41v-2.983h9.41zm-7.09-3.921h3.86v15.362c0 .519.08.917.24 1.194a1.25 1.25 0 0 0 .63.554c.27.099.56.149.88.149.24 0 .46-.018.66-.054l.47-.095.65 3.014c-.21.071-.5.15-.89.235-.37.085-.84.135-1.38.149-.97.028-1.84-.117-2.61-.437-.78-.327-1.39-.831-1.85-1.513-.44-.681-.66-1.534-.66-2.556v-16.002zm10.31 20.284v-16.363h3.86v16.363h-3.86zm1.94-18.686c-.61 0-1.13-.202-1.57-.607-.44-.412-.66-.906-.66-1.481 0-.582.22-1.076.66-1.481a2.21 2.21 0 0 1 1.57-.618c.62 0 1.15.206 1.58.618.44.405.66.899.66 1.481 0 .575-.22 1.069-.66 1.481-.43.405-.96.607-1.58.607zm13.02 19.006c-1.59 0-2.98-.352-4.15-1.055s-2.08-1.687-2.73-2.951c-.64-1.264-.96-2.741-.96-4.432s.32-3.171.96-4.442c.65-1.271 1.56-2.259 2.73-2.962s2.56-1.054 4.15-1.054c1.6 0 2.99.351 4.16 1.054s2.08 1.691 2.72 2.962.96 2.752.96 4.442-.32 3.168-.96 4.432-1.55 2.248-2.72 2.951-2.56 1.055-4.16 1.055zm.03-3.09c.86 0 1.59-.238 2.17-.713.58-.483 1.01-1.13 1.3-1.939s.44-1.712.44-2.706c0-1.002-.15-1.907-.44-2.717-.29-.817-.72-1.467-1.3-1.949s-1.31-.725-2.17-.725c-.89 0-1.63.242-2.22.725-.58.482-1.02 1.132-1.31 1.949-.29.81-.43 1.715-.43 2.717 0 .994.14 1.896.43 2.706s.73 1.456 1.31 1.939c.59.475 1.33.713 2.22.713zm14.94-6.818v9.588h-3.85v-16.363h3.68v2.78h.2c.37-.916.97-1.644 1.8-2.184s1.85-.809 3.08-.809c1.12 0 2.11.241 2.95.724s1.49 1.183 1.96 2.099.7 2.027.69 3.334v10.419h-3.86v-9.822c0-1.094-.28-1.95-.85-2.568-.56-.618-1.34-.926-2.33-.926-.68 0-1.28.149-1.8.447-.52.291-.93.714-1.23 1.268-.29.554-.44 1.225-.44 2.013zm-83.87 45.588V444.66h8.36c1.57 0 2.88.249 3.93.746 1.05.49 1.83 1.161 2.35 2.013.53.853.79 1.819.79 2.898 0 .888-.17 1.648-.51 2.28-.34.625-.8 1.133-1.38 1.523-.57.391-1.21.671-1.92.842v.213c.77.043 1.51.281 2.22.714a4.9 4.9 0 0 1 1.76 1.811c.45.781.68 1.726.68 2.834 0 1.129-.27 2.145-.82 3.047-.55.894-1.37 1.601-2.47 2.12s-2.49.777-4.16.777h-8.83zm3.96-3.302h4.25c1.43 0 2.46-.274 3.1-.821.64-.554.96-1.264.96-2.13 0-.647-.16-1.229-.48-1.747-.32-.526-.78-.938-1.37-1.236-.59-.306-1.29-.458-2.11-.458h-4.35v6.392zm0-9.237h3.91a4.4 4.4 0 0 0 1.84-.373c.55-.255.97-.614 1.29-1.076.32-.468.48-1.022.48-1.662 0-.845-.3-1.541-.9-2.088-.59-.547-1.46-.82-2.63-.82h-3.99v6.019zm22.73 12.859c-1.6 0-2.99-.352-4.16-1.055s-2.08-1.687-2.72-2.951-.96-2.741-.96-4.432.32-3.171.96-4.442 1.55-2.259 2.72-2.962 2.56-1.054 4.16-1.054 2.98.351 4.15 1.054 2.08 1.691 2.72 2.962.97 2.752.97 4.442-.33 3.168-.97 4.432-1.55 2.248-2.72 2.951-2.55 1.055-4.15 1.055zm.02-3.09c.86 0 1.59-.238 2.17-.713.58-.483 1.02-1.13 1.3-1.939.29-.81.44-1.712.44-2.706 0-1.002-.15-1.907-.44-2.717-.28-.817-.72-1.467-1.3-1.949s-1.31-.725-2.17-.725c-.89 0-1.63.242-2.22.725-.58.482-1.02 1.132-1.31 1.949-.28.81-.42 1.715-.42 2.717 0 .994.14 1.896.42 2.706.29.809.73 1.456 1.31 1.939.59.475 1.33.713 2.22.713zm13.63-13.593l3.3 6.04 3.36-6.04h4.08l-4.93 8.181 5.01 8.182h-4.06l-3.46-5.891-3.43 5.891h-4.09l4.99-8.182-4.86-8.181h4.09zm18.59 6.818l.24-4.315-3.62 2.376-1.3-2.259 3.87-1.939-3.87-1.938 1.3-2.259 3.62 2.376-.24-4.315h2.59l-.24 4.315 3.63-2.376 1.3 2.259-3.88 1.938 3.88 1.939-1.3 2.259-3.63-2.376.24 4.315h-2.59z"/><path d="M457.483 400.66h4.837l6.477 15.81h.256l6.477-15.81h4.837v21.818h-3.793v-14.989h-.202l-6.03 14.925h-2.834l-6.03-14.957h-.202v15.021h-3.793V400.66zm34.155 22.138c-1.598 0-2.983-.352-4.155-1.055s-2.081-1.687-2.727-2.951c-.639-1.264-.959-2.741-.959-4.432s.32-3.171.959-4.442c.646-1.271 1.555-2.259 2.727-2.962s2.557-1.054 4.155-1.054 2.983.351 4.155 1.054 2.077 1.691 2.716 2.962c.647 1.271.97 2.752.97 4.442s-.323 3.168-.97 4.432c-.639 1.264-1.544 2.248-2.716 2.951s-2.557 1.055-4.155 1.055zm.021-3.09c.867 0 1.591-.238 2.174-.713.582-.483 1.015-1.13 1.299-1.939.291-.81.437-1.712.437-2.706 0-1.002-.146-1.907-.437-2.717-.284-.817-.717-1.467-1.299-1.949s-1.307-.725-2.174-.725c-.888 0-1.626.242-2.216.725-.582.482-1.019 1.132-1.31 1.949-.284.81-.426 1.715-.426 2.717 0 .994.142 1.896.426 2.706.291.809.728 1.456 1.31 1.939.59.475 1.328.713 2.216.713zm21.523-4.112v-9.481h3.856v16.363h-3.739v-2.908h-.171c-.369.916-.976 1.665-1.821 2.248-.838.582-1.872.873-3.1.873-1.073 0-2.021-.238-2.845-.713-.817-.483-1.456-1.183-1.917-2.099-.462-.923-.693-2.039-.693-3.345v-10.419h3.857v9.822c0 1.037.284 1.861.852 2.472s1.314.916 2.237.916c.568 0 1.119-.139 1.651-.416s.97-.689 1.311-1.235c.348-.554.522-1.247.522-2.078zm11.679-2.706v9.588h-3.857v-16.363h3.686v2.78h.192c.376-.916.976-1.644 1.8-2.184.831-.54 1.858-.809 3.079-.809 1.129 0 2.113.241 2.951.724.845.483 1.499 1.183 1.96 2.099.469.916.7 2.027.693 3.334v10.419h-3.857v-9.822c0-1.094-.284-1.95-.852-2.568-.561-.618-1.339-.926-2.333-.926-.675 0-1.275.149-1.801.447-.518.291-.926.714-1.225 1.268-.291.554-.436 1.225-.436 2.013zm22.595-6.775v2.983h-9.407v-2.983h9.407zm-7.084-3.921h3.856v15.362c0 .519.079.917.235 1.194.163.269.376.454.639.554a2.44 2.44 0 0 0 .874.149 3.72 3.72 0 0 0 .66-.054l.469-.095.65 3.014c-.206.071-.501.15-.884.235-.377.085-.839.135-1.385.149-.966.028-1.836-.117-2.611-.437-.774-.327-1.388-.831-1.843-1.513-.447-.681-.667-1.534-.66-2.556v-16.002zm10.31 20.284v-16.363h3.856v16.363h-3.856zm1.939-18.686c-.611 0-1.137-.202-1.577-.607-.44-.412-.661-.906-.661-1.481 0-.582.221-1.076.661-1.481.44-.412.966-.618 1.577-.618a2.2 2.2 0 0 1 1.576.618c.441.405.661.899.661 1.481 0 .575-.22 1.069-.661 1.481-.433.405-.958.607-1.576.607zm9.74 9.098v9.588h-3.857v-16.363h3.686v2.78h.192c.376-.916.976-1.644 1.8-2.184.831-.54 1.858-.809 3.079-.809 1.129 0 2.113.241 2.951.724.845.483 1.499 1.183 1.96 2.099.469.916.7 2.027.693 3.334v10.419h-3.857v-9.822c0-1.094-.284-1.95-.852-2.568-.561-.618-1.339-.926-2.333-.926-.675 0-1.275.149-1.801.447-.518.291-.926.714-1.225 1.268-.291.554-.436 1.225-.436 2.013zm21.541 16.066c-1.385 0-2.575-.189-3.569-.565-.994-.369-1.793-.867-2.397-1.492s-1.023-1.317-1.257-2.077l3.473-.842a3.8 3.8 0 0 0 .682.949c.298.319.699.582 1.203.788.512.213 1.155.32 1.929.32 1.093 0 1.999-.267 2.716-.799.718-.526 1.076-1.393 1.076-2.6v-3.1h-.191c-.199.398-.491.806-.874 1.225-.376.419-.877.771-1.502 1.055-.618.284-1.396.426-2.333.426-1.257 0-2.397-.295-3.42-.884-1.016-.597-1.825-1.485-2.429-2.664-.597-1.186-.895-2.67-.895-4.453 0-1.797.298-3.313.895-4.549.604-1.243 1.417-2.184 2.44-2.823 1.022-.646 2.162-.969 3.419-.969.959 0 1.748.163 2.365.49.625.319 1.123.706 1.492 1.161.369.447.65.87.842 1.268h.213v-2.706h3.803v16.63c0 1.399-.334 2.556-1.002 3.473s-1.58 1.601-2.737 2.056-2.472.682-3.942.682zm.032-9.738c.816 0 1.512-.199 2.088-.596s1.012-.97 1.31-1.715.448-1.641.448-2.685c0-1.03-.15-1.932-.448-2.706-.291-.774-.724-1.374-1.3-1.801-.568-.433-1.267-.649-2.098-.649-.86 0-1.577.223-2.152.671s-1.009 1.062-1.3 1.843c-.291.774-.437 1.655-.437 2.642 0 1.001.146 1.878.437 2.631.298.746.735 1.328 1.31 1.747.583.412 1.297.618 2.142.618zm-63.288 24.804h-3.985a4.95 4.95 0 0 0-.628-1.737c-.306-.511-.685-.945-1.14-1.3s-.973-.621-1.555-.799c-.576-.184-1.197-.277-1.865-.277-1.186 0-2.237.299-3.153.895-.916.59-1.634 1.456-2.152 2.6-.519 1.136-.778 2.525-.778 4.165 0 1.669.259 3.075.778 4.219.525 1.136 1.243 1.996 2.152 2.578.916.575 1.964.863 3.143.863.653 0 1.264-.085 1.832-.256a5.01 5.01 0 0 0 1.545-.777 4.58 4.58 0 0 0 1.161-1.258c.32-.497.54-1.065.66-1.704l3.985.021c-.149 1.037-.472 2.01-.97 2.919-.49.909-1.132 1.712-1.928 2.408-.795.689-1.726 1.229-2.791 1.619-1.065.384-2.248.576-3.548.576-1.917 0-3.629-.444-5.135-1.332s-2.691-2.17-3.558-3.846-1.3-3.686-1.3-6.03c0-2.351.437-4.361 1.311-6.03.873-1.676 2.063-2.958 3.569-3.846s3.21-1.331 5.113-1.331c1.215 0 2.344.17 3.388.511a8.68 8.68 0 0 1 2.791 1.502c.817.654 1.488 1.456 2.014 2.408.532.945.88 2.024 1.044 3.239zm7.305-7.362v21.818h-3.856V436.66h3.856zm3.966 21.818v-16.363h3.857v16.363h-3.857zm1.939-18.686a2.25 2.25 0 0 1-1.577-.607c-.44-.412-.66-.906-.66-1.481 0-.582.22-1.076.66-1.481a2.23 2.23 0 0 1 1.577-.618c.618 0 1.143.206 1.577.618.44.405.66.899.66 1.481 0 .575-.22 1.069-.66 1.481-.434.405-.959.607-1.577.607zm5.883 24.823v-22.5h3.793v2.706h.224c.199-.398.479-.821.841-1.268.363-.455.853-.842 1.471-1.161.617-.327 1.406-.49 2.365-.49 1.264 0 2.404.323 3.419.969 1.023.639 1.833 1.587 2.429 2.844.604 1.25.906 2.785.906 4.603 0 1.797-.295 3.324-.884 4.581s-1.392 2.216-2.408 2.876-2.166.991-3.452.991c-.937 0-1.715-.156-2.333-.469s-1.115-.689-1.491-1.129c-.37-.448-.657-.87-.863-1.268h-.16v8.715h-3.857zm3.782-14.319c0 1.059.149 1.986.448 2.781.305.795.742 1.417 1.31 1.864.575.441 1.271.661 2.088.661.852 0 1.566-.227 2.142-.682.575-.462 1.008-1.09 1.299-1.886.299-.802.448-1.715.448-2.738 0-1.015-.146-1.917-.437-2.706s-.725-1.406-1.3-1.853-1.292-.671-2.152-.671c-.824 0-1.523.216-2.099.649s-1.012 1.041-1.31 1.822c-.291.781-.437 1.701-.437 2.759zM1292.8 408.66h4.84l6.48 15.81h.25l6.48-15.81h4.84v21.818h-3.79v-14.989h-.21l-6.03 14.925h-2.83l-6.03-14.957h-.2v15.021h-3.8V408.66zm34.16 22.138c-1.6 0-2.98-.352-4.16-1.055-1.17-.703-2.08-1.687-2.72-2.951s-.96-2.741-.96-4.432.32-3.171.96-4.442 1.55-2.259 2.72-2.962c1.18-.703 2.56-1.054 4.16-1.054s2.98.351 4.15 1.054c1.18.703 2.08 1.691 2.72 2.962.65 1.271.97 2.752.97 4.442s-.32 3.168-.97 4.432c-.64 1.264-1.54 2.248-2.72 2.951-1.17.703-2.55 1.055-4.15 1.055zm.02-3.09c.87 0 1.59-.238 2.17-.713.59-.483 1.02-1.13 1.3-1.939.3-.81.44-1.712.44-2.706 0-1.002-.14-1.907-.44-2.717-.28-.817-.71-1.467-1.3-1.949-.58-.483-1.3-.725-2.17-.725-.89 0-1.63.242-2.22.725-.58.482-1.01 1.132-1.31 1.949-.28.81-.42 1.715-.42 2.717 0 .994.14 1.896.42 2.706.3.809.73 1.456 1.31 1.939.59.475 1.33.713 2.22.713zm21.52-4.112v-9.481h3.86v16.363h-3.74v-2.908h-.17c-.37.916-.98 1.665-1.82 2.248s-1.87.873-3.1.873c-1.07 0-2.02-.238-2.85-.713-.81-.483-1.45-1.183-1.91-2.099-.47-.923-.7-2.039-.7-3.345v-10.419h3.86v9.822c0 1.037.28 1.861.85 2.472s1.32.916 2.24.916a3.52 3.52 0 0 0 1.65-.416c.53-.277.97-.689 1.31-1.235.35-.554.52-1.247.52-2.078zm11.68-2.706v9.588h-3.85v-16.363h3.68v2.78h.19a4.72 4.72 0 0 1 1.8-2.184c.83-.54 1.86-.809 3.08-.809 1.13 0 2.12.241 2.95.724.85.483 1.5 1.183 1.96 2.099.47.916.7 2.027.7 3.334v10.419h-3.86v-9.822c0-1.094-.28-1.95-.85-2.568-.56-.618-1.34-.926-2.34-.926-.67 0-1.27.149-1.8.447-.51.291-.92.714-1.22 1.268-.29.554-.44 1.225-.44 2.013zm22.6-6.775v2.983h-9.41v-2.983h9.41zm-7.09-3.921h3.86v15.362c0 .519.08.917.23 1.194.17.269.38.454.64.554.27.099.56.149.88.149.24 0 .46-.018.66-.054l.47-.095.65 3.014c-.21.071-.5.15-.89.235-.37.085-.84.135-1.38.149-.97.028-1.84-.117-2.61-.437-.78-.327-1.39-.831-1.85-1.513-.44-.681-.66-1.534-.66-2.556v-16.002zm10.31 20.284v-16.363h3.86v16.363H1386zm1.94-18.686c-.61 0-1.13-.202-1.57-.607-.44-.412-.66-.906-.66-1.481 0-.582.22-1.076.66-1.481a2.21 2.21 0 0 1 1.57-.618c.62 0 1.15.206 1.58.618.44.405.66.899.66 1.481 0 .575-.22 1.069-.66 1.481-.43.405-.96.607-1.58.607zm9.74 9.098v9.588h-3.85v-16.363h3.68v2.78h.19a4.72 4.72 0 0 1 1.8-2.184c.83-.54 1.86-.809 3.08-.809 1.13 0 2.12.241 2.95.724.85.483 1.5 1.183 1.96 2.099.47.916.7 2.027.7 3.334v10.419h-3.86v-9.822c0-1.094-.28-1.95-.85-2.568-.56-.618-1.34-.926-2.34-.926-.67 0-1.27.149-1.8.447-.51.291-.92.714-1.22 1.268-.29.554-.44 1.225-.44 2.013zm21.54 16.066c-1.38 0-2.57-.189-3.57-.565-.99-.369-1.79-.867-2.39-1.492-.61-.625-1.03-1.317-1.26-2.077l3.47-.842c.16.32.39.636.69.949.29.319.69.582 1.2.788.51.213 1.15.32 1.93.32 1.09 0 2-.267 2.71-.799.72-.526 1.08-1.393 1.08-2.6v-3.1h-.19c-.2.398-.49.806-.88 1.225-.37.419-.87.771-1.5 1.055-.62.284-1.39.426-2.33.426-1.26 0-2.4-.295-3.42-.884-1.02-.597-1.83-1.485-2.43-2.664-.6-1.186-.89-2.67-.89-4.453 0-1.797.29-3.313.89-4.549.6-1.243 1.42-2.184 2.44-2.823 1.02-.646 2.16-.969 3.42-.969.96 0 1.75.163 2.37.49.62.319 1.12.706 1.49 1.161.37.447.65.87.84 1.268h.21v-2.706h3.8v16.63c0 1.399-.33 2.556-1 3.473-.66.916-1.58 1.601-2.73 2.056-1.16.454-2.48.682-3.95.682zm.04-9.738c.81 0 1.51-.199 2.08-.596.58-.398 1.02-.97 1.31-1.715.3-.746.45-1.641.45-2.685 0-1.03-.15-1.932-.45-2.706-.29-.774-.72-1.374-1.3-1.801-.56-.433-1.26-.649-2.09-.649-.86 0-1.58.223-2.16.671-.57.447-1.01 1.062-1.3 1.843-.29.774-.43 1.655-.43 2.642 0 1.001.14 1.878.43 2.631.3.746.74 1.328 1.31 1.747.59.412 1.3.618 2.15.618zm-99.13 23.44c-.1-.93-.52-1.655-1.26-2.173-.73-.519-1.68-.778-2.85-.778-.83 0-1.53.124-2.12.373s-1.04.586-1.35 1.012c-.32.426-.48.913-.48 1.459 0 .455.1.849.31 1.183s.5.618.86.852a6.06 6.06 0 0 0 1.2.576 13.66 13.66 0 0 0 1.33.394l2.05.511a14.14 14.14 0 0 1 2.37.778 8.23 8.23 0 0 1 2.06 1.236 5.56 5.56 0 0 1 1.45 1.8c.35.703.53 1.527.53 2.472 0 1.278-.32 2.404-.98 3.377-.65.966-1.6 1.722-2.83 2.269-1.23.54-2.72.81-4.47.81-1.69 0-3.17-.263-4.42-.789-1.24-.525-2.21-1.292-2.92-2.301-.69-1.008-1.07-2.237-1.12-3.686h3.88c.06.76.29 1.392.71 1.896.41.505.94.881 1.61 1.13.66.248 1.41.372 2.23.372.86 0 1.61-.127 2.26-.383.65-.263 1.17-.625 1.54-1.087.36-.469.55-1.015.56-1.64-.01-.569-.17-1.037-.5-1.407-.33-.376-.79-.689-1.38-.937-.58-.256-1.26-.483-2.04-.682l-2.48-.639c-1.8-.462-3.22-1.161-4.26-2.099-1.04-.944-1.56-2.198-1.56-3.761 0-1.285.35-2.411 1.04-3.377.71-.966 1.66-1.715 2.87-2.248 1.21-.539 2.57-.809 4.1-.809 1.55 0 2.91.27 4.07.809 1.17.533 2.09 1.275 2.76 2.227.67.945 1.01 2.031 1.03 3.26h-3.8zm14.59 16.14c-1.63 0-3.03-.359-4.2-1.076s-2.07-1.708-2.7-2.972c-.63-1.272-.94-2.735-.94-4.39 0-1.662.32-3.128.96-4.399.64-1.279 1.54-2.273 2.71-2.983 1.17-.718 2.55-1.076 4.15-1.076 1.33 0 2.51.245 3.53.735 1.03.483 1.85 1.168 2.46 2.056.61.88.96 1.91 1.04 3.089h-3.68c-.15-.788-.51-1.445-1.07-1.971-.55-.532-1.29-.799-2.22-.799-.79 0-1.49.213-2.08.64-.6.419-1.06 1.022-1.4 1.811-.32.788-.49 1.733-.49 2.833 0 1.116.17 2.074.49 2.877.33.795.79 1.41 1.38 1.843.59.426 1.29.639 2.1.639a3.52 3.52 0 0 0 1.52-.319c.45-.221.83-.537 1.14-.949.3-.412.51-.912.63-1.502h3.68c-.09 1.158-.43 2.184-1.02 3.079-.59.888-1.39 1.584-2.41 2.088-1.01.497-2.21.746-3.58.746zm10.18-.32v-16.363h3.74v2.727h.17c.3-.945.81-1.673 1.53-2.184a4.25 4.25 0 0 1 2.51-.778l.71.032c.27.014.49.039.67.075v3.547c-.16-.056-.42-.106-.78-.149a7.11 7.11 0 0 0-1.01-.074c-.7 0-1.33.152-1.89.458-.56.298-.99.714-1.31 1.246s-.48 1.147-.48 1.843v9.62h-3.86zm18.46.32c-1.64 0-3.05-.341-4.25-1.023a6.95 6.95 0 0 1-2.73-2.919c-.64-1.264-.96-2.752-.96-4.464 0-1.683.32-3.16.96-4.431.64-1.279 1.54-2.273 2.7-2.983 1.16-.718 2.52-1.076 4.08-1.076 1.01 0 1.96.163 2.86.49a6.36 6.36 0 0 1 2.38 1.491c.7.675 1.25 1.534 1.64 2.578.4 1.037.6 2.273.6 3.708v1.182h-13.41v-2.599h9.71c0-.739-.16-1.396-.47-1.971a3.49 3.49 0 0 0-1.32-1.374c-.55-.334-1.2-.501-1.93-.501-.79 0-1.49.192-2.08.575-.6.377-1.06.874-1.4 1.492-.32.61-.49 1.282-.5 2.013v2.269c0 .952.18 1.769.52 2.451a3.77 3.77 0 0 0 1.46 1.555c.63.355 1.36.533 2.2.533.56 0 1.07-.079 1.52-.235.46-.163.85-.401 1.18-.714.34-.312.59-.699.76-1.161l3.6.405a5.63 5.63 0 0 1-1.3 2.493c-.63.703-1.44 1.25-2.43 1.641-.98.383-2.11.575-3.39.575zm13.83-.32l-4.62-16.363h3.93l2.88 11.505h.15l2.94-11.505h3.88l2.95 11.441h.16l2.83-11.441h3.94l-4.63 16.363h-4.02l-3.07-11.058h-.22l-3.07 11.058h-4.03zm34.67-12.038l-3.52.383a2.81 2.81 0 0 0-.52-1.001c-.24-.312-.57-.565-.98-.756s-.92-.288-1.51-.288c-.81 0-1.48.174-2.03.522-.54.348-.8.799-.8 1.353 0 .476.17.863.52 1.161.37.299.96.544 1.79.735l2.8.597c1.54.334 2.69.863 3.45 1.587s1.14 1.673 1.15 2.845c-.01 1.03-.31 1.939-.91 2.727-.59.781-1.41 1.392-2.46 1.832s-2.26.661-3.62.661c-2 0-3.62-.419-4.84-1.257-1.22-.845-1.95-2.021-2.18-3.527l3.76-.362c.17.739.53 1.296 1.09 1.673.55.376 1.27.564 2.16.564.92 0 1.65-.188 2.2-.564.57-.377.85-.842.85-1.396 0-.468-.19-.856-.55-1.161-.35-.305-.91-.54-1.66-.703l-2.79-.586c-1.57-.327-2.73-.877-3.48-1.651-.76-.782-1.13-1.769-1.12-2.962-.01-1.008.26-1.882.82-2.621.56-.745 1.34-1.321 2.33-1.726 1-.411 2.16-.617 3.46-.617 1.92 0 3.43.408 4.53 1.225 1.11.816 1.79 1.921 2.06 3.313z"/><path d="M711.179 400.66h3.952v14.254c0 1.563-.369 2.937-1.108 4.123-.731 1.186-1.761 2.113-3.089 2.781-1.328.66-2.88.991-4.656.991-1.782 0-3.338-.331-4.666-.991-1.328-.668-2.358-1.595-3.089-2.781s-1.098-2.56-1.098-4.123V400.66h3.953v13.924c0 .909.199 1.719.596 2.429a4.34 4.34 0 0 0 1.705 1.673c.731.397 1.598.596 2.599.596s1.868-.199 2.6-.596c.738-.405 1.306-.963 1.704-1.673s.597-1.52.597-2.429V400.66zm21.011 9.78l-3.516.383c-.099-.355-.273-.688-.522-1.001-.241-.312-.568-.565-.98-.756s-.916-.288-1.513-.288c-.802 0-1.477.174-2.024.522-.539.348-.806.799-.799 1.353-.007.476.167.863.522 1.161.363.299.959.544 1.79.735l2.791.597c1.549.334 2.699.863 3.452 1.587.76.725 1.143 1.673 1.151 2.845a4.45 4.45 0 0 1-.906 2.727c-.589.781-1.41 1.392-2.461 1.832s-2.258.661-3.622.661c-2.003 0-3.615-.419-4.837-1.257-1.221-.845-1.949-2.021-2.184-3.527l3.761-.362c.17.739.533 1.296 1.087 1.673s1.274.564 2.162.564c.916 0 1.652-.188 2.206-.564.561-.377.841-.842.841-1.396 0-.468-.181-.856-.543-1.161-.355-.305-.909-.54-1.662-.703l-2.791-.586c-1.57-.327-2.731-.877-3.484-1.651-.753-.782-1.126-1.769-1.119-2.962-.007-1.008.267-1.882.821-2.621.561-.745 1.338-1.321 2.333-1.726 1.001-.411 2.155-.617 3.462-.617 1.918 0 3.427.408 4.528 1.225 1.108.816 1.793 1.921 2.056 3.313zm10.776 12.358c-1.641 0-3.058-.341-4.251-1.023-1.186-.689-2.099-1.662-2.738-2.919-.639-1.264-.959-2.752-.959-4.464 0-1.683.32-3.16.959-4.431.647-1.279 1.549-2.273 2.706-2.983 1.158-.718 2.518-1.076 4.08-1.076 1.009 0 1.961.163 2.856.49a6.44 6.44 0 0 1 2.386 1.491c.696.675 1.243 1.534 1.641 2.578.397 1.037.596 2.273.596 3.708v1.182H736.83v-2.599h9.715c-.007-.739-.166-1.396-.479-1.971a3.47 3.47 0 0 0-1.31-1.374c-.554-.334-1.201-.501-1.939-.501-.789 0-1.481.192-2.078.575-.596.377-1.061.874-1.395 1.492-.327.61-.494 1.282-.501 2.013v2.269c0 .952.174 1.769.522 2.451.348.674.835 1.193 1.46 1.555.625.355 1.356.533 2.194.533.561 0 1.069-.079 1.524-.235.454-.163.848-.401 1.182-.714a2.97 2.97 0 0 0 .757-1.161l3.6.405a5.61 5.61 0 0 1-1.299 2.493c-.632.703-1.442 1.25-2.429 1.641-.988.383-2.117.575-3.388.575zm10.539-.32v-16.363h3.739v2.727h.171c.298-.945.809-1.673 1.534-2.184.731-.519 1.566-.778 2.503-.778l.714.032a4.68 4.68 0 0 1 .671.075v3.547c-.163-.056-.422-.106-.778-.149-.348-.049-.685-.074-1.012-.074-.703 0-1.335.152-1.896.458a3.35 3.35 0 0 0-1.31 1.246c-.32.533-.48 1.147-.48 1.843v9.62h-3.856zm19.336 0v-16.363h3.686v2.78h.192c.34-.937.905-1.669 1.693-2.194.789-.533 1.73-.799 2.824-.799 1.108 0 2.042.269 2.801.809.768.533 1.307 1.261 1.62 2.184h.17a4.47 4.47 0 0 1 1.833-2.173c.866-.547 1.892-.82 3.078-.82 1.506 0 2.735.475 3.687 1.427s1.427 2.34 1.427 4.166v10.983h-3.867v-10.387c0-1.015-.27-1.758-.81-2.226-.54-.476-1.2-.714-1.981-.714-.931 0-1.659.291-2.184.873-.519.576-.778 1.325-.778 2.248v10.206h-3.782v-10.547c0-.845-.256-1.519-.767-2.024-.504-.504-1.165-.756-1.981-.756-.554 0-1.059.142-1.513.426-.455.277-.817.671-1.087 1.183-.27.504-.405 1.093-.405 1.768v9.95h-3.856zm31.632.331c-1.037 0-1.971-.185-2.801-.554a4.58 4.58 0 0 1-1.961-1.662c-.476-.732-.713-1.634-.713-2.706 0-.924.17-1.687.511-2.291s.806-1.086 1.395-1.449 1.254-.635 1.993-.82a16.12 16.12 0 0 1 2.311-.415l2.334-.267c.596-.085 1.029-.213 1.299-.383.277-.178.416-.451.416-.821v-.064c0-.802-.238-1.424-.714-1.864s-1.161-.66-2.056-.66c-.945 0-1.694.206-2.248.617-.547.412-.916.899-1.108 1.46l-3.601-.511c.284-.995.753-1.826 1.406-2.493.654-.675 1.453-1.179 2.397-1.513.945-.341 1.989-.511 3.133-.511a10.18 10.18 0 0 1 2.354.277 6.61 6.61 0 0 1 2.141.916c.647.419 1.165.991 1.556 1.715.397.724.596 1.63.596 2.717v10.951h-3.707v-2.248h-.128c-.234.455-.565.881-.991 1.279-.419.39-.948.706-1.587.948-.632.234-1.374.352-2.227.352zm1.002-2.834c.774 0 1.445-.153 2.013-.458.568-.313 1.005-.725 1.311-1.236.312-.512.468-1.069.468-1.673v-1.928c-.12.099-.326.192-.618.277-.284.085-.603.16-.958.224l-1.055.17-.906.128c-.575.078-1.09.206-1.544.384s-.813.426-1.076.745c-.263.313-.394.718-.394 1.215 0 .71.259 1.246.777 1.608s1.179.544 1.982.544zm15.373-7.085v9.588h-3.857v-16.363h3.686v2.78h.192a4.68 4.68 0 0 1 1.8-2.184c.831-.54 1.858-.809 3.079-.809 1.129 0 2.113.241 2.951.724.845.483 1.499 1.183 1.96 2.099.469.916.7 2.027.693 3.334v10.419h-3.857v-9.822c0-1.094-.284-1.95-.852-2.568-.561-.618-1.339-.926-2.333-.926-.675 0-1.275.149-1.8.447-.519.291-.927.714-1.226 1.268-.291.554-.436 1.225-.436 2.013zm24.854 2.706v-9.481h3.857v16.363h-3.74v-2.908h-.17a4.93 4.93 0 0 1-1.822 2.248c-.838.582-1.871.873-3.1.873-1.073 0-2.021-.238-2.845-.713-.816-.483-1.456-1.183-1.917-2.099-.462-.923-.693-2.039-.693-3.345v-10.419h3.857v9.822c0 1.037.284 1.861.852 2.472s1.314.916 2.237.916c.569 0 1.119-.139 1.652-.416s.969-.689 1.31-1.235c.348-.554.522-1.247.522-2.078zm12.531 7.213c-1.037 0-1.971-.185-2.802-.554-.824-.377-1.477-.931-1.96-1.662-.476-.732-.714-1.634-.714-2.706 0-.924.171-1.687.512-2.291s.806-1.086 1.395-1.449 1.254-.635 1.992-.82c.746-.192 1.517-.33 2.312-.415l2.333-.267c.597-.085 1.03-.213 1.3-.383.277-.178.416-.451.416-.821v-.064c0-.802-.238-1.424-.714-1.864s-1.161-.66-2.056-.66c-.945 0-1.694.206-2.248.617-.547.412-.916.899-1.108 1.46l-3.601-.511c.284-.995.753-1.826 1.406-2.493.654-.675 1.453-1.179 2.397-1.513.945-.341 1.989-.511 3.132-.511a10.19 10.19 0 0 1 2.355.277 6.61 6.61 0 0 1 2.141.916 4.6 4.6 0 0 1 1.555 1.715c.398.724.597 1.63.597 2.717v10.951h-3.707v-2.248h-.128c-.235.455-.565.881-.991 1.279-.419.39-.948.706-1.587.948-.632.234-1.375.352-2.227.352zm1.002-2.834c.774 0 1.445-.153 2.013-.458.568-.313 1.005-.725 1.31-1.236.313-.512.469-1.069.469-1.673v-1.928c-.121.099-.327.192-.618.277-.284.085-.603.16-.959.224l-1.054.17-.906.128c-.575.078-1.09.206-1.545.384s-.813.426-1.076.745c-.262.313-.394.718-.394 1.215 0 .71.26 1.246.778 1.608s1.179.544 1.982.544zm15.372-19.315v21.818h-3.856V400.66h3.856zm17.927 22.138c-1.491 0-2.773-.27-3.845-.81s-1.9-1.268-2.483-2.184c-.575-.923-.863-1.964-.863-3.121 0-.874.178-1.648.533-2.323.362-.674.859-1.299 1.492-1.875.639-.575 1.377-1.147 2.215-1.715l3.868-2.631c.568-.37.998-.76 1.289-1.172.298-.412.447-.895.447-1.449 0-.469-.199-.913-.596-1.332-.391-.419-.931-.628-1.62-.628-.461 0-.87.11-1.225.33a2.33 2.33 0 0 0-.82.842 2.26 2.26 0 0 0-.288 1.108c0 .475.132.958.394 1.449.27.49.618.997 1.044 1.523l1.385 1.673 10.238 11.995h-4.176l-8.501-9.737-1.833-2.184c-.582-.717-1.062-1.463-1.438-2.237-.369-.781-.554-1.627-.554-2.536 0-1.029.238-1.949.714-2.759.476-.817 1.14-1.459 1.992-1.928.859-.469 1.864-.703 3.015-.703s2.138.227 2.962.682 1.459 1.058 1.907 1.811a4.73 4.73 0 0 1 .671 2.461c0 1.029-.256 1.953-.767 2.769-.512.81-1.222 1.545-2.131 2.206l-4.411 3.228c-.724.525-1.242 1.058-1.555 1.598-.312.532-.469.987-.469 1.363 0 .576.146 1.098.437 1.566s.7.846 1.225 1.13c.533.277 1.154.415 1.865.415a5.5 5.5 0 0 0 2.311-.522c.76-.355 1.453-.859 2.078-1.513s1.122-1.434 1.491-2.343c.37-.917.554-1.932.554-3.047h3.313c0 1.378-.152 2.578-.458 3.601-.305 1.015-.699 1.875-1.182 2.578-.483.696-.994 1.253-1.534 1.672l-.49.363-.49.362c-.767.696-1.666 1.207-2.696 1.534-1.022.327-2.027.49-3.015.49zm-191.455 35.68l-6.157-21.818h4.25l3.932 16.033h.202l4.197-16.033h3.868l4.208 16.044h.191l3.932-16.044h4.25l-6.157 21.818h-3.9l-4.367-15.309h-.171l-4.378 15.309h-3.9zm28.482.331c-1.037 0-1.971-.185-2.802-.554-.823-.377-1.477-.931-1.96-1.662-.476-.732-.714-1.634-.714-2.706 0-.924.171-1.687.512-2.291s.806-1.086 1.395-1.449 1.254-.635 1.993-.82a16.12 16.12 0 0 1 2.311-.415l2.333-.267c.597-.085 1.03-.213 1.3-.383.277-.178.416-.451.416-.821v-.064c0-.802-.238-1.424-.714-1.864s-1.161-.66-2.056-.66c-.945 0-1.694.206-2.248.617-.547.412-.916.899-1.108 1.46l-3.601-.511c.284-.995.753-1.826 1.406-2.493.654-.675 1.453-1.179 2.397-1.513.945-.341 1.989-.511 3.132-.511.789 0 1.574.092 2.355.277a6.61 6.61 0 0 1 2.141.916c.646.419 1.165.991 1.556 1.715.397.724.596 1.63.596 2.717v10.951h-3.707v-2.248h-.128c-.234.455-.565.881-.991 1.279-.419.39-.948.706-1.587.948-.632.234-1.374.352-2.227.352zm1.002-2.834c.774 0 1.445-.153 2.013-.458.568-.313 1.005-.725 1.311-1.236.312-.512.468-1.069.468-1.673v-1.928c-.12.099-.326.192-.618.277-.284.085-.603.16-.958.224l-1.055.17-.906.128c-.575.078-1.09.206-1.544.384s-.814.426-1.076.745c-.263.313-.395.718-.395 1.215 0 .71.26 1.246.778 1.608s1.179.544 1.982.544zm11.516 2.503v-16.363h3.739v2.727h.171c.298-.945.809-1.673 1.534-2.184.731-.519 1.566-.778 2.503-.778l.714.032a4.68 4.68 0 0 1 .671.075v3.547c-.163-.056-.422-.106-.777-.149-.348-.049-.686-.074-1.012-.074-.704 0-1.336.152-1.897.458-.554.298-.99.714-1.31 1.246s-.479 1.147-.479 1.843v9.62h-3.857zm11.895 0v-16.363h3.739v2.727h.17c.299-.945.81-1.673 1.534-2.184.732-.519 1.566-.778 2.504-.778l.714.032c.27.014.493.039.671.075v3.547c-.163-.056-.423-.106-.778-.149-.348-.049-.685-.074-1.012-.074-.703 0-1.335.152-1.896.458-.554.298-.991.714-1.311 1.246s-.479 1.147-.479 1.843v9.62h-3.856zm16.31.331c-1.037 0-1.971-.185-2.802-.554-.824-.377-1.477-.931-1.96-1.662-.476-.732-.714-1.634-.714-2.706 0-.924.171-1.687.511-2.291s.807-1.086 1.396-1.449 1.254-.635 1.992-.82c.746-.192 1.517-.33 2.312-.415l2.333-.267c.597-.085 1.03-.213 1.3-.383.277-.178.415-.451.415-.821v-.064c0-.802-.238-1.424-.713-1.864s-1.162-.66-2.057-.66c-.944 0-1.693.206-2.247.617-.547.412-.917.899-1.108 1.46l-3.601-.511c.284-.995.753-1.826 1.406-2.493a6.11 6.11 0 0 1 2.397-1.513c.945-.341 1.989-.511 3.132-.511a10.18 10.18 0 0 1 2.354.277c.782.184 1.496.49 2.142.916a4.6 4.6 0 0 1 1.555 1.715c.398.724.597 1.63.597 2.717v10.951h-3.708v-2.248h-.127c-.235.455-.565.881-.991 1.279-.419.39-.948.706-1.588.948-.632.234-1.374.352-2.226.352zm1.001-2.834c.774 0 1.446-.153 2.014-.458.568-.313 1.005-.725 1.31-1.236.313-.512.469-1.069.469-1.673v-1.928c-.121.099-.327.192-.618.277a8.82 8.82 0 0 1-.959.224l-1.054.17-.906.128c-.575.078-1.09.206-1.545.384s-.813.426-1.076.745c-.263.313-.394.718-.394 1.215 0 .71.259 1.246.778 1.608s1.179.544 1.981.544zm15.373-7.085v9.588h-3.856v-16.363h3.686v2.78h.192c.376-.916.976-1.644 1.8-2.184.831-.54 1.857-.809 3.079-.809 1.129 0 2.113.241 2.951.724.845.483 1.498 1.183 1.96 2.099.469.916.7 2.027.692 3.334v10.419h-3.856v-9.822c0-1.094-.284-1.95-.852-2.568-.561-.618-1.339-.926-2.333-.926-.675 0-1.275.149-1.801.447-.518.291-.927.714-1.225 1.268-.291.554-.437 1.225-.437 2.013zm22.596-6.775v2.983h-9.407v-2.983h9.407zm-7.084-3.921h3.856v15.362c0 .519.078.917.234 1.194.164.269.377.454.64.554s.554.149.873.149c.242 0 .462-.018.661-.054l.469-.095.649 3.014c-.206.071-.5.15-.884.235-.376.085-.838.135-1.385.149-.966.028-1.836-.117-2.61-.437-.774-.327-1.388-.831-1.843-1.513-.447-.681-.668-1.534-.66-2.556v-16.002zm12.706 26.421c-.525 0-1.012-.043-1.459-.128-.44-.078-.792-.171-1.055-.277l.895-3.004c.561.163 1.062.241 1.502.234s.828-.146 1.161-.416c.341-.262.629-.703.863-1.321l.331-.884-5.934-16.704h4.091l3.771 12.358h.17l3.782-12.358h4.102l-6.552 18.345c-.305.866-.71 1.608-1.214 2.226a4.95 4.95 0 0 1-1.854 1.428c-.725.334-1.591.501-2.6.501zm41.176-20.593h-3.985a4.95 4.95 0 0 0-.628-1.737 4.66 4.66 0 0 0-1.14-1.3c-.455-.355-.973-.621-1.555-.799-.576-.184-1.197-.277-1.865-.277-1.186 0-2.237.299-3.153.895-.916.59-1.634 1.456-2.152 2.6-.519 1.136-.778 2.525-.778 4.165 0 1.669.259 3.075.778 4.219.525 1.136 1.243 1.996 2.152 2.578.916.575 1.964.863 3.143.863.653 0 1.264-.085 1.832-.256a5.01 5.01 0 0 0 1.545-.777 4.58 4.58 0 0 0 1.161-1.258c.32-.497.54-1.065.66-1.704l3.985.021c-.149 1.037-.472 2.01-.97 2.919-.49.909-1.132 1.712-1.928 2.408-.795.689-1.726 1.229-2.791 1.619-1.065.384-2.248.576-3.548.576-1.917 0-3.629-.444-5.135-1.332s-2.691-2.17-3.558-3.846-1.3-3.686-1.3-6.03c0-2.351.437-4.361 1.311-6.03.873-1.676 2.063-2.958 3.569-3.846s3.21-1.331 5.113-1.331c1.215 0 2.344.17 3.388.511a8.68 8.68 0 0 1 2.791 1.502c.817.654 1.488 1.456 2.014 2.408.532.945.88 2.024 1.044 3.239zm8.158 14.787c-1.037 0-1.971-.185-2.802-.554-.824-.377-1.477-.931-1.96-1.662-.476-.732-.714-1.634-.714-2.706 0-.924.17-1.687.511-2.291a3.96 3.96 0 0 1 1.396-1.449c.589-.362 1.253-.635 1.992-.82a16.13 16.13 0 0 1 2.312-.415l2.333-.267c.596-.085 1.03-.213 1.3-.383.277-.178.415-.451.415-.821v-.064c0-.802-.238-1.424-.714-1.864s-1.161-.66-2.056-.66c-.944 0-1.694.206-2.248.617-.547.412-.916.899-1.108 1.46l-3.6-.511c.284-.995.752-1.826 1.406-2.493a6.11 6.11 0 0 1 2.397-1.513c.944-.341 1.988-.511 3.132-.511a10.18 10.18 0 0 1 2.354.277c.782.184 1.495.49 2.142.916.646.419 1.164.991 1.555 1.715.398.724.597 1.63.597 2.717v10.951h-3.708v-2.248h-.128a4.7 4.7 0 0 1-.99 1.279c-.419.39-.949.706-1.588.948-.632.234-1.374.352-2.226.352zm1.001-2.834c.774 0 1.445-.153 2.014-.458.568-.313 1.005-.725 1.31-1.236.312-.512.469-1.069.469-1.673v-1.928c-.121.099-.327.192-.618.277a8.82 8.82 0 0 1-.959.224l-1.055.17-.905.128c-.575.078-1.09.206-1.545.384s-.813.426-1.076.745c-.263.313-.394.718-.394 1.215 0 .71.259 1.246.778 1.608s1.179.544 1.981.544zm11.516 2.503v-16.363h3.74v2.727h.17c.299-.945.81-1.673 1.534-2.184.732-.519 1.566-.778 2.504-.778l.714.032c.27.014.493.039.671.075v3.547c-.164-.056-.423-.106-.778-.149-.348-.049-.685-.074-1.012-.074-.703 0-1.335.152-1.896.458-.554.298-.991.714-1.311 1.246s-.479 1.147-.479 1.843v9.62h-3.857zm17.294.288c-1.286 0-2.436-.33-3.452-.991s-1.818-1.619-2.408-2.876-.884-2.784-.884-4.581c0-1.818.298-3.353.895-4.603.604-1.257 1.417-2.205 2.44-2.844 1.022-.646 2.162-.969 3.419-.969.959 0 1.747.163 2.365.49.618.319 1.108.706 1.47 1.161.363.447.643.87.842 1.268h.16v-8.161h3.867v21.818h-3.793V455.9h-.234c-.199.398-.486.82-.863 1.268-.376.44-.873.817-1.491 1.129s-1.396.469-2.333.469zm1.076-3.164c.816 0 1.512-.22 2.088-.661.575-.447 1.012-1.069 1.31-1.864s.447-1.722.447-2.781-.149-1.978-.447-2.759c-.291-.781-.724-1.388-1.3-1.822-.568-.433-1.267-.649-2.098-.649-.86 0-1.577.223-2.152.671s-1.009 1.065-1.3 1.853-.437 1.691-.437 2.706c0 1.023.146 1.936.437 2.738.298.796.735 1.424 1.31 1.886.583.455 1.296.682 2.142.682z"/><path d="M1592.64 430.478V408.66h8.18c1.68 0 3.08.313 4.22.938s2.01 1.484 2.59 2.578c.59 1.086.88 2.322.88 3.707 0 1.399-.29 2.642-.88 3.729s-1.46 1.942-2.61 2.567c-1.15.618-2.57.927-4.25.927h-5.43v-3.249h4.89c.98 0 1.79-.171 2.41-.512.63-.34 1.09-.809 1.39-1.406s.45-1.282.45-2.056-.15-1.456-.45-2.045-.77-1.048-1.4-1.375c-.62-.333-1.43-.5-2.42-.5h-3.62v18.515h-3.95zm26.04.32c-1.6 0-2.99-.352-4.16-1.055s-2.08-1.687-2.72-2.951-.96-2.741-.96-4.432.32-3.171.96-4.442 1.55-2.259 2.72-2.962 2.56-1.054 4.16-1.054 2.98.351 4.15 1.054 2.08 1.691 2.72 2.962c.65 1.271.97 2.752.97 4.442s-.32 3.168-.97 4.432c-.64 1.264-1.55 2.248-2.72 2.951s-2.55 1.055-4.15 1.055zm.02-3.09c.87 0 1.59-.238 2.17-.713.58-.483 1.02-1.13 1.3-1.939.29-.81.44-1.712.44-2.706 0-1.002-.15-1.907-.44-2.717-.28-.817-.72-1.467-1.3-1.949s-1.3-.725-2.17-.725c-.89 0-1.63.242-2.22.725-.58.482-1.02 1.132-1.31 1.949-.28.81-.42 1.715-.42 2.717 0 .994.14 1.896.42 2.706.29.809.73 1.456 1.31 1.939.59.475 1.33.713 2.22.713zm14 2.77l-4.62-16.363h3.93l2.87 11.505h.15l2.94-11.505h3.89l2.94 11.441h.16l2.84-11.441h3.94l-4.64 16.363h-4.01l-3.07-11.058h-.22l-3.07 11.058h-4.03zm28.51.32c-1.64 0-3.06-.341-4.25-1.023-1.19-.689-2.1-1.662-2.74-2.919-.64-1.264-.96-2.752-.96-4.464 0-1.683.32-3.16.96-4.431.64-1.279 1.55-2.273 2.7-2.983 1.16-.718 2.52-1.076 4.08-1.076 1.01 0 1.96.163 2.86.49a6.48 6.48 0 0 1 2.39 1.491c.69.675 1.24 1.534 1.64 2.578.39 1.037.59 2.273.59 3.708v1.182h-13.41v-2.599h9.72c-.01-.739-.17-1.396-.48-1.971-.32-.583-.75-1.041-1.31-1.374s-1.2-.501-1.94-.501c-.79 0-1.48.192-2.08.575-.6.377-1.06.874-1.4 1.492-.32.61-.49 1.282-.5 2.013v2.269c0 .952.18 1.769.53 2.451.34.674.83 1.193 1.45 1.555.63.355 1.36.533 2.2.533.56 0 1.07-.079 1.52-.235.46-.163.85-.401 1.19-.714a2.99 2.99 0 0 0 .75-1.161l3.6.405a5.53 5.53 0 0 1-1.3 2.493c-.63.703-1.44 1.25-2.43 1.641-.98.383-2.11.575-3.38.575zm10.54-.32v-16.363h3.73v2.727h.17c.3-.945.81-1.673 1.54-2.184a4.22 4.22 0 0 1 2.5-.778l.72.032c.27.014.49.039.67.075v3.547c-.17-.056-.43-.106-.78-.149a7.33 7.33 0 0 0-1.01-.074c-.71 0-1.34.152-1.9.458-.55.298-.99.714-1.31 1.246s-.48 1.147-.48 1.843v9.62h-3.85zm-105.59 36h-4.22l7.68-21.818h4.88l7.69 21.818h-4.22l-5.82-17.343h-.18l-5.81 17.343zm.14-8.554h11.5v3.174h-11.5v-3.174zm24.17 8.842c-1.29 0-2.44-.33-3.45-.991-1.02-.66-1.82-1.619-2.41-2.876s-.88-2.784-.88-4.581c0-1.818.29-3.353.89-4.603.6-1.257 1.42-2.205 2.44-2.844 1.02-.646 2.16-.969 3.42-.969.96 0 1.75.163 2.36.49.62.319 1.11.706 1.47 1.161a6.81 6.81 0 0 1 .85 1.268h.16v-8.161h3.86v21.818h-3.79V463.9h-.23c-.2.398-.49.82-.87 1.268-.37.44-.87.817-1.49 1.129s-1.39.469-2.33.469zm1.07-3.164c.82 0 1.52-.22 2.09-.661.58-.447 1.02-1.069 1.31-1.864.3-.795.45-1.722.45-2.781s-.15-1.978-.45-2.759c-.29-.781-.72-1.388-1.3-1.822-.56-.433-1.26-.649-2.1-.649-.85 0-1.57.223-2.15.671-.57.447-1.01 1.065-1.3 1.853s-.43 1.691-.43 2.706c0 1.023.14 1.936.43 2.738.3.796.74 1.424 1.31 1.886.59.455 1.3.682 2.14.682zm16.46 3.207c-1.04 0-1.97-.185-2.8-.554-.82-.377-1.48-.931-1.96-1.662s-.71-1.634-.71-2.706c0-.924.17-1.687.51-2.291s.8-1.086 1.39-1.449 1.26-.635 2-.82a15.86 15.86 0 0 1 2.31-.415l2.33-.267c.6-.085 1.03-.213 1.3-.383.28-.178.42-.451.42-.821v-.064c0-.802-.24-1.424-.72-1.864-.47-.44-1.16-.66-2.05-.66-.95 0-1.7.206-2.25.617s-.92.899-1.11 1.46l-3.6-.511c.28-.995.75-1.826 1.4-2.493.66-.675 1.46-1.179 2.4-1.513.95-.341 1.99-.511 3.13-.511.79 0 1.58.092 2.36.277a6.65 6.65 0 0 1 2.14.916c.65.419 1.16.991 1.56 1.715.39.724.59 1.63.59 2.717v10.951h-3.71v-2.248h-.12c-.24.455-.57.881-.99 1.279-.42.39-.95.706-1.59.948-.63.234-1.38.352-2.23.352zm1-2.834c.78 0 1.45-.153 2.02-.458.56-.313 1-.725 1.31-1.236s.47-1.069.47-1.673v-1.928c-.12.099-.33.192-.62.277s-.61.16-.96.224l-1.06.17-.9.128a6.76 6.76 0 0 0-1.55.384c-.45.177-.81.426-1.07.745-.26.313-.4.718-.4 1.215 0 .71.26 1.246.78 1.608s1.18.544 1.98.544zm11.52 8.64v-22.5h3.79v2.706h.23c.19-.398.48-.821.84-1.268.36-.455.85-.842 1.47-1.161.62-.327 1.4-.49 2.36-.49 1.27 0 2.41.323 3.42.969 1.03.639 1.83 1.587 2.43 2.844.61 1.25.91 2.785.91 4.603 0 1.797-.3 3.324-.89 4.581s-1.39 2.216-2.4 2.876c-1.02.661-2.17.991-3.46.991-.93 0-1.71-.156-2.33-.469s-1.11-.689-1.49-1.129c-.37-.448-.66-.87-.86-1.268h-.16v8.715h-3.86zm3.78-14.319c0 1.059.15 1.986.45 2.781s.74 1.417 1.31 1.864c.57.441 1.27.661 2.09.661.85 0 1.56-.227 2.14-.682.57-.462 1.01-1.09 1.3-1.886.3-.802.45-1.715.45-2.738 0-1.015-.15-1.917-.44-2.706s-.73-1.406-1.3-1.853c-.58-.448-1.29-.671-2.15-.671-.83 0-1.53.216-2.1.649-.58.434-1.01 1.041-1.31 1.822-.29.781-.44 1.701-.44 2.759zm23.14-8.181v2.983h-9.41v-2.983h9.41zm-7.08-3.921h3.85v15.362c0 .519.08.917.24 1.194.16.269.37.454.64.554.26.099.55.149.87.149.24 0 .46-.018.66-.054l.47-.095.65 3.014c-.21.071-.5.15-.89.235-.37.085-.83.135-1.38.149-.97.028-1.84-.117-2.61-.437a4.05 4.05 0 0 1-1.84-1.513c-.45-.681-.67-1.534-.66-2.556v-16.002zm17.37 20.604c-1.64 0-3.05-.341-4.25-1.023a6.95 6.95 0 0 1-2.73-2.919c-.64-1.264-.96-2.752-.96-4.464 0-1.683.32-3.16.96-4.431.64-1.279 1.54-2.273 2.7-2.983 1.16-.718 2.52-1.076 4.08-1.076 1.01 0 1.96.163 2.86.49a6.44 6.44 0 0 1 2.38 1.491c.7.675 1.25 1.534 1.64 2.578.4 1.037.6 2.273.6 3.708v1.182h-13.41v-2.599h9.71c0-.739-.16-1.396-.48-1.971-.31-.583-.74-1.041-1.31-1.374-.55-.334-1.2-.501-1.93-.501-.79 0-1.49.192-2.08.575-.6.377-1.06.874-1.4 1.492-.32.61-.49 1.282-.5 2.013v2.269c0 .952.18 1.769.52 2.451a3.77 3.77 0 0 0 1.46 1.555c.63.355 1.36.533 2.2.533.56 0 1.07-.079 1.52-.235.46-.163.85-.401 1.18-.714.34-.312.59-.699.76-1.161l3.6.405a5.63 5.63 0 0 1-1.3 2.493c-.63.703-1.44 1.25-2.43 1.641-.98.383-2.11.575-3.39.575zm10.54-.32v-16.363h3.74v2.727h.17c.3-.945.81-1.673 1.54-2.184.73-.519 1.56-.778 2.5-.778l.71.032c.27.014.5.039.68.075v3.547c-.17-.056-.43-.106-.78-.149a7.33 7.33 0 0 0-1.01-.074c-.71 0-1.34.152-1.9.458-.55.298-.99.714-1.31 1.246s-.48 1.147-.48 1.843v9.62h-3.86zm24.83-12.038l-3.51.383c-.1-.355-.28-.688-.53-1.001-.24-.312-.56-.565-.98-.756-.41-.192-.91-.288-1.51-.288-.8 0-1.48.174-2.02.522s-.81.799-.8 1.353a1.39 1.39 0 0 0 .52 1.161c.36.299.96.544 1.79.735l2.79.597c1.55.334 2.7.863 3.45 1.587.76.725 1.15 1.673 1.15 2.845a4.44 4.44 0 0 1-.9 2.727c-.59.781-1.41 1.392-2.46 1.832s-2.26.661-3.63.661c-2 0-3.61-.419-4.83-1.257-1.22-.845-1.95-2.021-2.19-3.527l3.76-.362c.17.739.54 1.296 1.09 1.673s1.28.564 2.16.564c.92 0 1.65-.188 2.21-.564s.84-.842.84-1.396c0-.468-.18-.856-.54-1.161s-.91-.54-1.66-.703l-2.8-.586c-1.57-.327-2.73-.877-3.48-1.651-.75-.782-1.13-1.769-1.12-2.962-.01-1.008.27-1.882.82-2.621.56-.745 1.34-1.321 2.33-1.726 1.01-.411 2.16-.617 3.47-.617 1.91 0 3.42.408 4.53 1.225 1.1.816 1.79 1.921 2.05 3.313zm8.4 2.493l.25-4.315-3.63 2.376-1.3-2.259 3.87-1.939-3.87-1.938 1.3-2.259 3.63 2.376-.25-4.315h2.59l-.23 4.315 3.62-2.376 1.3 2.259-3.88 1.938 3.88 1.939-1.3 2.259-3.62-2.376.23 4.315h-2.59z"/></g><defs><linearGradient id="D" x1="150.413" y1="364.202" x2="379.024" y2="364.202" href="#N"><stop stop-color="#d84896"/><stop offset="1" stop-color="#a733c3"/></linearGradient><linearGradient id="E" x1="974.457" y1="371.757" x2="1203.07" y2="371.757" href="#N"><stop stop-color="#d84896"/><stop offset="1" stop-color="#a733c3"/></linearGradient><linearGradient id="F" x1="418.458" y1="364.202" x2="647.069" y2="364.202" href="#N"><stop stop-color="#d84896"/><stop offset="1" stop-color="#a733c3"/></linearGradient><linearGradient id="G" x1="1249.6" y1="371.757" x2="1478.21" y2="371.757" href="#N"><stop stop-color="#d84896"/><stop offset="1" stop-color="#a733c3"/></linearGradient><linearGradient id="H" x1="686.504" y1="364.202" x2="915.114" y2="364.202" href="#N"><stop stop-color="#d84896"/><stop offset="1" stop-color="#a733c3"/></linearGradient><linearGradient id="I" x1="1517.65" y1="371.757" x2="1746.26" y2="371.757" href="#N"><stop stop-color="#d84896"/><stop offset="1" stop-color="#a733c3"/></linearGradient><clipPath id="J"><path fill="#fff" transform="translate(763.099 218.478)" d="M0 0h73v72H0z"/></clipPath><clipPath id="K"><path fill="#fff" transform="translate(1624.1 261.478)" d="M0 0h53v53H0z"/></clipPath><clipPath id="L"><path fill="#fff" transform="translate(1338.1 252.478)" d="M0 0h52v51H0z"/></clipPath><path id="M" d="M265.531 312.365v5.127"/><linearGradient id="N" gradientUnits="userSpaceOnUse"/></defs></svg>